<?xml version="1.0" encoding="UTF-8" standalone="no"?>
<!DOCTYPE svg PUBLIC "-//W3C//DTD SVG 1.1//EN"
 "http://www.w3.org/Graphics/SVG/1.1/DTD/svg11.dtd">
<!-- Generated by graphviz version 2.38.0 (20140413.2041)
 -->
<!-- Title: C:/projects/ndt/sources/include/ndt/address.h Pages: 1 -->
<svg width="1307pt" height="263pt"
 viewBox="0.00 0.00 1306.50 263.00" xmlns="http://www.w3.org/2000/svg" xmlns:xlink="http://www.w3.org/1999/xlink">
<g id="graph0" class="graph" transform="scale(1 1) rotate(0) translate(4 259)">
<title>C:/projects/ndt/sources/include/ndt/address.h</title>
<polygon fill="white" stroke="none" points="-4,4 -4,-259 1302.5,-259 1302.5,4 -4,4"/>
<!-- Node1 -->
<g id="node1" class="node"><title>Node1</title>
<g id="a_node1"><a xlink:title=" ">
<polygon fill="#bfbfbf" stroke="black" points="547,-224.5 547,-254.5 665,-254.5 665,-224.5 547,-224.5"/>
<text text-anchor="start" x="555" y="-242.5" font-family="Helvetica,sans-Serif" font-size="10.00">C:/projects/ndt/sources</text>
<text text-anchor="middle" x="606" y="-231.5" font-family="Helvetica,sans-Serif" font-size="10.00">/include/ndt/address.h</text>
</a>
</g>
</g>
<!-- Node2 -->
<g id="node2" class="node"><title>Node2</title>
<g id="a_node2"><a xlink:title=" ">
<polygon fill="white" stroke="#bfbfbf" points="350.5,-168.5 350.5,-187.5 391.5,-187.5 391.5,-168.5 350.5,-168.5"/>
<text text-anchor="middle" x="371" y="-175.5" font-family="Helvetica,sans-Serif" font-size="10.00">string</text>
</a>
</g>
</g>
<!-- Node1&#45;&gt;Node2 -->
<g id="edge1" class="edge"><title>Node1&#45;&gt;Node2</title>
<path fill="none" stroke="midnightblue" d="M546.59,-224.694C507.88,-215.507 456.066,-202.853 401.478,-188.027"/>
<polygon fill="midnightblue" stroke="midnightblue" points="402.187,-184.592 391.618,-185.333 400.342,-191.345 402.187,-184.592"/>
</g>
<!-- Node3 -->
<g id="node3" class="node"><title>Node3</title>
<g id="a_node3"><a xlink:title=" ">
<polygon fill="white" stroke="#bfbfbf" points="410,-168.5 410,-187.5 454,-187.5 454,-168.5 410,-168.5"/>
<text text-anchor="middle" x="432" y="-175.5" font-family="Helvetica,sans-Serif" font-size="10.00">variant</text>
</a>
</g>
</g>
<!-- Node1&#45;&gt;Node3 -->
<g id="edge2" class="edge"><title>Node1&#45;&gt;Node3</title>
<path fill="none" stroke="midnightblue" d="M564.764,-224.399C533.975,-213.871 492.495,-199.686 464.143,-189.991"/>
<polygon fill="midnightblue" stroke="midnightblue" points="464.93,-186.562 454.336,-186.638 462.665,-193.185 464.93,-186.562"/>
</g>
<!-- Node4 -->
<g id="node4" class="node"><title>Node4</title>
<g id="a_node4"><a xlink:href="bin__rw_8h.html" target="_top" xlink:title=" ">
<polygon fill="white" stroke="black" points="472.5,-168.5 472.5,-187.5 525.5,-187.5 525.5,-168.5 472.5,-168.5"/>
<text text-anchor="middle" x="499" y="-175.5" font-family="Helvetica,sans-Serif" font-size="10.00">bin_rw.h</text>
</a>
</g>
</g>
<!-- Node1&#45;&gt;Node4 -->
<g id="edge3" class="edge"><title>Node1&#45;&gt;Node4</title>
<path fill="none" stroke="midnightblue" d="M580.642,-224.399C563.331,-214.773 540.524,-202.09 523.416,-192.577"/>
<polygon fill="midnightblue" stroke="midnightblue" points="525.01,-189.459 514.569,-187.658 521.608,-195.577 525.01,-189.459"/>
</g>
<!-- Node8 -->
<g id="node8" class="node"><title>Node8</title>
<g id="a_node8"><a xlink:href="buffer_8h.html" target="_top" xlink:title=" ">
<polygon fill="white" stroke="black" points="475,-112.5 475,-131.5 523,-131.5 523,-112.5 475,-112.5"/>
<text text-anchor="middle" x="499" y="-119.5" font-family="Helvetica,sans-Serif" font-size="10.00">buffer.h</text>
</a>
</g>
</g>
<!-- Node1&#45;&gt;Node8 -->
<g id="edge40" class="edge"><title>Node1&#45;&gt;Node8</title>
<path fill="none" stroke="midnightblue" d="M592.88,-224.337C572.9,-202.77 534.957,-161.813 513.943,-139.13"/>
<polygon fill="midnightblue" stroke="midnightblue" points="516.395,-136.627 507.031,-131.669 511.26,-141.384 516.395,-136.627"/>
</g>
<!-- Node26 -->
<g id="node26" class="node"><title>Node26</title>
<g id="a_node26"><a xlink:href="utils_8h.html" target="_top" xlink:title=" ">
<polygon fill="white" stroke="black" points="628.5,-112.5 628.5,-131.5 671.5,-131.5 671.5,-112.5 628.5,-112.5"/>
<text text-anchor="middle" x="650" y="-119.5" font-family="Helvetica,sans-Serif" font-size="10.00">utils.h</text>
</a>
</g>
</g>
<!-- Node1&#45;&gt;Node26 -->
<g id="edge51" class="edge"><title>Node1&#45;&gt;Node26</title>
<path fill="none" stroke="midnightblue" d="M611.395,-224.337C619.359,-203.433 634.263,-164.31 643.04,-141.27"/>
<polygon fill="midnightblue" stroke="midnightblue" points="646.408,-142.26 646.697,-131.669 639.867,-139.768 646.408,-142.26"/>
</g>
<!-- Node32 -->
<g id="node32" class="node"><title>Node32</title>
<g id="a_node32"><a xlink:href="exception_8h.html" target="_top" xlink:title=" ">
<polygon fill="white" stroke="black" points="843.5,-112.5 843.5,-131.5 910.5,-131.5 910.5,-112.5 843.5,-112.5"/>
<text text-anchor="middle" x="877" y="-119.5" font-family="Helvetica,sans-Serif" font-size="10.00">exception.h</text>
</a>
</g>
</g>
<!-- Node1&#45;&gt;Node32 -->
<g id="edge41" class="edge"><title>Node1&#45;&gt;Node32</title>
<path fill="none" stroke="midnightblue" d="M638.959,-224.453C692.253,-201.739 796.512,-157.304 847.5,-135.573"/>
<polygon fill="midnightblue" stroke="midnightblue" points="849.13,-138.683 856.957,-131.542 846.385,-132.243 849.13,-138.683"/>
</g>
<!-- Node33 -->
<g id="node33" class="node"><title>Node33</title>
<g id="a_node33"><a xlink:href="sys__socket__ops_8h.html" target="_top" xlink:title=" ">
<polygon fill="white" stroke="black" points="912,-168.5 912,-187.5 1008,-187.5 1008,-168.5 912,-168.5"/>
<text text-anchor="middle" x="960" y="-175.5" font-family="Helvetica,sans-Serif" font-size="10.00">sys_socket_ops.h</text>
</a>
</g>
</g>
<!-- Node1&#45;&gt;Node33 -->
<g id="edge44" class="edge"><title>Node1&#45;&gt;Node33</title>
<path fill="none" stroke="midnightblue" d="M665.252,-228.541C731.016,-217.487 836.471,-199.763 901.806,-188.781"/>
<polygon fill="midnightblue" stroke="midnightblue" points="902.654,-192.188 911.936,-187.079 901.494,-185.285 902.654,-192.188"/>
</g>
<!-- Node36 -->
<g id="node36" class="node"><title>Node36</title>
<g id="a_node36"><a xlink:href="tag_8h.html" target="_top" xlink:title=" ">
<polygon fill="white" stroke="black" points="1026,-168.5 1026,-187.5 1064,-187.5 1064,-168.5 1026,-168.5"/>
<text text-anchor="middle" x="1045" y="-175.5" font-family="Helvetica,sans-Serif" font-size="10.00">tag.h</text>
</a>
</g>
</g>
<!-- Node1&#45;&gt;Node36 -->
<g id="edge50" class="edge"><title>Node1&#45;&gt;Node36</title>
<path fill="none" stroke="midnightblue" d="M665.122,-234.755C743.466,-229.016 885.961,-215.885 1015.74,-187.899"/>
<polygon fill="midnightblue" stroke="midnightblue" points="1016.83,-191.241 1025.85,-185.681 1015.33,-184.404 1016.83,-191.241"/>
</g>
<!-- Node5 -->
<g id="node5" class="node"><title>Node5</title>
<g id="a_node5"><a xlink:title=" ">
<polygon fill="white" stroke="#bfbfbf" points="325,-112.5 325,-131.5 381,-131.5 381,-112.5 325,-112.5"/>
<text text-anchor="middle" x="353" y="-119.5" font-family="Helvetica,sans-Serif" font-size="10.00">algorithm</text>
</a>
</g>
</g>
<!-- Node4&#45;&gt;Node5 -->
<g id="edge4" class="edge"><title>Node4&#45;&gt;Node5</title>
<path fill="none" stroke="midnightblue" d="M475.866,-168.444C451.518,-159.438 412.993,-145.189 385.577,-135.049"/>
<polygon fill="midnightblue" stroke="midnightblue" points="386.619,-131.703 376.026,-131.516 384.191,-138.268 386.619,-131.703"/>
</g>
<!-- Node6 -->
<g id="node6" class="node"><title>Node6</title>
<g id="a_node6"><a xlink:title=" ">
<polygon fill="white" stroke="#bfbfbf" points="268,-56.5 268,-75.5 314,-75.5 314,-56.5 268,-56.5"/>
<text text-anchor="middle" x="291" y="-63.5" font-family="Helvetica,sans-Serif" font-size="10.00">cstring</text>
</a>
</g>
</g>
<!-- Node4&#45;&gt;Node6 -->
<g id="edge5" class="edge"><title>Node4&#45;&gt;Node6</title>
<path fill="none" stroke="midnightblue" d="M484.404,-168.418C469.084,-159.395 444.31,-144.766 423,-132 408.288,-123.187 405.166,-120.007 390,-112 367.433,-100.086 341.098,-88.2084 321.265,-79.6499"/>
<polygon fill="midnightblue" stroke="midnightblue" points="322.39,-76.3243 311.819,-75.612 319.638,-82.7609 322.39,-76.3243"/>
</g>
<!-- Node7 -->
<g id="node7" class="node"><title>Node7</title>
<g id="a_node7"><a xlink:title=" ">
<polygon fill="white" stroke="#bfbfbf" points="332,-56.5 332,-75.5 394,-75.5 394,-56.5 332,-56.5"/>
<text text-anchor="middle" x="363" y="-63.5" font-family="Helvetica,sans-Serif" font-size="10.00">type_traits</text>
</a>
</g>
</g>
<!-- Node4&#45;&gt;Node7 -->
<g id="edge6" class="edge"><title>Node4&#45;&gt;Node7</title>
<path fill="none" stroke="midnightblue" d="M489.331,-168.382C475.054,-155.738 447.388,-131.542 423,-112 410.044,-101.619 395.111,-90.4161 383.383,-81.7851"/>
<polygon fill="midnightblue" stroke="midnightblue" points="385.263,-78.8234 375.126,-75.7424 381.129,-84.4725 385.263,-78.8234"/>
</g>
<!-- Node4&#45;&gt;Node8 -->
<g id="edge7" class="edge"><title>Node4&#45;&gt;Node8</title>
<path fill="none" stroke="midnightblue" d="M499,-168.083C499,-161.006 499,-150.861 499,-141.986"/>
<polygon fill="midnightblue" stroke="midnightblue" points="502.5,-141.751 499,-131.751 495.5,-141.751 502.5,-141.751"/>
</g>
<!-- Node22 -->
<g id="node22" class="node"><title>Node22</title>
<g id="a_node22"><a xlink:href="endian_8h.html" target="_top" xlink:title=" ">
<polygon fill="white" stroke="black" points="200.5,-112.5 200.5,-131.5 253.5,-131.5 253.5,-112.5 200.5,-112.5"/>
<text text-anchor="middle" x="227" y="-119.5" font-family="Helvetica,sans-Serif" font-size="10.00">endian.h</text>
</a>
</g>
</g>
<!-- Node4&#45;&gt;Node22 -->
<g id="edge23" class="edge"><title>Node4&#45;&gt;Node22</title>
<path fill="none" stroke="midnightblue" d="M472.303,-170.147C469.173,-169.397 466.02,-168.665 463,-168 392.75,-152.534 310.048,-137.484 263.552,-129.308"/>
<polygon fill="midnightblue" stroke="midnightblue" points="264.098,-125.851 253.645,-127.574 262.891,-132.746 264.098,-125.851"/>
</g>
<!-- Node4&#45;&gt;Node26 -->
<g id="edge30" class="edge"><title>Node4&#45;&gt;Node26</title>
<path fill="none" stroke="midnightblue" d="M522.926,-168.444C548.814,-159.186 590.197,-144.387 618.663,-134.207"/>
<polygon fill="midnightblue" stroke="midnightblue" points="619.909,-137.478 628.147,-130.815 617.552,-130.887 619.909,-137.478"/>
</g>
<!-- Node8&#45;&gt;Node7 -->
<g id="edge12" class="edge"><title>Node8&#45;&gt;Node7</title>
<path fill="none" stroke="midnightblue" d="M477.45,-112.444C454.969,-103.517 419.512,-89.4387 394.02,-79.3168"/>
<polygon fill="midnightblue" stroke="midnightblue" points="395.035,-75.9539 384.449,-75.5164 392.451,-82.4598 395.035,-75.9539"/>
</g>
<!-- Node9 -->
<g id="node9" class="node"><title>Node9</title>
<g id="a_node9"><a xlink:title=" ">
<polygon fill="white" stroke="#bfbfbf" points="412.5,-56.5 412.5,-75.5 461.5,-75.5 461.5,-56.5 412.5,-56.5"/>
<text text-anchor="middle" x="437" y="-63.5" font-family="Helvetica,sans-Serif" font-size="10.00">cassert</text>
</a>
</g>
</g>
<!-- Node8&#45;&gt;Node9 -->
<g id="edge8" class="edge"><title>Node8&#45;&gt;Node9</title>
<path fill="none" stroke="midnightblue" d="M489.039,-112.324C479.873,-104.341 466.063,-92.3128 454.972,-82.6529"/>
<polygon fill="midnightblue" stroke="midnightblue" points="456.982,-79.7624 447.143,-75.8339 452.385,-85.041 456.982,-79.7624"/>
</g>
<!-- Node10 -->
<g id="node10" class="node"><title>Node10</title>
<g id="a_node10"><a xlink:title=" ">
<polygon fill="white" stroke="#bfbfbf" points="536,-0.5 536,-19.5 584,-19.5 584,-0.5 536,-0.5"/>
<text text-anchor="middle" x="560" y="-7.5" font-family="Helvetica,sans-Serif" font-size="10.00">cstddef</text>
</a>
</g>
</g>
<!-- Node8&#45;&gt;Node10 -->
<g id="edge9" class="edge"><title>Node8&#45;&gt;Node10</title>
<path fill="none" stroke="midnightblue" d="M498.525,-112.417C498.184,-99.3944 499.033,-74.2337 509,-56 515.637,-43.8579 526.885,-33.4026 537.131,-25.6341"/>
<polygon fill="midnightblue" stroke="midnightblue" points="539.262,-28.4132 545.379,-19.7625 535.203,-22.7105 539.262,-28.4132"/>
</g>
<!-- Node11 -->
<g id="node11" class="node"><title>Node11</title>
<g id="a_node11"><a xlink:title=" ">
<polygon fill="white" stroke="#bfbfbf" points="204,-56.5 204,-75.5 250,-75.5 250,-56.5 204,-56.5"/>
<text text-anchor="middle" x="227" y="-63.5" font-family="Helvetica,sans-Serif" font-size="10.00">cstdint</text>
</a>
</g>
</g>
<!-- Node8&#45;&gt;Node11 -->
<g id="edge10" class="edge"><title>Node8&#45;&gt;Node11</title>
<path fill="none" stroke="midnightblue" d="M474.664,-117.172C432.804,-110.43 344.304,-95.4912 260,-76.0634"/>
<polygon fill="midnightblue" stroke="midnightblue" points="260.542,-72.5961 250.009,-73.7349 258.953,-79.4134 260.542,-72.5961"/>
</g>
<!-- Node12 -->
<g id="node12" class="node"><title>Node12</title>
<g id="a_node12"><a xlink:title=" ">
<polygon fill="white" stroke="#bfbfbf" points="840,-56.5 840,-75.5 914,-75.5 914,-56.5 840,-56.5"/>
<text text-anchor="middle" x="877" y="-63.5" font-family="Helvetica,sans-Serif" font-size="10.00">system_error</text>
</a>
</g>
</g>
<!-- Node8&#45;&gt;Node12 -->
<g id="edge11" class="edge"><title>Node8&#45;&gt;Node12</title>
<path fill="none" stroke="midnightblue" d="M523.234,-118.208C576.649,-111.95 708.739,-95.8993 829.703,-76.1324"/>
<polygon fill="midnightblue" stroke="midnightblue" points="830.579,-79.5355 839.877,-74.4567 829.441,-72.6286 830.579,-79.5355"/>
</g>
<!-- Node13 -->
<g id="node13" class="node"><title>Node13</title>
<g id="a_node13"><a xlink:href="common_8h.html" target="_top" xlink:title="Header with typedefs to make type designation platform independent.">
<polygon fill="white" stroke="black" points="996,-56.5 996,-75.5 1058,-75.5 1058,-56.5 996,-56.5"/>
<text text-anchor="middle" x="1027" y="-63.5" font-family="Helvetica,sans-Serif" font-size="10.00">common.h</text>
</a>
</g>
</g>
<!-- Node8&#45;&gt;Node13 -->
<g id="edge13" class="edge"><title>Node8&#45;&gt;Node13</title>
<path fill="none" stroke="midnightblue" d="M523.178,-119.188C605.91,-112.923 878.061,-91.7799 985.736,-75.9732"/>
<polygon fill="midnightblue" stroke="midnightblue" points="986.275,-79.4317 995.631,-74.4609 985.217,-72.512 986.275,-79.4317"/>
</g>
<!-- Node13&#45;&gt;Node10 -->
<g id="edge22" class="edge"><title>Node13&#45;&gt;Node10</title>
<path fill="none" stroke="midnightblue" d="M995.625,-57.5783C992.717,-57.0002 989.809,-56.4625 987,-56 842.181,-32.1598 667.541,-18.3722 594.617,-13.2763"/>
<polygon fill="midnightblue" stroke="midnightblue" points="594.425,-9.75489 584.208,-12.56 593.945,-16.7384 594.425,-9.75489"/>
</g>
<!-- Node14 -->
<g id="node14" class="node"><title>Node14</title>
<g id="a_node14"><a xlink:title=" ">
<polygon fill="white" stroke="#bfbfbf" points="1110,-0.5 1110,-19.5 1172,-19.5 1172,-0.5 1110,-0.5"/>
<text text-anchor="middle" x="1141" y="-7.5" font-family="Helvetica,sans-Serif" font-size="10.00">arpa/inet.h</text>
</a>
</g>
</g>
<!-- Node13&#45;&gt;Node14 -->
<g id="edge14" class="edge"><title>Node13&#45;&gt;Node14</title>
<path fill="none" stroke="midnightblue" d="M1045.06,-56.4435C1063.57,-47.6751 1092.58,-33.9355 1113.86,-23.8579"/>
<polygon fill="midnightblue" stroke="midnightblue" points="1115.48,-26.9604 1123.02,-19.5164 1112.49,-20.6343 1115.48,-26.9604"/>
</g>
<!-- Node15 -->
<g id="node15" class="node"><title>Node15</title>
<g id="a_node15"><a xlink:title=" ">
<polygon fill="white" stroke="#bfbfbf" points="1190.5,-0.5 1190.5,-19.5 1237.5,-19.5 1237.5,-0.5 1190.5,-0.5"/>
<text text-anchor="middle" x="1214" y="-7.5" font-family="Helvetica,sans-Serif" font-size="10.00">errno.h</text>
</a>
</g>
</g>
<!-- Node13&#45;&gt;Node15 -->
<g id="edge15" class="edge"><title>Node13&#45;&gt;Node15</title>
<path fill="none" stroke="midnightblue" d="M1056.63,-56.4435C1090.37,-46.6993 1145.38,-30.8158 1180.61,-20.6414"/>
<polygon fill="midnightblue" stroke="midnightblue" points="1181.79,-23.9437 1190.43,-17.8067 1179.85,-17.2185 1181.79,-23.9437"/>
</g>
<!-- Node16 -->
<g id="node16" class="node"><title>Node16</title>
<g id="a_node16"><a xlink:title=" ">
<polygon fill="white" stroke="#bfbfbf" points="1255.5,-0.5 1255.5,-19.5 1298.5,-19.5 1298.5,-0.5 1255.5,-0.5"/>
<text text-anchor="middle" x="1277" y="-7.5" font-family="Helvetica,sans-Serif" font-size="10.00">fcntl.h</text>
</a>
</g>
</g>
<!-- Node13&#45;&gt;Node16 -->
<g id="edge16" class="edge"><title>Node13&#45;&gt;Node16</title>
<path fill="none" stroke="midnightblue" d="M1058.43,-57.8543C1061.32,-57.2183 1064.21,-56.5917 1067,-56 1143.69,-39.7067 1166.11,-39.7157 1245.47,-20.211"/>
<polygon fill="midnightblue" stroke="midnightblue" points="1246.58,-23.5423 1255.44,-17.7333 1244.89,-16.749 1246.58,-23.5423"/>
</g>
<!-- Node17 -->
<g id="node17" class="node"><title>Node17</title>
<g id="a_node17"><a xlink:title=" ">
<polygon fill="white" stroke="#bfbfbf" points="712.5,-0.5 712.5,-19.5 761.5,-19.5 761.5,-0.5 712.5,-0.5"/>
<text text-anchor="middle" x="737" y="-7.5" font-family="Helvetica,sans-Serif" font-size="10.00">netdb.h</text>
</a>
</g>
</g>
<!-- Node13&#45;&gt;Node17 -->
<g id="edge17" class="edge"><title>Node13&#45;&gt;Node17</title>
<path fill="none" stroke="midnightblue" d="M995.592,-57.7582C992.692,-57.1424 989.794,-56.5468 987,-56 894.565,-37.913 867.852,-40.2935 771.663,-19.9644"/>
<polygon fill="midnightblue" stroke="midnightblue" points="772.329,-16.5278 761.818,-17.8565 770.863,-23.3726 772.329,-16.5278"/>
</g>
<!-- Node18 -->
<g id="node18" class="node"><title>Node18</title>
<g id="a_node18"><a xlink:title=" ">
<polygon fill="white" stroke="#bfbfbf" points="779.5,-0.5 779.5,-19.5 844.5,-19.5 844.5,-0.5 779.5,-0.5"/>
<text text-anchor="middle" x="812" y="-7.5" font-family="Helvetica,sans-Serif" font-size="10.00">netinet/in.h</text>
</a>
</g>
</g>
<!-- Node13&#45;&gt;Node18 -->
<g id="edge18" class="edge"><title>Node13&#45;&gt;Node18</title>
<path fill="none" stroke="midnightblue" d="M995.737,-57.1479C958.51,-47.7979 896.152,-32.1359 854.552,-21.6874"/>
<polygon fill="midnightblue" stroke="midnightblue" points="855.262,-18.2571 844.71,-19.2157 853.557,-25.0463 855.262,-18.2571"/>
</g>
<!-- Node19 -->
<g id="node19" class="node"><title>Node19</title>
<g id="a_node19"><a xlink:title=" ">
<polygon fill="white" stroke="#bfbfbf" points="862.5,-0.5 862.5,-19.5 935.5,-19.5 935.5,-0.5 862.5,-0.5"/>
<text text-anchor="middle" x="899" y="-7.5" font-family="Helvetica,sans-Serif" font-size="10.00">sys/socket.h</text>
</a>
</g>
</g>
<!-- Node13&#45;&gt;Node19 -->
<g id="edge19" class="edge"><title>Node13&#45;&gt;Node19</title>
<path fill="none" stroke="midnightblue" d="M1006.72,-56.4435C985.653,-47.5566 952.483,-33.5632 928.514,-23.4514"/>
<polygon fill="midnightblue" stroke="midnightblue" points="929.761,-20.1787 919.187,-19.5164 927.04,-26.6283 929.761,-20.1787"/>
</g>
<!-- Node20 -->
<g id="node20" class="node"><title>Node20</title>
<g id="a_node20"><a xlink:title=" ">
<polygon fill="white" stroke="#bfbfbf" points="954,-0.5 954,-19.5 1022,-19.5 1022,-0.5 954,-0.5"/>
<text text-anchor="middle" x="988" y="-7.5" font-family="Helvetica,sans-Serif" font-size="10.00">sys/types.h</text>
</a>
</g>
</g>
<!-- Node13&#45;&gt;Node20 -->
<g id="edge20" class="edge"><title>Node13&#45;&gt;Node20</title>
<path fill="none" stroke="midnightblue" d="M1020.56,-56.083C1015.05,-48.4554 1006.97,-37.2645 1000.24,-27.9408"/>
<polygon fill="midnightblue" stroke="midnightblue" points="1003.01,-25.8087 994.32,-19.7511 997.338,-29.9071 1003.01,-25.8087"/>
</g>
<!-- Node21 -->
<g id="node21" class="node"><title>Node21</title>
<g id="a_node21"><a xlink:title=" ">
<polygon fill="white" stroke="#bfbfbf" points="1040.5,-0.5 1040.5,-19.5 1091.5,-19.5 1091.5,-0.5 1040.5,-0.5"/>
<text text-anchor="middle" x="1066" y="-7.5" font-family="Helvetica,sans-Serif" font-size="10.00">unistd.h</text>
</a>
</g>
</g>
<!-- Node13&#45;&gt;Node21 -->
<g id="edge21" class="edge"><title>Node13&#45;&gt;Node21</title>
<path fill="none" stroke="midnightblue" d="M1033.44,-56.083C1038.95,-48.4554 1047.03,-37.2645 1053.76,-27.9408"/>
<polygon fill="midnightblue" stroke="midnightblue" points="1056.66,-29.9071 1059.68,-19.7511 1050.99,-25.8087 1056.66,-29.9071"/>
</g>
<!-- Node22&#45;&gt;Node6 -->
<g id="edge26" class="edge"><title>Node22&#45;&gt;Node6</title>
<path fill="none" stroke="midnightblue" d="M237.283,-112.324C246.836,-104.263 261.28,-92.0765 272.784,-82.3695"/>
<polygon fill="midnightblue" stroke="midnightblue" points="275.144,-84.9577 280.53,-75.8339 270.63,-79.6076 275.144,-84.9577"/>
</g>
<!-- Node22&#45;&gt;Node7 -->
<g id="edge28" class="edge"><title>Node22&#45;&gt;Node7</title>
<path fill="none" stroke="midnightblue" d="M248.55,-112.444C271.031,-103.517 306.488,-89.4387 331.98,-79.3168"/>
<polygon fill="midnightblue" stroke="midnightblue" points="333.549,-82.4598 341.551,-75.5164 330.965,-75.9539 333.549,-82.4598"/>
</g>
<!-- Node22&#45;&gt;Node11 -->
<g id="edge25" class="edge"><title>Node22&#45;&gt;Node11</title>
<path fill="none" stroke="midnightblue" d="M227,-112.083C227,-105.006 227,-94.8611 227,-85.9865"/>
<polygon fill="midnightblue" stroke="midnightblue" points="230.5,-85.751 227,-75.7511 223.5,-85.7511 230.5,-85.751"/>
</g>
<!-- Node23 -->
<g id="node23" class="node"><title>Node23</title>
<g id="a_node23"><a xlink:title=" ">
<polygon fill="white" stroke="#bfbfbf" points="140.5,-56.5 140.5,-75.5 185.5,-75.5 185.5,-56.5 140.5,-56.5"/>
<text text-anchor="middle" x="163" y="-63.5" font-family="Helvetica,sans-Serif" font-size="10.00">climits</text>
</a>
</g>
</g>
<!-- Node22&#45;&gt;Node23 -->
<g id="edge24" class="edge"><title>Node22&#45;&gt;Node23</title>
<path fill="none" stroke="midnightblue" d="M216.717,-112.324C207.164,-104.263 192.72,-92.0765 181.216,-82.3695"/>
<polygon fill="midnightblue" stroke="midnightblue" points="183.37,-79.6076 173.47,-75.8339 178.856,-84.9577 183.37,-79.6076"/>
</g>
<!-- Node24 -->
<g id="node24" class="node"><title>Node24</title>
<g id="a_node24"><a xlink:title=" ">
<polygon fill="white" stroke="#bfbfbf" points="0,-56.5 0,-75.5 64,-75.5 64,-56.5 0,-56.5"/>
<text text-anchor="middle" x="32" y="-63.5" font-family="Helvetica,sans-Serif" font-size="10.00">string_view</text>
</a>
</g>
</g>
<!-- Node22&#45;&gt;Node24 -->
<g id="edge27" class="edge"><title>Node22&#45;&gt;Node24</title>
<path fill="none" stroke="midnightblue" d="M200.295,-113.605C167.357,-104.483 111.03,-88.8852 72.6947,-78.2693"/>
<polygon fill="midnightblue" stroke="midnightblue" points="73.4495,-74.8467 62.8781,-75.5509 71.5813,-81.5928 73.4495,-74.8467"/>
</g>
<!-- Node25 -->
<g id="node25" class="node"><title>Node25</title>
<g id="a_node25"><a xlink:title=" ">
<polygon fill="white" stroke="#bfbfbf" points="82,-56.5 82,-75.5 122,-75.5 122,-56.5 82,-56.5"/>
<text text-anchor="middle" x="102" y="-63.5" font-family="Helvetica,sans-Serif" font-size="10.00">utility</text>
</a>
</g>
</g>
<!-- Node22&#45;&gt;Node25 -->
<g id="edge29" class="edge"><title>Node22&#45;&gt;Node25</title>
<path fill="none" stroke="midnightblue" d="M207.193,-112.444C186.713,-103.596 154.517,-89.6875 131.135,-79.5865"/>
<polygon fill="midnightblue" stroke="midnightblue" points="132.282,-76.2692 121.714,-75.5164 129.506,-82.6953 132.282,-76.2692"/>
</g>
<!-- Node26&#45;&gt;Node6 -->
<g id="edge35" class="edge"><title>Node26&#45;&gt;Node6</title>
<path fill="none" stroke="midnightblue" d="M628.4,-119.064C577.212,-114.258 444.415,-100.514 324.415,-76.0493"/>
<polygon fill="midnightblue" stroke="midnightblue" points="324.829,-72.5608 314.327,-73.9605 323.41,-79.4154 324.829,-72.5608"/>
</g>
<!-- Node26&#45;&gt;Node7 -->
<g id="edge37" class="edge"><title>Node26&#45;&gt;Node7</title>
<path fill="none" stroke="midnightblue" d="M628.468,-117.384C587.047,-110.362 493.186,-94.1357 404.38,-76.2186"/>
<polygon fill="midnightblue" stroke="midnightblue" points="404.913,-72.7555 394.417,-74.1968 403.521,-79.6157 404.913,-72.7555"/>
</g>
<!-- Node26&#45;&gt;Node12 -->
<g id="edge36" class="edge"><title>Node26&#45;&gt;Node12</title>
<path fill="none" stroke="midnightblue" d="M671.766,-115.822C708.337,-107.123 782.859,-89.3948 831.325,-77.8655"/>
<polygon fill="midnightblue" stroke="midnightblue" points="832.33,-81.2241 841.248,-75.5048 830.71,-74.4142 832.33,-81.2241"/>
</g>
<!-- Node26&#45;&gt;Node13 -->
<g id="edge39" class="edge"><title>Node26&#45;&gt;Node13</title>
<path fill="none" stroke="midnightblue" d="M671.788,-118.768C724.135,-113.261 861.269,-97.9881 985.544,-76.1289"/>
<polygon fill="midnightblue" stroke="midnightblue" points="986.378,-79.5357 995.61,-74.3386 985.152,-72.6438 986.378,-79.5357"/>
</g>
<!-- Node27 -->
<g id="node27" class="node"><title>Node27</title>
<g id="a_node27"><a xlink:title=" ">
<polygon fill="white" stroke="#bfbfbf" points="620,-56.5 620,-75.5 680,-75.5 680,-56.5 620,-56.5"/>
<text text-anchor="middle" x="650" y="-63.5" font-family="Helvetica,sans-Serif" font-size="10.00">fmt/core.h</text>
</a>
</g>
</g>
<!-- Node26&#45;&gt;Node27 -->
<g id="edge31" class="edge"><title>Node26&#45;&gt;Node27</title>
<path fill="none" stroke="midnightblue" d="M650,-112.083C650,-105.006 650,-94.8611 650,-85.9865"/>
<polygon fill="midnightblue" stroke="midnightblue" points="653.5,-85.751 650,-75.7511 646.5,-85.7511 653.5,-85.751"/>
</g>
<!-- Node28 -->
<g id="node28" class="node"><title>Node28</title>
<g id="a_node28"><a xlink:title=" ">
<polygon fill="white" stroke="#bfbfbf" points="698,-56.5 698,-75.5 766,-75.5 766,-56.5 698,-56.5"/>
<text text-anchor="middle" x="732" y="-63.5" font-family="Helvetica,sans-Serif" font-size="10.00">fmt/format.h</text>
</a>
</g>
</g>
<!-- Node26&#45;&gt;Node28 -->
<g id="edge32" class="edge"><title>Node26&#45;&gt;Node28</title>
<path fill="none" stroke="midnightblue" d="M663.175,-112.324C675.847,-103.979 695.233,-91.2122 710.206,-81.3524"/>
<polygon fill="midnightblue" stroke="midnightblue" points="712.431,-84.0776 718.858,-75.6545 708.581,-78.2313 712.431,-84.0776"/>
</g>
<!-- Node29 -->
<g id="node29" class="node"><title>Node29</title>
<g id="a_node29"><a xlink:title=" ">
<polygon fill="white" stroke="#bfbfbf" points="784,-56.5 784,-75.5 822,-75.5 822,-56.5 784,-56.5"/>
<text text-anchor="middle" x="803" y="-63.5" font-family="Helvetica,sans-Serif" font-size="10.00">array</text>
</a>
</g>
</g>
<!-- Node26&#45;&gt;Node29 -->
<g id="edge33" class="edge"><title>Node26&#45;&gt;Node29</title>
<path fill="none" stroke="midnightblue" d="M671.597,-113.378C698.535,-103.87 744.67,-87.5869 774.489,-77.0627"/>
<polygon fill="midnightblue" stroke="midnightblue" points="775.66,-80.3612 783.925,-73.7325 773.33,-73.7603 775.66,-80.3612"/>
</g>
<!-- Node30 -->
<g id="node30" class="node"><title>Node30</title>
<g id="a_node30"><a xlink:title=" ">
<polygon fill="white" stroke="#bfbfbf" points="932,-56.5 932,-75.5 978,-75.5 978,-56.5 932,-56.5"/>
<text text-anchor="middle" x="955" y="-63.5" font-family="Helvetica,sans-Serif" font-size="10.00">chrono</text>
</a>
</g>
</g>
<!-- Node26&#45;&gt;Node30 -->
<g id="edge34" class="edge"><title>Node26&#45;&gt;Node30</title>
<path fill="none" stroke="midnightblue" d="M671.744,-118.25C716.692,-112.389 823.228,-97.5851 921.835,-76.0602"/>
<polygon fill="midnightblue" stroke="midnightblue" points="922.649,-79.4649 931.657,-73.8876 921.137,-72.6301 922.649,-79.4649"/>
</g>
<!-- Node31 -->
<g id="node31" class="node"><title>Node31</title>
<g id="a_node31"><a xlink:title=" ">
<polygon fill="white" stroke="#bfbfbf" points="518.5,-56.5 518.5,-75.5 601.5,-75.5 601.5,-56.5 518.5,-56.5"/>
<text text-anchor="middle" x="560" y="-63.5" font-family="Helvetica,sans-Serif" font-size="10.00">unordered_map</text>
</a>
</g>
</g>
<!-- Node26&#45;&gt;Node31 -->
<g id="edge38" class="edge"><title>Node26&#45;&gt;Node31</title>
<path fill="none" stroke="midnightblue" d="M635.54,-112.324C621.5,-103.9 599.952,-90.9709 583.457,-81.0741"/>
<polygon fill="midnightblue" stroke="midnightblue" points="584.8,-77.7983 574.424,-75.6545 581.198,-83.8007 584.8,-77.7983"/>
</g>
<!-- Node32&#45;&gt;Node12 -->
<g id="edge42" class="edge"><title>Node32&#45;&gt;Node12</title>
<path fill="none" stroke="midnightblue" d="M877,-112.083C877,-105.006 877,-94.8611 877,-85.9865"/>
<polygon fill="midnightblue" stroke="midnightblue" points="880.5,-85.751 877,-75.7511 873.5,-85.7511 880.5,-85.751"/>
</g>
<!-- Node32&#45;&gt;Node13 -->
<g id="edge43" class="edge"><title>Node32&#45;&gt;Node13</title>
<path fill="none" stroke="midnightblue" d="M900.768,-112.444C925.893,-103.399 965.711,-89.064 993.9,-78.9158"/>
<polygon fill="midnightblue" stroke="midnightblue" points="995.12,-82.1968 1003.34,-75.5164 992.749,-75.6106 995.12,-82.1968"/>
</g>
<!-- Node33&#45;&gt;Node13 -->
<g id="edge45" class="edge"><title>Node33&#45;&gt;Node13</title>
<path fill="none" stroke="midnightblue" d="M961.037,-168.416C962.92,-155.393 967.797,-130.231 979,-112 986.123,-100.408 997.009,-89.8615 1006.61,-81.8969"/>
<polygon fill="midnightblue" stroke="midnightblue" points="1008.91,-84.5412 1014.6,-75.6009 1004.58,-79.0445 1008.91,-84.5412"/>
</g>
<!-- Node34 -->
<g id="node34" class="node"><title>Node34</title>
<g id="a_node34"><a xlink:href="sys__error__code_8h.html" target="_top" xlink:title=" ">
<polygon fill="white" stroke="black" points="988,-112.5 988,-131.5 1080,-131.5 1080,-112.5 988,-112.5"/>
<text text-anchor="middle" x="1034" y="-119.5" font-family="Helvetica,sans-Serif" font-size="10.00">sys_error_code.h</text>
</a>
</g>
</g>
<!-- Node33&#45;&gt;Node34 -->
<g id="edge46" class="edge"><title>Node33&#45;&gt;Node34</title>
<path fill="none" stroke="midnightblue" d="M971.889,-168.324C983.15,-160.107 1000.29,-147.602 1013.71,-137.807"/>
<polygon fill="midnightblue" stroke="midnightblue" points="1015.88,-140.556 1021.89,-131.834 1011.75,-134.901 1015.88,-140.556"/>
</g>
<!-- Node35 -->
<g id="node35" class="node"><title>Node35</title>
<g id="a_node35"><a xlink:href="useful__base__types_8h.html" target="_top" xlink:title=" ">
<polygon fill="white" stroke="black" points="1076,-56.5 1076,-75.5 1182,-75.5 1182,-56.5 1076,-56.5"/>
<text text-anchor="middle" x="1129" y="-63.5" font-family="Helvetica,sans-Serif" font-size="10.00">useful_base_types.h</text>
</a>
</g>
</g>
<!-- Node33&#45;&gt;Node35 -->
<g id="edge49" class="edge"><title>Node33&#45;&gt;Node35</title>
<path fill="none" stroke="midnightblue" d="M1008,-168.464C1034.1,-161.926 1065.71,-150.732 1089,-132 1104.29,-119.704 1115.27,-99.8878 1121.82,-85.3638"/>
<polygon fill="midnightblue" stroke="midnightblue" points="1125.14,-86.4812 1125.8,-75.9065 1118.69,-83.7663 1125.14,-86.4812"/>
</g>
<!-- Node34&#45;&gt;Node13 -->
<g id="edge47" class="edge"><title>Node34&#45;&gt;Node13</title>
<path fill="none" stroke="midnightblue" d="M1032.84,-112.083C1031.92,-104.927 1030.58,-94.6353 1029.42,-85.6911"/>
<polygon fill="midnightblue" stroke="midnightblue" points="1032.89,-85.2181 1028.13,-75.7511 1025.95,-86.1181 1032.89,-85.2181"/>
</g>
<!-- Node34&#45;&gt;Node35 -->
<g id="edge48" class="edge"><title>Node34&#45;&gt;Node35</title>
<path fill="none" stroke="midnightblue" d="M1049.26,-112.324C1064.22,-103.822 1087.25,-90.7288 1104.73,-80.7975"/>
<polygon fill="midnightblue" stroke="midnightblue" points="1106.81,-83.639 1113.77,-75.6545 1103.35,-77.5534 1106.81,-83.639"/>
</g>
</g>
</svg>
