<?xml version="1.0" encoding="UTF-8" standalone="no"?>
<!DOCTYPE svg PUBLIC "-//W3C//DTD SVG 1.1//EN"
 "http://www.w3.org/Graphics/SVG/1.1/DTD/svg11.dtd">
<!-- Generated by graphviz version 2.38.0 (20140413.2041)
 -->
<!-- Title: C:/projects/ndt/sources/src/address.cpp Pages: 1 -->
<!--zoomable 319 -->
<svg id="main" version="1.1" xmlns="http://www.w3.org/2000/svg" xmlns:xlink="http://www.w3.org/1999/xlink" xml:space="preserve" onload="init(evt)">
<style type="text/css"><![CDATA[
.edge:hover path { stroke: red; }
.edge:hover polygon { stroke: red; fill: red; }
]]></style>
<script type="text/javascript"><![CDATA[
var edges = document.getElementsByTagName('g');
if (edges && edges.length) {
  for (var i=0;i<edges.length;i++) {
    if (edges[i].id.substr(0,4)=='edge') {
      edges[i].setAttribute('class','edge');
    }
  }
}
]]></script>
        <defs>
                <circle id="rim" cx="0" cy="0" r="7"/>
                <circle id="rim2" cx="0" cy="0" r="3.5"/>
                <g id="zoomPlus">
                        <use xlink:href="#rim" fill="#404040">
                                <set attributeName="fill" to="#808080" begin="zoomplus.mouseover" end="zoomplus.mouseout"/>
                        </use>
                        <path d="M-4,0h8M0,-4v8" fill="none" stroke="white" stroke-width="1.5" pointer-events="none"/>
                </g>
                <g id="zoomMin">
                        <use xlink:href="#rim" fill="#404040">
                                <set attributeName="fill" to="#808080" begin="zoomminus.mouseover" end="zoomminus.mouseout"/>
                        </use>
                        <path d="M-4,0h8" fill="none" stroke="white" stroke-width="1.5" pointer-events="none"/>
                </g>
                <g id="dirArrow">
                        <path fill="none" stroke="white" stroke-width="1.5" d="M0,-3.0v7 M-2.5,-0.5L0,-3.0L2.5,-0.5"/>
                </g>
               <g id="resetDef">
                       <use xlink:href="#rim2" fill="#404040">
                               <set attributeName="fill" to="#808080" begin="reset.mouseover" end="reset.mouseout"/>
                       </use>
               </g>
        </defs>

<script type="text/javascript">
var viewWidth = 1391;
var viewHeight = 319;
var sectionId = 'dynsection-0';
</script>
<script xlink:href="svgpan.js"/>
<svg id="graph" class="graph">
<g id="viewport">
<title>C:/projects/ndt/sources/src/address.cpp</title>
<polygon fill="white" stroke="none" points="-4,4 -4,-315 1386.5,-315 1386.5,4 -4,4"/>
<!-- Node1 -->
<g id="node1" class="node"><title>Node1</title>
<g id="a_node1"><a xlink:title=" ">
<polygon fill="#bfbfbf" stroke="black" points="400,-280.5 400,-310.5 518,-310.5 518,-280.5 400,-280.5"/>
<text text-anchor="start" x="408" y="-298.5" font-family="Helvetica,sans-Serif" font-size="10.00">C:/projects/ndt/sources</text>
<text text-anchor="middle" x="459" y="-287.5" font-family="Helvetica,sans-Serif" font-size="10.00">/src/address.cpp</text>
</a>
</g>
</g>
<!-- Node2 -->
<g id="node2" class="node"><title>Node2</title>
<g id="a_node2"><a xlink:href="address_8h.html" target="_top" xlink:title=" ">
<polygon fill="white" stroke="black" points="789,-224.5 789,-243.5 865,-243.5 865,-224.5 789,-224.5"/>
<text text-anchor="middle" x="827" y="-231.5" font-family="Helvetica,sans-Serif" font-size="10.00">ndt/address.h</text>
</a>
</g>
</g>
<!-- Node1&#45;&gt;Node2 -->
<g id="edge1" class="edge"><title>Node1&#45;&gt;Node2</title>
<path fill="none" stroke="midnightblue" d="M518.126,-284.94C590.447,-273.247 711.501,-253.674 778.571,-242.83"/>
<polygon fill="midnightblue" stroke="midnightblue" points="779.543,-246.219 788.856,-241.167 778.425,-239.308 779.543,-246.219"/>
</g>
<!-- Node5 -->
<g id="node5" class="node"><title>Node5</title>
<g id="a_node5"><a xlink:href="bin__rw_8h.html" target="_top" xlink:title=" ">
<polygon fill="white" stroke="black" points="432.5,-168.5 432.5,-187.5 485.5,-187.5 485.5,-168.5 432.5,-168.5"/>
<text text-anchor="middle" x="459" y="-175.5" font-family="Helvetica,sans-Serif" font-size="10.00">bin_rw.h</text>
</a>
</g>
</g>
<!-- Node1&#45;&gt;Node5 -->
<g id="edge54" class="edge"><title>Node1&#45;&gt;Node5</title>
<path fill="none" stroke="midnightblue" d="M459,-280.337C459,-259.622 459,-221.016 459,-197.899"/>
<polygon fill="midnightblue" stroke="midnightblue" points="462.5,-197.669 459,-187.669 455.5,-197.669 462.5,-197.669"/>
</g>
<!-- Node7 -->
<g id="node7" class="node"><title>Node7</title>
<g id="a_node7"><a xlink:title=" ">
<polygon fill="white" stroke="#bfbfbf" points="0,-56.5 0,-75.5 46,-75.5 46,-56.5 0,-56.5"/>
<text text-anchor="middle" x="23" y="-63.5" font-family="Helvetica,sans-Serif" font-size="10.00">cstring</text>
</a>
</g>
</g>
<!-- Node1&#45;&gt;Node7 -->
<g id="edge53" class="edge"><title>Node1&#45;&gt;Node7</title>
<path fill="none" stroke="midnightblue" d="M427.197,-280.384C367.255,-253.472 233.886,-192.131 126,-132 97.0095,-115.842 64.8483,-95.0626 44.3029,-81.4031"/>
<polygon fill="midnightblue" stroke="midnightblue" points="45.9913,-78.3217 35.7336,-75.6703 42.099,-84.1398 45.9913,-78.3217"/>
</g>
<!-- Node3 -->
<g id="node3" class="node"><title>Node3</title>
<g id="a_node3"><a xlink:title=" ">
<polygon fill="white" stroke="#bfbfbf" points="1081.5,-168.5 1081.5,-187.5 1122.5,-187.5 1122.5,-168.5 1081.5,-168.5"/>
<text text-anchor="middle" x="1102" y="-175.5" font-family="Helvetica,sans-Serif" font-size="10.00">string</text>
</a>
</g>
</g>
<!-- Node2&#45;&gt;Node3 -->
<g id="edge2" class="edge"><title>Node2&#45;&gt;Node3</title>
<path fill="none" stroke="midnightblue" d="M865.045,-227.341C911.464,-220.144 992.484,-206.649 1071.32,-187.928"/>
<polygon fill="midnightblue" stroke="midnightblue" points="1072.52,-191.24 1081.42,-185.497 1070.88,-184.434 1072.52,-191.24"/>
</g>
<!-- Node4 -->
<g id="node4" class="node"><title>Node4</title>
<g id="a_node4"><a xlink:title=" ">
<polygon fill="white" stroke="#bfbfbf" points="717,-168.5 717,-187.5 761,-187.5 761,-168.5 717,-168.5"/>
<text text-anchor="middle" x="739" y="-175.5" font-family="Helvetica,sans-Serif" font-size="10.00">variant</text>
</a>
</g>
</g>
<!-- Node2&#45;&gt;Node4 -->
<g id="edge3" class="edge"><title>Node2&#45;&gt;Node4</title>
<path fill="none" stroke="midnightblue" d="M812.861,-224.324C799.134,-215.9 778.064,-202.971 761.936,-193.074"/>
<polygon fill="midnightblue" stroke="midnightblue" points="763.457,-189.902 753.104,-187.655 759.796,-195.868 763.457,-189.902"/>
</g>
<!-- Node2&#45;&gt;Node5 -->
<g id="edge4" class="edge"><title>Node2&#45;&gt;Node5</title>
<path fill="none" stroke="midnightblue" d="M788.659,-227.374C717.568,-216.942 566.177,-194.727 496.062,-184.438"/>
<polygon fill="midnightblue" stroke="midnightblue" points="496.33,-180.94 485.928,-182.951 495.314,-187.866 496.33,-180.94"/>
</g>
<!-- Node9 -->
<g id="node9" class="node"><title>Node9</title>
<g id="a_node9"><a xlink:href="buffer_8h.html" target="_top" xlink:title=" ">
<polygon fill="white" stroke="black" points="800,-112.5 800,-131.5 848,-131.5 848,-112.5 800,-112.5"/>
<text text-anchor="middle" x="824" y="-119.5" font-family="Helvetica,sans-Serif" font-size="10.00">buffer.h</text>
</a>
</g>
</g>
<!-- Node2&#45;&gt;Node9 -->
<g id="edge41" class="edge"><title>Node2&#45;&gt;Node9</title>
<path fill="none" stroke="midnightblue" d="M826.765,-224.368C826.28,-206.617 825.164,-165.666 824.507,-141.597"/>
<polygon fill="midnightblue" stroke="midnightblue" points="828.006,-141.492 824.234,-131.591 821.008,-141.683 828.006,-141.492"/>
</g>
<!-- Node27 -->
<g id="node27" class="node"><title>Node27</title>
<g id="a_node27"><a xlink:href="utils_8h.html" target="_top" xlink:title=" ">
<polygon fill="white" stroke="black" points="540.5,-112.5 540.5,-131.5 583.5,-131.5 583.5,-112.5 540.5,-112.5"/>
<text text-anchor="middle" x="562" y="-119.5" font-family="Helvetica,sans-Serif" font-size="10.00">utils.h</text>
</a>
</g>
</g>
<!-- Node2&#45;&gt;Node27 -->
<g id="edge52" class="edge"><title>Node2&#45;&gt;Node27</title>
<path fill="none" stroke="midnightblue" d="M821.942,-224.254C813.247,-210.057 794.059,-182.16 770,-168 713.935,-135.002 636.594,-126.108 593.767,-123.771"/>
<polygon fill="midnightblue" stroke="midnightblue" points="593.807,-120.269 583.657,-123.307 593.486,-127.262 593.807,-120.269"/>
</g>
<!-- Node33 -->
<g id="node33" class="node"><title>Node33</title>
<g id="a_node33"><a xlink:href="exception_8h.html" target="_top" xlink:title=" ">
<polygon fill="white" stroke="black" points="868.5,-112.5 868.5,-131.5 935.5,-131.5 935.5,-112.5 868.5,-112.5"/>
<text text-anchor="middle" x="902" y="-119.5" font-family="Helvetica,sans-Serif" font-size="10.00">exception.h</text>
</a>
</g>
</g>
<!-- Node2&#45;&gt;Node33 -->
<g id="edge42" class="edge"><title>Node2&#45;&gt;Node33</title>
<path fill="none" stroke="midnightblue" d="M832.885,-224.368C845.262,-206.215 874.181,-163.802 890.416,-139.99"/>
<polygon fill="midnightblue" stroke="midnightblue" points="893.401,-141.825 896.142,-131.591 887.617,-137.882 893.401,-141.825"/>
</g>
<!-- Node34 -->
<g id="node34" class="node"><title>Node34</title>
<g id="a_node34"><a xlink:href="sys__socket__ops_8h.html" target="_top" xlink:title=" ">
<polygon fill="white" stroke="black" points="911,-168.5 911,-187.5 1007,-187.5 1007,-168.5 911,-168.5"/>
<text text-anchor="middle" x="959" y="-175.5" font-family="Helvetica,sans-Serif" font-size="10.00">sys_socket_ops.h</text>
</a>
</g>
</g>
<!-- Node2&#45;&gt;Node34 -->
<g id="edge45" class="edge"><title>Node2&#45;&gt;Node34</title>
<path fill="none" stroke="midnightblue" d="M847.916,-224.444C869.736,-215.517 904.15,-201.439 928.892,-191.317"/>
<polygon fill="midnightblue" stroke="midnightblue" points="930.252,-194.542 938.182,-187.516 927.601,-188.063 930.252,-194.542"/>
</g>
<!-- Node37 -->
<g id="node37" class="node"><title>Node37</title>
<g id="a_node37"><a xlink:href="tag_8h.html" target="_top" xlink:title=" ">
<polygon fill="white" stroke="black" points="1025,-168.5 1025,-187.5 1063,-187.5 1063,-168.5 1025,-168.5"/>
<text text-anchor="middle" x="1044" y="-175.5" font-family="Helvetica,sans-Serif" font-size="10.00">tag.h</text>
</a>
</g>
</g>
<!-- Node2&#45;&gt;Node37 -->
<g id="edge51" class="edge"><title>Node2&#45;&gt;Node37</title>
<path fill="none" stroke="midnightblue" d="M865.232,-224.807C901.472,-216.84 957.621,-203.977 1014.84,-188.167"/>
<polygon fill="midnightblue" stroke="midnightblue" points="1016.09,-191.453 1024.78,-185.394 1014.21,-184.71 1016.09,-191.453"/>
</g>
<!-- Node6 -->
<g id="node6" class="node"><title>Node6</title>
<g id="a_node6"><a xlink:title=" ">
<polygon fill="white" stroke="#bfbfbf" points="431,-112.5 431,-131.5 487,-131.5 487,-112.5 431,-112.5"/>
<text text-anchor="middle" x="459" y="-119.5" font-family="Helvetica,sans-Serif" font-size="10.00">algorithm</text>
</a>
</g>
</g>
<!-- Node5&#45;&gt;Node6 -->
<g id="edge5" class="edge"><title>Node5&#45;&gt;Node6</title>
<path fill="none" stroke="midnightblue" d="M459,-168.083C459,-161.006 459,-150.861 459,-141.986"/>
<polygon fill="midnightblue" stroke="midnightblue" points="462.5,-141.751 459,-131.751 455.5,-141.751 462.5,-141.751"/>
</g>
<!-- Node5&#45;&gt;Node7 -->
<g id="edge6" class="edge"><title>Node5&#45;&gt;Node7</title>
<path fill="none" stroke="midnightblue" d="M432.367,-174.34C383.756,-169.087 277.674,-155.779 191,-132 140.436,-118.128 84.0458,-94.5469 51.1476,-79.9237"/>
<polygon fill="midnightblue" stroke="midnightblue" points="52.2808,-76.596 41.7244,-75.6937 49.4141,-82.9821 52.2808,-76.596"/>
</g>
<!-- Node8 -->
<g id="node8" class="node"><title>Node8</title>
<g id="a_node8"><a xlink:title=" ">
<polygon fill="white" stroke="#bfbfbf" points="268,-56.5 268,-75.5 330,-75.5 330,-56.5 268,-56.5"/>
<text text-anchor="middle" x="299" y="-63.5" font-family="Helvetica,sans-Serif" font-size="10.00">type_traits</text>
</a>
</g>
</g>
<!-- Node5&#45;&gt;Node8 -->
<g id="edge7" class="edge"><title>Node5&#45;&gt;Node8</title>
<path fill="none" stroke="midnightblue" d="M446.445,-168.368C419.106,-149.573 353.936,-104.768 320.139,-81.5334"/>
<polygon fill="midnightblue" stroke="midnightblue" points="321.72,-78.3726 311.497,-75.5914 317.754,-84.1409 321.72,-78.3726"/>
</g>
<!-- Node5&#45;&gt;Node9 -->
<g id="edge8" class="edge"><title>Node5&#45;&gt;Node9</title>
<path fill="none" stroke="midnightblue" d="M485.544,-173.073C550.589,-163.45 717.868,-138.702 790.03,-128.026"/>
<polygon fill="midnightblue" stroke="midnightblue" points="790.583,-131.482 799.963,-126.556 789.559,-124.557 790.583,-131.482"/>
</g>
<!-- Node23 -->
<g id="node23" class="node"><title>Node23</title>
<g id="a_node23"><a xlink:href="endian_8h.html" target="_top" xlink:title=" ">
<polygon fill="white" stroke="black" points="200.5,-112.5 200.5,-131.5 253.5,-131.5 253.5,-112.5 200.5,-112.5"/>
<text text-anchor="middle" x="227" y="-119.5" font-family="Helvetica,sans-Serif" font-size="10.00">endian.h</text>
</a>
</g>
</g>
<!-- Node5&#45;&gt;Node23 -->
<g id="edge24" class="edge"><title>Node5&#45;&gt;Node23</title>
<path fill="none" stroke="midnightblue" d="M432.387,-170.806C390.805,-161.127 310.341,-142.398 263.418,-131.477"/>
<polygon fill="midnightblue" stroke="midnightblue" points="264.192,-128.063 253.659,-129.205 262.606,-134.881 264.192,-128.063"/>
</g>
<!-- Node5&#45;&gt;Node27 -->
<g id="edge31" class="edge"><title>Node5&#45;&gt;Node27</title>
<path fill="none" stroke="midnightblue" d="M475.549,-168.324C491.992,-159.703 517.435,-146.364 536.468,-136.386"/>
<polygon fill="midnightblue" stroke="midnightblue" points="538.261,-139.398 545.492,-131.655 535.011,-133.198 538.261,-139.398"/>
</g>
<!-- Node9&#45;&gt;Node8 -->
<g id="edge13" class="edge"><title>Node9&#45;&gt;Node8</title>
<path fill="none" stroke="midnightblue" d="M799.893,-119.864C730.189,-116.349 522.306,-104.233 340.383,-76.0322"/>
<polygon fill="midnightblue" stroke="midnightblue" points="340.791,-72.5534 330.369,-74.4592 339.705,-79.4686 340.791,-72.5534"/>
</g>
<!-- Node10 -->
<g id="node10" class="node"><title>Node10</title>
<g id="a_node10"><a xlink:title=" ">
<polygon fill="white" stroke="#bfbfbf" points="798.5,-56.5 798.5,-75.5 847.5,-75.5 847.5,-56.5 798.5,-56.5"/>
<text text-anchor="middle" x="823" y="-63.5" font-family="Helvetica,sans-Serif" font-size="10.00">cassert</text>
</a>
</g>
</g>
<!-- Node9&#45;&gt;Node10 -->
<g id="edge9" class="edge"><title>Node9&#45;&gt;Node10</title>
<path fill="none" stroke="midnightblue" d="M823.835,-112.083C823.704,-105.006 823.516,-94.8611 823.352,-85.9865"/>
<polygon fill="midnightblue" stroke="midnightblue" points="826.847,-85.6845 823.162,-75.7511 819.848,-85.8142 826.847,-85.6845"/>
</g>
<!-- Node11 -->
<g id="node11" class="node"><title>Node11</title>
<g id="a_node11"><a xlink:title=" ">
<polygon fill="white" stroke="#bfbfbf" points="730,-0.5 730,-19.5 778,-19.5 778,-0.5 730,-0.5"/>
<text text-anchor="middle" x="754" y="-7.5" font-family="Helvetica,sans-Serif" font-size="10.00">cstddef</text>
</a>
</g>
</g>
<!-- Node9&#45;&gt;Node11 -->
<g id="edge10" class="edge"><title>Node9&#45;&gt;Node11</title>
<path fill="none" stroke="midnightblue" d="M848.068,-113.96C882.665,-103.603 942.982,-84.5624 949,-76 954.111,-68.7276 954.562,-62.9337 949,-56 904.832,-0.939082 862.405,-34.5147 788.293,-19.9803"/>
<polygon fill="midnightblue" stroke="midnightblue" points="788.637,-16.4715 778.116,-17.7193 787.119,-23.3049 788.637,-16.4715"/>
</g>
<!-- Node12 -->
<g id="node12" class="node"><title>Node12</title>
<g id="a_node12"><a xlink:title=" ">
<polygon fill="white" stroke="#bfbfbf" points="734,-56.5 734,-75.5 780,-75.5 780,-56.5 734,-56.5"/>
<text text-anchor="middle" x="757" y="-63.5" font-family="Helvetica,sans-Serif" font-size="10.00">cstdint</text>
</a>
</g>
</g>
<!-- Node9&#45;&gt;Node12 -->
<g id="edge11" class="edge"><title>Node9&#45;&gt;Node12</title>
<path fill="none" stroke="midnightblue" d="M813.235,-112.324C803.234,-104.263 788.113,-92.0765 776.07,-82.3695"/>
<polygon fill="midnightblue" stroke="midnightblue" points="777.943,-79.3841 767.961,-75.8339 773.55,-84.8343 777.943,-79.3841"/>
</g>
<!-- Node13 -->
<g id="node13" class="node"><title>Node13</title>
<g id="a_node13"><a xlink:title=" ">
<polygon fill="white" stroke="#bfbfbf" points="866,-56.5 866,-75.5 940,-75.5 940,-56.5 866,-56.5"/>
<text text-anchor="middle" x="903" y="-63.5" font-family="Helvetica,sans-Serif" font-size="10.00">system_error</text>
</a>
</g>
</g>
<!-- Node9&#45;&gt;Node13 -->
<g id="edge12" class="edge"><title>Node9&#45;&gt;Node13</title>
<path fill="none" stroke="midnightblue" d="M836.693,-112.324C848.901,-103.979 867.578,-91.2122 882.003,-81.3524"/>
<polygon fill="midnightblue" stroke="midnightblue" points="884.058,-84.1871 890.339,-75.6545 880.108,-78.4082 884.058,-84.1871"/>
</g>
<!-- Node14 -->
<g id="node14" class="node"><title>Node14</title>
<g id="a_node14"><a xlink:href="common_8h.html" target="_top" xlink:title="Header with typedefs to make type designation platform independent.">
<polygon fill="white" stroke="black" points="996,-56.5 996,-75.5 1058,-75.5 1058,-56.5 996,-56.5"/>
<text text-anchor="middle" x="1027" y="-63.5" font-family="Helvetica,sans-Serif" font-size="10.00">common.h</text>
</a>
</g>
</g>
<!-- Node9&#45;&gt;Node14 -->
<g id="edge14" class="edge"><title>Node9&#45;&gt;Node14</title>
<path fill="none" stroke="midnightblue" d="M848.084,-114.593C882.14,-105.534 944.822,-88.8601 986.212,-77.8501"/>
<polygon fill="midnightblue" stroke="midnightblue" points="987.223,-81.2028 995.987,-75.2496 985.424,-74.438 987.223,-81.2028"/>
</g>
<!-- Node14&#45;&gt;Node11 -->
<g id="edge23" class="edge"><title>Node14&#45;&gt;Node11</title>
<path fill="none" stroke="midnightblue" d="M995.54,-58.6463C990.999,-57.7471 986.381,-56.8425 982,-56 898.582,-39.9589 874.633,-39.6153 788.095,-20.0982"/>
<polygon fill="midnightblue" stroke="midnightblue" points="788.619,-16.6282 778.092,-17.8206 787.065,-23.4535 788.619,-16.6282"/>
</g>
<!-- Node15 -->
<g id="node15" class="node"><title>Node15</title>
<g id="a_node15"><a xlink:title=" ">
<polygon fill="white" stroke="#bfbfbf" points="1194,-0.5 1194,-19.5 1256,-19.5 1256,-0.5 1194,-0.5"/>
<text text-anchor="middle" x="1225" y="-7.5" font-family="Helvetica,sans-Serif" font-size="10.00">arpa/inet.h</text>
</a>
</g>
</g>
<!-- Node14&#45;&gt;Node15 -->
<g id="edge15" class="edge"><title>Node14&#45;&gt;Node15</title>
<path fill="none" stroke="midnightblue" d="M1058.37,-56.4435C1092.26,-47.2011 1146.4,-32.4356 1183.72,-22.2572"/>
<polygon fill="midnightblue" stroke="midnightblue" points="1185.05,-25.5243 1193.77,-19.5164 1183.2,-18.771 1185.05,-25.5243"/>
</g>
<!-- Node16 -->
<g id="node16" class="node"><title>Node16</title>
<g id="a_node16"><a xlink:title=" ">
<polygon fill="white" stroke="#bfbfbf" points="1274.5,-0.5 1274.5,-19.5 1321.5,-19.5 1321.5,-0.5 1274.5,-0.5"/>
<text text-anchor="middle" x="1298" y="-7.5" font-family="Helvetica,sans-Serif" font-size="10.00">errno.h</text>
</a>
</g>
</g>
<!-- Node14&#45;&gt;Node16 -->
<g id="edge16" class="edge"><title>Node14&#45;&gt;Node16</title>
<path fill="none" stroke="midnightblue" d="M1058.42,-57.8021C1061.32,-57.177 1064.21,-56.5673 1067,-56 1151.57,-38.8058 1176.07,-39.6965 1264.36,-19.9753"/>
<polygon fill="midnightblue" stroke="midnightblue" points="1265.29,-23.3538 1274.27,-17.7355 1263.74,-16.5259 1265.29,-23.3538"/>
</g>
<!-- Node17 -->
<g id="node17" class="node"><title>Node17</title>
<g id="a_node17"><a xlink:title=" ">
<polygon fill="white" stroke="#bfbfbf" points="1339.5,-0.5 1339.5,-19.5 1382.5,-19.5 1382.5,-0.5 1339.5,-0.5"/>
<text text-anchor="middle" x="1361" y="-7.5" font-family="Helvetica,sans-Serif" font-size="10.00">fcntl.h</text>
</a>
</g>
</g>
<!-- Node14&#45;&gt;Node17 -->
<g id="edge17" class="edge"><title>Node14&#45;&gt;Node17</title>
<path fill="none" stroke="midnightblue" d="M1058.39,-57.6713C1061.3,-57.0736 1064.2,-56.506 1067,-56 1179.93,-35.6054 1212.81,-44.0169 1329.39,-19.8217"/>
<polygon fill="midnightblue" stroke="midnightblue" points="1330.36,-23.1935 1339.42,-17.7025 1328.91,-16.3446 1330.36,-23.1935"/>
</g>
<!-- Node18 -->
<g id="node18" class="node"><title>Node18</title>
<g id="a_node18"><a xlink:title=" ">
<polygon fill="white" stroke="#bfbfbf" points="796.5,-0.5 796.5,-19.5 845.5,-19.5 845.5,-0.5 796.5,-0.5"/>
<text text-anchor="middle" x="821" y="-7.5" font-family="Helvetica,sans-Serif" font-size="10.00">netdb.h</text>
</a>
</g>
</g>
<!-- Node14&#45;&gt;Node18 -->
<g id="edge18" class="edge"><title>Node14&#45;&gt;Node18</title>
<path fill="none" stroke="midnightblue" d="M995.718,-56.9812C963.009,-48.5706 909.928,-34.8491 855.644,-20.4189"/>
<polygon fill="midnightblue" stroke="midnightblue" points="856.422,-17.004 845.858,-17.813 854.62,-23.7683 856.422,-17.004"/>
</g>
<!-- Node19 -->
<g id="node19" class="node"><title>Node19</title>
<g id="a_node19"><a xlink:title=" ">
<polygon fill="white" stroke="#bfbfbf" points="863.5,-0.5 863.5,-19.5 928.5,-19.5 928.5,-0.5 863.5,-0.5"/>
<text text-anchor="middle" x="896" y="-7.5" font-family="Helvetica,sans-Serif" font-size="10.00">netinet/in.h</text>
</a>
</g>
</g>
<!-- Node14&#45;&gt;Node19 -->
<g id="edge19" class="edge"><title>Node14&#45;&gt;Node19</title>
<path fill="none" stroke="midnightblue" d="M1006.24,-56.4435C984.684,-47.5566 950.737,-33.5632 926.206,-23.4514"/>
<polygon fill="midnightblue" stroke="midnightblue" points="927.239,-20.0917 916.66,-19.5164 924.572,-26.5634 927.239,-20.0917"/>
</g>
<!-- Node20 -->
<g id="node20" class="node"><title>Node20</title>
<g id="a_node20"><a xlink:title=" ">
<polygon fill="white" stroke="#bfbfbf" points="946.5,-0.5 946.5,-19.5 1019.5,-19.5 1019.5,-0.5 946.5,-0.5"/>
<text text-anchor="middle" x="983" y="-7.5" font-family="Helvetica,sans-Serif" font-size="10.00">sys/socket.h</text>
</a>
</g>
</g>
<!-- Node14&#45;&gt;Node20 -->
<g id="edge20" class="edge"><title>Node14&#45;&gt;Node20</title>
<path fill="none" stroke="midnightblue" d="M1019.73,-56.083C1013.46,-48.3768 1004.21,-37.0333 996.569,-27.6531"/>
<polygon fill="midnightblue" stroke="midnightblue" points="999.161,-25.2926 990.131,-19.7511 993.734,-29.7143 999.161,-25.2926"/>
</g>
<!-- Node21 -->
<g id="node21" class="node"><title>Node21</title>
<g id="a_node21"><a xlink:title=" ">
<polygon fill="white" stroke="#bfbfbf" points="1038,-0.5 1038,-19.5 1106,-19.5 1106,-0.5 1038,-0.5"/>
<text text-anchor="middle" x="1072" y="-7.5" font-family="Helvetica,sans-Serif" font-size="10.00">sys/types.h</text>
</a>
</g>
</g>
<!-- Node14&#45;&gt;Node21 -->
<g id="edge21" class="edge"><title>Node14&#45;&gt;Node21</title>
<path fill="none" stroke="midnightblue" d="M1034.43,-56.083C1040.85,-48.3768 1050.31,-37.0333 1058.12,-27.6531"/>
<polygon fill="midnightblue" stroke="midnightblue" points="1060.99,-29.674 1064.71,-19.7511 1055.62,-25.1927 1060.99,-29.674"/>
</g>
<!-- Node22 -->
<g id="node22" class="node"><title>Node22</title>
<g id="a_node22"><a xlink:title=" ">
<polygon fill="white" stroke="#bfbfbf" points="1124.5,-0.5 1124.5,-19.5 1175.5,-19.5 1175.5,-0.5 1124.5,-0.5"/>
<text text-anchor="middle" x="1150" y="-7.5" font-family="Helvetica,sans-Serif" font-size="10.00">unistd.h</text>
</a>
</g>
</g>
<!-- Node14&#45;&gt;Node22 -->
<g id="edge22" class="edge"><title>Node14&#45;&gt;Node22</title>
<path fill="none" stroke="midnightblue" d="M1046.49,-56.4435C1066.64,-47.5961 1098.32,-33.6875 1121.33,-23.5865"/>
<polygon fill="midnightblue" stroke="midnightblue" points="1122.85,-26.7411 1130.6,-19.5164 1120.04,-20.3316 1122.85,-26.7411"/>
</g>
<!-- Node23&#45;&gt;Node7 -->
<g id="edge27" class="edge"><title>Node23&#45;&gt;Node7</title>
<path fill="none" stroke="midnightblue" d="M200.441,-114.212C168.466,-106.005 112.894,-91.6305 55.9503,-76.2228"/>
<polygon fill="midnightblue" stroke="midnightblue" points="56.6257,-72.7796 46.0581,-73.5394 54.793,-79.5354 56.6257,-72.7796"/>
</g>
<!-- Node23&#45;&gt;Node8 -->
<g id="edge29" class="edge"><title>Node23&#45;&gt;Node8</title>
<path fill="none" stroke="midnightblue" d="M238.568,-112.324C249.42,-104.185 265.881,-91.8395 278.883,-82.0874"/>
<polygon fill="midnightblue" stroke="midnightblue" points="281.321,-84.6339 287.221,-75.8339 277.121,-79.0339 281.321,-84.6339"/>
</g>
<!-- Node23&#45;&gt;Node12 -->
<g id="edge26" class="edge"><title>Node23&#45;&gt;Node12</title>
<path fill="none" stroke="midnightblue" d="M253.688,-120.313C327.286,-118.057 539.361,-109.108 723.824,-75.895"/>
<polygon fill="midnightblue" stroke="midnightblue" points="724.491,-79.3311 733.698,-74.0888 723.231,-72.4454 724.491,-79.3311"/>
</g>
<!-- Node24 -->
<g id="node24" class="node"><title>Node24</title>
<g id="a_node24"><a xlink:title=" ">
<polygon fill="white" stroke="#bfbfbf" points="204.5,-56.5 204.5,-75.5 249.5,-75.5 249.5,-56.5 204.5,-56.5"/>
<text text-anchor="middle" x="227" y="-63.5" font-family="Helvetica,sans-Serif" font-size="10.00">climits</text>
</a>
</g>
</g>
<!-- Node23&#45;&gt;Node24 -->
<g id="edge25" class="edge"><title>Node23&#45;&gt;Node24</title>
<path fill="none" stroke="midnightblue" d="M227,-112.083C227,-105.006 227,-94.8611 227,-85.9865"/>
<polygon fill="midnightblue" stroke="midnightblue" points="230.5,-85.751 227,-75.7511 223.5,-85.7511 230.5,-85.751"/>
</g>
<!-- Node25 -->
<g id="node25" class="node"><title>Node25</title>
<g id="a_node25"><a xlink:title=" ">
<polygon fill="white" stroke="#bfbfbf" points="64,-56.5 64,-75.5 128,-75.5 128,-56.5 64,-56.5"/>
<text text-anchor="middle" x="96" y="-63.5" font-family="Helvetica,sans-Serif" font-size="10.00">string_view</text>
</a>
</g>
</g>
<!-- Node23&#45;&gt;Node25 -->
<g id="edge28" class="edge"><title>Node23&#45;&gt;Node25</title>
<path fill="none" stroke="midnightblue" d="M206.243,-112.444C184.684,-103.557 150.737,-89.5632 126.206,-79.4514"/>
<polygon fill="midnightblue" stroke="midnightblue" points="127.239,-76.0917 116.66,-75.5164 124.572,-82.5634 127.239,-76.0917"/>
</g>
<!-- Node26 -->
<g id="node26" class="node"><title>Node26</title>
<g id="a_node26"><a xlink:title=" ">
<polygon fill="white" stroke="#bfbfbf" points="146,-56.5 146,-75.5 186,-75.5 186,-56.5 146,-56.5"/>
<text text-anchor="middle" x="166" y="-63.5" font-family="Helvetica,sans-Serif" font-size="10.00">utility</text>
</a>
</g>
</g>
<!-- Node23&#45;&gt;Node26 -->
<g id="edge30" class="edge"><title>Node23&#45;&gt;Node26</title>
<path fill="none" stroke="midnightblue" d="M217.199,-112.324C208.182,-104.341 194.594,-92.3128 183.682,-82.6529"/>
<polygon fill="midnightblue" stroke="midnightblue" points="185.787,-79.8416 175.979,-75.8339 181.147,-85.083 185.787,-79.8416"/>
</g>
<!-- Node27&#45;&gt;Node7 -->
<g id="edge36" class="edge"><title>Node27&#45;&gt;Node7</title>
<path fill="none" stroke="midnightblue" d="M540.336,-117.745C527.473,-115.888 510.83,-113.615 496,-112 303.75,-91.0606 250.316,-110.128 56.248,-75.8926"/>
<polygon fill="midnightblue" stroke="midnightblue" points="56.7578,-72.4283 46.2977,-74.1127 55.5252,-79.3189 56.7578,-72.4283"/>
</g>
<!-- Node27&#45;&gt;Node8 -->
<g id="edge38" class="edge"><title>Node27&#45;&gt;Node8</title>
<path fill="none" stroke="midnightblue" d="M540.44,-116.814C502.233,-109.362 419.9,-93.1448 340.585,-76.3042"/>
<polygon fill="midnightblue" stroke="midnightblue" points="340.938,-72.8009 330.428,-74.1406 339.48,-79.6473 340.938,-72.8009"/>
</g>
<!-- Node27&#45;&gt;Node13 -->
<g id="edge37" class="edge"><title>Node27&#45;&gt;Node13</title>
<path fill="none" stroke="midnightblue" d="M583.806,-117.946C631.163,-111.255 747.17,-94.5366 855.684,-75.9934"/>
<polygon fill="midnightblue" stroke="midnightblue" points="856.56,-79.3944 865.823,-74.2517 855.375,-72.4954 856.56,-79.3944"/>
</g>
<!-- Node27&#45;&gt;Node14 -->
<g id="edge40" class="edge"><title>Node27&#45;&gt;Node14</title>
<path fill="none" stroke="midnightblue" d="M583.804,-118.468C656.319,-110.047 890.188,-82.8879 985.744,-71.7911"/>
<polygon fill="midnightblue" stroke="midnightblue" points="986.362,-75.2429 995.891,-70.6126 985.554,-68.2896 986.362,-75.2429"/>
</g>
<!-- Node28 -->
<g id="node28" class="node"><title>Node28</title>
<g id="a_node28"><a xlink:title=" ">
<polygon fill="white" stroke="#bfbfbf" points="450,-56.5 450,-75.5 510,-75.5 510,-56.5 450,-56.5"/>
<text text-anchor="middle" x="480" y="-63.5" font-family="Helvetica,sans-Serif" font-size="10.00">fmt/core.h</text>
</a>
</g>
</g>
<!-- Node27&#45;&gt;Node28 -->
<g id="edge32" class="edge"><title>Node27&#45;&gt;Node28</title>
<path fill="none" stroke="midnightblue" d="M548.825,-112.324C536.153,-103.979 516.767,-91.2122 501.794,-81.3524"/>
<polygon fill="midnightblue" stroke="midnightblue" points="503.419,-78.2313 493.142,-75.6545 499.569,-84.0776 503.419,-78.2313"/>
</g>
<!-- Node29 -->
<g id="node29" class="node"><title>Node29</title>
<g id="a_node29"><a xlink:title=" ">
<polygon fill="white" stroke="#bfbfbf" points="528,-56.5 528,-75.5 596,-75.5 596,-56.5 528,-56.5"/>
<text text-anchor="middle" x="562" y="-63.5" font-family="Helvetica,sans-Serif" font-size="10.00">fmt/format.h</text>
</a>
</g>
</g>
<!-- Node27&#45;&gt;Node29 -->
<g id="edge33" class="edge"><title>Node27&#45;&gt;Node29</title>
<path fill="none" stroke="midnightblue" d="M562,-112.083C562,-105.006 562,-94.8611 562,-85.9865"/>
<polygon fill="midnightblue" stroke="midnightblue" points="565.5,-85.751 562,-75.7511 558.5,-85.7511 565.5,-85.751"/>
</g>
<!-- Node30 -->
<g id="node30" class="node"><title>Node30</title>
<g id="a_node30"><a xlink:title=" ">
<polygon fill="white" stroke="#bfbfbf" points="614,-56.5 614,-75.5 652,-75.5 652,-56.5 614,-56.5"/>
<text text-anchor="middle" x="633" y="-63.5" font-family="Helvetica,sans-Serif" font-size="10.00">array</text>
</a>
</g>
</g>
<!-- Node27&#45;&gt;Node30 -->
<g id="edge34" class="edge"><title>Node27&#45;&gt;Node30</title>
<path fill="none" stroke="midnightblue" d="M573.407,-112.324C584.109,-104.185 600.341,-91.8395 613.163,-82.0874"/>
<polygon fill="midnightblue" stroke="midnightblue" points="615.544,-84.6734 621.385,-75.8339 611.307,-79.1018 615.544,-84.6734"/>
</g>
<!-- Node31 -->
<g id="node31" class="node"><title>Node31</title>
<g id="a_node31"><a xlink:title=" ">
<polygon fill="white" stroke="#bfbfbf" points="670,-56.5 670,-75.5 716,-75.5 716,-56.5 670,-56.5"/>
<text text-anchor="middle" x="693" y="-63.5" font-family="Helvetica,sans-Serif" font-size="10.00">chrono</text>
</a>
</g>
</g>
<!-- Node27&#45;&gt;Node31 -->
<g id="edge35" class="edge"><title>Node27&#45;&gt;Node31</title>
<path fill="none" stroke="midnightblue" d="M582.757,-112.444C604.316,-103.557 638.263,-89.5632 662.794,-79.4514"/>
<polygon fill="midnightblue" stroke="midnightblue" points="664.428,-82.5634 672.34,-75.5164 661.761,-76.0917 664.428,-82.5634"/>
</g>
<!-- Node32 -->
<g id="node32" class="node"><title>Node32</title>
<g id="a_node32"><a xlink:title=" ">
<polygon fill="white" stroke="#bfbfbf" points="348.5,-56.5 348.5,-75.5 431.5,-75.5 431.5,-56.5 348.5,-56.5"/>
<text text-anchor="middle" x="390" y="-63.5" font-family="Helvetica,sans-Serif" font-size="10.00">unordered_map</text>
</a>
</g>
</g>
<!-- Node27&#45;&gt;Node32 -->
<g id="edge39" class="edge"><title>Node27&#45;&gt;Node32</title>
<path fill="none" stroke="midnightblue" d="M540.216,-114.161C511.749,-105.224 461.473,-89.439 426.984,-78.6114"/>
<polygon fill="midnightblue" stroke="midnightblue" points="427.858,-75.2173 417.269,-75.5611 425.761,-81.8959 427.858,-75.2173"/>
</g>
<!-- Node33&#45;&gt;Node13 -->
<g id="edge43" class="edge"><title>Node33&#45;&gt;Node13</title>
<path fill="none" stroke="midnightblue" d="M902.165,-112.083C902.296,-105.006 902.484,-94.8611 902.648,-85.9865"/>
<polygon fill="midnightblue" stroke="midnightblue" points="906.152,-85.8142 902.838,-75.7511 899.153,-85.6845 906.152,-85.8142"/>
</g>
<!-- Node33&#45;&gt;Node14 -->
<g id="edge44" class="edge"><title>Node33&#45;&gt;Node14</title>
<path fill="none" stroke="midnightblue" d="M921.807,-112.444C942.287,-103.596 974.483,-89.6875 997.865,-79.5865"/>
<polygon fill="midnightblue" stroke="midnightblue" points="999.494,-82.6953 1007.29,-75.5164 996.718,-76.2692 999.494,-82.6953"/>
</g>
<!-- Node34&#45;&gt;Node14 -->
<g id="edge46" class="edge"><title>Node34&#45;&gt;Node14</title>
<path fill="none" stroke="midnightblue" d="M960.923,-168.485C964.104,-155.55 971.298,-130.503 983,-112 989.976,-100.97 1000.02,-90.4374 1008.75,-82.3384"/>
<polygon fill="midnightblue" stroke="midnightblue" points="1011.13,-84.904 1016.27,-75.6404 1006.48,-79.6757 1011.13,-84.904"/>
</g>
<!-- Node35 -->
<g id="node35" class="node"><title>Node35</title>
<g id="a_node35"><a xlink:href="sys__error__code_8h.html" target="_top" xlink:title=" ">
<polygon fill="white" stroke="black" points="992,-112.5 992,-131.5 1084,-131.5 1084,-112.5 992,-112.5"/>
<text text-anchor="middle" x="1038" y="-119.5" font-family="Helvetica,sans-Serif" font-size="10.00">sys_error_code.h</text>
</a>
</g>
</g>
<!-- Node34&#45;&gt;Node35 -->
<g id="edge47" class="edge"><title>Node34&#45;&gt;Node35</title>
<path fill="none" stroke="midnightblue" d="M971.693,-168.324C983.901,-159.979 1002.58,-147.212 1017,-137.352"/>
<polygon fill="midnightblue" stroke="midnightblue" points="1019.06,-140.187 1025.34,-131.655 1015.11,-134.408 1019.06,-140.187"/>
</g>
<!-- Node36 -->
<g id="node36" class="node"><title>Node36</title>
<g id="a_node36"><a xlink:href="useful__base__types_8h.html" target="_top" xlink:title=" ">
<polygon fill="white" stroke="black" points="1076,-56.5 1076,-75.5 1182,-75.5 1182,-56.5 1076,-56.5"/>
<text text-anchor="middle" x="1129" y="-63.5" font-family="Helvetica,sans-Serif" font-size="10.00">useful_base_types.h</text>
</a>
</g>
</g>
<!-- Node34&#45;&gt;Node36 -->
<g id="edge50" class="edge"><title>Node34&#45;&gt;Node36</title>
<path fill="none" stroke="midnightblue" d="M1007.26,-169.723C1034.84,-163.529 1068.68,-152.261 1093,-132 1107.68,-119.776 1117.42,-99.9488 1123.02,-85.4023"/>
<polygon fill="midnightblue" stroke="midnightblue" points="1126.34,-86.5225 1126.39,-75.9278 1119.74,-84.1812 1126.34,-86.5225"/>
</g>
<!-- Node35&#45;&gt;Node14 -->
<g id="edge48" class="edge"><title>Node35&#45;&gt;Node14</title>
<path fill="none" stroke="midnightblue" d="M1036.18,-112.083C1034.73,-104.927 1032.63,-94.6353 1030.81,-85.6911"/>
<polygon fill="midnightblue" stroke="midnightblue" points="1034.21,-84.8512 1028.78,-75.7511 1027.35,-86.2485 1034.21,-84.8512"/>
</g>
<!-- Node35&#45;&gt;Node36 -->
<g id="edge49" class="edge"><title>Node35&#45;&gt;Node36</title>
<path fill="none" stroke="midnightblue" d="M1052.62,-112.324C1066.95,-103.822 1089.01,-90.7288 1105.75,-80.7975"/>
<polygon fill="midnightblue" stroke="midnightblue" points="1107.6,-83.7677 1114.42,-75.6545 1104.03,-77.7478 1107.6,-83.7677"/>
</g>
</g>
</svg>
        <g id="navigator" transform="translate(0 0)" fill="#404254">
                <rect fill="#f2f5e9" fill-opacity="0.5" stroke="#606060" stroke-width=".5" x="0" y="0" width="60" height="60"/>
                <use id="zoomplus" xlink:href="#zoomPlus" x="17" y="9" onmousedown="handleZoom(evt,'in')"/>
                <use id="zoomminus" xlink:href="#zoomMin" x="42" y="9" onmousedown="handleZoom(evt,'out')"/>
                <use id="reset" xlink:href="#resetDef" x="30" y="36" onmousedown="handleReset()"/>
                <g id="arrowUp" xlink:href="#dirArrow" transform="translate(30 24)" onmousedown="handlePan(0,-1)">
                  <use xlink:href="#rim" fill="#404040">
                        <set attributeName="fill" to="#808080" begin="arrowUp.mouseover" end="arrowUp.mouseout"/>
                  </use>
                  <path fill="none" stroke="white" stroke-width="1.5" d="M0,-3.0v7 M-2.5,-0.5L0,-3.0L2.5,-0.5"/>
                </g>
                <g id="arrowRight" xlink:href="#dirArrow" transform="rotate(90) translate(36 -43)" onmousedown="handlePan(1,0)">
                  <use xlink:href="#rim" fill="#404040">
                        <set attributeName="fill" to="#808080" begin="arrowRight.mouseover" end="arrowRight.mouseout"/>
                  </use>
                  <path fill="none" stroke="white" stroke-width="1.5" d="M0,-3.0v7 M-2.5,-0.5L0,-3.0L2.5,-0.5"/>
                </g>
                <g id="arrowDown" xlink:href="#dirArrow" transform="rotate(180) translate(-30 -48)" onmousedown="handlePan(0,1)">
                  <use xlink:href="#rim" fill="#404040">
                        <set attributeName="fill" to="#808080" begin="arrowDown.mouseover" end="arrowDown.mouseout"/>
                  </use>
                  <path fill="none" stroke="white" stroke-width="1.5" d="M0,-3.0v7 M-2.5,-0.5L0,-3.0L2.5,-0.5"/>
                </g>
                <g id="arrowLeft" xlink:href="#dirArrow" transform="rotate(270) translate(-36 17)" onmousedown="handlePan(-1,0)">
                  <use xlink:href="#rim" fill="#404040">
                        <set attributeName="fill" to="#808080" begin="arrowLeft.mouseover" end="arrowLeft.mouseout"/>
                  </use>
                  <path fill="none" stroke="white" stroke-width="1.5" d="M0,-3.0v7 M-2.5,-0.5L0,-3.0L2.5,-0.5"/>
                </g>
        </g>
        <svg viewBox="0 0 15 15" width="100%" height="30px" preserveAspectRatio="xMaxYMin meet">
         <g id="arrow_out" transform="scale(0.3 0.3)">
          <a xlink:href="address_8cpp__incl_org.svg" target="_base">
           <rect id="button" ry="5" rx="5" y="6" x="6" height="38" width="38"
                fill="#f2f5e9" fill-opacity="0.5" stroke="#606060" stroke-width="1.0"/>
           <path id="arrow"
             d="M 11.500037,31.436501 C 11.940474,20.09759 22.043105,11.32322 32.158766,21.979434 L 37.068811,17.246167 C 37.068811,17.246167 37.088388,32 37.088388,32 L 22.160133,31.978069 C 22.160133,31.978069 26.997745,27.140456 26.997745,27.140456 C 18.528582,18.264221 13.291696,25.230495 11.500037,31.436501 z"
             style="fill:#404040;"/>
          </a>
         </g>
        </svg>
</svg>
