<?xml version="1.0" encoding="UTF-8" standalone="no"?>
<!DOCTYPE svg PUBLIC "-//W3C//DTD SVG 1.1//EN"
 "http://www.w3.org/Graphics/SVG/1.1/DTD/svg11.dtd">
<!-- Generated by graphviz version 2.38.0 (20140413.2041)
 -->
<!-- Title: C:/projects/ndt/sources/include/ndt/address.h Pages: 1 -->
<svg width="866pt" height="263pt"
 viewBox="0.00 0.00 865.50 263.00" xmlns="http://www.w3.org/2000/svg" xmlns:xlink="http://www.w3.org/1999/xlink">
<g id="graph0" class="graph" transform="scale(1 1) rotate(0) translate(4 259)">
<title>C:/projects/ndt/sources/include/ndt/address.h</title>
<polygon fill="white" stroke="none" points="-4,4 -4,-259 861.5,-259 861.5,4 -4,4"/>
<!-- Node1 -->
<g id="node1" class="node"><title>Node1</title>
<g id="a_node1"><a xlink:title=" ">
<polygon fill="#bfbfbf" stroke="black" points="203.5,-224.5 203.5,-254.5 321.5,-254.5 321.5,-224.5 203.5,-224.5"/>
<text text-anchor="start" x="211.5" y="-242.5" font-family="Helvetica,sans-Serif" font-size="10.00">C:/projects/ndt/sources</text>
<text text-anchor="middle" x="262.5" y="-231.5" font-family="Helvetica,sans-Serif" font-size="10.00">/include/ndt/address.h</text>
</a>
</g>
</g>
<!-- Node2 -->
<g id="node2" class="node"><title>Node2</title>
<g id="a_node2"><a xlink:title=" ">
<polygon fill="white" stroke="#bfbfbf" points="93,-168.5 93,-187.5 134,-187.5 134,-168.5 93,-168.5"/>
<text text-anchor="middle" x="113.5" y="-175.5" font-family="Helvetica,sans-Serif" font-size="10.00">string</text>
</a>
</g>
</g>
<!-- Node1&#45;&gt;Node2 -->
<g id="edge1" class="edge"><title>Node1&#45;&gt;Node2</title>
<path fill="none" stroke="midnightblue" d="M227.189,-224.399C201.775,-214.251 167.856,-200.706 143.698,-191.059"/>
<polygon fill="midnightblue" stroke="midnightblue" points="144.901,-187.771 134.316,-187.312 142.305,-194.271 144.901,-187.771"/>
</g>
<!-- Node3 -->
<g id="node3" class="node"><title>Node3</title>
<g id="a_node3"><a xlink:title=" ">
<polygon fill="white" stroke="#bfbfbf" points="152.5,-168.5 152.5,-187.5 196.5,-187.5 196.5,-168.5 152.5,-168.5"/>
<text text-anchor="middle" x="174.5" y="-175.5" font-family="Helvetica,sans-Serif" font-size="10.00">variant</text>
</a>
</g>
</g>
<!-- Node1&#45;&gt;Node3 -->
<g id="edge2" class="edge"><title>Node1&#45;&gt;Node3</title>
<path fill="none" stroke="midnightblue" d="M241.645,-224.399C227.803,-215.04 209.689,-202.792 195.764,-193.377"/>
<polygon fill="midnightblue" stroke="midnightblue" points="197.549,-190.36 187.305,-187.658 193.628,-196.158 197.549,-190.36"/>
</g>
<!-- Node4 -->
<g id="node4" class="node"><title>Node4</title>
<g id="a_node4"><a xlink:href="buffer_8h.html" target="_top" xlink:title=" ">
<polygon fill="white" stroke="black" points="114.5,-112.5 114.5,-131.5 162.5,-131.5 162.5,-112.5 114.5,-112.5"/>
<text text-anchor="middle" x="138.5" y="-119.5" font-family="Helvetica,sans-Serif" font-size="10.00">buffer.h</text>
</a>
</g>
</g>
<!-- Node1&#45;&gt;Node4 -->
<g id="edge3" class="edge"><title>Node1&#45;&gt;Node4</title>
<path fill="none" stroke="midnightblue" d="M253.084,-224.481C242.579,-209.459 224.542,-185.428 205.5,-168 192.483,-156.086 176.058,-145.004 162.729,-136.818"/>
<polygon fill="midnightblue" stroke="midnightblue" points="164.454,-133.771 154.076,-131.639 160.859,-139.778 164.454,-133.771"/>
</g>
<!-- Node18 -->
<g id="node18" class="node"><title>Node18</title>
<g id="a_node18"><a xlink:href="exception_8h.html" target="_top" xlink:title=" ">
<polygon fill="white" stroke="black" points="388,-112.5 388,-131.5 455,-131.5 455,-112.5 388,-112.5"/>
<text text-anchor="middle" x="421.5" y="-119.5" font-family="Helvetica,sans-Serif" font-size="10.00">exception.h</text>
</a>
</g>
</g>
<!-- Node1&#45;&gt;Node18 -->
<g id="edge18" class="edge"><title>Node1&#45;&gt;Node18</title>
<path fill="none" stroke="midnightblue" d="M294.741,-224.393C313.842,-215.314 338.036,-202.518 357.5,-188 376.633,-173.729 395.421,-153.732 407.638,-139.697"/>
<polygon fill="midnightblue" stroke="midnightblue" points="410.517,-141.715 414.34,-131.834 405.19,-137.174 410.517,-141.715"/>
</g>
<!-- Node20 -->
<g id="node20" class="node"><title>Node20</title>
<g id="a_node20"><a xlink:href="sys__socket__ops_8h.html" target="_top" xlink:title=" ">
<polygon fill="white" stroke="black" points="252.5,-168.5 252.5,-187.5 348.5,-187.5 348.5,-168.5 252.5,-168.5"/>
<text text-anchor="middle" x="300.5" y="-175.5" font-family="Helvetica,sans-Serif" font-size="10.00">sys_socket_ops.h</text>
</a>
</g>
</g>
<!-- Node1&#45;&gt;Node20 -->
<g id="edge21" class="edge"><title>Node1&#45;&gt;Node20</title>
<path fill="none" stroke="midnightblue" d="M271.505,-224.399C276.913,-215.932 283.832,-205.099 289.554,-196.139"/>
<polygon fill="midnightblue" stroke="midnightblue" points="292.538,-197.97 294.971,-187.658 286.638,-194.202 292.538,-197.97"/>
</g>
<!-- Node23 -->
<g id="node23" class="node"><title>Node23</title>
<g id="a_node23"><a xlink:href="utils_8h.html" target="_top" xlink:title=" ">
<polygon fill="white" stroke="black" points="513,-112.5 513,-131.5 556,-131.5 556,-112.5 513,-112.5"/>
<text text-anchor="middle" x="534.5" y="-119.5" font-family="Helvetica,sans-Serif" font-size="10.00">utils.h</text>
</a>
</g>
</g>
<!-- Node1&#45;&gt;Node23 -->
<g id="edge27" class="edge"><title>Node1&#45;&gt;Node23</title>
<path fill="none" stroke="midnightblue" d="M296.143,-224.403C320.211,-214.303 353.369,-200.358 382.5,-188 425.176,-169.896 474.508,-148.762 505.109,-135.628"/>
<polygon fill="midnightblue" stroke="midnightblue" points="506.546,-138.82 514.354,-131.659 503.785,-132.388 506.546,-138.82"/>
</g>
<!-- Node5 -->
<g id="node5" class="node"><title>Node5</title>
<g id="a_node5"><a xlink:title=" ">
<polygon fill="white" stroke="#bfbfbf" points="0,-56.5 0,-75.5 49,-75.5 49,-56.5 0,-56.5"/>
<text text-anchor="middle" x="24.5" y="-63.5" font-family="Helvetica,sans-Serif" font-size="10.00">cassert</text>
</a>
</g>
</g>
<!-- Node4&#45;&gt;Node5 -->
<g id="edge4" class="edge"><title>Node4&#45;&gt;Node5</title>
<path fill="none" stroke="midnightblue" d="M120.436,-112.444C101.925,-103.675 72.9193,-89.9355 51.6445,-79.8579"/>
<polygon fill="midnightblue" stroke="midnightblue" points="53.0148,-76.6343 42.4791,-75.5164 50.0182,-82.9604 53.0148,-76.6343"/>
</g>
<!-- Node6 -->
<g id="node6" class="node"><title>Node6</title>
<g id="a_node6"><a xlink:title=" ">
<polygon fill="white" stroke="#bfbfbf" points="18.5,-0.5 18.5,-19.5 66.5,-19.5 66.5,-0.5 18.5,-0.5"/>
<text text-anchor="middle" x="42.5" y="-7.5" font-family="Helvetica,sans-Serif" font-size="10.00">cstddef</text>
</a>
</g>
</g>
<!-- Node4&#45;&gt;Node6 -->
<g id="edge5" class="edge"><title>Node4&#45;&gt;Node6</title>
<path fill="none" stroke="midnightblue" d="M129.979,-112.175C121.382,-103.202 107.801,-88.8314 96.5,-76 82.1823,-59.7437 66.4164,-40.616 55.6361,-27.3374"/>
<polygon fill="midnightblue" stroke="midnightblue" points="58.3455,-25.1217 49.3371,-19.5451 52.9017,-29.5223 58.3455,-25.1217"/>
</g>
<!-- Node7 -->
<g id="node7" class="node"><title>Node7</title>
<g id="a_node7"><a xlink:title=" ">
<polygon fill="white" stroke="#bfbfbf" points="105.5,-56.5 105.5,-75.5 151.5,-75.5 151.5,-56.5 105.5,-56.5"/>
<text text-anchor="middle" x="128.5" y="-63.5" font-family="Helvetica,sans-Serif" font-size="10.00">cstdint</text>
</a>
</g>
</g>
<!-- Node4&#45;&gt;Node7 -->
<g id="edge6" class="edge"><title>Node4&#45;&gt;Node7</title>
<path fill="none" stroke="midnightblue" d="M136.849,-112.083C135.524,-104.927 133.618,-94.6353 131.961,-85.6911"/>
<polygon fill="midnightblue" stroke="midnightblue" points="135.383,-84.9466 130.121,-75.7511 128.5,-86.2212 135.383,-84.9466"/>
</g>
<!-- Node8 -->
<g id="node8" class="node"><title>Node8</title>
<g id="a_node8"><a xlink:title=" ">
<polygon fill="white" stroke="#bfbfbf" points="373.5,-56.5 373.5,-75.5 435.5,-75.5 435.5,-56.5 373.5,-56.5"/>
<text text-anchor="middle" x="404.5" y="-63.5" font-family="Helvetica,sans-Serif" font-size="10.00">type_traits</text>
</a>
</g>
</g>
<!-- Node4&#45;&gt;Node8 -->
<g id="edge7" class="edge"><title>Node4&#45;&gt;Node8</title>
<path fill="none" stroke="midnightblue" d="M162.622,-116.4C202.297,-108.791 284.049,-92.9303 362.966,-76.2874"/>
<polygon fill="midnightblue" stroke="midnightblue" points="364.015,-79.6431 373.073,-74.1482 362.565,-72.7948 364.015,-79.6431"/>
</g>
<!-- Node9 -->
<g id="node9" class="node"><title>Node9</title>
<g id="a_node9"><a xlink:href="common_8h.html" target="_top" xlink:title="Header with typedefs to make type designation platform independent.">
<polygon fill="white" stroke="black" points="293.5,-56.5 293.5,-75.5 355.5,-75.5 355.5,-56.5 293.5,-56.5"/>
<text text-anchor="middle" x="324.5" y="-63.5" font-family="Helvetica,sans-Serif" font-size="10.00">common.h</text>
</a>
</g>
</g>
<!-- Node4&#45;&gt;Node9 -->
<g id="edge8" class="edge"><title>Node4&#45;&gt;Node9</title>
<path fill="none" stroke="midnightblue" d="M162.816,-113.94C193.869,-104.925 248.006,-89.2079 285.011,-78.4646"/>
<polygon fill="midnightblue" stroke="midnightblue" points="286.333,-81.7254 294.96,-75.576 284.381,-75.003 286.333,-81.7254"/>
</g>
<!-- Node9&#45;&gt;Node6 -->
<g id="edge17" class="edge"><title>Node9&#45;&gt;Node6</title>
<path fill="none" stroke="midnightblue" d="M293.089,-57.7744C290.189,-57.1552 287.293,-56.5543 284.5,-56 195.117,-38.2582 169.221,-40.2627 76.3908,-20.0203"/>
<polygon fill="midnightblue" stroke="midnightblue" points="77.1039,-16.5936 66.5843,-17.8544 75.5941,-23.4288 77.1039,-16.5936"/>
</g>
<!-- Node10 -->
<g id="node10" class="node"><title>Node10</title>
<g id="a_node10"><a xlink:title=" ">
<polygon fill="white" stroke="#bfbfbf" points="482.5,-0.5 482.5,-19.5 544.5,-19.5 544.5,-0.5 482.5,-0.5"/>
<text text-anchor="middle" x="513.5" y="-7.5" font-family="Helvetica,sans-Serif" font-size="10.00">arpa/inet.h</text>
</a>
</g>
</g>
<!-- Node9&#45;&gt;Node10 -->
<g id="edge9" class="edge"><title>Node9&#45;&gt;Node10</title>
<path fill="none" stroke="midnightblue" d="M354.448,-56.4435C386.658,-47.2406 438.034,-32.5617 473.642,-22.3879"/>
<polygon fill="midnightblue" stroke="midnightblue" points="475.039,-25.629 483.692,-19.5164 473.116,-18.8984 475.039,-25.629"/>
</g>
<!-- Node11 -->
<g id="node11" class="node"><title>Node11</title>
<g id="a_node11"><a xlink:title=" ">
<polygon fill="white" stroke="#bfbfbf" points="563,-0.5 563,-19.5 610,-19.5 610,-0.5 563,-0.5"/>
<text text-anchor="middle" x="586.5" y="-7.5" font-family="Helvetica,sans-Serif" font-size="10.00">errno.h</text>
</a>
</g>
</g>
<!-- Node9&#45;&gt;Node11 -->
<g id="edge10" class="edge"><title>Node9&#45;&gt;Node11</title>
<path fill="none" stroke="midnightblue" d="M355.922,-57.827C358.819,-57.1967 361.712,-56.579 364.5,-56 445.199,-39.2406 468.52,-39.2407 552.998,-19.9628"/>
<polygon fill="midnightblue" stroke="midnightblue" points="553.805,-23.3687 562.763,-17.7116 552.232,-16.5476 553.805,-23.3687"/>
</g>
<!-- Node12 -->
<g id="node12" class="node"><title>Node12</title>
<g id="a_node12"><a xlink:title=" ">
<polygon fill="white" stroke="#bfbfbf" points="628,-0.5 628,-19.5 671,-19.5 671,-0.5 628,-0.5"/>
<text text-anchor="middle" x="649.5" y="-7.5" font-family="Helvetica,sans-Serif" font-size="10.00">fcntl.h</text>
</a>
</g>
</g>
<!-- Node9&#45;&gt;Node12 -->
<g id="edge11" class="edge"><title>Node9&#45;&gt;Node12</title>
<path fill="none" stroke="midnightblue" d="M355.894,-57.6839C358.797,-57.0836 361.699,-56.5119 364.5,-56 473.903,-36.0035 505.9,-44.0233 617.965,-20.0613"/>
<polygon fill="midnightblue" stroke="midnightblue" points="618.945,-23.43 627.972,-17.8831 617.457,-16.5902 618.945,-23.43"/>
</g>
<!-- Node13 -->
<g id="node13" class="node"><title>Node13</title>
<g id="a_node13"><a xlink:title=" ">
<polygon fill="white" stroke="#bfbfbf" points="85,-0.5 85,-19.5 134,-19.5 134,-0.5 85,-0.5"/>
<text text-anchor="middle" x="109.5" y="-7.5" font-family="Helvetica,sans-Serif" font-size="10.00">netdb.h</text>
</a>
</g>
</g>
<!-- Node9&#45;&gt;Node13 -->
<g id="edge12" class="edge"><title>Node9&#45;&gt;Node13</title>
<path fill="none" stroke="midnightblue" d="M293.204,-57.5022C258.883,-49.227 201.931,-35.3417 144.346,-20.4407"/>
<polygon fill="midnightblue" stroke="midnightblue" points="144.908,-16.9708 134.349,-17.8453 143.149,-23.7461 144.908,-16.9708"/>
</g>
<!-- Node14 -->
<g id="node14" class="node"><title>Node14</title>
<g id="a_node14"><a xlink:title=" ">
<polygon fill="white" stroke="#bfbfbf" points="152,-0.5 152,-19.5 217,-19.5 217,-0.5 152,-0.5"/>
<text text-anchor="middle" x="184.5" y="-7.5" font-family="Helvetica,sans-Serif" font-size="10.00">netinet/in.h</text>
</a>
</g>
</g>
<!-- Node9&#45;&gt;Node14 -->
<g id="edge13" class="edge"><title>Node9&#45;&gt;Node14</title>
<path fill="none" stroke="midnightblue" d="M302.317,-56.4435C279.072,-47.4776 242.351,-33.314 216.085,-23.1827"/>
<polygon fill="midnightblue" stroke="midnightblue" points="217.169,-19.8497 206.58,-19.5164 214.65,-26.3807 217.169,-19.8497"/>
</g>
<!-- Node15 -->
<g id="node15" class="node"><title>Node15</title>
<g id="a_node15"><a xlink:title=" ">
<polygon fill="white" stroke="#bfbfbf" points="235,-0.5 235,-19.5 308,-19.5 308,-0.5 235,-0.5"/>
<text text-anchor="middle" x="271.5" y="-7.5" font-family="Helvetica,sans-Serif" font-size="10.00">sys/socket.h</text>
</a>
</g>
</g>
<!-- Node9&#45;&gt;Node15 -->
<g id="edge14" class="edge"><title>Node9&#45;&gt;Node15</title>
<path fill="none" stroke="midnightblue" d="M315.748,-56.083C308.03,-48.2195 296.595,-36.5688 287.283,-27.0813"/>
<polygon fill="midnightblue" stroke="midnightblue" points="289.592,-24.4363 280.089,-19.7511 284.596,-29.3396 289.592,-24.4363"/>
</g>
<!-- Node16 -->
<g id="node16" class="node"><title>Node16</title>
<g id="a_node16"><a xlink:title=" ">
<polygon fill="white" stroke="#bfbfbf" points="326.5,-0.5 326.5,-19.5 394.5,-19.5 394.5,-0.5 326.5,-0.5"/>
<text text-anchor="middle" x="360.5" y="-7.5" font-family="Helvetica,sans-Serif" font-size="10.00">sys/types.h</text>
</a>
</g>
</g>
<!-- Node9&#45;&gt;Node16 -->
<g id="edge15" class="edge"><title>Node9&#45;&gt;Node16</title>
<path fill="none" stroke="midnightblue" d="M330.445,-56.083C335.477,-48.5341 342.837,-37.4948 349.013,-28.2298"/>
<polygon fill="midnightblue" stroke="midnightblue" points="352.031,-30.0131 354.666,-19.7511 346.207,-26.1301 352.031,-30.0131"/>
</g>
<!-- Node17 -->
<g id="node17" class="node"><title>Node17</title>
<g id="a_node17"><a xlink:title=" ">
<polygon fill="white" stroke="#bfbfbf" points="413,-0.5 413,-19.5 464,-19.5 464,-0.5 413,-0.5"/>
<text text-anchor="middle" x="438.5" y="-7.5" font-family="Helvetica,sans-Serif" font-size="10.00">unistd.h</text>
</a>
</g>
</g>
<!-- Node9&#45;&gt;Node17 -->
<g id="edge16" class="edge"><title>Node9&#45;&gt;Node17</title>
<path fill="none" stroke="midnightblue" d="M342.564,-56.4435C361.075,-47.6751 390.081,-33.9355 411.355,-23.8579"/>
<polygon fill="midnightblue" stroke="midnightblue" points="412.982,-26.9604 420.521,-19.5164 409.985,-20.6343 412.982,-26.9604"/>
</g>
<!-- Node18&#45;&gt;Node9 -->
<g id="edge20" class="edge"><title>Node18&#45;&gt;Node9</title>
<path fill="none" stroke="midnightblue" d="M405.915,-112.324C390.501,-103.743 366.688,-90.486 348.79,-80.5224"/>
<polygon fill="midnightblue" stroke="midnightblue" points="350.486,-77.4606 340.046,-75.6545 347.081,-83.5767 350.486,-77.4606"/>
</g>
<!-- Node19 -->
<g id="node19" class="node"><title>Node19</title>
<g id="a_node19"><a xlink:title=" ">
<polygon fill="white" stroke="#bfbfbf" points="453.5,-56.5 453.5,-75.5 527.5,-75.5 527.5,-56.5 453.5,-56.5"/>
<text text-anchor="middle" x="490.5" y="-63.5" font-family="Helvetica,sans-Serif" font-size="10.00">system_error</text>
</a>
</g>
</g>
<!-- Node18&#45;&gt;Node19 -->
<g id="edge19" class="edge"><title>Node18&#45;&gt;Node19</title>
<path fill="none" stroke="midnightblue" d="M432.586,-112.324C442.986,-104.185 458.761,-91.8395 471.222,-82.0874"/>
<polygon fill="midnightblue" stroke="midnightblue" points="473.494,-84.7533 479.212,-75.8339 469.18,-79.2407 473.494,-84.7533"/>
</g>
<!-- Node20&#45;&gt;Node9 -->
<g id="edge22" class="edge"><title>Node20&#45;&gt;Node9</title>
<path fill="none" stroke="midnightblue" d="M311.766,-168.427C321.466,-160.275 334.779,-147.046 340.5,-132 346.424,-116.418 340.687,-97.8916 334.496,-84.6117"/>
<polygon fill="midnightblue" stroke="midnightblue" points="337.551,-82.9003 329.859,-75.6149 331.329,-86.1072 337.551,-82.9003"/>
</g>
<!-- Node21 -->
<g id="node21" class="node"><title>Node21</title>
<g id="a_node21"><a xlink:href="sys__error__code_8h.html" target="_top" xlink:title=" ">
<polygon fill="white" stroke="black" points="239.5,-112.5 239.5,-131.5 331.5,-131.5 331.5,-112.5 239.5,-112.5"/>
<text text-anchor="middle" x="285.5" y="-119.5" font-family="Helvetica,sans-Serif" font-size="10.00">sys_error_code.h</text>
</a>
</g>
</g>
<!-- Node20&#45;&gt;Node21 -->
<g id="edge23" class="edge"><title>Node20&#45;&gt;Node21</title>
<path fill="none" stroke="midnightblue" d="M298.023,-168.083C296.014,-160.849 293.114,-150.409 290.61,-141.397"/>
<polygon fill="midnightblue" stroke="midnightblue" points="293.98,-140.449 287.931,-131.751 287.235,-142.323 293.98,-140.449"/>
</g>
<!-- Node22 -->
<g id="node22" class="node"><title>Node22</title>
<g id="a_node22"><a xlink:href="useful__base__types_8h.html" target="_top" xlink:title=" ">
<polygon fill="white" stroke="black" points="169.5,-56.5 169.5,-75.5 275.5,-75.5 275.5,-56.5 169.5,-56.5"/>
<text text-anchor="middle" x="222.5" y="-63.5" font-family="Helvetica,sans-Serif" font-size="10.00">useful_base_types.h</text>
</a>
</g>
</g>
<!-- Node20&#45;&gt;Node22 -->
<g id="edge26" class="edge"><title>Node20&#45;&gt;Node22</title>
<path fill="none" stroke="midnightblue" d="M277.374,-168.358C261.472,-161.148 241.337,-149.249 230.5,-132 221.899,-118.311 220.385,-99.7764 220.738,-86.0018"/>
<polygon fill="midnightblue" stroke="midnightblue" points="224.247,-85.9552 221.359,-75.7615 217.26,-85.5311 224.247,-85.9552"/>
</g>
<!-- Node21&#45;&gt;Node9 -->
<g id="edge24" class="edge"><title>Node21&#45;&gt;Node9</title>
<path fill="none" stroke="midnightblue" d="M291.94,-112.083C297.449,-104.455 305.531,-93.2645 312.265,-83.9408"/>
<polygon fill="midnightblue" stroke="midnightblue" points="315.162,-85.9071 318.18,-75.7511 309.487,-81.8087 315.162,-85.9071"/>
</g>
<!-- Node21&#45;&gt;Node22 -->
<g id="edge25" class="edge"><title>Node21&#45;&gt;Node22</title>
<path fill="none" stroke="midnightblue" d="M275.378,-112.324C265.974,-104.263 251.756,-92.0765 240.431,-82.3695"/>
<polygon fill="midnightblue" stroke="midnightblue" points="242.677,-79.6844 232.806,-75.8339 238.121,-84.9993 242.677,-79.6844"/>
</g>
<!-- Node23&#45;&gt;Node8 -->
<g id="edge32" class="edge"><title>Node23&#45;&gt;Node8</title>
<path fill="none" stroke="midnightblue" d="M513.901,-112.444C492.507,-103.557 458.819,-89.5632 434.476,-79.4514"/>
<polygon fill="midnightblue" stroke="midnightblue" points="435.58,-76.1203 425.003,-75.5164 432.895,-82.5848 435.58,-76.1203"/>
</g>
<!-- Node23&#45;&gt;Node9 -->
<g id="edge34" class="edge"><title>Node23&#45;&gt;Node9</title>
<path fill="none" stroke="midnightblue" d="M512.817,-115.424C478.109,-106.5 409.504,-88.858 365.379,-77.5117"/>
<polygon fill="midnightblue" stroke="midnightblue" points="366.098,-74.0827 355.541,-74.982 364.354,-80.8622 366.098,-74.0827"/>
</g>
<!-- Node23&#45;&gt;Node19 -->
<g id="edge31" class="edge"><title>Node23&#45;&gt;Node19</title>
<path fill="none" stroke="midnightblue" d="M527.234,-112.083C520.955,-104.377 511.712,-93.0333 504.069,-83.6531"/>
<polygon fill="midnightblue" stroke="midnightblue" points="506.661,-81.2926 497.631,-75.7511 501.234,-85.7143 506.661,-81.2926"/>
</g>
<!-- Node24 -->
<g id="node24" class="node"><title>Node24</title>
<g id="a_node24"><a xlink:title=" ">
<polygon fill="white" stroke="#bfbfbf" points="797.5,-56.5 797.5,-75.5 857.5,-75.5 857.5,-56.5 797.5,-56.5"/>
<text text-anchor="middle" x="827.5" y="-63.5" font-family="Helvetica,sans-Serif" font-size="10.00">fmt/core.h</text>
</a>
</g>
</g>
<!-- Node23&#45;&gt;Node24 -->
<g id="edge28" class="edge"><title>Node23&#45;&gt;Node24</title>
<path fill="none" stroke="midnightblue" d="M556.317,-117.523C598.798,-110.671 695.79,-94.623 787.319,-76.1585"/>
<polygon fill="midnightblue" stroke="midnightblue" points="788.197,-79.5518 797.3,-74.1308 786.803,-72.6919 788.197,-79.5518"/>
</g>
<!-- Node25 -->
<g id="node25" class="node"><title>Node25</title>
<g id="a_node25"><a xlink:title=" ">
<polygon fill="white" stroke="#bfbfbf" points="545.5,-56.5 545.5,-75.5 613.5,-75.5 613.5,-56.5 545.5,-56.5"/>
<text text-anchor="middle" x="579.5" y="-63.5" font-family="Helvetica,sans-Serif" font-size="10.00">fmt/format.h</text>
</a>
</g>
</g>
<!-- Node23&#45;&gt;Node25 -->
<g id="edge29" class="edge"><title>Node23&#45;&gt;Node25</title>
<path fill="none" stroke="midnightblue" d="M541.931,-112.083C548.353,-104.377 557.806,-93.0333 565.622,-83.6531"/>
<polygon fill="midnightblue" stroke="midnightblue" points="568.494,-85.674 572.207,-75.7511 563.117,-81.1927 568.494,-85.674"/>
</g>
<!-- Node26 -->
<g id="node26" class="node"><title>Node26</title>
<g id="a_node26"><a xlink:title=" ">
<polygon fill="white" stroke="#bfbfbf" points="631.5,-56.5 631.5,-75.5 677.5,-75.5 677.5,-56.5 631.5,-56.5"/>
<text text-anchor="middle" x="654.5" y="-63.5" font-family="Helvetica,sans-Serif" font-size="10.00">cstring</text>
</a>
</g>
</g>
<!-- Node23&#45;&gt;Node26 -->
<g id="edge30" class="edge"><title>Node23&#45;&gt;Node26</title>
<path fill="none" stroke="midnightblue" d="M553.514,-112.444C573.088,-103.636 603.808,-89.8116 626.229,-79.722"/>
<polygon fill="midnightblue" stroke="midnightblue" points="627.892,-82.8119 635.575,-75.5164 625.019,-76.4284 627.892,-82.8119"/>
</g>
<!-- Node27 -->
<g id="node27" class="node"><title>Node27</title>
<g id="a_node27"><a xlink:title=" ">
<polygon fill="white" stroke="#bfbfbf" points="696,-56.5 696,-75.5 779,-75.5 779,-56.5 696,-56.5"/>
<text text-anchor="middle" x="737.5" y="-63.5" font-family="Helvetica,sans-Serif" font-size="10.00">unordered_map</text>
</a>
</g>
</g>
<!-- Node23&#45;&gt;Node27 -->
<g id="edge33" class="edge"><title>Node23&#45;&gt;Node27</title>
<path fill="none" stroke="midnightblue" d="M556.225,-115.221C589.366,-106.405 653.163,-89.4346 695.54,-78.1618"/>
<polygon fill="midnightblue" stroke="midnightblue" points="696.528,-81.5208 705.292,-75.5676 694.728,-74.756 696.528,-81.5208"/>
</g>
</g>
</svg>
