<?xml version="1.0" encoding="UTF-8" standalone="no"?>
<!DOCTYPE svg PUBLIC "-//W3C//DTD SVG 1.1//EN"
 "http://www.w3.org/Graphics/SVG/1.1/DTD/svg11.dtd">
<!-- Generated by graphviz version 2.38.0 (20140413.2041)
 -->
<!-- Title: C:/projects/ndt/sources/include/ndt/address.h Pages: 1 -->
<!--zoomable 485 -->
<svg id="main" version="1.1" xmlns="http://www.w3.org/2000/svg" xmlns:xlink="http://www.w3.org/1999/xlink" xml:space="preserve" onload="init(evt)">
<style type="text/css"><![CDATA[
.edge:hover path { stroke: red; }
.edge:hover polygon { stroke: red; fill: red; }
]]></style>
<script type="text/javascript"><![CDATA[
var edges = document.getElementsByTagName('g');
if (edges && edges.length) {
  for (var i=0;i<edges.length;i++) {
    if (edges[i].id.substr(0,4)=='edge') {
      edges[i].setAttribute('class','edge');
    }
  }
}
]]></script>
        <defs>
                <circle id="rim" cx="0" cy="0" r="7"/>
                <circle id="rim2" cx="0" cy="0" r="3.5"/>
                <g id="zoomPlus">
                        <use xlink:href="#rim" fill="#404040">
                                <set attributeName="fill" to="#808080" begin="zoomplus.mouseover" end="zoomplus.mouseout"/>
                        </use>
                        <path d="M-4,0h8M0,-4v8" fill="none" stroke="white" stroke-width="1.5" pointer-events="none"/>
                </g>
                <g id="zoomMin">
                        <use xlink:href="#rim" fill="#404040">
                                <set attributeName="fill" to="#808080" begin="zoomminus.mouseover" end="zoomminus.mouseout"/>
                        </use>
                        <path d="M-4,0h8" fill="none" stroke="white" stroke-width="1.5" pointer-events="none"/>
                </g>
                <g id="dirArrow">
                        <path fill="none" stroke="white" stroke-width="1.5" d="M0,-3.0v7 M-2.5,-0.5L0,-3.0L2.5,-0.5"/>
                </g>
               <g id="resetDef">
                       <use xlink:href="#rim2" fill="#404040">
                               <set attributeName="fill" to="#808080" begin="reset.mouseover" end="reset.mouseout"/>
                       </use>
               </g>
        </defs>

<script type="text/javascript">
var viewWidth = 616;
var viewHeight = 485;
var sectionId = 'dynsection-1';
</script>
<script xlink:href="svgpan.js"/>
<svg id="graph" class="graph">
<g id="viewport">
<title>C:/projects/ndt/sources/include/ndt/address.h</title>
<polygon fill="white" stroke="none" points="-4,4 -4,-481 612,-481 612,4 -4,4"/>
<!-- Node1 -->
<g id="node1" class="node"><title>Node1</title>
<g id="a_node1"><a xlink:title=" ">
<polygon fill="#bfbfbf" stroke="black" points="70,-446.5 70,-476.5 188,-476.5 188,-446.5 70,-446.5"/>
<text text-anchor="start" x="78" y="-464.5" font-family="Helvetica,sans-Serif" font-size="10.00">C:/projects/ndt/sources</text>
<text text-anchor="middle" x="129" y="-453.5" font-family="Helvetica,sans-Serif" font-size="10.00">/include/ndt/address.h</text>
</a>
</g>
</g>
<!-- Node2 -->
<g id="node2" class="node"><title>Node2</title>
<g id="a_node2"><a xlink:href="core_8h.html" target="_top" xlink:title=" ">
<polygon fill="white" stroke="black" points="55,-0.5 55,-30.5 173,-30.5 173,-0.5 55,-0.5"/>
<text text-anchor="start" x="63" y="-18.5" font-family="Helvetica,sans-Serif" font-size="10.00">C:/projects/ndt/sources</text>
<text text-anchor="middle" x="114" y="-7.5" font-family="Helvetica,sans-Serif" font-size="10.00">/include/ndt/core.h</text>
</a>
</g>
</g>
<!-- Node1&#45;&gt;Node2 -->
<g id="edge1" class="edge"><title>Node1&#45;&gt;Node2</title>
<path fill="none" stroke="midnightblue" d="M91.8623,-441.306C53.753,-418.644 0,-377.091 0,-323 0,-323 0,-323 0,-165 0,-116.694 16.3991,-104.377 47,-67 58.9956,-52.3483 76.0857,-39.5546 90.0028,-30.5102"/>
<polygon fill="midnightblue" stroke="midnightblue" points="90.2778,-444.433 100.69,-446.389 93.7706,-438.366 90.2778,-444.433"/>
</g>
<!-- Node3 -->
<g id="node3" class="node"><title>Node3</title>
<g id="a_node3"><a xlink:href="socket_8h.html" target="_top" xlink:title=" ">
<polygon fill="white" stroke="black" points="70,-379.5 70,-409.5 188,-409.5 188,-379.5 70,-379.5"/>
<text text-anchor="start" x="78" y="-397.5" font-family="Helvetica,sans-Serif" font-size="10.00">C:/projects/ndt/sources</text>
<text text-anchor="middle" x="129" y="-386.5" font-family="Helvetica,sans-Serif" font-size="10.00">/include/ndt/socket.h</text>
</a>
</g>
</g>
<!-- Node1&#45;&gt;Node3 -->
<g id="edge2" class="edge"><title>Node1&#45;&gt;Node3</title>
<path fill="none" stroke="midnightblue" d="M129,-436.108C129,-427.154 129,-417.323 129,-409.577"/>
<polygon fill="midnightblue" stroke="midnightblue" points="125.5,-436.396 129,-446.396 132.5,-436.396 125.5,-436.396"/>
</g>
<!-- Node12 -->
<g id="node12" class="node"><title>Node12</title>
<g id="a_node12"><a xlink:href="address_8cpp.html" target="_top" xlink:title=" ">
<polygon fill="white" stroke="black" points="206,-379.5 206,-409.5 324,-409.5 324,-379.5 206,-379.5"/>
<text text-anchor="start" x="214" y="-397.5" font-family="Helvetica,sans-Serif" font-size="10.00">C:/projects/ndt/sources</text>
<text text-anchor="middle" x="265" y="-386.5" font-family="Helvetica,sans-Serif" font-size="10.00">/src/address.cpp</text>
</a>
</g>
</g>
<!-- Node1&#45;&gt;Node12 -->
<g id="edge18" class="edge"><title>Node1&#45;&gt;Node12</title>
<path fill="none" stroke="midnightblue" d="M167.724,-441.992C189.281,-431.689 215.689,-419.068 235.548,-409.577"/>
<polygon fill="midnightblue" stroke="midnightblue" points="166.023,-438.926 158.51,-446.396 169.042,-445.242 166.023,-438.926"/>
</g>
<!-- Node3&#45;&gt;Node2 -->
<g id="edge3" class="edge"><title>Node3&#45;&gt;Node2</title>
<path fill="none" stroke="midnightblue" d="M105.532,-372.325C78.5692,-345.553 38,-296.684 38,-245 38,-245 38,-245 38,-165 38,-110.552 78.9873,-55.9877 100.762,-30.8418"/>
<polygon fill="midnightblue" stroke="midnightblue" points="103.105,-374.847 112.731,-379.274 107.967,-369.811 103.105,-374.847"/>
</g>
<!-- Node4 -->
<g id="node4" class="node"><title>Node4</title>
<g id="a_node4"><a xlink:href="executor__select__base_8h.html" target="_top" xlink:title=" ">
<polygon fill="white" stroke="black" points="113,-301.5 113,-342.5 231,-342.5 231,-301.5 113,-301.5"/>
<text text-anchor="start" x="121" y="-330.5" font-family="Helvetica,sans-Serif" font-size="10.00">C:/projects/ndt/sources</text>
<text text-anchor="start" x="121" y="-319.5" font-family="Helvetica,sans-Serif" font-size="10.00">/include/ndt/executor</text>
<text text-anchor="middle" x="172" y="-308.5" font-family="Helvetica,sans-Serif" font-size="10.00">_select_base.h</text>
</a>
</g>
</g>
<!-- Node3&#45;&gt;Node4 -->
<g id="edge4" class="edge"><title>Node3&#45;&gt;Node4</title>
<path fill="none" stroke="midnightblue" d="M142.909,-370.695C148.438,-361.631 154.734,-351.307 160.052,-342.588"/>
<polygon fill="midnightblue" stroke="midnightblue" points="139.921,-368.873 137.702,-379.233 145.897,-372.518 139.921,-368.873"/>
</g>
<!-- Node10 -->
<g id="node10" class="node"><title>Node10</title>
<g id="a_node10"><a xlink:href="udp_8h.html" target="_top" xlink:title=" ">
<polygon fill="white" stroke="black" points="403,-307 403,-337 521,-337 521,-307 403,-307"/>
<text text-anchor="start" x="411" y="-325" font-family="Helvetica,sans-Serif" font-size="10.00">C:/projects/ndt/sources</text>
<text text-anchor="middle" x="462" y="-314" font-family="Helvetica,sans-Serif" font-size="10.00">/include/ndt/udp.h</text>
</a>
</g>
</g>
<!-- Node3&#45;&gt;Node10 -->
<g id="edge15" class="edge"><title>Node3&#45;&gt;Node10</title>
<path fill="none" stroke="midnightblue" d="M198.579,-378.667C274.663,-362.522 351.389,-346.321 402.791,-335.48"/>
<polygon fill="midnightblue" stroke="midnightblue" points="197.392,-375.341 188.337,-380.841 198.846,-382.188 197.392,-375.341"/>
</g>
<!-- Node4&#45;&gt;Node2 -->
<g id="edge5" class="edge"><title>Node4&#45;&gt;Node2</title>
<path fill="none" stroke="midnightblue" d="M122.513,-295.555C111.477,-287.38 101.216,-277.207 95,-265 54.0627,-184.609 92.4118,-70.3288 108.052,-30.6879"/>
<polygon fill="midnightblue" stroke="midnightblue" points="120.825,-298.642 131.049,-301.419 124.788,-292.872 120.825,-298.642"/>
</g>
<!-- Node5 -->
<g id="node5" class="node"><title>Node5</title>
<g id="a_node5"><a xlink:href="nix_2executor__select__impl_8h.html" target="_top" xlink:title=" ">
<polygon fill="white" stroke="black" points="104,-223.5 104,-264.5 240,-264.5 240,-223.5 104,-223.5"/>
<text text-anchor="start" x="112" y="-252.5" font-family="Helvetica,sans-Serif" font-size="10.00">C:/projects/ndt/sources</text>
<text text-anchor="start" x="112" y="-241.5" font-family="Helvetica,sans-Serif" font-size="10.00">/include/ndt/platform</text>
<text text-anchor="middle" x="172" y="-230.5" font-family="Helvetica,sans-Serif" font-size="10.00">/nix/executor_select_impl.h</text>
</a>
</g>
</g>
<!-- Node4&#45;&gt;Node5 -->
<g id="edge6" class="edge"><title>Node4&#45;&gt;Node5</title>
<path fill="none" stroke="midnightblue" d="M172,-291.297C172,-282.301 172,-272.653 172,-264.506"/>
<polygon fill="midnightblue" stroke="midnightblue" points="168.5,-291.428 172,-301.428 175.5,-291.428 168.5,-291.428"/>
</g>
<!-- Node9 -->
<g id="node9" class="node"><title>Node9</title>
<g id="a_node9"><a xlink:href="win_2executor__select__impl_8h.html" target="_top" xlink:title=" ">
<polygon fill="white" stroke="black" points="258.5,-223.5 258.5,-264.5 395.5,-264.5 395.5,-223.5 258.5,-223.5"/>
<text text-anchor="start" x="266.5" y="-252.5" font-family="Helvetica,sans-Serif" font-size="10.00">C:/projects/ndt/sources</text>
<text text-anchor="start" x="266.5" y="-241.5" font-family="Helvetica,sans-Serif" font-size="10.00">/include/ndt/platform</text>
<text text-anchor="middle" x="327" y="-230.5" font-family="Helvetica,sans-Serif" font-size="10.00">/win/executor_select_impl.h</text>
</a>
</g>
</g>
<!-- Node4&#45;&gt;Node9 -->
<g id="edge14" class="edge"><title>Node4&#45;&gt;Node9</title>
<path fill="none" stroke="midnightblue" d="M221.135,-296.908C242.447,-286.458 267.08,-274.38 287.219,-264.506"/>
<polygon fill="midnightblue" stroke="midnightblue" points="219.354,-293.883 211.916,-301.428 222.436,-300.168 219.354,-293.883"/>
</g>
<!-- Node6 -->
<g id="node6" class="node"><title>Node6</title>
<g id="a_node6"><a xlink:href="executor__select_8h.html" target="_top" xlink:title=" ">
<polygon fill="white" stroke="black" points="127,-145.5 127,-186.5 245,-186.5 245,-145.5 127,-145.5"/>
<text text-anchor="start" x="135" y="-174.5" font-family="Helvetica,sans-Serif" font-size="10.00">C:/projects/ndt/sources</text>
<text text-anchor="start" x="135" y="-163.5" font-family="Helvetica,sans-Serif" font-size="10.00">/include/ndt/executor</text>
<text text-anchor="middle" x="186" y="-152.5" font-family="Helvetica,sans-Serif" font-size="10.00">_select.h</text>
</a>
</g>
</g>
<!-- Node5&#45;&gt;Node6 -->
<g id="edge7" class="edge"><title>Node5&#45;&gt;Node6</title>
<path fill="none" stroke="midnightblue" d="M177.418,-213.59C179.09,-204.511 180.89,-194.742 182.407,-186.506"/>
<polygon fill="midnightblue" stroke="midnightblue" points="173.975,-212.959 175.605,-223.428 180.859,-214.228 173.975,-212.959"/>
</g>
<!-- Node6&#45;&gt;Node2 -->
<g id="edge10" class="edge"><title>Node6&#45;&gt;Node2</title>
<path fill="none" stroke="midnightblue" d="M154.989,-138.295C146.717,-129.715 138.548,-119.651 133,-109 119.746,-83.5552 115.734,-49.6729 114.522,-30.7791"/>
<polygon fill="midnightblue" stroke="midnightblue" points="152.644,-140.898 162.221,-145.43 157.56,-135.915 152.644,-140.898"/>
</g>
<!-- Node7 -->
<g id="node7" class="node"><title>Node7</title>
<g id="a_node7"><a xlink:href="context_8h.html" target="_top" xlink:title=" ">
<polygon fill="white" stroke="black" points="142,-73 142,-103 260,-103 260,-73 142,-73"/>
<text text-anchor="start" x="150" y="-91" font-family="Helvetica,sans-Serif" font-size="10.00">C:/projects/ndt/sources</text>
<text text-anchor="middle" x="201" y="-80" font-family="Helvetica,sans-Serif" font-size="10.00">/include/ndt/context.h</text>
</a>
</g>
</g>
<!-- Node6&#45;&gt;Node7 -->
<g id="edge8" class="edge"><title>Node6&#45;&gt;Node7</title>
<path fill="none" stroke="midnightblue" d="M191.865,-135.283C194.042,-124.254 196.412,-112.246 198.192,-103.225"/>
<polygon fill="midnightblue" stroke="midnightblue" points="188.366,-134.94 189.863,-145.428 195.233,-136.295 188.366,-134.94"/>
</g>
<!-- Node8 -->
<g id="node8" class="node"><title>Node8</title>
<g id="a_node8"><a xlink:href="event__handler__select_8h.html" target="_top" xlink:title=" ">
<polygon fill="white" stroke="black" points="278.5,-67.5 278.5,-108.5 407.5,-108.5 407.5,-67.5 278.5,-67.5"/>
<text text-anchor="start" x="286.5" y="-96.5" font-family="Helvetica,sans-Serif" font-size="10.00">C:/projects/ndt/sources</text>
<text text-anchor="start" x="286.5" y="-85.5" font-family="Helvetica,sans-Serif" font-size="10.00">/include/ndt/event_handler</text>
<text text-anchor="middle" x="343" y="-74.5" font-family="Helvetica,sans-Serif" font-size="10.00">_select.h</text>
</a>
</g>
</g>
<!-- Node6&#45;&gt;Node8 -->
<g id="edge11" class="edge"><title>Node6&#45;&gt;Node8</title>
<path fill="none" stroke="midnightblue" d="M235.478,-141.049C257.132,-130.566 282.215,-118.424 302.706,-108.506"/>
<polygon fill="midnightblue" stroke="midnightblue" points="233.907,-137.921 226.431,-145.428 236.957,-144.221 233.907,-137.921"/>
</g>
<!-- Node7&#45;&gt;Node2 -->
<g id="edge9" class="edge"><title>Node7&#45;&gt;Node2</title>
<path fill="none" stroke="midnightblue" d="M175.44,-66.2877C161.222,-54.7662 143.904,-40.7326 131.283,-30.5049"/>
<polygon fill="midnightblue" stroke="midnightblue" points="173.421,-69.1567 183.394,-72.7333 177.828,-63.7181 173.421,-69.1567"/>
</g>
<!-- Node8&#45;&gt;Node2 -->
<g id="edge12" class="edge"><title>Node8&#45;&gt;Node2</title>
<path fill="none" stroke="midnightblue" d="M269.526,-64.3804C233.474,-53.2814 191.169,-40.2573 159.79,-30.5968"/>
<polygon fill="midnightblue" stroke="midnightblue" points="268.928,-67.8581 279.515,-67.4554 270.987,-61.168 268.928,-67.8581"/>
</g>
<!-- Node8&#45;&gt;Node4 -->
<g id="edge13" class="edge"><title>Node8&#45;&gt;Node4</title>
<path fill="none" stroke="midnightblue" d="M367.63,-116.59C397.669,-153.692 440.329,-220.174 405,-265 383.722,-291.998 292.828,-307.475 231.059,-315.056"/>
<polygon fill="midnightblue" stroke="midnightblue" points="370.154,-114.151 361.07,-108.698 364.771,-118.625 370.154,-114.151"/>
</g>
<!-- Node10&#45;&gt;Node2 -->
<g id="edge16" class="edge"><title>Node10&#45;&gt;Node2</title>
<path fill="none" stroke="midnightblue" d="M465.871,-297.024C472.512,-246.625 479.863,-129.225 417,-67 383.457,-33.7974 251.451,-22.3666 173.172,-18.4736"/>
<polygon fill="midnightblue" stroke="midnightblue" points="462.397,-296.594 464.449,-306.988 469.327,-297.583 462.397,-296.594"/>
</g>
<!-- Node11 -->
<g id="node11" class="node"><title>Node11</title>
<g id="a_node11"><a xlink:href="udp_8cpp.html" target="_top" xlink:title=" ">
<polygon fill="white" stroke="black" points="490,-229 490,-259 608,-259 608,-229 490,-229"/>
<text text-anchor="start" x="498" y="-247" font-family="Helvetica,sans-Serif" font-size="10.00">C:/projects/ndt/sources</text>
<text text-anchor="middle" x="549" y="-236" font-family="Helvetica,sans-Serif" font-size="10.00">/src/udp.cpp</text>
</a>
</g>
</g>
<!-- Node10&#45;&gt;Node11 -->
<g id="edge17" class="edge"><title>Node10&#45;&gt;Node11</title>
<path fill="none" stroke="midnightblue" d="M486.161,-299.894C500.999,-286.932 519.606,-270.678 532.709,-259.231"/>
<polygon fill="midnightblue" stroke="midnightblue" points="483.593,-297.49 478.364,-306.705 488.198,-302.762 483.593,-297.49"/>
</g>
</g>
</svg>
        <g id="navigator" transform="translate(0 0)" fill="#404254">
                <rect fill="#f2f5e9" fill-opacity="0.5" stroke="#606060" stroke-width=".5" x="0" y="0" width="60" height="60"/>
                <use id="zoomplus" xlink:href="#zoomPlus" x="17" y="9" onmousedown="handleZoom(evt,'in')"/>
                <use id="zoomminus" xlink:href="#zoomMin" x="42" y="9" onmousedown="handleZoom(evt,'out')"/>
                <use id="reset" xlink:href="#resetDef" x="30" y="36" onmousedown="handleReset()"/>
                <g id="arrowUp" xlink:href="#dirArrow" transform="translate(30 24)" onmousedown="handlePan(0,-1)">
                  <use xlink:href="#rim" fill="#404040">
                        <set attributeName="fill" to="#808080" begin="arrowUp.mouseover" end="arrowUp.mouseout"/>
                  </use>
                  <path fill="none" stroke="white" stroke-width="1.5" d="M0,-3.0v7 M-2.5,-0.5L0,-3.0L2.5,-0.5"/>
                </g>
                <g id="arrowRight" xlink:href="#dirArrow" transform="rotate(90) translate(36 -43)" onmousedown="handlePan(1,0)">
                  <use xlink:href="#rim" fill="#404040">
                        <set attributeName="fill" to="#808080" begin="arrowRight.mouseover" end="arrowRight.mouseout"/>
                  </use>
                  <path fill="none" stroke="white" stroke-width="1.5" d="M0,-3.0v7 M-2.5,-0.5L0,-3.0L2.5,-0.5"/>
                </g>
                <g id="arrowDown" xlink:href="#dirArrow" transform="rotate(180) translate(-30 -48)" onmousedown="handlePan(0,1)">
                  <use xlink:href="#rim" fill="#404040">
                        <set attributeName="fill" to="#808080" begin="arrowDown.mouseover" end="arrowDown.mouseout"/>
                  </use>
                  <path fill="none" stroke="white" stroke-width="1.5" d="M0,-3.0v7 M-2.5,-0.5L0,-3.0L2.5,-0.5"/>
                </g>
                <g id="arrowLeft" xlink:href="#dirArrow" transform="rotate(270) translate(-36 17)" onmousedown="handlePan(-1,0)">
                  <use xlink:href="#rim" fill="#404040">
                        <set attributeName="fill" to="#808080" begin="arrowLeft.mouseover" end="arrowLeft.mouseout"/>
                  </use>
                  <path fill="none" stroke="white" stroke-width="1.5" d="M0,-3.0v7 M-2.5,-0.5L0,-3.0L2.5,-0.5"/>
                </g>
        </g>
        <svg viewBox="0 0 15 15" width="100%" height="30px" preserveAspectRatio="xMaxYMin meet">
         <g id="arrow_out" transform="scale(0.3 0.3)">
          <a xlink:href="address_8h__dep__incl_org.svg" target="_base">
           <rect id="button" ry="5" rx="5" y="6" x="6" height="38" width="38"
                fill="#f2f5e9" fill-opacity="0.5" stroke="#606060" stroke-width="1.0"/>
           <path id="arrow"
             d="M 11.500037,31.436501 C 11.940474,20.09759 22.043105,11.32322 32.158766,21.979434 L 37.068811,17.246167 C 37.068811,17.246167 37.088388,32 37.088388,32 L 22.160133,31.978069 C 22.160133,31.978069 26.997745,27.140456 26.997745,27.140456 C 18.528582,18.264221 13.291696,25.230495 11.500037,31.436501 z"
             style="fill:#404040;"/>
          </a>
         </g>
        </svg>
</svg>
