<?xml version="1.0" encoding="UTF-8" standalone="no"?>
<!DOCTYPE svg PUBLIC "-//W3C//DTD SVG 1.1//EN"
 "http://www.w3.org/Graphics/SVG/1.1/DTD/svg11.dtd">
<!-- Generated by graphviz version 2.38.0 (20140413.2041)
 -->
<!-- Title: C:/projects/ndt/sources/src/address.cpp Pages: 1 -->
<svg width="977pt" height="319pt"
 viewBox="0.00 0.00 976.50 319.00" xmlns="http://www.w3.org/2000/svg" xmlns:xlink="http://www.w3.org/1999/xlink">
<g id="graph0" class="graph" transform="scale(1 1) rotate(0) translate(4 315)">
<title>C:/projects/ndt/sources/src/address.cpp</title>
<polygon fill="white" stroke="none" points="-4,4 -4,-315 972.5,-315 972.5,4 -4,4"/>
<!-- Node1 -->
<g id="node1" class="node"><title>Node1</title>
<g id="a_node1"><a xlink:title=" ">
<polygon fill="#bfbfbf" stroke="black" points="542.5,-280.5 542.5,-310.5 660.5,-310.5 660.5,-280.5 542.5,-280.5"/>
<text text-anchor="start" x="550.5" y="-298.5" font-family="Helvetica,sans-Serif" font-size="10.00">C:/projects/ndt/sources</text>
<text text-anchor="middle" x="601.5" y="-287.5" font-family="Helvetica,sans-Serif" font-size="10.00">/src/address.cpp</text>
</a>
</g>
</g>
<!-- Node2 -->
<g id="node2" class="node"><title>Node2</title>
<g id="a_node2"><a xlink:href="address_8h.html" target="_top" xlink:title=" ">
<polygon fill="white" stroke="black" points="508.5,-224.5 508.5,-243.5 584.5,-243.5 584.5,-224.5 508.5,-224.5"/>
<text text-anchor="middle" x="546.5" y="-231.5" font-family="Helvetica,sans-Serif" font-size="10.00">ndt/address.h</text>
</a>
</g>
</g>
<!-- Node1&#45;&gt;Node2 -->
<g id="edge1" class="edge"><title>Node1&#45;&gt;Node2</title>
<path fill="none" stroke="midnightblue" d="M588.466,-280.399C580.309,-271.575 569.778,-260.183 561.306,-251.018"/>
<polygon fill="midnightblue" stroke="midnightblue" points="563.861,-248.625 554.503,-243.658 558.721,-253.377 563.861,-248.625"/>
</g>
<!-- Node27 -->
<g id="node27" class="node"><title>Node27</title>
<g id="a_node27"><a xlink:title=" ">
<polygon fill="white" stroke="#bfbfbf" points="634.5,-112.5 634.5,-131.5 680.5,-131.5 680.5,-112.5 634.5,-112.5"/>
<text text-anchor="middle" x="657.5" y="-119.5" font-family="Helvetica,sans-Serif" font-size="10.00">cstring</text>
</a>
</g>
</g>
<!-- Node1&#45;&gt;Node27 -->
<g id="edge36" class="edge"><title>Node1&#45;&gt;Node27</title>
<path fill="none" stroke="midnightblue" d="M606.633,-280.449C613.993,-260.145 627.832,-221.373 638.5,-188 643.478,-172.427 648.654,-154.592 652.344,-141.549"/>
<polygon fill="midnightblue" stroke="midnightblue" points="655.727,-142.448 655.058,-131.874 648.987,-140.557 655.727,-142.448"/>
</g>
<!-- Node3 -->
<g id="node3" class="node"><title>Node3</title>
<g id="a_node3"><a xlink:title=" ">
<polygon fill="white" stroke="#bfbfbf" points="526,-168.5 526,-187.5 567,-187.5 567,-168.5 526,-168.5"/>
<text text-anchor="middle" x="546.5" y="-175.5" font-family="Helvetica,sans-Serif" font-size="10.00">string</text>
</a>
</g>
</g>
<!-- Node2&#45;&gt;Node3 -->
<g id="edge2" class="edge"><title>Node2&#45;&gt;Node3</title>
<path fill="none" stroke="midnightblue" d="M546.5,-224.083C546.5,-217.006 546.5,-206.861 546.5,-197.986"/>
<polygon fill="midnightblue" stroke="midnightblue" points="550,-197.751 546.5,-187.751 543,-197.751 550,-197.751"/>
</g>
<!-- Node4 -->
<g id="node4" class="node"><title>Node4</title>
<g id="a_node4"><a xlink:title=" ">
<polygon fill="white" stroke="#bfbfbf" points="585.5,-168.5 585.5,-187.5 629.5,-187.5 629.5,-168.5 585.5,-168.5"/>
<text text-anchor="middle" x="607.5" y="-175.5" font-family="Helvetica,sans-Serif" font-size="10.00">variant</text>
</a>
</g>
</g>
<!-- Node2&#45;&gt;Node4 -->
<g id="edge3" class="edge"><title>Node2&#45;&gt;Node4</title>
<path fill="none" stroke="midnightblue" d="M556.301,-224.324C565.318,-216.341 578.906,-204.313 589.818,-194.653"/>
<polygon fill="midnightblue" stroke="midnightblue" points="592.353,-197.083 597.521,-187.834 587.713,-191.842 592.353,-197.083"/>
</g>
<!-- Node5 -->
<g id="node5" class="node"><title>Node5</title>
<g id="a_node5"><a xlink:href="buffer_8h.html" target="_top" xlink:title=" ">
<polygon fill="white" stroke="black" points="783.5,-168.5 783.5,-187.5 831.5,-187.5 831.5,-168.5 783.5,-168.5"/>
<text text-anchor="middle" x="807.5" y="-175.5" font-family="Helvetica,sans-Serif" font-size="10.00">buffer.h</text>
</a>
</g>
</g>
<!-- Node2&#45;&gt;Node5 -->
<g id="edge4" class="edge"><title>Node2&#45;&gt;Node5</title>
<path fill="none" stroke="midnightblue" d="M584.731,-225.09C635.518,-214.583 724.476,-196.177 773.198,-186.097"/>
<polygon fill="midnightblue" stroke="midnightblue" points="774.159,-189.472 783.243,-184.019 772.741,-182.617 774.159,-189.472"/>
</g>
<!-- Node19 -->
<g id="node19" class="node"><title>Node19</title>
<g id="a_node19"><a xlink:href="exception_8h.html" target="_top" xlink:title=" ">
<polygon fill="white" stroke="black" points="242,-168.5 242,-187.5 309,-187.5 309,-168.5 242,-168.5"/>
<text text-anchor="middle" x="275.5" y="-175.5" font-family="Helvetica,sans-Serif" font-size="10.00">exception.h</text>
</a>
</g>
</g>
<!-- Node2&#45;&gt;Node19 -->
<g id="edge19" class="edge"><title>Node2&#45;&gt;Node19</title>
<path fill="none" stroke="midnightblue" d="M508.247,-225.378C458.458,-215.457 371.646,-198.158 319.28,-187.724"/>
<polygon fill="midnightblue" stroke="midnightblue" points="319.778,-184.254 309.287,-185.733 318.41,-191.119 319.778,-184.254"/>
</g>
<!-- Node21 -->
<g id="node21" class="node"><title>Node21</title>
<g id="a_node21"><a xlink:href="sys__socket__ops_8h.html" target="_top" xlink:title=" ">
<polygon fill="white" stroke="black" points="87.5,-168.5 87.5,-187.5 183.5,-187.5 183.5,-168.5 87.5,-168.5"/>
<text text-anchor="middle" x="135.5" y="-175.5" font-family="Helvetica,sans-Serif" font-size="10.00">sys_socket_ops.h</text>
</a>
</g>
</g>
<!-- Node2&#45;&gt;Node21 -->
<g id="edge22" class="edge"><title>Node2&#45;&gt;Node21</title>
<path fill="none" stroke="midnightblue" d="M508.203,-227.968C435.914,-218.47 278.97,-197.85 193.616,-186.636"/>
<polygon fill="midnightblue" stroke="midnightblue" points="193.943,-183.149 183.572,-185.316 193.031,-190.089 193.943,-183.149"/>
</g>
<!-- Node24 -->
<g id="node24" class="node"><title>Node24</title>
<g id="a_node24"><a xlink:href="utils_8h.html" target="_top" xlink:title=" ">
<polygon fill="white" stroke="black" points="465,-168.5 465,-187.5 508,-187.5 508,-168.5 465,-168.5"/>
<text text-anchor="middle" x="486.5" y="-175.5" font-family="Helvetica,sans-Serif" font-size="10.00">utils.h</text>
</a>
</g>
</g>
<!-- Node2&#45;&gt;Node24 -->
<g id="edge28" class="edge"><title>Node2&#45;&gt;Node24</title>
<path fill="none" stroke="midnightblue" d="M536.86,-224.324C527.99,-216.341 514.625,-204.313 503.892,-194.653"/>
<polygon fill="midnightblue" stroke="midnightblue" points="506.09,-191.922 496.315,-187.834 501.407,-197.125 506.09,-191.922"/>
</g>
<!-- Node6 -->
<g id="node6" class="node"><title>Node6</title>
<g id="a_node6"><a xlink:title=" ">
<polygon fill="white" stroke="#bfbfbf" points="855,-112.5 855,-131.5 904,-131.5 904,-112.5 855,-112.5"/>
<text text-anchor="middle" x="879.5" y="-119.5" font-family="Helvetica,sans-Serif" font-size="10.00">cassert</text>
</a>
</g>
</g>
<!-- Node5&#45;&gt;Node6 -->
<g id="edge5" class="edge"><title>Node5&#45;&gt;Node6</title>
<path fill="none" stroke="midnightblue" d="M819.068,-168.324C829.92,-160.185 846.381,-147.839 859.383,-138.087"/>
<polygon fill="midnightblue" stroke="midnightblue" points="861.821,-140.634 867.721,-131.834 857.621,-135.034 861.821,-140.634"/>
</g>
<!-- Node7 -->
<g id="node7" class="node"><title>Node7</title>
<g id="a_node7"><a xlink:title=" ">
<polygon fill="white" stroke="#bfbfbf" points="721.5,-0.5 721.5,-19.5 769.5,-19.5 769.5,-0.5 721.5,-0.5"/>
<text text-anchor="middle" x="745.5" y="-7.5" font-family="Helvetica,sans-Serif" font-size="10.00">cstddef</text>
</a>
</g>
</g>
<!-- Node5&#45;&gt;Node7 -->
<g id="edge6" class="edge"><title>Node5&#45;&gt;Node7</title>
<path fill="none" stroke="midnightblue" d="M806.111,-168.428C803.94,-155.84 799.278,-131.714 792.5,-112 782.111,-81.7853 765.558,-48.5064 755.123,-28.7008"/>
<polygon fill="midnightblue" stroke="midnightblue" points="758.09,-26.8277 750.288,-19.6594 751.917,-30.1283 758.09,-26.8277"/>
</g>
<!-- Node8 -->
<g id="node8" class="node"><title>Node8</title>
<g id="a_node8"><a xlink:title=" ">
<polygon fill="white" stroke="#bfbfbf" points="922.5,-112.5 922.5,-131.5 968.5,-131.5 968.5,-112.5 922.5,-112.5"/>
<text text-anchor="middle" x="945.5" y="-119.5" font-family="Helvetica,sans-Serif" font-size="10.00">cstdint</text>
</a>
</g>
</g>
<!-- Node5&#45;&gt;Node8 -->
<g id="edge7" class="edge"><title>Node5&#45;&gt;Node8</title>
<path fill="none" stroke="midnightblue" d="M829.367,-168.444C852.279,-159.478 888.475,-145.314 914.366,-135.183"/>
<polygon fill="midnightblue" stroke="midnightblue" points="915.699,-138.42 923.736,-131.516 913.148,-131.901 915.699,-138.42"/>
</g>
<!-- Node9 -->
<g id="node9" class="node"><title>Node9</title>
<g id="a_node9"><a xlink:title=" ">
<polygon fill="white" stroke="#bfbfbf" points="698.5,-112.5 698.5,-131.5 760.5,-131.5 760.5,-112.5 698.5,-112.5"/>
<text text-anchor="middle" x="729.5" y="-119.5" font-family="Helvetica,sans-Serif" font-size="10.00">type_traits</text>
</a>
</g>
</g>
<!-- Node5&#45;&gt;Node9 -->
<g id="edge8" class="edge"><title>Node5&#45;&gt;Node9</title>
<path fill="none" stroke="midnightblue" d="M794.968,-168.324C782.914,-159.979 764.473,-147.212 750.231,-137.352"/>
<polygon fill="midnightblue" stroke="midnightblue" points="752.215,-134.469 742.001,-131.655 748.231,-140.224 752.215,-134.469"/>
</g>
<!-- Node10 -->
<g id="node10" class="node"><title>Node10</title>
<g id="a_node10"><a xlink:href="common_8h.html" target="_top" xlink:title="Header with typedefs to make type designation platform independent.">
<polygon fill="white" stroke="black" points="260.5,-56.5 260.5,-75.5 322.5,-75.5 322.5,-56.5 260.5,-56.5"/>
<text text-anchor="middle" x="291.5" y="-63.5" font-family="Helvetica,sans-Serif" font-size="10.00">common.h</text>
</a>
</g>
</g>
<!-- Node5&#45;&gt;Node10 -->
<g id="edge9" class="edge"><title>Node5&#45;&gt;Node10</title>
<path fill="none" stroke="midnightblue" d="M805.266,-168.475C801,-154.076 790.218,-125.216 769.5,-112 733.079,-88.7672 442.174,-73.6519 332.84,-68.7429"/>
<polygon fill="midnightblue" stroke="midnightblue" points="332.986,-65.246 322.841,-68.2997 332.676,-72.2391 332.986,-65.246"/>
</g>
<!-- Node10&#45;&gt;Node7 -->
<g id="edge18" class="edge"><title>Node10&#45;&gt;Node7</title>
<path fill="none" stroke="midnightblue" d="M322.705,-61.2884C404.74,-51.531 625.994,-25.2144 711.305,-15.0672"/>
<polygon fill="midnightblue" stroke="midnightblue" points="711.967,-18.5132 721.484,-13.8565 711.14,-11.5622 711.967,-18.5132"/>
</g>
<!-- Node11 -->
<g id="node11" class="node"><title>Node11</title>
<g id="a_node11"><a xlink:title=" ">
<polygon fill="white" stroke="#bfbfbf" points="458.5,-0.5 458.5,-19.5 520.5,-19.5 520.5,-0.5 458.5,-0.5"/>
<text text-anchor="middle" x="489.5" y="-7.5" font-family="Helvetica,sans-Serif" font-size="10.00">arpa/inet.h</text>
</a>
</g>
</g>
<!-- Node10&#45;&gt;Node11 -->
<g id="edge10" class="edge"><title>Node10&#45;&gt;Node11</title>
<path fill="none" stroke="midnightblue" d="M322.874,-56.4435C356.763,-47.2011 410.903,-32.4356 448.224,-22.2572"/>
<polygon fill="midnightblue" stroke="midnightblue" points="449.546,-25.5243 458.273,-19.5164 447.705,-18.771 449.546,-25.5243"/>
</g>
<!-- Node12 -->
<g id="node12" class="node"><title>Node12</title>
<g id="a_node12"><a xlink:title=" ">
<polygon fill="white" stroke="#bfbfbf" points="539,-0.5 539,-19.5 586,-19.5 586,-0.5 539,-0.5"/>
<text text-anchor="middle" x="562.5" y="-7.5" font-family="Helvetica,sans-Serif" font-size="10.00">errno.h</text>
</a>
</g>
</g>
<!-- Node10&#45;&gt;Node12 -->
<g id="edge11" class="edge"><title>Node10&#45;&gt;Node12</title>
<path fill="none" stroke="midnightblue" d="M322.852,-59.8886C366.656,-52.5704 448.846,-38.1978 528.553,-20.0627"/>
<polygon fill="midnightblue" stroke="midnightblue" points="529.802,-23.367 538.764,-17.7154 528.234,-16.5449 529.802,-23.367"/>
</g>
<!-- Node13 -->
<g id="node13" class="node"><title>Node13</title>
<g id="a_node13"><a xlink:title=" ">
<polygon fill="white" stroke="#bfbfbf" points="0,-0.5 0,-19.5 43,-19.5 43,-0.5 0,-0.5"/>
<text text-anchor="middle" x="21.5" y="-7.5" font-family="Helvetica,sans-Serif" font-size="10.00">fcntl.h</text>
</a>
</g>
</g>
<!-- Node10&#45;&gt;Node13 -->
<g id="edge12" class="edge"><title>Node10&#45;&gt;Node13</title>
<path fill="none" stroke="midnightblue" d="M260.207,-60.2212C216.066,-53.245 132.839,-39.2315 53.2447,-20.2301"/>
<polygon fill="midnightblue" stroke="midnightblue" points="53.5979,-16.7146 43.0552,-17.7648 51.9517,-23.5183 53.5979,-16.7146"/>
</g>
<!-- Node14 -->
<g id="node14" class="node"><title>Node14</title>
<g id="a_node14"><a xlink:title=" ">
<polygon fill="white" stroke="#bfbfbf" points="61,-0.5 61,-19.5 110,-19.5 110,-0.5 61,-0.5"/>
<text text-anchor="middle" x="85.5" y="-7.5" font-family="Helvetica,sans-Serif" font-size="10.00">netdb.h</text>
</a>
</g>
</g>
<!-- Node10&#45;&gt;Node14 -->
<g id="edge13" class="edge"><title>Node10&#45;&gt;Node14</title>
<path fill="none" stroke="midnightblue" d="M260.218,-56.9812C227.509,-48.5706 174.428,-34.8491 120.144,-20.4189"/>
<polygon fill="midnightblue" stroke="midnightblue" points="120.922,-17.004 110.358,-17.813 119.12,-23.7683 120.922,-17.004"/>
</g>
<!-- Node15 -->
<g id="node15" class="node"><title>Node15</title>
<g id="a_node15"><a xlink:title=" ">
<polygon fill="white" stroke="#bfbfbf" points="128,-0.5 128,-19.5 193,-19.5 193,-0.5 128,-0.5"/>
<text text-anchor="middle" x="160.5" y="-7.5" font-family="Helvetica,sans-Serif" font-size="10.00">netinet/in.h</text>
</a>
</g>
</g>
<!-- Node10&#45;&gt;Node15 -->
<g id="edge14" class="edge"><title>Node10&#45;&gt;Node15</title>
<path fill="none" stroke="midnightblue" d="M270.743,-56.4435C249.184,-47.5566 215.237,-33.5632 190.706,-23.4514"/>
<polygon fill="midnightblue" stroke="midnightblue" points="191.739,-20.0917 181.16,-19.5164 189.072,-26.5634 191.739,-20.0917"/>
</g>
<!-- Node16 -->
<g id="node16" class="node"><title>Node16</title>
<g id="a_node16"><a xlink:title=" ">
<polygon fill="white" stroke="#bfbfbf" points="211,-0.5 211,-19.5 284,-19.5 284,-0.5 211,-0.5"/>
<text text-anchor="middle" x="247.5" y="-7.5" font-family="Helvetica,sans-Serif" font-size="10.00">sys/socket.h</text>
</a>
</g>
</g>
<!-- Node10&#45;&gt;Node16 -->
<g id="edge15" class="edge"><title>Node10&#45;&gt;Node16</title>
<path fill="none" stroke="midnightblue" d="M284.234,-56.083C277.955,-48.3768 268.712,-37.0333 261.069,-27.6531"/>
<polygon fill="midnightblue" stroke="midnightblue" points="263.661,-25.2926 254.631,-19.7511 258.234,-29.7143 263.661,-25.2926"/>
</g>
<!-- Node17 -->
<g id="node17" class="node"><title>Node17</title>
<g id="a_node17"><a xlink:title=" ">
<polygon fill="white" stroke="#bfbfbf" points="302.5,-0.5 302.5,-19.5 370.5,-19.5 370.5,-0.5 302.5,-0.5"/>
<text text-anchor="middle" x="336.5" y="-7.5" font-family="Helvetica,sans-Serif" font-size="10.00">sys/types.h</text>
</a>
</g>
</g>
<!-- Node10&#45;&gt;Node17 -->
<g id="edge16" class="edge"><title>Node10&#45;&gt;Node17</title>
<path fill="none" stroke="midnightblue" d="M298.931,-56.083C305.353,-48.3768 314.806,-37.0333 322.622,-27.6531"/>
<polygon fill="midnightblue" stroke="midnightblue" points="325.494,-29.674 329.207,-19.7511 320.117,-25.1927 325.494,-29.674"/>
</g>
<!-- Node18 -->
<g id="node18" class="node"><title>Node18</title>
<g id="a_node18"><a xlink:title=" ">
<polygon fill="white" stroke="#bfbfbf" points="389,-0.5 389,-19.5 440,-19.5 440,-0.5 389,-0.5"/>
<text text-anchor="middle" x="414.5" y="-7.5" font-family="Helvetica,sans-Serif" font-size="10.00">unistd.h</text>
</a>
</g>
</g>
<!-- Node10&#45;&gt;Node18 -->
<g id="edge17" class="edge"><title>Node10&#45;&gt;Node18</title>
<path fill="none" stroke="midnightblue" d="M310.99,-56.4435C331.142,-47.5961 362.823,-33.6875 385.831,-23.5865"/>
<polygon fill="midnightblue" stroke="midnightblue" points="387.352,-26.7411 395.101,-19.5164 384.538,-20.3316 387.352,-26.7411"/>
</g>
<!-- Node19&#45;&gt;Node10 -->
<g id="edge21" class="edge"><title>Node19&#45;&gt;Node10</title>
<path fill="none" stroke="midnightblue" d="M261.887,-168.479C244.63,-156.527 218.386,-133.8 229.5,-112 236.5,-98.2698 249.866,-87.7496 262.4,-80.3465"/>
<polygon fill="midnightblue" stroke="midnightblue" points="264.174,-83.366 271.277,-75.5055 260.822,-77.2204 264.174,-83.366"/>
</g>
<!-- Node20 -->
<g id="node20" class="node"><title>Node20</title>
<g id="a_node20"><a xlink:title=" ">
<polygon fill="white" stroke="#bfbfbf" points="238.5,-112.5 238.5,-131.5 312.5,-131.5 312.5,-112.5 238.5,-112.5"/>
<text text-anchor="middle" x="275.5" y="-119.5" font-family="Helvetica,sans-Serif" font-size="10.00">system_error</text>
</a>
</g>
</g>
<!-- Node19&#45;&gt;Node20 -->
<g id="edge20" class="edge"><title>Node19&#45;&gt;Node20</title>
<path fill="none" stroke="midnightblue" d="M275.5,-168.083C275.5,-161.006 275.5,-150.861 275.5,-141.986"/>
<polygon fill="midnightblue" stroke="midnightblue" points="279,-141.751 275.5,-131.751 272,-141.751 279,-141.751"/>
</g>
<!-- Node21&#45;&gt;Node10 -->
<g id="edge23" class="edge"><title>Node21&#45;&gt;Node10</title>
<path fill="none" stroke="midnightblue" d="M146.755,-168.397C163.36,-155.77 195.485,-131.596 223.5,-112 238.674,-101.385 256.096,-89.8688 269.507,-81.1436"/>
<polygon fill="midnightblue" stroke="midnightblue" points="271.583,-83.9688 278.073,-75.5944 267.777,-78.0938 271.583,-83.9688"/>
</g>
<!-- Node22 -->
<g id="node22" class="node"><title>Node22</title>
<g id="a_node22"><a xlink:href="sys__error__code_8h.html" target="_top" xlink:title=" ">
<polygon fill="white" stroke="black" points="52.5,-112.5 52.5,-131.5 144.5,-131.5 144.5,-112.5 52.5,-112.5"/>
<text text-anchor="middle" x="98.5" y="-119.5" font-family="Helvetica,sans-Serif" font-size="10.00">sys_error_code.h</text>
</a>
</g>
</g>
<!-- Node21&#45;&gt;Node22 -->
<g id="edge24" class="edge"><title>Node21&#45;&gt;Node22</title>
<path fill="none" stroke="midnightblue" d="M129.39,-168.083C124.218,-160.534 116.654,-149.495 110.306,-140.23"/>
<polygon fill="midnightblue" stroke="midnightblue" points="113.036,-138.022 104.496,-131.751 107.261,-141.979 113.036,-138.022"/>
</g>
<!-- Node23 -->
<g id="node23" class="node"><title>Node23</title>
<g id="a_node23"><a xlink:href="useful__base__types_8h.html" target="_top" xlink:title=" ">
<polygon fill="white" stroke="black" points="8.5,-56.5 8.5,-75.5 114.5,-75.5 114.5,-56.5 8.5,-56.5"/>
<text text-anchor="middle" x="61.5" y="-63.5" font-family="Helvetica,sans-Serif" font-size="10.00">useful_base_types.h</text>
</a>
</g>
</g>
<!-- Node21&#45;&gt;Node23 -->
<g id="edge27" class="edge"><title>Node21&#45;&gt;Node23</title>
<path fill="none" stroke="midnightblue" d="M96.6549,-168.364C77.1228,-161.847 55.173,-150.704 43.5,-132 34.3326,-117.311 41.762,-97.9033 49.6732,-84.1299"/>
<polygon fill="midnightblue" stroke="midnightblue" points="52.6637,-85.9492 55.0291,-75.6218 46.7397,-82.22 52.6637,-85.9492"/>
</g>
<!-- Node22&#45;&gt;Node10 -->
<g id="edge25" class="edge"><title>Node22&#45;&gt;Node10</title>
<path fill="none" stroke="midnightblue" d="M129.081,-112.444C162.115,-103.201 214.888,-88.4356 251.266,-78.2572"/>
<polygon fill="midnightblue" stroke="midnightblue" points="252.375,-81.5815 261.062,-75.5164 250.488,-74.8404 252.375,-81.5815"/>
</g>
<!-- Node22&#45;&gt;Node23 -->
<g id="edge26" class="edge"><title>Node22&#45;&gt;Node23</title>
<path fill="none" stroke="midnightblue" d="M92.3902,-112.083C87.2178,-104.534 79.6539,-93.4948 73.3056,-84.2298"/>
<polygon fill="midnightblue" stroke="midnightblue" points="76.0357,-82.0221 67.4961,-75.7511 70.2612,-85.9787 76.0357,-82.0221"/>
</g>
<!-- Node24&#45;&gt;Node9 -->
<g id="edge33" class="edge"><title>Node24&#45;&gt;Node9</title>
<path fill="none" stroke="midnightblue" d="M508.123,-170.494C511.259,-169.617 514.455,-168.76 517.5,-168 590.171,-149.874 611.451,-148.647 687.941,-132.302"/>
<polygon fill="midnightblue" stroke="midnightblue" points="689.029,-135.648 698.067,-130.119 687.554,-128.805 689.029,-135.648"/>
</g>
<!-- Node24&#45;&gt;Node10 -->
<g id="edge35" class="edge"><title>Node24&#45;&gt;Node10</title>
<path fill="none" stroke="midnightblue" d="M508.15,-170.418C535.015,-161.763 578.406,-146.008 587.5,-132 592.34,-124.545 593.294,-118.741 587.5,-112 555.167,-74.3804 406.512,-67.8425 332.958,-66.9509"/>
<polygon fill="midnightblue" stroke="midnightblue" points="332.705,-63.4486 322.673,-66.8573 332.641,-70.4483 332.705,-63.4486"/>
</g>
<!-- Node24&#45;&gt;Node20 -->
<g id="edge32" class="edge"><title>Node24&#45;&gt;Node20</title>
<path fill="none" stroke="midnightblue" d="M464.714,-171.424C430.427,-162.65 363.216,-145.449 318.83,-134.089"/>
<polygon fill="midnightblue" stroke="midnightblue" points="319.455,-130.636 308.899,-131.548 317.719,-137.418 319.455,-130.636"/>
</g>
<!-- Node25 -->
<g id="node25" class="node"><title>Node25</title>
<g id="a_node25"><a xlink:title=" ">
<polygon fill="white" stroke="#bfbfbf" points="432.5,-112.5 432.5,-131.5 492.5,-131.5 492.5,-112.5 432.5,-112.5"/>
<text text-anchor="middle" x="462.5" y="-119.5" font-family="Helvetica,sans-Serif" font-size="10.00">fmt/core.h</text>
</a>
</g>
</g>
<!-- Node24&#45;&gt;Node25 -->
<g id="edge29" class="edge"><title>Node24&#45;&gt;Node25</title>
<path fill="none" stroke="midnightblue" d="M482.537,-168.083C479.287,-160.77 474.581,-150.181 470.546,-141.103"/>
<polygon fill="midnightblue" stroke="midnightblue" points="473.649,-139.468 466.389,-131.751 467.252,-142.311 473.649,-139.468"/>
</g>
<!-- Node26 -->
<g id="node26" class="node"><title>Node26</title>
<g id="a_node26"><a xlink:title=" ">
<polygon fill="white" stroke="#bfbfbf" points="510.5,-112.5 510.5,-131.5 578.5,-131.5 578.5,-112.5 510.5,-112.5"/>
<text text-anchor="middle" x="544.5" y="-119.5" font-family="Helvetica,sans-Serif" font-size="10.00">fmt/format.h</text>
</a>
</g>
</g>
<!-- Node24&#45;&gt;Node26 -->
<g id="edge30" class="edge"><title>Node24&#45;&gt;Node26</title>
<path fill="none" stroke="midnightblue" d="M495.819,-168.324C504.393,-160.341 517.312,-148.313 527.688,-138.653"/>
<polygon fill="midnightblue" stroke="midnightblue" points="530.078,-141.21 535.012,-131.834 525.308,-136.086 530.078,-141.21"/>
</g>
<!-- Node24&#45;&gt;Node27 -->
<g id="edge31" class="edge"><title>Node24&#45;&gt;Node27</title>
<path fill="none" stroke="midnightblue" d="M508.157,-170.161C537.604,-160.862 590.523,-144.15 624.813,-133.322"/>
<polygon fill="midnightblue" stroke="midnightblue" points="625.901,-136.649 634.383,-130.3 623.793,-129.974 625.901,-136.649"/>
</g>
<!-- Node28 -->
<g id="node28" class="node"><title>Node28</title>
<g id="a_node28"><a xlink:title=" ">
<polygon fill="white" stroke="#bfbfbf" points="331,-112.5 331,-131.5 414,-131.5 414,-112.5 331,-112.5"/>
<text text-anchor="middle" x="372.5" y="-119.5" font-family="Helvetica,sans-Serif" font-size="10.00">unordered_map</text>
</a>
</g>
</g>
<!-- Node24&#45;&gt;Node28 -->
<g id="edge34" class="edge"><title>Node24&#45;&gt;Node28</title>
<path fill="none" stroke="midnightblue" d="M468.436,-168.444C449.925,-159.675 420.919,-145.935 399.645,-135.858"/>
<polygon fill="midnightblue" stroke="midnightblue" points="401.015,-132.634 390.479,-131.516 398.018,-138.96 401.015,-132.634"/>
</g>
</g>
</svg>
