<?xml version="1.0" encoding="UTF-8" standalone="no"?>
<!DOCTYPE svg PUBLIC "-//W3C//DTD SVG 1.1//EN"
 "http://www.w3.org/Graphics/SVG/1.1/DTD/svg11.dtd">
<!-- Generated by graphviz version 2.38.0 (20140413.2041)
 -->
<!-- Title: C:/projects/ndt/sources/include/ndt/address.h Pages: 1 -->
<svg width="1269pt" height="263pt"
 viewBox="0.00 0.00 1268.50 263.00" xmlns="http://www.w3.org/2000/svg" xmlns:xlink="http://www.w3.org/1999/xlink">
<g id="graph0" class="graph" transform="scale(1 1) rotate(0) translate(4 259)">
<title>C:/projects/ndt/sources/include/ndt/address.h</title>
<polygon fill="white" stroke="none" points="-4,4 -4,-259 1264.5,-259 1264.5,4 -4,4"/>
<!-- Node1 -->
<g id="node1" class="node"><title>Node1</title>
<g id="a_node1"><a xlink:title=" ">
<polygon fill="#bfbfbf" stroke="black" points="601,-224.5 601,-254.5 719,-254.5 719,-224.5 601,-224.5"/>
<text text-anchor="start" x="609" y="-242.5" font-family="Helvetica,sans-Serif" font-size="10.00">C:/projects/ndt/sources</text>
<text text-anchor="middle" x="660" y="-231.5" font-family="Helvetica,sans-Serif" font-size="10.00">/include/ndt/address.h</text>
</a>
</g>
</g>
<!-- Node2 -->
<g id="node2" class="node"><title>Node2</title>
<g id="a_node2"><a xlink:title=" ">
<polygon fill="white" stroke="#bfbfbf" points="441.5,-168.5 441.5,-187.5 482.5,-187.5 482.5,-168.5 441.5,-168.5"/>
<text text-anchor="middle" x="462" y="-175.5" font-family="Helvetica,sans-Serif" font-size="10.00">string</text>
</a>
</g>
</g>
<!-- Node1&#45;&gt;Node2 -->
<g id="edge1" class="edge"><title>Node1&#45;&gt;Node2</title>
<path fill="none" stroke="midnightblue" d="M613.327,-224.475C575.981,-213.252 524.694,-197.84 492.454,-188.152"/>
<polygon fill="midnightblue" stroke="midnightblue" points="493.282,-184.746 482.698,-185.22 491.268,-191.45 493.282,-184.746"/>
</g>
<!-- Node3 -->
<g id="node3" class="node"><title>Node3</title>
<g id="a_node3"><a xlink:title=" ">
<polygon fill="white" stroke="#bfbfbf" points="501,-168.5 501,-187.5 545,-187.5 545,-168.5 501,-168.5"/>
<text text-anchor="middle" x="523" y="-175.5" font-family="Helvetica,sans-Serif" font-size="10.00">variant</text>
</a>
</g>
</g>
<!-- Node1&#45;&gt;Node3 -->
<g id="edge2" class="edge"><title>Node1&#45;&gt;Node3</title>
<path fill="none" stroke="midnightblue" d="M627.533,-224.399C604.649,-214.461 574.266,-201.265 552.156,-191.662"/>
<polygon fill="midnightblue" stroke="midnightblue" points="553.501,-188.431 542.935,-187.658 550.713,-194.852 553.501,-188.431"/>
</g>
<!-- Node4 -->
<g id="node4" class="node"><title>Node4</title>
<g id="a_node4"><a xlink:href="bin__rw_8h.html" target="_top" xlink:title=" ">
<polygon fill="white" stroke="black" points="601.5,-168.5 601.5,-187.5 654.5,-187.5 654.5,-168.5 601.5,-168.5"/>
<text text-anchor="middle" x="628" y="-175.5" font-family="Helvetica,sans-Serif" font-size="10.00">bin_rw.h</text>
</a>
</g>
</g>
<!-- Node1&#45;&gt;Node4 -->
<g id="edge3" class="edge"><title>Node1&#45;&gt;Node4</title>
<path fill="none" stroke="midnightblue" d="M652.416,-224.399C647.958,-216.11 642.281,-205.554 637.523,-196.708"/>
<polygon fill="midnightblue" stroke="midnightblue" points="640.475,-194.807 632.656,-187.658 634.31,-198.123 640.475,-194.807"/>
</g>
<!-- Node8 -->
<g id="node8" class="node"><title>Node8</title>
<g id="a_node8"><a xlink:href="buffer_8h.html" target="_top" xlink:title=" ">
<polygon fill="white" stroke="black" points="674,-112.5 674,-131.5 722,-131.5 722,-112.5 674,-112.5"/>
<text text-anchor="middle" x="698" y="-119.5" font-family="Helvetica,sans-Serif" font-size="10.00">buffer.h</text>
</a>
</g>
</g>
<!-- Node1&#45;&gt;Node8 -->
<g id="edge39" class="edge"><title>Node1&#45;&gt;Node8</title>
<path fill="none" stroke="midnightblue" d="M664.66,-224.337C671.537,-203.433 684.409,-164.31 691.989,-141.27"/>
<polygon fill="midnightblue" stroke="midnightblue" points="695.347,-142.262 695.148,-131.669 688.698,-140.075 695.347,-142.262"/>
</g>
<!-- Node25 -->
<g id="node25" class="node"><title>Node25</title>
<g id="a_node25"><a xlink:href="utils_8h.html" target="_top" xlink:title=" ">
<polygon fill="white" stroke="black" points="387.5,-112.5 387.5,-131.5 430.5,-131.5 430.5,-112.5 387.5,-112.5"/>
<text text-anchor="middle" x="409" y="-119.5" font-family="Helvetica,sans-Serif" font-size="10.00">utils.h</text>
</a>
</g>
</g>
<!-- Node1&#45;&gt;Node25 -->
<g id="edge50" class="edge"><title>Node1&#45;&gt;Node25</title>
<path fill="none" stroke="midnightblue" d="M642.193,-224.329C621.866,-208.722 587.132,-183.757 554,-168 516.738,-150.279 470.827,-137.404 440.779,-130.075"/>
<polygon fill="midnightblue" stroke="midnightblue" points="441.391,-126.622 430.852,-127.715 439.771,-133.433 441.391,-126.622"/>
</g>
<!-- Node31 -->
<g id="node31" class="node"><title>Node31</title>
<g id="a_node31"><a xlink:href="exception_8h.html" target="_top" xlink:title=" ">
<polygon fill="white" stroke="black" points="747.5,-112.5 747.5,-131.5 814.5,-131.5 814.5,-112.5 747.5,-112.5"/>
<text text-anchor="middle" x="781" y="-119.5" font-family="Helvetica,sans-Serif" font-size="10.00">exception.h</text>
</a>
</g>
</g>
<!-- Node1&#45;&gt;Node31 -->
<g id="edge40" class="edge"><title>Node1&#45;&gt;Node31</title>
<path fill="none" stroke="midnightblue" d="M674.837,-224.337C697.53,-202.676 740.716,-161.453 764.414,-138.832"/>
<polygon fill="midnightblue" stroke="midnightblue" points="767.101,-141.106 771.918,-131.669 762.267,-136.042 767.101,-141.106"/>
</g>
<!-- Node32 -->
<g id="node32" class="node"><title>Node32</title>
<g id="a_node32"><a xlink:href="sys__socket__ops_8h.html" target="_top" xlink:title=" ">
<polygon fill="white" stroke="black" points="803,-168.5 803,-187.5 899,-187.5 899,-168.5 803,-168.5"/>
<text text-anchor="middle" x="851" y="-175.5" font-family="Helvetica,sans-Serif" font-size="10.00">sys_socket_ops.h</text>
</a>
</g>
</g>
<!-- Node1&#45;&gt;Node32 -->
<g id="edge43" class="edge"><title>Node1&#45;&gt;Node32</title>
<path fill="none" stroke="midnightblue" d="M705.264,-224.399C738.412,-214.073 782.847,-200.231 813.904,-190.556"/>
<polygon fill="midnightblue" stroke="midnightblue" points="814.98,-193.887 823.487,-187.571 812.898,-187.204 814.98,-193.887"/>
</g>
<!-- Node34 -->
<g id="node34" class="node"><title>Node34</title>
<g id="a_node34"><a xlink:href="tag_8h.html" target="_top" xlink:title=" ">
<polygon fill="white" stroke="black" points="917,-168.5 917,-187.5 955,-187.5 955,-168.5 917,-168.5"/>
<text text-anchor="middle" x="936" y="-175.5" font-family="Helvetica,sans-Serif" font-size="10.00">tag.h</text>
</a>
</g>
</g>
<!-- Node1&#45;&gt;Node34 -->
<g id="edge49" class="edge"><title>Node1&#45;&gt;Node34</title>
<path fill="none" stroke="midnightblue" d="M719.046,-228.369C767.289,-219.661 837.384,-206.034 906.986,-188.045"/>
<polygon fill="midnightblue" stroke="midnightblue" points="908.013,-191.394 916.802,-185.478 906.242,-184.622 908.013,-191.394"/>
</g>
<!-- Node5 -->
<g id="node5" class="node"><title>Node5</title>
<g id="a_node5"><a xlink:title=" ">
<polygon fill="white" stroke="#bfbfbf" points="489,-112.5 489,-131.5 545,-131.5 545,-112.5 489,-112.5"/>
<text text-anchor="middle" x="517" y="-119.5" font-family="Helvetica,sans-Serif" font-size="10.00">algorithm</text>
</a>
</g>
</g>
<!-- Node4&#45;&gt;Node5 -->
<g id="edge4" class="edge"><title>Node4&#45;&gt;Node5</title>
<path fill="none" stroke="midnightblue" d="M610.166,-168.324C592.284,-159.625 564.525,-146.12 543.954,-136.113"/>
<polygon fill="midnightblue" stroke="midnightblue" points="545.313,-132.882 534.79,-131.655 542.251,-139.177 545.313,-132.882"/>
</g>
<!-- Node6 -->
<g id="node6" class="node"><title>Node6</title>
<g id="a_node6"><a xlink:title=" ">
<polygon fill="white" stroke="#bfbfbf" points="386,-56.5 386,-75.5 432,-75.5 432,-56.5 386,-56.5"/>
<text text-anchor="middle" x="409" y="-63.5" font-family="Helvetica,sans-Serif" font-size="10.00">cstring</text>
</a>
</g>
</g>
<!-- Node4&#45;&gt;Node6 -->
<g id="edge5" class="edge"><title>Node4&#45;&gt;Node6</title>
<path fill="none" stroke="midnightblue" d="M601.246,-170.389C564.561,-161.067 500.822,-143.873 480,-132 457.67,-119.267 436.543,-98.37 423.233,-83.7158"/>
<polygon fill="midnightblue" stroke="midnightblue" points="425.592,-81.0992 416.351,-75.918 420.344,-85.7315 425.592,-81.0992"/>
</g>
<!-- Node7 -->
<g id="node7" class="node"><title>Node7</title>
<g id="a_node7"><a xlink:title=" ">
<polygon fill="white" stroke="#bfbfbf" points="450,-56.5 450,-75.5 512,-75.5 512,-56.5 450,-56.5"/>
<text text-anchor="middle" x="481" y="-63.5" font-family="Helvetica,sans-Serif" font-size="10.00">type_traits</text>
</a>
</g>
</g>
<!-- Node4&#45;&gt;Node7 -->
<g id="edge6" class="edge"><title>Node4&#45;&gt;Node7</title>
<path fill="none" stroke="midnightblue" d="M619.298,-168.484C605.87,-155.548 579.026,-130.5 554,-112 538.483,-100.529 519.966,-89.1388 505.465,-80.6876"/>
<polygon fill="midnightblue" stroke="midnightblue" points="507.001,-77.5339 496.587,-75.5871 503.514,-83.6035 507.001,-77.5339"/>
</g>
<!-- Node4&#45;&gt;Node8 -->
<g id="edge7" class="edge"><title>Node4&#45;&gt;Node8</title>
<path fill="none" stroke="midnightblue" d="M639.247,-168.324C649.797,-160.185 665.801,-147.839 678.442,-138.087"/>
<polygon fill="midnightblue" stroke="midnightblue" points="680.769,-140.713 686.549,-131.834 676.493,-135.171 680.769,-140.713"/>
</g>
<!-- Node22 -->
<g id="node22" class="node"><title>Node22</title>
<g id="a_node22"><a xlink:href="endian_8h.html" target="_top" xlink:title=" ">
<polygon fill="white" stroke="black" points="601.5,-112.5 601.5,-131.5 654.5,-131.5 654.5,-112.5 601.5,-112.5"/>
<text text-anchor="middle" x="628" y="-119.5" font-family="Helvetica,sans-Serif" font-size="10.00">endian.h</text>
</a>
</g>
</g>
<!-- Node4&#45;&gt;Node22 -->
<g id="edge23" class="edge"><title>Node4&#45;&gt;Node22</title>
<path fill="none" stroke="midnightblue" d="M628,-168.083C628,-161.006 628,-150.861 628,-141.986"/>
<polygon fill="midnightblue" stroke="midnightblue" points="631.5,-141.751 628,-131.751 624.5,-141.751 631.5,-141.751"/>
</g>
<!-- Node4&#45;&gt;Node25 -->
<g id="edge29" class="edge"><title>Node4&#45;&gt;Node25</title>
<path fill="none" stroke="midnightblue" d="M601.146,-170.379C560.628,-160.388 484.014,-141.497 440.775,-130.835"/>
<polygon fill="midnightblue" stroke="midnightblue" points="441.346,-127.371 430.799,-128.375 439.67,-134.167 441.346,-127.371"/>
</g>
<!-- Node8&#45;&gt;Node7 -->
<g id="edge12" class="edge"><title>Node8&#45;&gt;Node7</title>
<path fill="none" stroke="midnightblue" d="M673.868,-114.556C670.555,-113.688 667.195,-112.816 664,-112 615.32,-99.5728 559.194,-85.8625 522.071,-76.8801"/>
<polygon fill="midnightblue" stroke="midnightblue" points="522.669,-73.4238 512.126,-74.4769 521.024,-80.228 522.669,-73.4238"/>
</g>
<!-- Node9 -->
<g id="node9" class="node"><title>Node9</title>
<g id="a_node9"><a xlink:title=" ">
<polygon fill="white" stroke="#bfbfbf" points="676.5,-56.5 676.5,-75.5 725.5,-75.5 725.5,-56.5 676.5,-56.5"/>
<text text-anchor="middle" x="701" y="-63.5" font-family="Helvetica,sans-Serif" font-size="10.00">cassert</text>
</a>
</g>
</g>
<!-- Node8&#45;&gt;Node9 -->
<g id="edge8" class="edge"><title>Node8&#45;&gt;Node9</title>
<path fill="none" stroke="midnightblue" d="M698.495,-112.083C698.889,-105.006 699.452,-94.8611 699.945,-85.9865"/>
<polygon fill="midnightblue" stroke="midnightblue" points="703.454,-85.9299 700.514,-75.7511 696.464,-85.5415 703.454,-85.9299"/>
</g>
<!-- Node10 -->
<g id="node10" class="node"><title>Node10</title>
<g id="a_node10"><a xlink:title=" ">
<polygon fill="white" stroke="#bfbfbf" points="608,-0.5 608,-19.5 656,-19.5 656,-0.5 608,-0.5"/>
<text text-anchor="middle" x="632" y="-7.5" font-family="Helvetica,sans-Serif" font-size="10.00">cstddef</text>
</a>
</g>
</g>
<!-- Node8&#45;&gt;Node10 -->
<g id="edge9" class="edge"><title>Node8&#45;&gt;Node10</title>
<path fill="none" stroke="midnightblue" d="M722.245,-114.184C757.842,-103.936 820.733,-84.823 827,-76 832.147,-68.753 832.557,-62.9374 827,-56 781.158,1.22481 737.232,-37.3846 666,-20 665.9,-19.9756 665.8,-19.9511 665.699,-19.9265"/>
<polygon fill="midnightblue" stroke="midnightblue" points="666.669,-16.5616 656.117,-17.5073 664.956,-23.3487 666.669,-16.5616"/>
</g>
<!-- Node11 -->
<g id="node11" class="node"><title>Node11</title>
<g id="a_node11"><a xlink:title=" ">
<polygon fill="white" stroke="#bfbfbf" points="612,-56.5 612,-75.5 658,-75.5 658,-56.5 612,-56.5"/>
<text text-anchor="middle" x="635" y="-63.5" font-family="Helvetica,sans-Serif" font-size="10.00">cstdint</text>
</a>
</g>
</g>
<!-- Node8&#45;&gt;Node11 -->
<g id="edge10" class="edge"><title>Node8&#45;&gt;Node11</title>
<path fill="none" stroke="midnightblue" d="M687.878,-112.324C678.474,-104.263 664.256,-92.0765 652.931,-82.3695"/>
<polygon fill="midnightblue" stroke="midnightblue" points="655.177,-79.6844 645.306,-75.8339 650.621,-84.9993 655.177,-79.6844"/>
</g>
<!-- Node12 -->
<g id="node12" class="node"><title>Node12</title>
<g id="a_node12"><a xlink:title=" ">
<polygon fill="white" stroke="#bfbfbf" points="744,-56.5 744,-75.5 818,-75.5 818,-56.5 744,-56.5"/>
<text text-anchor="middle" x="781" y="-63.5" font-family="Helvetica,sans-Serif" font-size="10.00">system_error</text>
</a>
</g>
</g>
<!-- Node8&#45;&gt;Node12 -->
<g id="edge11" class="edge"><title>Node8&#45;&gt;Node12</title>
<path fill="none" stroke="midnightblue" d="M711.335,-112.324C724.162,-103.979 743.785,-91.2122 758.94,-81.3524"/>
<polygon fill="midnightblue" stroke="midnightblue" points="761.224,-84.0417 767.698,-75.6545 757.407,-78.1742 761.224,-84.0417"/>
</g>
<!-- Node13 -->
<g id="node13" class="node"><title>Node13</title>
<g id="a_node13"><a xlink:href="common_8h.html" target="_top" xlink:title="Header with typedefs to make type designation platform independent.">
<polygon fill="white" stroke="black" points="874,-56.5 874,-75.5 936,-75.5 936,-56.5 874,-56.5"/>
<text text-anchor="middle" x="905" y="-63.5" font-family="Helvetica,sans-Serif" font-size="10.00">common.h</text>
</a>
</g>
</g>
<!-- Node8&#45;&gt;Node13 -->
<g id="edge13" class="edge"><title>Node8&#45;&gt;Node13</title>
<path fill="none" stroke="midnightblue" d="M722.151,-114.7C757.004,-105.608 821.858,-88.6892 864.216,-77.6393"/>
<polygon fill="midnightblue" stroke="midnightblue" points="865.15,-81.0129 873.943,-75.1019 863.383,-74.2395 865.15,-81.0129"/>
</g>
<!-- Node13&#45;&gt;Node10 -->
<g id="edge22" class="edge"><title>Node13&#45;&gt;Node10</title>
<path fill="none" stroke="midnightblue" d="M873.54,-58.65C868.999,-57.7503 864.381,-56.8445 860,-56 773.891,-39.4005 751.559,-39.2338 666,-20 665.899,-19.9774 665.799,-19.9547 665.698,-19.9319"/>
<polygon fill="midnightblue" stroke="midnightblue" points="666.633,-16.557 656.091,-17.6168 664.993,-23.3622 666.633,-16.557"/>
</g>
<!-- Node14 -->
<g id="node14" class="node"><title>Node14</title>
<g id="a_node14"><a xlink:title=" ">
<polygon fill="white" stroke="#bfbfbf" points="1072,-0.5 1072,-19.5 1134,-19.5 1134,-0.5 1072,-0.5"/>
<text text-anchor="middle" x="1103" y="-7.5" font-family="Helvetica,sans-Serif" font-size="10.00">arpa/inet.h</text>
</a>
</g>
</g>
<!-- Node13&#45;&gt;Node14 -->
<g id="edge14" class="edge"><title>Node13&#45;&gt;Node14</title>
<path fill="none" stroke="midnightblue" d="M936.374,-56.4435C970.263,-47.2011 1024.4,-32.4356 1061.72,-22.2572"/>
<polygon fill="midnightblue" stroke="midnightblue" points="1063.05,-25.5243 1071.77,-19.5164 1061.2,-18.771 1063.05,-25.5243"/>
</g>
<!-- Node15 -->
<g id="node15" class="node"><title>Node15</title>
<g id="a_node15"><a xlink:title=" ">
<polygon fill="white" stroke="#bfbfbf" points="1152.5,-0.5 1152.5,-19.5 1199.5,-19.5 1199.5,-0.5 1152.5,-0.5"/>
<text text-anchor="middle" x="1176" y="-7.5" font-family="Helvetica,sans-Serif" font-size="10.00">errno.h</text>
</a>
</g>
</g>
<!-- Node13&#45;&gt;Node15 -->
<g id="edge15" class="edge"><title>Node13&#45;&gt;Node15</title>
<path fill="none" stroke="midnightblue" d="M936.416,-57.8021C939.315,-57.177 942.21,-56.5673 945,-56 1029.57,-38.8058 1054.07,-39.6965 1142.36,-19.9753"/>
<polygon fill="midnightblue" stroke="midnightblue" points="1143.29,-23.3538 1152.27,-17.7355 1141.74,-16.5259 1143.29,-23.3538"/>
</g>
<!-- Node16 -->
<g id="node16" class="node"><title>Node16</title>
<g id="a_node16"><a xlink:title=" ">
<polygon fill="white" stroke="#bfbfbf" points="1217.5,-0.5 1217.5,-19.5 1260.5,-19.5 1260.5,-0.5 1217.5,-0.5"/>
<text text-anchor="middle" x="1239" y="-7.5" font-family="Helvetica,sans-Serif" font-size="10.00">fcntl.h</text>
</a>
</g>
</g>
<!-- Node13&#45;&gt;Node16 -->
<g id="edge16" class="edge"><title>Node13&#45;&gt;Node16</title>
<path fill="none" stroke="midnightblue" d="M936.391,-57.6697C939.295,-57.0724 942.198,-56.5053 945,-56 1058.35,-35.5581 1091.47,-44.5605 1207.49,-20.0441"/>
<polygon fill="midnightblue" stroke="midnightblue" points="1208.43,-23.4209 1217.47,-17.8956 1206.96,-16.5776 1208.43,-23.4209"/>
</g>
<!-- Node17 -->
<g id="node17" class="node"><title>Node17</title>
<g id="a_node17"><a xlink:title=" ">
<polygon fill="white" stroke="#bfbfbf" points="674.5,-0.5 674.5,-19.5 723.5,-19.5 723.5,-0.5 674.5,-0.5"/>
<text text-anchor="middle" x="699" y="-7.5" font-family="Helvetica,sans-Serif" font-size="10.00">netdb.h</text>
</a>
</g>
</g>
<!-- Node13&#45;&gt;Node17 -->
<g id="edge17" class="edge"><title>Node13&#45;&gt;Node17</title>
<path fill="none" stroke="midnightblue" d="M873.921,-56.8975C841.419,-48.4179 788.661,-34.6357 733.475,-20.1191"/>
<polygon fill="midnightblue" stroke="midnightblue" points="734.073,-16.6576 723.512,-17.4974 732.292,-23.4272 734.073,-16.6576"/>
</g>
<!-- Node18 -->
<g id="node18" class="node"><title>Node18</title>
<g id="a_node18"><a xlink:title=" ">
<polygon fill="white" stroke="#bfbfbf" points="741.5,-0.5 741.5,-19.5 806.5,-19.5 806.5,-0.5 741.5,-0.5"/>
<text text-anchor="middle" x="774" y="-7.5" font-family="Helvetica,sans-Serif" font-size="10.00">netinet/in.h</text>
</a>
</g>
</g>
<!-- Node13&#45;&gt;Node18 -->
<g id="edge18" class="edge"><title>Node13&#45;&gt;Node18</title>
<path fill="none" stroke="midnightblue" d="M884.243,-56.4435C862.684,-47.5566 828.737,-33.5632 804.206,-23.4514"/>
<polygon fill="midnightblue" stroke="midnightblue" points="805.239,-20.0917 794.66,-19.5164 802.572,-26.5634 805.239,-20.0917"/>
</g>
<!-- Node19 -->
<g id="node19" class="node"><title>Node19</title>
<g id="a_node19"><a xlink:title=" ">
<polygon fill="white" stroke="#bfbfbf" points="824.5,-0.5 824.5,-19.5 897.5,-19.5 897.5,-0.5 824.5,-0.5"/>
<text text-anchor="middle" x="861" y="-7.5" font-family="Helvetica,sans-Serif" font-size="10.00">sys/socket.h</text>
</a>
</g>
</g>
<!-- Node13&#45;&gt;Node19 -->
<g id="edge19" class="edge"><title>Node13&#45;&gt;Node19</title>
<path fill="none" stroke="midnightblue" d="M897.734,-56.083C891.455,-48.3768 882.212,-37.0333 874.569,-27.6531"/>
<polygon fill="midnightblue" stroke="midnightblue" points="877.161,-25.2926 868.131,-19.7511 871.734,-29.7143 877.161,-25.2926"/>
</g>
<!-- Node20 -->
<g id="node20" class="node"><title>Node20</title>
<g id="a_node20"><a xlink:title=" ">
<polygon fill="white" stroke="#bfbfbf" points="916,-0.5 916,-19.5 984,-19.5 984,-0.5 916,-0.5"/>
<text text-anchor="middle" x="950" y="-7.5" font-family="Helvetica,sans-Serif" font-size="10.00">sys/types.h</text>
</a>
</g>
</g>
<!-- Node13&#45;&gt;Node20 -->
<g id="edge20" class="edge"><title>Node13&#45;&gt;Node20</title>
<path fill="none" stroke="midnightblue" d="M912.431,-56.083C918.853,-48.3768 928.306,-37.0333 936.122,-27.6531"/>
<polygon fill="midnightblue" stroke="midnightblue" points="938.994,-29.674 942.707,-19.7511 933.617,-25.1927 938.994,-29.674"/>
</g>
<!-- Node21 -->
<g id="node21" class="node"><title>Node21</title>
<g id="a_node21"><a xlink:title=" ">
<polygon fill="white" stroke="#bfbfbf" points="1002.5,-0.5 1002.5,-19.5 1053.5,-19.5 1053.5,-0.5 1002.5,-0.5"/>
<text text-anchor="middle" x="1028" y="-7.5" font-family="Helvetica,sans-Serif" font-size="10.00">unistd.h</text>
</a>
</g>
</g>
<!-- Node13&#45;&gt;Node21 -->
<g id="edge21" class="edge"><title>Node13&#45;&gt;Node21</title>
<path fill="none" stroke="midnightblue" d="M924.49,-56.4435C944.642,-47.5961 976.323,-33.6875 999.331,-23.5865"/>
<polygon fill="midnightblue" stroke="midnightblue" points="1000.85,-26.7411 1008.6,-19.5164 998.038,-20.3316 1000.85,-26.7411"/>
</g>
<!-- Node22&#45;&gt;Node6 -->
<g id="edge25" class="edge"><title>Node22&#45;&gt;Node6</title>
<path fill="none" stroke="midnightblue" d="M601.289,-114.909C566.775,-106.965 504.599,-92.4099 442.077,-76.2076"/>
<polygon fill="midnightblue" stroke="midnightblue" points="442.603,-72.7279 432.044,-73.5939 440.838,-79.5019 442.603,-72.7279"/>
</g>
<!-- Node22&#45;&gt;Node7 -->
<g id="edge27" class="edge"><title>Node22&#45;&gt;Node7</title>
<path fill="none" stroke="midnightblue" d="M604.707,-112.444C580.193,-103.438 541.404,-89.1891 513.8,-79.049"/>
<polygon fill="midnightblue" stroke="midnightblue" points="514.777,-75.6793 504.184,-75.5164 512.363,-82.25 514.777,-75.6793"/>
</g>
<!-- Node22&#45;&gt;Node11 -->
<g id="edge24" class="edge"><title>Node22&#45;&gt;Node11</title>
<path fill="none" stroke="midnightblue" d="M629.156,-112.083C630.084,-104.927 631.418,-94.6353 632.577,-85.6911"/>
<polygon fill="midnightblue" stroke="midnightblue" points="636.051,-86.1181 633.866,-75.7511 629.109,-85.2181 636.051,-86.1181"/>
</g>
<!-- Node23 -->
<g id="node23" class="node"><title>Node23</title>
<g id="a_node23"><a xlink:title=" ">
<polygon fill="white" stroke="#bfbfbf" points="530,-56.5 530,-75.5 594,-75.5 594,-56.5 530,-56.5"/>
<text text-anchor="middle" x="562" y="-63.5" font-family="Helvetica,sans-Serif" font-size="10.00">string_view</text>
</a>
</g>
</g>
<!-- Node22&#45;&gt;Node23 -->
<g id="edge26" class="edge"><title>Node22&#45;&gt;Node23</title>
<path fill="none" stroke="midnightblue" d="M617.396,-112.324C607.544,-104.263 592.649,-92.0765 580.785,-82.3695"/>
<polygon fill="midnightblue" stroke="midnightblue" points="582.753,-79.4575 572.797,-75.8339 578.32,-84.8752 582.753,-79.4575"/>
</g>
<!-- Node24 -->
<g id="node24" class="node"><title>Node24</title>
<g id="a_node24"><a xlink:href="useful__base__types_8h.html" target="_top" xlink:title=" ">
<polygon fill="white" stroke="black" points="954,-56.5 954,-75.5 1060,-75.5 1060,-56.5 954,-56.5"/>
<text text-anchor="middle" x="1007" y="-63.5" font-family="Helvetica,sans-Serif" font-size="10.00">useful_base_types.h</text>
</a>
</g>
</g>
<!-- Node22&#45;&gt;Node24 -->
<g id="edge28" class="edge"><title>Node22&#45;&gt;Node24</title>
<path fill="none" stroke="midnightblue" d="M654.601,-114.156C658.086,-113.37 661.62,-112.626 665,-112 785.236,-89.7181 818.99,-92.8332 943.953,-76.1129"/>
<polygon fill="midnightblue" stroke="midnightblue" points="944.468,-79.5751 953.908,-74.7649 943.529,-72.6384 944.468,-79.5751"/>
</g>
<!-- Node25&#45;&gt;Node6 -->
<g id="edge34" class="edge"><title>Node25&#45;&gt;Node6</title>
<path fill="none" stroke="midnightblue" d="M409,-112.083C409,-105.006 409,-94.8611 409,-85.9865"/>
<polygon fill="midnightblue" stroke="midnightblue" points="412.5,-85.751 409,-75.7511 405.5,-85.7511 412.5,-85.751"/>
</g>
<!-- Node25&#45;&gt;Node7 -->
<g id="edge36" class="edge"><title>Node25&#45;&gt;Node7</title>
<path fill="none" stroke="midnightblue" d="M420.568,-112.324C431.42,-104.185 447.881,-91.8395 460.883,-82.0874"/>
<polygon fill="midnightblue" stroke="midnightblue" points="463.321,-84.6339 469.221,-75.8339 459.121,-79.0339 463.321,-84.6339"/>
</g>
<!-- Node25&#45;&gt;Node12 -->
<g id="edge35" class="edge"><title>Node25&#45;&gt;Node12</title>
<path fill="none" stroke="midnightblue" d="M430.613,-118.178C490.552,-110.327 658.867,-88.1085 733.559,-76.1377"/>
<polygon fill="midnightblue" stroke="midnightblue" points="734.572,-79.5185 743.875,-74.4488 733.441,-72.6104 734.572,-79.5185"/>
</g>
<!-- Node25&#45;&gt;Node13 -->
<g id="edge38" class="edge"><title>Node25&#45;&gt;Node13</title>
<path fill="none" stroke="midnightblue" d="M430.736,-118.115C444.782,-116.283 463.46,-113.906 480,-112 634.031,-94.2498 672.872,-92.8865 827,-76 838.948,-74.691 851.918,-73.216 863.789,-71.8448"/>
<polygon fill="midnightblue" stroke="midnightblue" points="864.356,-75.3026 873.886,-70.6731 863.549,-68.3493 864.356,-75.3026"/>
</g>
<!-- Node26 -->
<g id="node26" class="node"><title>Node26</title>
<g id="a_node26"><a xlink:title=" ">
<polygon fill="white" stroke="#bfbfbf" points="308,-56.5 308,-75.5 368,-75.5 368,-56.5 308,-56.5"/>
<text text-anchor="middle" x="338" y="-63.5" font-family="Helvetica,sans-Serif" font-size="10.00">fmt/core.h</text>
</a>
</g>
</g>
<!-- Node25&#45;&gt;Node26 -->
<g id="edge30" class="edge"><title>Node25&#45;&gt;Node26</title>
<path fill="none" stroke="midnightblue" d="M397.593,-112.324C386.891,-104.185 370.659,-91.8395 357.837,-82.0874"/>
<polygon fill="midnightblue" stroke="midnightblue" points="359.693,-79.1018 349.615,-75.8339 355.456,-84.6734 359.693,-79.1018"/>
</g>
<!-- Node27 -->
<g id="node27" class="node"><title>Node27</title>
<g id="a_node27"><a xlink:title=" ">
<polygon fill="white" stroke="#bfbfbf" points="0,-56.5 0,-75.5 68,-75.5 68,-56.5 0,-56.5"/>
<text text-anchor="middle" x="34" y="-63.5" font-family="Helvetica,sans-Serif" font-size="10.00">fmt/format.h</text>
</a>
</g>
</g>
<!-- Node25&#45;&gt;Node27 -->
<g id="edge31" class="edge"><title>Node25&#45;&gt;Node27</title>
<path fill="none" stroke="midnightblue" d="M387.164,-118.589C335.347,-112.751 200.717,-96.903 78.1543,-76.0953"/>
<polygon fill="midnightblue" stroke="midnightblue" points="78.6727,-72.6332 68.2252,-74.394 77.4905,-79.5327 78.6727,-72.6332"/>
</g>
<!-- Node28 -->
<g id="node28" class="node"><title>Node28</title>
<g id="a_node28"><a xlink:title=" ">
<polygon fill="white" stroke="#bfbfbf" points="86,-56.5 86,-75.5 124,-75.5 124,-56.5 86,-56.5"/>
<text text-anchor="middle" x="105" y="-63.5" font-family="Helvetica,sans-Serif" font-size="10.00">array</text>
</a>
</g>
</g>
<!-- Node25&#45;&gt;Node28 -->
<g id="edge32" class="edge"><title>Node25&#45;&gt;Node28</title>
<path fill="none" stroke="midnightblue" d="M387.309,-118.583C341.962,-113.293 233.734,-99.4374 134.095,-75.9569"/>
<polygon fill="midnightblue" stroke="midnightblue" points="134.713,-72.5059 124.172,-73.5791 133.081,-79.3132 134.713,-72.5059"/>
</g>
<!-- Node29 -->
<g id="node29" class="node"><title>Node29</title>
<g id="a_node29"><a xlink:title=" ">
<polygon fill="white" stroke="#bfbfbf" points="142,-56.5 142,-75.5 188,-75.5 188,-56.5 142,-56.5"/>
<text text-anchor="middle" x="165" y="-63.5" font-family="Helvetica,sans-Serif" font-size="10.00">chrono</text>
</a>
</g>
</g>
<!-- Node25&#45;&gt;Node29 -->
<g id="edge33" class="edge"><title>Node25&#45;&gt;Node29</title>
<path fill="none" stroke="midnightblue" d="M387.225,-116.863C350.349,-109.755 273.067,-94.4127 198.104,-76.1463"/>
<polygon fill="midnightblue" stroke="midnightblue" points="198.571,-72.657 188.025,-73.6687 196.9,-79.4546 198.571,-72.657"/>
</g>
<!-- Node30 -->
<g id="node30" class="node"><title>Node30</title>
<g id="a_node30"><a xlink:title=" ">
<polygon fill="white" stroke="#bfbfbf" points="206.5,-56.5 206.5,-75.5 289.5,-75.5 289.5,-56.5 206.5,-56.5"/>
<text text-anchor="middle" x="248" y="-63.5" font-family="Helvetica,sans-Serif" font-size="10.00">unordered_map</text>
</a>
</g>
</g>
<!-- Node25&#45;&gt;Node30 -->
<g id="edge37" class="edge"><title>Node25&#45;&gt;Node30</title>
<path fill="none" stroke="midnightblue" d="M387.287,-113.717C360.644,-104.781 315.111,-89.5092 283.385,-78.8683"/>
<polygon fill="midnightblue" stroke="midnightblue" points="284.205,-75.4517 273.611,-75.59 281.979,-82.0884 284.205,-75.4517"/>
</g>
<!-- Node31&#45;&gt;Node12 -->
<g id="edge41" class="edge"><title>Node31&#45;&gt;Node12</title>
<path fill="none" stroke="midnightblue" d="M781,-112.083C781,-105.006 781,-94.8611 781,-85.9865"/>
<polygon fill="midnightblue" stroke="midnightblue" points="784.5,-85.751 781,-75.7511 777.5,-85.7511 784.5,-85.751"/>
</g>
<!-- Node31&#45;&gt;Node13 -->
<g id="edge42" class="edge"><title>Node31&#45;&gt;Node13</title>
<path fill="none" stroke="midnightblue" d="M800.648,-112.444C820.965,-103.596 852.903,-89.6875 876.098,-79.5865"/>
<polygon fill="midnightblue" stroke="midnightblue" points="877.673,-82.7181 885.444,-75.5164 874.878,-76.3002 877.673,-82.7181"/>
</g>
<!-- Node32&#45;&gt;Node13 -->
<g id="edge44" class="edge"><title>Node32&#45;&gt;Node13</title>
<path fill="none" stroke="midnightblue" d="M852.482,-168.197C854.886,-155.322 860.365,-130.842 870,-112 875.284,-101.667 883.071,-91.3578 889.96,-83.2193"/>
<polygon fill="midnightblue" stroke="midnightblue" points="892.679,-85.4279 896.67,-75.6137 887.429,-80.7968 892.679,-85.4279"/>
</g>
<!-- Node32&#45;&gt;Node24 -->
<g id="edge48" class="edge"><title>Node32&#45;&gt;Node24</title>
<path fill="none" stroke="midnightblue" d="M899.252,-170.056C925.919,-163.998 958.004,-152.755 980,-132 993.032,-119.704 999.993,-100.17 1003.56,-85.723"/>
<polygon fill="midnightblue" stroke="midnightblue" points="1007,-86.3826 1005.67,-75.8709 1000.16,-84.9147 1007,-86.3826"/>
</g>
<!-- Node33 -->
<g id="node33" class="node"><title>Node33</title>
<g id="a_node33"><a xlink:href="sys__error__code_8h.html" target="_top" xlink:title=" ">
<polygon fill="white" stroke="black" points="879,-112.5 879,-131.5 971,-131.5 971,-112.5 879,-112.5"/>
<text text-anchor="middle" x="925" y="-119.5" font-family="Helvetica,sans-Serif" font-size="10.00">sys_error_code.h</text>
</a>
</g>
</g>
<!-- Node32&#45;&gt;Node33 -->
<g id="edge45" class="edge"><title>Node32&#45;&gt;Node33</title>
<path fill="none" stroke="midnightblue" d="M862.889,-168.324C874.15,-160.107 891.287,-147.602 904.709,-137.807"/>
<polygon fill="midnightblue" stroke="midnightblue" points="906.88,-140.556 912.894,-131.834 902.753,-134.901 906.88,-140.556"/>
</g>
<!-- Node33&#45;&gt;Node13 -->
<g id="edge46" class="edge"><title>Node33&#45;&gt;Node13</title>
<path fill="none" stroke="midnightblue" d="M921.697,-112.083C919.018,-104.849 915.151,-94.4087 911.814,-85.3968"/>
<polygon fill="midnightblue" stroke="midnightblue" points="914.996,-83.9129 908.241,-75.7511 908.432,-86.3442 914.996,-83.9129"/>
</g>
<!-- Node33&#45;&gt;Node24 -->
<g id="edge47" class="edge"><title>Node33&#45;&gt;Node24</title>
<path fill="none" stroke="midnightblue" d="M938.175,-112.324C950.847,-103.979 970.233,-91.2122 985.206,-81.3524"/>
<polygon fill="midnightblue" stroke="midnightblue" points="987.431,-84.0776 993.858,-75.6545 983.581,-78.2313 987.431,-84.0776"/>
</g>
</g>
</svg>
