<?xml version="1.0" encoding="UTF-8" standalone="no"?>
<!DOCTYPE svg PUBLIC "-//W3C//DTD SVG 1.1//EN"
 "http://www.w3.org/Graphics/SVG/1.1/DTD/svg11.dtd">
<!-- Generated by graphviz version 2.38.0 (20140413.2041)
 -->
<!-- Title: C:/projects/ndt/sources/src/address.cpp Pages: 1 -->
<svg width="1269pt" height="319pt"
 viewBox="0.00 0.00 1268.50 319.00" xmlns="http://www.w3.org/2000/svg" xmlns:xlink="http://www.w3.org/1999/xlink">
<g id="graph0" class="graph" transform="scale(1 1) rotate(0) translate(4 315)">
<title>C:/projects/ndt/sources/src/address.cpp</title>
<polygon fill="white" stroke="none" points="-4,4 -4,-315 1264.5,-315 1264.5,4 -4,4"/>
<!-- Node1 -->
<g id="node1" class="node"><title>Node1</title>
<g id="a_node1"><a xlink:title=" ">
<polygon fill="#bfbfbf" stroke="black" points="297,-280.5 297,-310.5 415,-310.5 415,-280.5 297,-280.5"/>
<text text-anchor="start" x="305" y="-298.5" font-family="Helvetica,sans-Serif" font-size="10.00">C:/projects/ndt/sources</text>
<text text-anchor="middle" x="356" y="-287.5" font-family="Helvetica,sans-Serif" font-size="10.00">/src/address.cpp</text>
</a>
</g>
</g>
<!-- Node2 -->
<g id="node2" class="node"><title>Node2</title>
<g id="a_node2"><a xlink:href="address_8h.html" target="_top" xlink:title=" ">
<polygon fill="white" stroke="black" points="657,-224.5 657,-243.5 733,-243.5 733,-224.5 657,-224.5"/>
<text text-anchor="middle" x="695" y="-231.5" font-family="Helvetica,sans-Serif" font-size="10.00">ndt/address.h</text>
</a>
</g>
</g>
<!-- Node1&#45;&gt;Node2 -->
<g id="edge1" class="edge"><title>Node1&#45;&gt;Node2</title>
<path fill="none" stroke="midnightblue" d="M415.049,-284.136C480.682,-272.616 585.448,-254.228 646.489,-243.514"/>
<polygon fill="midnightblue" stroke="midnightblue" points="647.383,-246.911 656.628,-241.735 646.173,-240.016 647.383,-246.911"/>
</g>
<!-- Node5 -->
<g id="node5" class="node"><title>Node5</title>
<g id="a_node5"><a xlink:href="bin__rw_8h.html" target="_top" xlink:title=" ">
<polygon fill="white" stroke="black" points="329.5,-168.5 329.5,-187.5 382.5,-187.5 382.5,-168.5 329.5,-168.5"/>
<text text-anchor="middle" x="356" y="-175.5" font-family="Helvetica,sans-Serif" font-size="10.00">bin_rw.h</text>
</a>
</g>
</g>
<!-- Node1&#45;&gt;Node5 -->
<g id="edge53" class="edge"><title>Node1&#45;&gt;Node5</title>
<path fill="none" stroke="midnightblue" d="M356,-280.337C356,-259.622 356,-221.016 356,-197.899"/>
<polygon fill="midnightblue" stroke="midnightblue" points="359.5,-197.669 356,-187.669 352.5,-197.669 359.5,-197.669"/>
</g>
<!-- Node7 -->
<g id="node7" class="node"><title>Node7</title>
<g id="a_node7"><a xlink:title=" ">
<polygon fill="white" stroke="#bfbfbf" points="0,-56.5 0,-75.5 46,-75.5 46,-56.5 0,-56.5"/>
<text text-anchor="middle" x="23" y="-63.5" font-family="Helvetica,sans-Serif" font-size="10.00">cstring</text>
</a>
</g>
</g>
<!-- Node1&#45;&gt;Node7 -->
<g id="edge52" class="edge"><title>Node1&#45;&gt;Node7</title>
<path fill="none" stroke="midnightblue" d="M335.421,-280.441C275.94,-239.805 104.223,-122.49 44.0968,-81.413"/>
<polygon fill="midnightblue" stroke="midnightblue" points="45.9811,-78.4615 35.7497,-75.7104 42.0323,-84.2414 45.9811,-78.4615"/>
</g>
<!-- Node3 -->
<g id="node3" class="node"><title>Node3</title>
<g id="a_node3"><a xlink:title=" ">
<polygon fill="white" stroke="#bfbfbf" points="954.5,-168.5 954.5,-187.5 995.5,-187.5 995.5,-168.5 954.5,-168.5"/>
<text text-anchor="middle" x="975" y="-175.5" font-family="Helvetica,sans-Serif" font-size="10.00">string</text>
</a>
</g>
</g>
<!-- Node2&#45;&gt;Node3 -->
<g id="edge2" class="edge"><title>Node2&#45;&gt;Node3</title>
<path fill="none" stroke="midnightblue" d="M733.398,-227.473C780.789,-220.349 863.977,-206.855 944.609,-187.852"/>
<polygon fill="midnightblue" stroke="midnightblue" points="945.513,-191.234 954.427,-185.507 943.887,-184.426 945.513,-191.234"/>
</g>
<!-- Node4 -->
<g id="node4" class="node"><title>Node4</title>
<g id="a_node4"><a xlink:title=" ">
<polygon fill="white" stroke="#bfbfbf" points="585,-168.5 585,-187.5 629,-187.5 629,-168.5 585,-168.5"/>
<text text-anchor="middle" x="607" y="-175.5" font-family="Helvetica,sans-Serif" font-size="10.00">variant</text>
</a>
</g>
</g>
<!-- Node2&#45;&gt;Node4 -->
<g id="edge3" class="edge"><title>Node2&#45;&gt;Node4</title>
<path fill="none" stroke="midnightblue" d="M680.861,-224.324C667.134,-215.9 646.064,-202.971 629.936,-193.074"/>
<polygon fill="midnightblue" stroke="midnightblue" points="631.457,-189.902 621.104,-187.655 627.796,-195.868 631.457,-189.902"/>
</g>
<!-- Node2&#45;&gt;Node5 -->
<g id="edge4" class="edge"><title>Node2&#45;&gt;Node5</title>
<path fill="none" stroke="midnightblue" d="M656.771,-226.91C591.161,-216.459 457.935,-195.237 393.105,-184.911"/>
<polygon fill="midnightblue" stroke="midnightblue" points="393.363,-181.408 382.937,-183.291 392.262,-188.321 393.363,-181.408"/>
</g>
<!-- Node9 -->
<g id="node9" class="node"><title>Node9</title>
<g id="a_node9"><a xlink:href="buffer_8h.html" target="_top" xlink:title=" ">
<polygon fill="white" stroke="black" points="667,-112.5 667,-131.5 715,-131.5 715,-112.5 667,-112.5"/>
<text text-anchor="middle" x="691" y="-119.5" font-family="Helvetica,sans-Serif" font-size="10.00">buffer.h</text>
</a>
</g>
</g>
<!-- Node2&#45;&gt;Node9 -->
<g id="edge40" class="edge"><title>Node2&#45;&gt;Node9</title>
<path fill="none" stroke="midnightblue" d="M694.686,-224.368C694.041,-206.617 692.552,-165.666 691.676,-141.597"/>
<polygon fill="midnightblue" stroke="midnightblue" points="695.174,-141.458 691.312,-131.591 688.178,-141.712 695.174,-141.458"/>
</g>
<!-- Node26 -->
<g id="node26" class="node"><title>Node26</title>
<g id="a_node26"><a xlink:href="utils_8h.html" target="_top" xlink:title=" ">
<polygon fill="white" stroke="black" points="400.5,-112.5 400.5,-131.5 443.5,-131.5 443.5,-112.5 400.5,-112.5"/>
<text text-anchor="middle" x="422" y="-119.5" font-family="Helvetica,sans-Serif" font-size="10.00">utils.h</text>
</a>
</g>
</g>
<!-- Node2&#45;&gt;Node26 -->
<g id="edge51" class="edge"><title>Node2&#45;&gt;Node26</title>
<path fill="none" stroke="midnightblue" d="M689.954,-224.234C681.277,-210.006 662.113,-182.068 638,-168 579.161,-133.672 497.834,-125.322 453.657,-123.423"/>
<polygon fill="midnightblue" stroke="midnightblue" points="453.635,-119.92 443.521,-123.074 453.394,-126.916 453.635,-119.92"/>
</g>
<!-- Node32 -->
<g id="node32" class="node"><title>Node32</title>
<g id="a_node32"><a xlink:href="exception_8h.html" target="_top" xlink:title=" ">
<polygon fill="white" stroke="black" points="742.5,-112.5 742.5,-131.5 809.5,-131.5 809.5,-112.5 742.5,-112.5"/>
<text text-anchor="middle" x="776" y="-119.5" font-family="Helvetica,sans-Serif" font-size="10.00">exception.h</text>
</a>
</g>
</g>
<!-- Node2&#45;&gt;Node32 -->
<g id="edge41" class="edge"><title>Node2&#45;&gt;Node32</title>
<path fill="none" stroke="midnightblue" d="M701.356,-224.368C714.782,-206.135 746.232,-163.426 763.721,-139.675"/>
<polygon fill="midnightblue" stroke="midnightblue" points="766.562,-141.719 769.674,-131.591 760.926,-137.568 766.562,-141.719"/>
</g>
<!-- Node33 -->
<g id="node33" class="node"><title>Node33</title>
<g id="a_node33"><a xlink:href="sys__socket__ops_8h.html" target="_top" xlink:title=" ">
<polygon fill="white" stroke="black" points="784,-168.5 784,-187.5 880,-187.5 880,-168.5 784,-168.5"/>
<text text-anchor="middle" x="832" y="-175.5" font-family="Helvetica,sans-Serif" font-size="10.00">sys_socket_ops.h</text>
</a>
</g>
</g>
<!-- Node2&#45;&gt;Node33 -->
<g id="edge44" class="edge"><title>Node2&#45;&gt;Node33</title>
<path fill="none" stroke="midnightblue" d="M716.708,-224.444C739.355,-215.517 775.072,-201.439 800.752,-191.317"/>
<polygon fill="midnightblue" stroke="midnightblue" points="802.374,-194.44 810.394,-187.516 799.807,-187.927 802.374,-194.44"/>
</g>
<!-- Node35 -->
<g id="node35" class="node"><title>Node35</title>
<g id="a_node35"><a xlink:href="tag_8h.html" target="_top" xlink:title=" ">
<polygon fill="white" stroke="black" points="898,-168.5 898,-187.5 936,-187.5 936,-168.5 898,-168.5"/>
<text text-anchor="middle" x="917" y="-175.5" font-family="Helvetica,sans-Serif" font-size="10.00">tag.h</text>
</a>
</g>
</g>
<!-- Node2&#45;&gt;Node35 -->
<g id="edge50" class="edge"><title>Node2&#45;&gt;Node35</title>
<path fill="none" stroke="midnightblue" d="M733.152,-225.131C770.373,-217.236 828.775,-204.277 887.905,-188.134"/>
<polygon fill="midnightblue" stroke="midnightblue" points="889.075,-191.442 897.784,-185.409 887.213,-184.694 889.075,-191.442"/>
</g>
<!-- Node6 -->
<g id="node6" class="node"><title>Node6</title>
<g id="a_node6"><a xlink:title=" ">
<polygon fill="white" stroke="#bfbfbf" points="200,-112.5 200,-131.5 256,-131.5 256,-112.5 200,-112.5"/>
<text text-anchor="middle" x="228" y="-119.5" font-family="Helvetica,sans-Serif" font-size="10.00">algorithm</text>
</a>
</g>
</g>
<!-- Node5&#45;&gt;Node6 -->
<g id="edge5" class="edge"><title>Node5&#45;&gt;Node6</title>
<path fill="none" stroke="midnightblue" d="M335.718,-168.444C314.653,-159.557 281.483,-145.563 257.514,-135.451"/>
<polygon fill="midnightblue" stroke="midnightblue" points="258.761,-132.179 248.187,-131.516 256.04,-138.628 258.761,-132.179"/>
</g>
<!-- Node5&#45;&gt;Node7 -->
<g id="edge6" class="edge"><title>Node5&#45;&gt;Node7</title>
<path fill="none" stroke="midnightblue" d="M329.461,-170.657C296.649,-162.611 239.232,-147.861 191,-132 141.865,-115.842 86.0965,-93.4316 52.7742,-79.5919"/>
<polygon fill="midnightblue" stroke="midnightblue" points="53.7622,-76.2116 43.1857,-75.5883 51.0651,-82.6711 53.7622,-76.2116"/>
</g>
<!-- Node8 -->
<g id="node8" class="node"><title>Node8</title>
<g id="a_node8"><a xlink:title=" ">
<polygon fill="white" stroke="#bfbfbf" points="146,-56.5 146,-75.5 208,-75.5 208,-56.5 146,-56.5"/>
<text text-anchor="middle" x="177" y="-63.5" font-family="Helvetica,sans-Serif" font-size="10.00">type_traits</text>
</a>
</g>
</g>
<!-- Node5&#45;&gt;Node8 -->
<g id="edge7" class="edge"><title>Node5&#45;&gt;Node8</title>
<path fill="none" stroke="midnightblue" d="M355.83,-168.071C355.07,-154.121 351.535,-127.186 336,-112 327.436,-103.628 262.388,-87.0301 218.191,-76.5006"/>
<polygon fill="midnightblue" stroke="midnightblue" points="218.816,-73.0519 208.279,-74.1572 217.205,-79.8642 218.816,-73.0519"/>
</g>
<!-- Node5&#45;&gt;Node9 -->
<g id="edge8" class="edge"><title>Node5&#45;&gt;Node9</title>
<path fill="none" stroke="midnightblue" d="M382.567,-172.718C442.794,-163.009 589.668,-139.334 656.667,-128.534"/>
<polygon fill="midnightblue" stroke="midnightblue" points="657.393,-131.963 666.709,-126.916 656.279,-125.052 657.393,-131.963"/>
</g>
<!-- Node23 -->
<g id="node23" class="node"><title>Node23</title>
<g id="a_node23"><a xlink:href="endian_8h.html" target="_top" xlink:title=" ">
<polygon fill="white" stroke="black" points="274.5,-112.5 274.5,-131.5 327.5,-131.5 327.5,-112.5 274.5,-112.5"/>
<text text-anchor="middle" x="301" y="-119.5" font-family="Helvetica,sans-Serif" font-size="10.00">endian.h</text>
</a>
</g>
</g>
<!-- Node5&#45;&gt;Node23 -->
<g id="edge24" class="edge"><title>Node5&#45;&gt;Node23</title>
<path fill="none" stroke="midnightblue" d="M346.918,-168.083C338.829,-160.141 326.805,-148.335 317.09,-138.797"/>
<polygon fill="midnightblue" stroke="midnightblue" points="319.501,-136.26 309.913,-131.751 314.597,-141.254 319.501,-136.26"/>
</g>
<!-- Node5&#45;&gt;Node26 -->
<g id="edge30" class="edge"><title>Node5&#45;&gt;Node26</title>
<path fill="none" stroke="midnightblue" d="M366.604,-168.324C376.456,-160.263 391.351,-148.077 403.215,-138.369"/>
<polygon fill="midnightblue" stroke="midnightblue" points="405.68,-140.875 411.203,-131.834 401.247,-135.457 405.68,-140.875"/>
</g>
<!-- Node9&#45;&gt;Node8 -->
<g id="edge13" class="edge"><title>Node9&#45;&gt;Node8</title>
<path fill="none" stroke="midnightblue" d="M666.943,-119.795C598.366,-116.134 395.926,-103.749 218.411,-76.0408"/>
<polygon fill="midnightblue" stroke="midnightblue" points="218.794,-72.5581 208.37,-74.4528 217.701,-79.4721 218.794,-72.5581"/>
</g>
<!-- Node10 -->
<g id="node10" class="node"><title>Node10</title>
<g id="a_node10"><a xlink:title=" ">
<polygon fill="white" stroke="#bfbfbf" points="714.5,-56.5 714.5,-75.5 763.5,-75.5 763.5,-56.5 714.5,-56.5"/>
<text text-anchor="middle" x="739" y="-63.5" font-family="Helvetica,sans-Serif" font-size="10.00">cassert</text>
</a>
</g>
</g>
<!-- Node9&#45;&gt;Node10 -->
<g id="edge9" class="edge"><title>Node9&#45;&gt;Node10</title>
<path fill="none" stroke="midnightblue" d="M698.926,-112.083C705.846,-104.298 716.065,-92.8015 724.452,-83.3665"/>
<polygon fill="midnightblue" stroke="midnightblue" points="727.194,-85.5505 731.221,-75.7511 721.962,-80.8999 727.194,-85.5505"/>
</g>
<!-- Node11 -->
<g id="node11" class="node"><title>Node11</title>
<g id="a_node11"><a xlink:title=" ">
<polygon fill="white" stroke="#bfbfbf" points="608,-0.5 608,-19.5 656,-19.5 656,-0.5 608,-0.5"/>
<text text-anchor="middle" x="632" y="-7.5" font-family="Helvetica,sans-Serif" font-size="10.00">cstddef</text>
</a>
</g>
</g>
<!-- Node9&#45;&gt;Node11 -->
<g id="edge10" class="edge"><title>Node9&#45;&gt;Node11</title>
<path fill="none" stroke="midnightblue" d="M688.692,-112.219C685.112,-99.3718 677.521,-74.9251 667,-56 661.361,-45.8559 653.544,-35.563 646.728,-27.3861"/>
<polygon fill="midnightblue" stroke="midnightblue" points="649.302,-25.0118 640.12,-19.7258 644.001,-29.584 649.302,-25.0118"/>
</g>
<!-- Node12 -->
<g id="node12" class="node"><title>Node12</title>
<g id="a_node12"><a xlink:title=" ">
<polygon fill="white" stroke="#bfbfbf" points="612,-56.5 612,-75.5 658,-75.5 658,-56.5 612,-56.5"/>
<text text-anchor="middle" x="635" y="-63.5" font-family="Helvetica,sans-Serif" font-size="10.00">cstdint</text>
</a>
</g>
</g>
<!-- Node9&#45;&gt;Node12 -->
<g id="edge11" class="edge"><title>Node9&#45;&gt;Node12</title>
<path fill="none" stroke="midnightblue" d="M682.003,-112.324C673.806,-104.42 661.494,-92.5482 651.528,-82.9377"/>
<polygon fill="midnightblue" stroke="midnightblue" points="653.789,-80.2558 644.161,-75.8339 648.93,-85.2947 653.789,-80.2558"/>
</g>
<!-- Node13 -->
<g id="node13" class="node"><title>Node13</title>
<g id="a_node13"><a xlink:title=" ">
<polygon fill="white" stroke="#bfbfbf" points="782,-56.5 782,-75.5 856,-75.5 856,-56.5 782,-56.5"/>
<text text-anchor="middle" x="819" y="-63.5" font-family="Helvetica,sans-Serif" font-size="10.00">system_error</text>
</a>
</g>
</g>
<!-- Node9&#45;&gt;Node13 -->
<g id="edge12" class="edge"><title>Node9&#45;&gt;Node13</title>
<path fill="none" stroke="midnightblue" d="M711.282,-112.444C732.347,-103.557 765.517,-89.5632 789.486,-79.4514"/>
<polygon fill="midnightblue" stroke="midnightblue" points="790.96,-82.6283 798.813,-75.5164 788.239,-76.1787 790.96,-82.6283"/>
</g>
<!-- Node14 -->
<g id="node14" class="node"><title>Node14</title>
<g id="a_node14"><a xlink:href="common_8h.html" target="_top" xlink:title="Header with typedefs to make type designation platform independent.">
<polygon fill="white" stroke="black" points="874,-56.5 874,-75.5 936,-75.5 936,-56.5 874,-56.5"/>
<text text-anchor="middle" x="905" y="-63.5" font-family="Helvetica,sans-Serif" font-size="10.00">common.h</text>
</a>
</g>
</g>
<!-- Node9&#45;&gt;Node14 -->
<g id="edge14" class="edge"><title>Node9&#45;&gt;Node14</title>
<path fill="none" stroke="midnightblue" d="M715.133,-114.91C751.235,-105.801 819.766,-88.5077 863.866,-77.3796"/>
<polygon fill="midnightblue" stroke="midnightblue" points="864.86,-80.7385 873.7,-74.8981 863.148,-73.9513 864.86,-80.7385"/>
</g>
<!-- Node14&#45;&gt;Node11 -->
<g id="edge23" class="edge"><title>Node14&#45;&gt;Node11</title>
<path fill="none" stroke="midnightblue" d="M873.585,-57.7968C870.686,-57.1729 867.791,-56.5648 865,-56 779.59,-38.7128 754.822,-39.7979 666.053,-20.074"/>
<polygon fill="midnightblue" stroke="midnightblue" points="666.613,-16.6126 656.089,-17.8332 665.077,-23.442 666.613,-16.6126"/>
</g>
<!-- Node15 -->
<g id="node15" class="node"><title>Node15</title>
<g id="a_node15"><a xlink:title=" ">
<polygon fill="white" stroke="#bfbfbf" points="1072,-0.5 1072,-19.5 1134,-19.5 1134,-0.5 1072,-0.5"/>
<text text-anchor="middle" x="1103" y="-7.5" font-family="Helvetica,sans-Serif" font-size="10.00">arpa/inet.h</text>
</a>
</g>
</g>
<!-- Node14&#45;&gt;Node15 -->
<g id="edge15" class="edge"><title>Node14&#45;&gt;Node15</title>
<path fill="none" stroke="midnightblue" d="M936.374,-56.4435C970.263,-47.2011 1024.4,-32.4356 1061.72,-22.2572"/>
<polygon fill="midnightblue" stroke="midnightblue" points="1063.05,-25.5243 1071.77,-19.5164 1061.2,-18.771 1063.05,-25.5243"/>
</g>
<!-- Node16 -->
<g id="node16" class="node"><title>Node16</title>
<g id="a_node16"><a xlink:title=" ">
<polygon fill="white" stroke="#bfbfbf" points="1152.5,-0.5 1152.5,-19.5 1199.5,-19.5 1199.5,-0.5 1152.5,-0.5"/>
<text text-anchor="middle" x="1176" y="-7.5" font-family="Helvetica,sans-Serif" font-size="10.00">errno.h</text>
</a>
</g>
</g>
<!-- Node14&#45;&gt;Node16 -->
<g id="edge16" class="edge"><title>Node14&#45;&gt;Node16</title>
<path fill="none" stroke="midnightblue" d="M936.416,-57.8021C939.315,-57.177 942.21,-56.5673 945,-56 1029.57,-38.8058 1054.07,-39.6965 1142.36,-19.9753"/>
<polygon fill="midnightblue" stroke="midnightblue" points="1143.29,-23.3538 1152.27,-17.7355 1141.74,-16.5259 1143.29,-23.3538"/>
</g>
<!-- Node17 -->
<g id="node17" class="node"><title>Node17</title>
<g id="a_node17"><a xlink:title=" ">
<polygon fill="white" stroke="#bfbfbf" points="1217.5,-0.5 1217.5,-19.5 1260.5,-19.5 1260.5,-0.5 1217.5,-0.5"/>
<text text-anchor="middle" x="1239" y="-7.5" font-family="Helvetica,sans-Serif" font-size="10.00">fcntl.h</text>
</a>
</g>
</g>
<!-- Node14&#45;&gt;Node17 -->
<g id="edge17" class="edge"><title>Node14&#45;&gt;Node17</title>
<path fill="none" stroke="midnightblue" d="M936.391,-57.6697C939.295,-57.0724 942.198,-56.5053 945,-56 1058.35,-35.5581 1091.47,-44.5605 1207.49,-20.0441"/>
<polygon fill="midnightblue" stroke="midnightblue" points="1208.43,-23.4209 1217.47,-17.8956 1206.96,-16.5776 1208.43,-23.4209"/>
</g>
<!-- Node18 -->
<g id="node18" class="node"><title>Node18</title>
<g id="a_node18"><a xlink:title=" ">
<polygon fill="white" stroke="#bfbfbf" points="674.5,-0.5 674.5,-19.5 723.5,-19.5 723.5,-0.5 674.5,-0.5"/>
<text text-anchor="middle" x="699" y="-7.5" font-family="Helvetica,sans-Serif" font-size="10.00">netdb.h</text>
</a>
</g>
</g>
<!-- Node14&#45;&gt;Node18 -->
<g id="edge18" class="edge"><title>Node14&#45;&gt;Node18</title>
<path fill="none" stroke="midnightblue" d="M873.718,-56.9812C841.009,-48.5706 787.928,-34.8491 733.644,-20.4189"/>
<polygon fill="midnightblue" stroke="midnightblue" points="734.422,-17.004 723.858,-17.813 732.62,-23.7683 734.422,-17.004"/>
</g>
<!-- Node19 -->
<g id="node19" class="node"><title>Node19</title>
<g id="a_node19"><a xlink:title=" ">
<polygon fill="white" stroke="#bfbfbf" points="741.5,-0.5 741.5,-19.5 806.5,-19.5 806.5,-0.5 741.5,-0.5"/>
<text text-anchor="middle" x="774" y="-7.5" font-family="Helvetica,sans-Serif" font-size="10.00">netinet/in.h</text>
</a>
</g>
</g>
<!-- Node14&#45;&gt;Node19 -->
<g id="edge19" class="edge"><title>Node14&#45;&gt;Node19</title>
<path fill="none" stroke="midnightblue" d="M884.243,-56.4435C862.684,-47.5566 828.737,-33.5632 804.206,-23.4514"/>
<polygon fill="midnightblue" stroke="midnightblue" points="805.239,-20.0917 794.66,-19.5164 802.572,-26.5634 805.239,-20.0917"/>
</g>
<!-- Node20 -->
<g id="node20" class="node"><title>Node20</title>
<g id="a_node20"><a xlink:title=" ">
<polygon fill="white" stroke="#bfbfbf" points="824.5,-0.5 824.5,-19.5 897.5,-19.5 897.5,-0.5 824.5,-0.5"/>
<text text-anchor="middle" x="861" y="-7.5" font-family="Helvetica,sans-Serif" font-size="10.00">sys/socket.h</text>
</a>
</g>
</g>
<!-- Node14&#45;&gt;Node20 -->
<g id="edge20" class="edge"><title>Node14&#45;&gt;Node20</title>
<path fill="none" stroke="midnightblue" d="M897.734,-56.083C891.455,-48.3768 882.212,-37.0333 874.569,-27.6531"/>
<polygon fill="midnightblue" stroke="midnightblue" points="877.161,-25.2926 868.131,-19.7511 871.734,-29.7143 877.161,-25.2926"/>
</g>
<!-- Node21 -->
<g id="node21" class="node"><title>Node21</title>
<g id="a_node21"><a xlink:title=" ">
<polygon fill="white" stroke="#bfbfbf" points="916,-0.5 916,-19.5 984,-19.5 984,-0.5 916,-0.5"/>
<text text-anchor="middle" x="950" y="-7.5" font-family="Helvetica,sans-Serif" font-size="10.00">sys/types.h</text>
</a>
</g>
</g>
<!-- Node14&#45;&gt;Node21 -->
<g id="edge21" class="edge"><title>Node14&#45;&gt;Node21</title>
<path fill="none" stroke="midnightblue" d="M912.431,-56.083C918.853,-48.3768 928.306,-37.0333 936.122,-27.6531"/>
<polygon fill="midnightblue" stroke="midnightblue" points="938.994,-29.674 942.707,-19.7511 933.617,-25.1927 938.994,-29.674"/>
</g>
<!-- Node22 -->
<g id="node22" class="node"><title>Node22</title>
<g id="a_node22"><a xlink:title=" ">
<polygon fill="white" stroke="#bfbfbf" points="1002.5,-0.5 1002.5,-19.5 1053.5,-19.5 1053.5,-0.5 1002.5,-0.5"/>
<text text-anchor="middle" x="1028" y="-7.5" font-family="Helvetica,sans-Serif" font-size="10.00">unistd.h</text>
</a>
</g>
</g>
<!-- Node14&#45;&gt;Node22 -->
<g id="edge22" class="edge"><title>Node14&#45;&gt;Node22</title>
<path fill="none" stroke="midnightblue" d="M924.49,-56.4435C944.642,-47.5961 976.323,-33.6875 999.331,-23.5865"/>
<polygon fill="midnightblue" stroke="midnightblue" points="1000.85,-26.7411 1008.6,-19.5164 998.038,-20.3316 1000.85,-26.7411"/>
</g>
<!-- Node23&#45;&gt;Node7 -->
<g id="edge26" class="edge"><title>Node23&#45;&gt;Node7</title>
<path fill="none" stroke="midnightblue" d="M274.315,-114.092C271.183,-113.351 268.026,-112.637 265,-112 175.411,-93.1502 149.104,-96.5853 56.1636,-76.0704"/>
<polygon fill="midnightblue" stroke="midnightblue" points="56.8703,-72.642 46.3469,-73.8701 55.3393,-79.4725 56.8703,-72.642"/>
</g>
<!-- Node23&#45;&gt;Node8 -->
<g id="edge28" class="edge"><title>Node23&#45;&gt;Node8</title>
<path fill="none" stroke="midnightblue" d="M281.352,-112.444C261.035,-103.596 229.097,-89.6875 205.902,-79.5865"/>
<polygon fill="midnightblue" stroke="midnightblue" points="207.122,-76.3002 196.556,-75.5164 204.327,-82.7181 207.122,-76.3002"/>
</g>
<!-- Node23&#45;&gt;Node12 -->
<g id="edge25" class="edge"><title>Node23&#45;&gt;Node12</title>
<path fill="none" stroke="midnightblue" d="M327.867,-118.151C379.256,-112.455 495.145,-98.4266 601.715,-76.05"/>
<polygon fill="midnightblue" stroke="midnightblue" points="602.615,-79.4369 611.666,-73.9299 601.156,-72.5905 602.615,-79.4369"/>
</g>
<!-- Node24 -->
<g id="node24" class="node"><title>Node24</title>
<g id="a_node24"><a xlink:title=" ">
<polygon fill="white" stroke="#bfbfbf" points="64,-56.5 64,-75.5 128,-75.5 128,-56.5 64,-56.5"/>
<text text-anchor="middle" x="96" y="-63.5" font-family="Helvetica,sans-Serif" font-size="10.00">string_view</text>
</a>
</g>
</g>
<!-- Node23&#45;&gt;Node24 -->
<g id="edge27" class="edge"><title>Node23&#45;&gt;Node24</title>
<path fill="none" stroke="midnightblue" d="M274.2,-113.94C239.582,-104.822 178.936,-88.8464 138.127,-78.0969"/>
<polygon fill="midnightblue" stroke="midnightblue" points="138.769,-74.6467 128.207,-75.4839 136.986,-81.4158 138.769,-74.6467"/>
</g>
<!-- Node25 -->
<g id="node25" class="node"><title>Node25</title>
<g id="a_node25"><a xlink:href="useful__base__types_8h.html" target="_top" xlink:title=" ">
<polygon fill="white" stroke="black" points="954,-56.5 954,-75.5 1060,-75.5 1060,-56.5 954,-56.5"/>
<text text-anchor="middle" x="1007" y="-63.5" font-family="Helvetica,sans-Serif" font-size="10.00">useful_base_types.h</text>
</a>
</g>
</g>
<!-- Node23&#45;&gt;Node25 -->
<g id="edge29" class="edge"><title>Node23&#45;&gt;Node25</title>
<path fill="none" stroke="midnightblue" d="M327.757,-118.078C345.646,-116.186 369.716,-113.755 391,-112 633.665,-91.9884 697.92,-101.484 943.975,-76.0245"/>
<polygon fill="midnightblue" stroke="midnightblue" points="944.352,-79.5043 953.935,-74.9853 943.626,-72.5421 944.352,-79.5043"/>
</g>
<!-- Node26&#45;&gt;Node7 -->
<g id="edge35" class="edge"><title>Node26&#45;&gt;Node7</title>
<path fill="none" stroke="midnightblue" d="M400.089,-118.756C334.392,-111.963 138.981,-91.251 56.2913,-75.9351"/>
<polygon fill="midnightblue" stroke="midnightblue" points="56.8025,-72.4691 46.319,-74.001 55.4696,-79.341 56.8025,-72.4691"/>
</g>
<!-- Node26&#45;&gt;Node8 -->
<g id="edge37" class="edge"><title>Node26&#45;&gt;Node8</title>
<path fill="none" stroke="midnightblue" d="M400.446,-116.308C364.689,-108.514 290.601,-92.3324 217.8,-76.1692"/>
<polygon fill="midnightblue" stroke="midnightblue" points="218.526,-72.7454 208.005,-73.993 217.008,-79.5787 218.526,-72.7454"/>
</g>
<!-- Node26&#45;&gt;Node13 -->
<g id="edge36" class="edge"><title>Node26&#45;&gt;Node13</title>
<path fill="none" stroke="midnightblue" d="M443.774,-118.671C497.481,-112.826 640.76,-96.6298 771.635,-75.959"/>
<polygon fill="midnightblue" stroke="midnightblue" points="772.512,-79.3636 781.837,-74.3344 771.411,-72.4507 772.512,-79.3636"/>
</g>
<!-- Node26&#45;&gt;Node14 -->
<g id="edge39" class="edge"><title>Node26&#45;&gt;Node14</title>
<path fill="none" stroke="midnightblue" d="M443.787,-119.717C507.123,-115.792 696.777,-102.657 863.681,-76.0398"/>
<polygon fill="midnightblue" stroke="midnightblue" points="864.313,-79.4831 873.627,-74.433 863.196,-72.5727 864.313,-79.4831"/>
</g>
<!-- Node27 -->
<g id="node27" class="node"><title>Node27</title>
<g id="a_node27"><a xlink:title=" ">
<polygon fill="white" stroke="#bfbfbf" points="392,-56.5 392,-75.5 452,-75.5 452,-56.5 392,-56.5"/>
<text text-anchor="middle" x="422" y="-63.5" font-family="Helvetica,sans-Serif" font-size="10.00">fmt/core.h</text>
</a>
</g>
</g>
<!-- Node26&#45;&gt;Node27 -->
<g id="edge31" class="edge"><title>Node26&#45;&gt;Node27</title>
<path fill="none" stroke="midnightblue" d="M422,-112.083C422,-105.006 422,-94.8611 422,-85.9865"/>
<polygon fill="midnightblue" stroke="midnightblue" points="425.5,-85.751 422,-75.7511 418.5,-85.7511 425.5,-85.751"/>
</g>
<!-- Node28 -->
<g id="node28" class="node"><title>Node28</title>
<g id="a_node28"><a xlink:title=" ">
<polygon fill="white" stroke="#bfbfbf" points="470,-56.5 470,-75.5 538,-75.5 538,-56.5 470,-56.5"/>
<text text-anchor="middle" x="504" y="-63.5" font-family="Helvetica,sans-Serif" font-size="10.00">fmt/format.h</text>
</a>
</g>
</g>
<!-- Node26&#45;&gt;Node28 -->
<g id="edge32" class="edge"><title>Node26&#45;&gt;Node28</title>
<path fill="none" stroke="midnightblue" d="M435.175,-112.324C447.847,-103.979 467.233,-91.2122 482.206,-81.3524"/>
<polygon fill="midnightblue" stroke="midnightblue" points="484.431,-84.0776 490.858,-75.6545 480.581,-78.2313 484.431,-84.0776"/>
</g>
<!-- Node29 -->
<g id="node29" class="node"><title>Node29</title>
<g id="a_node29"><a xlink:title=" ">
<polygon fill="white" stroke="#bfbfbf" points="556,-56.5 556,-75.5 594,-75.5 594,-56.5 556,-56.5"/>
<text text-anchor="middle" x="575" y="-63.5" font-family="Helvetica,sans-Serif" font-size="10.00">array</text>
</a>
</g>
</g>
<!-- Node26&#45;&gt;Node29 -->
<g id="edge33" class="edge"><title>Node26&#45;&gt;Node29</title>
<path fill="none" stroke="midnightblue" d="M443.597,-113.378C470.535,-103.87 516.67,-87.5869 546.489,-77.0627"/>
<polygon fill="midnightblue" stroke="midnightblue" points="547.66,-80.3612 555.925,-73.7325 545.33,-73.7603 547.66,-80.3612"/>
</g>
<!-- Node30 -->
<g id="node30" class="node"><title>Node30</title>
<g id="a_node30"><a xlink:title=" ">
<polygon fill="white" stroke="#bfbfbf" points="226,-56.5 226,-75.5 272,-75.5 272,-56.5 226,-56.5"/>
<text text-anchor="middle" x="249" y="-63.5" font-family="Helvetica,sans-Serif" font-size="10.00">chrono</text>
</a>
</g>
</g>
<!-- Node26&#45;&gt;Node30 -->
<g id="edge34" class="edge"><title>Node26&#45;&gt;Node30</title>
<path fill="none" stroke="midnightblue" d="M400.439,-114.27C370.678,-104.981 316.749,-88.1471 281.926,-77.2776"/>
<polygon fill="midnightblue" stroke="midnightblue" points="282.803,-73.8848 272.214,-74.2461 280.717,-80.5668 282.803,-73.8848"/>
</g>
<!-- Node31 -->
<g id="node31" class="node"><title>Node31</title>
<g id="a_node31"><a xlink:title=" ">
<polygon fill="white" stroke="#bfbfbf" points="290.5,-56.5 290.5,-75.5 373.5,-75.5 373.5,-56.5 290.5,-56.5"/>
<text text-anchor="middle" x="332" y="-63.5" font-family="Helvetica,sans-Serif" font-size="10.00">unordered_map</text>
</a>
</g>
</g>
<!-- Node26&#45;&gt;Node31 -->
<g id="edge38" class="edge"><title>Node26&#45;&gt;Node31</title>
<path fill="none" stroke="midnightblue" d="M407.54,-112.324C393.5,-103.9 371.952,-90.9709 355.457,-81.0741"/>
<polygon fill="midnightblue" stroke="midnightblue" points="356.8,-77.7983 346.424,-75.6545 353.198,-83.8007 356.8,-77.7983"/>
</g>
<!-- Node32&#45;&gt;Node13 -->
<g id="edge42" class="edge"><title>Node32&#45;&gt;Node13</title>
<path fill="none" stroke="midnightblue" d="M783.101,-112.083C789.237,-104.377 798.27,-93.0333 805.739,-83.6531"/>
<polygon fill="midnightblue" stroke="midnightblue" points="808.54,-85.7542 812.032,-75.7511 803.064,-81.3936 808.54,-85.7542"/>
</g>
<!-- Node32&#45;&gt;Node14 -->
<g id="edge43" class="edge"><title>Node32&#45;&gt;Node14</title>
<path fill="none" stroke="midnightblue" d="M796.44,-112.444C817.67,-103.557 851.099,-89.5632 875.255,-79.4514"/>
<polygon fill="midnightblue" stroke="midnightblue" points="876.782,-82.6064 884.655,-75.5164 874.079,-76.1493 876.782,-82.6064"/>
</g>
<!-- Node33&#45;&gt;Node14 -->
<g id="edge45" class="edge"><title>Node33&#45;&gt;Node14</title>
<path fill="none" stroke="midnightblue" d="M833.979,-168.422C837.261,-155.407 844.713,-130.255 857,-112 864.597,-100.713 875.515,-90.1874 885.02,-82.1582"/>
<polygon fill="midnightblue" stroke="midnightblue" points="887.319,-84.8005 892.89,-75.7886 882.915,-79.3594 887.319,-84.8005"/>
</g>
<!-- Node33&#45;&gt;Node25 -->
<g id="edge49" class="edge"><title>Node33&#45;&gt;Node25</title>
<path fill="none" stroke="midnightblue" d="M880.272,-169.384C907.944,-163.074 942.029,-151.802 967,-132 982.372,-119.81 993.343,-99.9776 999.862,-85.4205"/>
<polygon fill="midnightblue" stroke="midnightblue" points="1003.2,-86.5144 1003.82,-75.9378 996.738,-83.8174 1003.2,-86.5144"/>
</g>
<!-- Node34 -->
<g id="node34" class="node"><title>Node34</title>
<g id="a_node34"><a xlink:href="sys__error__code_8h.html" target="_top" xlink:title=" ">
<polygon fill="white" stroke="black" points="866,-112.5 866,-131.5 958,-131.5 958,-112.5 866,-112.5"/>
<text text-anchor="middle" x="912" y="-119.5" font-family="Helvetica,sans-Serif" font-size="10.00">sys_error_code.h</text>
</a>
</g>
</g>
<!-- Node33&#45;&gt;Node34 -->
<g id="edge46" class="edge"><title>Node33&#45;&gt;Node34</title>
<path fill="none" stroke="midnightblue" d="M844.853,-168.324C857.216,-159.979 876.13,-147.212 890.737,-137.352"/>
<polygon fill="midnightblue" stroke="midnightblue" points="892.848,-140.15 899.179,-131.655 888.932,-134.348 892.848,-140.15"/>
</g>
<!-- Node34&#45;&gt;Node14 -->
<g id="edge47" class="edge"><title>Node34&#45;&gt;Node14</title>
<path fill="none" stroke="midnightblue" d="M910.844,-112.083C909.916,-104.927 908.582,-94.6353 907.423,-85.6911"/>
<polygon fill="midnightblue" stroke="midnightblue" points="910.891,-85.2181 906.134,-75.7511 903.949,-86.1181 910.891,-85.2181"/>
</g>
<!-- Node34&#45;&gt;Node25 -->
<g id="edge48" class="edge"><title>Node34&#45;&gt;Node25</title>
<path fill="none" stroke="midnightblue" d="M927.263,-112.324C942.221,-103.822 965.255,-90.7288 982.727,-80.7975"/>
<polygon fill="midnightblue" stroke="midnightblue" points="984.81,-83.639 991.774,-75.6545 981.351,-77.5534 984.81,-83.639"/>
</g>
</g>
</svg>
