<?xml version="1.0" encoding="UTF-8" standalone="no"?>
<!DOCTYPE svg PUBLIC "-//W3C//DTD SVG 1.1//EN"
 "http://www.w3.org/Graphics/SVG/1.1/DTD/svg11.dtd">
<!-- Generated by graphviz version 2.38.0 (20140413.2041)
 -->
<!-- Title: C:/projects/ndt/sources/include/ndt/bin_rw.h Pages: 1 -->
<svg width="1134pt" height="207pt"
 viewBox="0.00 0.00 1134.00 207.00" xmlns="http://www.w3.org/2000/svg" xmlns:xlink="http://www.w3.org/1999/xlink">
<g id="graph0" class="graph" transform="scale(1 1) rotate(0) translate(4 203)">
<title>C:/projects/ndt/sources/include/ndt/bin_rw.h</title>
<polygon fill="white" stroke="none" points="-4,4 -4,-203 1130,-203 1130,4 -4,4"/>
<!-- Node1 -->
<g id="node1" class="node"><title>Node1</title>
<g id="a_node1"><a xlink:title=" ">
<polygon fill="#bfbfbf" stroke="black" points="424,-168.5 424,-198.5 542,-198.5 542,-168.5 424,-168.5"/>
<text text-anchor="start" x="432" y="-186.5" font-family="Helvetica,sans-Serif" font-size="10.00">C:/projects/ndt/sources</text>
<text text-anchor="middle" x="483" y="-175.5" font-family="Helvetica,sans-Serif" font-size="10.00">/include/ndt/bin_rw.h</text>
</a>
</g>
</g>
<!-- Node2 -->
<g id="node2" class="node"><title>Node2</title>
<g id="a_node2"><a xlink:title=" ">
<polygon fill="white" stroke="#bfbfbf" points="246,-112.5 246,-131.5 302,-131.5 302,-112.5 246,-112.5"/>
<text text-anchor="middle" x="274" y="-119.5" font-family="Helvetica,sans-Serif" font-size="10.00">algorithm</text>
</a>
</g>
</g>
<!-- Node1&#45;&gt;Node2 -->
<g id="edge1" class="edge"><title>Node1&#45;&gt;Node2</title>
<path fill="none" stroke="midnightblue" d="M433.735,-168.475C396.549,-157.888 346.269,-143.574 312.123,-133.853"/>
<polygon fill="midnightblue" stroke="midnightblue" points="312.653,-130.365 302.076,-130.993 310.736,-137.097 312.653,-130.365"/>
</g>
<!-- Node3 -->
<g id="node3" class="node"><title>Node3</title>
<g id="a_node3"><a xlink:title=" ">
<polygon fill="white" stroke="#bfbfbf" points="876,-56.5 876,-75.5 922,-75.5 922,-56.5 876,-56.5"/>
<text text-anchor="middle" x="899" y="-63.5" font-family="Helvetica,sans-Serif" font-size="10.00">cstring</text>
</a>
</g>
</g>
<!-- Node1&#45;&gt;Node3 -->
<g id="edge2" class="edge"><title>Node1&#45;&gt;Node3</title>
<path fill="none" stroke="midnightblue" d="M533.951,-168.432C605.642,-148.624 740.649,-111.271 866.143,-76.2324"/>
<polygon fill="midnightblue" stroke="midnightblue" points="867.241,-79.5599 875.931,-73.499 865.358,-72.8179 867.241,-79.5599"/>
</g>
<!-- Node4 -->
<g id="node4" class="node"><title>Node4</title>
<g id="a_node4"><a xlink:title=" ">
<polygon fill="white" stroke="#bfbfbf" points="346,-56.5 346,-75.5 408,-75.5 408,-56.5 346,-56.5"/>
<text text-anchor="middle" x="377" y="-63.5" font-family="Helvetica,sans-Serif" font-size="10.00">type_traits</text>
</a>
</g>
</g>
<!-- Node1&#45;&gt;Node4 -->
<g id="edge3" class="edge"><title>Node1&#45;&gt;Node4</title>
<path fill="none" stroke="midnightblue" d="M470.002,-168.337C450.209,-146.77 412.621,-105.813 391.803,-83.1298"/>
<polygon fill="midnightblue" stroke="midnightblue" points="394.297,-80.6705 384.956,-75.6695 389.139,-85.4036 394.297,-80.6705"/>
</g>
<!-- Node5 -->
<g id="node5" class="node"><title>Node5</title>
<g id="a_node5"><a xlink:href="buffer_8h.html" target="_top" xlink:title=" ">
<polygon fill="white" stroke="black" points="320,-112.5 320,-131.5 368,-131.5 368,-112.5 320,-112.5"/>
<text text-anchor="middle" x="344" y="-119.5" font-family="Helvetica,sans-Serif" font-size="10.00">buffer.h</text>
</a>
</g>
</g>
<!-- Node1&#45;&gt;Node5 -->
<g id="edge4" class="edge"><title>Node1&#45;&gt;Node5</title>
<path fill="none" stroke="midnightblue" d="M450.059,-168.399C426.841,-158.461 396.014,-145.265 373.581,-135.662"/>
<polygon fill="midnightblue" stroke="midnightblue" points="374.796,-132.375 364.226,-131.658 372.042,-138.811 374.796,-132.375"/>
</g>
<!-- Node19 -->
<g id="node19" class="node"><title>Node19</title>
<g id="a_node19"><a xlink:href="endian_8h.html" target="_top" xlink:title=" ">
<polygon fill="white" stroke="black" points="872.5,-112.5 872.5,-131.5 925.5,-131.5 925.5,-112.5 872.5,-112.5"/>
<text text-anchor="middle" x="899" y="-119.5" font-family="Helvetica,sans-Serif" font-size="10.00">endian.h</text>
</a>
</g>
</g>
<!-- Node1&#45;&gt;Node19 -->
<g id="edge20" class="edge"><title>Node1&#45;&gt;Node19</title>
<path fill="none" stroke="midnightblue" d="M542.161,-174.038C629.392,-161.562 789.966,-138.595 862.151,-128.27"/>
<polygon fill="midnightblue" stroke="midnightblue" points="862.737,-131.722 872.14,-126.842 861.746,-124.793 862.737,-131.722"/>
</g>
<!-- Node23 -->
<g id="node23" class="node"><title>Node23</title>
<g id="a_node23"><a xlink:href="utils_8h.html" target="_top" xlink:title=" ">
<polygon fill="white" stroke="black" points="537.5,-112.5 537.5,-131.5 580.5,-131.5 580.5,-112.5 537.5,-112.5"/>
<text text-anchor="middle" x="559" y="-119.5" font-family="Helvetica,sans-Serif" font-size="10.00">utils.h</text>
</a>
</g>
</g>
<!-- Node1&#45;&gt;Node23 -->
<g id="edge27" class="edge"><title>Node1&#45;&gt;Node23</title>
<path fill="none" stroke="midnightblue" d="M501.011,-168.399C512.738,-159.218 528.015,-147.258 539.945,-137.918"/>
<polygon fill="midnightblue" stroke="midnightblue" points="542.225,-140.578 547.941,-131.658 537.91,-135.066 542.225,-140.578"/>
</g>
<!-- Node5&#45;&gt;Node4 -->
<g id="edge9" class="edge"><title>Node5&#45;&gt;Node4</title>
<path fill="none" stroke="midnightblue" d="M349.449,-112.083C354.014,-104.613 360.668,-93.7244 366.293,-84.5199"/>
<polygon fill="midnightblue" stroke="midnightblue" points="369.424,-86.109 371.652,-75.7511 363.451,-82.4588 369.424,-86.109"/>
</g>
<!-- Node6 -->
<g id="node6" class="node"><title>Node6</title>
<g id="a_node6"><a xlink:title=" ">
<polygon fill="white" stroke="#bfbfbf" points="106.5,-56.5 106.5,-75.5 155.5,-75.5 155.5,-56.5 106.5,-56.5"/>
<text text-anchor="middle" x="131" y="-63.5" font-family="Helvetica,sans-Serif" font-size="10.00">cassert</text>
</a>
</g>
</g>
<!-- Node5&#45;&gt;Node6 -->
<g id="edge5" class="edge"><title>Node5&#45;&gt;Node6</title>
<path fill="none" stroke="midnightblue" d="M319.868,-114.345C316.884,-113.544 313.874,-112.746 311,-112 249.344,-95.9936 231.409,-92.8315 165.573,-76.1078"/>
<polygon fill="midnightblue" stroke="midnightblue" points="166.056,-72.619 155.501,-73.5388 164.326,-79.4018 166.056,-72.619"/>
</g>
<!-- Node7 -->
<g id="node7" class="node"><title>Node7</title>
<g id="a_node7"><a xlink:title=" ">
<polygon fill="white" stroke="#bfbfbf" points="0,-0.5 0,-19.5 48,-19.5 48,-0.5 0,-0.5"/>
<text text-anchor="middle" x="24" y="-7.5" font-family="Helvetica,sans-Serif" font-size="10.00">cstddef</text>
</a>
</g>
</g>
<!-- Node5&#45;&gt;Node7 -->
<g id="edge6" class="edge"><title>Node5&#45;&gt;Node7</title>
<path fill="none" stroke="midnightblue" d="M319.918,-114.135C316.926,-113.37 313.9,-112.638 311,-112 216.803,-91.2858 183.968,-117.697 97,-76 72.9859,-64.4863 50.9804,-42.6613 37.5457,-27.4945"/>
<polygon fill="midnightblue" stroke="midnightblue" points="40.1697,-25.1777 31.0054,-19.8612 34.8541,-29.7323 40.1697,-25.1777"/>
</g>
<!-- Node8 -->
<g id="node8" class="node"><title>Node8</title>
<g id="a_node8"><a xlink:title=" ">
<polygon fill="white" stroke="#bfbfbf" points="426,-56.5 426,-75.5 472,-75.5 472,-56.5 426,-56.5"/>
<text text-anchor="middle" x="449" y="-63.5" font-family="Helvetica,sans-Serif" font-size="10.00">cstdint</text>
</a>
</g>
</g>
<!-- Node5&#45;&gt;Node8 -->
<g id="edge7" class="edge"><title>Node5&#45;&gt;Node8</title>
<path fill="none" stroke="midnightblue" d="M360.87,-112.324C377.709,-103.664 403.807,-90.2424 423.238,-80.249"/>
<polygon fill="midnightblue" stroke="midnightblue" points="424.88,-83.3405 432.172,-75.6545 421.678,-77.1155 424.88,-83.3405"/>
</g>
<!-- Node9 -->
<g id="node9" class="node"><title>Node9</title>
<g id="a_node9"><a xlink:title=" ">
<polygon fill="white" stroke="#bfbfbf" points="174,-56.5 174,-75.5 248,-75.5 248,-56.5 174,-56.5"/>
<text text-anchor="middle" x="211" y="-63.5" font-family="Helvetica,sans-Serif" font-size="10.00">system_error</text>
</a>
</g>
</g>
<!-- Node5&#45;&gt;Node9 -->
<g id="edge8" class="edge"><title>Node5&#45;&gt;Node9</title>
<path fill="none" stroke="midnightblue" d="M322.926,-112.444C300.94,-103.517 266.266,-89.4387 241.336,-79.3168"/>
<polygon fill="midnightblue" stroke="midnightblue" points="242.558,-76.0355 231.976,-75.5164 239.924,-82.5213 242.558,-76.0355"/>
</g>
<!-- Node10 -->
<g id="node10" class="node"><title>Node10</title>
<g id="a_node10"><a xlink:href="common_8h.html" target="_top" xlink:title="Header with typedefs to make type designation platform independent.">
<polygon fill="white" stroke="black" points="266,-56.5 266,-75.5 328,-75.5 328,-56.5 266,-56.5"/>
<text text-anchor="middle" x="297" y="-63.5" font-family="Helvetica,sans-Serif" font-size="10.00">common.h</text>
</a>
</g>
</g>
<!-- Node5&#45;&gt;Node10 -->
<g id="edge10" class="edge"><title>Node5&#45;&gt;Node10</title>
<path fill="none" stroke="midnightblue" d="M336.239,-112.083C329.463,-104.298 319.457,-92.8015 311.245,-83.3665"/>
<polygon fill="midnightblue" stroke="midnightblue" points="313.822,-80.9963 304.617,-75.7511 308.542,-85.592 313.822,-80.9963"/>
</g>
<!-- Node10&#45;&gt;Node7 -->
<g id="edge19" class="edge"><title>Node10&#45;&gt;Node7</title>
<path fill="none" stroke="midnightblue" d="M265.585,-57.7968C262.686,-57.1729 259.791,-56.5648 257,-56 171.59,-38.7128 146.822,-39.7979 58.0535,-20.074"/>
<polygon fill="midnightblue" stroke="midnightblue" points="58.6134,-16.6126 48.0891,-17.8332 57.0775,-23.442 58.6134,-16.6126"/>
</g>
<!-- Node11 -->
<g id="node11" class="node"><title>Node11</title>
<g id="a_node11"><a xlink:title=" ">
<polygon fill="white" stroke="#bfbfbf" points="464,-0.5 464,-19.5 526,-19.5 526,-0.5 464,-0.5"/>
<text text-anchor="middle" x="495" y="-7.5" font-family="Helvetica,sans-Serif" font-size="10.00">arpa/inet.h</text>
</a>
</g>
</g>
<!-- Node10&#45;&gt;Node11 -->
<g id="edge11" class="edge"><title>Node10&#45;&gt;Node11</title>
<path fill="none" stroke="midnightblue" d="M328.374,-56.4435C362.263,-47.2011 416.403,-32.4356 453.724,-22.2572"/>
<polygon fill="midnightblue" stroke="midnightblue" points="455.046,-25.5243 463.773,-19.5164 453.205,-18.771 455.046,-25.5243"/>
</g>
<!-- Node12 -->
<g id="node12" class="node"><title>Node12</title>
<g id="a_node12"><a xlink:title=" ">
<polygon fill="white" stroke="#bfbfbf" points="544.5,-0.5 544.5,-19.5 591.5,-19.5 591.5,-0.5 544.5,-0.5"/>
<text text-anchor="middle" x="568" y="-7.5" font-family="Helvetica,sans-Serif" font-size="10.00">errno.h</text>
</a>
</g>
</g>
<!-- Node10&#45;&gt;Node12 -->
<g id="edge12" class="edge"><title>Node10&#45;&gt;Node12</title>
<path fill="none" stroke="midnightblue" d="M328.416,-57.8021C331.315,-57.177 334.21,-56.5673 337,-56 421.568,-38.8058 446.067,-39.6965 534.357,-19.9753"/>
<polygon fill="midnightblue" stroke="midnightblue" points="535.286,-23.3538 544.269,-17.7355 533.743,-16.5259 535.286,-23.3538"/>
</g>
<!-- Node13 -->
<g id="node13" class="node"><title>Node13</title>
<g id="a_node13"><a xlink:title=" ">
<polygon fill="white" stroke="#bfbfbf" points="609.5,-0.5 609.5,-19.5 652.5,-19.5 652.5,-0.5 609.5,-0.5"/>
<text text-anchor="middle" x="631" y="-7.5" font-family="Helvetica,sans-Serif" font-size="10.00">fcntl.h</text>
</a>
</g>
</g>
<!-- Node10&#45;&gt;Node13 -->
<g id="edge13" class="edge"><title>Node10&#45;&gt;Node13</title>
<path fill="none" stroke="midnightblue" d="M328.391,-57.6713C331.295,-57.0736 334.198,-56.506 337,-56 449.926,-35.6054 482.81,-44.0169 599.388,-19.8217"/>
<polygon fill="midnightblue" stroke="midnightblue" points="600.361,-23.1935 609.422,-17.7025 598.915,-16.3446 600.361,-23.1935"/>
</g>
<!-- Node14 -->
<g id="node14" class="node"><title>Node14</title>
<g id="a_node14"><a xlink:title=" ">
<polygon fill="white" stroke="#bfbfbf" points="66.5,-0.5 66.5,-19.5 115.5,-19.5 115.5,-0.5 66.5,-0.5"/>
<text text-anchor="middle" x="91" y="-7.5" font-family="Helvetica,sans-Serif" font-size="10.00">netdb.h</text>
</a>
</g>
</g>
<!-- Node10&#45;&gt;Node14 -->
<g id="edge14" class="edge"><title>Node10&#45;&gt;Node14</title>
<path fill="none" stroke="midnightblue" d="M265.718,-56.9812C233.009,-48.5706 179.928,-34.8491 125.644,-20.4189"/>
<polygon fill="midnightblue" stroke="midnightblue" points="126.422,-17.004 115.858,-17.813 124.62,-23.7683 126.422,-17.004"/>
</g>
<!-- Node15 -->
<g id="node15" class="node"><title>Node15</title>
<g id="a_node15"><a xlink:title=" ">
<polygon fill="white" stroke="#bfbfbf" points="133.5,-0.5 133.5,-19.5 198.5,-19.5 198.5,-0.5 133.5,-0.5"/>
<text text-anchor="middle" x="166" y="-7.5" font-family="Helvetica,sans-Serif" font-size="10.00">netinet/in.h</text>
</a>
</g>
</g>
<!-- Node10&#45;&gt;Node15 -->
<g id="edge15" class="edge"><title>Node10&#45;&gt;Node15</title>
<path fill="none" stroke="midnightblue" d="M276.243,-56.4435C254.684,-47.5566 220.737,-33.5632 196.206,-23.4514"/>
<polygon fill="midnightblue" stroke="midnightblue" points="197.239,-20.0917 186.66,-19.5164 194.572,-26.5634 197.239,-20.0917"/>
</g>
<!-- Node16 -->
<g id="node16" class="node"><title>Node16</title>
<g id="a_node16"><a xlink:title=" ">
<polygon fill="white" stroke="#bfbfbf" points="216.5,-0.5 216.5,-19.5 289.5,-19.5 289.5,-0.5 216.5,-0.5"/>
<text text-anchor="middle" x="253" y="-7.5" font-family="Helvetica,sans-Serif" font-size="10.00">sys/socket.h</text>
</a>
</g>
</g>
<!-- Node10&#45;&gt;Node16 -->
<g id="edge16" class="edge"><title>Node10&#45;&gt;Node16</title>
<path fill="none" stroke="midnightblue" d="M289.734,-56.083C283.455,-48.3768 274.212,-37.0333 266.569,-27.6531"/>
<polygon fill="midnightblue" stroke="midnightblue" points="269.161,-25.2926 260.131,-19.7511 263.734,-29.7143 269.161,-25.2926"/>
</g>
<!-- Node17 -->
<g id="node17" class="node"><title>Node17</title>
<g id="a_node17"><a xlink:title=" ">
<polygon fill="white" stroke="#bfbfbf" points="308,-0.5 308,-19.5 376,-19.5 376,-0.5 308,-0.5"/>
<text text-anchor="middle" x="342" y="-7.5" font-family="Helvetica,sans-Serif" font-size="10.00">sys/types.h</text>
</a>
</g>
</g>
<!-- Node10&#45;&gt;Node17 -->
<g id="edge17" class="edge"><title>Node10&#45;&gt;Node17</title>
<path fill="none" stroke="midnightblue" d="M304.431,-56.083C310.853,-48.3768 320.306,-37.0333 328.122,-27.6531"/>
<polygon fill="midnightblue" stroke="midnightblue" points="330.994,-29.674 334.707,-19.7511 325.617,-25.1927 330.994,-29.674"/>
</g>
<!-- Node18 -->
<g id="node18" class="node"><title>Node18</title>
<g id="a_node18"><a xlink:title=" ">
<polygon fill="white" stroke="#bfbfbf" points="394.5,-0.5 394.5,-19.5 445.5,-19.5 445.5,-0.5 394.5,-0.5"/>
<text text-anchor="middle" x="420" y="-7.5" font-family="Helvetica,sans-Serif" font-size="10.00">unistd.h</text>
</a>
</g>
</g>
<!-- Node10&#45;&gt;Node18 -->
<g id="edge18" class="edge"><title>Node10&#45;&gt;Node18</title>
<path fill="none" stroke="midnightblue" d="M316.49,-56.4435C336.642,-47.5961 368.323,-33.6875 391.331,-23.5865"/>
<polygon fill="midnightblue" stroke="midnightblue" points="392.852,-26.7411 400.601,-19.5164 390.038,-20.3316 392.852,-26.7411"/>
</g>
<!-- Node19&#45;&gt;Node3 -->
<g id="edge23" class="edge"><title>Node19&#45;&gt;Node3</title>
<path fill="none" stroke="midnightblue" d="M899,-112.083C899,-105.006 899,-94.8611 899,-85.9865"/>
<polygon fill="midnightblue" stroke="midnightblue" points="902.5,-85.751 899,-75.7511 895.5,-85.7511 902.5,-85.751"/>
</g>
<!-- Node19&#45;&gt;Node4 -->
<g id="edge25" class="edge"><title>Node19&#45;&gt;Node4</title>
<path fill="none" stroke="midnightblue" d="M872.465,-119.72C800.791,-116.01 597.195,-103.8 418.478,-76.0482"/>
<polygon fill="midnightblue" stroke="midnightblue" points="418.792,-72.5546 408.37,-74.4575 417.704,-79.4695 418.792,-72.5546"/>
</g>
<!-- Node19&#45;&gt;Node8 -->
<g id="edge22" class="edge"><title>Node19&#45;&gt;Node8</title>
<path fill="none" stroke="midnightblue" d="M872.363,-119.678C807.256,-116.119 634.821,-104.728 482.325,-75.9616"/>
<polygon fill="midnightblue" stroke="midnightblue" points="482.791,-72.4872 472.311,-74.0416 481.473,-79.362 482.791,-72.4872"/>
</g>
<!-- Node20 -->
<g id="node20" class="node"><title>Node20</title>
<g id="a_node20"><a xlink:title=" ">
<polygon fill="white" stroke="#bfbfbf" points="940.5,-56.5 940.5,-75.5 985.5,-75.5 985.5,-56.5 940.5,-56.5"/>
<text text-anchor="middle" x="963" y="-63.5" font-family="Helvetica,sans-Serif" font-size="10.00">climits</text>
</a>
</g>
</g>
<!-- Node19&#45;&gt;Node20 -->
<g id="edge21" class="edge"><title>Node19&#45;&gt;Node20</title>
<path fill="none" stroke="midnightblue" d="M909.283,-112.324C918.836,-104.263 933.28,-92.0765 944.784,-82.3695"/>
<polygon fill="midnightblue" stroke="midnightblue" points="947.144,-84.9577 952.53,-75.8339 942.63,-79.6076 947.144,-84.9577"/>
</g>
<!-- Node21 -->
<g id="node21" class="node"><title>Node21</title>
<g id="a_node21"><a xlink:title=" ">
<polygon fill="white" stroke="#bfbfbf" points="1004,-56.5 1004,-75.5 1068,-75.5 1068,-56.5 1004,-56.5"/>
<text text-anchor="middle" x="1036" y="-63.5" font-family="Helvetica,sans-Serif" font-size="10.00">string_view</text>
</a>
</g>
</g>
<!-- Node19&#45;&gt;Node21 -->
<g id="edge24" class="edge"><title>Node19&#45;&gt;Node21</title>
<path fill="none" stroke="midnightblue" d="M920.708,-112.444C943.355,-103.517 979.072,-89.4387 1004.75,-79.3168"/>
<polygon fill="midnightblue" stroke="midnightblue" points="1006.37,-82.4397 1014.39,-75.5164 1003.81,-75.9273 1006.37,-82.4397"/>
</g>
<!-- Node22 -->
<g id="node22" class="node"><title>Node22</title>
<g id="a_node22"><a xlink:title=" ">
<polygon fill="white" stroke="#bfbfbf" points="1086,-56.5 1086,-75.5 1126,-75.5 1126,-56.5 1086,-56.5"/>
<text text-anchor="middle" x="1106" y="-63.5" font-family="Helvetica,sans-Serif" font-size="10.00">utility</text>
</a>
</g>
</g>
<!-- Node19&#45;&gt;Node22 -->
<g id="edge26" class="edge"><title>Node19&#45;&gt;Node22</title>
<path fill="none" stroke="midnightblue" d="M925.656,-114.73C958.725,-106.851 1017.04,-92.6253 1075.92,-76.196"/>
<polygon fill="midnightblue" stroke="midnightblue" points="1077.08,-79.5071 1085.76,-73.4324 1075.19,-72.7681 1077.08,-79.5071"/>
</g>
<!-- Node23&#45;&gt;Node3 -->
<g id="edge32" class="edge"><title>Node23&#45;&gt;Node3</title>
<path fill="none" stroke="midnightblue" d="M580.829,-118.791C630.042,-113.604 753.498,-99.4364 865.873,-76.0097"/>
<polygon fill="midnightblue" stroke="midnightblue" points="866.609,-79.4315 875.668,-73.9377 865.16,-72.583 866.609,-79.4315"/>
</g>
<!-- Node23&#45;&gt;Node4 -->
<g id="edge34" class="edge"><title>Node23&#45;&gt;Node4</title>
<path fill="none" stroke="midnightblue" d="M537.408,-114.593C507.456,-105.707 452.806,-89.4918 415.707,-78.4846"/>
<polygon fill="midnightblue" stroke="midnightblue" points="416.327,-75.0176 405.744,-75.5285 414.336,-81.7285 416.327,-75.0176"/>
</g>
<!-- Node23&#45;&gt;Node9 -->
<g id="edge33" class="edge"><title>Node23&#45;&gt;Node9</title>
<path fill="none" stroke="midnightblue" d="M537.341,-118.116C489.12,-111.622 369.054,-95.05 258.145,-76.1334"/>
<polygon fill="midnightblue" stroke="midnightblue" points="258.578,-72.6566 248.13,-74.4144 257.394,-79.5557 258.578,-72.6566"/>
</g>
<!-- Node23&#45;&gt;Node10 -->
<g id="edge36" class="edge"><title>Node23&#45;&gt;Node10</title>
<path fill="none" stroke="midnightblue" d="M537.225,-116.746C499.052,-109.255 417.329,-93.0654 338.521,-76.2926"/>
<polygon fill="midnightblue" stroke="midnightblue" points="338.939,-72.8031 328.429,-74.138 337.478,-79.6488 338.939,-72.8031"/>
</g>
<!-- Node24 -->
<g id="node24" class="node"><title>Node24</title>
<g id="a_node24"><a xlink:title=" ">
<polygon fill="white" stroke="#bfbfbf" points="798,-56.5 798,-75.5 858,-75.5 858,-56.5 798,-56.5"/>
<text text-anchor="middle" x="828" y="-63.5" font-family="Helvetica,sans-Serif" font-size="10.00">fmt/core.h</text>
</a>
</g>
</g>
<!-- Node23&#45;&gt;Node24 -->
<g id="edge28" class="edge"><title>Node23&#45;&gt;Node24</title>
<path fill="none" stroke="midnightblue" d="M580.612,-117.022C619.829,-109.751 705.55,-93.6121 787.781,-76.2058"/>
<polygon fill="midnightblue" stroke="midnightblue" points="788.736,-79.5812 797.789,-74.0773 787.279,-72.7343 788.736,-79.5812"/>
</g>
<!-- Node25 -->
<g id="node25" class="node"><title>Node25</title>
<g id="a_node25"><a xlink:title=" ">
<polygon fill="white" stroke="#bfbfbf" points="490,-56.5 490,-75.5 558,-75.5 558,-56.5 490,-56.5"/>
<text text-anchor="middle" x="524" y="-63.5" font-family="Helvetica,sans-Serif" font-size="10.00">fmt/format.h</text>
</a>
</g>
</g>
<!-- Node23&#45;&gt;Node25 -->
<g id="edge29" class="edge"><title>Node23&#45;&gt;Node25</title>
<path fill="none" stroke="midnightblue" d="M553.22,-112.083C548.328,-104.534 541.173,-93.4948 535.167,-84.2298"/>
<polygon fill="midnightblue" stroke="midnightblue" points="538.048,-82.239 529.672,-75.7511 532.174,-86.0463 538.048,-82.239"/>
</g>
<!-- Node26 -->
<g id="node26" class="node"><title>Node26</title>
<g id="a_node26"><a xlink:title=" ">
<polygon fill="white" stroke="#bfbfbf" points="576,-56.5 576,-75.5 614,-75.5 614,-56.5 576,-56.5"/>
<text text-anchor="middle" x="595" y="-63.5" font-family="Helvetica,sans-Serif" font-size="10.00">array</text>
</a>
</g>
</g>
<!-- Node23&#45;&gt;Node26 -->
<g id="edge30" class="edge"><title>Node23&#45;&gt;Node26</title>
<path fill="none" stroke="midnightblue" d="M564.945,-112.083C569.977,-104.534 577.337,-93.4948 583.513,-84.2298"/>
<polygon fill="midnightblue" stroke="midnightblue" points="586.531,-86.0131 589.166,-75.7511 580.707,-82.1301 586.531,-86.0131"/>
</g>
<!-- Node27 -->
<g id="node27" class="node"><title>Node27</title>
<g id="a_node27"><a xlink:title=" ">
<polygon fill="white" stroke="#bfbfbf" points="632,-56.5 632,-75.5 678,-75.5 678,-56.5 632,-56.5"/>
<text text-anchor="middle" x="655" y="-63.5" font-family="Helvetica,sans-Serif" font-size="10.00">chrono</text>
</a>
</g>
</g>
<!-- Node23&#45;&gt;Node27 -->
<g id="edge31" class="edge"><title>Node23&#45;&gt;Node27</title>
<path fill="none" stroke="midnightblue" d="M574.424,-112.324C589.54,-103.822 612.815,-90.7288 630.471,-80.7975"/>
<polygon fill="midnightblue" stroke="midnightblue" points="632.614,-83.6077 639.614,-75.6545 629.183,-77.5066 632.614,-83.6077"/>
</g>
<!-- Node28 -->
<g id="node28" class="node"><title>Node28</title>
<g id="a_node28"><a xlink:title=" ">
<polygon fill="white" stroke="#bfbfbf" points="696.5,-56.5 696.5,-75.5 779.5,-75.5 779.5,-56.5 696.5,-56.5"/>
<text text-anchor="middle" x="738" y="-63.5" font-family="Helvetica,sans-Serif" font-size="10.00">unordered_map</text>
</a>
</g>
</g>
<!-- Node23&#45;&gt;Node28 -->
<g id="edge35" class="edge"><title>Node23&#45;&gt;Node28</title>
<path fill="none" stroke="midnightblue" d="M580.592,-114.486C610.085,-105.589 663.445,-89.4915 699.783,-78.5292"/>
<polygon fill="midnightblue" stroke="midnightblue" points="700.984,-81.8228 709.547,-75.5837 698.962,-75.1212 700.984,-81.8228"/>
</g>
</g>
</svg>
