<?xml version="1.0" encoding="UTF-8" standalone="no"?>
<!DOCTYPE svg PUBLIC "-//W3C//DTD SVG 1.1//EN"
 "http://www.w3.org/Graphics/SVG/1.1/DTD/svg11.dtd">
<!-- Generated by graphviz version 2.38.0 (20140413.2041)
 -->
<!-- Title: C:/projects/ndt/sources/include/ndt/bin_rw.h Pages: 1 -->
<svg width="1068pt" height="207pt"
 viewBox="0.00 0.00 1067.50 207.00" xmlns="http://www.w3.org/2000/svg" xmlns:xlink="http://www.w3.org/1999/xlink">
<g id="graph0" class="graph" transform="scale(1 1) rotate(0) translate(4 203)">
<title>C:/projects/ndt/sources/include/ndt/bin_rw.h</title>
<polygon fill="white" stroke="none" points="-4,4 -4,-203 1063.5,-203 1063.5,4 -4,4"/>
<!-- Node1 -->
<g id="node1" class="node"><title>Node1</title>
<g id="a_node1"><a xlink:title=" ">
<polygon fill="#bfbfbf" stroke="black" points="324.5,-168.5 324.5,-198.5 442.5,-198.5 442.5,-168.5 324.5,-168.5"/>
<text text-anchor="start" x="332.5" y="-186.5" font-family="Helvetica,sans-Serif" font-size="10.00">C:/projects/ndt/sources</text>
<text text-anchor="middle" x="383.5" y="-175.5" font-family="Helvetica,sans-Serif" font-size="10.00">/include/ndt/bin_rw.h</text>
</a>
</g>
</g>
<!-- Node2 -->
<g id="node2" class="node"><title>Node2</title>
<g id="a_node2"><a xlink:title=" ">
<polygon fill="white" stroke="#bfbfbf" points="145.5,-112.5 145.5,-131.5 201.5,-131.5 201.5,-112.5 145.5,-112.5"/>
<text text-anchor="middle" x="173.5" y="-119.5" font-family="Helvetica,sans-Serif" font-size="10.00">algorithm</text>
</a>
</g>
</g>
<!-- Node1&#45;&gt;Node2 -->
<g id="edge1" class="edge"><title>Node1&#45;&gt;Node2</title>
<path fill="none" stroke="midnightblue" d="M333.999,-168.475C296.475,-157.843 245.679,-143.451 211.363,-133.728"/>
<polygon fill="midnightblue" stroke="midnightblue" points="212.286,-130.352 201.711,-130.993 210.378,-137.087 212.286,-130.352"/>
</g>
<!-- Node3 -->
<g id="node3" class="node"><title>Node3</title>
<g id="a_node3"><a xlink:title=" ">
<polygon fill="white" stroke="#bfbfbf" points="627.5,-56.5 627.5,-75.5 673.5,-75.5 673.5,-56.5 627.5,-56.5"/>
<text text-anchor="middle" x="650.5" y="-63.5" font-family="Helvetica,sans-Serif" font-size="10.00">cstring</text>
</a>
</g>
</g>
<!-- Node1&#45;&gt;Node3 -->
<g id="edge2" class="edge"><title>Node1&#45;&gt;Node3</title>
<path fill="none" stroke="midnightblue" d="M415.973,-168.453C468.48,-145.739 571.2,-101.304 621.436,-79.5727"/>
<polygon fill="midnightblue" stroke="midnightblue" points="622.964,-82.725 630.753,-75.5423 620.185,-76.3003 622.964,-82.725"/>
</g>
<!-- Node4 -->
<g id="node4" class="node"><title>Node4</title>
<g id="a_node4"><a xlink:title=" ">
<polygon fill="white" stroke="#bfbfbf" points="169.5,-56.5 169.5,-75.5 231.5,-75.5 231.5,-56.5 169.5,-56.5"/>
<text text-anchor="middle" x="200.5" y="-63.5" font-family="Helvetica,sans-Serif" font-size="10.00">type_traits</text>
</a>
</g>
</g>
<!-- Node1&#45;&gt;Node4 -->
<g id="edge3" class="edge"><title>Node1&#45;&gt;Node4</title>
<path fill="none" stroke="midnightblue" d="M362.779,-168.422C341.363,-153.973 306.872,-130.982 276.5,-112 259.163,-101.165 239.27,-89.4096 224.186,-80.6319"/>
<polygon fill="midnightblue" stroke="midnightblue" points="225.888,-77.5731 215.481,-75.5861 222.378,-83.6292 225.888,-77.5731"/>
</g>
<!-- Node5 -->
<g id="node5" class="node"><title>Node5</title>
<g id="a_node5"><a xlink:href="buffer_8h.html" target="_top" xlink:title=" ">
<polygon fill="white" stroke="black" points="219.5,-112.5 219.5,-131.5 267.5,-131.5 267.5,-112.5 219.5,-112.5"/>
<text text-anchor="middle" x="243.5" y="-119.5" font-family="Helvetica,sans-Serif" font-size="10.00">buffer.h</text>
</a>
</g>
</g>
<!-- Node1&#45;&gt;Node5 -->
<g id="edge4" class="edge"><title>Node1&#45;&gt;Node5</title>
<path fill="none" stroke="midnightblue" d="M350.322,-168.399C326.937,-158.461 295.888,-145.265 273.294,-135.662"/>
<polygon fill="midnightblue" stroke="midnightblue" points="274.444,-132.348 263.871,-131.658 271.706,-138.79 274.444,-132.348"/>
</g>
<!-- Node19 -->
<g id="node19" class="node"><title>Node19</title>
<g id="a_node19"><a xlink:href="endian_8h.html" target="_top" xlink:title=" ">
<polygon fill="white" stroke="black" points="428,-112.5 428,-131.5 481,-131.5 481,-112.5 428,-112.5"/>
<text text-anchor="middle" x="454.5" y="-119.5" font-family="Helvetica,sans-Serif" font-size="10.00">endian.h</text>
</a>
</g>
</g>
<!-- Node1&#45;&gt;Node19 -->
<g id="edge20" class="edge"><title>Node1&#45;&gt;Node19</title>
<path fill="none" stroke="midnightblue" d="M400.326,-168.399C411.175,-159.308 425.277,-147.49 436.373,-138.191"/>
<polygon fill="midnightblue" stroke="midnightblue" points="438.752,-140.763 444.169,-131.658 434.256,-135.398 438.752,-140.763"/>
</g>
<!-- Node22 -->
<g id="node22" class="node"><title>Node22</title>
<g id="a_node22"><a xlink:href="utils_8h.html" target="_top" xlink:title=" ">
<polygon fill="white" stroke="black" points="659,-112.5 659,-131.5 702,-131.5 702,-112.5 659,-112.5"/>
<text text-anchor="middle" x="680.5" y="-119.5" font-family="Helvetica,sans-Serif" font-size="10.00">utils.h</text>
</a>
</g>
</g>
<!-- Node1&#45;&gt;Node22 -->
<g id="edge26" class="edge"><title>Node1&#45;&gt;Node22</title>
<path fill="none" stroke="midnightblue" d="M442.533,-170.674C504.471,-158.265 599.516,-139.224 648.643,-129.382"/>
<polygon fill="midnightblue" stroke="midnightblue" points="649.567,-132.767 658.685,-127.37 648.192,-125.903 649.567,-132.767"/>
</g>
<!-- Node5&#45;&gt;Node4 -->
<g id="edge9" class="edge"><title>Node5&#45;&gt;Node4</title>
<path fill="none" stroke="midnightblue" d="M236.399,-112.083C230.263,-104.377 221.23,-93.0333 213.761,-83.6531"/>
<polygon fill="midnightblue" stroke="midnightblue" points="216.436,-81.3936 207.468,-75.7511 210.96,-85.7542 216.436,-81.3936"/>
</g>
<!-- Node6 -->
<g id="node6" class="node"><title>Node6</title>
<g id="a_node6"><a xlink:title=" ">
<polygon fill="white" stroke="#bfbfbf" points="0,-56.5 0,-75.5 49,-75.5 49,-56.5 0,-56.5"/>
<text text-anchor="middle" x="24.5" y="-63.5" font-family="Helvetica,sans-Serif" font-size="10.00">cassert</text>
</a>
</g>
</g>
<!-- Node5&#45;&gt;Node6 -->
<g id="edge5" class="edge"><title>Node5&#45;&gt;Node6</title>
<path fill="none" stroke="midnightblue" d="M219.371,-114.333C216.387,-113.534 213.376,-112.74 210.5,-112 157.855,-98.4559 96.5257,-83.8428 59.1173,-75.0597"/>
<polygon fill="midnightblue" stroke="midnightblue" points="59.7625,-71.6161 49.2277,-72.7427 58.1657,-78.4316 59.7625,-71.6161"/>
</g>
<!-- Node7 -->
<g id="node7" class="node"><title>Node7</title>
<g id="a_node7"><a xlink:title=" ">
<polygon fill="white" stroke="#bfbfbf" points="42.5,-0.5 42.5,-19.5 90.5,-19.5 90.5,-0.5 42.5,-0.5"/>
<text text-anchor="middle" x="66.5" y="-7.5" font-family="Helvetica,sans-Serif" font-size="10.00">cstddef</text>
</a>
</g>
</g>
<!-- Node5&#45;&gt;Node7 -->
<g id="edge6" class="edge"><title>Node5&#45;&gt;Node7</title>
<path fill="none" stroke="midnightblue" d="M219.218,-114.127C178.699,-102.579 101.237,-80.136 96.5,-76 82.6229,-63.8846 74.7584,-44.0092 70.596,-29.4209"/>
<polygon fill="midnightblue" stroke="midnightblue" points="73.9361,-28.3519 68.0964,-19.5118 67.1487,-30.0641 73.9361,-28.3519"/>
</g>
<!-- Node8 -->
<g id="node8" class="node"><title>Node8</title>
<g id="a_node8"><a xlink:title=" ">
<polygon fill="white" stroke="#bfbfbf" points="105.5,-56.5 105.5,-75.5 151.5,-75.5 151.5,-56.5 105.5,-56.5"/>
<text text-anchor="middle" x="128.5" y="-63.5" font-family="Helvetica,sans-Serif" font-size="10.00">cstdint</text>
</a>
</g>
</g>
<!-- Node5&#45;&gt;Node8 -->
<g id="edge7" class="edge"><title>Node5&#45;&gt;Node8</title>
<path fill="none" stroke="midnightblue" d="M225.278,-112.444C206.604,-103.675 177.344,-89.9355 155.883,-79.8579"/>
<polygon fill="midnightblue" stroke="midnightblue" points="157.176,-76.5988 146.637,-75.5164 154.201,-82.935 157.176,-76.5988"/>
</g>
<!-- Node9 -->
<g id="node9" class="node"><title>Node9</title>
<g id="a_node9"><a xlink:title=" ">
<polygon fill="white" stroke="#bfbfbf" points="249.5,-56.5 249.5,-75.5 323.5,-75.5 323.5,-56.5 249.5,-56.5"/>
<text text-anchor="middle" x="286.5" y="-63.5" font-family="Helvetica,sans-Serif" font-size="10.00">system_error</text>
</a>
</g>
</g>
<!-- Node5&#45;&gt;Node9 -->
<g id="edge8" class="edge"><title>Node5&#45;&gt;Node9</title>
<path fill="none" stroke="midnightblue" d="M250.601,-112.083C256.737,-104.377 265.77,-93.0333 273.239,-83.6531"/>
<polygon fill="midnightblue" stroke="midnightblue" points="276.04,-85.7542 279.532,-75.7511 270.564,-81.3936 276.04,-85.7542"/>
</g>
<!-- Node10 -->
<g id="node10" class="node"><title>Node10</title>
<g id="a_node10"><a xlink:href="common_8h.html" target="_top" xlink:title="Header with typedefs to make type designation platform independent.">
<polygon fill="white" stroke="black" points="341.5,-56.5 341.5,-75.5 403.5,-75.5 403.5,-56.5 341.5,-56.5"/>
<text text-anchor="middle" x="372.5" y="-63.5" font-family="Helvetica,sans-Serif" font-size="10.00">common.h</text>
</a>
</g>
</g>
<!-- Node5&#45;&gt;Node10 -->
<g id="edge10" class="edge"><title>Node5&#45;&gt;Node10</title>
<path fill="none" stroke="midnightblue" d="M263.94,-112.444C285.17,-103.557 318.599,-89.5632 342.755,-79.4514"/>
<polygon fill="midnightblue" stroke="midnightblue" points="344.282,-82.6064 352.155,-75.5164 341.579,-76.1493 344.282,-82.6064"/>
</g>
<!-- Node10&#45;&gt;Node7 -->
<g id="edge19" class="edge"><title>Node10&#45;&gt;Node7</title>
<path fill="none" stroke="midnightblue" d="M341.099,-57.7229C338.197,-57.1144 335.297,-56.5302 332.5,-56 232.665,-37.0787 203.725,-41.52 100.466,-19.9963"/>
<polygon fill="midnightblue" stroke="midnightblue" points="101.082,-16.5491 90.5738,-17.9031 99.6326,-23.3975 101.082,-16.5491"/>
</g>
<!-- Node11 -->
<g id="node11" class="node"><title>Node11</title>
<g id="a_node11"><a xlink:title=" ">
<polygon fill="white" stroke="#bfbfbf" points="506.5,-0.5 506.5,-19.5 568.5,-19.5 568.5,-0.5 506.5,-0.5"/>
<text text-anchor="middle" x="537.5" y="-7.5" font-family="Helvetica,sans-Serif" font-size="10.00">arpa/inet.h</text>
</a>
</g>
</g>
<!-- Node10&#45;&gt;Node11 -->
<g id="edge11" class="edge"><title>Node10&#45;&gt;Node11</title>
<path fill="none" stroke="midnightblue" d="M398.645,-56.4435C426.523,-47.3196 470.848,-32.8133 501.9,-22.6509"/>
<polygon fill="midnightblue" stroke="midnightblue" points="503.062,-25.9533 511.478,-19.5164 500.885,-19.3005 503.062,-25.9533"/>
</g>
<!-- Node12 -->
<g id="node12" class="node"><title>Node12</title>
<g id="a_node12"><a xlink:title=" ">
<polygon fill="white" stroke="#bfbfbf" points="587,-0.5 587,-19.5 634,-19.5 634,-0.5 587,-0.5"/>
<text text-anchor="middle" x="610.5" y="-7.5" font-family="Helvetica,sans-Serif" font-size="10.00">errno.h</text>
</a>
</g>
</g>
<!-- Node10&#45;&gt;Node12 -->
<g id="edge12" class="edge"><title>Node10&#45;&gt;Node12</title>
<path fill="none" stroke="midnightblue" d="M403.504,-58.0031C406.543,-57.3236 409.581,-56.6468 412.5,-56 482.775,-40.4278 502.967,-38.059 576.949,-20.0361"/>
<polygon fill="midnightblue" stroke="midnightblue" points="577.865,-23.4152 586.745,-17.6355 576.199,-16.6164 577.865,-23.4152"/>
</g>
<!-- Node13 -->
<g id="node13" class="node"><title>Node13</title>
<g id="a_node13"><a xlink:title=" ">
<polygon fill="white" stroke="#bfbfbf" points="652,-0.5 652,-19.5 695,-19.5 695,-0.5 652,-0.5"/>
<text text-anchor="middle" x="673.5" y="-7.5" font-family="Helvetica,sans-Serif" font-size="10.00">fcntl.h</text>
</a>
</g>
</g>
<!-- Node10&#45;&gt;Node13 -->
<g id="edge13" class="edge"><title>Node10&#45;&gt;Node13</title>
<path fill="none" stroke="midnightblue" d="M403.902,-57.7287C406.804,-57.1191 409.703,-56.5329 412.5,-56 511.061,-37.2196 539.778,-42.139 642.107,-19.82"/>
<polygon fill="midnightblue" stroke="midnightblue" points="642.904,-23.2284 651.911,-17.6485 641.39,-16.394 642.904,-23.2284"/>
</g>
<!-- Node14 -->
<g id="node14" class="node"><title>Node14</title>
<g id="a_node14"><a xlink:title=" ">
<polygon fill="white" stroke="#bfbfbf" points="109,-0.5 109,-19.5 158,-19.5 158,-0.5 109,-0.5"/>
<text text-anchor="middle" x="133.5" y="-7.5" font-family="Helvetica,sans-Serif" font-size="10.00">netdb.h</text>
</a>
</g>
</g>
<!-- Node10&#45;&gt;Node14 -->
<g id="edge14" class="edge"><title>Node10&#45;&gt;Node14</title>
<path fill="none" stroke="midnightblue" d="M341.496,-57.9993C338.457,-57.3205 335.419,-56.6449 332.5,-56 261.808,-40.3821 241.478,-38.1081 168.051,-20.2954"/>
<polygon fill="midnightblue" stroke="midnightblue" points="168.875,-16.8938 158.33,-17.9223 167.214,-23.6941 168.875,-16.8938"/>
</g>
<!-- Node15 -->
<g id="node15" class="node"><title>Node15</title>
<g id="a_node15"><a xlink:title=" ">
<polygon fill="white" stroke="#bfbfbf" points="176,-0.5 176,-19.5 241,-19.5 241,-0.5 176,-0.5"/>
<text text-anchor="middle" x="208.5" y="-7.5" font-family="Helvetica,sans-Serif" font-size="10.00">netinet/in.h</text>
</a>
</g>
</g>
<!-- Node10&#45;&gt;Node15 -->
<g id="edge15" class="edge"><title>Node10&#45;&gt;Node15</title>
<path fill="none" stroke="midnightblue" d="M346.514,-56.4435C318.804,-47.3196 274.748,-32.8133 243.884,-22.6509"/>
<polygon fill="midnightblue" stroke="midnightblue" points="244.958,-19.3196 234.365,-19.5164 242.768,-25.9684 244.958,-19.3196"/>
</g>
<!-- Node16 -->
<g id="node16" class="node"><title>Node16</title>
<g id="a_node16"><a xlink:title=" ">
<polygon fill="white" stroke="#bfbfbf" points="259,-0.5 259,-19.5 332,-19.5 332,-0.5 259,-0.5"/>
<text text-anchor="middle" x="295.5" y="-7.5" font-family="Helvetica,sans-Serif" font-size="10.00">sys/socket.h</text>
</a>
</g>
</g>
<!-- Node10&#45;&gt;Node16 -->
<g id="edge16" class="edge"><title>Node10&#45;&gt;Node16</title>
<path fill="none" stroke="midnightblue" d="M360.129,-56.324C348.342,-48.0577 330.368,-35.4527 316.364,-25.6322"/>
<polygon fill="midnightblue" stroke="midnightblue" points="318.038,-22.5307 307.841,-19.6545 314.018,-28.2619 318.038,-22.5307"/>
</g>
<!-- Node17 -->
<g id="node17" class="node"><title>Node17</title>
<g id="a_node17"><a xlink:title=" ">
<polygon fill="white" stroke="#bfbfbf" points="350.5,-0.5 350.5,-19.5 418.5,-19.5 418.5,-0.5 350.5,-0.5"/>
<text text-anchor="middle" x="384.5" y="-7.5" font-family="Helvetica,sans-Serif" font-size="10.00">sys/types.h</text>
</a>
</g>
</g>
<!-- Node10&#45;&gt;Node17 -->
<g id="edge17" class="edge"><title>Node10&#45;&gt;Node17</title>
<path fill="none" stroke="midnightblue" d="M374.482,-56.083C376.072,-48.9272 378.359,-38.6353 380.346,-29.6911"/>
<polygon fill="midnightblue" stroke="midnightblue" points="383.803,-30.2722 382.555,-19.7511 376.969,-28.7537 383.803,-30.2722"/>
</g>
<!-- Node18 -->
<g id="node18" class="node"><title>Node18</title>
<g id="a_node18"><a xlink:title=" ">
<polygon fill="white" stroke="#bfbfbf" points="437,-0.5 437,-19.5 488,-19.5 488,-0.5 437,-0.5"/>
<text text-anchor="middle" x="462.5" y="-7.5" font-family="Helvetica,sans-Serif" font-size="10.00">unistd.h</text>
</a>
</g>
</g>
<!-- Node10&#45;&gt;Node18 -->
<g id="edge18" class="edge"><title>Node10&#45;&gt;Node18</title>
<path fill="none" stroke="midnightblue" d="M386.96,-56.324C401,-47.9002 422.548,-34.9709 439.043,-25.0741"/>
<polygon fill="midnightblue" stroke="midnightblue" points="441.302,-27.8007 448.076,-19.6545 437.7,-21.7983 441.302,-27.8007"/>
</g>
<!-- Node19&#45;&gt;Node3 -->
<g id="edge22" class="edge"><title>Node19&#45;&gt;Node3</title>
<path fill="none" stroke="midnightblue" d="M481.216,-113.725C511.848,-105.372 563.822,-91.1628 617.71,-76.2073"/>
<polygon fill="midnightblue" stroke="midnightblue" points="618.734,-79.5553 627.433,-73.5065 616.861,-72.8107 618.734,-79.5553"/>
</g>
<!-- Node19&#45;&gt;Node4 -->
<g id="edge24" class="edge"><title>Node19&#45;&gt;Node4</title>
<path fill="none" stroke="midnightblue" d="M427.784,-115.508C388.999,-107.507 314.585,-92.0557 241.733,-76.2472"/>
<polygon fill="midnightblue" stroke="midnightblue" points="242.449,-72.8211 231.934,-74.1164 240.962,-79.6612 242.449,-72.8211"/>
</g>
<!-- Node19&#45;&gt;Node8 -->
<g id="edge21" class="edge"><title>Node19&#45;&gt;Node8</title>
<path fill="none" stroke="midnightblue" d="M427.948,-118.04C377.772,-112.212 265.467,-98.0465 161.836,-76.0702"/>
<polygon fill="midnightblue" stroke="midnightblue" points="162.349,-72.6005 151.836,-73.9191 160.876,-79.444 162.349,-72.6005"/>
</g>
<!-- Node20 -->
<g id="node20" class="node"><title>Node20</title>
<g id="a_node20"><a xlink:title=" ">
<polygon fill="white" stroke="#bfbfbf" points="545.5,-56.5 545.5,-75.5 609.5,-75.5 609.5,-56.5 545.5,-56.5"/>
<text text-anchor="middle" x="577.5" y="-63.5" font-family="Helvetica,sans-Serif" font-size="10.00">string_view</text>
</a>
</g>
</g>
<!-- Node19&#45;&gt;Node20 -->
<g id="edge23" class="edge"><title>Node19&#45;&gt;Node20</title>
<path fill="none" stroke="midnightblue" d="M473.99,-112.444C494.142,-103.596 525.823,-89.6875 548.831,-79.5865"/>
<polygon fill="midnightblue" stroke="midnightblue" points="550.352,-82.7411 558.101,-75.5164 547.538,-76.3316 550.352,-82.7411"/>
</g>
<!-- Node21 -->
<g id="node21" class="node"><title>Node21</title>
<g id="a_node21"><a xlink:href="useful__base__types_8h.html" target="_top" xlink:title=" ">
<polygon fill="white" stroke="black" points="421.5,-56.5 421.5,-75.5 527.5,-75.5 527.5,-56.5 421.5,-56.5"/>
<text text-anchor="middle" x="474.5" y="-63.5" font-family="Helvetica,sans-Serif" font-size="10.00">useful_base_types.h</text>
</a>
</g>
</g>
<!-- Node19&#45;&gt;Node21 -->
<g id="edge25" class="edge"><title>Node19&#45;&gt;Node21</title>
<path fill="none" stroke="midnightblue" d="M457.803,-112.083C460.482,-104.849 464.349,-94.4087 467.686,-85.3968"/>
<polygon fill="midnightblue" stroke="midnightblue" points="471.068,-86.3442 471.259,-75.7511 464.504,-83.9129 471.068,-86.3442"/>
</g>
<!-- Node22&#45;&gt;Node3 -->
<g id="edge31" class="edge"><title>Node22&#45;&gt;Node3</title>
<path fill="none" stroke="midnightblue" d="M675.546,-112.083C671.396,-104.613 665.347,-93.7244 660.233,-84.5199"/>
<polygon fill="midnightblue" stroke="midnightblue" points="663.278,-82.7929 655.362,-75.7511 657.159,-86.1924 663.278,-82.7929"/>
</g>
<!-- Node22&#45;&gt;Node4 -->
<g id="edge33" class="edge"><title>Node22&#45;&gt;Node4</title>
<path fill="none" stroke="midnightblue" d="M658.861,-119.706C595.955,-115.75 407.586,-102.54 241.756,-76.031"/>
<polygon fill="midnightblue" stroke="midnightblue" points="242.305,-72.5744 231.874,-74.431 241.186,-79.4844 242.305,-72.5744"/>
</g>
<!-- Node22&#45;&gt;Node9 -->
<g id="edge32" class="edge"><title>Node22&#45;&gt;Node9</title>
<path fill="none" stroke="midnightblue" d="M658.846,-118.693C605.436,-112.897 462.956,-96.8046 333.694,-76.1035"/>
<polygon fill="midnightblue" stroke="midnightblue" points="334.05,-72.6157 323.62,-74.4763 332.934,-79.5262 334.05,-72.6157"/>
</g>
<!-- Node22&#45;&gt;Node10 -->
<g id="edge35" class="edge"><title>Node22&#45;&gt;Node10</title>
<path fill="none" stroke="midnightblue" d="M658.889,-117.784C614.758,-111.129 510.906,-95.0207 413.878,-76.1879"/>
<polygon fill="midnightblue" stroke="midnightblue" points="414.394,-72.7225 403.908,-74.2381 413.051,-79.5924 414.394,-72.7225"/>
</g>
<!-- Node23 -->
<g id="node23" class="node"><title>Node23</title>
<g id="a_node23"><a xlink:title=" ">
<polygon fill="white" stroke="#bfbfbf" points="913.5,-56.5 913.5,-75.5 973.5,-75.5 973.5,-56.5 913.5,-56.5"/>
<text text-anchor="middle" x="943.5" y="-63.5" font-family="Helvetica,sans-Serif" font-size="10.00">fmt/core.h</text>
</a>
</g>
</g>
<!-- Node22&#45;&gt;Node23 -->
<g id="edge27" class="edge"><title>Node22&#45;&gt;Node23</title>
<path fill="none" stroke="midnightblue" d="M702.166,-116.861C740.56,-109.48 823.285,-93.3741 903.068,-76.2627"/>
<polygon fill="midnightblue" stroke="midnightblue" points="904.246,-79.5893 913.285,-74.0622 902.773,-72.7462 904.246,-79.5893"/>
</g>
<!-- Node24 -->
<g id="node24" class="node"><title>Node24</title>
<g id="a_node24"><a xlink:title=" ">
<polygon fill="white" stroke="#bfbfbf" points="991.5,-56.5 991.5,-75.5 1059.5,-75.5 1059.5,-56.5 991.5,-56.5"/>
<text text-anchor="middle" x="1025.5" y="-63.5" font-family="Helvetica,sans-Serif" font-size="10.00">fmt/format.h</text>
</a>
</g>
</g>
<!-- Node22&#45;&gt;Node24 -->
<g id="edge28" class="edge"><title>Node22&#45;&gt;Node24</title>
<path fill="none" stroke="midnightblue" d="M702.176,-118.212C750.432,-111.913 870.562,-95.7137 981.272,-76.1348"/>
<polygon fill="midnightblue" stroke="midnightblue" points="982.037,-79.5536 991.268,-74.353 980.809,-72.6623 982.037,-79.5536"/>
</g>
<!-- Node25 -->
<g id="node25" class="node"><title>Node25</title>
<g id="a_node25"><a xlink:title=" ">
<polygon fill="white" stroke="#bfbfbf" points="691.5,-56.5 691.5,-75.5 729.5,-75.5 729.5,-56.5 691.5,-56.5"/>
<text text-anchor="middle" x="710.5" y="-63.5" font-family="Helvetica,sans-Serif" font-size="10.00">array</text>
</a>
</g>
</g>
<!-- Node22&#45;&gt;Node25 -->
<g id="edge29" class="edge"><title>Node22&#45;&gt;Node25</title>
<path fill="none" stroke="midnightblue" d="M685.454,-112.083C689.604,-104.613 695.653,-93.7244 700.767,-84.5199"/>
<polygon fill="midnightblue" stroke="midnightblue" points="703.841,-86.1924 705.638,-75.7511 697.722,-82.7929 703.841,-86.1924"/>
</g>
<!-- Node26 -->
<g id="node26" class="node"><title>Node26</title>
<g id="a_node26"><a xlink:title=" ">
<polygon fill="white" stroke="#bfbfbf" points="747.5,-56.5 747.5,-75.5 793.5,-75.5 793.5,-56.5 747.5,-56.5"/>
<text text-anchor="middle" x="770.5" y="-63.5" font-family="Helvetica,sans-Serif" font-size="10.00">chrono</text>
</a>
</g>
</g>
<!-- Node22&#45;&gt;Node26 -->
<g id="edge30" class="edge"><title>Node22&#45;&gt;Node26</title>
<path fill="none" stroke="midnightblue" d="M694.96,-112.324C709,-103.9 730.548,-90.9709 747.043,-81.0741"/>
<polygon fill="midnightblue" stroke="midnightblue" points="749.302,-83.8007 756.076,-75.6545 745.7,-77.7983 749.302,-83.8007"/>
</g>
<!-- Node27 -->
<g id="node27" class="node"><title>Node27</title>
<g id="a_node27"><a xlink:title=" ">
<polygon fill="white" stroke="#bfbfbf" points="812,-56.5 812,-75.5 895,-75.5 895,-56.5 812,-56.5"/>
<text text-anchor="middle" x="853.5" y="-63.5" font-family="Helvetica,sans-Serif" font-size="10.00">unordered_map</text>
</a>
</g>
</g>
<!-- Node22&#45;&gt;Node27 -->
<g id="edge34" class="edge"><title>Node22&#45;&gt;Node27</title>
<path fill="none" stroke="midnightblue" d="M702.061,-114.27C730.667,-105.341 781.604,-89.4414 816.438,-78.5683"/>
<polygon fill="midnightblue" stroke="midnightblue" points="817.744,-81.8276 826.246,-75.5069 815.658,-75.1455 817.744,-81.8276"/>
</g>
</g>
</svg>
