<?xml version="1.0" encoding="UTF-8" standalone="no"?>
<!DOCTYPE svg PUBLIC "-//W3C//DTD SVG 1.1//EN"
 "http://www.w3.org/Graphics/SVG/1.1/DTD/svg11.dtd">
<!-- Generated by graphviz version 2.38.0 (20140413.2041)
 -->
<!-- Title: C:/projects/ndt/sources/include/ndt/bin_rw.h Pages: 1 -->
<!--zoomable 207 -->
<svg id="main" version="1.1" xmlns="http://www.w3.org/2000/svg" xmlns:xlink="http://www.w3.org/1999/xlink" xml:space="preserve" onload="init(evt)">
<style type="text/css"><![CDATA[
.edge:hover path { stroke: red; }
.edge:hover polygon { stroke: red; fill: red; }
]]></style>
<script type="text/javascript"><![CDATA[
var edges = document.getElementsByTagName('g');
if (edges && edges.length) {
  for (var i=0;i<edges.length;i++) {
    if (edges[i].id.substr(0,4)=='edge') {
      edges[i].setAttribute('class','edge');
    }
  }
}
]]></script>
        <defs>
                <circle id="rim" cx="0" cy="0" r="7"/>
                <circle id="rim2" cx="0" cy="0" r="3.5"/>
                <g id="zoomPlus">
                        <use xlink:href="#rim" fill="#404040">
                                <set attributeName="fill" to="#808080" begin="zoomplus.mouseover" end="zoomplus.mouseout"/>
                        </use>
                        <path d="M-4,0h8M0,-4v8" fill="none" stroke="white" stroke-width="1.5" pointer-events="none"/>
                </g>
                <g id="zoomMin">
                        <use xlink:href="#rim" fill="#404040">
                                <set attributeName="fill" to="#808080" begin="zoomminus.mouseover" end="zoomminus.mouseout"/>
                        </use>
                        <path d="M-4,0h8" fill="none" stroke="white" stroke-width="1.5" pointer-events="none"/>
                </g>
                <g id="dirArrow">
                        <path fill="none" stroke="white" stroke-width="1.5" d="M0,-3.0v7 M-2.5,-0.5L0,-3.0L2.5,-0.5"/>
                </g>
               <g id="resetDef">
                       <use xlink:href="#rim2" fill="#404040">
                               <set attributeName="fill" to="#808080" begin="reset.mouseover" end="reset.mouseout"/>
                       </use>
               </g>
        </defs>

<script type="text/javascript">
var viewWidth = 947;
var viewHeight = 207;
var sectionId = 'dynsection-0';
</script>
<script xlink:href="svgpan.js"/>
<svg id="graph" class="graph">
<g id="viewport">
<title>C:/projects/ndt/sources/include/ndt/bin_rw.h</title>
<polygon fill="white" stroke="none" points="-4,4 -4,-203 943,-203 943,4 -4,4"/>
<!-- Node1 -->
<g id="node1" class="node"><title>Node1</title>
<g id="a_node1"><a xlink:title=" ">
<polygon fill="#bfbfbf" stroke="black" points="210.5,-168.5 210.5,-198.5 328.5,-198.5 328.5,-168.5 210.5,-168.5"/>
<text text-anchor="start" x="218.5" y="-186.5" font-family="Helvetica,sans-Serif" font-size="10.00">C:/projects/ndt/sources</text>
<text text-anchor="middle" x="269.5" y="-175.5" font-family="Helvetica,sans-Serif" font-size="10.00">/include/ndt/bin_rw.h</text>
</a>
</g>
</g>
<!-- Node2 -->
<g id="node2" class="node"><title>Node2</title>
<g id="a_node2"><a xlink:title=" ">
<polygon fill="white" stroke="#bfbfbf" points="137.5,-112.5 137.5,-131.5 193.5,-131.5 193.5,-112.5 137.5,-112.5"/>
<text text-anchor="middle" x="165.5" y="-119.5" font-family="Helvetica,sans-Serif" font-size="10.00">algorithm</text>
</a>
</g>
</g>
<!-- Node1&#45;&gt;Node2 -->
<g id="edge1" class="edge"><title>Node1&#45;&gt;Node2</title>
<path fill="none" stroke="midnightblue" d="M244.853,-168.399C228.183,-158.862 206.269,-146.325 189.695,-136.842"/>
<polygon fill="midnightblue" stroke="midnightblue" points="191.051,-133.586 180.633,-131.658 187.575,-139.662 191.051,-133.586"/>
</g>
<!-- Node3 -->
<g id="node3" class="node"><title>Node3</title>
<g id="a_node3"><a xlink:href="buffer_8h.html" target="_top" xlink:title=" ">
<polygon fill="white" stroke="black" points="211.5,-112.5 211.5,-131.5 259.5,-131.5 259.5,-112.5 211.5,-112.5"/>
<text text-anchor="middle" x="235.5" y="-119.5" font-family="Helvetica,sans-Serif" font-size="10.00">buffer.h</text>
</a>
</g>
</g>
<!-- Node1&#45;&gt;Node3 -->
<g id="edge2" class="edge"><title>Node1&#45;&gt;Node3</title>
<path fill="none" stroke="midnightblue" d="M261.442,-168.399C256.655,-160.021 250.544,-149.327 245.456,-140.423"/>
<polygon fill="midnightblue" stroke="midnightblue" points="248.448,-138.604 240.447,-131.658 242.37,-142.077 248.448,-138.604"/>
</g>
<!-- Node17 -->
<g id="node17" class="node"><title>Node17</title>
<g id="a_node17"><a xlink:href="endian_8h.html" target="_top" xlink:title=" ">
<polygon fill="white" stroke="black" points="278,-112.5 278,-131.5 331,-131.5 331,-112.5 278,-112.5"/>
<text text-anchor="middle" x="304.5" y="-119.5" font-family="Helvetica,sans-Serif" font-size="10.00">endian.h</text>
</a>
</g>
</g>
<!-- Node1&#45;&gt;Node17 -->
<g id="edge17" class="edge"><title>Node1&#45;&gt;Node17</title>
<path fill="none" stroke="midnightblue" d="M277.795,-168.399C282.723,-160.021 289.014,-149.327 294.251,-140.423"/>
<polygon fill="midnightblue" stroke="midnightblue" points="297.354,-142.052 299.407,-131.658 291.32,-138.503 297.354,-142.052"/>
</g>
<!-- Node21 -->
<g id="node21" class="node"><title>Node21</title>
<g id="a_node21"><a xlink:href="utils_8h.html" target="_top" xlink:title=" ">
<polygon fill="white" stroke="black" points="572,-112.5 572,-131.5 615,-131.5 615,-112.5 572,-112.5"/>
<text text-anchor="middle" x="593.5" y="-119.5" font-family="Helvetica,sans-Serif" font-size="10.00">utils.h</text>
</a>
</g>
</g>
<!-- Node1&#45;&gt;Node21 -->
<g id="edge23" class="edge"><title>Node1&#45;&gt;Node21</title>
<path fill="none" stroke="midnightblue" d="M328.55,-171.656C397.168,-159.055 507.862,-138.727 561.849,-128.812"/>
<polygon fill="midnightblue" stroke="midnightblue" points="562.658,-132.223 571.861,-126.974 561.393,-125.338 562.658,-132.223"/>
</g>
<!-- Node4 -->
<g id="node4" class="node"><title>Node4</title>
<g id="a_node4"><a xlink:title=" ">
<polygon fill="white" stroke="#bfbfbf" points="0,-56.5 0,-75.5 49,-75.5 49,-56.5 0,-56.5"/>
<text text-anchor="middle" x="24.5" y="-63.5" font-family="Helvetica,sans-Serif" font-size="10.00">cassert</text>
</a>
</g>
</g>
<!-- Node3&#45;&gt;Node4 -->
<g id="edge3" class="edge"><title>Node3&#45;&gt;Node4</title>
<path fill="none" stroke="midnightblue" d="M211.363,-114.362C208.381,-113.558 205.372,-112.755 202.5,-112 152.695,-98.9142 94.8634,-84.4234 58.97,-75.5123"/>
<polygon fill="midnightblue" stroke="midnightblue" points="59.5591,-72.0524 49.0107,-73.0432 57.8746,-78.8468 59.5591,-72.0524"/>
</g>
<!-- Node5 -->
<g id="node5" class="node"><title>Node5</title>
<g id="a_node5"><a xlink:title=" ">
<polygon fill="white" stroke="#bfbfbf" points="58.5,-0.5 58.5,-19.5 106.5,-19.5 106.5,-0.5 58.5,-0.5"/>
<text text-anchor="middle" x="82.5" y="-7.5" font-family="Helvetica,sans-Serif" font-size="10.00">cstddef</text>
</a>
</g>
</g>
<!-- Node3&#45;&gt;Node5 -->
<g id="edge4" class="edge"><title>Node3&#45;&gt;Node5</title>
<path fill="none" stroke="midnightblue" d="M211.205,-113.821C172.425,-102.265 100.465,-80.3869 96.5,-76 85.2621,-63.5663 82.268,-44.3288 81.7817,-30.0042"/>
<polygon fill="midnightblue" stroke="midnightblue" points="85.2823,-29.8063 81.8196,-19.7933 78.2824,-29.7802 85.2823,-29.8063"/>
</g>
<!-- Node6 -->
<g id="node6" class="node"><title>Node6</title>
<g id="a_node6"><a xlink:title=" ">
<polygon fill="white" stroke="#bfbfbf" points="105.5,-56.5 105.5,-75.5 151.5,-75.5 151.5,-56.5 105.5,-56.5"/>
<text text-anchor="middle" x="128.5" y="-63.5" font-family="Helvetica,sans-Serif" font-size="10.00">cstdint</text>
</a>
</g>
</g>
<!-- Node3&#45;&gt;Node6 -->
<g id="edge5" class="edge"><title>Node3&#45;&gt;Node6</title>
<path fill="none" stroke="midnightblue" d="M218.309,-112.324C201.149,-103.664 174.554,-90.2424 154.753,-80.249"/>
<polygon fill="midnightblue" stroke="midnightblue" points="156.153,-77.0354 145.649,-75.6545 152.999,-83.2847 156.153,-77.0354"/>
</g>
<!-- Node7 -->
<g id="node7" class="node"><title>Node7</title>
<g id="a_node7"><a xlink:title=" ">
<polygon fill="white" stroke="#bfbfbf" points="455.5,-56.5 455.5,-75.5 517.5,-75.5 517.5,-56.5 455.5,-56.5"/>
<text text-anchor="middle" x="486.5" y="-63.5" font-family="Helvetica,sans-Serif" font-size="10.00">type_traits</text>
</a>
</g>
</g>
<!-- Node3&#45;&gt;Node7 -->
<g id="edge6" class="edge"><title>Node3&#45;&gt;Node7</title>
<path fill="none" stroke="midnightblue" d="M259.603,-114.227C262.592,-113.446 265.611,-112.685 268.5,-112 343.966,-94.0989 365.875,-92.9273 445.116,-76.2519"/>
<polygon fill="midnightblue" stroke="midnightblue" points="446.016,-79.639 455.071,-74.1393 444.563,-72.7915 446.016,-79.639"/>
</g>
<!-- Node8 -->
<g id="node8" class="node"><title>Node8</title>
<g id="a_node8"><a xlink:href="common_8h.html" target="_top" xlink:title="Header with typedefs to make type designation platform independent.">
<polygon fill="white" stroke="black" points="375.5,-56.5 375.5,-75.5 437.5,-75.5 437.5,-56.5 375.5,-56.5"/>
<text text-anchor="middle" x="406.5" y="-63.5" font-family="Helvetica,sans-Serif" font-size="10.00">common.h</text>
</a>
</g>
</g>
<!-- Node3&#45;&gt;Node8 -->
<g id="edge7" class="edge"><title>Node3&#45;&gt;Node8</title>
<path fill="none" stroke="midnightblue" d="M259.637,-113.378C288.255,-104.341 336.256,-89.1823 369.557,-78.6663"/>
<polygon fill="midnightblue" stroke="midnightblue" points="370.9,-81.9126 379.382,-75.5637 368.792,-75.2375 370.9,-81.9126"/>
</g>
<!-- Node8&#45;&gt;Node5 -->
<g id="edge16" class="edge"><title>Node8&#45;&gt;Node5</title>
<path fill="none" stroke="midnightblue" d="M375.104,-57.6955C372.201,-57.0928 369.3,-56.5174 366.5,-56 256.977,-35.7606 227.776,-41.5339 118.5,-20 117.907,-19.8832 117.31,-19.7629 116.709,-19.6395"/>
<polygon fill="midnightblue" stroke="midnightblue" points="117.347,-16.196 106.825,-17.4344 115.823,-23.028 117.347,-16.196"/>
</g>
<!-- Node9 -->
<g id="node9" class="node"><title>Node9</title>
<g id="a_node9"><a xlink:title=" ">
<polygon fill="white" stroke="#bfbfbf" points="525.5,-0.5 525.5,-19.5 587.5,-19.5 587.5,-0.5 525.5,-0.5"/>
<text text-anchor="middle" x="556.5" y="-7.5" font-family="Helvetica,sans-Serif" font-size="10.00">arpa/inet.h</text>
</a>
</g>
</g>
<!-- Node8&#45;&gt;Node9 -->
<g id="edge8" class="edge"><title>Node8&#45;&gt;Node9</title>
<path fill="none" stroke="midnightblue" d="M430.268,-56.4435C455.393,-47.3986 495.211,-33.064 523.4,-22.9158"/>
<polygon fill="midnightblue" stroke="midnightblue" points="524.62,-26.1968 532.843,-19.5164 522.249,-19.6106 524.62,-26.1968"/>
</g>
<!-- Node10 -->
<g id="node10" class="node"><title>Node10</title>
<g id="a_node10"><a xlink:title=" ">
<polygon fill="white" stroke="#bfbfbf" points="606,-0.5 606,-19.5 653,-19.5 653,-0.5 606,-0.5"/>
<text text-anchor="middle" x="629.5" y="-7.5" font-family="Helvetica,sans-Serif" font-size="10.00">errno.h</text>
</a>
</g>
</g>
<!-- Node8&#45;&gt;Node10 -->
<g id="edge9" class="edge"><title>Node8&#45;&gt;Node10</title>
<path fill="none" stroke="midnightblue" d="M437.513,-57.9925C473.28,-49.8371 534.078,-35.7485 595.819,-20.1077"/>
<polygon fill="midnightblue" stroke="midnightblue" points="596.904,-23.4431 605.732,-17.5848 595.178,-16.6594 596.904,-23.4431"/>
</g>
<!-- Node11 -->
<g id="node11" class="node"><title>Node11</title>
<g id="a_node11"><a xlink:title=" ">
<polygon fill="white" stroke="#bfbfbf" points="671,-0.5 671,-19.5 714,-19.5 714,-0.5 671,-0.5"/>
<text text-anchor="middle" x="692.5" y="-7.5" font-family="Helvetica,sans-Serif" font-size="10.00">fcntl.h</text>
</a>
</g>
</g>
<!-- Node8&#45;&gt;Node11 -->
<g id="edge10" class="edge"><title>Node8&#45;&gt;Node11</title>
<path fill="none" stroke="midnightblue" d="M437.908,-57.7582C440.808,-57.1424 443.706,-56.5468 446.5,-56 538.935,-37.913 565.973,-41.7472 661.211,-20.0699"/>
<polygon fill="midnightblue" stroke="midnightblue" points="662.002,-23.4794 670.957,-17.8177 660.426,-16.6592 662.002,-23.4794"/>
</g>
<!-- Node12 -->
<g id="node12" class="node"><title>Node12</title>
<g id="a_node12"><a xlink:title=" ">
<polygon fill="white" stroke="#bfbfbf" points="128,-0.5 128,-19.5 177,-19.5 177,-0.5 128,-0.5"/>
<text text-anchor="middle" x="152.5" y="-7.5" font-family="Helvetica,sans-Serif" font-size="10.00">netdb.h</text>
</a>
</g>
</g>
<!-- Node8&#45;&gt;Node12 -->
<g id="edge11" class="edge"><title>Node8&#45;&gt;Node12</title>
<path fill="none" stroke="midnightblue" d="M375.073,-57.8511C372.177,-57.2158 369.285,-56.5903 366.5,-56 289.396,-39.6607 267.061,-38.8428 187.334,-20.3177"/>
<polygon fill="midnightblue" stroke="midnightblue" points="187.854,-16.8448 177.319,-17.9685 186.255,-23.6598 187.854,-16.8448"/>
</g>
<!-- Node13 -->
<g id="node13" class="node"><title>Node13</title>
<g id="a_node13"><a xlink:title=" ">
<polygon fill="white" stroke="#bfbfbf" points="195,-0.5 195,-19.5 260,-19.5 260,-0.5 195,-0.5"/>
<text text-anchor="middle" x="227.5" y="-7.5" font-family="Helvetica,sans-Serif" font-size="10.00">netinet/in.h</text>
</a>
</g>
</g>
<!-- Node8&#45;&gt;Node13 -->
<g id="edge12" class="edge"><title>Node8&#45;&gt;Node13</title>
<path fill="none" stroke="midnightblue" d="M378.137,-56.4435C347.762,-47.2801 299.39,-32.6876 265.684,-22.5192"/>
<polygon fill="midnightblue" stroke="midnightblue" points="266.315,-19.0538 255.73,-19.5164 264.293,-25.7555 266.315,-19.0538"/>
</g>
<!-- Node14 -->
<g id="node14" class="node"><title>Node14</title>
<g id="a_node14"><a xlink:title=" ">
<polygon fill="white" stroke="#bfbfbf" points="278,-0.5 278,-19.5 351,-19.5 351,-0.5 278,-0.5"/>
<text text-anchor="middle" x="314.5" y="-7.5" font-family="Helvetica,sans-Serif" font-size="10.00">sys/socket.h</text>
</a>
</g>
</g>
<!-- Node8&#45;&gt;Node14 -->
<g id="edge13" class="edge"><title>Node8&#45;&gt;Node14</title>
<path fill="none" stroke="midnightblue" d="M391.719,-56.324C377.233,-47.8215 354.927,-34.7288 338.007,-24.7975"/>
<polygon fill="midnightblue" stroke="midnightblue" points="339.641,-21.6981 329.245,-19.6545 336.097,-27.735 339.641,-21.6981"/>
</g>
<!-- Node15 -->
<g id="node15" class="node"><title>Node15</title>
<g id="a_node15"><a xlink:title=" ">
<polygon fill="white" stroke="#bfbfbf" points="369.5,-0.5 369.5,-19.5 437.5,-19.5 437.5,-0.5 369.5,-0.5"/>
<text text-anchor="middle" x="403.5" y="-7.5" font-family="Helvetica,sans-Serif" font-size="10.00">sys/types.h</text>
</a>
</g>
</g>
<!-- Node8&#45;&gt;Node15 -->
<g id="edge14" class="edge"><title>Node8&#45;&gt;Node15</title>
<path fill="none" stroke="midnightblue" d="M406.005,-56.083C405.611,-49.0059 405.048,-38.8611 404.555,-29.9865"/>
<polygon fill="midnightblue" stroke="midnightblue" points="408.036,-29.5415 403.986,-19.7511 401.046,-29.9299 408.036,-29.5415"/>
</g>
<!-- Node16 -->
<g id="node16" class="node"><title>Node16</title>
<g id="a_node16"><a xlink:title=" ">
<polygon fill="white" stroke="#bfbfbf" points="456,-0.5 456,-19.5 507,-19.5 507,-0.5 456,-0.5"/>
<text text-anchor="middle" x="481.5" y="-7.5" font-family="Helvetica,sans-Serif" font-size="10.00">unistd.h</text>
</a>
</g>
</g>
<!-- Node8&#45;&gt;Node16 -->
<g id="edge15" class="edge"><title>Node8&#45;&gt;Node16</title>
<path fill="none" stroke="midnightblue" d="M418.55,-56.324C429.963,-48.1066 447.331,-35.6017 460.935,-25.8069"/>
<polygon fill="midnightblue" stroke="midnightblue" points="463.16,-28.5174 469.231,-19.8339 459.07,-22.8366 463.16,-28.5174"/>
</g>
<!-- Node17&#45;&gt;Node6 -->
<g id="edge18" class="edge"><title>Node17&#45;&gt;Node6</title>
<path fill="none" stroke="midnightblue" d="M277.769,-112.799C246.571,-103.226 194.974,-87.3955 161.358,-77.0816"/>
<polygon fill="midnightblue" stroke="midnightblue" points="162.132,-73.6581 151.546,-74.0708 160.079,-80.3502 162.132,-73.6581"/>
</g>
<!-- Node17&#45;&gt;Node7 -->
<g id="edge21" class="edge"><title>Node17&#45;&gt;Node7</title>
<path fill="none" stroke="midnightblue" d="M331.355,-113.032C362.133,-103.9 412.831,-88.8578 447.852,-78.467"/>
<polygon fill="midnightblue" stroke="midnightblue" points="449.139,-81.7359 457.731,-75.536 447.148,-75.0251 449.139,-81.7359"/>
</g>
<!-- Node18 -->
<g id="node18" class="node"><title>Node18</title>
<g id="a_node18"><a xlink:title=" ">
<polygon fill="white" stroke="#bfbfbf" points="535.5,-56.5 535.5,-75.5 581.5,-75.5 581.5,-56.5 535.5,-56.5"/>
<text text-anchor="middle" x="558.5" y="-63.5" font-family="Helvetica,sans-Serif" font-size="10.00">cstring</text>
</a>
</g>
</g>
<!-- Node17&#45;&gt;Node18 -->
<g id="edge19" class="edge"><title>Node17&#45;&gt;Node18</title>
<path fill="none" stroke="midnightblue" d="M331.296,-116.233C371.446,-108.946 449.777,-94.1791 525.75,-76.0398"/>
<polygon fill="midnightblue" stroke="midnightblue" points="526.58,-79.4399 535.482,-73.6941 524.94,-72.6348 526.58,-79.4399"/>
</g>
<!-- Node19 -->
<g id="node19" class="node"><title>Node19</title>
<g id="a_node19"><a xlink:title=" ">
<polygon fill="white" stroke="#bfbfbf" points="169.5,-56.5 169.5,-75.5 233.5,-75.5 233.5,-56.5 169.5,-56.5"/>
<text text-anchor="middle" x="201.5" y="-63.5" font-family="Helvetica,sans-Serif" font-size="10.00">string_view</text>
</a>
</g>
</g>
<!-- Node17&#45;&gt;Node19 -->
<g id="edge20" class="edge"><title>Node17&#45;&gt;Node19</title>
<path fill="none" stroke="midnightblue" d="M287.951,-112.324C271.508,-103.703 246.065,-90.3643 227.032,-80.3855"/>
<polygon fill="midnightblue" stroke="midnightblue" points="228.489,-77.198 218.008,-75.6545 225.239,-83.3977 228.489,-77.198"/>
</g>
<!-- Node20 -->
<g id="node20" class="node"><title>Node20</title>
<g id="a_node20"><a xlink:href="useful__base__types_8h.html" target="_top" xlink:title=" ">
<polygon fill="white" stroke="black" points="251.5,-56.5 251.5,-75.5 357.5,-75.5 357.5,-56.5 251.5,-56.5"/>
<text text-anchor="middle" x="304.5" y="-63.5" font-family="Helvetica,sans-Serif" font-size="10.00">useful_base_types.h</text>
</a>
</g>
</g>
<!-- Node17&#45;&gt;Node20 -->
<g id="edge22" class="edge"><title>Node17&#45;&gt;Node20</title>
<path fill="none" stroke="midnightblue" d="M304.5,-112.083C304.5,-105.006 304.5,-94.8611 304.5,-85.9865"/>
<polygon fill="midnightblue" stroke="midnightblue" points="308,-85.751 304.5,-75.7511 301,-85.7511 308,-85.751"/>
</g>
<!-- Node21&#45;&gt;Node7 -->
<g id="edge28" class="edge"><title>Node21&#45;&gt;Node7</title>
<path fill="none" stroke="midnightblue" d="M576.309,-112.324C559.149,-103.664 532.554,-90.2424 512.753,-80.249"/>
<polygon fill="midnightblue" stroke="midnightblue" points="514.153,-77.0354 503.649,-75.6545 510.999,-83.2847 514.153,-77.0354"/>
</g>
<!-- Node21&#45;&gt;Node8 -->
<g id="edge30" class="edge"><title>Node21&#45;&gt;Node8</title>
<path fill="none" stroke="midnightblue" d="M571.683,-114.7C540.905,-105.812 484.23,-89.446 445.955,-78.3933"/>
<polygon fill="midnightblue" stroke="midnightblue" points="446.745,-74.9785 436.166,-75.5667 444.803,-81.7037 446.745,-74.9785"/>
</g>
<!-- Node21&#45;&gt;Node18 -->
<g id="edge26" class="edge"><title>Node21&#45;&gt;Node18</title>
<path fill="none" stroke="midnightblue" d="M587.72,-112.083C582.828,-104.534 575.673,-93.4948 569.667,-84.2298"/>
<polygon fill="midnightblue" stroke="midnightblue" points="572.548,-82.239 564.172,-75.7511 566.674,-86.0463 572.548,-82.239"/>
</g>
<!-- Node22 -->
<g id="node22" class="node"><title>Node22</title>
<g id="a_node22"><a xlink:title=" ">
<polygon fill="white" stroke="#bfbfbf" points="599.5,-56.5 599.5,-75.5 659.5,-75.5 659.5,-56.5 599.5,-56.5"/>
<text text-anchor="middle" x="629.5" y="-63.5" font-family="Helvetica,sans-Serif" font-size="10.00">fmt/core.h</text>
</a>
</g>
</g>
<!-- Node21&#45;&gt;Node22 -->
<g id="edge24" class="edge"><title>Node21&#45;&gt;Node22</title>
<path fill="none" stroke="midnightblue" d="M599.445,-112.083C604.477,-104.534 611.837,-93.4948 618.013,-84.2298"/>
<polygon fill="midnightblue" stroke="midnightblue" points="621.031,-86.0131 623.666,-75.7511 615.207,-82.1301 621.031,-86.0131"/>
</g>
<!-- Node23 -->
<g id="node23" class="node"><title>Node23</title>
<g id="a_node23"><a xlink:title=" ">
<polygon fill="white" stroke="#bfbfbf" points="677.5,-56.5 677.5,-75.5 745.5,-75.5 745.5,-56.5 677.5,-56.5"/>
<text text-anchor="middle" x="711.5" y="-63.5" font-family="Helvetica,sans-Serif" font-size="10.00">fmt/format.h</text>
</a>
</g>
</g>
<!-- Node21&#45;&gt;Node23 -->
<g id="edge25" class="edge"><title>Node21&#45;&gt;Node23</title>
<path fill="none" stroke="midnightblue" d="M612.197,-112.444C631.444,-103.636 661.652,-89.8116 683.7,-79.722"/>
<polygon fill="midnightblue" stroke="midnightblue" points="685.253,-82.8603 692.89,-75.5164 682.34,-76.4951 685.253,-82.8603"/>
</g>
<!-- Node24 -->
<g id="node24" class="node"><title>Node24</title>
<g id="a_node24"><a xlink:title=" ">
<polygon fill="white" stroke="#bfbfbf" points="763.5,-56.5 763.5,-75.5 837.5,-75.5 837.5,-56.5 763.5,-56.5"/>
<text text-anchor="middle" x="800.5" y="-63.5" font-family="Helvetica,sans-Serif" font-size="10.00">system_error</text>
</a>
</g>
</g>
<!-- Node21&#45;&gt;Node24 -->
<g id="edge27" class="edge"><title>Node21&#45;&gt;Node24</title>
<path fill="none" stroke="midnightblue" d="M615.261,-115.323C649.063,-106.505 714.798,-89.357 758.174,-78.0415"/>
<polygon fill="midnightblue" stroke="midnightblue" points="759.085,-81.4211 767.878,-75.5102 757.318,-74.6478 759.085,-81.4211"/>
</g>
<!-- Node25 -->
<g id="node25" class="node"><title>Node25</title>
<g id="a_node25"><a xlink:title=" ">
<polygon fill="white" stroke="#bfbfbf" points="856,-56.5 856,-75.5 939,-75.5 939,-56.5 856,-56.5"/>
<text text-anchor="middle" x="897.5" y="-63.5" font-family="Helvetica,sans-Serif" font-size="10.00">unordered_map</text>
</a>
</g>
</g>
<!-- Node21&#45;&gt;Node25 -->
<g id="edge29" class="edge"><title>Node21&#45;&gt;Node25</title>
<path fill="none" stroke="midnightblue" d="M615.363,-117.116C663.211,-108.617 778.313,-88.1714 845.791,-76.1852"/>
<polygon fill="midnightblue" stroke="midnightblue" points="846.557,-79.604 855.791,-74.4089 845.332,-72.7119 846.557,-79.604"/>
</g>
</g>
</svg>
        <g id="navigator" transform="translate(0 0)" fill="#404254">
                <rect fill="#f2f5e9" fill-opacity="0.5" stroke="#606060" stroke-width=".5" x="0" y="0" width="60" height="60"/>
                <use id="zoomplus" xlink:href="#zoomPlus" x="17" y="9" onmousedown="handleZoom(evt,'in')"/>
                <use id="zoomminus" xlink:href="#zoomMin" x="42" y="9" onmousedown="handleZoom(evt,'out')"/>
                <use id="reset" xlink:href="#resetDef" x="30" y="36" onmousedown="handleReset()"/>
                <g id="arrowUp" xlink:href="#dirArrow" transform="translate(30 24)" onmousedown="handlePan(0,-1)">
                  <use xlink:href="#rim" fill="#404040">
                        <set attributeName="fill" to="#808080" begin="arrowUp.mouseover" end="arrowUp.mouseout"/>
                  </use>
                  <path fill="none" stroke="white" stroke-width="1.5" d="M0,-3.0v7 M-2.5,-0.5L0,-3.0L2.5,-0.5"/>
                </g>
                <g id="arrowRight" xlink:href="#dirArrow" transform="rotate(90) translate(36 -43)" onmousedown="handlePan(1,0)">
                  <use xlink:href="#rim" fill="#404040">
                        <set attributeName="fill" to="#808080" begin="arrowRight.mouseover" end="arrowRight.mouseout"/>
                  </use>
                  <path fill="none" stroke="white" stroke-width="1.5" d="M0,-3.0v7 M-2.5,-0.5L0,-3.0L2.5,-0.5"/>
                </g>
                <g id="arrowDown" xlink:href="#dirArrow" transform="rotate(180) translate(-30 -48)" onmousedown="handlePan(0,1)">
                  <use xlink:href="#rim" fill="#404040">
                        <set attributeName="fill" to="#808080" begin="arrowDown.mouseover" end="arrowDown.mouseout"/>
                  </use>
                  <path fill="none" stroke="white" stroke-width="1.5" d="M0,-3.0v7 M-2.5,-0.5L0,-3.0L2.5,-0.5"/>
                </g>
                <g id="arrowLeft" xlink:href="#dirArrow" transform="rotate(270) translate(-36 17)" onmousedown="handlePan(-1,0)">
                  <use xlink:href="#rim" fill="#404040">
                        <set attributeName="fill" to="#808080" begin="arrowLeft.mouseover" end="arrowLeft.mouseout"/>
                  </use>
                  <path fill="none" stroke="white" stroke-width="1.5" d="M0,-3.0v7 M-2.5,-0.5L0,-3.0L2.5,-0.5"/>
                </g>
        </g>
        <svg viewBox="0 0 15 15" width="100%" height="30px" preserveAspectRatio="xMaxYMin meet">
         <g id="arrow_out" transform="scale(0.3 0.3)">
          <a xlink:href="bin__rw_8h__incl_org.svg" target="_base">
           <rect id="button" ry="5" rx="5" y="6" x="6" height="38" width="38"
                fill="#f2f5e9" fill-opacity="0.5" stroke="#606060" stroke-width="1.0"/>
           <path id="arrow"
             d="M 11.500037,31.436501 C 11.940474,20.09759 22.043105,11.32322 32.158766,21.979434 L 37.068811,17.246167 C 37.068811,17.246167 37.088388,32 37.088388,32 L 22.160133,31.978069 C 22.160133,31.978069 26.997745,27.140456 26.997745,27.140456 C 18.528582,18.264221 13.291696,25.230495 11.500037,31.436501 z"
             style="fill:#404040;"/>
          </a>
         </g>
        </svg>
</svg>
