<?xml version="1.0" encoding="UTF-8" standalone="no"?>
<!DOCTYPE svg PUBLIC "-//W3C//DTD SVG 1.1//EN"
 "http://www.w3.org/Graphics/SVG/1.1/DTD/svg11.dtd">
<!-- Generated by graphviz version 2.38.0 (20140413.2041)
 -->
<!-- Title: C:/projects/ndt/sources/include/ndt/bin_rw.h Pages: 1 -->
<svg width="308pt" height="173pt"
 viewBox="0.00 0.00 308.09 173.00" xmlns="http://www.w3.org/2000/svg" xmlns:xlink="http://www.w3.org/1999/xlink">
<g id="graph0" class="graph" transform="scale(1 1) rotate(0) translate(4 169)">
<title>C:/projects/ndt/sources/include/ndt/bin_rw.h</title>
<polygon fill="white" stroke="none" points="-4,4 -4,-169 304.087,-169 304.087,4 -4,4"/>
<!-- Node1 -->
<g id="node1" class="node"><title>Node1</title>
<g id="a_node1"><a xlink:title=" ">
<polygon fill="#bfbfbf" stroke="black" points="30.0873,-134.5 30.0873,-164.5 148.087,-164.5 148.087,-134.5 30.0873,-134.5"/>
<text text-anchor="start" x="38.0873" y="-152.5" font-family="Helvetica,sans-Serif" font-size="10.00">C:/projects/ndt/sources</text>
<text text-anchor="middle" x="89.0873" y="-141.5" font-family="Helvetica,sans-Serif" font-size="10.00">/include/ndt/bin_rw.h</text>
</a>
</g>
</g>
<!-- Node2 -->
<g id="node2" class="node"><title>Node2</title>
<g id="a_node2"><a xlink:href="core_8h.html" target="_top" xlink:title=" ">
<polygon fill="white" stroke="black" points="30.0873,-0.5 30.0873,-30.5 148.087,-30.5 148.087,-0.5 30.0873,-0.5"/>
<text text-anchor="start" x="38.0873" y="-18.5" font-family="Helvetica,sans-Serif" font-size="10.00">C:/projects/ndt/sources</text>
<text text-anchor="middle" x="89.0873" y="-7.5" font-family="Helvetica,sans-Serif" font-size="10.00">/include/ndt/core.h</text>
</a>
</g>
</g>
<!-- Node1&#45;&gt;Node2 -->
<g id="edge1" class="edge"><title>Node1&#45;&gt;Node2</title>
<path fill="none" stroke="midnightblue" d="M39.6311,-129.828C26.0076,-122.137 12.8526,-111.729 5.08729,-98 -1.69576,-86.0076 -1.69576,-78.9924 5.08729,-67 14.5536,-50.2637 32.0294,-38.463 48.5995,-30.5016"/>
<polygon fill="midnightblue" stroke="midnightblue" points="38.1134,-132.984 48.5995,-134.498 41.3464,-126.775 38.1134,-132.984"/>
</g>
<!-- Node3 -->
<g id="node3" class="node"><title>Node3</title>
<g id="a_node3"><a xlink:href="packet_8h.html" target="_top" xlink:title=" ">
<polygon fill="white" stroke="black" points="182.087,-67.5 182.087,-97.5 300.087,-97.5 300.087,-67.5 182.087,-67.5"/>
<text text-anchor="start" x="190.087" y="-85.5" font-family="Helvetica,sans-Serif" font-size="10.00">C:/projects/ndt/sources</text>
<text text-anchor="middle" x="241.087" y="-74.5" font-family="Helvetica,sans-Serif" font-size="10.00">/include/ndt/packet.h</text>
</a>
</g>
</g>
<!-- Node1&#45;&gt;Node3 -->
<g id="edge2" class="edge"><title>Node1&#45;&gt;Node3</title>
<path fill="none" stroke="midnightblue" d="M131.398,-130.407C155.665,-120.029 185.677,-107.195 208.17,-97.5765"/>
<polygon fill="midnightblue" stroke="midnightblue" points="129.887,-127.246 122.069,-134.396 132.64,-133.682 129.887,-127.246"/>
</g>
<!-- Node5 -->
<g id="node5" class="node"><title>Node5</title>
<g id="a_node5"><a xlink:href="packet__handlers_8h.html" target="_top" xlink:title=" ">
<polygon fill="white" stroke="black" points="14.5873,-67.5 14.5873,-97.5 163.587,-97.5 163.587,-67.5 14.5873,-67.5"/>
<text text-anchor="start" x="22.5873" y="-85.5" font-family="Helvetica,sans-Serif" font-size="10.00">C:/projects/ndt/sources</text>
<text text-anchor="middle" x="89.0873" y="-74.5" font-family="Helvetica,sans-Serif" font-size="10.00">/include/ndt/packet_handlers.h</text>
</a>
</g>
</g>
<!-- Node1&#45;&gt;Node5 -->
<g id="edge5" class="edge"><title>Node1&#45;&gt;Node5</title>
<path fill="none" stroke="midnightblue" d="M89.0873,-124.108C89.0873,-115.154 89.0873,-105.323 89.0873,-97.5765"/>
<polygon fill="midnightblue" stroke="midnightblue" points="85.5874,-124.396 89.0873,-134.396 92.5874,-124.396 85.5874,-124.396"/>
</g>
<!-- Node3&#45;&gt;Node2 -->
<g id="edge3" class="edge"><title>Node3&#45;&gt;Node2</title>
<path fill="none" stroke="midnightblue" d="M198.777,-63.4066C174.51,-53.0294 144.498,-40.1954 122.005,-30.5765"/>
<polygon fill="midnightblue" stroke="midnightblue" points="197.535,-66.6821 208.106,-67.396 200.287,-60.2459 197.535,-66.6821"/>
</g>
<!-- Node4 -->
<g id="node4" class="node"><title>Node4</title>
<g id="a_node4"><a xlink:href="packet_8cpp.html" target="_top" xlink:title=" ">
<polygon fill="white" stroke="black" points="182.087,-0.5 182.087,-30.5 300.087,-30.5 300.087,-0.5 182.087,-0.5"/>
<text text-anchor="start" x="190.087" y="-18.5" font-family="Helvetica,sans-Serif" font-size="10.00">C:/projects/ndt/sources</text>
<text text-anchor="middle" x="241.087" y="-7.5" font-family="Helvetica,sans-Serif" font-size="10.00">/src/packet.cpp</text>
</a>
</g>
</g>
<!-- Node3&#45;&gt;Node4 -->
<g id="edge4" class="edge"><title>Node3&#45;&gt;Node4</title>
<path fill="none" stroke="midnightblue" d="M241.087,-57.1081C241.087,-48.1539 241.087,-38.3227 241.087,-30.5765"/>
<polygon fill="midnightblue" stroke="midnightblue" points="237.587,-57.3959 241.087,-67.396 244.587,-57.396 237.587,-57.3959"/>
</g>
<!-- Node5&#45;&gt;Node2 -->
<g id="edge6" class="edge"><title>Node5&#45;&gt;Node2</title>
<path fill="none" stroke="midnightblue" d="M89.0873,-57.1081C89.0873,-48.1539 89.0873,-38.3227 89.0873,-30.5765"/>
<polygon fill="midnightblue" stroke="midnightblue" points="85.5874,-57.3959 89.0873,-67.396 92.5874,-57.396 85.5874,-57.3959"/>
</g>
</g>
</svg>
