<?xml version="1.0" encoding="UTF-8" standalone="no"?>
<!DOCTYPE svg PUBLIC "-//W3C//DTD SVG 1.1//EN"
 "http://www.w3.org/Graphics/SVG/1.1/DTD/svg11.dtd">
<!-- Generated by graphviz version 2.38.0 (20140413.2041)
 -->
<!-- Title: C:/projects/ndt/sources/include/ndt/buffer.h Pages: 1 -->
<svg width="1138pt" height="619pt"
 viewBox="0.00 0.00 1138.00 619.00" xmlns="http://www.w3.org/2000/svg" xmlns:xlink="http://www.w3.org/1999/xlink">
<g id="graph0" class="graph" transform="scale(1 1) rotate(0) translate(4 615)">
<title>C:/projects/ndt/sources/include/ndt/buffer.h</title>
<polygon fill="white" stroke="none" points="-4,4 -4,-615 1134,-615 1134,4 -4,4"/>
<!-- Node1 -->
<g id="node1" class="node"><title>Node1</title>
<g id="a_node1"><a xlink:title=" ">
<polygon fill="#bfbfbf" stroke="black" points="582,-580.5 582,-610.5 700,-610.5 700,-580.5 582,-580.5"/>
<text text-anchor="start" x="590" y="-598.5" font-family="Helvetica,sans-Serif" font-size="10.00">C:/projects/ndt/sources</text>
<text text-anchor="middle" x="641" y="-587.5" font-family="Helvetica,sans-Serif" font-size="10.00">/include/ndt/buffer.h</text>
</a>
</g>
</g>
<!-- Node2 -->
<g id="node2" class="node"><title>Node2</title>
<g id="a_node2"><a xlink:href="address_8h.html" target="_top" xlink:title=" ">
<polygon fill="white" stroke="black" points="490,-446.5 490,-476.5 608,-476.5 608,-446.5 490,-446.5"/>
<text text-anchor="start" x="498" y="-464.5" font-family="Helvetica,sans-Serif" font-size="10.00">C:/projects/ndt/sources</text>
<text text-anchor="middle" x="549" y="-453.5" font-family="Helvetica,sans-Serif" font-size="10.00">/include/ndt/address.h</text>
</a>
</g>
</g>
<!-- Node1&#45;&gt;Node2 -->
<g id="edge1" class="edge"><title>Node1&#45;&gt;Node2</title>
<path fill="none" stroke="midnightblue" d="M625.202,-571.834C606.128,-544.466 574.637,-499.284 558.775,-476.525"/>
<polygon fill="midnightblue" stroke="midnightblue" points="622.565,-574.171 631.154,-580.374 628.308,-570.168 622.565,-574.171"/>
</g>
<!-- Node3 -->
<g id="node3" class="node"><title>Node3</title>
<g id="a_node3"><a xlink:href="core_8h.html" target="_top" xlink:title=" ">
<polygon fill="white" stroke="black" points="476,-0.5 476,-30.5 594,-30.5 594,-0.5 476,-0.5"/>
<text text-anchor="start" x="484" y="-18.5" font-family="Helvetica,sans-Serif" font-size="10.00">C:/projects/ndt/sources</text>
<text text-anchor="middle" x="535" y="-7.5" font-family="Helvetica,sans-Serif" font-size="10.00">/include/ndt/core.h</text>
</a>
</g>
</g>
<!-- Node1&#45;&gt;Node3 -->
<g id="edge28" class="edge"><title>Node1&#45;&gt;Node3</title>
<path fill="none" stroke="midnightblue" d="M571.755,-594.714C405.982,-593.363 0,-578.241 0,-462.5 0,-462.5 0,-462.5 0,-165 0,-67.1002 336.822,-31.0672 475.959,-20.3589"/>
<polygon fill="midnightblue" stroke="midnightblue" points="571.822,-598.214 581.845,-594.781 571.869,-591.214 571.822,-598.214"/>
</g>
<!-- Node4 -->
<g id="node4" class="node"><title>Node4</title>
<g id="a_node4"><a xlink:href="socket_8h.html" target="_top" xlink:title=" ">
<polygon fill="white" stroke="black" points="427,-379.5 427,-409.5 545,-409.5 545,-379.5 427,-379.5"/>
<text text-anchor="start" x="435" y="-397.5" font-family="Helvetica,sans-Serif" font-size="10.00">C:/projects/ndt/sources</text>
<text text-anchor="middle" x="486" y="-386.5" font-family="Helvetica,sans-Serif" font-size="10.00">/include/ndt/socket.h</text>
</a>
</g>
</g>
<!-- Node1&#45;&gt;Node4 -->
<g id="edge31" class="edge"><title>Node1&#45;&gt;Node4</title>
<path fill="none" stroke="midnightblue" d="M596.423,-575.938C557.973,-557.233 504.967,-524.336 481,-477 470.114,-455.5 475.891,-426.615 481.001,-409.634"/>
<polygon fill="midnightblue" stroke="midnightblue" points="595.32,-579.288 605.858,-580.388 598.306,-572.957 595.32,-579.288"/>
</g>
<!-- Node14 -->
<g id="node14" class="node"><title>Node14</title>
<g id="a_node14"><a xlink:href="bin__rw_8h.html" target="_top" xlink:title=" ">
<polygon fill="white" stroke="black" points="669,-513.5 669,-543.5 787,-543.5 787,-513.5 669,-513.5"/>
<text text-anchor="start" x="677" y="-531.5" font-family="Helvetica,sans-Serif" font-size="10.00">C:/projects/ndt/sources</text>
<text text-anchor="middle" x="728" y="-520.5" font-family="Helvetica,sans-Serif" font-size="10.00">/include/ndt/bin_rw.h</text>
</a>
</g>
</g>
<!-- Node1&#45;&gt;Node14 -->
<g id="edge20" class="edge"><title>Node1&#45;&gt;Node14</title>
<path fill="none" stroke="midnightblue" d="M668.214,-574.168C681.518,-564.228 697.196,-552.514 709.159,-543.577"/>
<polygon fill="midnightblue" stroke="midnightblue" points="665.794,-571.607 659.878,-580.396 669.984,-577.215 665.794,-571.607"/>
</g>
<!-- Node18 -->
<g id="node18" class="node"><title>Node18</title>
<g id="a_node18"><a xlink:href="file_8h.html" target="_top" xlink:title=" ">
<polygon fill="white" stroke="black" points="805,-513.5 805,-543.5 923,-543.5 923,-513.5 805,-513.5"/>
<text text-anchor="start" x="813" y="-531.5" font-family="Helvetica,sans-Serif" font-size="10.00">C:/projects/ndt/sources</text>
<text text-anchor="middle" x="864" y="-520.5" font-family="Helvetica,sans-Serif" font-size="10.00">/include/ndt/file.h</text>
</a>
</g>
</g>
<!-- Node1&#45;&gt;Node18 -->
<g id="edge29" class="edge"><title>Node1&#45;&gt;Node18</title>
<path fill="none" stroke="midnightblue" d="M699.049,-577.58C735.269,-567.022 781.345,-553.592 815.589,-543.611"/>
<polygon fill="midnightblue" stroke="midnightblue" points="697.734,-574.317 689.113,-580.476 699.693,-581.038 697.734,-574.317"/>
</g>
<!-- Node20 -->
<g id="node20" class="node"><title>Node20</title>
<g id="a_node20"><a xlink:href="buffer_8cpp.html" target="_top" xlink:title=" ">
<polygon fill="white" stroke="black" points="941,-513.5 941,-543.5 1059,-543.5 1059,-513.5 941,-513.5"/>
<text text-anchor="start" x="949" y="-531.5" font-family="Helvetica,sans-Serif" font-size="10.00">C:/projects/ndt/sources</text>
<text text-anchor="middle" x="1000" y="-520.5" font-family="Helvetica,sans-Serif" font-size="10.00">/src/buffer.cpp</text>
</a>
</g>
</g>
<!-- Node1&#45;&gt;Node20 -->
<g id="edge32" class="edge"><title>Node1&#45;&gt;Node20</title>
<path fill="none" stroke="midnightblue" d="M710.157,-583.264C769.203,-573.487 856.331,-558.628 932,-544 934.844,-543.45 937.753,-542.876 940.689,-542.287"/>
<polygon fill="midnightblue" stroke="midnightblue" points="709.495,-579.826 700.199,-584.908 710.636,-586.732 709.495,-579.826"/>
</g>
<!-- Node2&#45;&gt;Node3 -->
<g id="edge2" class="edge"><title>Node2&#45;&gt;Node3</title>
<path fill="none" stroke="midnightblue" d="M573.35,-439.192C599.088,-414.183 636,-370.105 636,-323 636,-323 636,-323 636,-165 636,-117.256 620.278,-105.469 592,-67 581.664,-52.9387 566.832,-39.9518 554.889,-30.6697"/>
<polygon fill="midnightblue" stroke="midnightblue" points="570.657,-436.92 565.774,-446.323 575.455,-442.017 570.657,-436.92"/>
</g>
<!-- Node2&#45;&gt;Node4 -->
<g id="edge3" class="edge"><title>Node2&#45;&gt;Node4</title>
<path fill="none" stroke="midnightblue" d="M528.185,-439.024C518.799,-429.34 507.976,-418.174 499.643,-409.577"/>
<polygon fill="midnightblue" stroke="midnightblue" points="525.857,-441.651 535.33,-446.396 530.883,-436.779 525.857,-441.651"/>
</g>
<!-- Node13 -->
<g id="node13" class="node"><title>Node13</title>
<g id="a_node13"><a xlink:href="address_8cpp.html" target="_top" xlink:title=" ">
<polygon fill="white" stroke="black" points="664,-379.5 664,-409.5 782,-409.5 782,-379.5 664,-379.5"/>
<text text-anchor="start" x="672" y="-397.5" font-family="Helvetica,sans-Serif" font-size="10.00">C:/projects/ndt/sources</text>
<text text-anchor="middle" x="723" y="-386.5" font-family="Helvetica,sans-Serif" font-size="10.00">/src/address.cpp</text>
</a>
</g>
</g>
<!-- Node2&#45;&gt;Node13 -->
<g id="edge19" class="edge"><title>Node2&#45;&gt;Node13</title>
<path fill="none" stroke="midnightblue" d="M596.332,-442.819C624.3,-432.371 659.227,-419.323 685.318,-409.577"/>
<polygon fill="midnightblue" stroke="midnightblue" points="594.898,-439.618 586.755,-446.396 597.348,-446.175 594.898,-439.618"/>
</g>
<!-- Node4&#45;&gt;Node3 -->
<g id="edge4" class="edge"><title>Node4&#45;&gt;Node3</title>
<path fill="none" stroke="midnightblue" d="M519.386,-373.792C531.449,-365.45 544.437,-354.898 554,-343 583.91,-305.786 598,-292.744 598,-245 598,-245 598,-245 598,-165 598,-112.07 563.661,-56.3531 545.687,-30.8144"/>
<polygon fill="midnightblue" stroke="midnightblue" points="517.23,-371.021 510.827,-379.463 521.097,-376.857 517.23,-371.021"/>
</g>
<!-- Node5 -->
<g id="node5" class="node"><title>Node5</title>
<g id="a_node5"><a xlink:href="executor__select__base_8h.html" target="_top" xlink:title=" ">
<polygon fill="white" stroke="black" points="173,-301.5 173,-342.5 291,-342.5 291,-301.5 173,-301.5"/>
<text text-anchor="start" x="181" y="-330.5" font-family="Helvetica,sans-Serif" font-size="10.00">C:/projects/ndt/sources</text>
<text text-anchor="start" x="181" y="-319.5" font-family="Helvetica,sans-Serif" font-size="10.00">/include/ndt/executor</text>
<text text-anchor="middle" x="232" y="-308.5" font-family="Helvetica,sans-Serif" font-size="10.00">_select_base.h</text>
</a>
</g>
</g>
<!-- Node4&#45;&gt;Node5 -->
<g id="edge5" class="edge"><title>Node4&#45;&gt;Node5</title>
<path fill="none" stroke="midnightblue" d="M425.737,-376.774C385.104,-365.495 331.74,-350.684 291.308,-339.462"/>
<polygon fill="midnightblue" stroke="midnightblue" points="424.942,-380.185 435.514,-379.487 426.814,-373.44 424.942,-380.185"/>
</g>
<!-- Node11 -->
<g id="node11" class="node"><title>Node11</title>
<g id="a_node11"><a xlink:href="udp_8h.html" target="_top" xlink:title=" ">
<polygon fill="white" stroke="black" points="427,-307 427,-337 545,-337 545,-307 427,-307"/>
<text text-anchor="start" x="435" y="-325" font-family="Helvetica,sans-Serif" font-size="10.00">C:/projects/ndt/sources</text>
<text text-anchor="middle" x="486" y="-314" font-family="Helvetica,sans-Serif" font-size="10.00">/include/ndt/udp.h</text>
</a>
</g>
</g>
<!-- Node4&#45;&gt;Node11 -->
<g id="edge16" class="edge"><title>Node4&#45;&gt;Node11</title>
<path fill="none" stroke="midnightblue" d="M486,-369.232C486,-358.568 486,-346.414 486,-337.246"/>
<polygon fill="midnightblue" stroke="midnightblue" points="482.5,-369.233 486,-379.233 489.5,-369.233 482.5,-369.233"/>
</g>
<!-- Node5&#45;&gt;Node3 -->
<g id="edge6" class="edge"><title>Node5&#45;&gt;Node3</title>
<path fill="none" stroke="midnightblue" d="M218.058,-291.984C195.399,-240.11 158.317,-130.927 213,-67 246.15,-28.2457 392.253,-19.0295 475.813,-16.9686"/>
<polygon fill="midnightblue" stroke="midnightblue" points="214.94,-293.585 222.231,-301.273 221.325,-290.716 214.94,-293.585"/>
</g>
<!-- Node6 -->
<g id="node6" class="node"><title>Node6</title>
<g id="a_node6"><a xlink:href="nix_2executor__select__impl_8h.html" target="_top" xlink:title=" ">
<polygon fill="white" stroke="black" points="260,-223.5 260,-264.5 396,-264.5 396,-223.5 260,-223.5"/>
<text text-anchor="start" x="268" y="-252.5" font-family="Helvetica,sans-Serif" font-size="10.00">C:/projects/ndt/sources</text>
<text text-anchor="start" x="268" y="-241.5" font-family="Helvetica,sans-Serif" font-size="10.00">/include/ndt/platform</text>
<text text-anchor="middle" x="328" y="-230.5" font-family="Helvetica,sans-Serif" font-size="10.00">/nix/executor_select_impl.h</text>
</a>
</g>
</g>
<!-- Node5&#45;&gt;Node6 -->
<g id="edge7" class="edge"><title>Node5&#45;&gt;Node6</title>
<path fill="none" stroke="midnightblue" d="M264.76,-295.065C277.401,-285.057 291.615,-273.804 303.361,-264.506"/>
<polygon fill="midnightblue" stroke="midnightblue" points="262.39,-292.477 256.722,-301.428 266.735,-297.965 262.39,-292.477"/>
</g>
<!-- Node10 -->
<g id="node10" class="node"><title>Node10</title>
<g id="a_node10"><a xlink:href="win_2executor__select__impl_8h.html" target="_top" xlink:title=" ">
<polygon fill="white" stroke="black" points="28.5,-223.5 28.5,-264.5 165.5,-264.5 165.5,-223.5 28.5,-223.5"/>
<text text-anchor="start" x="36.5" y="-252.5" font-family="Helvetica,sans-Serif" font-size="10.00">C:/projects/ndt/sources</text>
<text text-anchor="start" x="36.5" y="-241.5" font-family="Helvetica,sans-Serif" font-size="10.00">/include/ndt/platform</text>
<text text-anchor="middle" x="97" y="-230.5" font-family="Helvetica,sans-Serif" font-size="10.00">/win/executor_select_impl.h</text>
</a>
</g>
</g>
<!-- Node5&#45;&gt;Node10 -->
<g id="edge15" class="edge"><title>Node5&#45;&gt;Node10</title>
<path fill="none" stroke="midnightblue" d="M188.455,-296.486C170.066,-286.134 148.952,-274.247 131.648,-264.506"/>
<polygon fill="midnightblue" stroke="midnightblue" points="186.803,-299.572 197.234,-301.428 190.237,-293.472 186.803,-299.572"/>
</g>
<!-- Node7 -->
<g id="node7" class="node"><title>Node7</title>
<g id="a_node7"><a xlink:href="executor__select_8h.html" target="_top" xlink:title=" ">
<polygon fill="white" stroke="black" points="319,-145.5 319,-186.5 437,-186.5 437,-145.5 319,-145.5"/>
<text text-anchor="start" x="327" y="-174.5" font-family="Helvetica,sans-Serif" font-size="10.00">C:/projects/ndt/sources</text>
<text text-anchor="start" x="327" y="-163.5" font-family="Helvetica,sans-Serif" font-size="10.00">/include/ndt/executor</text>
<text text-anchor="middle" x="378" y="-152.5" font-family="Helvetica,sans-Serif" font-size="10.00">_select.h</text>
</a>
</g>
</g>
<!-- Node6&#45;&gt;Node7 -->
<g id="edge8" class="edge"><title>Node6&#45;&gt;Node7</title>
<path fill="none" stroke="midnightblue" d="M346.39,-215.048C352.628,-205.566 359.458,-195.185 365.167,-186.506"/>
<polygon fill="midnightblue" stroke="midnightblue" points="343.448,-213.15 340.876,-223.428 349.296,-216.998 343.448,-213.15"/>
</g>
<!-- Node7&#45;&gt;Node3 -->
<g id="edge11" class="edge"><title>Node7&#45;&gt;Node3</title>
<path fill="none" stroke="midnightblue" d="M446.256,-143.267C464.537,-134.863 483.067,-123.649 497,-109 518.298,-86.6082 528.35,-50.635 532.498,-30.7926"/>
<polygon fill="midnightblue" stroke="midnightblue" points="444.802,-140.082 437.035,-147.288 447.601,-146.499 444.802,-140.082"/>
</g>
<!-- Node8 -->
<g id="node8" class="node"><title>Node8</title>
<g id="a_node8"><a xlink:href="context_8h.html" target="_top" xlink:title=" ">
<polygon fill="white" stroke="black" points="370,-73 370,-103 488,-103 488,-73 370,-73"/>
<text text-anchor="start" x="378" y="-91" font-family="Helvetica,sans-Serif" font-size="10.00">C:/projects/ndt/sources</text>
<text text-anchor="middle" x="429" y="-80" font-family="Helvetica,sans-Serif" font-size="10.00">/include/ndt/context.h</text>
</a>
</g>
</g>
<!-- Node7&#45;&gt;Node8 -->
<g id="edge9" class="edge"><title>Node7&#45;&gt;Node8</title>
<path fill="none" stroke="midnightblue" d="M396.803,-136.98C404.507,-125.499 413.089,-112.711 419.454,-103.225"/>
<polygon fill="midnightblue" stroke="midnightblue" points="393.8,-135.174 391.134,-145.428 399.612,-139.075 393.8,-135.174"/>
</g>
<!-- Node9 -->
<g id="node9" class="node"><title>Node9</title>
<g id="a_node9"><a xlink:href="event__handler__select_8h.html" target="_top" xlink:title=" ">
<polygon fill="white" stroke="black" points="222.5,-67.5 222.5,-108.5 351.5,-108.5 351.5,-67.5 222.5,-67.5"/>
<text text-anchor="start" x="230.5" y="-96.5" font-family="Helvetica,sans-Serif" font-size="10.00">C:/projects/ndt/sources</text>
<text text-anchor="start" x="230.5" y="-85.5" font-family="Helvetica,sans-Serif" font-size="10.00">/include/ndt/event_handler</text>
<text text-anchor="middle" x="287" y="-74.5" font-family="Helvetica,sans-Serif" font-size="10.00">_select.h</text>
</a>
</g>
</g>
<!-- Node7&#45;&gt;Node9 -->
<g id="edge12" class="edge"><title>Node7&#45;&gt;Node9</title>
<path fill="none" stroke="midnightblue" d="M346.603,-138.779C334.707,-128.843 321.384,-117.716 310.355,-108.506"/>
<polygon fill="midnightblue" stroke="midnightblue" points="344.646,-141.704 354.565,-145.428 349.133,-136.332 344.646,-141.704"/>
</g>
<!-- Node8&#45;&gt;Node3 -->
<g id="edge10" class="edge"><title>Node8&#45;&gt;Node3</title>
<path fill="none" stroke="midnightblue" d="M458.917,-67.1026C476.424,-55.4589 498.107,-41.0375 513.841,-30.5729"/>
<polygon fill="midnightblue" stroke="midnightblue" points="456.584,-64.4504 450.196,-72.9027 460.461,-70.279 456.584,-64.4504"/>
</g>
<!-- Node9&#45;&gt;Node3 -->
<g id="edge13" class="edge"><title>Node9&#45;&gt;Node3</title>
<path fill="none" stroke="midnightblue" d="M361.283,-65.8833C401.524,-54.4437 450.138,-40.6241 485.693,-30.5168"/>
<polygon fill="midnightblue" stroke="midnightblue" points="360.174,-62.5599 351.512,-68.661 362.088,-69.2931 360.174,-62.5599"/>
</g>
<!-- Node9&#45;&gt;Node5 -->
<g id="edge14" class="edge"><title>Node9&#45;&gt;Node5</title>
<path fill="none" stroke="midnightblue" d="M278.428,-118.5C270.723,-145.551 259.364,-186.787 251,-223 244.76,-250.018 238.898,-281.545 235.379,-301.39"/>
<polygon fill="midnightblue" stroke="midnightblue" points="281.798,-119.445 281.189,-108.867 275.069,-117.516 281.798,-119.445"/>
</g>
<!-- Node11&#45;&gt;Node3 -->
<g id="edge17" class="edge"><title>Node11&#45;&gt;Node3</title>
<path fill="none" stroke="midnightblue" d="M464.084,-299.425C455.788,-289.764 447.312,-277.695 443,-265 436.997,-247.325 437.326,-240.783 443,-223 461.894,-163.787 501.637,-166.991 524,-109 534.125,-82.745 535.568,-49.4477 535.454,-30.8104"/>
<polygon fill="midnightblue" stroke="midnightblue" points="461.596,-301.892 470.914,-306.935 466.775,-297.182 461.596,-301.892"/>
</g>
<!-- Node12 -->
<g id="node12" class="node"><title>Node12</title>
<g id="a_node12"><a xlink:href="udp_8cpp.html" target="_top" xlink:title=" ">
<polygon fill="white" stroke="black" points="452,-229 452,-259 570,-259 570,-229 452,-229"/>
<text text-anchor="start" x="460" y="-247" font-family="Helvetica,sans-Serif" font-size="10.00">C:/projects/ndt/sources</text>
<text text-anchor="middle" x="511" y="-236" font-family="Helvetica,sans-Serif" font-size="10.00">/src/udp.cpp</text>
</a>
</g>
</g>
<!-- Node11&#45;&gt;Node12 -->
<g id="edge18" class="edge"><title>Node11&#45;&gt;Node12</title>
<path fill="none" stroke="midnightblue" d="M493.907,-296.963C497.99,-284.551 502.832,-269.83 506.319,-259.231"/>
<polygon fill="midnightblue" stroke="midnightblue" points="490.502,-296.112 490.702,-306.705 497.152,-298.299 490.502,-296.112"/>
</g>
<!-- Node14&#45;&gt;Node2 -->
<g id="edge21" class="edge"><title>Node14&#45;&gt;Node2</title>
<path fill="none" stroke="midnightblue" d="M679.684,-509.955C650.85,-499.485 614.722,-486.366 587.765,-476.577"/>
<polygon fill="midnightblue" stroke="midnightblue" points="678.566,-513.273 689.16,-513.396 680.955,-506.693 678.566,-513.273"/>
</g>
<!-- Node14&#45;&gt;Node3 -->
<g id="edge22" class="edge"><title>Node14&#45;&gt;Node3</title>
<path fill="none" stroke="midnightblue" d="M751.661,-506.251C775.882,-482.048 810,-440.049 810,-395.5 810,-395.5 810,-395.5 810,-165 810,-67.7402 675.175,-33.8765 594.332,-22.3135"/>
<polygon fill="midnightblue" stroke="midnightblue" points="748.957,-503.997 744.201,-513.465 753.823,-509.03 748.957,-503.997"/>
</g>
<!-- Node14&#45;&gt;Node13 -->
<g id="edge27" class="edge"><title>Node14&#45;&gt;Node13</title>
<path fill="none" stroke="midnightblue" d="M742.211,-504.409C746.571,-496.083 750.798,-486.412 753,-477 756.139,-463.585 756.649,-459.286 753,-446 749.327,-432.626 741.09,-419.21 734.175,-409.57"/>
<polygon fill="midnightblue" stroke="midnightblue" points="739.148,-502.716 737.332,-513.154 745.26,-506.126 739.148,-502.716"/>
</g>
<!-- Node15 -->
<g id="node15" class="node"><title>Node15</title>
<g id="a_node15"><a xlink:href="packet__handlers_8h.html" target="_top" xlink:title=" ">
<polygon fill="white" stroke="black" points="838.5,-151 838.5,-181 987.5,-181 987.5,-151 838.5,-151"/>
<text text-anchor="start" x="846.5" y="-169" font-family="Helvetica,sans-Serif" font-size="10.00">C:/projects/ndt/sources</text>
<text text-anchor="middle" x="913" y="-158" font-family="Helvetica,sans-Serif" font-size="10.00">/include/ndt/packet_handlers.h</text>
</a>
</g>
</g>
<!-- Node14&#45;&gt;Node15 -->
<g id="edge23" class="edge"><title>Node14&#45;&gt;Node15</title>
<path fill="none" stroke="midnightblue" d="M780.548,-509.194C796.417,-501.426 812.626,-490.881 824,-477 847.932,-447.793 848,-433.26 848,-395.5 848,-395.5 848,-395.5 848,-321 848,-265.572 884.183,-207.128 902.557,-181.023"/>
<polygon fill="midnightblue" stroke="midnightblue" points="778.909,-506.096 771.284,-513.452 781.832,-512.456 778.909,-506.096"/>
</g>
<!-- Node16 -->
<g id="node16" class="node"><title>Node16</title>
<g id="a_node16"><a xlink:href="serialize_8h.html" target="_top" xlink:title=" ">
<polygon fill="white" stroke="black" points="876,-446.5 876,-476.5 994,-476.5 994,-446.5 876,-446.5"/>
<text text-anchor="start" x="884" y="-464.5" font-family="Helvetica,sans-Serif" font-size="10.00">C:/projects/ndt/sources</text>
<text text-anchor="middle" x="935" y="-453.5" font-family="Helvetica,sans-Serif" font-size="10.00">/include/ndt/serialize.h</text>
</a>
</g>
</g>
<!-- Node14&#45;&gt;Node16 -->
<g id="edge25" class="edge"><title>Node14&#45;&gt;Node16</title>
<path fill="none" stroke="midnightblue" d="M782.316,-510.444C815.871,-499.908 858.412,-486.549 890.062,-476.611"/>
<polygon fill="midnightblue" stroke="midnightblue" points="781.153,-507.141 772.661,-513.476 783.25,-513.819 781.153,-507.141"/>
</g>
<!-- Node17 -->
<g id="node17" class="node"><title>Node17</title>
<g id="a_node17"><a xlink:href="value_8h.html" target="_top" xlink:title=" ">
<polygon fill="white" stroke="black" points="626,-446.5 626,-476.5 744,-476.5 744,-446.5 626,-446.5"/>
<text text-anchor="start" x="634" y="-464.5" font-family="Helvetica,sans-Serif" font-size="10.00">C:/projects/ndt/sources</text>
<text text-anchor="middle" x="685" y="-453.5" font-family="Helvetica,sans-Serif" font-size="10.00">/include/ndt/value.h</text>
</a>
</g>
</g>
<!-- Node14&#45;&gt;Node17 -->
<g id="edge26" class="edge"><title>Node14&#45;&gt;Node17</title>
<path fill="none" stroke="midnightblue" d="M713.027,-504.867C706.804,-495.459 699.774,-484.833 694.312,-476.577"/>
<polygon fill="midnightblue" stroke="midnightblue" points="710.233,-506.987 718.67,-513.396 716.071,-503.125 710.233,-506.987"/>
</g>
<!-- Node15&#45;&gt;Node3 -->
<g id="edge24" class="edge"><title>Node15&#45;&gt;Node3</title>
<path fill="none" stroke="midnightblue" d="M899.131,-142.512C883.739,-119.617 856.705,-85.0045 824,-67 751.717,-27.2067 655.186,-17.554 594.043,-15.8305"/>
<polygon fill="midnightblue" stroke="midnightblue" points="896.236,-144.481 904.631,-150.944 902.099,-140.656 896.236,-144.481"/>
</g>
<!-- Node19 -->
<g id="node19" class="node"><title>Node19</title>
<g id="a_node19"><a xlink:href="file_8cpp.html" target="_top" xlink:title=" ">
<polygon fill="white" stroke="black" points="1012,-446.5 1012,-476.5 1130,-476.5 1130,-446.5 1012,-446.5"/>
<text text-anchor="start" x="1020" y="-464.5" font-family="Helvetica,sans-Serif" font-size="10.00">C:/projects/ndt/sources</text>
<text text-anchor="middle" x="1071" y="-453.5" font-family="Helvetica,sans-Serif" font-size="10.00">/src/file.cpp</text>
</a>
</g>
</g>
<!-- Node18&#45;&gt;Node19 -->
<g id="edge30" class="edge"><title>Node18&#45;&gt;Node19</title>
<path fill="none" stroke="midnightblue" d="M918.316,-510.444C951.871,-499.908 994.412,-486.549 1026.06,-476.611"/>
<polygon fill="midnightblue" stroke="midnightblue" points="917.153,-507.141 908.661,-513.476 919.25,-513.819 917.153,-507.141"/>
</g>
</g>
</svg>
