<?xml version="1.0" encoding="UTF-8" standalone="no"?>
<!DOCTYPE svg PUBLIC "-//W3C//DTD SVG 1.1//EN"
 "http://www.w3.org/Graphics/SVG/1.1/DTD/svg11.dtd">
<!-- Generated by graphviz version 2.38.0 (20140413.2041)
 -->
<!-- Title: C:/projects/ndt/sources/include/ndt/buffer.h Pages: 1 -->
<svg width="893pt" height="552pt"
 viewBox="0.00 0.00 893.00 552.00" xmlns="http://www.w3.org/2000/svg" xmlns:xlink="http://www.w3.org/1999/xlink">
<g id="graph0" class="graph" transform="scale(1 1) rotate(0) translate(4 548)">
<title>C:/projects/ndt/sources/include/ndt/buffer.h</title>
<polygon fill="white" stroke="none" points="-4,4 -4,-548 889,-548 889,4 -4,4"/>
<!-- Node1 -->
<g id="node1" class="node"><title>Node1</title>
<g id="a_node1"><a xlink:title=" ">
<polygon fill="#bfbfbf" stroke="black" points="577,-513.5 577,-543.5 695,-543.5 695,-513.5 577,-513.5"/>
<text text-anchor="start" x="585" y="-531.5" font-family="Helvetica,sans-Serif" font-size="10.00">C:/projects/ndt/sources</text>
<text text-anchor="middle" x="636" y="-520.5" font-family="Helvetica,sans-Serif" font-size="10.00">/include/ndt/buffer.h</text>
</a>
</g>
</g>
<!-- Node2 -->
<g id="node2" class="node"><title>Node2</title>
<g id="a_node2"><a xlink:href="address_8h.html" target="_top" xlink:title=" ">
<polygon fill="white" stroke="black" points="268,-446.5 268,-476.5 386,-476.5 386,-446.5 268,-446.5"/>
<text text-anchor="start" x="276" y="-464.5" font-family="Helvetica,sans-Serif" font-size="10.00">C:/projects/ndt/sources</text>
<text text-anchor="middle" x="327" y="-453.5" font-family="Helvetica,sans-Serif" font-size="10.00">/include/ndt/address.h</text>
</a>
</g>
</g>
<!-- Node1&#45;&gt;Node2 -->
<g id="edge1" class="edge"><title>Node1&#45;&gt;Node2</title>
<path fill="none" stroke="midnightblue" d="M566.885,-512.961C512.519,-501.525 437.589,-485.763 386.012,-474.914"/>
<polygon fill="midnightblue" stroke="midnightblue" points="566.281,-516.411 576.787,-515.044 567.722,-509.561 566.281,-516.411"/>
</g>
<!-- Node3 -->
<g id="node3" class="node"><title>Node3</title>
<g id="a_node3"><a xlink:href="core_8h.html" target="_top" xlink:title=" ">
<polygon fill="white" stroke="black" points="310,-0.5 310,-30.5 428,-30.5 428,-0.5 310,-0.5"/>
<text text-anchor="start" x="318" y="-18.5" font-family="Helvetica,sans-Serif" font-size="10.00">C:/projects/ndt/sources</text>
<text text-anchor="middle" x="369" y="-7.5" font-family="Helvetica,sans-Serif" font-size="10.00">/include/ndt/core.h</text>
</a>
</g>
</g>
<!-- Node1&#45;&gt;Node3 -->
<g id="edge27" class="edge"><title>Node1&#45;&gt;Node3</title>
<path fill="none" stroke="midnightblue" d="M636,-502.989C636,-476.487 636,-432.997 636,-395.5 636,-395.5 636,-395.5 636,-321 636,-185.16 574.888,-148.215 466,-67 446.368,-52.3571 421.891,-39.6484 402.437,-30.6428"/>
<polygon fill="midnightblue" stroke="midnightblue" points="632.5,-503.241 636,-513.241 639.5,-503.241 632.5,-503.241"/>
</g>
<!-- Node4 -->
<g id="node4" class="node"><title>Node4</title>
<g id="a_node4"><a xlink:href="socket_8h.html" target="_top" xlink:title=" ">
<polygon fill="white" stroke="black" points="336,-379.5 336,-409.5 454,-409.5 454,-379.5 336,-379.5"/>
<text text-anchor="start" x="344" y="-397.5" font-family="Helvetica,sans-Serif" font-size="10.00">C:/projects/ndt/sources</text>
<text text-anchor="middle" x="395" y="-386.5" font-family="Helvetica,sans-Serif" font-size="10.00">/include/ndt/socket.h</text>
</a>
</g>
</g>
<!-- Node1&#45;&gt;Node4 -->
<g id="edge30" class="edge"><title>Node1&#45;&gt;Node4</title>
<path fill="none" stroke="midnightblue" d="M601.249,-508.467C552.267,-481.638 464.056,-433.323 420.606,-409.525"/>
<polygon fill="midnightblue" stroke="midnightblue" points="599.757,-511.64 610.209,-513.374 603.12,-505.5 599.757,-511.64"/>
</g>
<!-- Node14 -->
<g id="node14" class="node"><title>Node14</title>
<g id="a_node14"><a xlink:href="bin__rw_8h.html" target="_top" xlink:title=" ">
<polygon fill="white" stroke="black" points="615,-151 615,-181 733,-181 733,-151 615,-151"/>
<text text-anchor="start" x="623" y="-169" font-family="Helvetica,sans-Serif" font-size="10.00">C:/projects/ndt/sources</text>
<text text-anchor="middle" x="674" y="-158" font-family="Helvetica,sans-Serif" font-size="10.00">/include/ndt/bin_rw.h</text>
</a>
</g>
</g>
<!-- Node1&#45;&gt;Node14 -->
<g id="edge20" class="edge"><title>Node1&#45;&gt;Node14</title>
<path fill="none" stroke="midnightblue" d="M647.154,-503.859C658.366,-477.89 674,-434.658 674,-395.5 674,-395.5 674,-395.5 674,-321 674,-269.399 674,-208.073 674,-181.014"/>
<polygon fill="midnightblue" stroke="midnightblue" points="643.848,-502.68 642.97,-513.238 650.24,-505.532 643.848,-502.68"/>
</g>
<!-- Node18 -->
<g id="node18" class="node"><title>Node18</title>
<g id="a_node18"><a xlink:href="file_8h.html" target="_top" xlink:title=" ">
<polygon fill="white" stroke="black" points="702,-446.5 702,-476.5 820,-476.5 820,-446.5 702,-446.5"/>
<text text-anchor="start" x="710" y="-464.5" font-family="Helvetica,sans-Serif" font-size="10.00">C:/projects/ndt/sources</text>
<text text-anchor="middle" x="761" y="-453.5" font-family="Helvetica,sans-Serif" font-size="10.00">/include/ndt/file.h</text>
</a>
</g>
</g>
<!-- Node1&#45;&gt;Node18 -->
<g id="edge28" class="edge"><title>Node1&#45;&gt;Node18</title>
<path fill="none" stroke="midnightblue" d="M672.126,-508.714C691.84,-498.463 715.841,-485.983 733.93,-476.577"/>
<polygon fill="midnightblue" stroke="midnightblue" points="670.381,-505.677 663.123,-513.396 673.61,-511.888 670.381,-505.677"/>
</g>
<!-- Node2&#45;&gt;Node3 -->
<g id="edge2" class="edge"><title>Node2&#45;&gt;Node3</title>
<path fill="none" stroke="midnightblue" d="M257.561,-460.646C161.562,-456.783 0,-433.819 0,-323 0,-323 0,-323 0,-165 0,-115.693 11.8833,-95.6681 52,-67 92.3537,-38.1626 229.847,-25.0125 309.886,-19.6763"/>
<polygon fill="midnightblue" stroke="midnightblue" points="257.669,-464.152 267.783,-460.996 257.908,-457.156 257.669,-464.152"/>
</g>
<!-- Node2&#45;&gt;Node4 -->
<g id="edge3" class="edge"><title>Node2&#45;&gt;Node4</title>
<path fill="none" stroke="midnightblue" d="M349.166,-439.311C359.367,-429.561 371.191,-418.259 380.274,-409.577"/>
<polygon fill="midnightblue" stroke="midnightblue" points="346.565,-436.956 341.755,-446.396 351.402,-442.016 346.565,-436.956"/>
</g>
<!-- Node13 -->
<g id="node13" class="node"><title>Node13</title>
<g id="a_node13"><a xlink:href="address_8cpp.html" target="_top" xlink:title=" ">
<polygon fill="white" stroke="black" points="200,-379.5 200,-409.5 318,-409.5 318,-379.5 200,-379.5"/>
<text text-anchor="start" x="208" y="-397.5" font-family="Helvetica,sans-Serif" font-size="10.00">C:/projects/ndt/sources</text>
<text text-anchor="middle" x="259" y="-386.5" font-family="Helvetica,sans-Serif" font-size="10.00">/src/address.cpp</text>
</a>
</g>
</g>
<!-- Node2&#45;&gt;Node13 -->
<g id="edge19" class="edge"><title>Node2&#45;&gt;Node13</title>
<path fill="none" stroke="midnightblue" d="M304.834,-439.311C294.633,-429.561 282.809,-418.259 273.726,-409.577"/>
<polygon fill="midnightblue" stroke="midnightblue" points="302.598,-442.016 312.245,-446.396 307.435,-436.956 302.598,-442.016"/>
</g>
<!-- Node4&#45;&gt;Node3 -->
<g id="edge4" class="edge"><title>Node4&#45;&gt;Node3</title>
<path fill="none" stroke="midnightblue" d="M339.38,-376.389C239.028,-344.714 38,-277.238 38,-245 38,-245 38,-245 38,-165 38,-47.2207 214.617,-22.2723 309.824,-17.3799"/>
<polygon fill="midnightblue" stroke="midnightblue" points="338.47,-379.772 349.059,-379.432 340.569,-373.094 338.47,-379.772"/>
</g>
<!-- Node5 -->
<g id="node5" class="node"><title>Node5</title>
<g id="a_node5"><a xlink:href="executor__select__base_8h.html" target="_top" xlink:title=" ">
<polygon fill="white" stroke="black" points="268,-301.5 268,-342.5 386,-342.5 386,-301.5 268,-301.5"/>
<text text-anchor="start" x="276" y="-330.5" font-family="Helvetica,sans-Serif" font-size="10.00">C:/projects/ndt/sources</text>
<text text-anchor="start" x="276" y="-319.5" font-family="Helvetica,sans-Serif" font-size="10.00">/include/ndt/executor</text>
<text text-anchor="middle" x="327" y="-308.5" font-family="Helvetica,sans-Serif" font-size="10.00">_select_base.h</text>
</a>
</g>
</g>
<!-- Node4&#45;&gt;Node5 -->
<g id="edge5" class="edge"><title>Node4&#45;&gt;Node5</title>
<path fill="none" stroke="midnightblue" d="M374.09,-371.821C365.094,-362.494 354.654,-351.671 345.894,-342.588"/>
<polygon fill="midnightblue" stroke="midnightblue" points="371.778,-374.466 381.239,-379.233 376.816,-369.606 371.778,-374.466"/>
</g>
<!-- Node11 -->
<g id="node11" class="node"><title>Node11</title>
<g id="a_node11"><a xlink:href="udp_8h.html" target="_top" xlink:title=" ">
<polygon fill="white" stroke="black" points="404,-307 404,-337 522,-337 522,-307 404,-307"/>
<text text-anchor="start" x="412" y="-325" font-family="Helvetica,sans-Serif" font-size="10.00">C:/projects/ndt/sources</text>
<text text-anchor="middle" x="463" y="-314" font-family="Helvetica,sans-Serif" font-size="10.00">/include/ndt/udp.h</text>
</a>
</g>
</g>
<!-- Node4&#45;&gt;Node11 -->
<g id="edge16" class="edge"><title>Node4&#45;&gt;Node11</title>
<path fill="none" stroke="midnightblue" d="M415.869,-371.864C426.72,-360.614 439.679,-347.179 449.26,-337.246"/>
<polygon fill="midnightblue" stroke="midnightblue" points="413.184,-369.606 408.761,-379.233 418.222,-374.466 413.184,-369.606"/>
</g>
<!-- Node5&#45;&gt;Node3 -->
<g id="edge6" class="edge"><title>Node5&#45;&gt;Node3</title>
<path fill="none" stroke="midnightblue" d="M257.957,-313.711C197.083,-305.691 115.031,-290.442 95,-265 83.4526,-250.334 91.9569,-241.417 95,-223 106.937,-150.754 93.6285,-116.048 148,-67 171.488,-45.8114 252.618,-31.3208 309.738,-23.471"/>
<polygon fill="midnightblue" stroke="midnightblue" points="257.549,-317.187 267.912,-314.984 258.437,-310.244 257.549,-317.187"/>
</g>
<!-- Node6 -->
<g id="node6" class="node"><title>Node6</title>
<g id="a_node6"><a xlink:href="nix_2executor__select__impl_8h.html" target="_top" xlink:title=" ">
<polygon fill="white" stroke="black" points="104,-223.5 104,-264.5 240,-264.5 240,-223.5 104,-223.5"/>
<text text-anchor="start" x="112" y="-252.5" font-family="Helvetica,sans-Serif" font-size="10.00">C:/projects/ndt/sources</text>
<text text-anchor="start" x="112" y="-241.5" font-family="Helvetica,sans-Serif" font-size="10.00">/include/ndt/platform</text>
<text text-anchor="middle" x="172" y="-230.5" font-family="Helvetica,sans-Serif" font-size="10.00">/nix/executor_select_impl.h</text>
</a>
</g>
</g>
<!-- Node5&#45;&gt;Node6 -->
<g id="edge7" class="edge"><title>Node5&#45;&gt;Node6</title>
<path fill="none" stroke="midnightblue" d="M277.865,-296.908C256.553,-286.458 231.92,-274.38 211.781,-264.506"/>
<polygon fill="midnightblue" stroke="midnightblue" points="276.564,-300.168 287.084,-301.428 279.646,-293.883 276.564,-300.168"/>
</g>
<!-- Node10 -->
<g id="node10" class="node"><title>Node10</title>
<g id="a_node10"><a xlink:href="win_2executor__select__impl_8h.html" target="_top" xlink:title=" ">
<polygon fill="white" stroke="black" points="258.5,-223.5 258.5,-264.5 395.5,-264.5 395.5,-223.5 258.5,-223.5"/>
<text text-anchor="start" x="266.5" y="-252.5" font-family="Helvetica,sans-Serif" font-size="10.00">C:/projects/ndt/sources</text>
<text text-anchor="start" x="266.5" y="-241.5" font-family="Helvetica,sans-Serif" font-size="10.00">/include/ndt/platform</text>
<text text-anchor="middle" x="327" y="-230.5" font-family="Helvetica,sans-Serif" font-size="10.00">/win/executor_select_impl.h</text>
</a>
</g>
</g>
<!-- Node5&#45;&gt;Node10 -->
<g id="edge15" class="edge"><title>Node5&#45;&gt;Node10</title>
<path fill="none" stroke="midnightblue" d="M327,-291.297C327,-282.301 327,-272.653 327,-264.506"/>
<polygon fill="midnightblue" stroke="midnightblue" points="323.5,-291.428 327,-301.428 330.5,-291.428 323.5,-291.428"/>
</g>
<!-- Node7 -->
<g id="node7" class="node"><title>Node7</title>
<g id="a_node7"><a xlink:href="executor__select_8h.html" target="_top" xlink:title=" ">
<polygon fill="white" stroke="black" points="140,-145.5 140,-186.5 258,-186.5 258,-145.5 140,-145.5"/>
<text text-anchor="start" x="148" y="-174.5" font-family="Helvetica,sans-Serif" font-size="10.00">C:/projects/ndt/sources</text>
<text text-anchor="start" x="148" y="-163.5" font-family="Helvetica,sans-Serif" font-size="10.00">/include/ndt/executor</text>
<text text-anchor="middle" x="199" y="-152.5" font-family="Helvetica,sans-Serif" font-size="10.00">_select.h</text>
</a>
</g>
</g>
<!-- Node6&#45;&gt;Node7 -->
<g id="edge8" class="edge"><title>Node6&#45;&gt;Node7</title>
<path fill="none" stroke="midnightblue" d="M182.344,-213.882C185.599,-204.721 189.113,-194.83 192.07,-186.506"/>
<polygon fill="midnightblue" stroke="midnightblue" points="179.003,-212.833 178.953,-223.428 185.599,-215.177 179.003,-212.833"/>
</g>
<!-- Node7&#45;&gt;Node3 -->
<g id="edge11" class="edge"><title>Node7&#45;&gt;Node3</title>
<path fill="none" stroke="midnightblue" d="M173.586,-137.414C157.485,-116.503 142.532,-87.8971 159,-67 177.509,-43.5121 254.474,-29.6889 309.867,-22.6049"/>
<polygon fill="midnightblue" stroke="midnightblue" points="170.967,-139.741 179.988,-145.298 176.402,-135.329 170.967,-139.741"/>
</g>
<!-- Node8 -->
<g id="node8" class="node"><title>Node8</title>
<g id="a_node8"><a xlink:href="context_8h.html" target="_top" xlink:title=" ">
<polygon fill="white" stroke="black" points="168,-73 168,-103 286,-103 286,-73 168,-73"/>
<text text-anchor="start" x="176" y="-91" font-family="Helvetica,sans-Serif" font-size="10.00">C:/projects/ndt/sources</text>
<text text-anchor="middle" x="227" y="-80" font-family="Helvetica,sans-Serif" font-size="10.00">/include/ndt/context.h</text>
</a>
</g>
</g>
<!-- Node7&#45;&gt;Node8 -->
<g id="edge9" class="edge"><title>Node7&#45;&gt;Node8</title>
<path fill="none" stroke="midnightblue" d="M209.698,-135.964C213.829,-124.75 218.367,-112.432 221.759,-103.225"/>
<polygon fill="midnightblue" stroke="midnightblue" points="206.384,-134.835 206.211,-145.428 212.952,-137.255 206.384,-134.835"/>
</g>
<!-- Node9 -->
<g id="node9" class="node"><title>Node9</title>
<g id="a_node9"><a xlink:href="event__handler__select_8h.html" target="_top" xlink:title=" ">
<polygon fill="white" stroke="black" points="304.5,-67.5 304.5,-108.5 433.5,-108.5 433.5,-67.5 304.5,-67.5"/>
<text text-anchor="start" x="312.5" y="-96.5" font-family="Helvetica,sans-Serif" font-size="10.00">C:/projects/ndt/sources</text>
<text text-anchor="start" x="312.5" y="-85.5" font-family="Helvetica,sans-Serif" font-size="10.00">/include/ndt/event_handler</text>
<text text-anchor="middle" x="369" y="-74.5" font-family="Helvetica,sans-Serif" font-size="10.00">_select.h</text>
</a>
</g>
</g>
<!-- Node7&#45;&gt;Node9 -->
<g id="edge12" class="edge"><title>Node7&#45;&gt;Node9</title>
<path fill="none" stroke="midnightblue" d="M251.948,-141.329C275.537,-130.783 302.984,-118.513 325.369,-108.506"/>
<polygon fill="midnightblue" stroke="midnightblue" points="250.48,-138.152 242.779,-145.428 253.337,-144.542 250.48,-138.152"/>
</g>
<!-- Node8&#45;&gt;Node3 -->
<g id="edge10" class="edge"><title>Node8&#45;&gt;Node3</title>
<path fill="none" stroke="midnightblue" d="M264.518,-68.373C288.387,-56.5226 318.803,-41.4215 340.655,-30.5729"/>
<polygon fill="midnightblue" stroke="midnightblue" points="262.795,-65.3209 255.395,-72.9027 265.908,-71.5907 262.795,-65.3209"/>
</g>
<!-- Node9&#45;&gt;Node3 -->
<g id="edge13" class="edge"><title>Node9&#45;&gt;Node3</title>
<path fill="none" stroke="midnightblue" d="M369,-57.08C369,-48.0061 369,-38.4498 369,-30.8916"/>
<polygon fill="midnightblue" stroke="midnightblue" points="365.5,-57.3618 369,-67.3618 372.5,-57.3619 365.5,-57.3618"/>
</g>
<!-- Node9&#45;&gt;Node5 -->
<g id="edge14" class="edge"><title>Node9&#45;&gt;Node5</title>
<path fill="none" stroke="midnightblue" d="M385.5,-117.625C403.995,-153.791 428.397,-217.089 404,-265 396.199,-280.319 382.029,-292.433 367.951,-301.419"/>
<polygon fill="midnightblue" stroke="midnightblue" points="388.497,-115.806 380.722,-108.609 382.312,-119.084 388.497,-115.806"/>
</g>
<!-- Node11&#45;&gt;Node3 -->
<g id="edge17" class="edge"><title>Node11&#45;&gt;Node3</title>
<path fill="none" stroke="midnightblue" d="M467.418,-296.865C474.828,-249.266 485.033,-141.459 442,-67 432.746,-50.989 416.128,-38.8921 401.083,-30.5579"/>
<polygon fill="midnightblue" stroke="midnightblue" points="463.946,-296.41 465.764,-306.848 470.852,-297.554 463.946,-296.41"/>
</g>
<!-- Node12 -->
<g id="node12" class="node"><title>Node12</title>
<g id="a_node12"><a xlink:href="udp_8cpp.html" target="_top" xlink:title=" ">
<polygon fill="white" stroke="black" points="490,-229 490,-259 608,-259 608,-229 490,-229"/>
<text text-anchor="start" x="498" y="-247" font-family="Helvetica,sans-Serif" font-size="10.00">C:/projects/ndt/sources</text>
<text text-anchor="middle" x="549" y="-236" font-family="Helvetica,sans-Serif" font-size="10.00">/src/udp.cpp</text>
</a>
</g>
</g>
<!-- Node11&#45;&gt;Node12 -->
<g id="edge18" class="edge"><title>Node11&#45;&gt;Node12</title>
<path fill="none" stroke="midnightblue" d="M486.883,-299.894C501.55,-286.932 519.944,-270.678 532.897,-259.231"/>
<polygon fill="midnightblue" stroke="midnightblue" points="484.352,-297.46 479.176,-306.705 488.987,-302.706 484.352,-297.46"/>
</g>
<!-- Node14&#45;&gt;Node3 -->
<g id="edge21" class="edge"><title>Node14&#45;&gt;Node3</title>
<path fill="none" stroke="midnightblue" d="M641.83,-145.539C625.761,-135.329 606.318,-122.218 590,-109 569.241,-92.1849 570.116,-80.3907 547,-67 510.31,-45.7464 464.132,-32.9841 428.005,-25.6073"/>
<polygon fill="midnightblue" stroke="midnightblue" points="640.037,-148.546 650.369,-150.895 643.757,-142.616 640.037,-148.546"/>
</g>
<!-- Node15 -->
<g id="node15" class="node"><title>Node15</title>
<g id="a_node15"><a xlink:href="packet_8h.html" target="_top" xlink:title=" ">
<polygon fill="white" stroke="black" points="767,-73 767,-103 885,-103 885,-73 767,-73"/>
<text text-anchor="start" x="775" y="-91" font-family="Helvetica,sans-Serif" font-size="10.00">C:/projects/ndt/sources</text>
<text text-anchor="middle" x="826" y="-80" font-family="Helvetica,sans-Serif" font-size="10.00">/include/ndt/packet.h</text>
</a>
</g>
</g>
<!-- Node14&#45;&gt;Node15 -->
<g id="edge22" class="edge"><title>Node14&#45;&gt;Node15</title>
<path fill="none" stroke="midnightblue" d="M711.301,-146.349C738.057,-132.971 773.541,-115.229 797.917,-103.041"/>
<polygon fill="midnightblue" stroke="midnightblue" points="709.613,-143.28 702.234,-150.883 712.743,-149.541 709.613,-143.28"/>
</g>
<!-- Node17 -->
<g id="node17" class="node"><title>Node17</title>
<g id="a_node17"><a xlink:href="packet__handlers_8h.html" target="_top" xlink:title=" ">
<polygon fill="white" stroke="black" points="599.5,-73 599.5,-103 748.5,-103 748.5,-73 599.5,-73"/>
<text text-anchor="start" x="607.5" y="-91" font-family="Helvetica,sans-Serif" font-size="10.00">C:/projects/ndt/sources</text>
<text text-anchor="middle" x="674" y="-80" font-family="Helvetica,sans-Serif" font-size="10.00">/include/ndt/packet_handlers.h</text>
</a>
</g>
</g>
<!-- Node14&#45;&gt;Node17 -->
<g id="edge25" class="edge"><title>Node14&#45;&gt;Node17</title>
<path fill="none" stroke="midnightblue" d="M674,-140.59C674,-128.257 674,-113.724 674,-103.231"/>
<polygon fill="midnightblue" stroke="midnightblue" points="670.5,-140.705 674,-150.705 677.5,-140.705 670.5,-140.705"/>
</g>
<!-- Node15&#45;&gt;Node3 -->
<g id="edge23" class="edge"><title>Node15&#45;&gt;Node3</title>
<path fill="none" stroke="midnightblue" d="M771.427,-70.3546C766.571,-69.1251 761.712,-67.9835 757,-67 641.795,-42.9534 504.818,-28.3252 428.301,-21.3808"/>
<polygon fill="midnightblue" stroke="midnightblue" points="770.776,-73.8028 781.339,-72.9796 772.568,-67.0361 770.776,-73.8028"/>
</g>
<!-- Node16 -->
<g id="node16" class="node"><title>Node16</title>
<g id="a_node16"><a xlink:href="packet_8cpp.html" target="_top" xlink:title=" ">
<polygon fill="white" stroke="black" points="767,-0.5 767,-30.5 885,-30.5 885,-0.5 767,-0.5"/>
<text text-anchor="start" x="775" y="-18.5" font-family="Helvetica,sans-Serif" font-size="10.00">C:/projects/ndt/sources</text>
<text text-anchor="middle" x="826" y="-7.5" font-family="Helvetica,sans-Serif" font-size="10.00">/src/packet.cpp</text>
</a>
</g>
</g>
<!-- Node15&#45;&gt;Node16 -->
<g id="edge24" class="edge"><title>Node15&#45;&gt;Node16</title>
<path fill="none" stroke="midnightblue" d="M826,-62.7317C826,-52.0679 826,-39.9145 826,-30.7455"/>
<polygon fill="midnightblue" stroke="midnightblue" points="822.5,-62.7332 826,-72.7333 829.5,-62.7333 822.5,-62.7332"/>
</g>
<!-- Node17&#45;&gt;Node3 -->
<g id="edge26" class="edge"><title>Node17&#45;&gt;Node3</title>
<path fill="none" stroke="midnightblue" d="M603.354,-70.6704C550.247,-58.3948 478.318,-41.7687 428.211,-30.1864"/>
<polygon fill="midnightblue" stroke="midnightblue" points="602.846,-74.1451 613.377,-72.9872 604.422,-67.3249 602.846,-74.1451"/>
</g>
<!-- Node19 -->
<g id="node19" class="node"><title>Node19</title>
<g id="a_node19"><a xlink:href="file_8cpp.html" target="_top" xlink:title=" ">
<polygon fill="white" stroke="black" points="702,-379.5 702,-409.5 820,-409.5 820,-379.5 702,-379.5"/>
<text text-anchor="start" x="710" y="-397.5" font-family="Helvetica,sans-Serif" font-size="10.00">C:/projects/ndt/sources</text>
<text text-anchor="middle" x="761" y="-386.5" font-family="Helvetica,sans-Serif" font-size="10.00">/src/file.cpp</text>
</a>
</g>
</g>
<!-- Node18&#45;&gt;Node19 -->
<g id="edge29" class="edge"><title>Node18&#45;&gt;Node19</title>
<path fill="none" stroke="midnightblue" d="M761,-436.108C761,-427.154 761,-417.323 761,-409.577"/>
<polygon fill="midnightblue" stroke="midnightblue" points="757.5,-436.396 761,-446.396 764.5,-436.396 757.5,-436.396"/>
</g>
</g>
</svg>
