<?xml version="1.0" encoding="UTF-8" standalone="no"?>
<!DOCTYPE svg PUBLIC "-//W3C//DTD SVG 1.1//EN"
 "http://www.w3.org/Graphics/SVG/1.1/DTD/svg11.dtd">
<!-- Generated by graphviz version 2.38.0 (20140413.2041)
 -->
<!-- Title: C:/projects/ndt/sources/src/buffer.cpp Pages: 1 -->
<svg width="729pt" height="207pt"
 viewBox="0.00 0.00 729.00 207.00" xmlns="http://www.w3.org/2000/svg" xmlns:xlink="http://www.w3.org/1999/xlink">
<g id="graph0" class="graph" transform="scale(1 1) rotate(0) translate(4 203)">
<title>C:/projects/ndt/sources/src/buffer.cpp</title>
<polygon fill="white" stroke="none" points="-4,4 -4,-203 725,-203 725,4 -4,4"/>
<!-- Node1 -->
<g id="node1" class="node"><title>Node1</title>
<g id="a_node1"><a xlink:title=" ">
<polygon fill="#bfbfbf" stroke="black" points="145.5,-168.5 145.5,-198.5 263.5,-198.5 263.5,-168.5 145.5,-168.5"/>
<text text-anchor="start" x="153.5" y="-186.5" font-family="Helvetica,sans-Serif" font-size="10.00">C:/projects/ndt/sources</text>
<text text-anchor="middle" x="204.5" y="-175.5" font-family="Helvetica,sans-Serif" font-size="10.00">/src/buffer.cpp</text>
</a>
</g>
</g>
<!-- Node2 -->
<g id="node2" class="node"><title>Node2</title>
<g id="a_node2"><a xlink:href="buffer_8h.html" target="_top" xlink:title=" ">
<polygon fill="white" stroke="black" points="135,-112.5 135,-131.5 200,-131.5 200,-112.5 135,-112.5"/>
<text text-anchor="middle" x="167.5" y="-119.5" font-family="Helvetica,sans-Serif" font-size="10.00">ndt/buffer.h</text>
</a>
</g>
</g>
<!-- Node1&#45;&gt;Node2 -->
<g id="edge1" class="edge"><title>Node1&#45;&gt;Node2</title>
<path fill="none" stroke="midnightblue" d="M195.732,-168.399C190.521,-160.021 183.871,-149.327 178.334,-140.423"/>
<polygon fill="midnightblue" stroke="midnightblue" points="181.137,-138.302 172.884,-131.658 175.192,-141.998 181.137,-138.302"/>
</g>
<!-- Node17 -->
<g id="node17" class="node"><title>Node17</title>
<g id="a_node17"><a xlink:title=" ">
<polygon fill="white" stroke="#bfbfbf" points="218.5,-112.5 218.5,-131.5 264.5,-131.5 264.5,-112.5 218.5,-112.5"/>
<text text-anchor="middle" x="241.5" y="-119.5" font-family="Helvetica,sans-Serif" font-size="10.00">cstring</text>
</a>
</g>
</g>
<!-- Node1&#45;&gt;Node17 -->
<g id="edge17" class="edge"><title>Node1&#45;&gt;Node17</title>
<path fill="none" stroke="midnightblue" d="M213.268,-168.399C218.479,-160.021 225.129,-149.327 230.666,-140.423"/>
<polygon fill="midnightblue" stroke="midnightblue" points="233.808,-141.998 236.116,-131.658 227.863,-138.302 233.808,-141.998"/>
</g>
<!-- Node3 -->
<g id="node3" class="node"><title>Node3</title>
<g id="a_node3"><a xlink:title=" ">
<polygon fill="white" stroke="#bfbfbf" points="0,-56.5 0,-75.5 49,-75.5 49,-56.5 0,-56.5"/>
<text text-anchor="middle" x="24.5" y="-63.5" font-family="Helvetica,sans-Serif" font-size="10.00">cassert</text>
</a>
</g>
</g>
<!-- Node2&#45;&gt;Node3 -->
<g id="edge2" class="edge"><title>Node2&#45;&gt;Node3</title>
<path fill="none" stroke="midnightblue" d="M144.841,-112.444C121.098,-103.478 83.5909,-89.314 56.7616,-79.1827"/>
<polygon fill="midnightblue" stroke="midnightblue" points="57.6445,-75.7749 47.0528,-75.5164 55.1715,-82.3235 57.6445,-75.7749"/>
</g>
<!-- Node4 -->
<g id="node4" class="node"><title>Node4</title>
<g id="a_node4"><a xlink:title=" ">
<polygon fill="white" stroke="#bfbfbf" points="64.5,-0.5 64.5,-19.5 112.5,-19.5 112.5,-0.5 64.5,-0.5"/>
<text text-anchor="middle" x="88.5" y="-7.5" font-family="Helvetica,sans-Serif" font-size="10.00">cstddef</text>
</a>
</g>
</g>
<!-- Node2&#45;&gt;Node4 -->
<g id="edge3" class="edge"><title>Node2&#45;&gt;Node4</title>
<path fill="none" stroke="midnightblue" d="M144.051,-112.443C127.924,-105.273 107.503,-93.3882 96.5,-76 87.8554,-62.3388 86.3457,-43.8011 86.7118,-30.0182"/>
<polygon fill="midnightblue" stroke="midnightblue" points="90.2216,-29.9673 87.3452,-19.7704 83.2349,-29.5354 90.2216,-29.9673"/>
</g>
<!-- Node5 -->
<g id="node5" class="node"><title>Node5</title>
<g id="a_node5"><a xlink:title=" ">
<polygon fill="white" stroke="#bfbfbf" points="105.5,-56.5 105.5,-75.5 151.5,-75.5 151.5,-56.5 105.5,-56.5"/>
<text text-anchor="middle" x="128.5" y="-63.5" font-family="Helvetica,sans-Serif" font-size="10.00">cstdint</text>
</a>
</g>
</g>
<!-- Node2&#45;&gt;Node5 -->
<g id="edge4" class="edge"><title>Node2&#45;&gt;Node5</title>
<path fill="none" stroke="midnightblue" d="M161.06,-112.083C155.551,-104.455 147.469,-93.2645 140.735,-83.9408"/>
<polygon fill="midnightblue" stroke="midnightblue" points="143.513,-81.8087 134.82,-75.7511 137.838,-85.9071 143.513,-81.8087"/>
</g>
<!-- Node6 -->
<g id="node6" class="node"><title>Node6</title>
<g id="a_node6"><a xlink:title=" ">
<polygon fill="white" stroke="#bfbfbf" points="169.5,-56.5 169.5,-75.5 243.5,-75.5 243.5,-56.5 169.5,-56.5"/>
<text text-anchor="middle" x="206.5" y="-63.5" font-family="Helvetica,sans-Serif" font-size="10.00">system_error</text>
</a>
</g>
</g>
<!-- Node2&#45;&gt;Node6 -->
<g id="edge5" class="edge"><title>Node2&#45;&gt;Node6</title>
<path fill="none" stroke="midnightblue" d="M173.94,-112.083C179.449,-104.455 187.531,-93.2645 194.265,-83.9408"/>
<polygon fill="midnightblue" stroke="midnightblue" points="197.162,-85.9071 200.18,-75.7511 191.487,-81.8087 197.162,-85.9071"/>
</g>
<!-- Node7 -->
<g id="node7" class="node"><title>Node7</title>
<g id="a_node7"><a xlink:title=" ">
<polygon fill="white" stroke="#bfbfbf" points="261.5,-56.5 261.5,-75.5 323.5,-75.5 323.5,-56.5 261.5,-56.5"/>
<text text-anchor="middle" x="292.5" y="-63.5" font-family="Helvetica,sans-Serif" font-size="10.00">type_traits</text>
</a>
</g>
</g>
<!-- Node2&#45;&gt;Node7 -->
<g id="edge6" class="edge"><title>Node2&#45;&gt;Node7</title>
<path fill="none" stroke="midnightblue" d="M187.307,-112.444C207.787,-103.596 239.983,-89.6875 263.365,-79.5865"/>
<polygon fill="midnightblue" stroke="midnightblue" points="264.994,-82.6953 272.786,-75.5164 262.218,-76.2692 264.994,-82.6953"/>
</g>
<!-- Node8 -->
<g id="node8" class="node"><title>Node8</title>
<g id="a_node8"><a xlink:href="common_8h.html" target="_top" xlink:title="Header with typedefs to make type designation platform independent.">
<polygon fill="white" stroke="black" points="341.5,-56.5 341.5,-75.5 403.5,-75.5 403.5,-56.5 341.5,-56.5"/>
<text text-anchor="middle" x="372.5" y="-63.5" font-family="Helvetica,sans-Serif" font-size="10.00">common.h</text>
</a>
</g>
</g>
<!-- Node2&#45;&gt;Node8 -->
<g id="edge7" class="edge"><title>Node2&#45;&gt;Node8</title>
<path fill="none" stroke="midnightblue" d="M199.983,-112.444C235.531,-103.08 292.6,-88.0467 331.278,-77.8585"/>
<polygon fill="midnightblue" stroke="midnightblue" points="332.399,-81.1827 341.178,-75.2508 330.616,-74.4136 332.399,-81.1827"/>
</g>
<!-- Node8&#45;&gt;Node4 -->
<g id="edge16" class="edge"><title>Node8&#45;&gt;Node4</title>
<path fill="none" stroke="midnightblue" d="M341.088,-57.7817C338.188,-57.1609 335.292,-56.5577 332.5,-56 241.358,-37.7936 217.539,-38.7184 126.5,-20 125.23,-19.7389 123.938,-19.4665 122.633,-19.1861"/>
<polygon fill="midnightblue" stroke="midnightblue" points="123.098,-15.7035 112.575,-16.9301 121.566,-22.5338 123.098,-15.7035"/>
</g>
<!-- Node9 -->
<g id="node9" class="node"><title>Node9</title>
<g id="a_node9"><a xlink:title=" ">
<polygon fill="white" stroke="#bfbfbf" points="135.5,-0.5 135.5,-19.5 197.5,-19.5 197.5,-0.5 135.5,-0.5"/>
<text text-anchor="middle" x="166.5" y="-7.5" font-family="Helvetica,sans-Serif" font-size="10.00">arpa/inet.h</text>
</a>
</g>
</g>
<!-- Node8&#45;&gt;Node9 -->
<g id="edge8" class="edge"><title>Node8&#45;&gt;Node9</title>
<path fill="none" stroke="midnightblue" d="M341.213,-56.7986C305.491,-47.4346 246.924,-32.082 207.559,-21.763"/>
<polygon fill="midnightblue" stroke="midnightblue" points="208.304,-18.3401 197.743,-19.19 206.529,-25.1113 208.304,-18.3401"/>
</g>
<!-- Node10 -->
<g id="node10" class="node"><title>Node10</title>
<g id="a_node10"><a xlink:title=" ">
<polygon fill="white" stroke="#bfbfbf" points="216,-0.5 216,-19.5 263,-19.5 263,-0.5 216,-0.5"/>
<text text-anchor="middle" x="239.5" y="-7.5" font-family="Helvetica,sans-Serif" font-size="10.00">errno.h</text>
</a>
</g>
</g>
<!-- Node8&#45;&gt;Node10 -->
<g id="edge9" class="edge"><title>Node8&#45;&gt;Node10</title>
<path fill="none" stroke="midnightblue" d="M351.426,-56.4435C329.44,-47.5171 294.766,-33.4387 269.836,-23.3168"/>
<polygon fill="midnightblue" stroke="midnightblue" points="271.058,-20.0355 260.476,-19.5164 268.424,-26.5213 271.058,-20.0355"/>
</g>
<!-- Node11 -->
<g id="node11" class="node"><title>Node11</title>
<g id="a_node11"><a xlink:title=" ">
<polygon fill="white" stroke="#bfbfbf" points="281,-0.5 281,-19.5 324,-19.5 324,-0.5 281,-0.5"/>
<text text-anchor="middle" x="302.5" y="-7.5" font-family="Helvetica,sans-Serif" font-size="10.00">fcntl.h</text>
</a>
</g>
</g>
<!-- Node8&#45;&gt;Node11 -->
<g id="edge10" class="edge"><title>Node8&#45;&gt;Node11</title>
<path fill="none" stroke="midnightblue" d="M361.253,-56.324C350.703,-48.1849 334.699,-35.8395 322.058,-26.0874"/>
<polygon fill="midnightblue" stroke="midnightblue" points="324.007,-23.1707 313.951,-19.8339 319.731,-28.7132 324.007,-23.1707"/>
</g>
<!-- Node12 -->
<g id="node12" class="node"><title>Node12</title>
<g id="a_node12"><a xlink:title=" ">
<polygon fill="white" stroke="#bfbfbf" points="342,-0.5 342,-19.5 391,-19.5 391,-0.5 342,-0.5"/>
<text text-anchor="middle" x="366.5" y="-7.5" font-family="Helvetica,sans-Serif" font-size="10.00">netdb.h</text>
</a>
</g>
</g>
<!-- Node8&#45;&gt;Node12 -->
<g id="edge11" class="edge"><title>Node8&#45;&gt;Node12</title>
<path fill="none" stroke="midnightblue" d="M371.509,-56.083C370.714,-48.9272 369.571,-38.6353 368.577,-29.6911"/>
<polygon fill="midnightblue" stroke="midnightblue" points="372.055,-29.3034 367.472,-19.7511 365.098,-30.0765 372.055,-29.3034"/>
</g>
<!-- Node13 -->
<g id="node13" class="node"><title>Node13</title>
<g id="a_node13"><a xlink:title=" ">
<polygon fill="white" stroke="#bfbfbf" points="409,-0.5 409,-19.5 474,-19.5 474,-0.5 409,-0.5"/>
<text text-anchor="middle" x="441.5" y="-7.5" font-family="Helvetica,sans-Serif" font-size="10.00">netinet/in.h</text>
</a>
</g>
</g>
<!-- Node8&#45;&gt;Node13 -->
<g id="edge12" class="edge"><title>Node8&#45;&gt;Node13</title>
<path fill="none" stroke="midnightblue" d="M383.586,-56.324C393.986,-48.1849 409.761,-35.8395 422.222,-26.0874"/>
<polygon fill="midnightblue" stroke="midnightblue" points="424.494,-28.7533 430.212,-19.8339 420.18,-23.2407 424.494,-28.7533"/>
</g>
<!-- Node14 -->
<g id="node14" class="node"><title>Node14</title>
<g id="a_node14"><a xlink:title=" ">
<polygon fill="white" stroke="#bfbfbf" points="492,-0.5 492,-19.5 565,-19.5 565,-0.5 492,-0.5"/>
<text text-anchor="middle" x="528.5" y="-7.5" font-family="Helvetica,sans-Serif" font-size="10.00">sys/socket.h</text>
</a>
</g>
</g>
<!-- Node8&#45;&gt;Node14 -->
<g id="edge13" class="edge"><title>Node8&#45;&gt;Node14</title>
<path fill="none" stroke="midnightblue" d="M397.219,-56.4435C423.348,-47.3986 464.759,-33.064 494.076,-22.9158"/>
<polygon fill="midnightblue" stroke="midnightblue" points="495.592,-26.0951 503.897,-19.5164 493.302,-19.4801 495.592,-26.0951"/>
</g>
<!-- Node15 -->
<g id="node15" class="node"><title>Node15</title>
<g id="a_node15"><a xlink:title=" ">
<polygon fill="white" stroke="#bfbfbf" points="583.5,-0.5 583.5,-19.5 651.5,-19.5 651.5,-0.5 583.5,-0.5"/>
<text text-anchor="middle" x="617.5" y="-7.5" font-family="Helvetica,sans-Serif" font-size="10.00">sys/types.h</text>
</a>
</g>
</g>
<!-- Node8&#45;&gt;Node15 -->
<g id="edge14" class="edge"><title>Node8&#45;&gt;Node15</title>
<path fill="none" stroke="midnightblue" d="M403.529,-58.1609C446.445,-48.702 524.158,-31.5733 573.18,-20.7686"/>
<polygon fill="midnightblue" stroke="midnightblue" points="574.17,-24.1345 583.182,-18.564 572.663,-17.2985 574.17,-24.1345"/>
</g>
<!-- Node16 -->
<g id="node16" class="node"><title>Node16</title>
<g id="a_node16"><a xlink:title=" ">
<polygon fill="white" stroke="#bfbfbf" points="670,-0.5 670,-19.5 721,-19.5 721,-0.5 670,-0.5"/>
<text text-anchor="middle" x="695.5" y="-7.5" font-family="Helvetica,sans-Serif" font-size="10.00">unistd.h</text>
</a>
</g>
</g>
<!-- Node8&#45;&gt;Node16 -->
<g id="edge15" class="edge"><title>Node8&#45;&gt;Node16</title>
<path fill="none" stroke="midnightblue" d="M403.789,-61.12C455.154,-54.5327 560.724,-40.0821 660.052,-19.9079"/>
<polygon fill="midnightblue" stroke="midnightblue" points="660.861,-23.3148 669.952,-17.8735 659.452,-16.4581 660.861,-23.3148"/>
</g>
</g>
</svg>
