<?xml version="1.0" encoding="UTF-8" standalone="no"?>
<!DOCTYPE svg PUBLIC "-//W3C//DTD SVG 1.1//EN"
 "http://www.w3.org/Graphics/SVG/1.1/DTD/svg11.dtd">
<!-- Generated by graphviz version 2.38.0 (20140413.2041)
 -->
<!-- Title: C:/projects/ndt/sources/include/ndt/buffer.h Pages: 1 -->
<svg width="710pt" height="151pt"
 viewBox="0.00 0.00 710.00 151.00" xmlns="http://www.w3.org/2000/svg" xmlns:xlink="http://www.w3.org/1999/xlink">
<g id="graph0" class="graph" transform="scale(1 1) rotate(0) translate(4 147)">
<title>C:/projects/ndt/sources/include/ndt/buffer.h</title>
<polygon fill="white" stroke="none" points="-4,4 -4,-147 706,-147 706,4 -4,4"/>
<!-- Node1 -->
<g id="node1" class="node"><title>Node1</title>
<g id="a_node1"><a xlink:title=" ">
<polygon fill="#bfbfbf" stroke="black" points="69.5,-112.5 69.5,-142.5 187.5,-142.5 187.5,-112.5 69.5,-112.5"/>
<text text-anchor="start" x="77.5" y="-130.5" font-family="Helvetica,sans-Serif" font-size="10.00">C:/projects/ndt/sources</text>
<text text-anchor="middle" x="128.5" y="-119.5" font-family="Helvetica,sans-Serif" font-size="10.00">/include/ndt/buffer.h</text>
</a>
</g>
</g>
<!-- Node2 -->
<g id="node2" class="node"><title>Node2</title>
<g id="a_node2"><a xlink:title=" ">
<polygon fill="white" stroke="#bfbfbf" points="0,-56.5 0,-75.5 49,-75.5 49,-56.5 0,-56.5"/>
<text text-anchor="middle" x="24.5" y="-63.5" font-family="Helvetica,sans-Serif" font-size="10.00">cassert</text>
</a>
</g>
</g>
<!-- Node1&#45;&gt;Node2 -->
<g id="edge1" class="edge"><title>Node1&#45;&gt;Node2</title>
<path fill="none" stroke="midnightblue" d="M103.853,-112.399C87.183,-102.862 65.2694,-90.3248 48.6948,-80.8422"/>
<polygon fill="midnightblue" stroke="midnightblue" points="50.0509,-77.5858 39.6329,-75.6578 46.5747,-83.6617 50.0509,-77.5858"/>
</g>
<!-- Node3 -->
<g id="node3" class="node"><title>Node3</title>
<g id="a_node3"><a xlink:title=" ">
<polygon fill="white" stroke="#bfbfbf" points="50.5,-0.5 50.5,-19.5 98.5,-19.5 98.5,-0.5 50.5,-0.5"/>
<text text-anchor="middle" x="74.5" y="-7.5" font-family="Helvetica,sans-Serif" font-size="10.00">cstddef</text>
</a>
</g>
</g>
<!-- Node1&#45;&gt;Node3 -->
<g id="edge2" class="edge"><title>Node1&#45;&gt;Node3</title>
<path fill="none" stroke="midnightblue" d="M118.306,-112.441C111.49,-102.59 102.673,-88.925 96.5,-76 89.2795,-60.8824 83.3533,-42.7598 79.4781,-29.4953"/>
<polygon fill="midnightblue" stroke="midnightblue" points="82.7925,-28.3517 76.722,-19.6684 76.0525,-30.2421 82.7925,-28.3517"/>
</g>
<!-- Node4 -->
<g id="node4" class="node"><title>Node4</title>
<g id="a_node4"><a xlink:title=" ">
<polygon fill="white" stroke="#bfbfbf" points="105.5,-56.5 105.5,-75.5 151.5,-75.5 151.5,-56.5 105.5,-56.5"/>
<text text-anchor="middle" x="128.5" y="-63.5" font-family="Helvetica,sans-Serif" font-size="10.00">cstdint</text>
</a>
</g>
</g>
<!-- Node1&#45;&gt;Node4 -->
<g id="edge3" class="edge"><title>Node1&#45;&gt;Node4</title>
<path fill="none" stroke="midnightblue" d="M128.5,-112.399C128.5,-104.466 128.5,-94.458 128.5,-85.8583"/>
<polygon fill="midnightblue" stroke="midnightblue" points="132,-85.6577 128.5,-75.6578 125,-85.6578 132,-85.6577"/>
</g>
<!-- Node5 -->
<g id="node5" class="node"><title>Node5</title>
<g id="a_node5"><a xlink:title=" ">
<polygon fill="white" stroke="#bfbfbf" points="169.5,-56.5 169.5,-75.5 231.5,-75.5 231.5,-56.5 169.5,-56.5"/>
<text text-anchor="middle" x="200.5" y="-63.5" font-family="Helvetica,sans-Serif" font-size="10.00">type_traits</text>
</a>
</g>
</g>
<!-- Node1&#45;&gt;Node5 -->
<g id="edge4" class="edge"><title>Node1&#45;&gt;Node5</title>
<path fill="none" stroke="midnightblue" d="M145.563,-112.399C156.565,-103.308 170.865,-91.4899 182.118,-82.1909"/>
<polygon fill="midnightblue" stroke="midnightblue" points="184.544,-84.726 190.023,-75.6578 180.085,-79.33 184.544,-84.726"/>
</g>
<!-- Node6 -->
<g id="node6" class="node"><title>Node6</title>
<g id="a_node6"><a xlink:href="common_8h.html" target="_top" xlink:title="Header with typedefs to make type designation platform independent.">
<polygon fill="white" stroke="black" points="284.5,-56.5 284.5,-75.5 346.5,-75.5 346.5,-56.5 284.5,-56.5"/>
<text text-anchor="middle" x="315.5" y="-63.5" font-family="Helvetica,sans-Serif" font-size="10.00">common.h</text>
</a>
</g>
</g>
<!-- Node1&#45;&gt;Node6 -->
<g id="edge5" class="edge"><title>Node1&#45;&gt;Node6</title>
<path fill="none" stroke="midnightblue" d="M172.816,-112.399C205.129,-102.118 248.398,-88.3506 278.786,-78.6818"/>
<polygon fill="midnightblue" stroke="midnightblue" points="280.095,-81.9383 288.563,-75.5709 277.972,-75.2678 280.095,-81.9383"/>
</g>
<!-- Node6&#45;&gt;Node3 -->
<g id="edge14" class="edge"><title>Node6&#45;&gt;Node3</title>
<path fill="none" stroke="midnightblue" d="M284.371,-58.8037C245.509,-50.9509 176.782,-36.6791 108.656,-20.1843"/>
<polygon fill="midnightblue" stroke="midnightblue" points="109.157,-16.704 98.6122,-17.735 107.498,-23.5047 109.157,-16.704"/>
</g>
<!-- Node7 -->
<g id="node7" class="node"><title>Node7</title>
<g id="a_node7"><a xlink:title=" ">
<polygon fill="white" stroke="#bfbfbf" points="116.5,-0.5 116.5,-19.5 178.5,-19.5 178.5,-0.5 116.5,-0.5"/>
<text text-anchor="middle" x="147.5" y="-7.5" font-family="Helvetica,sans-Serif" font-size="10.00">arpa/inet.h</text>
</a>
</g>
</g>
<!-- Node6&#45;&gt;Node7 -->
<g id="edge6" class="edge"><title>Node6&#45;&gt;Node7</title>
<path fill="none" stroke="midnightblue" d="M288.88,-56.4435C260.494,-47.3196 215.363,-32.8133 183.747,-22.6509"/>
<polygon fill="midnightblue" stroke="midnightblue" points="184.587,-19.2445 173.996,-19.5164 182.445,-25.9087 184.587,-19.2445"/>
</g>
<!-- Node8 -->
<g id="node8" class="node"><title>Node8</title>
<g id="a_node8"><a xlink:title=" ">
<polygon fill="white" stroke="#bfbfbf" points="197,-0.5 197,-19.5 244,-19.5 244,-0.5 197,-0.5"/>
<text text-anchor="middle" x="220.5" y="-7.5" font-family="Helvetica,sans-Serif" font-size="10.00">errno.h</text>
</a>
</g>
</g>
<!-- Node6&#45;&gt;Node8 -->
<g id="edge7" class="edge"><title>Node6&#45;&gt;Node8</title>
<path fill="none" stroke="midnightblue" d="M300.237,-56.324C285.279,-47.8215 262.245,-34.7288 244.773,-24.7975"/>
<polygon fill="midnightblue" stroke="midnightblue" points="246.149,-21.5534 235.726,-19.6545 242.69,-27.639 246.149,-21.5534"/>
</g>
<!-- Node9 -->
<g id="node9" class="node"><title>Node9</title>
<g id="a_node9"><a xlink:title=" ">
<polygon fill="white" stroke="#bfbfbf" points="262,-0.5 262,-19.5 305,-19.5 305,-0.5 262,-0.5"/>
<text text-anchor="middle" x="283.5" y="-7.5" font-family="Helvetica,sans-Serif" font-size="10.00">fcntl.h</text>
</a>
</g>
</g>
<!-- Node6&#45;&gt;Node9 -->
<g id="edge8" class="edge"><title>Node6&#45;&gt;Node9</title>
<path fill="none" stroke="midnightblue" d="M310.216,-56.083C305.789,-48.6127 299.337,-37.7244 293.882,-28.5199"/>
<polygon fill="midnightblue" stroke="midnightblue" points="296.795,-26.5697 288.686,-19.7511 290.773,-30.1383 296.795,-26.5697"/>
</g>
<!-- Node10 -->
<g id="node10" class="node"><title>Node10</title>
<g id="a_node10"><a xlink:title=" ">
<polygon fill="white" stroke="#bfbfbf" points="323,-0.5 323,-19.5 372,-19.5 372,-0.5 323,-0.5"/>
<text text-anchor="middle" x="347.5" y="-7.5" font-family="Helvetica,sans-Serif" font-size="10.00">netdb.h</text>
</a>
</g>
</g>
<!-- Node6&#45;&gt;Node10 -->
<g id="edge9" class="edge"><title>Node6&#45;&gt;Node10</title>
<path fill="none" stroke="midnightblue" d="M320.784,-56.083C325.211,-48.6127 331.663,-37.7244 337.118,-28.5199"/>
<polygon fill="midnightblue" stroke="midnightblue" points="340.227,-30.1383 342.314,-19.7511 334.205,-26.5697 340.227,-30.1383"/>
</g>
<!-- Node11 -->
<g id="node11" class="node"><title>Node11</title>
<g id="a_node11"><a xlink:title=" ">
<polygon fill="white" stroke="#bfbfbf" points="390,-0.5 390,-19.5 455,-19.5 455,-0.5 390,-0.5"/>
<text text-anchor="middle" x="422.5" y="-7.5" font-family="Helvetica,sans-Serif" font-size="10.00">netinet/in.h</text>
</a>
</g>
</g>
<!-- Node6&#45;&gt;Node11 -->
<g id="edge10" class="edge"><title>Node6&#45;&gt;Node11</title>
<path fill="none" stroke="midnightblue" d="M332.691,-56.324C349.851,-47.6641 376.446,-34.2424 396.247,-24.249"/>
<polygon fill="midnightblue" stroke="midnightblue" points="398.001,-27.2847 405.351,-19.6545 394.847,-21.0354 398.001,-27.2847"/>
</g>
<!-- Node12 -->
<g id="node12" class="node"><title>Node12</title>
<g id="a_node12"><a xlink:title=" ">
<polygon fill="white" stroke="#bfbfbf" points="473,-0.5 473,-19.5 546,-19.5 546,-0.5 473,-0.5"/>
<text text-anchor="middle" x="509.5" y="-7.5" font-family="Helvetica,sans-Serif" font-size="10.00">sys/socket.h</text>
</a>
</g>
</g>
<!-- Node6&#45;&gt;Node12 -->
<g id="edge11" class="edge"><title>Node6&#45;&gt;Node12</title>
<path fill="none" stroke="midnightblue" d="M346.24,-56.4435C379.444,-47.2011 432.491,-32.4356 469.057,-22.2572"/>
<polygon fill="midnightblue" stroke="midnightblue" points="470.209,-25.5699 478.904,-19.5164 468.332,-18.8262 470.209,-25.5699"/>
</g>
<!-- Node13 -->
<g id="node13" class="node"><title>Node13</title>
<g id="a_node13"><a xlink:title=" ">
<polygon fill="white" stroke="#bfbfbf" points="564.5,-0.5 564.5,-19.5 632.5,-19.5 632.5,-0.5 564.5,-0.5"/>
<text text-anchor="middle" x="598.5" y="-7.5" font-family="Helvetica,sans-Serif" font-size="10.00">sys/types.h</text>
</a>
</g>
</g>
<!-- Node6&#45;&gt;Node13 -->
<g id="edge12" class="edge"><title>Node6&#45;&gt;Node13</title>
<path fill="none" stroke="midnightblue" d="M346.608,-59.3826C390.617,-51.3885 473.822,-36.1031 554.431,-20.1814"/>
<polygon fill="midnightblue" stroke="midnightblue" points="555.117,-23.6137 564.246,-18.2371 553.756,-16.7472 555.117,-23.6137"/>
</g>
<!-- Node14 -->
<g id="node14" class="node"><title>Node14</title>
<g id="a_node14"><a xlink:title=" ">
<polygon fill="white" stroke="#bfbfbf" points="651,-0.5 651,-19.5 702,-19.5 702,-0.5 651,-0.5"/>
<text text-anchor="middle" x="676.5" y="-7.5" font-family="Helvetica,sans-Serif" font-size="10.00">unistd.h</text>
</a>
</g>
</g>
<!-- Node6&#45;&gt;Node14 -->
<g id="edge13" class="edge"><title>Node6&#45;&gt;Node14</title>
<path fill="none" stroke="midnightblue" d="M346.712,-61.8954C403.334,-56.0046 526.891,-41.9644 641.011,-19.8784"/>
<polygon fill="midnightblue" stroke="midnightblue" points="641.823,-23.2858 650.963,-17.9268 640.476,-16.4166 641.823,-23.2858"/>
</g>
</g>
</svg>
