<?xml version="1.0" encoding="UTF-8" standalone="no"?>
<!DOCTYPE svg PUBLIC "-//W3C//DTD SVG 1.1//EN"
 "http://www.w3.org/Graphics/SVG/1.1/DTD/svg11.dtd">
<!-- Generated by graphviz version 2.38.0 (20140413.2041)
 -->
<!-- Title: C:/projects/ndt/build/deps/ndt_version/include/ndt/build_type_defs.h Pages: 1 -->
<svg width="160pt" height="162pt"
 viewBox="0.00 0.00 159.50 162.00" xmlns="http://www.w3.org/2000/svg" xmlns:xlink="http://www.w3.org/1999/xlink">
<g id="graph0" class="graph" transform="scale(1 1) rotate(0) translate(4 158)">
<title>C:/projects/ndt/build/deps/ndt_version/include/ndt/build_type_defs.h</title>
<polygon fill="white" stroke="none" points="-4,4 -4,-158 155.5,-158 155.5,4 -4,4"/>
<!-- Node1 -->
<g id="node1" class="node"><title>Node1</title>
<g id="a_node1"><a xlink:title=" ">
<polygon fill="#bfbfbf" stroke="black" points="11,-112.5 11,-153.5 137,-153.5 137,-112.5 11,-112.5"/>
<text text-anchor="start" x="19" y="-141.5" font-family="Helvetica,sans-Serif" font-size="10.00">C:/projects/ndt/build</text>
<text text-anchor="start" x="19" y="-130.5" font-family="Helvetica,sans-Serif" font-size="10.00">/deps/ndt_version/include</text>
<text text-anchor="middle" x="74" y="-119.5" font-family="Helvetica,sans-Serif" font-size="10.00">/ndt/build_type_defs.h</text>
</a>
</g>
</g>
<!-- Node2 -->
<g id="node2" class="node"><title>Node2</title>
<g id="a_node2"><a xlink:title=" ">
<polygon fill="white" stroke="#bfbfbf" points="0,-56.5 0,-75.5 64,-75.5 64,-56.5 0,-56.5"/>
<text text-anchor="middle" x="32" y="-63.5" font-family="Helvetica,sans-Serif" font-size="10.00">string_view</text>
</a>
</g>
</g>
<!-- Node1&#45;&gt;Node2 -->
<g id="edge1" class="edge"><title>Node1&#45;&gt;Node2</title>
<path fill="none" stroke="midnightblue" d="M61.3986,-112.498C55.5784,-103.49 48.7277,-92.8881 43.1043,-84.1852"/>
<polygon fill="midnightblue" stroke="midnightblue" points="45.9578,-82.1522 37.5908,-75.6525 40.0783,-85.9512 45.9578,-82.1522"/>
</g>
<!-- Node3 -->
<g id="node3" class="node"><title>Node3</title>
<g id="a_node3"><a xlink:href="build__type_8h.html" target="_top" xlink:title=" ">
<polygon fill="white" stroke="black" points="82.5,-56.5 82.5,-75.5 151.5,-75.5 151.5,-56.5 82.5,-56.5"/>
<text text-anchor="middle" x="117" y="-63.5" font-family="Helvetica,sans-Serif" font-size="10.00">build_type.h</text>
</a>
</g>
</g>
<!-- Node1&#45;&gt;Node3 -->
<g id="edge2" class="edge"><title>Node1&#45;&gt;Node3</title>
<path fill="none" stroke="midnightblue" d="M86.9014,-112.498C92.8602,-103.49 99.874,-92.8881 105.631,-84.1852"/>
<polygon fill="midnightblue" stroke="midnightblue" points="108.678,-85.9238 111.276,-75.6525 102.84,-82.0616 108.678,-85.9238"/>
</g>
<!-- Node4 -->
<g id="node4" class="node"><title>Node4</title>
<g id="a_node4"><a xlink:title=" ">
<polygon fill="white" stroke="#bfbfbf" points="94,-0.5 94,-19.5 140,-19.5 140,-0.5 94,-0.5"/>
<text text-anchor="middle" x="117" y="-7.5" font-family="Helvetica,sans-Serif" font-size="10.00">cstdint</text>
</a>
</g>
</g>
<!-- Node3&#45;&gt;Node4 -->
<g id="edge3" class="edge"><title>Node3&#45;&gt;Node4</title>
<path fill="none" stroke="midnightblue" d="M117,-56.083C117,-49.0059 117,-38.8611 117,-29.9865"/>
<polygon fill="midnightblue" stroke="midnightblue" points="120.5,-29.751 117,-19.7511 113.5,-29.7511 120.5,-29.751"/>
</g>
</g>
</svg>
