<?xml version="1.0" encoding="UTF-8" standalone="no"?>
<!DOCTYPE svg PUBLIC "-//W3C//DTD SVG 1.1//EN"
 "http://www.w3.org/Graphics/SVG/1.1/DTD/svg11.dtd">
<!-- Generated by graphviz version 2.38.0 (20140413.2041)
 -->
<!-- Title: C:/projects/ndt/build/deps/ndt_version/include/ndt/build_type.h Pages: 1 -->
<svg width="332pt" height="206pt"
 viewBox="0.00 0.00 332.00 206.00" xmlns="http://www.w3.org/2000/svg" xmlns:xlink="http://www.w3.org/1999/xlink">
<g id="graph0" class="graph" transform="scale(1 1) rotate(0) translate(4 202)">
<title>C:/projects/ndt/build/deps/ndt_version/include/ndt/build_type.h</title>
<polygon fill="white" stroke="none" points="-4,4 -4,-202 328,-202 328,4 -4,4"/>
<!-- Node1 -->
<g id="node1" class="node"><title>Node1</title>
<g id="a_node1"><a xlink:title=" ">
<polygon fill="#bfbfbf" stroke="black" points="91,-156.5 91,-197.5 217,-197.5 217,-156.5 91,-156.5"/>
<text text-anchor="start" x="99" y="-185.5" font-family="Helvetica,sans-Serif" font-size="10.00">C:/projects/ndt/build</text>
<text text-anchor="start" x="99" y="-174.5" font-family="Helvetica,sans-Serif" font-size="10.00">/deps/ndt_version/include</text>
<text text-anchor="middle" x="154" y="-163.5" font-family="Helvetica,sans-Serif" font-size="10.00">/ndt/build_type.h</text>
</a>
</g>
</g>
<!-- Node2 -->
<g id="node2" class="node"><title>Node2</title>
<g id="a_node2"><a xlink:href="build__type__defs_8h.html" target="_top" xlink:title=" ">
<polygon fill="white" stroke="black" points="0,-78.5 0,-119.5 126,-119.5 126,-78.5 0,-78.5"/>
<text text-anchor="start" x="8" y="-107.5" font-family="Helvetica,sans-Serif" font-size="10.00">C:/projects/ndt/build</text>
<text text-anchor="start" x="8" y="-96.5" font-family="Helvetica,sans-Serif" font-size="10.00">/deps/ndt_version/include</text>
<text text-anchor="middle" x="63" y="-85.5" font-family="Helvetica,sans-Serif" font-size="10.00">/ndt/build_type_defs.h</text>
</a>
</g>
</g>
<!-- Node1&#45;&gt;Node2 -->
<g id="edge1" class="edge"><title>Node1&#45;&gt;Node2</title>
<path fill="none" stroke="midnightblue" d="M122.603,-149.779C110.707,-139.843 97.3835,-128.716 86.3553,-119.506"/>
<polygon fill="midnightblue" stroke="midnightblue" points="120.646,-152.704 130.565,-156.428 125.133,-147.332 120.646,-152.704"/>
</g>
<!-- Node3 -->
<g id="node3" class="node"><title>Node3</title>
<g id="a_node3"><a xlink:href="version__info_8cpp.html" target="_top" xlink:title=" ">
<polygon fill="white" stroke="black" points="78.5,-0.5 78.5,-41.5 187.5,-41.5 187.5,-0.5 78.5,-0.5"/>
<text text-anchor="start" x="86.5" y="-29.5" font-family="Helvetica,sans-Serif" font-size="10.00">C:/projects/ndt/build</text>
<text text-anchor="start" x="86.5" y="-18.5" font-family="Helvetica,sans-Serif" font-size="10.00">/deps/ndt_version/src</text>
<text text-anchor="middle" x="133" y="-7.5" font-family="Helvetica,sans-Serif" font-size="10.00">/ndt/version_info.cpp</text>
</a>
</g>
</g>
<!-- Node1&#45;&gt;Node3 -->
<g id="edge6" class="edge"><title>Node1&#45;&gt;Node3</title>
<path fill="none" stroke="midnightblue" d="M149.959,-146.365C145.764,-115.606 139.322,-68.3579 135.704,-41.8323"/>
<polygon fill="midnightblue" stroke="midnightblue" points="146.521,-147.06 151.34,-156.496 153.457,-146.115 146.521,-147.06"/>
</g>
<!-- Node4 -->
<g id="node4" class="node"><title>Node4</title>
<g id="a_node4"><a xlink:href="version__info_8h.html" target="_top" xlink:title=" ">
<polygon fill="white" stroke="black" points="182,-78.5 182,-119.5 308,-119.5 308,-78.5 182,-78.5"/>
<text text-anchor="start" x="190" y="-107.5" font-family="Helvetica,sans-Serif" font-size="10.00">C:/projects/ndt/build</text>
<text text-anchor="start" x="190" y="-96.5" font-family="Helvetica,sans-Serif" font-size="10.00">/deps/ndt_version/include</text>
<text text-anchor="middle" x="245" y="-85.5" font-family="Helvetica,sans-Serif" font-size="10.00">/ndt/version_info.h</text>
</a>
</g>
</g>
<!-- Node1&#45;&gt;Node4 -->
<g id="edge3" class="edge"><title>Node1&#45;&gt;Node4</title>
<path fill="none" stroke="midnightblue" d="M185.397,-149.779C197.293,-139.843 210.616,-128.716 221.645,-119.506"/>
<polygon fill="midnightblue" stroke="midnightblue" points="182.867,-147.332 177.435,-156.428 187.354,-152.704 182.867,-147.332"/>
</g>
<!-- Node2&#45;&gt;Node3 -->
<g id="edge2" class="edge"><title>Node2&#45;&gt;Node3</title>
<path fill="none" stroke="midnightblue" d="M87.946,-70.9158C96.8921,-61.2029 106.796,-50.4502 115.034,-41.5056"/>
<polygon fill="midnightblue" stroke="midnightblue" points="85.2271,-68.7015 81.0267,-78.4281 90.3759,-73.4438 85.2271,-68.7015"/>
</g>
<!-- Node4&#45;&gt;Node3 -->
<g id="edge4" class="edge"><title>Node4&#45;&gt;Node3</title>
<path fill="none" stroke="midnightblue" d="M207.62,-72.6352C192.665,-62.4868 175.71,-50.9816 161.745,-41.5056"/>
<polygon fill="midnightblue" stroke="midnightblue" points="205.917,-75.7092 216.157,-78.4281 209.848,-69.9169 205.917,-75.7092"/>
</g>
<!-- Node5 -->
<g id="node5" class="node"><title>Node5</title>
<g id="a_node5"><a xlink:href="core_8h.html" target="_top" xlink:title=" ">
<polygon fill="white" stroke="black" points="206,-6 206,-36 324,-36 324,-6 206,-6"/>
<text text-anchor="start" x="214" y="-24" font-family="Helvetica,sans-Serif" font-size="10.00">C:/projects/ndt/sources</text>
<text text-anchor="middle" x="265" y="-13" font-family="Helvetica,sans-Serif" font-size="10.00">/include/ndt/core.h</text>
</a>
</g>
</g>
<!-- Node4&#45;&gt;Node5 -->
<g id="edge5" class="edge"><title>Node4&#45;&gt;Node5</title>
<path fill="none" stroke="midnightblue" d="M252.731,-68.6237C255.658,-57.5015 258.858,-45.3387 261.256,-36.2254"/>
<polygon fill="midnightblue" stroke="midnightblue" points="249.311,-67.8666 250.15,-78.4281 256.08,-69.6481 249.311,-67.8666"/>
</g>
</g>
</svg>
