<?xml version="1.0" encoding="UTF-8" standalone="no"?>
<!DOCTYPE svg PUBLIC "-//W3C//DTD SVG 1.1//EN"
 "http://www.w3.org/Graphics/SVG/1.1/DTD/svg11.dtd">
<!-- Generated by graphviz version 2.38.0 (20140413.2041)
 -->
<!-- Title: ndt::details::BinBase&lt; T &gt; Pages: 1 -->
<svg width="240pt" height="640pt"
 viewBox="0.00 0.00 240.00 640.00" xmlns="http://www.w3.org/2000/svg" xmlns:xlink="http://www.w3.org/1999/xlink">
<g id="graph0" class="graph" transform="scale(1 1) rotate(0) translate(4 636)">
<title>ndt::details::BinBase&lt; T &gt;</title>
<polygon fill="white" stroke="none" points="-4,4 -4,-636 236,-636 236,4 -4,4"/>
<!-- Node1 -->
<g id="node1" class="node"><title>Node1</title>
<g id="a_node1"><a xlink:title=" ">
<polygon fill="#bfbfbf" stroke="black" points="55,-420.5 55,-631.5 186,-631.5 186,-420.5 55,-420.5"/>
<text text-anchor="middle" x="120.5" y="-619.5" font-family="Helvetica,sans-Serif" font-size="10.00">ndt::details::BinBase&lt; T &gt;</text>
<polyline fill="none" stroke="black" points="55,-612.5 186,-612.5 "/>
<text text-anchor="start" x="63" y="-600.5" font-family="Helvetica,sans-Serif" font-size="10.00"># byteIndex_</text>
<text text-anchor="start" x="63" y="-589.5" font-family="Helvetica,sans-Serif" font-size="10.00"># bitIndex_</text>
<text text-anchor="start" x="63" y="-578.5" font-family="Helvetica,sans-Serif" font-size="10.00"># kBitsInByte</text>
<polyline fill="none" stroke="black" points="55,-571.5 186,-571.5 "/>
<text text-anchor="start" x="63" y="-559.5" font-family="Helvetica,sans-Serif" font-size="10.00">+ byteIndex()</text>
<text text-anchor="start" x="63" y="-548.5" font-family="Helvetica,sans-Serif" font-size="10.00">+ bitIndex()</text>
<text text-anchor="start" x="63" y="-537.5" font-family="Helvetica,sans-Serif" font-size="10.00">+ size()</text>
<text text-anchor="start" x="63" y="-526.5" font-family="Helvetica,sans-Serif" font-size="10.00">+ bitSize()</text>
<text text-anchor="start" x="63" y="-515.5" font-family="Helvetica,sans-Serif" font-size="10.00">+ bitCapacity()</text>
<text text-anchor="start" x="63" y="-504.5" font-family="Helvetica,sans-Serif" font-size="10.00"># ~BinBase()</text>
<text text-anchor="start" x="63" y="-493.5" font-family="Helvetica,sans-Serif" font-size="10.00"># BinBase()</text>
<text text-anchor="start" x="63" y="-482.5" font-family="Helvetica,sans-Serif" font-size="10.00"># BinBase()</text>
<text text-anchor="start" x="63" y="-471.5" font-family="Helvetica,sans-Serif" font-size="10.00"># operator=()</text>
<text text-anchor="start" x="63" y="-460.5" font-family="Helvetica,sans-Serif" font-size="10.00"># BinBase()</text>
<text text-anchor="start" x="63" y="-449.5" font-family="Helvetica,sans-Serif" font-size="10.00"># operator=()</text>
<text text-anchor="start" x="63" y="-438.5" font-family="Helvetica,sans-Serif" font-size="10.00"># updateIndices()</text>
<text text-anchor="start" x="63" y="-427.5" font-family="Helvetica,sans-Serif" font-size="10.00"># filledMask()</text>
</a>
</g>
</g>
<!-- Node2 -->
<g id="node2" class="node"><title>Node2</title>
<g id="a_node2"><a xlink:href="classndt_1_1details_1_1_bin_base.html" target="_top" xlink:title=" ">
<polygon fill="white" stroke="black" points="0,-150.5 0,-372.5 107,-372.5 107,-150.5 0,-150.5"/>
<text text-anchor="start" x="8" y="-360.5" font-family="Helvetica,sans-Serif" font-size="10.00">ndt::details::BinBase</text>
<text text-anchor="middle" x="53.5" y="-349.5" font-family="Helvetica,sans-Serif" font-size="10.00">&lt; BinWriter &gt;</text>
<polyline fill="none" stroke="black" points="0,-342.5 107,-342.5 "/>
<text text-anchor="start" x="8" y="-330.5" font-family="Helvetica,sans-Serif" font-size="10.00"># byteIndex_</text>
<text text-anchor="start" x="8" y="-319.5" font-family="Helvetica,sans-Serif" font-size="10.00"># bitIndex_</text>
<text text-anchor="start" x="8" y="-308.5" font-family="Helvetica,sans-Serif" font-size="10.00"># kBitsInByte</text>
<polyline fill="none" stroke="black" points="0,-301.5 107,-301.5 "/>
<text text-anchor="start" x="8" y="-289.5" font-family="Helvetica,sans-Serif" font-size="10.00">+ byteIndex()</text>
<text text-anchor="start" x="8" y="-278.5" font-family="Helvetica,sans-Serif" font-size="10.00">+ bitIndex()</text>
<text text-anchor="start" x="8" y="-267.5" font-family="Helvetica,sans-Serif" font-size="10.00">+ size()</text>
<text text-anchor="start" x="8" y="-256.5" font-family="Helvetica,sans-Serif" font-size="10.00">+ bitSize()</text>
<text text-anchor="start" x="8" y="-245.5" font-family="Helvetica,sans-Serif" font-size="10.00">+ bitCapacity()</text>
<text text-anchor="start" x="8" y="-234.5" font-family="Helvetica,sans-Serif" font-size="10.00"># ~BinBase()</text>
<text text-anchor="start" x="8" y="-223.5" font-family="Helvetica,sans-Serif" font-size="10.00"># BinBase()</text>
<text text-anchor="start" x="8" y="-212.5" font-family="Helvetica,sans-Serif" font-size="10.00"># BinBase()</text>
<text text-anchor="start" x="8" y="-201.5" font-family="Helvetica,sans-Serif" font-size="10.00"># BinBase()</text>
<text text-anchor="start" x="8" y="-190.5" font-family="Helvetica,sans-Serif" font-size="10.00"># operator=()</text>
<text text-anchor="start" x="8" y="-179.5" font-family="Helvetica,sans-Serif" font-size="10.00"># operator=()</text>
<text text-anchor="start" x="8" y="-168.5" font-family="Helvetica,sans-Serif" font-size="10.00"># updateIndices()</text>
<text text-anchor="start" x="8" y="-157.5" font-family="Helvetica,sans-Serif" font-size="10.00"># filledMask()</text>
</a>
</g>
</g>
<!-- Node1&#45;&gt;Node2 -->
<g id="edge1" class="edge"><title>Node1&#45;&gt;Node2</title>
<path fill="none" stroke="orange" d="M84.7252,-410.452C83.9623,-407.611 83.2192,-404.79 82.5,-402 80.0608,-392.538 77.684,-382.675 75.4082,-372.76"/>
<polygon fill="orange" stroke="orange" points="81.3716,-411.458 87.3885,-420.178 88.123,-409.609 81.3716,-411.458"/>
<text text-anchor="middle" x="113.5" y="-394" font-family="Helvetica,sans-Serif" font-size="10.00"> &lt; BinWriter &gt;</text>
</g>
<!-- Node4 -->
<g id="node4" class="node"><title>Node4</title>
<g id="a_node4"><a xlink:href="classndt_1_1details_1_1_bin_base.html" target="_top" xlink:title=" ">
<polygon fill="white" stroke="black" points="125,-150.5 125,-372.5 232,-372.5 232,-150.5 125,-150.5"/>
<text text-anchor="start" x="133" y="-360.5" font-family="Helvetica,sans-Serif" font-size="10.00">ndt::details::BinBase</text>
<text text-anchor="middle" x="178.5" y="-349.5" font-family="Helvetica,sans-Serif" font-size="10.00">&lt; BinReader &gt;</text>
<polyline fill="none" stroke="black" points="125,-342.5 232,-342.5 "/>
<text text-anchor="start" x="133" y="-330.5" font-family="Helvetica,sans-Serif" font-size="10.00"># byteIndex_</text>
<text text-anchor="start" x="133" y="-319.5" font-family="Helvetica,sans-Serif" font-size="10.00"># bitIndex_</text>
<text text-anchor="start" x="133" y="-308.5" font-family="Helvetica,sans-Serif" font-size="10.00"># kBitsInByte</text>
<polyline fill="none" stroke="black" points="125,-301.5 232,-301.5 "/>
<text text-anchor="start" x="133" y="-289.5" font-family="Helvetica,sans-Serif" font-size="10.00">+ byteIndex()</text>
<text text-anchor="start" x="133" y="-278.5" font-family="Helvetica,sans-Serif" font-size="10.00">+ bitIndex()</text>
<text text-anchor="start" x="133" y="-267.5" font-family="Helvetica,sans-Serif" font-size="10.00">+ size()</text>
<text text-anchor="start" x="133" y="-256.5" font-family="Helvetica,sans-Serif" font-size="10.00">+ bitSize()</text>
<text text-anchor="start" x="133" y="-245.5" font-family="Helvetica,sans-Serif" font-size="10.00">+ bitCapacity()</text>
<text text-anchor="start" x="133" y="-234.5" font-family="Helvetica,sans-Serif" font-size="10.00"># ~BinBase()</text>
<text text-anchor="start" x="133" y="-223.5" font-family="Helvetica,sans-Serif" font-size="10.00"># BinBase()</text>
<text text-anchor="start" x="133" y="-212.5" font-family="Helvetica,sans-Serif" font-size="10.00"># BinBase()</text>
<text text-anchor="start" x="133" y="-201.5" font-family="Helvetica,sans-Serif" font-size="10.00"># BinBase()</text>
<text text-anchor="start" x="133" y="-190.5" font-family="Helvetica,sans-Serif" font-size="10.00"># operator=()</text>
<text text-anchor="start" x="133" y="-179.5" font-family="Helvetica,sans-Serif" font-size="10.00"># operator=()</text>
<text text-anchor="start" x="133" y="-168.5" font-family="Helvetica,sans-Serif" font-size="10.00"># updateIndices()</text>
<text text-anchor="start" x="133" y="-157.5" font-family="Helvetica,sans-Serif" font-size="10.00"># filledMask()</text>
</a>
</g>
</g>
<!-- Node1&#45;&gt;Node4 -->
<g id="edge3" class="edge"><title>Node1&#45;&gt;Node4</title>
<path fill="none" stroke="orange" d="M145.803,-410.484C148.576,-397.93 151.396,-385.168 154.158,-372.668"/>
<polygon fill="orange" stroke="orange" points="142.33,-409.979 143.59,-420.499 149.165,-411.489 142.33,-409.979"/>
<text text-anchor="middle" x="183" y="-394" font-family="Helvetica,sans-Serif" font-size="10.00"> &lt; BinReader &gt;</text>
</g>
<!-- Node3 -->
<g id="node3" class="node"><title>Node3</title>
<g id="a_node3"><a xlink:href="classndt_1_1_bin_writer.html" target="_top" xlink:title=" ">
<polygon fill="white" stroke="black" points="6,-0.5 6,-112.5 101,-112.5 101,-0.5 6,-0.5"/>
<text text-anchor="middle" x="53.5" y="-100.5" font-family="Helvetica,sans-Serif" font-size="10.00">ndt::BinWriter</text>
<polyline fill="none" stroke="black" points="6,-93.5 101,-93.5 "/>
<text text-anchor="start" x="14" y="-81.5" font-family="Helvetica,sans-Serif" font-size="10.00">&#45; buffer_</text>
<polyline fill="none" stroke="black" points="6,-74.5 101,-74.5 "/>
<text text-anchor="start" x="14" y="-62.5" font-family="Helvetica,sans-Serif" font-size="10.00">+ BinWriter()</text>
<text text-anchor="start" x="14" y="-51.5" font-family="Helvetica,sans-Serif" font-size="10.00">+ add()</text>
<text text-anchor="start" x="14" y="-40.5" font-family="Helvetica,sans-Serif" font-size="10.00">+ add()</text>
<text text-anchor="start" x="14" y="-29.5" font-family="Helvetica,sans-Serif" font-size="10.00">+ add()</text>
<text text-anchor="start" x="14" y="-18.5" font-family="Helvetica,sans-Serif" font-size="10.00">&#45; addEnum()</text>
<text text-anchor="start" x="14" y="-7.5" font-family="Helvetica,sans-Serif" font-size="10.00">&#45; bitCapacityImpl()</text>
</a>
</g>
</g>
<!-- Node2&#45;&gt;Node3 -->
<g id="edge2" class="edge"><title>Node2&#45;&gt;Node3</title>
<path fill="none" stroke="midnightblue" d="M53.5,-140.346C53.5,-130.778 53.5,-121.438 53.5,-112.684"/>
<polygon fill="none" stroke="midnightblue" points="50.0001,-140.386 53.5,-150.386 57.0001,-140.386 50.0001,-140.386"/>
</g>
<!-- Node5 -->
<g id="node5" class="node"><title>Node5</title>
<g id="a_node5"><a xlink:href="classndt_1_1_bin_reader.html" target="_top" xlink:title=" ">
<polygon fill="white" stroke="black" points="131,-0.5 131,-112.5 226,-112.5 226,-0.5 131,-0.5"/>
<text text-anchor="middle" x="178.5" y="-100.5" font-family="Helvetica,sans-Serif" font-size="10.00">ndt::BinReader</text>
<polyline fill="none" stroke="black" points="131,-93.5 226,-93.5 "/>
<text text-anchor="start" x="139" y="-81.5" font-family="Helvetica,sans-Serif" font-size="10.00">&#45; buffer_</text>
<polyline fill="none" stroke="black" points="131,-74.5 226,-74.5 "/>
<text text-anchor="start" x="139" y="-62.5" font-family="Helvetica,sans-Serif" font-size="10.00">+ BinReader()</text>
<text text-anchor="start" x="139" y="-51.5" font-family="Helvetica,sans-Serif" font-size="10.00">+ get()</text>
<text text-anchor="start" x="139" y="-40.5" font-family="Helvetica,sans-Serif" font-size="10.00">+ get()</text>
<text text-anchor="start" x="139" y="-29.5" font-family="Helvetica,sans-Serif" font-size="10.00">+ get()</text>
<text text-anchor="start" x="139" y="-18.5" font-family="Helvetica,sans-Serif" font-size="10.00">&#45; getEnum()</text>
<text text-anchor="start" x="139" y="-7.5" font-family="Helvetica,sans-Serif" font-size="10.00">&#45; bitCapacityImpl()</text>
</a>
</g>
</g>
<!-- Node4&#45;&gt;Node5 -->
<g id="edge4" class="edge"><title>Node4&#45;&gt;Node5</title>
<path fill="none" stroke="midnightblue" d="M178.5,-140.346C178.5,-130.778 178.5,-121.438 178.5,-112.684"/>
<polygon fill="none" stroke="midnightblue" points="175,-140.386 178.5,-150.386 182,-140.386 175,-140.386"/>
</g>
</g>
</svg>
