<?xml version="1.0" encoding="UTF-8" standalone="no"?>
<!DOCTYPE svg PUBLIC "-//W3C//DTD SVG 1.1//EN"
 "http://www.w3.org/Graphics/SVG/1.1/DTD/svg11.dtd">
<!-- Generated by graphviz version 2.38.0 (20140413.2041)
 -->
<!-- Title: ndt::SocketBase::nativeHandle Pages: 1 -->
<svg width="319pt" height="88pt"
 viewBox="0.00 0.00 319.00 88.00" xmlns="http://www.w3.org/2000/svg" xmlns:xlink="http://www.w3.org/1999/xlink">
<g id="graph0" class="graph" transform="scale(1 1) rotate(0) translate(4 84)">
<title>ndt::SocketBase::nativeHandle</title>
<polygon fill="white" stroke="none" points="-4,4 -4,-84 315,-84 315,4 -4,4"/>
<!-- Node1 -->
<g id="node1" class="node"><title>Node1</title>
<g id="a_node1"><a xlink:title=" ">
<polygon fill="#bfbfbf" stroke="black" points="161,-30 161,-49 311,-49 311,-30 161,-30"/>
<text text-anchor="middle" x="236" y="-37" font-family="Helvetica,sans-Serif" font-size="10.00">ndt::SocketBase::nativeHandle</text>
</a>
</g>
</g>
<!-- Node2 -->
<g id="node2" class="node"><title>Node2</title>
<g id="a_node2"><a xlink:href="classndt_1_1_executor_select_base.html#a635fd124ad6c4e0b2481c04283ea269f" target="_top" xlink:title=" ">
<polygon fill="white" stroke="black" points="0,-49.5 0,-79.5 125,-79.5 125,-49.5 0,-49.5"/>
<text text-anchor="start" x="8" y="-67.5" font-family="Helvetica,sans-Serif" font-size="10.00">ndt::ExecutorSelectBase</text>
<text text-anchor="middle" x="62.5" y="-56.5" font-family="Helvetica,sans-Serif" font-size="10.00">::addSocket</text>
</a>
</g>
</g>
<!-- Node1&#45;&gt;Node2 -->
<g id="edge1" class="edge"><title>Node1&#45;&gt;Node2</title>
<path fill="none" stroke="midnightblue" d="M159.658,-50.4828C148.163,-52.1585 136.414,-53.8712 125.255,-55.4979"/>
<polygon fill="midnightblue" stroke="midnightblue" points="160.283,-53.9287 169.674,-49.0227 159.274,-47.0019 160.283,-53.9287"/>
</g>
<!-- Node3 -->
<g id="node3" class="node"><title>Node3</title>
<g id="a_node3"><a xlink:href="classndt_1_1_executor_select_base.html#a638ef2e6d303d6414f4ded84d4f7e0d8" target="_top" xlink:title=" ">
<polygon fill="white" stroke="black" points="0,-0.5 0,-30.5 125,-30.5 125,-0.5 0,-0.5"/>
<text text-anchor="start" x="8" y="-18.5" font-family="Helvetica,sans-Serif" font-size="10.00">ndt::ExecutorSelectBase</text>
<text text-anchor="middle" x="62.5" y="-7.5" font-family="Helvetica,sans-Serif" font-size="10.00">::delSocket</text>
</a>
</g>
</g>
<!-- Node1&#45;&gt;Node3 -->
<g id="edge2" class="edge"><title>Node1&#45;&gt;Node3</title>
<path fill="none" stroke="midnightblue" d="M156.661,-28.537C146.092,-27.0581 135.372,-25.5579 125.149,-24.1273"/>
<polygon fill="midnightblue" stroke="midnightblue" points="156.337,-32.0258 166.726,-29.9456 157.307,-25.0934 156.337,-32.0258"/>
</g>
</g>
</svg>
