<?xml version="1.0" encoding="UTF-8" standalone="no"?>
<!DOCTYPE svg PUBLIC "-//W3C//DTD SVG 1.1//EN"
 "http://www.w3.org/Graphics/SVG/1.1/DTD/svg11.dtd">
<!-- Generated by graphviz version 2.38.0 (20140413.2041)
 -->
<!-- Title: ndt::Buffer::size Pages: 1 -->
<svg width="278pt" height="66pt"
 viewBox="0.00 0.00 278.00 66.00" xmlns="http://www.w3.org/2000/svg" xmlns:xlink="http://www.w3.org/1999/xlink">
<g id="graph0" class="graph" transform="scale(1 1) rotate(0) translate(4 62)">
<title>ndt::Buffer::size</title>
<polygon fill="white" stroke="none" points="-4,4 -4,-62 274,-62 274,4 -4,4"/>
<!-- Node1 -->
<g id="node1" class="node"><title>Node1</title>
<g id="a_node1"><a xlink:title=" ">
<polygon fill="#bfbfbf" stroke="black" points="185,-19.5 185,-38.5 270,-38.5 270,-19.5 185,-19.5"/>
<text text-anchor="middle" x="227.5" y="-26.5" font-family="Helvetica,sans-Serif" font-size="10.00">ndt::Buffer::size</text>
</a>
</g>
</g>
<!-- Node2 -->
<g id="node2" class="node"><title>Node2</title>
<g id="a_node2"><a xlink:href="classndt_1_1_bin_writer.html#a3545246c210be26581edaf37a6ea8296" target="_top" xlink:title=" ">
<polygon fill="white" stroke="black" points="0,-38.5 0,-57.5 149,-57.5 149,-38.5 0,-38.5"/>
<text text-anchor="middle" x="74.5" y="-45.5" font-family="Helvetica,sans-Serif" font-size="10.00">ndt::BinWriter::bitCapacityImpl</text>
</a>
</g>
</g>
<!-- Node1&#45;&gt;Node2 -->
<g id="edge1" class="edge"><title>Node1&#45;&gt;Node2</title>
<path fill="none" stroke="midnightblue" d="M174.674,-35.5211C166.447,-36.5564 157.802,-37.6442 149.188,-38.728"/>
<polygon fill="midnightblue" stroke="midnightblue" points="175.354,-38.9633 184.839,-34.2421 174.48,-32.018 175.354,-38.9633"/>
</g>
<!-- Node3 -->
<g id="node3" class="node"><title>Node3</title>
<g id="a_node3"><a xlink:href="classndt_1_1_socket_base.html#a89b3f475873b6752d846e7330cf575a5" target="_top" xlink:title=" ">
<polygon fill="white" stroke="black" points="7,-0.5 7,-19.5 142,-19.5 142,-0.5 7,-0.5"/>
<text text-anchor="middle" x="74.5" y="-7.5" font-family="Helvetica,sans-Serif" font-size="10.00">ndt::SocketBase::recvFrom</text>
</a>
</g>
</g>
<!-- Node1&#45;&gt;Node3 -->
<g id="edge2" class="edge"><title>Node1&#45;&gt;Node3</title>
<path fill="none" stroke="midnightblue" d="M174.661,-22.4772C164.226,-21.1642 153.12,-19.7668 142.259,-18.4001"/>
<polygon fill="midnightblue" stroke="midnightblue" points="174.48,-25.982 184.839,-23.7579 175.354,-19.0367 174.48,-25.982"/>
</g>
</g>
</svg>
