<?xml version="1.0" encoding="UTF-8" standalone="no"?>
<!DOCTYPE svg PUBLIC "-//W3C//DTD SVG 1.1//EN"
 "http://www.w3.org/Graphics/SVG/1.1/DTD/svg11.dtd">
<!-- Generated by graphviz version 2.38.0 (20140413.2041)
 -->
<!-- Title: ndt::details::ByteOrder&lt; uint64_t, 8 &gt;::toHost Pages: 1 -->
<svg width="369pt" height="39pt"
 viewBox="0.00 0.00 369.00 39.00" xmlns="http://www.w3.org/2000/svg" xmlns:xlink="http://www.w3.org/1999/xlink">
<g id="graph0" class="graph" transform="scale(1 1) rotate(0) translate(4 35)">
<title>ndt::details::ByteOrder&lt; uint64_t, 8 &gt;::toHost</title>
<polygon fill="white" stroke="none" points="-4,4 -4,-35 365,-35 365,4 -4,4"/>
<!-- Node1 -->
<g id="node1" class="node"><title>Node1</title>
<g id="a_node1"><a xlink:title=" ">
<polygon fill="#bfbfbf" stroke="black" points="0,-0.5 0,-30.5 115,-30.5 115,-0.5 0,-0.5"/>
<text text-anchor="start" x="8" y="-18.5" font-family="Helvetica,sans-Serif" font-size="10.00">ndt::details::ByteOrder</text>
<text text-anchor="middle" x="57.5" y="-7.5" font-family="Helvetica,sans-Serif" font-size="10.00">&lt; uint64_t, 8 &gt;::toHost</text>
</a>
</g>
</g>
<!-- Node2 -->
<g id="node2" class="node"><title>Node2</title>
<g id="a_node2"><a xlink:href="namespacendt.html#aff5aae17f9fa68f8d8d9d552c2aed652" target="_top" xlink:title=" ">
<polygon fill="white" stroke="black" points="151,-6 151,-25 210,-25 210,-6 151,-6"/>
<text text-anchor="middle" x="180.5" y="-13" font-family="Helvetica,sans-Serif" font-size="10.00">ndt::toNet</text>
</a>
</g>
</g>
<!-- Node1&#45;&gt;Node2 -->
<g id="edge1" class="edge"><title>Node1&#45;&gt;Node2</title>
<path fill="none" stroke="midnightblue" d="M115.103,-15.5C123.839,-15.5 132.684,-15.5 140.904,-15.5"/>
<polygon fill="midnightblue" stroke="midnightblue" points="140.929,-19.0001 150.929,-15.5 140.929,-12.0001 140.929,-19.0001"/>
</g>
<!-- Node3 -->
<g id="node3" class="node"><title>Node3</title>
<g id="a_node3"><a xlink:href="classndt_1_1details_1_1_byte_order.html#a8e1bd472e0ebade5d2accb62318b6e18" target="_top" xlink:title=" ">
<polygon fill="white" stroke="black" points="246,-0.5 246,-30.5 361,-30.5 361,-0.5 246,-0.5"/>
<text text-anchor="start" x="254" y="-18.5" font-family="Helvetica,sans-Serif" font-size="10.00">ndt::details::ByteOrder</text>
<text text-anchor="middle" x="303.5" y="-7.5" font-family="Helvetica,sans-Serif" font-size="10.00">::toNet</text>
</a>
</g>
</g>
<!-- Node2&#45;&gt;Node3 -->
<g id="edge2" class="edge"><title>Node2&#45;&gt;Node3</title>
<path fill="none" stroke="midnightblue" d="M210.175,-15.5C217.995,-15.5 226.806,-15.5 235.802,-15.5"/>
<polygon fill="midnightblue" stroke="midnightblue" points="235.994,-19.0001 245.994,-15.5 235.994,-12.0001 235.994,-19.0001"/>
</g>
</g>
</svg>
