<?xml version="1.0" encoding="UTF-8" standalone="no"?>
<!DOCTYPE svg PUBLIC "-//W3C//DTD SVG 1.1//EN"
 "http://www.w3.org/Graphics/SVG/1.1/DTD/svg11.dtd">
<!-- Generated by graphviz version 2.38.0 (20140413.2041)
 -->
<!-- Title: ndt::Socket::sendTo Pages: 1 -->
<svg width="405pt" height="28pt"
 viewBox="0.00 0.00 405.00 28.00" xmlns="http://www.w3.org/2000/svg" xmlns:xlink="http://www.w3.org/1999/xlink">
<g id="graph0" class="graph" transform="scale(1 1) rotate(0) translate(4 24)">
<title>ndt::Socket::sendTo</title>
<polygon fill="white" stroke="none" points="-4,4 -4,-24 401,-24 401,4 -4,4"/>
<!-- Node1 -->
<g id="node1" class="node"><title>Node1</title>
<g id="a_node1"><a xlink:title=" ">
<polygon fill="#bfbfbf" stroke="black" points="0,-0.5 0,-19.5 104,-19.5 104,-0.5 0,-0.5"/>
<text text-anchor="middle" x="52" y="-7.5" font-family="Helvetica,sans-Serif" font-size="10.00">ndt::Socket::sendTo</text>
</a>
</g>
</g>
<!-- Node2 -->
<g id="node2" class="node"><title>Node2</title>
<g id="a_node2"><a xlink:href="classndt_1_1_socket_base.html#a6a0407e91c88a1388b3cd86d5f7eda70" target="_top" xlink:title=" ">
<polygon fill="white" stroke="black" points="140,-0.5 140,-19.5 267,-19.5 267,-0.5 140,-0.5"/>
<text text-anchor="middle" x="203.5" y="-7.5" font-family="Helvetica,sans-Serif" font-size="10.00">ndt::SocketBase::sendTo</text>
</a>
</g>
</g>
<!-- Node1&#45;&gt;Node2 -->
<g id="edge1" class="edge"><title>Node1&#45;&gt;Node2</title>
<path fill="none" stroke="midnightblue" d="M104.031,-10C112.3,-10 121,-10 129.666,-10"/>
<polygon fill="midnightblue" stroke="midnightblue" points="129.796,-13.5001 139.796,-10 129.796,-6.5001 129.796,-13.5001"/>
</g>
<!-- Node3 -->
<g id="node3" class="node"><title>Node3</title>
<g id="a_node3"><a xlink:href="namespacendt.html#aa944f7db5d9dd6201e090a114718ef3b" target="_top" xlink:title=" ">
<polygon fill="white" stroke="black" points="303,-0.5 303,-19.5 397,-19.5 397,-0.5 303,-0.5"/>
<text text-anchor="middle" x="350" y="-7.5" font-family="Helvetica,sans-Serif" font-size="10.00">ndt::throw_if_error</text>
</a>
</g>
</g>
<!-- Node2&#45;&gt;Node3 -->
<g id="edge2" class="edge"><title>Node2&#45;&gt;Node3</title>
<path fill="none" stroke="midnightblue" d="M267.039,-10C275.607,-10 284.361,-10 292.806,-10"/>
<polygon fill="midnightblue" stroke="midnightblue" points="292.921,-13.5001 302.921,-10 292.921,-6.5001 292.921,-13.5001"/>
</g>
</g>
</svg>
