<?xml version="1.0" encoding="UTF-8" standalone="no"?>
<!DOCTYPE svg PUBLIC "-//W3C//DTD SVG 1.1//EN"
 "http://www.w3.org/Graphics/SVG/1.1/DTD/svg11.dtd">
<!-- Generated by graphviz version 2.38.0 (20140413.2041)
 -->
<!-- Title: ndt::Socket::operator= Pages: 1 -->
<svg width="390pt" height="47pt"
 viewBox="0.00 0.00 390.00 47.00" xmlns="http://www.w3.org/2000/svg" xmlns:xlink="http://www.w3.org/1999/xlink">
<g id="graph0" class="graph" transform="scale(1 1) rotate(0) translate(4 43)">
<title>ndt::Socket::operator=</title>
<polygon fill="white" stroke="none" points="-4,4 -4,-43 386,-43 386,4 -4,4"/>
<!-- Node1 -->
<g id="node1" class="node"><title>Node1</title>
<g id="a_node1"><a xlink:title=" ">
<polygon fill="#bfbfbf" stroke="black" points="0,-0.5 0,-19.5 114,-19.5 114,-0.5 0,-0.5"/>
<text text-anchor="middle" x="57" y="-7.5" font-family="Helvetica,sans-Serif" font-size="10.00">ndt::Socket::operator=</text>
</a>
</g>
</g>
<!-- Node2 -->
<g id="node2" class="node"><title>Node2</title>
<g id="a_node2"><a xlink:href="classndt_1_1_socket_base.html#a2315d431b31a2a7572045d8c46f7e3bf" target="_top" xlink:title=" ">
<polygon fill="white" stroke="black" points="150,-19.5 150,-38.5 287,-38.5 287,-19.5 150,-19.5"/>
<text text-anchor="middle" x="218.5" y="-26.5" font-family="Helvetica,sans-Serif" font-size="10.00">ndt::SocketBase::operator=</text>
</a>
</g>
</g>
<!-- Node1&#45;&gt;Node2 -->
<g id="edge1" class="edge"><title>Node1&#45;&gt;Node2</title>
<path fill="none" stroke="midnightblue" d="M114.234,-16.6987C122.485,-17.6816 131.105,-18.7085 139.696,-19.7318"/>
<polygon fill="midnightblue" stroke="midnightblue" points="139.398,-23.221 149.742,-20.9285 140.226,-16.2701 139.398,-23.221"/>
</g>
<!-- Node3 -->
<g id="node3" class="node"><title>Node3</title>
<g id="a_node3"><a xlink:href="namespacendt.html#a93e71a8c9bf7c8166e37b76bbe659b40" target="_top" xlink:title=" ">
<polygon fill="white" stroke="black" points="323,-0.5 323,-19.5 382,-19.5 382,-0.5 323,-0.5"/>
<text text-anchor="middle" x="352.5" y="-7.5" font-family="Helvetica,sans-Serif" font-size="10.00">ndt::swap</text>
</a>
</g>
</g>
<!-- Node1&#45;&gt;Node3 -->
<g id="edge3" class="edge"><title>Node1&#45;&gt;Node3</title>
<path fill="none" stroke="midnightblue" d="M114.242,-10C172.361,-10 261.552,-10 312.406,-10"/>
<polygon fill="midnightblue" stroke="midnightblue" points="312.651,-13.5001 322.65,-10 312.65,-6.5001 312.651,-13.5001"/>
</g>
<!-- Node2&#45;&gt;Node3 -->
<g id="edge2" class="edge"><title>Node2&#45;&gt;Node3</title>
<path fill="none" stroke="midnightblue" d="M285.887,-19.4443C295.106,-18.1172 304.316,-16.7916 312.796,-15.571"/>
<polygon fill="midnightblue" stroke="midnightblue" points="313.33,-19.0303 322.73,-14.1412 312.333,-12.1017 313.33,-19.0303"/>
</g>
</g>
</svg>
