<?xml version="1.0" encoding="UTF-8" standalone="no"?>
<!DOCTYPE svg PUBLIC "-//W3C//DTD SVG 1.1//EN"
 "http://www.w3.org/Graphics/SVG/1.1/DTD/svg11.dtd">
<!-- Generated by graphviz version 2.38.0 (20140413.2041)
 -->
<!-- Title: ndt::Socket::open Pages: 1 -->
<svg width="455pt" height="28pt"
 viewBox="0.00 0.00 455.00 28.00" xmlns="http://www.w3.org/2000/svg" xmlns:xlink="http://www.w3.org/1999/xlink">
<g id="graph0" class="graph" transform="scale(1 1) rotate(0) translate(4 24)">
<title>ndt::Socket::open</title>
<polygon fill="white" stroke="none" points="-4,4 -4,-24 451,-24 451,4 -4,4"/>
<!-- Node1 -->
<g id="node1" class="node"><title>Node1</title>
<g id="a_node1"><a xlink:title=" ">
<polygon fill="#bfbfbf" stroke="black" points="0,-0.5 0,-19.5 94,-19.5 94,-0.5 0,-0.5"/>
<text text-anchor="middle" x="47" y="-7.5" font-family="Helvetica,sans-Serif" font-size="10.00">ndt::Socket::open</text>
</a>
</g>
</g>
<!-- Node2 -->
<g id="node2" class="node"><title>Node2</title>
<g id="a_node2"><a xlink:href="classndt_1_1_socket_base.html#a7f067ad09c931729a2ed6d51a5820d36" target="_top" xlink:title=" ">
<polygon fill="white" stroke="black" points="130,-0.5 130,-19.5 246,-19.5 246,-0.5 130,-0.5"/>
<text text-anchor="middle" x="188" y="-7.5" font-family="Helvetica,sans-Serif" font-size="10.00">ndt::SocketBase::open</text>
</a>
</g>
</g>
<!-- Node1&#45;&gt;Node2 -->
<g id="edge1" class="edge"><title>Node1&#45;&gt;Node2</title>
<path fill="none" stroke="midnightblue" d="M94.285,-10C102.459,-10 111.117,-10 119.729,-10"/>
<polygon fill="midnightblue" stroke="midnightblue" points="119.786,-13.5001 129.786,-10 119.786,-6.5001 119.786,-13.5001"/>
</g>
<!-- Node3 -->
<g id="node3" class="node"><title>Node3</title>
<g id="a_node3"><a xlink:href="classndt_1_1_socket_base.html#a929bc62e265697e9917ed97a302779fa" target="_top" xlink:title=" ">
<polygon fill="white" stroke="black" points="282,-0.5 282,-19.5 447,-19.5 447,-0.5 282,-0.5"/>
<text text-anchor="middle" x="364.5" y="-7.5" font-family="Helvetica,sans-Serif" font-size="10.00">ndt::SocketBase::setIsSubscribed</text>
</a>
</g>
</g>
<!-- Node2&#45;&gt;Node3 -->
<g id="edge2" class="edge"><title>Node2&#45;&gt;Node3</title>
<path fill="none" stroke="midnightblue" d="M246.138,-10C254.354,-10 262.976,-10 271.658,-10"/>
<polygon fill="midnightblue" stroke="midnightblue" points="271.858,-13.5001 281.858,-10 271.858,-6.5001 271.858,-13.5001"/>
</g>
</g>
</svg>
