<?xml version="1.0" encoding="UTF-8" standalone="no"?>
<!DOCTYPE svg PUBLIC "-//W3C//DTD SVG 1.1//EN"
 "http://www.w3.org/Graphics/SVG/1.1/DTD/svg11.dtd">
<!-- Generated by graphviz version 2.38.0 (20140413.2041)
 -->
<!-- Title: ndt::Address::addressFamilySys Pages: 1 -->
<!--zoomable 161 -->
<svg id="main" version="1.1" xmlns="http://www.w3.org/2000/svg" xmlns:xlink="http://www.w3.org/1999/xlink" xml:space="preserve" onload="init(evt)">
<style type="text/css"><![CDATA[
.edge:hover path { stroke: red; }
.edge:hover polygon { stroke: red; fill: red; }
]]></style>
<script type="text/javascript"><![CDATA[
var edges = document.getElementsByTagName('g');
if (edges && edges.length) {
  for (var i=0;i<edges.length;i++) {
    if (edges[i].id.substr(0,4)=='edge') {
      edges[i].setAttribute('class','edge');
    }
  }
}
]]></script>
        <defs>
                <circle id="rim" cx="0" cy="0" r="7"/>
                <circle id="rim2" cx="0" cy="0" r="3.5"/>
                <g id="zoomPlus">
                        <use xlink:href="#rim" fill="#404040">
                                <set attributeName="fill" to="#808080" begin="zoomplus.mouseover" end="zoomplus.mouseout"/>
                        </use>
                        <path d="M-4,0h8M0,-4v8" fill="none" stroke="white" stroke-width="1.5" pointer-events="none"/>
                </g>
                <g id="zoomMin">
                        <use xlink:href="#rim" fill="#404040">
                                <set attributeName="fill" to="#808080" begin="zoomminus.mouseover" end="zoomminus.mouseout"/>
                        </use>
                        <path d="M-4,0h8" fill="none" stroke="white" stroke-width="1.5" pointer-events="none"/>
                </g>
                <g id="dirArrow">
                        <path fill="none" stroke="white" stroke-width="1.5" d="M0,-3.0v7 M-2.5,-0.5L0,-3.0L2.5,-0.5"/>
                </g>
               <g id="resetDef">
                       <use xlink:href="#rim2" fill="#404040">
                               <set attributeName="fill" to="#808080" begin="reset.mouseover" end="reset.mouseout"/>
                       </use>
               </g>
        </defs>

<script type="text/javascript">
var viewWidth = 608;
var viewHeight = 161;
var sectionId = 'dynsection-8';
</script>
<script xlink:href="svgpan.js"/>
<svg id="graph" class="graph">
<g id="viewport">
<title>ndt::Address::addressFamilySys</title>
<polygon fill="white" stroke="none" points="-4,4 -4,-157 604,-157 604,4 -4,4"/>
<!-- Node1 -->
<g id="node1" class="node"><title>Node1</title>
<g id="a_node1"><a xlink:title=" ">
<polygon fill="#bfbfbf" stroke="black" points="441,-38.5 441,-57.5 600,-57.5 600,-38.5 441,-38.5"/>
<text text-anchor="middle" x="520.5" y="-45.5" font-family="Helvetica,sans-Serif" font-size="10.00">ndt::Address::addressFamilySys</text>
</a>
</g>
</g>
<!-- Node2 -->
<g id="node2" class="node"><title>Node2</title>
<g id="a_node2"><a xlink:href="classndt_1_1_address.html#a893029bdda2b65cb2f8cde7ac474843e" target="_top" xlink:title=" ">
<polygon fill="white" stroke="black" points="290,-95.5 290,-114.5 405,-114.5 405,-95.5 290,-95.5"/>
<text text-anchor="middle" x="347.5" y="-102.5" font-family="Helvetica,sans-Serif" font-size="10.00">ndt::Address::capacity</text>
</a>
</g>
</g>
<!-- Node1&#45;&gt;Node2 -->
<g id="edge1" class="edge"><title>Node1&#45;&gt;Node2</title>
<path fill="none" stroke="midnightblue" d="M481.124,-60.7919C449.631,-71.2898 405.732,-85.9228 377.215,-95.4284"/>
<polygon fill="midnightblue" stroke="midnightblue" points="482.498,-64.0233 490.878,-57.5405 480.285,-57.3825 482.498,-64.0233"/>
</g>
<!-- Node6 -->
<g id="node6" class="node"><title>Node6</title>
<g id="a_node6"><a xlink:href="classndt_1_1_address.html#a21976875e9d17b6e8f3f5dff3d1e9c52" target="_top" xlink:title=" ">
<polygon fill="white" stroke="black" points="304.5,-57.5 304.5,-76.5 390.5,-76.5 390.5,-57.5 304.5,-57.5"/>
<text text-anchor="middle" x="347.5" y="-64.5" font-family="Helvetica,sans-Serif" font-size="10.00">ndt::Address::ip</text>
</a>
</g>
</g>
<!-- Node1&#45;&gt;Node6 -->
<g id="edge5" class="edge"><title>Node1&#45;&gt;Node6</title>
<path fill="none" stroke="midnightblue" d="M430.438,-57.8958C416.611,-59.4321 402.908,-60.9546 390.78,-62.3022"/>
<polygon fill="midnightblue" stroke="midnightblue" points="430.955,-61.36 440.507,-56.777 430.182,-54.4028 430.955,-61.36"/>
</g>
<!-- Node8 -->
<g id="node8" class="node"><title>Node8</title>
<g id="a_node8"><a xlink:href="classndt_1_1_address.html#a947e5390323b236819830df8d2466e9d" target="_top" xlink:title=" ">
<polygon fill="white" stroke="black" points="298.5,-19.5 298.5,-38.5 396.5,-38.5 396.5,-19.5 298.5,-19.5"/>
<text text-anchor="middle" x="347.5" y="-26.5" font-family="Helvetica,sans-Serif" font-size="10.00">ndt::Address::ipPtr</text>
</a>
</g>
</g>
<!-- Node1&#45;&gt;Node8 -->
<g id="edge7" class="edge"><title>Node1&#45;&gt;Node8</title>
<path fill="none" stroke="midnightblue" d="M430.376,-38.0973C418.849,-36.8166 407.411,-35.5456 396.9,-34.3778"/>
<polygon fill="midnightblue" stroke="midnightblue" points="430.182,-41.5972 440.507,-39.223 430.955,-34.64 430.182,-41.5972"/>
</g>
<!-- Node9 -->
<g id="node9" class="node"><title>Node9</title>
<g id="a_node9"><a xlink:href="classndt_1_1_address.html#adbfe0ed4f6b0d87bff89d67660efa323" target="_top" xlink:title=" ">
<polygon fill="white" stroke="black" points="141.5,-0.5 141.5,-19.5 239.5,-19.5 239.5,-0.5 141.5,-0.5"/>
<text text-anchor="middle" x="190.5" y="-7.5" font-family="Helvetica,sans-Serif" font-size="10.00">ndt::Address::ipStr</text>
</a>
</g>
</g>
<!-- Node1&#45;&gt;Node9 -->
<g id="edge9" class="edge"><title>Node1&#45;&gt;Node9</title>
<path fill="none" stroke="midnightblue" d="M488.227,-34.5927C465.588,-25.6426 433.998,-14.6862 405,-10 348.832,-0.923033 283.262,-2.73134 239.759,-5.63454"/>
<polygon fill="midnightblue" stroke="midnightblue" points="487.069,-37.8999 497.652,-38.4074 489.695,-31.4112 487.069,-37.8999"/>
</g>
<!-- Node3 -->
<g id="node3" class="node"><title>Node3</title>
<g id="a_node3"><a xlink:href="classndt_1_1_socket_base.html#af5363bfd950964fdd0a7fc44fcf3125a" target="_top" xlink:title=" ">
<polygon fill="white" stroke="black" points="134,-133.5 134,-152.5 247,-152.5 247,-133.5 134,-133.5"/>
<text text-anchor="middle" x="190.5" y="-140.5" font-family="Helvetica,sans-Serif" font-size="10.00">ndt::SocketBase::bind</text>
</a>
</g>
</g>
<!-- Node2&#45;&gt;Node3 -->
<g id="edge2" class="edge"><title>Node2&#45;&gt;Node3</title>
<path fill="none" stroke="midnightblue" d="M297.389,-117.04C275.735,-122.349 250.65,-128.499 230.332,-133.48"/>
<polygon fill="midnightblue" stroke="midnightblue" points="298.508,-120.37 307.387,-114.589 296.841,-113.571 298.508,-120.37"/>
</g>
<!-- Node5 -->
<g id="node5" class="node"><title>Node5</title>
<g id="a_node5"><a xlink:href="classndt_1_1_socket_base.html#a869764aa83c8bd0bcfe00db19401586f" target="_top" xlink:title=" ">
<polygon fill="white" stroke="black" points="127,-95.5 127,-114.5 254,-114.5 254,-95.5 127,-95.5"/>
<text text-anchor="middle" x="190.5" y="-102.5" font-family="Helvetica,sans-Serif" font-size="10.00">ndt::SocketBase::sendTo</text>
</a>
</g>
</g>
<!-- Node2&#45;&gt;Node5 -->
<g id="edge4" class="edge"><title>Node2&#45;&gt;Node5</title>
<path fill="none" stroke="midnightblue" d="M279.485,-105C271.049,-105 262.444,-105 254.08,-105"/>
<polygon fill="midnightblue" stroke="midnightblue" points="279.664,-108.5 289.664,-105 279.664,-101.5 279.664,-108.5"/>
</g>
<!-- Node4 -->
<g id="node4" class="node"><title>Node4</title>
<g id="a_node4"><a xlink:href="classndt_1_1_socket.html#a66a517cd123c7f97e4d99e1c52fa9038" target="_top" xlink:title=" ">
<polygon fill="white" stroke="black" points="0,-133.5 0,-152.5 91,-152.5 91,-133.5 0,-133.5"/>
<text text-anchor="middle" x="45.5" y="-140.5" font-family="Helvetica,sans-Serif" font-size="10.00">ndt::Socket::bind</text>
</a>
</g>
</g>
<!-- Node3&#45;&gt;Node4 -->
<g id="edge3" class="edge"><title>Node3&#45;&gt;Node4</title>
<path fill="none" stroke="midnightblue" d="M123.765,-143C112.746,-143 101.544,-143 91.2129,-143"/>
<polygon fill="midnightblue" stroke="midnightblue" points="123.803,-146.5 133.803,-143 123.803,-139.5 123.803,-146.5"/>
</g>
<!-- Node7 -->
<g id="node7" class="node"><title>Node7</title>
<g id="a_node7"><a xlink:href="classndt_1_1_address.html#a56792366a0ed5bd1ab3622f22e591ed0" target="_top" xlink:title=" ">
<polygon fill="white" stroke="black" points="133.5,-57.5 133.5,-76.5 247.5,-76.5 247.5,-57.5 133.5,-57.5"/>
<text text-anchor="middle" x="190.5" y="-64.5" font-family="Helvetica,sans-Serif" font-size="10.00">ndt::Address::Address</text>
</a>
</g>
</g>
<!-- Node6&#45;&gt;Node7 -->
<g id="edge6" class="edge"><title>Node6&#45;&gt;Node7</title>
<path fill="none" stroke="midnightblue" d="M294.08,-67C279.175,-67 262.883,-67 247.76,-67"/>
<polygon fill="midnightblue" stroke="midnightblue" points="294.146,-70.5001 304.146,-67 294.146,-63.5001 294.146,-70.5001"/>
</g>
<!-- Node8&#45;&gt;Node9 -->
<g id="edge8" class="edge"><title>Node8&#45;&gt;Node9</title>
<path fill="none" stroke="midnightblue" d="M288.02,-21.8315C272.068,-19.8761 254.97,-17.7802 239.664,-15.9039"/>
<polygon fill="midnightblue" stroke="midnightblue" points="287.955,-25.3496 298.307,-23.0924 288.807,-18.4017 287.955,-25.3496"/>
</g>
</g>
</svg>
        <g id="navigator" transform="translate(0 0)" fill="#404254">
                <rect fill="#f2f5e9" fill-opacity="0.5" stroke="#606060" stroke-width=".5" x="0" y="0" width="60" height="60"/>
                <use id="zoomplus" xlink:href="#zoomPlus" x="17" y="9" onmousedown="handleZoom(evt,'in')"/>
                <use id="zoomminus" xlink:href="#zoomMin" x="42" y="9" onmousedown="handleZoom(evt,'out')"/>
                <use id="reset" xlink:href="#resetDef" x="30" y="36" onmousedown="handleReset()"/>
                <g id="arrowUp" xlink:href="#dirArrow" transform="translate(30 24)" onmousedown="handlePan(0,-1)">
                  <use xlink:href="#rim" fill="#404040">
                        <set attributeName="fill" to="#808080" begin="arrowUp.mouseover" end="arrowUp.mouseout"/>
                  </use>
                  <path fill="none" stroke="white" stroke-width="1.5" d="M0,-3.0v7 M-2.5,-0.5L0,-3.0L2.5,-0.5"/>
                </g>
                <g id="arrowRight" xlink:href="#dirArrow" transform="rotate(90) translate(36 -43)" onmousedown="handlePan(1,0)">
                  <use xlink:href="#rim" fill="#404040">
                        <set attributeName="fill" to="#808080" begin="arrowRight.mouseover" end="arrowRight.mouseout"/>
                  </use>
                  <path fill="none" stroke="white" stroke-width="1.5" d="M0,-3.0v7 M-2.5,-0.5L0,-3.0L2.5,-0.5"/>
                </g>
                <g id="arrowDown" xlink:href="#dirArrow" transform="rotate(180) translate(-30 -48)" onmousedown="handlePan(0,1)">
                  <use xlink:href="#rim" fill="#404040">
                        <set attributeName="fill" to="#808080" begin="arrowDown.mouseover" end="arrowDown.mouseout"/>
                  </use>
                  <path fill="none" stroke="white" stroke-width="1.5" d="M0,-3.0v7 M-2.5,-0.5L0,-3.0L2.5,-0.5"/>
                </g>
                <g id="arrowLeft" xlink:href="#dirArrow" transform="rotate(270) translate(-36 17)" onmousedown="handlePan(-1,0)">
                  <use xlink:href="#rim" fill="#404040">
                        <set attributeName="fill" to="#808080" begin="arrowLeft.mouseover" end="arrowLeft.mouseout"/>
                  </use>
                  <path fill="none" stroke="white" stroke-width="1.5" d="M0,-3.0v7 M-2.5,-0.5L0,-3.0L2.5,-0.5"/>
                </g>
        </g>
        <svg viewBox="0 0 15 15" width="100%" height="30px" preserveAspectRatio="xMaxYMin meet">
         <g id="arrow_out" transform="scale(0.3 0.3)">
          <a xlink:href="classndt_1_1_address_acc3c23480a74e90b63d75e15c3300040_icgraph_org.svg" target="_base">
           <rect id="button" ry="5" rx="5" y="6" x="6" height="38" width="38"
                fill="#f2f5e9" fill-opacity="0.5" stroke="#606060" stroke-width="1.0"/>
           <path id="arrow"
             d="M 11.500037,31.436501 C 11.940474,20.09759 22.043105,11.32322 32.158766,21.979434 L 37.068811,17.246167 C 37.068811,17.246167 37.088388,32 37.088388,32 L 22.160133,31.978069 C 22.160133,31.978069 26.997745,27.140456 26.997745,27.140456 C 18.528582,18.264221 13.291696,25.230495 11.500037,31.436501 z"
             style="fill:#404040;"/>
          </a>
         </g>
        </svg>
</svg>
