<?xml version="1.0" encoding="UTF-8" standalone="no"?>
<!DOCTYPE svg PUBLIC "-//W3C//DTD SVG 1.1//EN"
 "http://www.w3.org/Graphics/SVG/1.1/DTD/svg11.dtd">
<!-- Generated by graphviz version 2.38.0 (20140413.2041)
 -->
<!-- Title: ndt::Context&lt; SysWrapperT &gt; Pages: 1 -->
<svg width="178pt" height="419pt"
 viewBox="0.00 0.00 178.00 419.00" xmlns="http://www.w3.org/2000/svg" xmlns:xlink="http://www.w3.org/1999/xlink">
<g id="graph0" class="graph" transform="scale(1 1) rotate(0) translate(4 415)">
<title>ndt::Context&lt; SysWrapperT &gt;</title>
<polygon fill="white" stroke="none" points="-4,4 -4,-415 174,-415 174,4 -4,4"/>
<!-- Node1 -->
<g id="node1" class="node"><title>Node1</title>
<g id="a_node1"><a xlink:title=" ">
<polygon fill="#bfbfbf" stroke="black" points="11.5,-0.5 11.5,-112.5 158.5,-112.5 158.5,-0.5 11.5,-0.5"/>
<text text-anchor="middle" x="85" y="-100.5" font-family="Helvetica,sans-Serif" font-size="10.00">ndt::Context&lt; SysWrapperT &gt;</text>
<polyline fill="none" stroke="black" points="11.5,-93.5 158.5,-93.5 "/>
<text text-anchor="start" x="19.5" y="-81.5" font-family="Helvetica,sans-Serif" font-size="10.00">&#45; isRunning_</text>
<text text-anchor="start" x="19.5" y="-70.5" font-family="Helvetica,sans-Serif" font-size="10.00">&#45; executor_</text>
<polyline fill="none" stroke="black" points="11.5,-63.5 158.5,-63.5 "/>
<text text-anchor="start" x="19.5" y="-51.5" font-family="Helvetica,sans-Serif" font-size="10.00">+ ~Context()</text>
<text text-anchor="start" x="19.5" y="-40.5" font-family="Helvetica,sans-Serif" font-size="10.00">+ Context()</text>
<text text-anchor="start" x="19.5" y="-29.5" font-family="Helvetica,sans-Serif" font-size="10.00">+ run()</text>
<text text-anchor="start" x="19.5" y="-18.5" font-family="Helvetica,sans-Serif" font-size="10.00">+ stop()</text>
<text text-anchor="start" x="19.5" y="-7.5" font-family="Helvetica,sans-Serif" font-size="10.00">+ executor()</text>
</a>
</g>
</g>
<!-- Node2 -->
<g id="node2" class="node"><title>Node2</title>
<g id="a_node2"><a xlink:href="classndt_1_1_context_base.html" target="_top" xlink:title=" ">
<polygon fill="white" stroke="black" points="0,-149.5 0,-283.5 170,-283.5 170,-149.5 0,-149.5"/>
<text text-anchor="middle" x="85" y="-271.5" font-family="Helvetica,sans-Serif" font-size="10.00">ndt::ContextBase&lt; SysWrapperT &gt;</text>
<polyline fill="none" stroke="black" points="0,-264.5 170,-264.5 "/>
<text text-anchor="start" x="8" y="-252.5" font-family="Helvetica,sans-Serif" font-size="10.00">&#45; instanceCount_</text>
<polyline fill="none" stroke="black" points="0,-245.5 170,-245.5 "/>
<text text-anchor="start" x="8" y="-233.5" font-family="Helvetica,sans-Serif" font-size="10.00">+ ~ContextBase()</text>
<text text-anchor="start" x="8" y="-222.5" font-family="Helvetica,sans-Serif" font-size="10.00">+ ContextBase()</text>
<text text-anchor="start" x="8" y="-211.5" font-family="Helvetica,sans-Serif" font-size="10.00">+ ~ContextBase()</text>
<text text-anchor="start" x="8" y="-200.5" font-family="Helvetica,sans-Serif" font-size="10.00">+ ContextBase()</text>
<text text-anchor="start" x="8" y="-189.5" font-family="Helvetica,sans-Serif" font-size="10.00">+ instanceCount()</text>
<text text-anchor="start" x="8" y="-178.5" font-family="Helvetica,sans-Serif" font-size="10.00">+ instanceCount()</text>
<text text-anchor="start" x="8" y="-167.5" font-family="Helvetica,sans-Serif" font-size="10.00">&#45; startUp()</text>
<text text-anchor="start" x="8" y="-156.5" font-family="Helvetica,sans-Serif" font-size="10.00">&#45; cleanUp()</text>
</a>
</g>
</g>
<!-- Node2&#45;&gt;Node1 -->
<g id="edge1" class="edge"><title>Node2&#45;&gt;Node1</title>
<path fill="none" stroke="midnightblue" d="M85,-139.35C85,-130.401 85,-121.403 85,-112.816"/>
<polygon fill="none" stroke="midnightblue" points="81.5001,-139.409 85,-149.409 88.5001,-139.409 81.5001,-139.409"/>
</g>
<!-- Node3 -->
<g id="node3" class="node"><title>Node3</title>
<g id="a_node3"><a xlink:href="structndt_1_1_no_copy_able.html" target="_top" xlink:title=" ">
<polygon fill="white" stroke="black" points="39,-320.5 39,-410.5 131,-410.5 131,-320.5 39,-320.5"/>
<text text-anchor="middle" x="85" y="-398.5" font-family="Helvetica,sans-Serif" font-size="10.00">ndt::NoCopyAble</text>
<polyline fill="none" stroke="black" points="39,-391.5 131,-391.5 "/>
<text text-anchor="middle" x="85" y="-379.5" font-family="Helvetica,sans-Serif" font-size="10.00"> </text>
<polyline fill="none" stroke="black" points="39,-372.5 131,-372.5 "/>
<text text-anchor="start" x="47" y="-360.5" font-family="Helvetica,sans-Serif" font-size="10.00">+ NoCopyAble()</text>
<text text-anchor="start" x="47" y="-349.5" font-family="Helvetica,sans-Serif" font-size="10.00">+ ~NoCopyAble()</text>
<text text-anchor="start" x="47" y="-338.5" font-family="Helvetica,sans-Serif" font-size="10.00">+ NoCopyAble()</text>
<text text-anchor="start" x="47" y="-327.5" font-family="Helvetica,sans-Serif" font-size="10.00">+ operator=()</text>
</a>
</g>
</g>
<!-- Node3&#45;&gt;Node2 -->
<g id="edge2" class="edge"><title>Node3&#45;&gt;Node2</title>
<path fill="none" stroke="#8b1a1a" d="M78.4629,-310.375C78.2672,-301.658 78.2064,-292.55 78.2806,-283.591"/>
<polygon fill="none" stroke="#8b1a1a" points="74.965,-310.501 78.7547,-320.395 81.962,-310.297 74.965,-310.501"/>
</g>
<!-- Node3&#45;&gt;Node2 -->
<g id="edge3" class="edge"><title>Node3&#45;&gt;Node2</title>
<path fill="none" stroke="#8b1a1a" d="M91.5371,-310.375C91.7328,-301.658 91.7936,-292.55 91.7194,-283.591"/>
<polygon fill="none" stroke="#8b1a1a" points="88.038,-310.297 91.2453,-320.395 95.035,-310.501 88.038,-310.297"/>
</g>
</g>
</svg>
