<?xml version="1.0" encoding="UTF-8" standalone="no"?>
<!DOCTYPE svg PUBLIC "-//W3C//DTD SVG 1.1//EN"
 "http://www.w3.org/Graphics/SVG/1.1/DTD/svg11.dtd">
<!-- Generated by graphviz version 2.38.0 (20140413.2041)
 -->
<!-- Title: ndt::BinReader Pages: 1 -->
<svg width="218pt" height="650pt"
 viewBox="0.00 0.00 218.00 650.00" xmlns="http://www.w3.org/2000/svg" xmlns:xlink="http://www.w3.org/1999/xlink">
<g id="graph0" class="graph" transform="scale(1 1) rotate(0) translate(4 646)">
<title>ndt::BinReader</title>
<polygon fill="white" stroke="none" points="-4,4 -4,-646 214,-646 214,4 -4,4"/>
<!-- Node1 -->
<g id="node1" class="node"><title>Node1</title>
<g id="a_node1"><a xlink:title=" ">
<polygon fill="#bfbfbf" stroke="black" points="99,-0.5 99,-112.5 194,-112.5 194,-0.5 99,-0.5"/>
<text text-anchor="middle" x="146.5" y="-100.5" font-family="Helvetica,sans-Serif" font-size="10.00">ndt::BinReader</text>
<polyline fill="none" stroke="black" points="99,-93.5 194,-93.5 "/>
<text text-anchor="middle" x="146.5" y="-81.5" font-family="Helvetica,sans-Serif" font-size="10.00"> </text>
<polyline fill="none" stroke="black" points="99,-74.5 194,-74.5 "/>
<text text-anchor="start" x="107" y="-62.5" font-family="Helvetica,sans-Serif" font-size="10.00">+ BinReader()</text>
<text text-anchor="start" x="107" y="-51.5" font-family="Helvetica,sans-Serif" font-size="10.00">+ get()</text>
<text text-anchor="start" x="107" y="-40.5" font-family="Helvetica,sans-Serif" font-size="10.00">+ get()</text>
<text text-anchor="start" x="107" y="-29.5" font-family="Helvetica,sans-Serif" font-size="10.00">+ get()</text>
<text text-anchor="start" x="107" y="-18.5" font-family="Helvetica,sans-Serif" font-size="10.00">&#45; getEnum()</text>
<text text-anchor="start" x="107" y="-7.5" font-family="Helvetica,sans-Serif" font-size="10.00">&#45; bitCapacityImpl()</text>
</a>
</g>
</g>
<!-- Node2 -->
<g id="node2" class="node"><title>Node2</title>
<g id="a_node2"><a xlink:href="classndt_1_1details_1_1_bin_base.html" target="_top" xlink:title=" ">
<polygon fill="white" stroke="black" points="12,-160.5 12,-382.5 119,-382.5 119,-160.5 12,-160.5"/>
<text text-anchor="start" x="20" y="-370.5" font-family="Helvetica,sans-Serif" font-size="10.00">ndt::details::BinBase</text>
<text text-anchor="middle" x="65.5" y="-359.5" font-family="Helvetica,sans-Serif" font-size="10.00">&lt; BinReader &gt;</text>
<polyline fill="none" stroke="black" points="12,-352.5 119,-352.5 "/>
<text text-anchor="start" x="20" y="-340.5" font-family="Helvetica,sans-Serif" font-size="10.00"># byteIndex_</text>
<text text-anchor="start" x="20" y="-329.5" font-family="Helvetica,sans-Serif" font-size="10.00"># bitIndex_</text>
<text text-anchor="start" x="20" y="-318.5" font-family="Helvetica,sans-Serif" font-size="10.00"># kBitsInByte</text>
<polyline fill="none" stroke="black" points="12,-311.5 119,-311.5 "/>
<text text-anchor="start" x="20" y="-299.5" font-family="Helvetica,sans-Serif" font-size="10.00">+ byteIndex()</text>
<text text-anchor="start" x="20" y="-288.5" font-family="Helvetica,sans-Serif" font-size="10.00">+ bitIndex()</text>
<text text-anchor="start" x="20" y="-277.5" font-family="Helvetica,sans-Serif" font-size="10.00">+ size()</text>
<text text-anchor="start" x="20" y="-266.5" font-family="Helvetica,sans-Serif" font-size="10.00">+ bitSize()</text>
<text text-anchor="start" x="20" y="-255.5" font-family="Helvetica,sans-Serif" font-size="10.00">+ bitCapacity()</text>
<text text-anchor="start" x="20" y="-244.5" font-family="Helvetica,sans-Serif" font-size="10.00"># ~BinBase()</text>
<text text-anchor="start" x="20" y="-233.5" font-family="Helvetica,sans-Serif" font-size="10.00"># BinBase()</text>
<text text-anchor="start" x="20" y="-222.5" font-family="Helvetica,sans-Serif" font-size="10.00"># BinBase()</text>
<text text-anchor="start" x="20" y="-211.5" font-family="Helvetica,sans-Serif" font-size="10.00"># BinBase()</text>
<text text-anchor="start" x="20" y="-200.5" font-family="Helvetica,sans-Serif" font-size="10.00"># operator=()</text>
<text text-anchor="start" x="20" y="-189.5" font-family="Helvetica,sans-Serif" font-size="10.00"># operator=()</text>
<text text-anchor="start" x="20" y="-178.5" font-family="Helvetica,sans-Serif" font-size="10.00"># updateIndices()</text>
<text text-anchor="start" x="20" y="-167.5" font-family="Helvetica,sans-Serif" font-size="10.00"># filledMask()</text>
</a>
</g>
</g>
<!-- Node2&#45;&gt;Node1 -->
<g id="edge1" class="edge"><title>Node2&#45;&gt;Node1</title>
<path fill="none" stroke="midnightblue" d="M111.101,-150.587C116.131,-137.36 121.054,-124.413 125.554,-112.58"/>
<polygon fill="none" stroke="midnightblue" points="107.707,-149.665 107.424,-160.257 114.25,-152.154 107.707,-149.665"/>
</g>
<!-- Node3 -->
<g id="node3" class="node"><title>Node3</title>
<g id="a_node3"><a xlink:href="classndt_1_1details_1_1_bin_base.html" target="_top" xlink:title=" ">
<polygon fill="white" stroke="black" points="0,-430.5 0,-641.5 131,-641.5 131,-430.5 0,-430.5"/>
<text text-anchor="middle" x="65.5" y="-629.5" font-family="Helvetica,sans-Serif" font-size="10.00">ndt::details::BinBase&lt; T &gt;</text>
<polyline fill="none" stroke="black" points="0,-622.5 131,-622.5 "/>
<text text-anchor="start" x="8" y="-610.5" font-family="Helvetica,sans-Serif" font-size="10.00"># byteIndex_</text>
<text text-anchor="start" x="8" y="-599.5" font-family="Helvetica,sans-Serif" font-size="10.00"># bitIndex_</text>
<text text-anchor="start" x="8" y="-588.5" font-family="Helvetica,sans-Serif" font-size="10.00"># kBitsInByte</text>
<polyline fill="none" stroke="black" points="0,-581.5 131,-581.5 "/>
<text text-anchor="start" x="8" y="-569.5" font-family="Helvetica,sans-Serif" font-size="10.00">+ byteIndex()</text>
<text text-anchor="start" x="8" y="-558.5" font-family="Helvetica,sans-Serif" font-size="10.00">+ bitIndex()</text>
<text text-anchor="start" x="8" y="-547.5" font-family="Helvetica,sans-Serif" font-size="10.00">+ size()</text>
<text text-anchor="start" x="8" y="-536.5" font-family="Helvetica,sans-Serif" font-size="10.00">+ bitSize()</text>
<text text-anchor="start" x="8" y="-525.5" font-family="Helvetica,sans-Serif" font-size="10.00">+ bitCapacity()</text>
<text text-anchor="start" x="8" y="-514.5" font-family="Helvetica,sans-Serif" font-size="10.00"># ~BinBase()</text>
<text text-anchor="start" x="8" y="-503.5" font-family="Helvetica,sans-Serif" font-size="10.00"># BinBase()</text>
<text text-anchor="start" x="8" y="-492.5" font-family="Helvetica,sans-Serif" font-size="10.00"># BinBase()</text>
<text text-anchor="start" x="8" y="-481.5" font-family="Helvetica,sans-Serif" font-size="10.00"># operator=()</text>
<text text-anchor="start" x="8" y="-470.5" font-family="Helvetica,sans-Serif" font-size="10.00"># BinBase()</text>
<text text-anchor="start" x="8" y="-459.5" font-family="Helvetica,sans-Serif" font-size="10.00"># operator=()</text>
<text text-anchor="start" x="8" y="-448.5" font-family="Helvetica,sans-Serif" font-size="10.00"># updateIndices()</text>
<text text-anchor="start" x="8" y="-437.5" font-family="Helvetica,sans-Serif" font-size="10.00"># filledMask()</text>
</a>
</g>
</g>
<!-- Node3&#45;&gt;Node2 -->
<g id="edge2" class="edge"><title>Node3&#45;&gt;Node2</title>
<path fill="none" stroke="orange" d="M65.5,-420.484C65.5,-407.93 65.5,-395.168 65.5,-382.668"/>
<polygon fill="orange" stroke="orange" points="62.0001,-420.499 65.5,-430.499 69.0001,-420.499 62.0001,-420.499"/>
<text text-anchor="middle" x="99" y="-404" font-family="Helvetica,sans-Serif" font-size="10.00"> &lt; BinReader &gt;</text>
</g>
<!-- Node4 -->
<g id="node4" class="node"><title>Node4</title>
<g id="a_node4"><a xlink:href="classndt_1_1_c_buffer.html" target="_top" xlink:title=" ">
<polygon fill="white" stroke="black" points="137,-204.5 137,-338.5 210,-338.5 210,-204.5 137,-204.5"/>
<text text-anchor="middle" x="173.5" y="-326.5" font-family="Helvetica,sans-Serif" font-size="10.00">ndt::CBuffer</text>
<polyline fill="none" stroke="black" points="137,-319.5 210,-319.5 "/>
<text text-anchor="start" x="145" y="-307.5" font-family="Helvetica,sans-Serif" font-size="10.00">&#45; data_</text>
<text text-anchor="start" x="145" y="-296.5" font-family="Helvetica,sans-Serif" font-size="10.00">&#45; size_</text>
<polyline fill="none" stroke="black" points="137,-289.5 210,-289.5 "/>
<text text-anchor="start" x="145" y="-277.5" font-family="Helvetica,sans-Serif" font-size="10.00">+ CBuffer()</text>
<text text-anchor="start" x="145" y="-266.5" font-family="Helvetica,sans-Serif" font-size="10.00">+ CBuffer()</text>
<text text-anchor="start" x="145" y="-255.5" font-family="Helvetica,sans-Serif" font-size="10.00">+ CBuffer()</text>
<text text-anchor="start" x="145" y="-244.5" font-family="Helvetica,sans-Serif" font-size="10.00">+ CBuffer()</text>
<text text-anchor="start" x="145" y="-233.5" font-family="Helvetica,sans-Serif" font-size="10.00">+ operator[]()</text>
<text text-anchor="start" x="145" y="-222.5" font-family="Helvetica,sans-Serif" font-size="10.00">+ data()</text>
<text text-anchor="start" x="145" y="-211.5" font-family="Helvetica,sans-Serif" font-size="10.00">+ size()</text>
</a>
</g>
</g>
<!-- Node4&#45;&gt;Node1 -->
<g id="edge3" class="edge"><title>Node4&#45;&gt;Node1</title>
<path fill="none" stroke="#404040" d="M165.105,-204.273C161.899,-178.98 158.242,-150.134 155.024,-124.747"/>
<polygon fill="none" stroke="#404040" points="154.993,-124.498 150.27,-119.048 153.484,-112.593 158.206,-118.042 154.993,-124.498"/>
<text text-anchor="middle" x="174" y="-134" font-family="Helvetica,sans-Serif" font-size="10.00"> &#45;buffer_</text>
</g>
</g>
</svg>
