<?xml version="1.0" encoding="UTF-8" standalone="no"?>
<!DOCTYPE svg PUBLIC "-//W3C//DTD SVG 1.1//EN"
 "http://www.w3.org/Graphics/SVG/1.1/DTD/svg11.dtd">
<!-- Generated by graphviz version 2.38.0 (20140413.2041)
 -->
<!-- Title: ndt::details::BinBase::bitsLeft Pages: 1 -->
<svg width="258pt" height="88pt"
 viewBox="0.00 0.00 258.00 88.00" xmlns="http://www.w3.org/2000/svg" xmlns:xlink="http://www.w3.org/1999/xlink">
<g id="graph0" class="graph" transform="scale(1 1) rotate(0) translate(4 84)">
<title>ndt::details::BinBase::bitsLeft</title>
<polygon fill="white" stroke="none" points="-4,4 -4,-84 254,-84 254,4 -4,4"/>
<!-- Node1 -->
<g id="node1" class="node"><title>Node1</title>
<g id="a_node1"><a xlink:title=" ">
<polygon fill="#bfbfbf" stroke="black" points="0,-24.5 0,-54.5 107,-54.5 107,-24.5 0,-24.5"/>
<text text-anchor="start" x="8" y="-42.5" font-family="Helvetica,sans-Serif" font-size="10.00">ndt::details::BinBase</text>
<text text-anchor="middle" x="53.5" y="-31.5" font-family="Helvetica,sans-Serif" font-size="10.00">::bitsLeft</text>
</a>
</g>
</g>
<!-- Node2 -->
<g id="node2" class="node"><title>Node2</title>
<g id="a_node2"><a xlink:href="classndt_1_1details_1_1_bin_base.html#a1e0698c6540db0474281feaee67a2345" target="_top" xlink:title=" ">
<polygon fill="white" stroke="black" points="143,-49.5 143,-79.5 250,-79.5 250,-49.5 143,-49.5"/>
<text text-anchor="start" x="151" y="-67.5" font-family="Helvetica,sans-Serif" font-size="10.00">ndt::details::BinBase</text>
<text text-anchor="middle" x="196.5" y="-56.5" font-family="Helvetica,sans-Serif" font-size="10.00">::bitCapacity</text>
</a>
</g>
</g>
<!-- Node1&#45;&gt;Node2 -->
<g id="edge1" class="edge"><title>Node1&#45;&gt;Node2</title>
<path fill="none" stroke="midnightblue" d="M107.003,-48.8091C115.445,-50.3058 124.255,-51.8679 132.905,-53.4015"/>
<polygon fill="midnightblue" stroke="midnightblue" points="132.495,-56.8835 142.953,-55.1831 133.718,-49.991 132.495,-56.8835"/>
</g>
<!-- Node3 -->
<g id="node3" class="node"><title>Node3</title>
<g id="a_node3"><a xlink:href="classndt_1_1details_1_1_bin_base.html#abded7eb670b36266e1b34a83fc7e4289" target="_top" xlink:title=" ">
<polygon fill="white" stroke="black" points="143,-0.5 143,-30.5 250,-30.5 250,-0.5 143,-0.5"/>
<text text-anchor="start" x="151" y="-18.5" font-family="Helvetica,sans-Serif" font-size="10.00">ndt::details::BinBase</text>
<text text-anchor="middle" x="196.5" y="-7.5" font-family="Helvetica,sans-Serif" font-size="10.00">::bitSize</text>
</a>
</g>
</g>
<!-- Node1&#45;&gt;Node3 -->
<g id="edge2" class="edge"><title>Node1&#45;&gt;Node3</title>
<path fill="none" stroke="midnightblue" d="M107.003,-30.5633C115.445,-29.1264 124.255,-27.6268 132.905,-26.1545"/>
<polygon fill="midnightblue" stroke="midnightblue" points="133.682,-29.5726 142.953,-24.4442 132.507,-22.6719 133.682,-29.5726"/>
</g>
</g>
</svg>
