<?xml version="1.0" encoding="UTF-8" standalone="no"?>
<!DOCTYPE svg PUBLIC "-//W3C//DTD SVG 1.1//EN"
 "http://www.w3.org/Graphics/SVG/1.1/DTD/svg11.dtd">
<!-- Generated by graphviz version 2.38.0 (20140413.2041)
 -->
<!-- Title: ndt::SysErrorCode Pages: 1 -->
<svg width="182pt" height="160pt"
 viewBox="0.00 0.00 181.50 160.00" xmlns="http://www.w3.org/2000/svg" xmlns:xlink="http://www.w3.org/1999/xlink">
<g id="graph0" class="graph" transform="scale(1 1) rotate(0) translate(4 156)">
<title>ndt::SysErrorCode</title>
<polygon fill="white" stroke="none" points="-4,4 -4,-156 177.5,-156 177.5,4 -4,4"/>
<!-- Node1 -->
<g id="node1" class="node"><title>Node1</title>
<g id="a_node1"><a xlink:title=" ">
<polygon fill="#bfbfbf" stroke="black" points="34.5,-94.5 34.5,-151.5 131.5,-151.5 131.5,-94.5 34.5,-94.5"/>
<text text-anchor="middle" x="83" y="-139.5" font-family="Helvetica,sans-Serif" font-size="10.00">ndt::SysErrorCode</text>
<polyline fill="none" stroke="black" points="34.5,-132.5 131.5,-132.5 "/>
<text text-anchor="middle" x="83" y="-120.5" font-family="Helvetica,sans-Serif" font-size="10.00"> </text>
<polyline fill="none" stroke="black" points="34.5,-113.5 131.5,-113.5 "/>
<text text-anchor="start" x="42.5" y="-101.5" font-family="Helvetica,sans-Serif" font-size="10.00">+ lastErrorCode()</text>
</a>
</g>
</g>
<!-- Node2 -->
<g id="node2" class="node"><title>Node2</title>
<g id="a_node2"><a xlink:href="classndt_1_1_file_ops.html" target="_top" xlink:title=" ">
<polygon fill="white" stroke="black" points="0,-0.5 0,-57.5 70,-57.5 70,-0.5 0,-0.5"/>
<text text-anchor="middle" x="35" y="-45.5" font-family="Helvetica,sans-Serif" font-size="10.00">ndt::FileOps</text>
<polyline fill="none" stroke="black" points="0,-38.5 70,-38.5 "/>
<text text-anchor="middle" x="35" y="-26.5" font-family="Helvetica,sans-Serif" font-size="10.00"> </text>
<polyline fill="none" stroke="black" points="0,-19.5 70,-19.5 "/>
<text text-anchor="middle" x="35" y="-7.5" font-family="Helvetica,sans-Serif" font-size="10.00"> </text>
</a>
</g>
</g>
<!-- Node1&#45;&gt;Node2 -->
<g id="edge1" class="edge"><title>Node1&#45;&gt;Node2</title>
<path fill="none" stroke="midnightblue" d="M63.8885,-85.3697C59.0558,-76.107 53.947,-66.3151 49.3914,-57.5836"/>
<polygon fill="none" stroke="midnightblue" points="60.8697,-87.1501 68.5984,-94.397 67.0758,-83.9121 60.8697,-87.1501"/>
</g>
<!-- Node3 -->
<g id="node3" class="node"><title>Node3</title>
<g id="a_node3"><a xlink:href="classndt_1_1_socket_ops.html" target="_top" xlink:title=" ">
<polygon fill="white" stroke="black" points="88.5,-0.5 88.5,-57.5 173.5,-57.5 173.5,-0.5 88.5,-0.5"/>
<text text-anchor="middle" x="131" y="-45.5" font-family="Helvetica,sans-Serif" font-size="10.00">ndt::SocketOps</text>
<polyline fill="none" stroke="black" points="88.5,-38.5 173.5,-38.5 "/>
<text text-anchor="middle" x="131" y="-26.5" font-family="Helvetica,sans-Serif" font-size="10.00"> </text>
<polyline fill="none" stroke="black" points="88.5,-19.5 173.5,-19.5 "/>
<text text-anchor="middle" x="131" y="-7.5" font-family="Helvetica,sans-Serif" font-size="10.00"> </text>
</a>
</g>
</g>
<!-- Node1&#45;&gt;Node3 -->
<g id="edge2" class="edge"><title>Node1&#45;&gt;Node3</title>
<path fill="none" stroke="midnightblue" d="M102.111,-85.3697C106.944,-76.107 112.053,-66.3151 116.609,-57.5836"/>
<polygon fill="none" stroke="midnightblue" points="98.9242,-83.9121 97.4016,-94.397 105.13,-87.1501 98.9242,-83.9121"/>
</g>
</g>
</svg>
