<?xml version="1.0" encoding="UTF-8" standalone="no"?>
<!DOCTYPE svg PUBLIC "-//W3C//DTD SVG 1.1//EN"
 "http://www.w3.org/Graphics/SVG/1.1/DTD/svg11.dtd">
<!-- Generated by graphviz version 2.38.0 (20140413.2041)
 -->
<!-- Title: ndt::Packet::minBitSize Pages: 1 -->
<!--zoomable 78 -->
<svg id="main" version="1.1" xmlns="http://www.w3.org/2000/svg" xmlns:xlink="http://www.w3.org/1999/xlink" xml:space="preserve" onload="init(evt)">
<style type="text/css"><![CDATA[
.edge:hover path { stroke: red; }
.edge:hover polygon { stroke: red; fill: red; }
]]></style>
<script type="text/javascript"><![CDATA[
var edges = document.getElementsByTagName('g');
if (edges && edges.length) {
  for (var i=0;i<edges.length;i++) {
    if (edges[i].id.substr(0,4)=='edge') {
      edges[i].setAttribute('class','edge');
    }
  }
}
]]></script>
        <defs>
                <circle id="rim" cx="0" cy="0" r="7"/>
                <circle id="rim2" cx="0" cy="0" r="3.5"/>
                <g id="zoomPlus">
                        <use xlink:href="#rim" fill="#404040">
                                <set attributeName="fill" to="#808080" begin="zoomplus.mouseover" end="zoomplus.mouseout"/>
                        </use>
                        <path d="M-4,0h8M0,-4v8" fill="none" stroke="white" stroke-width="1.5" pointer-events="none"/>
                </g>
                <g id="zoomMin">
                        <use xlink:href="#rim" fill="#404040">
                                <set attributeName="fill" to="#808080" begin="zoomminus.mouseover" end="zoomminus.mouseout"/>
                        </use>
                        <path d="M-4,0h8" fill="none" stroke="white" stroke-width="1.5" pointer-events="none"/>
                </g>
                <g id="dirArrow">
                        <path fill="none" stroke="white" stroke-width="1.5" d="M0,-3.0v7 M-2.5,-0.5L0,-3.0L2.5,-0.5"/>
                </g>
               <g id="resetDef">
                       <use xlink:href="#rim2" fill="#404040">
                               <set attributeName="fill" to="#808080" begin="reset.mouseover" end="reset.mouseout"/>
                       </use>
               </g>
        </defs>

<script type="text/javascript">
var viewWidth = 639;
var viewHeight = 78;
var sectionId = 'dynsection-8';
</script>
<script xlink:href="svgpan.js"/>
<svg id="graph" class="graph">
<g id="viewport">
<title>ndt::Packet::minBitSize</title>
<polygon fill="white" stroke="none" points="-4,4 -4,-73.5 635,-73.5 635,4 -4,4"/>
<!-- Node1 -->
<g id="node1" class="node"><title>Node1</title>
<g id="a_node1"><a xlink:title=" ">
<polygon fill="#bfbfbf" stroke="black" points="511,-25.5 511,-44.5 631,-44.5 631,-25.5 511,-25.5"/>
<text text-anchor="middle" x="571" y="-32.5" font-family="Helvetica,sans-Serif" font-size="10.00">ndt::Packet::minBitSize</text>
</a>
</g>
</g>
<!-- Node2 -->
<g id="node2" class="node"><title>Node2</title>
<g id="a_node2"><a xlink:href="classndt_1_1_packet.html#abde9cbf58bcfb75579c8f6a77c796a48" target="_top" xlink:title=" ">
<polygon fill="white" stroke="black" points="356,-44.5 356,-63.5 475,-63.5 475,-44.5 356,-44.5"/>
<text text-anchor="middle" x="415.5" y="-51.5" font-family="Helvetica,sans-Serif" font-size="10.00">ndt::Packet::deserialize</text>
</a>
</g>
</g>
<!-- Node1&#45;&gt;Node2 -->
<g id="edge1" class="edge"><title>Node1&#45;&gt;Node2</title>
<path fill="none" stroke="midnightblue" d="M500.721,-43.5752C492.191,-44.6311 483.536,-45.7024 475.184,-46.7362"/>
<polygon fill="midnightblue" stroke="midnightblue" points="501.159,-47.0479 510.653,-42.3459 500.299,-40.1009 501.159,-47.0479"/>
</g>
<!-- Node5 -->
<g id="node5" class="node"><title>Node5</title>
<g id="a_node5"><a xlink:href="classndt_1_1_packet.html#a1289365bb165444481f78642aa411033" target="_top" xlink:title=" ">
<polygon fill="white" stroke="black" points="361,-3.5 361,-22.5 470,-22.5 470,-3.5 361,-3.5"/>
<text text-anchor="middle" x="415.5" y="-10.5" font-family="Helvetica,sans-Serif" font-size="10.00">ndt::Packet::serialize</text>
</a>
</g>
</g>
<!-- Node1&#45;&gt;Node5 -->
<g id="edge6" class="edge"><title>Node1&#45;&gt;Node5</title>
<path fill="none" stroke="midnightblue" d="M500.544,-25.0454C490.35,-23.5844 479.984,-22.0986 470.172,-20.6924"/>
<polygon fill="midnightblue" stroke="midnightblue" points="500.257,-28.54 510.653,-26.4942 501.251,-21.6108 500.257,-28.54"/>
</g>
<!-- Node3 -->
<g id="node3" class="node"><title>Node3</title>
<g id="a_node3"><a xlink:href="classndt_1_1_packet.html#a003df760bc78df38c1782cc264c86ad6" target="_top" xlink:title=" ">
<polygon fill="white" stroke="black" points="183,-44.5 183,-63.5 320,-63.5 320,-44.5 183,-44.5"/>
<text text-anchor="middle" x="251.5" y="-51.5" font-family="Helvetica,sans-Serif" font-size="10.00">ndt::Packet::deserializeImpl</text>
</a>
</g>
</g>
<!-- Node2&#45;&gt;Node3 -->
<g id="edge2" class="edge"><title>Node2&#45;&gt;Node3</title>
<path fill="none" stroke="midnightblue" d="M345.457,-47.3158C337.086,-47.2231 328.541,-47.2284 320.19,-47.3317"/>
<polygon fill="midnightblue" stroke="midnightblue" points="345.501,-50.8169 355.556,-47.4775 345.613,-43.8178 345.501,-50.8169"/>
</g>
<!-- Node3&#45;&gt;Node2 -->
<g id="edge3" class="edge"><title>Node3&#45;&gt;Node2</title>
<path fill="none" stroke="midnightblue" d="M330.448,-60.7457C338.895,-60.7693 347.388,-60.6949 355.556,-60.5225"/>
<polygon fill="midnightblue" stroke="midnightblue" points="330.216,-57.244 320.19,-60.6683 330.163,-64.2438 330.216,-57.244"/>
</g>
<!-- Node4 -->
<g id="node4" class="node"><title>Node4</title>
<g id="a_node4"><a xlink:href="classndt_1_1_packet.html#a1d6ccd155f41c225fe0da277386f9b56" target="_top" xlink:title=" ">
<polygon fill="white" stroke="black" points="14,-39 14,-69 133,-69 133,-39 14,-39"/>
<text text-anchor="start" x="22" y="-57" font-family="Helvetica,sans-Serif" font-size="10.00">ndt::Packet::deserialize</text>
<text text-anchor="middle" x="73.5" y="-46" font-family="Helvetica,sans-Serif" font-size="10.00">RestImpl</text>
</a>
</g>
</g>
<!-- Node3&#45;&gt;Node4 -->
<g id="edge4" class="edge"><title>Node3&#45;&gt;Node4</title>
<path fill="none" stroke="midnightblue" d="M172.87,-47.2918C159.572,-47.1841 145.953,-47.2845 133.251,-47.5929"/>
<polygon fill="midnightblue" stroke="midnightblue" points="172.915,-50.7925 182.957,-47.4148 173.001,-43.7931 172.915,-50.7925"/>
</g>
<!-- Node4&#45;&gt;Node3 -->
<g id="edge5" class="edge"><title>Node4&#45;&gt;Node3</title>
<path fill="none" stroke="midnightblue" d="M143.507,-60.6083C156.48,-60.8046 170.03,-60.7969 182.957,-60.5852"/>
<polygon fill="midnightblue" stroke="midnightblue" points="143.317,-57.104 133.251,-60.4071 143.18,-64.1026 143.317,-57.104"/>
</g>
<!-- Node6 -->
<g id="node6" class="node"><title>Node6</title>
<g id="a_node6"><a xlink:href="classndt_1_1_packet.html#a93217fdf406eb00bd60e3a50887a52d2" target="_top" xlink:title=" ">
<polygon fill="white" stroke="black" points="188,-0.5 188,-19.5 315,-19.5 315,-0.5 188,-0.5"/>
<text text-anchor="middle" x="251.5" y="-7.5" font-family="Helvetica,sans-Serif" font-size="10.00">ndt::Packet::serializeImpl</text>
</a>
</g>
</g>
<!-- Node5&#45;&gt;Node6 -->
<g id="edge7" class="edge"><title>Node5&#45;&gt;Node6</title>
<path fill="none" stroke="midnightblue" d="M350.495,-11.8147C338.873,-11.5995 326.763,-11.3752 315.181,-11.1608"/>
<polygon fill="midnightblue" stroke="midnightblue" points="350.493,-15.3152 360.556,-12.001 350.623,-8.31639 350.493,-15.3152"/>
</g>
<!-- Node7 -->
<g id="node7" class="node"><title>Node7</title>
<g id="a_node7"><a xlink:href="classndt_1_1_packet.html#ac7b66c9ce0990526a3c99add3d8cb10a" target="_top" xlink:title=" ">
<polygon fill="white" stroke="black" points="0,-0.5 0,-19.5 147,-19.5 147,-0.5 0,-0.5"/>
<text text-anchor="middle" x="73.5" y="-7.5" font-family="Helvetica,sans-Serif" font-size="10.00">ndt::Packet::serializeRestImpl</text>
</a>
</g>
</g>
<!-- Node6&#45;&gt;Node7 -->
<g id="edge8" class="edge"><title>Node6&#45;&gt;Node7</title>
<path fill="none" stroke="midnightblue" d="M177.887,-3.34256C167.705,-3.21892 157.239,-3.21915 147.058,-3.34323"/>
<polygon fill="midnightblue" stroke="midnightblue" points="177.897,-6.84311 187.953,-3.50749 178.012,0.155954 177.897,-6.84311"/>
</g>
<!-- Node7&#45;&gt;Node6 -->
<g id="edge9" class="edge"><title>Node7&#45;&gt;Node6</title>
<path fill="none" stroke="midnightblue" d="M157.313,-16.7396C167.621,-16.7811 178.024,-16.6987 187.953,-16.4925"/>
<polygon fill="midnightblue" stroke="midnightblue" points="157.086,-13.2377 147.058,-16.6568 157.03,-20.2375 157.086,-13.2377"/>
</g>
</g>
</svg>
        <g id="navigator" transform="translate(0 0)" fill="#404254">
                <rect fill="#f2f5e9" fill-opacity="0.5" stroke="#606060" stroke-width=".5" x="0" y="0" width="60" height="60"/>
                <use id="zoomplus" xlink:href="#zoomPlus" x="17" y="9" onmousedown="handleZoom(evt,'in')"/>
                <use id="zoomminus" xlink:href="#zoomMin" x="42" y="9" onmousedown="handleZoom(evt,'out')"/>
                <use id="reset" xlink:href="#resetDef" x="30" y="36" onmousedown="handleReset()"/>
                <g id="arrowUp" xlink:href="#dirArrow" transform="translate(30 24)" onmousedown="handlePan(0,-1)">
                  <use xlink:href="#rim" fill="#404040">
                        <set attributeName="fill" to="#808080" begin="arrowUp.mouseover" end="arrowUp.mouseout"/>
                  </use>
                  <path fill="none" stroke="white" stroke-width="1.5" d="M0,-3.0v7 M-2.5,-0.5L0,-3.0L2.5,-0.5"/>
                </g>
                <g id="arrowRight" xlink:href="#dirArrow" transform="rotate(90) translate(36 -43)" onmousedown="handlePan(1,0)">
                  <use xlink:href="#rim" fill="#404040">
                        <set attributeName="fill" to="#808080" begin="arrowRight.mouseover" end="arrowRight.mouseout"/>
                  </use>
                  <path fill="none" stroke="white" stroke-width="1.5" d="M0,-3.0v7 M-2.5,-0.5L0,-3.0L2.5,-0.5"/>
                </g>
                <g id="arrowDown" xlink:href="#dirArrow" transform="rotate(180) translate(-30 -48)" onmousedown="handlePan(0,1)">
                  <use xlink:href="#rim" fill="#404040">
                        <set attributeName="fill" to="#808080" begin="arrowDown.mouseover" end="arrowDown.mouseout"/>
                  </use>
                  <path fill="none" stroke="white" stroke-width="1.5" d="M0,-3.0v7 M-2.5,-0.5L0,-3.0L2.5,-0.5"/>
                </g>
                <g id="arrowLeft" xlink:href="#dirArrow" transform="rotate(270) translate(-36 17)" onmousedown="handlePan(-1,0)">
                  <use xlink:href="#rim" fill="#404040">
                        <set attributeName="fill" to="#808080" begin="arrowLeft.mouseover" end="arrowLeft.mouseout"/>
                  </use>
                  <path fill="none" stroke="white" stroke-width="1.5" d="M0,-3.0v7 M-2.5,-0.5L0,-3.0L2.5,-0.5"/>
                </g>
        </g>
        <svg viewBox="0 0 15 15" width="100%" height="30px" preserveAspectRatio="xMaxYMin meet">
         <g id="arrow_out" transform="scale(0.3 0.3)">
          <a xlink:href="classndt_1_1_packet_a62767a474cdc55944dc130fd21a8d6d9_icgraph_org.svg" target="_base">
           <rect id="button" ry="5" rx="5" y="6" x="6" height="38" width="38"
                fill="#f2f5e9" fill-opacity="0.5" stroke="#606060" stroke-width="1.0"/>
           <path id="arrow"
             d="M 11.500037,31.436501 C 11.940474,20.09759 22.043105,11.32322 32.158766,21.979434 L 37.068811,17.246167 C 37.068811,17.246167 37.088388,32 37.088388,32 L 22.160133,31.978069 C 22.160133,31.978069 26.997745,27.140456 26.997745,27.140456 C 18.528582,18.264221 13.291696,25.230495 11.500037,31.436501 z"
             style="fill:#404040;"/>
          </a>
         </g>
        </svg>
</svg>
