<?xml version="1.0" encoding="UTF-8" standalone="no"?>
<!DOCTYPE svg PUBLIC "-//W3C//DTD SVG 1.1//EN"
 "http://www.w3.org/Graphics/SVG/1.1/DTD/svg11.dtd">
<!-- Generated by graphviz version 2.38.0 (20140413.2041)
 -->
<!-- Title: ndt::SocketBase::isOpen Pages: 1 -->
<svg width="297pt" height="127pt"
 viewBox="0.00 0.00 297.00 126.50" xmlns="http://www.w3.org/2000/svg" xmlns:xlink="http://www.w3.org/1999/xlink">
<g id="graph0" class="graph" transform="scale(1 1) rotate(0) translate(4 122.5)">
<title>ndt::SocketBase::isOpen</title>
<polygon fill="white" stroke="none" points="-4,4 -4,-122.5 293,-122.5 293,4 -4,4"/>
<!-- Node1 -->
<g id="node1" class="node"><title>Node1</title>
<g id="a_node1"><a xlink:title=" ">
<polygon fill="#bfbfbf" stroke="black" points="163,-44.5 163,-63.5 289,-63.5 289,-44.5 163,-44.5"/>
<text text-anchor="middle" x="226" y="-51.5" font-family="Helvetica,sans-Serif" font-size="10.00">ndt::SocketBase::isOpen</text>
</a>
</g>
</g>
<!-- Node2 -->
<g id="node2" class="node"><title>Node2</title>
<g id="a_node2"><a xlink:href="classndt_1_1_executor_select_base.html#a635fd124ad6c4e0b2481c04283ea269f" target="_top" xlink:title=" ">
<polygon fill="white" stroke="black" points="1,-88 1,-118 126,-118 126,-88 1,-88"/>
<text text-anchor="start" x="9" y="-106" font-family="Helvetica,sans-Serif" font-size="10.00">ndt::ExecutorSelectBase</text>
<text text-anchor="middle" x="63.5" y="-95" font-family="Helvetica,sans-Serif" font-size="10.00">::addSocket</text>
</a>
</g>
</g>
<!-- Node1&#45;&gt;Node2 -->
<g id="edge1" class="edge"><title>Node1&#45;&gt;Node2</title>
<path fill="none" stroke="midnightblue" d="M183.917,-66.5426C162.53,-73.0719 136.226,-81.1024 113.754,-87.963"/>
<polygon fill="midnightblue" stroke="midnightblue" points="185.131,-69.8315 193.673,-63.564 183.087,-63.1365 185.131,-69.8315"/>
</g>
<!-- Node3 -->
<g id="node3" class="node"><title>Node3</title>
<g id="a_node3"><a xlink:href="classndt_1_1_executor_select_base.html#a638ef2e6d303d6414f4ded84d4f7e0d8" target="_top" xlink:title=" ">
<polygon fill="white" stroke="black" points="1,-39 1,-69 126,-69 126,-39 1,-39"/>
<text text-anchor="start" x="9" y="-57" font-family="Helvetica,sans-Serif" font-size="10.00">ndt::ExecutorSelectBase</text>
<text text-anchor="middle" x="63.5" y="-46" font-family="Helvetica,sans-Serif" font-size="10.00">::delSocket</text>
</a>
</g>
</g>
<!-- Node1&#45;&gt;Node3 -->
<g id="edge2" class="edge"><title>Node1&#45;&gt;Node3</title>
<path fill="none" stroke="midnightblue" d="M152.927,-54C143.979,-54 134.894,-54 126.124,-54"/>
<polygon fill="midnightblue" stroke="midnightblue" points="152.947,-57.5001 162.947,-54 152.946,-50.5001 152.947,-57.5001"/>
</g>
<!-- Node4 -->
<g id="node4" class="node"><title>Node4</title>
<g id="a_node4"><a xlink:href="classndt_1_1_socket_base.html#ab56314a6f315076bc4b0ba4530b28f13" target="_top" xlink:title=" ">
<polygon fill="white" stroke="black" points="0,-0.5 0,-19.5 127,-19.5 127,-0.5 0,-0.5"/>
<text text-anchor="middle" x="63.5" y="-7.5" font-family="Helvetica,sans-Serif" font-size="10.00">ndt::SocketBase::handler</text>
</a>
</g>
</g>
<!-- Node1&#45;&gt;Node4 -->
<g id="edge3" class="edge"><title>Node1&#45;&gt;Node4</title>
<path fill="none" stroke="midnightblue" d="M180.323,-41.7522C154.699,-34.7276 123.009,-26.04 99.2581,-19.5287"/>
<polygon fill="midnightblue" stroke="midnightblue" points="179.604,-45.1842 190.174,-44.4527 181.455,-38.4332 179.604,-45.1842"/>
</g>
</g>
</svg>
