<?xml version="1.0" encoding="UTF-8" standalone="no"?>
<!DOCTYPE svg PUBLIC "-//W3C//DTD SVG 1.1//EN"
 "http://www.w3.org/Graphics/SVG/1.1/DTD/svg11.dtd">
<!-- Generated by graphviz version 2.38.0 (20140413.2041)
 -->
<!-- Title: ndt::BinReader Pages: 1 -->
<svg width="141pt" height="640pt"
 viewBox="0.00 0.00 140.50 640.00" xmlns="http://www.w3.org/2000/svg" xmlns:xlink="http://www.w3.org/1999/xlink">
<g id="graph0" class="graph" transform="scale(1 1) rotate(0) translate(4 636)">
<title>ndt::BinReader</title>
<polygon fill="white" stroke="none" points="-4,4 -4,-636 136.5,-636 136.5,4 -4,4"/>
<!-- Node1 -->
<g id="node1" class="node"><title>Node1</title>
<g id="a_node1"><a xlink:title=" ">
<polygon fill="#bfbfbf" stroke="black" points="18,-0.5 18,-112.5 113,-112.5 113,-0.5 18,-0.5"/>
<text text-anchor="middle" x="65.5" y="-100.5" font-family="Helvetica,sans-Serif" font-size="10.00">ndt::BinReader</text>
<polyline fill="none" stroke="black" points="18,-93.5 113,-93.5 "/>
<text text-anchor="start" x="26" y="-81.5" font-family="Helvetica,sans-Serif" font-size="10.00">&#45; buffer_</text>
<polyline fill="none" stroke="black" points="18,-74.5 113,-74.5 "/>
<text text-anchor="start" x="26" y="-62.5" font-family="Helvetica,sans-Serif" font-size="10.00">+ BinReader()</text>
<text text-anchor="start" x="26" y="-51.5" font-family="Helvetica,sans-Serif" font-size="10.00">+ get()</text>
<text text-anchor="start" x="26" y="-40.5" font-family="Helvetica,sans-Serif" font-size="10.00">+ get()</text>
<text text-anchor="start" x="26" y="-29.5" font-family="Helvetica,sans-Serif" font-size="10.00">+ get()</text>
<text text-anchor="start" x="26" y="-18.5" font-family="Helvetica,sans-Serif" font-size="10.00">&#45; getEnum()</text>
<text text-anchor="start" x="26" y="-7.5" font-family="Helvetica,sans-Serif" font-size="10.00">&#45; bitCapacityImpl()</text>
</a>
</g>
</g>
<!-- Node2 -->
<g id="node2" class="node"><title>Node2</title>
<g id="a_node2"><a xlink:href="classndt_1_1details_1_1_bin_base.html" target="_top" xlink:title=" ">
<polygon fill="white" stroke="black" points="12,-150.5 12,-372.5 119,-372.5 119,-150.5 12,-150.5"/>
<text text-anchor="start" x="20" y="-360.5" font-family="Helvetica,sans-Serif" font-size="10.00">ndt::details::BinBase</text>
<text text-anchor="middle" x="65.5" y="-349.5" font-family="Helvetica,sans-Serif" font-size="10.00">&lt; BinReader &gt;</text>
<polyline fill="none" stroke="black" points="12,-342.5 119,-342.5 "/>
<text text-anchor="start" x="20" y="-330.5" font-family="Helvetica,sans-Serif" font-size="10.00"># byteIndex_</text>
<text text-anchor="start" x="20" y="-319.5" font-family="Helvetica,sans-Serif" font-size="10.00"># bitIndex_</text>
<text text-anchor="start" x="20" y="-308.5" font-family="Helvetica,sans-Serif" font-size="10.00"># kBitsInByte</text>
<polyline fill="none" stroke="black" points="12,-301.5 119,-301.5 "/>
<text text-anchor="start" x="20" y="-289.5" font-family="Helvetica,sans-Serif" font-size="10.00">+ byteIndex()</text>
<text text-anchor="start" x="20" y="-278.5" font-family="Helvetica,sans-Serif" font-size="10.00">+ bitIndex()</text>
<text text-anchor="start" x="20" y="-267.5" font-family="Helvetica,sans-Serif" font-size="10.00">+ size()</text>
<text text-anchor="start" x="20" y="-256.5" font-family="Helvetica,sans-Serif" font-size="10.00">+ bitSize()</text>
<text text-anchor="start" x="20" y="-245.5" font-family="Helvetica,sans-Serif" font-size="10.00">+ bitCapacity()</text>
<text text-anchor="start" x="20" y="-234.5" font-family="Helvetica,sans-Serif" font-size="10.00"># ~BinBase()</text>
<text text-anchor="start" x="20" y="-223.5" font-family="Helvetica,sans-Serif" font-size="10.00"># BinBase()</text>
<text text-anchor="start" x="20" y="-212.5" font-family="Helvetica,sans-Serif" font-size="10.00"># BinBase()</text>
<text text-anchor="start" x="20" y="-201.5" font-family="Helvetica,sans-Serif" font-size="10.00"># BinBase()</text>
<text text-anchor="start" x="20" y="-190.5" font-family="Helvetica,sans-Serif" font-size="10.00"># operator=()</text>
<text text-anchor="start" x="20" y="-179.5" font-family="Helvetica,sans-Serif" font-size="10.00"># operator=()</text>
<text text-anchor="start" x="20" y="-168.5" font-family="Helvetica,sans-Serif" font-size="10.00"># updateIndices()</text>
<text text-anchor="start" x="20" y="-157.5" font-family="Helvetica,sans-Serif" font-size="10.00"># filledMask()</text>
</a>
</g>
</g>
<!-- Node2&#45;&gt;Node1 -->
<g id="edge1" class="edge"><title>Node2&#45;&gt;Node1</title>
<path fill="none" stroke="midnightblue" d="M65.5,-140.346C65.5,-130.778 65.5,-121.438 65.5,-112.684"/>
<polygon fill="none" stroke="midnightblue" points="62.0001,-140.386 65.5,-150.386 69.0001,-140.386 62.0001,-140.386"/>
</g>
<!-- Node3 -->
<g id="node3" class="node"><title>Node3</title>
<g id="a_node3"><a xlink:href="classndt_1_1details_1_1_bin_base.html" target="_top" xlink:title=" ">
<polygon fill="white" stroke="black" points="0,-420.5 0,-631.5 131,-631.5 131,-420.5 0,-420.5"/>
<text text-anchor="middle" x="65.5" y="-619.5" font-family="Helvetica,sans-Serif" font-size="10.00">ndt::details::BinBase&lt; T &gt;</text>
<polyline fill="none" stroke="black" points="0,-612.5 131,-612.5 "/>
<text text-anchor="start" x="8" y="-600.5" font-family="Helvetica,sans-Serif" font-size="10.00"># byteIndex_</text>
<text text-anchor="start" x="8" y="-589.5" font-family="Helvetica,sans-Serif" font-size="10.00"># bitIndex_</text>
<text text-anchor="start" x="8" y="-578.5" font-family="Helvetica,sans-Serif" font-size="10.00"># kBitsInByte</text>
<polyline fill="none" stroke="black" points="0,-571.5 131,-571.5 "/>
<text text-anchor="start" x="8" y="-559.5" font-family="Helvetica,sans-Serif" font-size="10.00">+ byteIndex()</text>
<text text-anchor="start" x="8" y="-548.5" font-family="Helvetica,sans-Serif" font-size="10.00">+ bitIndex()</text>
<text text-anchor="start" x="8" y="-537.5" font-family="Helvetica,sans-Serif" font-size="10.00">+ size()</text>
<text text-anchor="start" x="8" y="-526.5" font-family="Helvetica,sans-Serif" font-size="10.00">+ bitSize()</text>
<text text-anchor="start" x="8" y="-515.5" font-family="Helvetica,sans-Serif" font-size="10.00">+ bitCapacity()</text>
<text text-anchor="start" x="8" y="-504.5" font-family="Helvetica,sans-Serif" font-size="10.00"># ~BinBase()</text>
<text text-anchor="start" x="8" y="-493.5" font-family="Helvetica,sans-Serif" font-size="10.00"># BinBase()</text>
<text text-anchor="start" x="8" y="-482.5" font-family="Helvetica,sans-Serif" font-size="10.00"># BinBase()</text>
<text text-anchor="start" x="8" y="-471.5" font-family="Helvetica,sans-Serif" font-size="10.00"># operator=()</text>
<text text-anchor="start" x="8" y="-460.5" font-family="Helvetica,sans-Serif" font-size="10.00"># BinBase()</text>
<text text-anchor="start" x="8" y="-449.5" font-family="Helvetica,sans-Serif" font-size="10.00"># operator=()</text>
<text text-anchor="start" x="8" y="-438.5" font-family="Helvetica,sans-Serif" font-size="10.00"># updateIndices()</text>
<text text-anchor="start" x="8" y="-427.5" font-family="Helvetica,sans-Serif" font-size="10.00"># filledMask()</text>
</a>
</g>
</g>
<!-- Node3&#45;&gt;Node2 -->
<g id="edge2" class="edge"><title>Node3&#45;&gt;Node2</title>
<path fill="none" stroke="orange" d="M65.5,-410.484C65.5,-397.93 65.5,-385.168 65.5,-372.668"/>
<polygon fill="orange" stroke="orange" points="62.0001,-410.499 65.5,-420.499 69.0001,-410.499 62.0001,-410.499"/>
<text text-anchor="middle" x="99" y="-394" font-family="Helvetica,sans-Serif" font-size="10.00"> &lt; BinReader &gt;</text>
</g>
</g>
</svg>
