<?xml version="1.0" encoding="UTF-8" standalone="no"?>
<!DOCTYPE svg PUBLIC "-//W3C//DTD SVG 1.1//EN"
 "http://www.w3.org/Graphics/SVG/1.1/DTD/svg11.dtd">
<!-- Generated by graphviz version 2.38.0 (20140413.2041)
 -->
<!-- Title: ndt::SocketBase::recvFrom Pages: 1 -->
<svg width="302pt" height="142pt"
 viewBox="0.00 0.00 302.00 142.00" xmlns="http://www.w3.org/2000/svg" xmlns:xlink="http://www.w3.org/1999/xlink">
<g id="graph0" class="graph" transform="scale(1 1) rotate(0) translate(4 138)">
<title>ndt::SocketBase::recvFrom</title>
<polygon fill="white" stroke="none" points="-4,4 -4,-138 298,-138 298,4 -4,4"/>
<!-- Node1 -->
<g id="node1" class="node"><title>Node1</title>
<g id="a_node1"><a xlink:title=" ">
<polygon fill="#bfbfbf" stroke="black" points="0,-57.5 0,-76.5 135,-76.5 135,-57.5 0,-57.5"/>
<text text-anchor="middle" x="67.5" y="-64.5" font-family="Helvetica,sans-Serif" font-size="10.00">ndt::SocketBase::recvFrom</text>
</a>
</g>
</g>
<!-- Node2 -->
<g id="node2" class="node"><title>Node2</title>
<g id="a_node2"><a xlink:href="classndt_1_1_buffer.html#a284e89ec2af5eec449a98d15f7abf107" target="_top" xlink:title=" ">
<polygon fill="white" stroke="black" points="189.5,-114.5 189.5,-133.5 275.5,-133.5 275.5,-114.5 189.5,-114.5"/>
<text text-anchor="middle" x="232.5" y="-121.5" font-family="Helvetica,sans-Serif" font-size="10.00">ndt::Buffer::data</text>
</a>
</g>
</g>
<!-- Node1&#45;&gt;Node2 -->
<g id="edge1" class="edge"><title>Node1&#45;&gt;Node2</title>
<path fill="none" stroke="midnightblue" d="M93.2285,-76.5685C113.911,-84.4747 144.244,-95.8457 171,-105 177.152,-107.105 183.686,-109.25 190.098,-111.304"/>
<polygon fill="midnightblue" stroke="midnightblue" points="189.41,-114.758 200.001,-114.44 191.523,-108.085 189.41,-114.758"/>
</g>
<!-- Node3 -->
<g id="node3" class="node"><title>Node3</title>
<g id="a_node3"><a xlink:href="classndt_1_1_address.html#aebf9df13bd14915045e2a250b0bb8610" target="_top" xlink:title=" ">
<polygon fill="white" stroke="black" points="171,-76.5 171,-95.5 294,-95.5 294,-76.5 171,-76.5"/>
<text text-anchor="middle" x="232.5" y="-83.5" font-family="Helvetica,sans-Serif" font-size="10.00">ndt::Address::nativeData</text>
</a>
</g>
</g>
<!-- Node1&#45;&gt;Node3 -->
<g id="edge2" class="edge"><title>Node1&#45;&gt;Node3</title>
<path fill="none" stroke="midnightblue" d="M135.269,-74.7828C143.644,-75.7592 152.235,-76.7605 160.67,-77.7437"/>
<polygon fill="midnightblue" stroke="midnightblue" points="160.519,-81.2498 170.857,-78.9312 161.33,-74.2969 160.519,-81.2498"/>
</g>
<!-- Node4 -->
<g id="node4" class="node"><title>Node4</title>
<g id="a_node4"><a xlink:href="classndt_1_1_buffer.html#abc0f5072370bb9aa6fa9fa82503bc721" target="_top" xlink:title=" ">
<polygon fill="white" stroke="black" points="182.5,-38.5 182.5,-57.5 282.5,-57.5 282.5,-38.5 182.5,-38.5"/>
<text text-anchor="middle" x="232.5" y="-45.5" font-family="Helvetica,sans-Serif" font-size="10.00">ndt::Buffer::setSize</text>
</a>
</g>
</g>
<!-- Node1&#45;&gt;Node4 -->
<g id="edge3" class="edge"><title>Node1&#45;&gt;Node4</title>
<path fill="none" stroke="midnightblue" d="M135.269,-59.2172C147.373,-57.8063 159.925,-56.3431 171.81,-54.9578"/>
<polygon fill="midnightblue" stroke="midnightblue" points="172.526,-58.398 182.054,-53.7637 171.716,-51.4451 172.526,-58.398"/>
</g>
<!-- Node5 -->
<g id="node5" class="node"><title>Node5</title>
<g id="a_node5"><a xlink:href="classndt_1_1_buffer.html#a7702c1d405ea4be0aeec27493b187048" target="_top" xlink:title=" ">
<polygon fill="white" stroke="black" points="190,-0.5 190,-19.5 275,-19.5 275,-0.5 190,-0.5"/>
<text text-anchor="middle" x="232.5" y="-7.5" font-family="Helvetica,sans-Serif" font-size="10.00">ndt::Buffer::size</text>
</a>
</g>
</g>
<!-- Node1&#45;&gt;Node5 -->
<g id="edge4" class="edge"><title>Node1&#45;&gt;Node5</title>
<path fill="none" stroke="midnightblue" d="M93.2285,-57.4315C113.911,-49.5253 144.244,-38.1543 171,-29 177.152,-26.8951 183.686,-24.75 190.098,-22.6955"/>
<polygon fill="midnightblue" stroke="midnightblue" points="191.523,-25.9154 200.001,-19.5602 189.41,-19.2419 191.523,-25.9154"/>
</g>
</g>
</svg>
