<?xml version="1.0" encoding="UTF-8" standalone="no"?>
<!DOCTYPE svg PUBLIC "-//W3C//DTD SVG 1.1//EN"
 "http://www.w3.org/Graphics/SVG/1.1/DTD/svg11.dtd">
<!-- Generated by graphviz version 2.38.0 (20140413.2041)
 -->
<!-- Title: ndt::BinReader::get Pages: 1 -->
<svg width="510pt" height="85pt"
 viewBox="0.00 0.00 510.00 85.00" xmlns="http://www.w3.org/2000/svg" xmlns:xlink="http://www.w3.org/1999/xlink">
<g id="graph0" class="graph" transform="scale(1 1) rotate(0) translate(4 81)">
<title>ndt::BinReader::get</title>
<polygon fill="white" stroke="none" points="-4,4 -4,-81 506,-81 506,4 -4,4"/>
<!-- Node1 -->
<g id="node1" class="node"><title>Node1</title>
<g id="a_node1"><a xlink:title=" ">
<polygon fill="#bfbfbf" stroke="black" points="401,-19.5 401,-38.5 502,-38.5 502,-19.5 401,-19.5"/>
<text text-anchor="middle" x="451.5" y="-26.5" font-family="Helvetica,sans-Serif" font-size="10.00">ndt::BinReader::get</text>
</a>
</g>
</g>
<!-- Node2 -->
<g id="node2" class="node"><title>Node2</title>
<g id="a_node2"><a xlink:href="namespacendt.html#ab8891ed023a4bc139e70e0724c94d1b9" target="_top" xlink:title=" ">
<polygon fill="white" stroke="black" points="273,-38.5 273,-57.5 356,-57.5 356,-38.5 273,-38.5"/>
<text text-anchor="middle" x="314.5" y="-45.5" font-family="Helvetica,sans-Serif" font-size="10.00">ndt::deserialize</text>
</a>
</g>
</g>
<!-- Node1&#45;&gt;Node2 -->
<g id="edge1" class="edge"><title>Node1&#45;&gt;Node2</title>
<path fill="none" stroke="midnightblue" d="M390.818,-37.3996C379.101,-39.0488 367.064,-40.7428 356.147,-42.2792"/>
<polygon fill="midnightblue" stroke="midnightblue" points="391.583,-40.8266 400.998,-35.967 390.607,-33.8949 391.583,-40.8266"/>
</g>
<!-- Node6 -->
<g id="node6" class="node"><title>Node6</title>
<g id="a_node6"><a xlink:href="classndt_1_1_bin_reader.html#a6b1b9f47678d364262e62d7956b39b12" target="_top" xlink:title=" ">
<polygon fill="white" stroke="black" points="264,-0.5 264,-19.5 365,-19.5 365,-0.5 264,-0.5"/>
<text text-anchor="middle" x="314.5" y="-7.5" font-family="Helvetica,sans-Serif" font-size="10.00">ndt::BinReader::get</text>
</a>
</g>
</g>
<!-- Node1&#45;&gt;Node6 -->
<g id="edge5" class="edge"><title>Node1&#45;&gt;Node6</title>
<path fill="none" stroke="midnightblue" d="M391.072,-20.636C382.519,-19.4324 373.792,-18.204 365.448,-17.0298"/>
<polygon fill="midnightblue" stroke="midnightblue" points="390.607,-24.1051 400.998,-22.033 391.583,-17.1734 390.607,-24.1051"/>
</g>
<!-- Node3 -->
<g id="node3" class="node"><title>Node3</title>
<g id="a_node3"><a xlink:href="namespacendt.html#a659a3c1ff9f586346cfbc6198f531f7e" target="_top" xlink:title=" ">
<polygon fill="white" stroke="black" points="132,-57.5 132,-76.5 215,-76.5 215,-57.5 132,-57.5"/>
<text text-anchor="middle" x="173.5" y="-64.5" font-family="Helvetica,sans-Serif" font-size="10.00">ndt::deserialize</text>
</a>
</g>
</g>
<!-- Node2&#45;&gt;Node3 -->
<g id="edge2" class="edge"><title>Node2&#45;&gt;Node3</title>
<path fill="none" stroke="midnightblue" d="M262.887,-54.9183C247.26,-57.0545 230.253,-59.3791 215.369,-61.4135"/>
<polygon fill="midnightblue" stroke="midnightblue" points="263.488,-58.3688 272.922,-53.5467 262.54,-51.4333 263.488,-58.3688"/>
</g>
<!-- Node4 -->
<g id="node4" class="node"><title>Node4</title>
<g id="a_node4"><a xlink:href="namespacendt.html#a9f58b21d1594e31cdbd6aa8c7c2ad34d" target="_top" xlink:title=" ">
<polygon fill="white" stroke="black" points="119,-19.5 119,-38.5 228,-38.5 228,-19.5 119,-19.5"/>
<text text-anchor="middle" x="173.5" y="-26.5" font-family="Helvetica,sans-Serif" font-size="10.00">ndt::deserializeStruct</text>
</a>
</g>
</g>
<!-- Node2&#45;&gt;Node4 -->
<g id="edge3" class="edge"><title>Node2&#45;&gt;Node4</title>
<path fill="none" stroke="midnightblue" d="M262.785,-41.0677C251.486,-39.5232 239.471,-37.8809 228.062,-36.3214"/>
<polygon fill="midnightblue" stroke="midnightblue" points="262.54,-44.5667 272.922,-42.4533 263.488,-37.6312 262.54,-44.5667"/>
</g>
<!-- Node5 -->
<g id="node5" class="node"><title>Node5</title>
<g id="a_node5"><a xlink:href="namespacendt.html#ab788b02adea235a3fd072ee0624cac01" target="_top" xlink:title=" ">
<polygon fill="white" stroke="black" points="0,-19.5 0,-38.5 83,-38.5 83,-19.5 0,-19.5"/>
<text text-anchor="middle" x="41.5" y="-26.5" font-family="Helvetica,sans-Serif" font-size="10.00">ndt::deserialize</text>
</a>
</g>
</g>
<!-- Node4&#45;&gt;Node5 -->
<g id="edge4" class="edge"><title>Node4&#45;&gt;Node5</title>
<path fill="none" stroke="midnightblue" d="M108.754,-29C100.09,-29 91.3971,-29 83.29,-29"/>
<polygon fill="midnightblue" stroke="midnightblue" points="108.874,-32.5001 118.873,-29 108.873,-25.5001 108.874,-32.5001"/>
</g>
</g>
</svg>
