<?xml version="1.0" encoding="UTF-8" standalone="no"?>
<!DOCTYPE svg PUBLIC "-//W3C//DTD SVG 1.1//EN"
 "http://www.w3.org/Graphics/SVG/1.1/DTD/svg11.dtd">
<!-- Generated by graphviz version 2.38.0 (20140413.2041)
 -->
<!-- Title: ndt::Packet::deserializeImpl Pages: 1 -->
<svg width="456pt" height="78pt"
 viewBox="0.00 0.00 456.00 77.50" xmlns="http://www.w3.org/2000/svg" xmlns:xlink="http://www.w3.org/1999/xlink">
<g id="graph0" class="graph" transform="scale(1 1) rotate(0) translate(4 73.5)">
<title>ndt::Packet::deserializeImpl</title>
<polygon fill="white" stroke="none" points="-4,4 -4,-73.5 452,-73.5 452,4 -4,4"/>
<!-- Node1 -->
<g id="node1" class="node"><title>Node1</title>
<g id="a_node1"><a xlink:title=" ">
<polygon fill="#bfbfbf" stroke="black" points="0,-28 0,-47 137,-47 137,-28 0,-28"/>
<text text-anchor="middle" x="68.5" y="-35" font-family="Helvetica,sans-Serif" font-size="10.00">ndt::Packet::deserializeImpl</text>
</a>
</g>
</g>
<!-- Node2 -->
<g id="node2" class="node"><title>Node2</title>
<g id="a_node2"><a xlink:href="classndt_1_1_packet.html#abde9cbf58bcfb75579c8f6a77c796a48" target="_top" xlink:title=" ">
<polygon fill="white" stroke="black" points="173,-50 173,-69 292,-69 292,-50 173,-50"/>
<text text-anchor="middle" x="232.5" y="-57" font-family="Helvetica,sans-Serif" font-size="10.00">ndt::Packet::deserialize</text>
</a>
</g>
</g>
<!-- Node1&#45;&gt;Node2 -->
<g id="edge1" class="edge"><title>Node1&#45;&gt;Node2</title>
<path fill="none" stroke="midnightblue" d="M137.264,-40.0333C155.472,-42.282 174.597,-45.1211 190.823,-48.0324"/>
<polygon fill="midnightblue" stroke="midnightblue" points="190.555,-51.5431 201.029,-49.9505 191.848,-44.6636 190.555,-51.5431"/>
</g>
<!-- Node4 -->
<g id="node4" class="node"><title>Node4</title>
<g id="a_node4"><a xlink:href="classndt_1_1_packet.html#a1d6ccd155f41c225fe0da277386f9b56" target="_top" xlink:title=" ">
<polygon fill="white" stroke="black" points="173,-0.5 173,-30.5 292,-30.5 292,-0.5 173,-0.5"/>
<text text-anchor="start" x="181" y="-18.5" font-family="Helvetica,sans-Serif" font-size="10.00">ndt::Packet::deserialize</text>
<text text-anchor="middle" x="232.5" y="-7.5" font-family="Helvetica,sans-Serif" font-size="10.00">RestImpl</text>
</a>
</g>
</g>
<!-- Node1&#45;&gt;Node4 -->
<g id="edge4" class="edge"><title>Node1&#45;&gt;Node4</title>
<path fill="none" stroke="midnightblue" d="M99.971,-27.9505C117.775,-24.4339 141.002,-20.8573 162.974,-18.1277"/>
<polygon fill="midnightblue" stroke="midnightblue" points="163.442,-21.5967 172.957,-16.9363 162.613,-14.646 163.442,-21.5967"/>
</g>
<!-- Node2&#45;&gt;Node1 -->
<g id="edge2" class="edge"><title>Node2&#45;&gt;Node1</title>
<path fill="none" stroke="midnightblue" d="M172.957,-58.0637C152.008,-55.6699 128.884,-52.3342 109.82,-48.9035"/>
<polygon fill="midnightblue" stroke="midnightblue" points="110.446,-45.4599 99.971,-47.0495 109.151,-52.3391 110.446,-45.4599"/>
</g>
<!-- Node3 -->
<g id="node3" class="node"><title>Node3</title>
<g id="a_node3"><a xlink:href="classndt_1_1_packet.html#a62767a474cdc55944dc130fd21a8d6d9" target="_top" xlink:title=" ">
<polygon fill="white" stroke="black" points="328,-50 328,-69 448,-69 448,-50 328,-50"/>
<text text-anchor="middle" x="388" y="-57" font-family="Helvetica,sans-Serif" font-size="10.00">ndt::Packet::minBitSize</text>
</a>
</g>
</g>
<!-- Node2&#45;&gt;Node3 -->
<g id="edge3" class="edge"><title>Node2&#45;&gt;Node3</title>
<path fill="none" stroke="midnightblue" d="M292.408,-59.5C300.703,-59.5 309.292,-59.5 317.758,-59.5"/>
<polygon fill="midnightblue" stroke="midnightblue" points="317.996,-63.0001 327.996,-59.5 317.996,-56.0001 317.996,-63.0001"/>
</g>
<!-- Node4&#45;&gt;Node1 -->
<g id="edge5" class="edge"><title>Node4&#45;&gt;Node1</title>
<path fill="none" stroke="midnightblue" d="M172.757,-29.9957C164.473,-31.2972 155.853,-32.5435 147.281,-33.6824"/>
<polygon fill="midnightblue" stroke="midnightblue" points="146.738,-30.2233 137.264,-34.9667 147.628,-37.1665 146.738,-30.2233"/>
</g>
</g>
</svg>
