<?xml version="1.0" encoding="UTF-8" standalone="no"?>
<!DOCTYPE svg PUBLIC "-//W3C//DTD SVG 1.1//EN"
 "http://www.w3.org/Graphics/SVG/1.1/DTD/svg11.dtd">
<!-- Generated by graphviz version 2.38.0 (20140413.2041)
 -->
<!-- Title: ndt::FileOps Pages: 1 -->
<svg width="573pt" height="408pt"
 viewBox="0.00 0.00 573.00 408.00" xmlns="http://www.w3.org/2000/svg" xmlns:xlink="http://www.w3.org/1999/xlink">
<g id="graph0" class="graph" transform="scale(1 1) rotate(0) translate(4 404)">
<title>ndt::FileOps</title>
<polygon fill="white" stroke="none" points="-4,4 -4,-404 569,-404 569,4 -4,4"/>
<!-- Node1 -->
<g id="node1" class="node"><title>Node1</title>
<g id="a_node1"><a xlink:title=" ">
<polygon fill="#bfbfbf" stroke="black" points="376.5,-0.5 376.5,-57.5 446.5,-57.5 446.5,-0.5 376.5,-0.5"/>
<text text-anchor="middle" x="411.5" y="-45.5" font-family="Helvetica,sans-Serif" font-size="10.00">ndt::FileOps</text>
<polyline fill="none" stroke="black" points="376.5,-38.5 446.5,-38.5 "/>
<text text-anchor="middle" x="411.5" y="-26.5" font-family="Helvetica,sans-Serif" font-size="10.00"> </text>
<polyline fill="none" stroke="black" points="376.5,-19.5 446.5,-19.5 "/>
<text text-anchor="middle" x="411.5" y="-7.5" font-family="Helvetica,sans-Serif" font-size="10.00"> </text>
</a>
</g>
</g>
<!-- Node2 -->
<g id="node2" class="node"><title>Node2</title>
<g id="a_node2"><a xlink:href="structndt_1_1_no_constructible_no_destructible.html" target="_top" xlink:title=" ">
<polygon fill="white" stroke="black" points="176,-155 176,-212 345,-212 345,-155 176,-155"/>
<text text-anchor="middle" x="260.5" y="-200" font-family="Helvetica,sans-Serif" font-size="10.00">ndt::NoConstructibleNoDestructible</text>
<polyline fill="none" stroke="black" points="176,-193 345,-193 "/>
<text text-anchor="middle" x="260.5" y="-181" font-family="Helvetica,sans-Serif" font-size="10.00"> </text>
<polyline fill="none" stroke="black" points="176,-174 345,-174 "/>
<text text-anchor="middle" x="260.5" y="-162" font-family="Helvetica,sans-Serif" font-size="10.00"> </text>
</a>
</g>
</g>
<!-- Node2&#45;&gt;Node1 -->
<g id="edge1" class="edge"><title>Node2&#45;&gt;Node1</title>
<path fill="none" stroke="midnightblue" d="M295.179,-147.476C322.183,-120.204 359.15,-82.8695 384.104,-57.6684"/>
<polygon fill="none" stroke="midnightblue" points="292.394,-145.315 287.845,-154.883 297.368,-150.24 292.394,-145.315"/>
</g>
<!-- Node3 -->
<g id="node3" class="node"><title>Node3</title>
<g id="a_node3"><a xlink:href="structndt_1_1_no_default_constructible.html" target="_top" xlink:title=" ">
<polygon fill="white" stroke="black" points="0,-326 0,-383 135,-383 135,-326 0,-326"/>
<text text-anchor="middle" x="67.5" y="-371" font-family="Helvetica,sans-Serif" font-size="10.00">ndt::NoDefaultConstructible</text>
<polyline fill="none" stroke="black" points="0,-364 135,-364 "/>
<text text-anchor="middle" x="67.5" y="-352" font-family="Helvetica,sans-Serif" font-size="10.00"> </text>
<polyline fill="none" stroke="black" points="0,-345 135,-345 "/>
<text text-anchor="start" x="8" y="-333" font-family="Helvetica,sans-Serif" font-size="10.00">+ NoDefaultConstructible()</text>
</a>
</g>
</g>
<!-- Node3&#45;&gt;Node2 -->
<g id="edge2" class="edge"><title>Node3&#45;&gt;Node2</title>
<path fill="none" stroke="midnightblue" d="M106.826,-319.064C142.924,-287.455 195.714,-241.229 229.075,-212.017"/>
<polygon fill="none" stroke="midnightblue" points="104.156,-316.75 98.9383,-325.971 108.767,-322.016 104.156,-316.75"/>
</g>
<!-- Node4 -->
<g id="node4" class="node"><title>Node4</title>
<g id="a_node4"><a xlink:href="structndt_1_1_no_destructible.html" target="_top" xlink:title=" ">
<polygon fill="white" stroke="black" points="153,-326 153,-383 254,-383 254,-326 153,-326"/>
<text text-anchor="middle" x="203.5" y="-371" font-family="Helvetica,sans-Serif" font-size="10.00">ndt::NoDestructible</text>
<polyline fill="none" stroke="black" points="153,-364 254,-364 "/>
<text text-anchor="middle" x="203.5" y="-352" font-family="Helvetica,sans-Serif" font-size="10.00"> </text>
<polyline fill="none" stroke="black" points="153,-345 254,-345 "/>
<text text-anchor="start" x="161" y="-333" font-family="Helvetica,sans-Serif" font-size="10.00">+ ~NoDestructible()</text>
</a>
</g>
</g>
<!-- Node4&#45;&gt;Node2 -->
<g id="edge3" class="edge"><title>Node4&#45;&gt;Node2</title>
<path fill="none" stroke="midnightblue" d="M216.068,-316.238C226.688,-284.751 241.656,-240.37 251.219,-212.017"/>
<polygon fill="none" stroke="midnightblue" points="212.664,-315.377 212.785,-325.971 219.297,-317.614 212.664,-315.377"/>
</g>
<!-- Node5 -->
<g id="node5" class="node"><title>Node5</title>
<g id="a_node5"><a xlink:href="structndt_1_1_no_copy_able.html" target="_top" xlink:title=" ">
<polygon fill="white" stroke="black" points="272.5,-309.5 272.5,-399.5 364.5,-399.5 364.5,-309.5 272.5,-309.5"/>
<text text-anchor="middle" x="318.5" y="-387.5" font-family="Helvetica,sans-Serif" font-size="10.00">ndt::NoCopyAble</text>
<polyline fill="none" stroke="black" points="272.5,-380.5 364.5,-380.5 "/>
<text text-anchor="middle" x="318.5" y="-368.5" font-family="Helvetica,sans-Serif" font-size="10.00"> </text>
<polyline fill="none" stroke="black" points="272.5,-361.5 364.5,-361.5 "/>
<text text-anchor="start" x="280.5" y="-349.5" font-family="Helvetica,sans-Serif" font-size="10.00">+ NoCopyAble()</text>
<text text-anchor="start" x="280.5" y="-338.5" font-family="Helvetica,sans-Serif" font-size="10.00">+ ~NoCopyAble()</text>
<text text-anchor="start" x="280.5" y="-327.5" font-family="Helvetica,sans-Serif" font-size="10.00">+ NoCopyAble()</text>
<text text-anchor="start" x="280.5" y="-316.5" font-family="Helvetica,sans-Serif" font-size="10.00">+ operator=()</text>
</a>
</g>
</g>
<!-- Node5&#45;&gt;Node2 -->
<g id="edge4" class="edge"><title>Node5&#45;&gt;Node2</title>
<path fill="none" stroke="midnightblue" d="M299.961,-299.48C289.989,-270.424 278.111,-235.815 270.011,-212.212"/>
<polygon fill="none" stroke="midnightblue" points="296.705,-300.775 303.261,-309.097 303.325,-298.503 296.705,-300.775"/>
</g>
<!-- Node6 -->
<g id="node6" class="node"><title>Node6</title>
<g id="a_node6"><a xlink:href="structndt_1_1_no_move_able.html" target="_top" xlink:title=" ">
<polygon fill="white" stroke="black" points="382.5,-309.5 382.5,-399.5 474.5,-399.5 474.5,-309.5 382.5,-309.5"/>
<text text-anchor="middle" x="428.5" y="-387.5" font-family="Helvetica,sans-Serif" font-size="10.00">ndt::NoMoveAble</text>
<polyline fill="none" stroke="black" points="382.5,-380.5 474.5,-380.5 "/>
<text text-anchor="middle" x="428.5" y="-368.5" font-family="Helvetica,sans-Serif" font-size="10.00"> </text>
<polyline fill="none" stroke="black" points="382.5,-361.5 474.5,-361.5 "/>
<text text-anchor="start" x="390.5" y="-349.5" font-family="Helvetica,sans-Serif" font-size="10.00">+ NoMoveAble()</text>
<text text-anchor="start" x="390.5" y="-338.5" font-family="Helvetica,sans-Serif" font-size="10.00">+ ~NoMoveAble()</text>
<text text-anchor="start" x="390.5" y="-327.5" font-family="Helvetica,sans-Serif" font-size="10.00">+ NoMoveAble()</text>
<text text-anchor="start" x="390.5" y="-316.5" font-family="Helvetica,sans-Serif" font-size="10.00">+ operator=()</text>
</a>
</g>
</g>
<!-- Node6&#45;&gt;Node2 -->
<g id="edge5" class="edge"><title>Node6&#45;&gt;Node2</title>
<path fill="none" stroke="midnightblue" d="M377.049,-301.743C347.718,-272.237 312.124,-236.431 288.048,-212.212"/>
<polygon fill="none" stroke="midnightblue" points="374.828,-304.473 384.36,-309.097 379.792,-299.538 374.828,-304.473"/>
</g>
<!-- Node7 -->
<g id="node7" class="node"><title>Node7</title>
<g id="a_node7"><a xlink:href="classndt_1_1_sys_error_code.html" target="_top" xlink:title=" ">
<polygon fill="white" stroke="black" points="363,-155 363,-212 460,-212 460,-155 363,-155"/>
<text text-anchor="middle" x="411.5" y="-200" font-family="Helvetica,sans-Serif" font-size="10.00">ndt::SysErrorCode</text>
<polyline fill="none" stroke="black" points="363,-193 460,-193 "/>
<text text-anchor="middle" x="411.5" y="-181" font-family="Helvetica,sans-Serif" font-size="10.00"> </text>
<polyline fill="none" stroke="black" points="363,-174 460,-174 "/>
<text text-anchor="start" x="371" y="-162" font-family="Helvetica,sans-Serif" font-size="10.00">+ lastErrorCode()</text>
</a>
</g>
</g>
<!-- Node7&#45;&gt;Node1 -->
<g id="edge6" class="edge"><title>Node7&#45;&gt;Node1</title>
<path fill="none" stroke="midnightblue" d="M411.5,-144.645C411.5,-117.665 411.5,-82.008 411.5,-57.6684"/>
<polygon fill="none" stroke="midnightblue" points="408,-144.883 411.5,-154.883 415,-144.883 408,-144.883"/>
</g>
<!-- Node8 -->
<g id="node8" class="node"><title>Node8</title>
<g id="a_node8"><a xlink:href="classndt_1_1_sys_file_ops.html" target="_top" xlink:title=" ">
<polygon fill="white" stroke="black" points="478,-94.5 478,-272.5 565,-272.5 565,-94.5 478,-94.5"/>
<text text-anchor="middle" x="521.5" y="-260.5" font-family="Helvetica,sans-Serif" font-size="10.00">ndt::SysFileOps</text>
<polyline fill="none" stroke="black" points="478,-253.5 565,-253.5 "/>
<text text-anchor="middle" x="521.5" y="-241.5" font-family="Helvetica,sans-Serif" font-size="10.00"> </text>
<polyline fill="none" stroke="black" points="478,-234.5 565,-234.5 "/>
<text text-anchor="start" x="486" y="-222.5" font-family="Helvetica,sans-Serif" font-size="10.00">+ fopen()</text>
<text text-anchor="start" x="486" y="-211.5" font-family="Helvetica,sans-Serif" font-size="10.00">+ fclose()</text>
<text text-anchor="start" x="486" y="-200.5" font-family="Helvetica,sans-Serif" font-size="10.00">+ remove()</text>
<text text-anchor="start" x="486" y="-189.5" font-family="Helvetica,sans-Serif" font-size="10.00">+ fread()</text>
<text text-anchor="start" x="486" y="-178.5" font-family="Helvetica,sans-Serif" font-size="10.00">+ fwrite()</text>
<text text-anchor="start" x="486" y="-167.5" font-family="Helvetica,sans-Serif" font-size="10.00">+ ferror()</text>
<text text-anchor="start" x="486" y="-156.5" font-family="Helvetica,sans-Serif" font-size="10.00">+ feof()</text>
<text text-anchor="start" x="486" y="-145.5" font-family="Helvetica,sans-Serif" font-size="10.00">+ stat()</text>
<text text-anchor="start" x="486" y="-134.5" font-family="Helvetica,sans-Serif" font-size="10.00">+ fflush()</text>
<text text-anchor="start" x="486" y="-123.5" font-family="Helvetica,sans-Serif" font-size="10.00">+ fseek()</text>
<text text-anchor="start" x="486" y="-112.5" font-family="Helvetica,sans-Serif" font-size="10.00">+ ftell()</text>
<text text-anchor="start" x="486" y="-101.5" font-family="Helvetica,sans-Serif" font-size="10.00">+ rewind()</text>
</a>
</g>
</g>
<!-- Node8&#45;&gt;Node1 -->
<g id="edge7" class="edge"><title>Node8&#45;&gt;Node1</title>
<path fill="none" stroke="midnightblue" d="M472.164,-97.6813C471.279,-96.4395 470.39,-95.2116 469.5,-94 460.265,-81.4334 448.962,-68.5147 438.794,-57.6039"/>
<polygon fill="none" stroke="midnightblue" points="469.387,-99.8189 477.953,-106.053 475.144,-95.8375 469.387,-99.8189"/>
</g>
</g>
</svg>
