<?xml version="1.0" encoding="UTF-8" standalone="no"?>
<!DOCTYPE svg PUBLIC "-//W3C//DTD SVG 1.1//EN"
 "http://www.w3.org/Graphics/SVG/1.1/DTD/svg11.dtd">
<!-- Generated by graphviz version 2.38.0 (20140413.2041)
 -->
<!-- Title: ndt::HandlerSelect::eventMask Pages: 1 -->
<svg width="279pt" height="137pt"
 viewBox="0.00 0.00 279.00 137.00" xmlns="http://www.w3.org/2000/svg" xmlns:xlink="http://www.w3.org/1999/xlink">
<g id="graph0" class="graph" transform="scale(1 1) rotate(0) translate(4 133)">
<title>ndt::HandlerSelect::eventMask</title>
<polygon fill="white" stroke="none" points="-4,4 -4,-133 275,-133 275,4 -4,4"/>
<!-- Node1 -->
<g id="node1" class="node"><title>Node1</title>
<g id="a_node1"><a xlink:title=" ">
<polygon fill="#bfbfbf" stroke="black" points="174,-49.5 174,-79.5 271,-79.5 271,-49.5 174,-49.5"/>
<text text-anchor="start" x="182" y="-67.5" font-family="Helvetica,sans-Serif" font-size="10.00">ndt::HandlerSelect</text>
<text text-anchor="middle" x="222.5" y="-56.5" font-family="Helvetica,sans-Serif" font-size="10.00">::eventMask</text>
</a>
</g>
</g>
<!-- Node2 -->
<g id="node2" class="node"><title>Node2</title>
<g id="a_node2"><a xlink:href="classndt_1_1_handler_select.html#aa25e97bb7d75e02a40295d60c057c4ff" target="_top" xlink:title=" ">
<polygon fill="white" stroke="black" points="0,-98.5 0,-128.5 138,-128.5 138,-98.5 0,-98.5"/>
<text text-anchor="start" x="8" y="-116.5" font-family="Helvetica,sans-Serif" font-size="10.00">ndt::HandlerSelect</text>
<text text-anchor="middle" x="69" y="-105.5" font-family="Helvetica,sans-Serif" font-size="10.00">::exceptionConditionHandler</text>
</a>
</g>
</g>
<!-- Node1&#45;&gt;Node2 -->
<g id="edge1" class="edge"><title>Node1&#45;&gt;Node2</title>
<path fill="none" stroke="midnightblue" d="M165.046,-82.7591C149.067,-87.9273 131.86,-93.4924 116.537,-98.4484"/>
<polygon fill="midnightblue" stroke="midnightblue" points="166.371,-86.009 174.809,-79.6014 164.217,-79.3487 166.371,-86.009"/>
</g>
<!-- Node3 -->
<g id="node3" class="node"><title>Node3</title>
<g id="a_node3"><a xlink:href="classndt_1_1_handler_select.html#a6c881873cb69f6a98ca49661450d93e4" target="_top" xlink:title=" ">
<polygon fill="white" stroke="black" points="20.5,-49.5 20.5,-79.5 117.5,-79.5 117.5,-49.5 20.5,-49.5"/>
<text text-anchor="start" x="28.5" y="-67.5" font-family="Helvetica,sans-Serif" font-size="10.00">ndt::HandlerSelect</text>
<text text-anchor="middle" x="69" y="-56.5" font-family="Helvetica,sans-Serif" font-size="10.00">::readHandler</text>
</a>
</g>
</g>
<!-- Node1&#45;&gt;Node3 -->
<g id="edge2" class="edge"><title>Node1&#45;&gt;Node3</title>
<path fill="none" stroke="midnightblue" d="M163.648,-64.5C148.441,-64.5 132.213,-64.5 117.612,-64.5"/>
<polygon fill="midnightblue" stroke="midnightblue" points="163.98,-68.0001 173.98,-64.5 163.98,-61.0001 163.98,-68.0001"/>
</g>
<!-- Node4 -->
<g id="node4" class="node"><title>Node4</title>
<g id="a_node4"><a xlink:href="classndt_1_1_handler_select.html#a8cf03f5fce599221c590b67b85d79cf0" target="_top" xlink:title=" ">
<polygon fill="white" stroke="black" points="20.5,-0.5 20.5,-30.5 117.5,-30.5 117.5,-0.5 20.5,-0.5"/>
<text text-anchor="start" x="28.5" y="-18.5" font-family="Helvetica,sans-Serif" font-size="10.00">ndt::HandlerSelect</text>
<text text-anchor="middle" x="69" y="-7.5" font-family="Helvetica,sans-Serif" font-size="10.00">::writeHandler</text>
</a>
</g>
</g>
<!-- Node1&#45;&gt;Node4 -->
<g id="edge3" class="edge"><title>Node1&#45;&gt;Node4</title>
<path fill="none" stroke="midnightblue" d="M165.046,-46.2409C149.067,-41.0727 131.86,-35.5076 116.537,-30.5516"/>
<polygon fill="midnightblue" stroke="midnightblue" points="164.217,-49.6513 174.809,-49.3986 166.371,-42.991 164.217,-49.6513"/>
</g>
</g>
</svg>
