<?xml version="1.0" encoding="UTF-8" standalone="no"?>
<!DOCTYPE svg PUBLIC "-//W3C//DTD SVG 1.1//EN"
 "http://www.w3.org/Graphics/SVG/1.1/DTD/svg11.dtd">
<!-- Generated by graphviz version 2.38.0 (20140413.2041)
 -->
<!-- Title: ndt::ExecutorSelect::delHandlerImpl Pages: 1 -->
<svg width="441pt" height="100pt"
 viewBox="0.00 0.00 441.00 99.50" xmlns="http://www.w3.org/2000/svg" xmlns:xlink="http://www.w3.org/1999/xlink">
<g id="graph0" class="graph" transform="scale(1 1) rotate(0) translate(4 95.5)">
<title>ndt::ExecutorSelect::delHandlerImpl</title>
<polygon fill="white" stroke="none" points="-4,4 -4,-95.5 437,-95.5 437,4 -4,4"/>
<!-- Node1 -->
<g id="node1" class="node"><title>Node1</title>
<g id="a_node1"><a xlink:title=" ">
<polygon fill="#bfbfbf" stroke="black" points="0,-27.5 0,-57.5 103,-57.5 103,-27.5 0,-27.5"/>
<text text-anchor="start" x="8" y="-45.5" font-family="Helvetica,sans-Serif" font-size="10.00">ndt::ExecutorSelect</text>
<text text-anchor="middle" x="51.5" y="-34.5" font-family="Helvetica,sans-Serif" font-size="10.00">::delHandlerImpl</text>
</a>
</g>
</g>
<!-- Node2 -->
<g id="node2" class="node"><title>Node2</title>
<g id="a_node2"><a xlink:href="classndt_1_1_executor_select_base.html#af885ee54af5cd6c5f60fe0712ea7c1c9" target="_top" xlink:title=" ">
<polygon fill="white" stroke="black" points="139,-50 139,-91 294,-91 294,-50 139,-50"/>
<text text-anchor="start" x="147" y="-79" font-family="Helvetica,sans-Serif" font-size="10.00">ndt::ExecutorSelectBase</text>
<text text-anchor="start" x="147" y="-68" font-family="Helvetica,sans-Serif" font-size="10.00">&lt; ExecutorSelect&lt; SysWrapper</text>
<text text-anchor="middle" x="216.5" y="-57" font-family="Helvetica,sans-Serif" font-size="10.00">T &gt;, SysWrapperT &gt;::setFlag</text>
</a>
</g>
</g>
<!-- Node1&#45;&gt;Node2 -->
<g id="edge1" class="edge"><title>Node1&#45;&gt;Node2</title>
<path fill="none" stroke="midnightblue" d="M103.181,-51.2059C111.397,-52.6172 120.103,-54.1128 128.888,-55.6219"/>
<polygon fill="midnightblue" stroke="midnightblue" points="128.371,-59.0843 138.82,-57.3279 129.556,-52.1853 128.371,-59.0843"/>
</g>
<!-- Node3 -->
<g id="node3" class="node"><title>Node3</title>
<g id="a_node3"><a xlink:href="classndt_1_1_executor_select.html#aaefe4bf66416071e65fd8f9da2ee5bcb" target="_top" xlink:title=" ">
<polygon fill="white" stroke="black" points="165,-0.5 165,-30.5 268,-30.5 268,-0.5 165,-0.5"/>
<text text-anchor="start" x="173" y="-18.5" font-family="Helvetica,sans-Serif" font-size="10.00">ndt::ExecutorSelect</text>
<text text-anchor="middle" x="216.5" y="-7.5" font-family="Helvetica,sans-Serif" font-size="10.00">::updateNumfds</text>
</a>
</g>
</g>
<!-- Node1&#45;&gt;Node3 -->
<g id="edge2" class="edge"><title>Node1&#45;&gt;Node3</title>
<path fill="none" stroke="midnightblue" d="M103.181,-34.105C119.433,-31.4129 137.603,-28.4032 154.513,-25.6021"/>
<polygon fill="midnightblue" stroke="midnightblue" points="155.557,-28.977 164.851,-23.8898 154.413,-22.0711 155.557,-28.977"/>
</g>
<!-- Node4 -->
<g id="node4" class="node"><title>Node4</title>
<g id="a_node4"><a xlink:href="classndt_1_1_executor_select.html#a1ebb6964c1d6d6579c3d7dc1940b2f4d" target="_top" xlink:title=" ">
<polygon fill="white" stroke="black" points="330,-0.5 330,-30.5 433,-30.5 433,-0.5 330,-0.5"/>
<text text-anchor="start" x="338" y="-18.5" font-family="Helvetica,sans-Serif" font-size="10.00">ndt::ExecutorSelect</text>
<text text-anchor="middle" x="381.5" y="-7.5" font-family="Helvetica,sans-Serif" font-size="10.00">::numDescrs</text>
</a>
</g>
</g>
<!-- Node3&#45;&gt;Node4 -->
<g id="edge3" class="edge"><title>Node3&#45;&gt;Node4</title>
<path fill="none" stroke="midnightblue" d="M268.181,-15.5C284.433,-15.5 302.603,-15.5 319.513,-15.5"/>
<polygon fill="midnightblue" stroke="midnightblue" points="319.851,-19.0001 329.851,-15.5 319.851,-12.0001 319.851,-19.0001"/>
</g>
</g>
</svg>
