<?xml version="1.0" encoding="UTF-8" standalone="no"?>
<!DOCTYPE svg PUBLIC "-//W3C//DTD SVG 1.1//EN"
 "http://www.w3.org/Graphics/SVG/1.1/DTD/svg11.dtd">
<!-- Generated by graphviz version 2.38.0 (20140413.2041)
 -->
<!-- Title: ndt::Packet&lt; EnumT, packetType, Mixins &gt; Pages: 1 -->
<svg width="184pt" height="314pt"
 viewBox="0.00 0.00 184.00 314.00" xmlns="http://www.w3.org/2000/svg" xmlns:xlink="http://www.w3.org/1999/xlink">
<g id="graph0" class="graph" transform="scale(1 1) rotate(0) translate(4 310)">
<title>ndt::Packet&lt; EnumT, packetType, Mixins &gt;</title>
<polygon fill="white" stroke="none" points="-4,4 -4,-310 180,-310 180,4 -4,4"/>
<!-- Node1 -->
<g id="node1" class="node"><title>Node1</title>
<g id="a_node1"><a xlink:title=" ">
<polygon fill="#bfbfbf" stroke="black" points="48,-0.5 48,-145.5 161,-145.5 161,-0.5 48,-0.5"/>
<text text-anchor="start" x="56" y="-133.5" font-family="Helvetica,sans-Serif" font-size="10.00">ndt::Packet&lt; EnumT,</text>
<text text-anchor="middle" x="104.5" y="-122.5" font-family="Helvetica,sans-Serif" font-size="10.00"> packetType, Mixins &gt;</text>
<polyline fill="none" stroke="black" points="48,-115.5 161,-115.5 "/>
<text text-anchor="middle" x="104.5" y="-103.5" font-family="Helvetica,sans-Serif" font-size="10.00"> </text>
<polyline fill="none" stroke="black" points="48,-96.5 161,-96.5 "/>
<text text-anchor="start" x="56" y="-84.5" font-family="Helvetica,sans-Serif" font-size="10.00">+ Packet()</text>
<text text-anchor="start" x="56" y="-73.5" font-family="Helvetica,sans-Serif" font-size="10.00">+ minBitSize()</text>
<text text-anchor="start" x="56" y="-62.5" font-family="Helvetica,sans-Serif" font-size="10.00">+ deserialize()</text>
<text text-anchor="start" x="56" y="-51.5" font-family="Helvetica,sans-Serif" font-size="10.00">+ serialize()</text>
<text text-anchor="start" x="56" y="-40.5" font-family="Helvetica,sans-Serif" font-size="10.00">&#45; deserializeImpl()</text>
<text text-anchor="start" x="56" y="-29.5" font-family="Helvetica,sans-Serif" font-size="10.00">&#45; deserializeRestImpl()</text>
<text text-anchor="start" x="56" y="-18.5" font-family="Helvetica,sans-Serif" font-size="10.00">&#45; serializeImpl()</text>
<text text-anchor="start" x="56" y="-7.5" font-family="Helvetica,sans-Serif" font-size="10.00">&#45; serializeRestImpl()</text>
</a>
</g>
</g>
<!-- Node2 -->
<g id="node2" class="node"><title>Node2</title>
<g id="a_node2"><a xlink:href="classndt_1_1_type_id.html" target="_top" xlink:title=" ">
<polygon fill="white" stroke="black" points="0,-182.5 0,-305.5 113,-305.5 113,-182.5 0,-182.5"/>
<text text-anchor="middle" x="56.5" y="-293.5" font-family="Helvetica,sans-Serif" font-size="10.00">ndt::TypeId&lt; EnumT &gt;</text>
<polyline fill="none" stroke="black" points="0,-286.5 113,-286.5 "/>
<text text-anchor="start" x="8" y="-274.5" font-family="Helvetica,sans-Serif" font-size="10.00">&#45; typeId_</text>
<polyline fill="none" stroke="black" points="0,-267.5 113,-267.5 "/>
<text text-anchor="start" x="8" y="-255.5" font-family="Helvetica,sans-Serif" font-size="10.00">+ TypeId()</text>
<text text-anchor="start" x="8" y="-244.5" font-family="Helvetica,sans-Serif" font-size="10.00">+ TypeId()</text>
<text text-anchor="start" x="8" y="-233.5" font-family="Helvetica,sans-Serif" font-size="10.00">+ typeId()</text>
<text text-anchor="start" x="8" y="-222.5" font-family="Helvetica,sans-Serif" font-size="10.00">+ typeId()</text>
<text text-anchor="start" x="8" y="-211.5" font-family="Helvetica,sans-Serif" font-size="10.00">+ minBitSize()</text>
<text text-anchor="start" x="8" y="-200.5" font-family="Helvetica,sans-Serif" font-size="10.00">+ deserialize()</text>
<text text-anchor="start" x="8" y="-189.5" font-family="Helvetica,sans-Serif" font-size="10.00">+ serialize()</text>
</a>
</g>
</g>
<!-- Node2&#45;&gt;Node1 -->
<g id="edge1" class="edge"><title>Node2&#45;&gt;Node1</title>
<path fill="none" stroke="midnightblue" d="M76.4306,-172.828C78.9811,-163.848 81.5948,-154.645 84.1518,-145.643"/>
<polygon fill="none" stroke="midnightblue" points="73.0589,-171.889 73.6935,-182.464 79.7926,-173.801 73.0589,-171.889"/>
</g>
<!-- Node3 -->
<g id="node3" class="node"><title>Node3</title>
<g id="a_node3"><a xlink:title=" ">
<polygon fill="white" stroke="#bfbfbf" points="131,-215.5 131,-272.5 176,-272.5 176,-215.5 131,-215.5"/>
<text text-anchor="middle" x="153.5" y="-260.5" font-family="Helvetica,sans-Serif" font-size="10.00">Mixins</text>
<polyline fill="none" stroke="#bfbfbf" points="131,-253.5 176,-253.5 "/>
<text text-anchor="middle" x="153.5" y="-241.5" font-family="Helvetica,sans-Serif" font-size="10.00"> </text>
<polyline fill="none" stroke="#bfbfbf" points="131,-234.5 176,-234.5 "/>
<text text-anchor="middle" x="153.5" y="-222.5" font-family="Helvetica,sans-Serif" font-size="10.00"> </text>
</a>
</g>
</g>
<!-- Node3&#45;&gt;Node1 -->
<g id="edge2" class="edge"><title>Node3&#45;&gt;Node1</title>
<path fill="none" stroke="midnightblue" d="M142.652,-205.584C137.535,-187.937 131.252,-166.266 125.272,-145.642"/>
<polygon fill="none" stroke="midnightblue" points="139.372,-206.841 145.518,-215.471 146.095,-204.892 139.372,-206.841"/>
</g>
</g>
</svg>
