<?xml version="1.0" encoding="UTF-8" standalone="no"?>
<!DOCTYPE svg PUBLIC "-//W3C//DTD SVG 1.1//EN"
 "http://www.w3.org/Graphics/SVG/1.1/DTD/svg11.dtd">
<!-- Generated by graphviz version 2.38.0 (20140413.2041)
 -->
<!-- Title: ndt::Value&lt; T, Min&lt; MinV &gt;, Max&lt; MaxV &gt; &gt; Pages: 1 -->
<svg width="181pt" height="419pt"
 viewBox="0.00 0.00 181.00 419.00" xmlns="http://www.w3.org/2000/svg" xmlns:xlink="http://www.w3.org/1999/xlink">
<g id="graph0" class="graph" transform="scale(1 1) rotate(0) translate(4 415)">
<title>ndt::Value&lt; T, Min&lt; MinV &gt;, Max&lt; MaxV &gt; &gt;</title>
<polygon fill="white" stroke="none" points="-4,4 -4,-415 177,-415 177,4 -4,4"/>
<!-- Node1 -->
<g id="node1" class="node"><title>Node1</title>
<g id="a_node1"><a xlink:title=" ">
<polygon fill="#bfbfbf" stroke="black" points="0,-0.5 0,-156.5 134,-156.5 134,-0.5 0,-0.5"/>
<text text-anchor="start" x="8" y="-144.5" font-family="Helvetica,sans-Serif" font-size="10.00">ndt::Value&lt; T, Min</text>
<text text-anchor="middle" x="67" y="-133.5" font-family="Helvetica,sans-Serif" font-size="10.00">&lt; MinV &gt;, Max&lt; MaxV &gt; &gt;</text>
<polyline fill="none" stroke="black" points="0,-126.5 134,-126.5 "/>
<text text-anchor="start" x="8" y="-114.5" font-family="Helvetica,sans-Serif" font-size="10.00">+ kNumBits</text>
<text text-anchor="start" x="8" y="-103.5" font-family="Helvetica,sans-Serif" font-size="10.00">&#45; value</text>
<polyline fill="none" stroke="black" points="0,-96.5 134,-96.5 "/>
<text text-anchor="start" x="8" y="-84.5" font-family="Helvetica,sans-Serif" font-size="10.00">+ Value()</text>
<text text-anchor="start" x="8" y="-73.5" font-family="Helvetica,sans-Serif" font-size="10.00">+ Value()</text>
<text text-anchor="start" x="8" y="-62.5" font-family="Helvetica,sans-Serif" font-size="10.00">+ operator=()</text>
<text text-anchor="start" x="8" y="-51.5" font-family="Helvetica,sans-Serif" font-size="10.00">+ Value()</text>
<text text-anchor="start" x="8" y="-40.5" font-family="Helvetica,sans-Serif" font-size="10.00">+ operator=()</text>
<text text-anchor="start" x="8" y="-29.5" font-family="Helvetica,sans-Serif" font-size="10.00">+ ~Value()</text>
<text text-anchor="start" x="8" y="-18.5" font-family="Helvetica,sans-Serif" font-size="10.00">+ get()</text>
<text text-anchor="start" x="8" y="-7.5" font-family="Helvetica,sans-Serif" font-size="10.00">+ set()</text>
</a>
</g>
</g>
<!-- Node2 -->
<g id="node2" class="node"><title>Node2</title>
<g id="a_node2"><a xlink:href="structndt_1_1_interval.html" target="_top" xlink:title=" ">
<polygon fill="white" stroke="black" points="5.5,-204.5 5.5,-283.5 128.5,-283.5 128.5,-204.5 5.5,-204.5"/>
<text text-anchor="start" x="13.5" y="-271.5" font-family="Helvetica,sans-Serif" font-size="10.00">ndt::Interval&lt; T, ndt</text>
<text text-anchor="start" x="13.5" y="-260.5" font-family="Helvetica,sans-Serif" font-size="10.00">::Min&lt; MinV &gt;, ndt::Max</text>
<text text-anchor="middle" x="67" y="-249.5" font-family="Helvetica,sans-Serif" font-size="10.00">&lt; MaxV &gt; &gt;</text>
<polyline fill="none" stroke="black" points="5.5,-242.5 128.5,-242.5 "/>
<text text-anchor="middle" x="67" y="-230.5" font-family="Helvetica,sans-Serif" font-size="10.00"> </text>
<polyline fill="none" stroke="black" points="5.5,-223.5 128.5,-223.5 "/>
<text text-anchor="middle" x="67" y="-211.5" font-family="Helvetica,sans-Serif" font-size="10.00"> </text>
</a>
</g>
</g>
<!-- Node2&#45;&gt;Node1 -->
<g id="edge1" class="edge"><title>Node2&#45;&gt;Node1</title>
<path fill="none" stroke="#404040" d="M67,-204.253C67,-193.375 67,-181.078 67,-168.55"/>
<polygon fill="none" stroke="#404040" points="67.0001,-168.507 63,-162.507 67,-156.507 71,-162.507 67.0001,-168.507"/>
<text text-anchor="middle" x="89.5" y="-178" font-family="Helvetica,sans-Serif" font-size="10.00"> +kInterval</text>
</g>
<!-- Node3 -->
<g id="node3" class="node"><title>Node3</title>
<g id="a_node3"><a xlink:href="structndt_1_1_interval.html" target="_top" xlink:title=" ">
<polygon fill="white" stroke="black" points="12,-342.5 12,-410.5 122,-410.5 122,-342.5 12,-342.5"/>
<text text-anchor="start" x="20" y="-398.5" font-family="Helvetica,sans-Serif" font-size="10.00">ndt::Interval&lt; T, MinT,</text>
<text text-anchor="middle" x="67" y="-387.5" font-family="Helvetica,sans-Serif" font-size="10.00"> MaxT &gt;</text>
<polyline fill="none" stroke="black" points="12,-380.5 122,-380.5 "/>
<text text-anchor="middle" x="67" y="-368.5" font-family="Helvetica,sans-Serif" font-size="10.00"> </text>
<polyline fill="none" stroke="black" points="12,-361.5 122,-361.5 "/>
<text text-anchor="middle" x="67" y="-349.5" font-family="Helvetica,sans-Serif" font-size="10.00"> </text>
</a>
</g>
</g>
<!-- Node3&#45;&gt;Node2 -->
<g id="edge2" class="edge"><title>Node3&#45;&gt;Node2</title>
<path fill="none" stroke="orange" d="M67,-331.812C67,-316.263 67,-298.873 67,-283.765"/>
<polygon fill="orange" stroke="orange" points="63.5001,-332.232 67,-342.232 70.5001,-332.232 63.5001,-332.232"/>
<text text-anchor="start" x="67" y="-316" font-family="Helvetica,sans-Serif" font-size="10.00"> &lt; T, ndt::Min&lt; MinV</text>
<text text-anchor="middle" x="120" y="-305" font-family="Helvetica,sans-Serif" font-size="10.00"> &gt;, ndt::Max&lt; MaxV &gt; &gt;</text>
</g>
</g>
</svg>
