<?xml version="1.0" encoding="UTF-8" standalone="no"?>
<!DOCTYPE svg PUBLIC "-//W3C//DTD SVG 1.1//EN"
 "http://www.w3.org/Graphics/SVG/1.1/DTD/svg11.dtd">
<!-- Generated by graphviz version 2.38.0 (20140413.2041)
 -->
<!-- Title: ndt::Packet::deserialize Pages: 1 -->
<svg width="455pt" height="72pt"
 viewBox="0.00 0.00 455.00 71.50" xmlns="http://www.w3.org/2000/svg" xmlns:xlink="http://www.w3.org/1999/xlink">
<g id="graph0" class="graph" transform="scale(1 1) rotate(0) translate(4 67.5)">
<title>ndt::Packet::deserialize</title>
<polygon fill="white" stroke="none" points="-4,4 -4,-67.5 451,-67.5 451,4 -4,4"/>
<!-- Node1 -->
<g id="node1" class="node"><title>Node1</title>
<g id="a_node1"><a xlink:title=" ">
<polygon fill="#bfbfbf" stroke="black" points="0,-38.5 0,-57.5 119,-57.5 119,-38.5 0,-38.5"/>
<text text-anchor="middle" x="59.5" y="-45.5" font-family="Helvetica,sans-Serif" font-size="10.00">ndt::Packet::deserialize</text>
</a>
</g>
</g>
<!-- Node2 -->
<g id="node2" class="node"><title>Node2</title>
<g id="a_node2"><a xlink:href="classndt_1_1_packet.html#a003df760bc78df38c1782cc264c86ad6" target="_top" xlink:title=" ">
<polygon fill="white" stroke="black" points="155,-38.5 155,-57.5 292,-57.5 292,-38.5 155,-38.5"/>
<text text-anchor="middle" x="223.5" y="-45.5" font-family="Helvetica,sans-Serif" font-size="10.00">ndt::Packet::deserializeImpl</text>
</a>
</g>
</g>
<!-- Node1&#45;&gt;Node2 -->
<g id="edge1" class="edge"><title>Node1&#45;&gt;Node2</title>
<path fill="none" stroke="midnightblue" d="M119.444,-41.4775C127.612,-41.3051 136.105,-41.2307 144.552,-41.2543"/>
<polygon fill="midnightblue" stroke="midnightblue" points="144.784,-44.756 154.81,-41.3317 144.837,-37.7562 144.784,-44.756"/>
</g>
<!-- Node4 -->
<g id="node4" class="node"><title>Node4</title>
<g id="a_node4"><a xlink:href="classndt_1_1_packet.html#a62767a474cdc55944dc130fd21a8d6d9" target="_top" xlink:title=" ">
<polygon fill="white" stroke="black" points="163.5,-0.5 163.5,-19.5 283.5,-19.5 283.5,-0.5 163.5,-0.5"/>
<text text-anchor="middle" x="223.5" y="-7.5" font-family="Helvetica,sans-Serif" font-size="10.00">ndt::Packet::minBitSize</text>
</a>
</g>
</g>
<!-- Node1&#45;&gt;Node4 -->
<g id="edge5" class="edge"><title>Node1&#45;&gt;Node4</title>
<path fill="none" stroke="midnightblue" d="M101.379,-38.411C122.853,-33.3739 149.36,-27.1562 172.097,-21.8229"/>
<polygon fill="midnightblue" stroke="midnightblue" points="172.978,-25.2113 181.915,-19.5201 171.379,-18.3963 172.978,-25.2113"/>
</g>
<!-- Node2&#45;&gt;Node1 -->
<g id="edge2" class="edge"><title>Node2&#45;&gt;Node1</title>
<path fill="none" stroke="midnightblue" d="M154.81,-54.6683C146.459,-54.7716 137.914,-54.7769 129.543,-54.6842"/>
<polygon fill="midnightblue" stroke="midnightblue" points="129.499,-51.1831 119.444,-54.5225 129.387,-58.1822 129.499,-51.1831"/>
</g>
<!-- Node3 -->
<g id="node3" class="node"><title>Node3</title>
<g id="a_node3"><a xlink:href="classndt_1_1_packet.html#a1d6ccd155f41c225fe0da277386f9b56" target="_top" xlink:title=" ">
<polygon fill="white" stroke="black" points="328,-33 328,-63 447,-63 447,-33 328,-33"/>
<text text-anchor="start" x="336" y="-51" font-family="Helvetica,sans-Serif" font-size="10.00">ndt::Packet::deserialize</text>
<text text-anchor="middle" x="387.5" y="-40" font-family="Helvetica,sans-Serif" font-size="10.00">RestImpl</text>
</a>
</g>
</g>
<!-- Node2&#45;&gt;Node3 -->
<g id="edge3" class="edge"><title>Node2&#45;&gt;Node3</title>
<path fill="none" stroke="midnightblue" d="M292.264,-41.3307C300.647,-41.2276 309.225,-41.2233 317.624,-41.3177"/>
<polygon fill="midnightblue" stroke="midnightblue" points="317.701,-44.8193 327.757,-41.4818 317.815,-37.8202 317.701,-44.8193"/>
</g>
<!-- Node3&#45;&gt;Node2 -->
<g id="edge4" class="edge"><title>Node3&#45;&gt;Node2</title>
<path fill="none" stroke="midnightblue" d="M327.757,-54.5182C319.473,-54.6948 310.853,-54.7705 302.281,-54.7453"/>
<polygon fill="midnightblue" stroke="midnightblue" points="302.29,-51.2453 292.264,-54.6693 302.237,-58.2451 302.29,-51.2453"/>
</g>
</g>
</svg>
