<?xml version="1.0" encoding="UTF-8" standalone="no"?>
<!DOCTYPE svg PUBLIC "-//W3C//DTD SVG 1.1//EN"
 "http://www.w3.org/Graphics/SVG/1.1/DTD/svg11.dtd">
<!-- Generated by graphviz version 2.38.0 (20140413.2041)
 -->
<!-- Title: ndt::Address::throwIfInvalidFamily Pages: 1 -->
<svg width="322pt" height="78pt"
 viewBox="0.00 0.00 322.00 77.50" xmlns="http://www.w3.org/2000/svg" xmlns:xlink="http://www.w3.org/1999/xlink">
<g id="graph0" class="graph" transform="scale(1 1) rotate(0) translate(4 73.5)">
<title>ndt::Address::throwIfInvalidFamily</title>
<polygon fill="white" stroke="none" points="-4,4 -4,-73.5 318,-73.5 318,4 -4,4"/>
<!-- Node1 -->
<g id="node1" class="node"><title>Node1</title>
<g id="a_node1"><a xlink:title=" ">
<polygon fill="#bfbfbf" stroke="black" points="0,-22.5 0,-52.5 132,-52.5 132,-22.5 0,-22.5"/>
<text text-anchor="start" x="8" y="-40.5" font-family="Helvetica,sans-Serif" font-size="10.00">ndt::Address::throwIfInvalid</text>
<text text-anchor="middle" x="66" y="-29.5" font-family="Helvetica,sans-Serif" font-size="10.00">Family</text>
</a>
</g>
</g>
<!-- Node2 -->
<g id="node2" class="node"><title>Node2</title>
<g id="a_node2"><a xlink:href="namespacendt.html#aa944f7db5d9dd6201e090a114718ef3b" target="_top" xlink:title=" ">
<polygon fill="white" stroke="black" points="194,-50 194,-69 288,-69 288,-50 194,-50"/>
<text text-anchor="middle" x="241" y="-57" font-family="Helvetica,sans-Serif" font-size="10.00">ndt::throw_if_error</text>
</a>
</g>
</g>
<!-- Node1&#45;&gt;Node2 -->
<g id="edge1" class="edge"><title>Node1&#45;&gt;Node2</title>
<path fill="none" stroke="midnightblue" d="M132.404,-45.8173C149.361,-47.9737 167.47,-50.2765 183.902,-52.3662"/>
<polygon fill="midnightblue" stroke="midnightblue" points="183.53,-55.8469 193.891,-53.6365 184.413,-48.9028 183.53,-55.8469"/>
</g>
<!-- Node3 -->
<g id="node3" class="node"><title>Node3</title>
<g id="a_node3"><a xlink:href="classndt_1_1_address.html#a039941b95f601bcb673477c5cce50a2a" target="_top" xlink:title=" ">
<polygon fill="white" stroke="black" points="168,-0.5 168,-30.5 314,-30.5 314,-0.5 168,-0.5"/>
<text text-anchor="start" x="176" y="-18.5" font-family="Helvetica,sans-Serif" font-size="10.00">ndt::Address::validateAddress</text>
<text text-anchor="middle" x="241" y="-7.5" font-family="Helvetica,sans-Serif" font-size="10.00">Family</text>
</a>
</g>
</g>
<!-- Node1&#45;&gt;Node3 -->
<g id="edge2" class="edge"><title>Node1&#45;&gt;Node3</title>
<path fill="none" stroke="midnightblue" d="M132.404,-29.1827C140.725,-28.1245 149.324,-27.031 157.867,-25.9447"/>
<polygon fill="midnightblue" stroke="midnightblue" points="158.369,-29.409 167.848,-24.6754 157.486,-22.465 158.369,-29.409"/>
</g>
</g>
</svg>
