<?xml version="1.0" encoding="UTF-8" standalone="no"?>
<!DOCTYPE svg PUBLIC "-//W3C//DTD SVG 1.1//EN"
 "http://www.w3.org/Graphics/SVG/1.1/DTD/svg11.dtd">
<!-- Generated by graphviz version 2.38.0 (20140413.2041)
 -->
<!-- Title: ndt::Packet::deserializeRestImpl Pages: 1 -->
<svg width="611pt" height="39pt"
 viewBox="0.00 0.00 611.00 39.00" xmlns="http://www.w3.org/2000/svg" xmlns:xlink="http://www.w3.org/1999/xlink">
<g id="graph0" class="graph" transform="scale(1 1) rotate(0) translate(4 35)">
<title>ndt::Packet::deserializeRestImpl</title>
<polygon fill="white" stroke="none" points="-4,4 -4,-35 607,-35 607,4 -4,4"/>
<!-- Node1 -->
<g id="node1" class="node"><title>Node1</title>
<g id="a_node1"><a xlink:title=" ">
<polygon fill="#bfbfbf" stroke="black" points="0,-0.5 0,-30.5 119,-30.5 119,-0.5 0,-0.5"/>
<text text-anchor="start" x="8" y="-18.5" font-family="Helvetica,sans-Serif" font-size="10.00">ndt::Packet::deserialize</text>
<text text-anchor="middle" x="59.5" y="-7.5" font-family="Helvetica,sans-Serif" font-size="10.00">RestImpl</text>
</a>
</g>
</g>
<!-- Node2 -->
<g id="node2" class="node"><title>Node2</title>
<g id="a_node2"><a xlink:href="classndt_1_1_packet.html#a003df760bc78df38c1782cc264c86ad6" target="_top" xlink:title=" ">
<polygon fill="white" stroke="black" points="155,-6 155,-25 292,-25 292,-6 155,-6"/>
<text text-anchor="middle" x="223.5" y="-13" font-family="Helvetica,sans-Serif" font-size="10.00">ndt::Packet::deserializeImpl</text>
</a>
</g>
</g>
<!-- Node1&#45;&gt;Node2 -->
<g id="edge1" class="edge"><title>Node1&#45;&gt;Node2</title>
<path fill="none" stroke="midnightblue" d="M119.444,-8.97752C127.612,-8.80508 136.105,-8.73066 144.552,-8.75426"/>
<polygon fill="midnightblue" stroke="midnightblue" points="144.784,-12.256 154.81,-8.83166 144.837,-5.25621 144.784,-12.256"/>
</g>
<!-- Node2&#45;&gt;Node1 -->
<g id="edge5" class="edge"><title>Node2&#45;&gt;Node1</title>
<path fill="none" stroke="midnightblue" d="M154.81,-22.1683C146.459,-22.2716 137.914,-22.2769 129.543,-22.1842"/>
<polygon fill="midnightblue" stroke="midnightblue" points="129.499,-18.6831 119.444,-22.0225 129.387,-25.6822 129.499,-18.6831"/>
</g>
<!-- Node3 -->
<g id="node3" class="node"><title>Node3</title>
<g id="a_node3"><a xlink:href="classndt_1_1_packet.html#abde9cbf58bcfb75579c8f6a77c796a48" target="_top" xlink:title=" ">
<polygon fill="white" stroke="black" points="328,-6 328,-25 447,-25 447,-6 328,-6"/>
<text text-anchor="middle" x="387.5" y="-13" font-family="Helvetica,sans-Serif" font-size="10.00">ndt::Packet::deserialize</text>
</a>
</g>
</g>
<!-- Node2&#45;&gt;Node3 -->
<g id="edge2" class="edge"><title>Node2&#45;&gt;Node3</title>
<path fill="none" stroke="midnightblue" d="M292.264,-8.83075C300.647,-8.72764 309.225,-8.72328 317.624,-8.81767"/>
<polygon fill="midnightblue" stroke="midnightblue" points="317.701,-12.3193 327.757,-8.98178 317.815,-5.32019 317.701,-12.3193"/>
</g>
<!-- Node3&#45;&gt;Node2 -->
<g id="edge3" class="edge"><title>Node3&#45;&gt;Node2</title>
<path fill="none" stroke="midnightblue" d="M327.757,-22.0182C319.473,-22.1948 310.853,-22.2705 302.281,-22.2453"/>
<polygon fill="midnightblue" stroke="midnightblue" points="302.29,-18.7453 292.264,-22.1693 302.237,-25.7451 302.29,-18.7453"/>
</g>
<!-- Node4 -->
<g id="node4" class="node"><title>Node4</title>
<g id="a_node4"><a xlink:href="classndt_1_1_packet.html#a62767a474cdc55944dc130fd21a8d6d9" target="_top" xlink:title=" ">
<polygon fill="white" stroke="black" points="483,-6 483,-25 603,-25 603,-6 483,-6"/>
<text text-anchor="middle" x="543" y="-13" font-family="Helvetica,sans-Serif" font-size="10.00">ndt::Packet::minBitSize</text>
</a>
</g>
</g>
<!-- Node3&#45;&gt;Node4 -->
<g id="edge4" class="edge"><title>Node3&#45;&gt;Node4</title>
<path fill="none" stroke="midnightblue" d="M447.408,-15.5C455.703,-15.5 464.292,-15.5 472.758,-15.5"/>
<polygon fill="midnightblue" stroke="midnightblue" points="472.996,-19.0001 482.996,-15.5 472.996,-12.0001 472.996,-19.0001"/>
</g>
</g>
</svg>
