<?xml version="1.0" encoding="UTF-8" standalone="no"?>
<!DOCTYPE svg PUBLIC "-//W3C//DTD SVG 1.1//EN"
 "http://www.w3.org/Graphics/SVG/1.1/DTD/svg11.dtd">
<!-- Generated by graphviz version 2.38.0 (20140413.2041)
 -->
<!-- Title: ndt::details::BinBase::checkIsAlignedSizeAvailable Pages: 1 -->
<svg width="483pt" height="127pt"
 viewBox="0.00 0.00 483.00 126.50" xmlns="http://www.w3.org/2000/svg" xmlns:xlink="http://www.w3.org/1999/xlink">
<g id="graph0" class="graph" transform="scale(1 1) rotate(0) translate(4 122.5)">
<title>ndt::details::BinBase::checkIsAlignedSizeAvailable</title>
<polygon fill="white" stroke="none" points="-4,4 -4,-122.5 479,-122.5 479,4 -4,4"/>
<!-- Node1 -->
<g id="node1" class="node"><title>Node1</title>
<g id="a_node1"><a xlink:title=" ">
<polygon fill="#bfbfbf" stroke="black" points="0,-17 0,-47 146,-47 146,-17 0,-17"/>
<text text-anchor="start" x="8" y="-35" font-family="Helvetica,sans-Serif" font-size="10.00">ndt::details::BinBase</text>
<text text-anchor="middle" x="73" y="-24" font-family="Helvetica,sans-Serif" font-size="10.00">::checkIsAlignedSizeAvailable</text>
</a>
</g>
</g>
<!-- Node2 -->
<g id="node2" class="node"><title>Node2</title>
<g id="a_node2"><a xlink:href="classndt_1_1details_1_1_bin_base.html#a32db1cdc99552b23587f4b962ad0bfae" target="_top" xlink:title=" ">
<polygon fill="white" stroke="black" points="184,-39 184,-69 291,-69 291,-39 184,-39"/>
<text text-anchor="start" x="192" y="-57" font-family="Helvetica,sans-Serif" font-size="10.00">ndt::details::BinBase</text>
<text text-anchor="middle" x="237.5" y="-46" font-family="Helvetica,sans-Serif" font-size="10.00">::bitsLeft</text>
</a>
</g>
</g>
<!-- Node1&#45;&gt;Node2 -->
<g id="edge1" class="edge"><title>Node1&#45;&gt;Node2</title>
<path fill="none" stroke="midnightblue" d="M146.221,-41.7776C155.459,-43.0283 164.855,-44.3004 173.923,-45.528"/>
<polygon fill="midnightblue" stroke="midnightblue" points="173.616,-49.0183 183.995,-46.8916 174.555,-42.0816 173.616,-49.0183"/>
</g>
<!-- Node5 -->
<g id="node5" class="node"><title>Node5</title>
<g id="a_node5"><a xlink:href="namespacendt.html#ad4c1e716b25fd6e4ad568edd93a2e518" target="_top" xlink:title=" ">
<polygon fill="white" stroke="black" points="182,-0.5 182,-19.5 293,-19.5 293,-0.5 182,-0.5"/>
<text text-anchor="middle" x="237.5" y="-7.5" font-family="Helvetica,sans-Serif" font-size="10.00">ndt::make_error_code</text>
</a>
</g>
</g>
<!-- Node1&#45;&gt;Node5 -->
<g id="edge4" class="edge"><title>Node1&#45;&gt;Node5</title>
<path fill="none" stroke="midnightblue" d="M146.221,-22.2224C154.658,-21.0802 163.226,-19.9201 171.556,-18.7924"/>
<polygon fill="midnightblue" stroke="midnightblue" points="172.133,-22.2463 181.573,-17.4362 171.194,-15.3095 172.133,-22.2463"/>
</g>
<!-- Node3 -->
<g id="node3" class="node"><title>Node3</title>
<g id="a_node3"><a xlink:href="classndt_1_1details_1_1_bin_base.html#a1e0698c6540db0474281feaee67a2345" target="_top" xlink:title=" ">
<polygon fill="white" stroke="black" points="348.5,-88 348.5,-118 455.5,-118 455.5,-88 348.5,-88"/>
<text text-anchor="start" x="356.5" y="-106" font-family="Helvetica,sans-Serif" font-size="10.00">ndt::details::BinBase</text>
<text text-anchor="middle" x="402" y="-95" font-family="Helvetica,sans-Serif" font-size="10.00">::bitCapacity</text>
</a>
</g>
</g>
<!-- Node2&#45;&gt;Node3 -->
<g id="edge2" class="edge"><title>Node2&#45;&gt;Node3</title>
<path fill="none" stroke="midnightblue" d="M288.581,-69.1014C305.186,-74.1083 323.837,-79.7324 341.104,-84.939"/>
<polygon fill="midnightblue" stroke="midnightblue" points="340.499,-88.4123 351.084,-87.9484 342.52,-81.7104 340.499,-88.4123"/>
</g>
<!-- Node4 -->
<g id="node4" class="node"><title>Node4</title>
<g id="a_node4"><a xlink:href="classndt_1_1details_1_1_bin_base.html#abded7eb670b36266e1b34a83fc7e4289" target="_top" xlink:title=" ">
<polygon fill="white" stroke="black" points="348.5,-39 348.5,-69 455.5,-69 455.5,-39 348.5,-39"/>
<text text-anchor="start" x="356.5" y="-57" font-family="Helvetica,sans-Serif" font-size="10.00">ndt::details::BinBase</text>
<text text-anchor="middle" x="402" y="-46" font-family="Helvetica,sans-Serif" font-size="10.00">::bitSize</text>
</a>
</g>
</g>
<!-- Node2&#45;&gt;Node4 -->
<g id="edge3" class="edge"><title>Node2&#45;&gt;Node4</title>
<path fill="none" stroke="midnightblue" d="M291.259,-54C306.235,-54 322.69,-54 338.198,-54"/>
<polygon fill="midnightblue" stroke="midnightblue" points="338.228,-57.5001 348.228,-54 338.228,-50.5001 338.228,-57.5001"/>
</g>
<!-- Node6 -->
<g id="node6" class="node"><title>Node6</title>
<g id="a_node6"><a xlink:href="namespacendt.html#afb00545aff91ded0f81e30a6dfde4608" target="_top" xlink:title=" ">
<polygon fill="white" stroke="black" points="329,-0.5 329,-19.5 475,-19.5 475,-0.5 329,-0.5"/>
<text text-anchor="middle" x="402" y="-7.5" font-family="Helvetica,sans-Serif" font-size="10.00">ndt::getAddressErrorCategory</text>
</a>
</g>
</g>
<!-- Node5&#45;&gt;Node6 -->
<g id="edge5" class="edge"><title>Node5&#45;&gt;Node6</title>
<path fill="none" stroke="midnightblue" d="M293.062,-10C301.346,-10 310.046,-10 318.762,-10"/>
<polygon fill="midnightblue" stroke="midnightblue" points="318.976,-13.5001 328.976,-10 318.976,-6.5001 318.976,-13.5001"/>
</g>
</g>
</svg>
