<?xml version="1.0" encoding="UTF-8" standalone="no"?>
<!DOCTYPE svg PUBLIC "-//W3C//DTD SVG 1.1//EN"
 "http://www.w3.org/Graphics/SVG/1.1/DTD/svg11.dtd">
<!-- Generated by graphviz version 2.38.0 (20140413.2041)
 -->
<!-- Title: ndt::Packet::deserializeImpl Pages: 1 -->
<svg width="300pt" height="78pt"
 viewBox="0.00 0.00 300.00 77.50" xmlns="http://www.w3.org/2000/svg" xmlns:xlink="http://www.w3.org/1999/xlink">
<g id="graph0" class="graph" transform="scale(1 1) rotate(0) translate(4 73.5)">
<title>ndt::Packet::deserializeImpl</title>
<polygon fill="white" stroke="none" points="-4,4 -4,-73.5 296,-73.5 296,4 -4,4"/>
<!-- Node1 -->
<g id="node1" class="node"><title>Node1</title>
<g id="a_node1"><a xlink:title=" ">
<polygon fill="#bfbfbf" stroke="black" points="155,-28 155,-47 292,-47 292,-28 155,-28"/>
<text text-anchor="middle" x="223.5" y="-35" font-family="Helvetica,sans-Serif" font-size="10.00">ndt::Packet::deserializeImpl</text>
</a>
</g>
</g>
<!-- Node2 -->
<g id="node2" class="node"><title>Node2</title>
<g id="a_node2"><a xlink:href="classndt_1_1_packet.html#abde9cbf58bcfb75579c8f6a77c796a48" target="_top" xlink:title=" ">
<polygon fill="white" stroke="black" points="0,-50 0,-69 119,-69 119,-50 0,-50"/>
<text text-anchor="middle" x="59.5" y="-57" font-family="Helvetica,sans-Serif" font-size="10.00">ndt::Packet::deserialize</text>
</a>
</g>
</g>
<!-- Node1&#45;&gt;Node2 -->
<g id="edge1" class="edge"><title>Node1&#45;&gt;Node2</title>
<path fill="none" stroke="midnightblue" d="M144.784,-41.3089C125.668,-43.8475 106.308,-46.9212 90.971,-49.9505"/>
<polygon fill="midnightblue" stroke="midnightblue" points="145.262,-44.7764 154.736,-40.0333 144.372,-37.8332 145.262,-44.7764"/>
</g>
<!-- Node3 -->
<g id="node3" class="node"><title>Node3</title>
<g id="a_node3"><a xlink:href="classndt_1_1_packet.html#a1d6ccd155f41c225fe0da277386f9b56" target="_top" xlink:title=" ">
<polygon fill="white" stroke="black" points="0,-0.5 0,-30.5 119,-30.5 119,-0.5 0,-0.5"/>
<text text-anchor="start" x="8" y="-18.5" font-family="Helvetica,sans-Serif" font-size="10.00">ndt::Packet::deserialize</text>
<text text-anchor="middle" x="59.5" y="-7.5" font-family="Helvetica,sans-Serif" font-size="10.00">RestImpl</text>
</a>
</g>
</g>
<!-- Node1&#45;&gt;Node3 -->
<g id="edge3" class="edge"><title>Node1&#45;&gt;Node3</title>
<path fill="none" stroke="midnightblue" d="M182.18,-26.0965C163.116,-22.6658 139.992,-19.3301 119.043,-16.9363"/>
<polygon fill="midnightblue" stroke="midnightblue" points="181.554,-29.5401 192.029,-27.9505 182.849,-22.6609 181.554,-29.5401"/>
</g>
<!-- Node2&#45;&gt;Node1 -->
<g id="edge2" class="edge"><title>Node2&#45;&gt;Node1</title>
<path fill="none" stroke="midnightblue" d="M129.026,-56.8723C150.998,-54.1427 174.225,-50.5661 192.029,-47.0495"/>
<polygon fill="midnightblue" stroke="midnightblue" points="128.558,-53.4033 119.043,-58.0637 129.387,-60.354 128.558,-53.4033"/>
</g>
<!-- Node3&#45;&gt;Node1 -->
<g id="edge4" class="edge"><title>Node3&#45;&gt;Node1</title>
<path fill="none" stroke="midnightblue" d="M129.376,-31.5358C137.775,-32.7709 146.353,-33.9314 154.736,-34.9667"/>
<polygon fill="midnightblue" stroke="midnightblue" points="129.656,-28.0383 119.243,-29.9957 128.604,-34.9588 129.656,-28.0383"/>
</g>
</g>
</svg>
