<?xml version="1.0" encoding="UTF-8" standalone="no"?>
<!DOCTYPE svg PUBLIC "-//W3C//DTD SVG 1.1//EN"
 "http://www.w3.org/Graphics/SVG/1.1/DTD/svg11.dtd">
<!-- Generated by graphviz version 2.38.0 (20140413.2041)
 -->
<!-- Title: ndt::BinReader::get Pages: 1 -->
<svg width="289pt" height="138pt"
 viewBox="0.00 0.00 289.00 137.50" xmlns="http://www.w3.org/2000/svg" xmlns:xlink="http://www.w3.org/1999/xlink">
<g id="graph0" class="graph" transform="scale(1 1) rotate(0) translate(4 133.5)">
<title>ndt::BinReader::get</title>
<polygon fill="white" stroke="none" points="-4,4 -4,-133.5 285,-133.5 285,4 -4,4"/>
<!-- Node1 -->
<g id="node1" class="node"><title>Node1</title>
<g id="a_node1"><a xlink:title=" ">
<polygon fill="#bfbfbf" stroke="black" points="0,-49.5 0,-68.5 101,-68.5 101,-49.5 0,-49.5"/>
<text text-anchor="middle" x="50.5" y="-56.5" font-family="Helvetica,sans-Serif" font-size="10.00">ndt::BinReader::get</text>
</a>
</g>
</g>
<!-- Node2 -->
<g id="node2" class="node"><title>Node2</title>
<g id="a_node2"><a xlink:href="classndt_1_1details_1_1_bin_base.html#ad3bb6c4752bbf39c6d46bd83566a7252" target="_top" xlink:title=" ">
<polygon fill="white" stroke="black" points="146,-99 146,-129 272,-129 272,-99 146,-99"/>
<text text-anchor="start" x="154" y="-117" font-family="Helvetica,sans-Serif" font-size="10.00">ndt::details::BinBase</text>
<text text-anchor="middle" x="209" y="-106" font-family="Helvetica,sans-Serif" font-size="10.00">&lt; BinReader &gt;::alignByte</text>
</a>
</g>
</g>
<!-- Node1&#45;&gt;Node2 -->
<g id="edge1" class="edge"><title>Node1&#45;&gt;Node2</title>
<path fill="none" stroke="midnightblue" d="M78.7602,-68.5803C99.8822,-76.0033 129.783,-86.5117 155.506,-95.5515"/>
<polygon fill="midnightblue" stroke="midnightblue" points="154.537,-98.921 165.132,-98.9346 156.858,-92.317 154.537,-98.921"/>
</g>
<!-- Node3 -->
<g id="node3" class="node"><title>Node3</title>
<g id="a_node3"><a xlink:href="classndt_1_1details_1_1_bin_base.html#a11c9cb886c406f480d51e221ae54fb51" target="_top" xlink:title=" ">
<polygon fill="white" stroke="black" points="137,-38.5 137,-79.5 281,-79.5 281,-38.5 137,-38.5"/>
<text text-anchor="start" x="145" y="-67.5" font-family="Helvetica,sans-Serif" font-size="10.00">ndt::details::BinBase</text>
<text text-anchor="start" x="145" y="-56.5" font-family="Helvetica,sans-Serif" font-size="10.00">&lt; BinReader &gt;::checkAligned</text>
<text text-anchor="middle" x="209" y="-45.5" font-family="Helvetica,sans-Serif" font-size="10.00">BufArgs</text>
</a>
</g>
</g>
<!-- Node1&#45;&gt;Node3 -->
<g id="edge2" class="edge"><title>Node1&#45;&gt;Node3</title>
<path fill="none" stroke="midnightblue" d="M101.018,-59C109.192,-59 117.852,-59 126.565,-59"/>
<polygon fill="midnightblue" stroke="midnightblue" points="126.791,-62.5001 136.791,-59 126.791,-55.5001 126.791,-62.5001"/>
</g>
<!-- Node4 -->
<g id="node4" class="node"><title>Node4</title>
<g id="a_node4"><a xlink:href="classndt_1_1_c_buffer.html#a6fb9c72cae488891feb8f76c851d0934" target="_top" xlink:title=" ">
<polygon fill="white" stroke="black" points="163,-0.5 163,-19.5 255,-19.5 255,-0.5 163,-0.5"/>
<text text-anchor="middle" x="209" y="-7.5" font-family="Helvetica,sans-Serif" font-size="10.00">ndt::CBuffer::data</text>
</a>
</g>
</g>
<!-- Node1&#45;&gt;Node4 -->
<g id="edge3" class="edge"><title>Node1&#45;&gt;Node4</title>
<path fill="none" stroke="midnightblue" d="M77.147,-49.4282C94.0412,-43.2652 116.708,-35.2651 137,-29 144.544,-26.6708 152.589,-24.3576 160.452,-22.1887"/>
<polygon fill="midnightblue" stroke="midnightblue" points="161.528,-25.5234 170.263,-19.5282 159.696,-18.7674 161.528,-25.5234"/>
</g>
</g>
</svg>
