<?xml version="1.0" encoding="UTF-8" standalone="no"?>
<!DOCTYPE svg PUBLIC "-//W3C//DTD SVG 1.1//EN"
 "http://www.w3.org/Graphics/SVG/1.1/DTD/svg11.dtd">
<!-- Generated by graphviz version 2.38.0 (20140413.2041)
 -->
<!-- Title: ndt::BinWriter::add Pages: 1 -->
<svg width="616pt" height="176pt"
 viewBox="0.00 0.00 616.00 175.50" xmlns="http://www.w3.org/2000/svg" xmlns:xlink="http://www.w3.org/1999/xlink">
<g id="graph0" class="graph" transform="scale(1 1) rotate(0) translate(4 171.5)">
<title>ndt::BinWriter::add</title>
<polygon fill="white" stroke="none" points="-4,4 -4,-171.5 612,-171.5 612,4 -4,4"/>
<!-- Node1 -->
<g id="node1" class="node"><title>Node1</title>
<g id="a_node1"><a xlink:title=" ">
<polygon fill="#bfbfbf" stroke="black" points="0,-79 0,-98 98,-98 98,-79 0,-79"/>
<text text-anchor="middle" x="49" y="-86" font-family="Helvetica,sans-Serif" font-size="10.00">ndt::BinWriter::add</text>
</a>
</g>
</g>
<!-- Node2 -->
<g id="node2" class="node"><title>Node2</title>
<g id="a_node2"><a xlink:href="classndt_1_1_bin_writer.html#a35faf9f5ca7d24f724b1d7443ef36aa6" target="_top" xlink:title=" ">
<polygon fill="white" stroke="black" points="157.5,-148 157.5,-167 255.5,-167 255.5,-148 157.5,-148"/>
<text text-anchor="middle" x="206.5" y="-155" font-family="Helvetica,sans-Serif" font-size="10.00">ndt::BinWriter::add</text>
</a>
</g>
</g>
<!-- Node1&#45;&gt;Node2 -->
<g id="edge1" class="edge"><title>Node1&#45;&gt;Node2</title>
<path fill="none" stroke="midnightblue" d="M63.3508,-98.0446C79.424,-109.148 107.564,-127.375 134,-138.5 139.749,-140.919 145.89,-143.104 152.067,-145.057"/>
<polygon fill="midnightblue" stroke="midnightblue" points="151.17,-148.442 161.753,-147.935 153.164,-141.732 151.17,-148.442"/>
</g>
<!-- Node5 -->
<g id="node5" class="node"><title>Node5</title>
<g id="a_node5"><a xlink:href="classndt_1_1details_1_1_bin_base.html#ad3bb6c4752bbf39c6d46bd83566a7252" target="_top" xlink:title=" ">
<polygon fill="white" stroke="black" points="145.5,-98.5 145.5,-128.5 267.5,-128.5 267.5,-98.5 145.5,-98.5"/>
<text text-anchor="start" x="153.5" y="-116.5" font-family="Helvetica,sans-Serif" font-size="10.00">ndt::details::BinBase</text>
<text text-anchor="middle" x="206.5" y="-105.5" font-family="Helvetica,sans-Serif" font-size="10.00">&lt; BinWriter &gt;::alignByte</text>
</a>
</g>
</g>
<!-- Node1&#45;&gt;Node5 -->
<g id="edge4" class="edge"><title>Node1&#45;&gt;Node5</title>
<path fill="none" stroke="midnightblue" d="M98.3488,-96.2731C110.097,-98.1619 122.896,-100.22 135.426,-102.234"/>
<polygon fill="midnightblue" stroke="midnightblue" points="134.963,-105.705 145.392,-103.836 136.074,-98.7933 134.963,-105.705"/>
</g>
<!-- Node6 -->
<g id="node6" class="node"><title>Node6</title>
<g id="a_node6"><a xlink:href="classndt_1_1details_1_1_bin_base.html#a826c1243331de5fe58843c0b914c42d5" target="_top" xlink:title=" ">
<polygon fill="white" stroke="black" points="137.5,-49.5 137.5,-79.5 275.5,-79.5 275.5,-49.5 137.5,-49.5"/>
<text text-anchor="start" x="145.5" y="-67.5" font-family="Helvetica,sans-Serif" font-size="10.00">ndt::details::BinBase</text>
<text text-anchor="middle" x="206.5" y="-56.5" font-family="Helvetica,sans-Serif" font-size="10.00">&lt; BinWriter &gt;::applyIndexes</text>
</a>
</g>
</g>
<!-- Node1&#45;&gt;Node6 -->
<g id="edge5" class="edge"><title>Node1&#45;&gt;Node6</title>
<path fill="none" stroke="midnightblue" d="M98.3488,-81.0378C107.643,-79.6033 117.595,-78.0673 127.551,-76.5307"/>
<polygon fill="midnightblue" stroke="midnightblue" points="128.135,-79.982 137.485,-74.9976 127.068,-73.064 128.135,-79.982"/>
</g>
<!-- Node7 -->
<g id="node7" class="node"><title>Node7</title>
<g id="a_node7"><a xlink:href="classndt_1_1details_1_1_bin_base.html#ad50d820fb924a413085e93e86381037c" target="_top" xlink:title=" ">
<polygon fill="white" stroke="black" points="134,-0.5 134,-30.5 279,-30.5 279,-0.5 134,-0.5"/>
<text text-anchor="start" x="142" y="-18.5" font-family="Helvetica,sans-Serif" font-size="10.00">ndt::details::BinBase</text>
<text text-anchor="middle" x="206.5" y="-7.5" font-family="Helvetica,sans-Serif" font-size="10.00">&lt; BinWriter &gt;::extractIndexes</text>
</a>
</g>
</g>
<!-- Node1&#45;&gt;Node7 -->
<g id="edge6" class="edge"><title>Node1&#45;&gt;Node7</title>
<path fill="none" stroke="midnightblue" d="M64.7372,-78.9745C81.177,-68.6135 108.783,-51.9966 134,-40.5 138.739,-38.3393 143.724,-36.2487 148.764,-34.2583"/>
<polygon fill="midnightblue" stroke="midnightblue" points="150.375,-37.3903 158.476,-30.562 147.885,-30.8481 150.375,-37.3903"/>
</g>
<!-- Node3 -->
<g id="node3" class="node"><title>Node3</title>
<g id="a_node3"><a xlink:href="namespacendt.html#ad4c1e716b25fd6e4ad568edd93a2e518" target="_top" xlink:title=" ">
<polygon fill="white" stroke="black" points="315,-148 315,-167 426,-167 426,-148 315,-148"/>
<text text-anchor="middle" x="370.5" y="-155" font-family="Helvetica,sans-Serif" font-size="10.00">ndt::make_error_code</text>
</a>
</g>
</g>
<!-- Node2&#45;&gt;Node3 -->
<g id="edge2" class="edge"><title>Node2&#45;&gt;Node3</title>
<path fill="none" stroke="midnightblue" d="M255.667,-157.5C271.114,-157.5 288.48,-157.5 304.905,-157.5"/>
<polygon fill="midnightblue" stroke="midnightblue" points="304.986,-161 314.986,-157.5 304.986,-154 304.986,-161"/>
</g>
<!-- Node4 -->
<g id="node4" class="node"><title>Node4</title>
<g id="a_node4"><a xlink:href="namespacendt.html#afb00545aff91ded0f81e30a6dfde4608" target="_top" xlink:title=" ">
<polygon fill="white" stroke="black" points="462,-148 462,-167 608,-167 608,-148 462,-148"/>
<text text-anchor="middle" x="535" y="-155" font-family="Helvetica,sans-Serif" font-size="10.00">ndt::getAddressErrorCategory</text>
</a>
</g>
</g>
<!-- Node3&#45;&gt;Node4 -->
<g id="edge3" class="edge"><title>Node3&#45;&gt;Node4</title>
<path fill="none" stroke="midnightblue" d="M426.062,-157.5C434.346,-157.5 443.046,-157.5 451.762,-157.5"/>
<polygon fill="midnightblue" stroke="midnightblue" points="451.976,-161 461.976,-157.5 451.976,-154 451.976,-161"/>
</g>
</g>
</svg>
