<?xml version="1.0" encoding="UTF-8" standalone="no"?>
<!DOCTYPE svg PUBLIC "-//W3C//DTD SVG 1.1//EN"
 "http://www.w3.org/Graphics/SVG/1.1/DTD/svg11.dtd">
<!-- Generated by graphviz version 2.38.0 (20140413.2041)
 -->
<!-- Title: ndt::SocketBase::handler Pages: 1 -->
<svg width="320pt" height="127pt"
 viewBox="0.00 0.00 320.00 126.50" xmlns="http://www.w3.org/2000/svg" xmlns:xlink="http://www.w3.org/1999/xlink">
<g id="graph0" class="graph" transform="scale(1 1) rotate(0) translate(4 122.5)">
<title>ndt::SocketBase::handler</title>
<polygon fill="white" stroke="none" points="-4,4 -4,-122.5 316,-122.5 316,4 -4,4"/>
<!-- Node1 -->
<g id="node1" class="node"><title>Node1</title>
<g id="a_node1"><a xlink:title=" ">
<polygon fill="#bfbfbf" stroke="black" points="185,-44.5 185,-63.5 312,-63.5 312,-44.5 185,-44.5"/>
<text text-anchor="middle" x="248.5" y="-51.5" font-family="Helvetica,sans-Serif" font-size="10.00">ndt::SocketBase::handler</text>
</a>
</g>
</g>
<!-- Node2 -->
<g id="node2" class="node"><title>Node2</title>
<g id="a_node2"><a xlink:href="classndt_1_1_executor_select_base.html#a635fd124ad6c4e0b2481c04283ea269f" target="_top" xlink:title=" ">
<polygon fill="white" stroke="black" points="12,-88 12,-118 137,-118 137,-88 12,-88"/>
<text text-anchor="start" x="20" y="-106" font-family="Helvetica,sans-Serif" font-size="10.00">ndt::ExecutorSelectBase</text>
<text text-anchor="middle" x="74.5" y="-95" font-family="Helvetica,sans-Serif" font-size="10.00">::addSocket</text>
</a>
</g>
</g>
<!-- Node1&#45;&gt;Node2 -->
<g id="edge1" class="edge"><title>Node1&#45;&gt;Node2</title>
<path fill="none" stroke="midnightblue" d="M204.094,-66.3657C181.064,-72.9265 152.583,-81.0403 128.283,-87.963"/>
<polygon fill="midnightblue" stroke="midnightblue" points="205.27,-69.67 213.928,-63.564 203.352,-62.9378 205.27,-69.67"/>
</g>
<!-- Node3 -->
<g id="node3" class="node"><title>Node3</title>
<g id="a_node3"><a xlink:href="classndt_1_1_executor_select_base.html#a638ef2e6d303d6414f4ded84d4f7e0d8" target="_top" xlink:title=" ">
<polygon fill="white" stroke="black" points="12,-39 12,-69 137,-69 137,-39 12,-39"/>
<text text-anchor="start" x="20" y="-57" font-family="Helvetica,sans-Serif" font-size="10.00">ndt::ExecutorSelectBase</text>
<text text-anchor="middle" x="74.5" y="-46" font-family="Helvetica,sans-Serif" font-size="10.00">::delSocket</text>
</a>
</g>
</g>
<!-- Node1&#45;&gt;Node3 -->
<g id="edge2" class="edge"><title>Node1&#45;&gt;Node3</title>
<path fill="none" stroke="midnightblue" d="M174.571,-54C162.12,-54 149.295,-54 137.173,-54"/>
<polygon fill="midnightblue" stroke="midnightblue" points="174.918,-57.5001 184.917,-54 174.917,-50.5001 174.918,-57.5001"/>
</g>
<!-- Node4 -->
<g id="node4" class="node"><title>Node4</title>
<g id="a_node4"><a xlink:href="classndt_1_1_socket_base.html#aaae8cd24f381f46d44cac237c4b191b4" target="_top" xlink:title=" ">
<polygon fill="white" stroke="black" points="0,-0.5 0,-19.5 149,-19.5 149,-0.5 0,-0.5"/>
<text text-anchor="middle" x="74.5" y="-7.5" font-family="Helvetica,sans-Serif" font-size="10.00">ndt::SocketBase::SocketBase</text>
</a>
</g>
</g>
<!-- Node1&#45;&gt;Node4 -->
<g id="edge3" class="edge"><title>Node1&#45;&gt;Node4</title>
<path fill="none" stroke="midnightblue" d="M200.35,-41.9383C172.764,-34.8815 138.427,-26.0976 112.749,-19.5287"/>
<polygon fill="midnightblue" stroke="midnightblue" points="199.623,-45.3651 210.179,-44.4527 201.358,-38.5834 199.623,-45.3651"/>
</g>
</g>
</svg>
