<?xml version="1.0" encoding="UTF-8" standalone="no"?>
<!DOCTYPE svg PUBLIC "-//W3C//DTD SVG 1.1//EN"
 "http://www.w3.org/Graphics/SVG/1.1/DTD/svg11.dtd">
<!-- Generated by graphviz version 2.38.0 (20140413.2041)
 -->
<!-- Title: ndt::SocketOps Pages: 1 -->
<!--zoomable 375 -->
<svg id="main" version="1.1" xmlns="http://www.w3.org/2000/svg" xmlns:xlink="http://www.w3.org/1999/xlink" xml:space="preserve" onload="init(evt)">
<style type="text/css"><![CDATA[
.edge:hover path { stroke: red; }
.edge:hover polygon { stroke: red; fill: red; }
]]></style>
<script type="text/javascript"><![CDATA[
var edges = document.getElementsByTagName('g');
if (edges && edges.length) {
  for (var i=0;i<edges.length;i++) {
    if (edges[i].id.substr(0,4)=='edge') {
      edges[i].setAttribute('class','edge');
    }
  }
}
]]></script>
        <defs>
                <circle id="rim" cx="0" cy="0" r="7"/>
                <circle id="rim2" cx="0" cy="0" r="3.5"/>
                <g id="zoomPlus">
                        <use xlink:href="#rim" fill="#404040">
                                <set attributeName="fill" to="#808080" begin="zoomplus.mouseover" end="zoomplus.mouseout"/>
                        </use>
                        <path d="M-4,0h8M0,-4v8" fill="none" stroke="white" stroke-width="1.5" pointer-events="none"/>
                </g>
                <g id="zoomMin">
                        <use xlink:href="#rim" fill="#404040">
                                <set attributeName="fill" to="#808080" begin="zoomminus.mouseover" end="zoomminus.mouseout"/>
                        </use>
                        <path d="M-4,0h8" fill="none" stroke="white" stroke-width="1.5" pointer-events="none"/>
                </g>
                <g id="dirArrow">
                        <path fill="none" stroke="white" stroke-width="1.5" d="M0,-3.0v7 M-2.5,-0.5L0,-3.0L2.5,-0.5"/>
                </g>
               <g id="resetDef">
                       <use xlink:href="#rim2" fill="#404040">
                               <set attributeName="fill" to="#808080" begin="reset.mouseover" end="reset.mouseout"/>
                       </use>
               </g>
        </defs>

<script type="text/javascript">
var viewWidth = 589;
var viewHeight = 375;
var sectionId = 'dynsection-0';
</script>
<script xlink:href="svgpan.js"/>
<svg id="graph" class="graph">
<g id="viewport">
<title>ndt::SocketOps</title>
<polygon fill="white" stroke="none" points="-4,4 -4,-371 585,-371 585,4 -4,4"/>
<!-- Node1 -->
<g id="node1" class="node"><title>Node1</title>
<g id="a_node1"><a xlink:title=" ">
<polygon fill="#bfbfbf" stroke="black" points="372,-0.5 372,-57.5 457,-57.5 457,-0.5 372,-0.5"/>
<text text-anchor="middle" x="414.5" y="-45.5" font-family="Helvetica,sans-Serif" font-size="10.00">ndt::SocketOps</text>
<polyline fill="none" stroke="black" points="372,-38.5 457,-38.5 "/>
<text text-anchor="middle" x="414.5" y="-26.5" font-family="Helvetica,sans-Serif" font-size="10.00"> </text>
<polyline fill="none" stroke="black" points="372,-19.5 457,-19.5 "/>
<text text-anchor="middle" x="414.5" y="-7.5" font-family="Helvetica,sans-Serif" font-size="10.00"> </text>
</a>
</g>
</g>
<!-- Node2 -->
<g id="node2" class="node"><title>Node2</title>
<g id="a_node2"><a xlink:href="structndt_1_1_no_constructible_no_destructible.html" target="_top" xlink:title=" ">
<polygon fill="white" stroke="black" points="176,-138.5 176,-195.5 345,-195.5 345,-138.5 176,-138.5"/>
<text text-anchor="middle" x="260.5" y="-183.5" font-family="Helvetica,sans-Serif" font-size="10.00">ndt::NoConstructibleNoDestructible</text>
<polyline fill="none" stroke="black" points="176,-176.5 345,-176.5 "/>
<text text-anchor="middle" x="260.5" y="-164.5" font-family="Helvetica,sans-Serif" font-size="10.00"> </text>
<polyline fill="none" stroke="black" points="176,-157.5 345,-157.5 "/>
<text text-anchor="middle" x="260.5" y="-145.5" font-family="Helvetica,sans-Serif" font-size="10.00"> </text>
</a>
</g>
</g>
<!-- Node2&#45;&gt;Node1 -->
<g id="edge1" class="edge"><title>Node2&#45;&gt;Node1</title>
<path fill="none" stroke="midnightblue" d="M299.438,-131.613C325.344,-108.736 358.928,-79.0767 383.118,-57.7138"/>
<polygon fill="none" stroke="midnightblue" points="296.843,-129.235 291.664,-138.478 301.477,-134.482 296.843,-129.235"/>
</g>
<!-- Node3 -->
<g id="node3" class="node"><title>Node3</title>
<g id="a_node3"><a xlink:href="structndt_1_1_no_default_constructible.html" target="_top" xlink:title=" ">
<polygon fill="white" stroke="black" points="0,-293 0,-350 135,-350 135,-293 0,-293"/>
<text text-anchor="middle" x="67.5" y="-338" font-family="Helvetica,sans-Serif" font-size="10.00">ndt::NoDefaultConstructible</text>
<polyline fill="none" stroke="black" points="0,-331 135,-331 "/>
<text text-anchor="middle" x="67.5" y="-319" font-family="Helvetica,sans-Serif" font-size="10.00"> </text>
<polyline fill="none" stroke="black" points="0,-312 135,-312 "/>
<text text-anchor="start" x="8" y="-300" font-family="Helvetica,sans-Serif" font-size="10.00">+ NoDefaultConstructible()</text>
</a>
</g>
</g>
<!-- Node3&#45;&gt;Node2 -->
<g id="edge2" class="edge"><title>Node3&#45;&gt;Node2</title>
<path fill="none" stroke="midnightblue" d="M110.504,-286.52C145.126,-259.163 193.181,-221.193 225.484,-195.668"/>
<polygon fill="none" stroke="midnightblue" points="108.127,-283.937 102.451,-292.883 112.467,-289.43 108.127,-283.937"/>
</g>
<!-- Node4 -->
<g id="node4" class="node"><title>Node4</title>
<g id="a_node4"><a xlink:href="structndt_1_1_no_destructible.html" target="_top" xlink:title=" ">
<polygon fill="white" stroke="black" points="153,-293 153,-350 254,-350 254,-293 153,-293"/>
<text text-anchor="middle" x="203.5" y="-338" font-family="Helvetica,sans-Serif" font-size="10.00">ndt::NoDestructible</text>
<polyline fill="none" stroke="black" points="153,-331 254,-331 "/>
<text text-anchor="middle" x="203.5" y="-319" font-family="Helvetica,sans-Serif" font-size="10.00"> </text>
<polyline fill="none" stroke="black" points="153,-312 254,-312 "/>
<text text-anchor="start" x="161" y="-300" font-family="Helvetica,sans-Serif" font-size="10.00">+ ~NoDestructible()</text>
</a>
</g>
</g>
<!-- Node4&#45;&gt;Node2 -->
<g id="edge3" class="edge"><title>Node4&#45;&gt;Node2</title>
<path fill="none" stroke="midnightblue" d="M217.382,-283.359C227.497,-256.297 240.98,-220.223 250.158,-195.668"/>
<polygon fill="none" stroke="midnightblue" points="214.045,-282.291 213.822,-292.883 220.602,-284.742 214.045,-282.291"/>
</g>
<!-- Node5 -->
<g id="node5" class="node"><title>Node5</title>
<g id="a_node5"><a xlink:href="structndt_1_1_no_copy_able.html" target="_top" xlink:title=" ">
<polygon fill="white" stroke="black" points="272.5,-276.5 272.5,-366.5 364.5,-366.5 364.5,-276.5 272.5,-276.5"/>
<text text-anchor="middle" x="318.5" y="-354.5" font-family="Helvetica,sans-Serif" font-size="10.00">ndt::NoCopyAble</text>
<polyline fill="none" stroke="black" points="272.5,-347.5 364.5,-347.5 "/>
<text text-anchor="middle" x="318.5" y="-335.5" font-family="Helvetica,sans-Serif" font-size="10.00"> </text>
<polyline fill="none" stroke="black" points="272.5,-328.5 364.5,-328.5 "/>
<text text-anchor="start" x="280.5" y="-316.5" font-family="Helvetica,sans-Serif" font-size="10.00">+ NoCopyAble()</text>
<text text-anchor="start" x="280.5" y="-305.5" font-family="Helvetica,sans-Serif" font-size="10.00">+ ~NoCopyAble()</text>
<text text-anchor="start" x="280.5" y="-294.5" font-family="Helvetica,sans-Serif" font-size="10.00">+ NoCopyAble()</text>
<text text-anchor="start" x="280.5" y="-283.5" font-family="Helvetica,sans-Serif" font-size="10.00">+ operator=()</text>
</a>
</g>
</g>
<!-- Node5&#45;&gt;Node2 -->
<g id="edge4" class="edge"><title>Node5&#45;&gt;Node2</title>
<path fill="none" stroke="midnightblue" d="M298.156,-267.01C289.005,-242.948 278.587,-215.557 271.033,-195.694"/>
<polygon fill="none" stroke="midnightblue" points="294.898,-268.288 301.724,-276.391 301.44,-265.8 294.898,-268.288"/>
</g>
<!-- Node6 -->
<g id="node6" class="node"><title>Node6</title>
<g id="a_node6"><a xlink:href="structndt_1_1_no_move_able.html" target="_top" xlink:title=" ">
<polygon fill="white" stroke="black" points="382.5,-276.5 382.5,-366.5 474.5,-366.5 474.5,-276.5 382.5,-276.5"/>
<text text-anchor="middle" x="428.5" y="-354.5" font-family="Helvetica,sans-Serif" font-size="10.00">ndt::NoMoveAble</text>
<polyline fill="none" stroke="black" points="382.5,-347.5 474.5,-347.5 "/>
<text text-anchor="middle" x="428.5" y="-335.5" font-family="Helvetica,sans-Serif" font-size="10.00"> </text>
<polyline fill="none" stroke="black" points="382.5,-328.5 474.5,-328.5 "/>
<text text-anchor="start" x="390.5" y="-316.5" font-family="Helvetica,sans-Serif" font-size="10.00">+ NoMoveAble()</text>
<text text-anchor="start" x="390.5" y="-305.5" font-family="Helvetica,sans-Serif" font-size="10.00">+ ~NoMoveAble()</text>
<text text-anchor="start" x="390.5" y="-294.5" font-family="Helvetica,sans-Serif" font-size="10.00">+ NoMoveAble()</text>
<text text-anchor="start" x="390.5" y="-283.5" font-family="Helvetica,sans-Serif" font-size="10.00">+ operator=()</text>
</a>
</g>
</g>
<!-- Node6&#45;&gt;Node2 -->
<g id="edge5" class="edge"><title>Node6&#45;&gt;Node2</title>
<path fill="none" stroke="midnightblue" d="M374.48,-271.464C346.778,-246.317 314.068,-216.626 290.811,-195.514"/>
<polygon fill="none" stroke="midnightblue" points="372.392,-274.295 382.149,-278.425 377.097,-269.112 372.392,-274.295"/>
</g>
<!-- Node7 -->
<g id="node7" class="node"><title>Node7</title>
<g id="a_node7"><a xlink:href="classndt_1_1_sys_socket_ops.html" target="_top" xlink:title=" ">
<polygon fill="white" stroke="black" points="363.5,-94.5 363.5,-239.5 465.5,-239.5 465.5,-94.5 363.5,-94.5"/>
<text text-anchor="middle" x="414.5" y="-227.5" font-family="Helvetica,sans-Serif" font-size="10.00">ndt::SysSocketOps</text>
<polyline fill="none" stroke="black" points="363.5,-220.5 465.5,-220.5 "/>
<text text-anchor="middle" x="414.5" y="-208.5" font-family="Helvetica,sans-Serif" font-size="10.00"> </text>
<polyline fill="none" stroke="black" points="363.5,-201.5 465.5,-201.5 "/>
<text text-anchor="start" x="371.5" y="-189.5" font-family="Helvetica,sans-Serif" font-size="10.00">+ bind()</text>
<text text-anchor="start" x="371.5" y="-178.5" font-family="Helvetica,sans-Serif" font-size="10.00">+ recvfrom()</text>
<text text-anchor="start" x="371.5" y="-167.5" font-family="Helvetica,sans-Serif" font-size="10.00">+ sendto()</text>
<text text-anchor="start" x="371.5" y="-156.5" font-family="Helvetica,sans-Serif" font-size="10.00">+ socket()</text>
<text text-anchor="start" x="371.5" y="-145.5" font-family="Helvetica,sans-Serif" font-size="10.00">+ close()</text>
<text text-anchor="start" x="371.5" y="-134.5" font-family="Helvetica,sans-Serif" font-size="10.00">+ inet_ntop()</text>
<text text-anchor="start" x="371.5" y="-123.5" font-family="Helvetica,sans-Serif" font-size="10.00">+ inet_pton()</text>
<text text-anchor="start" x="371.5" y="-112.5" font-family="Helvetica,sans-Serif" font-size="10.00">+ select()</text>
<text text-anchor="start" x="371.5" y="-101.5" font-family="Helvetica,sans-Serif" font-size="10.00">+ fcntl()</text>
</a>
</g>
</g>
<!-- Node7&#45;&gt;Node1 -->
<g id="edge6" class="edge"><title>Node7&#45;&gt;Node1</title>
<path fill="none" stroke="midnightblue" d="M414.5,-84.3871C414.5,-74.8611 414.5,-65.7068 414.5,-57.7138"/>
<polygon fill="none" stroke="midnightblue" points="411,-84.4155 414.5,-94.4155 418,-84.4156 411,-84.4155"/>
</g>
<!-- Node8 -->
<g id="node8" class="node"><title>Node8</title>
<g id="a_node8"><a xlink:href="classndt_1_1_sys_error_code.html" target="_top" xlink:title=" ">
<polygon fill="white" stroke="black" points="484,-138.5 484,-195.5 581,-195.5 581,-138.5 484,-138.5"/>
<text text-anchor="middle" x="532.5" y="-183.5" font-family="Helvetica,sans-Serif" font-size="10.00">ndt::SysErrorCode</text>
<polyline fill="none" stroke="black" points="484,-176.5 581,-176.5 "/>
<text text-anchor="middle" x="532.5" y="-164.5" font-family="Helvetica,sans-Serif" font-size="10.00"> </text>
<polyline fill="none" stroke="black" points="484,-157.5 581,-157.5 "/>
<text text-anchor="start" x="492" y="-145.5" font-family="Helvetica,sans-Serif" font-size="10.00">+ lastErrorCode()</text>
</a>
</g>
</g>
<!-- Node8&#45;&gt;Node1 -->
<g id="edge7" class="edge"><title>Node8&#45;&gt;Node1</title>
<path fill="none" stroke="midnightblue" d="M504.662,-130.363C495.266,-118.627 484.597,-105.614 474.5,-94 463.908,-81.8164 451.8,-68.7496 441.249,-57.62"/>
<polygon fill="none" stroke="midnightblue" points="501.975,-132.607 510.942,-138.251 507.452,-128.247 501.975,-132.607"/>
</g>
</g>
</svg>
        <g id="navigator" transform="translate(0 0)" fill="#404254">
                <rect fill="#f2f5e9" fill-opacity="0.5" stroke="#606060" stroke-width=".5" x="0" y="0" width="60" height="60"/>
                <use id="zoomplus" xlink:href="#zoomPlus" x="17" y="9" onmousedown="handleZoom(evt,'in')"/>
                <use id="zoomminus" xlink:href="#zoomMin" x="42" y="9" onmousedown="handleZoom(evt,'out')"/>
                <use id="reset" xlink:href="#resetDef" x="30" y="36" onmousedown="handleReset()"/>
                <g id="arrowUp" xlink:href="#dirArrow" transform="translate(30 24)" onmousedown="handlePan(0,-1)">
                  <use xlink:href="#rim" fill="#404040">
                        <set attributeName="fill" to="#808080" begin="arrowUp.mouseover" end="arrowUp.mouseout"/>
                  </use>
                  <path fill="none" stroke="white" stroke-width="1.5" d="M0,-3.0v7 M-2.5,-0.5L0,-3.0L2.5,-0.5"/>
                </g>
                <g id="arrowRight" xlink:href="#dirArrow" transform="rotate(90) translate(36 -43)" onmousedown="handlePan(1,0)">
                  <use xlink:href="#rim" fill="#404040">
                        <set attributeName="fill" to="#808080" begin="arrowRight.mouseover" end="arrowRight.mouseout"/>
                  </use>
                  <path fill="none" stroke="white" stroke-width="1.5" d="M0,-3.0v7 M-2.5,-0.5L0,-3.0L2.5,-0.5"/>
                </g>
                <g id="arrowDown" xlink:href="#dirArrow" transform="rotate(180) translate(-30 -48)" onmousedown="handlePan(0,1)">
                  <use xlink:href="#rim" fill="#404040">
                        <set attributeName="fill" to="#808080" begin="arrowDown.mouseover" end="arrowDown.mouseout"/>
                  </use>
                  <path fill="none" stroke="white" stroke-width="1.5" d="M0,-3.0v7 M-2.5,-0.5L0,-3.0L2.5,-0.5"/>
                </g>
                <g id="arrowLeft" xlink:href="#dirArrow" transform="rotate(270) translate(-36 17)" onmousedown="handlePan(-1,0)">
                  <use xlink:href="#rim" fill="#404040">
                        <set attributeName="fill" to="#808080" begin="arrowLeft.mouseover" end="arrowLeft.mouseout"/>
                  </use>
                  <path fill="none" stroke="white" stroke-width="1.5" d="M0,-3.0v7 M-2.5,-0.5L0,-3.0L2.5,-0.5"/>
                </g>
        </g>
        <svg viewBox="0 0 15 15" width="100%" height="30px" preserveAspectRatio="xMaxYMin meet">
         <g id="arrow_out" transform="scale(0.3 0.3)">
          <a xlink:href="classndt_1_1_socket_ops__inherit__graph_org.svg" target="_base">
           <rect id="button" ry="5" rx="5" y="6" x="6" height="38" width="38"
                fill="#f2f5e9" fill-opacity="0.5" stroke="#606060" stroke-width="1.0"/>
           <path id="arrow"
             d="M 11.500037,31.436501 C 11.940474,20.09759 22.043105,11.32322 32.158766,21.979434 L 37.068811,17.246167 C 37.068811,17.246167 37.088388,32 37.088388,32 L 22.160133,31.978069 C 22.160133,31.978069 26.997745,27.140456 26.997745,27.140456 C 18.528582,18.264221 13.291696,25.230495 11.500037,31.436501 z"
             style="fill:#404040;"/>
          </a>
         </g>
        </svg>
</svg>
