<?xml version="1.0" encoding="UTF-8" standalone="no"?>
<!DOCTYPE svg PUBLIC "-//W3C//DTD SVG 1.1//EN"
 "http://www.w3.org/Graphics/SVG/1.1/DTD/svg11.dtd">
<!-- Generated by graphviz version 2.38.0 (20140413.2041)
 -->
<!-- Title: ndt::Socket::Socket Pages: 1 -->
<svg width="529pt" height="104pt"
 viewBox="0.00 0.00 529.00 104.00" xmlns="http://www.w3.org/2000/svg" xmlns:xlink="http://www.w3.org/1999/xlink">
<g id="graph0" class="graph" transform="scale(1 1) rotate(0) translate(4 100)">
<title>ndt::Socket::Socket</title>
<polygon fill="white" stroke="none" points="-4,4 -4,-100 525,-100 525,4 -4,4"/>
<!-- Node1 -->
<g id="node1" class="node"><title>Node1</title>
<g id="a_node1"><a xlink:title=" ">
<polygon fill="#bfbfbf" stroke="black" points="0,-38.5 0,-57.5 104,-57.5 104,-38.5 0,-38.5"/>
<text text-anchor="middle" x="52" y="-45.5" font-family="Helvetica,sans-Serif" font-size="10.00">ndt::Socket::Socket</text>
</a>
</g>
</g>
<!-- Node2 -->
<g id="node2" class="node"><title>Node2</title>
<g id="a_node2"><a xlink:href="classndt_1_1_socket.html#a5b1fb8238de80b0ad69e63053e4da7b7" target="_top" xlink:title=" ">
<polygon fill="white" stroke="black" points="286,-76.5 286,-95.5 377,-95.5 377,-76.5 286,-76.5"/>
<text text-anchor="middle" x="331.5" y="-83.5" font-family="Helvetica,sans-Serif" font-size="10.00">ndt::Socket::bind</text>
</a>
</g>
</g>
<!-- Node1&#45;&gt;Node2 -->
<g id="edge1" class="edge"><title>Node1&#45;&gt;Node2</title>
<path fill="none" stroke="midnightblue" d="M92.2287,-57.5762C107.117,-60.9442 124.272,-64.5069 140,-67 185.309,-74.1824 237.137,-79.143 275.284,-82.1898"/>
<polygon fill="midnightblue" stroke="midnightblue" points="275.421,-85.7111 285.663,-82.9986 275.965,-78.7322 275.421,-85.7111"/>
</g>
<!-- Node4 -->
<g id="node4" class="node"><title>Node4</title>
<g id="a_node4"><a xlink:href="classndt_1_1_socket.html#ada7325a27938e937b2143901c5e50c18" target="_top" xlink:title=" ">
<polygon fill="white" stroke="black" points="140,-38.5 140,-57.5 236,-57.5 236,-38.5 140,-38.5"/>
<text text-anchor="middle" x="188" y="-45.5" font-family="Helvetica,sans-Serif" font-size="10.00">ndt::Socket::close</text>
</a>
</g>
</g>
<!-- Node1&#45;&gt;Node4 -->
<g id="edge3" class="edge"><title>Node1&#45;&gt;Node4</title>
<path fill="none" stroke="midnightblue" d="M104.042,-48C112.35,-48 121.005,-48 129.456,-48"/>
<polygon fill="midnightblue" stroke="midnightblue" points="129.626,-51.5001 139.626,-48 129.625,-44.5001 129.626,-51.5001"/>
</g>
<!-- Node6 -->
<g id="node6" class="node"><title>Node6</title>
<g id="a_node6"><a xlink:href="classndt_1_1_socket.html#ab5c375a16dedc44d203e4fab662a1a85" target="_top" xlink:title=" ">
<polygon fill="white" stroke="black" points="141,-0.5 141,-19.5 235,-19.5 235,-0.5 141,-0.5"/>
<text text-anchor="middle" x="188" y="-7.5" font-family="Helvetica,sans-Serif" font-size="10.00">ndt::Socket::open</text>
</a>
</g>
</g>
<!-- Node1&#45;&gt;Node6 -->
<g id="edge6" class="edge"><title>Node1&#45;&gt;Node6</title>
<path fill="none" stroke="midnightblue" d="M86.8139,-38.411C104.033,-33.5281 125.164,-27.5357 143.573,-22.315"/>
<polygon fill="midnightblue" stroke="midnightblue" points="144.531,-25.6815 153.197,-19.5859 142.621,-18.947 144.531,-25.6815"/>
</g>
<!-- Node3 -->
<g id="node3" class="node"><title>Node3</title>
<g id="a_node3"><a xlink:href="namespacendt.html#aa944f7db5d9dd6201e090a114718ef3b" target="_top" xlink:title=" ">
<polygon fill="white" stroke="black" points="427,-38.5 427,-57.5 521,-57.5 521,-38.5 427,-38.5"/>
<text text-anchor="middle" x="474" y="-45.5" font-family="Helvetica,sans-Serif" font-size="10.00">ndt::throw_if_error</text>
</a>
</g>
</g>
<!-- Node2&#45;&gt;Node3 -->
<g id="edge2" class="edge"><title>Node2&#45;&gt;Node3</title>
<path fill="none" stroke="midnightblue" d="M367.954,-76.411C386.091,-71.5056 408.368,-65.4804 427.733,-60.2429"/>
<polygon fill="midnightblue" stroke="midnightblue" points="428.818,-63.5754 437.557,-57.5859 426.99,-56.8182 428.818,-63.5754"/>
</g>
<!-- Node5 -->
<g id="node5" class="node"><title>Node5</title>
<g id="a_node5"><a xlink:href="classndt_1_1_socket_base.html#a3b264551313b54b15ea79c3753a7bd30" target="_top" xlink:title=" ">
<polygon fill="white" stroke="black" points="272,-38.5 272,-57.5 391,-57.5 391,-38.5 272,-38.5"/>
<text text-anchor="middle" x="331.5" y="-45.5" font-family="Helvetica,sans-Serif" font-size="10.00">ndt::SocketBase::close</text>
</a>
</g>
</g>
<!-- Node4&#45;&gt;Node5 -->
<g id="edge4" class="edge"><title>Node4&#45;&gt;Node5</title>
<path fill="none" stroke="midnightblue" d="M236.117,-48C244.323,-48 253.007,-48 261.654,-48"/>
<polygon fill="midnightblue" stroke="midnightblue" points="261.756,-51.5001 271.756,-48 261.756,-44.5001 261.756,-51.5001"/>
</g>
<!-- Node5&#45;&gt;Node3 -->
<g id="edge5" class="edge"><title>Node5&#45;&gt;Node3</title>
<path fill="none" stroke="midnightblue" d="M391.271,-48C399.717,-48 408.392,-48 416.787,-48"/>
<polygon fill="midnightblue" stroke="midnightblue" points="416.855,-51.5001 426.855,-48 416.855,-44.5001 416.855,-51.5001"/>
</g>
<!-- Node6&#45;&gt;Node3 -->
<g id="edge7" class="edge"><title>Node6&#45;&gt;Node3</title>
<path fill="none" stroke="midnightblue" d="M235.355,-12.59C276.443,-15.306 337.975,-20.4029 391,-29 402.603,-30.8813 415.01,-33.4561 426.571,-36.103"/>
<polygon fill="midnightblue" stroke="midnightblue" points="425.934,-39.5488 436.47,-38.4319 427.537,-32.7348 425.934,-39.5488"/>
</g>
</g>
</svg>
