<?xml version="1.0" encoding="UTF-8" standalone="no"?>
<!DOCTYPE svg PUBLIC "-//W3C//DTD SVG 1.1//EN"
 "http://www.w3.org/Graphics/SVG/1.1/DTD/svg11.dtd">
<!-- Generated by graphviz version 2.38.0 (20140413.2041)
 -->
<!-- Title: ndt::Packet::deserializeRestImpl Pages: 1 -->
<svg width="455pt" height="39pt"
 viewBox="0.00 0.00 455.00 39.00" xmlns="http://www.w3.org/2000/svg" xmlns:xlink="http://www.w3.org/1999/xlink">
<g id="graph0" class="graph" transform="scale(1 1) rotate(0) translate(4 35)">
<title>ndt::Packet::deserializeRestImpl</title>
<polygon fill="white" stroke="none" points="-4,4 -4,-35 451,-35 451,4 -4,4"/>
<!-- Node1 -->
<g id="node1" class="node"><title>Node1</title>
<g id="a_node1"><a xlink:title=" ">
<polygon fill="#bfbfbf" stroke="black" points="328,-0.5 328,-30.5 447,-30.5 447,-0.5 328,-0.5"/>
<text text-anchor="start" x="336" y="-18.5" font-family="Helvetica,sans-Serif" font-size="10.00">ndt::Packet::deserialize</text>
<text text-anchor="middle" x="387.5" y="-7.5" font-family="Helvetica,sans-Serif" font-size="10.00">RestImpl</text>
</a>
</g>
</g>
<!-- Node2 -->
<g id="node2" class="node"><title>Node2</title>
<g id="a_node2"><a xlink:href="classndt_1_1_packet.html#a003df760bc78df38c1782cc264c86ad6" target="_top" xlink:title=" ">
<polygon fill="white" stroke="black" points="155,-6 155,-25 292,-25 292,-6 155,-6"/>
<text text-anchor="middle" x="223.5" y="-13" font-family="Helvetica,sans-Serif" font-size="10.00">ndt::Packet::deserializeImpl</text>
</a>
</g>
</g>
<!-- Node1&#45;&gt;Node2 -->
<g id="edge1" class="edge"><title>Node1&#45;&gt;Node2</title>
<path fill="none" stroke="midnightblue" d="M317.457,-8.81579C309.086,-8.72306 300.541,-8.72835 292.19,-8.83166"/>
<polygon fill="midnightblue" stroke="midnightblue" points="317.501,-12.3169 327.556,-8.97752 317.613,-5.31776 317.501,-12.3169"/>
</g>
<!-- Node2&#45;&gt;Node1 -->
<g id="edge4" class="edge"><title>Node2&#45;&gt;Node1</title>
<path fill="none" stroke="midnightblue" d="M302.448,-22.2457C310.895,-22.2693 319.388,-22.1949 327.556,-22.0225"/>
<polygon fill="midnightblue" stroke="midnightblue" points="302.216,-18.744 292.19,-22.1683 302.163,-25.7438 302.216,-18.744"/>
</g>
<!-- Node3 -->
<g id="node3" class="node"><title>Node3</title>
<g id="a_node3"><a xlink:href="classndt_1_1_packet.html#abde9cbf58bcfb75579c8f6a77c796a48" target="_top" xlink:title=" ">
<polygon fill="white" stroke="black" points="0,-6 0,-25 119,-25 119,-6 0,-6"/>
<text text-anchor="middle" x="59.5" y="-13" font-family="Helvetica,sans-Serif" font-size="10.00">ndt::Packet::deserialize</text>
</a>
</g>
</g>
<!-- Node2&#45;&gt;Node3 -->
<g id="edge2" class="edge"><title>Node2&#45;&gt;Node3</title>
<path fill="none" stroke="midnightblue" d="M144.719,-8.75474C136.147,-8.72948 127.527,-8.80516 119.243,-8.98178"/>
<polygon fill="midnightblue" stroke="midnightblue" points="144.71,-12.2547 154.736,-8.83075 144.763,-5.25488 144.71,-12.2547"/>
</g>
<!-- Node3&#45;&gt;Node2 -->
<g id="edge3" class="edge"><title>Node3&#45;&gt;Node2</title>
<path fill="none" stroke="midnightblue" d="M129.376,-22.1823C137.775,-22.2767 146.353,-22.2724 154.736,-22.1693"/>
<polygon fill="midnightblue" stroke="midnightblue" points="129.299,-18.6807 119.243,-22.0182 129.185,-25.6798 129.299,-18.6807"/>
</g>
</g>
</svg>
