<?xml version="1.0" encoding="UTF-8" standalone="no"?>
<!DOCTYPE svg PUBLIC "-//W3C//DTD SVG 1.1//EN"
 "http://www.w3.org/Graphics/SVG/1.1/DTD/svg11.dtd">
<!-- Generated by graphviz version 2.38.0 (20140413.2041)
 -->
<!-- Title: ndt::BinReader::get Pages: 1 -->
<svg width="623pt" height="200pt"
 viewBox="0.00 0.00 623.00 199.51" xmlns="http://www.w3.org/2000/svg" xmlns:xlink="http://www.w3.org/1999/xlink">
<g id="graph0" class="graph" transform="scale(1 1) rotate(0) translate(4 195.509)">
<title>ndt::BinReader::get</title>
<polygon fill="white" stroke="none" points="-4,4 -4,-195.509 619,-195.509 619,4 -4,4"/>
<!-- Node1 -->
<g id="node1" class="node"><title>Node1</title>
<g id="a_node1"><a xlink:title=" ">
<polygon fill="#bfbfbf" stroke="black" points="0,-68.5093 0,-87.5093 101,-87.5093 101,-68.5093 0,-68.5093"/>
<text text-anchor="middle" x="50.5" y="-75.5093" font-family="Helvetica,sans-Serif" font-size="10.00">ndt::BinReader::get</text>
</a>
</g>
</g>
<!-- Node2 -->
<g id="node2" class="node"><title>Node2</title>
<g id="a_node2"><a xlink:href="classndt_1_1details_1_1_bin_base.html#ad3bb6c4752bbf39c6d46bd83566a7252" target="_top" xlink:title=" ">
<polygon fill="white" stroke="black" points="148.5,-161.009 148.5,-191.009 274.5,-191.009 274.5,-161.009 148.5,-161.009"/>
<text text-anchor="start" x="156.5" y="-179.009" font-family="Helvetica,sans-Serif" font-size="10.00">ndt::details::BinBase</text>
<text text-anchor="middle" x="211.5" y="-168.009" font-family="Helvetica,sans-Serif" font-size="10.00">&lt; BinReader &gt;::alignByte</text>
</a>
</g>
</g>
<!-- Node1&#45;&gt;Node2 -->
<g id="edge1" class="edge"><title>Node1&#45;&gt;Node2</title>
<path fill="none" stroke="midnightblue" d="M60.0521,-87.5514C74.4818,-103.118 105.213,-134.04 137,-152.009 140.073,-153.746 143.29,-155.38 146.589,-156.913"/>
<polygon fill="midnightblue" stroke="midnightblue" points="145.484,-160.247 156.054,-160.968 148.241,-153.812 145.484,-160.247"/>
</g>
<!-- Node3 -->
<g id="node3" class="node"><title>Node3</title>
<g id="a_node3"><a xlink:href="classndt_1_1details_1_1_bin_base.html#a826c1243331de5fe58843c0b914c42d5" target="_top" xlink:title=" ">
<polygon fill="white" stroke="black" points="140,-112.009 140,-142.009 283,-142.009 283,-112.009 140,-112.009"/>
<text text-anchor="start" x="148" y="-130.009" font-family="Helvetica,sans-Serif" font-size="10.00">ndt::details::BinBase</text>
<text text-anchor="middle" x="211.5" y="-119.009" font-family="Helvetica,sans-Serif" font-size="10.00">&lt; BinReader &gt;::applyIndexes</text>
</a>
</g>
</g>
<!-- Node1&#45;&gt;Node3 -->
<g id="edge2" class="edge"><title>Node1&#45;&gt;Node3</title>
<path fill="none" stroke="midnightblue" d="M82.5343,-87.5733C102.313,-93.6685 128.563,-101.758 152.138,-109.024"/>
<polygon fill="midnightblue" stroke="midnightblue" points="151.119,-112.372 161.707,-111.972 153.181,-105.682 151.119,-112.372"/>
</g>
<!-- Node4 -->
<g id="node4" class="node"><title>Node4</title>
<g id="a_node4"><a xlink:href="classndt_1_1details_1_1_bin_base.html#ad50d820fb924a413085e93e86381037c" target="_top" xlink:title=" ">
<polygon fill="white" stroke="black" points="137,-63.0093 137,-93.0093 286,-93.0093 286,-63.0093 137,-63.0093"/>
<text text-anchor="start" x="145" y="-81.0093" font-family="Helvetica,sans-Serif" font-size="10.00">ndt::details::BinBase</text>
<text text-anchor="middle" x="211.5" y="-70.0093" font-family="Helvetica,sans-Serif" font-size="10.00">&lt; BinReader &gt;::extractIndexes</text>
</a>
</g>
</g>
<!-- Node1&#45;&gt;Node4 -->
<g id="edge3" class="edge"><title>Node1&#45;&gt;Node4</title>
<path fill="none" stroke="midnightblue" d="M101.372,-78.0093C109.489,-78.0093 118.087,-78.0093 126.752,-78.0093"/>
<polygon fill="midnightblue" stroke="midnightblue" points="126.931,-81.5094 136.931,-78.0093 126.931,-74.5094 126.931,-81.5094"/>
</g>
<!-- Node5 -->
<g id="node5" class="node"><title>Node5</title>
<g id="a_node5"><a xlink:href="classndt_1_1_bin_reader.html#abe942576a40e5581bb6d6e4b94a9046d" target="_top" xlink:title=" ">
<polygon fill="white" stroke="black" points="161,-24.5093 161,-43.5093 262,-43.5093 262,-24.5093 161,-24.5093"/>
<text text-anchor="middle" x="211.5" y="-31.5093" font-family="Helvetica,sans-Serif" font-size="10.00">ndt::BinReader::get</text>
</a>
</g>
</g>
<!-- Node1&#45;&gt;Node5 -->
<g id="edge4" class="edge"><title>Node1&#45;&gt;Node5</title>
<path fill="none" stroke="midnightblue" d="M85.1877,-68.4862C100.921,-64.0556 119.911,-58.7328 137,-54.0093 146.271,-51.4468 156.207,-48.7259 165.682,-46.1435"/>
<polygon fill="midnightblue" stroke="midnightblue" points="166.611,-49.5179 175.341,-43.515 164.773,-42.7635 166.611,-49.5179"/>
</g>
<!-- Node6 -->
<g id="node6" class="node"><title>Node6</title>
<g id="a_node6"><a xlink:href="namespacendt.html#ad4c1e716b25fd6e4ad568edd93a2e518" target="_top" xlink:title=" ">
<polygon fill="white" stroke="black" points="322,-5.50928 322,-24.5093 433,-24.5093 433,-5.50928 322,-5.50928"/>
<text text-anchor="middle" x="377.5" y="-12.5093" font-family="Helvetica,sans-Serif" font-size="10.00">ndt::make_error_code</text>
</a>
</g>
</g>
<!-- Node1&#45;&gt;Node6 -->
<g id="edge7" class="edge"><title>Node1&#45;&gt;Node6</title>
<path fill="none" stroke="midnightblue" d="M60.3368,-68.3758C74.701,-53.5131 104.77,-25.6012 137,-15.0093 193.793,3.65459 262.335,1.35464 311.517,-4.24873"/>
<polygon fill="midnightblue" stroke="midnightblue" points="311.357,-7.75502 321.706,-5.48822 312.202,-0.806236 311.357,-7.75502"/>
</g>
<!-- Node5&#45;&gt;Node6 -->
<g id="edge5" class="edge"><title>Node5&#45;&gt;Node6</title>
<path fill="none" stroke="midnightblue" d="M262.15,-28.2571C277.765,-26.4481 295.243,-24.4232 311.746,-22.5113"/>
<polygon fill="midnightblue" stroke="midnightblue" points="312.338,-25.9662 321.869,-21.3385 311.533,-19.0127 312.338,-25.9662"/>
</g>
<!-- Node7 -->
<g id="node7" class="node"><title>Node7</title>
<g id="a_node7"><a xlink:href="namespacendt.html#afb00545aff91ded0f81e30a6dfde4608" target="_top" xlink:title=" ">
<polygon fill="white" stroke="black" points="469,-5.50928 469,-24.5093 615,-24.5093 615,-5.50928 469,-5.50928"/>
<text text-anchor="middle" x="542" y="-12.5093" font-family="Helvetica,sans-Serif" font-size="10.00">ndt::getAddressErrorCategory</text>
</a>
</g>
</g>
<!-- Node6&#45;&gt;Node7 -->
<g id="edge6" class="edge"><title>Node6&#45;&gt;Node7</title>
<path fill="none" stroke="midnightblue" d="M433.062,-15.0093C441.346,-15.0093 450.046,-15.0093 458.762,-15.0093"/>
<polygon fill="midnightblue" stroke="midnightblue" points="458.976,-18.5094 468.976,-15.0093 458.976,-11.5094 458.976,-18.5094"/>
</g>
</g>
</svg>
