<?xml version="1.0" encoding="UTF-8" standalone="no"?>
<!DOCTYPE svg PUBLIC "-//W3C//DTD SVG 1.1//EN"
 "http://www.w3.org/Graphics/SVG/1.1/DTD/svg11.dtd">
<!-- Generated by graphviz version 2.38.0 (20140413.2041)
 -->
<!-- Title: ndt::SocketBase::sendTo Pages: 1 -->
<svg width="489pt" height="154pt"
 viewBox="0.00 0.00 489.00 154.00" xmlns="http://www.w3.org/2000/svg" xmlns:xlink="http://www.w3.org/1999/xlink">
<g id="graph0" class="graph" transform="scale(1 1) rotate(0) translate(4 150)">
<title>ndt::SocketBase::sendTo</title>
<polygon fill="white" stroke="none" points="-4,4 -4,-150 485,-150 485,4 -4,4"/>
<!-- Node1 -->
<g id="node1" class="node"><title>Node1</title>
<g id="a_node1"><a xlink:title=" ">
<polygon fill="#bfbfbf" stroke="black" points="0,-66.5 0,-85.5 127,-85.5 127,-66.5 0,-66.5"/>
<text text-anchor="middle" x="63.5" y="-73.5" font-family="Helvetica,sans-Serif" font-size="10.00">ndt::SocketBase::sendTo</text>
</a>
</g>
</g>
<!-- Node2 -->
<g id="node2" class="node"><title>Node2</title>
<g id="a_node2"><a xlink:href="classndt_1_1_address.html#a893029bdda2b65cb2f8cde7ac474843e" target="_top" xlink:title=" ">
<polygon fill="white" stroke="black" points="167,-126.5 167,-145.5 282,-145.5 282,-126.5 167,-126.5"/>
<text text-anchor="middle" x="224.5" y="-133.5" font-family="Helvetica,sans-Serif" font-size="10.00">ndt::Address::capacity</text>
</a>
</g>
</g>
<!-- Node1&#45;&gt;Node2 -->
<g id="edge1" class="edge"><title>Node1&#45;&gt;Node2</title>
<path fill="none" stroke="midnightblue" d="M85.8012,-85.5207C105.605,-94.2151 136.024,-107.172 163,-117 168.974,-119.176 175.331,-121.338 181.595,-123.38"/>
<polygon fill="midnightblue" stroke="midnightblue" points="180.702,-126.769 191.293,-126.476 182.831,-120.1 180.702,-126.769"/>
</g>
<!-- Node4 -->
<g id="node4" class="node"><title>Node4</title>
<g id="a_node4"><a xlink:href="classndt_1_1_c_buffer.html#a6fb9c72cae488891feb8f76c851d0934" target="_top" xlink:title=" ">
<polygon fill="white" stroke="black" points="178.5,-88.5 178.5,-107.5 270.5,-107.5 270.5,-88.5 178.5,-88.5"/>
<text text-anchor="middle" x="224.5" y="-95.5" font-family="Helvetica,sans-Serif" font-size="10.00">ndt::CBuffer::data</text>
</a>
</g>
</g>
<!-- Node1&#45;&gt;Node4 -->
<g id="edge3" class="edge"><title>Node1&#45;&gt;Node4</title>
<path fill="none" stroke="midnightblue" d="M127.341,-84.695C140.766,-86.5525 154.854,-88.5018 167.98,-90.318"/>
<polygon fill="midnightblue" stroke="midnightblue" points="167.884,-93.838 178.269,-91.7417 168.843,-86.904 167.884,-93.838"/>
</g>
<!-- Node5 -->
<g id="node5" class="node"><title>Node5</title>
<g id="a_node5"><a xlink:href="classndt_1_1_address.html#afad222ab59fe303a0c642cdc80676ee1" target="_top" xlink:title=" ">
<polygon fill="white" stroke="black" points="163,-39 163,-69 286,-69 286,-39 163,-39"/>
<text text-anchor="start" x="171" y="-57" font-family="Helvetica,sans-Serif" font-size="10.00">ndt::Address::nativeData</text>
<text text-anchor="middle" x="224.5" y="-46" font-family="Helvetica,sans-Serif" font-size="10.00">Const</text>
</a>
</g>
</g>
<!-- Node1&#45;&gt;Node5 -->
<g id="edge4" class="edge"><title>Node1&#45;&gt;Node5</title>
<path fill="none" stroke="midnightblue" d="M127.341,-67.305C135.764,-66.1396 144.447,-64.9381 152.991,-63.756"/>
<polygon fill="midnightblue" stroke="midnightblue" points="153.506,-67.2182 162.932,-62.3805 152.546,-60.2842 153.506,-67.2182"/>
</g>
<!-- Node6 -->
<g id="node6" class="node"><title>Node6</title>
<g id="a_node6"><a xlink:href="classndt_1_1_c_buffer.html#a70cd219c950171a07e978f31bbefc314" target="_top" xlink:title=" ">
<polygon fill="white" stroke="black" points="178.5,-0.5 178.5,-19.5 270.5,-19.5 270.5,-0.5 178.5,-0.5"/>
<text text-anchor="middle" x="224.5" y="-7.5" font-family="Helvetica,sans-Serif" font-size="10.00">ndt::CBuffer::size</text>
</a>
</g>
</g>
<!-- Node1&#45;&gt;Node6 -->
<g id="edge5" class="edge"><title>Node1&#45;&gt;Node6</title>
<path fill="none" stroke="midnightblue" d="M83.4591,-66.3315C103.081,-56.5191 134.76,-41.217 163,-30 169.286,-27.5032 176.02,-25.0583 182.63,-22.7828"/>
<polygon fill="midnightblue" stroke="midnightblue" points="183.793,-26.0845 192.159,-19.5839 181.565,-19.4485 183.793,-26.0845"/>
</g>
<!-- Node3 -->
<g id="node3" class="node"><title>Node3</title>
<g id="a_node3"><a xlink:href="classndt_1_1_address.html#acc3c23480a74e90b63d75e15c3300040" target="_top" xlink:title=" ">
<polygon fill="white" stroke="black" points="322,-126.5 322,-145.5 481,-145.5 481,-126.5 322,-126.5"/>
<text text-anchor="middle" x="401.5" y="-133.5" font-family="Helvetica,sans-Serif" font-size="10.00">ndt::Address::addressFamilySys</text>
</a>
</g>
</g>
<!-- Node2&#45;&gt;Node3 -->
<g id="edge2" class="edge"><title>Node2&#45;&gt;Node3</title>
<path fill="none" stroke="midnightblue" d="M282.317,-136C291.651,-136 301.517,-136 311.41,-136"/>
<polygon fill="midnightblue" stroke="midnightblue" points="311.709,-139.5 321.709,-136 311.709,-132.5 311.709,-139.5"/>
</g>
</g>
</svg>
