<?xml version="1.0" encoding="UTF-8" standalone="no"?>
<!DOCTYPE svg PUBLIC "-//W3C//DTD SVG 1.1//EN"
 "http://www.w3.org/Graphics/SVG/1.1/DTD/svg11.dtd">
<!-- Generated by graphviz version 2.38.0 (20140413.2041)
 -->
<!-- Title: ndt::Address::reset Pages: 1 -->
<svg width="641pt" height="66pt"
 viewBox="0.00 0.00 641.00 66.00" xmlns="http://www.w3.org/2000/svg" xmlns:xlink="http://www.w3.org/1999/xlink">
<g id="graph0" class="graph" transform="scale(1 1) rotate(0) translate(4 62)">
<title>ndt::Address::reset</title>
<polygon fill="white" stroke="none" points="-4,4 -4,-62 637,-62 637,4 -4,4"/>
<!-- Node1 -->
<g id="node1" class="node"><title>Node1</title>
<g id="a_node1"><a xlink:title=" ">
<polygon fill="#bfbfbf" stroke="black" points="533,-19.5 533,-38.5 633,-38.5 633,-19.5 533,-19.5"/>
<text text-anchor="middle" x="583" y="-26.5" font-family="Helvetica,sans-Serif" font-size="10.00">ndt::Address::reset</text>
</a>
</g>
</g>
<!-- Node2 -->
<g id="node2" class="node"><title>Node2</title>
<g id="a_node2"><a xlink:href="classndt_1_1_address.html#ae40f211c43c0d6a45b6e6728db27097b" target="_top" xlink:title=" ">
<polygon fill="white" stroke="black" points="383,-19.5 383,-38.5 497,-38.5 497,-19.5 383,-19.5"/>
<text text-anchor="middle" x="440" y="-26.5" font-family="Helvetica,sans-Serif" font-size="10.00">ndt::Address::Address</text>
</a>
</g>
</g>
<!-- Node1&#45;&gt;Node2 -->
<g id="edge1" class="edge"><title>Node1&#45;&gt;Node2</title>
<path fill="none" stroke="midnightblue" d="M522.596,-29C514.21,-29 505.609,-29 497.284,-29"/>
<polygon fill="midnightblue" stroke="midnightblue" points="522.685,-32.5001 532.685,-29 522.685,-25.5001 522.685,-32.5001"/>
</g>
<!-- Node3 -->
<g id="node3" class="node"><title>Node3</title>
<g id="a_node3"><a xlink:href="namespacendt.html#ab8891ed023a4bc139e70e0724c94d1b9" target="_top" xlink:title=" ">
<polygon fill="white" stroke="black" points="264,-19.5 264,-38.5 347,-38.5 347,-19.5 264,-19.5"/>
<text text-anchor="middle" x="305.5" y="-26.5" font-family="Helvetica,sans-Serif" font-size="10.00">ndt::deserialize</text>
</a>
</g>
</g>
<!-- Node2&#45;&gt;Node3 -->
<g id="edge2" class="edge"><title>Node2&#45;&gt;Node3</title>
<path fill="none" stroke="midnightblue" d="M372.62,-29C363.912,-29 355.207,-29 347.107,-29"/>
<polygon fill="midnightblue" stroke="midnightblue" points="372.808,-32.5001 382.808,-29 372.808,-25.5001 372.808,-32.5001"/>
</g>
<!-- Node4 -->
<g id="node4" class="node"><title>Node4</title>
<g id="a_node4"><a xlink:href="namespacendt.html#a659a3c1ff9f586346cfbc6198f531f7e" target="_top" xlink:title=" ">
<polygon fill="white" stroke="black" points="132,-38.5 132,-57.5 215,-57.5 215,-38.5 132,-38.5"/>
<text text-anchor="middle" x="173.5" y="-45.5" font-family="Helvetica,sans-Serif" font-size="10.00">ndt::deserialize</text>
</a>
</g>
</g>
<!-- Node3&#45;&gt;Node4 -->
<g id="edge3" class="edge"><title>Node3&#45;&gt;Node4</title>
<path fill="none" stroke="midnightblue" d="M253.677,-36.4279C240.894,-38.2962 227.342,-40.2769 215.131,-42.0616"/>
<polygon fill="midnightblue" stroke="midnightblue" points="254.335,-39.8691 263.724,-34.9596 253.323,-32.9426 254.335,-39.8691"/>
</g>
<!-- Node5 -->
<g id="node5" class="node"><title>Node5</title>
<g id="a_node5"><a xlink:href="namespacendt.html#a9f58b21d1594e31cdbd6aa8c7c2ad34d" target="_top" xlink:title=" ">
<polygon fill="white" stroke="black" points="119,-0.5 119,-19.5 228,-19.5 228,-0.5 119,-0.5"/>
<text text-anchor="middle" x="173.5" y="-7.5" font-family="Helvetica,sans-Serif" font-size="10.00">ndt::deserializeStruct</text>
</a>
</g>
</g>
<!-- Node3&#45;&gt;Node5 -->
<g id="edge4" class="edge"><title>Node3&#45;&gt;Node5</title>
<path fill="none" stroke="midnightblue" d="M253.663,-21.5699C245.246,-20.3397 236.496,-19.0609 228.015,-17.8214"/>
<polygon fill="midnightblue" stroke="midnightblue" points="253.323,-25.0574 263.724,-23.0404 254.335,-18.1309 253.323,-25.0574"/>
</g>
<!-- Node6 -->
<g id="node6" class="node"><title>Node6</title>
<g id="a_node6"><a xlink:href="namespacendt.html#ab788b02adea235a3fd072ee0624cac01" target="_top" xlink:title=" ">
<polygon fill="white" stroke="black" points="0,-0.5 0,-19.5 83,-19.5 83,-0.5 0,-0.5"/>
<text text-anchor="middle" x="41.5" y="-7.5" font-family="Helvetica,sans-Serif" font-size="10.00">ndt::deserialize</text>
</a>
</g>
</g>
<!-- Node5&#45;&gt;Node6 -->
<g id="edge5" class="edge"><title>Node5&#45;&gt;Node6</title>
<path fill="none" stroke="midnightblue" d="M108.754,-10C100.09,-10 91.3971,-10 83.29,-10"/>
<polygon fill="midnightblue" stroke="midnightblue" points="108.874,-13.5001 118.873,-10 108.873,-6.5001 108.874,-13.5001"/>
</g>
</g>
</svg>
