<?xml version="1.0" encoding="UTF-8" standalone="no"?>
<!DOCTYPE svg PUBLIC "-//W3C//DTD SVG 1.1//EN"
 "http://www.w3.org/Graphics/SVG/1.1/DTD/svg11.dtd">
<!-- Generated by graphviz version 2.38.0 (20140413.2041)
 -->
<!-- Title: ndt::Address::Address Pages: 1 -->
<svg width="448pt" height="66pt"
 viewBox="0.00 0.00 448.00 66.00" xmlns="http://www.w3.org/2000/svg" xmlns:xlink="http://www.w3.org/1999/xlink">
<g id="graph0" class="graph" transform="scale(1 1) rotate(0) translate(4 62)">
<title>ndt::Address::Address</title>
<polygon fill="white" stroke="none" points="-4,4 -4,-62 444,-62 444,4 -4,4"/>
<!-- Node1 -->
<g id="node1" class="node"><title>Node1</title>
<g id="a_node1"><a xlink:title=" ">
<polygon fill="#bfbfbf" stroke="black" points="0,-19.5 0,-38.5 114,-38.5 114,-19.5 0,-19.5"/>
<text text-anchor="middle" x="57" y="-26.5" font-family="Helvetica,sans-Serif" font-size="10.00">ndt::Address::Address</text>
</a>
</g>
</g>
<!-- Node2 -->
<g id="node2" class="node"><title>Node2</title>
<g id="a_node2"><a xlink:href="classndt_1_1_address.html#a21976875e9d17b6e8f3f5dff3d1e9c52" target="_top" xlink:title=" ">
<polygon fill="white" stroke="black" points="154.5,-38.5 154.5,-57.5 240.5,-57.5 240.5,-38.5 154.5,-38.5"/>
<text text-anchor="middle" x="197.5" y="-45.5" font-family="Helvetica,sans-Serif" font-size="10.00">ndt::Address::ip</text>
</a>
</g>
</g>
<!-- Node1&#45;&gt;Node2 -->
<g id="edge1" class="edge"><title>Node1&#45;&gt;Node2</title>
<path fill="none" stroke="midnightblue" d="M114.333,-36.728C124.227,-38.0853 134.486,-39.4926 144.262,-40.8338"/>
<polygon fill="midnightblue" stroke="midnightblue" points="143.857,-44.3109 154.24,-42.2026 144.809,-37.3759 143.857,-44.3109"/>
</g>
<!-- Node4 -->
<g id="node4" class="node"><title>Node4</title>
<g id="a_node4"><a xlink:href="classndt_1_1_address.html#a9c2ee0c32fa700698319bce9408cfbeb" target="_top" xlink:title=" ">
<polygon fill="white" stroke="black" points="150,-0.5 150,-19.5 245,-19.5 245,-0.5 150,-0.5"/>
<text text-anchor="middle" x="197.5" y="-7.5" font-family="Helvetica,sans-Serif" font-size="10.00">ndt::Address::port</text>
</a>
</g>
</g>
<!-- Node1&#45;&gt;Node4 -->
<g id="edge3" class="edge"><title>Node1&#45;&gt;Node4</title>
<path fill="none" stroke="midnightblue" d="M114.333,-21.272C122.746,-20.1179 131.422,-18.9277 139.841,-17.7727"/>
<polygon fill="midnightblue" stroke="midnightblue" points="140.517,-21.2129 149.948,-16.3862 139.565,-14.2779 140.517,-21.2129"/>
</g>
<!-- Node3 -->
<g id="node3" class="node"><title>Node3</title>
<g id="a_node3"><a xlink:href="classndt_1_1_address.html#acc3c23480a74e90b63d75e15c3300040" target="_top" xlink:title=" ">
<polygon fill="white" stroke="black" points="281,-38.5 281,-57.5 440,-57.5 440,-38.5 281,-38.5"/>
<text text-anchor="middle" x="360.5" y="-45.5" font-family="Helvetica,sans-Serif" font-size="10.00">ndt::Address::addressFamilySys</text>
</a>
</g>
</g>
<!-- Node2&#45;&gt;Node3 -->
<g id="edge2" class="edge"><title>Node2&#45;&gt;Node3</title>
<path fill="none" stroke="midnightblue" d="M240.801,-48C250.12,-48 260.329,-48 270.724,-48"/>
<polygon fill="midnightblue" stroke="midnightblue" points="270.724,-51.5001 280.724,-48 270.724,-44.5001 270.724,-51.5001"/>
</g>
</g>
</svg>
