<?xml version="1.0" encoding="UTF-8" standalone="no"?>
<!DOCTYPE svg PUBLIC "-//W3C//DTD SVG 1.1//EN"
 "http://www.w3.org/Graphics/SVG/1.1/DTD/svg11.dtd">
<!-- Generated by graphviz version 2.38.0 (20140413.2041)
 -->
<!-- Title: ndt::Buffer::data Pages: 1 -->
<svg width="265pt" height="66pt"
 viewBox="0.00 0.00 265.00 66.00" xmlns="http://www.w3.org/2000/svg" xmlns:xlink="http://www.w3.org/1999/xlink">
<g id="graph0" class="graph" transform="scale(1 1) rotate(0) translate(4 62)">
<title>ndt::Buffer::data</title>
<polygon fill="white" stroke="none" points="-4,4 -4,-62 261,-62 261,4 -4,4"/>
<!-- Node1 -->
<g id="node1" class="node"><title>Node1</title>
<g id="a_node1"><a xlink:title=" ">
<polygon fill="#bfbfbf" stroke="black" points="171,-19.5 171,-38.5 257,-38.5 257,-19.5 171,-19.5"/>
<text text-anchor="middle" x="214" y="-26.5" font-family="Helvetica,sans-Serif" font-size="10.00">ndt::Buffer::data</text>
</a>
</g>
</g>
<!-- Node2 -->
<g id="node2" class="node"><title>Node2</title>
<g id="a_node2"><a xlink:href="classndt_1_1_bin_writer.html#a6b04cf7321baa4e68c7626beff4f294a" target="_top" xlink:title=" ">
<polygon fill="white" stroke="black" points="18.5,-38.5 18.5,-57.5 116.5,-57.5 116.5,-38.5 18.5,-38.5"/>
<text text-anchor="middle" x="67.5" y="-45.5" font-family="Helvetica,sans-Serif" font-size="10.00">ndt::BinWriter::add</text>
</a>
</g>
</g>
<!-- Node1&#45;&gt;Node2 -->
<g id="edge1" class="edge"><title>Node1&#45;&gt;Node2</title>
<path fill="none" stroke="midnightblue" d="M160.586,-35.8918C146.211,-37.7819 130.701,-39.8214 116.582,-41.6778"/>
<polygon fill="midnightblue" stroke="midnightblue" points="161.358,-39.3205 170.816,-34.5467 160.445,-32.3803 161.358,-39.3205"/>
</g>
<!-- Node3 -->
<g id="node3" class="node"><title>Node3</title>
<g id="a_node3"><a xlink:href="classndt_1_1_socket_base.html#a89b3f475873b6752d846e7330cf575a5" target="_top" xlink:title=" ">
<polygon fill="white" stroke="black" points="0,-0.5 0,-19.5 135,-19.5 135,-0.5 0,-0.5"/>
<text text-anchor="middle" x="67.5" y="-7.5" font-family="Helvetica,sans-Serif" font-size="10.00">ndt::SocketBase::recvFrom</text>
</a>
</g>
</g>
<!-- Node1&#45;&gt;Node3 -->
<g id="edge2" class="edge"><title>Node1&#45;&gt;Node3</title>
<path fill="none" stroke="midnightblue" d="M160.877,-22.1465C152.544,-21.0508 143.822,-19.904 135.207,-18.7711"/>
<polygon fill="midnightblue" stroke="midnightblue" points="160.445,-25.6197 170.816,-23.4533 161.358,-18.6795 160.445,-25.6197"/>
</g>
</g>
</svg>
