<?xml version="1.0" encoding="UTF-8" standalone="no"?>
<!DOCTYPE svg PUBLIC "-//W3C//DTD SVG 1.1//EN"
 "http://www.w3.org/Graphics/SVG/1.1/DTD/svg11.dtd">
<!-- Generated by graphviz version 2.38.0 (20140413.2041)
 -->
<!-- Title: ndt::BinWriter::add Pages: 1 -->
<svg width="482pt" height="85pt"
 viewBox="0.00 0.00 482.00 85.00" xmlns="http://www.w3.org/2000/svg" xmlns:xlink="http://www.w3.org/1999/xlink">
<g id="graph0" class="graph" transform="scale(1 1) rotate(0) translate(4 81)">
<title>ndt::BinWriter::add</title>
<polygon fill="white" stroke="none" points="-4,4 -4,-81 478,-81 478,4 -4,4"/>
<!-- Node1 -->
<g id="node1" class="node"><title>Node1</title>
<g id="a_node1"><a xlink:title=" ">
<polygon fill="#bfbfbf" stroke="black" points="376,-38.5 376,-57.5 474,-57.5 474,-38.5 376,-38.5"/>
<text text-anchor="middle" x="425" y="-45.5" font-family="Helvetica,sans-Serif" font-size="10.00">ndt::BinWriter::add</text>
</a>
</g>
</g>
<!-- Node2 -->
<g id="node2" class="node"><title>Node2</title>
<g id="a_node2"><a xlink:href="classndt_1_1_bin_writer.html#a54744a085035f18d67f710a7110ad779" target="_top" xlink:title=" ">
<polygon fill="white" stroke="black" points="242,-57.5 242,-76.5 340,-76.5 340,-57.5 242,-57.5"/>
<text text-anchor="middle" x="291" y="-64.5" font-family="Helvetica,sans-Serif" font-size="10.00">ndt::BinWriter::add</text>
</a>
</g>
</g>
<!-- Node1&#45;&gt;Node2 -->
<g id="edge1" class="edge"><title>Node1&#45;&gt;Node2</title>
<path fill="none" stroke="midnightblue" d="M365.988,-56.3502C357.382,-57.589 348.591,-58.8543 340.214,-60.0601"/>
<polygon fill="midnightblue" stroke="midnightblue" points="366.572,-59.8023 375.972,-54.9132 365.575,-52.8737 366.572,-59.8023"/>
</g>
<!-- Node3 -->
<g id="node3" class="node"><title>Node3</title>
<g id="a_node3"><a xlink:href="namespacendt.html#a0645da168cfe455888152aa94418b891" target="_top" xlink:title=" ">
<polygon fill="white" stroke="black" points="255,-19.5 255,-38.5 327,-38.5 327,-19.5 255,-19.5"/>
<text text-anchor="middle" x="291" y="-26.5" font-family="Helvetica,sans-Serif" font-size="10.00">ndt::serialize</text>
</a>
</g>
</g>
<!-- Node1&#45;&gt;Node3 -->
<g id="edge2" class="edge"><title>Node1&#45;&gt;Node3</title>
<path fill="none" stroke="midnightblue" d="M366.024,-39.655C352.859,-37.76 339.262,-35.8028 327.37,-34.0911"/>
<polygon fill="midnightblue" stroke="midnightblue" points="365.575,-43.1263 375.972,-41.0868 366.572,-36.1977 365.575,-43.1263"/>
</g>
<!-- Node4 -->
<g id="node4" class="node"><title>Node4</title>
<g id="a_node4"><a xlink:href="namespacendt.html#ab2e926bf2219d00b991bbc3f89c6c4ca" target="_top" xlink:title=" ">
<polygon fill="white" stroke="black" points="121,-38.5 121,-57.5 193,-57.5 193,-38.5 121,-38.5"/>
<text text-anchor="middle" x="157" y="-45.5" font-family="Helvetica,sans-Serif" font-size="10.00">ndt::serialize</text>
</a>
</g>
</g>
<!-- Node3&#45;&gt;Node4 -->
<g id="edge3" class="edge"><title>Node3&#45;&gt;Node4</title>
<path fill="none" stroke="midnightblue" d="M244.776,-35.5095C227.908,-37.9374 209.024,-40.6556 193.191,-42.9347"/>
<polygon fill="midnightblue" stroke="midnightblue" points="245.574,-38.9309 254.973,-34.0418 244.576,-32.0023 245.574,-38.9309"/>
</g>
<!-- Node5 -->
<g id="node5" class="node"><title>Node5</title>
<g id="a_node5"><a xlink:href="namespacendt.html#ac23d246ace5c15ad0d5d9690e59d5483" target="_top" xlink:title=" ">
<polygon fill="white" stroke="black" points="108,-0.5 108,-19.5 206,-19.5 206,-0.5 108,-0.5"/>
<text text-anchor="middle" x="157" y="-7.5" font-family="Helvetica,sans-Serif" font-size="10.00">ndt::serializeStruct</text>
</a>
</g>
</g>
<!-- Node3&#45;&gt;Node5 -->
<g id="edge4" class="edge"><title>Node3&#45;&gt;Node5</title>
<path fill="none" stroke="midnightblue" d="M244.799,-22.4938C232.325,-20.6982 218.746,-18.7437 206.113,-16.9254"/>
<polygon fill="midnightblue" stroke="midnightblue" points="244.576,-25.9977 254.973,-23.9582 245.574,-19.0691 244.576,-25.9977"/>
</g>
<!-- Node6 -->
<g id="node6" class="node"><title>Node6</title>
<g id="a_node6"><a xlink:href="namespacendt.html#ae59497fb4dad656d21ec0861a63af470" target="_top" xlink:title=" ">
<polygon fill="white" stroke="black" points="0,-0.5 0,-19.5 72,-19.5 72,-0.5 0,-0.5"/>
<text text-anchor="middle" x="36" y="-7.5" font-family="Helvetica,sans-Serif" font-size="10.00">ndt::serialize</text>
</a>
</g>
</g>
<!-- Node5&#45;&gt;Node6 -->
<g id="edge5" class="edge"><title>Node5&#45;&gt;Node6</title>
<path fill="none" stroke="midnightblue" d="M97.7104,-10C88.9427,-10 80.1399,-10 72.0641,-10"/>
<polygon fill="midnightblue" stroke="midnightblue" points="97.9412,-13.5001 107.941,-10 97.9411,-6.5001 97.9412,-13.5001"/>
</g>
</g>
</svg>
