<?xml version="1.0" encoding="UTF-8" standalone="no"?>
<!DOCTYPE svg PUBLIC "-//W3C//DTD SVG 1.1//EN"
 "http://www.w3.org/Graphics/SVG/1.1/DTD/svg11.dtd">
<!-- Generated by graphviz version 2.38.0 (20140413.2041)
 -->
<!-- Title: ndt::BinWriter::add Pages: 1 -->
<svg width="282pt" height="138pt"
 viewBox="0.00 0.00 282.00 137.50" xmlns="http://www.w3.org/2000/svg" xmlns:xlink="http://www.w3.org/1999/xlink">
<g id="graph0" class="graph" transform="scale(1 1) rotate(0) translate(4 133.5)">
<title>ndt::BinWriter::add</title>
<polygon fill="white" stroke="none" points="-4,4 -4,-133.5 278,-133.5 278,4 -4,4"/>
<!-- Node1 -->
<g id="node1" class="node"><title>Node1</title>
<g id="a_node1"><a xlink:title=" ">
<polygon fill="#bfbfbf" stroke="black" points="0,-49.5 0,-68.5 98,-68.5 98,-49.5 0,-49.5"/>
<text text-anchor="middle" x="49" y="-56.5" font-family="Helvetica,sans-Serif" font-size="10.00">ndt::BinWriter::add</text>
</a>
</g>
</g>
<!-- Node2 -->
<g id="node2" class="node"><title>Node2</title>
<g id="a_node2"><a xlink:href="classndt_1_1details_1_1_bin_base.html#ad3bb6c4752bbf39c6d46bd83566a7252" target="_top" xlink:title=" ">
<polygon fill="white" stroke="black" points="143,-99 143,-129 265,-129 265,-99 143,-99"/>
<text text-anchor="start" x="151" y="-117" font-family="Helvetica,sans-Serif" font-size="10.00">ndt::details::BinBase</text>
<text text-anchor="middle" x="204" y="-106" font-family="Helvetica,sans-Serif" font-size="10.00">&lt; BinWriter &gt;::alignByte</text>
</a>
</g>
</g>
<!-- Node1&#45;&gt;Node2 -->
<g id="edge1" class="edge"><title>Node1&#45;&gt;Node2</title>
<path fill="none" stroke="midnightblue" d="M76.6506,-68.5803C97.3001,-76.0033 126.533,-86.5117 151.68,-95.5515"/>
<polygon fill="midnightblue" stroke="midnightblue" points="150.496,-98.8454 161.091,-98.9346 152.864,-92.2581 150.496,-98.8454"/>
</g>
<!-- Node3 -->
<g id="node3" class="node"><title>Node3</title>
<g id="a_node3"><a xlink:href="classndt_1_1details_1_1_bin_base.html#a11c9cb886c406f480d51e221ae54fb51" target="_top" xlink:title=" ">
<polygon fill="white" stroke="black" points="134,-38.5 134,-79.5 274,-79.5 274,-38.5 134,-38.5"/>
<text text-anchor="start" x="142" y="-67.5" font-family="Helvetica,sans-Serif" font-size="10.00">ndt::details::BinBase</text>
<text text-anchor="start" x="142" y="-56.5" font-family="Helvetica,sans-Serif" font-size="10.00">&lt; BinWriter &gt;::checkAligned</text>
<text text-anchor="middle" x="204" y="-45.5" font-family="Helvetica,sans-Serif" font-size="10.00">BufArgs</text>
</a>
</g>
</g>
<!-- Node1&#45;&gt;Node3 -->
<g id="edge2" class="edge"><title>Node1&#45;&gt;Node3</title>
<path fill="none" stroke="midnightblue" d="M98.4102,-59C106.527,-59 115.135,-59 123.788,-59"/>
<polygon fill="midnightblue" stroke="midnightblue" points="123.942,-62.5001 133.942,-59 123.942,-55.5001 123.942,-62.5001"/>
</g>
<!-- Node4 -->
<g id="node4" class="node"><title>Node4</title>
<g id="a_node4"><a xlink:href="classndt_1_1_buffer.html#a284e89ec2af5eec449a98d15f7abf107" target="_top" xlink:title=" ">
<polygon fill="white" stroke="black" points="161,-0.5 161,-19.5 247,-19.5 247,-0.5 161,-0.5"/>
<text text-anchor="middle" x="204" y="-7.5" font-family="Helvetica,sans-Serif" font-size="10.00">ndt::Buffer::data</text>
</a>
</g>
</g>
<!-- Node1&#45;&gt;Node4 -->
<g id="edge3" class="edge"><title>Node1&#45;&gt;Node4</title>
<path fill="none" stroke="midnightblue" d="M75.1974,-49.4482C91.7954,-43.2935 114.065,-35.295 134,-29 141.25,-26.7107 148.976,-24.4304 156.536,-22.2855"/>
<polygon fill="midnightblue" stroke="midnightblue" points="157.634,-25.6129 166.326,-19.5544 155.753,-18.8704 157.634,-25.6129"/>
</g>
</g>
</svg>
