<?xml version="1.0" encoding="UTF-8" standalone="no"?>
<!DOCTYPE svg PUBLIC "-//W3C//DTD SVG 1.1//EN"
 "http://www.w3.org/Graphics/SVG/1.1/DTD/svg11.dtd">
<!-- Generated by graphviz version 2.38.0 (20140413.2041)
 -->
<!-- Title: ndt::Socket::bind Pages: 1 -->
<svg width="602pt" height="78pt"
 viewBox="0.00 0.00 602.00 77.50" xmlns="http://www.w3.org/2000/svg" xmlns:xlink="http://www.w3.org/1999/xlink">
<g id="graph0" class="graph" transform="scale(1 1) rotate(0) translate(4 73.5)">
<title>ndt::Socket::bind</title>
<polygon fill="white" stroke="none" points="-4,4 -4,-73.5 598,-73.5 598,4 -4,4"/>
<!-- Node1 -->
<g id="node1" class="node"><title>Node1</title>
<g id="a_node1"><a xlink:title=" ">
<polygon fill="#bfbfbf" stroke="black" points="0,-28 0,-47 91,-47 91,-28 0,-28"/>
<text text-anchor="middle" x="45.5" y="-35" font-family="Helvetica,sans-Serif" font-size="10.00">ndt::Socket::bind</text>
</a>
</g>
</g>
<!-- Node2 -->
<g id="node2" class="node"><title>Node2</title>
<g id="a_node2"><a xlink:href="classndt_1_1_socket_base.html#af5363bfd950964fdd0a7fc44fcf3125a" target="_top" xlink:title=" ">
<polygon fill="white" stroke="black" points="127,-28 127,-47 240,-47 240,-28 127,-28"/>
<text text-anchor="middle" x="183.5" y="-35" font-family="Helvetica,sans-Serif" font-size="10.00">ndt::SocketBase::bind</text>
</a>
</g>
</g>
<!-- Node1&#45;&gt;Node2 -->
<g id="edge1" class="edge"><title>Node1&#45;&gt;Node2</title>
<path fill="none" stroke="midnightblue" d="M91.0315,-37.5C99.2721,-37.5 108.037,-37.5 116.752,-37.5"/>
<polygon fill="midnightblue" stroke="midnightblue" points="116.926,-41.0001 126.926,-37.5 116.926,-34.0001 116.926,-41.0001"/>
</g>
<!-- Node3 -->
<g id="node3" class="node"><title>Node3</title>
<g id="a_node3"><a xlink:href="classndt_1_1_address.html#a893029bdda2b65cb2f8cde7ac474843e" target="_top" xlink:title=" ">
<polygon fill="white" stroke="black" points="280,-50 280,-69 395,-69 395,-50 280,-50"/>
<text text-anchor="middle" x="337.5" y="-57" font-family="Helvetica,sans-Serif" font-size="10.00">ndt::Address::capacity</text>
</a>
</g>
</g>
<!-- Node2&#45;&gt;Node3 -->
<g id="edge2" class="edge"><title>Node2&#45;&gt;Node3</title>
<path fill="none" stroke="midnightblue" d="M240.236,-45.5671C249.794,-46.9505 259.814,-48.4007 269.628,-49.8211"/>
<polygon fill="midnightblue" stroke="midnightblue" points="269.354,-53.3179 279.752,-51.2865 270.357,-46.3901 269.354,-53.3179"/>
</g>
<!-- Node5 -->
<g id="node5" class="node"><title>Node5</title>
<g id="a_node5"><a xlink:href="classndt_1_1_address.html#afad222ab59fe303a0c642cdc80676ee1" target="_top" xlink:title=" ">
<polygon fill="white" stroke="black" points="276,-0.5 276,-30.5 399,-30.5 399,-0.5 276,-0.5"/>
<text text-anchor="start" x="284" y="-18.5" font-family="Helvetica,sans-Serif" font-size="10.00">ndt::Address::nativeData</text>
<text text-anchor="middle" x="337.5" y="-7.5" font-family="Helvetica,sans-Serif" font-size="10.00">Const</text>
</a>
</g>
</g>
<!-- Node2&#45;&gt;Node5 -->
<g id="edge4" class="edge"><title>Node2&#45;&gt;Node5</title>
<path fill="none" stroke="midnightblue" d="M240.236,-29.4329C248.579,-28.2254 257.274,-26.967 265.876,-25.7219"/>
<polygon fill="midnightblue" stroke="midnightblue" points="266.51,-29.1667 275.905,-24.2703 265.507,-22.2389 266.51,-29.1667"/>
</g>
<!-- Node4 -->
<g id="node4" class="node"><title>Node4</title>
<g id="a_node4"><a xlink:href="classndt_1_1_address.html#acc3c23480a74e90b63d75e15c3300040" target="_top" xlink:title=" ">
<polygon fill="white" stroke="black" points="435,-50 435,-69 594,-69 594,-50 435,-50"/>
<text text-anchor="middle" x="514.5" y="-57" font-family="Helvetica,sans-Serif" font-size="10.00">ndt::Address::addressFamilySys</text>
</a>
</g>
</g>
<!-- Node3&#45;&gt;Node4 -->
<g id="edge3" class="edge"><title>Node3&#45;&gt;Node4</title>
<path fill="none" stroke="midnightblue" d="M395.317,-59.5C404.651,-59.5 414.517,-59.5 424.41,-59.5"/>
<polygon fill="midnightblue" stroke="midnightblue" points="424.709,-63.0001 434.709,-59.5 424.709,-56.0001 424.709,-63.0001"/>
</g>
</g>
</svg>
