<?xml version="1.0" encoding="UTF-8" standalone="no"?>
<!DOCTYPE svg PUBLIC "-//W3C//DTD SVG 1.1//EN"
 "http://www.w3.org/Graphics/SVG/1.1/DTD/svg11.dtd">
<!-- Generated by graphviz version 2.38.0 (20140413.2041)
 -->
<!-- Title: FastPimpl::get Pages: 1 -->
<svg width="241pt" height="142pt"
 viewBox="0.00 0.00 241.00 142.00" xmlns="http://www.w3.org/2000/svg" xmlns:xlink="http://www.w3.org/1999/xlink">
<g id="graph0" class="graph" transform="scale(1 1) rotate(0) translate(4 138)">
<title>FastPimpl::get</title>
<polygon fill="white" stroke="none" points="-4,4 -4,-138 237,-138 237,4 -4,4"/>
<!-- Node1 -->
<g id="node1" class="node"><title>Node1</title>
<g id="a_node1"><a xlink:title=" ">
<polygon fill="#bfbfbf" stroke="black" points="153,-57.5 153,-76.5 233,-76.5 233,-57.5 153,-57.5"/>
<text text-anchor="middle" x="193" y="-64.5" font-family="Helvetica,sans-Serif" font-size="10.00">FastPimpl::get</text>
</a>
</g>
</g>
<!-- Node2 -->
<g id="node2" class="node"><title>Node2</title>
<g id="a_node2"><a xlink:href="class_fast_pimpl.html#af2fa8d8b079c5a9e7db4e703296ff93c" target="_top" xlink:title=" ">
<polygon fill="white" stroke="black" points="3,-114.5 3,-133.5 114,-133.5 114,-114.5 3,-114.5"/>
<text text-anchor="middle" x="58.5" y="-121.5" font-family="Helvetica,sans-Serif" font-size="10.00">FastPimpl::FastPimpl</text>
</a>
</g>
</g>
<!-- Node1&#45;&gt;Node2 -->
<g id="edge1" class="edge"><title>Node1&#45;&gt;Node2</title>
<path fill="none" stroke="midnightblue" d="M165.901,-81.4393C151.685,-88.9917 133.645,-98.0788 117,-105 108.748,-108.431 99.6373,-111.678 91.1472,-114.486"/>
<polygon fill="midnightblue" stroke="midnightblue" points="167.923,-84.3254 175.067,-76.5013 164.603,-78.1628 167.923,-84.3254"/>
</g>
<!-- Node3 -->
<g id="node3" class="node"><title>Node3</title>
<g id="a_node3"><a xlink:href="class_fast_pimpl.html#a2237f3e47da9882ba483770f29f13967" target="_top" xlink:title=" ">
<polygon fill="white" stroke="black" points="3,-76.5 3,-95.5 114,-95.5 114,-76.5 3,-76.5"/>
<text text-anchor="middle" x="58.5" y="-83.5" font-family="Helvetica,sans-Serif" font-size="10.00">FastPimpl::operator&#45;&gt;</text>
</a>
</g>
</g>
<!-- Node1&#45;&gt;Node3 -->
<g id="edge2" class="edge"><title>Node1&#45;&gt;Node3</title>
<path fill="none" stroke="midnightblue" d="M142.784,-74.0575C133.553,-75.3811 123.849,-76.7726 114.457,-78.1194"/>
<polygon fill="midnightblue" stroke="midnightblue" points="143.56,-77.482 152.962,-72.5979 142.567,-70.5528 143.56,-77.482"/>
</g>
<!-- Node4 -->
<g id="node4" class="node"><title>Node4</title>
<g id="a_node4"><a xlink:href="class_fast_pimpl.html#a7f369f0294d6211b9a7efd629aee9d1b" target="_top" xlink:title=" ">
<polygon fill="white" stroke="black" points="4.5,-38.5 4.5,-57.5 112.5,-57.5 112.5,-38.5 4.5,-38.5"/>
<text text-anchor="middle" x="58.5" y="-45.5" font-family="Helvetica,sans-Serif" font-size="10.00">FastPimpl::operator=</text>
</a>
</g>
</g>
<!-- Node1&#45;&gt;Node4 -->
<g id="edge3" class="edge"><title>Node1&#45;&gt;Node4</title>
<path fill="none" stroke="midnightblue" d="M143.006,-59.9744C133.227,-58.5721 122.908,-57.0925 112.987,-55.6698"/>
<polygon fill="midnightblue" stroke="midnightblue" points="142.567,-63.4472 152.962,-61.4021 143.56,-56.518 142.567,-63.4472"/>
</g>
<!-- Node5 -->
<g id="node5" class="node"><title>Node5</title>
<g id="a_node5"><a xlink:href="class_fast_pimpl.html#a4e622eec1075b8df940b1cca4c83f278" target="_top" xlink:title=" ">
<polygon fill="white" stroke="black" points="0,-0.5 0,-19.5 117,-19.5 117,-0.5 0,-0.5"/>
<text text-anchor="middle" x="58.5" y="-7.5" font-family="Helvetica,sans-Serif" font-size="10.00">FastPimpl::~FastPimpl</text>
</a>
</g>
</g>
<!-- Node1&#45;&gt;Node5 -->
<g id="edge4" class="edge"><title>Node1&#45;&gt;Node5</title>
<path fill="none" stroke="midnightblue" d="M165.901,-52.5607C151.685,-45.0083 133.645,-35.9212 117,-29 108.748,-25.569 99.6373,-22.3217 91.1472,-19.5144"/>
<polygon fill="midnightblue" stroke="midnightblue" points="164.603,-55.8372 175.067,-57.4987 167.923,-49.6746 164.603,-55.8372"/>
</g>
</g>
</svg>
