<?xml version="1.0" encoding="UTF-8" standalone="no"?>
<!DOCTYPE svg PUBLIC "-//W3C//DTD SVG 1.1//EN"
 "http://www.w3.org/Graphics/SVG/1.1/DTD/svg11.dtd">
<!-- Generated by graphviz version 2.38.0 (20140413.2041)
 -->
<!-- Title: ndt::Packet::serializeRestImpl Pages: 1 -->
<svg width="619pt" height="28pt"
 viewBox="0.00 0.00 619.00 28.00" xmlns="http://www.w3.org/2000/svg" xmlns:xlink="http://www.w3.org/1999/xlink">
<g id="graph0" class="graph" transform="scale(1 1) rotate(0) translate(4 24)">
<title>ndt::Packet::serializeRestImpl</title>
<polygon fill="white" stroke="none" points="-4,4 -4,-24 615,-24 615,4 -4,4"/>
<!-- Node1 -->
<g id="node1" class="node"><title>Node1</title>
<g id="a_node1"><a xlink:title=" ">
<polygon fill="#bfbfbf" stroke="black" points="0,-0.5 0,-19.5 147,-19.5 147,-0.5 0,-0.5"/>
<text text-anchor="middle" x="73.5" y="-7.5" font-family="Helvetica,sans-Serif" font-size="10.00">ndt::Packet::serializeRestImpl</text>
</a>
</g>
</g>
<!-- Node2 -->
<g id="node2" class="node"><title>Node2</title>
<g id="a_node2"><a xlink:href="classndt_1_1_packet.html#a93217fdf406eb00bd60e3a50887a52d2" target="_top" xlink:title=" ">
<polygon fill="white" stroke="black" points="183,-0.5 183,-19.5 310,-19.5 310,-0.5 183,-0.5"/>
<text text-anchor="middle" x="246.5" y="-7.5" font-family="Helvetica,sans-Serif" font-size="10.00">ndt::Packet::serializeImpl</text>
</a>
</g>
</g>
<!-- Node1&#45;&gt;Node2 -->
<g id="edge1" class="edge"><title>Node1&#45;&gt;Node2</title>
<path fill="none" stroke="midnightblue" d="M147.019,-3.31963C155.497,-3.22805 164.149,-3.22681 172.631,-3.31591"/>
<polygon fill="midnightblue" stroke="midnightblue" points="172.819,-6.81902 182.871,-3.46939 172.924,0.180193 172.819,-6.81902"/>
</g>
<!-- Node2&#45;&gt;Node1 -->
<g id="edge4" class="edge"><title>Node2&#45;&gt;Node1</title>
<path fill="none" stroke="midnightblue" d="M182.871,-16.5306C174.492,-16.695 165.797,-16.767 157.141,-16.7466"/>
<polygon fill="midnightblue" stroke="midnightblue" points="157.042,-13.246 147.019,-16.6804 156.996,-20.2459 157.042,-13.246"/>
</g>
<!-- Node3 -->
<g id="node3" class="node"><title>Node3</title>
<g id="a_node3"><a xlink:href="classndt_1_1_packet.html#a1289365bb165444481f78642aa411033" target="_top" xlink:title=" ">
<polygon fill="white" stroke="black" points="346,-0.5 346,-19.5 455,-19.5 455,-0.5 346,-0.5"/>
<text text-anchor="middle" x="400.5" y="-7.5" font-family="Helvetica,sans-Serif" font-size="10.00">ndt::Packet::serialize</text>
</a>
</g>
</g>
<!-- Node2&#45;&gt;Node3 -->
<g id="edge2" class="edge"><title>Node2&#45;&gt;Node3</title>
<path fill="none" stroke="midnightblue" d="M310.202,-10C318.574,-10 327.168,-10 335.561,-10"/>
<polygon fill="midnightblue" stroke="midnightblue" points="335.67,-13.5001 345.67,-10 335.67,-6.5001 335.67,-13.5001"/>
</g>
<!-- Node4 -->
<g id="node4" class="node"><title>Node4</title>
<g id="a_node4"><a xlink:href="classndt_1_1_packet.html#a62767a474cdc55944dc130fd21a8d6d9" target="_top" xlink:title=" ">
<polygon fill="white" stroke="black" points="491,-0.5 491,-19.5 611,-19.5 611,-0.5 491,-0.5"/>
<text text-anchor="middle" x="551" y="-7.5" font-family="Helvetica,sans-Serif" font-size="10.00">ndt::Packet::minBitSize</text>
</a>
</g>
</g>
<!-- Node3&#45;&gt;Node4 -->
<g id="edge3" class="edge"><title>Node3&#45;&gt;Node4</title>
<path fill="none" stroke="midnightblue" d="M455.112,-10C463.472,-10 472.211,-10 480.857,-10"/>
<polygon fill="midnightblue" stroke="midnightblue" points="480.936,-13.5001 490.936,-10 480.936,-6.5001 480.936,-13.5001"/>
</g>
</g>
</svg>
