<?xml version="1.0" encoding="UTF-8" standalone="no"?>
<!DOCTYPE svg PUBLIC "-//W3C//DTD SVG 1.1//EN"
 "http://www.w3.org/Graphics/SVG/1.1/DTD/svg11.dtd">
<!-- Generated by graphviz version 2.38.0 (20140413.2041)
 -->
<!-- Title: ndt::details::ByteOrder&lt; uint16_t, 2 &gt; Pages: 1 -->
<svg width="364pt" height="309pt"
 viewBox="0.00 0.00 363.50 309.00" xmlns="http://www.w3.org/2000/svg" xmlns:xlink="http://www.w3.org/1999/xlink">
<g id="graph0" class="graph" transform="scale(1 1) rotate(0) translate(4 305)">
<title>ndt::details::ByteOrder&lt; uint16_t, 2 &gt;</title>
<polygon fill="white" stroke="none" points="-4,4 -4,-305 359.5,-305 359.5,4 -4,4"/>
<!-- Node1 -->
<g id="node1" class="node"><title>Node1</title>
<g id="a_node1"><a xlink:title=" ">
<polygon fill="#bfbfbf" stroke="black" points="98.5,-0.5 98.5,-79.5 213.5,-79.5 213.5,-0.5 98.5,-0.5"/>
<text text-anchor="start" x="106.5" y="-67.5" font-family="Helvetica,sans-Serif" font-size="10.00">ndt::details::ByteOrder</text>
<text text-anchor="middle" x="156" y="-56.5" font-family="Helvetica,sans-Serif" font-size="10.00">&lt; uint16_t, 2 &gt;</text>
<polyline fill="none" stroke="black" points="98.5,-49.5 213.5,-49.5 "/>
<text text-anchor="middle" x="156" y="-37.5" font-family="Helvetica,sans-Serif" font-size="10.00"> </text>
<polyline fill="none" stroke="black" points="98.5,-30.5 213.5,-30.5 "/>
<text text-anchor="start" x="106.5" y="-18.5" font-family="Helvetica,sans-Serif" font-size="10.00">+ toHost()</text>
<text text-anchor="start" x="106.5" y="-7.5" font-family="Helvetica,sans-Serif" font-size="10.00">+ toNet()</text>
</a>
</g>
</g>
<!-- Node2 -->
<g id="node2" class="node"><title>Node2</title>
<g id="a_node2"><a xlink:href="structndt_1_1_no_copy_move_def_constructible.html" target="_top" xlink:title=" ">
<polygon fill="white" stroke="black" points="74,-116.5 74,-173.5 238,-173.5 238,-116.5 74,-116.5"/>
<text text-anchor="middle" x="156" y="-161.5" font-family="Helvetica,sans-Serif" font-size="10.00">ndt::NoCopyMoveDefConstructible</text>
<polyline fill="none" stroke="black" points="74,-154.5 238,-154.5 "/>
<text text-anchor="middle" x="156" y="-142.5" font-family="Helvetica,sans-Serif" font-size="10.00"> </text>
<polyline fill="none" stroke="black" points="74,-135.5 238,-135.5 "/>
<text text-anchor="middle" x="156" y="-123.5" font-family="Helvetica,sans-Serif" font-size="10.00"> </text>
</a>
</g>
</g>
<!-- Node2&#45;&gt;Node1 -->
<g id="edge1" class="edge"><title>Node2&#45;&gt;Node1</title>
<path fill="none" stroke="#8b1a1a" d="M156,-106.156C156,-97.4733 156,-88.2318 156,-79.5205"/>
<polygon fill="none" stroke="#8b1a1a" points="152.5,-106.398 156,-116.398 159.5,-106.398 152.5,-106.398"/>
</g>
<!-- Node3 -->
<g id="node3" class="node"><title>Node3</title>
<g id="a_node3"><a xlink:href="structndt_1_1_no_copy_able.html" target="_top" xlink:title=" ">
<polygon fill="white" stroke="black" points="0,-210.5 0,-300.5 92,-300.5 92,-210.5 0,-210.5"/>
<text text-anchor="middle" x="46" y="-288.5" font-family="Helvetica,sans-Serif" font-size="10.00">ndt::NoCopyAble</text>
<polyline fill="none" stroke="black" points="0,-281.5 92,-281.5 "/>
<text text-anchor="middle" x="46" y="-269.5" font-family="Helvetica,sans-Serif" font-size="10.00"> </text>
<polyline fill="none" stroke="black" points="0,-262.5 92,-262.5 "/>
<text text-anchor="start" x="8" y="-250.5" font-family="Helvetica,sans-Serif" font-size="10.00">+ NoCopyAble()</text>
<text text-anchor="start" x="8" y="-239.5" font-family="Helvetica,sans-Serif" font-size="10.00">+ ~NoCopyAble()</text>
<text text-anchor="start" x="8" y="-228.5" font-family="Helvetica,sans-Serif" font-size="10.00">+ NoCopyAble()</text>
<text text-anchor="start" x="8" y="-217.5" font-family="Helvetica,sans-Serif" font-size="10.00">+ operator=()</text>
</a>
</g>
</g>
<!-- Node3&#45;&gt;Node2 -->
<g id="edge2" class="edge"><title>Node3&#45;&gt;Node2</title>
<path fill="none" stroke="midnightblue" d="M97.8946,-203.313C108.288,-193.061 118.83,-182.663 128.029,-173.59"/>
<polygon fill="none" stroke="midnightblue" points="95.4028,-200.855 90.7412,-210.369 100.319,-205.838 95.4028,-200.855"/>
</g>
<!-- Node4 -->
<g id="node4" class="node"><title>Node4</title>
<g id="a_node4"><a xlink:href="structndt_1_1_no_move_able.html" target="_top" xlink:title=" ">
<polygon fill="white" stroke="black" points="110,-210.5 110,-300.5 202,-300.5 202,-210.5 110,-210.5"/>
<text text-anchor="middle" x="156" y="-288.5" font-family="Helvetica,sans-Serif" font-size="10.00">ndt::NoMoveAble</text>
<polyline fill="none" stroke="black" points="110,-281.5 202,-281.5 "/>
<text text-anchor="middle" x="156" y="-269.5" font-family="Helvetica,sans-Serif" font-size="10.00"> </text>
<polyline fill="none" stroke="black" points="110,-262.5 202,-262.5 "/>
<text text-anchor="start" x="118" y="-250.5" font-family="Helvetica,sans-Serif" font-size="10.00">+ NoMoveAble()</text>
<text text-anchor="start" x="118" y="-239.5" font-family="Helvetica,sans-Serif" font-size="10.00">+ ~NoMoveAble()</text>
<text text-anchor="start" x="118" y="-228.5" font-family="Helvetica,sans-Serif" font-size="10.00">+ NoMoveAble()</text>
<text text-anchor="start" x="118" y="-217.5" font-family="Helvetica,sans-Serif" font-size="10.00">+ operator=()</text>
</a>
</g>
</g>
<!-- Node4&#45;&gt;Node2 -->
<g id="edge3" class="edge"><title>Node4&#45;&gt;Node2</title>
<path fill="none" stroke="midnightblue" d="M156,-200.353C156,-191.074 156,-181.791 156,-173.59"/>
<polygon fill="none" stroke="midnightblue" points="152.5,-200.369 156,-210.369 159.5,-200.369 152.5,-200.369"/>
</g>
<!-- Node5 -->
<g id="node5" class="node"><title>Node5</title>
<g id="a_node5"><a xlink:href="structndt_1_1_no_default_constructible.html" target="_top" xlink:title=" ">
<polygon fill="white" stroke="black" points="220.5,-227 220.5,-284 355.5,-284 355.5,-227 220.5,-227"/>
<text text-anchor="middle" x="288" y="-272" font-family="Helvetica,sans-Serif" font-size="10.00">ndt::NoDefaultConstructible</text>
<polyline fill="none" stroke="black" points="220.5,-265 355.5,-265 "/>
<text text-anchor="middle" x="288" y="-253" font-family="Helvetica,sans-Serif" font-size="10.00"> </text>
<polyline fill="none" stroke="black" points="220.5,-246 355.5,-246 "/>
<text text-anchor="start" x="228.5" y="-234" font-family="Helvetica,sans-Serif" font-size="10.00">+ NoDefaultConstructible()</text>
</a>
</g>
</g>
<!-- Node5&#45;&gt;Node2 -->
<g id="edge4" class="edge"><title>Node5&#45;&gt;Node2</title>
<path fill="none" stroke="midnightblue" d="M246.186,-220.13C227.927,-205.122 206.802,-187.758 189.589,-173.609"/>
<polygon fill="none" stroke="midnightblue" points="244.402,-223.194 254.349,-226.84 248.847,-217.786 244.402,-223.194"/>
</g>
</g>
</svg>
