<?xml version="1.0" encoding="UTF-8" standalone="no"?>
<!DOCTYPE svg PUBLIC "-//W3C//DTD SVG 1.1//EN"
 "http://www.w3.org/Graphics/SVG/1.1/DTD/svg11.dtd">
<!-- Generated by graphviz version 2.38.0 (20140413.2041)
 -->
<!-- Title: ndt::Packet::serializeImpl Pages: 1 -->
<svg width="318pt" height="28pt"
 viewBox="0.00 0.00 318.00 28.00" xmlns="http://www.w3.org/2000/svg" xmlns:xlink="http://www.w3.org/1999/xlink">
<g id="graph0" class="graph" transform="scale(1 1) rotate(0) translate(4 24)">
<title>ndt::Packet::serializeImpl</title>
<polygon fill="white" stroke="none" points="-4,4 -4,-24 314,-24 314,4 -4,4"/>
<!-- Node1 -->
<g id="node1" class="node"><title>Node1</title>
<g id="a_node1"><a xlink:title=" ">
<polygon fill="#bfbfbf" stroke="black" points="183,-0.5 183,-19.5 310,-19.5 310,-0.5 183,-0.5"/>
<text text-anchor="middle" x="246.5" y="-7.5" font-family="Helvetica,sans-Serif" font-size="10.00">ndt::Packet::serializeImpl</text>
</a>
</g>
</g>
<!-- Node2 -->
<g id="node2" class="node"><title>Node2</title>
<g id="a_node2"><a xlink:href="classndt_1_1_packet.html#ac7b66c9ce0990526a3c99add3d8cb10a" target="_top" xlink:title=" ">
<polygon fill="white" stroke="black" points="0,-0.5 0,-19.5 147,-19.5 147,-0.5 0,-0.5"/>
<text text-anchor="middle" x="73.5" y="-7.5" font-family="Helvetica,sans-Serif" font-size="10.00">ndt::Packet::serializeRestImpl</text>
</a>
</g>
</g>
<!-- Node1&#45;&gt;Node2 -->
<g id="edge1" class="edge"><title>Node1&#45;&gt;Node2</title>
<path fill="none" stroke="midnightblue" d="M172.583,-3.3154C164.123,-3.22688 155.494,-3.22822 147.039,-3.31942"/>
<polygon fill="midnightblue" stroke="midnightblue" points="172.746,-6.81812 182.797,-3.46794 172.85,0.181098 172.746,-6.81812"/>
</g>
<!-- Node2&#45;&gt;Node1 -->
<g id="edge2" class="edge"><title>Node2&#45;&gt;Node1</title>
<path fill="none" stroke="midnightblue" d="M157.134,-16.7466C165.767,-16.7669 174.439,-16.6954 182.797,-16.5321"/>
<polygon fill="midnightblue" stroke="midnightblue" points="157.061,-13.2462 147.039,-16.6806 157.016,-20.246 157.061,-13.2462"/>
</g>
</g>
</svg>
