<?xml version="1.0" encoding="UTF-8" standalone="no"?>
<!DOCTYPE svg PUBLIC "-//W3C//DTD SVG 1.1//EN"
 "http://www.w3.org/Graphics/SVG/1.1/DTD/svg11.dtd">
<!-- Generated by graphviz version 2.38.0 (20140413.2041)
 -->
<!-- Title: ndt::Packet::serializeImpl Pages: 1 -->
<svg width="474pt" height="66pt"
 viewBox="0.00 0.00 474.00 66.00" xmlns="http://www.w3.org/2000/svg" xmlns:xlink="http://www.w3.org/1999/xlink">
<g id="graph0" class="graph" transform="scale(1 1) rotate(0) translate(4 62)">
<title>ndt::Packet::serializeImpl</title>
<polygon fill="white" stroke="none" points="-4,4 -4,-62 470,-62 470,4 -4,4"/>
<!-- Node1 -->
<g id="node1" class="node"><title>Node1</title>
<g id="a_node1"><a xlink:title=" ">
<polygon fill="#bfbfbf" stroke="black" points="0,-0.5 0,-19.5 127,-19.5 127,-0.5 0,-0.5"/>
<text text-anchor="middle" x="63.5" y="-7.5" font-family="Helvetica,sans-Serif" font-size="10.00">ndt::Packet::serializeImpl</text>
</a>
</g>
</g>
<!-- Node2 -->
<g id="node2" class="node"><title>Node2</title>
<g id="a_node2"><a xlink:href="classndt_1_1_packet.html#a1289365bb165444481f78642aa411033" target="_top" xlink:title=" ">
<polygon fill="white" stroke="black" points="182,-38.5 182,-57.5 291,-57.5 291,-38.5 182,-38.5"/>
<text text-anchor="middle" x="236.5" y="-45.5" font-family="Helvetica,sans-Serif" font-size="10.00">ndt::Packet::serialize</text>
</a>
</g>
</g>
<!-- Node1&#45;&gt;Node2 -->
<g id="edge1" class="edge"><title>Node1&#45;&gt;Node2</title>
<path fill="none" stroke="midnightblue" d="M107.651,-19.589C130.419,-24.6487 158.548,-30.8996 182.619,-36.2488"/>
<polygon fill="midnightblue" stroke="midnightblue" points="182.139,-39.7272 192.66,-38.4799 183.657,-32.8939 182.139,-39.7272"/>
</g>
<!-- Node4 -->
<g id="node4" class="node"><title>Node4</title>
<g id="a_node4"><a xlink:href="classndt_1_1_packet.html#ac7b66c9ce0990526a3c99add3d8cb10a" target="_top" xlink:title=" ">
<polygon fill="white" stroke="black" points="163,-0.5 163,-19.5 310,-19.5 310,-0.5 163,-0.5"/>
<text text-anchor="middle" x="236.5" y="-7.5" font-family="Helvetica,sans-Serif" font-size="10.00">ndt::Packet::serializeRestImpl</text>
</a>
</g>
</g>
<!-- Node1&#45;&gt;Node4 -->
<g id="edge3" class="edge"><title>Node1&#45;&gt;Node4</title>
<path fill="none" stroke="midnightblue" d="M127.203,-3.46794C135.561,-3.30457 144.233,-3.23305 152.866,-3.25337"/>
<polygon fill="midnightblue" stroke="midnightblue" points="152.939,-6.75382 162.961,-3.31942 152.984,0.246027 152.939,-6.75382"/>
</g>
<!-- Node3 -->
<g id="node3" class="node"><title>Node3</title>
<g id="a_node3"><a xlink:href="classndt_1_1_packet.html#a62767a474cdc55944dc130fd21a8d6d9" target="_top" xlink:title=" ">
<polygon fill="white" stroke="black" points="346,-38.5 346,-57.5 466,-57.5 466,-38.5 346,-38.5"/>
<text text-anchor="middle" x="406" y="-45.5" font-family="Helvetica,sans-Serif" font-size="10.00">ndt::Packet::minBitSize</text>
</a>
</g>
</g>
<!-- Node2&#45;&gt;Node3 -->
<g id="edge2" class="edge"><title>Node2&#45;&gt;Node3</title>
<path fill="none" stroke="midnightblue" d="M291.42,-48C305.562,-48 321.01,-48 335.829,-48"/>
<polygon fill="midnightblue" stroke="midnightblue" points="335.964,-51.5001 345.964,-48 335.964,-44.5001 335.964,-51.5001"/>
</g>
<!-- Node4&#45;&gt;Node1 -->
<g id="edge4" class="edge"><title>Node4&#45;&gt;Node1</title>
<path fill="none" stroke="midnightblue" d="M162.961,-16.6806C154.506,-16.7718 145.877,-16.7731 137.417,-16.6846"/>
<polygon fill="midnightblue" stroke="midnightblue" points="137.254,-13.1819 127.203,-16.5321 137.15,-20.1811 137.254,-13.1819"/>
</g>
</g>
</svg>
