<?xml version="1.0" encoding="UTF-8" standalone="no"?>
<!DOCTYPE svg PUBLIC "-//W3C//DTD SVG 1.1//EN"
 "http://www.w3.org/Graphics/SVG/1.1/DTD/svg11.dtd">
<!-- Generated by graphviz version 2.38.0 (20140413.2041)
 -->
<!-- Title: ndt::Address::addressFamilySys Pages: 1 -->
<svg width="608pt" height="142pt"
 viewBox="0.00 0.00 608.00 142.00" xmlns="http://www.w3.org/2000/svg" xmlns:xlink="http://www.w3.org/1999/xlink">
<g id="graph0" class="graph" transform="scale(1 1) rotate(0) translate(4 138)">
<title>ndt::Address::addressFamilySys</title>
<polygon fill="white" stroke="none" points="-4,4 -4,-138 604,-138 604,4 -4,4"/>
<!-- Node1 -->
<g id="node1" class="node"><title>Node1</title>
<g id="a_node1"><a xlink:title=" ">
<polygon fill="#bfbfbf" stroke="black" points="441,-38.5 441,-57.5 600,-57.5 600,-38.5 441,-38.5"/>
<text text-anchor="middle" x="520.5" y="-45.5" font-family="Helvetica,sans-Serif" font-size="10.00">ndt::Address::addressFamilySys</text>
</a>
</g>
</g>
<!-- Node2 -->
<g id="node2" class="node"><title>Node2</title>
<g id="a_node2"><a xlink:href="classndt_1_1_address.html#a893029bdda2b65cb2f8cde7ac474843e" target="_top" xlink:title=" ">
<polygon fill="white" stroke="black" points="290,-76.5 290,-95.5 405,-95.5 405,-76.5 290,-76.5"/>
<text text-anchor="middle" x="347.5" y="-83.5" font-family="Helvetica,sans-Serif" font-size="10.00">ndt::Address::capacity</text>
</a>
</g>
</g>
<!-- Node1&#45;&gt;Node2 -->
<g id="edge1" class="edge"><title>Node1&#45;&gt;Node2</title>
<path fill="none" stroke="midnightblue" d="M466.291,-59.8243C442.183,-65.1816 414.06,-71.4311 391.34,-76.4799"/>
<polygon fill="midnightblue" stroke="midnightblue" points="467.347,-63.175 476.349,-57.589 465.828,-56.3417 467.347,-63.175"/>
</g>
<!-- Node6 -->
<g id="node6" class="node"><title>Node6</title>
<g id="a_node6"><a xlink:href="classndt_1_1_address.html#a21976875e9d17b6e8f3f5dff3d1e9c52" target="_top" xlink:title=" ">
<polygon fill="white" stroke="black" points="304.5,-38.5 304.5,-57.5 390.5,-57.5 390.5,-38.5 304.5,-38.5"/>
<text text-anchor="middle" x="347.5" y="-45.5" font-family="Helvetica,sans-Serif" font-size="10.00">ndt::Address::ip</text>
</a>
</g>
</g>
<!-- Node1&#45;&gt;Node6 -->
<g id="edge5" class="edge"><title>Node1&#45;&gt;Node6</title>
<path fill="none" stroke="midnightblue" d="M430.438,-48C416.611,-48 402.908,-48 390.78,-48"/>
<polygon fill="midnightblue" stroke="midnightblue" points="430.507,-51.5001 440.507,-48 430.507,-44.5001 430.507,-51.5001"/>
</g>
<!-- Node8 -->
<g id="node8" class="node"><title>Node8</title>
<g id="a_node8"><a xlink:href="classndt_1_1_address.html#a0d3ff27044661628e032c4abd076f1f7" target="_top" xlink:title=" ">
<polygon fill="white" stroke="black" points="298.5,-0.5 298.5,-19.5 396.5,-19.5 396.5,-0.5 298.5,-0.5"/>
<text text-anchor="middle" x="347.5" y="-7.5" font-family="Helvetica,sans-Serif" font-size="10.00">ndt::Address::ipPtr</text>
</a>
</g>
</g>
<!-- Node1&#45;&gt;Node8 -->
<g id="edge7" class="edge"><title>Node1&#45;&gt;Node8</title>
<path fill="none" stroke="midnightblue" d="M466.291,-36.1757C442.183,-30.8184 414.06,-24.5689 391.34,-19.5201"/>
<polygon fill="midnightblue" stroke="midnightblue" points="465.828,-39.6583 476.349,-38.411 467.347,-32.825 465.828,-39.6583"/>
</g>
<!-- Node3 -->
<g id="node3" class="node"><title>Node3</title>
<g id="a_node3"><a xlink:href="classndt_1_1_socket_base.html#af5363bfd950964fdd0a7fc44fcf3125a" target="_top" xlink:title=" ">
<polygon fill="white" stroke="black" points="134,-114.5 134,-133.5 247,-133.5 247,-114.5 134,-114.5"/>
<text text-anchor="middle" x="190.5" y="-121.5" font-family="Helvetica,sans-Serif" font-size="10.00">ndt::SocketBase::bind</text>
</a>
</g>
</g>
<!-- Node2&#45;&gt;Node3 -->
<g id="edge2" class="edge"><title>Node2&#45;&gt;Node3</title>
<path fill="none" stroke="midnightblue" d="M297.389,-98.04C275.735,-103.349 250.65,-109.499 230.332,-114.48"/>
<polygon fill="midnightblue" stroke="midnightblue" points="298.508,-101.37 307.387,-95.589 296.841,-94.5708 298.508,-101.37"/>
</g>
<!-- Node5 -->
<g id="node5" class="node"><title>Node5</title>
<g id="a_node5"><a xlink:href="classndt_1_1_socket_base.html#a869764aa83c8bd0bcfe00db19401586f" target="_top" xlink:title=" ">
<polygon fill="white" stroke="black" points="127,-76.5 127,-95.5 254,-95.5 254,-76.5 127,-76.5"/>
<text text-anchor="middle" x="190.5" y="-83.5" font-family="Helvetica,sans-Serif" font-size="10.00">ndt::SocketBase::sendTo</text>
</a>
</g>
</g>
<!-- Node2&#45;&gt;Node5 -->
<g id="edge4" class="edge"><title>Node2&#45;&gt;Node5</title>
<path fill="none" stroke="midnightblue" d="M279.485,-86C271.049,-86 262.444,-86 254.08,-86"/>
<polygon fill="midnightblue" stroke="midnightblue" points="279.664,-89.5001 289.664,-86 279.664,-82.5001 279.664,-89.5001"/>
</g>
<!-- Node4 -->
<g id="node4" class="node"><title>Node4</title>
<g id="a_node4"><a xlink:href="classndt_1_1_socket.html#a66a517cd123c7f97e4d99e1c52fa9038" target="_top" xlink:title=" ">
<polygon fill="white" stroke="black" points="0,-114.5 0,-133.5 91,-133.5 91,-114.5 0,-114.5"/>
<text text-anchor="middle" x="45.5" y="-121.5" font-family="Helvetica,sans-Serif" font-size="10.00">ndt::Socket::bind</text>
</a>
</g>
</g>
<!-- Node3&#45;&gt;Node4 -->
<g id="edge3" class="edge"><title>Node3&#45;&gt;Node4</title>
<path fill="none" stroke="midnightblue" d="M123.765,-124C112.746,-124 101.544,-124 91.2129,-124"/>
<polygon fill="midnightblue" stroke="midnightblue" points="123.803,-127.5 133.803,-124 123.803,-120.5 123.803,-127.5"/>
</g>
<!-- Node7 -->
<g id="node7" class="node"><title>Node7</title>
<g id="a_node7"><a xlink:href="classndt_1_1_address.html#a56792366a0ed5bd1ab3622f22e591ed0" target="_top" xlink:title=" ">
<polygon fill="white" stroke="black" points="133.5,-38.5 133.5,-57.5 247.5,-57.5 247.5,-38.5 133.5,-38.5"/>
<text text-anchor="middle" x="190.5" y="-45.5" font-family="Helvetica,sans-Serif" font-size="10.00">ndt::Address::Address</text>
</a>
</g>
</g>
<!-- Node6&#45;&gt;Node7 -->
<g id="edge6" class="edge"><title>Node6&#45;&gt;Node7</title>
<path fill="none" stroke="midnightblue" d="M294.08,-48C279.175,-48 262.883,-48 247.76,-48"/>
<polygon fill="midnightblue" stroke="midnightblue" points="294.146,-51.5001 304.146,-48 294.146,-44.5001 294.146,-51.5001"/>
</g>
</g>
</svg>
