<?xml version="1.0" encoding="UTF-8" standalone="no"?>
<!DOCTYPE svg PUBLIC "-//W3C//DTD SVG 1.1//EN"
 "http://www.w3.org/Graphics/SVG/1.1/DTD/svg11.dtd">
<!-- Generated by graphviz version 2.38.0 (20140413.2041)
 -->
<!-- Title: ndt::ContextBase&lt; SysWrapperT &gt; Pages: 1 -->
<svg width="178pt" height="270pt"
 viewBox="0.00 0.00 178.00 270.00" xmlns="http://www.w3.org/2000/svg" xmlns:xlink="http://www.w3.org/1999/xlink">
<g id="graph0" class="graph" transform="scale(1 1) rotate(0) translate(4 266)">
<title>ndt::ContextBase&lt; SysWrapperT &gt;</title>
<polygon fill="white" stroke="none" points="-4,4 -4,-266 174,-266 174,4 -4,4"/>
<!-- Node1 -->
<g id="node1" class="node"><title>Node1</title>
<g id="a_node1"><a xlink:title=" ">
<polygon fill="#bfbfbf" stroke="black" points="0,-0.5 0,-134.5 170,-134.5 170,-0.5 0,-0.5"/>
<text text-anchor="middle" x="85" y="-122.5" font-family="Helvetica,sans-Serif" font-size="10.00">ndt::ContextBase&lt; SysWrapperT &gt;</text>
<polyline fill="none" stroke="black" points="0,-115.5 170,-115.5 "/>
<text text-anchor="start" x="8" y="-103.5" font-family="Helvetica,sans-Serif" font-size="10.00">&#45; instanceCount_</text>
<polyline fill="none" stroke="black" points="0,-96.5 170,-96.5 "/>
<text text-anchor="start" x="8" y="-84.5" font-family="Helvetica,sans-Serif" font-size="10.00">+ ~ContextBase()</text>
<text text-anchor="start" x="8" y="-73.5" font-family="Helvetica,sans-Serif" font-size="10.00">+ ContextBase()</text>
<text text-anchor="start" x="8" y="-62.5" font-family="Helvetica,sans-Serif" font-size="10.00">+ ~ContextBase()</text>
<text text-anchor="start" x="8" y="-51.5" font-family="Helvetica,sans-Serif" font-size="10.00">+ ContextBase()</text>
<text text-anchor="start" x="8" y="-40.5" font-family="Helvetica,sans-Serif" font-size="10.00">+ instanceCount()</text>
<text text-anchor="start" x="8" y="-29.5" font-family="Helvetica,sans-Serif" font-size="10.00">+ instanceCount()</text>
<text text-anchor="start" x="8" y="-18.5" font-family="Helvetica,sans-Serif" font-size="10.00">&#45; startUp()</text>
<text text-anchor="start" x="8" y="-7.5" font-family="Helvetica,sans-Serif" font-size="10.00">&#45; cleanUp()</text>
</a>
</g>
</g>
<!-- Node2 -->
<g id="node2" class="node"><title>Node2</title>
<g id="a_node2"><a xlink:href="structndt_1_1_no_copy_able.html" target="_top" xlink:title=" ">
<polygon fill="white" stroke="black" points="39,-171.5 39,-261.5 131,-261.5 131,-171.5 39,-171.5"/>
<text text-anchor="middle" x="85" y="-249.5" font-family="Helvetica,sans-Serif" font-size="10.00">ndt::NoCopyAble</text>
<polyline fill="none" stroke="black" points="39,-242.5 131,-242.5 "/>
<text text-anchor="middle" x="85" y="-230.5" font-family="Helvetica,sans-Serif" font-size="10.00"> </text>
<polyline fill="none" stroke="black" points="39,-223.5 131,-223.5 "/>
<text text-anchor="start" x="47" y="-211.5" font-family="Helvetica,sans-Serif" font-size="10.00">+ NoCopyAble()</text>
<text text-anchor="start" x="47" y="-200.5" font-family="Helvetica,sans-Serif" font-size="10.00">+ ~NoCopyAble()</text>
<text text-anchor="start" x="47" y="-189.5" font-family="Helvetica,sans-Serif" font-size="10.00">+ NoCopyAble()</text>
<text text-anchor="start" x="47" y="-178.5" font-family="Helvetica,sans-Serif" font-size="10.00">+ operator=()</text>
</a>
</g>
</g>
<!-- Node2&#45;&gt;Node1 -->
<g id="edge1" class="edge"><title>Node2&#45;&gt;Node1</title>
<path fill="none" stroke="#8b1a1a" d="M78.4629,-161.375C78.2672,-152.658 78.2064,-143.55 78.2806,-134.591"/>
<polygon fill="none" stroke="#8b1a1a" points="74.965,-161.501 78.7547,-171.395 81.962,-161.297 74.965,-161.501"/>
</g>
<!-- Node2&#45;&gt;Node1 -->
<g id="edge2" class="edge"><title>Node2&#45;&gt;Node1</title>
<path fill="none" stroke="#8b1a1a" d="M91.5371,-161.375C91.7328,-152.658 91.7936,-143.55 91.7194,-134.591"/>
<polygon fill="none" stroke="#8b1a1a" points="88.038,-161.297 91.2453,-171.395 95.035,-161.501 88.038,-161.297"/>
</g>
</g>
</svg>
