<?xml version="1.0" encoding="UTF-8" standalone="no"?>
<!DOCTYPE svg PUBLIC "-//W3C//DTD SVG 1.1//EN"
 "http://www.w3.org/Graphics/SVG/1.1/DTD/svg11.dtd">
<!-- Generated by graphviz version 2.38.0 (20140413.2041)
 -->
<!-- Title: C:/projects/ndt/sources/include/ndt/common.h Pages: 1 -->
<!--zoomable 708 -->
<svg id="main" version="1.1" xmlns="http://www.w3.org/2000/svg" xmlns:xlink="http://www.w3.org/1999/xlink" xml:space="preserve" onload="init(evt)">
<style type="text/css"><![CDATA[
.edge:hover path { stroke: red; }
.edge:hover polygon { stroke: red; fill: red; }
]]></style>
<script type="text/javascript"><![CDATA[
var edges = document.getElementsByTagName('g');
if (edges && edges.length) {
  for (var i=0;i<edges.length;i++) {
    if (edges[i].id.substr(0,4)=='edge') {
      edges[i].setAttribute('class','edge');
    }
  }
}
]]></script>
        <defs>
                <circle id="rim" cx="0" cy="0" r="7"/>
                <circle id="rim2" cx="0" cy="0" r="3.5"/>
                <g id="zoomPlus">
                        <use xlink:href="#rim" fill="#404040">
                                <set attributeName="fill" to="#808080" begin="zoomplus.mouseover" end="zoomplus.mouseout"/>
                        </use>
                        <path d="M-4,0h8M0,-4v8" fill="none" stroke="white" stroke-width="1.5" pointer-events="none"/>
                </g>
                <g id="zoomMin">
                        <use xlink:href="#rim" fill="#404040">
                                <set attributeName="fill" to="#808080" begin="zoomminus.mouseover" end="zoomminus.mouseout"/>
                        </use>
                        <path d="M-4,0h8" fill="none" stroke="white" stroke-width="1.5" pointer-events="none"/>
                </g>
                <g id="dirArrow">
                        <path fill="none" stroke="white" stroke-width="1.5" d="M0,-3.0v7 M-2.5,-0.5L0,-3.0L2.5,-0.5"/>
                </g>
               <g id="resetDef">
                       <use xlink:href="#rim2" fill="#404040">
                               <set attributeName="fill" to="#808080" begin="reset.mouseover" end="reset.mouseout"/>
                       </use>
               </g>
        </defs>

<script type="text/javascript">
var viewWidth = 1867;
var viewHeight = 708;
var sectionId = 'dynsection-1';
</script>
<script xlink:href="svgpan.js"/>
<svg id="graph" class="graph">
<g id="viewport">
<title>C:/projects/ndt/sources/include/ndt/common.h</title>
<polygon fill="white" stroke="none" points="-4,4 -4,-704 1863,-704 1863,4 -4,4"/>
<!-- Node1 -->
<g id="node1" class="node"><title>Node1</title>
<g id="a_node1"><a xlink:title="Header with typedefs to make type designation platform independent.">
<polygon fill="#bfbfbf" stroke="black" points="1296,-669.5 1296,-699.5 1414,-699.5 1414,-669.5 1296,-669.5"/>
<text text-anchor="start" x="1304" y="-687.5" font-family="Helvetica,sans-Serif" font-size="10.00">C:/projects/ndt/sources</text>
<text text-anchor="middle" x="1355" y="-676.5" font-family="Helvetica,sans-Serif" font-size="10.00">/include/ndt/common.h</text>
</a>
</g>
</g>
<!-- Node2 -->
<g id="node2" class="node"><title>Node2</title>
<g id="a_node2"><a xlink:href="buffer_8h.html" target="_top" xlink:title=" ">
<polygon fill="white" stroke="black" points="546,-597 546,-627 664,-627 664,-597 546,-597"/>
<text text-anchor="start" x="554" y="-615" font-family="Helvetica,sans-Serif" font-size="10.00">C:/projects/ndt/sources</text>
<text text-anchor="middle" x="605" y="-604" font-family="Helvetica,sans-Serif" font-size="10.00">/include/ndt/buffer.h</text>
</a>
</g>
</g>
<!-- Node1&#45;&gt;Node2 -->
<g id="edge1" class="edge"><title>Node1&#45;&gt;Node2</title>
<path fill="none" stroke="midnightblue" d="M1285.86,-677.254C1182.07,-667.847 979.813,-649.395 808,-633 759.526,-628.375 704.561,-622.948 664.062,-618.916"/>
<polygon fill="midnightblue" stroke="midnightblue" points="1285.62,-680.747 1295.9,-678.164 1286.26,-673.776 1285.62,-680.747"/>
</g>
<!-- Node4 -->
<g id="node4" class="node"><title>Node4</title>
<g id="a_node4"><a xlink:href="core_8h.html" target="_top" xlink:title=" ">
<polygon fill="white" stroke="black" points="895,-0.5 895,-30.5 1013,-30.5 1013,-0.5 895,-0.5"/>
<text text-anchor="start" x="903" y="-18.5" font-family="Helvetica,sans-Serif" font-size="10.00">C:/projects/ndt/sources</text>
<text text-anchor="middle" x="954" y="-7.5" font-family="Helvetica,sans-Serif" font-size="10.00">/include/ndt/core.h</text>
</a>
</g>
</g>
<!-- Node1&#45;&gt;Node4 -->
<g id="edge34" class="edge"><title>Node1&#45;&gt;Node4</title>
<path fill="none" stroke="midnightblue" d="M1285.6,-683.261C1008.99,-681.409 0,-665.696 0,-535 0,-535 0,-535 0,-165 0,-114.16 15.4629,-93.2528 59,-67 130.218,-24.0554 706.466,-17.6184 894.732,-16.6634"/>
<polygon fill="midnightblue" stroke="midnightblue" points="1285.88,-686.763 1295.91,-683.326 1285.93,-679.763 1285.88,-686.763"/>
</g>
<!-- Node5 -->
<g id="node5" class="node"><title>Node5</title>
<g id="a_node5"><a xlink:href="socket_8h.html" target="_top" xlink:title=" ">
<polygon fill="white" stroke="black" points="953,-379.5 953,-409.5 1071,-409.5 1071,-379.5 953,-379.5"/>
<text text-anchor="start" x="961" y="-397.5" font-family="Helvetica,sans-Serif" font-size="10.00">C:/projects/ndt/sources</text>
<text text-anchor="middle" x="1012" y="-386.5" font-family="Helvetica,sans-Serif" font-size="10.00">/include/ndt/socket.h</text>
</a>
</g>
</g>
<!-- Node1&#45;&gt;Node5 -->
<g id="edge44" class="edge"><title>Node1&#45;&gt;Node5</title>
<path fill="none" stroke="midnightblue" d="M1322.28,-663.669C1310.18,-655.257 1297,-644.688 1287,-633 1247.84,-587.23 1271.36,-550.225 1224,-513 1172.13,-472.232 1135.89,-512.054 1080,-477 1052.68,-459.864 1030.94,-428.071 1019.91,-409.668"/>
<polygon fill="midnightblue" stroke="midnightblue" points="1320.57,-666.74 1330.83,-669.398 1324.47,-660.925 1320.57,-666.74"/>
</g>
<!-- Node6 -->
<g id="node6" class="node"><title>Node6</title>
<g id="a_node6"><a xlink:href="executor__select__base_8h.html" target="_top" xlink:title=" ">
<polygon fill="white" stroke="black" points="1529,-301.5 1529,-342.5 1647,-342.5 1647,-301.5 1529,-301.5"/>
<text text-anchor="start" x="1537" y="-330.5" font-family="Helvetica,sans-Serif" font-size="10.00">C:/projects/ndt/sources</text>
<text text-anchor="start" x="1537" y="-319.5" font-family="Helvetica,sans-Serif" font-size="10.00">/include/ndt/executor</text>
<text text-anchor="middle" x="1588" y="-308.5" font-family="Helvetica,sans-Serif" font-size="10.00">_select_base.h</text>
</a>
</g>
</g>
<!-- Node1&#45;&gt;Node6 -->
<g id="edge40" class="edge"><title>Node1&#45;&gt;Node6</title>
<path fill="none" stroke="midnightblue" d="M1424.25,-678.275C1491.24,-671.797 1586.42,-658.362 1613,-633 1645.44,-602.043 1637,-579.843 1637,-535 1637,-535 1637,-535 1637,-460.5 1637,-416.405 1614.36,-368.73 1599.86,-342.712"/>
<polygon fill="midnightblue" stroke="midnightblue" points="1423.8,-674.802 1414.17,-679.219 1424.46,-681.772 1423.8,-674.802"/>
</g>
<!-- Node7 -->
<g id="node7" class="node"><title>Node7</title>
<g id="a_node7"><a xlink:href="nix_2executor__select__impl_8h.html" target="_top" xlink:title=" ">
<polygon fill="white" stroke="black" points="1520,-223.5 1520,-264.5 1656,-264.5 1656,-223.5 1520,-223.5"/>
<text text-anchor="start" x="1528" y="-252.5" font-family="Helvetica,sans-Serif" font-size="10.00">C:/projects/ndt/sources</text>
<text text-anchor="start" x="1528" y="-241.5" font-family="Helvetica,sans-Serif" font-size="10.00">/include/ndt/platform</text>
<text text-anchor="middle" x="1588" y="-230.5" font-family="Helvetica,sans-Serif" font-size="10.00">/nix/executor_select_impl.h</text>
</a>
</g>
</g>
<!-- Node1&#45;&gt;Node7 -->
<g id="edge41" class="edge"><title>Node1&#45;&gt;Node7</title>
<path fill="none" stroke="midnightblue" d="M1424.2,-679.029C1497.57,-672.955 1607.19,-659.646 1639,-633 1674.57,-603.201 1675,-581.401 1675,-535 1675,-535 1675,-535 1675,-393.5 1675,-351.531 1677.66,-336.949 1656,-301 1647.24,-286.459 1633.29,-274 1620.3,-264.551"/>
<polygon fill="midnightblue" stroke="midnightblue" points="1423.79,-675.551 1414.1,-679.839 1424.35,-682.529 1423.79,-675.551"/>
</g>
<!-- Node11 -->
<g id="node11" class="node"><title>Node11</title>
<g id="a_node11"><a xlink:href="win_2executor__select__impl_8h.html" target="_top" xlink:title=" ">
<polygon fill="white" stroke="black" points="1674.5,-223.5 1674.5,-264.5 1811.5,-264.5 1811.5,-223.5 1674.5,-223.5"/>
<text text-anchor="start" x="1682.5" y="-252.5" font-family="Helvetica,sans-Serif" font-size="10.00">C:/projects/ndt/sources</text>
<text text-anchor="start" x="1682.5" y="-241.5" font-family="Helvetica,sans-Serif" font-size="10.00">/include/ndt/platform</text>
<text text-anchor="middle" x="1743" y="-230.5" font-family="Helvetica,sans-Serif" font-size="10.00">/win/executor_select_impl.h</text>
</a>
</g>
</g>
<!-- Node1&#45;&gt;Node11 -->
<g id="edge43" class="edge"><title>Node1&#45;&gt;Node11</title>
<path fill="none" stroke="midnightblue" d="M1424.24,-679.944C1504.83,-674.526 1631.65,-661.634 1669,-633 1706.89,-603.949 1713,-582.744 1713,-535 1713,-535 1713,-535 1713,-393.5 1713,-346.682 1727.5,-293.177 1736.34,-264.918"/>
<polygon fill="midnightblue" stroke="midnightblue" points="1423.91,-676.457 1414.16,-680.599 1424.37,-683.443 1423.91,-676.457"/>
</g>
<!-- Node13 -->
<g id="node13" class="node"><title>Node13</title>
<g id="a_node13"><a xlink:href="udp_8cpp.html" target="_top" xlink:title=" ">
<polygon fill="white" stroke="black" points="1174,-229 1174,-259 1292,-259 1292,-229 1174,-229"/>
<text text-anchor="start" x="1182" y="-247" font-family="Helvetica,sans-Serif" font-size="10.00">C:/projects/ndt/sources</text>
<text text-anchor="middle" x="1233" y="-236" font-family="Helvetica,sans-Serif" font-size="10.00">/src/udp.cpp</text>
</a>
</g>
</g>
<!-- Node1&#45;&gt;Node13 -->
<g id="edge65" class="edge"><title>Node1&#45;&gt;Node13</title>
<path fill="none" stroke="midnightblue" d="M1419.4,-666.46C1493.93,-642.752 1603.5,-593.425 1579,-513 1535.71,-370.904 1356.75,-289.541 1274.59,-259.021"/>
<polygon fill="midnightblue" stroke="midnightblue" points="1418.11,-663.196 1409.59,-669.498 1420.18,-669.883 1418.11,-663.196"/>
</g>
<!-- Node22 -->
<g id="node22" class="node"><title>Node22</title>
<g id="a_node22"><a xlink:href="exception_8h.html" target="_top" xlink:title=" ">
<polygon fill="white" stroke="black" points="65,-519 65,-549 185,-549 185,-519 65,-519"/>
<text text-anchor="start" x="73" y="-537" font-family="Helvetica,sans-Serif" font-size="10.00">C:/projects/ndt/sources</text>
<text text-anchor="middle" x="125" y="-526" font-family="Helvetica,sans-Serif" font-size="10.00">/include/ndt/exception.h</text>
</a>
</g>
</g>
<!-- Node1&#45;&gt;Node22 -->
<g id="edge35" class="edge"><title>Node1&#45;&gt;Node22</title>
<path fill="none" stroke="midnightblue" d="M1285.62,-683.07C1144.11,-681.347 812.254,-672.977 537,-633 402.576,-613.477 247.596,-571.092 171.74,-549.011"/>
<polygon fill="midnightblue" stroke="midnightblue" points="1285.85,-686.573 1295.89,-683.187 1285.93,-679.573 1285.85,-686.573"/>
</g>
<!-- Node24 -->
<g id="node24" class="node"><title>Node24</title>
<g id="a_node24"><a xlink:href="win_2context__base_8h.html" target="_top" xlink:title=" ">
<polygon fill="white" stroke="black" points="1097,-513.5 1097,-554.5 1215,-554.5 1215,-513.5 1097,-513.5"/>
<text text-anchor="start" x="1105" y="-542.5" font-family="Helvetica,sans-Serif" font-size="10.00">C:/projects/ndt/sources</text>
<text text-anchor="start" x="1105" y="-531.5" font-family="Helvetica,sans-Serif" font-size="10.00">/include/ndt/platform</text>
<text text-anchor="middle" x="1156" y="-520.5" font-family="Helvetica,sans-Serif" font-size="10.00">/win/context_base.h</text>
</a>
</g>
</g>
<!-- Node1&#45;&gt;Node24 -->
<g id="edge42" class="edge"><title>Node1&#45;&gt;Node24</title>
<path fill="none" stroke="midnightblue" d="M1292.29,-666.043C1270.86,-658.162 1247.63,-647.333 1229,-633 1201.09,-611.522 1178.68,-576.692 1166.37,-554.857"/>
<polygon fill="midnightblue" stroke="midnightblue" points="1291.39,-669.437 1301.98,-669.458 1293.71,-662.834 1291.39,-669.437"/>
</g>
<!-- Node25 -->
<g id="node25" class="node"><title>Node25</title>
<g id="a_node25"><a xlink:href="sys__error__code_8h.html" target="_top" xlink:title=" ">
<polygon fill="white" stroke="black" points="1296,-591.5 1296,-632.5 1414,-632.5 1414,-591.5 1296,-591.5"/>
<text text-anchor="start" x="1304" y="-620.5" font-family="Helvetica,sans-Serif" font-size="10.00">C:/projects/ndt/sources</text>
<text text-anchor="start" x="1304" y="-609.5" font-family="Helvetica,sans-Serif" font-size="10.00">/include/ndt/sys_error</text>
<text text-anchor="middle" x="1355" y="-598.5" font-family="Helvetica,sans-Serif" font-size="10.00">_code.h</text>
</a>
</g>
</g>
<!-- Node1&#45;&gt;Node25 -->
<g id="edge45" class="edge"><title>Node1&#45;&gt;Node25</title>
<path fill="none" stroke="midnightblue" d="M1355,-658.982C1355,-650.347 1355,-640.762 1355,-632.588"/>
<polygon fill="midnightblue" stroke="midnightblue" points="1351.5,-659.233 1355,-669.233 1358.5,-659.233 1351.5,-659.233"/>
</g>
<!-- Node28 -->
<g id="node28" class="node"><title>Node28</title>
<g id="a_node28"><a xlink:href="sys__socket__ops_8h.html" target="_top" xlink:title=" ">
<polygon fill="white" stroke="black" points="1421.5,-519 1421.5,-549 1570.5,-549 1570.5,-519 1421.5,-519"/>
<text text-anchor="start" x="1429.5" y="-537" font-family="Helvetica,sans-Serif" font-size="10.00">C:/projects/ndt/sources</text>
<text text-anchor="middle" x="1496" y="-526" font-family="Helvetica,sans-Serif" font-size="10.00">/include/ndt/sys_socket_ops.h</text>
</a>
</g>
</g>
<!-- Node1&#45;&gt;Node28 -->
<g id="edge53" class="edge"><title>Node1&#45;&gt;Node28</title>
<path fill="none" stroke="midnightblue" d="M1385.97,-663.396C1398.15,-654.769 1411.86,-644.12 1423,-633 1449.72,-606.317 1474.58,-569.361 1487.24,-549.318"/>
<polygon fill="midnightblue" stroke="midnightblue" points="1383.66,-660.736 1377.42,-669.299 1387.64,-666.495 1383.66,-660.736"/>
</g>
<!-- Node30 -->
<g id="node30" class="node"><title>Node30</title>
<g id="a_node30"><a xlink:href="utils_8h.html" target="_top" xlink:title=" ">
<polygon fill="white" stroke="black" points="817,-597 817,-627 935,-627 935,-597 817,-597"/>
<text text-anchor="start" x="825" y="-615" font-family="Helvetica,sans-Serif" font-size="10.00">C:/projects/ndt/sources</text>
<text text-anchor="middle" x="876" y="-604" font-family="Helvetica,sans-Serif" font-size="10.00">/include/ndt/utils.h</text>
</a>
</g>
</g>
<!-- Node1&#45;&gt;Node30 -->
<g id="edge54" class="edge"><title>Node1&#45;&gt;Node30</title>
<path fill="none" stroke="midnightblue" d="M1285.76,-673.31C1191.36,-659.415 1023.87,-634.764 935.08,-621.695"/>
<polygon fill="midnightblue" stroke="midnightblue" points="1285.38,-676.791 1295.78,-674.785 1286.4,-669.866 1285.38,-676.791"/>
</g>
<!-- Node32 -->
<g id="node32" class="node"><title>Node32</title>
<g id="a_node32"><a xlink:href="common_8cpp.html" target="_top" xlink:title=" ">
<polygon fill="white" stroke="black" points="1741,-597 1741,-627 1859,-627 1859,-597 1741,-597"/>
<text text-anchor="start" x="1749" y="-615" font-family="Helvetica,sans-Serif" font-size="10.00">C:/projects/ndt/sources</text>
<text text-anchor="middle" x="1800" y="-604" font-family="Helvetica,sans-Serif" font-size="10.00">/src/common.cpp</text>
</a>
</g>
</g>
<!-- Node1&#45;&gt;Node32 -->
<g id="edge64" class="edge"><title>Node1&#45;&gt;Node32</title>
<path fill="none" stroke="midnightblue" d="M1424.3,-676.867C1499.36,-669.04 1622.4,-654.331 1727,-633 1735.24,-631.32 1743.92,-629.229 1752.31,-627.039"/>
<polygon fill="midnightblue" stroke="midnightblue" points="1423.62,-673.419 1414.04,-677.926 1424.34,-680.382 1423.62,-673.419"/>
</g>
<!-- Node3 -->
<g id="node3" class="node"><title>Node3</title>
<g id="a_node3"><a xlink:href="address_8h.html" target="_top" xlink:title=" ">
<polygon fill="white" stroke="black" points="240,-446.5 240,-476.5 358,-476.5 358,-446.5 240,-446.5"/>
<text text-anchor="start" x="248" y="-464.5" font-family="Helvetica,sans-Serif" font-size="10.00">C:/projects/ndt/sources</text>
<text text-anchor="middle" x="299" y="-453.5" font-family="Helvetica,sans-Serif" font-size="10.00">/include/ndt/address.h</text>
</a>
</g>
</g>
<!-- Node2&#45;&gt;Node3 -->
<g id="edge2" class="edge"><title>Node2&#45;&gt;Node3</title>
<path fill="none" stroke="midnightblue" d="M535.718,-608.218C484.205,-603.18 414.259,-589.803 363,-555 333.757,-535.145 313.872,-497.126 304.731,-476.554"/>
<polygon fill="midnightblue" stroke="midnightblue" points="535.491,-611.712 545.763,-609.119 536.116,-604.74 535.491,-611.712"/>
</g>
<!-- Node2&#45;&gt;Node4 -->
<g id="edge29" class="edge"><title>Node2&#45;&gt;Node4</title>
<path fill="none" stroke="midnightblue" d="M535.543,-601.393C464.31,-590.809 358.877,-572.904 322,-555 244.535,-517.39 212,-481.612 212,-395.5 212,-395.5 212,-395.5 212,-165 212,-96.8274 266.867,-92.7236 330,-67 431.408,-25.6814 759.771,-18.1205 894.986,-16.7738"/>
<polygon fill="midnightblue" stroke="midnightblue" points="535.39,-604.908 545.793,-602.9 536.409,-597.982 535.39,-604.908"/>
</g>
<!-- Node2&#45;&gt;Node5 -->
<g id="edge32" class="edge"><title>Node2&#45;&gt;Node5</title>
<path fill="none" stroke="midnightblue" d="M633.4,-591.12C665.979,-569.145 721.661,-534.077 774,-513 836.395,-487.874 861.502,-508.375 921,-477 953.83,-459.688 984.299,-427.96 1000.29,-409.615"/>
<polygon fill="midnightblue" stroke="midnightblue" points="631.14,-588.425 624.846,-596.948 635.081,-594.21 631.14,-588.425"/>
</g>
<!-- Node15 -->
<g id="node15" class="node"><title>Node15</title>
<g id="a_node15"><a xlink:href="bin__rw_8h.html" target="_top" xlink:title=" ">
<polygon fill="white" stroke="black" points="546,-519 546,-549 664,-549 664,-519 546,-519"/>
<text text-anchor="start" x="554" y="-537" font-family="Helvetica,sans-Serif" font-size="10.00">C:/projects/ndt/sources</text>
<text text-anchor="middle" x="605" y="-526" font-family="Helvetica,sans-Serif" font-size="10.00">/include/ndt/bin_rw.h</text>
</a>
</g>
</g>
<!-- Node2&#45;&gt;Node15 -->
<g id="edge21" class="edge"><title>Node2&#45;&gt;Node15</title>
<path fill="none" stroke="midnightblue" d="M605,-586.59C605,-574.257 605,-559.724 605,-549.231"/>
<polygon fill="midnightblue" stroke="midnightblue" points="601.5,-586.705 605,-596.705 608.5,-586.705 601.5,-586.705"/>
</g>
<!-- Node19 -->
<g id="node19" class="node"><title>Node19</title>
<g id="a_node19"><a xlink:href="file_8h.html" target="_top" xlink:title=" ">
<polygon fill="white" stroke="black" points="1089,-446.5 1089,-476.5 1207,-476.5 1207,-446.5 1089,-446.5"/>
<text text-anchor="start" x="1097" y="-464.5" font-family="Helvetica,sans-Serif" font-size="10.00">C:/projects/ndt/sources</text>
<text text-anchor="middle" x="1148" y="-453.5" font-family="Helvetica,sans-Serif" font-size="10.00">/include/ndt/file.h</text>
</a>
</g>
</g>
<!-- Node2&#45;&gt;Node19 -->
<g id="edge30" class="edge"><title>Node2&#45;&gt;Node19</title>
<path fill="none" stroke="midnightblue" d="M654.845,-593.586C715.571,-572.745 821.518,-537.586 914,-513 973.043,-497.304 1041.43,-482.982 1088.97,-473.633"/>
<polygon fill="midnightblue" stroke="midnightblue" points="653.45,-590.365 645.134,-596.93 655.728,-596.984 653.45,-590.365"/>
</g>
<!-- Node21 -->
<g id="node21" class="node"><title>Node21</title>
<g id="a_node21"><a xlink:href="buffer_8cpp.html" target="_top" xlink:title=" ">
<polygon fill="white" stroke="black" points="372,-519 372,-549 490,-549 490,-519 372,-519"/>
<text text-anchor="start" x="380" y="-537" font-family="Helvetica,sans-Serif" font-size="10.00">C:/projects/ndt/sources</text>
<text text-anchor="middle" x="431" y="-526" font-family="Helvetica,sans-Serif" font-size="10.00">/src/buffer.cpp</text>
</a>
</g>
</g>
<!-- Node2&#45;&gt;Node21 -->
<g id="edge33" class="edge"><title>Node2&#45;&gt;Node21</title>
<path fill="none" stroke="midnightblue" d="M563.498,-592.873C532.738,-579.437 491.417,-561.389 463.147,-549.041"/>
<polygon fill="midnightblue" stroke="midnightblue" points="562.115,-596.088 572.68,-596.883 564.917,-589.673 562.115,-596.088"/>
</g>
<!-- Node3&#45;&gt;Node4 -->
<g id="edge3" class="edge"><title>Node3&#45;&gt;Node4</title>
<path fill="none" stroke="midnightblue" d="M295.884,-436.262C292.631,-408.829 288,-362.78 288,-323 288,-323 288,-323 288,-165 288,-41.2047 731.902,-20.5658 894.897,-17.1602"/>
<polygon fill="midnightblue" stroke="midnightblue" points="292.445,-436.975 297.134,-446.476 299.393,-436.125 292.445,-436.975"/>
</g>
<!-- Node3&#45;&gt;Node5 -->
<g id="edge4" class="edge"><title>Node3&#45;&gt;Node5</title>
<path fill="none" stroke="midnightblue" d="M368.214,-450.957C382.042,-449.192 396.472,-447.45 410,-446 608.66,-424.703 845.013,-407.138 952.954,-399.544"/>
<polygon fill="midnightblue" stroke="midnightblue" points="367.743,-447.488 358.274,-452.242 368.64,-454.431 367.743,-447.488"/>
</g>
<!-- Node14 -->
<g id="node14" class="node"><title>Node14</title>
<g id="a_node14"><a xlink:href="address_8cpp.html" target="_top" xlink:title=" ">
<polygon fill="white" stroke="black" points="316,-379.5 316,-409.5 434,-409.5 434,-379.5 316,-379.5"/>
<text text-anchor="start" x="324" y="-397.5" font-family="Helvetica,sans-Serif" font-size="10.00">C:/projects/ndt/sources</text>
<text text-anchor="middle" x="375" y="-386.5" font-family="Helvetica,sans-Serif" font-size="10.00">/src/address.cpp</text>
</a>
</g>
</g>
<!-- Node3&#45;&gt;Node14 -->
<g id="edge20" class="edge"><title>Node3&#45;&gt;Node14</title>
<path fill="none" stroke="midnightblue" d="M323.106,-439.883C334.655,-430.005 348.19,-418.429 358.541,-409.577"/>
<polygon fill="midnightblue" stroke="midnightblue" points="320.816,-437.236 315.491,-446.396 325.365,-442.556 320.816,-437.236"/>
</g>
<!-- Node5&#45;&gt;Node4 -->
<g id="edge5" class="edge"><title>Node5&#45;&gt;Node4</title>
<path fill="none" stroke="midnightblue" d="M1004.66,-369.64C996.363,-340.517 984,-289.629 984,-245 984,-245 984,-245 984,-165 984,-114.763 967.3,-56.8256 958.82,-30.643"/>
<polygon fill="midnightblue" stroke="midnightblue" points="1001.33,-370.721 1007.5,-379.332 1008.05,-368.752 1001.33,-370.721"/>
</g>
<!-- Node5&#45;&gt;Node6 -->
<g id="edge6" class="edge"><title>Node5&#45;&gt;Node6</title>
<path fill="none" stroke="midnightblue" d="M1081.26,-378.893C1248.87,-352.281 1435.47,-335.245 1528.69,-327.595"/>
<polygon fill="midnightblue" stroke="midnightblue" points="1080.59,-375.456 1071.27,-380.495 1081.7,-382.368 1080.59,-375.456"/>
</g>
<!-- Node12 -->
<g id="node12" class="node"><title>Node12</title>
<g id="a_node12"><a xlink:href="udp_8h.html" target="_top" xlink:title=" ">
<polygon fill="white" stroke="black" points="1155,-307 1155,-337 1273,-337 1273,-307 1155,-307"/>
<text text-anchor="start" x="1163" y="-325" font-family="Helvetica,sans-Serif" font-size="10.00">C:/projects/ndt/sources</text>
<text text-anchor="middle" x="1214" y="-314" font-family="Helvetica,sans-Serif" font-size="10.00">/include/ndt/udp.h</text>
</a>
</g>
</g>
<!-- Node5&#45;&gt;Node12 -->
<g id="edge17" class="edge"><title>Node5&#45;&gt;Node12</title>
<path fill="none" stroke="midnightblue" d="M1062.24,-375.965C1096.63,-363.962 1141.63,-348.258 1173.68,-337.073"/>
<polygon fill="midnightblue" stroke="midnightblue" points="1060.68,-372.803 1052.39,-379.403 1062.99,-379.412 1060.68,-372.803"/>
</g>
<!-- Node6&#45;&gt;Node4 -->
<g id="edge7" class="edge"><title>Node6&#45;&gt;Node4</title>
<path fill="none" stroke="midnightblue" d="M1534.31,-296.567C1519.16,-288.015 1503.43,-277.397 1491,-265 1418.95,-193.135 1461.02,-122.928 1376,-67 1317.67,-28.6284 1114.96,-19.3914 1013.21,-17.1833"/>
<polygon fill="midnightblue" stroke="midnightblue" points="1532.68,-299.663 1543.13,-301.361 1536.02,-293.512 1532.68,-299.663"/>
</g>
<!-- Node6&#45;&gt;Node7 -->
<g id="edge8" class="edge"><title>Node6&#45;&gt;Node7</title>
<path fill="none" stroke="midnightblue" d="M1588,-291.297C1588,-282.301 1588,-272.653 1588,-264.506"/>
<polygon fill="midnightblue" stroke="midnightblue" points="1584.5,-291.428 1588,-301.428 1591.5,-291.428 1584.5,-291.428"/>
</g>
<!-- Node6&#45;&gt;Node11 -->
<g id="edge16" class="edge"><title>Node6&#45;&gt;Node11</title>
<path fill="none" stroke="midnightblue" d="M1637.13,-296.908C1658.45,-286.458 1683.08,-274.38 1703.22,-264.506"/>
<polygon fill="midnightblue" stroke="midnightblue" points="1635.35,-293.883 1627.92,-301.428 1638.44,-300.168 1635.35,-293.883"/>
</g>
<!-- Node8 -->
<g id="node8" class="node"><title>Node8</title>
<g id="a_node8"><a xlink:href="executor__select_8h.html" target="_top" xlink:title=" ">
<polygon fill="white" stroke="black" points="1528,-145.5 1528,-186.5 1646,-186.5 1646,-145.5 1528,-145.5"/>
<text text-anchor="start" x="1536" y="-174.5" font-family="Helvetica,sans-Serif" font-size="10.00">C:/projects/ndt/sources</text>
<text text-anchor="start" x="1536" y="-163.5" font-family="Helvetica,sans-Serif" font-size="10.00">/include/ndt/executor</text>
<text text-anchor="middle" x="1587" y="-152.5" font-family="Helvetica,sans-Serif" font-size="10.00">_select.h</text>
</a>
</g>
</g>
<!-- Node7&#45;&gt;Node8 -->
<g id="edge9" class="edge"><title>Node7&#45;&gt;Node8</title>
<path fill="none" stroke="midnightblue" d="M1587.61,-213.297C1587.49,-204.301 1587.36,-194.653 1587.26,-186.506"/>
<polygon fill="midnightblue" stroke="midnightblue" points="1584.11,-213.475 1587.74,-223.428 1591.11,-213.383 1584.11,-213.475"/>
</g>
<!-- Node8&#45;&gt;Node4 -->
<g id="edge12" class="edge"><title>Node8&#45;&gt;Node4</title>
<path fill="none" stroke="midnightblue" d="M1589.27,-135.206C1589.19,-112.978 1584.98,-83.6826 1566,-67 1525.03,-30.9967 1158.55,-20.2847 1013.1,-17.4352"/>
<polygon fill="midnightblue" stroke="midnightblue" points="1585.76,-135.384 1589.03,-145.464 1592.76,-135.55 1585.76,-135.384"/>
</g>
<!-- Node9 -->
<g id="node9" class="node"><title>Node9</title>
<g id="a_node9"><a xlink:href="context_8h.html" target="_top" xlink:title=" ">
<polygon fill="white" stroke="black" points="1614,-73 1614,-103 1732,-103 1732,-73 1614,-73"/>
<text text-anchor="start" x="1622" y="-91" font-family="Helvetica,sans-Serif" font-size="10.00">C:/projects/ndt/sources</text>
<text text-anchor="middle" x="1673" y="-80" font-family="Helvetica,sans-Serif" font-size="10.00">/include/ndt/context.h</text>
</a>
</g>
</g>
<!-- Node8&#45;&gt;Node9 -->
<g id="edge10" class="edge"><title>Node8&#45;&gt;Node9</title>
<path fill="none" stroke="midnightblue" d="M1616.81,-138.658C1630.27,-126.761 1645.64,-113.176 1656.9,-103.225"/>
<polygon fill="midnightblue" stroke="midnightblue" points="1614.32,-136.183 1609.15,-145.428 1618.96,-141.429 1614.32,-136.183"/>
</g>
<!-- Node10 -->
<g id="node10" class="node"><title>Node10</title>
<g id="a_node10"><a xlink:href="event__handler__select_8h.html" target="_top" xlink:title=" ">
<polygon fill="white" stroke="black" points="1428.5,-67.5 1428.5,-108.5 1557.5,-108.5 1557.5,-67.5 1428.5,-67.5"/>
<text text-anchor="start" x="1436.5" y="-96.5" font-family="Helvetica,sans-Serif" font-size="10.00">C:/projects/ndt/sources</text>
<text text-anchor="start" x="1436.5" y="-85.5" font-family="Helvetica,sans-Serif" font-size="10.00">/include/ndt/event_handler</text>
<text text-anchor="middle" x="1493" y="-74.5" font-family="Helvetica,sans-Serif" font-size="10.00">_select.h</text>
</a>
</g>
</g>
<!-- Node8&#45;&gt;Node10 -->
<g id="edge13" class="edge"><title>Node8&#45;&gt;Node10</title>
<path fill="none" stroke="midnightblue" d="M1554.92,-139.065C1542.54,-129.057 1528.63,-117.804 1517.13,-108.506"/>
<polygon fill="midnightblue" stroke="midnightblue" points="1552.82,-141.863 1562.79,-145.428 1557.22,-136.419 1552.82,-141.863"/>
</g>
<!-- Node9&#45;&gt;Node4 -->
<g id="edge11" class="edge"><title>Node9&#45;&gt;Node4</title>
<path fill="none" stroke="midnightblue" d="M1616.85,-70.4733C1611.19,-69.1521 1605.5,-67.9598 1600,-67 1386.11,-29.6876 1127.56,-19.9324 1013.25,-17.3907"/>
<polygon fill="midnightblue" stroke="midnightblue" points="1616.41,-73.9703 1626.96,-72.9683 1618.09,-67.1742 1616.41,-73.9703"/>
</g>
<!-- Node10&#45;&gt;Node4 -->
<g id="edge14" class="edge"><title>Node10&#45;&gt;Node4</title>
<path fill="none" stroke="midnightblue" d="M1418.47,-67.8367C1416.97,-67.5465 1415.48,-67.2671 1414,-67 1271.29,-41.2306 1101.14,-26.6948 1013.19,-20.3623"/>
<polygon fill="midnightblue" stroke="midnightblue" points="1417.99,-71.3103 1428.49,-69.8931 1419.4,-64.4534 1417.99,-71.3103"/>
</g>
<!-- Node10&#45;&gt;Node6 -->
<g id="edge15" class="edge"><title>Node10&#45;&gt;Node6</title>
<path fill="none" stroke="midnightblue" d="M1489.04,-118.608C1485.59,-155.483 1484.66,-219.2 1511,-265 1519.74,-280.188 1534.44,-292.4 1548.67,-301.496"/>
<polygon fill="midnightblue" stroke="midnightblue" points="1492.53,-118.829 1490.11,-108.515 1485.57,-118.091 1492.53,-118.829"/>
</g>
<!-- Node12&#45;&gt;Node4 -->
<g id="edge18" class="edge"><title>Node12&#45;&gt;Node4</title>
<path fill="none" stroke="midnightblue" d="M1194.64,-299.059C1185.59,-288.758 1174.7,-276.289 1165,-265 1089.98,-177.678 1072.93,-154.401 998,-67 987.404,-54.6403 975.239,-40.6958 966.389,-30.5964"/>
<polygon fill="midnightblue" stroke="midnightblue" points="1192.21,-301.596 1201.44,-306.792 1197.46,-296.972 1192.21,-301.596"/>
</g>
<!-- Node12&#45;&gt;Node13 -->
<g id="edge19" class="edge"><title>Node12&#45;&gt;Node13</title>
<path fill="none" stroke="midnightblue" d="M1220.01,-296.963C1223.11,-284.551 1226.79,-269.83 1229.44,-259.231"/>
<polygon fill="midnightblue" stroke="midnightblue" points="1216.6,-296.155 1217.57,-306.705 1223.39,-297.852 1216.6,-296.155"/>
</g>
<!-- Node15&#45;&gt;Node3 -->
<g id="edge22" class="edge"><title>Node15&#45;&gt;Node3</title>
<path fill="none" stroke="midnightblue" d="M545.354,-516.376C540.842,-515.205 536.353,-514.067 532,-513 473.107,-498.561 405.314,-484.11 358.094,-474.389"/>
<polygon fill="midnightblue" stroke="midnightblue" points="544.661,-519.813 555.222,-518.977 546.445,-513.044 544.661,-519.813"/>
</g>
<!-- Node15&#45;&gt;Node4 -->
<g id="edge23" class="edge"><title>Node15&#45;&gt;Node4</title>
<path fill="none" stroke="midnightblue" d="M554.5,-515.412C524.776,-504.097 491.081,-489.269 481,-477 457.388,-448.263 462,-432.694 462,-395.5 462,-395.5 462,-395.5 462,-165 462,-75.5543 763.796,-35.1259 894.653,-21.8005"/>
<polygon fill="midnightblue" stroke="midnightblue" points="553.384,-518.731 563.976,-518.955 555.835,-512.175 553.384,-518.731"/>
</g>
<!-- Node15&#45;&gt;Node14 -->
<g id="edge28" class="edge"><title>Node15&#45;&gt;Node14</title>
<path fill="none" stroke="midnightblue" d="M547.857,-515.881C510.187,-503.982 464.815,-488.295 448,-477 420.563,-458.57 396.699,-427.543 384.226,-409.556"/>
<polygon fill="midnightblue" stroke="midnightblue" points="547.156,-519.329 557.745,-518.974 549.246,-512.648 547.156,-519.329"/>
</g>
<!-- Node16 -->
<g id="node16" class="node"><title>Node16</title>
<g id="a_node16"><a xlink:href="packet__handlers_8h.html" target="_top" xlink:title=" ">
<polygon fill="white" stroke="black" points="626.5,-446.5 626.5,-476.5 775.5,-476.5 775.5,-446.5 626.5,-446.5"/>
<text text-anchor="start" x="634.5" y="-464.5" font-family="Helvetica,sans-Serif" font-size="10.00">C:/projects/ndt/sources</text>
<text text-anchor="middle" x="701" y="-453.5" font-family="Helvetica,sans-Serif" font-size="10.00">/include/ndt/packet_handlers.h</text>
</a>
</g>
</g>
<!-- Node15&#45;&gt;Node16 -->
<g id="edge24" class="edge"><title>Node15&#45;&gt;Node16</title>
<path fill="none" stroke="midnightblue" d="M632.765,-512.61C648.535,-501.029 667.872,-486.828 681.929,-476.505"/>
<polygon fill="midnightblue" stroke="midnightblue" points="630.415,-509.993 624.427,-518.733 634.559,-515.635 630.415,-509.993"/>
</g>
<!-- Node17 -->
<g id="node17" class="node"><title>Node17</title>
<g id="a_node17"><a xlink:href="serialize_8h.html" target="_top" xlink:title=" ">
<polygon fill="white" stroke="black" points="794,-446.5 794,-476.5 912,-476.5 912,-446.5 794,-446.5"/>
<text text-anchor="start" x="802" y="-464.5" font-family="Helvetica,sans-Serif" font-size="10.00">C:/projects/ndt/sources</text>
<text text-anchor="middle" x="853" y="-453.5" font-family="Helvetica,sans-Serif" font-size="10.00">/include/ndt/serialize.h</text>
</a>
</g>
</g>
<!-- Node15&#45;&gt;Node17 -->
<g id="edge26" class="edge"><title>Node15&#45;&gt;Node17</title>
<path fill="none" stroke="midnightblue" d="M663.952,-516.241C706.456,-504.159 763.183,-488.033 803.376,-476.607"/>
<polygon fill="midnightblue" stroke="midnightblue" points="662.955,-512.886 654.293,-518.987 664.869,-519.619 662.955,-512.886"/>
</g>
<!-- Node18 -->
<g id="node18" class="node"><title>Node18</title>
<g id="a_node18"><a xlink:href="value_8h.html" target="_top" xlink:title=" ">
<polygon fill="white" stroke="black" points="490,-446.5 490,-476.5 608,-476.5 608,-446.5 490,-446.5"/>
<text text-anchor="start" x="498" y="-464.5" font-family="Helvetica,sans-Serif" font-size="10.00">C:/projects/ndt/sources</text>
<text text-anchor="middle" x="549" y="-453.5" font-family="Helvetica,sans-Serif" font-size="10.00">/include/ndt/value.h</text>
</a>
</g>
</g>
<!-- Node15&#45;&gt;Node18 -->
<g id="edge27" class="edge"><title>Node15&#45;&gt;Node18</title>
<path fill="none" stroke="midnightblue" d="M587.297,-510.713C578.469,-499.599 568.054,-486.488 560.316,-476.746"/>
<polygon fill="midnightblue" stroke="midnightblue" points="584.707,-513.08 593.668,-518.733 590.188,-508.726 584.707,-513.08"/>
</g>
<!-- Node16&#45;&gt;Node4 -->
<g id="edge25" class="edge"><title>Node16&#45;&gt;Node4</title>
<path fill="none" stroke="midnightblue" d="M727.686,-439.573C755.786,-414.974 796,-371.327 796,-323 796,-323 796,-323 796,-165 796,-97.8046 872.816,-52.1176 919.326,-30.614"/>
<polygon fill="midnightblue" stroke="midnightblue" points="725.132,-437.15 719.769,-446.287 729.659,-442.488 725.132,-437.15"/>
</g>
<!-- Node20 -->
<g id="node20" class="node"><title>Node20</title>
<g id="a_node20"><a xlink:href="file_8cpp.html" target="_top" xlink:title=" ">
<polygon fill="white" stroke="black" points="1089,-379.5 1089,-409.5 1207,-409.5 1207,-379.5 1089,-379.5"/>
<text text-anchor="start" x="1097" y="-397.5" font-family="Helvetica,sans-Serif" font-size="10.00">C:/projects/ndt/sources</text>
<text text-anchor="middle" x="1148" y="-386.5" font-family="Helvetica,sans-Serif" font-size="10.00">/src/file.cpp</text>
</a>
</g>
</g>
<!-- Node19&#45;&gt;Node20 -->
<g id="edge31" class="edge"><title>Node19&#45;&gt;Node20</title>
<path fill="none" stroke="midnightblue" d="M1148,-436.108C1148,-427.154 1148,-417.323 1148,-409.577"/>
<polygon fill="midnightblue" stroke="midnightblue" points="1144.5,-436.396 1148,-446.396 1151.5,-436.396 1144.5,-436.396"/>
</g>
<!-- Node22&#45;&gt;Node3 -->
<g id="edge36" class="edge"><title>Node22&#45;&gt;Node3</title>
<path fill="none" stroke="midnightblue" d="M169.428,-514.999C198.898,-503.059 237.018,-487.614 264.267,-476.573"/>
<polygon fill="midnightblue" stroke="midnightblue" points="167.747,-511.904 159.793,-518.903 170.376,-518.391 167.747,-511.904"/>
</g>
<!-- Node22&#45;&gt;Node4 -->
<g id="edge37" class="edge"><title>Node22&#45;&gt;Node4</title>
<path fill="none" stroke="midnightblue" d="M92.5043,-513.06C79.6541,-503.626 65.8649,-491.284 57,-477 37.3867,-445.398 38,-432.694 38,-395.5 38,-395.5 38,-395.5 38,-165 38,-81.6101 118.538,-92.2903 198,-67 327.499,-25.7847 740.455,-18.2029 894.932,-16.8115"/>
<polygon fill="midnightblue" stroke="midnightblue" points="90.5519,-515.966 100.752,-518.831 94.5651,-510.23 90.5519,-515.966"/>
</g>
<!-- Node22&#45;&gt;Node5 -->
<g id="edge38" class="edge"><title>Node22&#45;&gt;Node5</title>
<path fill="none" stroke="midnightblue" d="M195.374,-517.459C243.755,-506.593 309.41,-491.488 367,-477 417.92,-464.19 429.343,-455.409 481,-446 650.455,-415.136 853.982,-402.462 952.616,-397.839"/>
<polygon fill="midnightblue" stroke="midnightblue" points="194.314,-514.11 185.321,-519.712 195.845,-520.94 194.314,-514.11"/>
</g>
<!-- Node23 -->
<g id="node23" class="node"><title>Node23</title>
<g id="a_node23"><a xlink:href="exception_8cpp.html" target="_top" xlink:title=" ">
<polygon fill="white" stroke="black" points="66,-446.5 66,-476.5 184,-476.5 184,-446.5 66,-446.5"/>
<text text-anchor="start" x="74" y="-464.5" font-family="Helvetica,sans-Serif" font-size="10.00">C:/projects/ndt/sources</text>
<text text-anchor="middle" x="125" y="-453.5" font-family="Helvetica,sans-Serif" font-size="10.00">/src/exception.cpp</text>
</a>
</g>
</g>
<!-- Node22&#45;&gt;Node23 -->
<g id="edge39" class="edge"><title>Node22&#45;&gt;Node23</title>
<path fill="none" stroke="midnightblue" d="M125,-508.732C125,-498.068 125,-485.914 125,-476.746"/>
<polygon fill="midnightblue" stroke="midnightblue" points="121.5,-508.733 125,-518.733 128.5,-508.733 121.5,-508.733"/>
</g>
<!-- Node26 -->
<g id="node26" class="node"><title>Node26</title>
<g id="a_node26"><a xlink:href="sys__file__ops_8h.html" target="_top" xlink:title=" ">
<polygon fill="white" stroke="black" points="1271,-519 1271,-549 1403,-549 1403,-519 1271,-519"/>
<text text-anchor="start" x="1279" y="-537" font-family="Helvetica,sans-Serif" font-size="10.00">C:/projects/ndt/sources</text>
<text text-anchor="middle" x="1337" y="-526" font-family="Helvetica,sans-Serif" font-size="10.00">/include/ndt/sys_file_ops.h</text>
</a>
</g>
</g>
<!-- Node25&#45;&gt;Node26 -->
<g id="edge46" class="edge"><title>Node25&#45;&gt;Node26</title>
<path fill="none" stroke="midnightblue" d="M1348.04,-581.624C1345.41,-570.501 1342.53,-558.339 1340.37,-549.225"/>
<polygon fill="midnightblue" stroke="midnightblue" points="1344.65,-582.504 1350.36,-591.428 1351.47,-580.891 1344.65,-582.504"/>
</g>
<!-- Node25&#45;&gt;Node28 -->
<g id="edge49" class="edge"><title>Node25&#45;&gt;Node28</title>
<path fill="none" stroke="midnightblue" d="M1400.19,-586.643C1423.1,-574.296 1450.11,-559.734 1469.61,-549.225"/>
<polygon fill="midnightblue" stroke="midnightblue" points="1398.45,-583.602 1391.31,-591.428 1401.77,-589.764 1398.45,-583.602"/>
</g>
<!-- Node26&#45;&gt;Node19 -->
<g id="edge47" class="edge"><title>Node26&#45;&gt;Node19</title>
<path fill="none" stroke="midnightblue" d="M1289.58,-515.31C1257.45,-503.327 1215.58,-487.71 1185.73,-476.573"/>
<polygon fill="midnightblue" stroke="midnightblue" points="1288.61,-518.687 1299.21,-518.903 1291.06,-512.128 1288.61,-518.687"/>
</g>
<!-- Node27 -->
<g id="node27" class="node"><title>Node27</title>
<g id="a_node27"><a xlink:href="sys__file__ops_8cpp.html" target="_top" xlink:title=" ">
<polygon fill="white" stroke="black" points="1263,-446.5 1263,-476.5 1381,-476.5 1381,-446.5 1263,-446.5"/>
<text text-anchor="start" x="1271" y="-464.5" font-family="Helvetica,sans-Serif" font-size="10.00">C:/projects/ndt/sources</text>
<text text-anchor="middle" x="1322" y="-453.5" font-family="Helvetica,sans-Serif" font-size="10.00">/src/sys_file_ops.cpp</text>
</a>
</g>
</g>
<!-- Node26&#45;&gt;Node27 -->
<g id="edge48" class="edge"><title>Node26&#45;&gt;Node27</title>
<path fill="none" stroke="midnightblue" d="M1331.84,-508.732C1329.57,-498.068 1326.98,-485.914 1325.03,-476.746"/>
<polygon fill="midnightblue" stroke="midnightblue" points="1328.46,-509.681 1333.96,-518.733 1335.31,-508.224 1328.46,-509.681"/>
</g>
<!-- Node28&#45;&gt;Node3 -->
<g id="edge50" class="edge"><title>Node28&#45;&gt;Node3</title>
<path fill="none" stroke="midnightblue" d="M1433.93,-516.792C1426.58,-515.298 1419.15,-513.98 1412,-513 1001.75,-456.777 894.365,-501.448 481,-477 440.024,-474.576 393.931,-470.894 358.384,-467.847"/>
<polygon fill="midnightblue" stroke="midnightblue" points="1433.36,-520.25 1443.87,-518.925 1434.83,-513.406 1433.36,-520.25"/>
</g>
<!-- Node28&#45;&gt;Node4 -->
<g id="edge51" class="edge"><title>Node28&#45;&gt;Node4</title>
<path fill="none" stroke="midnightblue" d="M1516.23,-510.907C1529.75,-493.347 1543.46,-468.144 1534,-446 1477.7,-314.179 1415.1,-309.764 1301,-223 1190.51,-138.982 1043.36,-61.3997 982.35,-30.5581"/>
<polygon fill="midnightblue" stroke="midnightblue" points="1513.34,-508.911 1509.71,-518.866 1518.75,-513.346 1513.34,-508.911"/>
</g>
<!-- Node29 -->
<g id="node29" class="node"><title>Node29</title>
<g id="a_node29"><a xlink:href="sys__socket__ops_8cpp.html" target="_top" xlink:title=" ">
<polygon fill="white" stroke="black" points="1399,-446.5 1399,-476.5 1525,-476.5 1525,-446.5 1399,-446.5"/>
<text text-anchor="start" x="1407" y="-464.5" font-family="Helvetica,sans-Serif" font-size="10.00">C:/projects/ndt/sources</text>
<text text-anchor="middle" x="1462" y="-453.5" font-family="Helvetica,sans-Serif" font-size="10.00">/src/sys_socket_ops.cpp</text>
</a>
</g>
</g>
<!-- Node28&#45;&gt;Node29 -->
<g id="edge52" class="edge"><title>Node28&#45;&gt;Node29</title>
<path fill="none" stroke="midnightblue" d="M1484.62,-509.396C1479.4,-498.576 1473.38,-486.106 1468.87,-476.746"/>
<polygon fill="midnightblue" stroke="midnightblue" points="1481.62,-511.246 1489.12,-518.733 1487.93,-508.206 1481.62,-511.246"/>
</g>
<!-- Node30&#45;&gt;Node3 -->
<g id="edge55" class="edge"><title>Node30&#45;&gt;Node3</title>
<path fill="none" stroke="midnightblue" d="M806.795,-604.982C721.52,-596.642 582.348,-579.747 537,-555 514.903,-542.942 520.574,-525.971 499,-513 455.878,-487.073 399.847,-474.394 358.065,-468.23"/>
<polygon fill="midnightblue" stroke="midnightblue" points="806.627,-608.482 816.917,-605.957 807.298,-601.514 806.627,-608.482"/>
</g>
<!-- Node30&#45;&gt;Node4 -->
<g id="edge57" class="edge"><title>Node30&#45;&gt;Node4</title>
<path fill="none" stroke="midnightblue" d="M874.155,-586.828C873.567,-566.247 875.091,-536.385 886,-513 895.434,-492.777 912.338,-497.566 921,-477 947.577,-413.901 925,-391.468 925,-323 925,-323 925,-323 925,-165 925,-114.828 941.143,-56.8584 949.341,-30.6555"/>
<polygon fill="midnightblue" stroke="midnightblue" points="870.665,-587.111 874.635,-596.934 877.657,-586.779 870.665,-587.111"/>
</g>
<!-- Node30&#45;&gt;Node5 -->
<g id="edge61" class="edge"><title>Node30&#45;&gt;Node5</title>
<path fill="none" stroke="midnightblue" d="M880.049,-586.833C884.809,-565.128 894.654,-533.594 914,-513 940.141,-485.172 967.711,-506.459 992,-477 1008.03,-457.553 1011.53,-427.171 1012.11,-409.513"/>
<polygon fill="midnightblue" stroke="midnightblue" points="876.566,-586.403 878.051,-596.893 883.432,-587.767 876.566,-586.403"/>
</g>
<!-- Node30&#45;&gt;Node12 -->
<g id="edge62" class="edge"><title>Node30&#45;&gt;Node12</title>
<path fill="none" stroke="midnightblue" d="M945.094,-597.603C978.597,-588.975 1018.34,-575.447 1050,-555 1071.15,-541.345 1066.6,-526.26 1088,-513 1138.23,-481.872 1180.32,-524.106 1216,-477 1247.81,-435.013 1229.48,-366.451 1219.34,-337.079"/>
<polygon fill="midnightblue" stroke="midnightblue" points="944.23,-594.211 935.368,-600.017 945.917,-601.005 944.23,-594.211"/>
</g>
<!-- Node30&#45;&gt;Node15 -->
<g id="edge56" class="edge"><title>Node30&#45;&gt;Node15</title>
<path fill="none" stroke="midnightblue" d="M816.279,-594.252C767.977,-580.706 700.741,-561.85 655.188,-549.075"/>
<polygon fill="midnightblue" stroke="midnightblue" points="815.405,-597.642 825.979,-596.972 817.295,-590.902 815.405,-597.642"/>
</g>
<!-- Node30&#45;&gt;Node16 -->
<g id="edge58" class="edge"><title>Node30&#45;&gt;Node16</title>
<path fill="none" stroke="midnightblue" d="M851.582,-590.28C815.479,-559.644 748.788,-503.051 717.729,-476.696"/>
<polygon fill="midnightblue" stroke="midnightblue" points="849.331,-592.96 859.22,-596.761 853.86,-587.622 849.331,-592.96"/>
</g>
<!-- Node30&#45;&gt;Node17 -->
<g id="edge60" class="edge"><title>Node30&#45;&gt;Node17</title>
<path fill="none" stroke="midnightblue" d="M859.005,-588.474C852.666,-578.719 846.228,-566.836 843,-555 835.605,-527.885 842.882,-494.897 848.303,-476.546"/>
<polygon fill="midnightblue" stroke="midnightblue" points="856.158,-590.511 864.705,-596.773 861.928,-586.548 856.158,-590.511"/>
</g>
<!-- Node30&#45;&gt;Node24 -->
<g id="edge59" class="edge"><title>Node30&#45;&gt;Node24</title>
<path fill="none" stroke="midnightblue" d="M938.206,-594.227C979.315,-583.129 1034.38,-568.236 1083,-555 1087.44,-553.792 1092.03,-552.54 1096.64,-551.28"/>
<polygon fill="midnightblue" stroke="midnightblue" points="937.076,-590.907 928.333,-596.892 938.9,-597.665 937.076,-590.907"/>
</g>
<!-- Node31 -->
<g id="node31" class="node"><title>Node31</title>
<g id="a_node31"><a xlink:href="utils_8cpp.html" target="_top" xlink:title=" ">
<polygon fill="white" stroke="black" points="923,-519 923,-549 1041,-549 1041,-519 923,-519"/>
<text text-anchor="start" x="931" y="-537" font-family="Helvetica,sans-Serif" font-size="10.00">C:/projects/ndt/sources</text>
<text text-anchor="middle" x="982" y="-526" font-family="Helvetica,sans-Serif" font-size="10.00">/src/utils.cpp</text>
</a>
</g>
</g>
<!-- Node30&#45;&gt;Node31 -->
<g id="edge63" class="edge"><title>Node30&#45;&gt;Node31</title>
<path fill="none" stroke="midnightblue" d="M904.438,-590.611C922.674,-577.536 945.891,-560.89 962.152,-549.231"/>
<polygon fill="midnightblue" stroke="midnightblue" points="902.025,-588.034 895.938,-596.705 906.104,-593.723 902.025,-588.034"/>
</g>
</g>
</svg>
        <g id="navigator" transform="translate(0 0)" fill="#404254">
                <rect fill="#f2f5e9" fill-opacity="0.5" stroke="#606060" stroke-width=".5" x="0" y="0" width="60" height="60"/>
                <use id="zoomplus" xlink:href="#zoomPlus" x="17" y="9" onmousedown="handleZoom(evt,'in')"/>
                <use id="zoomminus" xlink:href="#zoomMin" x="42" y="9" onmousedown="handleZoom(evt,'out')"/>
                <use id="reset" xlink:href="#resetDef" x="30" y="36" onmousedown="handleReset()"/>
                <g id="arrowUp" xlink:href="#dirArrow" transform="translate(30 24)" onmousedown="handlePan(0,-1)">
                  <use xlink:href="#rim" fill="#404040">
                        <set attributeName="fill" to="#808080" begin="arrowUp.mouseover" end="arrowUp.mouseout"/>
                  </use>
                  <path fill="none" stroke="white" stroke-width="1.5" d="M0,-3.0v7 M-2.5,-0.5L0,-3.0L2.5,-0.5"/>
                </g>
                <g id="arrowRight" xlink:href="#dirArrow" transform="rotate(90) translate(36 -43)" onmousedown="handlePan(1,0)">
                  <use xlink:href="#rim" fill="#404040">
                        <set attributeName="fill" to="#808080" begin="arrowRight.mouseover" end="arrowRight.mouseout"/>
                  </use>
                  <path fill="none" stroke="white" stroke-width="1.5" d="M0,-3.0v7 M-2.5,-0.5L0,-3.0L2.5,-0.5"/>
                </g>
                <g id="arrowDown" xlink:href="#dirArrow" transform="rotate(180) translate(-30 -48)" onmousedown="handlePan(0,1)">
                  <use xlink:href="#rim" fill="#404040">
                        <set attributeName="fill" to="#808080" begin="arrowDown.mouseover" end="arrowDown.mouseout"/>
                  </use>
                  <path fill="none" stroke="white" stroke-width="1.5" d="M0,-3.0v7 M-2.5,-0.5L0,-3.0L2.5,-0.5"/>
                </g>
                <g id="arrowLeft" xlink:href="#dirArrow" transform="rotate(270) translate(-36 17)" onmousedown="handlePan(-1,0)">
                  <use xlink:href="#rim" fill="#404040">
                        <set attributeName="fill" to="#808080" begin="arrowLeft.mouseover" end="arrowLeft.mouseout"/>
                  </use>
                  <path fill="none" stroke="white" stroke-width="1.5" d="M0,-3.0v7 M-2.5,-0.5L0,-3.0L2.5,-0.5"/>
                </g>
        </g>
        <svg viewBox="0 0 15 15" width="100%" height="30px" preserveAspectRatio="xMaxYMin meet">
         <g id="arrow_out" transform="scale(0.3 0.3)">
          <a xlink:href="common_8h__dep__incl_org.svg" target="_base">
           <rect id="button" ry="5" rx="5" y="6" x="6" height="38" width="38"
                fill="#f2f5e9" fill-opacity="0.5" stroke="#606060" stroke-width="1.0"/>
           <path id="arrow"
             d="M 11.500037,31.436501 C 11.940474,20.09759 22.043105,11.32322 32.158766,21.979434 L 37.068811,17.246167 C 37.068811,17.246167 37.088388,32 37.088388,32 L 22.160133,31.978069 C 22.160133,31.978069 26.997745,27.140456 26.997745,27.140456 C 18.528582,18.264221 13.291696,25.230495 11.500037,31.436501 z"
             style="fill:#404040;"/>
          </a>
         </g>
        </svg>
</svg>
