<?xml version="1.0" encoding="UTF-8" standalone="no"?>
<!DOCTYPE svg PUBLIC "-//W3C//DTD SVG 1.1//EN"
 "http://www.w3.org/Graphics/SVG/1.1/DTD/svg11.dtd">
<!-- Generated by graphviz version 2.38.0 (20140413.2041)
 -->
<!-- Title: C:/projects/ndt/sources/include/ndt/common.h Pages: 1 -->
<!--zoomable 708 -->
<svg id="main" version="1.1" xmlns="http://www.w3.org/2000/svg" xmlns:xlink="http://www.w3.org/1999/xlink" xml:space="preserve" onload="init(evt)">
<style type="text/css"><![CDATA[
.edge:hover path { stroke: red; }
.edge:hover polygon { stroke: red; fill: red; }
]]></style>
<script type="text/javascript"><![CDATA[
var edges = document.getElementsByTagName('g');
if (edges && edges.length) {
  for (var i=0;i<edges.length;i++) {
    if (edges[i].id.substr(0,4)=='edge') {
      edges[i].setAttribute('class','edge');
    }
  }
}
]]></script>
        <defs>
                <circle id="rim" cx="0" cy="0" r="7"/>
                <circle id="rim2" cx="0" cy="0" r="3.5"/>
                <g id="zoomPlus">
                        <use xlink:href="#rim" fill="#404040">
                                <set attributeName="fill" to="#808080" begin="zoomplus.mouseover" end="zoomplus.mouseout"/>
                        </use>
                        <path d="M-4,0h8M0,-4v8" fill="none" stroke="white" stroke-width="1.5" pointer-events="none"/>
                </g>
                <g id="zoomMin">
                        <use xlink:href="#rim" fill="#404040">
                                <set attributeName="fill" to="#808080" begin="zoomminus.mouseover" end="zoomminus.mouseout"/>
                        </use>
                        <path d="M-4,0h8" fill="none" stroke="white" stroke-width="1.5" pointer-events="none"/>
                </g>
                <g id="dirArrow">
                        <path fill="none" stroke="white" stroke-width="1.5" d="M0,-3.0v7 M-2.5,-0.5L0,-3.0L2.5,-0.5"/>
                </g>
               <g id="resetDef">
                       <use xlink:href="#rim2" fill="#404040">
                               <set attributeName="fill" to="#808080" begin="reset.mouseover" end="reset.mouseout"/>
                       </use>
               </g>
        </defs>

<script type="text/javascript">
var viewWidth = 1958;
var viewHeight = 708;
var sectionId = 'dynsection-1';
</script>
<script xlink:href="svgpan.js"/>
<svg id="graph" class="graph">
<g id="viewport">
<title>C:/projects/ndt/sources/include/ndt/common.h</title>
<polygon fill="white" stroke="none" points="-4,4 -4,-704 1954.49,-704 1954.49,4 -4,4"/>
<!-- Node1 -->
<g id="node1" class="node"><title>Node1</title>
<g id="a_node1"><a xlink:title="Header with typedefs to make type designation platform independent.">
<polygon fill="#bfbfbf" stroke="black" points="625.485,-669.5 625.485,-699.5 743.485,-699.5 743.485,-669.5 625.485,-669.5"/>
<text text-anchor="start" x="633.485" y="-687.5" font-family="Helvetica,sans-Serif" font-size="10.00">C:/projects/ndt/sources</text>
<text text-anchor="middle" x="684.485" y="-676.5" font-family="Helvetica,sans-Serif" font-size="10.00">/include/ndt/common.h</text>
</a>
</g>
</g>
<!-- Node2 -->
<g id="node2" class="node"><title>Node2</title>
<g id="a_node2"><a xlink:href="buffer_8h.html" target="_top" xlink:title=" ">
<polygon fill="white" stroke="black" points="625.485,-524.5 625.485,-554.5 743.485,-554.5 743.485,-524.5 625.485,-524.5"/>
<text text-anchor="start" x="633.485" y="-542.5" font-family="Helvetica,sans-Serif" font-size="10.00">C:/projects/ndt/sources</text>
<text text-anchor="middle" x="684.485" y="-531.5" font-family="Helvetica,sans-Serif" font-size="10.00">/include/ndt/buffer.h</text>
</a>
</g>
</g>
<!-- Node1&#45;&gt;Node2 -->
<g id="edge1" class="edge"><title>Node1&#45;&gt;Node2</title>
<path fill="none" stroke="midnightblue" d="M684.485,-659.194C684.485,-629.159 684.485,-579.048 684.485,-554.677"/>
<polygon fill="midnightblue" stroke="midnightblue" points="680.985,-659.266 684.485,-669.266 687.985,-659.266 680.985,-659.266"/>
</g>
<!-- Node4 -->
<g id="node4" class="node"><title>Node4</title>
<g id="a_node4"><a xlink:href="core_8h.html" target="_top" xlink:title=" ">
<polygon fill="white" stroke="black" points="530.485,-0.5 530.485,-30.5 648.485,-30.5 648.485,-0.5 530.485,-0.5"/>
<text text-anchor="start" x="538.485" y="-18.5" font-family="Helvetica,sans-Serif" font-size="10.00">C:/projects/ndt/sources</text>
<text text-anchor="middle" x="589.485" y="-7.5" font-family="Helvetica,sans-Serif" font-size="10.00">/include/ndt/core.h</text>
</a>
</g>
</g>
<!-- Node1&#45;&gt;Node4 -->
<g id="edge32" class="edge"><title>Node1&#45;&gt;Node4</title>
<path fill="none" stroke="midnightblue" d="M615.207,-683.49C441.918,-681.605 3.48509,-664.574 3.48509,-540.5 3.48509,-540.5 3.48509,-540.5 3.48509,-165 3.48509,-120.633 -10.4553,-96.7208 22.4851,-67 59.6312,-33.4845 392.786,-21.3934 530.412,-17.8035"/>
<polygon fill="midnightblue" stroke="midnightblue" points="615.209,-686.99 625.242,-683.585 615.276,-679.99 615.209,-686.99"/>
</g>
<!-- Node5 -->
<g id="node5" class="node"><title>Node5</title>
<g id="a_node5"><a xlink:href="socket_8h.html" target="_top" xlink:title=" ">
<polygon fill="white" stroke="black" points="530.485,-379.5 530.485,-409.5 648.485,-409.5 648.485,-379.5 530.485,-379.5"/>
<text text-anchor="start" x="538.485" y="-397.5" font-family="Helvetica,sans-Serif" font-size="10.00">C:/projects/ndt/sources</text>
<text text-anchor="middle" x="589.485" y="-386.5" font-family="Helvetica,sans-Serif" font-size="10.00">/include/ndt/socket.h</text>
</a>
</g>
</g>
<!-- Node1&#45;&gt;Node5 -->
<g id="edge42" class="edge"><title>Node1&#45;&gt;Node5</title>
<path fill="none" stroke="midnightblue" d="M669.363,-660.442C653.706,-635.481 629.721,-593.996 616.485,-555 598.884,-503.14 592.431,-437.741 590.355,-409.519"/>
<polygon fill="midnightblue" stroke="midnightblue" points="666.592,-662.606 674.916,-669.16 672.496,-658.845 666.592,-662.606"/>
</g>
<!-- Node6 -->
<g id="node6" class="node"><title>Node6</title>
<g id="a_node6"><a xlink:href="executor__select__base_8h.html" target="_top" xlink:title=" ">
<polygon fill="white" stroke="black" points="173.485,-301.5 173.485,-342.5 291.485,-342.5 291.485,-301.5 173.485,-301.5"/>
<text text-anchor="start" x="181.485" y="-330.5" font-family="Helvetica,sans-Serif" font-size="10.00">C:/projects/ndt/sources</text>
<text text-anchor="start" x="181.485" y="-319.5" font-family="Helvetica,sans-Serif" font-size="10.00">/include/ndt/executor</text>
<text text-anchor="middle" x="232.485" y="-308.5" font-family="Helvetica,sans-Serif" font-size="10.00">_select_base.h</text>
</a>
</g>
</g>
<!-- Node1&#45;&gt;Node6 -->
<g id="edge38" class="edge"><title>Node1&#45;&gt;Node6</title>
<path fill="none" stroke="midnightblue" d="M615.08,-683.408C512.603,-681.889 327.427,-673.43 276.485,-633 242.177,-605.771 242.485,-584.3 242.485,-540.5 242.485,-540.5 242.485,-540.5 242.485,-466 242.485,-421.95 237.705,-370.453 234.754,-342.864"/>
<polygon fill="midnightblue" stroke="midnightblue" points="615.293,-686.911 625.337,-683.541 615.383,-679.911 615.293,-686.911"/>
</g>
<!-- Node7 -->
<g id="node7" class="node"><title>Node7</title>
<g id="a_node7"><a xlink:href="nix_2executor__select__impl_8h.html" target="_top" xlink:title=" ">
<polygon fill="white" stroke="black" points="68.4851,-223.5 68.4851,-264.5 204.485,-264.5 204.485,-223.5 68.4851,-223.5"/>
<text text-anchor="start" x="76.4851" y="-252.5" font-family="Helvetica,sans-Serif" font-size="10.00">C:/projects/ndt/sources</text>
<text text-anchor="start" x="76.4851" y="-241.5" font-family="Helvetica,sans-Serif" font-size="10.00">/include/ndt/platform</text>
<text text-anchor="middle" x="136.485" y="-230.5" font-family="Helvetica,sans-Serif" font-size="10.00">/nix/executor_select_impl.h</text>
</a>
</g>
</g>
<!-- Node1&#45;&gt;Node7 -->
<g id="edge39" class="edge"><title>Node1&#45;&gt;Node7</title>
<path fill="none" stroke="midnightblue" d="M615.157,-680.744C507.896,-675.619 307.322,-662.358 242.485,-633 186.736,-607.757 140.485,-601.698 140.485,-540.5 140.485,-540.5 140.485,-540.5 140.485,-393.5 140.485,-347.335 138.529,-293.126 137.353,-264.693"/>
<polygon fill="midnightblue" stroke="midnightblue" points="615.085,-684.244 625.238,-681.215 615.412,-677.252 615.085,-684.244"/>
</g>
<!-- Node11 -->
<g id="node11" class="node"><title>Node11</title>
<g id="a_node11"><a xlink:href="win_2executor__select__impl_8h.html" target="_top" xlink:title=" ">
<polygon fill="white" stroke="black" points="298.985,-223.5 298.985,-264.5 435.985,-264.5 435.985,-223.5 298.985,-223.5"/>
<text text-anchor="start" x="306.985" y="-252.5" font-family="Helvetica,sans-Serif" font-size="10.00">C:/projects/ndt/sources</text>
<text text-anchor="start" x="306.985" y="-241.5" font-family="Helvetica,sans-Serif" font-size="10.00">/include/ndt/platform</text>
<text text-anchor="middle" x="367.485" y="-230.5" font-family="Helvetica,sans-Serif" font-size="10.00">/win/executor_select_impl.h</text>
</a>
</g>
</g>
<!-- Node1&#45;&gt;Node11 -->
<g id="edge41" class="edge"><title>Node1&#45;&gt;Node11</title>
<path fill="none" stroke="midnightblue" d="M615.413,-671.292C525.6,-651.147 373.276,-601.276 314.485,-488 275.002,-411.925 328.614,-307.727 354.689,-264.757"/>
<polygon fill="midnightblue" stroke="midnightblue" points="614.726,-674.724 625.242,-673.434 616.216,-667.884 614.726,-674.724"/>
</g>
<!-- Node13 -->
<g id="node13" class="node"><title>Node13</title>
<g id="a_node13"><a xlink:href="udp_8cpp.html" target="_top" xlink:title=" ">
<polygon fill="white" stroke="black" points="1604.49,-229 1604.49,-259 1722.49,-259 1722.49,-229 1604.49,-229"/>
<text text-anchor="start" x="1612.49" y="-247" font-family="Helvetica,sans-Serif" font-size="10.00">C:/projects/ndt/sources</text>
<text text-anchor="middle" x="1663.49" y="-236" font-family="Helvetica,sans-Serif" font-size="10.00">/src/udp.cpp</text>
</a>
</g>
</g>
<!-- Node1&#45;&gt;Node13 -->
<g id="edge62" class="edge"><title>Node1&#45;&gt;Node13</title>
<path fill="none" stroke="midnightblue" d="M753.686,-681.981C997.853,-675.717 1804.49,-646.967 1804.49,-540.5 1804.49,-540.5 1804.49,-540.5 1804.49,-466 1804.49,-374.976 1718.43,-291.289 1680.77,-259.032"/>
<polygon fill="midnightblue" stroke="midnightblue" points="753.425,-678.486 743.517,-682.237 753.602,-685.484 753.425,-678.486"/>
</g>
<!-- Node21 -->
<g id="node21" class="node"><title>Node21</title>
<g id="a_node21"><a xlink:href="exception_8h.html" target="_top" xlink:title=" ">
<polygon fill="white" stroke="black" points="430.485,-524.5 430.485,-554.5 550.485,-554.5 550.485,-524.5 430.485,-524.5"/>
<text text-anchor="start" x="438.485" y="-542.5" font-family="Helvetica,sans-Serif" font-size="10.00">C:/projects/ndt/sources</text>
<text text-anchor="middle" x="490.485" y="-531.5" font-family="Helvetica,sans-Serif" font-size="10.00">/include/ndt/exception.h</text>
</a>
</g>
</g>
<!-- Node1&#45;&gt;Node21 -->
<g id="edge33" class="edge"><title>Node1&#45;&gt;Node21</title>
<path fill="none" stroke="midnightblue" d="M626.888,-665.933C606.005,-657.903 583.015,-647.005 564.485,-633 535.117,-610.804 510.639,-574.424 498.571,-554.547"/>
<polygon fill="midnightblue" stroke="midnightblue" points="625.718,-669.232 636.311,-669.421 628.148,-662.667 625.718,-669.232"/>
</g>
<!-- Node23 -->
<g id="node23" class="node"><title>Node23</title>
<g id="a_node23"><a xlink:href="win_2context__base_8h.html" target="_top" xlink:title=" ">
<polygon fill="white" stroke="black" points="1234.49,-446.5 1234.49,-487.5 1352.49,-487.5 1352.49,-446.5 1234.49,-446.5"/>
<text text-anchor="start" x="1242.49" y="-475.5" font-family="Helvetica,sans-Serif" font-size="10.00">C:/projects/ndt/sources</text>
<text text-anchor="start" x="1242.49" y="-464.5" font-family="Helvetica,sans-Serif" font-size="10.00">/include/ndt/platform</text>
<text text-anchor="middle" x="1293.49" y="-453.5" font-family="Helvetica,sans-Serif" font-size="10.00">/win/context_base.h</text>
</a>
</g>
</g>
<!-- Node1&#45;&gt;Node23 -->
<g id="edge40" class="edge"><title>Node1&#45;&gt;Node23</title>
<path fill="none" stroke="midnightblue" d="M753.461,-673.973C804.291,-665.897 874.69,-652.489 934.485,-633 1057.91,-592.773 1195.04,-521.849 1258.17,-487.599"/>
<polygon fill="midnightblue" stroke="midnightblue" points="752.905,-670.517 743.564,-675.517 753.985,-677.433 752.905,-670.517"/>
</g>
<!-- Node24 -->
<g id="node24" class="node"><title>Node24</title>
<g id="a_node24"><a xlink:href="sys__error__code_8h.html" target="_top" xlink:title=" ">
<polygon fill="white" stroke="black" points="768.485,-591.5 768.485,-632.5 886.485,-632.5 886.485,-591.5 768.485,-591.5"/>
<text text-anchor="start" x="776.485" y="-620.5" font-family="Helvetica,sans-Serif" font-size="10.00">C:/projects/ndt/sources</text>
<text text-anchor="start" x="776.485" y="-609.5" font-family="Helvetica,sans-Serif" font-size="10.00">/include/ndt/sys_error</text>
<text text-anchor="middle" x="827.485" y="-598.5" font-family="Helvetica,sans-Serif" font-size="10.00">_code.h</text>
</a>
</g>
</g>
<!-- Node1&#45;&gt;Node24 -->
<g id="edge43" class="edge"><title>Node1&#45;&gt;Node24</title>
<path fill="none" stroke="midnightblue" d="M722.294,-664.86C742.5,-654.898 767.36,-642.642 787.838,-632.546"/>
<polygon fill="midnightblue" stroke="midnightblue" points="720.501,-661.842 713.08,-669.403 723.596,-668.12 720.501,-661.842"/>
</g>
<!-- Node27 -->
<g id="node27" class="node"><title>Node27</title>
<g id="a_node27"><a xlink:href="sys__socket__ops_8h.html" target="_top" xlink:title=" ">
<polygon fill="white" stroke="black" points="911.985,-524.5 911.985,-554.5 1060.99,-554.5 1060.99,-524.5 911.985,-524.5"/>
<text text-anchor="start" x="919.985" y="-542.5" font-family="Helvetica,sans-Serif" font-size="10.00">C:/projects/ndt/sources</text>
<text text-anchor="middle" x="986.485" y="-531.5" font-family="Helvetica,sans-Serif" font-size="10.00">/include/ndt/sys_socket_ops.h</text>
</a>
</g>
</g>
<!-- Node1&#45;&gt;Node27 -->
<g id="edge51" class="edge"><title>Node1&#45;&gt;Node27</title>
<path fill="none" stroke="midnightblue" d="M753.745,-676.772C796.745,-670.281 851.917,-657.613 895.485,-633 930.986,-612.944 961.777,-575.008 976.771,-554.502"/>
<polygon fill="midnightblue" stroke="midnightblue" points="753.054,-673.335 743.651,-678.217 754.046,-680.265 753.054,-673.335"/>
</g>
<!-- Node29 -->
<g id="node29" class="node"><title>Node29</title>
<g id="a_node29"><a xlink:href="utils_8h.html" target="_top" xlink:title=" ">
<polygon fill="white" stroke="black" points="1408.49,-524.5 1408.49,-554.5 1526.49,-554.5 1526.49,-524.5 1408.49,-524.5"/>
<text text-anchor="start" x="1416.49" y="-542.5" font-family="Helvetica,sans-Serif" font-size="10.00">C:/projects/ndt/sources</text>
<text text-anchor="middle" x="1467.49" y="-531.5" font-family="Helvetica,sans-Serif" font-size="10.00">/include/ndt/utils.h</text>
</a>
</g>
</g>
<!-- Node1&#45;&gt;Node29 -->
<g id="edge52" class="edge"><title>Node1&#45;&gt;Node29</title>
<path fill="none" stroke="midnightblue" d="M753.856,-682.11C854.497,-678.895 1046.37,-668.25 1205.49,-633 1290.96,-614.064 1386.93,-575.483 1435.55,-554.631"/>
<polygon fill="midnightblue" stroke="midnightblue" points="753.703,-678.612 743.814,-682.415 753.916,-685.609 753.703,-678.612"/>
</g>
<!-- Node31 -->
<g id="node31" class="node"><title>Node31</title>
<g id="a_node31"><a xlink:href="common_8cpp.html" target="_top" xlink:title=" ">
<polygon fill="white" stroke="black" points="1832.49,-597 1832.49,-627 1950.49,-627 1950.49,-597 1832.49,-597"/>
<text text-anchor="start" x="1840.49" y="-615" font-family="Helvetica,sans-Serif" font-size="10.00">C:/projects/ndt/sources</text>
<text text-anchor="middle" x="1891.49" y="-604" font-family="Helvetica,sans-Serif" font-size="10.00">/src/common.cpp</text>
</a>
</g>
</g>
<!-- Node1&#45;&gt;Node31 -->
<g id="edge61" class="edge"><title>Node1&#45;&gt;Node31</title>
<path fill="none" stroke="midnightblue" d="M753.609,-682.439C966.712,-678.851 1611.62,-665.526 1818.49,-633 1827.57,-631.571 1837.15,-629.428 1846.27,-627.069"/>
<polygon fill="midnightblue" stroke="midnightblue" points="753.431,-678.942 743.491,-682.608 753.548,-685.941 753.431,-678.942"/>
</g>
<!-- Node3 -->
<g id="node3" class="node"><title>Node3</title>
<g id="a_node3"><a xlink:href="address_8h.html" target="_top" xlink:title=" ">
<polygon fill="white" stroke="black" points="780.485,-452 780.485,-482 898.485,-482 898.485,-452 780.485,-452"/>
<text text-anchor="start" x="788.485" y="-470" font-family="Helvetica,sans-Serif" font-size="10.00">C:/projects/ndt/sources</text>
<text text-anchor="middle" x="839.485" y="-459" font-family="Helvetica,sans-Serif" font-size="10.00">/include/ndt/address.h</text>
</a>
</g>
</g>
<!-- Node2&#45;&gt;Node3 -->
<g id="edge2" class="edge"><title>Node2&#45;&gt;Node3</title>
<path fill="none" stroke="midnightblue" d="M724.748,-520.187C750.904,-508.29 784.482,-493.018 808.545,-482.073"/>
<polygon fill="midnightblue" stroke="midnightblue" points="723.133,-517.076 715.479,-524.403 726.031,-523.448 723.133,-517.076"/>
</g>
<!-- Node2&#45;&gt;Node4 -->
<g id="edge28" class="edge"><title>Node2&#45;&gt;Node4</title>
<path fill="none" stroke="midnightblue" d="M628.21,-520.887C574.752,-500.232 502.485,-460.322 502.485,-395.5 502.485,-395.5 502.485,-395.5 502.485,-165 502.485,-109.125 548.907,-55.6423 573.931,-30.8713"/>
<polygon fill="midnightblue" stroke="midnightblue" points="627.023,-524.18 637.616,-524.4 629.472,-517.622 627.023,-524.18"/>
</g>
<!-- Node2&#45;&gt;Node5 -->
<g id="edge31" class="edge"><title>Node2&#45;&gt;Node5</title>
<path fill="none" stroke="midnightblue" d="M660.848,-517.111C652.222,-508.578 642.799,-498.334 635.485,-488 617.353,-462.381 602.515,-428.562 594.941,-409.727"/>
<polygon fill="midnightblue" stroke="midnightblue" points="658.514,-519.722 668.15,-524.128 663.365,-514.675 658.514,-519.722"/>
</g>
<!-- Node15 -->
<g id="node15" class="node"><title>Node15</title>
<g id="a_node15"><a xlink:href="bin__rw_8h.html" target="_top" xlink:title=" ">
<polygon fill="white" stroke="black" points="1408.49,-452 1408.49,-482 1526.49,-482 1526.49,-452 1408.49,-452"/>
<text text-anchor="start" x="1416.49" y="-470" font-family="Helvetica,sans-Serif" font-size="10.00">C:/projects/ndt/sources</text>
<text text-anchor="middle" x="1467.49" y="-459" font-family="Helvetica,sans-Serif" font-size="10.00">/include/ndt/bin_rw.h</text>
</a>
</g>
</g>
<!-- Node2&#45;&gt;Node15 -->
<g id="edge21" class="edge"><title>Node2&#45;&gt;Node15</title>
<path fill="none" stroke="midnightblue" d="M753.8,-523.967C1022.94,-488.434 1095.67,-520.798 1361.49,-488 1376.73,-486.119 1393.08,-483.392 1408.27,-480.552"/>
<polygon fill="midnightblue" stroke="midnightblue" points="753.178,-520.519 743.731,-525.316 754.107,-527.457 753.178,-520.519"/>
</g>
<!-- Node19 -->
<g id="node19" class="node"><title>Node19</title>
<g id="a_node19"><a xlink:href="file_8h.html" target="_top" xlink:title=" ">
<polygon fill="white" stroke="black" points="644.485,-452 644.485,-482 762.485,-482 762.485,-452 644.485,-452"/>
<text text-anchor="start" x="652.485" y="-470" font-family="Helvetica,sans-Serif" font-size="10.00">C:/projects/ndt/sources</text>
<text text-anchor="middle" x="703.485" y="-459" font-family="Helvetica,sans-Serif" font-size="10.00">/include/ndt/file.h</text>
</a>
</g>
</g>
<!-- Node2&#45;&gt;Node19 -->
<g id="edge29" class="edge"><title>Node2&#45;&gt;Node19</title>
<path fill="none" stroke="midnightblue" d="M690.936,-514.564C693.831,-503.821 697.149,-491.51 699.646,-482.246"/>
<polygon fill="midnightblue" stroke="midnightblue" points="687.553,-513.667 688.33,-524.233 694.312,-515.489 687.553,-513.667"/>
</g>
<!-- Node3&#45;&gt;Node4 -->
<g id="edge3" class="edge"><title>Node3&#45;&gt;Node4</title>
<path fill="none" stroke="midnightblue" d="M832.175,-442.211C824.179,-414.04 812.485,-365.566 812.485,-323 812.485,-323 812.485,-323 812.485,-165 812.485,-86.1589 714.724,-46.6199 648.66,-28.9015"/>
<polygon fill="midnightblue" stroke="midnightblue" points="828.86,-443.343 835.027,-451.958 835.578,-441.378 828.86,-443.343"/>
</g>
<!-- Node3&#45;&gt;Node5 -->
<g id="edge4" class="edge"><title>Node3&#45;&gt;Node5</title>
<path fill="none" stroke="midnightblue" d="M782.275,-449.105C778.625,-448.048 775.005,-447.006 771.485,-446 727.502,-433.431 677.411,-419.565 640.928,-409.547"/>
<polygon fill="midnightblue" stroke="midnightblue" points="781.376,-452.488 791.956,-451.92 783.331,-445.767 781.376,-452.488"/>
</g>
<!-- Node14 -->
<g id="node14" class="node"><title>Node14</title>
<g id="a_node14"><a xlink:href="address_8cpp.html" target="_top" xlink:title=" ">
<polygon fill="white" stroke="black" points="840.485,-379.5 840.485,-409.5 958.485,-409.5 958.485,-379.5 840.485,-379.5"/>
<text text-anchor="start" x="848.485" y="-397.5" font-family="Helvetica,sans-Serif" font-size="10.00">C:/projects/ndt/sources</text>
<text text-anchor="middle" x="899.485" y="-386.5" font-family="Helvetica,sans-Serif" font-size="10.00">/src/address.cpp</text>
</a>
</g>
</g>
<!-- Node3&#45;&gt;Node14 -->
<g id="edge20" class="edge"><title>Node3&#45;&gt;Node14</title>
<path fill="none" stroke="midnightblue" d="M858.175,-444.039C867.693,-432.856 878.989,-419.583 887.361,-409.746"/>
<polygon fill="midnightblue" stroke="midnightblue" points="855.443,-441.849 851.627,-451.733 860.774,-446.386 855.443,-441.849"/>
</g>
<!-- Node5&#45;&gt;Node4 -->
<g id="edge5" class="edge"><title>Node5&#45;&gt;Node4</title>
<path fill="none" stroke="midnightblue" d="M589.485,-368.991C589.485,-339.55 589.485,-288.664 589.485,-245 589.485,-245 589.485,-245 589.485,-165 589.485,-115.758 589.485,-57.3308 589.485,-30.8354"/>
<polygon fill="midnightblue" stroke="midnightblue" points="585.985,-369.165 589.485,-379.165 592.985,-369.165 585.985,-369.165"/>
</g>
<!-- Node5&#45;&gt;Node6 -->
<g id="edge6" class="edge"><title>Node5&#45;&gt;Node6</title>
<path fill="none" stroke="midnightblue" d="M520.169,-379.812C453.728,-366.691 354.516,-347.099 291.682,-334.69"/>
<polygon fill="midnightblue" stroke="midnightblue" points="519.644,-383.275 530.133,-381.779 521.001,-376.408 519.644,-383.275"/>
</g>
<!-- Node12 -->
<g id="node12" class="node"><title>Node12</title>
<g id="a_node12"><a xlink:href="udp_8h.html" target="_top" xlink:title=" ">
<polygon fill="white" stroke="black" points="1558.49,-307 1558.49,-337 1676.49,-337 1676.49,-307 1558.49,-307"/>
<text text-anchor="start" x="1566.49" y="-325" font-family="Helvetica,sans-Serif" font-size="10.00">C:/projects/ndt/sources</text>
<text text-anchor="middle" x="1617.49" y="-314" font-family="Helvetica,sans-Serif" font-size="10.00">/include/ndt/udp.h</text>
</a>
</g>
</g>
<!-- Node5&#45;&gt;Node12 -->
<g id="edge17" class="edge"><title>Node5&#45;&gt;Node12</title>
<path fill="none" stroke="midnightblue" d="M658.988,-378.953C986.669,-337.036 1073.5,-365.85 1399.49,-343 1453.32,-339.226 1514.51,-333.485 1558.32,-329.121"/>
<polygon fill="midnightblue" stroke="midnightblue" points="658.195,-375.526 648.726,-380.279 659.092,-382.469 658.195,-375.526"/>
</g>
<!-- Node6&#45;&gt;Node4 -->
<g id="edge7" class="edge"><title>Node6&#45;&gt;Node4</title>
<path fill="none" stroke="midnightblue" d="M246.563,-292.173C257.081,-271.918 272.522,-244.678 289.485,-223 350.887,-144.533 366.018,-119.845 450.485,-67 476.278,-50.863 507.976,-38.8448 534.585,-30.5899"/>
<polygon fill="midnightblue" stroke="midnightblue" points="243.373,-290.723 241.949,-301.221 249.609,-293.903 243.373,-290.723"/>
</g>
<!-- Node6&#45;&gt;Node7 -->
<g id="edge8" class="edge"><title>Node6&#45;&gt;Node7</title>
<path fill="none" stroke="midnightblue" d="M199.725,-295.065C187.084,-285.057 172.87,-273.804 161.124,-264.506"/>
<polygon fill="midnightblue" stroke="midnightblue" points="197.75,-297.965 207.763,-301.428 202.095,-292.477 197.75,-297.965"/>
</g>
<!-- Node6&#45;&gt;Node11 -->
<g id="edge16" class="edge"><title>Node6&#45;&gt;Node11</title>
<path fill="none" stroke="midnightblue" d="M276.03,-296.486C294.419,-286.134 315.533,-274.247 332.837,-264.506"/>
<polygon fill="midnightblue" stroke="midnightblue" points="274.248,-293.472 267.251,-301.428 277.682,-299.572 274.248,-293.472"/>
</g>
<!-- Node8 -->
<g id="node8" class="node"><title>Node8</title>
<g id="a_node8"><a xlink:href="executor__select_8h.html" target="_top" xlink:title=" ">
<polygon fill="white" stroke="black" points="81.4851,-145.5 81.4851,-186.5 199.485,-186.5 199.485,-145.5 81.4851,-145.5"/>
<text text-anchor="start" x="89.4851" y="-174.5" font-family="Helvetica,sans-Serif" font-size="10.00">C:/projects/ndt/sources</text>
<text text-anchor="start" x="89.4851" y="-163.5" font-family="Helvetica,sans-Serif" font-size="10.00">/include/ndt/executor</text>
<text text-anchor="middle" x="140.485" y="-152.5" font-family="Helvetica,sans-Serif" font-size="10.00">_select.h</text>
</a>
</g>
</g>
<!-- Node7&#45;&gt;Node8 -->
<g id="edge9" class="edge"><title>Node7&#45;&gt;Node8</title>
<path fill="none" stroke="midnightblue" d="M138.048,-213.297C138.522,-204.301 139.03,-194.653 139.458,-186.506"/>
<polygon fill="midnightblue" stroke="midnightblue" points="134.546,-213.258 137.515,-223.428 141.536,-213.626 134.546,-213.258"/>
</g>
<!-- Node8&#45;&gt;Node4 -->
<g id="edge12" class="edge"><title>Node8&#45;&gt;Node4</title>
<path fill="none" stroke="midnightblue" d="M149.24,-135.642C157.59,-113.043 172.51,-83.0432 196.485,-67 249.797,-31.3259 434.011,-20.828 530.104,-17.7572"/>
<polygon fill="midnightblue" stroke="midnightblue" points="145.923,-134.524 145.956,-145.119 152.537,-136.816 145.923,-134.524"/>
</g>
<!-- Node9 -->
<g id="node9" class="node"><title>Node9</title>
<g id="a_node9"><a xlink:href="context_8h.html" target="_top" xlink:title=" ">
<polygon fill="white" stroke="black" points="31.4851,-73 31.4851,-103 149.485,-103 149.485,-73 31.4851,-73"/>
<text text-anchor="start" x="39.4851" y="-91" font-family="Helvetica,sans-Serif" font-size="10.00">C:/projects/ndt/sources</text>
<text text-anchor="middle" x="90.4851" y="-80" font-family="Helvetica,sans-Serif" font-size="10.00">/include/ndt/context.h</text>
</a>
</g>
</g>
<!-- Node8&#45;&gt;Node9 -->
<g id="edge10" class="edge"><title>Node8&#45;&gt;Node9</title>
<path fill="none" stroke="midnightblue" d="M122.051,-136.98C114.498,-125.499 106.084,-112.711 99.8439,-103.225"/>
<polygon fill="midnightblue" stroke="midnightblue" points="119.189,-138.998 127.609,-145.428 125.037,-135.15 119.189,-138.998"/>
</g>
<!-- Node10 -->
<g id="node10" class="node"><title>Node10</title>
<g id="a_node10"><a xlink:href="event__handler__select_8h.html" target="_top" xlink:title=" ">
<polygon fill="white" stroke="black" points="205.985,-67.5 205.985,-108.5 334.985,-108.5 334.985,-67.5 205.985,-67.5"/>
<text text-anchor="start" x="213.985" y="-96.5" font-family="Helvetica,sans-Serif" font-size="10.00">C:/projects/ndt/sources</text>
<text text-anchor="start" x="213.985" y="-85.5" font-family="Helvetica,sans-Serif" font-size="10.00">/include/ndt/event_handler</text>
<text text-anchor="middle" x="270.485" y="-74.5" font-family="Helvetica,sans-Serif" font-size="10.00">_select.h</text>
</a>
</g>
</g>
<!-- Node8&#45;&gt;Node10 -->
<g id="edge13" class="edge"><title>Node8&#45;&gt;Node10</title>
<path fill="none" stroke="midnightblue" d="M182.901,-140.203C200.494,-129.918 220.608,-118.159 237.12,-108.506"/>
<polygon fill="midnightblue" stroke="midnightblue" points="180.83,-137.36 173.963,-145.428 184.363,-143.403 180.83,-137.36"/>
</g>
<!-- Node9&#45;&gt;Node4 -->
<g id="edge11" class="edge"><title>Node9&#45;&gt;Node4</title>
<path fill="none" stroke="midnightblue" d="M147.833,-70.4248C153.101,-69.1639 158.377,-67.9968 163.485,-67 293.233,-41.683 447.856,-27.1958 530.482,-20.6916"/>
<polygon fill="midnightblue" stroke="midnightblue" points="146.608,-67.1232 137.757,-72.9451 148.307,-73.9141 146.608,-67.1232"/>
</g>
<!-- Node10&#45;&gt;Node4 -->
<g id="edge14" class="edge"><title>Node10&#45;&gt;Node4</title>
<path fill="none" stroke="midnightblue" d="M345.052,-68.0356C346.542,-67.6849 348.021,-67.3393 349.485,-67 410.876,-52.7763 481.498,-38.1203 530.16,-28.2857"/>
<polygon fill="midnightblue" stroke="midnightblue" points="344.015,-64.6849 335.103,-70.4141 345.642,-71.4931 344.015,-64.6849"/>
</g>
<!-- Node10&#45;&gt;Node6 -->
<g id="edge15" class="edge"><title>Node10&#45;&gt;Node6</title>
<path fill="none" stroke="midnightblue" d="M265.599,-118.83C257.716,-166.961 242.399,-260.47 235.725,-301.22"/>
<polygon fill="midnightblue" stroke="midnightblue" points="269.091,-119.164 267.253,-108.73 262.183,-118.033 269.091,-119.164"/>
</g>
<!-- Node12&#45;&gt;Node4 -->
<g id="edge18" class="edge"><title>Node12&#45;&gt;Node4</title>
<path fill="none" stroke="midnightblue" d="M1607.59,-297.403C1581.62,-235.745 1512.82,-74.0762 1502.49,-67 1432.33,-18.9565 840.114,-15.9581 648.816,-16.2579"/>
<polygon fill="midnightblue" stroke="midnightblue" points="1604.4,-298.866 1611.51,-306.727 1610.86,-296.152 1604.4,-298.866"/>
</g>
<!-- Node12&#45;&gt;Node13 -->
<g id="edge19" class="edge"><title>Node12&#45;&gt;Node13</title>
<path fill="none" stroke="midnightblue" d="M1631.36,-298.074C1639.01,-285.437 1648.26,-270.148 1654.87,-259.231"/>
<polygon fill="midnightblue" stroke="midnightblue" points="1628.32,-296.338 1626.14,-306.705 1634.31,-299.962 1628.32,-296.338"/>
</g>
<!-- Node15&#45;&gt;Node4 -->
<g id="edge22" class="edge"><title>Node15&#45;&gt;Node4</title>
<path fill="none" stroke="midnightblue" d="M1453.87,-442.927C1448.48,-433.045 1442.6,-421.215 1438.49,-410 1424.81,-372.756 1418.49,-362.675 1418.49,-323 1418.49,-323 1418.49,-323 1418.49,-165 1418.49,-77.4038 1331.21,-92.761 1247.49,-67 1136.47,-32.8424 788.571,-21.1137 648.641,-17.7123"/>
<polygon fill="midnightblue" stroke="midnightblue" points="1450.86,-444.718 1458.81,-451.721 1456.96,-441.289 1450.86,-444.718"/>
</g>
<!-- Node16 -->
<g id="node16" class="node"><title>Node16</title>
<g id="a_node16"><a xlink:href="packet_8h.html" target="_top" xlink:title=" ">
<polygon fill="white" stroke="black" points="1272.49,-379.5 1272.49,-409.5 1390.49,-409.5 1390.49,-379.5 1272.49,-379.5"/>
<text text-anchor="start" x="1280.49" y="-397.5" font-family="Helvetica,sans-Serif" font-size="10.00">C:/projects/ndt/sources</text>
<text text-anchor="middle" x="1331.49" y="-386.5" font-family="Helvetica,sans-Serif" font-size="10.00">/include/ndt/packet.h</text>
</a>
</g>
</g>
<!-- Node15&#45;&gt;Node16 -->
<g id="edge23" class="edge"><title>Node15&#45;&gt;Node16</title>
<path fill="none" stroke="midnightblue" d="M1431.25,-447.215C1408.43,-435.389 1379.47,-420.374 1358.63,-409.573"/>
<polygon fill="midnightblue" stroke="midnightblue" points="1429.8,-450.408 1440.29,-451.903 1433.02,-444.193 1429.8,-450.408"/>
</g>
<!-- Node18 -->
<g id="node18" class="node"><title>Node18</title>
<g id="a_node18"><a xlink:href="packet__handlers_8h.html" target="_top" xlink:title=" ">
<polygon fill="white" stroke="black" points="1446.99,-379.5 1446.99,-409.5 1595.99,-409.5 1595.99,-379.5 1446.99,-379.5"/>
<text text-anchor="start" x="1454.99" y="-397.5" font-family="Helvetica,sans-Serif" font-size="10.00">C:/projects/ndt/sources</text>
<text text-anchor="middle" x="1521.49" y="-386.5" font-family="Helvetica,sans-Serif" font-size="10.00">/include/ndt/packet_handlers.h</text>
</a>
</g>
</g>
<!-- Node15&#45;&gt;Node18 -->
<g id="edge26" class="edge"><title>Node15&#45;&gt;Node18</title>
<path fill="none" stroke="midnightblue" d="M1484.56,-443.713C1493.07,-432.599 1503.11,-419.488 1510.57,-409.746"/>
<polygon fill="midnightblue" stroke="midnightblue" points="1481.72,-441.666 1478.41,-451.733 1487.27,-445.923 1481.72,-441.666"/>
</g>
<!-- Node16&#45;&gt;Node4 -->
<g id="edge24" class="edge"><title>Node16&#45;&gt;Node4</title>
<path fill="none" stroke="midnightblue" d="M1295.16,-373.908C1283.35,-365.828 1271.3,-355.418 1263.49,-343 1239.85,-305.452 1244.49,-289.367 1244.49,-245 1244.49,-245 1244.49,-245 1244.49,-165 1244.49,-120.157 1254.63,-96.0679 1220.49,-67 1177.52,-30.4234 797.381,-20.0319 648.713,-17.3524"/>
<polygon fill="midnightblue" stroke="midnightblue" points="1293.34,-376.9 1303.64,-379.375 1297.13,-371.016 1293.34,-376.9"/>
</g>
<!-- Node17 -->
<g id="node17" class="node"><title>Node17</title>
<g id="a_node17"><a xlink:href="packet_8cpp.html" target="_top" xlink:title=" ">
<polygon fill="white" stroke="black" points="1272.49,-307 1272.49,-337 1390.49,-337 1390.49,-307 1272.49,-307"/>
<text text-anchor="start" x="1280.49" y="-325" font-family="Helvetica,sans-Serif" font-size="10.00">C:/projects/ndt/sources</text>
<text text-anchor="middle" x="1331.49" y="-314" font-family="Helvetica,sans-Serif" font-size="10.00">/src/packet.cpp</text>
</a>
</g>
</g>
<!-- Node16&#45;&gt;Node17 -->
<g id="edge25" class="edge"><title>Node16&#45;&gt;Node17</title>
<path fill="none" stroke="midnightblue" d="M1331.49,-369.232C1331.49,-358.568 1331.49,-346.414 1331.49,-337.246"/>
<polygon fill="midnightblue" stroke="midnightblue" points="1327.99,-369.233 1331.49,-379.233 1334.99,-369.233 1327.99,-369.233"/>
</g>
<!-- Node18&#45;&gt;Node4 -->
<g id="edge27" class="edge"><title>Node18&#45;&gt;Node4</title>
<path fill="none" stroke="midnightblue" d="M1512.83,-369.74C1503.06,-340.716 1488.49,-289.926 1488.49,-245 1488.49,-245 1488.49,-245 1488.49,-165 1488.49,-114.835 1475.1,-93.4658 1432.49,-67 1366.32,-25.9073 829.146,-18.2389 648.503,-16.8193"/>
<polygon fill="midnightblue" stroke="midnightblue" points="1509.6,-371.096 1516.18,-379.397 1516.21,-368.802 1509.6,-371.096"/>
</g>
<!-- Node20 -->
<g id="node20" class="node"><title>Node20</title>
<g id="a_node20"><a xlink:href="file_8cpp.html" target="_top" xlink:title=" ">
<polygon fill="white" stroke="black" points="666.485,-379.5 666.485,-409.5 784.485,-409.5 784.485,-379.5 666.485,-379.5"/>
<text text-anchor="start" x="674.485" y="-397.5" font-family="Helvetica,sans-Serif" font-size="10.00">C:/projects/ndt/sources</text>
<text text-anchor="middle" x="725.485" y="-386.5" font-family="Helvetica,sans-Serif" font-size="10.00">/src/file.cpp</text>
</a>
</g>
</g>
<!-- Node19&#45;&gt;Node20 -->
<g id="edge30" class="edge"><title>Node19&#45;&gt;Node20</title>
<path fill="none" stroke="midnightblue" d="M710.954,-442.064C714.307,-431.321 718.149,-419.01 721.04,-409.746"/>
<polygon fill="midnightblue" stroke="midnightblue" points="707.575,-441.145 707.937,-451.733 714.257,-443.23 707.575,-441.145"/>
</g>
<!-- Node21&#45;&gt;Node3 -->
<g id="edge34" class="edge"><title>Node21&#45;&gt;Node3</title>
<path fill="none" stroke="midnightblue" d="M560.626,-528.056C617.736,-519.036 700.267,-504.821 771.485,-488 778.91,-486.246 786.727,-484.169 794.311,-482.028"/>
<polygon fill="midnightblue" stroke="midnightblue" points="559.959,-524.618 550.622,-529.625 561.043,-531.534 559.959,-524.618"/>
</g>
<!-- Node21&#45;&gt;Node4 -->
<g id="edge35" class="edge"><title>Node21&#45;&gt;Node4</title>
<path fill="none" stroke="midnightblue" d="M420.317,-531.029C392.961,-524.291 364.209,-511.643 347.485,-488 336.705,-472.761 342.94,-464.105 347.485,-446 369.71,-357.479 407.8,-348.571 444.485,-265 481.943,-179.669 456.362,-140.63 513.485,-67 525.526,-51.4794 543.734,-39.1461 559.308,-30.5539"/>
<polygon fill="midnightblue" stroke="midnightblue" points="419.786,-534.496 430.307,-533.253 421.307,-527.664 419.786,-534.496"/>
</g>
<!-- Node21&#45;&gt;Node5 -->
<g id="edge36" class="edge"><title>Node21&#45;&gt;Node5</title>
<path fill="none" stroke="midnightblue" d="M506.231,-515.756C526.883,-485.926 562.502,-434.476 579.671,-409.677"/>
<polygon fill="midnightblue" stroke="midnightblue" points="503.154,-514.052 500.34,-524.266 508.909,-518.036 503.154,-514.052"/>
</g>
<!-- Node22 -->
<g id="node22" class="node"><title>Node22</title>
<g id="a_node22"><a xlink:href="exception_8cpp.html" target="_top" xlink:title=" ">
<polygon fill="white" stroke="black" points="356.485,-452 356.485,-482 474.485,-482 474.485,-452 356.485,-452"/>
<text text-anchor="start" x="364.485" y="-470" font-family="Helvetica,sans-Serif" font-size="10.00">C:/projects/ndt/sources</text>
<text text-anchor="middle" x="415.485" y="-459" font-family="Helvetica,sans-Serif" font-size="10.00">/src/exception.cpp</text>
</a>
</g>
</g>
<!-- Node21&#45;&gt;Node22 -->
<g id="edge37" class="edge"><title>Node21&#45;&gt;Node22</title>
<path fill="none" stroke="midnightblue" d="M467.761,-517.139C455.637,-505.743 441.061,-492.041 430.384,-482.005"/>
<polygon fill="midnightblue" stroke="midnightblue" points="465.624,-519.934 475.308,-524.233 470.419,-514.834 465.624,-519.934"/>
</g>
<!-- Node25 -->
<g id="node25" class="node"><title>Node25</title>
<g id="a_node25"><a xlink:href="sys__file__ops_8h.html" target="_top" xlink:title=" ">
<polygon fill="white" stroke="black" points="761.485,-524.5 761.485,-554.5 893.485,-554.5 893.485,-524.5 761.485,-524.5"/>
<text text-anchor="start" x="769.485" y="-542.5" font-family="Helvetica,sans-Serif" font-size="10.00">C:/projects/ndt/sources</text>
<text text-anchor="middle" x="827.485" y="-531.5" font-family="Helvetica,sans-Serif" font-size="10.00">/include/ndt/sys_file_ops.h</text>
</a>
</g>
</g>
<!-- Node24&#45;&gt;Node25 -->
<g id="edge44" class="edge"><title>Node24&#45;&gt;Node25</title>
<path fill="none" stroke="midnightblue" d="M827.485,-581.08C827.485,-572.006 827.485,-562.45 827.485,-554.892"/>
<polygon fill="midnightblue" stroke="midnightblue" points="823.985,-581.362 827.485,-591.362 830.985,-581.362 823.985,-581.362"/>
</g>
<!-- Node24&#45;&gt;Node27 -->
<g id="edge47" class="edge"><title>Node24&#45;&gt;Node27</title>
<path fill="none" stroke="midnightblue" d="M880.932,-587.302C905.352,-576.474 933.46,-564.011 954.527,-554.67"/>
<polygon fill="midnightblue" stroke="midnightblue" points="879.498,-584.109 871.775,-591.362 882.336,-590.508 879.498,-584.109"/>
</g>
<!-- Node25&#45;&gt;Node19 -->
<g id="edge45" class="edge"><title>Node25&#45;&gt;Node19</title>
<path fill="none" stroke="midnightblue" d="M793.89,-519.399C773.176,-507.622 747.065,-492.778 728.237,-482.073"/>
<polygon fill="midnightblue" stroke="midnightblue" points="792.267,-522.503 802.69,-524.403 795.727,-516.418 792.267,-522.503"/>
</g>
<!-- Node26 -->
<g id="node26" class="node"><title>Node26</title>
<g id="a_node26"><a xlink:href="sys__file__ops_8cpp.html" target="_top" xlink:title=" ">
<polygon fill="white" stroke="black" points="916.485,-452 916.485,-482 1034.49,-482 1034.49,-452 916.485,-452"/>
<text text-anchor="start" x="924.485" y="-470" font-family="Helvetica,sans-Serif" font-size="10.00">C:/projects/ndt/sources</text>
<text text-anchor="middle" x="975.485" y="-459" font-family="Helvetica,sans-Serif" font-size="10.00">/src/sys_file_ops.cpp</text>
</a>
</g>
</g>
<!-- Node25&#45;&gt;Node26 -->
<g id="edge46" class="edge"><title>Node25&#45;&gt;Node26</title>
<path fill="none" stroke="midnightblue" d="M866.259,-520.03C891.185,-508.156 923.067,-492.97 945.942,-482.073"/>
<polygon fill="midnightblue" stroke="midnightblue" points="864.602,-516.942 857.079,-524.403 867.613,-523.262 864.602,-516.942"/>
</g>
<!-- Node27&#45;&gt;Node3 -->
<g id="edge48" class="edge"><title>Node27&#45;&gt;Node3</title>
<path fill="none" stroke="midnightblue" d="M947.973,-520.03C923.215,-508.156 891.549,-492.97 868.828,-482.073"/>
<polygon fill="midnightblue" stroke="midnightblue" points="946.561,-523.234 957.091,-524.403 949.588,-516.923 946.561,-523.234"/>
</g>
<!-- Node27&#45;&gt;Node4 -->
<g id="edge49" class="edge"><title>Node27&#45;&gt;Node4</title>
<path fill="none" stroke="midnightblue" d="M1071.11,-526.437C1118.43,-517.973 1171.11,-505.106 1187.49,-488 1216.51,-457.684 1206.49,-437.469 1206.49,-395.5 1206.49,-395.5 1206.49,-395.5 1206.49,-165 1206.49,-50.9669 803.076,-24.2539 648.646,-18.2055"/>
<polygon fill="midnightblue" stroke="midnightblue" points="1070.36,-523.014 1061.11,-528.176 1071.56,-529.911 1070.36,-523.014"/>
</g>
<!-- Node28 -->
<g id="node28" class="node"><title>Node28</title>
<g id="a_node28"><a xlink:href="sys__socket__ops_8cpp.html" target="_top" xlink:title=" ">
<polygon fill="white" stroke="black" points="1052.49,-452 1052.49,-482 1178.49,-482 1178.49,-452 1052.49,-452"/>
<text text-anchor="start" x="1060.49" y="-470" font-family="Helvetica,sans-Serif" font-size="10.00">C:/projects/ndt/sources</text>
<text text-anchor="middle" x="1115.49" y="-459" font-family="Helvetica,sans-Serif" font-size="10.00">/src/sys_socket_ops.cpp</text>
</a>
</g>
</g>
<!-- Node27&#45;&gt;Node28 -->
<g id="edge50" class="edge"><title>Node27&#45;&gt;Node28</title>
<path fill="none" stroke="midnightblue" d="M1021.15,-519.558C1042.74,-507.756 1070.06,-492.826 1089.73,-482.073"/>
<polygon fill="midnightblue" stroke="midnightblue" points="1019.38,-516.536 1012.28,-524.403 1022.73,-522.678 1019.38,-516.536"/>
</g>
<!-- Node29&#45;&gt;Node3 -->
<g id="edge53" class="edge"><title>Node29&#45;&gt;Node3</title>
<path fill="none" stroke="midnightblue" d="M1397.81,-536.6C1291.29,-532.712 1081.96,-521.192 907.485,-488 899.386,-486.459 890.868,-484.355 882.706,-482.088"/>
<polygon fill="midnightblue" stroke="midnightblue" points="1397.98,-540.108 1408.1,-536.963 1398.23,-533.113 1397.98,-540.108"/>
</g>
<!-- Node29&#45;&gt;Node4 -->
<g id="edge55" class="edge"><title>Node29&#45;&gt;Node4</title>
<path fill="none" stroke="midnightblue" d="M1536.61,-538.164C1588.13,-534.76 1658.01,-523.174 1708.49,-488 1748.3,-460.256 1766.49,-444.024 1766.49,-395.5 1766.49,-395.5 1766.49,-395.5 1766.49,-165 1766.49,-50.1947 1639.49,-92.2174 1527.49,-67 1359.04,-29.0737 827.497,-19.3379 648.774,-17.1054"/>
<polygon fill="midnightblue" stroke="midnightblue" points="1536.34,-534.673 1526.56,-538.74 1536.74,-541.662 1536.34,-534.673"/>
</g>
<!-- Node29&#45;&gt;Node5 -->
<g id="edge58" class="edge"><title>Node29&#45;&gt;Node5</title>
<path fill="none" stroke="midnightblue" d="M1438.22,-518.688C1425.83,-509.823 1411.52,-498.921 1399.49,-488 1380.85,-471.081 1384.23,-456.796 1361.49,-446 1219.97,-378.82 812.8,-430.399 657.485,-410 654.613,-409.623 651.681,-409.189 648.727,-408.712"/>
<polygon fill="midnightblue" stroke="midnightblue" points="1436.24,-521.577 1446.43,-524.475 1440.27,-515.854 1436.24,-521.577"/>
</g>
<!-- Node29&#45;&gt;Node12 -->
<g id="edge59" class="edge"><title>Node29&#45;&gt;Node12</title>
<path fill="none" stroke="midnightblue" d="M1536.88,-532.071C1594.72,-525.108 1670.59,-511.68 1689.49,-488 1728.09,-439.632 1663.91,-367.379 1632.84,-337.123"/>
<polygon fill="midnightblue" stroke="midnightblue" points="1536.21,-528.626 1526.68,-533.257 1537.02,-535.58 1536.21,-528.626"/>
</g>
<!-- Node29&#45;&gt;Node15 -->
<g id="edge54" class="edge"><title>Node29&#45;&gt;Node15</title>
<path fill="none" stroke="midnightblue" d="M1467.49,-514.232C1467.49,-503.568 1467.49,-491.414 1467.49,-482.246"/>
<polygon fill="midnightblue" stroke="midnightblue" points="1463.99,-514.233 1467.49,-524.233 1470.99,-514.233 1463.99,-514.233"/>
</g>
<!-- Node29&#45;&gt;Node18 -->
<g id="edge56" class="edge"><title>Node29&#45;&gt;Node18</title>
<path fill="none" stroke="midnightblue" d="M1536.68,-530.503C1589.09,-522.855 1654.82,-509.29 1671.49,-488 1682.99,-473.3 1682.38,-461.16 1671.49,-446 1654.09,-421.788 1624.49,-409.028 1596.17,-402.362"/>
<polygon fill="midnightblue" stroke="midnightblue" points="1536.14,-527.044 1526.73,-531.909 1537.12,-533.975 1536.14,-527.044"/>
</g>
<!-- Node29&#45;&gt;Node23 -->
<g id="edge57" class="edge"><title>Node29&#45;&gt;Node23</title>
<path fill="none" stroke="midnightblue" d="M1423.14,-520.533C1398.27,-510.454 1367.21,-497.871 1341.73,-487.546"/>
<polygon fill="midnightblue" stroke="midnightblue" points="1422.11,-523.891 1432.69,-524.403 1424.74,-517.404 1422.11,-523.891"/>
</g>
<!-- Node30 -->
<g id="node30" class="node"><title>Node30</title>
<g id="a_node30"><a xlink:href="utils_8cpp.html" target="_top" xlink:title=" ">
<polygon fill="white" stroke="black" points="1544.49,-452 1544.49,-482 1662.49,-482 1662.49,-452 1544.49,-452"/>
<text text-anchor="start" x="1552.49" y="-470" font-family="Helvetica,sans-Serif" font-size="10.00">C:/projects/ndt/sources</text>
<text text-anchor="middle" x="1603.49" y="-459" font-family="Helvetica,sans-Serif" font-size="10.00">/src/utils.cpp</text>
</a>
</g>
</g>
<!-- Node29&#45;&gt;Node30 -->
<g id="edge60" class="edge"><title>Node29&#45;&gt;Node30</title>
<path fill="none" stroke="midnightblue" d="M1503.72,-519.715C1526.54,-507.889 1555.5,-492.874 1576.34,-482.073"/>
<polygon fill="midnightblue" stroke="midnightblue" points="1501.95,-516.693 1494.68,-524.403 1505.17,-522.908 1501.95,-516.693"/>
</g>
</g>
</svg>
        <g id="navigator" transform="translate(0 0)" fill="#404254">
                <rect fill="#f2f5e9" fill-opacity="0.5" stroke="#606060" stroke-width=".5" x="0" y="0" width="60" height="60"/>
                <use id="zoomplus" xlink:href="#zoomPlus" x="17" y="9" onmousedown="handleZoom(evt,'in')"/>
                <use id="zoomminus" xlink:href="#zoomMin" x="42" y="9" onmousedown="handleZoom(evt,'out')"/>
                <use id="reset" xlink:href="#resetDef" x="30" y="36" onmousedown="handleReset()"/>
                <g id="arrowUp" xlink:href="#dirArrow" transform="translate(30 24)" onmousedown="handlePan(0,-1)">
                  <use xlink:href="#rim" fill="#404040">
                        <set attributeName="fill" to="#808080" begin="arrowUp.mouseover" end="arrowUp.mouseout"/>
                  </use>
                  <path fill="none" stroke="white" stroke-width="1.5" d="M0,-3.0v7 M-2.5,-0.5L0,-3.0L2.5,-0.5"/>
                </g>
                <g id="arrowRight" xlink:href="#dirArrow" transform="rotate(90) translate(36 -43)" onmousedown="handlePan(1,0)">
                  <use xlink:href="#rim" fill="#404040">
                        <set attributeName="fill" to="#808080" begin="arrowRight.mouseover" end="arrowRight.mouseout"/>
                  </use>
                  <path fill="none" stroke="white" stroke-width="1.5" d="M0,-3.0v7 M-2.5,-0.5L0,-3.0L2.5,-0.5"/>
                </g>
                <g id="arrowDown" xlink:href="#dirArrow" transform="rotate(180) translate(-30 -48)" onmousedown="handlePan(0,1)">
                  <use xlink:href="#rim" fill="#404040">
                        <set attributeName="fill" to="#808080" begin="arrowDown.mouseover" end="arrowDown.mouseout"/>
                  </use>
                  <path fill="none" stroke="white" stroke-width="1.5" d="M0,-3.0v7 M-2.5,-0.5L0,-3.0L2.5,-0.5"/>
                </g>
                <g id="arrowLeft" xlink:href="#dirArrow" transform="rotate(270) translate(-36 17)" onmousedown="handlePan(-1,0)">
                  <use xlink:href="#rim" fill="#404040">
                        <set attributeName="fill" to="#808080" begin="arrowLeft.mouseover" end="arrowLeft.mouseout"/>
                  </use>
                  <path fill="none" stroke="white" stroke-width="1.5" d="M0,-3.0v7 M-2.5,-0.5L0,-3.0L2.5,-0.5"/>
                </g>
        </g>
        <svg viewBox="0 0 15 15" width="100%" height="30px" preserveAspectRatio="xMaxYMin meet">
         <g id="arrow_out" transform="scale(0.3 0.3)">
          <a xlink:href="common_8h__dep__incl_org.svg" target="_base">
           <rect id="button" ry="5" rx="5" y="6" x="6" height="38" width="38"
                fill="#f2f5e9" fill-opacity="0.5" stroke="#606060" stroke-width="1.0"/>
           <path id="arrow"
             d="M 11.500037,31.436501 C 11.940474,20.09759 22.043105,11.32322 32.158766,21.979434 L 37.068811,17.246167 C 37.068811,17.246167 37.088388,32 37.088388,32 L 22.160133,31.978069 C 22.160133,31.978069 26.997745,27.140456 26.997745,27.140456 C 18.528582,18.264221 13.291696,25.230495 11.500037,31.436501 z"
             style="fill:#404040;"/>
          </a>
         </g>
        </svg>
</svg>
