<?xml version="1.0" encoding="UTF-8" standalone="no"?>
<!DOCTYPE svg PUBLIC "-//W3C//DTD SVG 1.1//EN"
 "http://www.w3.org/Graphics/SVG/1.1/DTD/svg11.dtd">
<!-- Generated by graphviz version 2.38.0 (20140413.2041)
 -->
<!-- Title: C:/projects/ndt/sources/include/ndt/platform/win/context_base_error.h Pages: 1 -->
<svg width="268pt" height="128pt"
 viewBox="0.00 0.00 267.50 128.00" xmlns="http://www.w3.org/2000/svg" xmlns:xlink="http://www.w3.org/1999/xlink">
<g id="graph0" class="graph" transform="scale(1 1) rotate(0) translate(4 124)">
<title>C:/projects/ndt/sources/include/ndt/platform/win/context_base_error.h</title>
<polygon fill="white" stroke="none" points="-4,4 -4,-124 263.5,-124 263.5,4 -4,4"/>
<!-- Node1 -->
<g id="node1" class="node"><title>Node1</title>
<g id="a_node1"><a xlink:title=" ">
<polygon fill="#bfbfbf" stroke="black" points="64,-78.5 64,-119.5 192,-119.5 192,-78.5 64,-78.5"/>
<text text-anchor="start" x="72" y="-107.5" font-family="Helvetica,sans-Serif" font-size="10.00">C:/projects/ndt/sources</text>
<text text-anchor="start" x="72" y="-96.5" font-family="Helvetica,sans-Serif" font-size="10.00">/include/ndt/platform</text>
<text text-anchor="middle" x="128" y="-85.5" font-family="Helvetica,sans-Serif" font-size="10.00">/win/context_base_error.h</text>
</a>
</g>
</g>
<!-- Node2 -->
<g id="node2" class="node"><title>Node2</title>
<g id="a_node2"><a xlink:href="win_2context__base_8h.html" target="_top" xlink:title=" ">
<polygon fill="white" stroke="black" points="0,-0.5 0,-41.5 118,-41.5 118,-0.5 0,-0.5"/>
<text text-anchor="start" x="8" y="-29.5" font-family="Helvetica,sans-Serif" font-size="10.00">C:/projects/ndt/sources</text>
<text text-anchor="start" x="8" y="-18.5" font-family="Helvetica,sans-Serif" font-size="10.00">/include/ndt/platform</text>
<text text-anchor="middle" x="59" y="-7.5" font-family="Helvetica,sans-Serif" font-size="10.00">/win/context_base.h</text>
</a>
</g>
</g>
<!-- Node1&#45;&gt;Node2 -->
<g id="edge1" class="edge"><title>Node1&#45;&gt;Node2</title>
<path fill="none" stroke="midnightblue" d="M103.41,-70.9158C94.5921,-61.2029 84.8298,-50.4502 76.709,-41.5056"/>
<polygon fill="midnightblue" stroke="midnightblue" points="100.918,-73.3769 110.231,-78.4281 106.1,-68.6716 100.918,-73.3769"/>
</g>
<!-- Node3 -->
<g id="node3" class="node"><title>Node3</title>
<g id="a_node3"><a xlink:href="context__base__error_8cpp.html" target="_top" xlink:title=" ">
<polygon fill="white" stroke="black" points="136.5,-0.5 136.5,-41.5 259.5,-41.5 259.5,-0.5 136.5,-0.5"/>
<text text-anchor="start" x="144.5" y="-29.5" font-family="Helvetica,sans-Serif" font-size="10.00">C:/projects/ndt/sources</text>
<text text-anchor="start" x="144.5" y="-18.5" font-family="Helvetica,sans-Serif" font-size="10.00">/src/platform/win/context</text>
<text text-anchor="middle" x="198" y="-7.5" font-family="Helvetica,sans-Serif" font-size="10.00">_base_error.cpp</text>
</a>
</g>
</g>
<!-- Node1&#45;&gt;Node3 -->
<g id="edge2" class="edge"><title>Node1&#45;&gt;Node3</title>
<path fill="none" stroke="midnightblue" d="M152.946,-70.9158C161.892,-61.2029 171.796,-50.4502 180.034,-41.5056"/>
<polygon fill="midnightblue" stroke="midnightblue" points="150.227,-68.7015 146.027,-78.4281 155.376,-73.4438 150.227,-68.7015"/>
</g>
</g>
</svg>
