<?xml version="1.0" encoding="UTF-8" standalone="no"?>
<!DOCTYPE svg PUBLIC "-//W3C//DTD SVG 1.1//EN"
 "http://www.w3.org/Graphics/SVG/1.1/DTD/svg11.dtd">
<!-- Generated by graphviz version 2.38.0 (20140413.2041)
 -->
<!-- Title: C:/projects/ndt/sources/src/platform/win/context_base_error.cpp Pages: 1 -->
<svg width="131pt" height="173pt"
 viewBox="0.00 0.00 131.00 173.00" xmlns="http://www.w3.org/2000/svg" xmlns:xlink="http://www.w3.org/1999/xlink">
<g id="graph0" class="graph" transform="scale(1 1) rotate(0) translate(4 169)">
<title>C:/projects/ndt/sources/src/platform/win/context_base_error.cpp</title>
<polygon fill="white" stroke="none" points="-4,4 -4,-169 127,-169 127,4 -4,4"/>
<!-- Node1 -->
<g id="node1" class="node"><title>Node1</title>
<g id="a_node1"><a xlink:title=" ">
<polygon fill="#bfbfbf" stroke="black" points="0,-123.5 0,-164.5 123,-164.5 123,-123.5 0,-123.5"/>
<text text-anchor="start" x="8" y="-152.5" font-family="Helvetica,sans-Serif" font-size="10.00">C:/projects/ndt/sources</text>
<text text-anchor="start" x="8" y="-141.5" font-family="Helvetica,sans-Serif" font-size="10.00">/src/platform/win/context</text>
<text text-anchor="middle" x="61.5" y="-130.5" font-family="Helvetica,sans-Serif" font-size="10.00">_base_error.cpp</text>
</a>
</g>
</g>
<!-- Node2 -->
<g id="node2" class="node"><title>Node2</title>
<g id="a_node2"><a xlink:href="context__base__error_8h.html" target="_top" xlink:title=" ">
<polygon fill="white" stroke="black" points="1.5,-56.5 1.5,-86.5 121.5,-86.5 121.5,-56.5 1.5,-56.5"/>
<text text-anchor="start" x="9.5" y="-74.5" font-family="Helvetica,sans-Serif" font-size="10.00">ndt/platform/win/context</text>
<text text-anchor="middle" x="61.5" y="-63.5" font-family="Helvetica,sans-Serif" font-size="10.00">_base_error.h</text>
</a>
</g>
</g>
<!-- Node1&#45;&gt;Node2 -->
<g id="edge1" class="edge"><title>Node1&#45;&gt;Node2</title>
<path fill="none" stroke="midnightblue" d="M61.5,-123.362C61.5,-115.226 61.5,-105.7 61.5,-97.105"/>
<polygon fill="midnightblue" stroke="midnightblue" points="65.0001,-96.8916 61.5,-86.8916 58.0001,-96.8916 65.0001,-96.8916"/>
</g>
<!-- Node3 -->
<g id="node3" class="node"><title>Node3</title>
<g id="a_node3"><a xlink:title=" ">
<polygon fill="white" stroke="#bfbfbf" points="24.5,-0.5 24.5,-19.5 98.5,-19.5 98.5,-0.5 24.5,-0.5"/>
<text text-anchor="middle" x="61.5" y="-7.5" font-family="Helvetica,sans-Serif" font-size="10.00">system_error</text>
</a>
</g>
</g>
<!-- Node2&#45;&gt;Node3 -->
<g id="edge2" class="edge"><title>Node2&#45;&gt;Node3</title>
<path fill="none" stroke="midnightblue" d="M61.5,-56.3993C61.5,-48.4664 61.5,-38.458 61.5,-29.8583"/>
<polygon fill="midnightblue" stroke="midnightblue" points="65.0001,-29.6577 61.5,-19.6578 58.0001,-29.6578 65.0001,-29.6577"/>
</g>
</g>
</svg>
