<?xml version="1.0" encoding="UTF-8" standalone="no"?>
<!DOCTYPE svg PUBLIC "-//W3C//DTD SVG 1.1//EN"
 "http://www.w3.org/Graphics/SVG/1.1/DTD/svg11.dtd">
<!-- Generated by graphviz version 2.38.0 (20140413.2041)
 -->
<!-- Title: C:/projects/ndt/sources/include/ndt/context.h Pages: 1 -->
<!--zoomable 576 -->
<svg id="main" version="1.1" xmlns="http://www.w3.org/2000/svg" xmlns:xlink="http://www.w3.org/1999/xlink" xml:space="preserve" onload="init(evt)">
<style type="text/css"><![CDATA[
.edge:hover path { stroke: red; }
.edge:hover polygon { stroke: red; fill: red; }
]]></style>
<script type="text/javascript"><![CDATA[
var edges = document.getElementsByTagName('g');
if (edges && edges.length) {
  for (var i=0;i<edges.length;i++) {
    if (edges[i].id.substr(0,4)=='edge') {
      edges[i].setAttribute('class','edge');
    }
  }
}
]]></script>
        <defs>
                <circle id="rim" cx="0" cy="0" r="7"/>
                <circle id="rim2" cx="0" cy="0" r="3.5"/>
                <g id="zoomPlus">
                        <use xlink:href="#rim" fill="#404040">
                                <set attributeName="fill" to="#808080" begin="zoomplus.mouseover" end="zoomplus.mouseout"/>
                        </use>
                        <path d="M-4,0h8M0,-4v8" fill="none" stroke="white" stroke-width="1.5" pointer-events="none"/>
                </g>
                <g id="zoomMin">
                        <use xlink:href="#rim" fill="#404040">
                                <set attributeName="fill" to="#808080" begin="zoomminus.mouseover" end="zoomminus.mouseout"/>
                        </use>
                        <path d="M-4,0h8" fill="none" stroke="white" stroke-width="1.5" pointer-events="none"/>
                </g>
                <g id="dirArrow">
                        <path fill="none" stroke="white" stroke-width="1.5" d="M0,-3.0v7 M-2.5,-0.5L0,-3.0L2.5,-0.5"/>
                </g>
               <g id="resetDef">
                       <use xlink:href="#rim2" fill="#404040">
                               <set attributeName="fill" to="#808080" begin="reset.mouseover" end="reset.mouseout"/>
                       </use>
               </g>
        </defs>

<script type="text/javascript">
var viewWidth = 1206;
var viewHeight = 576;
var sectionId = 'dynsection-0';
</script>
<script xlink:href="svgpan.js"/>
<svg id="graph" class="graph">
<g id="viewport">
<title>C:/projects/ndt/sources/include/ndt/context.h</title>
<polygon fill="white" stroke="none" points="-4,4 -4,-572 1202,-572 1202,4 -4,4"/>
<!-- Node1 -->
<g id="node1" class="node"><title>Node1</title>
<g id="a_node1"><a xlink:title=" ">
<polygon fill="#bfbfbf" stroke="black" points="1022,-537.5 1022,-567.5 1140,-567.5 1140,-537.5 1022,-537.5"/>
<text text-anchor="start" x="1030" y="-555.5" font-family="Helvetica,sans-Serif" font-size="10.00">C:/projects/ndt/sources</text>
<text text-anchor="middle" x="1081" y="-544.5" font-family="Helvetica,sans-Serif" font-size="10.00">/include/ndt/context.h</text>
</a>
</g>
</g>
<!-- Node2 -->
<g id="node2" class="node"><title>Node2</title>
<g id="a_node2"><a xlink:href="executor__select_8h.html" target="_top" xlink:title=" ">
<polygon fill="white" stroke="black" points="976,-476 976,-495 1070,-495 1070,-476 976,-476"/>
<text text-anchor="middle" x="1023" y="-483" font-family="Helvetica,sans-Serif" font-size="10.00">executor_select.h</text>
</a>
</g>
</g>
<!-- Node1&#45;&gt;Node2 -->
<g id="edge1" class="edge"><title>Node1&#45;&gt;Node2</title>
<path fill="none" stroke="midnightblue" d="M1068.41,-537.396C1059.37,-527.261 1047.15,-513.567 1037.67,-502.937"/>
<polygon fill="midnightblue" stroke="midnightblue" points="1040.03,-500.326 1030.76,-495.195 1034.8,-504.986 1040.03,-500.326"/>
</g>
<!-- Node36 -->
<g id="node36" class="node"><title>Node36</title>
<g id="a_node36"><a xlink:href="nix_2context__base_8h.html" target="_top" xlink:title=" ">
<polygon fill="white" stroke="black" points="1088,-470.5 1088,-500.5 1190,-500.5 1190,-470.5 1088,-470.5"/>
<text text-anchor="start" x="1096" y="-488.5" font-family="Helvetica,sans-Serif" font-size="10.00">platform/nix/context</text>
<text text-anchor="middle" x="1139" y="-477.5" font-family="Helvetica,sans-Serif" font-size="10.00">_base.h</text>
</a>
</g>
</g>
<!-- Node1&#45;&gt;Node36 -->
<g id="edge56" class="edge"><title>Node1&#45;&gt;Node36</title>
<path fill="none" stroke="midnightblue" d="M1093.59,-537.396C1101.19,-528.878 1111.03,-517.847 1119.61,-508.233"/>
<polygon fill="midnightblue" stroke="midnightblue" points="1122.39,-510.368 1126.44,-500.577 1117.17,-505.708 1122.39,-510.368"/>
</g>
<!-- Node3 -->
<g id="node3" class="node"><title>Node3</title>
<g id="a_node3"><a xlink:href="nix_2executor__select__impl_8h.html" target="_top" xlink:title=" ">
<polygon fill="white" stroke="black" points="694.5,-403.5 694.5,-433.5 801.5,-433.5 801.5,-403.5 694.5,-403.5"/>
<text text-anchor="start" x="702.5" y="-421.5" font-family="Helvetica,sans-Serif" font-size="10.00">platform/nix/executor</text>
<text text-anchor="middle" x="748" y="-410.5" font-family="Helvetica,sans-Serif" font-size="10.00">_select_impl.h</text>
</a>
</g>
</g>
<!-- Node2&#45;&gt;Node3 -->
<g id="edge2" class="edge"><title>Node2&#45;&gt;Node3</title>
<path fill="none" stroke="midnightblue" d="M986.766,-475.936C942.211,-465.404 865.824,-447.349 811.452,-434.498"/>
<polygon fill="midnightblue" stroke="midnightblue" points="812.106,-431.056 801.569,-432.162 810.495,-437.868 812.106,-431.056"/>
</g>
<!-- Node4 -->
<g id="node4" class="node"><title>Node4</title>
<g id="a_node4"><a xlink:href="common_8h.html" target="_top" xlink:title="Header with typedefs to make type designation platform independent.">
<polygon fill="white" stroke="black" points="534,-56.5 534,-75.5 614,-75.5 614,-56.5 534,-56.5"/>
<text text-anchor="middle" x="574" y="-63.5" font-family="Helvetica,sans-Serif" font-size="10.00">../../common.h</text>
</a>
</g>
</g>
<!-- Node3&#45;&gt;Node4 -->
<g id="edge3" class="edge"><title>Node3&#45;&gt;Node4</title>
<path fill="none" stroke="midnightblue" d="M694.206,-414.092C522.696,-402.518 0,-361.462 0,-291 0,-291 0,-291 0,-177 0,-143.537 9.69713,-129.854 38,-112 78.5237,-86.4375 398.557,-72.9398 523.9,-68.5914"/>
<polygon fill="midnightblue" stroke="midnightblue" points="524.124,-72.0859 533.999,-68.2464 523.885,-65.09 524.124,-72.0859"/>
</g>
<!-- Node14 -->
<g id="node14" class="node"><title>Node14</title>
<g id="a_node14"><a xlink:href="executor__select__base_8h.html" target="_top" xlink:title=" ">
<polygon fill="white" stroke="black" points="696,-336.5 696,-366.5 800,-366.5 800,-336.5 696,-336.5"/>
<text text-anchor="start" x="704" y="-354.5" font-family="Helvetica,sans-Serif" font-size="10.00">../../executor_select</text>
<text text-anchor="middle" x="748" y="-343.5" font-family="Helvetica,sans-Serif" font-size="10.00">_base.h</text>
</a>
</g>
</g>
<!-- Node3&#45;&gt;Node14 -->
<g id="edge13" class="edge"><title>Node3&#45;&gt;Node14</title>
<path fill="none" stroke="midnightblue" d="M748,-403.396C748,-395.645 748,-385.812 748,-376.86"/>
<polygon fill="midnightblue" stroke="midnightblue" points="751.5,-376.576 748,-366.577 744.5,-376.577 751.5,-376.576"/>
</g>
<!-- Node5 -->
<g id="node5" class="node"><title>Node5</title>
<g id="a_node5"><a xlink:title=" ">
<polygon fill="white" stroke="#bfbfbf" points="829,-0.5 829,-19.5 891,-19.5 891,-0.5 829,-0.5"/>
<text text-anchor="middle" x="860" y="-7.5" font-family="Helvetica,sans-Serif" font-size="10.00">arpa/inet.h</text>
</a>
</g>
</g>
<!-- Node4&#45;&gt;Node5 -->
<g id="edge4" class="edge"><title>Node4&#45;&gt;Node5</title>
<path fill="none" stroke="midnightblue" d="M614.4,-58.019C661.04,-49.8627 740.303,-35.7037 818.64,-20.0119"/>
<polygon fill="midnightblue" stroke="midnightblue" points="819.571,-23.3948 828.684,-17.9905 818.19,-16.5325 819.571,-23.3948"/>
</g>
<!-- Node6 -->
<g id="node6" class="node"><title>Node6</title>
<g id="a_node6"><a xlink:title=" ">
<polygon fill="white" stroke="#bfbfbf" points="305.5,-0.5 305.5,-19.5 352.5,-19.5 352.5,-0.5 305.5,-0.5"/>
<text text-anchor="middle" x="329" y="-7.5" font-family="Helvetica,sans-Serif" font-size="10.00">errno.h</text>
</a>
</g>
</g>
<!-- Node4&#45;&gt;Node6 -->
<g id="edge5" class="edge"><title>Node4&#45;&gt;Node6</title>
<path fill="none" stroke="midnightblue" d="M533.778,-57.3245C492.916,-49.3445 427.594,-36.0898 362.706,-20.309"/>
<polygon fill="midnightblue" stroke="midnightblue" points="363.265,-16.8425 352.72,-17.859 361.598,-23.6409 363.265,-16.8425"/>
</g>
<!-- Node7 -->
<g id="node7" class="node"><title>Node7</title>
<g id="a_node7"><a xlink:title=" ">
<polygon fill="white" stroke="#bfbfbf" points="370.5,-0.5 370.5,-19.5 413.5,-19.5 413.5,-0.5 370.5,-0.5"/>
<text text-anchor="middle" x="392" y="-7.5" font-family="Helvetica,sans-Serif" font-size="10.00">fcntl.h</text>
</a>
</g>
</g>
<!-- Node4&#45;&gt;Node7 -->
<g id="edge6" class="edge"><title>Node4&#45;&gt;Node7</title>
<path fill="none" stroke="midnightblue" d="M545.134,-56.488C516.463,-48.0262 470.996,-34.587 423.211,-20.3543"/>
<polygon fill="midnightblue" stroke="midnightblue" points="424.21,-17.0001 413.627,-17.4984 422.211,-23.7085 424.21,-17.0001"/>
</g>
<!-- Node8 -->
<g id="node8" class="node"><title>Node8</title>
<g id="a_node8"><a xlink:title=" ">
<polygon fill="white" stroke="#bfbfbf" points="431.5,-0.5 431.5,-19.5 480.5,-19.5 480.5,-0.5 431.5,-0.5"/>
<text text-anchor="middle" x="456" y="-7.5" font-family="Helvetica,sans-Serif" font-size="10.00">netdb.h</text>
</a>
</g>
</g>
<!-- Node4&#45;&gt;Node8 -->
<g id="edge7" class="edge"><title>Node4&#45;&gt;Node8</title>
<path fill="none" stroke="midnightblue" d="M555.303,-56.4435C536.056,-47.6356 505.848,-33.8116 483.8,-23.722"/>
<polygon fill="midnightblue" stroke="midnightblue" points="485.16,-20.4951 474.61,-19.5164 482.247,-26.8603 485.16,-20.4951"/>
</g>
<!-- Node9 -->
<g id="node9" class="node"><title>Node9</title>
<g id="a_node9"><a xlink:title=" ">
<polygon fill="white" stroke="#bfbfbf" points="498.5,-0.5 498.5,-19.5 563.5,-19.5 563.5,-0.5 498.5,-0.5"/>
<text text-anchor="middle" x="531" y="-7.5" font-family="Helvetica,sans-Serif" font-size="10.00">netinet/in.h</text>
</a>
</g>
</g>
<!-- Node4&#45;&gt;Node9 -->
<g id="edge8" class="edge"><title>Node4&#45;&gt;Node9</title>
<path fill="none" stroke="midnightblue" d="M566.899,-56.083C560.763,-48.3768 551.73,-37.0333 544.261,-27.6531"/>
<polygon fill="midnightblue" stroke="midnightblue" points="546.936,-25.3936 537.968,-19.7511 541.46,-29.7542 546.936,-25.3936"/>
</g>
<!-- Node10 -->
<g id="node10" class="node"><title>Node10</title>
<g id="a_node10"><a xlink:title=" ">
<polygon fill="white" stroke="#bfbfbf" points="581.5,-0.5 581.5,-19.5 654.5,-19.5 654.5,-0.5 581.5,-0.5"/>
<text text-anchor="middle" x="618" y="-7.5" font-family="Helvetica,sans-Serif" font-size="10.00">sys/socket.h</text>
</a>
</g>
</g>
<!-- Node4&#45;&gt;Node10 -->
<g id="edge9" class="edge"><title>Node4&#45;&gt;Node10</title>
<path fill="none" stroke="midnightblue" d="M581.266,-56.083C587.545,-48.3768 596.788,-37.0333 604.431,-27.6531"/>
<polygon fill="midnightblue" stroke="midnightblue" points="607.266,-29.7143 610.869,-19.7511 601.839,-25.2926 607.266,-29.7143"/>
</g>
<!-- Node11 -->
<g id="node11" class="node"><title>Node11</title>
<g id="a_node11"><a xlink:title=" ">
<polygon fill="white" stroke="#bfbfbf" points="673,-0.5 673,-19.5 741,-19.5 741,-0.5 673,-0.5"/>
<text text-anchor="middle" x="707" y="-7.5" font-family="Helvetica,sans-Serif" font-size="10.00">sys/types.h</text>
</a>
</g>
</g>
<!-- Node4&#45;&gt;Node11 -->
<g id="edge10" class="edge"><title>Node4&#45;&gt;Node11</title>
<path fill="none" stroke="midnightblue" d="M595.074,-56.4435C617.06,-47.5171 651.734,-33.4387 676.664,-23.3168"/>
<polygon fill="midnightblue" stroke="midnightblue" points="678.076,-26.5213 686.024,-19.5164 675.442,-20.0355 678.076,-26.5213"/>
</g>
<!-- Node12 -->
<g id="node12" class="node"><title>Node12</title>
<g id="a_node12"><a xlink:title=" ">
<polygon fill="white" stroke="#bfbfbf" points="759.5,-0.5 759.5,-19.5 810.5,-19.5 810.5,-0.5 759.5,-0.5"/>
<text text-anchor="middle" x="785" y="-7.5" font-family="Helvetica,sans-Serif" font-size="10.00">unistd.h</text>
</a>
</g>
</g>
<!-- Node4&#45;&gt;Node12 -->
<g id="edge11" class="edge"><title>Node4&#45;&gt;Node12</title>
<path fill="none" stroke="midnightblue" d="M607.416,-56.4705C640.816,-47.9422 693.909,-34.3765 749.374,-20.1578"/>
<polygon fill="midnightblue" stroke="midnightblue" points="750.569,-23.4647 759.387,-17.5906 748.831,-16.684 750.569,-23.4647"/>
</g>
<!-- Node13 -->
<g id="node13" class="node"><title>Node13</title>
<g id="a_node13"><a xlink:title=" ">
<polygon fill="white" stroke="#bfbfbf" points="956,-0.5 956,-19.5 1004,-19.5 1004,-0.5 956,-0.5"/>
<text text-anchor="middle" x="980" y="-7.5" font-family="Helvetica,sans-Serif" font-size="10.00">cstddef</text>
</a>
</g>
</g>
<!-- Node4&#45;&gt;Node13 -->
<g id="edge12" class="edge"><title>Node4&#45;&gt;Node13</title>
<path fill="none" stroke="midnightblue" d="M614.04,-59.6745C693.743,-49.0736 870.994,-25.4983 945.722,-15.5592"/>
<polygon fill="midnightblue" stroke="midnightblue" points="946.528,-18.9828 955.979,-14.1949 945.605,-12.0439 946.528,-18.9828"/>
</g>
<!-- Node14&#45;&gt;Node4 -->
<g id="edge17" class="edge"><title>Node14&#45;&gt;Node4</title>
<path fill="none" stroke="midnightblue" d="M695.792,-347.518C531.826,-337.466 38,-301.657 38,-235 38,-235 38,-235 38,-177 38,-146.902 33.7225,-131.08 57,-112 92.5883,-82.8295 400.628,-71.5585 523.606,-68.1957"/>
<polygon fill="midnightblue" stroke="midnightblue" points="523.973,-71.6872 533.876,-67.9215 523.786,-64.6897 523.973,-71.6872"/>
</g>
<!-- Node15 -->
<g id="node15" class="node"><title>Node15</title>
<g id="a_node15"><a xlink:title=" ">
<polygon fill="white" stroke="#bfbfbf" points="803,-280.5 803,-299.5 841,-299.5 841,-280.5 803,-280.5"/>
<text text-anchor="middle" x="822" y="-287.5" font-family="Helvetica,sans-Serif" font-size="10.00">array</text>
</a>
</g>
</g>
<!-- Node14&#45;&gt;Node15 -->
<g id="edge14" class="edge"><title>Node14&#45;&gt;Node15</title>
<path fill="none" stroke="midnightblue" d="M765.537,-336.399C776.844,-327.308 791.542,-315.49 803.107,-306.191"/>
<polygon fill="midnightblue" stroke="midnightblue" points="805.632,-308.652 811.232,-299.658 801.246,-303.196 805.632,-308.652"/>
</g>
<!-- Node16 -->
<g id="node16" class="node"><title>Node16</title>
<g id="a_node16"><a xlink:title=" ">
<polygon fill="white" stroke="#bfbfbf" points="903,-224.5 903,-243.5 961,-243.5 961,-224.5 903,-224.5"/>
<text text-anchor="middle" x="932" y="-231.5" font-family="Helvetica,sans-Serif" font-size="10.00">functional</text>
</a>
</g>
</g>
<!-- Node14&#45;&gt;Node16 -->
<g id="edge15" class="edge"><title>Node14&#45;&gt;Node16</title>
<path fill="none" stroke="midnightblue" d="M780.641,-336.474C801.14,-327.152 827.804,-314.071 850,-300 873.779,-284.926 898.821,-264.28 914.881,-250.334"/>
<polygon fill="midnightblue" stroke="midnightblue" points="917.208,-252.948 922.406,-243.716 912.585,-247.692 917.208,-252.948"/>
</g>
<!-- Node17 -->
<g id="node17" class="node"><title>Node17</title>
<g id="a_node17"><a xlink:title=" ">
<polygon fill="white" stroke="#bfbfbf" points="66,-112.5 66,-131.5 140,-131.5 140,-112.5 66,-112.5"/>
<text text-anchor="middle" x="103" y="-119.5" font-family="Helvetica,sans-Serif" font-size="10.00">system_error</text>
</a>
</g>
</g>
<!-- Node14&#45;&gt;Node17 -->
<g id="edge16" class="edge"><title>Node14&#45;&gt;Node17</title>
<path fill="none" stroke="midnightblue" d="M695.852,-349.352C593.505,-345.257 361.23,-326.778 188,-244 153.29,-227.414 142.946,-220.267 122,-188 112.898,-173.978 108.045,-155.481 105.53,-141.805"/>
<polygon fill="midnightblue" stroke="midnightblue" points="108.944,-140.985 103.924,-131.655 102.03,-142.079 108.944,-140.985"/>
</g>
<!-- Node18 -->
<g id="node18" class="node"><title>Node18</title>
<g id="a_node18"><a xlink:href="event__handler__select_8h.html" target="_top" xlink:title=" ">
<polygon fill="white" stroke="black" points="979,-224.5 979,-243.5 1095,-243.5 1095,-224.5 979,-224.5"/>
<text text-anchor="middle" x="1037" y="-231.5" font-family="Helvetica,sans-Serif" font-size="10.00">event_handler_select.h</text>
</a>
</g>
</g>
<!-- Node14&#45;&gt;Node18 -->
<g id="edge18" class="edge"><title>Node14&#45;&gt;Node18</title>
<path fill="none" stroke="midnightblue" d="M753.206,-336.353C759.984,-320.035 773.448,-293.698 794,-280 808.475,-270.352 902.13,-254.869 968.836,-244.815"/>
<polygon fill="midnightblue" stroke="midnightblue" points="969.51,-248.254 978.881,-243.312 968.473,-241.331 969.51,-248.254"/>
</g>
<!-- Node21 -->
<g id="node21" class="node"><title>Node21</title>
<g id="a_node21"><a xlink:href="socket_8h.html" target="_top" xlink:title=" ">
<polygon fill="white" stroke="black" points="693,-280.5 693,-299.5 747,-299.5 747,-280.5 693,-280.5"/>
<text text-anchor="middle" x="720" y="-287.5" font-family="Helvetica,sans-Serif" font-size="10.00">socket.h</text>
</a>
</g>
</g>
<!-- Node14&#45;&gt;Node21 -->
<g id="edge22" class="edge"><title>Node14&#45;&gt;Node21</title>
<path fill="none" stroke="midnightblue" d="M741.364,-336.399C737.463,-328.11 732.496,-317.554 728.333,-308.708"/>
<polygon fill="midnightblue" stroke="midnightblue" points="731.499,-307.216 724.074,-299.658 725.165,-310.196 731.499,-307.216"/>
</g>
<!-- Node18&#45;&gt;Node2 -->
<g id="edge21" class="edge"><title>Node18&#45;&gt;Node2</title>
<path fill="none" stroke="midnightblue" d="M1036.52,-243.552C1034.53,-279.098 1026.86,-415.639 1024.05,-465.841"/>
<polygon fill="midnightblue" stroke="midnightblue" points="1020.55,-465.731 1023.48,-475.912 1027.54,-466.123 1020.55,-465.731"/>
</g>
<!-- Node19 -->
<g id="node19" class="node"><title>Node19</title>
<g id="a_node19"><a xlink:title=" ">
<polygon fill="white" stroke="#bfbfbf" points="1012,-112.5 1012,-131.5 1058,-131.5 1058,-112.5 1012,-112.5"/>
<text text-anchor="middle" x="1035" y="-119.5" font-family="Helvetica,sans-Serif" font-size="10.00">cstdint</text>
</a>
</g>
</g>
<!-- Node18&#45;&gt;Node19 -->
<g id="edge19" class="edge"><title>Node18&#45;&gt;Node19</title>
<path fill="none" stroke="midnightblue" d="M1036.84,-224.368C1036.52,-206.617 1035.78,-165.666 1035.34,-141.597"/>
<polygon fill="midnightblue" stroke="midnightblue" points="1038.84,-141.526 1035.16,-131.591 1031.84,-141.653 1038.84,-141.526"/>
</g>
<!-- Node20 -->
<g id="node20" class="node"><title>Node20</title>
<g id="a_node20"><a xlink:title=" ">
<polygon fill="white" stroke="#bfbfbf" points="788,-112.5 788,-131.5 850,-131.5 850,-112.5 788,-112.5"/>
<text text-anchor="middle" x="819" y="-119.5" font-family="Helvetica,sans-Serif" font-size="10.00">type_traits</text>
</a>
</g>
</g>
<!-- Node18&#45;&gt;Node20 -->
<g id="edge20" class="edge"><title>Node18&#45;&gt;Node20</title>
<path fill="none" stroke="midnightblue" d="M991.329,-224.471C948.175,-215.784 887.14,-201.682 867,-188 849.464,-176.087 835.904,-155.587 827.738,-140.79"/>
<polygon fill="midnightblue" stroke="midnightblue" points="830.69,-138.882 822.963,-131.633 824.483,-142.118 830.69,-138.882"/>
</g>
<!-- Node21&#45;&gt;Node4 -->
<g id="edge52" class="edge"><title>Node21&#45;&gt;Node4</title>
<path fill="none" stroke="midnightblue" d="M692.73,-284.62C597.545,-268.725 282.708,-210.845 225,-132 219.75,-124.827 219.13,-118.675 225,-112 244.398,-89.9401 431.651,-75.6266 523.584,-69.8719"/>
<polygon fill="midnightblue" stroke="midnightblue" points="524.008,-73.3526 533.774,-69.2447 523.577,-66.3658 524.008,-73.3526"/>
</g>
<!-- Node21&#45;&gt;Node16 -->
<g id="edge24" class="edge"><title>Node21&#45;&gt;Node16</title>
<path fill="none" stroke="midnightblue" d="M747.281,-282.051C784.267,-272.63 850.547,-255.748 892.842,-244.974"/>
<polygon fill="midnightblue" stroke="midnightblue" points="893.958,-248.302 902.785,-242.442 892.23,-241.518 893.958,-248.302"/>
</g>
<!-- Node22 -->
<g id="node22" class="node"><title>Node22</title>
<g id="a_node22"><a xlink:title=" ">
<polygon fill="white" stroke="#bfbfbf" points="868.5,-112.5 868.5,-131.5 917.5,-131.5 917.5,-112.5 868.5,-112.5"/>
<text text-anchor="middle" x="893" y="-119.5" font-family="Helvetica,sans-Serif" font-size="10.00">cassert</text>
</a>
</g>
</g>
<!-- Node21&#45;&gt;Node22 -->
<g id="edge23" class="edge"><title>Node21&#45;&gt;Node22</title>
<path fill="none" stroke="midnightblue" d="M729.301,-280.075C757.24,-253.267 840.693,-173.19 876.445,-138.885"/>
<polygon fill="midnightblue" stroke="midnightblue" points="879.278,-141.017 884.071,-131.568 874.432,-135.966 879.278,-141.017"/>
</g>
<!-- Node23 -->
<g id="node23" class="node"><title>Node23</title>
<g id="a_node23"><a xlink:href="address_8h.html" target="_top" xlink:title=" ">
<polygon fill="white" stroke="black" points="670.5,-224.5 670.5,-243.5 729.5,-243.5 729.5,-224.5 670.5,-224.5"/>
<text text-anchor="middle" x="700" y="-231.5" font-family="Helvetica,sans-Serif" font-size="10.00">address.h</text>
</a>
</g>
</g>
<!-- Node21&#45;&gt;Node23 -->
<g id="edge25" class="edge"><title>Node21&#45;&gt;Node23</title>
<path fill="none" stroke="midnightblue" d="M716.697,-280.083C714.018,-272.849 710.151,-262.409 706.814,-253.397"/>
<polygon fill="midnightblue" stroke="midnightblue" points="709.996,-251.913 703.241,-243.751 703.432,-254.344 709.996,-251.913"/>
</g>
<!-- Node26 -->
<g id="node26" class="node"><title>Node26</title>
<g id="a_node26"><a xlink:href="buffer_8h.html" target="_top" xlink:title=" ">
<polygon fill="white" stroke="black" points="876,-168.5 876,-187.5 924,-187.5 924,-168.5 876,-168.5"/>
<text text-anchor="middle" x="900" y="-175.5" font-family="Helvetica,sans-Serif" font-size="10.00">buffer.h</text>
</a>
</g>
</g>
<!-- Node21&#45;&gt;Node26 -->
<g id="edge51" class="edge"><title>Node21&#45;&gt;Node26</title>
<path fill="none" stroke="midnightblue" d="M740.54,-280.418C759.785,-272.065 789.089,-258.534 813,-244 837.97,-228.822 864.593,-208.198 881.716,-194.285"/>
<polygon fill="midnightblue" stroke="midnightblue" points="884.242,-196.74 889.745,-187.686 879.797,-191.332 884.242,-196.74"/>
</g>
<!-- Node27 -->
<g id="node27" class="node"><title>Node27</title>
<g id="a_node27"><a xlink:href="exception_8h.html" target="_top" xlink:title=" ">
<polygon fill="white" stroke="black" points="131.5,-168.5 131.5,-187.5 198.5,-187.5 198.5,-168.5 131.5,-168.5"/>
<text text-anchor="middle" x="165" y="-175.5" font-family="Helvetica,sans-Serif" font-size="10.00">exception.h</text>
</a>
</g>
</g>
<!-- Node21&#45;&gt;Node27 -->
<g id="edge53" class="edge"><title>Node21&#45;&gt;Node27</title>
<path fill="none" stroke="midnightblue" d="M692.829,-289.47C599.945,-290.638 296.216,-290.725 213,-244 194.136,-233.408 180.581,-211.989 172.784,-196.631"/>
<polygon fill="midnightblue" stroke="midnightblue" points="175.942,-195.123 168.493,-187.589 169.618,-198.124 175.942,-195.123"/>
</g>
<!-- Node30 -->
<g id="node30" class="node"><title>Node30</title>
<g id="a_node30"><a xlink:href="useful__base__types_8h.html" target="_top" xlink:title=" ">
<polygon fill="white" stroke="black" points="1022,-56.5 1022,-75.5 1128,-75.5 1128,-56.5 1022,-56.5"/>
<text text-anchor="middle" x="1075" y="-63.5" font-family="Helvetica,sans-Serif" font-size="10.00">useful_base_types.h</text>
</a>
</g>
</g>
<!-- Node21&#45;&gt;Node30 -->
<g id="edge54" class="edge"><title>Node21&#45;&gt;Node30</title>
<path fill="none" stroke="midnightblue" d="M745.551,-280.482C770.456,-271.967 809.253,-258.14 842,-244 893.276,-221.859 1034.74,-177.596 1067,-132 1076.34,-118.802 1077.77,-100.213 1077.2,-86.2929"/>
<polygon fill="midnightblue" stroke="midnightblue" points="1080.66,-85.6114 1076.38,-75.919 1073.68,-86.1642 1080.66,-85.6114"/>
</g>
<!-- Node31 -->
<g id="node31" class="node"><title>Node31</title>
<g id="a_node31"><a xlink:href="utils_8h.html" target="_top" xlink:title=" ">
<polygon fill="white" stroke="black" points="494.5,-168.5 494.5,-187.5 537.5,-187.5 537.5,-168.5 494.5,-168.5"/>
<text text-anchor="middle" x="516" y="-175.5" font-family="Helvetica,sans-Serif" font-size="10.00">utils.h</text>
</a>
</g>
</g>
<!-- Node21&#45;&gt;Node31 -->
<g id="edge55" class="edge"><title>Node21&#45;&gt;Node31</title>
<path fill="none" stroke="midnightblue" d="M703.992,-280.368C668.539,-261.251 583.188,-215.229 540.779,-192.361"/>
<polygon fill="midnightblue" stroke="midnightblue" points="542.396,-189.257 531.933,-187.591 539.074,-195.418 542.396,-189.257"/>
</g>
<!-- Node24 -->
<g id="node24" class="node"><title>Node24</title>
<g id="a_node24"><a xlink:title=" ">
<polygon fill="white" stroke="#bfbfbf" points="740.5,-168.5 740.5,-187.5 781.5,-187.5 781.5,-168.5 740.5,-168.5"/>
<text text-anchor="middle" x="761" y="-175.5" font-family="Helvetica,sans-Serif" font-size="10.00">string</text>
</a>
</g>
</g>
<!-- Node23&#45;&gt;Node24 -->
<g id="edge26" class="edge"><title>Node23&#45;&gt;Node24</title>
<path fill="none" stroke="midnightblue" d="M709.801,-224.324C718.818,-216.341 732.406,-204.313 743.318,-194.653"/>
<polygon fill="midnightblue" stroke="midnightblue" points="745.853,-197.083 751.021,-187.834 741.213,-191.842 745.853,-197.083"/>
</g>
<!-- Node25 -->
<g id="node25" class="node"><title>Node25</title>
<g id="a_node25"><a xlink:title=" ">
<polygon fill="white" stroke="#bfbfbf" points="678,-168.5 678,-187.5 722,-187.5 722,-168.5 678,-168.5"/>
<text text-anchor="middle" x="700" y="-175.5" font-family="Helvetica,sans-Serif" font-size="10.00">variant</text>
</a>
</g>
</g>
<!-- Node23&#45;&gt;Node25 -->
<g id="edge27" class="edge"><title>Node23&#45;&gt;Node25</title>
<path fill="none" stroke="midnightblue" d="M700,-224.083C700,-217.006 700,-206.861 700,-197.986"/>
<polygon fill="midnightblue" stroke="midnightblue" points="703.5,-197.751 700,-187.751 696.5,-197.751 703.5,-197.751"/>
</g>
<!-- Node23&#45;&gt;Node26 -->
<g id="edge28" class="edge"><title>Node23&#45;&gt;Node26</title>
<path fill="none" stroke="midnightblue" d="M729.511,-225.032C765.918,-215.202 827.687,-198.524 866.033,-188.171"/>
<polygon fill="midnightblue" stroke="midnightblue" points="866.975,-191.542 875.717,-185.557 865.15,-184.784 866.975,-191.542"/>
</g>
<!-- Node23&#45;&gt;Node27 -->
<g id="edge34" class="edge"><title>Node23&#45;&gt;Node27</title>
<path fill="none" stroke="midnightblue" d="M670.474,-230.02C581.329,-221.022 314.564,-194.096 208.848,-183.426"/>
<polygon fill="midnightblue" stroke="midnightblue" points="209.136,-179.937 198.835,-182.415 208.433,-186.902 209.136,-179.937"/>
</g>
<!-- Node28 -->
<g id="node28" class="node"><title>Node28</title>
<g id="a_node28"><a xlink:href="sys__socket__ops_8h.html" target="_top" xlink:title=" ">
<polygon fill="white" stroke="black" points="564,-168.5 564,-187.5 660,-187.5 660,-168.5 564,-168.5"/>
<text text-anchor="middle" x="612" y="-175.5" font-family="Helvetica,sans-Serif" font-size="10.00">sys_socket_ops.h</text>
</a>
</g>
</g>
<!-- Node23&#45;&gt;Node28 -->
<g id="edge37" class="edge"><title>Node23&#45;&gt;Node28</title>
<path fill="none" stroke="midnightblue" d="M685.861,-224.324C672.134,-215.9 651.064,-202.971 634.936,-193.074"/>
<polygon fill="midnightblue" stroke="midnightblue" points="636.457,-189.902 626.104,-187.655 632.796,-195.868 636.457,-189.902"/>
</g>
<!-- Node23&#45;&gt;Node31 -->
<g id="edge43" class="edge"><title>Node23&#45;&gt;Node31</title>
<path fill="none" stroke="midnightblue" d="M670.845,-224.444C637.233,-214.579 582.186,-198.424 547.581,-188.268"/>
<polygon fill="midnightblue" stroke="midnightblue" points="548.126,-184.781 537.545,-185.323 546.155,-191.497 548.126,-184.781"/>
</g>
<!-- Node26&#45;&gt;Node4 -->
<g id="edge33" class="edge"><title>Node26&#45;&gt;Node4</title>
<path fill="none" stroke="midnightblue" d="M908.52,-168.451C920.88,-155.021 940.777,-128.786 926,-112 906.401,-89.7363 717.095,-75.5035 624.5,-69.8179"/>
<polygon fill="midnightblue" stroke="midnightblue" points="624.433,-66.3076 614.24,-69.1986 624.011,-73.2949 624.433,-66.3076"/>
</g>
<!-- Node26&#45;&gt;Node13 -->
<g id="edge30" class="edge"><title>Node26&#45;&gt;Node13</title>
<path fill="none" stroke="midnightblue" d="M910.659,-168.424C920.378,-160.075 934.482,-146.547 943,-132 962.444,-98.7935 972.602,-54.3766 977.079,-29.639"/>
<polygon fill="midnightblue" stroke="midnightblue" points="980.531,-30.2126 978.749,-19.7688 973.629,-29.0448 980.531,-30.2126"/>
</g>
<!-- Node26&#45;&gt;Node19 -->
<g id="edge31" class="edge"><title>Node26&#45;&gt;Node19</title>
<path fill="none" stroke="midnightblue" d="M921.391,-168.444C943.707,-159.517 978.903,-145.439 1004.21,-135.317"/>
<polygon fill="midnightblue" stroke="midnightblue" points="1005.72,-138.48 1013.71,-131.516 1003.12,-131.981 1005.72,-138.48"/>
</g>
<!-- Node26&#45;&gt;Node20 -->
<g id="edge32" class="edge"><title>Node26&#45;&gt;Node20</title>
<path fill="none" stroke="midnightblue" d="M886.986,-168.324C874.468,-159.979 855.318,-147.212 840.529,-137.352"/>
<polygon fill="midnightblue" stroke="midnightblue" points="842.244,-134.289 831.982,-131.655 838.361,-140.114 842.244,-134.289"/>
</g>
<!-- Node26&#45;&gt;Node22 -->
<g id="edge29" class="edge"><title>Node26&#45;&gt;Node22</title>
<path fill="none" stroke="midnightblue" d="M898.844,-168.083C897.916,-160.927 896.582,-150.635 895.423,-141.691"/>
<polygon fill="midnightblue" stroke="midnightblue" points="898.891,-141.218 894.134,-131.751 891.949,-142.118 898.891,-141.218"/>
</g>
<!-- Node27&#45;&gt;Node4 -->
<g id="edge36" class="edge"><title>Node27&#45;&gt;Node4</title>
<path fill="none" stroke="midnightblue" d="M165.885,-168.152C167.831,-153.807 173.868,-125.704 192,-112 243.105,-73.3765 432.163,-67.3702 523.696,-66.7852"/>
<polygon fill="midnightblue" stroke="midnightblue" points="523.847,-70.2847 533.831,-66.7402 523.815,-63.2847 523.847,-70.2847"/>
</g>
<!-- Node27&#45;&gt;Node17 -->
<g id="edge35" class="edge"><title>Node27&#45;&gt;Node17</title>
<path fill="none" stroke="midnightblue" d="M155.039,-168.324C145.873,-160.341 132.063,-148.313 120.972,-138.653"/>
<polygon fill="midnightblue" stroke="midnightblue" points="122.982,-135.762 113.143,-131.834 118.385,-141.041 122.982,-135.762"/>
</g>
<!-- Node28&#45;&gt;Node4 -->
<g id="edge38" class="edge"><title>Node28&#45;&gt;Node4</title>
<path fill="none" stroke="midnightblue" d="M609.018,-168.368C602.858,-150.537 588.611,-109.295 580.312,-85.2717"/>
<polygon fill="midnightblue" stroke="midnightblue" points="583.541,-83.9005 576.968,-75.5914 576.925,-86.1862 583.541,-83.9005"/>
</g>
<!-- Node29 -->
<g id="node29" class="node"><title>Node29</title>
<g id="a_node29"><a xlink:href="sys__error__code_8h.html" target="_top" xlink:title=" ">
<polygon fill="white" stroke="black" points="640,-112.5 640,-131.5 732,-131.5 732,-112.5 640,-112.5"/>
<text text-anchor="middle" x="686" y="-119.5" font-family="Helvetica,sans-Serif" font-size="10.00">sys_error_code.h</text>
</a>
</g>
</g>
<!-- Node28&#45;&gt;Node29 -->
<g id="edge39" class="edge"><title>Node28&#45;&gt;Node29</title>
<path fill="none" stroke="midnightblue" d="M623.889,-168.324C635.15,-160.107 652.287,-147.602 665.709,-137.807"/>
<polygon fill="midnightblue" stroke="midnightblue" points="667.88,-140.556 673.894,-131.834 663.753,-134.901 667.88,-140.556"/>
</g>
<!-- Node28&#45;&gt;Node30 -->
<g id="edge42" class="edge"><title>Node28&#45;&gt;Node30</title>
<path fill="none" stroke="midnightblue" d="M640.394,-168.438C666.845,-160.148 707.174,-146.704 741,-132 758.503,-124.391 760.87,-117.961 779,-112 856.719,-86.4451 950.761,-75.3034 1011.68,-70.5116"/>
<polygon fill="midnightblue" stroke="midnightblue" points="1012.2,-73.9824 1021.91,-69.7422 1011.67,-67.0022 1012.2,-73.9824"/>
</g>
<!-- Node29&#45;&gt;Node4 -->
<g id="edge40" class="edge"><title>Node29&#45;&gt;Node4</title>
<path fill="none" stroke="midnightblue" d="M668.005,-112.324C649.962,-103.625 621.953,-90.1202 601.197,-80.113"/>
<polygon fill="midnightblue" stroke="midnightblue" points="602.478,-76.8449 591.95,-75.6545 599.438,-83.1502 602.478,-76.8449"/>
</g>
<!-- Node29&#45;&gt;Node30 -->
<g id="edge41" class="edge"><title>Node29&#45;&gt;Node30</title>
<path fill="none" stroke="midnightblue" d="M732.179,-114.012C736.846,-113.324 741.517,-112.643 746,-112 838.357,-98.7576 945.43,-84.2736 1011.7,-75.4104"/>
<polygon fill="midnightblue" stroke="midnightblue" points="1012.53,-78.8309 1021.98,-74.0373 1011.6,-71.8926 1012.53,-78.8309"/>
</g>
<!-- Node31&#45;&gt;Node4 -->
<g id="edge50" class="edge"><title>Node31&#45;&gt;Node4</title>
<path fill="none" stroke="midnightblue" d="M525.669,-168.247C534.486,-159.772 547.279,-146.159 555,-132 562.915,-117.485 567.868,-99.3027 570.724,-85.8624"/>
<polygon fill="midnightblue" stroke="midnightblue" points="574.194,-86.354 572.649,-75.8723 567.32,-85.0293 574.194,-86.354"/>
</g>
<!-- Node31&#45;&gt;Node17 -->
<g id="edge47" class="edge"><title>Node31&#45;&gt;Node17</title>
<path fill="none" stroke="midnightblue" d="M494.377,-174.173C430.197,-165.781 239.717,-140.876 150.323,-129.187"/>
<polygon fill="midnightblue" stroke="midnightblue" points="150.563,-125.689 140.194,-127.863 149.656,-132.63 150.563,-125.689"/>
</g>
<!-- Node31&#45;&gt;Node20 -->
<g id="edge48" class="edge"><title>Node31&#45;&gt;Node20</title>
<path fill="none" stroke="midnightblue" d="M537.816,-171.731C543.404,-170.446 549.413,-169.12 555,-168 633.262,-152.313 725.28,-137.429 777.411,-129.325"/>
<polygon fill="midnightblue" stroke="midnightblue" points="778.252,-132.737 787.599,-127.749 777.182,-125.819 778.252,-132.737"/>
</g>
<!-- Node32 -->
<g id="node32" class="node"><title>Node32</title>
<g id="a_node32"><a xlink:title=" ">
<polygon fill="white" stroke="#bfbfbf" points="486,-112.5 486,-131.5 546,-131.5 546,-112.5 486,-112.5"/>
<text text-anchor="middle" x="516" y="-119.5" font-family="Helvetica,sans-Serif" font-size="10.00">fmt/core.h</text>
</a>
</g>
</g>
<!-- Node31&#45;&gt;Node32 -->
<g id="edge44" class="edge"><title>Node31&#45;&gt;Node32</title>
<path fill="none" stroke="midnightblue" d="M516,-168.083C516,-161.006 516,-150.861 516,-141.986"/>
<polygon fill="midnightblue" stroke="midnightblue" points="519.5,-141.751 516,-131.751 512.5,-141.751 519.5,-141.751"/>
</g>
<!-- Node33 -->
<g id="node33" class="node"><title>Node33</title>
<g id="a_node33"><a xlink:title=" ">
<polygon fill="white" stroke="#bfbfbf" points="234,-112.5 234,-131.5 302,-131.5 302,-112.5 234,-112.5"/>
<text text-anchor="middle" x="268" y="-119.5" font-family="Helvetica,sans-Serif" font-size="10.00">fmt/format.h</text>
</a>
</g>
</g>
<!-- Node31&#45;&gt;Node33 -->
<g id="edge45" class="edge"><title>Node31&#45;&gt;Node33</title>
<path fill="none" stroke="midnightblue" d="M494.425,-172.302C453.906,-163.479 365.692,-144.272 312.118,-132.606"/>
<polygon fill="midnightblue" stroke="midnightblue" points="312.729,-129.157 302.213,-130.45 311.239,-135.997 312.729,-129.157"/>
</g>
<!-- Node34 -->
<g id="node34" class="node"><title>Node34</title>
<g id="a_node34"><a xlink:title=" ">
<polygon fill="white" stroke="#bfbfbf" points="320,-112.5 320,-131.5 366,-131.5 366,-112.5 320,-112.5"/>
<text text-anchor="middle" x="343" y="-119.5" font-family="Helvetica,sans-Serif" font-size="10.00">cstring</text>
</a>
</g>
</g>
<!-- Node31&#45;&gt;Node34 -->
<g id="edge46" class="edge"><title>Node31&#45;&gt;Node34</title>
<path fill="none" stroke="midnightblue" d="M494.439,-170.27C464.678,-160.981 410.749,-144.147 375.926,-133.278"/>
<polygon fill="midnightblue" stroke="midnightblue" points="376.803,-129.885 366.214,-130.246 374.717,-136.567 376.803,-129.885"/>
</g>
<!-- Node35 -->
<g id="node35" class="node"><title>Node35</title>
<g id="a_node35"><a xlink:title=" ">
<polygon fill="white" stroke="#bfbfbf" points="384.5,-112.5 384.5,-131.5 467.5,-131.5 467.5,-112.5 384.5,-112.5"/>
<text text-anchor="middle" x="426" y="-119.5" font-family="Helvetica,sans-Serif" font-size="10.00">unordered_map</text>
</a>
</g>
</g>
<!-- Node31&#45;&gt;Node35 -->
<g id="edge49" class="edge"><title>Node31&#45;&gt;Node35</title>
<path fill="none" stroke="midnightblue" d="M501.54,-168.324C487.5,-159.9 465.952,-146.971 449.457,-137.074"/>
<polygon fill="midnightblue" stroke="midnightblue" points="450.8,-133.798 440.424,-131.655 447.198,-139.801 450.8,-133.798"/>
</g>
<!-- Node36&#45;&gt;Node30 -->
<g id="edge58" class="edge"><title>Node36&#45;&gt;Node30</title>
<path fill="none" stroke="midnightblue" d="M1136.32,-470.301C1132,-446.183 1124,-395.63 1124,-352.5 1124,-352.5 1124,-352.5 1124,-177 1124,-141.466 1102.4,-104.627 1087.88,-83.8799"/>
<polygon fill="midnightblue" stroke="midnightblue" points="1090.53,-81.5675 1081.81,-75.5423 1084.87,-85.6871 1090.53,-81.5675"/>
</g>
<!-- Node37 -->
<g id="node37" class="node"><title>Node37</title>
<g id="a_node37"><a xlink:title=" ">
<polygon fill="white" stroke="#bfbfbf" points="1152,-409 1152,-428 1198,-428 1198,-409 1152,-409"/>
<text text-anchor="middle" x="1175" y="-416" font-family="Helvetica,sans-Serif" font-size="10.00">atomic</text>
</a>
</g>
</g>
<!-- Node36&#45;&gt;Node37 -->
<g id="edge57" class="edge"><title>Node36&#45;&gt;Node37</title>
<path fill="none" stroke="midnightblue" d="M1146.81,-470.396C1152.2,-460.662 1159.41,-447.646 1165.19,-437.214"/>
<polygon fill="midnightblue" stroke="midnightblue" points="1168.4,-438.638 1170.18,-428.195 1162.28,-435.247 1168.4,-438.638"/>
</g>
</g>
</svg>
        <g id="navigator" transform="translate(0 0)" fill="#404254">
                <rect fill="#f2f5e9" fill-opacity="0.5" stroke="#606060" stroke-width=".5" x="0" y="0" width="60" height="60"/>
                <use id="zoomplus" xlink:href="#zoomPlus" x="17" y="9" onmousedown="handleZoom(evt,'in')"/>
                <use id="zoomminus" xlink:href="#zoomMin" x="42" y="9" onmousedown="handleZoom(evt,'out')"/>
                <use id="reset" xlink:href="#resetDef" x="30" y="36" onmousedown="handleReset()"/>
                <g id="arrowUp" xlink:href="#dirArrow" transform="translate(30 24)" onmousedown="handlePan(0,-1)">
                  <use xlink:href="#rim" fill="#404040">
                        <set attributeName="fill" to="#808080" begin="arrowUp.mouseover" end="arrowUp.mouseout"/>
                  </use>
                  <path fill="none" stroke="white" stroke-width="1.5" d="M0,-3.0v7 M-2.5,-0.5L0,-3.0L2.5,-0.5"/>
                </g>
                <g id="arrowRight" xlink:href="#dirArrow" transform="rotate(90) translate(36 -43)" onmousedown="handlePan(1,0)">
                  <use xlink:href="#rim" fill="#404040">
                        <set attributeName="fill" to="#808080" begin="arrowRight.mouseover" end="arrowRight.mouseout"/>
                  </use>
                  <path fill="none" stroke="white" stroke-width="1.5" d="M0,-3.0v7 M-2.5,-0.5L0,-3.0L2.5,-0.5"/>
                </g>
                <g id="arrowDown" xlink:href="#dirArrow" transform="rotate(180) translate(-30 -48)" onmousedown="handlePan(0,1)">
                  <use xlink:href="#rim" fill="#404040">
                        <set attributeName="fill" to="#808080" begin="arrowDown.mouseover" end="arrowDown.mouseout"/>
                  </use>
                  <path fill="none" stroke="white" stroke-width="1.5" d="M0,-3.0v7 M-2.5,-0.5L0,-3.0L2.5,-0.5"/>
                </g>
                <g id="arrowLeft" xlink:href="#dirArrow" transform="rotate(270) translate(-36 17)" onmousedown="handlePan(-1,0)">
                  <use xlink:href="#rim" fill="#404040">
                        <set attributeName="fill" to="#808080" begin="arrowLeft.mouseover" end="arrowLeft.mouseout"/>
                  </use>
                  <path fill="none" stroke="white" stroke-width="1.5" d="M0,-3.0v7 M-2.5,-0.5L0,-3.0L2.5,-0.5"/>
                </g>
        </g>
        <svg viewBox="0 0 15 15" width="100%" height="30px" preserveAspectRatio="xMaxYMin meet">
         <g id="arrow_out" transform="scale(0.3 0.3)">
          <a xlink:href="context_8h__incl_org.svg" target="_base">
           <rect id="button" ry="5" rx="5" y="6" x="6" height="38" width="38"
                fill="#f2f5e9" fill-opacity="0.5" stroke="#606060" stroke-width="1.0"/>
           <path id="arrow"
             d="M 11.500037,31.436501 C 11.940474,20.09759 22.043105,11.32322 32.158766,21.979434 L 37.068811,17.246167 C 37.068811,17.246167 37.088388,32 37.088388,32 L 22.160133,31.978069 C 22.160133,31.978069 26.997745,27.140456 26.997745,27.140456 C 18.528582,18.264221 13.291696,25.230495 11.500037,31.436501 z"
             style="fill:#404040;"/>
          </a>
         </g>
        </svg>
</svg>
