<?xml version="1.0" encoding="UTF-8" standalone="no"?>
<!DOCTYPE svg PUBLIC "-//W3C//DTD SVG 1.1//EN"
 "http://www.w3.org/Graphics/SVG/1.1/DTD/svg11.dtd">
<!-- Generated by graphviz version 2.38.0 (20140413.2041)
 -->
<!-- Title: C:/projects/ndt/sources/include/ndt/context.h Pages: 1 -->
<svg width="1423pt" height="576pt"
 viewBox="0.00 0.00 1422.50 576.00" xmlns="http://www.w3.org/2000/svg" xmlns:xlink="http://www.w3.org/1999/xlink">
<g id="graph0" class="graph" transform="scale(1 1) rotate(0) translate(4 572)">
<title>C:/projects/ndt/sources/include/ndt/context.h</title>
<polygon fill="white" stroke="none" points="-4,4 -4,-572 1418.5,-572 1418.5,4 -4,4"/>
<!-- Node1 -->
<g id="node1" class="node"><title>Node1</title>
<g id="a_node1"><a xlink:title=" ">
<polygon fill="#bfbfbf" stroke="black" points="792.5,-537.5 792.5,-567.5 910.5,-567.5 910.5,-537.5 792.5,-537.5"/>
<text text-anchor="start" x="800.5" y="-555.5" font-family="Helvetica,sans-Serif" font-size="10.00">C:/projects/ndt/sources</text>
<text text-anchor="middle" x="851.5" y="-544.5" font-family="Helvetica,sans-Serif" font-size="10.00">/include/ndt/context.h</text>
</a>
</g>
</g>
<!-- Node2 -->
<g id="node2" class="node"><title>Node2</title>
<g id="a_node2"><a xlink:href="executor__select_8h.html" target="_top" xlink:title=" ">
<polygon fill="white" stroke="black" points="746.5,-476 746.5,-495 840.5,-495 840.5,-476 746.5,-476"/>
<text text-anchor="middle" x="793.5" y="-483" font-family="Helvetica,sans-Serif" font-size="10.00">executor_select.h</text>
</a>
</g>
</g>
<!-- Node1&#45;&gt;Node2 -->
<g id="edge1" class="edge"><title>Node1&#45;&gt;Node2</title>
<path fill="none" stroke="midnightblue" d="M838.915,-537.396C829.871,-527.261 817.652,-513.567 808.167,-502.937"/>
<polygon fill="midnightblue" stroke="midnightblue" points="810.528,-500.326 801.258,-495.195 805.305,-504.986 810.528,-500.326"/>
</g>
<!-- Node42 -->
<g id="node42" class="node"><title>Node42</title>
<g id="a_node42"><a xlink:href="nix_2context__base_8h.html" target="_top" xlink:title=" ">
<polygon fill="white" stroke="black" points="858.5,-470.5 858.5,-500.5 960.5,-500.5 960.5,-470.5 858.5,-470.5"/>
<text text-anchor="start" x="866.5" y="-488.5" font-family="Helvetica,sans-Serif" font-size="10.00">platform/nix/context</text>
<text text-anchor="middle" x="909.5" y="-477.5" font-family="Helvetica,sans-Serif" font-size="10.00">_base.h</text>
</a>
</g>
</g>
<!-- Node1&#45;&gt;Node42 -->
<g id="edge72" class="edge"><title>Node1&#45;&gt;Node42</title>
<path fill="none" stroke="midnightblue" d="M864.085,-537.396C871.686,-528.878 881.529,-517.847 890.108,-508.233"/>
<polygon fill="midnightblue" stroke="midnightblue" points="892.893,-510.368 896.939,-500.577 887.67,-505.708 892.893,-510.368"/>
</g>
<!-- Node3 -->
<g id="node3" class="node"><title>Node3</title>
<g id="a_node3"><a xlink:href="nix_2executor__select__impl_8h.html" target="_top" xlink:title=" ">
<polygon fill="white" stroke="black" points="658,-403.5 658,-433.5 765,-433.5 765,-403.5 658,-403.5"/>
<text text-anchor="start" x="666" y="-421.5" font-family="Helvetica,sans-Serif" font-size="10.00">platform/nix/executor</text>
<text text-anchor="middle" x="711.5" y="-410.5" font-family="Helvetica,sans-Serif" font-size="10.00">_select_impl.h</text>
</a>
</g>
</g>
<!-- Node2&#45;&gt;Node3 -->
<g id="edge2" class="edge"><title>Node2&#45;&gt;Node3</title>
<path fill="none" stroke="midnightblue" d="M782.441,-475.734C770.933,-466.611 752.505,-452.004 737.315,-439.963"/>
<polygon fill="midnightblue" stroke="midnightblue" points="739.285,-437.058 729.274,-433.589 734.936,-442.544 739.285,-437.058"/>
</g>
<!-- Node4 -->
<g id="node4" class="node"><title>Node4</title>
<g id="a_node4"><a xlink:href="common_8h.html" target="_top" xlink:title="Header with typedefs to make type designation platform independent.">
<polygon fill="white" stroke="black" points="336.5,-56.5 336.5,-75.5 416.5,-75.5 416.5,-56.5 336.5,-56.5"/>
<text text-anchor="middle" x="376.5" y="-63.5" font-family="Helvetica,sans-Serif" font-size="10.00">../../common.h</text>
</a>
</g>
</g>
<!-- Node3&#45;&gt;Node4 -->
<g id="edge3" class="edge"><title>Node3&#45;&gt;Node4</title>
<path fill="none" stroke="midnightblue" d="M657.837,-416.817C516.803,-413.58 146.5,-395.163 146.5,-291 146.5,-291 146.5,-291 146.5,-177 146.5,-97.85 258.723,-75.6034 326.39,-69.3835"/>
<polygon fill="midnightblue" stroke="midnightblue" points="326.762,-72.8647 336.437,-68.5468 326.181,-65.8889 326.762,-72.8647"/>
</g>
<!-- Node14 -->
<g id="node14" class="node"><title>Node14</title>
<g id="a_node14"><a xlink:href="executor__select__base_8h.html" target="_top" xlink:title=" ">
<polygon fill="white" stroke="black" points="659.5,-336.5 659.5,-366.5 763.5,-366.5 763.5,-336.5 659.5,-336.5"/>
<text text-anchor="start" x="667.5" y="-354.5" font-family="Helvetica,sans-Serif" font-size="10.00">../../executor_select</text>
<text text-anchor="middle" x="711.5" y="-343.5" font-family="Helvetica,sans-Serif" font-size="10.00">_base.h</text>
</a>
</g>
</g>
<!-- Node3&#45;&gt;Node14 -->
<g id="edge13" class="edge"><title>Node3&#45;&gt;Node14</title>
<path fill="none" stroke="midnightblue" d="M711.5,-403.396C711.5,-395.645 711.5,-385.812 711.5,-376.86"/>
<polygon fill="midnightblue" stroke="midnightblue" points="715,-376.576 711.5,-366.577 708,-376.577 715,-376.576"/>
</g>
<!-- Node5 -->
<g id="node5" class="node"><title>Node5</title>
<g id="a_node5"><a xlink:title=" ">
<polygon fill="white" stroke="#bfbfbf" points="397.5,-0.5 397.5,-19.5 459.5,-19.5 459.5,-0.5 397.5,-0.5"/>
<text text-anchor="middle" x="428.5" y="-7.5" font-family="Helvetica,sans-Serif" font-size="10.00">arpa/inet.h</text>
</a>
</g>
</g>
<!-- Node4&#45;&gt;Node5 -->
<g id="edge4" class="edge"><title>Node4&#45;&gt;Node5</title>
<path fill="none" stroke="midnightblue" d="M385.087,-56.083C392.659,-48.2195 403.878,-36.5688 413.014,-27.0813"/>
<polygon fill="midnightblue" stroke="midnightblue" points="415.658,-29.3821 420.073,-19.7511 410.615,-24.5266 415.658,-29.3821"/>
</g>
<!-- Node6 -->
<g id="node6" class="node"><title>Node6</title>
<g id="a_node6"><a xlink:title=" ">
<polygon fill="white" stroke="#bfbfbf" points="478,-0.5 478,-19.5 525,-19.5 525,-0.5 478,-0.5"/>
<text text-anchor="middle" x="501.5" y="-7.5" font-family="Helvetica,sans-Serif" font-size="10.00">errno.h</text>
</a>
</g>
</g>
<!-- Node4&#45;&gt;Node6 -->
<g id="edge5" class="edge"><title>Node4&#45;&gt;Node6</title>
<path fill="none" stroke="midnightblue" d="M396.307,-56.4435C416.787,-47.5961 448.983,-33.6875 472.365,-23.5865"/>
<polygon fill="midnightblue" stroke="midnightblue" points="473.994,-26.6953 481.786,-19.5164 471.218,-20.2692 473.994,-26.6953"/>
</g>
<!-- Node7 -->
<g id="node7" class="node"><title>Node7</title>
<g id="a_node7"><a xlink:title=" ">
<polygon fill="white" stroke="#bfbfbf" points="543,-0.5 543,-19.5 586,-19.5 586,-0.5 543,-0.5"/>
<text text-anchor="middle" x="564.5" y="-7.5" font-family="Helvetica,sans-Serif" font-size="10.00">fcntl.h</text>
</a>
</g>
</g>
<!-- Node4&#45;&gt;Node7 -->
<g id="edge6" class="edge"><title>Node4&#45;&gt;Node7</title>
<path fill="none" stroke="midnightblue" d="M406.315,-56.4872C435.989,-48.007 483.086,-34.529 533.117,-20.1035"/>
<polygon fill="midnightblue" stroke="midnightblue" points="534.184,-23.4383 542.823,-17.3037 532.244,-16.7125 534.184,-23.4383"/>
</g>
<!-- Node8 -->
<g id="node8" class="node"><title>Node8</title>
<g id="a_node8"><a xlink:title=" ">
<polygon fill="white" stroke="#bfbfbf" points="0,-0.5 0,-19.5 49,-19.5 49,-0.5 0,-0.5"/>
<text text-anchor="middle" x="24.5" y="-7.5" font-family="Helvetica,sans-Serif" font-size="10.00">netdb.h</text>
</a>
</g>
</g>
<!-- Node4&#45;&gt;Node8 -->
<g id="edge7" class="edge"><title>Node4&#45;&gt;Node8</title>
<path fill="none" stroke="midnightblue" d="M336.437,-60.9898C277.555,-54.738 164.064,-41.3297 59.09,-20.1283"/>
<polygon fill="midnightblue" stroke="midnightblue" points="59.7843,-16.6979 49.2854,-18.1198 58.3795,-23.5555 59.7843,-16.6979"/>
</g>
<!-- Node9 -->
<g id="node9" class="node"><title>Node9</title>
<g id="a_node9"><a xlink:title=" ">
<polygon fill="white" stroke="#bfbfbf" points="67,-0.5 67,-19.5 132,-19.5 132,-0.5 67,-0.5"/>
<text text-anchor="middle" x="99.5" y="-7.5" font-family="Helvetica,sans-Serif" font-size="10.00">netinet/in.h</text>
</a>
</g>
</g>
<!-- Node4&#45;&gt;Node9 -->
<g id="edge8" class="edge"><title>Node4&#45;&gt;Node9</title>
<path fill="none" stroke="midnightblue" d="M336.346,-57.6934C291.35,-49.4282 215.975,-35.3517 142.096,-20.2883"/>
<polygon fill="midnightblue" stroke="midnightblue" points="142.655,-16.8303 132.156,-18.2538 141.251,-23.6881 142.655,-16.8303"/>
</g>
<!-- Node10 -->
<g id="node10" class="node"><title>Node10</title>
<g id="a_node10"><a xlink:title=" ">
<polygon fill="white" stroke="#bfbfbf" points="150,-0.5 150,-19.5 223,-19.5 223,-0.5 150,-0.5"/>
<text text-anchor="middle" x="186.5" y="-7.5" font-family="Helvetica,sans-Serif" font-size="10.00">sys/socket.h</text>
</a>
</g>
</g>
<!-- Node4&#45;&gt;Node10 -->
<g id="edge9" class="edge"><title>Node4&#45;&gt;Node10</title>
<path fill="none" stroke="midnightblue" d="M346.394,-56.4435C313.874,-47.2011 261.921,-32.4356 226.109,-22.2572"/>
<polygon fill="midnightblue" stroke="midnightblue" points="227.041,-18.8837 216.465,-19.5164 225.127,-25.617 227.041,-18.8837"/>
</g>
<!-- Node11 -->
<g id="node11" class="node"><title>Node11</title>
<g id="a_node11"><a xlink:title=" ">
<polygon fill="white" stroke="#bfbfbf" points="241.5,-0.5 241.5,-19.5 309.5,-19.5 309.5,-0.5 241.5,-0.5"/>
<text text-anchor="middle" x="275.5" y="-7.5" font-family="Helvetica,sans-Serif" font-size="10.00">sys/types.h</text>
</a>
</g>
</g>
<!-- Node4&#45;&gt;Node11 -->
<g id="edge10" class="edge"><title>Node4&#45;&gt;Node11</title>
<path fill="none" stroke="midnightblue" d="M360.273,-56.324C344.149,-47.7034 319.2,-34.3643 300.536,-24.3855"/>
<polygon fill="midnightblue" stroke="midnightblue" points="302.156,-21.283 291.687,-19.6545 298.856,-27.456 302.156,-21.283"/>
</g>
<!-- Node12 -->
<g id="node12" class="node"><title>Node12</title>
<g id="a_node12"><a xlink:title=" ">
<polygon fill="white" stroke="#bfbfbf" points="328,-0.5 328,-19.5 379,-19.5 379,-0.5 328,-0.5"/>
<text text-anchor="middle" x="353.5" y="-7.5" font-family="Helvetica,sans-Serif" font-size="10.00">unistd.h</text>
</a>
</g>
</g>
<!-- Node4&#45;&gt;Node12 -->
<g id="edge11" class="edge"><title>Node4&#45;&gt;Node12</title>
<path fill="none" stroke="midnightblue" d="M372.702,-56.083C369.587,-48.77 365.077,-38.1814 361.211,-29.1034"/>
<polygon fill="midnightblue" stroke="midnightblue" points="364.366,-27.5798 357.227,-19.7511 357.926,-30.3229 364.366,-27.5798"/>
</g>
<!-- Node13 -->
<g id="node13" class="node"><title>Node13</title>
<g id="a_node13"><a xlink:title=" ">
<polygon fill="white" stroke="#bfbfbf" points="604.5,-0.5 604.5,-19.5 652.5,-19.5 652.5,-0.5 604.5,-0.5"/>
<text text-anchor="middle" x="628.5" y="-7.5" font-family="Helvetica,sans-Serif" font-size="10.00">cstddef</text>
</a>
</g>
</g>
<!-- Node4&#45;&gt;Node13 -->
<g id="edge12" class="edge"><title>Node4&#45;&gt;Node13</title>
<path fill="none" stroke="midnightblue" d="M416.825,-57.368C460.691,-48.9048 532.808,-34.5208 594.5,-20 594.6,-19.9764 594.701,-19.9527 594.801,-19.9289"/>
<polygon fill="midnightblue" stroke="midnightblue" points="595.528,-23.3548 604.395,-17.5565 593.847,-16.5595 595.528,-23.3548"/>
</g>
<!-- Node14&#45;&gt;Node4 -->
<g id="edge17" class="edge"><title>Node14&#45;&gt;Node4</title>
<path fill="none" stroke="midnightblue" d="M659.043,-350.044C525.744,-347.474 184.5,-331.475 184.5,-235 184.5,-235 184.5,-235 184.5,-177 184.5,-111.586 269.443,-84.5257 326.331,-73.7378"/>
<polygon fill="midnightblue" stroke="midnightblue" points="327.022,-77.17 336.251,-71.9659 325.791,-70.2791 327.022,-77.17"/>
</g>
<!-- Node15 -->
<g id="node15" class="node"><title>Node15</title>
<g id="a_node15"><a xlink:title=" ">
<polygon fill="white" stroke="#bfbfbf" points="1376.5,-56.5 1376.5,-75.5 1414.5,-75.5 1414.5,-56.5 1376.5,-56.5"/>
<text text-anchor="middle" x="1395.5" y="-63.5" font-family="Helvetica,sans-Serif" font-size="10.00">array</text>
</a>
</g>
</g>
<!-- Node14&#45;&gt;Node15 -->
<g id="edge14" class="edge"><title>Node14&#45;&gt;Node15</title>
<path fill="none" stroke="midnightblue" d="M763.651,-350.669C902.118,-349.72 1268.5,-337.524 1268.5,-235 1268.5,-235 1268.5,-235 1268.5,-177 1268.5,-125.188 1329.64,-92.3179 1367.08,-77.0483"/>
<polygon fill="midnightblue" stroke="midnightblue" points="1368.44,-80.2726 1376.49,-73.3754 1365.9,-73.7519 1368.44,-80.2726"/>
</g>
<!-- Node16 -->
<g id="node16" class="node"><title>Node16</title>
<g id="a_node16"><a xlink:title=" ">
<polygon fill="white" stroke="#bfbfbf" points="733.5,-224.5 733.5,-243.5 791.5,-243.5 791.5,-224.5 733.5,-224.5"/>
<text text-anchor="middle" x="762.5" y="-231.5" font-family="Helvetica,sans-Serif" font-size="10.00">functional</text>
</a>
</g>
</g>
<!-- Node14&#45;&gt;Node16 -->
<g id="edge15" class="edge"><title>Node14&#45;&gt;Node16</title>
<path fill="none" stroke="midnightblue" d="M717.013,-336.341C722.66,-322.024 731.817,-299.314 740.5,-280 744.607,-270.865 749.471,-260.842 753.58,-252.578"/>
<polygon fill="midnightblue" stroke="midnightblue" points="756.755,-254.056 758.116,-243.549 750.499,-250.913 756.755,-254.056"/>
</g>
<!-- Node17 -->
<g id="node17" class="node"><title>Node17</title>
<g id="a_node17"><a xlink:title=" ">
<polygon fill="white" stroke="#bfbfbf" points="502.5,-56.5 502.5,-75.5 576.5,-75.5 576.5,-56.5 502.5,-56.5"/>
<text text-anchor="middle" x="539.5" y="-63.5" font-family="Helvetica,sans-Serif" font-size="10.00">system_error</text>
</a>
</g>
</g>
<!-- Node14&#45;&gt;Node17 -->
<g id="edge16" class="edge"><title>Node14&#45;&gt;Node17</title>
<path fill="none" stroke="midnightblue" d="M659.307,-346.169C589.293,-337.787 464.733,-313.506 386.5,-244 345.472,-207.549 346.334,-185.59 334.5,-132 332.583,-123.32 328.929,-118.927 334.5,-112 337.01,-108.88 432.777,-88.8177 492.514,-76.5579"/>
<polygon fill="midnightblue" stroke="midnightblue" points="493.401,-79.949 502.495,-74.5133 491.996,-73.0915 493.401,-79.949"/>
</g>
<!-- Node18 -->
<g id="node18" class="node"><title>Node18</title>
<g id="a_node18"><a xlink:href="event__handler__select_8h.html" target="_top" xlink:title=" ">
<polygon fill="white" stroke="black" points="749.5,-280.5 749.5,-299.5 865.5,-299.5 865.5,-280.5 749.5,-280.5"/>
<text text-anchor="middle" x="807.5" y="-287.5" font-family="Helvetica,sans-Serif" font-size="10.00">event_handler_select.h</text>
</a>
</g>
</g>
<!-- Node14&#45;&gt;Node18 -->
<g id="edge18" class="edge"><title>Node14&#45;&gt;Node18</title>
<path fill="none" stroke="midnightblue" d="M734.251,-336.399C749.495,-326.951 769.489,-314.559 784.736,-305.109"/>
<polygon fill="midnightblue" stroke="midnightblue" points="786.875,-307.901 793.531,-299.658 783.187,-301.951 786.875,-307.901"/>
</g>
<!-- Node21 -->
<g id="node21" class="node"><title>Node21</title>
<g id="a_node21"><a xlink:href="socket_8h.html" target="_top" xlink:title=" ">
<polygon fill="white" stroke="black" points="582.5,-280.5 582.5,-299.5 636.5,-299.5 636.5,-280.5 582.5,-280.5"/>
<text text-anchor="middle" x="609.5" y="-287.5" font-family="Helvetica,sans-Serif" font-size="10.00">socket.h</text>
</a>
</g>
</g>
<!-- Node14&#45;&gt;Node21 -->
<g id="edge22" class="edge"><title>Node14&#45;&gt;Node21</title>
<path fill="none" stroke="midnightblue" d="M687.327,-336.399C670.978,-326.862 649.485,-314.325 633.23,-304.842"/>
<polygon fill="midnightblue" stroke="midnightblue" points="634.743,-301.673 624.342,-299.658 631.216,-307.72 634.743,-301.673"/>
</g>
<!-- Node18&#45;&gt;Node2 -->
<g id="edge21" class="edge"><title>Node18&#45;&gt;Node2</title>
<path fill="none" stroke="midnightblue" d="M806.856,-299.907C804.714,-329.508 797.803,-425.026 794.854,-465.786"/>
<polygon fill="midnightblue" stroke="midnightblue" points="791.35,-465.709 794.12,-475.936 798.332,-466.215 791.35,-465.709"/>
</g>
<!-- Node19 -->
<g id="node19" class="node"><title>Node19</title>
<g id="a_node19"><a xlink:title=" ">
<polygon fill="white" stroke="#bfbfbf" points="756.5,-56.5 756.5,-75.5 802.5,-75.5 802.5,-56.5 756.5,-56.5"/>
<text text-anchor="middle" x="779.5" y="-63.5" font-family="Helvetica,sans-Serif" font-size="10.00">cstdint</text>
</a>
</g>
</g>
<!-- Node18&#45;&gt;Node19 -->
<g id="edge19" class="edge"><title>Node18&#45;&gt;Node19</title>
<path fill="none" stroke="midnightblue" d="M806.704,-280.478C804.83,-260.693 799.889,-210.124 794.5,-168 790.816,-139.203 785.707,-105.916 782.504,-85.6694"/>
<polygon fill="midnightblue" stroke="midnightblue" points="785.934,-84.9541 780.902,-75.6304 779.021,-86.0569 785.934,-84.9541"/>
</g>
<!-- Node20 -->
<g id="node20" class="node"><title>Node20</title>
<g id="a_node20"><a xlink:title=" ">
<polygon fill="white" stroke="#bfbfbf" points="902.5,-56.5 902.5,-75.5 964.5,-75.5 964.5,-56.5 902.5,-56.5"/>
<text text-anchor="middle" x="933.5" y="-63.5" font-family="Helvetica,sans-Serif" font-size="10.00">type_traits</text>
</a>
</g>
</g>
<!-- Node18&#45;&gt;Node20 -->
<g id="edge20" class="edge"><title>Node18&#45;&gt;Node20</title>
<path fill="none" stroke="midnightblue" d="M826.346,-280.438C856.365,-265.829 914.87,-233.221 946.5,-188 966.285,-159.714 972.246,-145.114 962.5,-112 959.488,-101.765 953.345,-91.6599 947.486,-83.627"/>
<polygon fill="midnightblue" stroke="midnightblue" points="950.086,-81.2694 941.173,-75.5413 944.568,-85.5773 950.086,-81.2694"/>
</g>
<!-- Node21&#45;&gt;Node4 -->
<g id="edge68" class="edge"><title>Node21&#45;&gt;Node4</title>
<path fill="none" stroke="midnightblue" d="M582.173,-289.541C537.708,-289.172 448.449,-283.116 386.5,-244 332.165,-209.691 301.652,-170.832 327.5,-112 332.89,-99.732 343.458,-89.3414 353.404,-81.6461"/>
<polygon fill="midnightblue" stroke="midnightblue" points="355.752,-84.2697 361.839,-75.598 351.672,-78.5811 355.752,-84.2697"/>
</g>
<!-- Node21&#45;&gt;Node16 -->
<g id="edge24" class="edge"><title>Node21&#45;&gt;Node16</title>
<path fill="none" stroke="midnightblue" d="M633.743,-280.444C659.371,-271.399 699.985,-257.064 728.738,-246.916"/>
<polygon fill="midnightblue" stroke="midnightblue" points="730.105,-250.145 738.37,-243.516 727.775,-243.544 730.105,-250.145"/>
</g>
<!-- Node22 -->
<g id="node22" class="node"><title>Node22</title>
<g id="a_node22"><a xlink:title=" ">
<polygon fill="white" stroke="#bfbfbf" points="435,-56.5 435,-75.5 484,-75.5 484,-56.5 435,-56.5"/>
<text text-anchor="middle" x="459.5" y="-63.5" font-family="Helvetica,sans-Serif" font-size="10.00">cassert</text>
</a>
</g>
</g>
<!-- Node21&#45;&gt;Node22 -->
<g id="edge23" class="edge"><title>Node21&#45;&gt;Node22</title>
<path fill="none" stroke="midnightblue" d="M582.231,-288.484C542.594,-286.52 468.168,-278.143 416.5,-244 365.03,-209.987 353.671,-190.639 334.5,-132 331.738,-123.551 329.389,-119.272 334.5,-112 339.947,-104.25 389.88,-87.9148 424.96,-77.205"/>
<polygon fill="midnightblue" stroke="midnightblue" points="426.299,-80.4568 434.858,-74.2115 424.272,-73.7565 426.299,-80.4568"/>
</g>
<!-- Node23 -->
<g id="node23" class="node"><title>Node23</title>
<g id="a_node23"><a xlink:href="address_8h.html" target="_top" xlink:title=" ">
<polygon fill="white" stroke="black" points="580,-224.5 580,-243.5 639,-243.5 639,-224.5 580,-224.5"/>
<text text-anchor="middle" x="609.5" y="-231.5" font-family="Helvetica,sans-Serif" font-size="10.00">address.h</text>
</a>
</g>
</g>
<!-- Node21&#45;&gt;Node23 -->
<g id="edge25" class="edge"><title>Node21&#45;&gt;Node23</title>
<path fill="none" stroke="midnightblue" d="M609.5,-280.083C609.5,-273.006 609.5,-262.861 609.5,-253.986"/>
<polygon fill="midnightblue" stroke="midnightblue" points="613,-253.751 609.5,-243.751 606,-253.751 613,-253.751"/>
</g>
<!-- Node29 -->
<g id="node29" class="node"><title>Node29</title>
<g id="a_node29"><a xlink:href="buffer_8h.html" target="_top" xlink:title=" ">
<polygon fill="white" stroke="black" points="589.5,-112.5 589.5,-131.5 637.5,-131.5 637.5,-112.5 589.5,-112.5"/>
<text text-anchor="middle" x="613.5" y="-119.5" font-family="Helvetica,sans-Serif" font-size="10.00">buffer.h</text>
</a>
</g>
</g>
<!-- Node21&#45;&gt;Node29 -->
<g id="edge67" class="edge"><title>Node21&#45;&gt;Node29</title>
<path fill="none" stroke="midnightblue" d="M582.401,-282.927C521.949,-268.155 384.929,-227.163 431.5,-168 471.746,-116.872 510.843,-146.043 579.486,-131.956"/>
<polygon fill="midnightblue" stroke="midnightblue" points="580.418,-135.333 589.371,-129.668 578.839,-128.513 580.418,-135.333"/>
</g>
<!-- Node32 -->
<g id="node32" class="node"><title>Node32</title>
<g id="a_node32"><a xlink:href="useful__base__types_8h.html" target="_top" xlink:title=" ">
<polygon fill="white" stroke="black" points="632.5,-56.5 632.5,-75.5 738.5,-75.5 738.5,-56.5 632.5,-56.5"/>
<text text-anchor="middle" x="685.5" y="-63.5" font-family="Helvetica,sans-Serif" font-size="10.00">useful_base_types.h</text>
</a>
</g>
</g>
<!-- Node21&#45;&gt;Node32 -->
<g id="edge70" class="edge"><title>Node21&#45;&gt;Node32</title>
<path fill="none" stroke="midnightblue" d="M617.226,-280.488C629.712,-267.111 655.558,-240.945 681.5,-224 714.143,-202.678 740.33,-220.742 761.5,-188 786.141,-149.89 736.753,-104.456 706.557,-81.6281"/>
<polygon fill="midnightblue" stroke="midnightblue" points="708.402,-78.6409 698.266,-75.5573 704.267,-84.2889 708.402,-78.6409"/>
</g>
<!-- Node33 -->
<g id="node33" class="node"><title>Node33</title>
<g id="a_node33"><a xlink:href="utils_8h.html" target="_top" xlink:title=" ">
<polygon fill="white" stroke="black" points="1071,-112.5 1071,-131.5 1114,-131.5 1114,-112.5 1071,-112.5"/>
<text text-anchor="middle" x="1092.5" y="-119.5" font-family="Helvetica,sans-Serif" font-size="10.00">utils.h</text>
</a>
</g>
</g>
<!-- Node21&#45;&gt;Node33 -->
<g id="edge71" class="edge"><title>Node21&#45;&gt;Node33</title>
<path fill="none" stroke="midnightblue" d="M623.156,-280.413C648.815,-264.425 703.529,-231.072 724.5,-224 836.294,-186.301 876.48,-227.919 987.5,-188 1020.36,-176.183 1053.92,-153.087 1073.98,-137.85"/>
<polygon fill="midnightblue" stroke="midnightblue" points="1076.2,-140.56 1081.95,-131.664 1071.9,-135.029 1076.2,-140.56"/>
</g>
<!-- Node38 -->
<g id="node38" class="node"><title>Node38</title>
<g id="a_node38"><a xlink:href="exception_8h.html" target="_top" xlink:title=" ">
<polygon fill="white" stroke="black" points="344,-112.5 344,-131.5 411,-131.5 411,-112.5 344,-112.5"/>
<text text-anchor="middle" x="377.5" y="-119.5" font-family="Helvetica,sans-Serif" font-size="10.00">exception.h</text>
</a>
</g>
</g>
<!-- Node21&#45;&gt;Node38 -->
<g id="edge69" class="edge"><title>Node21&#45;&gt;Node38</title>
<path fill="none" stroke="midnightblue" d="M582.264,-288.626C545.502,-286.75 479.752,-278.39 437.5,-244 404.721,-217.32 388.356,-168.224 381.541,-141.505"/>
<polygon fill="midnightblue" stroke="midnightblue" points="384.895,-140.479 379.185,-131.555 378.083,-142.092 384.895,-140.479"/>
</g>
<!-- Node24 -->
<g id="node24" class="node"><title>Node24</title>
<g id="a_node24"><a xlink:title=" ">
<polygon fill="white" stroke="#bfbfbf" points="441,-168.5 441,-187.5 482,-187.5 482,-168.5 441,-168.5"/>
<text text-anchor="middle" x="461.5" y="-175.5" font-family="Helvetica,sans-Serif" font-size="10.00">string</text>
</a>
</g>
</g>
<!-- Node23&#45;&gt;Node24 -->
<g id="edge26" class="edge"><title>Node23&#45;&gt;Node24</title>
<path fill="none" stroke="midnightblue" d="M586.049,-224.444C560.641,-215.173 520.005,-200.346 492.101,-190.165"/>
<polygon fill="midnightblue" stroke="midnightblue" points="493.042,-186.783 482.448,-186.643 490.643,-193.359 493.042,-186.783"/>
</g>
<!-- Node25 -->
<g id="node25" class="node"><title>Node25</title>
<g id="a_node25"><a xlink:title=" ">
<polygon fill="white" stroke="#bfbfbf" points="500.5,-168.5 500.5,-187.5 544.5,-187.5 544.5,-168.5 500.5,-168.5"/>
<text text-anchor="middle" x="522.5" y="-175.5" font-family="Helvetica,sans-Serif" font-size="10.00">variant</text>
</a>
</g>
</g>
<!-- Node23&#45;&gt;Node25 -->
<g id="edge27" class="edge"><title>Node23&#45;&gt;Node25</title>
<path fill="none" stroke="midnightblue" d="M595.522,-224.324C581.95,-215.9 561.12,-202.971 545.175,-193.074"/>
<polygon fill="midnightblue" stroke="midnightblue" points="546.786,-189.954 536.443,-187.655 543.094,-195.902 546.786,-189.954"/>
</g>
<!-- Node26 -->
<g id="node26" class="node"><title>Node26</title>
<g id="a_node26"><a xlink:href="bin__rw_8h.html" target="_top" xlink:title=" ">
<polygon fill="white" stroke="black" points="885,-168.5 885,-187.5 938,-187.5 938,-168.5 885,-168.5"/>
<text text-anchor="middle" x="911.5" y="-175.5" font-family="Helvetica,sans-Serif" font-size="10.00">bin_rw.h</text>
</a>
</g>
</g>
<!-- Node23&#45;&gt;Node26 -->
<g id="edge28" class="edge"><title>Node23&#45;&gt;Node26</title>
<path fill="none" stroke="midnightblue" d="M639.007,-227.724C694.567,-217.789 814.548,-196.336 875.048,-185.518"/>
<polygon fill="midnightblue" stroke="midnightblue" points="875.699,-188.957 884.927,-183.751 874.467,-182.066 875.699,-188.957"/>
</g>
<!-- Node23&#45;&gt;Node29 -->
<g id="edge55" class="edge"><title>Node23&#45;&gt;Node29</title>
<path fill="none" stroke="midnightblue" d="M627.889,-224.471C641.601,-216.997 659.315,-204.71 667.5,-188 677.15,-168.299 657.103,-149.436 638.759,-137.154"/>
<polygon fill="midnightblue" stroke="midnightblue" points="640.36,-134.026 630.028,-131.678 636.64,-139.957 640.36,-134.026"/>
</g>
<!-- Node23&#45;&gt;Node33 -->
<g id="edge66" class="edge"><title>Node23&#45;&gt;Node33</title>
<path fill="none" stroke="midnightblue" d="M639.138,-229.534C715.886,-220.489 917.179,-196.298 946.5,-188 991.158,-175.361 1039.79,-151.486 1068.14,-136.456"/>
<polygon fill="midnightblue" stroke="midnightblue" points="1070.13,-139.36 1077.28,-131.541 1066.81,-133.194 1070.13,-139.36"/>
</g>
<!-- Node23&#45;&gt;Node38 -->
<g id="edge56" class="edge"><title>Node23&#45;&gt;Node38</title>
<path fill="none" stroke="midnightblue" d="M579.887,-231.121C542.66,-227.564 478.01,-217.328 431.5,-188 412.565,-176.06 397.019,-155.263 387.548,-140.408"/>
<polygon fill="midnightblue" stroke="midnightblue" points="390.413,-138.383 382.227,-131.657 384.432,-142.02 390.413,-138.383"/>
</g>
<!-- Node39 -->
<g id="node39" class="node"><title>Node39</title>
<g id="a_node39"><a xlink:href="sys__socket__ops_8h.html" target="_top" xlink:title=" ">
<polygon fill="white" stroke="black" points="562.5,-168.5 562.5,-187.5 658.5,-187.5 658.5,-168.5 562.5,-168.5"/>
<text text-anchor="middle" x="610.5" y="-175.5" font-family="Helvetica,sans-Serif" font-size="10.00">sys_socket_ops.h</text>
</a>
</g>
</g>
<!-- Node23&#45;&gt;Node39 -->
<g id="edge59" class="edge"><title>Node23&#45;&gt;Node39</title>
<path fill="none" stroke="midnightblue" d="M609.665,-224.083C609.796,-217.006 609.984,-206.861 610.148,-197.986"/>
<polygon fill="midnightblue" stroke="midnightblue" points="613.652,-197.814 610.338,-187.751 606.653,-197.685 613.652,-197.814"/>
</g>
<!-- Node41 -->
<g id="node41" class="node"><title>Node41</title>
<g id="a_node41"><a xlink:href="tag_8h.html" target="_top" xlink:title=" ">
<polygon fill="white" stroke="black" points="714.5,-168.5 714.5,-187.5 752.5,-187.5 752.5,-168.5 714.5,-168.5"/>
<text text-anchor="middle" x="733.5" y="-175.5" font-family="Helvetica,sans-Serif" font-size="10.00">tag.h</text>
</a>
</g>
</g>
<!-- Node23&#45;&gt;Node41 -->
<g id="edge65" class="edge"><title>Node23&#45;&gt;Node41</title>
<path fill="none" stroke="midnightblue" d="M629.148,-224.444C649.584,-215.544 681.779,-201.524 705.006,-191.409"/>
<polygon fill="midnightblue" stroke="midnightblue" points="706.58,-194.541 714.351,-187.339 703.785,-188.123 706.58,-194.541"/>
</g>
<!-- Node26&#45;&gt;Node20 -->
<g id="edge31" class="edge"><title>Node26&#45;&gt;Node20</title>
<path fill="none" stroke="midnightblue" d="M921.056,-168.45C929.588,-160.12 941.489,-146.604 946.5,-132 951.805,-116.539 947.222,-98.2264 942.09,-84.9849"/>
<polygon fill="midnightblue" stroke="midnightblue" points="945.215,-83.3945 938.034,-75.6042 938.79,-86.1721 945.215,-83.3945"/>
</g>
<!-- Node27 -->
<g id="node27" class="node"><title>Node27</title>
<g id="a_node27"><a xlink:title=" ">
<polygon fill="white" stroke="#bfbfbf" points="810.5,-112.5 810.5,-131.5 866.5,-131.5 866.5,-112.5 810.5,-112.5"/>
<text text-anchor="middle" x="838.5" y="-119.5" font-family="Helvetica,sans-Serif" font-size="10.00">algorithm</text>
</a>
</g>
</g>
<!-- Node26&#45;&gt;Node27 -->
<g id="edge29" class="edge"><title>Node26&#45;&gt;Node27</title>
<path fill="none" stroke="midnightblue" d="M899.771,-168.324C888.663,-160.107 871.758,-147.602 858.517,-137.807"/>
<polygon fill="midnightblue" stroke="midnightblue" points="860.563,-134.967 850.442,-131.834 856.4,-140.595 860.563,-134.967"/>
</g>
<!-- Node28 -->
<g id="node28" class="node"><title>Node28</title>
<g id="a_node28"><a xlink:title=" ">
<polygon fill="white" stroke="#bfbfbf" points="982.5,-56.5 982.5,-75.5 1028.5,-75.5 1028.5,-56.5 982.5,-56.5"/>
<text text-anchor="middle" x="1005.5" y="-63.5" font-family="Helvetica,sans-Serif" font-size="10.00">cstring</text>
</a>
</g>
</g>
<!-- Node26&#45;&gt;Node28 -->
<g id="edge30" class="edge"><title>Node26&#45;&gt;Node28</title>
<path fill="none" stroke="midnightblue" d="M922.815,-168.453C933.696,-159.917 950.252,-146.074 962.5,-132 975.366,-117.216 987.438,-98.3534 995.496,-84.7602"/>
<polygon fill="midnightblue" stroke="midnightblue" points="998.628,-86.3354 1000.61,-75.9271 992.57,-82.829 998.628,-86.3354"/>
</g>
<!-- Node26&#45;&gt;Node29 -->
<g id="edge32" class="edge"><title>Node26&#45;&gt;Node29</title>
<path fill="none" stroke="midnightblue" d="M884.792,-172.16C830.615,-162.343 707.86,-140.099 647.838,-129.222"/>
<polygon fill="midnightblue" stroke="midnightblue" points="648.197,-125.731 637.734,-127.391 646.949,-132.618 648.197,-125.731"/>
</g>
<!-- Node30 -->
<g id="node30" class="node"><title>Node30</title>
<g id="a_node30"><a xlink:href="endian_8h.html" target="_top" xlink:title=" ">
<polygon fill="white" stroke="black" points="885,-112.5 885,-131.5 938,-131.5 938,-112.5 885,-112.5"/>
<text text-anchor="middle" x="911.5" y="-119.5" font-family="Helvetica,sans-Serif" font-size="10.00">endian.h</text>
</a>
</g>
</g>
<!-- Node26&#45;&gt;Node30 -->
<g id="edge39" class="edge"><title>Node26&#45;&gt;Node30</title>
<path fill="none" stroke="midnightblue" d="M911.5,-168.083C911.5,-161.006 911.5,-150.861 911.5,-141.986"/>
<polygon fill="midnightblue" stroke="midnightblue" points="915,-141.751 911.5,-131.751 908,-141.751 915,-141.751"/>
</g>
<!-- Node26&#45;&gt;Node33 -->
<g id="edge45" class="edge"><title>Node26&#45;&gt;Node33</title>
<path fill="none" stroke="midnightblue" d="M938.207,-169.032C970.965,-159.259 1026.41,-142.717 1061.15,-132.352"/>
<polygon fill="midnightblue" stroke="midnightblue" points="1062.21,-135.688 1070.8,-129.475 1060.21,-128.98 1062.21,-135.688"/>
</g>
<!-- Node29&#45;&gt;Node4 -->
<g id="edge38" class="edge"><title>Node29&#45;&gt;Node4</title>
<path fill="none" stroke="midnightblue" d="M589.385,-114.276C586.399,-113.487 583.383,-112.711 580.5,-112 528.124,-99.0893 467.746,-85.9906 426.345,-77.2804"/>
<polygon fill="midnightblue" stroke="midnightblue" points="427.012,-73.8442 416.506,-75.218 425.575,-80.6953 427.012,-73.8442"/>
</g>
<!-- Node29&#45;&gt;Node13 -->
<g id="edge34" class="edge"><title>Node29&#45;&gt;Node13</title>
<path fill="none" stroke="midnightblue" d="M614.677,-112.368C617.098,-94.617 622.682,-53.6664 625.964,-29.5974"/>
<polygon fill="midnightblue" stroke="midnightblue" points="629.445,-29.9726 627.328,-19.5914 622.509,-29.0268 629.445,-29.9726"/>
</g>
<!-- Node29&#45;&gt;Node17 -->
<g id="edge36" class="edge"><title>Node29&#45;&gt;Node17</title>
<path fill="none" stroke="midnightblue" d="M601.611,-112.324C590.35,-104.107 573.213,-91.6017 559.791,-81.8069"/>
<polygon fill="midnightblue" stroke="midnightblue" points="561.747,-78.9014 551.606,-75.8339 557.62,-84.5559 561.747,-78.9014"/>
</g>
<!-- Node29&#45;&gt;Node19 -->
<g id="edge35" class="edge"><title>Node29&#45;&gt;Node19</title>
<path fill="none" stroke="midnightblue" d="M637.638,-113.148C666.361,-103.804 714.462,-88.1569 746.581,-77.7085"/>
<polygon fill="midnightblue" stroke="midnightblue" points="747.977,-80.9352 756.403,-74.5133 745.811,-74.2785 747.977,-80.9352"/>
</g>
<!-- Node29&#45;&gt;Node20 -->
<g id="edge37" class="edge"><title>Node29&#45;&gt;Node20</title>
<path fill="none" stroke="midnightblue" d="M637.559,-117.646C684.547,-110.987 792.002,-95.2233 892.121,-76.1729"/>
<polygon fill="midnightblue" stroke="midnightblue" points="892.934,-79.5807 902.096,-74.2591 891.615,-72.7061 892.934,-79.5807"/>
</g>
<!-- Node29&#45;&gt;Node22 -->
<g id="edge33" class="edge"><title>Node29&#45;&gt;Node22</title>
<path fill="none" stroke="midnightblue" d="M589.438,-112.563C563.709,-103.541 522.697,-89.1599 493.637,-78.9702"/>
<polygon fill="midnightblue" stroke="midnightblue" points="494.497,-75.5627 483.902,-75.5565 492.18,-82.1683 494.497,-75.5627"/>
</g>
<!-- Node30&#45;&gt;Node19 -->
<g id="edge40" class="edge"><title>Node30&#45;&gt;Node19</title>
<path fill="none" stroke="midnightblue" d="M890.584,-112.444C868.764,-103.517 834.35,-89.4387 809.608,-79.3168"/>
<polygon fill="midnightblue" stroke="midnightblue" points="810.899,-76.0634 800.318,-75.5164 808.248,-82.5422 810.899,-76.0634"/>
</g>
<!-- Node30&#45;&gt;Node20 -->
<g id="edge43" class="edge"><title>Node30&#45;&gt;Node20</title>
<path fill="none" stroke="midnightblue" d="M915.133,-112.083C918.112,-104.77 922.426,-94.1814 926.125,-85.1034"/>
<polygon fill="midnightblue" stroke="midnightblue" points="929.403,-86.3326 929.935,-75.7511 922.92,-83.6914 929.403,-86.3326"/>
</g>
<!-- Node30&#45;&gt;Node28 -->
<g id="edge41" class="edge"><title>Node30&#45;&gt;Node28</title>
<path fill="none" stroke="midnightblue" d="M926.603,-112.324C941.403,-103.822 964.194,-90.7288 981.482,-80.7975"/>
<polygon fill="midnightblue" stroke="midnightblue" points="983.507,-83.6707 990.435,-75.6545 980.02,-77.6009 983.507,-83.6707"/>
</g>
<!-- Node31 -->
<g id="node31" class="node"><title>Node31</title>
<g id="a_node31"><a xlink:title=" ">
<polygon fill="white" stroke="#bfbfbf" points="820.5,-56.5 820.5,-75.5 884.5,-75.5 884.5,-56.5 820.5,-56.5"/>
<text text-anchor="middle" x="852.5" y="-63.5" font-family="Helvetica,sans-Serif" font-size="10.00">string_view</text>
</a>
</g>
</g>
<!-- Node30&#45;&gt;Node31 -->
<g id="edge42" class="edge"><title>Node30&#45;&gt;Node31</title>
<path fill="none" stroke="midnightblue" d="M902.021,-112.324C893.299,-104.341 880.157,-92.3128 869.602,-82.6529"/>
<polygon fill="midnightblue" stroke="midnightblue" points="871.892,-80.0036 862.152,-75.8339 867.166,-85.1674 871.892,-80.0036"/>
</g>
<!-- Node30&#45;&gt;Node32 -->
<g id="edge44" class="edge"><title>Node30&#45;&gt;Node32</title>
<path fill="none" stroke="midnightblue" d="M884.773,-114.279C881.648,-113.505 878.505,-112.731 875.5,-112 826.67,-100.114 770.676,-86.9033 732.192,-77.8881"/>
<polygon fill="midnightblue" stroke="midnightblue" points="732.846,-74.4467 722.312,-75.5757 731.251,-81.2625 732.846,-74.4467"/>
</g>
<!-- Node33&#45;&gt;Node4 -->
<g id="edge54" class="edge"><title>Node33&#45;&gt;Node4</title>
<path fill="none" stroke="midnightblue" d="M1070.76,-119.603C965.303,-112.821 509.097,-83.3802 426.604,-75.7835"/>
<polygon fill="midnightblue" stroke="midnightblue" points="426.861,-72.2915 416.554,-74.742 426.139,-79.2542 426.861,-72.2915"/>
</g>
<!-- Node33&#45;&gt;Node15 -->
<g id="edge48" class="edge"><title>Node33&#45;&gt;Node15</title>
<path fill="none" stroke="midnightblue" d="M1114.11,-118.575C1159.29,-113.27 1267.13,-99.3867 1366.44,-75.9507"/>
<polygon fill="midnightblue" stroke="midnightblue" points="1367.42,-79.3144 1376.33,-73.5776 1365.79,-72.5076 1367.42,-79.3144"/>
</g>
<!-- Node33&#45;&gt;Node17 -->
<g id="edge51" class="edge"><title>Node33&#45;&gt;Node17</title>
<path fill="none" stroke="midnightblue" d="M1070.99,-119.021C1004.44,-112.883 796.024,-93.5185 623.5,-76 611.65,-74.7967 598.865,-73.4511 586.931,-72.1747"/>
<polygon fill="midnightblue" stroke="midnightblue" points="587.024,-68.6646 576.707,-71.076 586.276,-75.6245 587.024,-68.6646"/>
</g>
<!-- Node33&#45;&gt;Node20 -->
<g id="edge52" class="edge"><title>Node33&#45;&gt;Node20</title>
<path fill="none" stroke="midnightblue" d="M1070.73,-113.605C1044.32,-104.639 999.498,-89.4144 968.291,-78.8157"/>
<polygon fill="midnightblue" stroke="midnightblue" points="969.272,-75.4527 958.678,-75.5509 967.021,-82.0808 969.272,-75.4527"/>
</g>
<!-- Node33&#45;&gt;Node28 -->
<g id="edge50" class="edge"><title>Node33&#45;&gt;Node28</title>
<path fill="none" stroke="midnightblue" d="M1078.52,-112.324C1064.95,-103.9 1044.12,-90.9709 1028.18,-81.0741"/>
<polygon fill="midnightblue" stroke="midnightblue" points="1029.79,-77.9544 1019.44,-75.6545 1026.09,-83.9019 1029.79,-77.9544"/>
</g>
<!-- Node34 -->
<g id="node34" class="node"><title>Node34</title>
<g id="a_node34"><a xlink:title=" ">
<polygon fill="white" stroke="#bfbfbf" points="1212.5,-56.5 1212.5,-75.5 1272.5,-75.5 1272.5,-56.5 1212.5,-56.5"/>
<text text-anchor="middle" x="1242.5" y="-63.5" font-family="Helvetica,sans-Serif" font-size="10.00">fmt/core.h</text>
</a>
</g>
</g>
<!-- Node33&#45;&gt;Node34 -->
<g id="edge46" class="edge"><title>Node33&#45;&gt;Node34</title>
<path fill="none" stroke="midnightblue" d="M1114.31,-113.148C1139.17,-104.199 1180.09,-89.4683 1209,-79.0602"/>
<polygon fill="midnightblue" stroke="midnightblue" points="1210.46,-82.2559 1218.68,-75.5756 1208.08,-75.6697 1210.46,-82.2559"/>
</g>
<!-- Node35 -->
<g id="node35" class="node"><title>Node35</title>
<g id="a_node35"><a xlink:title=" ">
<polygon fill="white" stroke="#bfbfbf" points="1290.5,-56.5 1290.5,-75.5 1358.5,-75.5 1358.5,-56.5 1290.5,-56.5"/>
<text text-anchor="middle" x="1324.5" y="-63.5" font-family="Helvetica,sans-Serif" font-size="10.00">fmt/format.h</text>
</a>
</g>
</g>
<!-- Node33&#45;&gt;Node35 -->
<g id="edge47" class="edge"><title>Node33&#45;&gt;Node35</title>
<path fill="none" stroke="midnightblue" d="M1114.33,-115.92C1152.21,-107.102 1230.83,-88.802 1280.44,-77.2546"/>
<polygon fill="midnightblue" stroke="midnightblue" points="1281.31,-80.6454 1290.26,-74.9695 1279.73,-73.8277 1281.31,-80.6454"/>
</g>
<!-- Node36 -->
<g id="node36" class="node"><title>Node36</title>
<g id="a_node36"><a xlink:title=" ">
<polygon fill="white" stroke="#bfbfbf" points="1046.5,-56.5 1046.5,-75.5 1092.5,-75.5 1092.5,-56.5 1046.5,-56.5"/>
<text text-anchor="middle" x="1069.5" y="-63.5" font-family="Helvetica,sans-Serif" font-size="10.00">chrono</text>
</a>
</g>
</g>
<!-- Node33&#45;&gt;Node36 -->
<g id="edge49" class="edge"><title>Node33&#45;&gt;Node36</title>
<path fill="none" stroke="midnightblue" d="M1088.7,-112.083C1085.59,-104.77 1081.08,-94.1814 1077.21,-85.1034"/>
<polygon fill="midnightblue" stroke="midnightblue" points="1080.37,-83.5798 1073.23,-75.7511 1073.93,-86.3229 1080.37,-83.5798"/>
</g>
<!-- Node37 -->
<g id="node37" class="node"><title>Node37</title>
<g id="a_node37"><a xlink:title=" ">
<polygon fill="white" stroke="#bfbfbf" points="1111,-56.5 1111,-75.5 1194,-75.5 1194,-56.5 1111,-56.5"/>
<text text-anchor="middle" x="1152.5" y="-63.5" font-family="Helvetica,sans-Serif" font-size="10.00">unordered_map</text>
</a>
</g>
</g>
<!-- Node33&#45;&gt;Node37 -->
<g id="edge53" class="edge"><title>Node33&#45;&gt;Node37</title>
<path fill="none" stroke="midnightblue" d="M1102.14,-112.324C1111.01,-104.341 1124.37,-92.3128 1135.11,-82.6529"/>
<polygon fill="midnightblue" stroke="midnightblue" points="1137.59,-85.1251 1142.68,-75.8339 1132.91,-79.922 1137.59,-85.1251"/>
</g>
<!-- Node38&#45;&gt;Node4 -->
<g id="edge58" class="edge"><title>Node38&#45;&gt;Node4</title>
<path fill="none" stroke="midnightblue" d="M377.335,-112.083C377.204,-105.006 377.016,-94.8611 376.852,-85.9865"/>
<polygon fill="midnightblue" stroke="midnightblue" points="380.347,-85.6845 376.662,-75.7511 373.348,-85.8142 380.347,-85.6845"/>
</g>
<!-- Node38&#45;&gt;Node17 -->
<g id="edge57" class="edge"><title>Node38&#45;&gt;Node17</title>
<path fill="none" stroke="midnightblue" d="M403.169,-112.444C430.423,-103.359 473.684,-88.9388 504.151,-78.7831"/>
<polygon fill="midnightblue" stroke="midnightblue" points="505.571,-81.9992 513.951,-75.5164 503.357,-75.3584 505.571,-81.9992"/>
</g>
<!-- Node39&#45;&gt;Node4 -->
<g id="edge60" class="edge"><title>Node39&#45;&gt;Node4</title>
<path fill="none" stroke="midnightblue" d="M574.279,-168.498C545.327,-160.968 504.162,-148.594 470.5,-132 442.36,-118.128 413.119,-96.5938 394.874,-82.1554"/>
<polygon fill="midnightblue" stroke="midnightblue" points="396.839,-79.244 386.854,-75.7021 392.451,-84.6978 396.839,-79.244"/>
</g>
<!-- Node39&#45;&gt;Node32 -->
<g id="edge64" class="edge"><title>Node39&#45;&gt;Node32</title>
<path fill="none" stroke="midnightblue" d="M618.035,-168.306C625.584,-159.435 637.361,-145.143 646.5,-132 657.276,-116.502 668.22,-97.9649 675.761,-84.66"/>
<polygon fill="midnightblue" stroke="midnightblue" points="678.978,-86.0786 680.805,-75.6425 672.868,-82.6614 678.978,-86.0786"/>
</g>
<!-- Node40 -->
<g id="node40" class="node"><title>Node40</title>
<g id="a_node40"><a xlink:href="sys__error__code_8h.html" target="_top" xlink:title=" ">
<polygon fill="white" stroke="black" points="479.5,-112.5 479.5,-131.5 571.5,-131.5 571.5,-112.5 479.5,-112.5"/>
<text text-anchor="middle" x="525.5" y="-119.5" font-family="Helvetica,sans-Serif" font-size="10.00">sys_error_code.h</text>
</a>
</g>
</g>
<!-- Node39&#45;&gt;Node40 -->
<g id="edge61" class="edge"><title>Node39&#45;&gt;Node40</title>
<path fill="none" stroke="midnightblue" d="M596.843,-168.324C583.584,-159.9 563.232,-146.971 547.654,-137.074"/>
<polygon fill="midnightblue" stroke="midnightblue" points="549.44,-134.063 539.123,-131.655 545.687,-139.971 549.44,-134.063"/>
</g>
<!-- Node40&#45;&gt;Node4 -->
<g id="edge62" class="edge"><title>Node40&#45;&gt;Node4</title>
<path fill="none" stroke="midnightblue" d="M501.891,-112.444C477.042,-103.438 437.726,-89.1891 409.746,-79.049"/>
<polygon fill="midnightblue" stroke="midnightblue" points="410.593,-75.6332 399.999,-75.5164 408.208,-82.2144 410.593,-75.6332"/>
</g>
<!-- Node40&#45;&gt;Node32 -->
<g id="edge63" class="edge"><title>Node40&#45;&gt;Node32</title>
<path fill="none" stroke="midnightblue" d="M550.852,-112.444C577.769,-103.359 620.496,-88.9388 650.587,-78.7831"/>
<polygon fill="midnightblue" stroke="midnightblue" points="651.91,-82.0305 660.266,-75.5164 649.672,-75.3981 651.91,-82.0305"/>
</g>
<!-- Node42&#45;&gt;Node32 -->
<g id="edge74" class="edge"><title>Node42&#45;&gt;Node32</title>
<path fill="none" stroke="midnightblue" d="M906.997,-470.293C902.97,-446.164 895.5,-395.595 895.5,-352.5 895.5,-352.5 895.5,-352.5 895.5,-289 895.5,-184.433 771.019,-109.287 713.736,-80.2424"/>
<polygon fill="midnightblue" stroke="midnightblue" points="715.021,-76.9727 704.506,-75.6678 711.912,-83.2446 715.021,-76.9727"/>
</g>
<!-- Node43 -->
<g id="node43" class="node"><title>Node43</title>
<g id="a_node43"><a xlink:title=" ">
<polygon fill="white" stroke="#bfbfbf" points="923.5,-409 923.5,-428 969.5,-428 969.5,-409 923.5,-409"/>
<text text-anchor="middle" x="946.5" y="-416" font-family="Helvetica,sans-Serif" font-size="10.00">atomic</text>
</a>
</g>
</g>
<!-- Node42&#45;&gt;Node43 -->
<g id="edge73" class="edge"><title>Node42&#45;&gt;Node43</title>
<path fill="none" stroke="midnightblue" d="M917.528,-470.396C923.126,-460.562 930.631,-447.378 936.6,-436.892"/>
<polygon fill="midnightblue" stroke="midnightblue" points="939.646,-438.617 941.551,-428.195 933.562,-435.154 939.646,-438.617"/>
</g>
</g>
</svg>
