<?xml version="1.0" encoding="UTF-8" standalone="no"?>
<!DOCTYPE svg PUBLIC "-//W3C//DTD SVG 1.1//EN"
 "http://www.w3.org/Graphics/SVG/1.1/DTD/svg11.dtd">
<!-- Generated by graphviz version 2.38.0 (20140413.2041)
 -->
<!-- Title: C:/projects/ndt/sources/include/ndt/context.h Pages: 1 -->
<svg width="1487pt" height="576pt"
 viewBox="0.00 0.00 1486.50 576.00" xmlns="http://www.w3.org/2000/svg" xmlns:xlink="http://www.w3.org/1999/xlink">
<g id="graph0" class="graph" transform="scale(1 1) rotate(0) translate(4 572)">
<title>C:/projects/ndt/sources/include/ndt/context.h</title>
<polygon fill="white" stroke="none" points="-4,4 -4,-572 1482.5,-572 1482.5,4 -4,4"/>
<!-- Node1 -->
<g id="node1" class="node"><title>Node1</title>
<g id="a_node1"><a xlink:title=" ">
<polygon fill="#bfbfbf" stroke="black" points="356.5,-537.5 356.5,-567.5 474.5,-567.5 474.5,-537.5 356.5,-537.5"/>
<text text-anchor="start" x="364.5" y="-555.5" font-family="Helvetica,sans-Serif" font-size="10.00">C:/projects/ndt/sources</text>
<text text-anchor="middle" x="415.5" y="-544.5" font-family="Helvetica,sans-Serif" font-size="10.00">/include/ndt/context.h</text>
</a>
</g>
</g>
<!-- Node2 -->
<g id="node2" class="node"><title>Node2</title>
<g id="a_node2"><a xlink:href="executor__select_8h.html" target="_top" xlink:title=" ">
<polygon fill="white" stroke="black" points="498.5,-476 498.5,-495 592.5,-495 592.5,-476 498.5,-476"/>
<text text-anchor="middle" x="545.5" y="-483" font-family="Helvetica,sans-Serif" font-size="10.00">executor_select.h</text>
</a>
</g>
</g>
<!-- Node1&#45;&gt;Node2 -->
<g id="edge1" class="edge"><title>Node1&#45;&gt;Node2</title>
<path fill="none" stroke="midnightblue" d="M443.708,-537.396C466.215,-526.142 497.498,-510.501 519.425,-499.538"/>
<polygon fill="midnightblue" stroke="midnightblue" points="521.107,-502.61 528.486,-495.007 517.976,-496.349 521.107,-502.61"/>
</g>
<!-- Node44 -->
<g id="node44" class="node"><title>Node44</title>
<g id="a_node44"><a xlink:href="nix_2context__base_8h.html" target="_top" xlink:title=" ">
<polygon fill="white" stroke="black" points="234.5,-470.5 234.5,-500.5 336.5,-500.5 336.5,-470.5 234.5,-470.5"/>
<text text-anchor="start" x="242.5" y="-488.5" font-family="Helvetica,sans-Serif" font-size="10.00">platform/nix/context</text>
<text text-anchor="middle" x="285.5" y="-477.5" font-family="Helvetica,sans-Serif" font-size="10.00">_base.h</text>
</a>
</g>
</g>
<!-- Node1&#45;&gt;Node44 -->
<g id="edge73" class="edge"><title>Node1&#45;&gt;Node44</title>
<path fill="none" stroke="midnightblue" d="M387.292,-537.396C368.383,-527.941 343.279,-515.39 322.734,-505.117"/>
<polygon fill="midnightblue" stroke="midnightblue" points="324.163,-501.918 313.653,-500.577 321.032,-508.179 324.163,-501.918"/>
</g>
<!-- Node3 -->
<g id="node3" class="node"><title>Node3</title>
<g id="a_node3"><a xlink:href="nix_2executor__select__impl_8h.html" target="_top" xlink:title=" ">
<polygon fill="white" stroke="black" points="492,-403.5 492,-433.5 599,-433.5 599,-403.5 492,-403.5"/>
<text text-anchor="start" x="500" y="-421.5" font-family="Helvetica,sans-Serif" font-size="10.00">platform/nix/executor</text>
<text text-anchor="middle" x="545.5" y="-410.5" font-family="Helvetica,sans-Serif" font-size="10.00">_select_impl.h</text>
</a>
</g>
</g>
<!-- Node2&#45;&gt;Node3 -->
<g id="edge2" class="edge"><title>Node2&#45;&gt;Node3</title>
<path fill="none" stroke="midnightblue" d="M545.5,-475.734C545.5,-467.541 545.5,-454.923 545.5,-443.714"/>
<polygon fill="midnightblue" stroke="midnightblue" points="549,-443.589 545.5,-433.589 542,-443.589 549,-443.589"/>
</g>
<!-- Node4 -->
<g id="node4" class="node"><title>Node4</title>
<g id="a_node4"><a xlink:href="common_8h.html" target="_top" xlink:title="Header with typedefs to make type designation platform independent.">
<polygon fill="white" stroke="black" points="350.5,-56.5 350.5,-75.5 430.5,-75.5 430.5,-56.5 350.5,-56.5"/>
<text text-anchor="middle" x="390.5" y="-63.5" font-family="Helvetica,sans-Serif" font-size="10.00">../../common.h</text>
</a>
</g>
</g>
<!-- Node3&#45;&gt;Node4 -->
<g id="edge3" class="edge"><title>Node3&#45;&gt;Node4</title>
<path fill="none" stroke="midnightblue" d="M537.007,-403.488C512.779,-362.931 442.624,-241.359 404.5,-132 399.21,-116.825 395.533,-98.9317 393.279,-85.7645"/>
<polygon fill="midnightblue" stroke="midnightblue" points="396.69,-84.9224 391.661,-75.5971 389.777,-86.0231 396.69,-84.9224"/>
</g>
<!-- Node14 -->
<g id="node14" class="node"><title>Node14</title>
<g id="a_node14"><a xlink:href="executor__select__base_8h.html" target="_top" xlink:title=" ">
<polygon fill="white" stroke="black" points="725.5,-336.5 725.5,-366.5 829.5,-366.5 829.5,-336.5 725.5,-336.5"/>
<text text-anchor="start" x="733.5" y="-354.5" font-family="Helvetica,sans-Serif" font-size="10.00">../../executor_select</text>
<text text-anchor="middle" x="777.5" y="-343.5" font-family="Helvetica,sans-Serif" font-size="10.00">_base.h</text>
</a>
</g>
</g>
<!-- Node3&#45;&gt;Node14 -->
<g id="edge13" class="edge"><title>Node3&#45;&gt;Node14</title>
<path fill="none" stroke="midnightblue" d="M595.555,-403.476C631.26,-393.472 679.448,-379.971 717.262,-369.377"/>
<polygon fill="midnightblue" stroke="midnightblue" points="718.45,-372.679 727.135,-366.611 716.561,-365.939 718.45,-372.679"/>
</g>
<!-- Node5 -->
<g id="node5" class="node"><title>Node5</title>
<g id="a_node5"><a xlink:title=" ">
<polygon fill="white" stroke="#bfbfbf" points="397.5,-0.5 397.5,-19.5 459.5,-19.5 459.5,-0.5 397.5,-0.5"/>
<text text-anchor="middle" x="428.5" y="-7.5" font-family="Helvetica,sans-Serif" font-size="10.00">arpa/inet.h</text>
</a>
</g>
</g>
<!-- Node4&#45;&gt;Node5 -->
<g id="edge4" class="edge"><title>Node4&#45;&gt;Node5</title>
<path fill="none" stroke="midnightblue" d="M396.775,-56.083C402.142,-48.4554 410.018,-37.2645 416.579,-27.9408"/>
<polygon fill="midnightblue" stroke="midnightblue" points="419.449,-29.9434 422.342,-19.7511 413.725,-25.9149 419.449,-29.9434"/>
</g>
<!-- Node6 -->
<g id="node6" class="node"><title>Node6</title>
<g id="a_node6"><a xlink:title=" ">
<polygon fill="white" stroke="#bfbfbf" points="478,-0.5 478,-19.5 525,-19.5 525,-0.5 478,-0.5"/>
<text text-anchor="middle" x="501.5" y="-7.5" font-family="Helvetica,sans-Serif" font-size="10.00">errno.h</text>
</a>
</g>
</g>
<!-- Node4&#45;&gt;Node6 -->
<g id="edge5" class="edge"><title>Node4&#45;&gt;Node6</title>
<path fill="none" stroke="midnightblue" d="M408.334,-56.324C426.216,-47.6247 453.975,-34.1202 474.546,-24.113"/>
<polygon fill="midnightblue" stroke="midnightblue" points="476.249,-27.1765 483.71,-19.6545 473.187,-20.8819 476.249,-27.1765"/>
</g>
<!-- Node7 -->
<g id="node7" class="node"><title>Node7</title>
<g id="a_node7"><a xlink:title=" ">
<polygon fill="white" stroke="#bfbfbf" points="543,-0.5 543,-19.5 586,-19.5 586,-0.5 543,-0.5"/>
<text text-anchor="middle" x="564.5" y="-7.5" font-family="Helvetica,sans-Serif" font-size="10.00">fcntl.h</text>
</a>
</g>
</g>
<!-- Node4&#45;&gt;Node7 -->
<g id="edge6" class="edge"><title>Node4&#45;&gt;Node7</title>
<path fill="none" stroke="midnightblue" d="M418.071,-56.4435C449.286,-46.7561 500.053,-31.0008 532.858,-20.8199"/>
<polygon fill="midnightblue" stroke="midnightblue" points="534.317,-24.0319 542.83,-17.7251 532.242,-17.3464 534.317,-24.0319"/>
</g>
<!-- Node8 -->
<g id="node8" class="node"><title>Node8</title>
<g id="a_node8"><a xlink:title=" ">
<polygon fill="white" stroke="#bfbfbf" points="0,-0.5 0,-19.5 49,-19.5 49,-0.5 0,-0.5"/>
<text text-anchor="middle" x="24.5" y="-7.5" font-family="Helvetica,sans-Serif" font-size="10.00">netdb.h</text>
</a>
</g>
</g>
<!-- Node4&#45;&gt;Node8 -->
<g id="edge7" class="edge"><title>Node4&#45;&gt;Node8</title>
<path fill="none" stroke="midnightblue" d="M350.49,-61.316C289.515,-55.3269 169.562,-42.0752 59.2426,-20.1449"/>
<polygon fill="midnightblue" stroke="midnightblue" points="59.7768,-16.6823 49.2822,-18.1355 58.3925,-23.544 59.7768,-16.6823"/>
</g>
<!-- Node9 -->
<g id="node9" class="node"><title>Node9</title>
<g id="a_node9"><a xlink:title=" ">
<polygon fill="white" stroke="#bfbfbf" points="67,-0.5 67,-19.5 132,-19.5 132,-0.5 67,-0.5"/>
<text text-anchor="middle" x="99.5" y="-7.5" font-family="Helvetica,sans-Serif" font-size="10.00">netinet/in.h</text>
</a>
</g>
</g>
<!-- Node4&#45;&gt;Node9 -->
<g id="edge8" class="edge"><title>Node4&#45;&gt;Node9</title>
<path fill="none" stroke="midnightblue" d="M350.143,-58.2213C302.677,-50.1414 221.262,-35.9488 142.27,-20.2998"/>
<polygon fill="midnightblue" stroke="midnightblue" points="142.641,-16.8052 132.15,-18.2843 141.274,-23.6703 142.641,-16.8052"/>
</g>
<!-- Node10 -->
<g id="node10" class="node"><title>Node10</title>
<g id="a_node10"><a xlink:title=" ">
<polygon fill="white" stroke="#bfbfbf" points="150,-0.5 150,-19.5 223,-19.5 223,-0.5 150,-0.5"/>
<text text-anchor="middle" x="186.5" y="-7.5" font-family="Helvetica,sans-Serif" font-size="10.00">sys/socket.h</text>
</a>
</g>
</g>
<!-- Node4&#45;&gt;Node10 -->
<g id="edge9" class="edge"><title>Node4&#45;&gt;Node10</title>
<path fill="none" stroke="midnightblue" d="M358.176,-56.4435C323.111,-47.1616 267.002,-32.3093 228.535,-22.127"/>
<polygon fill="midnightblue" stroke="midnightblue" points="229.236,-18.692 218.673,-19.5164 227.445,-25.4589 229.236,-18.692"/>
</g>
<!-- Node11 -->
<g id="node11" class="node"><title>Node11</title>
<g id="a_node11"><a xlink:title=" ">
<polygon fill="white" stroke="#bfbfbf" points="241.5,-0.5 241.5,-19.5 309.5,-19.5 309.5,-0.5 241.5,-0.5"/>
<text text-anchor="middle" x="275.5" y="-7.5" font-family="Helvetica,sans-Serif" font-size="10.00">sys/types.h</text>
</a>
</g>
</g>
<!-- Node4&#45;&gt;Node11 -->
<g id="edge10" class="edge"><title>Node4&#45;&gt;Node11</title>
<path fill="none" stroke="midnightblue" d="M372.278,-56.4435C353.604,-47.6751 324.344,-33.9355 302.883,-23.8579"/>
<polygon fill="midnightblue" stroke="midnightblue" points="304.176,-20.5988 293.637,-19.5164 301.201,-26.935 304.176,-20.5988"/>
</g>
<!-- Node12 -->
<g id="node12" class="node"><title>Node12</title>
<g id="a_node12"><a xlink:title=" ">
<polygon fill="white" stroke="#bfbfbf" points="328,-0.5 328,-19.5 379,-19.5 379,-0.5 328,-0.5"/>
<text text-anchor="middle" x="353.5" y="-7.5" font-family="Helvetica,sans-Serif" font-size="10.00">unistd.h</text>
</a>
</g>
</g>
<!-- Node4&#45;&gt;Node12 -->
<g id="edge11" class="edge"><title>Node4&#45;&gt;Node12</title>
<path fill="none" stroke="midnightblue" d="M384.39,-56.083C379.218,-48.5341 371.654,-37.4948 365.306,-28.2298"/>
<polygon fill="midnightblue" stroke="midnightblue" points="368.036,-26.0221 359.496,-19.7511 362.261,-29.9787 368.036,-26.0221"/>
</g>
<!-- Node13 -->
<g id="node13" class="node"><title>Node13</title>
<g id="a_node13"><a xlink:title=" ">
<polygon fill="white" stroke="#bfbfbf" points="604.5,-0.5 604.5,-19.5 652.5,-19.5 652.5,-0.5 604.5,-0.5"/>
<text text-anchor="middle" x="628.5" y="-7.5" font-family="Helvetica,sans-Serif" font-size="10.00">cstddef</text>
</a>
</g>
</g>
<!-- Node4&#45;&gt;Node13 -->
<g id="edge12" class="edge"><title>Node4&#45;&gt;Node13</title>
<path fill="none" stroke="midnightblue" d="M430.87,-56.6133C472.107,-47.9248 537.93,-33.7203 594.5,-20 594.6,-19.9757 594.7,-19.9514 594.801,-19.9269"/>
<polygon fill="midnightblue" stroke="midnightblue" points="595.542,-23.3497 604.386,-17.5159 593.834,-16.5612 595.542,-23.3497"/>
</g>
<!-- Node14&#45;&gt;Node4 -->
<g id="edge17" class="edge"><title>Node14&#45;&gt;Node4</title>
<path fill="none" stroke="midnightblue" d="M725.369,-342.377C686.249,-334.926 632.148,-321.684 588.5,-300 493.367,-252.74 473.281,-223.01 418.5,-132 409.5,-117.048 401.868,-98.6791 396.856,-85.2873"/>
<polygon fill="midnightblue" stroke="midnightblue" points="400.11,-83.9923 393.422,-75.7746 393.525,-86.369 400.11,-83.9923"/>
</g>
<!-- Node15 -->
<g id="node15" class="node"><title>Node15</title>
<g id="a_node15"><a xlink:title=" ">
<polygon fill="white" stroke="#bfbfbf" points="1440.5,-56.5 1440.5,-75.5 1478.5,-75.5 1478.5,-56.5 1440.5,-56.5"/>
<text text-anchor="middle" x="1459.5" y="-63.5" font-family="Helvetica,sans-Serif" font-size="10.00">array</text>
</a>
</g>
</g>
<!-- Node14&#45;&gt;Node15 -->
<g id="edge14" class="edge"><title>Node14&#45;&gt;Node15</title>
<path fill="none" stroke="midnightblue" d="M829.858,-350.024C962.903,-347.406 1303.5,-331.3 1303.5,-235 1303.5,-235 1303.5,-235 1303.5,-177 1303.5,-146.049 1386.56,-101.701 1431.46,-79.9846"/>
<polygon fill="midnightblue" stroke="midnightblue" points="1433.17,-83.0499 1440.68,-75.5842 1430.15,-76.7324 1433.17,-83.0499"/>
</g>
<!-- Node16 -->
<g id="node16" class="node"><title>Node16</title>
<g id="a_node16"><a xlink:title=" ">
<polygon fill="white" stroke="#bfbfbf" points="748.5,-224.5 748.5,-243.5 806.5,-243.5 806.5,-224.5 748.5,-224.5"/>
<text text-anchor="middle" x="777.5" y="-231.5" font-family="Helvetica,sans-Serif" font-size="10.00">functional</text>
</a>
</g>
</g>
<!-- Node14&#45;&gt;Node16 -->
<g id="edge15" class="edge"><title>Node14&#45;&gt;Node16</title>
<path fill="none" stroke="midnightblue" d="M777.5,-336.337C777.5,-315.622 777.5,-277.016 777.5,-253.899"/>
<polygon fill="midnightblue" stroke="midnightblue" points="781,-253.669 777.5,-243.669 774,-253.669 781,-253.669"/>
</g>
<!-- Node17 -->
<g id="node17" class="node"><title>Node17</title>
<g id="a_node17"><a xlink:title=" ">
<polygon fill="white" stroke="#bfbfbf" points="606.5,-56.5 606.5,-75.5 680.5,-75.5 680.5,-56.5 606.5,-56.5"/>
<text text-anchor="middle" x="643.5" y="-63.5" font-family="Helvetica,sans-Serif" font-size="10.00">system_error</text>
</a>
</g>
</g>
<!-- Node14&#45;&gt;Node17 -->
<g id="edge16" class="edge"><title>Node14&#45;&gt;Node17</title>
<path fill="none" stroke="midnightblue" d="M784.274,-336.454C793.497,-316.47 809.541,-278.432 815.5,-244 821.496,-209.351 813.024,-197.246 793.5,-168 773.605,-138.198 764.841,-132.568 735.5,-112 716.741,-98.8501 693.56,-87.538 675.161,-79.5447"/>
<polygon fill="midnightblue" stroke="midnightblue" points="676.33,-76.2392 665.757,-75.5652 673.602,-82.6857 676.33,-76.2392"/>
</g>
<!-- Node18 -->
<g id="node18" class="node"><title>Node18</title>
<g id="a_node18"><a xlink:href="event__handler__select_8h.html" target="_top" xlink:title=" ">
<polygon fill="white" stroke="black" points="862.5,-280.5 862.5,-299.5 978.5,-299.5 978.5,-280.5 862.5,-280.5"/>
<text text-anchor="middle" x="920.5" y="-287.5" font-family="Helvetica,sans-Serif" font-size="10.00">event_handler_select.h</text>
</a>
</g>
</g>
<!-- Node14&#45;&gt;Node18 -->
<g id="edge18" class="edge"><title>Node14&#45;&gt;Node18</title>
<path fill="none" stroke="midnightblue" d="M811.389,-336.399C835.382,-326.416 867.274,-313.147 890.377,-303.534"/>
<polygon fill="midnightblue" stroke="midnightblue" points="891.804,-306.731 899.692,-299.658 889.115,-300.268 891.804,-306.731"/>
</g>
<!-- Node21 -->
<g id="node21" class="node"><title>Node21</title>
<g id="a_node21"><a xlink:href="socket_8h.html" target="_top" xlink:title=" ">
<polygon fill="white" stroke="black" points="597.5,-280.5 597.5,-299.5 651.5,-299.5 651.5,-280.5 597.5,-280.5"/>
<text text-anchor="middle" x="624.5" y="-287.5" font-family="Helvetica,sans-Serif" font-size="10.00">socket.h</text>
</a>
</g>
</g>
<!-- Node14&#45;&gt;Node21 -->
<g id="edge22" class="edge"><title>Node14&#45;&gt;Node21</title>
<path fill="none" stroke="midnightblue" d="M741.241,-336.399C715.456,-326.372 681.143,-313.028 656.399,-303.405"/>
<polygon fill="midnightblue" stroke="midnightblue" points="657.351,-300.02 646.763,-299.658 654.814,-306.544 657.351,-300.02"/>
</g>
<!-- Node18&#45;&gt;Node2 -->
<g id="edge21" class="edge"><title>Node18&#45;&gt;Node2</title>
<path fill="none" stroke="midnightblue" d="M913.173,-299.616C899.736,-314.964 869.66,-347.272 838.5,-367 755.768,-419.379 645.802,-455.878 586.912,-473.15"/>
<polygon fill="midnightblue" stroke="midnightblue" points="585.853,-469.813 577.219,-475.954 587.798,-476.537 585.853,-469.813"/>
</g>
<!-- Node19 -->
<g id="node19" class="node"><title>Node19</title>
<g id="a_node19"><a xlink:title=" ">
<polygon fill="white" stroke="#bfbfbf" points="698.5,-56.5 698.5,-75.5 744.5,-75.5 744.5,-56.5 698.5,-56.5"/>
<text text-anchor="middle" x="721.5" y="-63.5" font-family="Helvetica,sans-Serif" font-size="10.00">cstdint</text>
</a>
</g>
</g>
<!-- Node18&#45;&gt;Node19 -->
<g id="edge19" class="edge"><title>Node18&#45;&gt;Node19</title>
<path fill="none" stroke="midnightblue" d="M916.717,-280.395C907.289,-259.561 881.14,-205.377 848.5,-168 816.869,-131.779 770.953,-98.9546 743.867,-81.1025"/>
<polygon fill="midnightblue" stroke="midnightblue" points="745.744,-78.1485 735.451,-75.639 741.933,-84.0198 745.744,-78.1485"/>
</g>
<!-- Node20 -->
<g id="node20" class="node"><title>Node20</title>
<g id="a_node20"><a xlink:title=" ">
<polygon fill="white" stroke="#bfbfbf" points="966.5,-56.5 966.5,-75.5 1028.5,-75.5 1028.5,-56.5 966.5,-56.5"/>
<text text-anchor="middle" x="997.5" y="-63.5" font-family="Helvetica,sans-Serif" font-size="10.00">type_traits</text>
</a>
</g>
</g>
<!-- Node18&#45;&gt;Node20 -->
<g id="edge20" class="edge"><title>Node18&#45;&gt;Node20</title>
<path fill="none" stroke="midnightblue" d="M924.571,-280.345C935.436,-256.936 965.45,-190.217 982.5,-132 986.981,-116.699 990.981,-99.0562 993.721,-86.0161"/>
<polygon fill="midnightblue" stroke="midnightblue" points="997.212,-86.4141 995.785,-75.9158 990.353,-85.0126 997.212,-86.4141"/>
</g>
<!-- Node21&#45;&gt;Node4 -->
<g id="edge69" class="edge"><title>Node21&#45;&gt;Node4</title>
<path fill="none" stroke="midnightblue" d="M603.773,-280.36C586.156,-272.433 560.735,-259.576 541.5,-244 480.383,-194.511 424.889,-117.92 401.816,-84.0755"/>
<polygon fill="midnightblue" stroke="midnightblue" points="404.679,-82.0608 396.19,-75.7211 398.873,-85.9708 404.679,-82.0608"/>
</g>
<!-- Node21&#45;&gt;Node16 -->
<g id="edge24" class="edge"><title>Node21&#45;&gt;Node16</title>
<path fill="none" stroke="midnightblue" d="M648.743,-280.444C674.371,-271.399 714.985,-257.064 743.738,-246.916"/>
<polygon fill="midnightblue" stroke="midnightblue" points="745.105,-250.145 753.37,-243.516 742.775,-243.544 745.105,-250.145"/>
</g>
<!-- Node22 -->
<g id="node22" class="node"><title>Node22</title>
<g id="a_node22"><a xlink:title=" ">
<polygon fill="white" stroke="#bfbfbf" points="481,-56.5 481,-75.5 530,-75.5 530,-56.5 481,-56.5"/>
<text text-anchor="middle" x="505.5" y="-63.5" font-family="Helvetica,sans-Serif" font-size="10.00">cassert</text>
</a>
</g>
</g>
<!-- Node21&#45;&gt;Node22 -->
<g id="edge23" class="edge"><title>Node21&#45;&gt;Node22</title>
<path fill="none" stroke="midnightblue" d="M610.001,-280.482C596.835,-272.272 577.406,-258.924 563.5,-244 523.322,-200.881 508.929,-188.601 492.5,-132 487.944,-116.303 492.445,-98.0155 497.355,-84.8441"/>
<polygon fill="midnightblue" stroke="midnightblue" points="500.622,-86.103 501.216,-75.5249 494.155,-83.4238 500.622,-86.103"/>
</g>
<!-- Node23 -->
<g id="node23" class="node"><title>Node23</title>
<g id="a_node23"><a xlink:href="address_8h.html" target="_top" xlink:title=" ">
<polygon fill="white" stroke="black" points="595,-224.5 595,-243.5 654,-243.5 654,-224.5 595,-224.5"/>
<text text-anchor="middle" x="624.5" y="-231.5" font-family="Helvetica,sans-Serif" font-size="10.00">address.h</text>
</a>
</g>
</g>
<!-- Node21&#45;&gt;Node23 -->
<g id="edge25" class="edge"><title>Node21&#45;&gt;Node23</title>
<path fill="none" stroke="midnightblue" d="M624.5,-280.083C624.5,-273.006 624.5,-262.861 624.5,-253.986"/>
<polygon fill="midnightblue" stroke="midnightblue" points="628,-253.751 624.5,-243.751 621,-253.751 628,-253.751"/>
</g>
<!-- Node29 -->
<g id="node29" class="node"><title>Node29</title>
<g id="a_node29"><a xlink:href="buffer_8h.html" target="_top" xlink:title=" ">
<polygon fill="white" stroke="black" points="678.5,-112.5 678.5,-131.5 726.5,-131.5 726.5,-112.5 678.5,-112.5"/>
<text text-anchor="middle" x="702.5" y="-119.5" font-family="Helvetica,sans-Serif" font-size="10.00">buffer.h</text>
</a>
</g>
</g>
<!-- Node21&#45;&gt;Node29 -->
<g id="edge68" class="edge"><title>Node21&#45;&gt;Node29</title>
<path fill="none" stroke="midnightblue" d="M634.115,-280.317C648.96,-267.164 678.66,-241.835 706.5,-224 736.291,-204.915 758.984,-218.148 777.5,-188 791.233,-165.639 762.083,-146.879 736.212,-135.349"/>
<polygon fill="midnightblue" stroke="midnightblue" points="737.489,-132.089 726.914,-131.435 734.773,-138.541 737.489,-132.089"/>
</g>
<!-- Node34 -->
<g id="node34" class="node"><title>Node34</title>
<g id="a_node34"><a xlink:href="utils_8h.html" target="_top" xlink:title=" ">
<polygon fill="white" stroke="black" points="1087,-112.5 1087,-131.5 1130,-131.5 1130,-112.5 1087,-112.5"/>
<text text-anchor="middle" x="1108.5" y="-119.5" font-family="Helvetica,sans-Serif" font-size="10.00">utils.h</text>
</a>
</g>
</g>
<!-- Node21&#45;&gt;Node34 -->
<g id="edge72" class="edge"><title>Node21&#45;&gt;Node34</title>
<path fill="none" stroke="midnightblue" d="M640.641,-280.407C657.26,-271.497 683.855,-257.067 706.5,-244 721.354,-235.428 723.333,-229.722 739.5,-224 851.133,-184.487 892.055,-228.04 1003.5,-188 1036.37,-176.192 1069.92,-153.093 1089.98,-137.854"/>
<polygon fill="midnightblue" stroke="midnightblue" points="1092.2,-140.562 1097.95,-131.666 1087.91,-135.032 1092.2,-140.562"/>
</g>
<!-- Node39 -->
<g id="node39" class="node"><title>Node39</title>
<g id="a_node39"><a xlink:href="exception_8h.html" target="_top" xlink:title=" ">
<polygon fill="white" stroke="black" points="502,-112.5 502,-131.5 569,-131.5 569,-112.5 502,-112.5"/>
<text text-anchor="middle" x="535.5" y="-119.5" font-family="Helvetica,sans-Serif" font-size="10.00">exception.h</text>
</a>
</g>
</g>
<!-- Node21&#45;&gt;Node39 -->
<g id="edge70" class="edge"><title>Node21&#45;&gt;Node39</title>
<path fill="none" stroke="midnightblue" d="M615.064,-280.348C598.049,-264.114 562.509,-227.171 546.5,-188 540.472,-173.25 537.747,-155.32 536.515,-142.03"/>
<polygon fill="midnightblue" stroke="midnightblue" points="539.984,-141.464 535.772,-131.743 533.002,-141.969 539.984,-141.464"/>
</g>
<!-- Node42 -->
<g id="node42" class="node"><title>Node42</title>
<g id="a_node42"><a xlink:href="useful__base__types_8h.html" target="_top" xlink:title=" ">
<polygon fill="white" stroke="black" points="94.5,-56.5 94.5,-75.5 200.5,-75.5 200.5,-56.5 94.5,-56.5"/>
<text text-anchor="middle" x="147.5" y="-63.5" font-family="Helvetica,sans-Serif" font-size="10.00">useful_base_types.h</text>
</a>
</g>
</g>
<!-- Node21&#45;&gt;Node42 -->
<g id="edge71" class="edge"><title>Node21&#45;&gt;Node42</title>
<path fill="none" stroke="midnightblue" d="M597.383,-285.83C512.811,-275.467 255.749,-240.233 192.5,-188 161.35,-162.276 151.756,-112.789 148.806,-85.7561"/>
<polygon fill="midnightblue" stroke="midnightblue" points="152.282,-85.3283 147.905,-75.6798 145.31,-85.9518 152.282,-85.3283"/>
</g>
<!-- Node24 -->
<g id="node24" class="node"><title>Node24</title>
<g id="a_node24"><a xlink:title=" ">
<polygon fill="white" stroke="#bfbfbf" points="571,-168.5 571,-187.5 612,-187.5 612,-168.5 571,-168.5"/>
<text text-anchor="middle" x="591.5" y="-175.5" font-family="Helvetica,sans-Serif" font-size="10.00">string</text>
</a>
</g>
</g>
<!-- Node23&#45;&gt;Node24 -->
<g id="edge26" class="edge"><title>Node23&#45;&gt;Node24</title>
<path fill="none" stroke="midnightblue" d="M619.051,-224.083C614.486,-216.613 607.832,-205.724 602.207,-196.52"/>
<polygon fill="midnightblue" stroke="midnightblue" points="605.049,-194.459 596.848,-187.751 599.076,-198.109 605.049,-194.459"/>
</g>
<!-- Node25 -->
<g id="node25" class="node"><title>Node25</title>
<g id="a_node25"><a xlink:title=" ">
<polygon fill="white" stroke="#bfbfbf" points="630.5,-168.5 630.5,-187.5 674.5,-187.5 674.5,-168.5 630.5,-168.5"/>
<text text-anchor="middle" x="652.5" y="-175.5" font-family="Helvetica,sans-Serif" font-size="10.00">variant</text>
</a>
</g>
</g>
<!-- Node23&#45;&gt;Node25 -->
<g id="edge27" class="edge"><title>Node23&#45;&gt;Node25</title>
<path fill="none" stroke="midnightblue" d="M629.124,-224.083C632.956,-216.691 638.524,-205.953 643.265,-196.811"/>
<polygon fill="midnightblue" stroke="midnightblue" points="646.466,-198.24 647.962,-187.751 640.252,-195.018 646.466,-198.24"/>
</g>
<!-- Node26 -->
<g id="node26" class="node"><title>Node26</title>
<g id="a_node26"><a xlink:href="bin__rw_8h.html" target="_top" xlink:title=" ">
<polygon fill="white" stroke="black" points="901,-168.5 901,-187.5 954,-187.5 954,-168.5 901,-168.5"/>
<text text-anchor="middle" x="927.5" y="-175.5" font-family="Helvetica,sans-Serif" font-size="10.00">bin_rw.h</text>
</a>
</g>
</g>
<!-- Node23&#45;&gt;Node26 -->
<g id="edge28" class="edge"><title>Node23&#45;&gt;Node26</title>
<path fill="none" stroke="midnightblue" d="M654.105,-227.724C709.849,-217.789 830.227,-196.336 890.928,-185.518"/>
<polygon fill="midnightblue" stroke="midnightblue" points="891.608,-188.952 900.839,-183.751 890.38,-182.06 891.608,-188.952"/>
</g>
<!-- Node23&#45;&gt;Node29 -->
<g id="edge56" class="edge"><title>Node23&#45;&gt;Node29</title>
<path fill="none" stroke="midnightblue" d="M640.843,-224.437C654.185,-216.641 672.56,-203.929 683.5,-188 692.964,-174.22 697.776,-155.695 700.185,-141.948"/>
<polygon fill="midnightblue" stroke="midnightblue" points="703.695,-142.136 701.692,-131.732 696.77,-141.114 703.695,-142.136"/>
</g>
<!-- Node23&#45;&gt;Node34 -->
<g id="edge67" class="edge"><title>Node23&#45;&gt;Node34</title>
<path fill="none" stroke="midnightblue" d="M654.226,-229.536C731.201,-220.496 933.092,-196.317 962.5,-188 1007.16,-175.37 1055.79,-151.492 1084.14,-136.459"/>
<polygon fill="midnightblue" stroke="midnightblue" points="1086.13,-139.363 1093.28,-131.543 1082.81,-133.198 1086.13,-139.363"/>
</g>
<!-- Node23&#45;&gt;Node39 -->
<g id="edge57" class="edge"><title>Node23&#45;&gt;Node39</title>
<path fill="none" stroke="midnightblue" d="M607.444,-224.401C593.439,-216.583 573.949,-203.859 561.5,-188 550.722,-174.271 543.855,-155.49 539.902,-141.646"/>
<polygon fill="midnightblue" stroke="midnightblue" points="543.243,-140.588 537.338,-131.792 536.469,-142.351 543.243,-140.588"/>
</g>
<!-- Node40 -->
<g id="node40" class="node"><title>Node40</title>
<g id="a_node40"><a xlink:href="sys__socket__ops_8h.html" target="_top" xlink:title=" ">
<polygon fill="white" stroke="black" points="201.5,-168.5 201.5,-187.5 297.5,-187.5 297.5,-168.5 201.5,-168.5"/>
<text text-anchor="middle" x="249.5" y="-175.5" font-family="Helvetica,sans-Serif" font-size="10.00">sys_socket_ops.h</text>
</a>
</g>
</g>
<!-- Node23&#45;&gt;Node40 -->
<g id="edge60" class="edge"><title>Node23&#45;&gt;Node40</title>
<path fill="none" stroke="midnightblue" d="M594.761,-228.718C532.795,-219.795 388.894,-199.073 307.788,-187.393"/>
<polygon fill="midnightblue" stroke="midnightblue" points="308.134,-183.907 297.737,-185.946 307.136,-190.836 308.134,-183.907"/>
</g>
<!-- Node43 -->
<g id="node43" class="node"><title>Node43</title>
<g id="a_node43"><a xlink:href="tag_8h.html" target="_top" xlink:title=" ">
<polygon fill="white" stroke="black" points="730.5,-168.5 730.5,-187.5 768.5,-187.5 768.5,-168.5 730.5,-168.5"/>
<text text-anchor="middle" x="749.5" y="-175.5" font-family="Helvetica,sans-Serif" font-size="10.00">tag.h</text>
</a>
</g>
</g>
<!-- Node23&#45;&gt;Node43 -->
<g id="edge66" class="edge"><title>Node23&#45;&gt;Node43</title>
<path fill="none" stroke="midnightblue" d="M644.307,-224.444C664.907,-215.544 697.362,-201.524 720.776,-191.409"/>
<polygon fill="midnightblue" stroke="midnightblue" points="722.405,-194.518 730.197,-187.339 719.629,-188.092 722.405,-194.518"/>
</g>
<!-- Node26&#45;&gt;Node20 -->
<g id="edge31" class="edge"><title>Node26&#45;&gt;Node20</title>
<path fill="none" stroke="midnightblue" d="M934.927,-168.359C942.344,-159.529 953.855,-145.268 962.5,-132 972.536,-116.597 982.314,-98.0489 988.972,-84.7154"/>
<polygon fill="midnightblue" stroke="midnightblue" points="992.145,-86.1935 993.407,-75.6742 985.861,-83.1102 992.145,-86.1935"/>
</g>
<!-- Node27 -->
<g id="node27" class="node"><title>Node27</title>
<g id="a_node27"><a xlink:title=" ">
<polygon fill="white" stroke="#bfbfbf" points="826.5,-112.5 826.5,-131.5 882.5,-131.5 882.5,-112.5 826.5,-112.5"/>
<text text-anchor="middle" x="854.5" y="-119.5" font-family="Helvetica,sans-Serif" font-size="10.00">algorithm</text>
</a>
</g>
</g>
<!-- Node26&#45;&gt;Node27 -->
<g id="edge29" class="edge"><title>Node26&#45;&gt;Node27</title>
<path fill="none" stroke="midnightblue" d="M915.771,-168.324C904.663,-160.107 887.758,-147.602 874.517,-137.807"/>
<polygon fill="midnightblue" stroke="midnightblue" points="876.563,-134.967 866.442,-131.834 872.4,-140.595 876.563,-134.967"/>
</g>
<!-- Node28 -->
<g id="node28" class="node"><title>Node28</title>
<g id="a_node28"><a xlink:title=" ">
<polygon fill="white" stroke="#bfbfbf" points="1046.5,-56.5 1046.5,-75.5 1092.5,-75.5 1092.5,-56.5 1046.5,-56.5"/>
<text text-anchor="middle" x="1069.5" y="-63.5" font-family="Helvetica,sans-Serif" font-size="10.00">cstring</text>
</a>
</g>
</g>
<!-- Node26&#45;&gt;Node28 -->
<g id="edge30" class="edge"><title>Node26&#45;&gt;Node28</title>
<path fill="none" stroke="midnightblue" d="M938.643,-168.368C962.802,-149.653 1020.25,-105.151 1050.35,-81.8324"/>
<polygon fill="midnightblue" stroke="midnightblue" points="1052.65,-84.4824 1058.41,-75.5914 1048.36,-78.9485 1052.65,-84.4824"/>
</g>
<!-- Node26&#45;&gt;Node29 -->
<g id="edge32" class="edge"><title>Node26&#45;&gt;Node29</title>
<path fill="none" stroke="midnightblue" d="M900.806,-170.593C859.876,-160.77 781.639,-141.993 736.639,-131.193"/>
<polygon fill="midnightblue" stroke="midnightblue" points="737.302,-127.753 726.761,-128.823 735.668,-134.56 737.302,-127.753"/>
</g>
<!-- Node30 -->
<g id="node30" class="node"><title>Node30</title>
<g id="a_node30"><a xlink:href="endian_8h.html" target="_top" xlink:title=" ">
<polygon fill="white" stroke="black" points="901,-112.5 901,-131.5 954,-131.5 954,-112.5 901,-112.5"/>
<text text-anchor="middle" x="927.5" y="-119.5" font-family="Helvetica,sans-Serif" font-size="10.00">endian.h</text>
</a>
</g>
</g>
<!-- Node26&#45;&gt;Node30 -->
<g id="edge39" class="edge"><title>Node26&#45;&gt;Node30</title>
<path fill="none" stroke="midnightblue" d="M927.5,-168.083C927.5,-161.006 927.5,-150.861 927.5,-141.986"/>
<polygon fill="midnightblue" stroke="midnightblue" points="931,-141.751 927.5,-131.751 924,-141.751 931,-141.751"/>
</g>
<!-- Node26&#45;&gt;Node34 -->
<g id="edge46" class="edge"><title>Node26&#45;&gt;Node34</title>
<path fill="none" stroke="midnightblue" d="M954.207,-169.032C986.965,-159.259 1042.41,-142.717 1077.15,-132.352"/>
<polygon fill="midnightblue" stroke="midnightblue" points="1078.21,-135.688 1086.8,-129.475 1076.21,-128.98 1078.21,-135.688"/>
</g>
<!-- Node29&#45;&gt;Node4 -->
<g id="edge38" class="edge"><title>Node29&#45;&gt;Node4</title>
<path fill="none" stroke="midnightblue" d="M678.278,-116.808C627.413,-108.004 508.582,-87.4373 440.594,-75.6702"/>
<polygon fill="midnightblue" stroke="midnightblue" points="440.992,-72.1871 430.542,-73.9303 439.799,-79.0846 440.992,-72.1871"/>
</g>
<!-- Node29&#45;&gt;Node13 -->
<g id="edge34" class="edge"><title>Node29&#45;&gt;Node13</title>
<path fill="none" stroke="midnightblue" d="M678.042,-118.184C652.998,-113.852 615.296,-102.988 597.5,-76 587.241,-60.4416 599.439,-40.9638 611.421,-27.406"/>
<polygon fill="midnightblue" stroke="midnightblue" points="614.287,-29.4719 618.65,-19.8173 609.218,-24.6436 614.287,-29.4719"/>
</g>
<!-- Node29&#45;&gt;Node17 -->
<g id="edge36" class="edge"><title>Node29&#45;&gt;Node17</title>
<path fill="none" stroke="midnightblue" d="M693.021,-112.324C684.299,-104.341 671.157,-92.3128 660.602,-82.6529"/>
<polygon fill="midnightblue" stroke="midnightblue" points="662.892,-80.0036 653.152,-75.8339 658.166,-85.1674 662.892,-80.0036"/>
</g>
<!-- Node29&#45;&gt;Node19 -->
<g id="edge35" class="edge"><title>Node29&#45;&gt;Node19</title>
<path fill="none" stroke="midnightblue" d="M705.637,-112.083C708.183,-104.849 711.856,-94.4087 715.027,-85.3968"/>
<polygon fill="midnightblue" stroke="midnightblue" points="718.403,-86.3459 718.421,-75.7511 711.8,-84.0225 718.403,-86.3459"/>
</g>
<!-- Node29&#45;&gt;Node20 -->
<g id="edge37" class="edge"><title>Node29&#45;&gt;Node20</title>
<path fill="none" stroke="midnightblue" d="M726.831,-117.095C770.678,-109.973 866.073,-94.1021 956.252,-76.1803"/>
<polygon fill="midnightblue" stroke="midnightblue" points="956.967,-79.6067 966.087,-74.2134 955.594,-72.7426 956.967,-79.6067"/>
</g>
<!-- Node29&#45;&gt;Node22 -->
<g id="edge33" class="edge"><title>Node29&#45;&gt;Node22</title>
<path fill="none" stroke="midnightblue" d="M678.344,-114.379C643.657,-104.87 579.561,-87.3011 539.923,-76.4359"/>
<polygon fill="midnightblue" stroke="midnightblue" points="540.733,-73.0288 530.164,-73.7606 538.883,-79.7797 540.733,-73.0288"/>
</g>
<!-- Node30&#45;&gt;Node19 -->
<g id="edge41" class="edge"><title>Node30&#45;&gt;Node19</title>
<path fill="none" stroke="midnightblue" d="M900.923,-114.312C868.557,-106.127 811.988,-91.6925 754.212,-76.152"/>
<polygon fill="midnightblue" stroke="midnightblue" points="755.122,-72.7724 744.556,-73.5471 753.299,-79.5308 755.122,-72.7724"/>
</g>
<!-- Node30&#45;&gt;Node20 -->
<g id="edge44" class="edge"><title>Node30&#45;&gt;Node20</title>
<path fill="none" stroke="midnightblue" d="M938.747,-112.324C949.297,-104.185 965.301,-91.8395 977.942,-82.0874"/>
<polygon fill="midnightblue" stroke="midnightblue" points="980.269,-84.7132 986.049,-75.8339 975.993,-79.1707 980.269,-84.7132"/>
</g>
<!-- Node30&#45;&gt;Node28 -->
<g id="edge42" class="edge"><title>Node30&#45;&gt;Node28</title>
<path fill="none" stroke="midnightblue" d="M950,-112.444C973.577,-103.478 1010.82,-89.314 1037.46,-79.1827"/>
<polygon fill="midnightblue" stroke="midnightblue" points="1039,-82.3424 1047.1,-75.5164 1036.51,-75.7995 1039,-82.3424"/>
</g>
<!-- Node31 -->
<g id="node31" class="node"><title>Node31</title>
<g id="a_node31"><a xlink:title=" ">
<polygon fill="white" stroke="#bfbfbf" points="821,-56.5 821,-75.5 866,-75.5 866,-56.5 821,-56.5"/>
<text text-anchor="middle" x="843.5" y="-63.5" font-family="Helvetica,sans-Serif" font-size="10.00">climits</text>
</a>
</g>
</g>
<!-- Node30&#45;&gt;Node31 -->
<g id="edge40" class="edge"><title>Node30&#45;&gt;Node31</title>
<path fill="none" stroke="midnightblue" d="M914.004,-112.324C900.9,-103.9 880.788,-90.9709 865.393,-81.0741"/>
<polygon fill="midnightblue" stroke="midnightblue" points="867.267,-78.118 856.963,-75.6545 863.482,-84.0063 867.267,-78.118"/>
</g>
<!-- Node32 -->
<g id="node32" class="node"><title>Node32</title>
<g id="a_node32"><a xlink:title=" ">
<polygon fill="white" stroke="#bfbfbf" points="884.5,-56.5 884.5,-75.5 948.5,-75.5 948.5,-56.5 884.5,-56.5"/>
<text text-anchor="middle" x="916.5" y="-63.5" font-family="Helvetica,sans-Serif" font-size="10.00">string_view</text>
</a>
</g>
</g>
<!-- Node30&#45;&gt;Node32 -->
<g id="edge43" class="edge"><title>Node30&#45;&gt;Node32</title>
<path fill="none" stroke="midnightblue" d="M925.684,-112.083C924.226,-104.927 922.129,-94.6353 920.307,-85.6911"/>
<polygon fill="midnightblue" stroke="midnightblue" points="923.708,-84.8512 918.283,-75.7511 916.849,-86.2485 923.708,-84.8512"/>
</g>
<!-- Node33 -->
<g id="node33" class="node"><title>Node33</title>
<g id="a_node33"><a xlink:title=" ">
<polygon fill="white" stroke="#bfbfbf" points="762.5,-56.5 762.5,-75.5 802.5,-75.5 802.5,-56.5 762.5,-56.5"/>
<text text-anchor="middle" x="782.5" y="-63.5" font-family="Helvetica,sans-Serif" font-size="10.00">utility</text>
</a>
</g>
</g>
<!-- Node30&#45;&gt;Node33 -->
<g id="edge45" class="edge"><title>Node30&#45;&gt;Node33</title>
<path fill="none" stroke="midnightblue" d="M904.524,-112.444C879.49,-103.12 839.364,-88.1768 812.013,-77.9911"/>
<polygon fill="midnightblue" stroke="midnightblue" points="813.159,-74.6831 802.566,-74.473 810.716,-81.243 813.159,-74.6831"/>
</g>
<!-- Node34&#45;&gt;Node4 -->
<g id="edge55" class="edge"><title>Node34&#45;&gt;Node4</title>
<path fill="none" stroke="midnightblue" d="M1086.93,-119.593C990.118,-113.261 595.161,-87.2334 471.5,-76 461.566,-75.0976 450.96,-74.0096 440.806,-72.9068"/>
<polygon fill="midnightblue" stroke="midnightblue" points="441.169,-69.4256 430.845,-71.8053 440.399,-76.3832 441.169,-69.4256"/>
</g>
<!-- Node34&#45;&gt;Node15 -->
<g id="edge49" class="edge"><title>Node34&#45;&gt;Node15</title>
<path fill="none" stroke="midnightblue" d="M1130.28,-119.273C1181.25,-114.956 1312.3,-102.267 1430.41,-75.8958"/>
<polygon fill="midnightblue" stroke="midnightblue" points="1431.37,-79.2685 1440.34,-73.6391 1429.81,-72.4426 1431.37,-79.2685"/>
</g>
<!-- Node34&#45;&gt;Node17 -->
<g id="edge52" class="edge"><title>Node34&#45;&gt;Node17</title>
<path fill="none" stroke="midnightblue" d="M1086.6,-119.319C1025.62,-114.495 848.521,-99.5274 690.958,-76.1008"/>
<polygon fill="midnightblue" stroke="midnightblue" points="691.018,-72.5707 680.609,-74.5455 689.978,-79.4929 691.018,-72.5707"/>
</g>
<!-- Node34&#45;&gt;Node20 -->
<g id="edge53" class="edge"><title>Node34&#45;&gt;Node20</title>
<path fill="none" stroke="midnightblue" d="M1090.67,-112.324C1072.78,-103.625 1045.02,-90.1202 1024.45,-80.113"/>
<polygon fill="midnightblue" stroke="midnightblue" points="1025.81,-76.8819 1015.29,-75.6545 1022.75,-83.1765 1025.81,-76.8819"/>
</g>
<!-- Node34&#45;&gt;Node28 -->
<g id="edge51" class="edge"><title>Node34&#45;&gt;Node28</title>
<path fill="none" stroke="midnightblue" d="M1102.06,-112.083C1096.55,-104.455 1088.47,-93.2645 1081.74,-83.9408"/>
<polygon fill="midnightblue" stroke="midnightblue" points="1084.51,-81.8087 1075.82,-75.7511 1078.84,-85.9071 1084.51,-81.8087"/>
</g>
<!-- Node35 -->
<g id="node35" class="node"><title>Node35</title>
<g id="a_node35"><a xlink:title=" ">
<polygon fill="white" stroke="#bfbfbf" points="1212.5,-56.5 1212.5,-75.5 1272.5,-75.5 1272.5,-56.5 1212.5,-56.5"/>
<text text-anchor="middle" x="1242.5" y="-63.5" font-family="Helvetica,sans-Serif" font-size="10.00">fmt/core.h</text>
</a>
</g>
</g>
<!-- Node34&#45;&gt;Node35 -->
<g id="edge47" class="edge"><title>Node34&#45;&gt;Node35</title>
<path fill="none" stroke="midnightblue" d="M1129.73,-112.444C1151.88,-103.517 1186.82,-89.4387 1211.94,-79.3168"/>
<polygon fill="midnightblue" stroke="midnightblue" points="1213.4,-82.5006 1221.37,-75.5164 1210.78,-76.0079 1213.4,-82.5006"/>
</g>
<!-- Node36 -->
<g id="node36" class="node"><title>Node36</title>
<g id="a_node36"><a xlink:title=" ">
<polygon fill="white" stroke="#bfbfbf" points="1290.5,-56.5 1290.5,-75.5 1358.5,-75.5 1358.5,-56.5 1290.5,-56.5"/>
<text text-anchor="middle" x="1324.5" y="-63.5" font-family="Helvetica,sans-Serif" font-size="10.00">fmt/format.h</text>
</a>
</g>
</g>
<!-- Node34&#45;&gt;Node36 -->
<g id="edge48" class="edge"><title>Node34&#45;&gt;Node36</title>
<path fill="none" stroke="midnightblue" d="M1130,-115.625C1164.92,-106.895 1234.66,-89.46 1280.44,-78.0144"/>
<polygon fill="midnightblue" stroke="midnightblue" points="1281.54,-81.3476 1290.39,-75.5267 1279.84,-74.5566 1281.54,-81.3476"/>
</g>
<!-- Node37 -->
<g id="node37" class="node"><title>Node37</title>
<g id="a_node37"><a xlink:title=" ">
<polygon fill="white" stroke="#bfbfbf" points="1376.5,-56.5 1376.5,-75.5 1422.5,-75.5 1422.5,-56.5 1376.5,-56.5"/>
<text text-anchor="middle" x="1399.5" y="-63.5" font-family="Helvetica,sans-Serif" font-size="10.00">chrono</text>
</a>
</g>
</g>
<!-- Node34&#45;&gt;Node37 -->
<g id="edge50" class="edge"><title>Node34&#45;&gt;Node37</title>
<path fill="none" stroke="midnightblue" d="M1130.14,-118.004C1173.26,-111.872 1273.13,-96.8648 1366.6,-76.0081"/>
<polygon fill="midnightblue" stroke="midnightblue" points="1367.52,-79.3898 1376.5,-73.772 1365.97,-72.5619 1367.52,-79.3898"/>
</g>
<!-- Node38 -->
<g id="node38" class="node"><title>Node38</title>
<g id="a_node38"><a xlink:title=" ">
<polygon fill="white" stroke="#bfbfbf" points="1111,-56.5 1111,-75.5 1194,-75.5 1194,-56.5 1111,-56.5"/>
<text text-anchor="middle" x="1152.5" y="-63.5" font-family="Helvetica,sans-Serif" font-size="10.00">unordered_map</text>
</a>
</g>
</g>
<!-- Node34&#45;&gt;Node38 -->
<g id="edge54" class="edge"><title>Node34&#45;&gt;Node38</title>
<path fill="none" stroke="midnightblue" d="M1115.77,-112.083C1122.04,-104.377 1131.29,-93.0333 1138.93,-83.6531"/>
<polygon fill="midnightblue" stroke="midnightblue" points="1141.77,-85.7143 1145.37,-75.7511 1136.34,-81.2926 1141.77,-85.7143"/>
</g>
<!-- Node39&#45;&gt;Node4 -->
<g id="edge59" class="edge"><title>Node39&#45;&gt;Node4</title>
<path fill="none" stroke="midnightblue" d="M512.524,-112.444C488.343,-103.438 450.082,-89.1891 422.854,-79.049"/>
<polygon fill="midnightblue" stroke="midnightblue" points="423.961,-75.7265 413.368,-75.5164 421.518,-82.2864 423.961,-75.7265"/>
</g>
<!-- Node39&#45;&gt;Node17 -->
<g id="edge58" class="edge"><title>Node39&#45;&gt;Node17</title>
<path fill="none" stroke="midnightblue" d="M552.852,-112.324C570.172,-103.664 597.015,-90.2424 617.002,-80.249"/>
<polygon fill="midnightblue" stroke="midnightblue" points="618.812,-83.2572 626.191,-75.6545 615.681,-76.9962 618.812,-83.2572"/>
</g>
<!-- Node40&#45;&gt;Node4 -->
<g id="edge61" class="edge"><title>Node40&#45;&gt;Node4</title>
<path fill="none" stroke="midnightblue" d="M260.564,-168.368C284.554,-149.653 341.598,-105.151 371.488,-81.8324"/>
<polygon fill="midnightblue" stroke="midnightblue" points="373.756,-84.502 379.487,-75.5914 369.45,-78.9829 373.756,-84.502"/>
</g>
<!-- Node41 -->
<g id="node41" class="node"><title>Node41</title>
<g id="a_node41"><a xlink:href="sys__error__code_8h.html" target="_top" xlink:title=" ">
<polygon fill="white" stroke="black" points="194.5,-112.5 194.5,-131.5 286.5,-131.5 286.5,-112.5 194.5,-112.5"/>
<text text-anchor="middle" x="240.5" y="-119.5" font-family="Helvetica,sans-Serif" font-size="10.00">sys_error_code.h</text>
</a>
</g>
</g>
<!-- Node40&#45;&gt;Node41 -->
<g id="edge62" class="edge"><title>Node40&#45;&gt;Node41</title>
<path fill="none" stroke="midnightblue" d="M248.014,-168.083C246.821,-160.927 245.106,-150.635 243.615,-141.691"/>
<polygon fill="midnightblue" stroke="midnightblue" points="247.055,-141.04 241.959,-131.751 240.15,-142.19 247.055,-141.04"/>
</g>
<!-- Node40&#45;&gt;Node42 -->
<g id="edge65" class="edge"><title>Node40&#45;&gt;Node42</title>
<path fill="none" stroke="midnightblue" d="M233.587,-168.437C219.679,-160.383 199.566,-147.297 185.5,-132 172.668,-118.045 162.179,-99.0398 155.497,-85.1854"/>
<polygon fill="midnightblue" stroke="midnightblue" points="158.519,-83.3799 151.153,-75.7639 152.162,-86.3107 158.519,-83.3799"/>
</g>
<!-- Node41&#45;&gt;Node4 -->
<g id="edge63" class="edge"><title>Node41&#45;&gt;Node4</title>
<path fill="none" stroke="midnightblue" d="M264.268,-112.444C289.393,-103.399 329.211,-89.064 357.4,-78.9158"/>
<polygon fill="midnightblue" stroke="midnightblue" points="358.62,-82.1968 366.843,-75.5164 356.249,-75.6106 358.62,-82.1968"/>
</g>
<!-- Node41&#45;&gt;Node42 -->
<g id="edge64" class="edge"><title>Node41&#45;&gt;Node42</title>
<path fill="none" stroke="midnightblue" d="M225.558,-112.324C210.915,-103.822 188.366,-90.7288 171.262,-80.7975"/>
<polygon fill="midnightblue" stroke="midnightblue" points="172.81,-77.6491 162.405,-75.6545 169.295,-83.7027 172.81,-77.6491"/>
</g>
<!-- Node44&#45;&gt;Node42 -->
<g id="edge75" class="edge"><title>Node44&#45;&gt;Node42</title>
<path fill="none" stroke="midnightblue" d="M234.266,-473.348C176.491,-457.403 90.5,-421.998 90.5,-352.5 90.5,-352.5 90.5,-352.5 90.5,-177 90.5,-140.3 115.821,-103.657 132.71,-83.2973"/>
<polygon fill="midnightblue" stroke="midnightblue" points="135.454,-85.475 139.333,-75.6161 130.152,-80.9037 135.454,-85.475"/>
</g>
<!-- Node45 -->
<g id="node45" class="node"><title>Node45</title>
<g id="a_node45"><a xlink:title=" ">
<polygon fill="white" stroke="#bfbfbf" points="262.5,-409 262.5,-428 308.5,-428 308.5,-409 262.5,-409"/>
<text text-anchor="middle" x="285.5" y="-416" font-family="Helvetica,sans-Serif" font-size="10.00">atomic</text>
</a>
</g>
</g>
<!-- Node44&#45;&gt;Node45 -->
<g id="edge74" class="edge"><title>Node44&#45;&gt;Node45</title>
<path fill="none" stroke="midnightblue" d="M285.5,-470.396C285.5,-461.064 285.5,-448.714 285.5,-438.517"/>
<polygon fill="midnightblue" stroke="midnightblue" points="289,-438.195 285.5,-428.195 282,-438.195 289,-438.195"/>
</g>
</g>
</svg>
