<?xml version="1.0" encoding="UTF-8" standalone="no"?>
<!DOCTYPE svg PUBLIC "-//W3C//DTD SVG 1.1//EN"
 "http://www.w3.org/Graphics/SVG/1.1/DTD/svg11.dtd">
<!-- Generated by graphviz version 2.38.0 (20140413.2041)
 -->
<!-- Title: C:/projects/ndt/sources Pages: 1 -->
<svg width="166pt" height="204pt"
 viewBox="0.00 0.00 166.00 204.00" xmlns="http://www.w3.org/2000/svg" xmlns:xlink="http://www.w3.org/1999/xlink">
<g id="graph0" class="graph" transform="scale(1 1) rotate(0) translate(4 200)">
<title>C:/projects/ndt/sources</title>
<polygon fill="white" stroke="none" points="-4,4 -4,-200 162,-200 162,4 -4,4"/>
<g id="clust1" class="cluster"><title>clusterdir_08d237fc27d4ecd563f71c5d52f2fecc</title>
<g id="a_clust1"><a xlink:href="dir_08d237fc27d4ecd563f71c5d52f2fecc.html" target="_top">
<polygon fill="#eeeeff" stroke="black" points="8,-64 8,-188 150,-188 150,-64 8,-64"/>
</a>
</g>
</g>
<!-- dir_08d237fc27d4ecd563f71c5d52f2fecc -->
<g id="node1" class="node"><title>dir_08d237fc27d4ecd563f71c5d52f2fecc</title>
<text text-anchor="middle" x="115" y="-159.5" font-family="Helvetica,sans-Serif" font-size="10.00">sources</text>
</g>
<!-- dir_da0f06c86f1c908881a669eb19c3ce89 -->
<g id="node2" class="node"><title>dir_da0f06c86f1c908881a669eb19c3ce89</title>
<g id="a_node2"><a xlink:href="dir_da0f06c86f1c908881a669eb19c3ce89.html" target="_top" xlink:title="include">
<polygon fill="white" stroke="red" points="70,-108 16,-108 16,-72 70,-72 70,-108"/>
<text text-anchor="middle" x="43" y="-87.5" font-family="Helvetica,sans-Serif" font-size="10.00">include</text>
</a>
</g>
</g>
<!-- dir_a7e97f178778837bf5cb280f088b9b06 -->
<g id="node4" class="node"><title>dir_a7e97f178778837bf5cb280f088b9b06</title>
<g id="a_node4"><a xlink:href="dir_a7e97f178778837bf5cb280f088b9b06.html" target="_top" xlink:title="deps">
<polygon fill="white" stroke="red" points="70,-36 16,-36 16,-0 70,-0 70,-36"/>
<text text-anchor="middle" x="43" y="-15.5" font-family="Helvetica,sans-Serif" font-size="10.00">deps</text>
</a>
</g>
</g>
<!-- dir_da0f06c86f1c908881a669eb19c3ce89&#45;&gt;dir_a7e97f178778837bf5cb280f088b9b06 -->
<g id="edge2" class="edge"><title>dir_da0f06c86f1c908881a669eb19c3ce89&#45;&gt;dir_a7e97f178778837bf5cb280f088b9b06</title>
<path fill="none" stroke="black" d="M43,-71.6966C43,-63.9827 43,-54.7125 43,-46.1124"/>
<polygon fill="black" stroke="black" points="46.5001,-46.1043 43,-36.1043 39.5001,-46.1044 46.5001,-46.1043"/>
<g id="a_edge2&#45;headlabel"><a xlink:href="dir_000007_000000.html" target="_top" xlink:title="1">
<text text-anchor="middle" x="49.3393" y="-47.199" font-family="Helvetica,sans-Serif" font-size="10.00">1</text>
</a>
</g>
</g>
<!-- dir_370a05bc919a3b485116f307abacd69c -->
<g id="node3" class="node"><title>dir_370a05bc919a3b485116f307abacd69c</title>
<g id="a_node3"><a xlink:href="dir_370a05bc919a3b485116f307abacd69c.html" target="_top" xlink:title="src">
<polygon fill="white" stroke="red" points="70,-180 16,-180 16,-144 70,-144 70,-180"/>
<text text-anchor="middle" x="43" y="-159.5" font-family="Helvetica,sans-Serif" font-size="10.00">src</text>
</a>
</g>
</g>
<!-- dir_370a05bc919a3b485116f307abacd69c&#45;&gt;dir_da0f06c86f1c908881a669eb19c3ce89 -->
<g id="edge1" class="edge"><title>dir_370a05bc919a3b485116f307abacd69c&#45;&gt;dir_da0f06c86f1c908881a669eb19c3ce89</title>
<path fill="none" stroke="black" d="M43,-143.697C43,-135.983 43,-126.712 43,-118.112"/>
<polygon fill="black" stroke="black" points="46.5001,-118.104 43,-108.104 39.5001,-118.104 46.5001,-118.104"/>
<g id="a_edge1&#45;headlabel"><a xlink:href="dir_000012_000007.html" target="_top" xlink:title="13">
<text text-anchor="middle" x="49.3393" y="-119.199" font-family="Helvetica,sans-Serif" font-size="10.00">13</text>
</a>
</g>
</g>
</g>
</svg>
