<?xml version="1.0" encoding="UTF-8" standalone="no"?>
<!DOCTYPE svg PUBLIC "-//W3C//DTD SVG 1.1//EN"
 "http://www.w3.org/Graphics/SVG/1.1/DTD/svg11.dtd">
<!-- Generated by graphviz version 2.38.0 (20140413.2041)
 -->
<!-- Title: C:/projects/ndt/sources/include/ndt/platform Pages: 1 -->
<svg width="254pt" height="111pt"
 viewBox="0.00 0.00 254.00 111.00" xmlns="http://www.w3.org/2000/svg" xmlns:xlink="http://www.w3.org/1999/xlink">
<g id="graph0" class="graph" transform="scale(1 1) rotate(0) translate(4 107)">
<title>C:/projects/ndt/sources/include/ndt/platform</title>
<polygon fill="white" stroke="none" points="-4,4 -4,-107 250,-107 250,4 -4,4"/>
<g id="clust1" class="cluster"><title>clusterdir_483467e87aa0f9633bbb0067d71e5ad5</title>
<g id="a_clust1"><a xlink:href="dir_483467e87aa0f9633bbb0067d71e5ad5.html" target="_top" xlink:title="ndt">
<polygon fill="#ddddee" stroke="black" points="8,-8 8,-95 238,-95 238,-8 8,-8"/>
<text text-anchor="middle" x="123" y="-83" font-family="Helvetica,sans-Serif" font-size="10.00">ndt</text>
</a>
</g>
</g>
<g id="clust2" class="cluster"><title>clusterdir_8f4e6655ef83bad15ab2dfb37f6cf795</title>
<g id="a_clust2"><a xlink:href="dir_8f4e6655ef83bad15ab2dfb37f6cf795.html" target="_top">
<polygon fill="#eeeeff" stroke="black" points="16,-16 16,-68 230,-68 230,-16 16,-16"/>
</a>
</g>
</g>
<!-- dir_8f4e6655ef83bad15ab2dfb37f6cf795 -->
<g id="node1" class="node"><title>dir_8f4e6655ef83bad15ab2dfb37f6cf795</title>
<text text-anchor="middle" x="195" y="-39.5" font-family="Helvetica,sans-Serif" font-size="10.00">platform</text>
</g>
<!-- dir_2db092779df1e461e46cefb653ba053b -->
<g id="node2" class="node"><title>dir_2db092779df1e461e46cefb653ba053b</title>
<g id="a_node2"><a xlink:href="dir_2db092779df1e461e46cefb653ba053b.html" target="_top" xlink:title="nix">
<polygon fill="white" stroke="black" points="150,-60 96,-60 96,-24 150,-24 150,-60"/>
<text text-anchor="middle" x="123" y="-39.5" font-family="Helvetica,sans-Serif" font-size="10.00">nix</text>
</a>
</g>
</g>
<!-- dir_4f1e2fc6feb8f00dae79807112343b63 -->
<g id="node3" class="node"><title>dir_4f1e2fc6feb8f00dae79807112343b63</title>
<g id="a_node3"><a xlink:href="dir_4f1e2fc6feb8f00dae79807112343b63.html" target="_top" xlink:title="win">
<polygon fill="white" stroke="black" points="78,-60 24,-60 24,-24 78,-24 78,-60"/>
<text text-anchor="middle" x="51" y="-39.5" font-family="Helvetica,sans-Serif" font-size="10.00">win</text>
</a>
</g>
</g>
</g>
</svg>
