<?xml version="1.0" encoding="UTF-8" standalone="no"?>
<!DOCTYPE svg PUBLIC "-//W3C//DTD SVG 1.1//EN"
 "http://www.w3.org/Graphics/SVG/1.1/DTD/svg11.dtd">
<!-- Generated by graphviz version 2.38.0 (20140413.2041)
 -->
<!-- Title: C:/projects/ndt/sources/include/ndt Pages: 1 -->
<svg width="164pt" height="183pt"
 viewBox="0.00 0.00 164.00 183.00" xmlns="http://www.w3.org/2000/svg" xmlns:xlink="http://www.w3.org/1999/xlink">
<g id="graph0" class="graph" transform="scale(1 1) rotate(0) translate(4 179)">
<title>C:/projects/ndt/sources/include/ndt</title>
<polygon fill="white" stroke="none" points="-4,4 -4,-179 160,-179 160,4 -4,4"/>
<g id="clust1" class="cluster"><title>clusterdir_da0f06c86f1c908881a669eb19c3ce89</title>
<g id="a_clust1"><a xlink:href="dir_da0f06c86f1c908881a669eb19c3ce89.html" target="_top" xlink:title="include">
<polygon fill="#ddddee" stroke="black" points="8,-8 8,-167 94,-167 94,-8 8,-8"/>
<text text-anchor="middle" x="51" y="-155" font-family="Helvetica,sans-Serif" font-size="10.00">include</text>
</a>
</g>
</g>
<g id="clust2" class="cluster"><title>clusterdir_483467e87aa0f9633bbb0067d71e5ad5</title>
<g id="a_clust2"><a xlink:href="dir_483467e87aa0f9633bbb0067d71e5ad5.html" target="_top">
<polygon fill="#eeeeff" stroke="black" points="16,-16 16,-140 86,-140 86,-16 16,-16"/>
</a>
</g>
</g>
<!-- dir_483467e87aa0f9633bbb0067d71e5ad5 -->
<g id="node1" class="node"><title>dir_483467e87aa0f9633bbb0067d71e5ad5</title>
<text text-anchor="middle" x="51" y="-111.5" font-family="Helvetica,sans-Serif" font-size="10.00">ndt</text>
</g>
<!-- dir_8f4e6655ef83bad15ab2dfb37f6cf795 -->
<g id="node2" class="node"><title>dir_8f4e6655ef83bad15ab2dfb37f6cf795</title>
<g id="a_node2"><a xlink:href="dir_8f4e6655ef83bad15ab2dfb37f6cf795.html" target="_top" xlink:title="platform">
<polygon fill="white" stroke="red" points="78,-60 24,-60 24,-24 78,-24 78,-60"/>
<text text-anchor="middle" x="51" y="-39.5" font-family="Helvetica,sans-Serif" font-size="10.00">platform</text>
</a>
</g>
</g>
<!-- dir_483467e87aa0f9633bbb0067d71e5ad5&#45;&gt;dir_8f4e6655ef83bad15ab2dfb37f6cf795 -->
<g id="edge1" class="edge"><title>dir_483467e87aa0f9633bbb0067d71e5ad5&#45;&gt;dir_8f4e6655ef83bad15ab2dfb37f6cf795</title>
<path fill="none" stroke="black" d="M51,-95.6966C51,-87.9827 51,-78.7125 51,-70.1124"/>
<polygon fill="black" stroke="black" points="54.5001,-70.1043 51,-60.1043 47.5001,-70.1044 54.5001,-70.1043"/>
<g id="a_edge1&#45;headlabel"><a xlink:href="dir_000008_000009.html" target="_top" xlink:title="2">
<text text-anchor="middle" x="57.3393" y="-71.199" font-family="Helvetica,sans-Serif" font-size="10.00">2</text>
</a>
</g>
</g>
<!-- dir_a7e97f178778837bf5cb280f088b9b06 -->
<g id="node3" class="node"><title>dir_a7e97f178778837bf5cb280f088b9b06</title>
<g id="a_node3"><a xlink:href="dir_a7e97f178778837bf5cb280f088b9b06.html" target="_top" xlink:title="deps">
<polygon fill="white" stroke="red" points="156,-60 102,-60 102,-24 156,-24 156,-60"/>
<text text-anchor="middle" x="129" y="-39.5" font-family="Helvetica,sans-Serif" font-size="10.00">deps</text>
</a>
</g>
</g>
<!-- dir_483467e87aa0f9633bbb0067d71e5ad5&#45;&gt;dir_a7e97f178778837bf5cb280f088b9b06 -->
<g id="edge2" class="edge"><title>dir_483467e87aa0f9633bbb0067d71e5ad5&#45;&gt;dir_a7e97f178778837bf5cb280f088b9b06</title>
<path fill="none" stroke="black" d="M70.2809,-95.6966C79.9154,-87.0503 91.7288,-76.4486 102.227,-67.027"/>
<polygon fill="black" stroke="black" points="104.836,-69.3883 109.941,-60.1043 100.161,-64.1786 104.836,-69.3883"/>
<g id="a_edge2&#45;headlabel"><a xlink:href="dir_000008_000000.html" target="_top" xlink:title="1">
<text text-anchor="middle" x="104.057" y="-71.4023" font-family="Helvetica,sans-Serif" font-size="10.00">1</text>
</a>
</g>
</g>
</g>
</svg>
