<?xml version="1.0" encoding="UTF-8" standalone="no"?>
<!DOCTYPE svg PUBLIC "-//W3C//DTD SVG 1.1//EN"
 "http://www.w3.org/Graphics/SVG/1.1/DTD/svg11.dtd">
<!-- Generated by graphviz version 2.38.0 (20140413.2041)
 -->
<!-- Title: C:/projects/ndt/sources/include Pages: 1 -->
<svg width="182pt" height="159pt"
 viewBox="0.00 0.00 182.00 159.00" xmlns="http://www.w3.org/2000/svg" xmlns:xlink="http://www.w3.org/1999/xlink">
<g id="graph0" class="graph" transform="scale(1 1) rotate(0) translate(4 155)">
<title>C:/projects/ndt/sources/include</title>
<polygon fill="white" stroke="none" points="-4,4 -4,-155 178,-155 178,4 -4,4"/>
<g id="clust1" class="cluster"><title>clusterdir_08d237fc27d4ecd563f71c5d52f2fecc</title>
<g id="a_clust1"><a xlink:href="dir_08d237fc27d4ecd563f71c5d52f2fecc.html" target="_top" xlink:title="sources">
<polygon fill="#ddddee" stroke="black" points="8,-56 8,-143 166,-143 166,-56 8,-56"/>
<text text-anchor="middle" x="87" y="-131" font-family="Helvetica,sans-Serif" font-size="10.00">sources</text>
</a>
</g>
</g>
<g id="clust2" class="cluster"><title>clusterdir_da0f06c86f1c908881a669eb19c3ce89</title>
<g id="a_clust2"><a xlink:href="dir_da0f06c86f1c908881a669eb19c3ce89.html" target="_top">
<polygon fill="#eeeeff" stroke="black" points="16,-64 16,-116 158,-116 158,-64 16,-64"/>
</a>
</g>
</g>
<!-- dir_da0f06c86f1c908881a669eb19c3ce89 -->
<g id="node1" class="node"><title>dir_da0f06c86f1c908881a669eb19c3ce89</title>
<text text-anchor="middle" x="123" y="-87.5" font-family="Helvetica,sans-Serif" font-size="10.00">include</text>
</g>
<!-- dir_483467e87aa0f9633bbb0067d71e5ad5 -->
<g id="node2" class="node"><title>dir_483467e87aa0f9633bbb0067d71e5ad5</title>
<g id="a_node2"><a xlink:href="dir_483467e87aa0f9633bbb0067d71e5ad5.html" target="_top" xlink:title="ndt">
<polygon fill="white" stroke="red" points="78,-108 24,-108 24,-72 78,-72 78,-108"/>
<text text-anchor="middle" x="51" y="-87.5" font-family="Helvetica,sans-Serif" font-size="10.00">ndt</text>
</a>
</g>
</g>
<!-- dir_a7e97f178778837bf5cb280f088b9b06 -->
<g id="node3" class="node"><title>dir_a7e97f178778837bf5cb280f088b9b06</title>
<g id="a_node3"><a xlink:href="dir_a7e97f178778837bf5cb280f088b9b06.html" target="_top" xlink:title="deps">
<polygon fill="white" stroke="red" points="78,-36 24,-36 24,-0 78,-0 78,-36"/>
<text text-anchor="middle" x="51" y="-15.5" font-family="Helvetica,sans-Serif" font-size="10.00">deps</text>
</a>
</g>
</g>
<!-- dir_483467e87aa0f9633bbb0067d71e5ad5&#45;&gt;dir_a7e97f178778837bf5cb280f088b9b06 -->
<g id="edge1" class="edge"><title>dir_483467e87aa0f9633bbb0067d71e5ad5&#45;&gt;dir_a7e97f178778837bf5cb280f088b9b06</title>
<path fill="none" stroke="black" d="M51,-71.6966C51,-63.9827 51,-54.7125 51,-46.1124"/>
<polygon fill="black" stroke="black" points="54.5001,-46.1043 51,-36.1043 47.5001,-46.1044 54.5001,-46.1043"/>
<g id="a_edge1&#45;headlabel"><a xlink:href="dir_000008_000000.html" target="_top" xlink:title="1">
<text text-anchor="middle" x="57.3393" y="-47.199" font-family="Helvetica,sans-Serif" font-size="10.00">1</text>
</a>
</g>
</g>
</g>
</svg>
