<?xml version="1.0" encoding="UTF-8" standalone="no"?>
<!DOCTYPE svg PUBLIC "-//W3C//DTD SVG 1.1//EN"
 "http://www.w3.org/Graphics/SVG/1.1/DTD/svg11.dtd">
<!-- Generated by graphviz version 2.38.0 (20140413.2041)
 -->
<!-- Title: C:/projects/ndt/build/deps/ndt_version Pages: 1 -->
<svg width="194pt" height="183pt"
 viewBox="0.00 0.00 194.00 183.00" xmlns="http://www.w3.org/2000/svg" xmlns:xlink="http://www.w3.org/1999/xlink">
<g id="graph0" class="graph" transform="scale(1 1) rotate(0) translate(4 179)">
<title>C:/projects/ndt/build/deps/ndt_version</title>
<polygon fill="white" stroke="none" points="-4,4 -4,-179 190,-179 190,4 -4,4"/>
<g id="clust1" class="cluster"><title>clusterdir_a7e97f178778837bf5cb280f088b9b06</title>
<g id="a_clust1"><a xlink:href="dir_a7e97f178778837bf5cb280f088b9b06.html" target="_top" xlink:title="deps">
<polygon fill="#ddddee" stroke="black" points="8,-8 8,-167 178,-167 178,-8 8,-8"/>
<text text-anchor="middle" x="93" y="-155" font-family="Helvetica,sans-Serif" font-size="10.00">deps</text>
</a>
</g>
</g>
<g id="clust2" class="cluster"><title>clusterdir_871c82e557567510a8be5ccd358e88be</title>
<g id="a_clust2"><a xlink:href="dir_871c82e557567510a8be5ccd358e88be.html" target="_top">
<polygon fill="#eeeeff" stroke="black" points="16,-16 16,-140 170,-140 170,-16 16,-16"/>
</a>
</g>
</g>
<!-- dir_871c82e557567510a8be5ccd358e88be -->
<g id="node1" class="node"><title>dir_871c82e557567510a8be5ccd358e88be</title>
<text text-anchor="middle" x="129" y="-111.5" font-family="Helvetica,sans-Serif" font-size="10.00">ndt_version</text>
</g>
<!-- dir_74fb0c732a5545e79cf0fc059dd10776 -->
<g id="node2" class="node"><title>dir_74fb0c732a5545e79cf0fc059dd10776</title>
<g id="a_node2"><a xlink:href="dir_74fb0c732a5545e79cf0fc059dd10776.html" target="_top" xlink:title="include">
<polygon fill="white" stroke="red" points="78,-60 24,-60 24,-24 78,-24 78,-60"/>
<text text-anchor="middle" x="51" y="-39.5" font-family="Helvetica,sans-Serif" font-size="10.00">include</text>
</a>
</g>
</g>
<!-- dir_8a273d8c55e82f382b3e3f3bbd3f6e97 -->
<g id="node3" class="node"><title>dir_8a273d8c55e82f382b3e3f3bbd3f6e97</title>
<g id="a_node3"><a xlink:href="dir_8a273d8c55e82f382b3e3f3bbd3f6e97.html" target="_top" xlink:title="src">
<polygon fill="white" stroke="red" points="78,-132 24,-132 24,-96 78,-96 78,-132"/>
<text text-anchor="middle" x="51" y="-111.5" font-family="Helvetica,sans-Serif" font-size="10.00">src</text>
</a>
</g>
</g>
<!-- dir_8a273d8c55e82f382b3e3f3bbd3f6e97&#45;&gt;dir_74fb0c732a5545e79cf0fc059dd10776 -->
<g id="edge1" class="edge"><title>dir_8a273d8c55e82f382b3e3f3bbd3f6e97&#45;&gt;dir_74fb0c732a5545e79cf0fc059dd10776</title>
<path fill="none" stroke="black" d="M51,-95.6966C51,-87.9827 51,-78.7125 51,-70.1124"/>
<polygon fill="black" stroke="black" points="54.5001,-70.1043 51,-60.1043 47.5001,-70.1044 54.5001,-70.1043"/>
<g id="a_edge1&#45;headlabel"><a xlink:href="dir_000004_000002.html" target="_top" xlink:title="5">
<text text-anchor="middle" x="57.3393" y="-71.199" font-family="Helvetica,sans-Serif" font-size="10.00">5</text>
</a>
</g>
</g>
</g>
</svg>
