<?xml version="1.0" encoding="UTF-8" standalone="no"?>
<!DOCTYPE svg PUBLIC "-//W3C//DTD SVG 1.1//EN"
 "http://www.w3.org/Graphics/SVG/1.1/DTD/svg11.dtd">
<!-- Generated by graphviz version 2.38.0 (20140413.2041)
 -->
<!-- Title: C:/projects/ndt/sources/src Pages: 1 -->
<svg width="182pt" height="175pt"
 viewBox="0.00 0.00 182.00 175.00" xmlns="http://www.w3.org/2000/svg" xmlns:xlink="http://www.w3.org/1999/xlink">
<g id="graph0" class="graph" transform="scale(1 1) rotate(0) translate(4 171)">
<title>C:/projects/ndt/sources/src</title>
<polygon fill="white" stroke="none" points="-4,4 -4,-171 178,-171 178,4 -4,4"/>
<g id="clust1" class="cluster"><title>clusterdir_08d237fc27d4ecd563f71c5d52f2fecc</title>
<g id="a_clust1"><a xlink:href="dir_08d237fc27d4ecd563f71c5d52f2fecc.html" target="_top" xlink:title="sources">
<polygon fill="#ddddee" stroke="black" points="8,-8 8,-159 166,-159 166,-8 8,-8"/>
<text text-anchor="middle" x="87" y="-147" font-family="Helvetica,sans-Serif" font-size="10.00">sources</text>
</a>
</g>
</g>
<g id="clust2" class="cluster"><title>clusterdir_370a05bc919a3b485116f307abacd69c</title>
<g id="a_clust2"><a xlink:href="dir_370a05bc919a3b485116f307abacd69c.html" target="_top">
<polygon fill="#eeeeff" stroke="black" points="16,-80 16,-132 158,-132 158,-80 16,-80"/>
</a>
</g>
</g>
<!-- dir_da0f06c86f1c908881a669eb19c3ce89 -->
<g id="node1" class="node"><title>dir_da0f06c86f1c908881a669eb19c3ce89</title>
<g id="a_node1"><a xlink:href="dir_da0f06c86f1c908881a669eb19c3ce89.html" target="_top" xlink:title="include">
<polygon fill="white" stroke="red" points="114,-52 60,-52 60,-16 114,-16 114,-52"/>
<text text-anchor="middle" x="87" y="-31.5" font-family="Helvetica,sans-Serif" font-size="10.00">include</text>
</a>
</g>
</g>
<!-- dir_370a05bc919a3b485116f307abacd69c -->
<g id="node2" class="node"><title>dir_370a05bc919a3b485116f307abacd69c</title>
<text text-anchor="middle" x="123" y="-103.5" font-family="Helvetica,sans-Serif" font-size="10.00">src</text>
</g>
<!-- dir_370a05bc919a3b485116f307abacd69c&#45;&gt;dir_da0f06c86f1c908881a669eb19c3ce89 -->
<g id="edge2" class="edge"><title>dir_370a05bc919a3b485116f307abacd69c&#45;&gt;dir_da0f06c86f1c908881a669eb19c3ce89</title>
<path fill="none" stroke="black" d="M114.101,-87.6966C110.003,-79.7284 105.051,-70.0995 100.507,-61.2641"/>
<polygon fill="black" stroke="black" points="103.483,-59.3965 95.7965,-52.1043 97.2575,-62.598 103.483,-59.3965"/>
<g id="a_edge2&#45;headlabel"><a xlink:href="dir_000012_000007.html" target="_top" xlink:title="14">
<text text-anchor="middle" x="107.651" y="-58.7946" font-family="Helvetica,sans-Serif" font-size="10.00">14</text>
</a>
</g>
</g>
<!-- dir_42a59d76bafd8e60611c4d7d1680fcb9 -->
<g id="node3" class="node"><title>dir_42a59d76bafd8e60611c4d7d1680fcb9</title>
<g id="a_node3"><a xlink:href="dir_42a59d76bafd8e60611c4d7d1680fcb9.html" target="_top" xlink:title="platform">
<polygon fill="white" stroke="red" points="78,-124 24,-124 24,-88 78,-88 78,-124"/>
<text text-anchor="middle" x="51" y="-103.5" font-family="Helvetica,sans-Serif" font-size="10.00">platform</text>
</a>
</g>
</g>
<!-- dir_42a59d76bafd8e60611c4d7d1680fcb9&#45;&gt;dir_da0f06c86f1c908881a669eb19c3ce89 -->
<g id="edge1" class="edge"><title>dir_42a59d76bafd8e60611c4d7d1680fcb9&#45;&gt;dir_da0f06c86f1c908881a669eb19c3ce89</title>
<path fill="none" stroke="black" d="M59.8989,-87.6966C63.9968,-79.7284 68.9488,-70.0995 73.4927,-61.2641"/>
<polygon fill="black" stroke="black" points="76.7425,-62.598 78.2035,-52.1043 70.5174,-59.3965 76.7425,-62.598"/>
<g id="a_edge1&#45;headlabel"><a xlink:href="dir_000013_000007.html" target="_top" xlink:title="1">
<text text-anchor="middle" x="77.6235" y="-64.5931" font-family="Helvetica,sans-Serif" font-size="10.00">1</text>
</a>
</g>
</g>
</g>
</svg>
