<?xml version="1.0" encoding="UTF-8" standalone="no"?>
<!DOCTYPE svg PUBLIC "-//W3C//DTD SVG 1.1//EN"
 "http://www.w3.org/Graphics/SVG/1.1/DTD/svg11.dtd">
<!-- Generated by graphviz version 2.38.0 (20140413.2041)
 -->
<!-- Title: C:/projects/ndt/build/deps/ndt_version/src Pages: 1 -->
<svg width="182pt" height="175pt"
 viewBox="0.00 0.00 182.00 175.00" xmlns="http://www.w3.org/2000/svg" xmlns:xlink="http://www.w3.org/1999/xlink">
<g id="graph0" class="graph" transform="scale(1 1) rotate(0) translate(4 171)">
<title>C:/projects/ndt/build/deps/ndt_version/src</title>
<polygon fill="white" stroke="none" points="-4,4 -4,-171 178,-171 178,4 -4,4"/>
<g id="clust1" class="cluster"><title>clusterdir_871c82e557567510a8be5ccd358e88be</title>
<g id="a_clust1"><a xlink:href="dir_871c82e557567510a8be5ccd358e88be.html" target="_top" xlink:title="ndt_version">
<polygon fill="#ddddee" stroke="black" points="8,-8 8,-159 166,-159 166,-8 8,-8"/>
<text text-anchor="middle" x="87" y="-147" font-family="Helvetica,sans-Serif" font-size="10.00">ndt_version</text>
</a>
</g>
</g>
<g id="clust2" class="cluster"><title>clusterdir_8a273d8c55e82f382b3e3f3bbd3f6e97</title>
<g id="a_clust2"><a xlink:href="dir_8a273d8c55e82f382b3e3f3bbd3f6e97.html" target="_top">
<polygon fill="#eeeeff" stroke="black" points="16,-80 16,-132 158,-132 158,-80 16,-80"/>
</a>
</g>
</g>
<!-- dir_74fb0c732a5545e79cf0fc059dd10776 -->
<g id="node1" class="node"><title>dir_74fb0c732a5545e79cf0fc059dd10776</title>
<g id="a_node1"><a xlink:href="dir_74fb0c732a5545e79cf0fc059dd10776.html" target="_top" xlink:title="include">
<polygon fill="white" stroke="red" points="78,-52 24,-52 24,-16 78,-16 78,-52"/>
<text text-anchor="middle" x="51" y="-31.5" font-family="Helvetica,sans-Serif" font-size="10.00">include</text>
</a>
</g>
</g>
<!-- dir_8a273d8c55e82f382b3e3f3bbd3f6e97 -->
<g id="node2" class="node"><title>dir_8a273d8c55e82f382b3e3f3bbd3f6e97</title>
<text text-anchor="middle" x="123" y="-103.5" font-family="Helvetica,sans-Serif" font-size="10.00">src</text>
</g>
<!-- dir_d6c41591f5275e12040f15023fd4369e -->
<g id="node3" class="node"><title>dir_d6c41591f5275e12040f15023fd4369e</title>
<g id="a_node3"><a xlink:href="dir_d6c41591f5275e12040f15023fd4369e.html" target="_top" xlink:title="ndt">
<polygon fill="white" stroke="black" points="78,-124 24,-124 24,-88 78,-88 78,-124"/>
<text text-anchor="middle" x="51" y="-103.5" font-family="Helvetica,sans-Serif" font-size="10.00">ndt</text>
</a>
</g>
</g>
<!-- dir_d6c41591f5275e12040f15023fd4369e&#45;&gt;dir_74fb0c732a5545e79cf0fc059dd10776 -->
<g id="edge1" class="edge"><title>dir_d6c41591f5275e12040f15023fd4369e&#45;&gt;dir_74fb0c732a5545e79cf0fc059dd10776</title>
<path fill="none" stroke="black" d="M51,-87.6966C51,-79.9827 51,-70.7125 51,-62.1124"/>
<polygon fill="black" stroke="black" points="54.5001,-62.1043 51,-52.1043 47.5001,-62.1044 54.5001,-62.1043"/>
<g id="a_edge1&#45;headlabel"><a xlink:href="dir_000005_000002.html" target="_top" xlink:title="5">
<text text-anchor="middle" x="57.3393" y="-63.199" font-family="Helvetica,sans-Serif" font-size="10.00">5</text>
</a>
</g>
</g>
</g>
</svg>
