<?xml version="1.0" encoding="UTF-8" standalone="no"?>
<!DOCTYPE svg PUBLIC "-//W3C//DTD SVG 1.1//EN"
 "http://www.w3.org/Graphics/SVG/1.1/DTD/svg11.dtd">
<!-- Generated by graphviz version 2.38.0 (20140413.2041)
 -->
<!-- Title: C:/projects/ndt/sources/include/ndt/endian.h Pages: 1 -->
<svg width="506pt" height="240pt"
 viewBox="0.00 0.00 506.00 240.00" xmlns="http://www.w3.org/2000/svg" xmlns:xlink="http://www.w3.org/1999/xlink">
<g id="graph0" class="graph" transform="scale(1 1) rotate(0) translate(4 236)">
<title>C:/projects/ndt/sources/include/ndt/endian.h</title>
<polygon fill="white" stroke="none" points="-4,4 -4,-236 502,-236 502,4 -4,4"/>
<!-- Node1 -->
<g id="node1" class="node"><title>Node1</title>
<g id="a_node1"><a xlink:title=" ">
<polygon fill="#bfbfbf" stroke="black" points="293,-201.5 293,-231.5 411,-231.5 411,-201.5 293,-201.5"/>
<text text-anchor="start" x="301" y="-219.5" font-family="Helvetica,sans-Serif" font-size="10.00">C:/projects/ndt/sources</text>
<text text-anchor="middle" x="352" y="-208.5" font-family="Helvetica,sans-Serif" font-size="10.00">/include/ndt/endian.h</text>
</a>
</g>
</g>
<!-- Node2 -->
<g id="node2" class="node"><title>Node2</title>
<g id="a_node2"><a xlink:href="bin__rw_8h.html" target="_top" xlink:title=" ">
<polygon fill="white" stroke="black" points="179,-134.5 179,-164.5 297,-164.5 297,-134.5 179,-134.5"/>
<text text-anchor="start" x="187" y="-152.5" font-family="Helvetica,sans-Serif" font-size="10.00">C:/projects/ndt/sources</text>
<text text-anchor="middle" x="238" y="-141.5" font-family="Helvetica,sans-Serif" font-size="10.00">/include/ndt/bin_rw.h</text>
</a>
</g>
</g>
<!-- Node1&#45;&gt;Node2 -->
<g id="edge1" class="edge"><title>Node1&#45;&gt;Node2</title>
<path fill="none" stroke="midnightblue" d="M318.318,-196.296C300.48,-186.125 278.961,-173.855 262.688,-164.577"/>
<polygon fill="midnightblue" stroke="midnightblue" points="316.843,-199.483 327.264,-201.396 320.31,-193.402 316.843,-199.483"/>
</g>
<!-- Node3 -->
<g id="node3" class="node"><title>Node3</title>
<g id="a_node3"><a xlink:href="core_8h.html" target="_top" xlink:title=" ">
<polygon fill="white" stroke="black" points="203,-0.5 203,-30.5 321,-30.5 321,-0.5 203,-0.5"/>
<text text-anchor="start" x="211" y="-18.5" font-family="Helvetica,sans-Serif" font-size="10.00">C:/projects/ndt/sources</text>
<text text-anchor="middle" x="262" y="-7.5" font-family="Helvetica,sans-Serif" font-size="10.00">/include/ndt/core.h</text>
</a>
</g>
</g>
<!-- Node1&#45;&gt;Node3 -->
<g id="edge8" class="edge"><title>Node1&#45;&gt;Node3</title>
<path fill="none" stroke="midnightblue" d="M348.76,-190.902C343.915,-160.245 332.796,-107.016 310,-67 302.097,-53.1267 289.582,-40.1338 279.313,-30.8019"/>
<polygon fill="midnightblue" stroke="midnightblue" points="345.345,-191.73 350.272,-201.109 352.269,-190.704 345.345,-191.73"/>
</g>
<!-- Node7 -->
<g id="node7" class="node"><title>Node7</title>
<g id="a_node7"><a xlink:href="endian_8cpp.html" target="_top" xlink:title=" ">
<polygon fill="white" stroke="black" points="380,-134.5 380,-164.5 498,-164.5 498,-134.5 380,-134.5"/>
<text text-anchor="start" x="388" y="-152.5" font-family="Helvetica,sans-Serif" font-size="10.00">C:/projects/ndt/sources</text>
<text text-anchor="middle" x="439" y="-141.5" font-family="Helvetica,sans-Serif" font-size="10.00">/src/endian.cpp</text>
</a>
</g>
</g>
<!-- Node1&#45;&gt;Node7 -->
<g id="edge9" class="edge"><title>Node1&#45;&gt;Node7</title>
<path fill="none" stroke="midnightblue" d="M379.214,-195.168C392.518,-185.228 408.196,-173.514 420.159,-164.577"/>
<polygon fill="midnightblue" stroke="midnightblue" points="376.794,-192.607 370.878,-201.396 380.984,-198.215 376.794,-192.607"/>
</g>
<!-- Node2&#45;&gt;Node3 -->
<g id="edge2" class="edge"><title>Node2&#45;&gt;Node3</title>
<path fill="none" stroke="midnightblue" d="M270.128,-128.145C279.997,-120.076 289.659,-109.868 295,-98 305.462,-74.7529 288.231,-47.1535 274.986,-30.773"/>
<polygon fill="midnightblue" stroke="midnightblue" points="267.726,-125.575 261.879,-134.41 271.959,-131.149 267.726,-125.575"/>
</g>
<!-- Node4 -->
<g id="node4" class="node"><title>Node4</title>
<g id="a_node4"><a xlink:href="packet_8h.html" target="_top" xlink:title=" ">
<polygon fill="white" stroke="black" points="0,-67.5 0,-97.5 118,-97.5 118,-67.5 0,-67.5"/>
<text text-anchor="start" x="8" y="-85.5" font-family="Helvetica,sans-Serif" font-size="10.00">C:/projects/ndt/sources</text>
<text text-anchor="middle" x="59" y="-74.5" font-family="Helvetica,sans-Serif" font-size="10.00">/include/ndt/packet.h</text>
</a>
</g>
</g>
<!-- Node2&#45;&gt;Node4 -->
<g id="edge3" class="edge"><title>Node2&#45;&gt;Node4</title>
<path fill="none" stroke="midnightblue" d="M189.684,-130.955C160.85,-120.485 124.722,-107.366 97.7645,-97.5765"/>
<polygon fill="midnightblue" stroke="midnightblue" points="188.566,-134.273 199.16,-134.396 190.955,-127.693 188.566,-134.273"/>
</g>
<!-- Node6 -->
<g id="node6" class="node"><title>Node6</title>
<g id="a_node6"><a xlink:href="packet__handlers_8h.html" target="_top" xlink:title=" ">
<polygon fill="white" stroke="black" points="136.5,-67.5 136.5,-97.5 285.5,-97.5 285.5,-67.5 136.5,-67.5"/>
<text text-anchor="start" x="144.5" y="-85.5" font-family="Helvetica,sans-Serif" font-size="10.00">C:/projects/ndt/sources</text>
<text text-anchor="middle" x="211" y="-74.5" font-family="Helvetica,sans-Serif" font-size="10.00">/include/ndt/packet_handlers.h</text>
</a>
</g>
</g>
<!-- Node2&#45;&gt;Node6 -->
<g id="edge6" class="edge"><title>Node2&#45;&gt;Node6</title>
<path fill="none" stroke="midnightblue" d="M228.235,-124.991C224.419,-115.804 220.171,-105.578 216.847,-97.5765"/>
<polygon fill="midnightblue" stroke="midnightblue" points="225.073,-126.504 232.141,-134.396 231.538,-123.818 225.073,-126.504"/>
</g>
<!-- Node4&#45;&gt;Node3 -->
<g id="edge4" class="edge"><title>Node4&#45;&gt;Node3</title>
<path fill="none" stroke="midnightblue" d="M112.942,-64.2278C145.781,-53.7131 187.2,-40.4508 218.038,-30.5765"/>
<polygon fill="midnightblue" stroke="midnightblue" points="111.504,-61.0131 103.048,-67.396 113.639,-67.6797 111.504,-61.0131"/>
</g>
<!-- Node5 -->
<g id="node5" class="node"><title>Node5</title>
<g id="a_node5"><a xlink:href="packet_8cpp.html" target="_top" xlink:title=" ">
<polygon fill="white" stroke="black" points="0,-0.5 0,-30.5 118,-30.5 118,-0.5 0,-0.5"/>
<text text-anchor="start" x="8" y="-18.5" font-family="Helvetica,sans-Serif" font-size="10.00">C:/projects/ndt/sources</text>
<text text-anchor="middle" x="59" y="-7.5" font-family="Helvetica,sans-Serif" font-size="10.00">/src/packet.cpp</text>
</a>
</g>
</g>
<!-- Node4&#45;&gt;Node5 -->
<g id="edge5" class="edge"><title>Node4&#45;&gt;Node5</title>
<path fill="none" stroke="midnightblue" d="M59,-57.1081C59,-48.1539 59,-38.3227 59,-30.5765"/>
<polygon fill="midnightblue" stroke="midnightblue" points="55.5001,-57.3959 59,-67.396 62.5001,-57.396 55.5001,-57.3959"/>
</g>
<!-- Node6&#45;&gt;Node3 -->
<g id="edge7" class="edge"><title>Node6&#45;&gt;Node3</title>
<path fill="none" stroke="midnightblue" d="M228.303,-59.4472C235.795,-49.8986 244.343,-39.0037 250.955,-30.5765"/>
<polygon fill="midnightblue" stroke="midnightblue" points="225.486,-57.368 222.066,-67.396 230.993,-61.6891 225.486,-57.368"/>
</g>
</g>
</svg>
