<?xml version="1.0" encoding="UTF-8" standalone="no"?>
<!DOCTYPE svg PUBLIC "-//W3C//DTD SVG 1.1//EN"
 "http://www.w3.org/Graphics/SVG/1.1/DTD/svg11.dtd">
<!-- Generated by graphviz version 2.38.0 (20140413.2041)
 -->
<!-- Title: C:/projects/ndt/sources/include/ndt/endian.h Pages: 1 -->
<svg width="404pt" height="95pt"
 viewBox="0.00 0.00 404.00 95.00" xmlns="http://www.w3.org/2000/svg" xmlns:xlink="http://www.w3.org/1999/xlink">
<g id="graph0" class="graph" transform="scale(1 1) rotate(0) translate(4 91)">
<title>C:/projects/ndt/sources/include/ndt/endian.h</title>
<polygon fill="white" stroke="none" points="-4,4 -4,-91 400,-91 400,4 -4,4"/>
<!-- Node1 -->
<g id="node1" class="node"><title>Node1</title>
<g id="a_node1"><a xlink:title=" ">
<polygon fill="#bfbfbf" stroke="black" points="101,-56.5 101,-86.5 219,-86.5 219,-56.5 101,-56.5"/>
<text text-anchor="start" x="109" y="-74.5" font-family="Helvetica,sans-Serif" font-size="10.00">C:/projects/ndt/sources</text>
<text text-anchor="middle" x="160" y="-63.5" font-family="Helvetica,sans-Serif" font-size="10.00">/include/ndt/endian.h</text>
</a>
</g>
</g>
<!-- Node2 -->
<g id="node2" class="node"><title>Node2</title>
<g id="a_node2"><a xlink:title=" ">
<polygon fill="white" stroke="#bfbfbf" points="0,-0.5 0,-19.5 46,-19.5 46,-0.5 0,-0.5"/>
<text text-anchor="middle" x="23" y="-7.5" font-family="Helvetica,sans-Serif" font-size="10.00">cstdint</text>
</a>
</g>
</g>
<!-- Node1&#45;&gt;Node2 -->
<g id="edge1" class="edge"><title>Node1&#45;&gt;Node2</title>
<path fill="none" stroke="midnightblue" d="M127.533,-56.3993C104.649,-46.4608 74.2655,-33.2649 52.1556,-23.6625"/>
<polygon fill="midnightblue" stroke="midnightblue" points="53.5013,-20.4311 42.9347,-19.6578 50.7127,-26.8517 53.5013,-20.4311"/>
</g>
<!-- Node3 -->
<g id="node3" class="node"><title>Node3</title>
<g id="a_node3"><a xlink:title=" ">
<polygon fill="white" stroke="#bfbfbf" points="64,-0.5 64,-19.5 110,-19.5 110,-0.5 64,-0.5"/>
<text text-anchor="middle" x="87" y="-7.5" font-family="Helvetica,sans-Serif" font-size="10.00">cstring</text>
</a>
</g>
</g>
<!-- Node1&#45;&gt;Node3 -->
<g id="edge2" class="edge"><title>Node1&#45;&gt;Node3</title>
<path fill="none" stroke="midnightblue" d="M142.7,-56.3993C131.545,-47.3076 117.046,-35.4899 105.638,-26.1909"/>
<polygon fill="midnightblue" stroke="midnightblue" points="107.585,-23.2627 97.6221,-19.6578 103.162,-28.6887 107.585,-23.2627"/>
</g>
<!-- Node4 -->
<g id="node4" class="node"><title>Node4</title>
<g id="a_node4"><a xlink:title=" ">
<polygon fill="white" stroke="#bfbfbf" points="128,-0.5 128,-19.5 192,-19.5 192,-0.5 128,-0.5"/>
<text text-anchor="middle" x="160" y="-7.5" font-family="Helvetica,sans-Serif" font-size="10.00">string_view</text>
</a>
</g>
</g>
<!-- Node1&#45;&gt;Node4 -->
<g id="edge3" class="edge"><title>Node1&#45;&gt;Node4</title>
<path fill="none" stroke="midnightblue" d="M160,-56.3993C160,-48.4664 160,-38.458 160,-29.8583"/>
<polygon fill="midnightblue" stroke="midnightblue" points="163.5,-29.6577 160,-19.6578 156.5,-29.6578 163.5,-29.6577"/>
</g>
<!-- Node5 -->
<g id="node5" class="node"><title>Node5</title>
<g id="a_node5"><a xlink:title=" ">
<polygon fill="white" stroke="#bfbfbf" points="210,-0.5 210,-19.5 272,-19.5 272,-0.5 210,-0.5"/>
<text text-anchor="middle" x="241" y="-7.5" font-family="Helvetica,sans-Serif" font-size="10.00">type_traits</text>
</a>
</g>
</g>
<!-- Node1&#45;&gt;Node5 -->
<g id="edge4" class="edge"><title>Node1&#45;&gt;Node5</title>
<path fill="none" stroke="midnightblue" d="M179.196,-56.3993C191.816,-47.1293 208.293,-35.0254 221.061,-25.6469"/>
<polygon fill="midnightblue" stroke="midnightblue" points="223.227,-28.3987 229.214,-19.6578 219.082,-22.7572 223.227,-28.3987"/>
</g>
<!-- Node6 -->
<g id="node6" class="node"><title>Node6</title>
<g id="a_node6"><a xlink:href="useful__base__types_8h.html" target="_top" xlink:title=" ">
<polygon fill="white" stroke="black" points="290,-0.5 290,-19.5 396,-19.5 396,-0.5 290,-0.5"/>
<text text-anchor="middle" x="343" y="-7.5" font-family="Helvetica,sans-Serif" font-size="10.00">useful_base_types.h</text>
</a>
</g>
</g>
<!-- Node1&#45;&gt;Node6 -->
<g id="edge5" class="edge"><title>Node1&#45;&gt;Node6</title>
<path fill="none" stroke="midnightblue" d="M203.368,-56.3993C234.99,-46.118 277.333,-32.3506 307.071,-22.6818"/>
<polygon fill="midnightblue" stroke="midnightblue" points="308.211,-25.9915 316.639,-19.5709 306.047,-19.3345 308.211,-25.9915"/>
</g>
</g>
</svg>
