<?xml version="1.0" encoding="UTF-8" standalone="no"?>
<!DOCTYPE svg PUBLIC "-//W3C//DTD SVG 1.1//EN"
 "http://www.w3.org/Graphics/SVG/1.1/DTD/svg11.dtd">
<!-- Generated by graphviz version 2.38.0 (20140413.2041)
 -->
<!-- Title: C:/projects/ndt/sources/include/ndt/endian.h Pages: 1 -->
<svg width="1138pt" height="619pt"
 viewBox="0.00 0.00 1138.00 619.00" xmlns="http://www.w3.org/2000/svg" xmlns:xlink="http://www.w3.org/1999/xlink">
<g id="graph0" class="graph" transform="scale(1 1) rotate(0) translate(4 615)">
<title>C:/projects/ndt/sources/include/ndt/endian.h</title>
<polygon fill="white" stroke="none" points="-4,4 -4,-615 1134,-615 1134,4 -4,4"/>
<!-- Node1 -->
<g id="node1" class="node"><title>Node1</title>
<g id="a_node1"><a xlink:title=" ">
<polygon fill="#bfbfbf" stroke="black" points="925,-580.5 925,-610.5 1043,-610.5 1043,-580.5 925,-580.5"/>
<text text-anchor="start" x="933" y="-598.5" font-family="Helvetica,sans-Serif" font-size="10.00">C:/projects/ndt/sources</text>
<text text-anchor="middle" x="984" y="-587.5" font-family="Helvetica,sans-Serif" font-size="10.00">/include/ndt/endian.h</text>
</a>
</g>
</g>
<!-- Node2 -->
<g id="node2" class="node"><title>Node2</title>
<g id="a_node2"><a xlink:href="bin__rw_8h.html" target="_top" xlink:title=" ">
<polygon fill="white" stroke="black" points="615,-513.5 615,-543.5 733,-543.5 733,-513.5 615,-513.5"/>
<text text-anchor="start" x="623" y="-531.5" font-family="Helvetica,sans-Serif" font-size="10.00">C:/projects/ndt/sources</text>
<text text-anchor="middle" x="674" y="-520.5" font-family="Helvetica,sans-Serif" font-size="10.00">/include/ndt/bin_rw.h</text>
</a>
</g>
</g>
<!-- Node1&#45;&gt;Node2 -->
<g id="edge1" class="edge"><title>Node1&#45;&gt;Node2</title>
<path fill="none" stroke="midnightblue" d="M915.017,-580.036C860.404,-568.585 784.941,-552.762 733.082,-541.888"/>
<polygon fill="midnightblue" stroke="midnightblue" points="914.456,-583.494 924.962,-582.121 915.893,-576.643 914.456,-583.494"/>
</g>
<!-- Node4 -->
<g id="node4" class="node"><title>Node4</title>
<g id="a_node4"><a xlink:href="core_8h.html" target="_top" xlink:title=" ">
<polygon fill="white" stroke="black" points="239,-0.5 239,-30.5 357,-30.5 357,-0.5 239,-0.5"/>
<text text-anchor="start" x="247" y="-18.5" font-family="Helvetica,sans-Serif" font-size="10.00">C:/projects/ndt/sources</text>
<text text-anchor="middle" x="298" y="-7.5" font-family="Helvetica,sans-Serif" font-size="10.00">/include/ndt/core.h</text>
</a>
</g>
</g>
<!-- Node1&#45;&gt;Node4 -->
<g id="edge27" class="edge"><title>Node1&#45;&gt;Node4</title>
<path fill="none" stroke="midnightblue" d="M984,-569.989C984,-543.487 984,-499.997 984,-462.5 984,-462.5 984,-462.5 984,-165 984,-37.2038 523.48,-19.1339 357.082,-16.7759"/>
<polygon fill="midnightblue" stroke="midnightblue" points="980.5,-570.241 984,-580.241 987.5,-570.241 980.5,-570.241"/>
</g>
<!-- Node18 -->
<g id="node18" class="node"><title>Node18</title>
<g id="a_node18"><a xlink:href="endian_8cpp.html" target="_top" xlink:title=" ">
<polygon fill="white" stroke="black" points="1012,-513.5 1012,-543.5 1130,-543.5 1130,-513.5 1012,-513.5"/>
<text text-anchor="start" x="1020" y="-531.5" font-family="Helvetica,sans-Serif" font-size="10.00">C:/projects/ndt/sources</text>
<text text-anchor="middle" x="1071" y="-520.5" font-family="Helvetica,sans-Serif" font-size="10.00">/src/endian.cpp</text>
</a>
</g>
</g>
<!-- Node1&#45;&gt;Node18 -->
<g id="edge28" class="edge"><title>Node1&#45;&gt;Node18</title>
<path fill="none" stroke="midnightblue" d="M1011.21,-574.168C1024.52,-564.228 1040.2,-552.514 1052.16,-543.577"/>
<polygon fill="midnightblue" stroke="midnightblue" points="1008.79,-571.607 1002.88,-580.396 1012.98,-577.215 1008.79,-571.607"/>
</g>
<!-- Node3 -->
<g id="node3" class="node"><title>Node3</title>
<g id="a_node3"><a xlink:href="address_8h.html" target="_top" xlink:title=" ">
<polygon fill="white" stroke="black" points="334,-446.5 334,-476.5 452,-476.5 452,-446.5 334,-446.5"/>
<text text-anchor="start" x="342" y="-464.5" font-family="Helvetica,sans-Serif" font-size="10.00">C:/projects/ndt/sources</text>
<text text-anchor="middle" x="393" y="-453.5" font-family="Helvetica,sans-Serif" font-size="10.00">/include/ndt/address.h</text>
</a>
</g>
</g>
<!-- Node2&#45;&gt;Node3 -->
<g id="edge2" class="edge"><title>Node2&#45;&gt;Node3</title>
<path fill="none" stroke="midnightblue" d="M604.981,-511.535C558.119,-500.695 496.795,-486.51 452.168,-476.187"/>
<polygon fill="midnightblue" stroke="midnightblue" points="604.219,-514.951 614.75,-513.795 605.797,-508.131 604.219,-514.951"/>
</g>
<!-- Node2&#45;&gt;Node4 -->
<g id="edge21" class="edge"><title>Node2&#45;&gt;Node4</title>
<path fill="none" stroke="midnightblue" d="M662.846,-503.859C651.634,-477.89 636,-434.658 636,-395.5 636,-395.5 636,-395.5 636,-165 636,-44.6629 454.199,-20.9617 357.262,-16.8773"/>
<polygon fill="midnightblue" stroke="midnightblue" points="659.76,-505.532 667.03,-513.238 666.152,-502.68 659.76,-505.532"/>
</g>
<!-- Node14 -->
<g id="node14" class="node"><title>Node14</title>
<g id="a_node14"><a xlink:href="address_8cpp.html" target="_top" xlink:title=" ">
<polygon fill="white" stroke="black" points="454,-379.5 454,-409.5 572,-409.5 572,-379.5 454,-379.5"/>
<text text-anchor="start" x="462" y="-397.5" font-family="Helvetica,sans-Serif" font-size="10.00">C:/projects/ndt/sources</text>
<text text-anchor="middle" x="513" y="-386.5" font-family="Helvetica,sans-Serif" font-size="10.00">/src/address.cpp</text>
</a>
</g>
</g>
<!-- Node2&#45;&gt;Node14 -->
<g id="edge26" class="edge"><title>Node2&#45;&gt;Node14</title>
<path fill="none" stroke="midnightblue" d="M648.921,-506.938C615.867,-479.838 558.59,-432.878 530.106,-409.525"/>
<polygon fill="midnightblue" stroke="midnightblue" points="646.818,-509.74 656.77,-513.374 651.256,-504.327 646.818,-509.74"/>
</g>
<!-- Node15 -->
<g id="node15" class="node"><title>Node15</title>
<g id="a_node15"><a xlink:href="packet__handlers_8h.html" target="_top" xlink:title=" ">
<polygon fill="white" stroke="black" points="664.5,-151 664.5,-181 813.5,-181 813.5,-151 664.5,-151"/>
<text text-anchor="start" x="672.5" y="-169" font-family="Helvetica,sans-Serif" font-size="10.00">C:/projects/ndt/sources</text>
<text text-anchor="middle" x="739" y="-158" font-family="Helvetica,sans-Serif" font-size="10.00">/include/ndt/packet_handlers.h</text>
</a>
</g>
</g>
<!-- Node2&#45;&gt;Node15 -->
<g id="edge22" class="edge"><title>Node2&#45;&gt;Node15</title>
<path fill="none" stroke="midnightblue" d="M674,-502.989C674,-476.487 674,-432.997 674,-395.5 674,-395.5 674,-395.5 674,-321 674,-265.572 710.183,-207.128 728.557,-181.023"/>
<polygon fill="midnightblue" stroke="midnightblue" points="670.5,-503.241 674,-513.241 677.5,-503.241 670.5,-503.241"/>
</g>
<!-- Node16 -->
<g id="node16" class="node"><title>Node16</title>
<g id="a_node16"><a xlink:href="serialize_8h.html" target="_top" xlink:title=" ">
<polygon fill="white" stroke="black" points="702,-446.5 702,-476.5 820,-476.5 820,-446.5 702,-446.5"/>
<text text-anchor="start" x="710" y="-464.5" font-family="Helvetica,sans-Serif" font-size="10.00">C:/projects/ndt/sources</text>
<text text-anchor="middle" x="761" y="-453.5" font-family="Helvetica,sans-Serif" font-size="10.00">/include/ndt/serialize.h</text>
</a>
</g>
</g>
<!-- Node2&#45;&gt;Node16 -->
<g id="edge24" class="edge"><title>Node2&#45;&gt;Node16</title>
<path fill="none" stroke="midnightblue" d="M701.214,-507.168C714.518,-497.228 730.196,-485.514 742.159,-476.577"/>
<polygon fill="midnightblue" stroke="midnightblue" points="698.794,-504.607 692.878,-513.396 702.984,-510.215 698.794,-504.607"/>
</g>
<!-- Node17 -->
<g id="node17" class="node"><title>Node17</title>
<g id="a_node17"><a xlink:href="value_8h.html" target="_top" xlink:title=" ">
<polygon fill="white" stroke="black" points="838,-446.5 838,-476.5 956,-476.5 956,-446.5 838,-446.5"/>
<text text-anchor="start" x="846" y="-464.5" font-family="Helvetica,sans-Serif" font-size="10.00">C:/projects/ndt/sources</text>
<text text-anchor="middle" x="897" y="-453.5" font-family="Helvetica,sans-Serif" font-size="10.00">/include/ndt/value.h</text>
</a>
</g>
</g>
<!-- Node2&#45;&gt;Node17 -->
<g id="edge25" class="edge"><title>Node2&#45;&gt;Node17</title>
<path fill="none" stroke="midnightblue" d="M732.049,-510.58C768.269,-500.022 814.345,-486.592 848.589,-476.611"/>
<polygon fill="midnightblue" stroke="midnightblue" points="730.734,-507.317 722.113,-513.476 732.693,-514.038 730.734,-507.317"/>
</g>
<!-- Node3&#45;&gt;Node4 -->
<g id="edge3" class="edge"><title>Node3&#45;&gt;Node4</title>
<path fill="none" stroke="midnightblue" d="M323.804,-450.815C211.02,-433.066 0,-390.799 0,-323 0,-323 0,-323 0,-165 0,-114.613 16.1459,-96.4925 57,-67 85.552,-46.3883 177.168,-31.3909 238.852,-23.3182"/>
<polygon fill="midnightblue" stroke="midnightblue" points="323.32,-454.282 333.738,-452.355 324.393,-447.365 323.32,-454.282"/>
</g>
<!-- Node5 -->
<g id="node5" class="node"><title>Node5</title>
<g id="a_node5"><a xlink:href="socket_8h.html" target="_top" xlink:title=" ">
<polygon fill="white" stroke="black" points="284,-379.5 284,-409.5 402,-409.5 402,-379.5 284,-379.5"/>
<text text-anchor="start" x="292" y="-397.5" font-family="Helvetica,sans-Serif" font-size="10.00">C:/projects/ndt/sources</text>
<text text-anchor="middle" x="343" y="-386.5" font-family="Helvetica,sans-Serif" font-size="10.00">/include/ndt/socket.h</text>
</a>
</g>
</g>
<!-- Node3&#45;&gt;Node5 -->
<g id="edge4" class="edge"><title>Node3&#45;&gt;Node5</title>
<path fill="none" stroke="midnightblue" d="M376.036,-438.447C368.691,-428.899 360.311,-418.004 353.828,-409.577"/>
<polygon fill="midnightblue" stroke="midnightblue" points="373.279,-440.604 382.151,-446.396 378.828,-436.336 373.279,-440.604"/>
</g>
<!-- Node3&#45;&gt;Node14 -->
<g id="edge20" class="edge"><title>Node3&#45;&gt;Node14</title>
<path fill="none" stroke="midnightblue" d="M427.938,-441.575C446.815,-431.35 469.726,-418.94 487.013,-409.577"/>
<polygon fill="midnightblue" stroke="midnightblue" points="426.164,-438.556 419.038,-446.396 429.498,-444.711 426.164,-438.556"/>
</g>
<!-- Node5&#45;&gt;Node4 -->
<g id="edge5" class="edge"><title>Node5&#45;&gt;Node4</title>
<path fill="none" stroke="midnightblue" d="M273.686,-389.573C183.69,-380.302 38,-349.202 38,-245 38,-245 38,-245 38,-165 38,-73.1207 161.94,-37.3249 238.677,-23.9673"/>
<polygon fill="midnightblue" stroke="midnightblue" points="273.542,-393.076 283.831,-390.551 274.213,-386.108 273.542,-393.076"/>
</g>
<!-- Node6 -->
<g id="node6" class="node"><title>Node6</title>
<g id="a_node6"><a xlink:href="executor__select__base_8h.html" target="_top" xlink:title=" ">
<polygon fill="white" stroke="black" points="267,-301.5 267,-342.5 385,-342.5 385,-301.5 267,-301.5"/>
<text text-anchor="start" x="275" y="-330.5" font-family="Helvetica,sans-Serif" font-size="10.00">C:/projects/ndt/sources</text>
<text text-anchor="start" x="275" y="-319.5" font-family="Helvetica,sans-Serif" font-size="10.00">/include/ndt/executor</text>
<text text-anchor="middle" x="326" y="-308.5" font-family="Helvetica,sans-Serif" font-size="10.00">_select_base.h</text>
</a>
</g>
</g>
<!-- Node5&#45;&gt;Node6 -->
<g id="edge6" class="edge"><title>Node5&#45;&gt;Node6</title>
<path fill="none" stroke="midnightblue" d="M337.157,-369.269C335.057,-360.56 332.716,-350.853 330.723,-342.588"/>
<polygon fill="midnightblue" stroke="midnightblue" points="333.813,-370.332 339.56,-379.233 340.618,-368.691 333.813,-370.332"/>
</g>
<!-- Node12 -->
<g id="node12" class="node"><title>Node12</title>
<g id="a_node12"><a xlink:href="udp_8h.html" target="_top" xlink:title=" ">
<polygon fill="white" stroke="black" points="403,-307 403,-337 521,-337 521,-307 403,-307"/>
<text text-anchor="start" x="411" y="-325" font-family="Helvetica,sans-Serif" font-size="10.00">C:/projects/ndt/sources</text>
<text text-anchor="middle" x="462" y="-314" font-family="Helvetica,sans-Serif" font-size="10.00">/include/ndt/udp.h</text>
</a>
</g>
</g>
<!-- Node5&#45;&gt;Node12 -->
<g id="edge17" class="edge"><title>Node5&#45;&gt;Node12</title>
<path fill="none" stroke="midnightblue" d="M375.509,-374.241C395.344,-362.489 420.258,-347.73 438.246,-337.073"/>
<polygon fill="midnightblue" stroke="midnightblue" points="373.615,-371.294 366.795,-379.403 377.183,-377.317 373.615,-371.294"/>
</g>
<!-- Node6&#45;&gt;Node4 -->
<g id="edge7" class="edge"><title>Node6&#45;&gt;Node4</title>
<path fill="none" stroke="midnightblue" d="M256.6,-313.582C196.054,-305.509 114.866,-290.257 95,-265 54.5106,-213.522 67.9617,-147.516 149,-67 172.929,-43.2251 208.447,-30.6363 238.804,-23.974"/>
<polygon fill="midnightblue" stroke="midnightblue" points="256.519,-317.1 266.885,-314.911 257.416,-310.158 256.519,-317.1"/>
</g>
<!-- Node7 -->
<g id="node7" class="node"><title>Node7</title>
<g id="a_node7"><a xlink:href="nix_2executor__select__impl_8h.html" target="_top" xlink:title=" ">
<polygon fill="white" stroke="black" points="104,-223.5 104,-264.5 240,-264.5 240,-223.5 104,-223.5"/>
<text text-anchor="start" x="112" y="-252.5" font-family="Helvetica,sans-Serif" font-size="10.00">C:/projects/ndt/sources</text>
<text text-anchor="start" x="112" y="-241.5" font-family="Helvetica,sans-Serif" font-size="10.00">/include/ndt/platform</text>
<text text-anchor="middle" x="172" y="-230.5" font-family="Helvetica,sans-Serif" font-size="10.00">/nix/executor_select_impl.h</text>
</a>
</g>
</g>
<!-- Node6&#45;&gt;Node7 -->
<g id="edge8" class="edge"><title>Node6&#45;&gt;Node7</title>
<path fill="none" stroke="midnightblue" d="M277.182,-296.908C256.007,-286.458 231.533,-274.38 211.524,-264.506"/>
<polygon fill="midnightblue" stroke="midnightblue" points="275.825,-300.141 286.341,-301.428 278.923,-293.864 275.825,-300.141"/>
</g>
<!-- Node11 -->
<g id="node11" class="node"><title>Node11</title>
<g id="a_node11"><a xlink:href="win_2executor__select__impl_8h.html" target="_top" xlink:title=" ">
<polygon fill="white" stroke="black" points="258.5,-223.5 258.5,-264.5 395.5,-264.5 395.5,-223.5 258.5,-223.5"/>
<text text-anchor="start" x="266.5" y="-252.5" font-family="Helvetica,sans-Serif" font-size="10.00">C:/projects/ndt/sources</text>
<text text-anchor="start" x="266.5" y="-241.5" font-family="Helvetica,sans-Serif" font-size="10.00">/include/ndt/platform</text>
<text text-anchor="middle" x="327" y="-230.5" font-family="Helvetica,sans-Serif" font-size="10.00">/win/executor_select_impl.h</text>
</a>
</g>
</g>
<!-- Node6&#45;&gt;Node11 -->
<g id="edge16" class="edge"><title>Node6&#45;&gt;Node11</title>
<path fill="none" stroke="midnightblue" d="M326.391,-291.297C326.509,-282.301 326.636,-272.653 326.743,-264.506"/>
<polygon fill="midnightblue" stroke="midnightblue" points="322.889,-291.383 326.258,-301.428 329.889,-291.475 322.889,-291.383"/>
</g>
<!-- Node8 -->
<g id="node8" class="node"><title>Node8</title>
<g id="a_node8"><a xlink:href="executor__select_8h.html" target="_top" xlink:title=" ">
<polygon fill="white" stroke="black" points="140,-145.5 140,-186.5 258,-186.5 258,-145.5 140,-145.5"/>
<text text-anchor="start" x="148" y="-174.5" font-family="Helvetica,sans-Serif" font-size="10.00">C:/projects/ndt/sources</text>
<text text-anchor="start" x="148" y="-163.5" font-family="Helvetica,sans-Serif" font-size="10.00">/include/ndt/executor</text>
<text text-anchor="middle" x="199" y="-152.5" font-family="Helvetica,sans-Serif" font-size="10.00">_select.h</text>
</a>
</g>
</g>
<!-- Node7&#45;&gt;Node8 -->
<g id="edge9" class="edge"><title>Node7&#45;&gt;Node8</title>
<path fill="none" stroke="midnightblue" d="M182.344,-213.882C185.599,-204.721 189.113,-194.83 192.07,-186.506"/>
<polygon fill="midnightblue" stroke="midnightblue" points="179.003,-212.833 178.953,-223.428 185.599,-215.177 179.003,-212.833"/>
</g>
<!-- Node8&#45;&gt;Node4 -->
<g id="edge12" class="edge"><title>Node8&#45;&gt;Node4</title>
<path fill="none" stroke="midnightblue" d="M173.771,-137.267C158.221,-116.681 143.893,-88.5611 159,-67 177.048,-41.2412 209.651,-28.571 238.747,-22.3614"/>
<polygon fill="midnightblue" stroke="midnightblue" points="171.218,-139.679 180.194,-145.309 176.688,-135.311 171.218,-139.679"/>
</g>
<!-- Node9 -->
<g id="node9" class="node"><title>Node9</title>
<g id="a_node9"><a xlink:href="context_8h.html" target="_top" xlink:title=" ">
<polygon fill="white" stroke="black" points="168,-73 168,-103 286,-103 286,-73 168,-73"/>
<text text-anchor="start" x="176" y="-91" font-family="Helvetica,sans-Serif" font-size="10.00">C:/projects/ndt/sources</text>
<text text-anchor="middle" x="227" y="-80" font-family="Helvetica,sans-Serif" font-size="10.00">/include/ndt/context.h</text>
</a>
</g>
</g>
<!-- Node8&#45;&gt;Node9 -->
<g id="edge10" class="edge"><title>Node8&#45;&gt;Node9</title>
<path fill="none" stroke="midnightblue" d="M209.698,-135.964C213.829,-124.75 218.367,-112.432 221.759,-103.225"/>
<polygon fill="midnightblue" stroke="midnightblue" points="206.384,-134.835 206.211,-145.428 212.952,-137.255 206.384,-134.835"/>
</g>
<!-- Node10 -->
<g id="node10" class="node"><title>Node10</title>
<g id="a_node10"><a xlink:href="event__handler__select_8h.html" target="_top" xlink:title=" ">
<polygon fill="white" stroke="black" points="304.5,-67.5 304.5,-108.5 433.5,-108.5 433.5,-67.5 304.5,-67.5"/>
<text text-anchor="start" x="312.5" y="-96.5" font-family="Helvetica,sans-Serif" font-size="10.00">C:/projects/ndt/sources</text>
<text text-anchor="start" x="312.5" y="-85.5" font-family="Helvetica,sans-Serif" font-size="10.00">/include/ndt/event_handler</text>
<text text-anchor="middle" x="369" y="-74.5" font-family="Helvetica,sans-Serif" font-size="10.00">_select.h</text>
</a>
</g>
</g>
<!-- Node8&#45;&gt;Node10 -->
<g id="edge13" class="edge"><title>Node8&#45;&gt;Node10</title>
<path fill="none" stroke="midnightblue" d="M251.948,-141.329C275.537,-130.783 302.984,-118.513 325.369,-108.506"/>
<polygon fill="midnightblue" stroke="midnightblue" points="250.48,-138.152 242.779,-145.428 253.337,-144.542 250.48,-138.152"/>
</g>
<!-- Node9&#45;&gt;Node4 -->
<g id="edge11" class="edge"><title>Node9&#45;&gt;Node4</title>
<path fill="none" stroke="midnightblue" d="M248.789,-65.3641C260.119,-54.1142 273.65,-40.6786 283.653,-30.7455"/>
<polygon fill="midnightblue" stroke="midnightblue" points="245.998,-63.2036 241.368,-72.7333 250.93,-68.1708 245.998,-63.2036"/>
</g>
<!-- Node10&#45;&gt;Node4 -->
<g id="edge14" class="edge"><title>Node10&#45;&gt;Node4</title>
<path fill="none" stroke="midnightblue" d="M342.121,-60.3098C332.06,-50.3198 321.016,-39.3535 312.494,-30.8916"/>
<polygon fill="midnightblue" stroke="midnightblue" points="339.66,-62.7994 349.223,-67.3618 344.593,-57.8321 339.66,-62.7994"/>
</g>
<!-- Node10&#45;&gt;Node6 -->
<g id="edge15" class="edge"><title>Node10&#45;&gt;Node6</title>
<path fill="none" stroke="midnightblue" d="M385.546,-117.649C404.09,-153.84 428.544,-217.164 404,-265 396.162,-280.277 382.004,-292.326 367.881,-301.272"/>
<polygon fill="midnightblue" stroke="midnightblue" points="388.537,-115.817 380.756,-108.627 382.355,-119.1 388.537,-115.817"/>
</g>
<!-- Node12&#45;&gt;Node4 -->
<g id="edge18" class="edge"><title>Node12&#45;&gt;Node4</title>
<path fill="none" stroke="midnightblue" d="M467.983,-296.778C478.563,-247.749 494.803,-135.595 442,-67 421.881,-40.8634 387.272,-28.2047 357.026,-22.0963"/>
<polygon fill="midnightblue" stroke="midnightblue" points="464.515,-296.246 465.712,-306.773 471.341,-297.797 464.515,-296.246"/>
</g>
<!-- Node13 -->
<g id="node13" class="node"><title>Node13</title>
<g id="a_node13"><a xlink:href="udp_8cpp.html" target="_top" xlink:title=" ">
<polygon fill="white" stroke="black" points="490,-229 490,-259 608,-259 608,-229 490,-229"/>
<text text-anchor="start" x="498" y="-247" font-family="Helvetica,sans-Serif" font-size="10.00">C:/projects/ndt/sources</text>
<text text-anchor="middle" x="549" y="-236" font-family="Helvetica,sans-Serif" font-size="10.00">/src/udp.cpp</text>
</a>
</g>
</g>
<!-- Node12&#45;&gt;Node13 -->
<g id="edge19" class="edge"><title>Node12&#45;&gt;Node13</title>
<path fill="none" stroke="midnightblue" d="M486.161,-299.894C500.999,-286.932 519.606,-270.678 532.709,-259.231"/>
<polygon fill="midnightblue" stroke="midnightblue" points="483.593,-297.49 478.364,-306.705 488.198,-302.762 483.593,-297.49"/>
</g>
<!-- Node15&#45;&gt;Node4 -->
<g id="edge23" class="edge"><title>Node15&#45;&gt;Node4</title>
<path fill="none" stroke="midnightblue" d="M725.239,-142.312C709.937,-119.251 682.975,-84.5037 650,-67 600.445,-40.6958 443.831,-26.2873 357.151,-20.142"/>
<polygon fill="midnightblue" stroke="midnightblue" points="722.351,-144.292 730.704,-150.81 728.239,-140.506 722.351,-144.292"/>
</g>
</g>
</svg>
