<?xml version="1.0" encoding="UTF-8" standalone="no"?>
<!DOCTYPE svg PUBLIC "-//W3C//DTD SVG 1.1//EN"
 "http://www.w3.org/Graphics/SVG/1.1/DTD/svg11.dtd">
<!-- Generated by graphviz version 2.38.0 (20140413.2041)
 -->
<!-- Title: C:/projects/ndt/sources/src/endian.cpp Pages: 1 -->
<svg width="402pt" height="151pt"
 viewBox="0.00 0.00 401.50 151.00" xmlns="http://www.w3.org/2000/svg" xmlns:xlink="http://www.w3.org/1999/xlink">
<g id="graph0" class="graph" transform="scale(1 1) rotate(0) translate(4 147)">
<title>C:/projects/ndt/sources/src/endian.cpp</title>
<polygon fill="white" stroke="none" points="-4,4 -4,-147 397.5,-147 397.5,4 -4,4"/>
<!-- Node1 -->
<g id="node1" class="node"><title>Node1</title>
<g id="a_node1"><a xlink:title=" ">
<polygon fill="#bfbfbf" stroke="black" points="127.5,-112.5 127.5,-142.5 245.5,-142.5 245.5,-112.5 127.5,-112.5"/>
<text text-anchor="start" x="135.5" y="-130.5" font-family="Helvetica,sans-Serif" font-size="10.00">C:/projects/ndt/sources</text>
<text text-anchor="middle" x="186.5" y="-119.5" font-family="Helvetica,sans-Serif" font-size="10.00">/src/endian.cpp</text>
</a>
</g>
</g>
<!-- Node2 -->
<g id="node2" class="node"><title>Node2</title>
<g id="a_node2"><a xlink:href="endian_8h.html" target="_top" xlink:title=" ">
<polygon fill="white" stroke="black" points="151.5,-56.5 151.5,-75.5 221.5,-75.5 221.5,-56.5 151.5,-56.5"/>
<text text-anchor="middle" x="186.5" y="-63.5" font-family="Helvetica,sans-Serif" font-size="10.00">ndt/endian.h</text>
</a>
</g>
</g>
<!-- Node1&#45;&gt;Node2 -->
<g id="edge1" class="edge"><title>Node1&#45;&gt;Node2</title>
<path fill="none" stroke="midnightblue" d="M186.5,-112.399C186.5,-104.466 186.5,-94.458 186.5,-85.8583"/>
<polygon fill="midnightblue" stroke="midnightblue" points="190,-85.6577 186.5,-75.6578 183,-85.6578 190,-85.6577"/>
</g>
<!-- Node3 -->
<g id="node3" class="node"><title>Node3</title>
<g id="a_node3"><a xlink:title=" ">
<polygon fill="white" stroke="#bfbfbf" points="0,-0.5 0,-19.5 45,-19.5 45,-0.5 0,-0.5"/>
<text text-anchor="middle" x="22.5" y="-7.5" font-family="Helvetica,sans-Serif" font-size="10.00">climits</text>
</a>
</g>
</g>
<!-- Node2&#45;&gt;Node3 -->
<g id="edge2" class="edge"><title>Node2&#45;&gt;Node3</title>
<path fill="none" stroke="midnightblue" d="M160.514,-56.4435C131.95,-47.0385 86.0172,-31.9142 55.0698,-21.7242"/>
<polygon fill="midnightblue" stroke="midnightblue" points="55.7888,-18.2762 45.1958,-18.473 53.5995,-24.925 55.7888,-18.2762"/>
</g>
<!-- Node4 -->
<g id="node4" class="node"><title>Node4</title>
<g id="a_node4"><a xlink:title=" ">
<polygon fill="white" stroke="#bfbfbf" points="63.5,-0.5 63.5,-19.5 109.5,-19.5 109.5,-0.5 63.5,-0.5"/>
<text text-anchor="middle" x="86.5" y="-7.5" font-family="Helvetica,sans-Serif" font-size="10.00">cstdint</text>
</a>
</g>
</g>
<!-- Node2&#45;&gt;Node4 -->
<g id="edge3" class="edge"><title>Node2&#45;&gt;Node4</title>
<path fill="none" stroke="midnightblue" d="M170.433,-56.324C154.542,-47.7428 129.993,-34.486 111.542,-24.5224"/>
<polygon fill="midnightblue" stroke="midnightblue" points="112.989,-21.3264 102.527,-19.6545 109.663,-27.4857 112.989,-21.3264"/>
</g>
<!-- Node5 -->
<g id="node5" class="node"><title>Node5</title>
<g id="a_node5"><a xlink:title=" ">
<polygon fill="white" stroke="#bfbfbf" points="127.5,-0.5 127.5,-19.5 173.5,-19.5 173.5,-0.5 127.5,-0.5"/>
<text text-anchor="middle" x="150.5" y="-7.5" font-family="Helvetica,sans-Serif" font-size="10.00">cstring</text>
</a>
</g>
</g>
<!-- Node2&#45;&gt;Node5 -->
<g id="edge4" class="edge"><title>Node2&#45;&gt;Node5</title>
<path fill="none" stroke="midnightblue" d="M180.555,-56.083C175.523,-48.5341 168.163,-37.4948 161.987,-28.2298"/>
<polygon fill="midnightblue" stroke="midnightblue" points="164.793,-26.1301 156.334,-19.7511 158.969,-30.0131 164.793,-26.1301"/>
</g>
<!-- Node6 -->
<g id="node6" class="node"><title>Node6</title>
<g id="a_node6"><a xlink:title=" ">
<polygon fill="white" stroke="#bfbfbf" points="191.5,-0.5 191.5,-19.5 255.5,-19.5 255.5,-0.5 191.5,-0.5"/>
<text text-anchor="middle" x="223.5" y="-7.5" font-family="Helvetica,sans-Serif" font-size="10.00">string_view</text>
</a>
</g>
</g>
<!-- Node2&#45;&gt;Node6 -->
<g id="edge5" class="edge"><title>Node2&#45;&gt;Node6</title>
<path fill="none" stroke="midnightblue" d="M192.61,-56.083C197.782,-48.5341 205.346,-37.4948 211.694,-28.2298"/>
<polygon fill="midnightblue" stroke="midnightblue" points="214.739,-29.9787 217.504,-19.7511 208.964,-26.0221 214.739,-29.9787"/>
</g>
<!-- Node7 -->
<g id="node7" class="node"><title>Node7</title>
<g id="a_node7"><a xlink:title=" ">
<polygon fill="white" stroke="#bfbfbf" points="273.5,-0.5 273.5,-19.5 335.5,-19.5 335.5,-0.5 273.5,-0.5"/>
<text text-anchor="middle" x="304.5" y="-7.5" font-family="Helvetica,sans-Serif" font-size="10.00">type_traits</text>
</a>
</g>
</g>
<!-- Node2&#45;&gt;Node7 -->
<g id="edge6" class="edge"><title>Node2&#45;&gt;Node7</title>
<path fill="none" stroke="midnightblue" d="M205.197,-56.4435C224.444,-47.6356 254.652,-33.8116 276.7,-23.722"/>
<polygon fill="midnightblue" stroke="midnightblue" points="278.253,-26.8603 285.89,-19.5164 275.34,-20.4951 278.253,-26.8603"/>
</g>
<!-- Node8 -->
<g id="node8" class="node"><title>Node8</title>
<g id="a_node8"><a xlink:title=" ">
<polygon fill="white" stroke="#bfbfbf" points="353.5,-0.5 353.5,-19.5 393.5,-19.5 393.5,-0.5 353.5,-0.5"/>
<text text-anchor="middle" x="373.5" y="-7.5" font-family="Helvetica,sans-Serif" font-size="10.00">utility</text>
</a>
</g>
</g>
<!-- Node2&#45;&gt;Node8 -->
<g id="edge7" class="edge"><title>Node2&#45;&gt;Node8</title>
<path fill="none" stroke="midnightblue" d="M217.443,-56.4184C247.348,-48.0739 294.169,-34.8764 343.37,-20.2897"/>
<polygon fill="midnightblue" stroke="midnightblue" points="344.65,-23.5606 353.237,-17.3549 342.654,-16.8511 344.65,-23.5606"/>
</g>
</g>
</svg>
