<?xml version="1.0" encoding="UTF-8" standalone="no"?>
<!DOCTYPE svg PUBLIC "-//W3C//DTD SVG 1.1//EN"
 "http://www.w3.org/Graphics/SVG/1.1/DTD/svg11.dtd">
<!-- Generated by graphviz version 2.38.0 (20140413.2041)
 -->
<!-- Title: C:/projects/ndt/sources/include/ndt/event_handler_select.h Pages: 1 -->
<!--zoomable 576 -->
<svg id="main" version="1.1" xmlns="http://www.w3.org/2000/svg" xmlns:xlink="http://www.w3.org/1999/xlink" xml:space="preserve" onload="init(evt)">
<style type="text/css"><![CDATA[
.edge:hover path { stroke: red; }
.edge:hover polygon { stroke: red; fill: red; }
]]></style>
<script type="text/javascript"><![CDATA[
var edges = document.getElementsByTagName('g');
if (edges && edges.length) {
  for (var i=0;i<edges.length;i++) {
    if (edges[i].id.substr(0,4)=='edge') {
      edges[i].setAttribute('class','edge');
    }
  }
}
]]></script>
        <defs>
                <circle id="rim" cx="0" cy="0" r="7"/>
                <circle id="rim2" cx="0" cy="0" r="3.5"/>
                <g id="zoomPlus">
                        <use xlink:href="#rim" fill="#404040">
                                <set attributeName="fill" to="#808080" begin="zoomplus.mouseover" end="zoomplus.mouseout"/>
                        </use>
                        <path d="M-4,0h8M0,-4v8" fill="none" stroke="white" stroke-width="1.5" pointer-events="none"/>
                </g>
                <g id="zoomMin">
                        <use xlink:href="#rim" fill="#404040">
                                <set attributeName="fill" to="#808080" begin="zoomminus.mouseover" end="zoomminus.mouseout"/>
                        </use>
                        <path d="M-4,0h8" fill="none" stroke="white" stroke-width="1.5" pointer-events="none"/>
                </g>
                <g id="dirArrow">
                        <path fill="none" stroke="white" stroke-width="1.5" d="M0,-3.0v7 M-2.5,-0.5L0,-3.0L2.5,-0.5"/>
                </g>
               <g id="resetDef">
                       <use xlink:href="#rim2" fill="#404040">
                               <set attributeName="fill" to="#808080" begin="reset.mouseover" end="reset.mouseout"/>
                       </use>
               </g>
        </defs>

<script type="text/javascript">
var viewWidth = 1284;
var viewHeight = 576;
var sectionId = 'dynsection-0';
</script>
<script xlink:href="svgpan.js"/>
<svg id="graph" class="graph">
<g id="viewport">
<title>C:/projects/ndt/sources/include/ndt/event_handler_select.h</title>
<polygon fill="white" stroke="none" points="-4,4 -4,-572 1279.5,-572 1279.5,4 -4,4"/>
<!-- Node1 -->
<g id="node1" class="node"><title>Node1</title>
<g id="a_node1"><a xlink:title=" ">
<polygon fill="#bfbfbf" stroke="black" points="283.5,-526.5 283.5,-567.5 412.5,-567.5 412.5,-526.5 283.5,-526.5"/>
<text text-anchor="start" x="291.5" y="-555.5" font-family="Helvetica,sans-Serif" font-size="10.00">C:/projects/ndt/sources</text>
<text text-anchor="start" x="291.5" y="-544.5" font-family="Helvetica,sans-Serif" font-size="10.00">/include/ndt/event_handler</text>
<text text-anchor="middle" x="348" y="-533.5" font-family="Helvetica,sans-Serif" font-size="10.00">_select.h</text>
</a>
</g>
</g>
<!-- Node2 -->
<g id="node2" class="node"><title>Node2</title>
<g id="a_node2"><a xlink:title=" ">
<polygon fill="white" stroke="#bfbfbf" points="0,-56.5 0,-75.5 46,-75.5 46,-56.5 0,-56.5"/>
<text text-anchor="middle" x="23" y="-63.5" font-family="Helvetica,sans-Serif" font-size="10.00">cstdint</text>
</a>
</g>
</g>
<!-- Node1&#45;&gt;Node2 -->
<g id="edge1" class="edge"><title>Node1&#45;&gt;Node2</title>
<path fill="none" stroke="midnightblue" d="M283.274,-546.028C195.082,-542.272 48,-520.82 48,-419.5 48,-419.5 48,-419.5 48,-177 48,-143.995 37.1657,-106.774 29.7618,-85.1916"/>
<polygon fill="midnightblue" stroke="midnightblue" points="33.0279,-83.9302 26.3716,-75.6873 26.4347,-86.282 33.0279,-83.9302"/>
</g>
<!-- Node3 -->
<g id="node3" class="node"><title>Node3</title>
<g id="a_node3"><a xlink:title=" ">
<polygon fill="white" stroke="#bfbfbf" points="278,-56.5 278,-75.5 340,-75.5 340,-56.5 278,-56.5"/>
<text text-anchor="middle" x="309" y="-63.5" font-family="Helvetica,sans-Serif" font-size="10.00">type_traits</text>
</a>
</g>
</g>
<!-- Node1&#45;&gt;Node3 -->
<g id="edge2" class="edge"><title>Node1&#45;&gt;Node3</title>
<path fill="none" stroke="midnightblue" d="M321.101,-526.46C293.634,-504.026 255,-464.476 255,-419.5 255,-419.5 255,-419.5 255,-177 255,-140.863 278.775,-104.252 294.774,-83.7063"/>
<polygon fill="midnightblue" stroke="midnightblue" points="297.689,-85.6678 301.263,-75.694 292.249,-81.2619 297.689,-85.6678"/>
</g>
<!-- Node4 -->
<g id="node4" class="node"><title>Node4</title>
<g id="a_node4"><a xlink:href="executor__select_8h.html" target="_top" xlink:title=" ">
<polygon fill="white" stroke="black" points="765,-470.5 765,-489.5 859,-489.5 859,-470.5 765,-470.5"/>
<text text-anchor="middle" x="812" y="-477.5" font-family="Helvetica,sans-Serif" font-size="10.00">executor_select.h</text>
</a>
</g>
</g>
<!-- Node1&#45;&gt;Node4 -->
<g id="edge3" class="edge"><title>Node1&#45;&gt;Node4</title>
<path fill="none" stroke="midnightblue" d="M412.517,-536.962C503.538,-524.211 668.205,-501.144 754.971,-488.989"/>
<polygon fill="midnightblue" stroke="midnightblue" points="755.484,-492.451 764.902,-487.598 754.513,-485.519 755.484,-492.451"/>
</g>
<!-- Node5 -->
<g id="node5" class="node"><title>Node5</title>
<g id="a_node5"><a xlink:href="nix_2executor__select__impl_8h.html" target="_top" xlink:title=" ">
<polygon fill="white" stroke="black" points="904.5,-403.5 904.5,-433.5 1011.5,-433.5 1011.5,-403.5 904.5,-403.5"/>
<text text-anchor="start" x="912.5" y="-421.5" font-family="Helvetica,sans-Serif" font-size="10.00">platform/nix/executor</text>
<text text-anchor="middle" x="958" y="-410.5" font-family="Helvetica,sans-Serif" font-size="10.00">_select_impl.h</text>
</a>
</g>
</g>
<!-- Node4&#45;&gt;Node5 -->
<g id="edge4" class="edge"><title>Node4&#45;&gt;Node5</title>
<path fill="none" stroke="midnightblue" d="M832.918,-470.475C853.986,-461.889 887.128,-448.383 914.006,-437.429"/>
<polygon fill="midnightblue" stroke="midnightblue" points="915.651,-440.538 923.591,-433.523 913.009,-434.056 915.651,-440.538"/>
</g>
<!-- Node6 -->
<g id="node6" class="node"><title>Node6</title>
<g id="a_node6"><a xlink:href="common_8h.html" target="_top" xlink:title="Header with typedefs to make type designation platform independent.">
<polygon fill="white" stroke="black" points="942,-56.5 942,-75.5 1022,-75.5 1022,-56.5 942,-56.5"/>
<text text-anchor="middle" x="982" y="-63.5" font-family="Helvetica,sans-Serif" font-size="10.00">../../common.h</text>
</a>
</g>
</g>
<!-- Node5&#45;&gt;Node6 -->
<g id="edge5" class="edge"><title>Node5&#45;&gt;Node6</title>
<path fill="none" stroke="midnightblue" d="M982.786,-403.417C995.783,-394.671 1010.69,-382.2 1019,-367 1045.42,-318.679 1030.66,-298.97 1034,-244 1037.57,-185.238 1049.47,-164.581 1023,-112 1017.45,-100.983 1008.44,-90.6592 1000.28,-82.6857"/>
<polygon fill="midnightblue" stroke="midnightblue" points="1002.57,-80.0372 992.854,-75.8153 997.817,-85.1755 1002.57,-80.0372"/>
</g>
<!-- Node16 -->
<g id="node16" class="node"><title>Node16</title>
<g id="a_node16"><a xlink:href="executor__select__base_8h.html" target="_top" xlink:title=" ">
<polygon fill="white" stroke="black" points="906,-336.5 906,-366.5 1010,-366.5 1010,-336.5 906,-336.5"/>
<text text-anchor="start" x="914" y="-354.5" font-family="Helvetica,sans-Serif" font-size="10.00">../../executor_select</text>
<text text-anchor="middle" x="958" y="-343.5" font-family="Helvetica,sans-Serif" font-size="10.00">_base.h</text>
</a>
</g>
</g>
<!-- Node5&#45;&gt;Node16 -->
<g id="edge15" class="edge"><title>Node5&#45;&gt;Node16</title>
<path fill="none" stroke="midnightblue" d="M958,-403.396C958,-395.645 958,-385.812 958,-376.86"/>
<polygon fill="midnightblue" stroke="midnightblue" points="961.5,-376.576 958,-366.577 954.5,-376.577 961.5,-376.576"/>
</g>
<!-- Node7 -->
<g id="node7" class="node"><title>Node7</title>
<g id="a_node7"><a xlink:title=" ">
<polygon fill="white" stroke="#bfbfbf" points="1148,-0.5 1148,-19.5 1210,-19.5 1210,-0.5 1148,-0.5"/>
<text text-anchor="middle" x="1179" y="-7.5" font-family="Helvetica,sans-Serif" font-size="10.00">arpa/inet.h</text>
</a>
</g>
</g>
<!-- Node6&#45;&gt;Node7 -->
<g id="edge6" class="edge"><title>Node6&#45;&gt;Node7</title>
<path fill="none" stroke="midnightblue" d="M1013.22,-56.4435C1046.93,-47.2011 1100.8,-32.4356 1137.93,-22.2572"/>
<polygon fill="midnightblue" stroke="midnightblue" points="1139.21,-25.5356 1147.93,-19.5164 1137.36,-18.7846 1139.21,-25.5356"/>
</g>
<!-- Node8 -->
<g id="node8" class="node"><title>Node8</title>
<g id="a_node8"><a xlink:title=" ">
<polygon fill="white" stroke="#bfbfbf" points="1228.5,-0.5 1228.5,-19.5 1275.5,-19.5 1275.5,-0.5 1228.5,-0.5"/>
<text text-anchor="middle" x="1252" y="-7.5" font-family="Helvetica,sans-Serif" font-size="10.00">errno.h</text>
</a>
</g>
</g>
<!-- Node6&#45;&gt;Node8 -->
<g id="edge7" class="edge"><title>Node6&#45;&gt;Node8</title>
<path fill="none" stroke="midnightblue" d="M1022.04,-58.3873C1067.29,-50.6951 1143.35,-37.1101 1218.19,-20.0341"/>
<polygon fill="midnightblue" stroke="midnightblue" points="1219.3,-23.3696 1228.26,-17.7132 1217.73,-16.5484 1219.3,-23.3696"/>
</g>
<!-- Node9 -->
<g id="node9" class="node"><title>Node9</title>
<g id="a_node9"><a xlink:title=" ">
<polygon fill="white" stroke="#bfbfbf" points="689.5,-0.5 689.5,-19.5 732.5,-19.5 732.5,-0.5 689.5,-0.5"/>
<text text-anchor="middle" x="711" y="-7.5" font-family="Helvetica,sans-Serif" font-size="10.00">fcntl.h</text>
</a>
</g>
</g>
<!-- Node6&#45;&gt;Node9 -->
<g id="edge8" class="edge"><title>Node6&#45;&gt;Node9</title>
<path fill="none" stroke="midnightblue" d="M941.815,-57.6123C883.281,-46.8368 778.291,-27.4494 742.6,-19.9961"/>
<polygon fill="midnightblue" stroke="midnightblue" points="743.076,-16.5167 732.555,-17.7668 741.559,-23.3504 743.076,-16.5167"/>
</g>
<!-- Node10 -->
<g id="node10" class="node"><title>Node10</title>
<g id="a_node10"><a xlink:title=" ">
<polygon fill="white" stroke="#bfbfbf" points="750.5,-0.5 750.5,-19.5 799.5,-19.5 799.5,-0.5 750.5,-0.5"/>
<text text-anchor="middle" x="775" y="-7.5" font-family="Helvetica,sans-Serif" font-size="10.00">netdb.h</text>
</a>
</g>
</g>
<!-- Node6&#45;&gt;Node10 -->
<g id="edge9" class="edge"><title>Node6&#45;&gt;Node10</title>
<path fill="none" stroke="midnightblue" d="M948.284,-56.4204C915.261,-47.9863 863.25,-34.6211 809.841,-20.4677"/>
<polygon fill="midnightblue" stroke="midnightblue" points="810.42,-17.0002 799.857,-17.8168 808.624,-23.7658 810.42,-17.0002"/>
</g>
<!-- Node11 -->
<g id="node11" class="node"><title>Node11</title>
<g id="a_node11"><a xlink:title=" ">
<polygon fill="white" stroke="#bfbfbf" points="817.5,-0.5 817.5,-19.5 882.5,-19.5 882.5,-0.5 817.5,-0.5"/>
<text text-anchor="middle" x="850" y="-7.5" font-family="Helvetica,sans-Serif" font-size="10.00">netinet/in.h</text>
</a>
</g>
</g>
<!-- Node6&#45;&gt;Node11 -->
<g id="edge10" class="edge"><title>Node6&#45;&gt;Node11</title>
<path fill="none" stroke="midnightblue" d="M961.084,-56.4435C939.264,-47.5171 904.85,-33.4387 880.108,-23.3168"/>
<polygon fill="midnightblue" stroke="midnightblue" points="881.399,-20.0634 870.818,-19.5164 878.748,-26.5422 881.399,-20.0634"/>
</g>
<!-- Node12 -->
<g id="node12" class="node"><title>Node12</title>
<g id="a_node12"><a xlink:title=" ">
<polygon fill="white" stroke="#bfbfbf" points="900.5,-0.5 900.5,-19.5 973.5,-19.5 973.5,-0.5 900.5,-0.5"/>
<text text-anchor="middle" x="937" y="-7.5" font-family="Helvetica,sans-Serif" font-size="10.00">sys/socket.h</text>
</a>
</g>
</g>
<!-- Node6&#45;&gt;Node12 -->
<g id="edge11" class="edge"><title>Node6&#45;&gt;Node12</title>
<path fill="none" stroke="midnightblue" d="M974.569,-56.083C968.147,-48.3768 958.694,-37.0333 950.878,-27.6531"/>
<polygon fill="midnightblue" stroke="midnightblue" points="953.383,-25.1927 944.293,-19.7511 948.006,-29.674 953.383,-25.1927"/>
</g>
<!-- Node13 -->
<g id="node13" class="node"><title>Node13</title>
<g id="a_node13"><a xlink:title=" ">
<polygon fill="white" stroke="#bfbfbf" points="992,-0.5 992,-19.5 1060,-19.5 1060,-0.5 992,-0.5"/>
<text text-anchor="middle" x="1026" y="-7.5" font-family="Helvetica,sans-Serif" font-size="10.00">sys/types.h</text>
</a>
</g>
</g>
<!-- Node6&#45;&gt;Node13 -->
<g id="edge12" class="edge"><title>Node6&#45;&gt;Node13</title>
<path fill="none" stroke="midnightblue" d="M989.266,-56.083C995.545,-48.3768 1004.79,-37.0333 1012.43,-27.6531"/>
<polygon fill="midnightblue" stroke="midnightblue" points="1015.27,-29.7143 1018.87,-19.7511 1009.84,-25.2926 1015.27,-29.7143"/>
</g>
<!-- Node14 -->
<g id="node14" class="node"><title>Node14</title>
<g id="a_node14"><a xlink:title=" ">
<polygon fill="white" stroke="#bfbfbf" points="1078.5,-0.5 1078.5,-19.5 1129.5,-19.5 1129.5,-0.5 1078.5,-0.5"/>
<text text-anchor="middle" x="1104" y="-7.5" font-family="Helvetica,sans-Serif" font-size="10.00">unistd.h</text>
</a>
</g>
</g>
<!-- Node6&#45;&gt;Node14 -->
<g id="edge13" class="edge"><title>Node6&#45;&gt;Node14</title>
<path fill="none" stroke="midnightblue" d="M1001.33,-56.4435C1021.32,-47.5961 1052.74,-33.6875 1075.56,-23.5865"/>
<polygon fill="midnightblue" stroke="midnightblue" points="1077.03,-26.7645 1084.76,-19.5164 1074.2,-20.3635 1077.03,-26.7645"/>
</g>
<!-- Node15 -->
<g id="node15" class="node"><title>Node15</title>
<g id="a_node15"><a xlink:title=" ">
<polygon fill="white" stroke="#bfbfbf" points="506,-0.5 506,-19.5 554,-19.5 554,-0.5 506,-0.5"/>
<text text-anchor="middle" x="530" y="-7.5" font-family="Helvetica,sans-Serif" font-size="10.00">cstddef</text>
</a>
</g>
</g>
<!-- Node6&#45;&gt;Node15 -->
<g id="edge14" class="edge"><title>Node6&#45;&gt;Node15</title>
<path fill="none" stroke="midnightblue" d="M941.927,-57.4021C938.91,-56.9029 935.909,-56.4291 933,-56 797.144,-35.9638 634.343,-20.3346 564.538,-14.0294"/>
<polygon fill="midnightblue" stroke="midnightblue" points="564.424,-10.5053 554.151,-13.0983 563.799,-17.4773 564.424,-10.5053"/>
</g>
<!-- Node16&#45;&gt;Node1 -->
<g id="edge20" class="edge"><title>Node16&#45;&gt;Node1</title>
<path fill="none" stroke="midnightblue" d="M913.798,-366.521C809.341,-399.656 546.488,-483.037 419.229,-523.405"/>
<polygon fill="midnightblue" stroke="midnightblue" points="418.038,-520.111 409.564,-526.471 420.154,-526.783 418.038,-520.111"/>
</g>
<!-- Node16&#45;&gt;Node6 -->
<g id="edge19" class="edge"><title>Node16&#45;&gt;Node6</title>
<path fill="none" stroke="midnightblue" d="M971.453,-336.495C989.688,-315.975 1020,-275.738 1020,-235 1020,-235 1020,-235 1020,-177 1020,-142.813 1003.4,-105.764 992.143,-84.5707"/>
<polygon fill="midnightblue" stroke="midnightblue" points="995.181,-82.832 987.284,-75.769 989.053,-86.2151 995.181,-82.832"/>
</g>
<!-- Node17 -->
<g id="node17" class="node"><title>Node17</title>
<g id="a_node17"><a xlink:title=" ">
<polygon fill="white" stroke="#bfbfbf" points="1058,-56.5 1058,-75.5 1096,-75.5 1096,-56.5 1058,-56.5"/>
<text text-anchor="middle" x="1077" y="-63.5" font-family="Helvetica,sans-Serif" font-size="10.00">array</text>
</a>
</g>
</g>
<!-- Node16&#45;&gt;Node17 -->
<g id="edge16" class="edge"><title>Node16&#45;&gt;Node17</title>
<path fill="none" stroke="midnightblue" d="M981.372,-336.358C994.246,-327.436 1009.5,-314.811 1019,-300 1063.86,-230.09 1074.02,-127.844 1076.33,-85.9581"/>
<polygon fill="midnightblue" stroke="midnightblue" points="1079.83,-85.9712 1076.79,-75.8218 1072.84,-85.6516 1079.83,-85.9712"/>
</g>
<!-- Node18 -->
<g id="node18" class="node"><title>Node18</title>
<g id="a_node18"><a xlink:title=" ">
<polygon fill="white" stroke="#bfbfbf" points="896,-224.5 896,-243.5 954,-243.5 954,-224.5 896,-224.5"/>
<text text-anchor="middle" x="925" y="-231.5" font-family="Helvetica,sans-Serif" font-size="10.00">functional</text>
</a>
</g>
</g>
<!-- Node16&#45;&gt;Node18 -->
<g id="edge17" class="edge"><title>Node16&#45;&gt;Node18</title>
<path fill="none" stroke="midnightblue" d="M953.954,-336.337C948.008,-315.527 936.904,-276.663 930.31,-253.583"/>
<polygon fill="midnightblue" stroke="midnightblue" points="933.59,-252.323 927.477,-243.669 926.859,-254.246 933.59,-252.323"/>
</g>
<!-- Node19 -->
<g id="node19" class="node"><title>Node19</title>
<g id="a_node19"><a xlink:title=" ">
<polygon fill="white" stroke="#bfbfbf" points="850,-56.5 850,-75.5 924,-75.5 924,-56.5 850,-56.5"/>
<text text-anchor="middle" x="887" y="-63.5" font-family="Helvetica,sans-Serif" font-size="10.00">system_error</text>
</a>
</g>
</g>
<!-- Node16&#45;&gt;Node19 -->
<g id="edge18" class="edge"><title>Node16&#45;&gt;Node19</title>
<path fill="none" stroke="midnightblue" d="M960.446,-336.339C964.089,-312.822 969.817,-264.308 963,-224 954.21,-172.029 949.806,-157.96 924,-112 918.132,-101.549 909.769,-91.1316 902.477,-82.9556"/>
<polygon fill="midnightblue" stroke="midnightblue" points="905.038,-80.569 895.676,-75.6087 899.901,-85.3245 905.038,-80.569"/>
</g>
<!-- Node20 -->
<g id="node20" class="node"><title>Node20</title>
<g id="a_node20"><a xlink:href="socket_8h.html" target="_top" xlink:title=" ">
<polygon fill="white" stroke="black" points="765,-280.5 765,-299.5 819,-299.5 819,-280.5 765,-280.5"/>
<text text-anchor="middle" x="792" y="-287.5" font-family="Helvetica,sans-Serif" font-size="10.00">socket.h</text>
</a>
</g>
</g>
<!-- Node16&#45;&gt;Node20 -->
<g id="edge21" class="edge"><title>Node16&#45;&gt;Node20</title>
<path fill="none" stroke="midnightblue" d="M918.66,-336.399C890.435,-326.283 852.794,-312.791 825.895,-303.149"/>
<polygon fill="midnightblue" stroke="midnightblue" points="826.749,-299.737 816.154,-299.658 824.387,-306.327 826.749,-299.737"/>
</g>
<!-- Node20&#45;&gt;Node6 -->
<g id="edge67" class="edge"><title>Node20&#45;&gt;Node6</title>
<path fill="none" stroke="midnightblue" d="M804.3,-280.479C816.155,-271.963 834.269,-258.134 848,-244 899.821,-190.659 949.65,-117.173 971.05,-84.2129"/>
<polygon fill="midnightblue" stroke="midnightblue" points="974.063,-85.9984 976.531,-75.695 968.176,-82.2105 974.063,-85.9984"/>
</g>
<!-- Node20&#45;&gt;Node18 -->
<g id="edge23" class="edge"><title>Node20&#45;&gt;Node18</title>
<path fill="none" stroke="midnightblue" d="M813.074,-280.444C835.06,-271.517 869.734,-257.439 894.664,-247.317"/>
<polygon fill="midnightblue" stroke="midnightblue" points="896.076,-250.521 904.024,-243.516 893.442,-244.035 896.076,-250.521"/>
</g>
<!-- Node21 -->
<g id="node21" class="node"><title>Node21</title>
<g id="a_node21"><a xlink:title=" ">
<polygon fill="white" stroke="#bfbfbf" points="146.5,-56.5 146.5,-75.5 195.5,-75.5 195.5,-56.5 146.5,-56.5"/>
<text text-anchor="middle" x="171" y="-63.5" font-family="Helvetica,sans-Serif" font-size="10.00">cassert</text>
</a>
</g>
</g>
<!-- Node20&#45;&gt;Node21 -->
<g id="edge22" class="edge"><title>Node20&#45;&gt;Node21</title>
<path fill="none" stroke="midnightblue" d="M764.802,-289.022C697.359,-288.447 517.495,-283.053 374,-244 257.303,-212.241 191.599,-233.604 126,-132 114.652,-114.424 132.772,-94.7335 149.291,-81.6782"/>
<polygon fill="midnightblue" stroke="midnightblue" points="151.672,-84.2703 157.619,-75.5022 147.502,-78.6477 151.672,-84.2703"/>
</g>
<!-- Node22 -->
<g id="node22" class="node"><title>Node22</title>
<g id="a_node22"><a xlink:href="address_8h.html" target="_top" xlink:title=" ">
<polygon fill="white" stroke="black" points="580.5,-224.5 580.5,-243.5 639.5,-243.5 639.5,-224.5 580.5,-224.5"/>
<text text-anchor="middle" x="610" y="-231.5" font-family="Helvetica,sans-Serif" font-size="10.00">address.h</text>
</a>
</g>
</g>
<!-- Node20&#45;&gt;Node22 -->
<g id="edge24" class="edge"><title>Node20&#45;&gt;Node22</title>
<path fill="none" stroke="midnightblue" d="M764.753,-280.916C733.976,-271.784 683.647,-256.851 648.78,-246.506"/>
<polygon fill="midnightblue" stroke="midnightblue" points="649.522,-243.076 638.94,-243.587 647.531,-249.786 649.522,-243.076"/>
</g>
<!-- Node28 -->
<g id="node28" class="node"><title>Node28</title>
<g id="a_node28"><a xlink:href="buffer_8h.html" target="_top" xlink:title=" ">
<polygon fill="white" stroke="black" points="395,-112.5 395,-131.5 443,-131.5 443,-112.5 395,-112.5"/>
<text text-anchor="middle" x="419" y="-119.5" font-family="Helvetica,sans-Serif" font-size="10.00">buffer.h</text>
</a>
</g>
</g>
<!-- Node20&#45;&gt;Node28 -->
<g id="edge66" class="edge"><title>Node20&#45;&gt;Node28</title>
<path fill="none" stroke="midnightblue" d="M764.742,-288.019C678.234,-284.627 414.082,-272.039 389,-244 366.48,-218.825 379.212,-200.328 389,-168 392.117,-157.705 398.452,-147.612 404.501,-139.602"/>
<polygon fill="midnightblue" stroke="midnightblue" points="407.228,-141.797 410.786,-131.818 401.781,-137.399 407.228,-141.797"/>
</g>
<!-- Node31 -->
<g id="node31" class="node"><title>Node31</title>
<g id="a_node31"><a xlink:href="useful__base__types_8h.html" target="_top" xlink:title=" ">
<polygon fill="white" stroke="black" points="396,-56.5 396,-75.5 502,-75.5 502,-56.5 396,-56.5"/>
<text text-anchor="middle" x="449" y="-63.5" font-family="Helvetica,sans-Serif" font-size="10.00">useful_base_types.h</text>
</a>
</g>
</g>
<!-- Node20&#45;&gt;Node31 -->
<g id="edge69" class="edge"><title>Node20&#45;&gt;Node31</title>
<path fill="none" stroke="midnightblue" d="M764.814,-285.104C691.909,-274.024 495.187,-239.753 460,-188 457.175,-183.845 452.462,-118.847 450.236,-85.876"/>
<polygon fill="midnightblue" stroke="midnightblue" points="453.715,-85.4473 449.56,-75.7016 446.731,-85.9117 453.715,-85.4473"/>
</g>
<!-- Node32 -->
<g id="node32" class="node"><title>Node32</title>
<g id="a_node32"><a xlink:href="utils_8h.html" target="_top" xlink:title=" ">
<polygon fill="white" stroke="black" points="635.5,-112.5 635.5,-131.5 678.5,-131.5 678.5,-112.5 635.5,-112.5"/>
<text text-anchor="middle" x="657" y="-119.5" font-family="Helvetica,sans-Serif" font-size="10.00">utils.h</text>
</a>
</g>
</g>
<!-- Node20&#45;&gt;Node32 -->
<g id="edge70" class="edge"><title>Node20&#45;&gt;Node32</title>
<path fill="none" stroke="midnightblue" d="M794.914,-280.336C801.536,-258.9 815.269,-202.619 790,-168 786.875,-163.719 726.586,-144.478 688.263,-132.584"/>
<polygon fill="midnightblue" stroke="midnightblue" points="689.16,-129.198 678.572,-129.588 687.092,-135.886 689.16,-129.198"/>
</g>
<!-- Node37 -->
<g id="node37" class="node"><title>Node37</title>
<g id="a_node37"><a xlink:href="exception_8h.html" target="_top" xlink:title=" ">
<polygon fill="white" stroke="black" points="848.5,-112.5 848.5,-131.5 915.5,-131.5 915.5,-112.5 848.5,-112.5"/>
<text text-anchor="middle" x="882" y="-119.5" font-family="Helvetica,sans-Serif" font-size="10.00">exception.h</text>
</a>
</g>
</g>
<!-- Node20&#45;&gt;Node37 -->
<g id="edge68" class="edge"><title>Node20&#45;&gt;Node37</title>
<path fill="none" stroke="midnightblue" d="M799.201,-280.346C812.9,-263.518 842.955,-224.799 861,-188 868.343,-173.027 873.955,-154.89 877.523,-141.583"/>
<polygon fill="midnightblue" stroke="midnightblue" points="880.959,-142.271 880.031,-131.717 874.175,-140.546 880.959,-142.271"/>
</g>
<!-- Node23 -->
<g id="node23" class="node"><title>Node23</title>
<g id="a_node23"><a xlink:title=" ">
<polygon fill="white" stroke="#bfbfbf" points="469.5,-168.5 469.5,-187.5 510.5,-187.5 510.5,-168.5 469.5,-168.5"/>
<text text-anchor="middle" x="490" y="-175.5" font-family="Helvetica,sans-Serif" font-size="10.00">string</text>
</a>
</g>
</g>
<!-- Node22&#45;&gt;Node23 -->
<g id="edge25" class="edge"><title>Node22&#45;&gt;Node23</title>
<path fill="none" stroke="midnightblue" d="M590.986,-224.444C571.412,-215.636 540.692,-201.812 518.271,-191.722"/>
<polygon fill="midnightblue" stroke="midnightblue" points="519.481,-188.428 508.925,-187.516 516.608,-194.812 519.481,-188.428"/>
</g>
<!-- Node24 -->
<g id="node24" class="node"><title>Node24</title>
<g id="a_node24"><a xlink:title=" ">
<polygon fill="white" stroke="#bfbfbf" points="529,-168.5 529,-187.5 573,-187.5 573,-168.5 529,-168.5"/>
<text text-anchor="middle" x="551" y="-175.5" font-family="Helvetica,sans-Serif" font-size="10.00">variant</text>
</a>
</g>
</g>
<!-- Node22&#45;&gt;Node24 -->
<g id="edge26" class="edge"><title>Node22&#45;&gt;Node24</title>
<path fill="none" stroke="midnightblue" d="M600.521,-224.324C591.799,-216.341 578.657,-204.313 568.102,-194.653"/>
<polygon fill="midnightblue" stroke="midnightblue" points="570.392,-192.004 560.652,-187.834 565.666,-197.167 570.392,-192.004"/>
</g>
<!-- Node25 -->
<g id="node25" class="node"><title>Node25</title>
<g id="a_node25"><a xlink:href="bin__rw_8h.html" target="_top" xlink:title=" ">
<polygon fill="white" stroke="black" points="283.5,-168.5 283.5,-187.5 336.5,-187.5 336.5,-168.5 283.5,-168.5"/>
<text text-anchor="middle" x="310" y="-175.5" font-family="Helvetica,sans-Serif" font-size="10.00">bin_rw.h</text>
</a>
</g>
</g>
<!-- Node22&#45;&gt;Node25 -->
<g id="edge27" class="edge"><title>Node22&#45;&gt;Node25</title>
<path fill="none" stroke="midnightblue" d="M580.414,-227.674C525.331,-217.76 407.194,-196.495 346.959,-185.653"/>
<polygon fill="midnightblue" stroke="midnightblue" points="347.223,-182.144 336.762,-183.817 345.983,-189.033 347.223,-182.144"/>
</g>
<!-- Node22&#45;&gt;Node28 -->
<g id="edge54" class="edge"><title>Node22&#45;&gt;Node28</title>
<path fill="none" stroke="midnightblue" d="M580.449,-230.311C548.023,-226.055 495.828,-215.223 460,-188 444.1,-175.919 432.777,-155.746 426.115,-141.072"/>
<polygon fill="midnightblue" stroke="midnightblue" points="429.208,-139.4 422.088,-131.554 422.761,-142.128 429.208,-139.4"/>
</g>
<!-- Node22&#45;&gt;Node32 -->
<g id="edge65" class="edge"><title>Node22&#45;&gt;Node32</title>
<path fill="none" stroke="midnightblue" d="M616.324,-224.432C622.555,-215.658 631.99,-201.44 638,-188 644.749,-172.907 649.817,-154.782 653.013,-141.51"/>
<polygon fill="midnightblue" stroke="midnightblue" points="656.445,-142.205 655.255,-131.677 649.62,-140.649 656.445,-142.205"/>
</g>
<!-- Node22&#45;&gt;Node37 -->
<g id="edge55" class="edge"><title>Node22&#45;&gt;Node37</title>
<path fill="none" stroke="midnightblue" d="M639.796,-229.006C676.44,-223.328 739.933,-210.964 790,-188 818.414,-174.968 847.212,-152.869 864.838,-138.106"/>
<polygon fill="midnightblue" stroke="midnightblue" points="867.215,-140.679 872.542,-131.52 862.666,-135.358 867.215,-140.679"/>
</g>
<!-- Node38 -->
<g id="node38" class="node"><title>Node38</title>
<g id="a_node38"><a xlink:href="sys__socket__ops_8h.html" target="_top" xlink:title=" ">
<polygon fill="white" stroke="black" points="685,-168.5 685,-187.5 781,-187.5 781,-168.5 685,-168.5"/>
<text text-anchor="middle" x="733" y="-175.5" font-family="Helvetica,sans-Serif" font-size="10.00">sys_socket_ops.h</text>
</a>
</g>
</g>
<!-- Node22&#45;&gt;Node38 -->
<g id="edge58" class="edge"><title>Node22&#45;&gt;Node38</title>
<path fill="none" stroke="midnightblue" d="M629.49,-224.444C649.642,-215.596 681.323,-201.687 704.331,-191.586"/>
<polygon fill="midnightblue" stroke="midnightblue" points="705.852,-194.741 713.601,-187.516 703.038,-188.332 705.852,-194.741"/>
</g>
<!-- Node40 -->
<g id="node40" class="node"><title>Node40</title>
<g id="a_node40"><a xlink:href="tag_8h.html" target="_top" xlink:title=" ">
<polygon fill="white" stroke="black" points="591,-168.5 591,-187.5 629,-187.5 629,-168.5 591,-168.5"/>
<text text-anchor="middle" x="610" y="-175.5" font-family="Helvetica,sans-Serif" font-size="10.00">tag.h</text>
</a>
</g>
</g>
<!-- Node22&#45;&gt;Node40 -->
<g id="edge64" class="edge"><title>Node22&#45;&gt;Node40</title>
<path fill="none" stroke="midnightblue" d="M610,-224.083C610,-217.006 610,-206.861 610,-197.986"/>
<polygon fill="midnightblue" stroke="midnightblue" points="613.5,-197.751 610,-187.751 606.5,-197.751 613.5,-197.751"/>
</g>
<!-- Node25&#45;&gt;Node3 -->
<g id="edge30" class="edge"><title>Node25&#45;&gt;Node3</title>
<path fill="none" stroke="midnightblue" d="M309.922,-168.368C309.76,-150.617 309.388,-109.666 309.169,-85.5974"/>
<polygon fill="midnightblue" stroke="midnightblue" points="312.669,-85.5592 309.078,-75.5914 305.669,-85.6229 312.669,-85.5592"/>
</g>
<!-- Node26 -->
<g id="node26" class="node"><title>Node26</title>
<g id="a_node26"><a xlink:title=" ">
<polygon fill="white" stroke="#bfbfbf" points="321,-112.5 321,-131.5 377,-131.5 377,-112.5 321,-112.5"/>
<text text-anchor="middle" x="349" y="-119.5" font-family="Helvetica,sans-Serif" font-size="10.00">algorithm</text>
</a>
</g>
</g>
<!-- Node25&#45;&gt;Node26 -->
<g id="edge28" class="edge"><title>Node25&#45;&gt;Node26</title>
<path fill="none" stroke="midnightblue" d="M316.44,-168.083C321.949,-160.455 330.031,-149.264 336.765,-139.941"/>
<polygon fill="midnightblue" stroke="midnightblue" points="339.662,-141.907 342.68,-131.751 333.987,-137.809 339.662,-141.907"/>
</g>
<!-- Node27 -->
<g id="node27" class="node"><title>Node27</title>
<g id="a_node27"><a xlink:title=" ">
<polygon fill="white" stroke="#bfbfbf" points="214,-56.5 214,-75.5 260,-75.5 260,-56.5 214,-56.5"/>
<text text-anchor="middle" x="237" y="-63.5" font-family="Helvetica,sans-Serif" font-size="10.00">cstring</text>
</a>
</g>
</g>
<!-- Node25&#45;&gt;Node27 -->
<g id="edge29" class="edge"><title>Node25&#45;&gt;Node27</title>
<path fill="none" stroke="midnightblue" d="M304.272,-168.368C292.225,-150.215 264.077,-107.802 248.275,-83.9902"/>
<polygon fill="midnightblue" stroke="midnightblue" points="251.147,-81.9882 242.702,-75.5914 245.315,-85.8589 251.147,-81.9882"/>
</g>
<!-- Node25&#45;&gt;Node28 -->
<g id="edge31" class="edge"><title>Node25&#45;&gt;Node28</title>
<path fill="none" stroke="midnightblue" d="M327.513,-168.324C345.072,-159.625 372.331,-146.12 392.531,-136.113"/>
<polygon fill="midnightblue" stroke="midnightblue" points="394.124,-139.23 401.531,-131.655 391.016,-132.958 394.124,-139.23"/>
</g>
<!-- Node29 -->
<g id="node29" class="node"><title>Node29</title>
<g id="a_node29"><a xlink:href="endian_8h.html" target="_top" xlink:title=" ">
<polygon fill="white" stroke="black" points="135.5,-112.5 135.5,-131.5 188.5,-131.5 188.5,-112.5 135.5,-112.5"/>
<text text-anchor="middle" x="162" y="-119.5" font-family="Helvetica,sans-Serif" font-size="10.00">endian.h</text>
</a>
</g>
</g>
<!-- Node25&#45;&gt;Node29 -->
<g id="edge38" class="edge"><title>Node25&#45;&gt;Node29</title>
<path fill="none" stroke="midnightblue" d="M286.549,-168.444C261.867,-159.438 222.815,-145.189 195.023,-135.049"/>
<polygon fill="midnightblue" stroke="midnightblue" points="195.935,-131.656 185.341,-131.516 193.536,-138.232 195.935,-131.656"/>
</g>
<!-- Node25&#45;&gt;Node32 -->
<g id="edge44" class="edge"><title>Node25&#45;&gt;Node32</title>
<path fill="none" stroke="midnightblue" d="M336.652,-172.852C399.62,-163.053 557.377,-138.503 625.195,-127.949"/>
<polygon fill="midnightblue" stroke="midnightblue" points="625.936,-131.376 635.279,-126.38 624.86,-124.46 625.936,-131.376"/>
</g>
<!-- Node28&#45;&gt;Node2 -->
<g id="edge34" class="edge"><title>Node28&#45;&gt;Node2</title>
<path fill="none" stroke="midnightblue" d="M394.952,-113.97C391.954,-113.233 388.917,-112.553 386,-112 243.875,-85.0652 202.145,-103.269 56.5169,-75.992"/>
<polygon fill="midnightblue" stroke="midnightblue" points="56.7913,-72.481 46.3116,-74.0386 55.4753,-79.3562 56.7913,-72.481"/>
</g>
<!-- Node28&#45;&gt;Node3 -->
<g id="edge36" class="edge"><title>Node28&#45;&gt;Node3</title>
<path fill="none" stroke="midnightblue" d="M401.327,-112.324C383.606,-103.625 356.097,-90.1202 335.712,-80.113"/>
<polygon fill="midnightblue" stroke="midnightblue" points="337.149,-76.9195 326.63,-75.6545 334.064,-83.2031 337.149,-76.9195"/>
</g>
<!-- Node28&#45;&gt;Node6 -->
<g id="edge37" class="edge"><title>Node28&#45;&gt;Node6</title>
<path fill="none" stroke="midnightblue" d="M443.175,-119.696C515.633,-115.618 737.494,-101.883 931.827,-76.0356"/>
<polygon fill="midnightblue" stroke="midnightblue" points="932.493,-79.4776 941.938,-74.6763 931.561,-72.54 932.493,-79.4776"/>
</g>
<!-- Node28&#45;&gt;Node15 -->
<g id="edge33" class="edge"><title>Node28&#45;&gt;Node15</title>
<path fill="none" stroke="midnightblue" d="M409.13,-112.473C395.345,-99.5238 373.458,-74.4575 387,-56 411.728,-22.2949 461.718,-13.1697 495.537,-11.0488"/>
<polygon fill="midnightblue" stroke="midnightblue" points="496.063,-14.5288 505.896,-10.5841 495.749,-7.53587 496.063,-14.5288"/>
</g>
<!-- Node28&#45;&gt;Node19 -->
<g id="edge35" class="edge"><title>Node28&#45;&gt;Node19</title>
<path fill="none" stroke="midnightblue" d="M443.294,-119.111C506.618,-114.038 682.105,-99.0235 839.508,-75.9403"/>
<polygon fill="midnightblue" stroke="midnightblue" points="840.469,-79.3362 849.848,-74.4082 839.443,-72.4118 840.469,-79.3362"/>
</g>
<!-- Node28&#45;&gt;Node21 -->
<g id="edge32" class="edge"><title>Node28&#45;&gt;Node21</title>
<path fill="none" stroke="midnightblue" d="M394.899,-114.218C391.91,-113.439 388.89,-112.681 386,-112 309.283,-93.9325 286.656,-94.4319 205.973,-76.0979"/>
<polygon fill="midnightblue" stroke="midnightblue" points="206.368,-72.5975 195.838,-73.7662 204.798,-79.4193 206.368,-72.5975"/>
</g>
<!-- Node29&#45;&gt;Node2 -->
<g id="edge39" class="edge"><title>Node29&#45;&gt;Node2</title>
<path fill="none" stroke="midnightblue" d="M139.975,-112.444C116.896,-103.478 80.438,-89.314 54.3591,-79.1827"/>
<polygon fill="midnightblue" stroke="midnightblue" points="55.5107,-75.8753 44.9219,-75.5164 52.9758,-82.4002 55.5107,-75.8753"/>
</g>
<!-- Node29&#45;&gt;Node3 -->
<g id="edge42" class="edge"><title>Node29&#45;&gt;Node3</title>
<path fill="none" stroke="midnightblue" d="M185.293,-112.444C209.807,-103.438 248.596,-89.1891 276.2,-79.049"/>
<polygon fill="midnightblue" stroke="midnightblue" points="277.637,-82.25 285.816,-75.5164 275.223,-75.6793 277.637,-82.25"/>
</g>
<!-- Node29&#45;&gt;Node27 -->
<g id="edge40" class="edge"><title>Node29&#45;&gt;Node27</title>
<path fill="none" stroke="midnightblue" d="M174.05,-112.324C185.463,-104.107 202.831,-91.6017 216.435,-81.8069"/>
<polygon fill="midnightblue" stroke="midnightblue" points="218.66,-84.5174 224.731,-75.8339 214.57,-78.8366 218.66,-84.5174"/>
</g>
<!-- Node30 -->
<g id="node30" class="node"><title>Node30</title>
<g id="a_node30"><a xlink:title=" ">
<polygon fill="white" stroke="#bfbfbf" points="64,-56.5 64,-75.5 128,-75.5 128,-56.5 64,-56.5"/>
<text text-anchor="middle" x="96" y="-63.5" font-family="Helvetica,sans-Serif" font-size="10.00">string_view</text>
</a>
</g>
</g>
<!-- Node29&#45;&gt;Node30 -->
<g id="edge41" class="edge"><title>Node29&#45;&gt;Node30</title>
<path fill="none" stroke="midnightblue" d="M151.396,-112.324C141.544,-104.263 126.649,-92.0765 114.785,-82.3695"/>
<polygon fill="midnightblue" stroke="midnightblue" points="116.753,-79.4575 106.797,-75.8339 112.32,-84.8752 116.753,-79.4575"/>
</g>
<!-- Node29&#45;&gt;Node31 -->
<g id="edge43" class="edge"><title>Node29&#45;&gt;Node31</title>
<path fill="none" stroke="midnightblue" d="M188.743,-115.968C235.34,-107.201 332.309,-88.9557 393.83,-77.3804"/>
<polygon fill="midnightblue" stroke="midnightblue" points="394.58,-80.8008 403.761,-75.512 393.286,-73.9215 394.58,-80.8008"/>
</g>
<!-- Node32&#45;&gt;Node3 -->
<g id="edge51" class="edge"><title>Node32&#45;&gt;Node3</title>
<path fill="none" stroke="midnightblue" d="M635.494,-117.663C578.74,-108.856 424.208,-84.8771 349.933,-73.3517"/>
<polygon fill="midnightblue" stroke="midnightblue" points="350.422,-69.8858 340.004,-71.811 349.349,-76.803 350.422,-69.8858"/>
</g>
<!-- Node32&#45;&gt;Node6 -->
<g id="edge53" class="edge"><title>Node32&#45;&gt;Node6</title>
<path fill="none" stroke="midnightblue" d="M678.584,-114.325C681.725,-113.473 684.933,-112.667 688,-112 792.392,-89.2882 822.655,-93.6557 931.806,-76.132"/>
<polygon fill="midnightblue" stroke="midnightblue" points="932.603,-79.5485 941.909,-74.4842 931.476,-72.6397 932.603,-79.5485"/>
</g>
<!-- Node32&#45;&gt;Node17 -->
<g id="edge47" class="edge"><title>Node32&#45;&gt;Node17</title>
<path fill="none" stroke="midnightblue" d="M678.56,-114.209C681.705,-113.374 684.92,-112.604 688,-112 838.419,-82.5151 879.414,-98.7383 1031,-76 1036.39,-75.1908 1042.12,-74.1884 1047.63,-73.1493"/>
<polygon fill="midnightblue" stroke="midnightblue" points="1048.68,-76.5094 1057.82,-71.1473 1047.33,-69.6407 1048.68,-76.5094"/>
</g>
<!-- Node32&#45;&gt;Node19 -->
<g id="edge50" class="edge"><title>Node32&#45;&gt;Node19</title>
<path fill="none" stroke="midnightblue" d="M678.635,-114.539C681.768,-113.656 684.961,-112.784 688,-112 739.696,-98.6635 799.502,-85.4319 839.947,-76.8048"/>
<polygon fill="midnightblue" stroke="midnightblue" points="840.741,-80.2143 849.796,-74.7134 839.287,-73.367 840.741,-80.2143"/>
</g>
<!-- Node32&#45;&gt;Node27 -->
<g id="edge49" class="edge"><title>Node32&#45;&gt;Node27</title>
<path fill="none" stroke="midnightblue" d="M635.363,-119.7C577.547,-115.971 414.593,-103.803 270.235,-75.963"/>
<polygon fill="midnightblue" stroke="midnightblue" points="270.802,-72.5075 260.315,-74.019 269.456,-79.3769 270.802,-72.5075"/>
</g>
<!-- Node33 -->
<g id="node33" class="node"><title>Node33</title>
<g id="a_node33"><a xlink:title=" ">
<polygon fill="white" stroke="#bfbfbf" points="520,-56.5 520,-75.5 580,-75.5 580,-56.5 520,-56.5"/>
<text text-anchor="middle" x="550" y="-63.5" font-family="Helvetica,sans-Serif" font-size="10.00">fmt/core.h</text>
</a>
</g>
</g>
<!-- Node32&#45;&gt;Node33 -->
<g id="edge45" class="edge"><title>Node32&#45;&gt;Node33</title>
<path fill="none" stroke="midnightblue" d="M639.809,-112.324C622.649,-103.664 596.054,-90.2424 576.253,-80.249"/>
<polygon fill="midnightblue" stroke="midnightblue" points="577.653,-77.0354 567.149,-75.6545 574.499,-83.2847 577.653,-77.0354"/>
</g>
<!-- Node34 -->
<g id="node34" class="node"><title>Node34</title>
<g id="a_node34"><a xlink:title=" ">
<polygon fill="white" stroke="#bfbfbf" points="598,-56.5 598,-75.5 666,-75.5 666,-56.5 598,-56.5"/>
<text text-anchor="middle" x="632" y="-63.5" font-family="Helvetica,sans-Serif" font-size="10.00">fmt/format.h</text>
</a>
</g>
</g>
<!-- Node32&#45;&gt;Node34 -->
<g id="edge46" class="edge"><title>Node32&#45;&gt;Node34</title>
<path fill="none" stroke="midnightblue" d="M652.872,-112.083C649.486,-104.77 644.584,-94.1814 640.381,-85.1034"/>
<polygon fill="midnightblue" stroke="midnightblue" points="643.429,-83.3553 636.051,-75.7511 637.077,-86.2962 643.429,-83.3553"/>
</g>
<!-- Node35 -->
<g id="node35" class="node"><title>Node35</title>
<g id="a_node35"><a xlink:title=" ">
<polygon fill="white" stroke="#bfbfbf" points="684,-56.5 684,-75.5 730,-75.5 730,-56.5 684,-56.5"/>
<text text-anchor="middle" x="707" y="-63.5" font-family="Helvetica,sans-Serif" font-size="10.00">chrono</text>
</a>
</g>
</g>
<!-- Node32&#45;&gt;Node35 -->
<g id="edge48" class="edge"><title>Node32&#45;&gt;Node35</title>
<path fill="none" stroke="midnightblue" d="M665.256,-112.083C672.465,-104.298 683.11,-92.8015 691.846,-83.3665"/>
<polygon fill="midnightblue" stroke="midnightblue" points="694.671,-85.4666 698.897,-75.7511 689.535,-80.7108 694.671,-85.4666"/>
</g>
<!-- Node36 -->
<g id="node36" class="node"><title>Node36</title>
<g id="a_node36"><a xlink:title=" ">
<polygon fill="white" stroke="#bfbfbf" points="748.5,-56.5 748.5,-75.5 831.5,-75.5 831.5,-56.5 748.5,-56.5"/>
<text text-anchor="middle" x="790" y="-63.5" font-family="Helvetica,sans-Serif" font-size="10.00">unordered_map</text>
</a>
</g>
</g>
<!-- Node32&#45;&gt;Node36 -->
<g id="edge52" class="edge"><title>Node32&#45;&gt;Node36</title>
<path fill="none" stroke="midnightblue" d="M678.074,-112.444C700.06,-103.517 734.734,-89.4387 759.664,-79.3168"/>
<polygon fill="midnightblue" stroke="midnightblue" points="761.076,-82.5213 769.024,-75.5164 758.442,-76.0355 761.076,-82.5213"/>
</g>
<!-- Node37&#45;&gt;Node6 -->
<g id="edge57" class="edge"><title>Node37&#45;&gt;Node6</title>
<path fill="none" stroke="midnightblue" d="M898.067,-112.324C913.958,-103.743 938.507,-90.486 956.958,-80.5224"/>
<polygon fill="midnightblue" stroke="midnightblue" points="958.837,-83.4857 965.973,-75.6545 955.511,-77.3264 958.837,-83.4857"/>
</g>
<!-- Node37&#45;&gt;Node19 -->
<g id="edge56" class="edge"><title>Node37&#45;&gt;Node19</title>
<path fill="none" stroke="midnightblue" d="M882.826,-112.083C883.481,-105.006 884.42,-94.8611 885.242,-85.9865"/>
<polygon fill="midnightblue" stroke="midnightblue" points="888.753,-86.0312 886.19,-75.7511 881.783,-85.3858 888.753,-86.0312"/>
</g>
<!-- Node38&#45;&gt;Node6 -->
<g id="edge59" class="edge"><title>Node38&#45;&gt;Node6</title>
<path fill="none" stroke="midnightblue" d="M744.86,-168.375C763.908,-154.842 802.854,-128.467 839,-112 870.674,-97.5703 908.279,-85.9363 936.975,-78.1149"/>
<polygon fill="midnightblue" stroke="midnightblue" points="937.972,-81.4715 946.73,-75.509 936.165,-74.7087 937.972,-81.4715"/>
</g>
<!-- Node38&#45;&gt;Node31 -->
<g id="edge63" class="edge"><title>Node38&#45;&gt;Node31</title>
<path fill="none" stroke="midnightblue" d="M710.715,-168.368C660.529,-148.93 538.523,-101.674 480.57,-79.2278"/>
<polygon fill="midnightblue" stroke="midnightblue" points="481.771,-75.9395 471.181,-75.5914 479.242,-82.467 481.771,-75.9395"/>
</g>
<!-- Node39 -->
<g id="node39" class="node"><title>Node39</title>
<g id="a_node39"><a xlink:href="sys__error__code_8h.html" target="_top" xlink:title=" ">
<polygon fill="white" stroke="black" points="697,-112.5 697,-131.5 789,-131.5 789,-112.5 697,-112.5"/>
<text text-anchor="middle" x="743" y="-119.5" font-family="Helvetica,sans-Serif" font-size="10.00">sys_error_code.h</text>
</a>
</g>
</g>
<!-- Node38&#45;&gt;Node39 -->
<g id="edge60" class="edge"><title>Node38&#45;&gt;Node39</title>
<path fill="none" stroke="midnightblue" d="M734.651,-168.083C735.976,-160.927 737.882,-150.635 739.539,-141.691"/>
<polygon fill="midnightblue" stroke="midnightblue" points="743,-142.221 741.379,-131.751 736.117,-140.947 743,-142.221"/>
</g>
<!-- Node39&#45;&gt;Node6 -->
<g id="edge61" class="edge"><title>Node39&#45;&gt;Node6</title>
<path fill="none" stroke="midnightblue" d="M780.87,-112.444C822.476,-103.043 889.369,-87.9291 934.469,-77.7393"/>
<polygon fill="midnightblue" stroke="midnightblue" points="935.324,-81.1343 944.307,-75.5164 933.781,-74.3064 935.324,-81.1343"/>
</g>
<!-- Node39&#45;&gt;Node31 -->
<g id="edge62" class="edge"><title>Node39&#45;&gt;Node31</title>
<path fill="none" stroke="midnightblue" d="M696.739,-112.503C644.98,-102.996 561.115,-87.5926 505.515,-77.3803"/>
<polygon fill="midnightblue" stroke="midnightblue" points="505.944,-73.9006 495.476,-75.5364 504.679,-80.7854 505.944,-73.9006"/>
</g>
</g>
</svg>
        <g id="navigator" transform="translate(0 0)" fill="#404254">
                <rect fill="#f2f5e9" fill-opacity="0.5" stroke="#606060" stroke-width=".5" x="0" y="0" width="60" height="60"/>
                <use id="zoomplus" xlink:href="#zoomPlus" x="17" y="9" onmousedown="handleZoom(evt,'in')"/>
                <use id="zoomminus" xlink:href="#zoomMin" x="42" y="9" onmousedown="handleZoom(evt,'out')"/>
                <use id="reset" xlink:href="#resetDef" x="30" y="36" onmousedown="handleReset()"/>
                <g id="arrowUp" xlink:href="#dirArrow" transform="translate(30 24)" onmousedown="handlePan(0,-1)">
                  <use xlink:href="#rim" fill="#404040">
                        <set attributeName="fill" to="#808080" begin="arrowUp.mouseover" end="arrowUp.mouseout"/>
                  </use>
                  <path fill="none" stroke="white" stroke-width="1.5" d="M0,-3.0v7 M-2.5,-0.5L0,-3.0L2.5,-0.5"/>
                </g>
                <g id="arrowRight" xlink:href="#dirArrow" transform="rotate(90) translate(36 -43)" onmousedown="handlePan(1,0)">
                  <use xlink:href="#rim" fill="#404040">
                        <set attributeName="fill" to="#808080" begin="arrowRight.mouseover" end="arrowRight.mouseout"/>
                  </use>
                  <path fill="none" stroke="white" stroke-width="1.5" d="M0,-3.0v7 M-2.5,-0.5L0,-3.0L2.5,-0.5"/>
                </g>
                <g id="arrowDown" xlink:href="#dirArrow" transform="rotate(180) translate(-30 -48)" onmousedown="handlePan(0,1)">
                  <use xlink:href="#rim" fill="#404040">
                        <set attributeName="fill" to="#808080" begin="arrowDown.mouseover" end="arrowDown.mouseout"/>
                  </use>
                  <path fill="none" stroke="white" stroke-width="1.5" d="M0,-3.0v7 M-2.5,-0.5L0,-3.0L2.5,-0.5"/>
                </g>
                <g id="arrowLeft" xlink:href="#dirArrow" transform="rotate(270) translate(-36 17)" onmousedown="handlePan(-1,0)">
                  <use xlink:href="#rim" fill="#404040">
                        <set attributeName="fill" to="#808080" begin="arrowLeft.mouseover" end="arrowLeft.mouseout"/>
                  </use>
                  <path fill="none" stroke="white" stroke-width="1.5" d="M0,-3.0v7 M-2.5,-0.5L0,-3.0L2.5,-0.5"/>
                </g>
        </g>
        <svg viewBox="0 0 15 15" width="100%" height="30px" preserveAspectRatio="xMaxYMin meet">
         <g id="arrow_out" transform="scale(0.3 0.3)">
          <a xlink:href="event__handler__select_8h__incl_org.svg" target="_base">
           <rect id="button" ry="5" rx="5" y="6" x="6" height="38" width="38"
                fill="#f2f5e9" fill-opacity="0.5" stroke="#606060" stroke-width="1.0"/>
           <path id="arrow"
             d="M 11.500037,31.436501 C 11.940474,20.09759 22.043105,11.32322 32.158766,21.979434 L 37.068811,17.246167 C 37.068811,17.246167 37.088388,32 37.088388,32 L 22.160133,31.978069 C 22.160133,31.978069 26.997745,27.140456 26.997745,27.140456 C 18.528582,18.264221 13.291696,25.230495 11.500037,31.436501 z"
             style="fill:#404040;"/>
          </a>
         </g>
        </svg>
</svg>
