<?xml version="1.0" encoding="UTF-8" standalone="no"?>
<!DOCTYPE svg PUBLIC "-//W3C//DTD SVG 1.1//EN"
 "http://www.w3.org/Graphics/SVG/1.1/DTD/svg11.dtd">
<!-- Generated by graphviz version 2.38.0 (20140413.2041)
 -->
<!-- Title: C:/projects/ndt/sources/include/ndt/event_handler_select.h Pages: 1 -->
<svg width="389pt" height="418pt"
 viewBox="0.00 0.00 389.12 418.00" xmlns="http://www.w3.org/2000/svg" xmlns:xlink="http://www.w3.org/1999/xlink">
<g id="graph0" class="graph" transform="scale(1 1) rotate(0) translate(4 414)">
<title>C:/projects/ndt/sources/include/ndt/event_handler_select.h</title>
<polygon fill="white" stroke="none" points="-4,4 -4,-414 385.117,-414 385.117,4 -4,4"/>
<!-- Node1 -->
<g id="node1" class="node"><title>Node1</title>
<g id="a_node1"><a xlink:title=" ">
<polygon fill="#bfbfbf" stroke="black" points="71.5,-368.5 71.5,-409.5 200.5,-409.5 200.5,-368.5 71.5,-368.5"/>
<text text-anchor="start" x="79.5" y="-397.5" font-family="Helvetica,sans-Serif" font-size="10.00">C:/projects/ndt/sources</text>
<text text-anchor="start" x="79.5" y="-386.5" font-family="Helvetica,sans-Serif" font-size="10.00">/include/ndt/event_handler</text>
<text text-anchor="middle" x="136" y="-375.5" font-family="Helvetica,sans-Serif" font-size="10.00">_select.h</text>
</a>
</g>
</g>
<!-- Node2 -->
<g id="node2" class="node"><title>Node2</title>
<g id="a_node2"><a xlink:href="core_8h.html" target="_top" xlink:title=" ">
<polygon fill="white" stroke="black" points="0,-0.5 0,-30.5 118,-30.5 118,-0.5 0,-0.5"/>
<text text-anchor="start" x="8" y="-18.5" font-family="Helvetica,sans-Serif" font-size="10.00">C:/projects/ndt/sources</text>
<text text-anchor="middle" x="59" y="-7.5" font-family="Helvetica,sans-Serif" font-size="10.00">/include/ndt/core.h</text>
</a>
</g>
</g>
<!-- Node1&#45;&gt;Node2 -->
<g id="edge1" class="edge"><title>Node1&#45;&gt;Node2</title>
<path fill="none" stroke="midnightblue" d="M92.8466,-362.685C53.6763,-336.096 2,-290.342 2,-234 2,-234 2,-234 2,-154 2,-105.677 32.4143,-54.5828 48.8095,-30.5506"/>
<polygon fill="midnightblue" stroke="midnightblue" points="91.2164,-365.802 101.492,-368.385 95.0697,-359.958 91.2164,-365.802"/>
</g>
<!-- Node3 -->
<g id="node3" class="node"><title>Node3</title>
<g id="a_node3"><a xlink:href="executor__select__base_8h.html" target="_top" xlink:title=" ">
<polygon fill="white" stroke="black" points="77,-290.5 77,-331.5 195,-331.5 195,-290.5 77,-290.5"/>
<text text-anchor="start" x="85" y="-319.5" font-family="Helvetica,sans-Serif" font-size="10.00">C:/projects/ndt/sources</text>
<text text-anchor="start" x="85" y="-308.5" font-family="Helvetica,sans-Serif" font-size="10.00">/include/ndt/executor</text>
<text text-anchor="middle" x="136" y="-297.5" font-family="Helvetica,sans-Serif" font-size="10.00">_select_base.h</text>
</a>
</g>
</g>
<!-- Node1&#45;&gt;Node3 -->
<g id="edge2" class="edge"><title>Node1&#45;&gt;Node3</title>
<path fill="none" stroke="midnightblue" d="M136,-358.297C136,-349.301 136,-339.653 136,-331.506"/>
<polygon fill="midnightblue" stroke="midnightblue" points="132.5,-358.428 136,-368.428 139.5,-358.428 132.5,-358.428"/>
</g>
<!-- Node3&#45;&gt;Node2 -->
<g id="edge3" class="edge"><title>Node3&#45;&gt;Node2</title>
<path fill="none" stroke="midnightblue" d="M86.5131,-284.555C75.4774,-276.38 65.2162,-266.207 59,-254 20.1758,-177.758 44.2893,-69.0773 54.8195,-30.6339"/>
<polygon fill="midnightblue" stroke="midnightblue" points="84.8246,-287.642 95.049,-290.419 88.788,-281.872 84.8246,-287.642"/>
</g>
<!-- Node4 -->
<g id="node4" class="node"><title>Node4</title>
<g id="a_node4"><a xlink:href="nix_2executor__select__impl_8h.html" target="_top" xlink:title=" ">
<polygon fill="white" stroke="black" points="68,-212.5 68,-253.5 204,-253.5 204,-212.5 68,-212.5"/>
<text text-anchor="start" x="76" y="-241.5" font-family="Helvetica,sans-Serif" font-size="10.00">C:/projects/ndt/sources</text>
<text text-anchor="start" x="76" y="-230.5" font-family="Helvetica,sans-Serif" font-size="10.00">/include/ndt/platform</text>
<text text-anchor="middle" x="136" y="-219.5" font-family="Helvetica,sans-Serif" font-size="10.00">/nix/executor_select_impl.h</text>
</a>
</g>
</g>
<!-- Node3&#45;&gt;Node4 -->
<g id="edge4" class="edge"><title>Node3&#45;&gt;Node4</title>
<path fill="none" stroke="midnightblue" d="M136,-280.297C136,-271.301 136,-261.653 136,-253.506"/>
<polygon fill="midnightblue" stroke="midnightblue" points="132.5,-280.428 136,-290.428 139.5,-280.428 132.5,-280.428"/>
</g>
<!-- Node7 -->
<g id="node7" class="node"><title>Node7</title>
<g id="a_node7"><a xlink:href="win_2executor__select__impl_8h.html" target="_top" xlink:title=" ">
<polygon fill="white" stroke="black" points="222.5,-212.5 222.5,-253.5 359.5,-253.5 359.5,-212.5 222.5,-212.5"/>
<text text-anchor="start" x="230.5" y="-241.5" font-family="Helvetica,sans-Serif" font-size="10.00">C:/projects/ndt/sources</text>
<text text-anchor="start" x="230.5" y="-230.5" font-family="Helvetica,sans-Serif" font-size="10.00">/include/ndt/platform</text>
<text text-anchor="middle" x="291" y="-219.5" font-family="Helvetica,sans-Serif" font-size="10.00">/win/executor_select_impl.h</text>
</a>
</g>
</g>
<!-- Node3&#45;&gt;Node7 -->
<g id="edge10" class="edge"><title>Node3&#45;&gt;Node7</title>
<path fill="none" stroke="midnightblue" d="M185.135,-285.908C206.447,-275.458 231.08,-263.38 251.219,-253.506"/>
<polygon fill="midnightblue" stroke="midnightblue" points="183.354,-282.883 175.916,-290.428 186.436,-289.168 183.354,-282.883"/>
</g>
<!-- Node5 -->
<g id="node5" class="node"><title>Node5</title>
<g id="a_node5"><a xlink:href="executor__select_8h.html" target="_top" xlink:title=" ">
<polygon fill="white" stroke="black" points="91,-134.5 91,-175.5 209,-175.5 209,-134.5 91,-134.5"/>
<text text-anchor="start" x="99" y="-163.5" font-family="Helvetica,sans-Serif" font-size="10.00">C:/projects/ndt/sources</text>
<text text-anchor="start" x="99" y="-152.5" font-family="Helvetica,sans-Serif" font-size="10.00">/include/ndt/executor</text>
<text text-anchor="middle" x="150" y="-141.5" font-family="Helvetica,sans-Serif" font-size="10.00">_select.h</text>
</a>
</g>
</g>
<!-- Node4&#45;&gt;Node5 -->
<g id="edge5" class="edge"><title>Node4&#45;&gt;Node5</title>
<path fill="none" stroke="midnightblue" d="M141.418,-202.59C143.09,-193.511 144.89,-183.742 146.407,-175.506"/>
<polygon fill="midnightblue" stroke="midnightblue" points="137.975,-201.959 139.605,-212.428 144.859,-203.228 137.975,-201.959"/>
</g>
<!-- Node5&#45;&gt;Node1 -->
<g id="edge9" class="edge"><title>Node5&#45;&gt;Node1</title>
<path fill="none" stroke="midnightblue" d="M219.034,-164.499C275.789,-173.072 349.729,-188.442 368,-212 423.616,-283.709 287.178,-341.386 200.669,-369.454"/>
<polygon fill="midnightblue" stroke="midnightblue" points="219.415,-161.017 209.013,-163.028 218.399,-167.943 219.415,-161.017"/>
</g>
<!-- Node5&#45;&gt;Node2 -->
<g id="edge8" class="edge"><title>Node5&#45;&gt;Node2</title>
<path fill="none" stroke="midnightblue" d="M121.151,-127.049C112.724,-118.29 103.927,-108.189 97,-98 82.1661,-76.1812 70.3569,-47.6518 64.0436,-30.7807"/>
<polygon fill="midnightblue" stroke="midnightblue" points="118.88,-129.73 128.405,-134.37 123.852,-124.803 118.88,-129.73"/>
</g>
<!-- Node6 -->
<g id="node6" class="node"><title>Node6</title>
<g id="a_node6"><a xlink:href="context_8h.html" target="_top" xlink:title=" ">
<polygon fill="white" stroke="black" points="106,-67.5 106,-97.5 224,-97.5 224,-67.5 106,-67.5"/>
<text text-anchor="start" x="114" y="-85.5" font-family="Helvetica,sans-Serif" font-size="10.00">C:/projects/ndt/sources</text>
<text text-anchor="middle" x="165" y="-74.5" font-family="Helvetica,sans-Serif" font-size="10.00">/include/ndt/context.h</text>
</a>
</g>
</g>
<!-- Node5&#45;&gt;Node6 -->
<g id="edge6" class="edge"><title>Node5&#45;&gt;Node6</title>
<path fill="none" stroke="midnightblue" d="M156.303,-124.376C158.252,-115.214 160.312,-105.532 161.938,-97.8916"/>
<polygon fill="midnightblue" stroke="midnightblue" points="152.836,-123.852 154.178,-134.362 159.683,-125.309 152.836,-123.852"/>
</g>
<!-- Node6&#45;&gt;Node2 -->
<g id="edge7" class="edge"><title>Node6&#45;&gt;Node2</title>
<path fill="none" stroke="midnightblue" d="M133.225,-62.0151C116.729,-51.8999 96.9476,-39.7698 81.9555,-30.5765"/>
<polygon fill="midnightblue" stroke="midnightblue" points="131.645,-65.1521 142,-67.396 135.304,-59.1847 131.645,-65.1521"/>
</g>
</g>
</svg>
