<?xml version="1.0" encoding="UTF-8" standalone="no"?>
<!DOCTYPE svg PUBLIC "-//W3C//DTD SVG 1.1//EN"
 "http://www.w3.org/Graphics/SVG/1.1/DTD/svg11.dtd">
<!-- Generated by graphviz version 2.38.0 (20140413.2041)
 -->
<!-- Title: C:/projects/ndt/sources/include/ndt/event_handler_select.h Pages: 1 -->
<svg width="1288pt" height="576pt"
 viewBox="0.00 0.00 1288.00 576.00" xmlns="http://www.w3.org/2000/svg" xmlns:xlink="http://www.w3.org/1999/xlink">
<g id="graph0" class="graph" transform="scale(1 1) rotate(0) translate(4 572)">
<title>C:/projects/ndt/sources/include/ndt/event_handler_select.h</title>
<polygon fill="white" stroke="none" points="-4,4 -4,-572 1284,-572 1284,4 -4,4"/>
<!-- Node1 -->
<g id="node1" class="node"><title>Node1</title>
<g id="a_node1"><a xlink:title=" ">
<polygon fill="#bfbfbf" stroke="black" points="757.5,-526.5 757.5,-567.5 886.5,-567.5 886.5,-526.5 757.5,-526.5"/>
<text text-anchor="start" x="765.5" y="-555.5" font-family="Helvetica,sans-Serif" font-size="10.00">C:/projects/ndt/sources</text>
<text text-anchor="start" x="765.5" y="-544.5" font-family="Helvetica,sans-Serif" font-size="10.00">/include/ndt/event_handler</text>
<text text-anchor="middle" x="822" y="-533.5" font-family="Helvetica,sans-Serif" font-size="10.00">_select.h</text>
</a>
</g>
</g>
<!-- Node2 -->
<g id="node2" class="node"><title>Node2</title>
<g id="a_node2"><a xlink:title=" ">
<polygon fill="white" stroke="#bfbfbf" points="1234,-56.5 1234,-75.5 1280,-75.5 1280,-56.5 1234,-56.5"/>
<text text-anchor="middle" x="1257" y="-63.5" font-family="Helvetica,sans-Serif" font-size="10.00">cstdint</text>
</a>
</g>
</g>
<!-- Node1&#45;&gt;Node2 -->
<g id="edge1" class="edge"><title>Node1&#45;&gt;Node2</title>
<path fill="none" stroke="midnightblue" d="M886.892,-537.698C994.222,-522.135 1197,-484.172 1197,-419.5 1197,-419.5 1197,-419.5 1197,-177 1197,-139.883 1223.65,-103.378 1241.43,-83.1581"/>
<polygon fill="midnightblue" stroke="midnightblue" points="1244.24,-85.2762 1248.4,-75.5349 1239.07,-80.552 1244.24,-85.2762"/>
</g>
<!-- Node3 -->
<g id="node3" class="node"><title>Node3</title>
<g id="a_node3"><a xlink:title=" ">
<polygon fill="white" stroke="#bfbfbf" points="950,-56.5 950,-75.5 1012,-75.5 1012,-56.5 950,-56.5"/>
<text text-anchor="middle" x="981" y="-63.5" font-family="Helvetica,sans-Serif" font-size="10.00">type_traits</text>
</a>
</g>
</g>
<!-- Node1&#45;&gt;Node3 -->
<g id="edge2" class="edge"><title>Node1&#45;&gt;Node3</title>
<path fill="none" stroke="midnightblue" d="M886.582,-534.274C946.671,-519.201 1027,-486.518 1027,-419.5 1027,-419.5 1027,-419.5 1027,-177 1027,-141.817 1006.72,-104.863 993.093,-83.9988"/>
<polygon fill="midnightblue" stroke="midnightblue" points="995.91,-81.9156 987.396,-75.609 990.119,-85.8481 995.91,-81.9156"/>
</g>
<!-- Node4 -->
<g id="node4" class="node"><title>Node4</title>
<g id="a_node4"><a xlink:href="executor__select_8h.html" target="_top" xlink:title=" ">
<polygon fill="white" stroke="black" points="570,-470.5 570,-489.5 664,-489.5 664,-470.5 570,-470.5"/>
<text text-anchor="middle" x="617" y="-477.5" font-family="Helvetica,sans-Serif" font-size="10.00">executor_select.h</text>
</a>
</g>
</g>
<!-- Node1&#45;&gt;Node4 -->
<g id="edge3" class="edge"><title>Node1&#45;&gt;Node4</title>
<path fill="none" stroke="midnightblue" d="M760.493,-526.498C725.633,-515.444 683.198,-501.99 653.553,-492.59"/>
<polygon fill="midnightblue" stroke="midnightblue" points="654.609,-489.253 644.019,-489.567 652.494,-495.926 654.609,-489.253"/>
</g>
<!-- Node5 -->
<g id="node5" class="node"><title>Node5</title>
<g id="a_node5"><a xlink:href="nix_2executor__select__impl_8h.html" target="_top" xlink:title=" ">
<polygon fill="white" stroke="black" points="229.5,-403.5 229.5,-433.5 336.5,-433.5 336.5,-403.5 229.5,-403.5"/>
<text text-anchor="start" x="237.5" y="-421.5" font-family="Helvetica,sans-Serif" font-size="10.00">platform/nix/executor</text>
<text text-anchor="middle" x="283" y="-410.5" font-family="Helvetica,sans-Serif" font-size="10.00">_select_impl.h</text>
</a>
</g>
</g>
<!-- Node4&#45;&gt;Node5 -->
<g id="edge4" class="edge"><title>Node4&#45;&gt;Node5</title>
<path fill="none" stroke="midnightblue" d="M569.854,-470.601C511.479,-460.202 411.809,-442.447 346.678,-430.844"/>
<polygon fill="midnightblue" stroke="midnightblue" points="346.991,-427.345 336.533,-429.036 345.764,-434.236 346.991,-427.345"/>
</g>
<!-- Node6 -->
<g id="node6" class="node"><title>Node6</title>
<g id="a_node6"><a xlink:href="common_8h.html" target="_top" xlink:title="Header with typedefs to make type designation platform independent.">
<polygon fill="white" stroke="black" points="260,-56.5 260,-75.5 340,-75.5 340,-56.5 260,-56.5"/>
<text text-anchor="middle" x="300" y="-63.5" font-family="Helvetica,sans-Serif" font-size="10.00">../../common.h</text>
</a>
</g>
</g>
<!-- Node5&#45;&gt;Node6 -->
<g id="edge5" class="edge"><title>Node5&#45;&gt;Node6</title>
<path fill="none" stroke="midnightblue" d="M284.421,-403.286C287.937,-367.301 296.98,-269.648 300,-188 301.341,-151.739 300.872,-109.323 300.426,-85.5668"/>
<polygon fill="midnightblue" stroke="midnightblue" points="303.924,-85.4374 300.216,-75.5125 296.925,-85.5833 303.924,-85.4374"/>
</g>
<!-- Node16 -->
<g id="node16" class="node"><title>Node16</title>
<g id="a_node16"><a xlink:href="executor__select__base_8h.html" target="_top" xlink:title=" ">
<polygon fill="white" stroke="black" points="149,-336.5 149,-366.5 253,-366.5 253,-336.5 149,-336.5"/>
<text text-anchor="start" x="157" y="-354.5" font-family="Helvetica,sans-Serif" font-size="10.00">../../executor_select</text>
<text text-anchor="middle" x="201" y="-343.5" font-family="Helvetica,sans-Serif" font-size="10.00">_base.h</text>
</a>
</g>
</g>
<!-- Node5&#45;&gt;Node16 -->
<g id="edge15" class="edge"><title>Node5&#45;&gt;Node16</title>
<path fill="none" stroke="midnightblue" d="M265.207,-403.396C253.925,-394.452 239.146,-382.737 226.611,-372.802"/>
<polygon fill="midnightblue" stroke="midnightblue" points="228.769,-370.046 218.758,-366.577 224.42,-375.531 228.769,-370.046"/>
</g>
<!-- Node7 -->
<g id="node7" class="node"><title>Node7</title>
<g id="a_node7"><a xlink:title=" ">
<polygon fill="white" stroke="#bfbfbf" points="555,-0.5 555,-19.5 617,-19.5 617,-0.5 555,-0.5"/>
<text text-anchor="middle" x="586" y="-7.5" font-family="Helvetica,sans-Serif" font-size="10.00">arpa/inet.h</text>
</a>
</g>
</g>
<!-- Node6&#45;&gt;Node7 -->
<g id="edge6" class="edge"><title>Node6&#45;&gt;Node7</title>
<path fill="none" stroke="midnightblue" d="M340.206,-57.6197C400.476,-46.5559 510.188,-26.4138 544.705,-19.9088"/>
<polygon fill="midnightblue" stroke="midnightblue" points="545.525,-23.3153 554.684,-17.9905 544.203,-16.4412 545.525,-23.3153"/>
</g>
<!-- Node8 -->
<g id="node8" class="node"><title>Node8</title>
<g id="a_node8"><a xlink:title=" ">
<polygon fill="white" stroke="#bfbfbf" points="31.5,-0.5 31.5,-19.5 78.5,-19.5 78.5,-0.5 31.5,-0.5"/>
<text text-anchor="middle" x="55" y="-7.5" font-family="Helvetica,sans-Serif" font-size="10.00">errno.h</text>
</a>
</g>
</g>
<!-- Node6&#45;&gt;Node8 -->
<g id="edge7" class="edge"><title>Node6&#45;&gt;Node8</title>
<path fill="none" stroke="midnightblue" d="M259.778,-57.3245C218.916,-49.3445 153.594,-36.0898 88.7058,-20.309"/>
<polygon fill="midnightblue" stroke="midnightblue" points="89.2655,-16.8425 78.7195,-17.859 87.5976,-23.6409 89.2655,-16.8425"/>
</g>
<!-- Node9 -->
<g id="node9" class="node"><title>Node9</title>
<g id="a_node9"><a xlink:title=" ">
<polygon fill="white" stroke="#bfbfbf" points="96.5,-0.5 96.5,-19.5 139.5,-19.5 139.5,-0.5 96.5,-0.5"/>
<text text-anchor="middle" x="118" y="-7.5" font-family="Helvetica,sans-Serif" font-size="10.00">fcntl.h</text>
</a>
</g>
</g>
<!-- Node6&#45;&gt;Node9 -->
<g id="edge8" class="edge"><title>Node6&#45;&gt;Node9</title>
<path fill="none" stroke="midnightblue" d="M271.134,-56.488C242.463,-48.0262 196.996,-34.587 149.211,-20.3543"/>
<polygon fill="midnightblue" stroke="midnightblue" points="150.21,-17.0001 139.627,-17.4984 148.211,-23.7085 150.21,-17.0001"/>
</g>
<!-- Node10 -->
<g id="node10" class="node"><title>Node10</title>
<g id="a_node10"><a xlink:title=" ">
<polygon fill="white" stroke="#bfbfbf" points="157.5,-0.5 157.5,-19.5 206.5,-19.5 206.5,-0.5 157.5,-0.5"/>
<text text-anchor="middle" x="182" y="-7.5" font-family="Helvetica,sans-Serif" font-size="10.00">netdb.h</text>
</a>
</g>
</g>
<!-- Node6&#45;&gt;Node10 -->
<g id="edge9" class="edge"><title>Node6&#45;&gt;Node10</title>
<path fill="none" stroke="midnightblue" d="M281.303,-56.4435C262.056,-47.6356 231.848,-33.8116 209.8,-23.722"/>
<polygon fill="midnightblue" stroke="midnightblue" points="211.16,-20.4951 200.61,-19.5164 208.247,-26.8603 211.16,-20.4951"/>
</g>
<!-- Node11 -->
<g id="node11" class="node"><title>Node11</title>
<g id="a_node11"><a xlink:title=" ">
<polygon fill="white" stroke="#bfbfbf" points="224.5,-0.5 224.5,-19.5 289.5,-19.5 289.5,-0.5 224.5,-0.5"/>
<text text-anchor="middle" x="257" y="-7.5" font-family="Helvetica,sans-Serif" font-size="10.00">netinet/in.h</text>
</a>
</g>
</g>
<!-- Node6&#45;&gt;Node11 -->
<g id="edge10" class="edge"><title>Node6&#45;&gt;Node11</title>
<path fill="none" stroke="midnightblue" d="M292.899,-56.083C286.763,-48.3768 277.73,-37.0333 270.261,-27.6531"/>
<polygon fill="midnightblue" stroke="midnightblue" points="272.936,-25.3936 263.968,-19.7511 267.46,-29.7542 272.936,-25.3936"/>
</g>
<!-- Node12 -->
<g id="node12" class="node"><title>Node12</title>
<g id="a_node12"><a xlink:title=" ">
<polygon fill="white" stroke="#bfbfbf" points="307.5,-0.5 307.5,-19.5 380.5,-19.5 380.5,-0.5 307.5,-0.5"/>
<text text-anchor="middle" x="344" y="-7.5" font-family="Helvetica,sans-Serif" font-size="10.00">sys/socket.h</text>
</a>
</g>
</g>
<!-- Node6&#45;&gt;Node12 -->
<g id="edge11" class="edge"><title>Node6&#45;&gt;Node12</title>
<path fill="none" stroke="midnightblue" d="M307.266,-56.083C313.545,-48.3768 322.788,-37.0333 330.431,-27.6531"/>
<polygon fill="midnightblue" stroke="midnightblue" points="333.266,-29.7143 336.869,-19.7511 327.839,-25.2926 333.266,-29.7143"/>
</g>
<!-- Node13 -->
<g id="node13" class="node"><title>Node13</title>
<g id="a_node13"><a xlink:title=" ">
<polygon fill="white" stroke="#bfbfbf" points="399,-0.5 399,-19.5 467,-19.5 467,-0.5 399,-0.5"/>
<text text-anchor="middle" x="433" y="-7.5" font-family="Helvetica,sans-Serif" font-size="10.00">sys/types.h</text>
</a>
</g>
</g>
<!-- Node6&#45;&gt;Node13 -->
<g id="edge12" class="edge"><title>Node6&#45;&gt;Node13</title>
<path fill="none" stroke="midnightblue" d="M321.074,-56.4435C343.06,-47.5171 377.734,-33.4387 402.664,-23.3168"/>
<polygon fill="midnightblue" stroke="midnightblue" points="404.076,-26.5213 412.024,-19.5164 401.442,-20.0355 404.076,-26.5213"/>
</g>
<!-- Node14 -->
<g id="node14" class="node"><title>Node14</title>
<g id="a_node14"><a xlink:title=" ">
<polygon fill="white" stroke="#bfbfbf" points="485.5,-0.5 485.5,-19.5 536.5,-19.5 536.5,-0.5 485.5,-0.5"/>
<text text-anchor="middle" x="511" y="-7.5" font-family="Helvetica,sans-Serif" font-size="10.00">unistd.h</text>
</a>
</g>
</g>
<!-- Node6&#45;&gt;Node14 -->
<g id="edge13" class="edge"><title>Node6&#45;&gt;Node14</title>
<path fill="none" stroke="midnightblue" d="M333.416,-56.4705C366.816,-47.9422 419.909,-34.3765 475.374,-20.1578"/>
<polygon fill="midnightblue" stroke="midnightblue" points="476.569,-23.4647 485.387,-17.5906 474.831,-16.684 476.569,-23.4647"/>
</g>
<!-- Node15 -->
<g id="node15" class="node"><title>Node15</title>
<g id="a_node15"><a xlink:title=" ">
<polygon fill="white" stroke="#bfbfbf" points="679,-0.5 679,-19.5 727,-19.5 727,-0.5 679,-0.5"/>
<text text-anchor="middle" x="703" y="-7.5" font-family="Helvetica,sans-Serif" font-size="10.00">cstddef</text>
</a>
</g>
</g>
<!-- Node6&#45;&gt;Node15 -->
<g id="edge14" class="edge"><title>Node6&#45;&gt;Node15</title>
<path fill="none" stroke="midnightblue" d="M340.081,-57.4521C343.096,-56.9413 346.094,-56.4512 349,-56 410.246,-46.49 592.009,-24.3557 668.483,-15.141"/>
<polygon fill="midnightblue" stroke="midnightblue" points="669.041,-18.5991 678.551,-13.9292 668.205,-11.6493 669.041,-18.5991"/>
</g>
<!-- Node16&#45;&gt;Node1 -->
<g id="edge20" class="edge"><title>Node16&#45;&gt;Node1</title>
<path fill="none" stroke="midnightblue" d="M199.983,-366.538C199.491,-384.797 201.621,-416.432 220,-434 294.717,-505.421 603.274,-532.963 747.31,-542.077"/>
<polygon fill="midnightblue" stroke="midnightblue" points="747.193,-545.576 757.391,-542.701 747.626,-538.59 747.193,-545.576"/>
</g>
<!-- Node16&#45;&gt;Node6 -->
<g id="edge19" class="edge"><title>Node16&#45;&gt;Node6</title>
<path fill="none" stroke="midnightblue" d="M195.415,-336.445C183.739,-304.756 159.906,-225.98 186,-168 188.59,-162.245 250.734,-108.889 282.154,-82.1402"/>
<polygon fill="midnightblue" stroke="midnightblue" points="284.425,-84.8034 289.777,-75.6596 279.891,-79.4702 284.425,-84.8034"/>
</g>
<!-- Node17 -->
<g id="node17" class="node"><title>Node17</title>
<g id="a_node17"><a xlink:title=" ">
<polygon fill="white" stroke="#bfbfbf" points="0,-56.5 0,-75.5 38,-75.5 38,-56.5 0,-56.5"/>
<text text-anchor="middle" x="19" y="-63.5" font-family="Helvetica,sans-Serif" font-size="10.00">array</text>
</a>
</g>
</g>
<!-- Node16&#45;&gt;Node17 -->
<g id="edge16" class="edge"><title>Node16&#45;&gt;Node17</title>
<path fill="none" stroke="midnightblue" d="M148.846,-340.623C95.0655,-327.062 19,-296.935 19,-235 19,-235 19,-235 19,-177 19,-144.948 19,-107.643 19,-85.7489"/>
<polygon fill="midnightblue" stroke="midnightblue" points="22.5001,-85.5577 19,-75.5578 15.5001,-85.5578 22.5001,-85.5577"/>
</g>
<!-- Node18 -->
<g id="node18" class="node"><title>Node18</title>
<g id="a_node18"><a xlink:title=" ">
<polygon fill="white" stroke="#bfbfbf" points="195,-224.5 195,-243.5 253,-243.5 253,-224.5 195,-224.5"/>
<text text-anchor="middle" x="224" y="-231.5" font-family="Helvetica,sans-Serif" font-size="10.00">functional</text>
</a>
</g>
</g>
<!-- Node16&#45;&gt;Node18 -->
<g id="edge17" class="edge"><title>Node16&#45;&gt;Node18</title>
<path fill="none" stroke="midnightblue" d="M203.82,-336.337C207.964,-315.527 215.703,-276.663 220.299,-253.583"/>
<polygon fill="midnightblue" stroke="midnightblue" points="223.753,-254.16 222.274,-243.669 216.888,-252.793 223.753,-254.16"/>
</g>
<!-- Node19 -->
<g id="node19" class="node"><title>Node19</title>
<g id="a_node19"><a xlink:title=" ">
<polygon fill="white" stroke="#bfbfbf" points="358,-56.5 358,-75.5 432,-75.5 432,-56.5 358,-56.5"/>
<text text-anchor="middle" x="395" y="-63.5" font-family="Helvetica,sans-Serif" font-size="10.00">system_error</text>
</a>
</g>
</g>
<!-- Node16&#45;&gt;Node19 -->
<g id="edge18" class="edge"><title>Node16&#45;&gt;Node19</title>
<path fill="none" stroke="midnightblue" d="M214.086,-336.496C239.115,-309.281 294.682,-246.759 333,-188 355.687,-153.21 376.478,-109.079 387.261,-84.8853"/>
<polygon fill="midnightblue" stroke="midnightblue" points="390.545,-86.1122 391.364,-75.5491 384.137,-83.2957 390.545,-86.1122"/>
</g>
<!-- Node20 -->
<g id="node20" class="node"><title>Node20</title>
<g id="a_node20"><a xlink:href="socket_8h.html" target="_top" xlink:title=" ">
<polygon fill="white" stroke="black" points="406,-280.5 406,-299.5 460,-299.5 460,-280.5 406,-280.5"/>
<text text-anchor="middle" x="433" y="-287.5" font-family="Helvetica,sans-Serif" font-size="10.00">socket.h</text>
</a>
</g>
</g>
<!-- Node16&#45;&gt;Node20 -->
<g id="edge21" class="edge"><title>Node16&#45;&gt;Node20</title>
<path fill="none" stroke="midnightblue" d="M253.065,-337.147C296.602,-325.981 357.611,-310.335 396.214,-300.434"/>
<polygon fill="midnightblue" stroke="midnightblue" points="397.181,-303.8 405.998,-297.925 395.441,-297.019 397.181,-303.8"/>
</g>
<!-- Node20&#45;&gt;Node6 -->
<g id="edge68" class="edge"><title>Node20&#45;&gt;Node6</title>
<path fill="none" stroke="midnightblue" d="M428.562,-280.314C415.139,-254.235 373.407,-174.556 333,-112 326.824,-102.438 319.365,-92.1735 313.102,-83.8659"/>
<polygon fill="midnightblue" stroke="midnightblue" points="315.748,-81.5633 306.893,-75.7451 310.187,-85.8151 315.748,-81.5633"/>
</g>
<!-- Node20&#45;&gt;Node18 -->
<g id="edge23" class="edge"><title>Node20&#45;&gt;Node18</title>
<path fill="none" stroke="midnightblue" d="M405.677,-281.94C369.184,-272.512 304.322,-255.753 262.78,-245.02"/>
<polygon fill="midnightblue" stroke="midnightblue" points="263.567,-241.608 253.009,-242.495 261.816,-248.386 263.567,-241.608"/>
</g>
<!-- Node21 -->
<g id="node21" class="node"><title>Node21</title>
<g id="a_node21"><a xlink:title=" ">
<polygon fill="white" stroke="#bfbfbf" points="818.5,-56.5 818.5,-75.5 867.5,-75.5 867.5,-56.5 818.5,-56.5"/>
<text text-anchor="middle" x="843" y="-63.5" font-family="Helvetica,sans-Serif" font-size="10.00">cassert</text>
</a>
</g>
</g>
<!-- Node20&#45;&gt;Node21 -->
<g id="edge22" class="edge"><title>Node20&#45;&gt;Node21</title>
<path fill="none" stroke="midnightblue" d="M460.338,-289.556C511.071,-289.519 622.07,-284.361 704,-244 768.287,-212.33 781.766,-192.613 820,-132 829.081,-117.604 835.169,-99.148 838.789,-85.5827"/>
<polygon fill="midnightblue" stroke="midnightblue" points="842.27,-86.0812 841.259,-75.5347 835.473,-84.4097 842.27,-86.0812"/>
</g>
<!-- Node22 -->
<g id="node22" class="node"><title>Node22</title>
<g id="a_node22"><a xlink:href="address_8h.html" target="_top" xlink:title=" ">
<polygon fill="white" stroke="black" points="528.5,-224.5 528.5,-243.5 587.5,-243.5 587.5,-224.5 528.5,-224.5"/>
<text text-anchor="middle" x="558" y="-231.5" font-family="Helvetica,sans-Serif" font-size="10.00">address.h</text>
</a>
</g>
</g>
<!-- Node20&#45;&gt;Node22 -->
<g id="edge24" class="edge"><title>Node20&#45;&gt;Node22</title>
<path fill="none" stroke="midnightblue" d="M452.807,-280.444C473.287,-271.596 505.483,-257.687 528.865,-247.586"/>
<polygon fill="midnightblue" stroke="midnightblue" points="530.494,-250.695 538.286,-243.516 527.718,-244.269 530.494,-250.695"/>
</g>
<!-- Node28 -->
<g id="node28" class="node"><title>Node28</title>
<g id="a_node28"><a xlink:href="buffer_8h.html" target="_top" xlink:title=" ">
<polygon fill="white" stroke="black" points="763,-112.5 763,-131.5 811,-131.5 811,-112.5 763,-112.5"/>
<text text-anchor="middle" x="787" y="-119.5" font-family="Helvetica,sans-Serif" font-size="10.00">buffer.h</text>
</a>
</g>
</g>
<!-- Node20&#45;&gt;Node28 -->
<g id="edge67" class="edge"><title>Node20&#45;&gt;Node28</title>
<path fill="none" stroke="midnightblue" d="M460.262,-289.373C507.113,-288.878 604.647,-282.794 675,-244 720.989,-218.641 758.586,-167.482 776.198,-140.528"/>
<polygon fill="midnightblue" stroke="midnightblue" points="779.345,-142.102 781.761,-131.786 773.439,-138.344 779.345,-142.102"/>
</g>
<!-- Node33 -->
<g id="node33" class="node"><title>Node33</title>
<g id="a_node33"><a xlink:href="utils_8h.html" target="_top" xlink:title=" ">
<polygon fill="white" stroke="black" points="578.5,-112.5 578.5,-131.5 621.5,-131.5 621.5,-112.5 578.5,-112.5"/>
<text text-anchor="middle" x="600" y="-119.5" font-family="Helvetica,sans-Serif" font-size="10.00">utils.h</text>
</a>
</g>
</g>
<!-- Node20&#45;&gt;Node33 -->
<g id="edge71" class="edge"><title>Node20&#45;&gt;Node33</title>
<path fill="none" stroke="midnightblue" d="M460.196,-288.946C518.312,-287.142 653.572,-273.522 706,-188 725.594,-156.037 669.818,-137.527 631.917,-128.927"/>
<polygon fill="midnightblue" stroke="midnightblue" points="632.289,-125.427 621.778,-126.761 630.826,-132.273 632.289,-125.427"/>
</g>
<!-- Node38 -->
<g id="node38" class="node"><title>Node38</title>
<g id="a_node38"><a xlink:href="exception_8h.html" target="_top" xlink:title=" ">
<polygon fill="white" stroke="black" points="423.5,-112.5 423.5,-131.5 490.5,-131.5 490.5,-112.5 423.5,-112.5"/>
<text text-anchor="middle" x="457" y="-119.5" font-family="Helvetica,sans-Serif" font-size="10.00">exception.h</text>
</a>
</g>
</g>
<!-- Node20&#45;&gt;Node38 -->
<g id="edge69" class="edge"><title>Node20&#45;&gt;Node38</title>
<path fill="none" stroke="midnightblue" d="M434.29,-280.075C438.068,-253.945 449.162,-177.211 454.314,-141.577"/>
<polygon fill="midnightblue" stroke="midnightblue" points="457.794,-141.966 455.761,-131.568 450.866,-140.964 457.794,-141.966"/>
</g>
<!-- Node41 -->
<g id="node41" class="node"><title>Node41</title>
<g id="a_node41"><a xlink:href="useful__base__types_8h.html" target="_top" xlink:title=" ">
<polygon fill="white" stroke="black" points="56,-56.5 56,-75.5 162,-75.5 162,-56.5 56,-56.5"/>
<text text-anchor="middle" x="109" y="-63.5" font-family="Helvetica,sans-Serif" font-size="10.00">useful_base_types.h</text>
</a>
</g>
</g>
<!-- Node20&#45;&gt;Node41 -->
<g id="edge70" class="edge"><title>Node20&#45;&gt;Node41</title>
<path fill="none" stroke="midnightblue" d="M410.574,-280.492C357.866,-260.39 227.43,-209.996 186,-188 146.37,-166.959 123.172,-171.56 102,-132 94.3089,-117.629 97.4497,-98.9266 101.69,-85.2748"/>
<polygon fill="midnightblue" stroke="midnightblue" points="105.082,-86.183 105.14,-75.5883 98.4875,-83.8341 105.082,-86.183"/>
</g>
<!-- Node23 -->
<g id="node23" class="node"><title>Node23</title>
<g id="a_node23"><a xlink:title=" ">
<polygon fill="white" stroke="#bfbfbf" points="537.5,-168.5 537.5,-187.5 578.5,-187.5 578.5,-168.5 537.5,-168.5"/>
<text text-anchor="middle" x="558" y="-175.5" font-family="Helvetica,sans-Serif" font-size="10.00">string</text>
</a>
</g>
</g>
<!-- Node22&#45;&gt;Node23 -->
<g id="edge25" class="edge"><title>Node22&#45;&gt;Node23</title>
<path fill="none" stroke="midnightblue" d="M558,-224.083C558,-217.006 558,-206.861 558,-197.986"/>
<polygon fill="midnightblue" stroke="midnightblue" points="561.5,-197.751 558,-187.751 554.5,-197.751 561.5,-197.751"/>
</g>
<!-- Node24 -->
<g id="node24" class="node"><title>Node24</title>
<g id="a_node24"><a xlink:title=" ">
<polygon fill="white" stroke="#bfbfbf" points="597,-168.5 597,-187.5 641,-187.5 641,-168.5 597,-168.5"/>
<text text-anchor="middle" x="619" y="-175.5" font-family="Helvetica,sans-Serif" font-size="10.00">variant</text>
</a>
</g>
</g>
<!-- Node22&#45;&gt;Node24 -->
<g id="edge26" class="edge"><title>Node22&#45;&gt;Node24</title>
<path fill="none" stroke="midnightblue" d="M567.801,-224.324C576.818,-216.341 590.406,-204.313 601.318,-194.653"/>
<polygon fill="midnightblue" stroke="midnightblue" points="603.853,-197.083 609.021,-187.834 599.213,-191.842 603.853,-197.083"/>
</g>
<!-- Node25 -->
<g id="node25" class="node"><title>Node25</title>
<g id="a_node25"><a xlink:href="bin__rw_8h.html" target="_top" xlink:title=" ">
<polygon fill="white" stroke="black" points="868.5,-168.5 868.5,-187.5 921.5,-187.5 921.5,-168.5 868.5,-168.5"/>
<text text-anchor="middle" x="895" y="-175.5" font-family="Helvetica,sans-Serif" font-size="10.00">bin_rw.h</text>
</a>
</g>
</g>
<!-- Node22&#45;&gt;Node25 -->
<g id="edge27" class="edge"><title>Node22&#45;&gt;Node25</title>
<path fill="none" stroke="midnightblue" d="M587.611,-228.255C649.204,-218.386 790.974,-195.669 858.264,-184.887"/>
<polygon fill="midnightblue" stroke="midnightblue" points="859.08,-188.3 868.4,-183.262 857.972,-181.389 859.08,-188.3"/>
</g>
<!-- Node22&#45;&gt;Node28 -->
<g id="edge55" class="edge"><title>Node22&#45;&gt;Node28</title>
<path fill="none" stroke="midnightblue" d="M587.647,-227.469C618.478,-220.936 667.525,-208.31 706,-188 730.755,-174.932 755.275,-153.809 770.74,-139.206"/>
<polygon fill="midnightblue" stroke="midnightblue" points="773.586,-141.323 778.345,-131.857 768.722,-136.29 773.586,-141.323"/>
</g>
<!-- Node22&#45;&gt;Node33 -->
<g id="edge66" class="edge"><title>Node22&#45;&gt;Node33</title>
<path fill="none" stroke="midnightblue" d="M548.77,-224.389C536.392,-211.753 517.155,-187.567 528,-168 536.817,-152.092 553.862,-141.064 569.154,-133.909"/>
<polygon fill="midnightblue" stroke="midnightblue" points="570.56,-137.114 578.36,-129.945 567.791,-130.685 570.56,-137.114"/>
</g>
<!-- Node22&#45;&gt;Node38 -->
<g id="edge56" class="edge"><title>Node22&#45;&gt;Node38</title>
<path fill="none" stroke="midnightblue" d="M550.075,-224.368C533.186,-205.974 493.425,-162.671 471.739,-139.052"/>
<polygon fill="midnightblue" stroke="midnightblue" points="474.23,-136.59 464.888,-131.591 469.074,-141.325 474.23,-136.59"/>
</g>
<!-- Node39 -->
<g id="node39" class="node"><title>Node39</title>
<g id="a_node39"><a xlink:href="sys__socket__ops_8h.html" target="_top" xlink:title=" ">
<polygon fill="white" stroke="black" points="195,-168.5 195,-187.5 291,-187.5 291,-168.5 195,-168.5"/>
<text text-anchor="middle" x="243" y="-175.5" font-family="Helvetica,sans-Serif" font-size="10.00">sys_socket_ops.h</text>
</a>
</g>
</g>
<!-- Node22&#45;&gt;Node39 -->
<g id="edge59" class="edge"><title>Node22&#45;&gt;Node39</title>
<path fill="none" stroke="midnightblue" d="M528.366,-227.92C476.505,-219.029 368.423,-200.501 301.169,-188.972"/>
<polygon fill="midnightblue" stroke="midnightblue" points="301.595,-185.494 291.147,-187.254 300.412,-192.393 301.595,-185.494"/>
</g>
<!-- Node42 -->
<g id="node42" class="node"><title>Node42</title>
<g id="a_node42"><a xlink:href="tag_8h.html" target="_top" xlink:title=" ">
<polygon fill="white" stroke="black" points="659,-168.5 659,-187.5 697,-187.5 697,-168.5 659,-168.5"/>
<text text-anchor="middle" x="678" y="-175.5" font-family="Helvetica,sans-Serif" font-size="10.00">tag.h</text>
</a>
</g>
</g>
<!-- Node22&#45;&gt;Node42 -->
<g id="edge65" class="edge"><title>Node22&#45;&gt;Node42</title>
<path fill="none" stroke="midnightblue" d="M577.014,-224.444C596.588,-215.636 627.308,-201.812 649.729,-191.722"/>
<polygon fill="midnightblue" stroke="midnightblue" points="651.392,-194.812 659.075,-187.516 648.519,-188.428 651.392,-194.812"/>
</g>
<!-- Node25&#45;&gt;Node3 -->
<g id="edge30" class="edge"><title>Node25&#45;&gt;Node3</title>
<path fill="none" stroke="midnightblue" d="M907.313,-168.449C918.658,-160.118 935.439,-146.602 947,-132 958.465,-117.519 967.852,-98.5839 973.836,-84.889"/>
<polygon fill="midnightblue" stroke="midnightblue" points="977.092,-86.1743 977.726,-75.5985 970.635,-83.4705 977.092,-86.1743"/>
</g>
<!-- Node26 -->
<g id="node26" class="node"><title>Node26</title>
<g id="a_node26"><a xlink:title=" ">
<polygon fill="white" stroke="#bfbfbf" points="867,-112.5 867,-131.5 923,-131.5 923,-112.5 867,-112.5"/>
<text text-anchor="middle" x="895" y="-119.5" font-family="Helvetica,sans-Serif" font-size="10.00">algorithm</text>
</a>
</g>
</g>
<!-- Node25&#45;&gt;Node26 -->
<g id="edge28" class="edge"><title>Node25&#45;&gt;Node26</title>
<path fill="none" stroke="midnightblue" d="M895,-168.083C895,-161.006 895,-150.861 895,-141.986"/>
<polygon fill="midnightblue" stroke="midnightblue" points="898.5,-141.751 895,-131.751 891.5,-141.751 898.5,-141.751"/>
</g>
<!-- Node27 -->
<g id="node27" class="node"><title>Node27</title>
<g id="a_node27"><a xlink:title=" ">
<polygon fill="white" stroke="#bfbfbf" points="886,-56.5 886,-75.5 932,-75.5 932,-56.5 886,-56.5"/>
<text text-anchor="middle" x="909" y="-63.5" font-family="Helvetica,sans-Serif" font-size="10.00">cstring</text>
</a>
</g>
</g>
<!-- Node25&#45;&gt;Node27 -->
<g id="edge29" class="edge"><title>Node25&#45;&gt;Node27</title>
<path fill="none" stroke="midnightblue" d="M905.438,-168.245C914.424,-159.969 926.746,-146.663 932,-132 937.784,-115.859 929.895,-97.432 921.823,-84.3298"/>
<polygon fill="midnightblue" stroke="midnightblue" points="924.595,-82.1792 916.106,-75.8393 918.788,-86.089 924.595,-82.1792"/>
</g>
<!-- Node25&#45;&gt;Node28 -->
<g id="edge31" class="edge"><title>Node25&#45;&gt;Node28</title>
<path fill="none" stroke="midnightblue" d="M877.648,-168.324C860.328,-159.664 833.485,-146.242 813.498,-136.249"/>
<polygon fill="midnightblue" stroke="midnightblue" points="814.819,-132.996 804.309,-131.655 811.688,-139.257 814.819,-132.996"/>
</g>
<!-- Node29 -->
<g id="node29" class="node"><title>Node29</title>
<g id="a_node29"><a xlink:href="endian_8h.html" target="_top" xlink:title=" ">
<polygon fill="white" stroke="black" points="1055.5,-112.5 1055.5,-131.5 1108.5,-131.5 1108.5,-112.5 1055.5,-112.5"/>
<text text-anchor="middle" x="1082" y="-119.5" font-family="Helvetica,sans-Serif" font-size="10.00">endian.h</text>
</a>
</g>
</g>
<!-- Node25&#45;&gt;Node29 -->
<g id="edge38" class="edge"><title>Node25&#45;&gt;Node29</title>
<path fill="none" stroke="midnightblue" d="M921.793,-169.263C954.286,-159.88 1009.21,-144.02 1045.54,-133.529"/>
<polygon fill="midnightblue" stroke="midnightblue" points="1046.62,-136.86 1055.26,-130.723 1044.68,-130.134 1046.62,-136.86"/>
</g>
<!-- Node25&#45;&gt;Node33 -->
<g id="edge45" class="edge"><title>Node25&#45;&gt;Node33</title>
<path fill="none" stroke="midnightblue" d="M868.3,-172.113C813.824,-162.141 690.09,-139.491 631.667,-128.797"/>
<polygon fill="midnightblue" stroke="midnightblue" points="632.017,-125.303 621.55,-126.945 630.756,-132.188 632.017,-125.303"/>
</g>
<!-- Node28&#45;&gt;Node2 -->
<g id="edge34" class="edge"><title>Node28&#45;&gt;Node2</title>
<path fill="none" stroke="midnightblue" d="M811.296,-117.747C825,-115.956 842.442,-113.749 858,-112 1017.53,-94.0684 1062.12,-105.8 1223.41,-75.9951"/>
<polygon fill="midnightblue" stroke="midnightblue" points="1224.51,-79.3495 1233.69,-74.0677 1223.22,-72.4693 1224.51,-79.3495"/>
</g>
<!-- Node28&#45;&gt;Node3 -->
<g id="edge36" class="edge"><title>Node28&#45;&gt;Node3</title>
<path fill="none" stroke="midnightblue" d="M811.178,-114.27C843.532,-105.264 901.36,-89.1679 940.442,-78.2895"/>
<polygon fill="midnightblue" stroke="midnightblue" points="941.743,-81.5603 950.438,-75.5069 939.866,-74.8167 941.743,-81.5603"/>
</g>
<!-- Node28&#45;&gt;Node6 -->
<g id="edge37" class="edge"><title>Node28&#45;&gt;Node6</title>
<path fill="none" stroke="midnightblue" d="M762.702,-119.184C697.619,-114.176 513.771,-99.0866 350.308,-76.0822"/>
<polygon fill="midnightblue" stroke="midnightblue" points="350.462,-72.569 340.069,-74.6269 349.477,-79.4993 350.462,-72.569"/>
</g>
<!-- Node28&#45;&gt;Node15 -->
<g id="edge33" class="edge"><title>Node28&#45;&gt;Node15</title>
<path fill="none" stroke="midnightblue" d="M786.641,-112.185C785.699,-98.859 782.293,-73.3076 770,-56 760.375,-42.4486 745.284,-31.7936 731.859,-24.2606"/>
<polygon fill="midnightblue" stroke="midnightblue" points="733.397,-21.1148 722.919,-19.547 730.132,-27.3069 733.397,-21.1148"/>
</g>
<!-- Node28&#45;&gt;Node19 -->
<g id="edge35" class="edge"><title>Node28&#45;&gt;Node19</title>
<path fill="none" stroke="midnightblue" d="M762.592,-118.368C707.431,-112.306 568.749,-96.4186 442.36,-76.1317"/>
<polygon fill="midnightblue" stroke="midnightblue" points="442.551,-72.6172 432.121,-74.4739 441.433,-79.5272 442.551,-72.6172"/>
</g>
<!-- Node28&#45;&gt;Node21 -->
<g id="edge32" class="edge"><title>Node28&#45;&gt;Node21</title>
<path fill="none" stroke="midnightblue" d="M795.997,-112.324C804.194,-104.42 816.506,-92.5482 826.472,-82.9377"/>
<polygon fill="midnightblue" stroke="midnightblue" points="829.07,-85.2947 833.839,-75.8339 824.211,-80.2558 829.07,-85.2947"/>
</g>
<!-- Node29&#45;&gt;Node2 -->
<g id="edge40" class="edge"><title>Node29&#45;&gt;Node2</title>
<path fill="none" stroke="midnightblue" d="M1108.58,-112.799C1139.51,-103.253 1190.62,-87.4839 1224.05,-77.1681"/>
<polygon fill="midnightblue" stroke="midnightblue" points="1225.29,-80.4477 1233.81,-74.1547 1223.23,-73.7589 1225.29,-80.4477"/>
</g>
<!-- Node29&#45;&gt;Node3 -->
<g id="edge43" class="edge"><title>Node29&#45;&gt;Node3</title>
<path fill="none" stroke="midnightblue" d="M1065.77,-112.324C1049.65,-103.703 1024.7,-90.3643 1006.04,-80.3855"/>
<polygon fill="midnightblue" stroke="midnightblue" points="1007.66,-77.283 997.187,-75.6545 1004.36,-83.456 1007.66,-77.283"/>
</g>
<!-- Node29&#45;&gt;Node27 -->
<g id="edge41" class="edge"><title>Node29&#45;&gt;Node27</title>
<path fill="none" stroke="midnightblue" d="M1055.35,-112.681C1024.77,-103.136 974.619,-87.4821 941.703,-77.2079"/>
<polygon fill="midnightblue" stroke="midnightblue" points="942.671,-73.8435 932.082,-74.2048 940.585,-80.5255 942.671,-73.8435"/>
</g>
<!-- Node30 -->
<g id="node30" class="node"><title>Node30</title>
<g id="a_node30"><a xlink:title=" ">
<polygon fill="white" stroke="#bfbfbf" points="1170.5,-56.5 1170.5,-75.5 1215.5,-75.5 1215.5,-56.5 1170.5,-56.5"/>
<text text-anchor="middle" x="1193" y="-63.5" font-family="Helvetica,sans-Serif" font-size="10.00">climits</text>
</a>
</g>
</g>
<!-- Node29&#45;&gt;Node30 -->
<g id="edge39" class="edge"><title>Node29&#45;&gt;Node30</title>
<path fill="none" stroke="midnightblue" d="M1099.83,-112.324C1117.72,-103.625 1145.48,-90.1202 1166.05,-80.113"/>
<polygon fill="midnightblue" stroke="midnightblue" points="1167.75,-83.1765 1175.21,-75.6545 1164.69,-76.8819 1167.75,-83.1765"/>
</g>
<!-- Node31 -->
<g id="node31" class="node"><title>Node31</title>
<g id="a_node31"><a xlink:title=" ">
<polygon fill="white" stroke="#bfbfbf" points="1030,-56.5 1030,-75.5 1094,-75.5 1094,-56.5 1030,-56.5"/>
<text text-anchor="middle" x="1062" y="-63.5" font-family="Helvetica,sans-Serif" font-size="10.00">string_view</text>
</a>
</g>
</g>
<!-- Node29&#45;&gt;Node31 -->
<g id="edge42" class="edge"><title>Node29&#45;&gt;Node31</title>
<path fill="none" stroke="midnightblue" d="M1078.7,-112.083C1076.02,-104.849 1072.15,-94.4087 1068.81,-85.3968"/>
<polygon fill="midnightblue" stroke="midnightblue" points="1072,-83.9129 1065.24,-75.7511 1065.43,-86.3442 1072,-83.9129"/>
</g>
<!-- Node32 -->
<g id="node32" class="node"><title>Node32</title>
<g id="a_node32"><a xlink:title=" ">
<polygon fill="white" stroke="#bfbfbf" points="1112,-56.5 1112,-75.5 1152,-75.5 1152,-56.5 1112,-56.5"/>
<text text-anchor="middle" x="1132" y="-63.5" font-family="Helvetica,sans-Serif" font-size="10.00">utility</text>
</a>
</g>
</g>
<!-- Node29&#45;&gt;Node32 -->
<g id="edge44" class="edge"><title>Node29&#45;&gt;Node32</title>
<path fill="none" stroke="midnightblue" d="M1090.26,-112.083C1097.46,-104.298 1108.11,-92.8015 1116.85,-83.3665"/>
<polygon fill="midnightblue" stroke="midnightblue" points="1119.67,-85.4666 1123.9,-75.7511 1114.53,-80.7108 1119.67,-85.4666"/>
</g>
<!-- Node33&#45;&gt;Node3 -->
<g id="edge52" class="edge"><title>Node33&#45;&gt;Node3</title>
<path fill="none" stroke="midnightblue" d="M621.648,-118.828C674.314,-113.4 813.469,-98.1916 939.41,-76.149"/>
<polygon fill="midnightblue" stroke="midnightblue" points="940.374,-79.5328 949.611,-74.3432 939.154,-72.64 940.374,-79.5328"/>
</g>
<!-- Node33&#45;&gt;Node6 -->
<g id="edge54" class="edge"><title>Node33&#45;&gt;Node6</title>
<path fill="none" stroke="midnightblue" d="M578.171,-117.119C536.127,-109.636 440.745,-92.6275 350.006,-76.1768"/>
<polygon fill="midnightblue" stroke="midnightblue" points="350.573,-72.7226 340.109,-74.3813 349.323,-79.6101 350.573,-72.7226"/>
</g>
<!-- Node33&#45;&gt;Node17 -->
<g id="edge48" class="edge"><title>Node33&#45;&gt;Node17</title>
<path fill="none" stroke="midnightblue" d="M578.333,-119.01C557.884,-117.146 526.365,-114.309 499,-112 301.424,-95.3294 246.458,-114.46 47.9933,-75.7416"/>
<polygon fill="midnightblue" stroke="midnightblue" points="48.6144,-72.2967 38.1257,-73.7923 47.2578,-79.164 48.6144,-72.2967"/>
</g>
<!-- Node33&#45;&gt;Node19 -->
<g id="edge51" class="edge"><title>Node33&#45;&gt;Node19</title>
<path fill="none" stroke="midnightblue" d="M578.449,-115.323C545.044,-106.524 480.148,-89.4292 437.189,-78.1131"/>
<polygon fill="midnightblue" stroke="midnightblue" points="437.869,-74.6729 427.307,-75.5102 436.086,-81.442 437.869,-74.6729"/>
</g>
<!-- Node33&#45;&gt;Node27 -->
<g id="edge50" class="edge"><title>Node33&#45;&gt;Node27</title>
<path fill="none" stroke="midnightblue" d="M621.617,-118.26C668.33,-112.167 782.064,-96.4087 876,-76 876.102,-75.9779 876.203,-75.9558 876.305,-75.9335"/>
<polygon fill="midnightblue" stroke="midnightblue" points="877.092,-79.3441 885.997,-73.6036 875.456,-72.538 877.092,-79.3441"/>
</g>
<!-- Node34 -->
<g id="node34" class="node"><title>Node34</title>
<g id="a_node34"><a xlink:title=" ">
<polygon fill="white" stroke="#bfbfbf" points="450,-56.5 450,-75.5 510,-75.5 510,-56.5 450,-56.5"/>
<text text-anchor="middle" x="480" y="-63.5" font-family="Helvetica,sans-Serif" font-size="10.00">fmt/core.h</text>
</a>
</g>
</g>
<!-- Node33&#45;&gt;Node34 -->
<g id="edge46" class="edge"><title>Node33&#45;&gt;Node34</title>
<path fill="none" stroke="midnightblue" d="M580.986,-112.444C561.412,-103.636 530.692,-89.8116 508.271,-79.722"/>
<polygon fill="midnightblue" stroke="midnightblue" points="509.481,-76.4284 498.925,-75.5164 506.608,-82.8119 509.481,-76.4284"/>
</g>
<!-- Node35 -->
<g id="node35" class="node"><title>Node35</title>
<g id="a_node35"><a xlink:title=" ">
<polygon fill="white" stroke="#bfbfbf" points="528,-56.5 528,-75.5 596,-75.5 596,-56.5 528,-56.5"/>
<text text-anchor="middle" x="562" y="-63.5" font-family="Helvetica,sans-Serif" font-size="10.00">fmt/format.h</text>
</a>
</g>
</g>
<!-- Node33&#45;&gt;Node35 -->
<g id="edge47" class="edge"><title>Node33&#45;&gt;Node35</title>
<path fill="none" stroke="midnightblue" d="M593.725,-112.083C588.358,-104.455 580.482,-93.2645 573.921,-83.9408"/>
<polygon fill="midnightblue" stroke="midnightblue" points="576.775,-81.9149 568.158,-75.7511 571.051,-85.9434 576.775,-81.9149"/>
</g>
<!-- Node36 -->
<g id="node36" class="node"><title>Node36</title>
<g id="a_node36"><a xlink:title=" ">
<polygon fill="white" stroke="#bfbfbf" points="614,-56.5 614,-75.5 660,-75.5 660,-56.5 614,-56.5"/>
<text text-anchor="middle" x="637" y="-63.5" font-family="Helvetica,sans-Serif" font-size="10.00">chrono</text>
</a>
</g>
</g>
<!-- Node33&#45;&gt;Node36 -->
<g id="edge49" class="edge"><title>Node33&#45;&gt;Node36</title>
<path fill="none" stroke="midnightblue" d="M606.11,-112.083C611.282,-104.534 618.846,-93.4948 625.194,-84.2298"/>
<polygon fill="midnightblue" stroke="midnightblue" points="628.239,-85.9787 631.004,-75.7511 622.464,-82.0221 628.239,-85.9787"/>
</g>
<!-- Node37 -->
<g id="node37" class="node"><title>Node37</title>
<g id="a_node37"><a xlink:title=" ">
<polygon fill="white" stroke="#bfbfbf" points="678.5,-56.5 678.5,-75.5 761.5,-75.5 761.5,-56.5 678.5,-56.5"/>
<text text-anchor="middle" x="720" y="-63.5" font-family="Helvetica,sans-Serif" font-size="10.00">unordered_map</text>
</a>
</g>
</g>
<!-- Node33&#45;&gt;Node37 -->
<g id="edge53" class="edge"><title>Node33&#45;&gt;Node37</title>
<path fill="none" stroke="midnightblue" d="M619.014,-112.444C638.588,-103.636 669.308,-89.8116 691.729,-79.722"/>
<polygon fill="midnightblue" stroke="midnightblue" points="693.392,-82.8119 701.075,-75.5164 690.519,-76.4284 693.392,-82.8119"/>
</g>
<!-- Node38&#45;&gt;Node6 -->
<g id="edge58" class="edge"><title>Node38&#45;&gt;Node6</title>
<path fill="none" stroke="midnightblue" d="M432.123,-112.444C405.711,-103.359 363.785,-88.9388 334.258,-78.7831"/>
<polygon fill="midnightblue" stroke="midnightblue" points="335.355,-75.4593 324.761,-75.5164 333.079,-82.0787 335.355,-75.4593"/>
</g>
<!-- Node38&#45;&gt;Node19 -->
<g id="edge57" class="edge"><title>Node38&#45;&gt;Node19</title>
<path fill="none" stroke="midnightblue" d="M447.039,-112.324C437.873,-104.341 424.063,-92.3128 412.972,-82.6529"/>
<polygon fill="midnightblue" stroke="midnightblue" points="414.982,-79.7624 405.143,-75.8339 410.385,-85.041 414.982,-79.7624"/>
</g>
<!-- Node39&#45;&gt;Node6 -->
<g id="edge60" class="edge"><title>Node39&#45;&gt;Node6</title>
<path fill="none" stroke="midnightblue" d="M247.473,-168.368C256.796,-150.376 278.469,-108.55 290.866,-84.6267"/>
<polygon fill="midnightblue" stroke="midnightblue" points="294.055,-86.0805 295.548,-75.5914 287.84,-82.8599 294.055,-86.0805"/>
</g>
<!-- Node40 -->
<g id="node40" class="node"><title>Node40</title>
<g id="a_node40"><a xlink:href="sys__error__code_8h.html" target="_top" xlink:title=" ">
<polygon fill="white" stroke="black" points="123,-112.5 123,-131.5 215,-131.5 215,-112.5 123,-112.5"/>
<text text-anchor="middle" x="169" y="-119.5" font-family="Helvetica,sans-Serif" font-size="10.00">sys_error_code.h</text>
</a>
</g>
</g>
<!-- Node39&#45;&gt;Node40 -->
<g id="edge61" class="edge"><title>Node39&#45;&gt;Node40</title>
<path fill="none" stroke="midnightblue" d="M231.111,-168.324C219.85,-160.107 202.713,-147.602 189.291,-137.807"/>
<polygon fill="midnightblue" stroke="midnightblue" points="191.247,-134.901 181.106,-131.834 187.12,-140.556 191.247,-134.901"/>
</g>
<!-- Node39&#45;&gt;Node41 -->
<g id="edge64" class="edge"><title>Node39&#45;&gt;Node41</title>
<path fill="none" stroke="midnightblue" d="M194.964,-173.018C166.797,-168 133.096,-156.812 114,-132 103.977,-118.978 103.715,-99.8195 105.366,-85.6736"/>
<polygon fill="midnightblue" stroke="midnightblue" points="108.851,-86.0392 106.95,-75.6164 101.936,-84.95 108.851,-86.0392"/>
</g>
<!-- Node40&#45;&gt;Node6 -->
<g id="edge62" class="edge"><title>Node40&#45;&gt;Node6</title>
<path fill="none" stroke="midnightblue" d="M189.757,-112.444C211.316,-103.557 245.263,-89.5632 269.794,-79.4514"/>
<polygon fill="midnightblue" stroke="midnightblue" points="271.428,-82.5634 279.34,-75.5164 268.761,-76.0917 271.428,-82.5634"/>
</g>
<!-- Node40&#45;&gt;Node41 -->
<g id="edge63" class="edge"><title>Node40&#45;&gt;Node41</title>
<path fill="none" stroke="midnightblue" d="M159.36,-112.324C150.49,-104.341 137.125,-92.3128 126.392,-82.6529"/>
<polygon fill="midnightblue" stroke="midnightblue" points="128.59,-79.922 118.815,-75.8339 123.907,-85.1251 128.59,-79.922"/>
</g>
</g>
</svg>
