<?xml version="1.0" encoding="UTF-8" standalone="no"?>
<!DOCTYPE svg PUBLIC "-//W3C//DTD SVG 1.1//EN"
 "http://www.w3.org/Graphics/SVG/1.1/DTD/svg11.dtd">
<!-- Generated by graphviz version 2.38.0 (20140413.2041)
 -->
<!-- Title: C:/projects/ndt/sources/include/ndt/event_handler_select.h Pages: 1 -->
<!--zoomable 576 -->
<svg id="main" version="1.1" xmlns="http://www.w3.org/2000/svg" xmlns:xlink="http://www.w3.org/1999/xlink" xml:space="preserve" onload="init(evt)">
<style type="text/css"><![CDATA[
.edge:hover path { stroke: red; }
.edge:hover polygon { stroke: red; fill: red; }
]]></style>
<script type="text/javascript"><![CDATA[
var edges = document.getElementsByTagName('g');
if (edges && edges.length) {
  for (var i=0;i<edges.length;i++) {
    if (edges[i].id.substr(0,4)=='edge') {
      edges[i].setAttribute('class','edge');
    }
  }
}
]]></script>
        <defs>
                <circle id="rim" cx="0" cy="0" r="7"/>
                <circle id="rim2" cx="0" cy="0" r="3.5"/>
                <g id="zoomPlus">
                        <use xlink:href="#rim" fill="#404040">
                                <set attributeName="fill" to="#808080" begin="zoomplus.mouseover" end="zoomplus.mouseout"/>
                        </use>
                        <path d="M-4,0h8M0,-4v8" fill="none" stroke="white" stroke-width="1.5" pointer-events="none"/>
                </g>
                <g id="zoomMin">
                        <use xlink:href="#rim" fill="#404040">
                                <set attributeName="fill" to="#808080" begin="zoomminus.mouseover" end="zoomminus.mouseout"/>
                        </use>
                        <path d="M-4,0h8" fill="none" stroke="white" stroke-width="1.5" pointer-events="none"/>
                </g>
                <g id="dirArrow">
                        <path fill="none" stroke="white" stroke-width="1.5" d="M0,-3.0v7 M-2.5,-0.5L0,-3.0L2.5,-0.5"/>
                </g>
               <g id="resetDef">
                       <use xlink:href="#rim2" fill="#404040">
                               <set attributeName="fill" to="#808080" begin="reset.mouseover" end="reset.mouseout"/>
                       </use>
               </g>
        </defs>

<script type="text/javascript">
var viewWidth = 1107;
var viewHeight = 576;
var sectionId = 'dynsection-0';
</script>
<script xlink:href="svgpan.js"/>
<svg id="graph" class="graph">
<g id="viewport">
<title>C:/projects/ndt/sources/include/ndt/event_handler_select.h</title>
<polygon fill="white" stroke="none" points="-4,4 -4,-572 1102.64,-572 1102.64,4 -4,4"/>
<!-- Node1 -->
<g id="node1" class="node"><title>Node1</title>
<g id="a_node1"><a xlink:title=" ">
<polygon fill="#bfbfbf" stroke="black" points="259.635,-526.5 259.635,-567.5 388.635,-567.5 388.635,-526.5 259.635,-526.5"/>
<text text-anchor="start" x="267.635" y="-555.5" font-family="Helvetica,sans-Serif" font-size="10.00">C:/projects/ndt/sources</text>
<text text-anchor="start" x="267.635" y="-544.5" font-family="Helvetica,sans-Serif" font-size="10.00">/include/ndt/event_handler</text>
<text text-anchor="middle" x="324.135" y="-533.5" font-family="Helvetica,sans-Serif" font-size="10.00">_select.h</text>
</a>
</g>
</g>
<!-- Node2 -->
<g id="node2" class="node"><title>Node2</title>
<g id="a_node2"><a xlink:title=" ">
<polygon fill="white" stroke="#bfbfbf" points="13.1351,-112.5 13.1351,-131.5 59.1351,-131.5 59.1351,-112.5 13.1351,-112.5"/>
<text text-anchor="middle" x="36.1351" y="-119.5" font-family="Helvetica,sans-Serif" font-size="10.00">cstdint</text>
</a>
</g>
</g>
<!-- Node1&#45;&gt;Node2 -->
<g id="edge1" class="edge"><title>Node1&#45;&gt;Node2</title>
<path fill="none" stroke="midnightblue" d="M259.51,-538.542C190.863,-526.602 92.1351,-496.113 92.1351,-419.5 92.1351,-419.5 92.1351,-419.5 92.1351,-233 92.1351,-196.436 67.2584,-159.747 50.6658,-139.342"/>
<polygon fill="midnightblue" stroke="midnightblue" points="53.2865,-137.021 44.1585,-131.642 47.94,-141.539 53.2865,-137.021"/>
</g>
<!-- Node3 -->
<g id="node3" class="node"><title>Node3</title>
<g id="a_node3"><a xlink:title=" ">
<polygon fill="white" stroke="#bfbfbf" points="221.135,-112.5 221.135,-131.5 283.135,-131.5 283.135,-112.5 221.135,-112.5"/>
<text text-anchor="middle" x="252.135" y="-119.5" font-family="Helvetica,sans-Serif" font-size="10.00">type_traits</text>
</a>
</g>
</g>
<!-- Node1&#45;&gt;Node3 -->
<g id="edge2" class="edge"><title>Node1&#45;&gt;Node3</title>
<path fill="none" stroke="midnightblue" d="M306.647,-526.091C287.698,-502.407 260.135,-460.849 260.135,-419.5 260.135,-419.5 260.135,-419.5 260.135,-233 260.135,-200.863 256.697,-163.584 254.328,-141.719"/>
<polygon fill="midnightblue" stroke="midnightblue" points="257.779,-141.087 253.181,-131.542 250.823,-141.872 257.779,-141.087"/>
</g>
<!-- Node4 -->
<g id="node4" class="node"><title>Node4</title>
<g id="a_node4"><a xlink:href="executor__select_8h.html" target="_top" xlink:title=" ">
<polygon fill="white" stroke="black" points="600.135,-470.5 600.135,-489.5 694.135,-489.5 694.135,-470.5 600.135,-470.5"/>
<text text-anchor="middle" x="647.135" y="-477.5" font-family="Helvetica,sans-Serif" font-size="10.00">executor_select.h</text>
</a>
</g>
</g>
<!-- Node1&#45;&gt;Node4 -->
<g id="edge3" class="edge"><title>Node1&#45;&gt;Node4</title>
<path fill="none" stroke="midnightblue" d="M388.723,-533.003C449.209,-520.83 538.476,-502.866 594.68,-491.556"/>
<polygon fill="midnightblue" stroke="midnightblue" points="595.662,-494.929 604.775,-489.524 594.281,-488.066 595.662,-494.929"/>
</g>
<!-- Node5 -->
<g id="node5" class="node"><title>Node5</title>
<g id="a_node5"><a xlink:href="nix_2executor__select__impl_8h.html" target="_top" xlink:title=" ">
<polygon fill="white" stroke="black" points="685.635,-403.5 685.635,-433.5 792.635,-433.5 792.635,-403.5 685.635,-403.5"/>
<text text-anchor="start" x="693.635" y="-421.5" font-family="Helvetica,sans-Serif" font-size="10.00">platform/nix/executor</text>
<text text-anchor="middle" x="739.135" y="-410.5" font-family="Helvetica,sans-Serif" font-size="10.00">_select_impl.h</text>
</a>
</g>
</g>
<!-- Node4&#45;&gt;Node5 -->
<g id="edge4" class="edge"><title>Node4&#45;&gt;Node5</title>
<path fill="none" stroke="midnightblue" d="M660.316,-470.475C672.893,-462.341 692.299,-449.791 708.707,-439.179"/>
<polygon fill="midnightblue" stroke="midnightblue" points="710.956,-441.893 717.453,-433.523 707.155,-436.015 710.956,-441.893"/>
</g>
<!-- Node6 -->
<g id="node6" class="node"><title>Node6</title>
<g id="a_node6"><a xlink:href="common_8h.html" target="_top" xlink:title="Header with typedefs to make type designation platform independent.">
<polygon fill="white" stroke="black" points="787.135,-56.5 787.135,-75.5 867.135,-75.5 867.135,-56.5 787.135,-56.5"/>
<text text-anchor="middle" x="827.135" y="-63.5" font-family="Helvetica,sans-Serif" font-size="10.00">../../common.h</text>
</a>
</g>
</g>
<!-- Node5&#45;&gt;Node6 -->
<g id="edge5" class="edge"><title>Node5&#45;&gt;Node6</title>
<path fill="none" stroke="midnightblue" d="M792.881,-409.994C893.03,-394.491 1098.14,-354.935 1098.14,-291 1098.14,-291 1098.14,-291 1098.14,-177 1098.14,-129.924 955.96,-93.3339 877.568,-76.7374"/>
<polygon fill="midnightblue" stroke="midnightblue" points="877.917,-73.2351 867.414,-74.6237 876.491,-80.0882 877.917,-73.2351"/>
</g>
<!-- Node16 -->
<g id="node16" class="node"><title>Node16</title>
<g id="a_node16"><a xlink:href="executor__select__base_8h.html" target="_top" xlink:title=" ">
<polygon fill="white" stroke="black" points="687.135,-336.5 687.135,-366.5 791.135,-366.5 791.135,-336.5 687.135,-336.5"/>
<text text-anchor="start" x="695.135" y="-354.5" font-family="Helvetica,sans-Serif" font-size="10.00">../../executor_select</text>
<text text-anchor="middle" x="739.135" y="-343.5" font-family="Helvetica,sans-Serif" font-size="10.00">_base.h</text>
</a>
</g>
</g>
<!-- Node5&#45;&gt;Node16 -->
<g id="edge15" class="edge"><title>Node5&#45;&gt;Node16</title>
<path fill="none" stroke="midnightblue" d="M739.135,-403.396C739.135,-395.645 739.135,-385.812 739.135,-376.86"/>
<polygon fill="midnightblue" stroke="midnightblue" points="742.635,-376.576 739.135,-366.577 735.635,-376.577 742.635,-376.576"/>
</g>
<!-- Node7 -->
<g id="node7" class="node"><title>Node7</title>
<g id="a_node7"><a xlink:title=" ">
<polygon fill="white" stroke="#bfbfbf" points="910.135,-0.5 910.135,-19.5 972.135,-19.5 972.135,-0.5 910.135,-0.5"/>
<text text-anchor="middle" x="941.135" y="-7.5" font-family="Helvetica,sans-Serif" font-size="10.00">arpa/inet.h</text>
</a>
</g>
</g>
<!-- Node6&#45;&gt;Node7 -->
<g id="edge6" class="edge"><title>Node6&#45;&gt;Node7</title>
<path fill="none" stroke="midnightblue" d="M845.199,-56.4435C863.71,-47.6751 892.716,-33.9355 913.991,-23.8579"/>
<polygon fill="midnightblue" stroke="midnightblue" points="915.617,-26.9604 923.156,-19.5164 912.62,-20.6343 915.617,-26.9604"/>
</g>
<!-- Node8 -->
<g id="node8" class="node"><title>Node8</title>
<g id="a_node8"><a xlink:title=" ">
<polygon fill="white" stroke="#bfbfbf" points="990.635,-0.5 990.635,-19.5 1037.64,-19.5 1037.64,-0.5 990.635,-0.5"/>
<text text-anchor="middle" x="1014.14" y="-7.5" font-family="Helvetica,sans-Serif" font-size="10.00">errno.h</text>
</a>
</g>
</g>
<!-- Node6&#45;&gt;Node8 -->
<g id="edge7" class="edge"><title>Node6&#45;&gt;Node8</title>
<path fill="none" stroke="midnightblue" d="M856.766,-56.4435C890.51,-46.6993 945.514,-30.8158 980.747,-20.6414"/>
<polygon fill="midnightblue" stroke="midnightblue" points="981.928,-23.9437 990.564,-17.8067 979.985,-17.2185 981.928,-23.9437"/>
</g>
<!-- Node9 -->
<g id="node9" class="node"><title>Node9</title>
<g id="a_node9"><a xlink:title=" ">
<polygon fill="white" stroke="#bfbfbf" points="1055.64,-0.5 1055.64,-19.5 1098.64,-19.5 1098.64,-0.5 1055.64,-0.5"/>
<text text-anchor="middle" x="1077.14" y="-7.5" font-family="Helvetica,sans-Serif" font-size="10.00">fcntl.h</text>
</a>
</g>
</g>
<!-- Node6&#45;&gt;Node9 -->
<g id="edge8" class="edge"><title>Node6&#45;&gt;Node9</title>
<path fill="none" stroke="midnightblue" d="M867.525,-57.8631C909.762,-50.1513 978.154,-36.9656 1045.62,-20.2184"/>
<polygon fill="midnightblue" stroke="midnightblue" points="1046.72,-23.5515 1055.57,-17.7219 1045.02,-16.7621 1046.72,-23.5515"/>
</g>
<!-- Node10 -->
<g id="node10" class="node"><title>Node10</title>
<g id="a_node10"><a xlink:title=" ">
<polygon fill="white" stroke="#bfbfbf" points="512.635,-0.5 512.635,-19.5 561.635,-19.5 561.635,-0.5 512.635,-0.5"/>
<text text-anchor="middle" x="537.135" y="-7.5" font-family="Helvetica,sans-Serif" font-size="10.00">netdb.h</text>
</a>
</g>
</g>
<!-- Node6&#45;&gt;Node10 -->
<g id="edge9" class="edge"><title>Node6&#45;&gt;Node10</title>
<path fill="none" stroke="midnightblue" d="M786.843,-59.1313C738.032,-51.761 653.133,-38.1073 571.834,-20.2311"/>
<polygon fill="midnightblue" stroke="midnightblue" points="572.461,-16.7852 561.94,-18.0303 570.941,-23.6182 572.461,-16.7852"/>
</g>
<!-- Node11 -->
<g id="node11" class="node"><title>Node11</title>
<g id="a_node11"><a xlink:title=" ">
<polygon fill="white" stroke="#bfbfbf" points="579.635,-0.5 579.635,-19.5 644.635,-19.5 644.635,-0.5 579.635,-0.5"/>
<text text-anchor="middle" x="612.135" y="-7.5" font-family="Helvetica,sans-Serif" font-size="10.00">netinet/in.h</text>
</a>
</g>
</g>
<!-- Node6&#45;&gt;Node11 -->
<g id="edge10" class="edge"><title>Node6&#45;&gt;Node11</title>
<path fill="none" stroke="midnightblue" d="M793.068,-56.4435C755.518,-47.0125 695.071,-31.8305 654.497,-21.6397"/>
<polygon fill="midnightblue" stroke="midnightblue" points="655.187,-18.2044 644.636,-19.1629 653.482,-24.9936 655.187,-18.2044"/>
</g>
<!-- Node12 -->
<g id="node12" class="node"><title>Node12</title>
<g id="a_node12"><a xlink:title=" ">
<polygon fill="white" stroke="#bfbfbf" points="662.635,-0.5 662.635,-19.5 735.635,-19.5 735.635,-0.5 662.635,-0.5"/>
<text text-anchor="middle" x="699.135" y="-7.5" font-family="Helvetica,sans-Serif" font-size="10.00">sys/socket.h</text>
</a>
</g>
</g>
<!-- Node6&#45;&gt;Node12 -->
<g id="edge11" class="edge"><title>Node6&#45;&gt;Node12</title>
<path fill="none" stroke="midnightblue" d="M806.853,-56.4435C785.788,-47.5566 752.618,-33.5632 728.65,-23.4514"/>
<polygon fill="midnightblue" stroke="midnightblue" points="729.896,-20.1787 719.322,-19.5164 727.175,-26.6283 729.896,-20.1787"/>
</g>
<!-- Node13 -->
<g id="node13" class="node"><title>Node13</title>
<g id="a_node13"><a xlink:title=" ">
<polygon fill="white" stroke="#bfbfbf" points="754.135,-0.5 754.135,-19.5 822.135,-19.5 822.135,-0.5 754.135,-0.5"/>
<text text-anchor="middle" x="788.135" y="-7.5" font-family="Helvetica,sans-Serif" font-size="10.00">sys/types.h</text>
</a>
</g>
</g>
<!-- Node6&#45;&gt;Node13 -->
<g id="edge12" class="edge"><title>Node6&#45;&gt;Node13</title>
<path fill="none" stroke="midnightblue" d="M820.695,-56.083C815.186,-48.4554 807.104,-37.2645 800.37,-27.9408"/>
<polygon fill="midnightblue" stroke="midnightblue" points="803.148,-25.8087 794.455,-19.7511 797.473,-29.9071 803.148,-25.8087"/>
</g>
<!-- Node14 -->
<g id="node14" class="node"><title>Node14</title>
<g id="a_node14"><a xlink:title=" ">
<polygon fill="white" stroke="#bfbfbf" points="840.635,-0.5 840.635,-19.5 891.635,-19.5 891.635,-0.5 840.635,-0.5"/>
<text text-anchor="middle" x="866.135" y="-7.5" font-family="Helvetica,sans-Serif" font-size="10.00">unistd.h</text>
</a>
</g>
</g>
<!-- Node6&#45;&gt;Node14 -->
<g id="edge13" class="edge"><title>Node6&#45;&gt;Node14</title>
<path fill="none" stroke="midnightblue" d="M833.575,-56.083C839.084,-48.4554 847.166,-37.2645 853.9,-27.9408"/>
<polygon fill="midnightblue" stroke="midnightblue" points="856.797,-29.9071 859.815,-19.7511 851.123,-25.8087 856.797,-29.9071"/>
</g>
<!-- Node15 -->
<g id="node15" class="node"><title>Node15</title>
<g id="a_node15"><a xlink:title=" ">
<polygon fill="white" stroke="#bfbfbf" points="255.135,-0.5 255.135,-19.5 303.135,-19.5 303.135,-0.5 255.135,-0.5"/>
<text text-anchor="middle" x="279.135" y="-7.5" font-family="Helvetica,sans-Serif" font-size="10.00">cstddef</text>
</a>
</g>
</g>
<!-- Node6&#45;&gt;Node15 -->
<g id="edge14" class="edge"><title>Node6&#45;&gt;Node15</title>
<path fill="none" stroke="midnightblue" d="M786.839,-61.0293C683.441,-50.8404 410.091,-23.9044 313.522,-14.3885"/>
<polygon fill="midnightblue" stroke="midnightblue" points="313.72,-10.8912 303.425,-13.3936 313.034,-17.8574 313.72,-10.8912"/>
</g>
<!-- Node16&#45;&gt;Node1 -->
<g id="edge20" class="edge"><title>Node16&#45;&gt;Node1</title>
<path fill="none" stroke="midnightblue" d="M709.098,-366.505C638.822,-399.273 463.03,-481.238 375.427,-522.084"/>
<polygon fill="midnightblue" stroke="midnightblue" points="373.795,-518.983 366.211,-526.381 376.754,-525.328 373.795,-518.983"/>
</g>
<!-- Node16&#45;&gt;Node6 -->
<g id="edge19" class="edge"><title>Node16&#45;&gt;Node6</title>
<path fill="none" stroke="midnightblue" d="M767.889,-336.333C822.783,-307.229 939.679,-234.708 969.135,-132 981.053,-90.4461 923.043,-75.4396 877.587,-70.0309"/>
<polygon fill="midnightblue" stroke="midnightblue" points="877.839,-66.5381 867.525,-68.9611 877.099,-73.4988 877.839,-66.5381"/>
</g>
<!-- Node17 -->
<g id="node17" class="node"><title>Node17</title>
<g id="a_node17"><a xlink:title=" ">
<polygon fill="white" stroke="#bfbfbf" points="1032.14,-280.5 1032.14,-299.5 1070.14,-299.5 1070.14,-280.5 1032.14,-280.5"/>
<text text-anchor="middle" x="1051.14" y="-287.5" font-family="Helvetica,sans-Serif" font-size="10.00">array</text>
</a>
</g>
</g>
<!-- Node16&#45;&gt;Node17 -->
<g id="edge16" class="edge"><title>Node16&#45;&gt;Node17</title>
<path fill="none" stroke="midnightblue" d="M791.344,-342.446C847.605,-333.442 939.64,-317.772 1018.14,-300 1019.41,-299.712 1020.7,-299.408 1022.01,-299.092"/>
<polygon fill="midnightblue" stroke="midnightblue" points="1023.2,-302.399 1032.01,-296.519 1021.45,-295.62 1023.2,-302.399"/>
</g>
<!-- Node18 -->
<g id="node18" class="node"><title>Node18</title>
<g id="a_node18"><a xlink:title=" ">
<polygon fill="white" stroke="#bfbfbf" points="288.135,-224.5 288.135,-243.5 346.135,-243.5 346.135,-224.5 288.135,-224.5"/>
<text text-anchor="middle" x="317.135" y="-231.5" font-family="Helvetica,sans-Serif" font-size="10.00">functional</text>
</a>
</g>
</g>
<!-- Node16&#45;&gt;Node18 -->
<g id="edge17" class="edge"><title>Node16&#45;&gt;Node18</title>
<path fill="none" stroke="midnightblue" d="M686.938,-342.833C635.141,-334.593 553.784,-319.942 485.135,-300 434.784,-285.373 378.328,-262.026 345.359,-247.654"/>
<polygon fill="midnightblue" stroke="midnightblue" points="346.477,-244.322 335.914,-243.502 343.659,-250.73 346.477,-244.322"/>
</g>
<!-- Node19 -->
<g id="node19" class="node"><title>Node19</title>
<g id="a_node19"><a xlink:title=" ">
<polygon fill="white" stroke="#bfbfbf" points="855.135,-112.5 855.135,-131.5 929.135,-131.5 929.135,-112.5 855.135,-112.5"/>
<text text-anchor="middle" x="892.135" y="-119.5" font-family="Helvetica,sans-Serif" font-size="10.00">system_error</text>
</a>
</g>
</g>
<!-- Node16&#45;&gt;Node19 -->
<g id="edge18" class="edge"><title>Node16&#45;&gt;Node19</title>
<path fill="none" stroke="midnightblue" d="M752.934,-336.412C778.621,-309.546 834.232,-248.279 868.135,-188 876.428,-173.256 882.852,-155.096 886.958,-141.723"/>
<polygon fill="midnightblue" stroke="midnightblue" points="890.413,-142.375 889.852,-131.795 883.693,-140.416 890.413,-142.375"/>
</g>
<!-- Node20 -->
<g id="node20" class="node"><title>Node20</title>
<g id="a_node20"><a xlink:href="socket_8h.html" target="_top" xlink:title=" ">
<polygon fill="white" stroke="black" points="494.135,-280.5 494.135,-299.5 548.135,-299.5 548.135,-280.5 494.135,-280.5"/>
<text text-anchor="middle" x="521.135" y="-287.5" font-family="Helvetica,sans-Serif" font-size="10.00">socket.h</text>
</a>
</g>
</g>
<!-- Node16&#45;&gt;Node20 -->
<g id="edge21" class="edge"><title>Node16&#45;&gt;Node20</title>
<path fill="none" stroke="midnightblue" d="M687.748,-336.475C647.992,-325.624 593.887,-310.857 558.262,-301.133"/>
<polygon fill="midnightblue" stroke="midnightblue" points="558.853,-297.667 548.284,-298.41 557.01,-304.42 558.853,-297.667"/>
</g>
<!-- Node20&#45;&gt;Node6 -->
<g id="edge51" class="edge"><title>Node20&#45;&gt;Node6</title>
<path fill="none" stroke="midnightblue" d="M548.24,-289.891C629.989,-290.874 873.434,-280.852 954.135,-132 972.714,-97.7308 920.45,-81.0307 877.426,-73.2495"/>
<polygon fill="midnightblue" stroke="midnightblue" points="877.739,-69.7532 867.297,-71.5456 876.578,-76.6562 877.739,-69.7532"/>
</g>
<!-- Node20&#45;&gt;Node18 -->
<g id="edge23" class="edge"><title>Node20&#45;&gt;Node18</title>
<path fill="none" stroke="midnightblue" d="M494.045,-281.829C458.675,-272.467 396.522,-256.014 356.097,-245.314"/>
<polygon fill="midnightblue" stroke="midnightblue" points="356.88,-241.9 346.318,-242.725 355.089,-248.667 356.88,-241.9"/>
</g>
<!-- Node21 -->
<g id="node21" class="node"><title>Node21</title>
<g id="a_node21"><a xlink:title=" ">
<polygon fill="white" stroke="#bfbfbf" points="153.635,-112.5 153.635,-131.5 202.635,-131.5 202.635,-112.5 153.635,-112.5"/>
<text text-anchor="middle" x="178.135" y="-119.5" font-family="Helvetica,sans-Serif" font-size="10.00">cassert</text>
</a>
</g>
</g>
<!-- Node20&#45;&gt;Node21 -->
<g id="edge22" class="edge"><title>Node20&#45;&gt;Node21</title>
<path fill="none" stroke="midnightblue" d="M510.02,-280.293C492.521,-266.883 457.133,-240.952 424.135,-224 383.603,-203.177 370.387,-205.064 328.135,-188 285.34,-170.716 236.388,-149.163 206.368,-135.738"/>
<polygon fill="midnightblue" stroke="midnightblue" points="207.507,-132.413 196.95,-131.515 204.643,-138.8 207.507,-132.413"/>
</g>
<!-- Node22 -->
<g id="node22" class="node"><title>Node22</title>
<g id="a_node22"><a xlink:href="address_8h.html" target="_top" xlink:title=" ">
<polygon fill="white" stroke="black" points="491.635,-224.5 491.635,-243.5 550.635,-243.5 550.635,-224.5 491.635,-224.5"/>
<text text-anchor="middle" x="521.135" y="-231.5" font-family="Helvetica,sans-Serif" font-size="10.00">address.h</text>
</a>
</g>
</g>
<!-- Node20&#45;&gt;Node22 -->
<g id="edge24" class="edge"><title>Node20&#45;&gt;Node22</title>
<path fill="none" stroke="midnightblue" d="M521.135,-280.083C521.135,-273.006 521.135,-262.861 521.135,-253.986"/>
<polygon fill="midnightblue" stroke="midnightblue" points="524.635,-253.751 521.135,-243.751 517.635,-253.751 524.635,-253.751"/>
</g>
<!-- Node25 -->
<g id="node25" class="node"><title>Node25</title>
<g id="a_node25"><a xlink:href="buffer_8h.html" target="_top" xlink:title=" ">
<polygon fill="white" stroke="black" points="146.135,-168.5 146.135,-187.5 194.135,-187.5 194.135,-168.5 146.135,-168.5"/>
<text text-anchor="middle" x="170.135" y="-175.5" font-family="Helvetica,sans-Serif" font-size="10.00">buffer.h</text>
</a>
</g>
</g>
<!-- Node20&#45;&gt;Node25 -->
<g id="edge50" class="edge"><title>Node20&#45;&gt;Node25</title>
<path fill="none" stroke="midnightblue" d="M504.736,-280.325C474.634,-264.513 411.508,-231.901 388.135,-224 310.847,-197.873 287.841,-205.404 208.135,-188 206.868,-187.723 205.579,-187.438 204.277,-187.146"/>
<polygon fill="midnightblue" stroke="midnightblue" points="204.758,-183.666 194.229,-184.841 203.193,-190.489 204.758,-183.666"/>
</g>
<!-- Node26 -->
<g id="node26" class="node"><title>Node26</title>
<g id="a_node26"><a xlink:href="exception_8h.html" target="_top" xlink:title=" ">
<polygon fill="white" stroke="black" points="791.635,-168.5 791.635,-187.5 858.635,-187.5 858.635,-168.5 791.635,-168.5"/>
<text text-anchor="middle" x="825.135" y="-175.5" font-family="Helvetica,sans-Serif" font-size="10.00">exception.h</text>
</a>
</g>
</g>
<!-- Node20&#45;&gt;Node26 -->
<g id="edge52" class="edge"><title>Node20&#45;&gt;Node26</title>
<path fill="none" stroke="midnightblue" d="M544.737,-280.46C598.388,-261.047 729.648,-213.551 791.653,-191.115"/>
<polygon fill="midnightblue" stroke="midnightblue" points="793.127,-194.304 801.339,-187.61 790.745,-187.722 793.127,-194.304"/>
</g>
<!-- Node29 -->
<g id="node29" class="node"><title>Node29</title>
<g id="a_node29"><a xlink:href="useful__base__types_8h.html" target="_top" xlink:title=" ">
<polygon fill="white" stroke="black" points="258.135,-56.5 258.135,-75.5 364.135,-75.5 364.135,-56.5 258.135,-56.5"/>
<text text-anchor="middle" x="311.135" y="-63.5" font-family="Helvetica,sans-Serif" font-size="10.00">useful_base_types.h</text>
</a>
</g>
</g>
<!-- Node20&#45;&gt;Node29 -->
<g id="edge53" class="edge"><title>Node20&#45;&gt;Node29</title>
<path fill="none" stroke="midnightblue" d="M493.971,-281.704C466.609,-273.92 423.495,-260.456 388.135,-244 372.586,-236.764 371.22,-229.949 355.135,-224 263.032,-189.934 231.482,-215.241 137.135,-188 75.5151,-170.208 39.6124,-185.432 4.1351,-132 -0.781764,-124.595 -1.67667,-118.726 4.1351,-112 34.9976,-76.2839 167.483,-68.3797 247.987,-66.9467"/>
<polygon fill="midnightblue" stroke="midnightblue" points="248.073,-70.4459 258.019,-66.7967 247.968,-63.4467 248.073,-70.4459"/>
</g>
<!-- Node30 -->
<g id="node30" class="node"><title>Node30</title>
<g id="a_node30"><a xlink:href="utils_8h.html" target="_top" xlink:title=" ">
<polygon fill="white" stroke="black" points="572.635,-168.5 572.635,-187.5 615.635,-187.5 615.635,-168.5 572.635,-168.5"/>
<text text-anchor="middle" x="594.135" y="-175.5" font-family="Helvetica,sans-Serif" font-size="10.00">utils.h</text>
</a>
</g>
</g>
<!-- Node20&#45;&gt;Node30 -->
<g id="edge54" class="edge"><title>Node20&#45;&gt;Node30</title>
<path fill="none" stroke="midnightblue" d="M529.275,-280.468C537.387,-271.722 549.93,-257.525 559.135,-244 569.479,-228.802 579.219,-210.229 585.785,-196.834"/>
<polygon fill="midnightblue" stroke="midnightblue" points="588.977,-198.272 590.145,-187.742 582.665,-195.246 588.977,-198.272"/>
</g>
<!-- Node23 -->
<g id="node23" class="node"><title>Node23</title>
<g id="a_node23"><a xlink:title=" ">
<polygon fill="white" stroke="#bfbfbf" points="513.635,-168.5 513.635,-187.5 554.635,-187.5 554.635,-168.5 513.635,-168.5"/>
<text text-anchor="middle" x="534.135" y="-175.5" font-family="Helvetica,sans-Serif" font-size="10.00">string</text>
</a>
</g>
</g>
<!-- Node22&#45;&gt;Node23 -->
<g id="edge25" class="edge"><title>Node22&#45;&gt;Node23</title>
<path fill="none" stroke="midnightblue" d="M523.282,-224.083C525.004,-216.927 527.482,-206.635 529.635,-197.691"/>
<polygon fill="midnightblue" stroke="midnightblue" points="533.091,-198.293 532.028,-187.751 526.285,-196.654 533.091,-198.293"/>
</g>
<!-- Node24 -->
<g id="node24" class="node"><title>Node24</title>
<g id="a_node24"><a xlink:title=" ">
<polygon fill="white" stroke="#bfbfbf" points="451.135,-168.5 451.135,-187.5 495.135,-187.5 495.135,-168.5 451.135,-168.5"/>
<text text-anchor="middle" x="473.135" y="-175.5" font-family="Helvetica,sans-Serif" font-size="10.00">variant</text>
</a>
</g>
</g>
<!-- Node22&#45;&gt;Node24 -->
<g id="edge26" class="edge"><title>Node22&#45;&gt;Node24</title>
<path fill="none" stroke="midnightblue" d="M513.209,-224.083C506.289,-216.298 496.07,-204.801 487.683,-195.367"/>
<polygon fill="midnightblue" stroke="midnightblue" points="490.173,-192.9 480.914,-187.751 484.942,-197.55 490.173,-192.9"/>
</g>
<!-- Node22&#45;&gt;Node25 -->
<g id="edge27" class="edge"><title>Node22&#45;&gt;Node25</title>
<path fill="none" stroke="midnightblue" d="M491.512,-228.443C426.876,-218.499 273.481,-194.899 204.63,-184.307"/>
<polygon fill="midnightblue" stroke="midnightblue" points="204.748,-180.784 194.332,-182.723 203.684,-187.703 204.748,-180.784"/>
</g>
<!-- Node22&#45;&gt;Node26 -->
<g id="edge33" class="edge"><title>Node22&#45;&gt;Node26</title>
<path fill="none" stroke="midnightblue" d="M550.837,-227.724C604.758,-218.146 718.955,-197.861 781.659,-186.723"/>
<polygon fill="midnightblue" stroke="midnightblue" points="782.399,-190.146 791.633,-184.951 781.175,-183.254 782.399,-190.146"/>
</g>
<!-- Node27 -->
<g id="node27" class="node"><title>Node27</title>
<g id="a_node27"><a xlink:href="sys__socket__ops_8h.html" target="_top" xlink:title=" ">
<polygon fill="white" stroke="black" points="337.135,-168.5 337.135,-187.5 433.135,-187.5 433.135,-168.5 337.135,-168.5"/>
<text text-anchor="middle" x="385.135" y="-175.5" font-family="Helvetica,sans-Serif" font-size="10.00">sys_socket_ops.h</text>
</a>
</g>
</g>
<!-- Node22&#45;&gt;Node27 -->
<g id="edge36" class="edge"><title>Node22&#45;&gt;Node27</title>
<path fill="none" stroke="midnightblue" d="M499.585,-224.444C477.104,-215.517 441.647,-201.439 416.155,-191.317"/>
<polygon fill="midnightblue" stroke="midnightblue" points="417.17,-187.954 406.584,-187.516 414.586,-194.46 417.17,-187.954"/>
</g>
<!-- Node22&#45;&gt;Node30 -->
<g id="edge42" class="edge"><title>Node22&#45;&gt;Node30</title>
<path fill="none" stroke="midnightblue" d="M532.864,-224.324C543.972,-216.107 560.877,-203.602 574.118,-193.807"/>
<polygon fill="midnightblue" stroke="midnightblue" points="576.235,-196.595 582.193,-187.834 572.072,-190.967 576.235,-196.595"/>
</g>
<!-- Node25&#45;&gt;Node2 -->
<g id="edge30" class="edge"><title>Node25&#45;&gt;Node2</title>
<path fill="none" stroke="midnightblue" d="M148.902,-168.444C126.752,-159.517 91.8164,-145.439 66.6991,-135.317"/>
<polygon fill="midnightblue" stroke="midnightblue" points="67.8519,-132.008 57.2685,-131.516 65.2354,-138.501 67.8519,-132.008"/>
</g>
<!-- Node25&#45;&gt;Node3 -->
<g id="edge31" class="edge"><title>Node25&#45;&gt;Node3</title>
<path fill="none" stroke="midnightblue" d="M183.31,-168.324C195.982,-159.979 215.368,-147.212 230.341,-137.352"/>
<polygon fill="midnightblue" stroke="midnightblue" points="232.566,-140.078 238.993,-131.655 228.716,-134.231 232.566,-140.078"/>
</g>
<!-- Node25&#45;&gt;Node6 -->
<g id="edge32" class="edge"><title>Node25&#45;&gt;Node6</title>
<path fill="none" stroke="midnightblue" d="M161.495,-168.341C148.969,-154.762 128.85,-128.325 144.135,-112 165.721,-88.9456 622.567,-73.1459 776.794,-68.4528"/>
<polygon fill="midnightblue" stroke="midnightblue" points="777.047,-71.9469 786.937,-68.147 776.836,-64.9501 777.047,-71.9469"/>
</g>
<!-- Node25&#45;&gt;Node15 -->
<g id="edge29" class="edge"><title>Node25&#45;&gt;Node15</title>
<path fill="none" stroke="midnightblue" d="M159.436,-168.211C145.642,-155.759 124.609,-132.24 135.135,-112 158.317,-67.4258 211.182,-38.4279 246,-23.3965"/>
<polygon fill="midnightblue" stroke="midnightblue" points="247.414,-26.599 255.302,-19.5258 244.725,-20.1361 247.414,-26.599"/>
</g>
<!-- Node25&#45;&gt;Node21 -->
<g id="edge28" class="edge"><title>Node25&#45;&gt;Node21</title>
<path fill="none" stroke="midnightblue" d="M171.456,-168.083C172.516,-160.927 174.041,-150.635 175.366,-141.691"/>
<polygon fill="midnightblue" stroke="midnightblue" points="178.835,-142.156 176.839,-131.751 171.911,-141.13 178.835,-142.156"/>
</g>
<!-- Node26&#45;&gt;Node6 -->
<g id="edge35" class="edge"><title>Node26&#45;&gt;Node6</title>
<path fill="none" stroke="midnightblue" d="M858.867,-173.588C885.33,-168.939 920.535,-157.953 938.135,-132 957.062,-104.09 915.039,-86.4901 877.385,-76.7482"/>
<polygon fill="midnightblue" stroke="midnightblue" points="877.986,-73.2924 867.441,-74.3231 876.327,-80.093 877.986,-73.2924"/>
</g>
<!-- Node26&#45;&gt;Node19 -->
<g id="edge34" class="edge"><title>Node26&#45;&gt;Node19</title>
<path fill="none" stroke="midnightblue" d="M835.9,-168.324C845.901,-160.263 861.022,-148.077 873.066,-138.369"/>
<polygon fill="midnightblue" stroke="midnightblue" points="875.585,-140.834 881.175,-131.834 871.192,-135.384 875.585,-140.834"/>
</g>
<!-- Node27&#45;&gt;Node6 -->
<g id="edge37" class="edge"><title>Node27&#45;&gt;Node6</title>
<path fill="none" stroke="midnightblue" d="M394.274,-168.276C409.992,-153.847 443.78,-125.29 478.135,-112 578.938,-73.0046 707.096,-66.4155 776.657,-66.0659"/>
<polygon fill="midnightblue" stroke="midnightblue" points="776.897,-69.5658 786.894,-66.0578 776.892,-62.5658 776.897,-69.5658"/>
</g>
<!-- Node28 -->
<g id="node28" class="node"><title>Node28</title>
<g id="a_node28"><a xlink:href="sys__error__code_8h.html" target="_top" xlink:title=" ">
<polygon fill="white" stroke="black" points="339.135,-112.5 339.135,-131.5 431.135,-131.5 431.135,-112.5 339.135,-112.5"/>
<text text-anchor="middle" x="385.135" y="-119.5" font-family="Helvetica,sans-Serif" font-size="10.00">sys_error_code.h</text>
</a>
</g>
</g>
<!-- Node27&#45;&gt;Node28 -->
<g id="edge38" class="edge"><title>Node27&#45;&gt;Node28</title>
<path fill="none" stroke="midnightblue" d="M385.135,-168.083C385.135,-161.006 385.135,-150.861 385.135,-141.986"/>
<polygon fill="midnightblue" stroke="midnightblue" points="388.635,-141.751 385.135,-131.751 381.635,-141.751 388.635,-141.751"/>
</g>
<!-- Node27&#45;&gt;Node29 -->
<g id="edge41" class="edge"><title>Node27&#45;&gt;Node29</title>
<path fill="none" stroke="midnightblue" d="M370.404,-168.496C357.935,-160.57 340.486,-147.637 330.135,-132 320.908,-118.06 316.069,-99.5535 313.591,-85.8531"/>
<polygon fill="midnightblue" stroke="midnightblue" points="317.005,-85.0295 312.019,-75.6811 310.087,-86.0982 317.005,-85.0295"/>
</g>
<!-- Node28&#45;&gt;Node6 -->
<g id="edge39" class="edge"><title>Node28&#45;&gt;Node6</title>
<path fill="none" stroke="midnightblue" d="M431.302,-113.925C435.972,-113.254 440.646,-112.601 445.135,-112 563.735,-96.1235 703.461,-80.4256 776.632,-72.4347"/>
<polygon fill="midnightblue" stroke="midnightblue" points="777.372,-75.8749 786.934,-71.3125 776.614,-68.916 777.372,-75.8749"/>
</g>
<!-- Node28&#45;&gt;Node29 -->
<g id="edge40" class="edge"><title>Node28&#45;&gt;Node29</title>
<path fill="none" stroke="midnightblue" d="M373.246,-112.324C361.985,-104.107 344.849,-91.6017 331.426,-81.8069"/>
<polygon fill="midnightblue" stroke="midnightblue" points="333.382,-78.9014 323.241,-75.8339 329.256,-84.5559 333.382,-78.9014"/>
</g>
<!-- Node30&#45;&gt;Node3 -->
<g id="edge47" class="edge"><title>Node30&#45;&gt;Node3</title>
<path fill="none" stroke="midnightblue" d="M572.553,-170.319C569.411,-169.468 566.202,-168.664 563.135,-168 512.504,-157.043 365.843,-137.578 293.492,-128.258"/>
<polygon fill="midnightblue" stroke="midnightblue" points="293.742,-124.761 283.377,-126.959 292.85,-131.704 293.742,-124.761"/>
</g>
<!-- Node30&#45;&gt;Node6 -->
<g id="edge49" class="edge"><title>Node30&#45;&gt;Node6</title>
<path fill="none" stroke="midnightblue" d="M615.647,-175.25C664.179,-170.878 780.135,-157.92 808.135,-132 820.798,-120.278 825.186,-100.633 826.626,-86.0016"/>
<polygon fill="midnightblue" stroke="midnightblue" points="830.145,-85.7814 827.25,-75.5899 823.158,-85.3625 830.145,-85.7814"/>
</g>
<!-- Node30&#45;&gt;Node19 -->
<g id="edge46" class="edge"><title>Node30&#45;&gt;Node19</title>
<path fill="none" stroke="midnightblue" d="M616.048,-173.029C664.021,-164.336 779.269,-143.452 844.688,-131.598"/>
<polygon fill="midnightblue" stroke="midnightblue" points="845.526,-135.003 854.742,-129.776 844.278,-128.115 845.526,-135.003"/>
</g>
<!-- Node31 -->
<g id="node31" class="node"><title>Node31</title>
<g id="a_node31"><a xlink:title=" ">
<polygon fill="white" stroke="#bfbfbf" points="653.135,-112.5 653.135,-131.5 713.135,-131.5 713.135,-112.5 653.135,-112.5"/>
<text text-anchor="middle" x="683.135" y="-119.5" font-family="Helvetica,sans-Serif" font-size="10.00">fmt/core.h</text>
</a>
</g>
</g>
<!-- Node30&#45;&gt;Node31 -->
<g id="edge43" class="edge"><title>Node30&#45;&gt;Node31</title>
<path fill="none" stroke="midnightblue" d="M608.434,-168.324C622.318,-159.9 643.627,-146.971 659.939,-137.074"/>
<polygon fill="midnightblue" stroke="midnightblue" points="662.137,-139.834 668.871,-131.655 658.506,-133.85 662.137,-139.834"/>
</g>
<!-- Node32 -->
<g id="node32" class="node"><title>Node32</title>
<g id="a_node32"><a xlink:title=" ">
<polygon fill="white" stroke="#bfbfbf" points="731.135,-112.5 731.135,-131.5 799.135,-131.5 799.135,-112.5 731.135,-112.5"/>
<text text-anchor="middle" x="765.135" y="-119.5" font-family="Helvetica,sans-Serif" font-size="10.00">fmt/format.h</text>
</a>
</g>
</g>
<!-- Node30&#45;&gt;Node32 -->
<g id="edge44" class="edge"><title>Node30&#45;&gt;Node32</title>
<path fill="none" stroke="midnightblue" d="M615.792,-170.161C644.094,-161.224 694.078,-145.439 728.366,-134.611"/>
<polygon fill="midnightblue" stroke="midnightblue" points="729.543,-137.91 738.025,-131.561 727.435,-131.235 729.543,-137.91"/>
</g>
<!-- Node33 -->
<g id="node33" class="node"><title>Node33</title>
<g id="a_node33"><a xlink:title=" ">
<polygon fill="white" stroke="#bfbfbf" points="487.135,-112.5 487.135,-131.5 533.135,-131.5 533.135,-112.5 487.135,-112.5"/>
<text text-anchor="middle" x="510.135" y="-119.5" font-family="Helvetica,sans-Serif" font-size="10.00">cstring</text>
</a>
</g>
</g>
<!-- Node30&#45;&gt;Node33 -->
<g id="edge45" class="edge"><title>Node30&#45;&gt;Node33</title>
<path fill="none" stroke="midnightblue" d="M580.639,-168.324C567.535,-159.9 547.423,-146.971 532.028,-137.074"/>
<polygon fill="midnightblue" stroke="midnightblue" points="533.902,-134.118 523.598,-131.655 530.117,-140.006 533.902,-134.118"/>
</g>
<!-- Node34 -->
<g id="node34" class="node"><title>Node34</title>
<g id="a_node34"><a xlink:title=" ">
<polygon fill="white" stroke="#bfbfbf" points="551.635,-112.5 551.635,-131.5 634.635,-131.5 634.635,-112.5 551.635,-112.5"/>
<text text-anchor="middle" x="593.135" y="-119.5" font-family="Helvetica,sans-Serif" font-size="10.00">unordered_map</text>
</a>
</g>
</g>
<!-- Node30&#45;&gt;Node34 -->
<g id="edge48" class="edge"><title>Node30&#45;&gt;Node34</title>
<path fill="none" stroke="midnightblue" d="M593.97,-168.083C593.839,-161.006 593.651,-150.861 593.487,-141.986"/>
<polygon fill="midnightblue" stroke="midnightblue" points="596.982,-141.685 593.297,-131.751 589.983,-141.814 596.982,-141.685"/>
</g>
</g>
</svg>
        <g id="navigator" transform="translate(0 0)" fill="#404254">
                <rect fill="#f2f5e9" fill-opacity="0.5" stroke="#606060" stroke-width=".5" x="0" y="0" width="60" height="60"/>
                <use id="zoomplus" xlink:href="#zoomPlus" x="17" y="9" onmousedown="handleZoom(evt,'in')"/>
                <use id="zoomminus" xlink:href="#zoomMin" x="42" y="9" onmousedown="handleZoom(evt,'out')"/>
                <use id="reset" xlink:href="#resetDef" x="30" y="36" onmousedown="handleReset()"/>
                <g id="arrowUp" xlink:href="#dirArrow" transform="translate(30 24)" onmousedown="handlePan(0,-1)">
                  <use xlink:href="#rim" fill="#404040">
                        <set attributeName="fill" to="#808080" begin="arrowUp.mouseover" end="arrowUp.mouseout"/>
                  </use>
                  <path fill="none" stroke="white" stroke-width="1.5" d="M0,-3.0v7 M-2.5,-0.5L0,-3.0L2.5,-0.5"/>
                </g>
                <g id="arrowRight" xlink:href="#dirArrow" transform="rotate(90) translate(36 -43)" onmousedown="handlePan(1,0)">
                  <use xlink:href="#rim" fill="#404040">
                        <set attributeName="fill" to="#808080" begin="arrowRight.mouseover" end="arrowRight.mouseout"/>
                  </use>
                  <path fill="none" stroke="white" stroke-width="1.5" d="M0,-3.0v7 M-2.5,-0.5L0,-3.0L2.5,-0.5"/>
                </g>
                <g id="arrowDown" xlink:href="#dirArrow" transform="rotate(180) translate(-30 -48)" onmousedown="handlePan(0,1)">
                  <use xlink:href="#rim" fill="#404040">
                        <set attributeName="fill" to="#808080" begin="arrowDown.mouseover" end="arrowDown.mouseout"/>
                  </use>
                  <path fill="none" stroke="white" stroke-width="1.5" d="M0,-3.0v7 M-2.5,-0.5L0,-3.0L2.5,-0.5"/>
                </g>
                <g id="arrowLeft" xlink:href="#dirArrow" transform="rotate(270) translate(-36 17)" onmousedown="handlePan(-1,0)">
                  <use xlink:href="#rim" fill="#404040">
                        <set attributeName="fill" to="#808080" begin="arrowLeft.mouseover" end="arrowLeft.mouseout"/>
                  </use>
                  <path fill="none" stroke="white" stroke-width="1.5" d="M0,-3.0v7 M-2.5,-0.5L0,-3.0L2.5,-0.5"/>
                </g>
        </g>
        <svg viewBox="0 0 15 15" width="100%" height="30px" preserveAspectRatio="xMaxYMin meet">
         <g id="arrow_out" transform="scale(0.3 0.3)">
          <a xlink:href="event__handler__select_8h__incl_org.svg" target="_base">
           <rect id="button" ry="5" rx="5" y="6" x="6" height="38" width="38"
                fill="#f2f5e9" fill-opacity="0.5" stroke="#606060" stroke-width="1.0"/>
           <path id="arrow"
             d="M 11.500037,31.436501 C 11.940474,20.09759 22.043105,11.32322 32.158766,21.979434 L 37.068811,17.246167 C 37.068811,17.246167 37.088388,32 37.088388,32 L 22.160133,31.978069 C 22.160133,31.978069 26.997745,27.140456 26.997745,27.140456 C 18.528582,18.264221 13.291696,25.230495 11.500037,31.436501 z"
             style="fill:#404040;"/>
          </a>
         </g>
        </svg>
</svg>
