<?xml version="1.0" encoding="UTF-8" standalone="no"?>
<!DOCTYPE svg PUBLIC "-//W3C//DTD SVG 1.1//EN"
 "http://www.w3.org/Graphics/SVG/1.1/DTD/svg11.dtd">
<!-- Generated by graphviz version 2.38.0 (20140413.2041)
 -->
<!-- Title: C:/projects/ndt/sources/include/ndt/exception.h Pages: 1 -->
<svg width="790pt" height="552pt"
 viewBox="0.00 0.00 790.00 552.00" xmlns="http://www.w3.org/2000/svg" xmlns:xlink="http://www.w3.org/1999/xlink">
<g id="graph0" class="graph" transform="scale(1 1) rotate(0) translate(4 548)">
<title>C:/projects/ndt/sources/include/ndt/exception.h</title>
<polygon fill="white" stroke="none" points="-4,4 -4,-548 786,-548 786,4 -4,4"/>
<!-- Node1 -->
<g id="node1" class="node"><title>Node1</title>
<g id="a_node1"><a xlink:title=" ">
<polygon fill="#bfbfbf" stroke="black" points="421,-513.5 421,-543.5 541,-543.5 541,-513.5 421,-513.5"/>
<text text-anchor="start" x="429" y="-531.5" font-family="Helvetica,sans-Serif" font-size="10.00">C:/projects/ndt/sources</text>
<text text-anchor="middle" x="481" y="-520.5" font-family="Helvetica,sans-Serif" font-size="10.00">/include/ndt/exception.h</text>
</a>
</g>
</g>
<!-- Node2 -->
<g id="node2" class="node"><title>Node2</title>
<g id="a_node2"><a xlink:href="address_8h.html" target="_top" xlink:title=" ">
<polygon fill="white" stroke="black" points="280,-446.5 280,-476.5 398,-476.5 398,-446.5 280,-446.5"/>
<text text-anchor="start" x="288" y="-464.5" font-family="Helvetica,sans-Serif" font-size="10.00">C:/projects/ndt/sources</text>
<text text-anchor="middle" x="339" y="-453.5" font-family="Helvetica,sans-Serif" font-size="10.00">/include/ndt/address.h</text>
</a>
</g>
</g>
<!-- Node1&#45;&gt;Node2 -->
<g id="edge1" class="edge"><title>Node1&#45;&gt;Node2</title>
<path fill="none" stroke="midnightblue" d="M440.87,-509.131C418.307,-498.802 390.579,-486.11 369.752,-476.577"/>
<polygon fill="midnightblue" stroke="midnightblue" points="439.639,-512.416 450.188,-513.396 442.552,-506.051 439.639,-512.416"/>
</g>
<!-- Node3 -->
<g id="node3" class="node"><title>Node3</title>
<g id="a_node3"><a xlink:href="core_8h.html" target="_top" xlink:title=" ">
<polygon fill="white" stroke="black" points="98,-0.5 98,-30.5 216,-30.5 216,-0.5 98,-0.5"/>
<text text-anchor="start" x="106" y="-18.5" font-family="Helvetica,sans-Serif" font-size="10.00">C:/projects/ndt/sources</text>
<text text-anchor="middle" x="157" y="-7.5" font-family="Helvetica,sans-Serif" font-size="10.00">/include/ndt/core.h</text>
</a>
</g>
</g>
<!-- Node1&#45;&gt;Node3 -->
<g id="edge20" class="edge"><title>Node1&#45;&gt;Node3</title>
<path fill="none" stroke="midnightblue" d="M530.346,-509.458C575.722,-489.311 636,-451.927 636,-395.5 636,-395.5 636,-395.5 636,-165 636,-78.0444 344.372,-36.3763 216.215,-22.2634"/>
<polygon fill="midnightblue" stroke="midnightblue" points="528.731,-506.342 520.916,-513.497 531.487,-512.777 528.731,-506.342"/>
</g>
<!-- Node4 -->
<g id="node4" class="node"><title>Node4</title>
<g id="a_node4"><a xlink:href="socket_8h.html" target="_top" xlink:title=" ">
<polygon fill="white" stroke="black" points="335,-379.5 335,-409.5 453,-409.5 453,-379.5 335,-379.5"/>
<text text-anchor="start" x="343" y="-397.5" font-family="Helvetica,sans-Serif" font-size="10.00">C:/projects/ndt/sources</text>
<text text-anchor="middle" x="394" y="-386.5" font-family="Helvetica,sans-Serif" font-size="10.00">/include/ndt/socket.h</text>
</a>
</g>
</g>
<!-- Node1&#45;&gt;Node4 -->
<g id="edge21" class="edge"><title>Node1&#45;&gt;Node4</title>
<path fill="none" stroke="midnightblue" d="M466.061,-504.834C448.023,-477.466 418.244,-432.284 403.244,-409.525"/>
<polygon fill="midnightblue" stroke="midnightblue" points="463.264,-506.95 471.689,-513.374 469.109,-503.098 463.264,-506.95"/>
</g>
<!-- Node14 -->
<g id="node14" class="node"><title>Node14</title>
<g id="a_node14"><a xlink:href="exception_8cpp.html" target="_top" xlink:title=" ">
<polygon fill="white" stroke="black" points="664,-446.5 664,-476.5 782,-476.5 782,-446.5 664,-446.5"/>
<text text-anchor="start" x="672" y="-464.5" font-family="Helvetica,sans-Serif" font-size="10.00">C:/projects/ndt/sources</text>
<text text-anchor="middle" x="723" y="-453.5" font-family="Helvetica,sans-Serif" font-size="10.00">/src/exception.cpp</text>
</a>
</g>
</g>
<!-- Node1&#45;&gt;Node14 -->
<g id="edge22" class="edge"><title>Node1&#45;&gt;Node14</title>
<path fill="none" stroke="midnightblue" d="M542.99,-510.85C582.445,-500.252 632.985,-486.677 670.464,-476.611"/>
<polygon fill="midnightblue" stroke="midnightblue" points="541.962,-507.502 533.212,-513.476 543.778,-514.262 541.962,-507.502"/>
</g>
<!-- Node2&#45;&gt;Node3 -->
<g id="edge2" class="edge"><title>Node2&#45;&gt;Node3</title>
<path fill="none" stroke="midnightblue" d="M270.002,-447.077C170.886,-425.79 0,-380.718 0,-323 0,-323 0,-323 0,-165 0,-115.693 16.452,-101.169 52,-67 68.9895,-50.6693 92.261,-38.7438 112.578,-30.596"/>
<polygon fill="midnightblue" stroke="midnightblue" points="269.442,-450.536 279.951,-449.186 270.894,-443.689 269.442,-450.536"/>
</g>
<!-- Node2&#45;&gt;Node4 -->
<g id="edge3" class="edge"><title>Node2&#45;&gt;Node4</title>
<path fill="none" stroke="midnightblue" d="M357.416,-438.736C365.553,-429.119 374.886,-418.089 382.089,-409.577"/>
<polygon fill="midnightblue" stroke="midnightblue" points="354.722,-436.501 350.934,-446.396 360.065,-441.023 354.722,-436.501"/>
</g>
<!-- Node13 -->
<g id="node13" class="node"><title>Node13</title>
<g id="a_node13"><a xlink:href="address_8cpp.html" target="_top" xlink:title=" ">
<polygon fill="white" stroke="black" points="199,-379.5 199,-409.5 317,-409.5 317,-379.5 199,-379.5"/>
<text text-anchor="start" x="207" y="-397.5" font-family="Helvetica,sans-Serif" font-size="10.00">C:/projects/ndt/sources</text>
<text text-anchor="middle" x="258" y="-386.5" font-family="Helvetica,sans-Serif" font-size="10.00">/src/address.cpp</text>
</a>
</g>
</g>
<!-- Node2&#45;&gt;Node13 -->
<g id="edge19" class="edge"><title>Node2&#45;&gt;Node13</title>
<path fill="none" stroke="midnightblue" d="M313.308,-439.883C300.999,-430.005 286.573,-418.429 275.541,-409.577"/>
<polygon fill="midnightblue" stroke="midnightblue" points="311.434,-442.867 321.424,-446.396 315.815,-437.407 311.434,-442.867"/>
</g>
<!-- Node4&#45;&gt;Node3 -->
<g id="edge4" class="edge"><title>Node4&#45;&gt;Node3</title>
<path fill="none" stroke="midnightblue" d="M338.536,-376.375C238.465,-344.676 38,-277.161 38,-245 38,-245 38,-245 38,-165 38,-104.045 99.8101,-53.8182 134.337,-30.5166"/>
<polygon fill="midnightblue" stroke="midnightblue" points="337.598,-379.749 348.188,-379.42 339.704,-373.073 337.598,-379.749"/>
</g>
<!-- Node5 -->
<g id="node5" class="node"><title>Node5</title>
<g id="a_node5"><a xlink:href="executor__select__base_8h.html" target="_top" xlink:title=" ">
<polygon fill="white" stroke="black" points="267,-301.5 267,-342.5 385,-342.5 385,-301.5 267,-301.5"/>
<text text-anchor="start" x="275" y="-330.5" font-family="Helvetica,sans-Serif" font-size="10.00">C:/projects/ndt/sources</text>
<text text-anchor="start" x="275" y="-319.5" font-family="Helvetica,sans-Serif" font-size="10.00">/include/ndt/executor</text>
<text text-anchor="middle" x="326" y="-308.5" font-family="Helvetica,sans-Serif" font-size="10.00">_select_base.h</text>
</a>
</g>
</g>
<!-- Node4&#45;&gt;Node5 -->
<g id="edge5" class="edge"><title>Node4&#45;&gt;Node5</title>
<path fill="none" stroke="midnightblue" d="M373.09,-371.821C364.094,-362.494 353.654,-351.671 344.894,-342.588"/>
<polygon fill="midnightblue" stroke="midnightblue" points="370.778,-374.466 380.239,-379.233 375.816,-369.606 370.778,-374.466"/>
</g>
<!-- Node11 -->
<g id="node11" class="node"><title>Node11</title>
<g id="a_node11"><a xlink:href="udp_8h.html" target="_top" xlink:title=" ">
<polygon fill="white" stroke="black" points="403,-307 403,-337 521,-337 521,-307 403,-307"/>
<text text-anchor="start" x="411" y="-325" font-family="Helvetica,sans-Serif" font-size="10.00">C:/projects/ndt/sources</text>
<text text-anchor="middle" x="462" y="-314" font-family="Helvetica,sans-Serif" font-size="10.00">/include/ndt/udp.h</text>
</a>
</g>
</g>
<!-- Node4&#45;&gt;Node11 -->
<g id="edge16" class="edge"><title>Node4&#45;&gt;Node11</title>
<path fill="none" stroke="midnightblue" d="M414.869,-371.864C425.72,-360.614 438.679,-347.179 448.26,-337.246"/>
<polygon fill="midnightblue" stroke="midnightblue" points="412.184,-369.606 407.761,-379.233 417.222,-374.466 412.184,-369.606"/>
</g>
<!-- Node5&#45;&gt;Node3 -->
<g id="edge6" class="edge"><title>Node5&#45;&gt;Node3</title>
<path fill="none" stroke="midnightblue" d="M256.6,-313.582C196.054,-305.509 114.866,-290.257 95,-265 37.2726,-191.606 115.975,-71.4053 146.122,-30.5778"/>
<polygon fill="midnightblue" stroke="midnightblue" points="256.519,-317.1 266.885,-314.911 257.416,-310.158 256.519,-317.1"/>
</g>
<!-- Node6 -->
<g id="node6" class="node"><title>Node6</title>
<g id="a_node6"><a xlink:href="nix_2executor__select__impl_8h.html" target="_top" xlink:title=" ">
<polygon fill="white" stroke="black" points="104,-223.5 104,-264.5 240,-264.5 240,-223.5 104,-223.5"/>
<text text-anchor="start" x="112" y="-252.5" font-family="Helvetica,sans-Serif" font-size="10.00">C:/projects/ndt/sources</text>
<text text-anchor="start" x="112" y="-241.5" font-family="Helvetica,sans-Serif" font-size="10.00">/include/ndt/platform</text>
<text text-anchor="middle" x="172" y="-230.5" font-family="Helvetica,sans-Serif" font-size="10.00">/nix/executor_select_impl.h</text>
</a>
</g>
</g>
<!-- Node5&#45;&gt;Node6 -->
<g id="edge7" class="edge"><title>Node5&#45;&gt;Node6</title>
<path fill="none" stroke="midnightblue" d="M277.182,-296.908C256.007,-286.458 231.533,-274.38 211.524,-264.506"/>
<polygon fill="midnightblue" stroke="midnightblue" points="275.825,-300.141 286.341,-301.428 278.923,-293.864 275.825,-300.141"/>
</g>
<!-- Node10 -->
<g id="node10" class="node"><title>Node10</title>
<g id="a_node10"><a xlink:href="win_2executor__select__impl_8h.html" target="_top" xlink:title=" ">
<polygon fill="white" stroke="black" points="258.5,-223.5 258.5,-264.5 395.5,-264.5 395.5,-223.5 258.5,-223.5"/>
<text text-anchor="start" x="266.5" y="-252.5" font-family="Helvetica,sans-Serif" font-size="10.00">C:/projects/ndt/sources</text>
<text text-anchor="start" x="266.5" y="-241.5" font-family="Helvetica,sans-Serif" font-size="10.00">/include/ndt/platform</text>
<text text-anchor="middle" x="327" y="-230.5" font-family="Helvetica,sans-Serif" font-size="10.00">/win/executor_select_impl.h</text>
</a>
</g>
</g>
<!-- Node5&#45;&gt;Node10 -->
<g id="edge15" class="edge"><title>Node5&#45;&gt;Node10</title>
<path fill="none" stroke="midnightblue" d="M326.391,-291.297C326.509,-282.301 326.636,-272.653 326.743,-264.506"/>
<polygon fill="midnightblue" stroke="midnightblue" points="322.889,-291.383 326.258,-301.428 329.889,-291.475 322.889,-291.383"/>
</g>
<!-- Node7 -->
<g id="node7" class="node"><title>Node7</title>
<g id="a_node7"><a xlink:href="executor__select_8h.html" target="_top" xlink:title=" ">
<polygon fill="white" stroke="black" points="127,-145.5 127,-186.5 245,-186.5 245,-145.5 127,-145.5"/>
<text text-anchor="start" x="135" y="-174.5" font-family="Helvetica,sans-Serif" font-size="10.00">C:/projects/ndt/sources</text>
<text text-anchor="start" x="135" y="-163.5" font-family="Helvetica,sans-Serif" font-size="10.00">/include/ndt/executor</text>
<text text-anchor="middle" x="186" y="-152.5" font-family="Helvetica,sans-Serif" font-size="10.00">_select.h</text>
</a>
</g>
</g>
<!-- Node6&#45;&gt;Node7 -->
<g id="edge8" class="edge"><title>Node6&#45;&gt;Node7</title>
<path fill="none" stroke="midnightblue" d="M177.418,-213.59C179.09,-204.511 180.89,-194.742 182.407,-186.506"/>
<polygon fill="midnightblue" stroke="midnightblue" points="173.975,-212.959 175.605,-223.428 180.859,-214.228 173.975,-212.959"/>
</g>
<!-- Node7&#45;&gt;Node3 -->
<g id="edge11" class="edge"><title>Node7&#45;&gt;Node3</title>
<path fill="none" stroke="midnightblue" d="M152.946,-138.268C144.878,-129.844 137.328,-119.869 133,-109 122.321,-82.18 137.246,-49.0858 147.903,-30.6365"/>
<polygon fill="midnightblue" stroke="midnightblue" points="150.501,-140.773 160.101,-145.256 155.392,-135.765 150.501,-140.773"/>
</g>
<!-- Node8 -->
<g id="node8" class="node"><title>Node8</title>
<g id="a_node8"><a xlink:href="context_8h.html" target="_top" xlink:title=" ">
<polygon fill="white" stroke="black" points="142,-73 142,-103 260,-103 260,-73 142,-73"/>
<text text-anchor="start" x="150" y="-91" font-family="Helvetica,sans-Serif" font-size="10.00">C:/projects/ndt/sources</text>
<text text-anchor="middle" x="201" y="-80" font-family="Helvetica,sans-Serif" font-size="10.00">/include/ndt/context.h</text>
</a>
</g>
</g>
<!-- Node7&#45;&gt;Node8 -->
<g id="edge9" class="edge"><title>Node7&#45;&gt;Node8</title>
<path fill="none" stroke="midnightblue" d="M191.865,-135.283C194.042,-124.254 196.412,-112.246 198.192,-103.225"/>
<polygon fill="midnightblue" stroke="midnightblue" points="188.366,-134.94 189.863,-145.428 195.233,-136.295 188.366,-134.94"/>
</g>
<!-- Node9 -->
<g id="node9" class="node"><title>Node9</title>
<g id="a_node9"><a xlink:href="event__handler__select_8h.html" target="_top" xlink:title=" ">
<polygon fill="white" stroke="black" points="278.5,-67.5 278.5,-108.5 407.5,-108.5 407.5,-67.5 278.5,-67.5"/>
<text text-anchor="start" x="286.5" y="-96.5" font-family="Helvetica,sans-Serif" font-size="10.00">C:/projects/ndt/sources</text>
<text text-anchor="start" x="286.5" y="-85.5" font-family="Helvetica,sans-Serif" font-size="10.00">/include/ndt/event_handler</text>
<text text-anchor="middle" x="343" y="-74.5" font-family="Helvetica,sans-Serif" font-size="10.00">_select.h</text>
</a>
</g>
</g>
<!-- Node7&#45;&gt;Node9 -->
<g id="edge12" class="edge"><title>Node7&#45;&gt;Node9</title>
<path fill="none" stroke="midnightblue" d="M235.478,-141.049C257.132,-130.566 282.215,-118.424 302.706,-108.506"/>
<polygon fill="midnightblue" stroke="midnightblue" points="233.907,-137.921 226.431,-145.428 236.957,-144.221 233.907,-137.921"/>
</g>
<!-- Node8&#45;&gt;Node3 -->
<g id="edge10" class="edge"><title>Node8&#45;&gt;Node3</title>
<path fill="none" stroke="midnightblue" d="M186.681,-64.0566C179.834,-53.0859 171.852,-40.2965 165.891,-30.7455"/>
<polygon fill="midnightblue" stroke="midnightblue" points="183.832,-66.103 192.096,-72.7333 189.77,-62.3968 183.832,-66.103"/>
</g>
<!-- Node9&#45;&gt;Node3 -->
<g id="edge13" class="edge"><title>Node9&#45;&gt;Node3</title>
<path fill="none" stroke="midnightblue" d="M281.574,-63.7174C252.642,-52.7515 219.085,-40.0323 194.094,-30.5597"/>
<polygon fill="midnightblue" stroke="midnightblue" points="280.597,-67.0903 291.189,-67.3618 283.078,-60.5447 280.597,-67.0903"/>
</g>
<!-- Node9&#45;&gt;Node5 -->
<g id="edge14" class="edge"><title>Node9&#45;&gt;Node5</title>
<path fill="none" stroke="midnightblue" d="M366.077,-116.734C392.652,-152.259 429.558,-215.189 404,-265 396.162,-280.277 382.004,-292.326 367.881,-301.272"/>
<polygon fill="midnightblue" stroke="midnightblue" points="368.796,-114.528 359.922,-108.739 363.249,-118.798 368.796,-114.528"/>
</g>
<!-- Node11&#45;&gt;Node3 -->
<g id="edge17" class="edge"><title>Node11&#45;&gt;Node3</title>
<path fill="none" stroke="midnightblue" d="M465.673,-296.791C471.819,-246.43 478.02,-129.857 416,-67 388.69,-39.3219 283.72,-26.1458 216.088,-20.409"/>
<polygon fill="midnightblue" stroke="midnightblue" points="462.196,-296.385 464.348,-306.759 469.135,-297.308 462.196,-296.385"/>
</g>
<!-- Node12 -->
<g id="node12" class="node"><title>Node12</title>
<g id="a_node12"><a xlink:href="udp_8cpp.html" target="_top" xlink:title=" ">
<polygon fill="white" stroke="black" points="490,-229 490,-259 608,-259 608,-229 490,-229"/>
<text text-anchor="start" x="498" y="-247" font-family="Helvetica,sans-Serif" font-size="10.00">C:/projects/ndt/sources</text>
<text text-anchor="middle" x="549" y="-236" font-family="Helvetica,sans-Serif" font-size="10.00">/src/udp.cpp</text>
</a>
</g>
</g>
<!-- Node11&#45;&gt;Node12 -->
<g id="edge18" class="edge"><title>Node11&#45;&gt;Node12</title>
<path fill="none" stroke="midnightblue" d="M486.161,-299.894C500.999,-286.932 519.606,-270.678 532.709,-259.231"/>
<polygon fill="midnightblue" stroke="midnightblue" points="483.593,-297.49 478.364,-306.705 488.198,-302.762 483.593,-297.49"/>
</g>
</g>
</svg>
