<?xml version="1.0" encoding="UTF-8" standalone="no"?>
<!DOCTYPE svg PUBLIC "-//W3C//DTD SVG 1.1//EN"
 "http://www.w3.org/Graphics/SVG/1.1/DTD/svg11.dtd">
<!-- Generated by graphviz version 2.38.0 (20140413.2041)
 -->
<!-- Title: C:/projects/ndt/sources/src/exception.cpp Pages: 1 -->
<svg width="660pt" height="207pt"
 viewBox="0.00 0.00 660.00 207.00" xmlns="http://www.w3.org/2000/svg" xmlns:xlink="http://www.w3.org/1999/xlink">
<g id="graph0" class="graph" transform="scale(1 1) rotate(0) translate(4 203)">
<title>C:/projects/ndt/sources/src/exception.cpp</title>
<polygon fill="white" stroke="none" points="-4,4 -4,-203 656,-203 656,4 -4,4"/>
<!-- Node1 -->
<g id="node1" class="node"><title>Node1</title>
<g id="a_node1"><a xlink:title=" ">
<polygon fill="#bfbfbf" stroke="black" points="204,-168.5 204,-198.5 322,-198.5 322,-168.5 204,-168.5"/>
<text text-anchor="start" x="212" y="-186.5" font-family="Helvetica,sans-Serif" font-size="10.00">C:/projects/ndt/sources</text>
<text text-anchor="middle" x="263" y="-175.5" font-family="Helvetica,sans-Serif" font-size="10.00">/src/exception.cpp</text>
</a>
</g>
</g>
<!-- Node2 -->
<g id="node2" class="node"><title>Node2</title>
<g id="a_node2"><a xlink:href="exception_8h.html" target="_top" xlink:title=" ">
<polygon fill="white" stroke="black" points="221.5,-112.5 221.5,-131.5 304.5,-131.5 304.5,-112.5 221.5,-112.5"/>
<text text-anchor="middle" x="263" y="-119.5" font-family="Helvetica,sans-Serif" font-size="10.00">ndt/exception.h</text>
</a>
</g>
</g>
<!-- Node1&#45;&gt;Node2 -->
<g id="edge1" class="edge"><title>Node1&#45;&gt;Node2</title>
<path fill="none" stroke="midnightblue" d="M263,-168.399C263,-160.466 263,-150.458 263,-141.858"/>
<polygon fill="midnightblue" stroke="midnightblue" points="266.5,-141.658 263,-131.658 259.5,-141.658 266.5,-141.658"/>
</g>
<!-- Node3 -->
<g id="node3" class="node"><title>Node3</title>
<g id="a_node3"><a xlink:title=" ">
<polygon fill="white" stroke="#bfbfbf" points="183,-56.5 183,-75.5 257,-75.5 257,-56.5 183,-56.5"/>
<text text-anchor="middle" x="220" y="-63.5" font-family="Helvetica,sans-Serif" font-size="10.00">system_error</text>
</a>
</g>
</g>
<!-- Node2&#45;&gt;Node3 -->
<g id="edge2" class="edge"><title>Node2&#45;&gt;Node3</title>
<path fill="none" stroke="midnightblue" d="M255.899,-112.083C249.763,-104.377 240.73,-93.0333 233.261,-83.6531"/>
<polygon fill="midnightblue" stroke="midnightblue" points="235.936,-81.3936 226.968,-75.7511 230.46,-85.7542 235.936,-81.3936"/>
</g>
<!-- Node4 -->
<g id="node4" class="node"><title>Node4</title>
<g id="a_node4"><a xlink:href="common_8h.html" target="_top" xlink:title="Header with typedefs to make type designation platform independent.">
<polygon fill="white" stroke="black" points="275,-56.5 275,-75.5 337,-75.5 337,-56.5 275,-56.5"/>
<text text-anchor="middle" x="306" y="-63.5" font-family="Helvetica,sans-Serif" font-size="10.00">common.h</text>
</a>
</g>
</g>
<!-- Node2&#45;&gt;Node4 -->
<g id="edge3" class="edge"><title>Node2&#45;&gt;Node4</title>
<path fill="none" stroke="midnightblue" d="M270.101,-112.083C276.237,-104.377 285.27,-93.0333 292.739,-83.6531"/>
<polygon fill="midnightblue" stroke="midnightblue" points="295.54,-85.7542 299.032,-75.7511 290.064,-81.3936 295.54,-85.7542"/>
</g>
<!-- Node5 -->
<g id="node5" class="node"><title>Node5</title>
<g id="a_node5"><a xlink:title=" ">
<polygon fill="white" stroke="#bfbfbf" points="0,-0.5 0,-19.5 62,-19.5 62,-0.5 0,-0.5"/>
<text text-anchor="middle" x="31" y="-7.5" font-family="Helvetica,sans-Serif" font-size="10.00">arpa/inet.h</text>
</a>
</g>
</g>
<!-- Node4&#45;&gt;Node5 -->
<g id="edge4" class="edge"><title>Node4&#45;&gt;Node5</title>
<path fill="none" stroke="midnightblue" d="M274.582,-57.8102C271.684,-57.1834 268.789,-56.5711 266,-56 182.779,-38.9624 159.037,-37.7453 72.4296,-20.23"/>
<polygon fill="midnightblue" stroke="midnightblue" points="72.9156,-16.7572 62.4181,-18.1898 71.5178,-23.6163 72.9156,-16.7572"/>
</g>
<!-- Node6 -->
<g id="node6" class="node"><title>Node6</title>
<g id="a_node6"><a xlink:title=" ">
<polygon fill="white" stroke="#bfbfbf" points="80.5,-0.5 80.5,-19.5 127.5,-19.5 127.5,-0.5 80.5,-0.5"/>
<text text-anchor="middle" x="104" y="-7.5" font-family="Helvetica,sans-Serif" font-size="10.00">errno.h</text>
</a>
</g>
</g>
<!-- Node4&#45;&gt;Node6 -->
<g id="edge5" class="edge"><title>Node4&#45;&gt;Node6</title>
<path fill="none" stroke="midnightblue" d="M274.94,-56.9316C242.827,-48.5559 190.98,-34.9401 137.713,-20.4413"/>
<polygon fill="midnightblue" stroke="midnightblue" points="138.323,-16.9799 127.754,-17.7248 136.481,-23.7332 138.323,-16.9799"/>
</g>
<!-- Node7 -->
<g id="node7" class="node"><title>Node7</title>
<g id="a_node7"><a xlink:title=" ">
<polygon fill="white" stroke="#bfbfbf" points="145.5,-0.5 145.5,-19.5 188.5,-19.5 188.5,-0.5 145.5,-0.5"/>
<text text-anchor="middle" x="167" y="-7.5" font-family="Helvetica,sans-Serif" font-size="10.00">fcntl.h</text>
</a>
</g>
</g>
<!-- Node4&#45;&gt;Node7 -->
<g id="edge6" class="edge"><title>Node4&#45;&gt;Node7</title>
<path fill="none" stroke="midnightblue" d="M283.975,-56.4435C260.896,-47.4776 224.438,-33.314 198.359,-23.1827"/>
<polygon fill="midnightblue" stroke="midnightblue" points="199.511,-19.8753 188.922,-19.5164 196.976,-26.4002 199.511,-19.8753"/>
</g>
<!-- Node8 -->
<g id="node8" class="node"><title>Node8</title>
<g id="a_node8"><a xlink:title=" ">
<polygon fill="white" stroke="#bfbfbf" points="206.5,-0.5 206.5,-19.5 255.5,-19.5 255.5,-0.5 206.5,-0.5"/>
<text text-anchor="middle" x="231" y="-7.5" font-family="Helvetica,sans-Serif" font-size="10.00">netdb.h</text>
</a>
</g>
</g>
<!-- Node4&#45;&gt;Node8 -->
<g id="edge7" class="edge"><title>Node4&#45;&gt;Node8</title>
<path fill="none" stroke="midnightblue" d="M293.95,-56.324C282.537,-48.1066 265.169,-35.6017 251.565,-25.8069"/>
<polygon fill="midnightblue" stroke="midnightblue" points="253.43,-22.8366 243.269,-19.8339 249.34,-28.5174 253.43,-22.8366"/>
</g>
<!-- Node9 -->
<g id="node9" class="node"><title>Node9</title>
<g id="a_node9"><a xlink:title=" ">
<polygon fill="white" stroke="#bfbfbf" points="273.5,-0.5 273.5,-19.5 338.5,-19.5 338.5,-0.5 273.5,-0.5"/>
<text text-anchor="middle" x="306" y="-7.5" font-family="Helvetica,sans-Serif" font-size="10.00">netinet/in.h</text>
</a>
</g>
</g>
<!-- Node4&#45;&gt;Node9 -->
<g id="edge8" class="edge"><title>Node4&#45;&gt;Node9</title>
<path fill="none" stroke="midnightblue" d="M306,-56.083C306,-49.0059 306,-38.8611 306,-29.9865"/>
<polygon fill="midnightblue" stroke="midnightblue" points="309.5,-29.751 306,-19.7511 302.5,-29.7511 309.5,-29.751"/>
</g>
<!-- Node10 -->
<g id="node10" class="node"><title>Node10</title>
<g id="a_node10"><a xlink:title=" ">
<polygon fill="white" stroke="#bfbfbf" points="356.5,-0.5 356.5,-19.5 429.5,-19.5 429.5,-0.5 356.5,-0.5"/>
<text text-anchor="middle" x="393" y="-7.5" font-family="Helvetica,sans-Serif" font-size="10.00">sys/socket.h</text>
</a>
</g>
</g>
<!-- Node4&#45;&gt;Node10 -->
<g id="edge9" class="edge"><title>Node4&#45;&gt;Node10</title>
<path fill="none" stroke="midnightblue" d="M319.978,-56.324C333.55,-47.9002 354.38,-34.9709 370.325,-25.0741"/>
<polygon fill="midnightblue" stroke="midnightblue" points="372.406,-27.9019 379.057,-19.6545 368.714,-21.9544 372.406,-27.9019"/>
</g>
<!-- Node11 -->
<g id="node11" class="node"><title>Node11</title>
<g id="a_node11"><a xlink:title=" ">
<polygon fill="white" stroke="#bfbfbf" points="448,-0.5 448,-19.5 516,-19.5 516,-0.5 448,-0.5"/>
<text text-anchor="middle" x="482" y="-7.5" font-family="Helvetica,sans-Serif" font-size="10.00">sys/types.h</text>
</a>
</g>
</g>
<!-- Node4&#45;&gt;Node11 -->
<g id="edge10" class="edge"><title>Node4&#45;&gt;Node11</title>
<path fill="none" stroke="midnightblue" d="M333.888,-56.4435C363.754,-47.2801 411.315,-32.6876 444.456,-22.5192"/>
<polygon fill="midnightblue" stroke="midnightblue" points="445.709,-25.7958 454.243,-19.5164 443.656,-19.1037 445.709,-25.7958"/>
</g>
<!-- Node12 -->
<g id="node12" class="node"><title>Node12</title>
<g id="a_node12"><a xlink:title=" ">
<polygon fill="white" stroke="#bfbfbf" points="534.5,-0.5 534.5,-19.5 585.5,-19.5 585.5,-0.5 534.5,-0.5"/>
<text text-anchor="middle" x="560" y="-7.5" font-family="Helvetica,sans-Serif" font-size="10.00">unistd.h</text>
</a>
</g>
</g>
<!-- Node4&#45;&gt;Node12 -->
<g id="edge11" class="edge"><title>Node4&#45;&gt;Node12</title>
<path fill="none" stroke="midnightblue" d="M337.294,-59.0707C378.058,-51.2376 451.756,-36.7047 524.616,-19.9951"/>
<polygon fill="midnightblue" stroke="midnightblue" points="525.465,-23.3912 534.421,-17.7316 523.89,-16.5706 525.465,-23.3912"/>
</g>
<!-- Node13 -->
<g id="node13" class="node"><title>Node13</title>
<g id="a_node13"><a xlink:title=" ">
<polygon fill="white" stroke="#bfbfbf" points="604,-0.5 604,-19.5 652,-19.5 652,-0.5 604,-0.5"/>
<text text-anchor="middle" x="628" y="-7.5" font-family="Helvetica,sans-Serif" font-size="10.00">cstddef</text>
</a>
</g>
</g>
<!-- Node4&#45;&gt;Node13 -->
<g id="edge12" class="edge"><title>Node4&#45;&gt;Node13</title>
<path fill="none" stroke="midnightblue" d="M337.003,-61.3288C388.427,-54.9903 494.748,-40.8324 594.033,-20.0028"/>
<polygon fill="midnightblue" stroke="midnightblue" points="594.872,-23.4027 603.926,-17.8997 593.416,-16.5557 594.872,-23.4027"/>
</g>
</g>
</svg>
