<?xml version="1.0" encoding="UTF-8" standalone="no"?>
<!DOCTYPE svg PUBLIC "-//W3C//DTD SVG 1.1//EN"
 "http://www.w3.org/Graphics/SVG/1.1/DTD/svg11.dtd">
<!-- Generated by graphviz version 2.38.0 (20140413.2041)
 -->
<!-- Title: C:/projects/ndt/sources/include/ndt/executor_select.h Pages: 1 -->
<svg width="1375pt" height="520pt"
 viewBox="0.00 0.00 1374.50 520.00" xmlns="http://www.w3.org/2000/svg" xmlns:xlink="http://www.w3.org/1999/xlink">
<g id="graph0" class="graph" transform="scale(1 1) rotate(0) translate(4 516)">
<title>C:/projects/ndt/sources/include/ndt/executor_select.h</title>
<polygon fill="white" stroke="none" points="-4,4 -4,-516 1370.5,-516 1370.5,4 -4,4"/>
<!-- Node1 -->
<g id="node1" class="node"><title>Node1</title>
<g id="a_node1"><a xlink:title=" ">
<polygon fill="#bfbfbf" stroke="black" points="554,-470.5 554,-511.5 672,-511.5 672,-470.5 554,-470.5"/>
<text text-anchor="start" x="562" y="-499.5" font-family="Helvetica,sans-Serif" font-size="10.00">C:/projects/ndt/sources</text>
<text text-anchor="start" x="562" y="-488.5" font-family="Helvetica,sans-Serif" font-size="10.00">/include/ndt/executor</text>
<text text-anchor="middle" x="613" y="-477.5" font-family="Helvetica,sans-Serif" font-size="10.00">_select.h</text>
</a>
</g>
</g>
<!-- Node2 -->
<g id="node2" class="node"><title>Node2</title>
<g id="a_node2"><a xlink:href="nix_2executor__select__impl_8h.html" target="_top" xlink:title=" ">
<polygon fill="white" stroke="black" points="615.5,-403.5 615.5,-433.5 722.5,-433.5 722.5,-403.5 615.5,-403.5"/>
<text text-anchor="start" x="623.5" y="-421.5" font-family="Helvetica,sans-Serif" font-size="10.00">platform/nix/executor</text>
<text text-anchor="middle" x="669" y="-410.5" font-family="Helvetica,sans-Serif" font-size="10.00">_select_impl.h</text>
</a>
</g>
</g>
<!-- Node1&#45;&gt;Node2 -->
<g id="edge1" class="edge"><title>Node1&#45;&gt;Node2</title>
<path fill="none" stroke="midnightblue" d="M628.599,-470.362C635.636,-461.503 643.983,-450.995 651.257,-441.837"/>
<polygon fill="midnightblue" stroke="midnightblue" points="654.089,-443.899 657.568,-433.892 648.608,-439.545 654.089,-443.899"/>
</g>
<!-- Node3 -->
<g id="node3" class="node"><title>Node3</title>
<g id="a_node3"><a xlink:href="common_8h.html" target="_top" xlink:title="Header with typedefs to make type designation platform independent.">
<polygon fill="white" stroke="black" points="999,-56.5 999,-75.5 1079,-75.5 1079,-56.5 999,-56.5"/>
<text text-anchor="middle" x="1039" y="-63.5" font-family="Helvetica,sans-Serif" font-size="10.00">../../common.h</text>
</a>
</g>
</g>
<!-- Node2&#45;&gt;Node3 -->
<g id="edge2" class="edge"><title>Node2&#45;&gt;Node3</title>
<path fill="none" stroke="midnightblue" d="M722.847,-416.393C860.594,-412.111 1215,-391.343 1215,-291 1215,-291 1215,-291 1215,-177 1215,-117.253 1141.16,-88.7555 1089.14,-76.0917"/>
<polygon fill="midnightblue" stroke="midnightblue" points="1089.91,-72.6774 1079.38,-73.8363 1088.33,-79.4977 1089.91,-72.6774"/>
</g>
<!-- Node13 -->
<g id="node13" class="node"><title>Node13</title>
<g id="a_node13"><a xlink:href="executor__select__base_8h.html" target="_top" xlink:title=" ">
<polygon fill="white" stroke="black" points="617,-336.5 617,-366.5 721,-366.5 721,-336.5 617,-336.5"/>
<text text-anchor="start" x="625" y="-354.5" font-family="Helvetica,sans-Serif" font-size="10.00">../../executor_select</text>
<text text-anchor="middle" x="669" y="-343.5" font-family="Helvetica,sans-Serif" font-size="10.00">_base.h</text>
</a>
</g>
</g>
<!-- Node2&#45;&gt;Node13 -->
<g id="edge12" class="edge"><title>Node2&#45;&gt;Node13</title>
<path fill="none" stroke="midnightblue" d="M669,-403.396C669,-395.645 669,-385.812 669,-376.86"/>
<polygon fill="midnightblue" stroke="midnightblue" points="672.5,-376.576 669,-366.577 665.5,-376.577 672.5,-376.576"/>
</g>
<!-- Node4 -->
<g id="node4" class="node"><title>Node4</title>
<g id="a_node4"><a xlink:title=" ">
<polygon fill="white" stroke="#bfbfbf" points="1178,-0.5 1178,-19.5 1240,-19.5 1240,-0.5 1178,-0.5"/>
<text text-anchor="middle" x="1209" y="-7.5" font-family="Helvetica,sans-Serif" font-size="10.00">arpa/inet.h</text>
</a>
</g>
</g>
<!-- Node3&#45;&gt;Node4 -->
<g id="edge3" class="edge"><title>Node3&#45;&gt;Node4</title>
<path fill="none" stroke="midnightblue" d="M1065.94,-56.4435C1094.66,-47.3196 1140.33,-32.8133 1172.32,-22.6509"/>
<polygon fill="midnightblue" stroke="midnightblue" points="1173.72,-25.8797 1182.19,-19.5164 1171.6,-19.2081 1173.72,-25.8797"/>
</g>
<!-- Node5 -->
<g id="node5" class="node"><title>Node5</title>
<g id="a_node5"><a xlink:title=" ">
<polygon fill="white" stroke="#bfbfbf" points="1258.5,-0.5 1258.5,-19.5 1305.5,-19.5 1305.5,-0.5 1258.5,-0.5"/>
<text text-anchor="middle" x="1282" y="-7.5" font-family="Helvetica,sans-Serif" font-size="10.00">errno.h</text>
</a>
</g>
</g>
<!-- Node3&#45;&gt;Node5 -->
<g id="edge4" class="edge"><title>Node3&#45;&gt;Node5</title>
<path fill="none" stroke="midnightblue" d="M1079.02,-57.1088C1119.31,-49.0108 1183.48,-35.7041 1248.27,-20.0716"/>
<polygon fill="midnightblue" stroke="midnightblue" points="1249.36,-23.4088 1258.25,-17.6461 1247.7,-16.6068 1249.36,-23.4088"/>
</g>
<!-- Node6 -->
<g id="node6" class="node"><title>Node6</title>
<g id="a_node6"><a xlink:title=" ">
<polygon fill="white" stroke="#bfbfbf" points="1323.5,-0.5 1323.5,-19.5 1366.5,-19.5 1366.5,-0.5 1323.5,-0.5"/>
<text text-anchor="middle" x="1345" y="-7.5" font-family="Helvetica,sans-Serif" font-size="10.00">fcntl.h</text>
</a>
</g>
</g>
<!-- Node3&#45;&gt;Node6 -->
<g id="edge5" class="edge"><title>Node3&#45;&gt;Node6</title>
<path fill="none" stroke="midnightblue" d="M1079.37,-59.9436C1131.29,-53.1009 1224.39,-39.6869 1313.41,-19.8832"/>
<polygon fill="midnightblue" stroke="midnightblue" points="1314.42,-23.2438 1323.41,-17.629 1312.88,-16.4154 1314.42,-23.2438"/>
</g>
<!-- Node7 -->
<g id="node7" class="node"><title>Node7</title>
<g id="a_node7"><a xlink:title=" ">
<polygon fill="white" stroke="#bfbfbf" points="780.5,-0.5 780.5,-19.5 829.5,-19.5 829.5,-0.5 780.5,-0.5"/>
<text text-anchor="middle" x="805" y="-7.5" font-family="Helvetica,sans-Serif" font-size="10.00">netdb.h</text>
</a>
</g>
</g>
<!-- Node3&#45;&gt;Node7 -->
<g id="edge6" class="edge"><title>Node3&#45;&gt;Node7</title>
<path fill="none" stroke="midnightblue" d="M998.83,-56.5755C960.229,-48.3536 900.034,-35.2021 839.542,-20.3091"/>
<polygon fill="midnightblue" stroke="midnightblue" points="840.382,-16.9116 829.834,-17.9044 838.699,-23.7063 840.382,-16.9116"/>
</g>
<!-- Node8 -->
<g id="node8" class="node"><title>Node8</title>
<g id="a_node8"><a xlink:title=" ">
<polygon fill="white" stroke="#bfbfbf" points="847.5,-0.5 847.5,-19.5 912.5,-19.5 912.5,-0.5 847.5,-0.5"/>
<text text-anchor="middle" x="880" y="-7.5" font-family="Helvetica,sans-Serif" font-size="10.00">netinet/in.h</text>
</a>
</g>
</g>
<!-- Node3&#45;&gt;Node8 -->
<g id="edge7" class="edge"><title>Node3&#45;&gt;Node8</title>
<path fill="none" stroke="midnightblue" d="M1013.81,-56.4435C987.057,-47.3591 944.597,-32.9388 914.695,-22.7831"/>
<polygon fill="midnightblue" stroke="midnightblue" points="915.671,-19.4182 905.076,-19.5164 913.419,-26.0464 915.671,-19.4182"/>
</g>
<!-- Node9 -->
<g id="node9" class="node"><title>Node9</title>
<g id="a_node9"><a xlink:title=" ">
<polygon fill="white" stroke="#bfbfbf" points="930.5,-0.5 930.5,-19.5 1003.5,-19.5 1003.5,-0.5 930.5,-0.5"/>
<text text-anchor="middle" x="967" y="-7.5" font-family="Helvetica,sans-Serif" font-size="10.00">sys/socket.h</text>
</a>
</g>
</g>
<!-- Node3&#45;&gt;Node9 -->
<g id="edge8" class="edge"><title>Node3&#45;&gt;Node9</title>
<path fill="none" stroke="midnightblue" d="M1027.43,-56.324C1016.58,-48.1849 1000.12,-35.8395 987.117,-26.0874"/>
<polygon fill="midnightblue" stroke="midnightblue" points="988.879,-23.0339 978.779,-19.8339 984.679,-28.6339 988.879,-23.0339"/>
</g>
<!-- Node10 -->
<g id="node10" class="node"><title>Node10</title>
<g id="a_node10"><a xlink:title=" ">
<polygon fill="white" stroke="#bfbfbf" points="1022,-0.5 1022,-19.5 1090,-19.5 1090,-0.5 1022,-0.5"/>
<text text-anchor="middle" x="1056" y="-7.5" font-family="Helvetica,sans-Serif" font-size="10.00">sys/types.h</text>
</a>
</g>
</g>
<!-- Node3&#45;&gt;Node10 -->
<g id="edge9" class="edge"><title>Node3&#45;&gt;Node10</title>
<path fill="none" stroke="midnightblue" d="M1041.81,-56.083C1044.08,-48.8486 1047.37,-38.4087 1050.21,-29.3968"/>
<polygon fill="midnightblue" stroke="midnightblue" points="1053.58,-30.3406 1053.25,-19.7511 1046.9,-28.2385 1053.58,-30.3406"/>
</g>
<!-- Node11 -->
<g id="node11" class="node"><title>Node11</title>
<g id="a_node11"><a xlink:title=" ">
<polygon fill="white" stroke="#bfbfbf" points="1108.5,-0.5 1108.5,-19.5 1159.5,-19.5 1159.5,-0.5 1108.5,-0.5"/>
<text text-anchor="middle" x="1134" y="-7.5" font-family="Helvetica,sans-Serif" font-size="10.00">unistd.h</text>
</a>
</g>
</g>
<!-- Node3&#45;&gt;Node11 -->
<g id="edge10" class="edge"><title>Node3&#45;&gt;Node11</title>
<path fill="none" stroke="midnightblue" d="M1054.26,-56.324C1069.22,-47.8215 1092.25,-34.7288 1109.73,-24.7975"/>
<polygon fill="midnightblue" stroke="midnightblue" points="1111.81,-27.639 1118.77,-19.6545 1108.35,-21.5534 1111.81,-27.639"/>
</g>
<!-- Node12 -->
<g id="node12" class="node"><title>Node12</title>
<g id="a_node12"><a xlink:title=" ">
<polygon fill="white" stroke="#bfbfbf" points="714,-0.5 714,-19.5 762,-19.5 762,-0.5 714,-0.5"/>
<text text-anchor="middle" x="738" y="-7.5" font-family="Helvetica,sans-Serif" font-size="10.00">cstddef</text>
</a>
</g>
</g>
<!-- Node3&#45;&gt;Node12 -->
<g id="edge11" class="edge"><title>Node3&#45;&gt;Node12</title>
<path fill="none" stroke="midnightblue" d="M998.9,-57.5715C995.889,-57.0331 992.897,-56.5042 990,-56 895.952,-39.6345 869.092,-40.901 772.016,-20.0354"/>
<polygon fill="midnightblue" stroke="midnightblue" points="772.595,-16.5796 762.08,-17.8759 771.108,-23.4199 772.595,-16.5796"/>
</g>
<!-- Node13&#45;&gt;Node3 -->
<g id="edge16" class="edge"><title>Node13&#45;&gt;Node3</title>
<path fill="none" stroke="midnightblue" d="M721.452,-349.613C851.245,-346.002 1177,-327.706 1177,-235 1177,-235 1177,-235 1177,-177 1177,-125.66 1117.87,-94.4014 1077.03,-78.9312"/>
<polygon fill="midnightblue" stroke="midnightblue" points="1078.19,-75.6296 1067.59,-75.5128 1075.8,-82.2108 1078.19,-75.6296"/>
</g>
<!-- Node14 -->
<g id="node14" class="node"><title>Node14</title>
<g id="a_node14"><a xlink:title=" ">
<polygon fill="white" stroke="#bfbfbf" points="0,-56.5 0,-75.5 38,-75.5 38,-56.5 0,-56.5"/>
<text text-anchor="middle" x="19" y="-63.5" font-family="Helvetica,sans-Serif" font-size="10.00">array</text>
</a>
</g>
</g>
<!-- Node13&#45;&gt;Node14 -->
<g id="edge13" class="edge"><title>Node13&#45;&gt;Node14</title>
<path fill="none" stroke="midnightblue" d="M616.582,-349.822C485.146,-346.709 152,-329.499 152,-235 152,-235 152,-235 152,-177 152,-123.248 86.6955,-90.8155 47.6071,-76.2169"/>
<polygon fill="midnightblue" stroke="midnightblue" points="48.6503,-72.873 38.0557,-72.8076 46.2971,-79.4656 48.6503,-72.873"/>
</g>
<!-- Node15 -->
<g id="node15" class="node"><title>Node15</title>
<g id="a_node15"><a xlink:title=" ">
<polygon fill="white" stroke="#bfbfbf" points="523,-224.5 523,-243.5 581,-243.5 581,-224.5 523,-224.5"/>
<text text-anchor="middle" x="552" y="-231.5" font-family="Helvetica,sans-Serif" font-size="10.00">functional</text>
</a>
</g>
</g>
<!-- Node13&#45;&gt;Node15 -->
<g id="edge14" class="edge"><title>Node13&#45;&gt;Node15</title>
<path fill="none" stroke="midnightblue" d="M654.654,-336.337C632.711,-314.676 590.953,-273.453 568.038,-250.832"/>
<polygon fill="midnightblue" stroke="midnightblue" points="570.357,-248.204 560.782,-243.669 565.44,-253.186 570.357,-248.204"/>
</g>
<!-- Node16 -->
<g id="node16" class="node"><title>Node16</title>
<g id="a_node16"><a xlink:title=" ">
<polygon fill="white" stroke="#bfbfbf" points="907,-56.5 907,-75.5 981,-75.5 981,-56.5 907,-56.5"/>
<text text-anchor="middle" x="944" y="-63.5" font-family="Helvetica,sans-Serif" font-size="10.00">system_error</text>
</a>
</g>
</g>
<!-- Node13&#45;&gt;Node16 -->
<g id="edge15" class="edge"><title>Node13&#45;&gt;Node16</title>
<path fill="none" stroke="midnightblue" d="M721.325,-343.79C819.064,-327.913 1024.59,-277.723 1081,-132 1084.21,-123.711 1086.21,-119.2 1081,-112 1070.18,-97.0511 1026.37,-84.3943 991.172,-76.3483"/>
<polygon fill="midnightblue" stroke="midnightblue" points="991.559,-72.8493 981.038,-74.1026 990.044,-79.6835 991.559,-72.8493"/>
</g>
<!-- Node17 -->
<g id="node17" class="node"><title>Node17</title>
<g id="a_node17"><a xlink:href="event__handler__select_8h.html" target="_top" xlink:title=" ">
<polygon fill="white" stroke="black" points="455,-280.5 455,-299.5 571,-299.5 571,-280.5 455,-280.5"/>
<text text-anchor="middle" x="513" y="-287.5" font-family="Helvetica,sans-Serif" font-size="10.00">event_handler_select.h</text>
</a>
</g>
</g>
<!-- Node13&#45;&gt;Node17 -->
<g id="edge17" class="edge"><title>Node13&#45;&gt;Node17</title>
<path fill="none" stroke="midnightblue" d="M632.03,-336.399C605.622,-326.327 570.443,-312.909 545.188,-303.277"/>
<polygon fill="midnightblue" stroke="midnightblue" points="546.29,-299.951 535.699,-299.658 543.796,-306.492 546.29,-299.951"/>
</g>
<!-- Node20 -->
<g id="node20" class="node"><title>Node20</title>
<g id="a_node20"><a xlink:href="socket_8h.html" target="_top" xlink:title=" ">
<polygon fill="white" stroke="black" points="678,-280.5 678,-299.5 732,-299.5 732,-280.5 678,-280.5"/>
<text text-anchor="middle" x="705" y="-287.5" font-family="Helvetica,sans-Serif" font-size="10.00">socket.h</text>
</a>
</g>
</g>
<!-- Node13&#45;&gt;Node20 -->
<g id="edge21" class="edge"><title>Node13&#45;&gt;Node20</title>
<path fill="none" stroke="midnightblue" d="M677.531,-336.399C682.601,-328.021 689.071,-317.327 694.458,-308.423"/>
<polygon fill="midnightblue" stroke="midnightblue" points="697.58,-310.025 699.762,-299.658 691.59,-306.402 697.58,-310.025"/>
</g>
<!-- Node17&#45;&gt;Node1 -->
<g id="edge20" class="edge"><title>Node17&#45;&gt;Node1</title>
<path fill="none" stroke="midnightblue" d="M517.345,-299.647C531.28,-327.378 575.291,-414.96 598.441,-461.028"/>
<polygon fill="midnightblue" stroke="midnightblue" points="595.429,-462.828 603.046,-470.192 601.683,-459.685 595.429,-462.828"/>
</g>
<!-- Node18 -->
<g id="node18" class="node"><title>Node18</title>
<g id="a_node18"><a xlink:title=" ">
<polygon fill="white" stroke="#bfbfbf" points="612,-56.5 612,-75.5 658,-75.5 658,-56.5 612,-56.5"/>
<text text-anchor="middle" x="635" y="-63.5" font-family="Helvetica,sans-Serif" font-size="10.00">cstdint</text>
</a>
</g>
</g>
<!-- Node17&#45;&gt;Node18 -->
<g id="edge18" class="edge"><title>Node17&#45;&gt;Node18</title>
<path fill="none" stroke="midnightblue" d="M510.987,-280.494C508.385,-267.573 505.161,-242.542 514,-224 541.425,-166.468 592.279,-187.279 624,-132 632.1,-117.885 634.595,-99.3977 635.213,-85.7493"/>
<polygon fill="midnightblue" stroke="midnightblue" points="638.715,-85.6788 635.373,-75.6249 631.716,-85.5685 638.715,-85.6788"/>
</g>
<!-- Node19 -->
<g id="node19" class="node"><title>Node19</title>
<g id="a_node19"><a xlink:title=" ">
<polygon fill="white" stroke="#bfbfbf" points="450,-56.5 450,-75.5 512,-75.5 512,-56.5 450,-56.5"/>
<text text-anchor="middle" x="481" y="-63.5" font-family="Helvetica,sans-Serif" font-size="10.00">type_traits</text>
</a>
</g>
</g>
<!-- Node17&#45;&gt;Node19 -->
<g id="edge19" class="edge"><title>Node17&#45;&gt;Node19</title>
<path fill="none" stroke="midnightblue" d="M501.94,-280.479C482.516,-264.728 442.923,-228.907 428,-188 414,-149.623 445.142,-106.071 465.384,-83.1249"/>
<polygon fill="midnightblue" stroke="midnightblue" points="468.06,-85.3849 472.245,-75.6512 462.904,-80.6511 468.06,-85.3849"/>
</g>
<!-- Node20&#45;&gt;Node3 -->
<g id="edge67" class="edge"><title>Node20&#45;&gt;Node3</title>
<path fill="none" stroke="midnightblue" d="M732.3,-287.848C778.888,-285.056 875.981,-275.61 951,-244 1021.28,-214.387 1053.47,-203.12 1081,-132 1088.14,-113.566 1073.2,-94.8516 1059.2,-82.2676"/>
<polygon fill="midnightblue" stroke="midnightblue" points="1061.16,-79.3432 1051.24,-75.6152 1056.67,-84.714 1061.16,-79.3432"/>
</g>
<!-- Node20&#45;&gt;Node15 -->
<g id="edge23" class="edge"><title>Node20&#45;&gt;Node15</title>
<path fill="none" stroke="midnightblue" d="M680.757,-280.444C655.129,-271.399 614.515,-257.064 585.762,-246.916"/>
<polygon fill="midnightblue" stroke="midnightblue" points="586.725,-243.544 576.13,-243.516 584.395,-250.145 586.725,-243.544"/>
</g>
<!-- Node21 -->
<g id="node21" class="node"><title>Node21</title>
<g id="a_node21"><a xlink:title=" ">
<polygon fill="white" stroke="#bfbfbf" points="676.5,-56.5 676.5,-75.5 725.5,-75.5 725.5,-56.5 676.5,-56.5"/>
<text text-anchor="middle" x="701" y="-63.5" font-family="Helvetica,sans-Serif" font-size="10.00">cassert</text>
</a>
</g>
</g>
<!-- Node20&#45;&gt;Node21 -->
<g id="edge22" class="edge"><title>Node20&#45;&gt;Node21</title>
<path fill="none" stroke="midnightblue" d="M691.449,-280.453C668.662,-265.173 623.451,-230.735 606,-188 602.639,-179.771 601.911,-175.892 606,-168 618.764,-143.366 637.575,-151.81 657,-132 670.973,-117.75 683.359,-98.5317 691.4,-84.6928"/>
<polygon fill="midnightblue" stroke="midnightblue" points="694.598,-86.1468 696.449,-75.7148 688.497,-82.7159 694.598,-86.1468"/>
</g>
<!-- Node22 -->
<g id="node22" class="node"><title>Node22</title>
<g id="a_node22"><a xlink:href="address_8h.html" target="_top" xlink:title=" ">
<polygon fill="white" stroke="black" points="675.5,-224.5 675.5,-243.5 734.5,-243.5 734.5,-224.5 675.5,-224.5"/>
<text text-anchor="middle" x="705" y="-231.5" font-family="Helvetica,sans-Serif" font-size="10.00">address.h</text>
</a>
</g>
</g>
<!-- Node20&#45;&gt;Node22 -->
<g id="edge24" class="edge"><title>Node20&#45;&gt;Node22</title>
<path fill="none" stroke="midnightblue" d="M705,-280.083C705,-273.006 705,-262.861 705,-253.986"/>
<polygon fill="midnightblue" stroke="midnightblue" points="708.5,-253.751 705,-243.751 701.5,-253.751 708.5,-253.751"/>
</g>
<!-- Node28 -->
<g id="node28" class="node"><title>Node28</title>
<g id="a_node28"><a xlink:href="buffer_8h.html" target="_top" xlink:title=" ">
<polygon fill="white" stroke="black" points="709,-112.5 709,-131.5 757,-131.5 757,-112.5 709,-112.5"/>
<text text-anchor="middle" x="733" y="-119.5" font-family="Helvetica,sans-Serif" font-size="10.00">buffer.h</text>
</a>
</g>
</g>
<!-- Node20&#45;&gt;Node28 -->
<g id="edge66" class="edge"><title>Node20&#45;&gt;Node28</title>
<path fill="none" stroke="midnightblue" d="M716.63,-280.293C736.61,-264.515 776.774,-229.005 792,-188 795.094,-179.667 795.943,-175.966 792,-168 785.397,-154.659 772.735,-144.194 760.829,-136.726"/>
<polygon fill="midnightblue" stroke="midnightblue" points="762.391,-133.587 751.984,-131.602 758.882,-139.643 762.391,-133.587"/>
</g>
<!-- Node31 -->
<g id="node31" class="node"><title>Node31</title>
<g id="a_node31"><a xlink:href="useful__base__types_8h.html" target="_top" xlink:title=" ">
<polygon fill="white" stroke="black" points="782,-56.5 782,-75.5 888,-75.5 888,-56.5 782,-56.5"/>
<text text-anchor="middle" x="835" y="-63.5" font-family="Helvetica,sans-Serif" font-size="10.00">useful_base_types.h</text>
</a>
</g>
</g>
<!-- Node20&#45;&gt;Node31 -->
<g id="edge69" class="edge"><title>Node20&#45;&gt;Node31</title>
<path fill="none" stroke="midnightblue" d="M724.63,-280.454C740.561,-272.748 762.797,-260.154 778,-244 820.54,-198.8 831.333,-121.656 834.07,-86.0452"/>
<polygon fill="midnightblue" stroke="midnightblue" points="837.588,-85.8673 834.724,-75.667 830.602,-85.4271 837.588,-85.8673"/>
</g>
<!-- Node32 -->
<g id="node32" class="node"><title>Node32</title>
<g id="a_node32"><a xlink:href="utils_8h.html" target="_top" xlink:title=" ">
<polygon fill="white" stroke="black" points="311.5,-112.5 311.5,-131.5 354.5,-131.5 354.5,-112.5 311.5,-112.5"/>
<text text-anchor="middle" x="333" y="-119.5" font-family="Helvetica,sans-Serif" font-size="10.00">utils.h</text>
</a>
</g>
</g>
<!-- Node20&#45;&gt;Node32 -->
<g id="edge70" class="edge"><title>Node20&#45;&gt;Node32</title>
<path fill="none" stroke="midnightblue" d="M691.317,-280.489C665.612,-264.632 610.824,-231.493 590,-224 504.194,-193.124 467.027,-233.506 388,-188 368.454,-176.745 352.67,-155.816 343.106,-140.743"/>
<polygon fill="midnightblue" stroke="midnightblue" points="345.903,-138.603 337.743,-131.844 339.907,-142.216 345.903,-138.603"/>
</g>
<!-- Node37 -->
<g id="node37" class="node"><title>Node37</title>
<g id="a_node37"><a xlink:href="exception_8h.html" target="_top" xlink:title=" ">
<polygon fill="white" stroke="black" points="1005.5,-112.5 1005.5,-131.5 1072.5,-131.5 1072.5,-112.5 1005.5,-112.5"/>
<text text-anchor="middle" x="1039" y="-119.5" font-family="Helvetica,sans-Serif" font-size="10.00">exception.h</text>
</a>
</g>
</g>
<!-- Node20&#45;&gt;Node37 -->
<g id="edge68" class="edge"><title>Node20&#45;&gt;Node37</title>
<path fill="none" stroke="midnightblue" d="M732.209,-287.285C790.247,-282.226 927.456,-262.61 1008,-188 1021.45,-175.542 1029.66,-156.032 1034.22,-141.635"/>
<polygon fill="midnightblue" stroke="midnightblue" points="1037.65,-142.4 1037.03,-131.823 1030.91,-140.476 1037.65,-142.4"/>
</g>
<!-- Node23 -->
<g id="node23" class="node"><title>Node23</title>
<g id="a_node23"><a xlink:title=" ">
<polygon fill="white" stroke="#bfbfbf" points="623.5,-168.5 623.5,-187.5 664.5,-187.5 664.5,-168.5 623.5,-168.5"/>
<text text-anchor="middle" x="644" y="-175.5" font-family="Helvetica,sans-Serif" font-size="10.00">string</text>
</a>
</g>
</g>
<!-- Node22&#45;&gt;Node23 -->
<g id="edge25" class="edge"><title>Node22&#45;&gt;Node23</title>
<path fill="none" stroke="midnightblue" d="M695.199,-224.324C686.182,-216.341 672.594,-204.313 661.682,-194.653"/>
<polygon fill="midnightblue" stroke="midnightblue" points="663.787,-191.842 653.979,-187.834 659.147,-197.083 663.787,-191.842"/>
</g>
<!-- Node24 -->
<g id="node24" class="node"><title>Node24</title>
<g id="a_node24"><a xlink:title=" ">
<polygon fill="white" stroke="#bfbfbf" points="683,-168.5 683,-187.5 727,-187.5 727,-168.5 683,-168.5"/>
<text text-anchor="middle" x="705" y="-175.5" font-family="Helvetica,sans-Serif" font-size="10.00">variant</text>
</a>
</g>
</g>
<!-- Node22&#45;&gt;Node24 -->
<g id="edge26" class="edge"><title>Node22&#45;&gt;Node24</title>
<path fill="none" stroke="midnightblue" d="M705,-224.083C705,-217.006 705,-206.861 705,-197.986"/>
<polygon fill="midnightblue" stroke="midnightblue" points="708.5,-197.751 705,-187.751 701.5,-197.751 708.5,-197.751"/>
</g>
<!-- Node25 -->
<g id="node25" class="node"><title>Node25</title>
<g id="a_node25"><a xlink:href="bin__rw_8h.html" target="_top" xlink:title=" ">
<polygon fill="white" stroke="black" points="437.5,-168.5 437.5,-187.5 490.5,-187.5 490.5,-168.5 437.5,-168.5"/>
<text text-anchor="middle" x="464" y="-175.5" font-family="Helvetica,sans-Serif" font-size="10.00">bin_rw.h</text>
</a>
</g>
</g>
<!-- Node22&#45;&gt;Node25 -->
<g id="edge27" class="edge"><title>Node22&#45;&gt;Node25</title>
<path fill="none" stroke="midnightblue" d="M675.449,-226.379C631.419,-216.513 548.66,-197.969 500.776,-187.24"/>
<polygon fill="midnightblue" stroke="midnightblue" points="501.351,-183.782 490.828,-185.011 499.821,-190.613 501.351,-183.782"/>
</g>
<!-- Node22&#45;&gt;Node28 -->
<g id="edge54" class="edge"><title>Node22&#45;&gt;Node28</title>
<path fill="none" stroke="midnightblue" d="M675.323,-225.294C642.07,-215.14 595.127,-195.314 614,-168 623.998,-153.53 667.614,-139.647 699.149,-131.222"/>
<polygon fill="midnightblue" stroke="midnightblue" points="700.108,-134.589 708.905,-128.684 698.346,-127.814 700.108,-134.589"/>
</g>
<!-- Node22&#45;&gt;Node32 -->
<g id="edge65" class="edge"><title>Node22&#45;&gt;Node32</title>
<path fill="none" stroke="midnightblue" d="M675.214,-229.824C613.283,-222.951 472.67,-205.87 428,-188 398.182,-176.071 368.364,-153.505 350.296,-138.357"/>
<polygon fill="midnightblue" stroke="midnightblue" points="352.289,-135.455 342.422,-131.596 347.729,-140.766 352.289,-135.455"/>
</g>
<!-- Node22&#45;&gt;Node37 -->
<g id="edge55" class="edge"><title>Node22&#45;&gt;Node37</title>
<path fill="none" stroke="midnightblue" d="M734.716,-230.717C797.18,-225.512 939.81,-211.376 982,-188 1002.22,-176.796 1018.74,-155.543 1028.7,-140.389"/>
<polygon fill="midnightblue" stroke="midnightblue" points="1031.68,-142.22 1034.02,-131.887 1025.75,-138.506 1031.68,-142.22"/>
</g>
<!-- Node38 -->
<g id="node38" class="node"><title>Node38</title>
<g id="a_node38"><a xlink:href="sys__socket__ops_8h.html" target="_top" xlink:title=" ">
<polygon fill="white" stroke="black" points="877,-168.5 877,-187.5 973,-187.5 973,-168.5 877,-168.5"/>
<text text-anchor="middle" x="925" y="-175.5" font-family="Helvetica,sans-Serif" font-size="10.00">sys_socket_ops.h</text>
</a>
</g>
</g>
<!-- Node22&#45;&gt;Node38 -->
<g id="edge58" class="edge"><title>Node22&#45;&gt;Node38</title>
<path fill="none" stroke="midnightblue" d="M734.67,-225.717C772.101,-216.53 836.818,-200.645 880.262,-189.981"/>
<polygon fill="midnightblue" stroke="midnightblue" points="881.126,-193.373 890.004,-187.59 879.458,-186.575 881.126,-193.373"/>
</g>
<!-- Node40 -->
<g id="node40" class="node"><title>Node40</title>
<g id="a_node40"><a xlink:href="tag_8h.html" target="_top" xlink:title=" ">
<polygon fill="white" stroke="black" points="745,-168.5 745,-187.5 783,-187.5 783,-168.5 745,-168.5"/>
<text text-anchor="middle" x="764" y="-175.5" font-family="Helvetica,sans-Serif" font-size="10.00">tag.h</text>
</a>
</g>
</g>
<!-- Node22&#45;&gt;Node40 -->
<g id="edge64" class="edge"><title>Node22&#45;&gt;Node40</title>
<path fill="none" stroke="midnightblue" d="M714.479,-224.324C723.201,-216.341 736.343,-204.313 746.898,-194.653"/>
<polygon fill="midnightblue" stroke="midnightblue" points="749.334,-197.167 754.348,-187.834 744.608,-192.004 749.334,-197.167"/>
</g>
<!-- Node25&#45;&gt;Node19 -->
<g id="edge30" class="edge"><title>Node25&#45;&gt;Node19</title>
<path fill="none" stroke="midnightblue" d="M465.334,-168.368C468.077,-150.617 474.406,-109.666 478.126,-85.5974"/>
<polygon fill="midnightblue" stroke="midnightblue" points="481.604,-86.0087 479.672,-75.5914 474.686,-84.9395 481.604,-86.0087"/>
</g>
<!-- Node26 -->
<g id="node26" class="node"><title>Node26</title>
<g id="a_node26"><a xlink:title=" ">
<polygon fill="white" stroke="#bfbfbf" points="559,-112.5 559,-131.5 615,-131.5 615,-112.5 559,-112.5"/>
<text text-anchor="middle" x="587" y="-119.5" font-family="Helvetica,sans-Serif" font-size="10.00">algorithm</text>
</a>
</g>
</g>
<!-- Node25&#45;&gt;Node26 -->
<g id="edge28" class="edge"><title>Node25&#45;&gt;Node26</title>
<path fill="none" stroke="midnightblue" d="M483.49,-168.444C503.642,-159.596 535.323,-145.687 558.331,-135.586"/>
<polygon fill="midnightblue" stroke="midnightblue" points="559.852,-138.741 567.601,-131.516 557.038,-132.332 559.852,-138.741"/>
</g>
<!-- Node27 -->
<g id="node27" class="node"><title>Node27</title>
<g id="a_node27"><a xlink:title=" ">
<polygon fill="white" stroke="#bfbfbf" points="386,-56.5 386,-75.5 432,-75.5 432,-56.5 386,-56.5"/>
<text text-anchor="middle" x="409" y="-63.5" font-family="Helvetica,sans-Serif" font-size="10.00">cstring</text>
</a>
</g>
</g>
<!-- Node25&#45;&gt;Node27 -->
<g id="edge29" class="edge"><title>Node25&#45;&gt;Node27</title>
<path fill="none" stroke="midnightblue" d="M459.684,-168.368C450.688,-150.376 429.775,-108.55 417.813,-84.6267"/>
<polygon fill="midnightblue" stroke="midnightblue" points="420.898,-82.9704 413.296,-75.5914 414.637,-86.101 420.898,-82.9704"/>
</g>
<!-- Node25&#45;&gt;Node28 -->
<g id="edge31" class="edge"><title>Node25&#45;&gt;Node28</title>
<path fill="none" stroke="midnightblue" d="M490.776,-171.625C539.965,-161.75 644.629,-140.74 698.849,-129.855"/>
<polygon fill="midnightblue" stroke="midnightblue" points="699.56,-133.283 708.676,-127.883 698.183,-126.42 699.56,-133.283"/>
</g>
<!-- Node29 -->
<g id="node29" class="node"><title>Node29</title>
<g id="a_node29"><a xlink:href="endian_8h.html" target="_top" xlink:title=" ">
<polygon fill="white" stroke="black" points="487.5,-112.5 487.5,-131.5 540.5,-131.5 540.5,-112.5 487.5,-112.5"/>
<text text-anchor="middle" x="514" y="-119.5" font-family="Helvetica,sans-Serif" font-size="10.00">endian.h</text>
</a>
</g>
</g>
<!-- Node25&#45;&gt;Node29 -->
<g id="edge38" class="edge"><title>Node25&#45;&gt;Node29</title>
<path fill="none" stroke="midnightblue" d="M472.256,-168.083C479.465,-160.298 490.11,-148.801 498.846,-139.367"/>
<polygon fill="midnightblue" stroke="midnightblue" points="501.671,-141.467 505.897,-131.751 496.535,-136.711 501.671,-141.467"/>
</g>
<!-- Node25&#45;&gt;Node32 -->
<g id="edge44" class="edge"><title>Node25&#45;&gt;Node32</title>
<path fill="none" stroke="midnightblue" d="M443.243,-168.444C421.684,-159.557 387.737,-145.563 363.206,-135.451"/>
<polygon fill="midnightblue" stroke="midnightblue" points="364.239,-132.092 353.66,-131.516 361.572,-138.563 364.239,-132.092"/>
</g>
<!-- Node28&#45;&gt;Node3 -->
<g id="edge37" class="edge"><title>Node28&#45;&gt;Node3</title>
<path fill="none" stroke="midnightblue" d="M757.106,-116.848C801.035,-109.267 897.311,-92.5836 988.903,-76.1854"/>
<polygon fill="midnightblue" stroke="midnightblue" points="989.668,-79.6041 998.894,-74.3945 988.433,-72.714 989.668,-79.6041"/>
</g>
<!-- Node28&#45;&gt;Node12 -->
<g id="edge33" class="edge"><title>Node28&#45;&gt;Node12</title>
<path fill="none" stroke="midnightblue" d="M733.392,-112.368C734.199,-94.617 736.061,-53.6664 737.155,-29.5974"/>
<polygon fill="midnightblue" stroke="midnightblue" points="740.652,-29.7401 737.609,-19.5914 733.659,-29.4221 740.652,-29.7401"/>
</g>
<!-- Node28&#45;&gt;Node16 -->
<g id="edge35" class="edge"><title>Node28&#45;&gt;Node16</title>
<path fill="none" stroke="midnightblue" d="M757.204,-114.806C792.253,-105.836 857.674,-89.0929 901.038,-77.9951"/>
<polygon fill="midnightblue" stroke="midnightblue" points="901.925,-81.381 910.745,-75.5108 900.189,-74.5995 901.925,-81.381"/>
</g>
<!-- Node28&#45;&gt;Node18 -->
<g id="edge34" class="edge"><title>Node28&#45;&gt;Node18</title>
<path fill="none" stroke="midnightblue" d="M717.255,-112.324C701.681,-103.743 677.623,-90.486 659.541,-80.5224"/>
<polygon fill="midnightblue" stroke="midnightblue" points="661.154,-77.4152 650.706,-75.6545 657.776,-83.546 661.154,-77.4152"/>
</g>
<!-- Node28&#45;&gt;Node19 -->
<g id="edge36" class="edge"><title>Node28&#45;&gt;Node19</title>
<path fill="none" stroke="midnightblue" d="M708.816,-115.966C671.125,-108.1 595.837,-92.3013 521.942,-76.186"/>
<polygon fill="midnightblue" stroke="midnightblue" points="522.517,-72.7292 512.001,-74.0142 521.023,-79.5679 522.517,-72.7292"/>
</g>
<!-- Node28&#45;&gt;Node21 -->
<g id="edge32" class="edge"><title>Node28&#45;&gt;Node21</title>
<path fill="none" stroke="midnightblue" d="M727.716,-112.083C723.289,-104.613 716.837,-93.7244 711.382,-84.5199"/>
<polygon fill="midnightblue" stroke="midnightblue" points="714.295,-82.5697 706.186,-75.7511 708.273,-86.1383 714.295,-82.5697"/>
</g>
<!-- Node29&#45;&gt;Node18 -->
<g id="edge39" class="edge"><title>Node29&#45;&gt;Node18</title>
<path fill="none" stroke="midnightblue" d="M533.173,-112.444C552.909,-103.636 583.885,-89.8116 606.493,-79.722"/>
<polygon fill="midnightblue" stroke="midnightblue" points="608.211,-82.788 615.917,-75.5164 605.359,-76.3957 608.211,-82.788"/>
</g>
<!-- Node29&#45;&gt;Node19 -->
<g id="edge42" class="edge"><title>Node29&#45;&gt;Node19</title>
<path fill="none" stroke="midnightblue" d="M508.551,-112.083C503.986,-104.613 497.332,-93.7244 491.707,-84.5199"/>
<polygon fill="midnightblue" stroke="midnightblue" points="494.549,-82.4588 486.348,-75.7511 488.576,-86.109 494.549,-82.4588"/>
</g>
<!-- Node29&#45;&gt;Node27 -->
<g id="edge40" class="edge"><title>Node29&#45;&gt;Node27</title>
<path fill="none" stroke="midnightblue" d="M497.13,-112.324C480.291,-103.664 454.193,-90.2424 434.762,-80.249"/>
<polygon fill="midnightblue" stroke="midnightblue" points="436.322,-77.1155 425.828,-75.6545 433.12,-83.3405 436.322,-77.1155"/>
</g>
<!-- Node30 -->
<g id="node30" class="node"><title>Node30</title>
<g id="a_node30"><a xlink:title=" ">
<polygon fill="white" stroke="#bfbfbf" points="530,-56.5 530,-75.5 594,-75.5 594,-56.5 530,-56.5"/>
<text text-anchor="middle" x="562" y="-63.5" font-family="Helvetica,sans-Serif" font-size="10.00">string_view</text>
</a>
</g>
</g>
<!-- Node29&#45;&gt;Node30 -->
<g id="edge41" class="edge"><title>Node29&#45;&gt;Node30</title>
<path fill="none" stroke="midnightblue" d="M521.926,-112.083C528.846,-104.298 539.065,-92.8015 547.452,-83.3665"/>
<polygon fill="midnightblue" stroke="midnightblue" points="550.194,-85.5505 554.221,-75.7511 544.962,-80.8999 550.194,-85.5505"/>
</g>
<!-- Node29&#45;&gt;Node31 -->
<g id="edge43" class="edge"><title>Node29&#45;&gt;Node31</title>
<path fill="none" stroke="midnightblue" d="M540.677,-114.052C543.81,-113.319 546.97,-112.617 550,-112 625.825,-96.5671 713.914,-83.374 771.858,-75.3371"/>
<polygon fill="midnightblue" stroke="midnightblue" points="772.53,-78.7775 781.959,-73.9458 771.575,-71.843 772.53,-78.7775"/>
</g>
<!-- Node32&#45;&gt;Node3 -->
<g id="edge53" class="edge"><title>Node32&#45;&gt;Node3</title>
<path fill="none" stroke="midnightblue" d="M354.603,-119.667C456.842,-113.338 890.876,-86.25 988.922,-75.8884"/>
<polygon fill="midnightblue" stroke="midnightblue" points="989.41,-79.3554 998.946,-74.7386 988.612,-72.401 989.41,-79.3554"/>
</g>
<!-- Node32&#45;&gt;Node14 -->
<g id="edge47" class="edge"><title>Node32&#45;&gt;Node14</title>
<path fill="none" stroke="midnightblue" d="M311.25,-118.743C264.656,-113.663 151.668,-100.035 48.1543,-75.9564"/>
<polygon fill="midnightblue" stroke="midnightblue" points="48.7062,-72.4904 38.169,-73.5935 47.0942,-79.3023 48.7062,-72.4904"/>
</g>
<!-- Node32&#45;&gt;Node16 -->
<g id="edge50" class="edge"><title>Node32&#45;&gt;Node16</title>
<path fill="none" stroke="midnightblue" d="M354.789,-119.583C442.475,-113.831 770.442,-91.8435 896.701,-75.8364"/>
<polygon fill="midnightblue" stroke="midnightblue" points="897.403,-79.2744 906.861,-74.5011 896.49,-72.3341 897.403,-79.2744"/>
</g>
<!-- Node32&#45;&gt;Node19 -->
<g id="edge51" class="edge"><title>Node32&#45;&gt;Node19</title>
<path fill="none" stroke="midnightblue" d="M354.52,-113.148C379.047,-104.199 419.42,-89.4683 447.946,-79.0602"/>
<polygon fill="midnightblue" stroke="midnightblue" points="449.302,-82.2912 457.497,-75.5756 446.903,-75.7153 449.302,-82.2912"/>
</g>
<!-- Node32&#45;&gt;Node27 -->
<g id="edge49" class="edge"><title>Node32&#45;&gt;Node27</title>
<path fill="none" stroke="midnightblue" d="M345.211,-112.324C356.776,-104.107 374.375,-91.6017 388.161,-81.8069"/>
<polygon fill="midnightblue" stroke="midnightblue" points="390.443,-84.4791 396.567,-75.8339 386.388,-78.7729 390.443,-84.4791"/>
</g>
<!-- Node33 -->
<g id="node33" class="node"><title>Node33</title>
<g id="a_node33"><a xlink:title=" ">
<polygon fill="white" stroke="#bfbfbf" points="222,-56.5 222,-75.5 282,-75.5 282,-56.5 222,-56.5"/>
<text text-anchor="middle" x="252" y="-63.5" font-family="Helvetica,sans-Serif" font-size="10.00">fmt/core.h</text>
</a>
</g>
</g>
<!-- Node32&#45;&gt;Node33 -->
<g id="edge45" class="edge"><title>Node32&#45;&gt;Node33</title>
<path fill="none" stroke="midnightblue" d="M319.986,-112.324C307.468,-103.979 288.318,-91.2122 273.529,-81.3524"/>
<polygon fill="midnightblue" stroke="midnightblue" points="275.244,-78.2894 264.982,-75.6545 271.361,-84.1137 275.244,-78.2894"/>
</g>
<!-- Node34 -->
<g id="node34" class="node"><title>Node34</title>
<g id="a_node34"><a xlink:title=" ">
<polygon fill="white" stroke="#bfbfbf" points="300,-56.5 300,-75.5 368,-75.5 368,-56.5 300,-56.5"/>
<text text-anchor="middle" x="334" y="-63.5" font-family="Helvetica,sans-Serif" font-size="10.00">fmt/format.h</text>
</a>
</g>
</g>
<!-- Node32&#45;&gt;Node34 -->
<g id="edge46" class="edge"><title>Node32&#45;&gt;Node34</title>
<path fill="none" stroke="midnightblue" d="M333.165,-112.083C333.296,-105.006 333.484,-94.8611 333.648,-85.9865"/>
<polygon fill="midnightblue" stroke="midnightblue" points="337.152,-85.8142 333.838,-75.7511 330.153,-85.6845 337.152,-85.8142"/>
</g>
<!-- Node35 -->
<g id="node35" class="node"><title>Node35</title>
<g id="a_node35"><a xlink:title=" ">
<polygon fill="white" stroke="#bfbfbf" points="56,-56.5 56,-75.5 102,-75.5 102,-56.5 56,-56.5"/>
<text text-anchor="middle" x="79" y="-63.5" font-family="Helvetica,sans-Serif" font-size="10.00">chrono</text>
</a>
</g>
</g>
<!-- Node32&#45;&gt;Node35 -->
<g id="edge48" class="edge"><title>Node32&#45;&gt;Node35</title>
<path fill="none" stroke="midnightblue" d="M311.453,-117.182C273.286,-110.302 191.12,-94.9683 112.132,-76.1301"/>
<polygon fill="midnightblue" stroke="midnightblue" points="112.56,-72.6331 102.018,-73.6941 110.921,-79.4385 112.56,-72.6331"/>
</g>
<!-- Node36 -->
<g id="node36" class="node"><title>Node36</title>
<g id="a_node36"><a xlink:title=" ">
<polygon fill="white" stroke="#bfbfbf" points="120.5,-56.5 120.5,-75.5 203.5,-75.5 203.5,-56.5 120.5,-56.5"/>
<text text-anchor="middle" x="162" y="-63.5" font-family="Helvetica,sans-Serif" font-size="10.00">unordered_map</text>
</a>
</g>
</g>
<!-- Node32&#45;&gt;Node36 -->
<g id="edge52" class="edge"><title>Node32&#45;&gt;Node36</title>
<path fill="none" stroke="midnightblue" d="M311.343,-114.161C283.041,-105.224 233.057,-89.439 198.769,-78.6114"/>
<polygon fill="midnightblue" stroke="midnightblue" points="199.7,-75.235 189.11,-75.5611 197.592,-81.91 199.7,-75.235"/>
</g>
<!-- Node37&#45;&gt;Node3 -->
<g id="edge57" class="edge"><title>Node37&#45;&gt;Node3</title>
<path fill="none" stroke="midnightblue" d="M1039,-112.083C1039,-105.006 1039,-94.8611 1039,-85.9865"/>
<polygon fill="midnightblue" stroke="midnightblue" points="1042.5,-85.751 1039,-75.7511 1035.5,-85.7511 1042.5,-85.751"/>
</g>
<!-- Node37&#45;&gt;Node16 -->
<g id="edge56" class="edge"><title>Node37&#45;&gt;Node16</title>
<path fill="none" stroke="midnightblue" d="M1023.74,-112.324C1008.78,-103.822 985.745,-90.7288 968.273,-80.7975"/>
<polygon fill="midnightblue" stroke="midnightblue" points="969.649,-77.5534 959.226,-75.6545 966.19,-83.639 969.649,-77.5534"/>
</g>
<!-- Node38&#45;&gt;Node3 -->
<g id="edge59" class="edge"><title>Node38&#45;&gt;Node3</title>
<path fill="none" stroke="midnightblue" d="M933.945,-168.368C953.092,-149.894 998.279,-106.293 1022.68,-82.7436"/>
<polygon fill="midnightblue" stroke="midnightblue" points="1025.33,-85.0538 1030.1,-75.5914 1020.47,-80.0165 1025.33,-85.0538"/>
</g>
<!-- Node38&#45;&gt;Node31 -->
<g id="edge63" class="edge"><title>Node38&#45;&gt;Node31</title>
<path fill="none" stroke="midnightblue" d="M899.283,-168.372C882.126,-161.282 860.499,-149.521 848,-132 838.497,-118.679 835.54,-100.104 834.789,-86.22"/>
<polygon fill="midnightblue" stroke="midnightblue" points="838.281,-85.8074 834.582,-75.8796 831.283,-85.9477 838.281,-85.8074"/>
</g>
<!-- Node39 -->
<g id="node39" class="node"><title>Node39</title>
<g id="a_node39"><a xlink:href="sys__error__code_8h.html" target="_top" xlink:title=" ">
<polygon fill="white" stroke="black" points="857,-112.5 857,-131.5 949,-131.5 949,-112.5 857,-112.5"/>
<text text-anchor="middle" x="903" y="-119.5" font-family="Helvetica,sans-Serif" font-size="10.00">sys_error_code.h</text>
</a>
</g>
</g>
<!-- Node38&#45;&gt;Node39 -->
<g id="edge60" class="edge"><title>Node38&#45;&gt;Node39</title>
<path fill="none" stroke="midnightblue" d="M921.367,-168.083C918.388,-160.77 914.074,-150.181 910.375,-141.103"/>
<polygon fill="midnightblue" stroke="midnightblue" points="913.58,-139.691 906.565,-131.751 907.097,-142.333 913.58,-139.691"/>
</g>
<!-- Node39&#45;&gt;Node3 -->
<g id="edge61" class="edge"><title>Node39&#45;&gt;Node3</title>
<path fill="none" stroke="midnightblue" d="M924.55,-112.444C947.031,-103.517 982.488,-89.4387 1007.98,-79.3168"/>
<polygon fill="midnightblue" stroke="midnightblue" points="1009.55,-82.4598 1017.55,-75.5164 1006.97,-75.9539 1009.55,-82.4598"/>
</g>
<!-- Node39&#45;&gt;Node31 -->
<g id="edge62" class="edge"><title>Node39&#45;&gt;Node31</title>
<path fill="none" stroke="midnightblue" d="M892.075,-112.324C881.825,-104.185 866.279,-91.8395 853.999,-82.0874"/>
<polygon fill="midnightblue" stroke="midnightblue" points="856.132,-79.3119 846.124,-75.8339 851.779,-84.7937 856.132,-79.3119"/>
</g>
</g>
</svg>
