<?xml version="1.0" encoding="UTF-8" standalone="no"?>
<!DOCTYPE svg PUBLIC "-//W3C//DTD SVG 1.1//EN"
 "http://www.w3.org/Graphics/SVG/1.1/DTD/svg11.dtd">
<!-- Generated by graphviz version 2.38.0 (20140413.2041)
 -->
<!-- Title: C:/projects/ndt/sources/include/ndt/executor_select.h Pages: 1 -->
<svg width="502pt" height="284pt"
 viewBox="0.00 0.00 502.00 284.00" xmlns="http://www.w3.org/2000/svg" xmlns:xlink="http://www.w3.org/1999/xlink">
<g id="graph0" class="graph" transform="scale(1 1) rotate(0) translate(4 280)">
<title>C:/projects/ndt/sources/include/ndt/executor_select.h</title>
<polygon fill="white" stroke="none" points="-4,4 -4,-280 498,-280 498,4 -4,4"/>
<!-- Node1 -->
<g id="node1" class="node"><title>Node1</title>
<g id="a_node1"><a xlink:title=" ">
<polygon fill="#bfbfbf" stroke="black" points="133,-234.5 133,-275.5 251,-275.5 251,-234.5 133,-234.5"/>
<text text-anchor="start" x="141" y="-263.5" font-family="Helvetica,sans-Serif" font-size="10.00">C:/projects/ndt/sources</text>
<text text-anchor="start" x="141" y="-252.5" font-family="Helvetica,sans-Serif" font-size="10.00">/include/ndt/executor</text>
<text text-anchor="middle" x="192" y="-241.5" font-family="Helvetica,sans-Serif" font-size="10.00">_select.h</text>
</a>
</g>
</g>
<!-- Node2 -->
<g id="node2" class="node"><title>Node2</title>
<g id="a_node2"><a xlink:href="context_8h.html" target="_top" xlink:title=" ">
<polygon fill="white" stroke="black" points="0,-84 0,-114 118,-114 118,-84 0,-84"/>
<text text-anchor="start" x="8" y="-102" font-family="Helvetica,sans-Serif" font-size="10.00">C:/projects/ndt/sources</text>
<text text-anchor="middle" x="59" y="-91" font-family="Helvetica,sans-Serif" font-size="10.00">/include/ndt/context.h</text>
</a>
</g>
</g>
<!-- Node1&#45;&gt;Node2 -->
<g id="edge1" class="edge"><title>Node1&#45;&gt;Node2</title>
<path fill="none" stroke="midnightblue" d="M161.514,-227.515C151.724,-218.502 141.073,-208.137 132,-198 106.957,-170.019 81.6466,-133.882 68.4103,-114.244"/>
<polygon fill="midnightblue" stroke="midnightblue" points="159.375,-230.3 169.134,-234.423 164.076,-225.114 159.375,-230.3"/>
</g>
<!-- Node3 -->
<g id="node3" class="node"><title>Node3</title>
<g id="a_node3"><a xlink:href="core_8h.html" target="_top" xlink:title=" ">
<polygon fill="white" stroke="black" points="66,-6 66,-36 184,-36 184,-6 66,-6"/>
<text text-anchor="start" x="74" y="-24" font-family="Helvetica,sans-Serif" font-size="10.00">C:/projects/ndt/sources</text>
<text text-anchor="middle" x="125" y="-13" font-family="Helvetica,sans-Serif" font-size="10.00">/include/ndt/core.h</text>
</a>
</g>
</g>
<!-- Node1&#45;&gt;Node3 -->
<g id="edge3" class="edge"><title>Node1&#45;&gt;Node3</title>
<path fill="none" stroke="midnightblue" d="M176.518,-225.071C172.366,-216.522 168.158,-207.031 165,-198 144.625,-139.73 131.921,-66.9177 127.148,-36.4509"/>
<polygon fill="midnightblue" stroke="midnightblue" points="173.511,-226.882 181.124,-234.25 179.767,-223.742 173.511,-226.882"/>
</g>
<!-- Node4 -->
<g id="node4" class="node"><title>Node4</title>
<g id="a_node4"><a xlink:href="event__handler__select_8h.html" target="_top" xlink:title=" ">
<polygon fill="white" stroke="black" points="174.5,-156.5 174.5,-197.5 303.5,-197.5 303.5,-156.5 174.5,-156.5"/>
<text text-anchor="start" x="182.5" y="-185.5" font-family="Helvetica,sans-Serif" font-size="10.00">C:/projects/ndt/sources</text>
<text text-anchor="start" x="182.5" y="-174.5" font-family="Helvetica,sans-Serif" font-size="10.00">/include/ndt/event_handler</text>
<text text-anchor="middle" x="239" y="-163.5" font-family="Helvetica,sans-Serif" font-size="10.00">_select.h</text>
</a>
</g>
</g>
<!-- Node1&#45;&gt;Node4 -->
<g id="edge4" class="edge"><title>Node1&#45;&gt;Node4</title>
<path fill="none" stroke="midnightblue" d="M209.466,-225.757C215.281,-216.354 221.625,-206.096 226.937,-197.506"/>
<polygon fill="midnightblue" stroke="midnightblue" points="206.387,-224.082 204.104,-234.428 212.34,-227.764 206.387,-224.082"/>
</g>
<!-- Node2&#45;&gt;Node3 -->
<g id="edge2" class="edge"><title>Node2&#45;&gt;Node3</title>
<path fill="none" stroke="midnightblue" d="M78.2733,-75.8065C89.3662,-63.0329 102.977,-47.3596 112.642,-36.2309"/>
<polygon fill="midnightblue" stroke="midnightblue" points="75.3284,-73.8597 71.4141,-83.705 80.6136,-78.4495 75.3284,-73.8597"/>
</g>
<!-- Node4&#45;&gt;Node3 -->
<g id="edge5" class="edge"><title>Node4&#45;&gt;Node3</title>
<path fill="none" stroke="midnightblue" d="M218.424,-148.204C194.067,-115.301 154.442,-61.7722 135.6,-36.3195"/>
<polygon fill="midnightblue" stroke="midnightblue" points="215.799,-150.541 224.562,-156.496 221.425,-146.376 215.799,-150.541"/>
</g>
<!-- Node5 -->
<g id="node5" class="node"><title>Node5</title>
<g id="a_node5"><a xlink:href="executor__select__base_8h.html" target="_top" xlink:title=" ">
<polygon fill="white" stroke="black" points="212,-78.5 212,-119.5 330,-119.5 330,-78.5 212,-78.5"/>
<text text-anchor="start" x="220" y="-107.5" font-family="Helvetica,sans-Serif" font-size="10.00">C:/projects/ndt/sources</text>
<text text-anchor="start" x="220" y="-96.5" font-family="Helvetica,sans-Serif" font-size="10.00">/include/ndt/executor</text>
<text text-anchor="middle" x="271" y="-85.5" font-family="Helvetica,sans-Serif" font-size="10.00">_select_base.h</text>
</a>
</g>
</g>
<!-- Node4&#45;&gt;Node5 -->
<g id="edge6" class="edge"><title>Node4&#45;&gt;Node5</title>
<path fill="none" stroke="midnightblue" d="M251.137,-147.174C255.029,-137.932 259.245,-127.919 262.787,-119.506"/>
<polygon fill="midnightblue" stroke="midnightblue" points="247.896,-145.854 247.241,-156.428 254.347,-148.57 247.896,-145.854"/>
</g>
<!-- Node5&#45;&gt;Node3 -->
<g id="edge7" class="edge"><title>Node5&#45;&gt;Node3</title>
<path fill="none" stroke="midnightblue" d="M224.524,-73.8068C200.738,-61.4252 172.604,-46.7801 152.328,-36.2254"/>
<polygon fill="midnightblue" stroke="midnightblue" points="222.915,-76.9153 233.401,-78.4281 226.147,-70.7061 222.915,-76.9153"/>
</g>
<!-- Node6 -->
<g id="node6" class="node"><title>Node6</title>
<g id="a_node6"><a xlink:href="nix_2executor__select__impl_8h.html" target="_top" xlink:title=" ">
<polygon fill="white" stroke="black" points="358,-0.5 358,-41.5 494,-41.5 494,-0.5 358,-0.5"/>
<text text-anchor="start" x="366" y="-29.5" font-family="Helvetica,sans-Serif" font-size="10.00">C:/projects/ndt/sources</text>
<text text-anchor="start" x="366" y="-18.5" font-family="Helvetica,sans-Serif" font-size="10.00">/include/ndt/platform</text>
<text text-anchor="middle" x="426" y="-7.5" font-family="Helvetica,sans-Serif" font-size="10.00">/nix/executor_select_impl.h</text>
</a>
</g>
</g>
<!-- Node5&#45;&gt;Node6 -->
<g id="edge8" class="edge"><title>Node5&#45;&gt;Node6</title>
<path fill="none" stroke="midnightblue" d="M320.135,-73.9082C341.447,-63.4581 366.08,-51.3801 386.219,-41.5056"/>
<polygon fill="midnightblue" stroke="midnightblue" points="318.354,-70.883 310.916,-78.4281 321.436,-77.1681 318.354,-70.883"/>
</g>
<!-- Node7 -->
<g id="node7" class="node"><title>Node7</title>
<g id="a_node7"><a xlink:href="win_2executor__select__impl_8h.html" target="_top" xlink:title=" ">
<polygon fill="white" stroke="black" points="202.5,-0.5 202.5,-41.5 339.5,-41.5 339.5,-0.5 202.5,-0.5"/>
<text text-anchor="start" x="210.5" y="-29.5" font-family="Helvetica,sans-Serif" font-size="10.00">C:/projects/ndt/sources</text>
<text text-anchor="start" x="210.5" y="-18.5" font-family="Helvetica,sans-Serif" font-size="10.00">/include/ndt/platform</text>
<text text-anchor="middle" x="271" y="-7.5" font-family="Helvetica,sans-Serif" font-size="10.00">/win/executor_select_impl.h</text>
</a>
</g>
</g>
<!-- Node5&#45;&gt;Node7 -->
<g id="edge10" class="edge"><title>Node5&#45;&gt;Node7</title>
<path fill="none" stroke="midnightblue" d="M271,-68.2965C271,-59.3009 271,-49.6532 271,-41.5056"/>
<polygon fill="midnightblue" stroke="midnightblue" points="267.5,-68.4281 271,-78.4281 274.5,-68.4281 267.5,-68.4281"/>
</g>
<!-- Node6&#45;&gt;Node1 -->
<g id="edge9" class="edge"><title>Node6&#45;&gt;Node1</title>
<path fill="none" stroke="midnightblue" d="M413.377,-51.2286C395.628,-89.3799 360.016,-156.198 312,-198 294.227,-213.473 271.448,-225.533 250.522,-234.433"/>
<polygon fill="midnightblue" stroke="midnightblue" points="416.745,-52.2773 417.703,-41.7259 410.374,-49.3768 416.745,-52.2773"/>
</g>
</g>
</svg>
