<?xml version="1.0" encoding="UTF-8" standalone="no"?>
<!DOCTYPE svg PUBLIC "-//W3C//DTD SVG 1.1//EN"
 "http://www.w3.org/Graphics/SVG/1.1/DTD/svg11.dtd">
<!-- Generated by graphviz version 2.38.0 (20140413.2041)
 -->
<!-- Title: C:/projects/ndt/sources/include/ndt/executor_select_base.h Pages: 1 -->
<svg width="1270pt" height="397pt"
 viewBox="0.00 0.00 1269.52 397.00" xmlns="http://www.w3.org/2000/svg" xmlns:xlink="http://www.w3.org/1999/xlink">
<g id="graph0" class="graph" transform="scale(1 1) rotate(0) translate(4 393)">
<title>C:/projects/ndt/sources/include/ndt/executor_select_base.h</title>
<polygon fill="white" stroke="none" points="-4,4 -4,-393 1265.52,-393 1265.52,4 -4,4"/>
<!-- Node1 -->
<g id="node1" class="node"><title>Node1</title>
<g id="a_node1"><a xlink:title=" ">
<polygon fill="#bfbfbf" stroke="black" points="910,-347.5 910,-388.5 1028,-388.5 1028,-347.5 910,-347.5"/>
<text text-anchor="start" x="918" y="-376.5" font-family="Helvetica,sans-Serif" font-size="10.00">C:/projects/ndt/sources</text>
<text text-anchor="start" x="918" y="-365.5" font-family="Helvetica,sans-Serif" font-size="10.00">/include/ndt/executor</text>
<text text-anchor="middle" x="969" y="-354.5" font-family="Helvetica,sans-Serif" font-size="10.00">_select_base.h</text>
</a>
</g>
</g>
<!-- Node2 -->
<g id="node2" class="node"><title>Node2</title>
<g id="a_node2"><a xlink:title=" ">
<polygon fill="white" stroke="#bfbfbf" points="533,-291.5 533,-310.5 571,-310.5 571,-291.5 533,-291.5"/>
<text text-anchor="middle" x="552" y="-298.5" font-family="Helvetica,sans-Serif" font-size="10.00">array</text>
</a>
</g>
</g>
<!-- Node1&#45;&gt;Node2 -->
<g id="edge1" class="edge"><title>Node1&#45;&gt;Node2</title>
<path fill="none" stroke="midnightblue" d="M909.732,-360.621C833.961,-351.949 698.935,-334.753 585,-311 583.725,-310.734 582.426,-310.448 581.116,-310.146"/>
<polygon fill="midnightblue" stroke="midnightblue" points="581.651,-306.672 571.1,-307.632 579.946,-313.461 581.651,-306.672"/>
</g>
<!-- Node3 -->
<g id="node3" class="node"><title>Node3</title>
<g id="a_node3"><a xlink:title=" ">
<polygon fill="white" stroke="#bfbfbf" points="0,-235.5 0,-254.5 58,-254.5 58,-235.5 0,-235.5"/>
<text text-anchor="middle" x="29" y="-242.5" font-family="Helvetica,sans-Serif" font-size="10.00">functional</text>
</a>
</g>
</g>
<!-- Node1&#45;&gt;Node3 -->
<g id="edge2" class="edge"><title>Node1&#45;&gt;Node3</title>
<path fill="none" stroke="midnightblue" d="M909.851,-363.455C838.94,-357.875 717.241,-344.036 618,-311 599.892,-304.972 598.355,-296.231 580,-291 362.322,-228.968 296.175,-286.257 72,-255 70.7253,-254.822 69.4317,-254.629 68.1275,-254.423"/>
<polygon fill="midnightblue" stroke="midnightblue" points="68.5079,-250.936 58.0506,-252.637 67.2867,-257.828 68.5079,-250.936"/>
</g>
<!-- Node4 -->
<g id="node4" class="node"><title>Node4</title>
<g id="a_node4"><a xlink:title=" ">
<polygon fill="white" stroke="#bfbfbf" points="994,-118 994,-137 1068,-137 1068,-118 994,-118"/>
<text text-anchor="middle" x="1031" y="-125" font-family="Helvetica,sans-Serif" font-size="10.00">system_error</text>
</a>
</g>
</g>
<!-- Node1&#45;&gt;Node4 -->
<g id="edge3" class="edge"><title>Node1&#45;&gt;Node4</title>
<path fill="none" stroke="midnightblue" d="M985.208,-347.491C1001.69,-326.271 1026.16,-290.599 1036,-255 1046.25,-217.889 1040.13,-172.336 1035.25,-147.27"/>
<polygon fill="midnightblue" stroke="midnightblue" points="1038.63,-146.365 1033.15,-137.299 1031.78,-147.805 1038.63,-146.365"/>
</g>
<!-- Node5 -->
<g id="node5" class="node"><title>Node5</title>
<g id="a_node5"><a xlink:href="common_8h.html" target="_top" xlink:title="Header with typedefs to make type designation platform independent.">
<polygon fill="white" stroke="black" points="897,-56.5 897,-75.5 959,-75.5 959,-56.5 897,-56.5"/>
<text text-anchor="middle" x="928" y="-63.5" font-family="Helvetica,sans-Serif" font-size="10.00">common.h</text>
</a>
</g>
</g>
<!-- Node1&#45;&gt;Node5 -->
<g id="edge4" class="edge"><title>Node1&#45;&gt;Node5</title>
<path fill="none" stroke="midnightblue" d="M1028.24,-367.464C1113.32,-364.674 1260,-345.443 1260,-246 1260,-246 1260,-246 1260,-188 1260,-153.072 1266.07,-135.25 1240,-112 1200.75,-76.9901 1044.56,-69.1846 969.152,-67.4684"/>
<polygon fill="midnightblue" stroke="midnightblue" points="969.137,-63.9675 959.069,-67.2645 968.996,-70.9661 969.137,-63.9675"/>
</g>
<!-- Node15 -->
<g id="node15" class="node"><title>Node15</title>
<g id="a_node15"><a xlink:href="event__handler__select_8h.html" target="_top" xlink:title=" ">
<polygon fill="white" stroke="black" points="911,-235.5 911,-254.5 1027,-254.5 1027,-235.5 911,-235.5"/>
<text text-anchor="middle" x="969" y="-242.5" font-family="Helvetica,sans-Serif" font-size="10.00">event_handler_select.h</text>
</a>
</g>
</g>
<!-- Node1&#45;&gt;Node15 -->
<g id="edge14" class="edge"><title>Node1&#45;&gt;Node15</title>
<path fill="none" stroke="midnightblue" d="M969,-347.29C969,-324.48 969,-287.189 969,-264.781"/>
<polygon fill="midnightblue" stroke="midnightblue" points="972.5,-264.575 969,-254.575 965.5,-264.575 972.5,-264.575"/>
</g>
<!-- Node20 -->
<g id="node20" class="node"><title>Node20</title>
<g id="a_node20"><a xlink:href="socket_8h.html" target="_top" xlink:title=" ">
<polygon fill="white" stroke="black" points="627,-291.5 627,-310.5 681,-310.5 681,-291.5 627,-291.5"/>
<text text-anchor="middle" x="654" y="-298.5" font-family="Helvetica,sans-Serif" font-size="10.00">socket.h</text>
</a>
</g>
</g>
<!-- Node1&#45;&gt;Node20 -->
<g id="edge21" class="edge"><title>Node1&#45;&gt;Node20</title>
<path fill="none" stroke="midnightblue" d="M909.751,-354.774C845.459,-341.507 744.799,-320.736 690.938,-309.622"/>
<polygon fill="midnightblue" stroke="midnightblue" points="691.63,-306.191 681.129,-307.598 690.216,-313.047 691.63,-306.191"/>
</g>
<!-- Node6 -->
<g id="node6" class="node"><title>Node6</title>
<g id="a_node6"><a xlink:title=" ">
<polygon fill="white" stroke="#bfbfbf" points="1011,-0.5 1011,-19.5 1073,-19.5 1073,-0.5 1011,-0.5"/>
<text text-anchor="middle" x="1042" y="-7.5" font-family="Helvetica,sans-Serif" font-size="10.00">arpa/inet.h</text>
</a>
</g>
</g>
<!-- Node5&#45;&gt;Node6 -->
<g id="edge5" class="edge"><title>Node5&#45;&gt;Node6</title>
<path fill="none" stroke="midnightblue" d="M946.064,-56.4435C964.575,-47.6751 993.581,-33.9355 1014.86,-23.8579"/>
<polygon fill="midnightblue" stroke="midnightblue" points="1016.48,-26.9604 1024.02,-19.5164 1013.49,-20.6343 1016.48,-26.9604"/>
</g>
<!-- Node7 -->
<g id="node7" class="node"><title>Node7</title>
<g id="a_node7"><a xlink:title=" ">
<polygon fill="white" stroke="#bfbfbf" points="1091.5,-0.5 1091.5,-19.5 1138.5,-19.5 1138.5,-0.5 1091.5,-0.5"/>
<text text-anchor="middle" x="1115" y="-7.5" font-family="Helvetica,sans-Serif" font-size="10.00">errno.h</text>
</a>
</g>
</g>
<!-- Node5&#45;&gt;Node7 -->
<g id="edge6" class="edge"><title>Node5&#45;&gt;Node7</title>
<path fill="none" stroke="midnightblue" d="M957.631,-56.4435C991.375,-46.6993 1046.38,-30.8158 1081.61,-20.6414"/>
<polygon fill="midnightblue" stroke="midnightblue" points="1082.79,-23.9437 1091.43,-17.8067 1080.85,-17.2185 1082.79,-23.9437"/>
</g>
<!-- Node8 -->
<g id="node8" class="node"><title>Node8</title>
<g id="a_node8"><a xlink:title=" ">
<polygon fill="white" stroke="#bfbfbf" points="1156.5,-0.5 1156.5,-19.5 1199.5,-19.5 1199.5,-0.5 1156.5,-0.5"/>
<text text-anchor="middle" x="1178" y="-7.5" font-family="Helvetica,sans-Serif" font-size="10.00">fcntl.h</text>
</a>
</g>
</g>
<!-- Node5&#45;&gt;Node8 -->
<g id="edge7" class="edge"><title>Node5&#45;&gt;Node8</title>
<path fill="none" stroke="midnightblue" d="M959.003,-59.4377C999.765,-51.9488 1073.78,-37.7469 1146.58,-19.9364"/>
<polygon fill="midnightblue" stroke="midnightblue" points="1147.51,-23.3127 1156.38,-17.5159 1145.83,-16.5171 1147.51,-23.3127"/>
</g>
<!-- Node9 -->
<g id="node9" class="node"><title>Node9</title>
<g id="a_node9"><a xlink:title=" ">
<polygon fill="white" stroke="#bfbfbf" points="613.5,-0.5 613.5,-19.5 662.5,-19.5 662.5,-0.5 613.5,-0.5"/>
<text text-anchor="middle" x="638" y="-7.5" font-family="Helvetica,sans-Serif" font-size="10.00">netdb.h</text>
</a>
</g>
</g>
<!-- Node5&#45;&gt;Node9 -->
<g id="edge8" class="edge"><title>Node5&#45;&gt;Node9</title>
<path fill="none" stroke="midnightblue" d="M896.96,-60.5183C850.265,-53.5703 759,-39.1925 672.751,-20.2416"/>
<polygon fill="midnightblue" stroke="midnightblue" points="673.326,-16.784 662.805,-18.0303 671.807,-23.6171 673.326,-16.784"/>
</g>
<!-- Node10 -->
<g id="node10" class="node"><title>Node10</title>
<g id="a_node10"><a xlink:title=" ">
<polygon fill="white" stroke="#bfbfbf" points="680.5,-0.5 680.5,-19.5 745.5,-19.5 745.5,-0.5 680.5,-0.5"/>
<text text-anchor="middle" x="713" y="-7.5" font-family="Helvetica,sans-Serif" font-size="10.00">netinet/in.h</text>
</a>
</g>
</g>
<!-- Node5&#45;&gt;Node10 -->
<g id="edge9" class="edge"><title>Node5&#45;&gt;Node10</title>
<path fill="none" stroke="midnightblue" d="M896.737,-57.1479C859.51,-47.7979 797.152,-32.1359 755.552,-21.6874"/>
<polygon fill="midnightblue" stroke="midnightblue" points="756.262,-18.2571 745.71,-19.2157 754.557,-25.0463 756.262,-18.2571"/>
</g>
<!-- Node11 -->
<g id="node11" class="node"><title>Node11</title>
<g id="a_node11"><a xlink:title=" ">
<polygon fill="white" stroke="#bfbfbf" points="763.5,-0.5 763.5,-19.5 836.5,-19.5 836.5,-0.5 763.5,-0.5"/>
<text text-anchor="middle" x="800" y="-7.5" font-family="Helvetica,sans-Serif" font-size="10.00">sys/socket.h</text>
</a>
</g>
</g>
<!-- Node5&#45;&gt;Node11 -->
<g id="edge10" class="edge"><title>Node5&#45;&gt;Node11</title>
<path fill="none" stroke="midnightblue" d="M907.718,-56.4435C886.653,-47.5566 853.483,-33.5632 829.514,-23.4514"/>
<polygon fill="midnightblue" stroke="midnightblue" points="830.761,-20.1787 820.187,-19.5164 828.04,-26.6283 830.761,-20.1787"/>
</g>
<!-- Node12 -->
<g id="node12" class="node"><title>Node12</title>
<g id="a_node12"><a xlink:title=" ">
<polygon fill="white" stroke="#bfbfbf" points="855,-0.5 855,-19.5 923,-19.5 923,-0.5 855,-0.5"/>
<text text-anchor="middle" x="889" y="-7.5" font-family="Helvetica,sans-Serif" font-size="10.00">sys/types.h</text>
</a>
</g>
</g>
<!-- Node5&#45;&gt;Node12 -->
<g id="edge11" class="edge"><title>Node5&#45;&gt;Node12</title>
<path fill="none" stroke="midnightblue" d="M921.56,-56.083C916.051,-48.4554 907.969,-37.2645 901.235,-27.9408"/>
<polygon fill="midnightblue" stroke="midnightblue" points="904.013,-25.8087 895.32,-19.7511 898.338,-29.9071 904.013,-25.8087"/>
</g>
<!-- Node13 -->
<g id="node13" class="node"><title>Node13</title>
<g id="a_node13"><a xlink:title=" ">
<polygon fill="white" stroke="#bfbfbf" points="941.5,-0.5 941.5,-19.5 992.5,-19.5 992.5,-0.5 941.5,-0.5"/>
<text text-anchor="middle" x="967" y="-7.5" font-family="Helvetica,sans-Serif" font-size="10.00">unistd.h</text>
</a>
</g>
</g>
<!-- Node5&#45;&gt;Node13 -->
<g id="edge12" class="edge"><title>Node5&#45;&gt;Node13</title>
<path fill="none" stroke="midnightblue" d="M934.44,-56.083C939.949,-48.4554 948.031,-37.2645 954.765,-27.9408"/>
<polygon fill="midnightblue" stroke="midnightblue" points="957.662,-29.9071 960.68,-19.7511 951.987,-25.8087 957.662,-29.9071"/>
</g>
<!-- Node14 -->
<g id="node14" class="node"><title>Node14</title>
<g id="a_node14"><a xlink:title=" ">
<polygon fill="white" stroke="#bfbfbf" points="451,-0.5 451,-19.5 499,-19.5 499,-0.5 451,-0.5"/>
<text text-anchor="middle" x="475" y="-7.5" font-family="Helvetica,sans-Serif" font-size="10.00">cstddef</text>
</a>
</g>
</g>
<!-- Node5&#45;&gt;Node14 -->
<g id="edge13" class="edge"><title>Node5&#45;&gt;Node14</title>
<path fill="none" stroke="midnightblue" d="M896.863,-61.2884C815.106,-51.5424 594.76,-25.276 509.419,-15.1029"/>
<polygon fill="midnightblue" stroke="midnightblue" points="509.575,-11.5969 499.231,-13.8885 508.747,-18.5477 509.575,-11.5969"/>
</g>
<!-- Node16 -->
<g id="node16" class="node"><title>Node16</title>
<g id="a_node16"><a xlink:title=" ">
<polygon fill="white" stroke="#bfbfbf" points="444,-118 444,-137 490,-137 490,-118 444,-118"/>
<text text-anchor="middle" x="467" y="-125" font-family="Helvetica,sans-Serif" font-size="10.00">cstdint</text>
</a>
</g>
</g>
<!-- Node15&#45;&gt;Node16 -->
<g id="edge15" class="edge"><title>Node15&#45;&gt;Node16</title>
<path fill="none" stroke="midnightblue" d="M910.954,-242.053C849.28,-238.448 749.733,-228.184 669,-199 652.871,-193.17 651.79,-185.693 636,-179 578.036,-154.431 558.327,-164.067 499,-143 497.34,-142.411 495.648,-141.77 493.951,-141.097"/>
<polygon fill="midnightblue" stroke="midnightblue" points="494.958,-137.721 484.387,-137.019 492.213,-144.16 494.958,-137.721"/>
</g>
<!-- Node17 -->
<g id="node17" class="node"><title>Node17</title>
<g id="a_node17"><a xlink:title=" ">
<polygon fill="white" stroke="#bfbfbf" points="508,-118 508,-137 570,-137 570,-118 508,-118"/>
<text text-anchor="middle" x="539" y="-125" font-family="Helvetica,sans-Serif" font-size="10.00">type_traits</text>
</a>
</g>
</g>
<!-- Node15&#45;&gt;Node17 -->
<g id="edge16" class="edge"><title>Node15&#45;&gt;Node17</title>
<path fill="none" stroke="midnightblue" d="M910.809,-238.217C858.036,-231.942 778.551,-219.904 712,-199 691.891,-192.684 688.389,-187.265 669,-179 636.412,-165.109 598.611,-150.601 572.2,-140.718"/>
<polygon fill="midnightblue" stroke="midnightblue" points="573.263,-137.379 562.67,-137.168 570.819,-143.939 573.263,-137.379"/>
</g>
<!-- Node18 -->
<g id="node18" class="node"><title>Node18</title>
<g id="a_node18"><a xlink:href="executor__select_8h.html" target="_top" xlink:title=" ">
<polygon fill="white" stroke="black" points="931,-179.5 931,-198.5 1025,-198.5 1025,-179.5 931,-179.5"/>
<text text-anchor="middle" x="978" y="-186.5" font-family="Helvetica,sans-Serif" font-size="10.00">executor_select.h</text>
</a>
</g>
</g>
<!-- Node15&#45;&gt;Node18 -->
<g id="edge17" class="edge"><title>Node15&#45;&gt;Node18</title>
<path fill="none" stroke="midnightblue" d="M970.486,-235.083C971.679,-227.927 973.394,-217.635 974.885,-208.691"/>
<polygon fill="midnightblue" stroke="midnightblue" points="978.35,-209.19 976.541,-198.751 971.445,-208.04 978.35,-209.19"/>
</g>
<!-- Node19 -->
<g id="node19" class="node"><title>Node19</title>
<g id="a_node19"><a xlink:href="nix_2executor__select__impl_8h.html" target="_top" xlink:title=" ">
<polygon fill="white" stroke="black" points="1124.5,-112.5 1124.5,-142.5 1231.5,-142.5 1231.5,-112.5 1124.5,-112.5"/>
<text text-anchor="start" x="1132.5" y="-130.5" font-family="Helvetica,sans-Serif" font-size="10.00">platform/nix/executor</text>
<text text-anchor="middle" x="1178" y="-119.5" font-family="Helvetica,sans-Serif" font-size="10.00">_select_impl.h</text>
</a>
</g>
</g>
<!-- Node18&#45;&gt;Node19 -->
<g id="edge18" class="edge"><title>Node18&#45;&gt;Node19</title>
<path fill="none" stroke="midnightblue" d="M1006.66,-179.475C1036.4,-170.626 1083.72,-156.549 1121.1,-145.428"/>
<polygon fill="midnightblue" stroke="midnightblue" points="1122.28,-148.729 1130.86,-142.523 1120.28,-142.02 1122.28,-148.729"/>
</g>
<!-- Node19&#45;&gt;Node1 -->
<g id="edge20" class="edge"><title>Node19&#45;&gt;Node1</title>
<path fill="none" stroke="midnightblue" d="M1167.65,-142.862C1144.59,-174.518 1086.61,-252.157 1031,-311 1021.39,-321.165 1010.23,-331.617 1000.04,-340.698"/>
<polygon fill="midnightblue" stroke="midnightblue" points="997.68,-338.114 992.484,-347.347 1002.3,-343.369 997.68,-338.114"/>
</g>
<!-- Node19&#45;&gt;Node5 -->
<g id="edge19" class="edge"><title>Node19&#45;&gt;Node5</title>
<path fill="none" stroke="midnightblue" d="M1124.37,-113.736C1077.85,-102.663 1011.49,-86.8699 969.078,-76.7766"/>
<polygon fill="midnightblue" stroke="midnightblue" points="969.64,-73.3126 959.101,-74.4021 968.019,-80.1224 969.64,-73.3126"/>
</g>
<!-- Node20&#45;&gt;Node3 -->
<g id="edge23" class="edge"><title>Node20&#45;&gt;Node3</title>
<path fill="none" stroke="midnightblue" d="M626.756,-293.424C622.185,-292.492 617.473,-291.636 613,-291 374.424,-257.072 310.739,-287.764 72,-255 70.7249,-254.825 69.431,-254.634 68.1265,-254.43"/>
<polygon fill="midnightblue" stroke="midnightblue" points="68.5039,-250.942 58.0483,-252.654 67.2894,-257.836 68.5039,-250.942"/>
</g>
<!-- Node20&#45;&gt;Node5 -->
<g id="edge51" class="edge"><title>Node20&#45;&gt;Node5</title>
<path fill="none" stroke="midnightblue" d="M673.59,-291.453C694.151,-282.46 727.401,-267.855 756,-255 793.005,-238.367 883.602,-192.1 922,-179 988.934,-156.165 1033.01,-198.377 1077,-143 1109.32,-102.307 1023.63,-81.367 969.137,-72.4494"/>
<polygon fill="midnightblue" stroke="midnightblue" points="969.448,-68.9558 959.029,-70.873 968.37,-75.8722 969.448,-68.9558"/>
</g>
<!-- Node21 -->
<g id="node21" class="node"><title>Node21</title>
<g id="a_node21"><a xlink:title=" ">
<polygon fill="white" stroke="#bfbfbf" points="300.5,-118 300.5,-137 349.5,-137 349.5,-118 300.5,-118"/>
<text text-anchor="middle" x="325" y="-125" font-family="Helvetica,sans-Serif" font-size="10.00">cassert</text>
</a>
</g>
</g>
<!-- Node20&#45;&gt;Node21 -->
<g id="edge22" class="edge"><title>Node20&#45;&gt;Node21</title>
<path fill="none" stroke="midnightblue" d="M626.824,-291.418C601.749,-283.164 563.715,-269.786 532,-255 459.861,-221.367 381.422,-168.453 345.299,-143.054"/>
<polygon fill="midnightblue" stroke="midnightblue" points="347.24,-140.14 337.056,-137.217 343.195,-145.853 347.24,-140.14"/>
</g>
<!-- Node22 -->
<g id="node22" class="node"><title>Node22</title>
<g id="a_node22"><a xlink:href="address_8h.html" target="_top" xlink:title=" ">
<polygon fill="white" stroke="black" points="575.5,-235.5 575.5,-254.5 634.5,-254.5 634.5,-235.5 575.5,-235.5"/>
<text text-anchor="middle" x="605" y="-242.5" font-family="Helvetica,sans-Serif" font-size="10.00">address.h</text>
</a>
</g>
</g>
<!-- Node20&#45;&gt;Node22 -->
<g id="edge24" class="edge"><title>Node20&#45;&gt;Node22</title>
<path fill="none" stroke="midnightblue" d="M645.909,-291.083C638.845,-283.298 628.412,-271.801 619.851,-262.367"/>
<polygon fill="midnightblue" stroke="midnightblue" points="622.253,-259.805 612.941,-254.751 617.069,-264.509 622.253,-259.805"/>
</g>
<!-- Node25 -->
<g id="node25" class="node"><title>Node25</title>
<g id="a_node25"><a xlink:href="buffer_8h.html" target="_top" xlink:title=" ">
<polygon fill="white" stroke="black" points="443,-179.5 443,-198.5 491,-198.5 491,-179.5 443,-179.5"/>
<text text-anchor="middle" x="467" y="-186.5" font-family="Helvetica,sans-Serif" font-size="10.00">buffer.h</text>
</a>
</g>
</g>
<!-- Node20&#45;&gt;Node25 -->
<g id="edge50" class="edge"><title>Node20&#45;&gt;Node25</title>
<path fill="none" stroke="midnightblue" d="M635.83,-291.423C617.819,-282.755 589.584,-268.718 566,-255 538.103,-238.773 507.198,-218.009 487.461,-204.372"/>
<polygon fill="midnightblue" stroke="midnightblue" points="489.438,-201.484 479.23,-198.65 485.443,-207.232 489.438,-201.484"/>
</g>
<!-- Node26 -->
<g id="node26" class="node"><title>Node26</title>
<g id="a_node26"><a xlink:href="exception_8h.html" target="_top" xlink:title=" ">
<polygon fill="white" stroke="black" points="795.5,-179.5 795.5,-198.5 862.5,-198.5 862.5,-179.5 795.5,-179.5"/>
<text text-anchor="middle" x="829" y="-186.5" font-family="Helvetica,sans-Serif" font-size="10.00">exception.h</text>
</a>
</g>
</g>
<!-- Node20&#45;&gt;Node26 -->
<g id="edge52" class="edge"><title>Node20&#45;&gt;Node26</title>
<path fill="none" stroke="midnightblue" d="M667.732,-291.368C697.89,-272.412 770.135,-227.001 806.819,-203.942"/>
<polygon fill="midnightblue" stroke="midnightblue" points="808.728,-206.876 815.332,-198.591 805.003,-200.95 808.728,-206.876"/>
</g>
<!-- Node29 -->
<g id="node29" class="node"><title>Node29</title>
<g id="a_node29"><a xlink:href="useful__base__types_8h.html" target="_top" xlink:title=" ">
<polygon fill="white" stroke="black" points="71,-56.5 71,-75.5 177,-75.5 177,-56.5 71,-56.5"/>
<text text-anchor="middle" x="124" y="-63.5" font-family="Helvetica,sans-Serif" font-size="10.00">useful_base_types.h</text>
</a>
</g>
</g>
<!-- Node20&#45;&gt;Node29 -->
<g id="edge53" class="edge"><title>Node20&#45;&gt;Node29</title>
<path fill="none" stroke="midnightblue" d="M626.659,-293.968C622.099,-292.971 617.417,-291.952 613,-291 419.825,-249.371 350.398,-295.584 178,-199 148.104,-182.251 137.886,-174.753 125,-143 117.573,-124.7 118.489,-101.819 120.531,-85.9704"/>
<polygon fill="midnightblue" stroke="midnightblue" points="124.028,-86.2587 122.113,-75.8384 117.112,-85.1784 124.028,-86.2587"/>
</g>
<!-- Node30 -->
<g id="node30" class="node"><title>Node30</title>
<g id="a_node30"><a xlink:href="utils_8h.html" target="_top" xlink:title=" ">
<polygon fill="white" stroke="black" points="721.5,-179.5 721.5,-198.5 764.5,-198.5 764.5,-179.5 721.5,-179.5"/>
<text text-anchor="middle" x="743" y="-186.5" font-family="Helvetica,sans-Serif" font-size="10.00">utils.h</text>
</a>
</g>
</g>
<!-- Node20&#45;&gt;Node30 -->
<g id="edge54" class="edge"><title>Node20&#45;&gt;Node30</title>
<path fill="none" stroke="midnightblue" d="M660.984,-291.368C675.736,-273.135 710.292,-230.426 729.508,-206.675"/>
<polygon fill="midnightblue" stroke="midnightblue" points="732.48,-208.567 736.049,-198.591 727.038,-204.164 732.48,-208.567"/>
</g>
<!-- Node23 -->
<g id="node23" class="node"><title>Node23</title>
<g id="a_node23"><a xlink:title=" ">
<polygon fill="white" stroke="#bfbfbf" points="523.5,-179.5 523.5,-198.5 564.5,-198.5 564.5,-179.5 523.5,-179.5"/>
<text text-anchor="middle" x="544" y="-186.5" font-family="Helvetica,sans-Serif" font-size="10.00">string</text>
</a>
</g>
</g>
<!-- Node22&#45;&gt;Node23 -->
<g id="edge25" class="edge"><title>Node22&#45;&gt;Node23</title>
<path fill="none" stroke="midnightblue" d="M595.199,-235.324C586.182,-227.341 572.594,-215.313 561.682,-205.653"/>
<polygon fill="midnightblue" stroke="midnightblue" points="563.787,-202.842 553.979,-198.834 559.147,-208.083 563.787,-202.842"/>
</g>
<!-- Node24 -->
<g id="node24" class="node"><title>Node24</title>
<g id="a_node24"><a xlink:title=" ">
<polygon fill="white" stroke="#bfbfbf" points="583,-179.5 583,-198.5 627,-198.5 627,-179.5 583,-179.5"/>
<text text-anchor="middle" x="605" y="-186.5" font-family="Helvetica,sans-Serif" font-size="10.00">variant</text>
</a>
</g>
</g>
<!-- Node22&#45;&gt;Node24 -->
<g id="edge26" class="edge"><title>Node22&#45;&gt;Node24</title>
<path fill="none" stroke="midnightblue" d="M605,-235.083C605,-228.006 605,-217.861 605,-208.986"/>
<polygon fill="midnightblue" stroke="midnightblue" points="608.5,-208.751 605,-198.751 601.5,-208.751 608.5,-208.751"/>
</g>
<!-- Node22&#45;&gt;Node25 -->
<g id="edge27" class="edge"><title>Node22&#45;&gt;Node25</title>
<path fill="none" stroke="midnightblue" d="M583.133,-235.444C560.221,-226.478 524.025,-212.314 498.134,-202.183"/>
<polygon fill="midnightblue" stroke="midnightblue" points="499.352,-198.901 488.764,-198.516 496.801,-205.42 499.352,-198.901"/>
</g>
<!-- Node22&#45;&gt;Node26 -->
<g id="edge33" class="edge"><title>Node22&#45;&gt;Node26</title>
<path fill="none" stroke="midnightblue" d="M634.745,-236.829C673.388,-227.514 741.147,-211.179 785.548,-200.475"/>
<polygon fill="midnightblue" stroke="midnightblue" points="786.573,-203.828 795.474,-198.082 784.933,-197.023 786.573,-203.828"/>
</g>
<!-- Node27 -->
<g id="node27" class="node"><title>Node27</title>
<g id="a_node27"><a xlink:href="sys__socket__ops_8h.html" target="_top" xlink:title=" ">
<polygon fill="white" stroke="black" points="187,-179.5 187,-198.5 283,-198.5 283,-179.5 187,-179.5"/>
<text text-anchor="middle" x="235" y="-186.5" font-family="Helvetica,sans-Serif" font-size="10.00">sys_socket_ops.h</text>
</a>
</g>
</g>
<!-- Node22&#45;&gt;Node27 -->
<g id="edge36" class="edge"><title>Node22&#45;&gt;Node27</title>
<path fill="none" stroke="midnightblue" d="M575.347,-239.672C514.171,-230.744 373.015,-210.143 293.032,-198.47"/>
<polygon fill="midnightblue" stroke="midnightblue" points="293.517,-195.003 283.116,-197.022 292.506,-201.93 293.517,-195.003"/>
</g>
<!-- Node22&#45;&gt;Node30 -->
<g id="edge42" class="edge"><title>Node22&#45;&gt;Node30</title>
<path fill="none" stroke="midnightblue" d="M626.867,-235.444C649.779,-226.478 685.975,-212.314 711.866,-202.183"/>
<polygon fill="midnightblue" stroke="midnightblue" points="713.199,-205.42 721.236,-198.516 710.648,-198.901 713.199,-205.42"/>
</g>
<!-- Node25&#45;&gt;Node5 -->
<g id="edge32" class="edge"><title>Node25&#45;&gt;Node5</title>
<path fill="none" stroke="midnightblue" d="M458.059,-179.456C443.171,-164.223 416.661,-132.089 435,-112 465.207,-78.9099 773.301,-69.8698 886.538,-67.6548"/>
<polygon fill="midnightblue" stroke="midnightblue" points="886.939,-71.148 896.872,-67.4612 886.808,-64.1492 886.939,-71.148"/>
</g>
<!-- Node25&#45;&gt;Node14 -->
<g id="edge29" class="edge"><title>Node25&#45;&gt;Node14</title>
<path fill="none" stroke="midnightblue" d="M454.786,-179.236C444.646,-171.143 430.957,-158.112 425,-143 419.948,-130.182 421.861,-125.415 425,-112 432.36,-80.5454 451.024,-47.6525 463.35,-28.2602"/>
<polygon fill="midnightblue" stroke="midnightblue" points="466.429,-29.9453 468.969,-19.6593 460.569,-26.1165 466.429,-29.9453"/>
</g>
<!-- Node25&#45;&gt;Node16 -->
<g id="edge30" class="edge"><title>Node25&#45;&gt;Node16</title>
<path fill="none" stroke="midnightblue" d="M467,-179.475C467,-171.08 467,-157.981 467,-147.163"/>
<polygon fill="midnightblue" stroke="midnightblue" points="470.5,-147.009 467,-137.009 463.5,-147.009 470.5,-147.009"/>
</g>
<!-- Node25&#45;&gt;Node17 -->
<g id="edge31" class="edge"><title>Node25&#45;&gt;Node17</title>
<path fill="none" stroke="midnightblue" d="M477.316,-179.475C488.651,-170.108 507.073,-154.884 520.839,-143.508"/>
<polygon fill="midnightblue" stroke="midnightblue" points="523.224,-146.077 528.703,-137.009 518.765,-140.681 523.224,-146.077"/>
</g>
<!-- Node25&#45;&gt;Node21 -->
<g id="edge28" class="edge"><title>Node25&#45;&gt;Node21</title>
<path fill="none" stroke="midnightblue" d="M446.655,-179.475C422.613,-169.401 382.403,-152.553 354.837,-141.002"/>
<polygon fill="midnightblue" stroke="midnightblue" points="355.883,-137.646 345.307,-137.009 353.178,-144.102 355.883,-137.646"/>
</g>
<!-- Node26&#45;&gt;Node4 -->
<g id="edge34" class="edge"><title>Node26&#45;&gt;Node4</title>
<path fill="none" stroke="midnightblue" d="M857.942,-179.475C893.267,-169.07 953.131,-151.437 992.365,-139.88"/>
<polygon fill="midnightblue" stroke="midnightblue" points="993.508,-143.192 1002.11,-137.009 991.531,-136.477 993.508,-143.192"/>
</g>
<!-- Node26&#45;&gt;Node5 -->
<g id="edge35" class="edge"><title>Node26&#45;&gt;Node5</title>
<path fill="none" stroke="midnightblue" d="M861.318,-179.498C891.269,-170.888 932.578,-156.894 942,-143 953.723,-125.713 946.01,-101.343 938.164,-84.8996"/>
<polygon fill="midnightblue" stroke="midnightblue" points="941.159,-83.0719 933.435,-75.8195 934.95,-86.3054 941.159,-83.0719"/>
</g>
<!-- Node27&#45;&gt;Node5 -->
<g id="edge37" class="edge"><title>Node27&#45;&gt;Node5</title>
<path fill="none" stroke="midnightblue" d="M238.361,-179.484C245.348,-163.071 263.145,-127.331 291,-112 343.011,-83.3734 753.944,-71.1472 886.756,-67.9178"/>
<polygon fill="midnightblue" stroke="midnightblue" points="887.008,-71.4129 896.921,-67.6751 886.841,-64.4149 887.008,-71.4129"/>
</g>
<!-- Node28 -->
<g id="node28" class="node"><title>Node28</title>
<g id="a_node28"><a xlink:href="sys__error__code_8h.html" target="_top" xlink:title=" ">
<polygon fill="white" stroke="black" points="152,-118 152,-137 244,-137 244,-118 152,-118"/>
<text text-anchor="middle" x="198" y="-125" font-family="Helvetica,sans-Serif" font-size="10.00">sys_error_code.h</text>
</a>
</g>
</g>
<!-- Node27&#45;&gt;Node28 -->
<g id="edge38" class="edge"><title>Node27&#45;&gt;Node28</title>
<path fill="none" stroke="midnightblue" d="M229.699,-179.475C224.259,-170.727 215.641,-156.869 208.764,-145.809"/>
<polygon fill="midnightblue" stroke="midnightblue" points="211.544,-143.653 203.291,-137.009 205.6,-147.349 211.544,-143.653"/>
</g>
<!-- Node27&#45;&gt;Node29 -->
<g id="edge41" class="edge"><title>Node27&#45;&gt;Node29</title>
<path fill="none" stroke="midnightblue" d="M201.549,-179.395C181.764,-172.638 157.766,-161.244 143,-143 129.791,-126.68 125.604,-102.406 124.361,-85.7056"/>
<polygon fill="midnightblue" stroke="midnightblue" points="127.849,-85.3742 123.896,-75.5446 120.856,-85.6941 127.849,-85.3742"/>
</g>
<!-- Node28&#45;&gt;Node5 -->
<g id="edge39" class="edge"><title>Node28&#45;&gt;Node5</title>
<path fill="none" stroke="midnightblue" d="M228.941,-117.96C238.22,-115.687 248.466,-113.461 258,-112 493.91,-75.8408 780.975,-68.7362 886.516,-67.3408"/>
<polygon fill="midnightblue" stroke="midnightblue" points="886.781,-70.838 896.738,-67.2163 886.696,-63.8385 886.781,-70.838"/>
</g>
<!-- Node28&#45;&gt;Node29 -->
<g id="edge40" class="edge"><title>Node28&#45;&gt;Node29</title>
<path fill="none" stroke="midnightblue" d="M187.398,-117.975C175.748,-108.608 156.814,-93.3839 142.665,-82.0081"/>
<polygon fill="midnightblue" stroke="midnightblue" points="144.569,-79.0477 134.583,-75.5091 140.183,-84.503 144.569,-79.0477"/>
</g>
<!-- Node30&#45;&gt;Node4 -->
<g id="edge46" class="edge"><title>Node30&#45;&gt;Node4</title>
<path fill="none" stroke="midnightblue" d="M764.873,-183.409C771.644,-181.991 779.13,-180.427 786,-179 854.677,-164.735 934.217,-148.369 983.576,-138.23"/>
<polygon fill="midnightblue" stroke="midnightblue" points="984.545,-141.605 993.636,-136.165 983.137,-134.748 984.545,-141.605"/>
</g>
<!-- Node30&#45;&gt;Node5 -->
<g id="edge49" class="edge"><title>Node30&#45;&gt;Node5</title>
<path fill="none" stroke="midnightblue" d="M764.72,-183.394C807.361,-174.169 898.783,-153.421 909,-143 923.776,-127.929 927.62,-103.202 928.356,-86.0636"/>
<polygon fill="midnightblue" stroke="midnightblue" points="931.86,-85.6593 928.465,-75.6233 924.86,-85.5861 931.86,-85.6593"/>
</g>
<!-- Node30&#45;&gt;Node17 -->
<g id="edge47" class="edge"><title>Node30&#45;&gt;Node17</title>
<path fill="none" stroke="midnightblue" d="M721.348,-182.647C689.815,-174.719 629.506,-159.055 579,-143 576.448,-142.189 573.817,-141.317 571.18,-140.417"/>
<polygon fill="midnightblue" stroke="midnightblue" points="572.332,-137.112 561.737,-137.099 570.011,-143.716 572.332,-137.112"/>
</g>
<!-- Node31 -->
<g id="node31" class="node"><title>Node31</title>
<g id="a_node31"><a xlink:title=" ">
<polygon fill="white" stroke="#bfbfbf" points="840,-118 840,-137 900,-137 900,-118 840,-118"/>
<text text-anchor="middle" x="870" y="-125" font-family="Helvetica,sans-Serif" font-size="10.00">fmt/core.h</text>
</a>
</g>
</g>
<!-- Node30&#45;&gt;Node31 -->
<g id="edge43" class="edge"><title>Node30&#45;&gt;Node31</title>
<path fill="none" stroke="midnightblue" d="M761.196,-179.475C782.509,-169.49 818.031,-152.848 842.663,-141.307"/>
<polygon fill="midnightblue" stroke="midnightblue" points="844.267,-144.421 851.838,-137.009 841.297,-138.082 844.267,-144.421"/>
</g>
<!-- Node32 -->
<g id="node32" class="node"><title>Node32</title>
<g id="a_node32"><a xlink:title=" ">
<polygon fill="white" stroke="#bfbfbf" points="588,-118 588,-137 656,-137 656,-118 588,-118"/>
<text text-anchor="middle" x="622" y="-125" font-family="Helvetica,sans-Serif" font-size="10.00">fmt/format.h</text>
</a>
</g>
</g>
<!-- Node30&#45;&gt;Node32 -->
<g id="edge44" class="edge"><title>Node30&#45;&gt;Node32</title>
<path fill="none" stroke="midnightblue" d="M725.664,-179.475C705.447,-169.534 671.813,-152.995 648.358,-141.461"/>
<polygon fill="midnightblue" stroke="midnightblue" points="649.822,-138.281 639.304,-137.009 646.733,-144.563 649.822,-138.281"/>
</g>
<!-- Node33 -->
<g id="node33" class="node"><title>Node33</title>
<g id="a_node33"><a xlink:title=" ">
<polygon fill="white" stroke="#bfbfbf" points="674,-118 674,-137 720,-137 720,-118 674,-118"/>
<text text-anchor="middle" x="697" y="-125" font-family="Helvetica,sans-Serif" font-size="10.00">cstring</text>
</a>
</g>
</g>
<!-- Node30&#45;&gt;Node33 -->
<g id="edge45" class="edge"><title>Node30&#45;&gt;Node33</title>
<path fill="none" stroke="midnightblue" d="M736.409,-179.475C729.509,-170.55 718.498,-156.307 709.866,-145.143"/>
<polygon fill="midnightblue" stroke="midnightblue" points="712.464,-142.78 703.578,-137.009 706.926,-147.061 712.464,-142.78"/>
</g>
<!-- Node34 -->
<g id="node34" class="node"><title>Node34</title>
<g id="a_node34"><a xlink:title=" ">
<polygon fill="white" stroke="#bfbfbf" points="738.5,-118 738.5,-137 821.5,-137 821.5,-118 738.5,-118"/>
<text text-anchor="middle" x="780" y="-125" font-family="Helvetica,sans-Serif" font-size="10.00">unordered_map</text>
</a>
</g>
</g>
<!-- Node30&#45;&gt;Node34 -->
<g id="edge48" class="edge"><title>Node30&#45;&gt;Node34</title>
<path fill="none" stroke="midnightblue" d="M748.301,-179.475C753.741,-170.727 762.359,-156.869 769.236,-145.809"/>
<polygon fill="midnightblue" stroke="midnightblue" points="772.4,-147.349 774.709,-137.009 766.456,-143.653 772.4,-147.349"/>
</g>
</g>
</svg>
