<?xml version="1.0" encoding="UTF-8" standalone="no"?>
<!DOCTYPE svg PUBLIC "-//W3C//DTD SVG 1.1//EN"
 "http://www.w3.org/Graphics/SVG/1.1/DTD/svg11.dtd">
<!-- Generated by graphviz version 2.38.0 (20140413.2041)
 -->
<!-- Title: C:/projects/ndt/sources/include/ndt/executor_select_base.h Pages: 1 -->
<svg width="1496pt" height="397pt"
 viewBox="0.00 0.00 1495.50 397.00" xmlns="http://www.w3.org/2000/svg" xmlns:xlink="http://www.w3.org/1999/xlink">
<g id="graph0" class="graph" transform="scale(1 1) rotate(0) translate(4 393)">
<title>C:/projects/ndt/sources/include/ndt/executor_select_base.h</title>
<polygon fill="white" stroke="none" points="-4,4 -4,-393 1491.5,-393 1491.5,4 -4,4"/>
<!-- Node1 -->
<g id="node1" class="node"><title>Node1</title>
<g id="a_node1"><a xlink:title=" ">
<polygon fill="#bfbfbf" stroke="black" points="366.5,-347.5 366.5,-388.5 484.5,-388.5 484.5,-347.5 366.5,-347.5"/>
<text text-anchor="start" x="374.5" y="-376.5" font-family="Helvetica,sans-Serif" font-size="10.00">C:/projects/ndt/sources</text>
<text text-anchor="start" x="374.5" y="-365.5" font-family="Helvetica,sans-Serif" font-size="10.00">/include/ndt/executor</text>
<text text-anchor="middle" x="425.5" y="-354.5" font-family="Helvetica,sans-Serif" font-size="10.00">_select_base.h</text>
</a>
</g>
</g>
<!-- Node2 -->
<g id="node2" class="node"><title>Node2</title>
<g id="a_node2"><a xlink:title=" ">
<polygon fill="white" stroke="#bfbfbf" points="1055.5,-56.5 1055.5,-75.5 1093.5,-75.5 1093.5,-56.5 1055.5,-56.5"/>
<text text-anchor="middle" x="1074.5" y="-63.5" font-family="Helvetica,sans-Serif" font-size="10.00">array</text>
</a>
</g>
</g>
<!-- Node1&#45;&gt;Node2 -->
<g id="edge1" class="edge"><title>Node1&#45;&gt;Node2</title>
<path fill="none" stroke="midnightblue" d="M484.68,-367.237C580.268,-366.123 773.677,-357.631 929.5,-311 986.428,-293.964 1068.39,-286.929 1039.5,-235 1024.75,-208.487 1007.06,-215.347 981.5,-199 943.389,-174.624 917.955,-182.828 896.5,-143 889.966,-130.87 887.97,-122.82 896.5,-112 937.04,-60.579 976.751,-91.4199 1045.4,-75.9"/>
<polygon fill="midnightblue" stroke="midnightblue" points="1046.45,-79.2442 1055.28,-73.389 1044.72,-72.4598 1046.45,-79.2442"/>
</g>
<!-- Node3 -->
<g id="node3" class="node"><title>Node3</title>
<g id="a_node3"><a xlink:title=" ">
<polygon fill="white" stroke="#bfbfbf" points="130.5,-235.5 130.5,-254.5 188.5,-254.5 188.5,-235.5 130.5,-235.5"/>
<text text-anchor="middle" x="159.5" y="-242.5" font-family="Helvetica,sans-Serif" font-size="10.00">functional</text>
</a>
</g>
</g>
<!-- Node1&#45;&gt;Node3 -->
<g id="edge2" class="edge"><title>Node1&#45;&gt;Node3</title>
<path fill="none" stroke="midnightblue" d="M382.467,-347.425C327.557,-322.447 234.132,-279.949 187.587,-258.776"/>
<polygon fill="midnightblue" stroke="midnightblue" points="188.949,-255.551 178.397,-254.596 186.05,-261.922 188.949,-255.551"/>
</g>
<!-- Node4 -->
<g id="node4" class="node"><title>Node4</title>
<g id="a_node4"><a xlink:title=" ">
<polygon fill="white" stroke="#bfbfbf" points="718.5,-56.5 718.5,-75.5 792.5,-75.5 792.5,-56.5 718.5,-56.5"/>
<text text-anchor="middle" x="755.5" y="-63.5" font-family="Helvetica,sans-Serif" font-size="10.00">system_error</text>
</a>
</g>
</g>
<!-- Node1&#45;&gt;Node4 -->
<g id="edge3" class="edge"><title>Node1&#45;&gt;Node4</title>
<path fill="none" stroke="midnightblue" d="M484.618,-365.174C582.84,-358.441 775.832,-328.53 846.5,-199 871.22,-153.691 812.385,-104.764 778.068,-81.2329"/>
<polygon fill="midnightblue" stroke="midnightblue" points="779.798,-78.1795 769.533,-75.5536 775.92,-84.0072 779.798,-78.1795"/>
</g>
<!-- Node5 -->
<g id="node5" class="node"><title>Node5</title>
<g id="a_node5"><a xlink:href="common_8h.html" target="_top" xlink:title="Header with typedefs to make type designation platform independent.">
<polygon fill="white" stroke="black" points="272.5,-56.5 272.5,-75.5 334.5,-75.5 334.5,-56.5 272.5,-56.5"/>
<text text-anchor="middle" x="303.5" y="-63.5" font-family="Helvetica,sans-Serif" font-size="10.00">common.h</text>
</a>
</g>
</g>
<!-- Node1&#45;&gt;Node5 -->
<g id="edge4" class="edge"><title>Node1&#45;&gt;Node5</title>
<path fill="none" stroke="midnightblue" d="M366.438,-360.497C260.125,-347.137 47.5,-312.149 47.5,-246 47.5,-246 47.5,-246 47.5,-188 47.5,-94.1737 189.8,-72.9946 262.214,-68.2913"/>
<polygon fill="midnightblue" stroke="midnightblue" points="262.582,-71.7761 272.365,-67.7103 262.182,-64.7875 262.582,-71.7761"/>
</g>
<!-- Node15 -->
<g id="node15" class="node"><title>Node15</title>
<g id="a_node15"><a xlink:href="event__handler__select_8h.html" target="_top" xlink:title=" ">
<polygon fill="white" stroke="black" points="914.5,-235.5 914.5,-254.5 1030.5,-254.5 1030.5,-235.5 914.5,-235.5"/>
<text text-anchor="middle" x="972.5" y="-242.5" font-family="Helvetica,sans-Serif" font-size="10.00">event_handler_select.h</text>
</a>
</g>
</g>
<!-- Node1&#45;&gt;Node15 -->
<g id="edge14" class="edge"><title>Node1&#45;&gt;Node15</title>
<path fill="none" stroke="midnightblue" d="M484.813,-364.488C595.209,-359.082 827.621,-344.059 900.5,-311 924.602,-300.067 946.246,-278.061 959.367,-262.698"/>
<polygon fill="midnightblue" stroke="midnightblue" points="962.415,-264.501 966.061,-254.554 957.008,-260.056 962.415,-264.501"/>
</g>
<!-- Node20 -->
<g id="node20" class="node"><title>Node20</title>
<g id="a_node20"><a xlink:href="socket_8h.html" target="_top" xlink:title=" ">
<polygon fill="white" stroke="black" points="398.5,-291.5 398.5,-310.5 452.5,-310.5 452.5,-291.5 398.5,-291.5"/>
<text text-anchor="middle" x="425.5" y="-298.5" font-family="Helvetica,sans-Serif" font-size="10.00">socket.h</text>
</a>
</g>
</g>
<!-- Node1&#45;&gt;Node20 -->
<g id="edge21" class="edge"><title>Node1&#45;&gt;Node20</title>
<path fill="none" stroke="midnightblue" d="M425.5,-347.498C425.5,-339.065 425.5,-329.235 425.5,-320.874"/>
<polygon fill="midnightblue" stroke="midnightblue" points="429,-320.652 425.5,-310.652 422,-320.653 429,-320.652"/>
</g>
<!-- Node6 -->
<g id="node6" class="node"><title>Node6</title>
<g id="a_node6"><a xlink:title=" ">
<polygon fill="white" stroke="#bfbfbf" points="523.5,-0.5 523.5,-19.5 585.5,-19.5 585.5,-0.5 523.5,-0.5"/>
<text text-anchor="middle" x="554.5" y="-7.5" font-family="Helvetica,sans-Serif" font-size="10.00">arpa/inet.h</text>
</a>
</g>
</g>
<!-- Node5&#45;&gt;Node6 -->
<g id="edge5" class="edge"><title>Node5&#45;&gt;Node6</title>
<path fill="none" stroke="midnightblue" d="M334.5,-57.9844C337.54,-57.3086 340.579,-56.6378 343.5,-56 415.858,-40.1989 436.347,-36.5679 513.012,-20.0899"/>
<polygon fill="midnightblue" stroke="midnightblue" points="514.127,-23.4302 523.166,-17.9032 512.653,-16.5871 514.127,-23.4302"/>
</g>
<!-- Node7 -->
<g id="node7" class="node"><title>Node7</title>
<g id="a_node7"><a xlink:title=" ">
<polygon fill="white" stroke="#bfbfbf" points="0,-0.5 0,-19.5 47,-19.5 47,-0.5 0,-0.5"/>
<text text-anchor="middle" x="23.5" y="-7.5" font-family="Helvetica,sans-Serif" font-size="10.00">errno.h</text>
</a>
</g>
</g>
<!-- Node5&#45;&gt;Node7 -->
<g id="edge6" class="edge"><title>Node5&#45;&gt;Node7</title>
<path fill="none" stroke="midnightblue" d="M272.377,-60.323C226.998,-53.2939 139.854,-39.0043 57.0175,-20.1914"/>
<polygon fill="midnightblue" stroke="midnightblue" points="57.7311,-16.7642 47.2013,-17.9356 56.1634,-23.5864 57.7311,-16.7642"/>
</g>
<!-- Node8 -->
<g id="node8" class="node"><title>Node8</title>
<g id="a_node8"><a xlink:title=" ">
<polygon fill="white" stroke="#bfbfbf" points="65,-0.5 65,-19.5 108,-19.5 108,-0.5 65,-0.5"/>
<text text-anchor="middle" x="86.5" y="-7.5" font-family="Helvetica,sans-Serif" font-size="10.00">fcntl.h</text>
</a>
</g>
</g>
<!-- Node5&#45;&gt;Node8 -->
<g id="edge7" class="edge"><title>Node5&#45;&gt;Node8</title>
<path fill="none" stroke="midnightblue" d="M272.264,-58.0393C236.989,-50.0573 177.66,-36.2683 118.044,-20.316"/>
<polygon fill="midnightblue" stroke="midnightblue" points="118.656,-16.8558 108.089,-17.6323 116.833,-23.6146 118.656,-16.8558"/>
</g>
<!-- Node9 -->
<g id="node9" class="node"><title>Node9</title>
<g id="a_node9"><a xlink:title=" ">
<polygon fill="white" stroke="#bfbfbf" points="126,-0.5 126,-19.5 175,-19.5 175,-0.5 126,-0.5"/>
<text text-anchor="middle" x="150.5" y="-7.5" font-family="Helvetica,sans-Serif" font-size="10.00">netdb.h</text>
</a>
</g>
</g>
<!-- Node5&#45;&gt;Node9 -->
<g id="edge8" class="edge"><title>Node5&#45;&gt;Node9</title>
<path fill="none" stroke="midnightblue" d="M279.257,-56.4435C253.629,-47.3986 213.015,-33.064 184.262,-22.9158"/>
<polygon fill="midnightblue" stroke="midnightblue" points="185.225,-19.5442 174.63,-19.5164 182.895,-26.1452 185.225,-19.5442"/>
</g>
<!-- Node10 -->
<g id="node10" class="node"><title>Node10</title>
<g id="a_node10"><a xlink:title=" ">
<polygon fill="white" stroke="#bfbfbf" points="193,-0.5 193,-19.5 258,-19.5 258,-0.5 193,-0.5"/>
<text text-anchor="middle" x="225.5" y="-7.5" font-family="Helvetica,sans-Serif" font-size="10.00">netinet/in.h</text>
</a>
</g>
</g>
<!-- Node5&#45;&gt;Node10 -->
<g id="edge9" class="edge"><title>Node5&#45;&gt;Node10</title>
<path fill="none" stroke="midnightblue" d="M290.968,-56.324C278.914,-47.979 260.473,-35.2122 246.231,-25.3524"/>
<polygon fill="midnightblue" stroke="midnightblue" points="248.215,-22.469 238.001,-19.6545 244.231,-28.2243 248.215,-22.469"/>
</g>
<!-- Node11 -->
<g id="node11" class="node"><title>Node11</title>
<g id="a_node11"><a xlink:title=" ">
<polygon fill="white" stroke="#bfbfbf" points="276,-0.5 276,-19.5 349,-19.5 349,-0.5 276,-0.5"/>
<text text-anchor="middle" x="312.5" y="-7.5" font-family="Helvetica,sans-Serif" font-size="10.00">sys/socket.h</text>
</a>
</g>
</g>
<!-- Node5&#45;&gt;Node11 -->
<g id="edge10" class="edge"><title>Node5&#45;&gt;Node11</title>
<path fill="none" stroke="midnightblue" d="M304.986,-56.083C306.179,-48.9272 307.894,-38.6353 309.385,-29.6911"/>
<polygon fill="midnightblue" stroke="midnightblue" points="312.85,-30.1904 311.041,-19.7511 305.945,-29.0396 312.85,-30.1904"/>
</g>
<!-- Node12 -->
<g id="node12" class="node"><title>Node12</title>
<g id="a_node12"><a xlink:title=" ">
<polygon fill="white" stroke="#bfbfbf" points="367.5,-0.5 367.5,-19.5 435.5,-19.5 435.5,-0.5 367.5,-0.5"/>
<text text-anchor="middle" x="401.5" y="-7.5" font-family="Helvetica,sans-Serif" font-size="10.00">sys/types.h</text>
</a>
</g>
</g>
<!-- Node5&#45;&gt;Node12 -->
<g id="edge11" class="edge"><title>Node5&#45;&gt;Node12</title>
<path fill="none" stroke="midnightblue" d="M319.245,-56.324C334.819,-47.7428 358.877,-34.486 376.959,-24.5224"/>
<polygon fill="midnightblue" stroke="midnightblue" points="378.724,-27.546 385.794,-19.6545 375.346,-21.4152 378.724,-27.546"/>
</g>
<!-- Node13 -->
<g id="node13" class="node"><title>Node13</title>
<g id="a_node13"><a xlink:title=" ">
<polygon fill="white" stroke="#bfbfbf" points="454,-0.5 454,-19.5 505,-19.5 505,-0.5 454,-0.5"/>
<text text-anchor="middle" x="479.5" y="-7.5" font-family="Helvetica,sans-Serif" font-size="10.00">unistd.h</text>
</a>
</g>
</g>
<!-- Node5&#45;&gt;Node13 -->
<g id="edge12" class="edge"><title>Node5&#45;&gt;Node13</title>
<path fill="none" stroke="midnightblue" d="M331.388,-56.4435C361.869,-47.0914 410.781,-32.0844 443.984,-21.8969"/>
<polygon fill="midnightblue" stroke="midnightblue" points="445.213,-25.1809 453.747,-18.9015 443.16,-18.4888 445.213,-25.1809"/>
</g>
<!-- Node14 -->
<g id="node14" class="node"><title>Node14</title>
<g id="a_node14"><a xlink:title=" ">
<polygon fill="white" stroke="#bfbfbf" points="611.5,-0.5 611.5,-19.5 659.5,-19.5 659.5,-0.5 611.5,-0.5"/>
<text text-anchor="middle" x="635.5" y="-7.5" font-family="Helvetica,sans-Serif" font-size="10.00">cstddef</text>
</a>
</g>
</g>
<!-- Node5&#45;&gt;Node14 -->
<g id="edge13" class="edge"><title>Node5&#45;&gt;Node14</title>
<path fill="none" stroke="midnightblue" d="M334.895,-57.6905C337.798,-57.0888 340.7,-56.515 343.5,-56 454.338,-35.615 483.609,-40.0952 594.5,-20 596.714,-19.5988 598.99,-19.1635 601.282,-18.708"/>
<polygon fill="midnightblue" stroke="midnightblue" points="602.201,-22.0917 611.278,-16.6266 600.774,-15.2387 602.201,-22.0917"/>
</g>
<!-- Node16 -->
<g id="node16" class="node"><title>Node16</title>
<g id="a_node16"><a xlink:title=" ">
<polygon fill="white" stroke="#bfbfbf" points="816.5,-56.5 816.5,-75.5 862.5,-75.5 862.5,-56.5 816.5,-56.5"/>
<text text-anchor="middle" x="839.5" y="-63.5" font-family="Helvetica,sans-Serif" font-size="10.00">cstdint</text>
</a>
</g>
</g>
<!-- Node15&#45;&gt;Node16 -->
<g id="edge15" class="edge"><title>Node15&#45;&gt;Node16</title>
<path fill="none" stroke="midnightblue" d="M962.82,-235.277C936.803,-211.801 867.09,-148.666 863.5,-143 852.298,-125.317 845.955,-101.993 842.639,-85.8704"/>
<polygon fill="midnightblue" stroke="midnightblue" points="845.997,-84.7819 840.734,-75.5868 839.114,-86.0571 845.997,-84.7819"/>
</g>
<!-- Node17 -->
<g id="node17" class="node"><title>Node17</title>
<g id="a_node17"><a xlink:title=" ">
<polygon fill="white" stroke="#bfbfbf" points="975.5,-56.5 975.5,-75.5 1037.5,-75.5 1037.5,-56.5 975.5,-56.5"/>
<text text-anchor="middle" x="1006.5" y="-63.5" font-family="Helvetica,sans-Serif" font-size="10.00">type_traits</text>
</a>
</g>
</g>
<!-- Node15&#45;&gt;Node17 -->
<g id="edge16" class="edge"><title>Node15&#45;&gt;Node17</title>
<path fill="none" stroke="midnightblue" d="M1001.4,-235.453C1019.21,-228.594 1040.82,-217.068 1052.5,-199 1073.52,-166.471 1073.43,-147.302 1057.5,-112 1051.88,-99.5553 1040.94,-89.1723 1030.62,-81.5273"/>
<polygon fill="midnightblue" stroke="midnightblue" points="1032.46,-78.5431 1022.23,-75.7643 1028.49,-84.3123 1032.46,-78.5431"/>
</g>
<!-- Node18 -->
<g id="node18" class="node"><title>Node18</title>
<g id="a_node18"><a xlink:href="executor__select_8h.html" target="_top" xlink:title=" ">
<polygon fill="white" stroke="black" points="726.5,-179.5 726.5,-198.5 820.5,-198.5 820.5,-179.5 726.5,-179.5"/>
<text text-anchor="middle" x="773.5" y="-186.5" font-family="Helvetica,sans-Serif" font-size="10.00">executor_select.h</text>
</a>
</g>
</g>
<!-- Node15&#45;&gt;Node18 -->
<g id="edge17" class="edge"><title>Node15&#45;&gt;Node18</title>
<path fill="none" stroke="midnightblue" d="M940.968,-235.444C906.908,-226.201 852.494,-211.436 814.985,-201.257"/>
<polygon fill="midnightblue" stroke="midnightblue" points="815.452,-197.758 804.885,-198.516 813.619,-204.513 815.452,-197.758"/>
</g>
<!-- Node19 -->
<g id="node19" class="node"><title>Node19</title>
<g id="a_node19"><a xlink:href="nix_2executor__select__impl_8h.html" target="_top" xlink:title=" ">
<polygon fill="white" stroke="black" points="114,-112.5 114,-142.5 221,-142.5 221,-112.5 114,-112.5"/>
<text text-anchor="start" x="122" y="-130.5" font-family="Helvetica,sans-Serif" font-size="10.00">platform/nix/executor</text>
<text text-anchor="middle" x="167.5" y="-119.5" font-family="Helvetica,sans-Serif" font-size="10.00">_select_impl.h</text>
</a>
</g>
</g>
<!-- Node18&#45;&gt;Node19 -->
<g id="edge18" class="edge"><title>Node18&#45;&gt;Node19</title>
<path fill="none" stroke="midnightblue" d="M726.213,-183.465C615.853,-172.877 347.529,-147.117 306.5,-143 282,-140.542 255.082,-137.754 231.512,-135.284"/>
<polygon fill="midnightblue" stroke="midnightblue" points="231.597,-131.774 221.287,-134.211 230.867,-138.736 231.597,-131.774"/>
</g>
<!-- Node19&#45;&gt;Node1 -->
<g id="edge20" class="edge"><title>Node19&#45;&gt;Node1</title>
<path fill="none" stroke="midnightblue" d="M154.313,-142.808C133.321,-167.385 97.0538,-218.496 121.5,-255 172.988,-331.883 283.843,-356.204 356.501,-363.769"/>
<polygon fill="midnightblue" stroke="midnightblue" points="356.201,-367.256 366.49,-364.729 356.87,-360.288 356.201,-367.256"/>
</g>
<!-- Node19&#45;&gt;Node5 -->
<g id="edge19" class="edge"><title>Node19&#45;&gt;Node5</title>
<path fill="none" stroke="midnightblue" d="M199.73,-112.399C222.345,-102.505 252.338,-89.3832 274.261,-79.7919"/>
<polygon fill="midnightblue" stroke="midnightblue" points="275.952,-82.8726 283.711,-75.6578 273.146,-76.4595 275.952,-82.8726"/>
</g>
<!-- Node20&#45;&gt;Node3 -->
<g id="edge23" class="edge"><title>Node20&#45;&gt;Node3</title>
<path fill="none" stroke="midnightblue" d="M398.369,-294.591C356.373,-286.203 273.104,-269.512 202.5,-255 201.239,-254.741 199.958,-254.477 198.664,-254.21"/>
<polygon fill="midnightblue" stroke="midnightblue" points="199.141,-250.734 188.638,-252.128 197.718,-257.588 199.141,-250.734"/>
</g>
<!-- Node20&#45;&gt;Node5 -->
<g id="edge67" class="edge"><title>Node20&#45;&gt;Node5</title>
<path fill="none" stroke="midnightblue" d="M398.018,-296.622C332.418,-286.881 167.47,-252.064 104.5,-143 69.6582,-82.6538 193.907,-69.9684 261.934,-67.4764"/>
<polygon fill="midnightblue" stroke="midnightblue" points="262.448,-70.9624 272.336,-67.1582 262.234,-63.9656 262.448,-70.9624"/>
</g>
<!-- Node21 -->
<g id="node21" class="node"><title>Node21</title>
<g id="a_node21"><a xlink:title=" ">
<polygon fill="white" stroke="#bfbfbf" points="353,-56.5 353,-75.5 402,-75.5 402,-56.5 353,-56.5"/>
<text text-anchor="middle" x="377.5" y="-63.5" font-family="Helvetica,sans-Serif" font-size="10.00">cassert</text>
</a>
</g>
</g>
<!-- Node20&#45;&gt;Node21 -->
<g id="edge22" class="edge"><title>Node20&#45;&gt;Node21</title>
<path fill="none" stroke="midnightblue" d="M399.188,-291.427C363.225,-278.117 300.149,-248.703 273.5,-199 257.354,-168.885 294.132,-125.771 306.5,-112 318.419,-98.7292 335.141,-87.8726 349.363,-80.1501"/>
<polygon fill="midnightblue" stroke="midnightblue" points="351.004,-83.242 358.273,-75.5339 347.784,-77.0267 351.004,-83.242"/>
</g>
<!-- Node22 -->
<g id="node22" class="node"><title>Node22</title>
<g id="a_node22"><a xlink:href="address_8h.html" target="_top" xlink:title=" ">
<polygon fill="white" stroke="black" points="558,-235.5 558,-254.5 617,-254.5 617,-235.5 558,-235.5"/>
<text text-anchor="middle" x="587.5" y="-242.5" font-family="Helvetica,sans-Serif" font-size="10.00">address.h</text>
</a>
</g>
</g>
<!-- Node20&#45;&gt;Node22 -->
<g id="edge24" class="edge"><title>Node20&#45;&gt;Node22</title>
<path fill="none" stroke="midnightblue" d="M451.169,-291.444C478.423,-282.359 521.684,-267.939 552.151,-257.783"/>
<polygon fill="midnightblue" stroke="midnightblue" points="553.571,-260.999 561.951,-254.516 551.357,-254.358 553.571,-260.999"/>
</g>
<!-- Node28 -->
<g id="node28" class="node"><title>Node28</title>
<g id="a_node28"><a xlink:href="buffer_8h.html" target="_top" xlink:title=" ">
<polygon fill="white" stroke="black" points="725.5,-118 725.5,-137 773.5,-137 773.5,-118 725.5,-118"/>
<text text-anchor="middle" x="749.5" y="-125" font-family="Helvetica,sans-Serif" font-size="10.00">buffer.h</text>
</a>
</g>
</g>
<!-- Node20&#45;&gt;Node28 -->
<g id="edge66" class="edge"><title>Node20&#45;&gt;Node28</title>
<path fill="none" stroke="midnightblue" d="M452.789,-297.505C535.886,-289.282 782.979,-260.013 829.5,-199 847.428,-175.488 811.847,-153.873 782.546,-140.939"/>
<polygon fill="midnightblue" stroke="midnightblue" points="783.904,-137.713 773.329,-137.053 781.184,-144.163 783.904,-137.713"/>
</g>
<!-- Node31 -->
<g id="node31" class="node"><title>Node31</title>
<g id="a_node31"><a xlink:href="useful__base__types_8h.html" target="_top" xlink:title=" ">
<polygon fill="white" stroke="black" points="420.5,-56.5 420.5,-75.5 526.5,-75.5 526.5,-56.5 420.5,-56.5"/>
<text text-anchor="middle" x="473.5" y="-63.5" font-family="Helvetica,sans-Serif" font-size="10.00">useful_base_types.h</text>
</a>
</g>
</g>
<!-- Node20&#45;&gt;Node31 -->
<g id="edge69" class="edge"><title>Node20&#45;&gt;Node31</title>
<path fill="none" stroke="midnightblue" d="M427.265,-291.431C434.218,-257.683 459.807,-133.47 469.627,-85.7991"/>
<polygon fill="midnightblue" stroke="midnightblue" points="473.078,-86.3963 471.667,-75.8958 466.222,-84.9839 473.078,-86.3963"/>
</g>
<!-- Node32 -->
<g id="node32" class="node"><title>Node32</title>
<g id="a_node32"><a xlink:href="utils_8h.html" target="_top" xlink:title=" ">
<polygon fill="white" stroke="black" points="1166,-118 1166,-137 1209,-137 1209,-118 1166,-118"/>
<text text-anchor="middle" x="1187.5" y="-125" font-family="Helvetica,sans-Serif" font-size="10.00">utils.h</text>
</a>
</g>
</g>
<!-- Node20&#45;&gt;Node32 -->
<g id="edge70" class="edge"><title>Node20&#45;&gt;Node32</title>
<path fill="none" stroke="midnightblue" d="M452.77,-300.238C557.168,-300.806 931.013,-299.619 1039.5,-255 1098.45,-230.753 1150.87,-173.579 1174.38,-145.151"/>
<polygon fill="midnightblue" stroke="midnightblue" points="1177.4,-146.984 1180.97,-137.009 1171.96,-142.579 1177.4,-146.984"/>
</g>
<!-- Node37 -->
<g id="node37" class="node"><title>Node37</title>
<g id="a_node37"><a xlink:href="exception_8h.html" target="_top" xlink:title=" ">
<polygon fill="white" stroke="black" points="502,-118 502,-137 569,-137 569,-118 502,-118"/>
<text text-anchor="middle" x="535.5" y="-125" font-family="Helvetica,sans-Serif" font-size="10.00">exception.h</text>
</a>
</g>
</g>
<!-- Node20&#45;&gt;Node37 -->
<g id="edge68" class="edge"><title>Node20&#45;&gt;Node37</title>
<path fill="none" stroke="midnightblue" d="M429.885,-291.199C440.169,-270.829 467.051,-219.114 494.5,-179 502.688,-167.034 512.976,-154.368 521.197,-144.715"/>
<polygon fill="midnightblue" stroke="midnightblue" points="523.89,-146.952 527.786,-137.1 518.596,-142.372 523.89,-146.952"/>
</g>
<!-- Node23 -->
<g id="node23" class="node"><title>Node23</title>
<g id="a_node23"><a xlink:title=" ">
<polygon fill="white" stroke="#bfbfbf" points="567,-179.5 567,-198.5 608,-198.5 608,-179.5 567,-179.5"/>
<text text-anchor="middle" x="587.5" y="-186.5" font-family="Helvetica,sans-Serif" font-size="10.00">string</text>
</a>
</g>
</g>
<!-- Node22&#45;&gt;Node23 -->
<g id="edge25" class="edge"><title>Node22&#45;&gt;Node23</title>
<path fill="none" stroke="midnightblue" d="M587.5,-235.083C587.5,-228.006 587.5,-217.861 587.5,-208.986"/>
<polygon fill="midnightblue" stroke="midnightblue" points="591,-208.751 587.5,-198.751 584,-208.751 591,-208.751"/>
</g>
<!-- Node24 -->
<g id="node24" class="node"><title>Node24</title>
<g id="a_node24"><a xlink:title=" ">
<polygon fill="white" stroke="#bfbfbf" points="626.5,-179.5 626.5,-198.5 670.5,-198.5 670.5,-179.5 626.5,-179.5"/>
<text text-anchor="middle" x="648.5" y="-186.5" font-family="Helvetica,sans-Serif" font-size="10.00">variant</text>
</a>
</g>
</g>
<!-- Node22&#45;&gt;Node24 -->
<g id="edge26" class="edge"><title>Node22&#45;&gt;Node24</title>
<path fill="none" stroke="midnightblue" d="M597.301,-235.324C606.318,-227.341 619.906,-215.313 630.818,-205.653"/>
<polygon fill="midnightblue" stroke="midnightblue" points="633.353,-208.083 638.521,-198.834 628.713,-202.842 633.353,-208.083"/>
</g>
<!-- Node25 -->
<g id="node25" class="node"><title>Node25</title>
<g id="a_node25"><a xlink:href="bin__rw_8h.html" target="_top" xlink:title=" ">
<polygon fill="white" stroke="black" points="991,-179.5 991,-198.5 1044,-198.5 1044,-179.5 991,-179.5"/>
<text text-anchor="middle" x="1017.5" y="-186.5" font-family="Helvetica,sans-Serif" font-size="10.00">bin_rw.h</text>
</a>
</g>
</g>
<!-- Node22&#45;&gt;Node25 -->
<g id="edge27" class="edge"><title>Node22&#45;&gt;Node25</title>
<path fill="none" stroke="midnightblue" d="M617.056,-240.288C693.389,-230.702 896.991,-205.134 980.737,-194.617"/>
<polygon fill="midnightblue" stroke="midnightblue" points="981.32,-198.071 990.806,-193.352 980.448,-191.126 981.32,-198.071"/>
</g>
<!-- Node22&#45;&gt;Node28 -->
<g id="edge54" class="edge"><title>Node22&#45;&gt;Node28</title>
<path fill="none" stroke="midnightblue" d="M610.222,-235.394C629.592,-227.488 657.679,-214.642 679.5,-199 701.5,-183.229 722.834,-160.3 736.05,-144.916"/>
<polygon fill="midnightblue" stroke="midnightblue" points="738.749,-147.143 742.509,-137.238 733.393,-142.637 738.749,-147.143"/>
</g>
<!-- Node22&#45;&gt;Node32 -->
<g id="edge65" class="edge"><title>Node22&#45;&gt;Node32</title>
<path fill="none" stroke="midnightblue" d="M617.314,-242.608C706.527,-238.21 970.284,-223.433 1052.5,-199 1095.61,-186.187 1141.04,-159.273 1166.67,-142.656"/>
<polygon fill="midnightblue" stroke="midnightblue" points="1168.75,-145.473 1175.17,-137.045 1164.9,-139.63 1168.75,-145.473"/>
</g>
<!-- Node22&#45;&gt;Node37 -->
<g id="edge55" class="edge"><title>Node22&#45;&gt;Node37</title>
<path fill="none" stroke="midnightblue" d="M557.63,-236.949C537.942,-230.582 513.63,-219.037 501.5,-199 490.575,-180.953 505.405,-158.867 518.77,-144.278"/>
<polygon fill="midnightblue" stroke="midnightblue" points="521.381,-146.614 525.872,-137.017 516.377,-141.719 521.381,-146.614"/>
</g>
<!-- Node38 -->
<g id="node38" class="node"><title>Node38</title>
<g id="a_node38"><a xlink:href="sys__socket__ops_8h.html" target="_top" xlink:title=" ">
<polygon fill="white" stroke="black" points="282.5,-179.5 282.5,-198.5 378.5,-198.5 378.5,-179.5 282.5,-179.5"/>
<text text-anchor="middle" x="330.5" y="-186.5" font-family="Helvetica,sans-Serif" font-size="10.00">sys_socket_ops.h</text>
</a>
</g>
</g>
<!-- Node22&#45;&gt;Node38 -->
<g id="edge58" class="edge"><title>Node22&#45;&gt;Node38</title>
<path fill="none" stroke="midnightblue" d="M557.768,-237.753C514.571,-228.676 433.876,-211.721 381.184,-200.649"/>
<polygon fill="midnightblue" stroke="midnightblue" points="381.868,-197.217 371.362,-198.586 380.429,-204.067 381.868,-197.217"/>
</g>
<!-- Node40 -->
<g id="node40" class="node"><title>Node40</title>
<g id="a_node40"><a xlink:href="tag_8h.html" target="_top" xlink:title=" ">
<polygon fill="white" stroke="black" points="510.5,-179.5 510.5,-198.5 548.5,-198.5 548.5,-179.5 510.5,-179.5"/>
<text text-anchor="middle" x="529.5" y="-186.5" font-family="Helvetica,sans-Serif" font-size="10.00">tag.h</text>
</a>
</g>
</g>
<!-- Node22&#45;&gt;Node40 -->
<g id="edge64" class="edge"><title>Node22&#45;&gt;Node40</title>
<path fill="none" stroke="midnightblue" d="M578.181,-235.324C569.607,-227.341 556.688,-215.313 546.312,-205.653"/>
<polygon fill="midnightblue" stroke="midnightblue" points="548.692,-203.086 538.988,-198.834 543.922,-208.21 548.692,-203.086"/>
</g>
<!-- Node25&#45;&gt;Node17 -->
<g id="edge30" class="edge"><title>Node25&#45;&gt;Node17</title>
<path fill="none" stroke="midnightblue" d="M1023.87,-179.232C1029.76,-170.532 1038.11,-156.572 1041.5,-143 1044.84,-129.634 1045.97,-125.032 1041.5,-112 1037.78,-101.161 1030.27,-90.9216 1023.15,-82.9566"/>
<polygon fill="midnightblue" stroke="midnightblue" points="1025.5,-80.3498 1016.06,-75.5497 1020.45,-85.1922 1025.5,-80.3498"/>
</g>
<!-- Node26 -->
<g id="node26" class="node"><title>Node26</title>
<g id="a_node26"><a xlink:title=" ">
<polygon fill="white" stroke="#bfbfbf" points="905.5,-118 905.5,-137 961.5,-137 961.5,-118 905.5,-118"/>
<text text-anchor="middle" x="933.5" y="-125" font-family="Helvetica,sans-Serif" font-size="10.00">algorithm</text>
</a>
</g>
</g>
<!-- Node25&#45;&gt;Node26 -->
<g id="edge28" class="edge"><title>Node25&#45;&gt;Node26</title>
<path fill="none" stroke="midnightblue" d="M1005.46,-179.475C991.992,-169.931 969.934,-154.307 953.785,-142.868"/>
<polygon fill="midnightblue" stroke="midnightblue" points="955.696,-139.933 945.513,-137.009 951.65,-145.645 955.696,-139.933"/>
</g>
<!-- Node27 -->
<g id="node27" class="node"><title>Node27</title>
<g id="a_node27"><a xlink:title=" ">
<polygon fill="white" stroke="#bfbfbf" points="1111.5,-56.5 1111.5,-75.5 1157.5,-75.5 1157.5,-56.5 1111.5,-56.5"/>
<text text-anchor="middle" x="1134.5" y="-63.5" font-family="Helvetica,sans-Serif" font-size="10.00">cstring</text>
</a>
</g>
</g>
<!-- Node25&#45;&gt;Node27 -->
<g id="edge29" class="edge"><title>Node25&#45;&gt;Node27</title>
<path fill="none" stroke="midnightblue" d="M1025.91,-179.298C1045.39,-159.153 1093.83,-109.056 1118.91,-83.1247"/>
<polygon fill="midnightblue" stroke="midnightblue" points="1121.73,-85.245 1126.16,-75.6232 1116.69,-80.3791 1121.73,-85.245"/>
</g>
<!-- Node25&#45;&gt;Node28 -->
<g id="edge31" class="edge"><title>Node25&#45;&gt;Node28</title>
<path fill="none" stroke="midnightblue" d="M990.823,-182.077C941.817,-171.197 837.543,-148.047 783.524,-136.054"/>
<polygon fill="midnightblue" stroke="midnightblue" points="784.255,-132.631 773.734,-133.88 782.737,-139.464 784.255,-132.631"/>
</g>
<!-- Node29 -->
<g id="node29" class="node"><title>Node29</title>
<g id="a_node29"><a xlink:href="endian_8h.html" target="_top" xlink:title=" ">
<polygon fill="white" stroke="black" points="980,-118 980,-137 1033,-137 1033,-118 980,-118"/>
<text text-anchor="middle" x="1006.5" y="-125" font-family="Helvetica,sans-Serif" font-size="10.00">endian.h</text>
</a>
</g>
</g>
<!-- Node25&#45;&gt;Node29 -->
<g id="edge38" class="edge"><title>Node25&#45;&gt;Node29</title>
<path fill="none" stroke="midnightblue" d="M1015.92,-179.475C1014.37,-171.08 1011.95,-157.981 1009.95,-147.163"/>
<polygon fill="midnightblue" stroke="midnightblue" points="1013.33,-146.206 1008.07,-137.009 1006.45,-147.479 1013.33,-146.206"/>
</g>
<!-- Node25&#45;&gt;Node32 -->
<g id="edge44" class="edge"><title>Node25&#45;&gt;Node32</title>
<path fill="none" stroke="midnightblue" d="M1044.1,-179.577C1071.26,-170.86 1114.55,-156.633 1151.5,-143 1153.35,-142.318 1155.25,-141.602 1157.15,-140.87"/>
<polygon fill="midnightblue" stroke="midnightblue" points="1158.61,-144.057 1166.64,-137.144 1156.05,-137.542 1158.61,-144.057"/>
</g>
<!-- Node28&#45;&gt;Node4 -->
<g id="edge35" class="edge"><title>Node28&#45;&gt;Node4</title>
<path fill="none" stroke="midnightblue" d="M750.36,-117.975C751.206,-109.58 752.527,-96.4806 753.618,-85.6631"/>
<polygon fill="midnightblue" stroke="midnightblue" points="757.121,-85.8098 754.642,-75.5091 750.156,-85.1074 757.121,-85.8098"/>
</g>
<!-- Node28&#45;&gt;Node5 -->
<g id="edge37" class="edge"><title>Node28&#45;&gt;Node5</title>
<path fill="none" stroke="midnightblue" d="M725.123,-124.305C663.273,-118.56 495.083,-101.833 345.187,-76.1501"/>
<polygon fill="midnightblue" stroke="midnightblue" points="345.336,-72.6238 334.885,-74.3655 344.141,-79.5211 345.336,-72.6238"/>
</g>
<!-- Node28&#45;&gt;Node14 -->
<g id="edge33" class="edge"><title>Node28&#45;&gt;Node14</title>
<path fill="none" stroke="midnightblue" d="M740.931,-117.819C721.868,-98.5043 675.708,-51.7366 651.275,-26.9827"/>
<polygon fill="midnightblue" stroke="midnightblue" points="653.684,-24.4405 644.168,-19.782 648.702,-29.3578 653.684,-24.4405"/>
</g>
<!-- Node28&#45;&gt;Node16 -->
<g id="edge34" class="edge"><title>Node28&#45;&gt;Node16</title>
<path fill="none" stroke="midnightblue" d="M762.395,-117.975C776.964,-108.343 800.902,-92.5175 818.245,-81.0517"/>
<polygon fill="midnightblue" stroke="midnightblue" points="820.217,-83.9437 826.629,-75.5091 816.357,-78.1044 820.217,-83.9437"/>
</g>
<!-- Node28&#45;&gt;Node17 -->
<g id="edge36" class="edge"><title>Node28&#45;&gt;Node17</title>
<path fill="none" stroke="midnightblue" d="M773.678,-120.902C817.699,-110.711 911.369,-89.0244 965.523,-76.487"/>
<polygon fill="midnightblue" stroke="midnightblue" points="966.524,-79.8478 975.477,-74.1824 964.945,-73.0282 966.524,-79.8478"/>
</g>
<!-- Node28&#45;&gt;Node21 -->
<g id="edge32" class="edge"><title>Node28&#45;&gt;Node21</title>
<path fill="none" stroke="midnightblue" d="M725.157,-123.799C670.819,-117.572 535.399,-100.954 412.281,-75.9548"/>
<polygon fill="midnightblue" stroke="midnightblue" points="412.807,-72.4898 402.307,-73.9053 411.398,-79.3466 412.807,-72.4898"/>
</g>
<!-- Node29&#45;&gt;Node16 -->
<g id="edge39" class="edge"><title>Node29&#45;&gt;Node16</title>
<path fill="none" stroke="midnightblue" d="M985.632,-117.881C980.69,-115.899 975.424,-113.836 970.5,-112 937.334,-99.6337 898.998,-86.611 872.403,-77.7751"/>
<polygon fill="midnightblue" stroke="midnightblue" points="873.413,-74.4229 862.82,-74.6038 871.214,-81.0684 873.413,-74.4229"/>
</g>
<!-- Node29&#45;&gt;Node17 -->
<g id="edge42" class="edge"><title>Node29&#45;&gt;Node17</title>
<path fill="none" stroke="midnightblue" d="M1006.5,-117.975C1006.5,-109.58 1006.5,-96.4806 1006.5,-85.6631"/>
<polygon fill="midnightblue" stroke="midnightblue" points="1010,-85.5091 1006.5,-75.5091 1003,-85.5091 1010,-85.5091"/>
</g>
<!-- Node29&#45;&gt;Node27 -->
<g id="edge40" class="edge"><title>Node29&#45;&gt;Node27</title>
<path fill="none" stroke="midnightblue" d="M1024.84,-117.975C1046.32,-107.99 1082.12,-91.3476 1106.95,-79.8075"/>
<polygon fill="midnightblue" stroke="midnightblue" points="1108.6,-82.8983 1116.19,-75.5091 1105.65,-76.5506 1108.6,-82.8983"/>
</g>
<!-- Node30 -->
<g id="node30" class="node"><title>Node30</title>
<g id="a_node30"><a xlink:title=" ">
<polygon fill="white" stroke="#bfbfbf" points="893.5,-56.5 893.5,-75.5 957.5,-75.5 957.5,-56.5 893.5,-56.5"/>
<text text-anchor="middle" x="925.5" y="-63.5" font-family="Helvetica,sans-Serif" font-size="10.00">string_view</text>
</a>
</g>
</g>
<!-- Node29&#45;&gt;Node30 -->
<g id="edge41" class="edge"><title>Node29&#45;&gt;Node30</title>
<path fill="none" stroke="midnightblue" d="M994.895,-117.975C982.023,-108.52 961.026,-93.0961 945.494,-81.6871"/>
<polygon fill="midnightblue" stroke="midnightblue" points="947.215,-78.6085 937.084,-75.5091 943.071,-84.25 947.215,-78.6085"/>
</g>
<!-- Node29&#45;&gt;Node31 -->
<g id="edge43" class="edge"><title>Node29&#45;&gt;Node31</title>
<path fill="none" stroke="midnightblue" d="M988.156,-117.909C982.595,-115.636 976.395,-113.421 970.5,-112 889.868,-92.5584 651.826,-77.0256 536.945,-70.4303"/>
<polygon fill="midnightblue" stroke="midnightblue" points="537.07,-66.9319 526.888,-69.8577 536.672,-73.9206 537.07,-66.9319"/>
</g>
<!-- Node32&#45;&gt;Node2 -->
<g id="edge47" class="edge"><title>Node32&#45;&gt;Node2</title>
<path fill="none" stroke="midnightblue" d="M1171.31,-117.975C1152.6,-108.122 1121.58,-91.7883 1099.7,-80.2697"/>
<polygon fill="midnightblue" stroke="midnightblue" points="1101.14,-77.0713 1090.66,-75.5091 1097.88,-83.2651 1101.14,-77.0713"/>
</g>
<!-- Node32&#45;&gt;Node4 -->
<g id="edge50" class="edge"><title>Node32&#45;&gt;Node4</title>
<path fill="none" stroke="midnightblue" d="M1165.61,-123.896C1107.29,-116.893 943.351,-96.7751 807.5,-76 806,-75.7706 804.476,-75.5332 802.939,-75.2899"/>
<polygon fill="midnightblue" stroke="midnightblue" points="803.114,-71.7724 792.682,-73.6177 801.988,-78.6812 803.114,-71.7724"/>
</g>
<!-- Node32&#45;&gt;Node5 -->
<g id="edge53" class="edge"><title>Node32&#45;&gt;Node5</title>
<path fill="none" stroke="midnightblue" d="M1165.76,-124.016C1137.26,-120.834 1085.7,-115.332 1041.5,-112 735.072,-88.8945 653.004,-117.616 344.966,-75.9644"/>
<polygon fill="midnightblue" stroke="midnightblue" points="345.233,-72.4684 334.851,-74.5825 344.285,-79.404 345.233,-72.4684"/>
</g>
<!-- Node32&#45;&gt;Node17 -->
<g id="edge51" class="edge"><title>Node32&#45;&gt;Node17</title>
<path fill="none" stroke="midnightblue" d="M1165.67,-119.323C1135.07,-109.265 1079.07,-90.8569 1042.32,-78.7753"/>
<polygon fill="midnightblue" stroke="midnightblue" points="1043.1,-75.3456 1032.5,-75.5477 1040.91,-81.9956 1043.1,-75.3456"/>
</g>
<!-- Node32&#45;&gt;Node27 -->
<g id="edge49" class="edge"><title>Node32&#45;&gt;Node27</title>
<path fill="none" stroke="midnightblue" d="M1179.91,-117.975C1171.8,-108.873 1158.77,-94.241 1148.74,-82.983"/>
<polygon fill="midnightblue" stroke="midnightblue" points="1151.34,-80.6483 1142.08,-75.5091 1146.12,-85.3043 1151.34,-80.6483"/>
</g>
<!-- Node33 -->
<g id="node33" class="node"><title>Node33</title>
<g id="a_node33"><a xlink:title=" ">
<polygon fill="white" stroke="#bfbfbf" points="1341.5,-56.5 1341.5,-75.5 1401.5,-75.5 1401.5,-56.5 1341.5,-56.5"/>
<text text-anchor="middle" x="1371.5" y="-63.5" font-family="Helvetica,sans-Serif" font-size="10.00">fmt/core.h</text>
</a>
</g>
</g>
<!-- Node32&#45;&gt;Node33 -->
<g id="edge45" class="edge"><title>Node32&#45;&gt;Node33</title>
<path fill="none" stroke="midnightblue" d="M1209.33,-119.441C1240.44,-109.381 1297.9,-90.799 1335.41,-78.672"/>
<polygon fill="midnightblue" stroke="midnightblue" points="1336.51,-81.9934 1344.95,-75.5863 1334.36,-75.333 1336.51,-81.9934"/>
</g>
<!-- Node34 -->
<g id="node34" class="node"><title>Node34</title>
<g id="a_node34"><a xlink:title=" ">
<polygon fill="white" stroke="#bfbfbf" points="1419.5,-56.5 1419.5,-75.5 1487.5,-75.5 1487.5,-56.5 1419.5,-56.5"/>
<text text-anchor="middle" x="1453.5" y="-63.5" font-family="Helvetica,sans-Serif" font-size="10.00">fmt/format.h</text>
</a>
</g>
</g>
<!-- Node32&#45;&gt;Node34 -->
<g id="edge46" class="edge"><title>Node32&#45;&gt;Node34</title>
<path fill="none" stroke="midnightblue" d="M1209.27,-121.631C1252.81,-111.891 1351.4,-89.8379 1409.12,-76.9264"/>
<polygon fill="midnightblue" stroke="midnightblue" points="1410.06,-80.3028 1419.06,-74.7043 1408.53,-73.4716 1410.06,-80.3028"/>
</g>
<!-- Node35 -->
<g id="node35" class="node"><title>Node35</title>
<g id="a_node35"><a xlink:title=" ">
<polygon fill="white" stroke="#bfbfbf" points="1175.5,-56.5 1175.5,-75.5 1221.5,-75.5 1221.5,-56.5 1175.5,-56.5"/>
<text text-anchor="middle" x="1198.5" y="-63.5" font-family="Helvetica,sans-Serif" font-size="10.00">chrono</text>
</a>
</g>
</g>
<!-- Node32&#45;&gt;Node35 -->
<g id="edge48" class="edge"><title>Node32&#45;&gt;Node35</title>
<path fill="none" stroke="midnightblue" d="M1189.08,-117.975C1190.63,-109.58 1193.05,-96.4806 1195.05,-85.6631"/>
<polygon fill="midnightblue" stroke="midnightblue" points="1198.55,-85.9788 1196.93,-75.5091 1191.67,-84.7062 1198.55,-85.9788"/>
</g>
<!-- Node36 -->
<g id="node36" class="node"><title>Node36</title>
<g id="a_node36"><a xlink:title=" ">
<polygon fill="white" stroke="#bfbfbf" points="1240,-56.5 1240,-75.5 1323,-75.5 1323,-56.5 1240,-56.5"/>
<text text-anchor="middle" x="1281.5" y="-63.5" font-family="Helvetica,sans-Serif" font-size="10.00">unordered_map</text>
</a>
</g>
</g>
<!-- Node32&#45;&gt;Node36 -->
<g id="edge52" class="edge"><title>Node32&#45;&gt;Node36</title>
<path fill="none" stroke="midnightblue" d="M1200.97,-117.975C1216.18,-108.343 1241.19,-92.5175 1259.3,-81.0517"/>
<polygon fill="midnightblue" stroke="midnightblue" points="1261.48,-83.8149 1268.06,-75.5091 1257.74,-77.9002 1261.48,-83.8149"/>
</g>
<!-- Node37&#45;&gt;Node4 -->
<g id="edge56" class="edge"><title>Node37&#45;&gt;Node4</title>
<path fill="none" stroke="midnightblue" d="M567.021,-117.975C605.739,-107.504 671.524,-89.7118 714.236,-78.1601"/>
<polygon fill="midnightblue" stroke="midnightblue" points="715.298,-81.4985 724.038,-75.5091 713.471,-74.7413 715.298,-81.4985"/>
</g>
<!-- Node37&#45;&gt;Node5 -->
<g id="edge57" class="edge"><title>Node37&#45;&gt;Node5</title>
<path fill="none" stroke="midnightblue" d="M502.26,-117.975C460.675,-107.31 389.483,-89.0516 344.542,-77.526"/>
<polygon fill="midnightblue" stroke="midnightblue" points="345.377,-74.1267 334.821,-75.0326 343.638,-80.9073 345.377,-74.1267"/>
</g>
<!-- Node38&#45;&gt;Node5 -->
<g id="edge59" class="edge"><title>Node38&#45;&gt;Node5</title>
<path fill="none" stroke="midnightblue" d="M324.251,-179.201C318.444,-170.479 310.16,-156.502 306.5,-143 301.38,-124.11 301.183,-101.617 301.925,-86.0259"/>
<polygon fill="midnightblue" stroke="midnightblue" points="305.445,-85.8306 302.609,-75.6224 298.46,-85.371 305.445,-85.8306"/>
</g>
<!-- Node38&#45;&gt;Node31 -->
<g id="edge63" class="edge"><title>Node38&#45;&gt;Node31</title>
<path fill="none" stroke="midnightblue" d="M353.36,-179.357C371.726,-171.672 397.501,-159.156 416.5,-143 436.456,-126.031 453.591,-100.863 463.723,-84.2025"/>
<polygon fill="midnightblue" stroke="midnightblue" points="466.788,-85.8947 468.848,-75.502 460.757,-82.3419 466.788,-85.8947"/>
</g>
<!-- Node39 -->
<g id="node39" class="node"><title>Node39</title>
<g id="a_node39"><a xlink:href="sys__error__code_8h.html" target="_top" xlink:title=" ">
<polygon fill="white" stroke="black" points="315.5,-118 315.5,-137 407.5,-137 407.5,-118 315.5,-118"/>
<text text-anchor="middle" x="361.5" y="-125" font-family="Helvetica,sans-Serif" font-size="10.00">sys_error_code.h</text>
</a>
</g>
</g>
<!-- Node38&#45;&gt;Node39 -->
<g id="edge60" class="edge"><title>Node38&#45;&gt;Node39</title>
<path fill="none" stroke="midnightblue" d="M334.942,-179.475C339.453,-170.815 346.574,-157.149 352.307,-146.145"/>
<polygon fill="midnightblue" stroke="midnightblue" points="355.55,-147.495 357.067,-137.009 349.342,-144.26 355.55,-147.495"/>
</g>
<!-- Node39&#45;&gt;Node5 -->
<g id="edge61" class="edge"><title>Node39&#45;&gt;Node5</title>
<path fill="none" stroke="midnightblue" d="M353.19,-117.975C344.318,-108.873 330.054,-94.241 319.08,-82.983"/>
<polygon fill="midnightblue" stroke="midnightblue" points="321.281,-80.2268 311.795,-75.5091 316.269,-85.113 321.281,-80.2268"/>
</g>
<!-- Node39&#45;&gt;Node31 -->
<g id="edge62" class="edge"><title>Node39&#45;&gt;Node31</title>
<path fill="none" stroke="midnightblue" d="M377.547,-117.975C396.093,-108.122 426.84,-91.7883 448.522,-80.2697"/>
<polygon fill="midnightblue" stroke="midnightblue" points="450.294,-83.2916 457.483,-75.5091 447.01,-77.1098 450.294,-83.2916"/>
</g>
</g>
</svg>
