<?xml version="1.0" encoding="UTF-8" standalone="no"?>
<!DOCTYPE svg PUBLIC "-//W3C//DTD SVG 1.1//EN"
 "http://www.w3.org/Graphics/SVG/1.1/DTD/svg11.dtd">
<!-- Generated by graphviz version 2.38.0 (20140413.2041)
 -->
<!-- Title: C:/projects/ndt/sources/include/ndt/executor_select.h Pages: 1 -->
<!--zoomable 520 -->
<svg id="main" version="1.1" xmlns="http://www.w3.org/2000/svg" xmlns:xlink="http://www.w3.org/1999/xlink" xml:space="preserve" onload="init(evt)">
<style type="text/css"><![CDATA[
.edge:hover path { stroke: red; }
.edge:hover polygon { stroke: red; fill: red; }
]]></style>
<script type="text/javascript"><![CDATA[
var edges = document.getElementsByTagName('g');
if (edges && edges.length) {
  for (var i=0;i<edges.length;i++) {
    if (edges[i].id.substr(0,4)=='edge') {
      edges[i].setAttribute('class','edge');
    }
  }
}
]]></script>
        <defs>
                <circle id="rim" cx="0" cy="0" r="7"/>
                <circle id="rim2" cx="0" cy="0" r="3.5"/>
                <g id="zoomPlus">
                        <use xlink:href="#rim" fill="#404040">
                                <set attributeName="fill" to="#808080" begin="zoomplus.mouseover" end="zoomplus.mouseout"/>
                        </use>
                        <path d="M-4,0h8M0,-4v8" fill="none" stroke="white" stroke-width="1.5" pointer-events="none"/>
                </g>
                <g id="zoomMin">
                        <use xlink:href="#rim" fill="#404040">
                                <set attributeName="fill" to="#808080" begin="zoomminus.mouseover" end="zoomminus.mouseout"/>
                        </use>
                        <path d="M-4,0h8" fill="none" stroke="white" stroke-width="1.5" pointer-events="none"/>
                </g>
                <g id="dirArrow">
                        <path fill="none" stroke="white" stroke-width="1.5" d="M0,-3.0v7 M-2.5,-0.5L0,-3.0L2.5,-0.5"/>
                </g>
               <g id="resetDef">
                       <use xlink:href="#rim2" fill="#404040">
                               <set attributeName="fill" to="#808080" begin="reset.mouseover" end="reset.mouseout"/>
                       </use>
               </g>
        </defs>

<script type="text/javascript">
var viewWidth = 1113;
var viewHeight = 520;
var sectionId = 'dynsection-0';
</script>
<script xlink:href="svgpan.js"/>
<svg id="graph" class="graph">
<g id="viewport">
<title>C:/projects/ndt/sources/include/ndt/executor_select.h</title>
<polygon fill="white" stroke="none" points="-4,4 -4,-516 1109,-516 1109,4 -4,4"/>
<!-- Node1 -->
<g id="node1" class="node"><title>Node1</title>
<g id="a_node1"><a xlink:title=" ">
<polygon fill="#bfbfbf" stroke="black" points="420,-470.5 420,-511.5 538,-511.5 538,-470.5 420,-470.5"/>
<text text-anchor="start" x="428" y="-499.5" font-family="Helvetica,sans-Serif" font-size="10.00">C:/projects/ndt/sources</text>
<text text-anchor="start" x="428" y="-488.5" font-family="Helvetica,sans-Serif" font-size="10.00">/include/ndt/executor</text>
<text text-anchor="middle" x="479" y="-477.5" font-family="Helvetica,sans-Serif" font-size="10.00">_select.h</text>
</a>
</g>
</g>
<!-- Node2 -->
<g id="node2" class="node"><title>Node2</title>
<g id="a_node2"><a xlink:href="nix_2executor__select__impl_8h.html" target="_top" xlink:title=" ">
<polygon fill="white" stroke="black" points="274.5,-403.5 274.5,-433.5 381.5,-433.5 381.5,-403.5 274.5,-403.5"/>
<text text-anchor="start" x="282.5" y="-421.5" font-family="Helvetica,sans-Serif" font-size="10.00">platform/nix/executor</text>
<text text-anchor="middle" x="328" y="-410.5" font-family="Helvetica,sans-Serif" font-size="10.00">_select_impl.h</text>
</a>
</g>
</g>
<!-- Node1&#45;&gt;Node2 -->
<g id="edge1" class="edge"><title>Node1&#45;&gt;Node2</title>
<path fill="none" stroke="midnightblue" d="M436.938,-470.362C415.198,-460.211 388.821,-447.897 367.468,-437.927"/>
<polygon fill="midnightblue" stroke="midnightblue" points="368.892,-434.729 358.35,-433.67 365.93,-441.072 368.892,-434.729"/>
</g>
<!-- Node3 -->
<g id="node3" class="node"><title>Node3</title>
<g id="a_node3"><a xlink:href="common_8h.html" target="_top" xlink:title="Header with typedefs to make type designation platform independent.">
<polygon fill="white" stroke="black" points="260,-56.5 260,-75.5 340,-75.5 340,-56.5 260,-56.5"/>
<text text-anchor="middle" x="300" y="-63.5" font-family="Helvetica,sans-Serif" font-size="10.00">../../common.h</text>
</a>
</g>
</g>
<!-- Node2&#45;&gt;Node3 -->
<g id="edge2" class="edge"><title>Node2&#45;&gt;Node3</title>
<path fill="none" stroke="midnightblue" d="M274.205,-408.242C181.152,-390.687 0,-349.057 0,-291 0,-291 0,-291 0,-177 0,-124.426 164.462,-89.4018 249.847,-74.7608"/>
<polygon fill="midnightblue" stroke="midnightblue" points="250.572,-78.1882 259.852,-73.0766 249.41,-71.2853 250.572,-78.1882"/>
</g>
<!-- Node13 -->
<g id="node13" class="node"><title>Node13</title>
<g id="a_node13"><a xlink:href="executor__select__base_8h.html" target="_top" xlink:title=" ">
<polygon fill="white" stroke="black" points="276,-336.5 276,-366.5 380,-366.5 380,-336.5 276,-336.5"/>
<text text-anchor="start" x="284" y="-354.5" font-family="Helvetica,sans-Serif" font-size="10.00">../../executor_select</text>
<text text-anchor="middle" x="328" y="-343.5" font-family="Helvetica,sans-Serif" font-size="10.00">_base.h</text>
</a>
</g>
</g>
<!-- Node2&#45;&gt;Node13 -->
<g id="edge12" class="edge"><title>Node2&#45;&gt;Node13</title>
<path fill="none" stroke="midnightblue" d="M328,-403.396C328,-395.645 328,-385.812 328,-376.86"/>
<polygon fill="midnightblue" stroke="midnightblue" points="331.5,-376.576 328,-366.577 324.5,-376.577 331.5,-376.576"/>
</g>
<!-- Node4 -->
<g id="node4" class="node"><title>Node4</title>
<g id="a_node4"><a xlink:title=" ">
<polygon fill="white" stroke="#bfbfbf" points="555,-0.5 555,-19.5 617,-19.5 617,-0.5 555,-0.5"/>
<text text-anchor="middle" x="586" y="-7.5" font-family="Helvetica,sans-Serif" font-size="10.00">arpa/inet.h</text>
</a>
</g>
</g>
<!-- Node3&#45;&gt;Node4 -->
<g id="edge3" class="edge"><title>Node3&#45;&gt;Node4</title>
<path fill="none" stroke="midnightblue" d="M340.4,-58.019C387.04,-49.8627 466.303,-35.7037 544.64,-20.0119"/>
<polygon fill="midnightblue" stroke="midnightblue" points="545.571,-23.3948 554.684,-17.9905 544.19,-16.5325 545.571,-23.3948"/>
</g>
<!-- Node5 -->
<g id="node5" class="node"><title>Node5</title>
<g id="a_node5"><a xlink:title=" ">
<polygon fill="white" stroke="#bfbfbf" points="31.5,-0.5 31.5,-19.5 78.5,-19.5 78.5,-0.5 31.5,-0.5"/>
<text text-anchor="middle" x="55" y="-7.5" font-family="Helvetica,sans-Serif" font-size="10.00">errno.h</text>
</a>
</g>
</g>
<!-- Node3&#45;&gt;Node5 -->
<g id="edge4" class="edge"><title>Node3&#45;&gt;Node5</title>
<path fill="none" stroke="midnightblue" d="M259.778,-57.3245C218.916,-49.3445 153.594,-36.0898 88.7058,-20.309"/>
<polygon fill="midnightblue" stroke="midnightblue" points="89.2655,-16.8425 78.7195,-17.859 87.5976,-23.6409 89.2655,-16.8425"/>
</g>
<!-- Node6 -->
<g id="node6" class="node"><title>Node6</title>
<g id="a_node6"><a xlink:title=" ">
<polygon fill="white" stroke="#bfbfbf" points="96.5,-0.5 96.5,-19.5 139.5,-19.5 139.5,-0.5 96.5,-0.5"/>
<text text-anchor="middle" x="118" y="-7.5" font-family="Helvetica,sans-Serif" font-size="10.00">fcntl.h</text>
</a>
</g>
</g>
<!-- Node3&#45;&gt;Node6 -->
<g id="edge5" class="edge"><title>Node3&#45;&gt;Node6</title>
<path fill="none" stroke="midnightblue" d="M271.134,-56.488C242.463,-48.0262 196.996,-34.587 149.211,-20.3543"/>
<polygon fill="midnightblue" stroke="midnightblue" points="150.21,-17.0001 139.627,-17.4984 148.211,-23.7085 150.21,-17.0001"/>
</g>
<!-- Node7 -->
<g id="node7" class="node"><title>Node7</title>
<g id="a_node7"><a xlink:title=" ">
<polygon fill="white" stroke="#bfbfbf" points="157.5,-0.5 157.5,-19.5 206.5,-19.5 206.5,-0.5 157.5,-0.5"/>
<text text-anchor="middle" x="182" y="-7.5" font-family="Helvetica,sans-Serif" font-size="10.00">netdb.h</text>
</a>
</g>
</g>
<!-- Node3&#45;&gt;Node7 -->
<g id="edge6" class="edge"><title>Node3&#45;&gt;Node7</title>
<path fill="none" stroke="midnightblue" d="M281.303,-56.4435C262.056,-47.6356 231.848,-33.8116 209.8,-23.722"/>
<polygon fill="midnightblue" stroke="midnightblue" points="211.16,-20.4951 200.61,-19.5164 208.247,-26.8603 211.16,-20.4951"/>
</g>
<!-- Node8 -->
<g id="node8" class="node"><title>Node8</title>
<g id="a_node8"><a xlink:title=" ">
<polygon fill="white" stroke="#bfbfbf" points="224.5,-0.5 224.5,-19.5 289.5,-19.5 289.5,-0.5 224.5,-0.5"/>
<text text-anchor="middle" x="257" y="-7.5" font-family="Helvetica,sans-Serif" font-size="10.00">netinet/in.h</text>
</a>
</g>
</g>
<!-- Node3&#45;&gt;Node8 -->
<g id="edge7" class="edge"><title>Node3&#45;&gt;Node8</title>
<path fill="none" stroke="midnightblue" d="M292.899,-56.083C286.763,-48.3768 277.73,-37.0333 270.261,-27.6531"/>
<polygon fill="midnightblue" stroke="midnightblue" points="272.936,-25.3936 263.968,-19.7511 267.46,-29.7542 272.936,-25.3936"/>
</g>
<!-- Node9 -->
<g id="node9" class="node"><title>Node9</title>
<g id="a_node9"><a xlink:title=" ">
<polygon fill="white" stroke="#bfbfbf" points="307.5,-0.5 307.5,-19.5 380.5,-19.5 380.5,-0.5 307.5,-0.5"/>
<text text-anchor="middle" x="344" y="-7.5" font-family="Helvetica,sans-Serif" font-size="10.00">sys/socket.h</text>
</a>
</g>
</g>
<!-- Node3&#45;&gt;Node9 -->
<g id="edge8" class="edge"><title>Node3&#45;&gt;Node9</title>
<path fill="none" stroke="midnightblue" d="M307.266,-56.083C313.545,-48.3768 322.788,-37.0333 330.431,-27.6531"/>
<polygon fill="midnightblue" stroke="midnightblue" points="333.266,-29.7143 336.869,-19.7511 327.839,-25.2926 333.266,-29.7143"/>
</g>
<!-- Node10 -->
<g id="node10" class="node"><title>Node10</title>
<g id="a_node10"><a xlink:title=" ">
<polygon fill="white" stroke="#bfbfbf" points="399,-0.5 399,-19.5 467,-19.5 467,-0.5 399,-0.5"/>
<text text-anchor="middle" x="433" y="-7.5" font-family="Helvetica,sans-Serif" font-size="10.00">sys/types.h</text>
</a>
</g>
</g>
<!-- Node3&#45;&gt;Node10 -->
<g id="edge9" class="edge"><title>Node3&#45;&gt;Node10</title>
<path fill="none" stroke="midnightblue" d="M321.074,-56.4435C343.06,-47.5171 377.734,-33.4387 402.664,-23.3168"/>
<polygon fill="midnightblue" stroke="midnightblue" points="404.076,-26.5213 412.024,-19.5164 401.442,-20.0355 404.076,-26.5213"/>
</g>
<!-- Node11 -->
<g id="node11" class="node"><title>Node11</title>
<g id="a_node11"><a xlink:title=" ">
<polygon fill="white" stroke="#bfbfbf" points="485.5,-0.5 485.5,-19.5 536.5,-19.5 536.5,-0.5 485.5,-0.5"/>
<text text-anchor="middle" x="511" y="-7.5" font-family="Helvetica,sans-Serif" font-size="10.00">unistd.h</text>
</a>
</g>
</g>
<!-- Node3&#45;&gt;Node11 -->
<g id="edge10" class="edge"><title>Node3&#45;&gt;Node11</title>
<path fill="none" stroke="midnightblue" d="M333.416,-56.4705C366.816,-47.9422 419.909,-34.3765 475.374,-20.1578"/>
<polygon fill="midnightblue" stroke="midnightblue" points="476.569,-23.4647 485.387,-17.5906 474.831,-16.684 476.569,-23.4647"/>
</g>
<!-- Node12 -->
<g id="node12" class="node"><title>Node12</title>
<g id="a_node12"><a xlink:title=" ">
<polygon fill="white" stroke="#bfbfbf" points="761,-0.5 761,-19.5 809,-19.5 809,-0.5 761,-0.5"/>
<text text-anchor="middle" x="785" y="-7.5" font-family="Helvetica,sans-Serif" font-size="10.00">cstddef</text>
</a>
</g>
</g>
<!-- Node3&#45;&gt;Node12 -->
<g id="edge11" class="edge"><title>Node3&#45;&gt;Node12</title>
<path fill="none" stroke="midnightblue" d="M340.102,-60.535C433.349,-50.1529 663.434,-24.5351 750.695,-14.8196"/>
<polygon fill="midnightblue" stroke="midnightblue" points="751.296,-18.2743 760.848,-13.6891 750.522,-11.3173 751.296,-18.2743"/>
</g>
<!-- Node13&#45;&gt;Node3 -->
<g id="edge16" class="edge"><title>Node13&#45;&gt;Node3</title>
<path fill="none" stroke="midnightblue" d="M313.352,-336.316C293.908,-315.89 262,-276.109 262,-235 262,-235 262,-235 262,-177 262,-142.813 278.6,-105.764 289.857,-84.5707"/>
<polygon fill="midnightblue" stroke="midnightblue" points="292.947,-86.2151 294.716,-75.769 286.819,-82.832 292.947,-86.2151"/>
</g>
<!-- Node14 -->
<g id="node14" class="node"><title>Node14</title>
<g id="a_node14"><a xlink:title=" ">
<polygon fill="white" stroke="#bfbfbf" points="196,-280.5 196,-299.5 234,-299.5 234,-280.5 196,-280.5"/>
<text text-anchor="middle" x="215" y="-287.5" font-family="Helvetica,sans-Serif" font-size="10.00">array</text>
</a>
</g>
</g>
<!-- Node13&#45;&gt;Node14 -->
<g id="edge13" class="edge"><title>Node13&#45;&gt;Node14</title>
<path fill="none" stroke="midnightblue" d="M301.221,-336.399C282.938,-326.773 258.852,-314.09 240.785,-304.577"/>
<polygon fill="midnightblue" stroke="midnightblue" points="241.922,-301.22 231.443,-299.658 238.66,-307.414 241.922,-301.22"/>
</g>
<!-- Node15 -->
<g id="node15" class="node"><title>Node15</title>
<g id="a_node15"><a xlink:title=" ">
<polygon fill="white" stroke="#bfbfbf" points="328,-224.5 328,-243.5 386,-243.5 386,-224.5 328,-224.5"/>
<text text-anchor="middle" x="357" y="-231.5" font-family="Helvetica,sans-Serif" font-size="10.00">functional</text>
</a>
</g>
</g>
<!-- Node13&#45;&gt;Node15 -->
<g id="edge14" class="edge"><title>Node13&#45;&gt;Node15</title>
<path fill="none" stroke="midnightblue" d="M331.556,-336.337C336.781,-315.527 346.539,-276.663 352.334,-253.583"/>
<polygon fill="midnightblue" stroke="midnightblue" points="355.783,-254.221 354.823,-243.669 348.993,-252.516 355.783,-254.221"/>
</g>
<!-- Node16 -->
<g id="node16" class="node"><title>Node16</title>
<g id="a_node16"><a xlink:title=" ">
<polygon fill="white" stroke="#bfbfbf" points="366,-112.5 366,-131.5 440,-131.5 440,-112.5 366,-112.5"/>
<text text-anchor="middle" x="403" y="-119.5" font-family="Helvetica,sans-Serif" font-size="10.00">system_error</text>
</a>
</g>
</g>
<!-- Node13&#45;&gt;Node16 -->
<g id="edge15" class="edge"><title>Node13&#45;&gt;Node16</title>
<path fill="none" stroke="midnightblue" d="M323.458,-336.365C316.548,-312.474 305.542,-262.911 319,-224 331.449,-188.007 363.4,-155.994 384.112,-138.085"/>
<polygon fill="midnightblue" stroke="midnightblue" points="386.538,-140.619 391.953,-131.512 382.041,-135.254 386.538,-140.619"/>
</g>
<!-- Node17 -->
<g id="node17" class="node"><title>Node17</title>
<g id="a_node17"><a xlink:href="event__handler__select_8h.html" target="_top" xlink:title=" ">
<polygon fill="white" stroke="black" points="989,-224.5 989,-243.5 1105,-243.5 1105,-224.5 989,-224.5"/>
<text text-anchor="middle" x="1047" y="-231.5" font-family="Helvetica,sans-Serif" font-size="10.00">event_handler_select.h</text>
</a>
</g>
</g>
<!-- Node13&#45;&gt;Node17 -->
<g id="edge17" class="edge"><title>Node13&#45;&gt;Node17</title>
<path fill="none" stroke="midnightblue" d="M380.288,-342.1C509.546,-321.337 843.752,-267.65 983.794,-245.153"/>
<polygon fill="midnightblue" stroke="midnightblue" points="984.618,-248.566 993.936,-243.524 983.508,-241.655 984.618,-248.566"/>
</g>
<!-- Node20 -->
<g id="node20" class="node"><title>Node20</title>
<g id="a_node20"><a xlink:href="socket_8h.html" target="_top" xlink:title=" ">
<polygon fill="white" stroke="black" points="483,-280.5 483,-299.5 537,-299.5 537,-280.5 483,-280.5"/>
<text text-anchor="middle" x="510" y="-287.5" font-family="Helvetica,sans-Serif" font-size="10.00">socket.h</text>
</a>
</g>
</g>
<!-- Node13&#45;&gt;Node20 -->
<g id="edge21" class="edge"><title>Node13&#45;&gt;Node20</title>
<path fill="none" stroke="midnightblue" d="M371.131,-336.399C402.58,-326.118 444.692,-312.351 474.267,-302.682"/>
<polygon fill="midnightblue" stroke="midnightblue" points="475.366,-306.005 483.783,-299.571 473.19,-299.352 475.366,-306.005"/>
</g>
<!-- Node17&#45;&gt;Node1 -->
<g id="edge20" class="edge"><title>Node17&#45;&gt;Node1</title>
<path fill="none" stroke="midnightblue" d="M1027.81,-243.614C949.637,-278.711 653.542,-411.64 531.781,-466.304"/>
<polygon fill="midnightblue" stroke="midnightblue" points="530.316,-463.125 522.627,-470.414 533.183,-469.511 530.316,-463.125"/>
</g>
<!-- Node18 -->
<g id="node18" class="node"><title>Node18</title>
<g id="a_node18"><a xlink:title=" ">
<polygon fill="white" stroke="#bfbfbf" points="1050,-112.5 1050,-131.5 1096,-131.5 1096,-112.5 1050,-112.5"/>
<text text-anchor="middle" x="1073" y="-119.5" font-family="Helvetica,sans-Serif" font-size="10.00">cstdint</text>
</a>
</g>
</g>
<!-- Node17&#45;&gt;Node18 -->
<g id="edge18" class="edge"><title>Node17&#45;&gt;Node18</title>
<path fill="none" stroke="midnightblue" d="M1049.04,-224.368C1053.24,-206.617 1062.92,-165.666 1068.6,-141.597"/>
<polygon fill="midnightblue" stroke="midnightblue" points="1072.08,-142.128 1070.97,-131.591 1065.26,-140.518 1072.08,-142.128"/>
</g>
<!-- Node19 -->
<g id="node19" class="node"><title>Node19</title>
<g id="a_node19"><a xlink:title=" ">
<polygon fill="white" stroke="#bfbfbf" points="826,-112.5 826,-131.5 888,-131.5 888,-112.5 826,-112.5"/>
<text text-anchor="middle" x="857" y="-119.5" font-family="Helvetica,sans-Serif" font-size="10.00">type_traits</text>
</a>
</g>
</g>
<!-- Node17&#45;&gt;Node19 -->
<g id="edge19" class="edge"><title>Node17&#45;&gt;Node19</title>
<path fill="none" stroke="midnightblue" d="M988.819,-231.759C951.968,-227.919 905.808,-217.012 876,-188 863.635,-175.965 859.203,-156.365 857.672,-141.83"/>
<polygon fill="midnightblue" stroke="midnightblue" points="861.14,-141.241 856.97,-131.501 854.156,-141.715 861.14,-141.241"/>
</g>
<!-- Node20&#45;&gt;Node3 -->
<g id="edge51" class="edge"><title>Node20&#45;&gt;Node3</title>
<path fill="none" stroke="midnightblue" d="M500.302,-280.444C485.349,-267.456 455.509,-242.34 428,-224 400.523,-205.681 386.661,-211.037 363,-188 332.71,-158.509 314.031,-111.316 305.498,-85.4455"/>
<polygon fill="midnightblue" stroke="midnightblue" points="308.796,-84.2667 302.457,-75.7772 302.118,-86.3666 308.796,-84.2667"/>
</g>
<!-- Node20&#45;&gt;Node15 -->
<g id="edge23" class="edge"><title>Node20&#45;&gt;Node15</title>
<path fill="none" stroke="midnightblue" d="M485.757,-280.444C460.129,-271.399 419.515,-257.064 390.762,-246.916"/>
<polygon fill="midnightblue" stroke="midnightblue" points="391.725,-243.544 381.13,-243.516 389.395,-250.145 391.725,-243.544"/>
</g>
<!-- Node21 -->
<g id="node21" class="node"><title>Node21</title>
<g id="a_node21"><a xlink:title=" ">
<polygon fill="white" stroke="#bfbfbf" points="982.5,-112.5 982.5,-131.5 1031.5,-131.5 1031.5,-112.5 982.5,-112.5"/>
<text text-anchor="middle" x="1007" y="-119.5" font-family="Helvetica,sans-Serif" font-size="10.00">cassert</text>
</a>
</g>
</g>
<!-- Node20&#45;&gt;Node21 -->
<g id="edge22" class="edge"><title>Node20&#45;&gt;Node21</title>
<path fill="none" stroke="midnightblue" d="M537.229,-287.944C608.435,-284.111 804.182,-266.621 942,-188 963.352,-175.819 982.541,-154.765 994.44,-139.925"/>
<polygon fill="midnightblue" stroke="midnightblue" points="997.512,-141.674 1000.86,-131.623 991.975,-137.392 997.512,-141.674"/>
</g>
<!-- Node22 -->
<g id="node22" class="node"><title>Node22</title>
<g id="a_node22"><a xlink:href="address_8h.html" target="_top" xlink:title=" ">
<polygon fill="white" stroke="black" points="480.5,-224.5 480.5,-243.5 539.5,-243.5 539.5,-224.5 480.5,-224.5"/>
<text text-anchor="middle" x="510" y="-231.5" font-family="Helvetica,sans-Serif" font-size="10.00">address.h</text>
</a>
</g>
</g>
<!-- Node20&#45;&gt;Node22 -->
<g id="edge24" class="edge"><title>Node20&#45;&gt;Node22</title>
<path fill="none" stroke="midnightblue" d="M510,-280.083C510,-273.006 510,-262.861 510,-253.986"/>
<polygon fill="midnightblue" stroke="midnightblue" points="513.5,-253.751 510,-243.751 506.5,-253.751 513.5,-253.751"/>
</g>
<!-- Node25 -->
<g id="node25" class="node"><title>Node25</title>
<g id="a_node25"><a xlink:href="buffer_8h.html" target="_top" xlink:title=" ">
<polygon fill="white" stroke="black" points="885,-168.5 885,-187.5 933,-187.5 933,-168.5 885,-168.5"/>
<text text-anchor="middle" x="909" y="-175.5" font-family="Helvetica,sans-Serif" font-size="10.00">buffer.h</text>
</a>
</g>
</g>
<!-- Node20&#45;&gt;Node25 -->
<g id="edge50" class="edge"><title>Node20&#45;&gt;Node25</title>
<path fill="none" stroke="midnightblue" d="M537.111,-281.526C607.781,-262.043 797.524,-209.733 875.171,-188.326"/>
<polygon fill="midnightblue" stroke="midnightblue" points="876.22,-191.668 884.931,-185.636 874.36,-184.919 876.22,-191.668"/>
</g>
<!-- Node26 -->
<g id="node26" class="node"><title>Node26</title>
<g id="a_node26"><a xlink:href="exception_8h.html" target="_top" xlink:title=" ">
<polygon fill="white" stroke="black" points="493.5,-168.5 493.5,-187.5 560.5,-187.5 560.5,-168.5 493.5,-168.5"/>
<text text-anchor="middle" x="527" y="-175.5" font-family="Helvetica,sans-Serif" font-size="10.00">exception.h</text>
</a>
</g>
</g>
<!-- Node20&#45;&gt;Node26 -->
<g id="edge52" class="edge"><title>Node20&#45;&gt;Node26</title>
<path fill="none" stroke="midnightblue" d="M520.714,-280.305C529.938,-272.069 542.591,-258.789 548,-244 553.835,-228.047 546.566,-209.598 539.031,-196.439"/>
<polygon fill="midnightblue" stroke="midnightblue" points="541.957,-194.518 533.68,-187.904 536.026,-198.236 541.957,-194.518"/>
</g>
<!-- Node29 -->
<g id="node29" class="node"><title>Node29</title>
<g id="a_node29"><a xlink:href="useful__base__types_8h.html" target="_top" xlink:title=" ">
<polygon fill="white" stroke="black" points="23,-56.5 23,-75.5 129,-75.5 129,-56.5 23,-56.5"/>
<text text-anchor="middle" x="76" y="-63.5" font-family="Helvetica,sans-Serif" font-size="10.00">useful_base_types.h</text>
</a>
</g>
</g>
<!-- Node20&#45;&gt;Node29 -->
<g id="edge53" class="edge"><title>Node20&#45;&gt;Node29</title>
<path fill="none" stroke="midnightblue" d="M493.859,-280.407C477.24,-271.497 450.645,-257.067 428,-244 413.146,-235.428 411.194,-229.646 395,-224 274.86,-182.113 215.827,-260.107 111,-188 78.2208,-165.452 74.3553,-113.84 74.8624,-85.8626"/>
<polygon fill="midnightblue" stroke="midnightblue" points="78.3631,-85.9116 75.2568,-75.7823 71.3684,-85.6378 78.3631,-85.9116"/>
</g>
<!-- Node30 -->
<g id="node30" class="node"><title>Node30</title>
<g id="a_node30"><a xlink:href="utils_8h.html" target="_top" xlink:title=" ">
<polygon fill="white" stroke="black" points="584.5,-168.5 584.5,-187.5 627.5,-187.5 627.5,-168.5 584.5,-168.5"/>
<text text-anchor="middle" x="606" y="-175.5" font-family="Helvetica,sans-Serif" font-size="10.00">utils.h</text>
</a>
</g>
</g>
<!-- Node20&#45;&gt;Node30 -->
<g id="edge54" class="edge"><title>Node20&#45;&gt;Node30</title>
<path fill="none" stroke="midnightblue" d="M522.504,-280.289C534.086,-271.844 551.378,-258.251 564,-244 577.046,-229.27 588.911,-210.121 596.677,-196.429"/>
<polygon fill="midnightblue" stroke="midnightblue" points="599.8,-198.012 601.565,-187.565 593.671,-194.632 599.8,-198.012"/>
</g>
<!-- Node23 -->
<g id="node23" class="node"><title>Node23</title>
<g id="a_node23"><a xlink:title=" ">
<polygon fill="white" stroke="#bfbfbf" points="434.5,-168.5 434.5,-187.5 475.5,-187.5 475.5,-168.5 434.5,-168.5"/>
<text text-anchor="middle" x="455" y="-175.5" font-family="Helvetica,sans-Serif" font-size="10.00">string</text>
</a>
</g>
</g>
<!-- Node22&#45;&gt;Node23 -->
<g id="edge25" class="edge"><title>Node22&#45;&gt;Node23</title>
<path fill="none" stroke="midnightblue" d="M500.918,-224.083C492.829,-216.141 480.805,-204.335 471.09,-194.797"/>
<polygon fill="midnightblue" stroke="midnightblue" points="473.501,-192.26 463.913,-187.751 468.597,-197.254 473.501,-192.26"/>
</g>
<!-- Node24 -->
<g id="node24" class="node"><title>Node24</title>
<g id="a_node24"><a xlink:title=" ">
<polygon fill="white" stroke="#bfbfbf" points="372,-168.5 372,-187.5 416,-187.5 416,-168.5 372,-168.5"/>
<text text-anchor="middle" x="394" y="-175.5" font-family="Helvetica,sans-Serif" font-size="10.00">variant</text>
</a>
</g>
</g>
<!-- Node22&#45;&gt;Node24 -->
<g id="edge26" class="edge"><title>Node22&#45;&gt;Node24</title>
<path fill="none" stroke="midnightblue" d="M491.619,-224.444C472.784,-215.675 443.269,-201.935 421.621,-191.858"/>
<polygon fill="midnightblue" stroke="midnightblue" points="422.838,-188.564 412.295,-187.516 419.883,-194.91 422.838,-188.564"/>
</g>
<!-- Node22&#45;&gt;Node25 -->
<g id="edge27" class="edge"><title>Node22&#45;&gt;Node25</title>
<path fill="none" stroke="midnightblue" d="M539.664,-228.985C612.11,-219.181 797.742,-194.057 874.738,-183.637"/>
<polygon fill="midnightblue" stroke="midnightblue" points="875.418,-187.077 884.858,-182.267 874.479,-180.14 875.418,-187.077"/>
</g>
<!-- Node22&#45;&gt;Node26 -->
<g id="edge33" class="edge"><title>Node22&#45;&gt;Node26</title>
<path fill="none" stroke="midnightblue" d="M512.807,-224.083C515.085,-216.849 518.371,-206.409 521.208,-197.397"/>
<polygon fill="midnightblue" stroke="midnightblue" points="524.581,-198.341 524.245,-187.751 517.904,-196.239 524.581,-198.341"/>
</g>
<!-- Node27 -->
<g id="node27" class="node"><title>Node27</title>
<g id="a_node27"><a xlink:href="sys__socket__ops_8h.html" target="_top" xlink:title=" ">
<polygon fill="white" stroke="black" points="120,-168.5 120,-187.5 216,-187.5 216,-168.5 120,-168.5"/>
<text text-anchor="middle" x="168" y="-175.5" font-family="Helvetica,sans-Serif" font-size="10.00">sys_socket_ops.h</text>
</a>
</g>
</g>
<!-- Node22&#45;&gt;Node27 -->
<g id="edge36" class="edge"><title>Node22&#45;&gt;Node27</title>
<path fill="none" stroke="midnightblue" d="M480.248,-228.302C423.673,-219.369 299.677,-199.791 226.099,-188.174"/>
<polygon fill="midnightblue" stroke="midnightblue" points="226.487,-184.692 216.064,-186.589 225.396,-191.606 226.487,-184.692"/>
</g>
<!-- Node22&#45;&gt;Node30 -->
<g id="edge42" class="edge"><title>Node22&#45;&gt;Node30</title>
<path fill="none" stroke="midnightblue" d="M525.424,-224.324C540.54,-215.822 563.815,-202.729 581.471,-192.797"/>
<polygon fill="midnightblue" stroke="midnightblue" points="583.614,-195.608 590.614,-187.655 580.183,-189.507 583.614,-195.608"/>
</g>
<!-- Node25&#45;&gt;Node3 -->
<g id="edge32" class="edge"><title>Node25&#45;&gt;Node3</title>
<path fill="none" stroke="midnightblue" d="M910.361,-168.277C912.019,-154.112 912.88,-126.261 897,-112 856.724,-75.8307 486.661,-68.7284 350.217,-67.3375"/>
<polygon fill="midnightblue" stroke="midnightblue" points="350.072,-63.836 340.039,-67.24 350.005,-70.8357 350.072,-63.836"/>
</g>
<!-- Node25&#45;&gt;Node12 -->
<g id="edge29" class="edge"><title>Node25&#45;&gt;Node12</title>
<path fill="none" stroke="midnightblue" d="M912.916,-168.497C918.255,-155.579 926.165,-130.553 917,-112 895.863,-69.2119 846.942,-39.5545 814.959,-23.9208"/>
<polygon fill="midnightblue" stroke="midnightblue" points="816.165,-20.6196 805.627,-19.5202 813.179,-26.951 816.165,-20.6196"/>
</g>
<!-- Node25&#45;&gt;Node18 -->
<g id="edge30" class="edge"><title>Node25&#45;&gt;Node18</title>
<path fill="none" stroke="midnightblue" d="M933.199,-169.032C961.499,-159.714 1008.49,-144.241 1040.09,-133.837"/>
<polygon fill="midnightblue" stroke="midnightblue" points="1041.36,-137.103 1049.76,-130.651 1039.17,-130.454 1041.36,-137.103"/>
</g>
<!-- Node25&#45;&gt;Node19 -->
<g id="edge31" class="edge"><title>Node25&#45;&gt;Node19</title>
<path fill="none" stroke="midnightblue" d="M900.413,-168.083C892.841,-160.22 881.622,-148.569 872.486,-139.081"/>
<polygon fill="midnightblue" stroke="midnightblue" points="874.885,-136.527 865.427,-131.751 869.842,-141.382 874.885,-136.527"/>
</g>
<!-- Node25&#45;&gt;Node21 -->
<g id="edge28" class="edge"><title>Node25&#45;&gt;Node21</title>
<path fill="none" stroke="midnightblue" d="M924.745,-168.324C940.319,-159.743 964.377,-146.486 982.459,-136.522"/>
<polygon fill="midnightblue" stroke="midnightblue" points="984.224,-139.546 991.294,-131.655 980.846,-133.415 984.224,-139.546"/>
</g>
<!-- Node26&#45;&gt;Node3 -->
<g id="edge35" class="edge"><title>Node26&#45;&gt;Node3</title>
<path fill="none" stroke="midnightblue" d="M493.264,-169.189C447.1,-158.33 368.613,-139.197 357,-132 337.535,-119.936 321.024,-99.1629 310.861,-84.3474"/>
<polygon fill="midnightblue" stroke="midnightblue" points="313.547,-82.0607 305.132,-75.6233 307.696,-85.9033 313.547,-82.0607"/>
</g>
<!-- Node26&#45;&gt;Node16 -->
<g id="edge34" class="edge"><title>Node26&#45;&gt;Node16</title>
<path fill="none" stroke="midnightblue" d="M507.352,-168.444C487.035,-159.596 455.097,-145.687 431.902,-135.586"/>
<polygon fill="midnightblue" stroke="midnightblue" points="433.122,-132.3 422.556,-131.516 430.327,-138.718 433.122,-132.3"/>
</g>
<!-- Node27&#45;&gt;Node3 -->
<g id="edge37" class="edge"><title>Node27&#45;&gt;Node3</title>
<path fill="none" stroke="midnightblue" d="M178.358,-168.368C200.72,-149.733 253.761,-105.532 281.839,-82.1338"/>
<polygon fill="midnightblue" stroke="midnightblue" points="284.249,-84.6821 289.69,-75.5914 279.767,-79.3045 284.249,-84.6821"/>
</g>
<!-- Node28 -->
<g id="node28" class="node"><title>Node28</title>
<g id="a_node28"><a xlink:href="sys__error__code_8h.html" target="_top" xlink:title=" ">
<polygon fill="white" stroke="black" points="104,-112.5 104,-131.5 196,-131.5 196,-112.5 104,-112.5"/>
<text text-anchor="middle" x="150" y="-119.5" font-family="Helvetica,sans-Serif" font-size="10.00">sys_error_code.h</text>
</a>
</g>
</g>
<!-- Node27&#45;&gt;Node28 -->
<g id="edge38" class="edge"><title>Node27&#45;&gt;Node28</title>
<path fill="none" stroke="midnightblue" d="M165.028,-168.083C162.616,-160.849 159.136,-150.409 156.132,-141.397"/>
<polygon fill="midnightblue" stroke="midnightblue" points="159.4,-140.131 152.917,-131.751 152.759,-142.345 159.4,-140.131"/>
</g>
<!-- Node27&#45;&gt;Node29 -->
<g id="edge41" class="edge"><title>Node27&#45;&gt;Node29</title>
<path fill="none" stroke="midnightblue" d="M145.772,-168.487C129.471,-161.156 107.998,-149.049 95,-132 84.7634,-118.573 80.0326,-99.7554 77.8517,-85.8206"/>
<polygon fill="midnightblue" stroke="midnightblue" points="81.3226,-85.3687 76.593,-75.8882 74.3781,-86.2489 81.3226,-85.3687"/>
</g>
<!-- Node28&#45;&gt;Node3 -->
<g id="edge39" class="edge"><title>Node28&#45;&gt;Node3</title>
<path fill="none" stroke="midnightblue" d="M173.768,-112.444C198.893,-103.399 238.711,-89.064 266.9,-78.9158"/>
<polygon fill="midnightblue" stroke="midnightblue" points="268.12,-82.1968 276.343,-75.5164 265.749,-75.6106 268.12,-82.1968"/>
</g>
<!-- Node28&#45;&gt;Node29 -->
<g id="edge40" class="edge"><title>Node28&#45;&gt;Node29</title>
<path fill="none" stroke="midnightblue" d="M138.111,-112.324C126.85,-104.107 109.713,-91.6017 96.2909,-81.8069"/>
<polygon fill="midnightblue" stroke="midnightblue" points="98.2468,-78.9014 88.1057,-75.8339 94.1205,-84.5559 98.2468,-78.9014"/>
</g>
<!-- Node30&#45;&gt;Node3 -->
<g id="edge49" class="edge"><title>Node30&#45;&gt;Node3</title>
<path fill="none" stroke="midnightblue" d="M627.782,-176.117C683.245,-173.145 822.374,-160.748 778,-112 749.61,-80.8116 467.343,-70.8112 350.37,-67.9905"/>
<polygon fill="midnightblue" stroke="midnightblue" points="350.321,-64.4885 340.242,-67.7544 350.157,-71.4866 350.321,-64.4885"/>
</g>
<!-- Node30&#45;&gt;Node16 -->
<g id="edge46" class="edge"><title>Node30&#45;&gt;Node16</title>
<path fill="none" stroke="midnightblue" d="M584.275,-171.221C551.134,-162.405 487.337,-145.435 444.96,-134.162"/>
<polygon fill="midnightblue" stroke="midnightblue" points="445.772,-130.756 435.208,-131.568 443.972,-137.521 445.772,-130.756"/>
</g>
<!-- Node30&#45;&gt;Node19 -->
<g id="edge47" class="edge"><title>Node30&#45;&gt;Node19</title>
<path fill="none" stroke="midnightblue" d="M627.836,-172.302C669.742,-163.287 762.052,-143.427 815.853,-131.852"/>
<polygon fill="midnightblue" stroke="midnightblue" points="816.712,-135.248 825.752,-129.723 815.239,-128.404 816.712,-135.248"/>
</g>
<!-- Node31 -->
<g id="node31" class="node"><title>Node31</title>
<g id="a_node31"><a xlink:title=" ">
<polygon fill="white" stroke="#bfbfbf" points="458,-112.5 458,-131.5 518,-131.5 518,-112.5 458,-112.5"/>
<text text-anchor="middle" x="488" y="-119.5" font-family="Helvetica,sans-Serif" font-size="10.00">fmt/core.h</text>
</a>
</g>
</g>
<!-- Node30&#45;&gt;Node31 -->
<g id="edge43" class="edge"><title>Node30&#45;&gt;Node31</title>
<path fill="none" stroke="midnightblue" d="M587.303,-168.444C568.056,-159.636 537.848,-145.812 515.8,-135.722"/>
<polygon fill="midnightblue" stroke="midnightblue" points="517.16,-132.495 506.61,-131.516 514.247,-138.86 517.16,-132.495"/>
</g>
<!-- Node32 -->
<g id="node32" class="node"><title>Node32</title>
<g id="a_node32"><a xlink:title=" ">
<polygon fill="white" stroke="#bfbfbf" points="536,-112.5 536,-131.5 604,-131.5 604,-112.5 536,-112.5"/>
<text text-anchor="middle" x="570" y="-119.5" font-family="Helvetica,sans-Serif" font-size="10.00">fmt/format.h</text>
</a>
</g>
</g>
<!-- Node30&#45;&gt;Node32 -->
<g id="edge44" class="edge"><title>Node30&#45;&gt;Node32</title>
<path fill="none" stroke="midnightblue" d="M600.055,-168.083C595.023,-160.534 587.663,-149.495 581.487,-140.23"/>
<polygon fill="midnightblue" stroke="midnightblue" points="584.293,-138.13 575.834,-131.751 578.469,-142.013 584.293,-138.13"/>
</g>
<!-- Node33 -->
<g id="node33" class="node"><title>Node33</title>
<g id="a_node33"><a xlink:title=" ">
<polygon fill="white" stroke="#bfbfbf" points="622,-112.5 622,-131.5 668,-131.5 668,-112.5 622,-112.5"/>
<text text-anchor="middle" x="645" y="-119.5" font-family="Helvetica,sans-Serif" font-size="10.00">cstring</text>
</a>
</g>
</g>
<!-- Node30&#45;&gt;Node33 -->
<g id="edge45" class="edge"><title>Node30&#45;&gt;Node33</title>
<path fill="none" stroke="midnightblue" d="M612.44,-168.083C617.949,-160.455 626.031,-149.264 632.765,-139.941"/>
<polygon fill="midnightblue" stroke="midnightblue" points="635.662,-141.907 638.68,-131.751 629.987,-137.809 635.662,-141.907"/>
</g>
<!-- Node34 -->
<g id="node34" class="node"><title>Node34</title>
<g id="a_node34"><a xlink:title=" ">
<polygon fill="white" stroke="#bfbfbf" points="686.5,-112.5 686.5,-131.5 769.5,-131.5 769.5,-112.5 686.5,-112.5"/>
<text text-anchor="middle" x="728" y="-119.5" font-family="Helvetica,sans-Serif" font-size="10.00">unordered_map</text>
</a>
</g>
</g>
<!-- Node30&#45;&gt;Node34 -->
<g id="edge48" class="edge"><title>Node30&#45;&gt;Node34</title>
<path fill="none" stroke="midnightblue" d="M625.331,-168.444C645.32,-159.596 676.743,-145.687 699.564,-135.586"/>
<polygon fill="midnightblue" stroke="midnightblue" points="701.032,-138.764 708.759,-131.516 698.198,-132.363 701.032,-138.764"/>
</g>
</g>
</svg>
        <g id="navigator" transform="translate(0 0)" fill="#404254">
                <rect fill="#f2f5e9" fill-opacity="0.5" stroke="#606060" stroke-width=".5" x="0" y="0" width="60" height="60"/>
                <use id="zoomplus" xlink:href="#zoomPlus" x="17" y="9" onmousedown="handleZoom(evt,'in')"/>
                <use id="zoomminus" xlink:href="#zoomMin" x="42" y="9" onmousedown="handleZoom(evt,'out')"/>
                <use id="reset" xlink:href="#resetDef" x="30" y="36" onmousedown="handleReset()"/>
                <g id="arrowUp" xlink:href="#dirArrow" transform="translate(30 24)" onmousedown="handlePan(0,-1)">
                  <use xlink:href="#rim" fill="#404040">
                        <set attributeName="fill" to="#808080" begin="arrowUp.mouseover" end="arrowUp.mouseout"/>
                  </use>
                  <path fill="none" stroke="white" stroke-width="1.5" d="M0,-3.0v7 M-2.5,-0.5L0,-3.0L2.5,-0.5"/>
                </g>
                <g id="arrowRight" xlink:href="#dirArrow" transform="rotate(90) translate(36 -43)" onmousedown="handlePan(1,0)">
                  <use xlink:href="#rim" fill="#404040">
                        <set attributeName="fill" to="#808080" begin="arrowRight.mouseover" end="arrowRight.mouseout"/>
                  </use>
                  <path fill="none" stroke="white" stroke-width="1.5" d="M0,-3.0v7 M-2.5,-0.5L0,-3.0L2.5,-0.5"/>
                </g>
                <g id="arrowDown" xlink:href="#dirArrow" transform="rotate(180) translate(-30 -48)" onmousedown="handlePan(0,1)">
                  <use xlink:href="#rim" fill="#404040">
                        <set attributeName="fill" to="#808080" begin="arrowDown.mouseover" end="arrowDown.mouseout"/>
                  </use>
                  <path fill="none" stroke="white" stroke-width="1.5" d="M0,-3.0v7 M-2.5,-0.5L0,-3.0L2.5,-0.5"/>
                </g>
                <g id="arrowLeft" xlink:href="#dirArrow" transform="rotate(270) translate(-36 17)" onmousedown="handlePan(-1,0)">
                  <use xlink:href="#rim" fill="#404040">
                        <set attributeName="fill" to="#808080" begin="arrowLeft.mouseover" end="arrowLeft.mouseout"/>
                  </use>
                  <path fill="none" stroke="white" stroke-width="1.5" d="M0,-3.0v7 M-2.5,-0.5L0,-3.0L2.5,-0.5"/>
                </g>
        </g>
        <svg viewBox="0 0 15 15" width="100%" height="30px" preserveAspectRatio="xMaxYMin meet">
         <g id="arrow_out" transform="scale(0.3 0.3)">
          <a xlink:href="executor__select_8h__incl_org.svg" target="_base">
           <rect id="button" ry="5" rx="5" y="6" x="6" height="38" width="38"
                fill="#f2f5e9" fill-opacity="0.5" stroke="#606060" stroke-width="1.0"/>
           <path id="arrow"
             d="M 11.500037,31.436501 C 11.940474,20.09759 22.043105,11.32322 32.158766,21.979434 L 37.068811,17.246167 C 37.068811,17.246167 37.088388,32 37.088388,32 L 22.160133,31.978069 C 22.160133,31.978069 26.997745,27.140456 26.997745,27.140456 C 18.528582,18.264221 13.291696,25.230495 11.500037,31.436501 z"
             style="fill:#404040;"/>
          </a>
         </g>
        </svg>
</svg>
