<?xml version="1.0" encoding="UTF-8" standalone="no"?>
<!DOCTYPE svg PUBLIC "-//W3C//DTD SVG 1.1//EN"
 "http://www.w3.org/Graphics/SVG/1.1/DTD/svg11.dtd">
<!-- Generated by graphviz version 2.38.0 (20140413.2041)
 -->
<!-- Title: C:/projects/ndt/sources/include/ndt/executor_select.h Pages: 1 -->
<!--zoomable 520 -->
<svg id="main" version="1.1" xmlns="http://www.w3.org/2000/svg" xmlns:xlink="http://www.w3.org/1999/xlink" xml:space="preserve" onload="init(evt)">
<style type="text/css"><![CDATA[
.edge:hover path { stroke: red; }
.edge:hover polygon { stroke: red; fill: red; }
]]></style>
<script type="text/javascript"><![CDATA[
var edges = document.getElementsByTagName('g');
if (edges && edges.length) {
  for (var i=0;i<edges.length;i++) {
    if (edges[i].id.substr(0,4)=='edge') {
      edges[i].setAttribute('class','edge');
    }
  }
}
]]></script>
        <defs>
                <circle id="rim" cx="0" cy="0" r="7"/>
                <circle id="rim2" cx="0" cy="0" r="3.5"/>
                <g id="zoomPlus">
                        <use xlink:href="#rim" fill="#404040">
                                <set attributeName="fill" to="#808080" begin="zoomplus.mouseover" end="zoomplus.mouseout"/>
                        </use>
                        <path d="M-4,0h8M0,-4v8" fill="none" stroke="white" stroke-width="1.5" pointer-events="none"/>
                </g>
                <g id="zoomMin">
                        <use xlink:href="#rim" fill="#404040">
                                <set attributeName="fill" to="#808080" begin="zoomminus.mouseover" end="zoomminus.mouseout"/>
                        </use>
                        <path d="M-4,0h8" fill="none" stroke="white" stroke-width="1.5" pointer-events="none"/>
                </g>
                <g id="dirArrow">
                        <path fill="none" stroke="white" stroke-width="1.5" d="M0,-3.0v7 M-2.5,-0.5L0,-3.0L2.5,-0.5"/>
                </g>
               <g id="resetDef">
                       <use xlink:href="#rim2" fill="#404040">
                               <set attributeName="fill" to="#808080" begin="reset.mouseover" end="reset.mouseout"/>
                       </use>
               </g>
        </defs>

<script type="text/javascript">
var viewWidth = 1465;
var viewHeight = 520;
var sectionId = 'dynsection-0';
</script>
<script xlink:href="svgpan.js"/>
<svg id="graph" class="graph">
<g id="viewport">
<title>C:/projects/ndt/sources/include/ndt/executor_select.h</title>
<polygon fill="white" stroke="none" points="-4,4 -4,-516 1460.5,-516 1460.5,4 -4,4"/>
<!-- Node1 -->
<g id="node1" class="node"><title>Node1</title>
<g id="a_node1"><a xlink:title=" ">
<polygon fill="#bfbfbf" stroke="black" points="720,-470.5 720,-511.5 838,-511.5 838,-470.5 720,-470.5"/>
<text text-anchor="start" x="728" y="-499.5" font-family="Helvetica,sans-Serif" font-size="10.00">C:/projects/ndt/sources</text>
<text text-anchor="start" x="728" y="-488.5" font-family="Helvetica,sans-Serif" font-size="10.00">/include/ndt/executor</text>
<text text-anchor="middle" x="779" y="-477.5" font-family="Helvetica,sans-Serif" font-size="10.00">_select.h</text>
</a>
</g>
</g>
<!-- Node2 -->
<g id="node2" class="node"><title>Node2</title>
<g id="a_node2"><a xlink:href="nix_2executor__select__impl_8h.html" target="_top" xlink:title=" ">
<polygon fill="white" stroke="black" points="850.5,-403.5 850.5,-433.5 957.5,-433.5 957.5,-403.5 850.5,-403.5"/>
<text text-anchor="start" x="858.5" y="-421.5" font-family="Helvetica,sans-Serif" font-size="10.00">platform/nix/executor</text>
<text text-anchor="middle" x="904" y="-410.5" font-family="Helvetica,sans-Serif" font-size="10.00">_select_impl.h</text>
</a>
</g>
</g>
<!-- Node1&#45;&gt;Node2 -->
<g id="edge1" class="edge"><title>Node1&#45;&gt;Node2</title>
<path fill="none" stroke="midnightblue" d="M813.819,-470.362C831.413,-460.439 852.674,-448.448 870.132,-438.601"/>
<polygon fill="midnightblue" stroke="midnightblue" points="871.885,-441.631 878.876,-433.67 868.446,-435.534 871.885,-441.631"/>
</g>
<!-- Node3 -->
<g id="node3" class="node"><title>Node3</title>
<g id="a_node3"><a xlink:href="common_8h.html" target="_top" xlink:title="Header with typedefs to make type designation platform independent.">
<polygon fill="white" stroke="black" points="1061,-56.5 1061,-75.5 1141,-75.5 1141,-56.5 1061,-56.5"/>
<text text-anchor="middle" x="1101" y="-63.5" font-family="Helvetica,sans-Serif" font-size="10.00">../../common.h</text>
</a>
</g>
</g>
<!-- Node2&#45;&gt;Node3 -->
<g id="edge2" class="edge"><title>Node2&#45;&gt;Node3</title>
<path fill="none" stroke="midnightblue" d="M957.811,-411.326C1064.15,-397.623 1291,-360.272 1291,-291 1291,-291 1291,-291 1291,-233 1291,-194.577 1262.11,-194.196 1234,-168 1197.41,-133.902 1149.74,-99.8978 1122.54,-81.3431"/>
<polygon fill="midnightblue" stroke="midnightblue" points="1124.39,-78.3683 1114.15,-75.6651 1120.47,-84.1666 1124.39,-78.3683"/>
</g>
<!-- Node13 -->
<g id="node13" class="node"><title>Node13</title>
<g id="a_node13"><a xlink:href="executor__select__base_8h.html" target="_top" xlink:title=" ">
<polygon fill="white" stroke="black" points="852,-336.5 852,-366.5 956,-366.5 956,-336.5 852,-336.5"/>
<text text-anchor="start" x="860" y="-354.5" font-family="Helvetica,sans-Serif" font-size="10.00">../../executor_select</text>
<text text-anchor="middle" x="904" y="-343.5" font-family="Helvetica,sans-Serif" font-size="10.00">_base.h</text>
</a>
</g>
</g>
<!-- Node2&#45;&gt;Node13 -->
<g id="edge12" class="edge"><title>Node2&#45;&gt;Node13</title>
<path fill="none" stroke="midnightblue" d="M904,-403.396C904,-395.645 904,-385.812 904,-376.86"/>
<polygon fill="midnightblue" stroke="midnightblue" points="907.5,-376.576 904,-366.577 900.5,-376.577 907.5,-376.576"/>
</g>
<!-- Node4 -->
<g id="node4" class="node"><title>Node4</title>
<g id="a_node4"><a xlink:title=" ">
<polygon fill="white" stroke="#bfbfbf" points="1268,-0.5 1268,-19.5 1330,-19.5 1330,-0.5 1268,-0.5"/>
<text text-anchor="middle" x="1299" y="-7.5" font-family="Helvetica,sans-Serif" font-size="10.00">arpa/inet.h</text>
</a>
</g>
</g>
<!-- Node3&#45;&gt;Node4 -->
<g id="edge3" class="edge"><title>Node3&#45;&gt;Node4</title>
<path fill="none" stroke="midnightblue" d="M1132.37,-56.4435C1166.26,-47.2011 1220.4,-32.4356 1257.72,-22.2572"/>
<polygon fill="midnightblue" stroke="midnightblue" points="1259.05,-25.5243 1267.77,-19.5164 1257.2,-18.771 1259.05,-25.5243"/>
</g>
<!-- Node5 -->
<g id="node5" class="node"><title>Node5</title>
<g id="a_node5"><a xlink:title=" ">
<polygon fill="white" stroke="#bfbfbf" points="1348.5,-0.5 1348.5,-19.5 1395.5,-19.5 1395.5,-0.5 1348.5,-0.5"/>
<text text-anchor="middle" x="1372" y="-7.5" font-family="Helvetica,sans-Serif" font-size="10.00">errno.h</text>
</a>
</g>
</g>
<!-- Node3&#45;&gt;Node5 -->
<g id="edge4" class="edge"><title>Node3&#45;&gt;Node5</title>
<path fill="none" stroke="midnightblue" d="M1141.21,-58.4007C1186.65,-50.7206 1263.03,-37.1471 1338.16,-20.0407"/>
<polygon fill="midnightblue" stroke="midnightblue" points="1339.3,-23.3683 1348.26,-17.7154 1337.73,-16.5465 1339.3,-23.3683"/>
</g>
<!-- Node6 -->
<g id="node6" class="node"><title>Node6</title>
<g id="a_node6"><a xlink:title=" ">
<polygon fill="white" stroke="#bfbfbf" points="1413.5,-0.5 1413.5,-19.5 1456.5,-19.5 1456.5,-0.5 1413.5,-0.5"/>
<text text-anchor="middle" x="1435" y="-7.5" font-family="Helvetica,sans-Serif" font-size="10.00">fcntl.h</text>
</a>
</g>
</g>
<!-- Node3&#45;&gt;Node6 -->
<g id="edge5" class="edge"><title>Node3&#45;&gt;Node6</title>
<path fill="none" stroke="midnightblue" d="M1141.02,-60.8023C1197.42,-54.5053 1303.61,-41.2559 1403.46,-19.8374"/>
<polygon fill="midnightblue" stroke="midnightblue" points="1404.39,-23.2179 1413.42,-17.6705 1402.9,-16.3782 1404.39,-23.2179"/>
</g>
<!-- Node7 -->
<g id="node7" class="node"><title>Node7</title>
<g id="a_node7"><a xlink:title=" ">
<polygon fill="white" stroke="#bfbfbf" points="870.5,-0.5 870.5,-19.5 919.5,-19.5 919.5,-0.5 870.5,-0.5"/>
<text text-anchor="middle" x="895" y="-7.5" font-family="Helvetica,sans-Serif" font-size="10.00">netdb.h</text>
</a>
</g>
</g>
<!-- Node3&#45;&gt;Node7 -->
<g id="edge6" class="edge"><title>Node3&#45;&gt;Node7</title>
<path fill="none" stroke="midnightblue" d="M1067.8,-56.489C1035,-48.0502 983.113,-34.6321 929.821,-20.4659"/>
<polygon fill="midnightblue" stroke="midnightblue" points="930.422,-17.004 919.858,-17.813 928.621,-23.7683 930.422,-17.004"/>
</g>
<!-- Node8 -->
<g id="node8" class="node"><title>Node8</title>
<g id="a_node8"><a xlink:title=" ">
<polygon fill="white" stroke="#bfbfbf" points="937.5,-0.5 937.5,-19.5 1002.5,-19.5 1002.5,-0.5 937.5,-0.5"/>
<text text-anchor="middle" x="970" y="-7.5" font-family="Helvetica,sans-Serif" font-size="10.00">netinet/in.h</text>
</a>
</g>
</g>
<!-- Node3&#45;&gt;Node8 -->
<g id="edge7" class="edge"><title>Node3&#45;&gt;Node8</title>
<path fill="none" stroke="midnightblue" d="M1080.24,-56.4435C1058.68,-47.5566 1024.74,-33.5632 1000.21,-23.4514"/>
<polygon fill="midnightblue" stroke="midnightblue" points="1001.24,-20.0917 990.66,-19.5164 998.572,-26.5634 1001.24,-20.0917"/>
</g>
<!-- Node9 -->
<g id="node9" class="node"><title>Node9</title>
<g id="a_node9"><a xlink:title=" ">
<polygon fill="white" stroke="#bfbfbf" points="1020.5,-0.5 1020.5,-19.5 1093.5,-19.5 1093.5,-0.5 1020.5,-0.5"/>
<text text-anchor="middle" x="1057" y="-7.5" font-family="Helvetica,sans-Serif" font-size="10.00">sys/socket.h</text>
</a>
</g>
</g>
<!-- Node3&#45;&gt;Node9 -->
<g id="edge8" class="edge"><title>Node3&#45;&gt;Node9</title>
<path fill="none" stroke="midnightblue" d="M1093.73,-56.083C1087.46,-48.3768 1078.21,-37.0333 1070.57,-27.6531"/>
<polygon fill="midnightblue" stroke="midnightblue" points="1073.16,-25.2926 1064.13,-19.7511 1067.73,-29.7143 1073.16,-25.2926"/>
</g>
<!-- Node10 -->
<g id="node10" class="node"><title>Node10</title>
<g id="a_node10"><a xlink:title=" ">
<polygon fill="white" stroke="#bfbfbf" points="1112,-0.5 1112,-19.5 1180,-19.5 1180,-0.5 1112,-0.5"/>
<text text-anchor="middle" x="1146" y="-7.5" font-family="Helvetica,sans-Serif" font-size="10.00">sys/types.h</text>
</a>
</g>
</g>
<!-- Node3&#45;&gt;Node10 -->
<g id="edge9" class="edge"><title>Node3&#45;&gt;Node10</title>
<path fill="none" stroke="midnightblue" d="M1108.43,-56.083C1114.85,-48.3768 1124.31,-37.0333 1132.12,-27.6531"/>
<polygon fill="midnightblue" stroke="midnightblue" points="1134.99,-29.674 1138.71,-19.7511 1129.62,-25.1927 1134.99,-29.674"/>
</g>
<!-- Node11 -->
<g id="node11" class="node"><title>Node11</title>
<g id="a_node11"><a xlink:title=" ">
<polygon fill="white" stroke="#bfbfbf" points="1198.5,-0.5 1198.5,-19.5 1249.5,-19.5 1249.5,-0.5 1198.5,-0.5"/>
<text text-anchor="middle" x="1224" y="-7.5" font-family="Helvetica,sans-Serif" font-size="10.00">unistd.h</text>
</a>
</g>
</g>
<!-- Node3&#45;&gt;Node11 -->
<g id="edge10" class="edge"><title>Node3&#45;&gt;Node11</title>
<path fill="none" stroke="midnightblue" d="M1120.49,-56.4435C1140.64,-47.5961 1172.32,-33.6875 1195.33,-23.5865"/>
<polygon fill="midnightblue" stroke="midnightblue" points="1196.85,-26.7411 1204.6,-19.5164 1194.04,-20.3316 1196.85,-26.7411"/>
</g>
<!-- Node12 -->
<g id="node12" class="node"><title>Node12</title>
<g id="a_node12"><a xlink:title=" ">
<polygon fill="white" stroke="#bfbfbf" points="804,-0.5 804,-19.5 852,-19.5 852,-0.5 804,-0.5"/>
<text text-anchor="middle" x="828" y="-7.5" font-family="Helvetica,sans-Serif" font-size="10.00">cstddef</text>
</a>
</g>
</g>
<!-- Node3&#45;&gt;Node12 -->
<g id="edge11" class="edge"><title>Node3&#45;&gt;Node12</title>
<path fill="none" stroke="midnightblue" d="M1060.88,-58.4984C1015.11,-50.8566 937.828,-37.2719 862.259,-20.1414"/>
<polygon fill="midnightblue" stroke="midnightblue" points="862.623,-16.6341 852.094,-17.8128 861.06,-23.4574 862.623,-16.6341"/>
</g>
<!-- Node13&#45;&gt;Node3 -->
<g id="edge16" class="edge"><title>Node13&#45;&gt;Node3</title>
<path fill="none" stroke="midnightblue" d="M956.183,-348.878C1024.83,-343.572 1142.95,-322.775 1196,-244 1226.65,-198.484 1139.51,-214.093 1120,-188 1097.47,-157.874 1097.01,-111.602 1098.87,-85.8863"/>
<polygon fill="midnightblue" stroke="midnightblue" points="1102.38,-85.9294 1099.82,-75.649 1095.41,-85.2833 1102.38,-85.9294"/>
</g>
<!-- Node14 -->
<g id="node14" class="node"><title>Node14</title>
<g id="a_node14"><a xlink:title=" ">
<polygon fill="white" stroke="#bfbfbf" points="0,-56.5 0,-75.5 38,-75.5 38,-56.5 0,-56.5"/>
<text text-anchor="middle" x="19" y="-63.5" font-family="Helvetica,sans-Serif" font-size="10.00">array</text>
</a>
</g>
</g>
<!-- Node13&#45;&gt;Node14 -->
<g id="edge13" class="edge"><title>Node13&#45;&gt;Node14</title>
<path fill="none" stroke="midnightblue" d="M851.824,-347.89C682.929,-338.755 162,-304.911 162,-235 162,-235 162,-235 162,-177 162,-147.724 85.7476,-102.549 44.6061,-80.3052"/>
<polygon fill="midnightblue" stroke="midnightblue" points="46.1539,-77.1639 35.6838,-75.543 42.8578,-83.3394 46.1539,-77.1639"/>
</g>
<!-- Node15 -->
<g id="node15" class="node"><title>Node15</title>
<g id="a_node15"><a xlink:title=" ">
<polygon fill="white" stroke="#bfbfbf" points="1129,-224.5 1129,-243.5 1187,-243.5 1187,-224.5 1129,-224.5"/>
<text text-anchor="middle" x="1158" y="-231.5" font-family="Helvetica,sans-Serif" font-size="10.00">functional</text>
</a>
</g>
</g>
<!-- Node13&#45;&gt;Node15 -->
<g id="edge14" class="edge"><title>Node13&#45;&gt;Node15</title>
<path fill="none" stroke="midnightblue" d="M938.298,-336.45C962.174,-326.547 994.682,-312.817 1023,-300 1060.99,-282.804 1104.34,-261.655 1131.44,-248.248"/>
<polygon fill="midnightblue" stroke="midnightblue" points="1133.25,-251.259 1140.65,-243.68 1130.13,-244.988 1133.25,-251.259"/>
</g>
<!-- Node16 -->
<g id="node16" class="node"><title>Node16</title>
<g id="a_node16"><a xlink:title=" ">
<polygon fill="white" stroke="#bfbfbf" points="798,-56.5 798,-75.5 872,-75.5 872,-56.5 798,-56.5"/>
<text text-anchor="middle" x="835" y="-63.5" font-family="Helvetica,sans-Serif" font-size="10.00">system_error</text>
</a>
</g>
</g>
<!-- Node13&#45;&gt;Node16 -->
<g id="edge15" class="edge"><title>Node13&#45;&gt;Node16</title>
<path fill="none" stroke="midnightblue" d="M865.795,-336.418C811.98,-314.246 715.965,-265.56 676,-188 671.929,-180.098 671.719,-175.79 676,-168 701.516,-121.563 758.423,-93.4495 796.765,-79.0662"/>
<polygon fill="midnightblue" stroke="midnightblue" points="798.342,-82.2183 806.564,-75.5359 795.97,-75.6327 798.342,-82.2183"/>
</g>
<!-- Node17 -->
<g id="node17" class="node"><title>Node17</title>
<g id="a_node17"><a xlink:href="event__handler__select_8h.html" target="_top" xlink:title=" ">
<polygon fill="white" stroke="black" points="513,-280.5 513,-299.5 629,-299.5 629,-280.5 513,-280.5"/>
<text text-anchor="middle" x="571" y="-287.5" font-family="Helvetica,sans-Serif" font-size="10.00">event_handler_select.h</text>
</a>
</g>
</g>
<!-- Node13&#45;&gt;Node17 -->
<g id="edge17" class="edge"><title>Node13&#45;&gt;Node17</title>
<path fill="none" stroke="midnightblue" d="M851.969,-341.203C791.409,-330.382 691.689,-312.565 628.774,-301.323"/>
<polygon fill="midnightblue" stroke="midnightblue" points="629.082,-297.823 618.622,-299.509 627.851,-304.714 629.082,-297.823"/>
</g>
<!-- Node20 -->
<g id="node20" class="node"><title>Node20</title>
<g id="a_node20"><a xlink:href="socket_8h.html" target="_top" xlink:title=" ">
<polygon fill="white" stroke="black" points="960,-280.5 960,-299.5 1014,-299.5 1014,-280.5 960,-280.5"/>
<text text-anchor="middle" x="987" y="-287.5" font-family="Helvetica,sans-Serif" font-size="10.00">socket.h</text>
</a>
</g>
</g>
<!-- Node13&#45;&gt;Node20 -->
<g id="edge21" class="edge"><title>Node13&#45;&gt;Node20</title>
<path fill="none" stroke="midnightblue" d="M923.67,-336.399C936.601,-327.129 953.486,-315.025 966.568,-305.647"/>
<polygon fill="midnightblue" stroke="midnightblue" points="968.835,-308.329 974.923,-299.658 964.756,-302.639 968.835,-308.329"/>
</g>
<!-- Node17&#45;&gt;Node1 -->
<g id="edge20" class="edge"><title>Node17&#45;&gt;Node1</title>
<path fill="none" stroke="midnightblue" d="M580.038,-299.647C609.448,-327.784 703.26,-417.538 750.805,-463.025"/>
<polygon fill="midnightblue" stroke="midnightblue" points="748.65,-465.808 758.296,-470.192 753.49,-460.75 748.65,-465.808"/>
</g>
<!-- Node18 -->
<g id="node18" class="node"><title>Node18</title>
<g id="a_node18"><a xlink:title=" ">
<polygon fill="white" stroke="#bfbfbf" points="734,-56.5 734,-75.5 780,-75.5 780,-56.5 734,-56.5"/>
<text text-anchor="middle" x="757" y="-63.5" font-family="Helvetica,sans-Serif" font-size="10.00">cstdint</text>
</a>
</g>
</g>
<!-- Node17&#45;&gt;Node18 -->
<g id="edge18" class="edge"><title>Node17&#45;&gt;Node18</title>
<path fill="none" stroke="midnightblue" d="M574.925,-280.156C587.687,-252.232 630.584,-164.685 689,-112 702.239,-100.06 718.909,-88.9768 732.43,-80.7975"/>
<polygon fill="midnightblue" stroke="midnightblue" points="734.37,-83.7172 741.207,-75.624 730.815,-77.6868 734.37,-83.7172"/>
</g>
<!-- Node19 -->
<g id="node19" class="node"><title>Node19</title>
<g id="a_node19"><a xlink:title=" ">
<polygon fill="white" stroke="#bfbfbf" points="450,-56.5 450,-75.5 512,-75.5 512,-56.5 450,-56.5"/>
<text text-anchor="middle" x="481" y="-63.5" font-family="Helvetica,sans-Serif" font-size="10.00">type_traits</text>
</a>
</g>
</g>
<!-- Node17&#45;&gt;Node19 -->
<g id="edge19" class="edge"><title>Node17&#45;&gt;Node19</title>
<path fill="none" stroke="midnightblue" d="M562.935,-280.316C548.014,-263.738 516.152,-225.851 500,-188 485.446,-153.894 481.904,-110.108 481.124,-85.6547"/>
<polygon fill="midnightblue" stroke="midnightblue" points="484.623,-85.5368 480.929,-75.6067 477.624,-85.6728 484.623,-85.5368"/>
</g>
<!-- Node20&#45;&gt;Node3 -->
<g id="edge68" class="edge"><title>Node20&#45;&gt;Node3</title>
<path fill="none" stroke="midnightblue" d="M991.651,-280.4C996.523,-271.363 1004.37,-256.722 1011,-244 1041.32,-185.787 1076.32,-116.259 1092.27,-84.446"/>
<polygon fill="midnightblue" stroke="midnightblue" points="1095.4,-86.0131 1096.75,-75.5045 1089.14,-82.8781 1095.4,-86.0131"/>
</g>
<!-- Node20&#45;&gt;Node15 -->
<g id="edge23" class="edge"><title>Node20&#45;&gt;Node15</title>
<path fill="none" stroke="midnightblue" d="M1014.1,-280.444C1042.99,-271.32 1088.92,-256.813 1121.11,-246.651"/>
<polygon fill="midnightblue" stroke="midnightblue" points="1122.55,-249.865 1131.03,-243.516 1120.44,-243.19 1122.55,-249.865"/>
</g>
<!-- Node21 -->
<g id="node21" class="node"><title>Node21</title>
<g id="a_node21"><a xlink:title=" ">
<polygon fill="white" stroke="#bfbfbf" points="960.5,-56.5 960.5,-75.5 1009.5,-75.5 1009.5,-56.5 960.5,-56.5"/>
<text text-anchor="middle" x="985" y="-63.5" font-family="Helvetica,sans-Serif" font-size="10.00">cassert</text>
</a>
</g>
</g>
<!-- Node20&#45;&gt;Node21 -->
<g id="edge22" class="edge"><title>Node20&#45;&gt;Node21</title>
<path fill="none" stroke="midnightblue" d="M988.744,-280.478C993.728,-254.856 1007.1,-176.322 998,-112 996.732,-103.042 994.111,-93.372 991.552,-85.2998"/>
<polygon fill="midnightblue" stroke="midnightblue" points="994.861,-84.1569 988.344,-75.8034 988.229,-86.3976 994.861,-84.1569"/>
</g>
<!-- Node22 -->
<g id="node22" class="node"><title>Node22</title>
<g id="a_node22"><a xlink:href="address_8h.html" target="_top" xlink:title=" ">
<polygon fill="white" stroke="black" points="774.5,-224.5 774.5,-243.5 833.5,-243.5 833.5,-224.5 774.5,-224.5"/>
<text text-anchor="middle" x="804" y="-231.5" font-family="Helvetica,sans-Serif" font-size="10.00">address.h</text>
</a>
</g>
</g>
<!-- Node20&#45;&gt;Node22 -->
<g id="edge24" class="edge"><title>Node20&#45;&gt;Node22</title>
<path fill="none" stroke="midnightblue" d="M959.998,-281.032C929.05,-271.9 878.074,-256.858 842.86,-246.467"/>
<polygon fill="midnightblue" stroke="midnightblue" points="843.509,-243.009 832.927,-243.536 841.528,-249.723 843.509,-243.009"/>
</g>
<!-- Node28 -->
<g id="node28" class="node"><title>Node28</title>
<g id="a_node28"><a xlink:href="buffer_8h.html" target="_top" xlink:title=" ">
<polygon fill="white" stroke="black" points="811,-112.5 811,-131.5 859,-131.5 859,-112.5 811,-112.5"/>
<text text-anchor="middle" x="835" y="-119.5" font-family="Helvetica,sans-Serif" font-size="10.00">buffer.h</text>
</a>
</g>
</g>
<!-- Node20&#45;&gt;Node28 -->
<g id="edge67" class="edge"><title>Node20&#45;&gt;Node28</title>
<path fill="none" stroke="midnightblue" d="M981.084,-280.248C966.88,-259.546 929.183,-206.421 891,-168 880.039,-156.971 866.473,-146.011 855.438,-137.67"/>
<polygon fill="midnightblue" stroke="midnightblue" points="857.349,-134.729 847.23,-131.59 853.182,-140.354 857.349,-134.729"/>
</g>
<!-- Node33 -->
<g id="node33" class="node"><title>Node33</title>
<g id="a_node33"><a xlink:href="utils_8h.html" target="_top" xlink:title=" ">
<polygon fill="white" stroke="black" points="333.5,-112.5 333.5,-131.5 376.5,-131.5 376.5,-112.5 333.5,-112.5"/>
<text text-anchor="middle" x="355" y="-119.5" font-family="Helvetica,sans-Serif" font-size="10.00">utils.h</text>
</a>
</g>
</g>
<!-- Node20&#45;&gt;Node33 -->
<g id="edge71" class="edge"><title>Node20&#45;&gt;Node33</title>
<path fill="none" stroke="midnightblue" d="M959.714,-288.222C877.913,-285.008 628.895,-268.769 443,-188 415.408,-176.012 388.272,-153.976 371.59,-138.914"/>
<polygon fill="midnightblue" stroke="midnightblue" points="373.587,-135.993 363.873,-131.764 368.83,-141.128 373.587,-135.993"/>
</g>
<!-- Node38 -->
<g id="node38" class="node"><title>Node38</title>
<g id="a_node38"><a xlink:href="exception_8h.html" target="_top" xlink:title=" ">
<polygon fill="white" stroke="black" points="922.5,-112.5 922.5,-131.5 989.5,-131.5 989.5,-112.5 922.5,-112.5"/>
<text text-anchor="middle" x="956" y="-119.5" font-family="Helvetica,sans-Serif" font-size="10.00">exception.h</text>
</a>
</g>
</g>
<!-- Node20&#45;&gt;Node38 -->
<g id="edge69" class="edge"><title>Node20&#45;&gt;Node38</title>
<path fill="none" stroke="midnightblue" d="M985.333,-280.075C980.454,-253.945 966.124,-177.211 959.469,-141.577"/>
<polygon fill="midnightblue" stroke="midnightblue" points="962.876,-140.756 957.6,-131.568 955.995,-142.041 962.876,-140.756"/>
</g>
<!-- Node41 -->
<g id="node41" class="node"><title>Node41</title>
<g id="a_node41"><a xlink:href="useful__base__types_8h.html" target="_top" xlink:title=" ">
<polygon fill="white" stroke="black" points="1272,-56.5 1272,-75.5 1378,-75.5 1378,-56.5 1272,-56.5"/>
<text text-anchor="middle" x="1325" y="-63.5" font-family="Helvetica,sans-Serif" font-size="10.00">useful_base_types.h</text>
</a>
</g>
</g>
<!-- Node20&#45;&gt;Node41 -->
<g id="edge70" class="edge"><title>Node20&#45;&gt;Node41</title>
<path fill="none" stroke="midnightblue" d="M1002.62,-280.416C1027.13,-267.17 1076.33,-241.455 1120,-224 1213.11,-186.786 1276.87,-219.413 1326,-132 1333.94,-117.871 1332.66,-99.1387 1330,-85.4144"/>
<polygon fill="midnightblue" stroke="midnightblue" points="1333.41,-84.6078 1327.72,-75.6651 1326.59,-86.1989 1333.41,-84.6078"/>
</g>
<!-- Node23 -->
<g id="node23" class="node"><title>Node23</title>
<g id="a_node23"><a xlink:title=" ">
<polygon fill="white" stroke="#bfbfbf" points="841.5,-168.5 841.5,-187.5 882.5,-187.5 882.5,-168.5 841.5,-168.5"/>
<text text-anchor="middle" x="862" y="-175.5" font-family="Helvetica,sans-Serif" font-size="10.00">string</text>
</a>
</g>
</g>
<!-- Node22&#45;&gt;Node23 -->
<g id="edge25" class="edge"><title>Node22&#45;&gt;Node23</title>
<path fill="none" stroke="midnightblue" d="M813.319,-224.324C821.893,-216.341 834.812,-204.313 845.188,-194.653"/>
<polygon fill="midnightblue" stroke="midnightblue" points="847.578,-197.21 852.512,-187.834 842.808,-192.086 847.578,-197.21"/>
</g>
<!-- Node24 -->
<g id="node24" class="node"><title>Node24</title>
<g id="a_node24"><a xlink:title=" ">
<polygon fill="white" stroke="#bfbfbf" points="685,-168.5 685,-187.5 729,-187.5 729,-168.5 685,-168.5"/>
<text text-anchor="middle" x="707" y="-175.5" font-family="Helvetica,sans-Serif" font-size="10.00">variant</text>
</a>
</g>
</g>
<!-- Node22&#45;&gt;Node24 -->
<g id="edge26" class="edge"><title>Node22&#45;&gt;Node24</title>
<path fill="none" stroke="midnightblue" d="M788.415,-224.324C773.001,-215.743 749.188,-202.486 731.29,-192.522"/>
<polygon fill="midnightblue" stroke="midnightblue" points="732.986,-189.461 722.546,-187.655 729.581,-195.577 732.986,-189.461"/>
</g>
<!-- Node25 -->
<g id="node25" class="node"><title>Node25</title>
<g id="a_node25"><a xlink:href="bin__rw_8h.html" target="_top" xlink:title=" ">
<polygon fill="white" stroke="black" points="509.5,-168.5 509.5,-187.5 562.5,-187.5 562.5,-168.5 509.5,-168.5"/>
<text text-anchor="middle" x="536" y="-175.5" font-family="Helvetica,sans-Serif" font-size="10.00">bin_rw.h</text>
</a>
</g>
</g>
<!-- Node22&#45;&gt;Node25 -->
<g id="edge27" class="edge"><title>Node22&#45;&gt;Node25</title>
<path fill="none" stroke="midnightblue" d="M774.295,-227.015C724.978,-217.078 626.334,-197.202 572.727,-186.4"/>
<polygon fill="midnightblue" stroke="midnightblue" points="573.129,-182.911 562.634,-184.367 571.746,-189.773 573.129,-182.911"/>
</g>
<!-- Node22&#45;&gt;Node28 -->
<g id="edge55" class="edge"><title>Node22&#45;&gt;Node28</title>
<path fill="none" stroke="midnightblue" d="M795.468,-224.456C784.018,-211.904 766.189,-187.822 776,-168 782.603,-154.659 795.265,-144.194 807.171,-136.726"/>
<polygon fill="midnightblue" stroke="midnightblue" points="809.118,-139.643 816.016,-131.602 805.609,-133.587 809.118,-139.643"/>
</g>
<!-- Node22&#45;&gt;Node33 -->
<g id="edge66" class="edge"><title>Node22&#45;&gt;Node33</title>
<path fill="none" stroke="midnightblue" d="M774.075,-231.296C718.896,-227.559 597.817,-216.572 500,-188 455.941,-175.13 407.903,-151.533 379.669,-136.588"/>
<polygon fill="midnightblue" stroke="midnightblue" points="381.014,-133.338 370.547,-131.695 377.705,-139.507 381.014,-133.338"/>
</g>
<!-- Node22&#45;&gt;Node38 -->
<g id="edge56" class="edge"><title>Node22&#45;&gt;Node38</title>
<path fill="none" stroke="midnightblue" d="M824.718,-224.466C843.024,-216.431 869.998,-203.357 891,-188 910.416,-173.803 929.5,-153.792 941.913,-139.735"/>
<polygon fill="midnightblue" stroke="midnightblue" points="944.832,-141.71 948.724,-131.856 939.536,-137.133 944.832,-141.71"/>
</g>
<!-- Node39 -->
<g id="node39" class="node"><title>Node39</title>
<g id="a_node39"><a xlink:href="sys__socket__ops_8h.html" target="_top" xlink:title=" ">
<polygon fill="white" stroke="black" points="1129,-168.5 1129,-187.5 1225,-187.5 1225,-168.5 1129,-168.5"/>
<text text-anchor="middle" x="1177" y="-175.5" font-family="Helvetica,sans-Serif" font-size="10.00">sys_socket_ops.h</text>
</a>
</g>
</g>
<!-- Node22&#45;&gt;Node39 -->
<g id="edge59" class="edge"><title>Node22&#45;&gt;Node39</title>
<path fill="none" stroke="midnightblue" d="M833.58,-228.718C895.133,-219.806 1037.97,-199.128 1118.7,-187.44"/>
<polygon fill="midnightblue" stroke="midnightblue" points="1119.31,-190.888 1128.71,-185.992 1118.31,-183.961 1119.31,-190.888"/>
</g>
<!-- Node42 -->
<g id="node42" class="node"><title>Node42</title>
<g id="a_node42"><a xlink:href="tag_8h.html" target="_top" xlink:title=" ">
<polygon fill="white" stroke="black" points="785,-168.5 785,-187.5 823,-187.5 823,-168.5 785,-168.5"/>
<text text-anchor="middle" x="804" y="-175.5" font-family="Helvetica,sans-Serif" font-size="10.00">tag.h</text>
</a>
</g>
</g>
<!-- Node22&#45;&gt;Node42 -->
<g id="edge65" class="edge"><title>Node22&#45;&gt;Node42</title>
<path fill="none" stroke="midnightblue" d="M804,-224.083C804,-217.006 804,-206.861 804,-197.986"/>
<polygon fill="midnightblue" stroke="midnightblue" points="807.5,-197.751 804,-187.751 800.5,-197.751 807.5,-197.751"/>
</g>
<!-- Node25&#45;&gt;Node19 -->
<g id="edge30" class="edge"><title>Node25&#45;&gt;Node19</title>
<path fill="none" stroke="midnightblue" d="M527.419,-168.431C519.297,-159.879 507.294,-146.025 500,-132 492.372,-117.332 487.391,-99.1649 484.451,-85.7692"/>
<polygon fill="midnightblue" stroke="midnightblue" points="487.853,-84.933 482.448,-75.8206 480.99,-86.3147 487.853,-84.933"/>
</g>
<!-- Node26 -->
<g id="node26" class="node"><title>Node26</title>
<g id="a_node26"><a xlink:title=" ">
<polygon fill="white" stroke="#bfbfbf" points="581,-112.5 581,-131.5 637,-131.5 637,-112.5 581,-112.5"/>
<text text-anchor="middle" x="609" y="-119.5" font-family="Helvetica,sans-Serif" font-size="10.00">algorithm</text>
</a>
</g>
</g>
<!-- Node25&#45;&gt;Node26 -->
<g id="edge28" class="edge"><title>Node25&#45;&gt;Node26</title>
<path fill="none" stroke="midnightblue" d="M547.729,-168.324C558.837,-160.107 575.742,-147.602 588.983,-137.807"/>
<polygon fill="midnightblue" stroke="midnightblue" points="591.1,-140.595 597.058,-131.834 586.937,-134.967 591.1,-140.595"/>
</g>
<!-- Node27 -->
<g id="node27" class="node"><title>Node27</title>
<g id="a_node27"><a xlink:title=" ">
<polygon fill="white" stroke="#bfbfbf" points="386,-56.5 386,-75.5 432,-75.5 432,-56.5 386,-56.5"/>
<text text-anchor="middle" x="409" y="-63.5" font-family="Helvetica,sans-Serif" font-size="10.00">cstring</text>
</a>
</g>
</g>
<!-- Node25&#45;&gt;Node27 -->
<g id="edge29" class="edge"><title>Node25&#45;&gt;Node27</title>
<path fill="none" stroke="midnightblue" d="M526.035,-168.368C504.612,-149.814 453.927,-105.913 426.823,-82.4376"/>
<polygon fill="midnightblue" stroke="midnightblue" points="428.77,-79.4929 418.919,-75.5914 424.187,-84.7841 428.77,-79.4929"/>
</g>
<!-- Node25&#45;&gt;Node28 -->
<g id="edge31" class="edge"><title>Node25&#45;&gt;Node28</title>
<path fill="none" stroke="midnightblue" d="M562.534,-172.208C616.735,-162.419 740.123,-140.135 800.471,-129.236"/>
<polygon fill="midnightblue" stroke="midnightblue" points="801.412,-132.623 810.631,-127.401 800.168,-125.734 801.412,-132.623"/>
</g>
<!-- Node29 -->
<g id="node29" class="node"><title>Node29</title>
<g id="a_node29"><a xlink:href="endian_8h.html" target="_top" xlink:title=" ">
<polygon fill="white" stroke="black" points="509.5,-112.5 509.5,-131.5 562.5,-131.5 562.5,-112.5 509.5,-112.5"/>
<text text-anchor="middle" x="536" y="-119.5" font-family="Helvetica,sans-Serif" font-size="10.00">endian.h</text>
</a>
</g>
</g>
<!-- Node25&#45;&gt;Node29 -->
<g id="edge38" class="edge"><title>Node25&#45;&gt;Node29</title>
<path fill="none" stroke="midnightblue" d="M536,-168.083C536,-161.006 536,-150.861 536,-141.986"/>
<polygon fill="midnightblue" stroke="midnightblue" points="539.5,-141.751 536,-131.751 532.5,-141.751 539.5,-141.751"/>
</g>
<!-- Node25&#45;&gt;Node33 -->
<g id="edge45" class="edge"><title>Node25&#45;&gt;Node33</title>
<path fill="none" stroke="midnightblue" d="M509.293,-169.032C476.535,-159.259 421.09,-142.717 386.346,-132.352"/>
<polygon fill="midnightblue" stroke="midnightblue" points="387.287,-128.98 376.704,-129.475 385.286,-135.688 387.287,-128.98"/>
</g>
<!-- Node28&#45;&gt;Node3 -->
<g id="edge37" class="edge"><title>Node28&#45;&gt;Node3</title>
<path fill="none" stroke="midnightblue" d="M859.075,-116.113C902.265,-107.345 993.737,-88.7752 1051,-77.1495"/>
<polygon fill="midnightblue" stroke="midnightblue" points="1051.83,-80.5537 1060.93,-75.1341 1050.44,-73.6937 1051.83,-80.5537"/>
</g>
<!-- Node28&#45;&gt;Node12 -->
<g id="edge33" class="edge"><title>Node28&#45;&gt;Node12</title>
<path fill="none" stroke="midnightblue" d="M848.663,-112.394C865.645,-100.524 891.219,-78.0816 881,-56 875.08,-43.2072 863.532,-32.7216 852.722,-25.1003"/>
<polygon fill="midnightblue" stroke="midnightblue" points="854.618,-22.1581 844.334,-19.613 850.786,-28.0161 854.618,-22.1581"/>
</g>
<!-- Node28&#45;&gt;Node16 -->
<g id="edge35" class="edge"><title>Node28&#45;&gt;Node16</title>
<path fill="none" stroke="midnightblue" d="M835,-112.083C835,-105.006 835,-94.8611 835,-85.9865"/>
<polygon fill="midnightblue" stroke="midnightblue" points="838.5,-85.751 835,-75.7511 831.5,-85.7511 838.5,-85.751"/>
</g>
<!-- Node28&#45;&gt;Node18 -->
<g id="edge34" class="edge"><title>Node28&#45;&gt;Node18</title>
<path fill="none" stroke="midnightblue" d="M822.468,-112.324C810.414,-103.979 791.973,-91.2122 777.731,-81.3524"/>
<polygon fill="midnightblue" stroke="midnightblue" points="779.715,-78.469 769.501,-75.6545 775.731,-84.2243 779.715,-78.469"/>
</g>
<!-- Node28&#45;&gt;Node19 -->
<g id="edge36" class="edge"><title>Node28&#45;&gt;Node19</title>
<path fill="none" stroke="midnightblue" d="M810.865,-118.201C759.578,-112.113 635.791,-96.6752 522.291,-76.1201"/>
<polygon fill="midnightblue" stroke="midnightblue" points="522.861,-72.6665 512.395,-74.3099 521.602,-79.5522 522.861,-72.6665"/>
</g>
<!-- Node28&#45;&gt;Node21 -->
<g id="edge32" class="edge"><title>Node28&#45;&gt;Node21</title>
<path fill="none" stroke="midnightblue" d="M858.768,-112.444C883.893,-103.399 923.711,-89.064 951.9,-78.9158"/>
<polygon fill="midnightblue" stroke="midnightblue" points="953.12,-82.1968 961.343,-75.5164 950.749,-75.6106 953.12,-82.1968"/>
</g>
<!-- Node29&#45;&gt;Node18 -->
<g id="edge40" class="edge"><title>Node29&#45;&gt;Node18</title>
<path fill="none" stroke="midnightblue" d="M562.726,-114.275C565.851,-113.501 568.995,-112.729 572,-112 636.838,-96.2681 655.689,-93.6756 723.985,-76.1786"/>
<polygon fill="midnightblue" stroke="midnightblue" points="725.15,-79.4929 733.96,-73.6079 723.403,-72.7143 725.15,-79.4929"/>
</g>
<!-- Node29&#45;&gt;Node19 -->
<g id="edge43" class="edge"><title>Node29&#45;&gt;Node19</title>
<path fill="none" stroke="midnightblue" d="M526.918,-112.083C518.829,-104.141 506.805,-92.3354 497.09,-82.7973"/>
<polygon fill="midnightblue" stroke="midnightblue" points="499.501,-80.2595 489.913,-75.7511 494.597,-85.2545 499.501,-80.2595"/>
</g>
<!-- Node29&#45;&gt;Node27 -->
<g id="edge41" class="edge"><title>Node29&#45;&gt;Node27</title>
<path fill="none" stroke="midnightblue" d="M515.876,-112.444C494.976,-103.557 462.065,-89.5632 438.284,-79.4514"/>
<polygon fill="midnightblue" stroke="midnightblue" points="439.602,-76.2085 429.029,-75.5164 436.862,-82.6504 439.602,-76.2085"/>
</g>
<!-- Node30 -->
<g id="node30" class="node"><title>Node30</title>
<g id="a_node30"><a xlink:title=" ">
<polygon fill="white" stroke="#bfbfbf" points="530.5,-56.5 530.5,-75.5 575.5,-75.5 575.5,-56.5 530.5,-56.5"/>
<text text-anchor="middle" x="553" y="-63.5" font-family="Helvetica,sans-Serif" font-size="10.00">climits</text>
</a>
</g>
</g>
<!-- Node29&#45;&gt;Node30 -->
<g id="edge39" class="edge"><title>Node29&#45;&gt;Node30</title>
<path fill="none" stroke="midnightblue" d="M538.807,-112.083C541.085,-104.849 544.371,-94.4087 547.208,-85.3968"/>
<polygon fill="midnightblue" stroke="midnightblue" points="550.581,-86.3406 550.245,-75.7511 543.904,-84.2385 550.581,-86.3406"/>
</g>
<!-- Node31 -->
<g id="node31" class="node"><title>Node31</title>
<g id="a_node31"><a xlink:title=" ">
<polygon fill="white" stroke="#bfbfbf" points="594,-56.5 594,-75.5 658,-75.5 658,-56.5 594,-56.5"/>
<text text-anchor="middle" x="626" y="-63.5" font-family="Helvetica,sans-Serif" font-size="10.00">string_view</text>
</a>
</g>
</g>
<!-- Node29&#45;&gt;Node31 -->
<g id="edge42" class="edge"><title>Node29&#45;&gt;Node31</title>
<path fill="none" stroke="midnightblue" d="M550.46,-112.324C564.5,-103.9 586.048,-90.9709 602.543,-81.0741"/>
<polygon fill="midnightblue" stroke="midnightblue" points="604.802,-83.8007 611.576,-75.6545 601.2,-77.7983 604.802,-83.8007"/>
</g>
<!-- Node32 -->
<g id="node32" class="node"><title>Node32</title>
<g id="a_node32"><a xlink:title=" ">
<polygon fill="white" stroke="#bfbfbf" points="676,-56.5 676,-75.5 716,-75.5 716,-56.5 676,-56.5"/>
<text text-anchor="middle" x="696" y="-63.5" font-family="Helvetica,sans-Serif" font-size="10.00">utility</text>
</a>
</g>
</g>
<!-- Node29&#45;&gt;Node32 -->
<g id="edge44" class="edge"><title>Node29&#45;&gt;Node32</title>
<path fill="none" stroke="midnightblue" d="M561.352,-112.444C589.853,-102.825 636.078,-87.2238 666.26,-77.0372"/>
<polygon fill="midnightblue" stroke="midnightblue" points="667.476,-80.3207 675.832,-73.8067 665.238,-73.6883 667.476,-80.3207"/>
</g>
<!-- Node33&#45;&gt;Node3 -->
<g id="edge54" class="edge"><title>Node33&#45;&gt;Node3</title>
<path fill="none" stroke="midnightblue" d="M376.785,-119.64C476.375,-113.405 888.998,-87.3673 1018,-76 1028.61,-75.0648 1039.97,-73.9246 1050.78,-72.7743"/>
<polygon fill="midnightblue" stroke="midnightblue" points="1051.36,-76.2318 1060.93,-71.6746 1050.61,-69.2726 1051.36,-76.2318"/>
</g>
<!-- Node33&#45;&gt;Node14 -->
<g id="edge48" class="edge"><title>Node33&#45;&gt;Node14</title>
<path fill="none" stroke="midnightblue" d="M333.488,-119.097C284.412,-114.495 160.366,-101.388 47.959,-75.8836"/>
<polygon fill="midnightblue" stroke="midnightblue" points="48.6934,-72.4611 38.1623,-73.6219 47.1187,-79.2817 48.6934,-72.4611"/>
</g>
<!-- Node33&#45;&gt;Node16 -->
<g id="edge51" class="edge"><title>Node33&#45;&gt;Node16</title>
<path fill="none" stroke="midnightblue" d="M376.763,-119.44C439.109,-114.823 623.877,-100.119 787.636,-76.0796"/>
<polygon fill="midnightblue" stroke="midnightblue" points="788.515,-79.4875 797.893,-74.5573 787.487,-72.5634 788.515,-79.4875"/>
</g>
<!-- Node33&#45;&gt;Node19 -->
<g id="edge52" class="edge"><title>Node33&#45;&gt;Node19</title>
<path fill="none" stroke="midnightblue" d="M374.965,-112.444C395.609,-103.596 428.063,-89.6875 451.632,-79.5865"/>
<polygon fill="midnightblue" stroke="midnightblue" points="453.316,-82.6727 461.128,-75.5164 450.558,-76.2387 453.316,-82.6727"/>
</g>
<!-- Node33&#45;&gt;Node27 -->
<g id="edge50" class="edge"><title>Node33&#45;&gt;Node27</title>
<path fill="none" stroke="midnightblue" d="M363.917,-112.083C371.78,-104.22 383.431,-92.5688 392.919,-83.0813"/>
<polygon fill="midnightblue" stroke="midnightblue" points="395.653,-85.2971 400.249,-75.7511 390.703,-80.3473 395.653,-85.2971"/>
</g>
<!-- Node34 -->
<g id="node34" class="node"><title>Node34</title>
<g id="a_node34"><a xlink:title=" ">
<polygon fill="white" stroke="#bfbfbf" points="56,-56.5 56,-75.5 116,-75.5 116,-56.5 56,-56.5"/>
<text text-anchor="middle" x="86" y="-63.5" font-family="Helvetica,sans-Serif" font-size="10.00">fmt/core.h</text>
</a>
</g>
</g>
<!-- Node33&#45;&gt;Node34 -->
<g id="edge46" class="edge"><title>Node33&#45;&gt;Node34</title>
<path fill="none" stroke="midnightblue" d="M333.388,-117.022C294.171,-109.751 208.45,-93.6121 126.219,-76.2058"/>
<polygon fill="midnightblue" stroke="midnightblue" points="126.721,-72.7343 116.211,-74.0773 125.264,-79.5812 126.721,-72.7343"/>
</g>
<!-- Node35 -->
<g id="node35" class="node"><title>Node35</title>
<g id="a_node35"><a xlink:title=" ">
<polygon fill="white" stroke="#bfbfbf" points="134,-56.5 134,-75.5 202,-75.5 202,-56.5 134,-56.5"/>
<text text-anchor="middle" x="168" y="-63.5" font-family="Helvetica,sans-Serif" font-size="10.00">fmt/format.h</text>
</a>
</g>
</g>
<!-- Node33&#45;&gt;Node35 -->
<g id="edge47" class="edge"><title>Node33&#45;&gt;Node35</title>
<path fill="none" stroke="midnightblue" d="M333.183,-114.7C302.405,-105.812 245.73,-89.446 207.455,-78.3933"/>
<polygon fill="midnightblue" stroke="midnightblue" points="208.245,-74.9785 197.666,-75.5667 206.303,-81.7037 208.245,-74.9785"/>
</g>
<!-- Node36 -->
<g id="node36" class="node"><title>Node36</title>
<g id="a_node36"><a xlink:title=" ">
<polygon fill="white" stroke="#bfbfbf" points="220,-56.5 220,-75.5 266,-75.5 266,-56.5 220,-56.5"/>
<text text-anchor="middle" x="243" y="-63.5" font-family="Helvetica,sans-Serif" font-size="10.00">chrono</text>
</a>
</g>
</g>
<!-- Node33&#45;&gt;Node36 -->
<g id="edge49" class="edge"><title>Node33&#45;&gt;Node36</title>
<path fill="none" stroke="midnightblue" d="M337.005,-112.324C318.962,-103.625 290.953,-90.1202 270.197,-80.113"/>
<polygon fill="midnightblue" stroke="midnightblue" points="271.478,-76.8449 260.95,-75.6545 268.438,-83.1502 271.478,-76.8449"/>
</g>
<!-- Node37 -->
<g id="node37" class="node"><title>Node37</title>
<g id="a_node37"><a xlink:title=" ">
<polygon fill="white" stroke="#bfbfbf" points="284.5,-56.5 284.5,-75.5 367.5,-75.5 367.5,-56.5 284.5,-56.5"/>
<text text-anchor="middle" x="326" y="-63.5" font-family="Helvetica,sans-Serif" font-size="10.00">unordered_map</text>
</a>
</g>
</g>
<!-- Node33&#45;&gt;Node37 -->
<g id="edge53" class="edge"><title>Node33&#45;&gt;Node37</title>
<path fill="none" stroke="midnightblue" d="M350.211,-112.083C346.242,-104.691 340.475,-93.9533 335.565,-84.8111"/>
<polygon fill="midnightblue" stroke="midnightblue" points="338.514,-82.9051 330.7,-75.7511 332.347,-86.217 338.514,-82.9051"/>
</g>
<!-- Node38&#45;&gt;Node3 -->
<g id="edge58" class="edge"><title>Node38&#45;&gt;Node3</title>
<path fill="none" stroke="midnightblue" d="M978.976,-112.444C1003.16,-103.438 1041.42,-89.1891 1068.65,-79.049"/>
<polygon fill="midnightblue" stroke="midnightblue" points="1069.98,-82.2864 1078.13,-75.5164 1067.54,-75.7265 1069.98,-82.2864"/>
</g>
<!-- Node38&#45;&gt;Node16 -->
<g id="edge57" class="edge"><title>Node38&#45;&gt;Node16</title>
<path fill="none" stroke="midnightblue" d="M936.827,-112.444C917.091,-103.636 886.115,-89.8116 863.507,-79.722"/>
<polygon fill="midnightblue" stroke="midnightblue" points="864.641,-76.3957 854.083,-75.5164 861.789,-82.788 864.641,-76.3957"/>
</g>
<!-- Node39&#45;&gt;Node3 -->
<g id="edge60" class="edge"><title>Node39&#45;&gt;Node3</title>
<path fill="none" stroke="midnightblue" d="M1171.04,-168.368C1158.49,-150.215 1129.19,-107.802 1112.74,-83.9902"/>
<polygon fill="midnightblue" stroke="midnightblue" points="1115.5,-81.8292 1106.94,-75.5914 1109.74,-85.8083 1115.5,-81.8292"/>
</g>
<!-- Node40 -->
<g id="node40" class="node"><title>Node40</title>
<g id="a_node40"><a xlink:href="sys__error__code_8h.html" target="_top" xlink:title=" ">
<polygon fill="white" stroke="black" points="1205,-112.5 1205,-131.5 1297,-131.5 1297,-112.5 1205,-112.5"/>
<text text-anchor="middle" x="1251" y="-119.5" font-family="Helvetica,sans-Serif" font-size="10.00">sys_error_code.h</text>
</a>
</g>
</g>
<!-- Node39&#45;&gt;Node40 -->
<g id="edge61" class="edge"><title>Node39&#45;&gt;Node40</title>
<path fill="none" stroke="midnightblue" d="M1188.89,-168.324C1200.15,-160.107 1217.29,-147.602 1230.71,-137.807"/>
<polygon fill="midnightblue" stroke="midnightblue" points="1232.88,-140.556 1238.89,-131.834 1228.75,-134.901 1232.88,-140.556"/>
</g>
<!-- Node39&#45;&gt;Node41 -->
<g id="edge64" class="edge"><title>Node39&#45;&gt;Node41</title>
<path fill="none" stroke="midnightblue" d="M1225.18,-171.142C1252.33,-165.437 1284.93,-154.183 1306,-132 1317.76,-119.625 1322.29,-100.379 1324.01,-86.037"/>
<polygon fill="midnightblue" stroke="midnightblue" points="1327.52,-86.0695 1324.87,-75.8109 1320.54,-85.4816 1327.52,-86.0695"/>
</g>
<!-- Node40&#45;&gt;Node3 -->
<g id="edge62" class="edge"><title>Node40&#45;&gt;Node3</title>
<path fill="none" stroke="midnightblue" d="M1227.23,-112.444C1202.11,-103.399 1162.29,-89.064 1134.1,-78.9158"/>
<polygon fill="midnightblue" stroke="midnightblue" points="1135.25,-75.6106 1124.66,-75.5164 1132.88,-82.1968 1135.25,-75.6106"/>
</g>
<!-- Node40&#45;&gt;Node41 -->
<g id="edge63" class="edge"><title>Node40&#45;&gt;Node41</title>
<path fill="none" stroke="midnightblue" d="M1262.89,-112.324C1274.15,-104.107 1291.29,-91.6017 1304.71,-81.8069"/>
<polygon fill="midnightblue" stroke="midnightblue" points="1306.88,-84.5559 1312.89,-75.8339 1302.75,-78.9014 1306.88,-84.5559"/>
</g>
</g>
</svg>
        <g id="navigator" transform="translate(0 0)" fill="#404254">
                <rect fill="#f2f5e9" fill-opacity="0.5" stroke="#606060" stroke-width=".5" x="0" y="0" width="60" height="60"/>
                <use id="zoomplus" xlink:href="#zoomPlus" x="17" y="9" onmousedown="handleZoom(evt,'in')"/>
                <use id="zoomminus" xlink:href="#zoomMin" x="42" y="9" onmousedown="handleZoom(evt,'out')"/>
                <use id="reset" xlink:href="#resetDef" x="30" y="36" onmousedown="handleReset()"/>
                <g id="arrowUp" xlink:href="#dirArrow" transform="translate(30 24)" onmousedown="handlePan(0,-1)">
                  <use xlink:href="#rim" fill="#404040">
                        <set attributeName="fill" to="#808080" begin="arrowUp.mouseover" end="arrowUp.mouseout"/>
                  </use>
                  <path fill="none" stroke="white" stroke-width="1.5" d="M0,-3.0v7 M-2.5,-0.5L0,-3.0L2.5,-0.5"/>
                </g>
                <g id="arrowRight" xlink:href="#dirArrow" transform="rotate(90) translate(36 -43)" onmousedown="handlePan(1,0)">
                  <use xlink:href="#rim" fill="#404040">
                        <set attributeName="fill" to="#808080" begin="arrowRight.mouseover" end="arrowRight.mouseout"/>
                  </use>
                  <path fill="none" stroke="white" stroke-width="1.5" d="M0,-3.0v7 M-2.5,-0.5L0,-3.0L2.5,-0.5"/>
                </g>
                <g id="arrowDown" xlink:href="#dirArrow" transform="rotate(180) translate(-30 -48)" onmousedown="handlePan(0,1)">
                  <use xlink:href="#rim" fill="#404040">
                        <set attributeName="fill" to="#808080" begin="arrowDown.mouseover" end="arrowDown.mouseout"/>
                  </use>
                  <path fill="none" stroke="white" stroke-width="1.5" d="M0,-3.0v7 M-2.5,-0.5L0,-3.0L2.5,-0.5"/>
                </g>
                <g id="arrowLeft" xlink:href="#dirArrow" transform="rotate(270) translate(-36 17)" onmousedown="handlePan(-1,0)">
                  <use xlink:href="#rim" fill="#404040">
                        <set attributeName="fill" to="#808080" begin="arrowLeft.mouseover" end="arrowLeft.mouseout"/>
                  </use>
                  <path fill="none" stroke="white" stroke-width="1.5" d="M0,-3.0v7 M-2.5,-0.5L0,-3.0L2.5,-0.5"/>
                </g>
        </g>
        <svg viewBox="0 0 15 15" width="100%" height="30px" preserveAspectRatio="xMaxYMin meet">
         <g id="arrow_out" transform="scale(0.3 0.3)">
          <a xlink:href="executor__select_8h__incl_org.svg" target="_base">
           <rect id="button" ry="5" rx="5" y="6" x="6" height="38" width="38"
                fill="#f2f5e9" fill-opacity="0.5" stroke="#606060" stroke-width="1.0"/>
           <path id="arrow"
             d="M 11.500037,31.436501 C 11.940474,20.09759 22.043105,11.32322 32.158766,21.979434 L 37.068811,17.246167 C 37.068811,17.246167 37.088388,32 37.088388,32 L 22.160133,31.978069 C 22.160133,31.978069 26.997745,27.140456 26.997745,27.140456 C 18.528582,18.264221 13.291696,25.230495 11.500037,31.436501 z"
             style="fill:#404040;"/>
          </a>
         </g>
        </svg>
</svg>
