<?xml version="1.0" encoding="UTF-8" standalone="no"?>
<!DOCTYPE svg PUBLIC "-//W3C//DTD SVG 1.1//EN"
 "http://www.w3.org/Graphics/SVG/1.1/DTD/svg11.dtd">
<!-- Generated by graphviz version 2.38.0 (20140413.2041)
 -->
<!-- Title: C:/projects/ndt/sources/include/ndt/executor_select_base.h Pages: 1 -->
<!--zoomable 397 -->
<svg id="main" version="1.1" xmlns="http://www.w3.org/2000/svg" xmlns:xlink="http://www.w3.org/1999/xlink" xml:space="preserve" onload="init(evt)">
<style type="text/css"><![CDATA[
.edge:hover path { stroke: red; }
.edge:hover polygon { stroke: red; fill: red; }
]]></style>
<script type="text/javascript"><![CDATA[
var edges = document.getElementsByTagName('g');
if (edges && edges.length) {
  for (var i=0;i<edges.length;i++) {
    if (edges[i].id.substr(0,4)=='edge') {
      edges[i].setAttribute('class','edge');
    }
  }
}
]]></script>
        <defs>
                <circle id="rim" cx="0" cy="0" r="7"/>
                <circle id="rim2" cx="0" cy="0" r="3.5"/>
                <g id="zoomPlus">
                        <use xlink:href="#rim" fill="#404040">
                                <set attributeName="fill" to="#808080" begin="zoomplus.mouseover" end="zoomplus.mouseout"/>
                        </use>
                        <path d="M-4,0h8M0,-4v8" fill="none" stroke="white" stroke-width="1.5" pointer-events="none"/>
                </g>
                <g id="zoomMin">
                        <use xlink:href="#rim" fill="#404040">
                                <set attributeName="fill" to="#808080" begin="zoomminus.mouseover" end="zoomminus.mouseout"/>
                        </use>
                        <path d="M-4,0h8" fill="none" stroke="white" stroke-width="1.5" pointer-events="none"/>
                </g>
                <g id="dirArrow">
                        <path fill="none" stroke="white" stroke-width="1.5" d="M0,-3.0v7 M-2.5,-0.5L0,-3.0L2.5,-0.5"/>
                </g>
               <g id="resetDef">
                       <use xlink:href="#rim2" fill="#404040">
                               <set attributeName="fill" to="#808080" begin="reset.mouseover" end="reset.mouseout"/>
                       </use>
               </g>
        </defs>

<script type="text/javascript">
var viewWidth = 1351;
var viewHeight = 397;
var sectionId = 'dynsection-0';
</script>
<script xlink:href="svgpan.js"/>
<svg id="graph" class="graph">
<g id="viewport">
<title>C:/projects/ndt/sources/include/ndt/executor_select_base.h</title>
<polygon fill="white" stroke="none" points="-4,4 -4,-393 1346.5,-393 1346.5,4 -4,4"/>
<!-- Node1 -->
<g id="node1" class="node"><title>Node1</title>
<g id="a_node1"><a xlink:title=" ">
<polygon fill="#bfbfbf" stroke="black" points="600.5,-347.5 600.5,-388.5 718.5,-388.5 718.5,-347.5 600.5,-347.5"/>
<text text-anchor="start" x="608.5" y="-376.5" font-family="Helvetica,sans-Serif" font-size="10.00">C:/projects/ndt/sources</text>
<text text-anchor="start" x="608.5" y="-365.5" font-family="Helvetica,sans-Serif" font-size="10.00">/include/ndt/executor</text>
<text text-anchor="middle" x="659.5" y="-354.5" font-family="Helvetica,sans-Serif" font-size="10.00">_select_base.h</text>
</a>
</g>
</g>
<!-- Node2 -->
<g id="node2" class="node"><title>Node2</title>
<g id="a_node2"><a xlink:title=" ">
<polygon fill="white" stroke="#bfbfbf" points="609.5,-56.5 609.5,-75.5 647.5,-75.5 647.5,-56.5 609.5,-56.5"/>
<text text-anchor="middle" x="628.5" y="-63.5" font-family="Helvetica,sans-Serif" font-size="10.00">array</text>
</a>
</g>
</g>
<!-- Node1&#45;&gt;Node2 -->
<g id="edge1" class="edge"><title>Node1&#45;&gt;Node2</title>
<path fill="none" stroke="midnightblue" d="M600.413,-364.18C529.192,-357.236 412.269,-333.726 357.5,-255 352.424,-247.703 355.122,-243.565 357.5,-235 359.633,-227.316 425.007,-116.631 431.5,-112 491.459,-69.2369 523.595,-93.5712 599.333,-75.954"/>
<polygon fill="midnightblue" stroke="midnightblue" points="600.448,-79.2829 609.296,-73.4548 598.745,-72.4932 600.448,-79.2829"/>
</g>
<!-- Node3 -->
<g id="node3" class="node"><title>Node3</title>
<g id="a_node3"><a xlink:title=" ">
<polygon fill="white" stroke="#bfbfbf" points="904.5,-235.5 904.5,-254.5 962.5,-254.5 962.5,-235.5 904.5,-235.5"/>
<text text-anchor="middle" x="933.5" y="-242.5" font-family="Helvetica,sans-Serif" font-size="10.00">functional</text>
</a>
</g>
</g>
<!-- Node1&#45;&gt;Node3 -->
<g id="edge2" class="edge"><title>Node1&#45;&gt;Node3</title>
<path fill="none" stroke="midnightblue" d="M703.827,-347.425C760.507,-322.395 857.026,-279.771 904.869,-258.644"/>
<polygon fill="midnightblue" stroke="midnightblue" points="906.301,-261.837 914.035,-254.596 903.473,-255.434 906.301,-261.837"/>
</g>
<!-- Node4 -->
<g id="node4" class="node"><title>Node4</title>
<g id="a_node4"><a xlink:title=" ">
<polygon fill="white" stroke="#bfbfbf" points="517.5,-56.5 517.5,-75.5 591.5,-75.5 591.5,-56.5 517.5,-56.5"/>
<text text-anchor="middle" x="554.5" y="-63.5" font-family="Helvetica,sans-Serif" font-size="10.00">system_error</text>
</a>
</g>
</g>
<!-- Node1&#45;&gt;Node4 -->
<g id="edge3" class="edge"><title>Node1&#45;&gt;Node4</title>
<path fill="none" stroke="midnightblue" d="M600.329,-367.457C541.811,-365.171 452.044,-354.04 388.5,-311 363.802,-294.271 360.085,-283.569 351.5,-255 331.856,-189.633 356.062,-156.865 407.5,-112 422.53,-98.8905 470.11,-85.751 507.113,-77.0844"/>
<polygon fill="midnightblue" stroke="midnightblue" points="508.269,-80.41 517.233,-74.7623 506.704,-73.5873 508.269,-80.41"/>
</g>
<!-- Node5 -->
<g id="node5" class="node"><title>Node5</title>
<g id="a_node5"><a xlink:href="common_8h.html" target="_top" xlink:title="Header with typedefs to make type designation platform independent.">
<polygon fill="white" stroke="black" points="995.5,-56.5 995.5,-75.5 1057.5,-75.5 1057.5,-56.5 995.5,-56.5"/>
<text text-anchor="middle" x="1026.5" y="-63.5" font-family="Helvetica,sans-Serif" font-size="10.00">common.h</text>
</a>
</g>
</g>
<!-- Node1&#45;&gt;Node5 -->
<g id="edge4" class="edge"><title>Node1&#45;&gt;Node5</title>
<path fill="none" stroke="midnightblue" d="M718.681,-366.459C861.34,-363.56 1212.5,-346.244 1212.5,-246 1212.5,-246 1212.5,-246 1212.5,-188 1212.5,-119.276 1122.18,-87.5746 1067.41,-74.6701"/>
<polygon fill="midnightblue" stroke="midnightblue" points="1068.16,-71.2497 1057.63,-72.4746 1066.62,-78.0798 1068.16,-71.2497"/>
</g>
<!-- Node15 -->
<g id="node15" class="node"><title>Node15</title>
<g id="a_node15"><a xlink:href="event__handler__select_8h.html" target="_top" xlink:title=" ">
<polygon fill="white" stroke="black" points="366.5,-235.5 366.5,-254.5 482.5,-254.5 482.5,-235.5 366.5,-235.5"/>
<text text-anchor="middle" x="424.5" y="-242.5" font-family="Helvetica,sans-Serif" font-size="10.00">event_handler_select.h</text>
</a>
</g>
</g>
<!-- Node1&#45;&gt;Node15 -->
<g id="edge14" class="edge"><title>Node1&#45;&gt;Node15</title>
<path fill="none" stroke="midnightblue" d="M621.482,-347.425C573.276,-322.604 491.469,-280.482 450.093,-259.178"/>
<polygon fill="midnightblue" stroke="midnightblue" points="451.688,-256.062 441.195,-254.596 448.483,-262.285 451.688,-256.062"/>
</g>
<!-- Node20 -->
<g id="node20" class="node"><title>Node20</title>
<g id="a_node20"><a xlink:href="socket_8h.html" target="_top" xlink:title=" ">
<polygon fill="white" stroke="black" points="632.5,-291.5 632.5,-310.5 686.5,-310.5 686.5,-291.5 632.5,-291.5"/>
<text text-anchor="middle" x="659.5" y="-298.5" font-family="Helvetica,sans-Serif" font-size="10.00">socket.h</text>
</a>
</g>
</g>
<!-- Node1&#45;&gt;Node20 -->
<g id="edge21" class="edge"><title>Node1&#45;&gt;Node20</title>
<path fill="none" stroke="midnightblue" d="M659.5,-347.498C659.5,-339.065 659.5,-329.235 659.5,-320.874"/>
<polygon fill="midnightblue" stroke="midnightblue" points="663,-320.652 659.5,-310.652 656,-320.653 663,-320.652"/>
</g>
<!-- Node6 -->
<g id="node6" class="node"><title>Node6</title>
<g id="a_node6"><a xlink:title=" ">
<polygon fill="white" stroke="#bfbfbf" points="1280.5,-0.5 1280.5,-19.5 1342.5,-19.5 1342.5,-0.5 1280.5,-0.5"/>
<text text-anchor="middle" x="1311.5" y="-7.5" font-family="Helvetica,sans-Serif" font-size="10.00">arpa/inet.h</text>
</a>
</g>
</g>
<!-- Node5&#45;&gt;Node6 -->
<g id="edge5" class="edge"><title>Node5&#45;&gt;Node6</title>
<path fill="none" stroke="midnightblue" d="M1057.76,-59.5819C1102.47,-51.7575 1187.49,-36.6 1270.35,-19.97"/>
<polygon fill="midnightblue" stroke="midnightblue" points="1271.07,-23.3956 1280.18,-17.9881 1269.69,-16.5337 1271.07,-23.3956"/>
</g>
<!-- Node7 -->
<g id="node7" class="node"><title>Node7</title>
<g id="a_node7"><a xlink:title=" ">
<polygon fill="white" stroke="#bfbfbf" points="757,-0.5 757,-19.5 804,-19.5 804,-0.5 757,-0.5"/>
<text text-anchor="middle" x="780.5" y="-7.5" font-family="Helvetica,sans-Serif" font-size="10.00">errno.h</text>
</a>
</g>
</g>
<!-- Node5&#45;&gt;Node7 -->
<g id="edge6" class="edge"><title>Node5&#45;&gt;Node7</title>
<path fill="none" stroke="midnightblue" d="M995.168,-58.0855C991.905,-57.3762 988.636,-56.6704 985.5,-56 911.85,-40.2539 890.52,-38.7457 814.306,-20.3258"/>
<polygon fill="midnightblue" stroke="midnightblue" points="814.762,-16.8345 804.218,-17.8671 813.104,-23.6355 814.762,-16.8345"/>
</g>
<!-- Node8 -->
<g id="node8" class="node"><title>Node8</title>
<g id="a_node8"><a xlink:title=" ">
<polygon fill="white" stroke="#bfbfbf" points="822,-0.5 822,-19.5 865,-19.5 865,-0.5 822,-0.5"/>
<text text-anchor="middle" x="843.5" y="-7.5" font-family="Helvetica,sans-Serif" font-size="10.00">fcntl.h</text>
</a>
</g>
</g>
<!-- Node5&#45;&gt;Node8 -->
<g id="edge7" class="edge"><title>Node5&#45;&gt;Node8</title>
<path fill="none" stroke="midnightblue" d="M997.155,-56.4202C968.271,-47.9639 922.654,-34.5791 874.736,-20.3573"/>
<polygon fill="midnightblue" stroke="midnightblue" points="875.709,-16.9951 865.126,-17.503 873.715,-23.7054 875.709,-16.9951"/>
</g>
<!-- Node9 -->
<g id="node9" class="node"><title>Node9</title>
<g id="a_node9"><a xlink:title=" ">
<polygon fill="white" stroke="#bfbfbf" points="883,-0.5 883,-19.5 932,-19.5 932,-0.5 883,-0.5"/>
<text text-anchor="middle" x="907.5" y="-7.5" font-family="Helvetica,sans-Serif" font-size="10.00">netdb.h</text>
</a>
</g>
</g>
<!-- Node5&#45;&gt;Node9 -->
<g id="edge8" class="edge"><title>Node5&#45;&gt;Node9</title>
<path fill="none" stroke="midnightblue" d="M1007.64,-56.4435C988.234,-47.6356 957.77,-33.8116 935.535,-23.722"/>
<polygon fill="midnightblue" stroke="midnightblue" points="936.82,-20.4615 926.268,-19.5164 933.928,-26.836 936.82,-20.4615"/>
</g>
<!-- Node10 -->
<g id="node10" class="node"><title>Node10</title>
<g id="a_node10"><a xlink:title=" ">
<polygon fill="white" stroke="#bfbfbf" points="950,-0.5 950,-19.5 1015,-19.5 1015,-0.5 950,-0.5"/>
<text text-anchor="middle" x="982.5" y="-7.5" font-family="Helvetica,sans-Serif" font-size="10.00">netinet/in.h</text>
</a>
</g>
</g>
<!-- Node5&#45;&gt;Node10 -->
<g id="edge9" class="edge"><title>Node5&#45;&gt;Node10</title>
<path fill="none" stroke="midnightblue" d="M1019.23,-56.083C1012.96,-48.3768 1003.71,-37.0333 996.069,-27.6531"/>
<polygon fill="midnightblue" stroke="midnightblue" points="998.661,-25.2926 989.631,-19.7511 993.234,-29.7143 998.661,-25.2926"/>
</g>
<!-- Node11 -->
<g id="node11" class="node"><title>Node11</title>
<g id="a_node11"><a xlink:title=" ">
<polygon fill="white" stroke="#bfbfbf" points="1033,-0.5 1033,-19.5 1106,-19.5 1106,-0.5 1033,-0.5"/>
<text text-anchor="middle" x="1069.5" y="-7.5" font-family="Helvetica,sans-Serif" font-size="10.00">sys/socket.h</text>
</a>
</g>
</g>
<!-- Node5&#45;&gt;Node11 -->
<g id="edge10" class="edge"><title>Node5&#45;&gt;Node11</title>
<path fill="none" stroke="midnightblue" d="M1033.6,-56.083C1039.74,-48.3768 1048.77,-37.0333 1056.24,-27.6531"/>
<polygon fill="midnightblue" stroke="midnightblue" points="1059.04,-29.7542 1062.53,-19.7511 1053.56,-25.3936 1059.04,-29.7542"/>
</g>
<!-- Node12 -->
<g id="node12" class="node"><title>Node12</title>
<g id="a_node12"><a xlink:title=" ">
<polygon fill="white" stroke="#bfbfbf" points="1124.5,-0.5 1124.5,-19.5 1192.5,-19.5 1192.5,-0.5 1124.5,-0.5"/>
<text text-anchor="middle" x="1158.5" y="-7.5" font-family="Helvetica,sans-Serif" font-size="10.00">sys/types.h</text>
</a>
</g>
</g>
<!-- Node5&#45;&gt;Node12 -->
<g id="edge11" class="edge"><title>Node5&#45;&gt;Node12</title>
<path fill="none" stroke="midnightblue" d="M1047.42,-56.4435C1069.24,-47.5171 1103.65,-33.4387 1128.39,-23.3168"/>
<polygon fill="midnightblue" stroke="midnightblue" points="1129.75,-26.5422 1137.68,-19.5164 1127.1,-20.0634 1129.75,-26.5422"/>
</g>
<!-- Node13 -->
<g id="node13" class="node"><title>Node13</title>
<g id="a_node13"><a xlink:title=" ">
<polygon fill="white" stroke="#bfbfbf" points="1211,-0.5 1211,-19.5 1262,-19.5 1262,-0.5 1211,-0.5"/>
<text text-anchor="middle" x="1236.5" y="-7.5" font-family="Helvetica,sans-Serif" font-size="10.00">unistd.h</text>
</a>
</g>
</g>
<!-- Node5&#45;&gt;Node13 -->
<g id="edge12" class="edge"><title>Node5&#45;&gt;Node13</title>
<path fill="none" stroke="midnightblue" d="M1057.94,-56.9157C1096.25,-47.0636 1160.83,-30.4589 1200.92,-20.1481"/>
<polygon fill="midnightblue" stroke="midnightblue" points="1201.99,-23.4873 1210.81,-17.6071 1200.25,-16.7079 1201.99,-23.4873"/>
</g>
<!-- Node14 -->
<g id="node14" class="node"><title>Node14</title>
<g id="a_node14"><a xlink:title=" ">
<polygon fill="white" stroke="#bfbfbf" points="425.5,-0.5 425.5,-19.5 473.5,-19.5 473.5,-0.5 425.5,-0.5"/>
<text text-anchor="middle" x="449.5" y="-7.5" font-family="Helvetica,sans-Serif" font-size="10.00">cstddef</text>
</a>
</g>
</g>
<!-- Node5&#45;&gt;Node14 -->
<g id="edge13" class="edge"><title>Node5&#45;&gt;Node14</title>
<path fill="none" stroke="midnightblue" d="M995.24,-57.6915C991.962,-57.0591 988.671,-56.4789 985.5,-56 797.335,-27.5767 569.095,-15.8901 483.816,-12.3052"/>
<polygon fill="midnightblue" stroke="midnightblue" points="483.808,-8.80202 473.673,-11.889 483.521,-15.7961 483.808,-8.80202"/>
</g>
<!-- Node16 -->
<g id="node16" class="node"><title>Node16</title>
<g id="a_node16"><a xlink:title=" ">
<polygon fill="white" stroke="#bfbfbf" points="67.5,-56.5 67.5,-75.5 113.5,-75.5 113.5,-56.5 67.5,-56.5"/>
<text text-anchor="middle" x="90.5" y="-63.5" font-family="Helvetica,sans-Serif" font-size="10.00">cstdint</text>
</a>
</g>
</g>
<!-- Node15&#45;&gt;Node16 -->
<g id="edge15" class="edge"><title>Node15&#45;&gt;Node16</title>
<path fill="none" stroke="midnightblue" d="M374.784,-235.497C325.901,-226.599 255.141,-212.125 230.5,-199 175.163,-169.524 125.715,-112.317 103.265,-83.8849"/>
<polygon fill="midnightblue" stroke="midnightblue" points="105.843,-81.4977 96.9519,-75.7364 100.31,-85.7851 105.843,-81.4977"/>
</g>
<!-- Node17 -->
<g id="node17" class="node"><title>Node17</title>
<g id="a_node17"><a xlink:title=" ">
<polygon fill="white" stroke="#bfbfbf" points="169.5,-56.5 169.5,-75.5 231.5,-75.5 231.5,-56.5 169.5,-56.5"/>
<text text-anchor="middle" x="200.5" y="-63.5" font-family="Helvetica,sans-Serif" font-size="10.00">type_traits</text>
</a>
</g>
</g>
<!-- Node15&#45;&gt;Node17 -->
<g id="edge16" class="edge"><title>Node15&#45;&gt;Node17</title>
<path fill="none" stroke="midnightblue" d="M391.733,-235.392C330.789,-218.643 203.957,-180.053 179.5,-143 167.649,-125.046 178.263,-100.494 188.225,-84.211"/>
<polygon fill="midnightblue" stroke="midnightblue" points="191.26,-85.9674 193.841,-75.6919 185.415,-82.1146 191.26,-85.9674"/>
</g>
<!-- Node18 -->
<g id="node18" class="node"><title>Node18</title>
<g id="a_node18"><a xlink:href="executor__select_8h.html" target="_top" xlink:title=" ">
<polygon fill="white" stroke="black" points="652.5,-179.5 652.5,-198.5 746.5,-198.5 746.5,-179.5 652.5,-179.5"/>
<text text-anchor="middle" x="699.5" y="-186.5" font-family="Helvetica,sans-Serif" font-size="10.00">executor_select.h</text>
</a>
</g>
</g>
<!-- Node15&#45;&gt;Node18 -->
<g id="edge17" class="edge"><title>Node15&#45;&gt;Node18</title>
<path fill="none" stroke="midnightblue" d="M468.075,-235.444C516.349,-225.964 594.212,-210.675 646.112,-200.483"/>
<polygon fill="midnightblue" stroke="midnightblue" points="646.991,-203.878 656.129,-198.516 645.642,-197.009 646.991,-203.878"/>
</g>
<!-- Node19 -->
<g id="node19" class="node"><title>Node19</title>
<g id="a_node19"><a xlink:href="nix_2executor__select__impl_8h.html" target="_top" xlink:title=" ">
<polygon fill="white" stroke="black" points="853,-112.5 853,-142.5 960,-142.5 960,-112.5 853,-112.5"/>
<text text-anchor="start" x="861" y="-130.5" font-family="Helvetica,sans-Serif" font-size="10.00">platform/nix/executor</text>
<text text-anchor="middle" x="906.5" y="-119.5" font-family="Helvetica,sans-Serif" font-size="10.00">_select_impl.h</text>
</a>
</g>
</g>
<!-- Node18&#45;&gt;Node19 -->
<g id="edge18" class="edge"><title>Node18&#45;&gt;Node19</title>
<path fill="none" stroke="midnightblue" d="M729.158,-179.475C760.075,-170.588 809.336,-156.429 848.102,-145.286"/>
<polygon fill="midnightblue" stroke="midnightblue" points="849.07,-148.649 857.714,-142.523 847.136,-141.922 849.07,-148.649"/>
</g>
<!-- Node19&#45;&gt;Node1 -->
<g id="edge20" class="edge"><title>Node19&#45;&gt;Node1</title>
<path fill="none" stroke="midnightblue" d="M934.984,-142.653C948.715,-151.138 963.836,-163.341 971.5,-179 986.348,-209.339 990.699,-227.209 971.5,-255 917.453,-333.237 803.202,-357.138 728.975,-364.251"/>
<polygon fill="midnightblue" stroke="midnightblue" points="728.433,-360.785 718.778,-365.148 729.046,-367.759 728.433,-360.785"/>
</g>
<!-- Node19&#45;&gt;Node5 -->
<g id="edge19" class="edge"><title>Node19&#45;&gt;Node5</title>
<path fill="none" stroke="midnightblue" d="M934.938,-112.399C954.623,-102.639 980.643,-89.7373 999.913,-80.1826"/>
<polygon fill="midnightblue" stroke="midnightblue" points="1001.63,-83.2358 1009.04,-75.6578 998.525,-76.9644 1001.63,-83.2358"/>
</g>
<!-- Node20&#45;&gt;Node3 -->
<g id="edge23" class="edge"><title>Node20&#45;&gt;Node3</title>
<path fill="none" stroke="midnightblue" d="M686.552,-294.857C729.715,-286.622 816.81,-269.889 890.5,-255 891.762,-254.745 893.044,-254.485 894.338,-254.221"/>
<polygon fill="midnightblue" stroke="midnightblue" points="895.279,-257.6 904.367,-252.155 893.867,-250.744 895.279,-257.6"/>
</g>
<!-- Node20&#45;&gt;Node5 -->
<g id="edge68" class="edge"><title>Node20&#45;&gt;Node5</title>
<path fill="none" stroke="midnightblue" d="M686.552,-292.875C717.32,-284.58 768.937,-270.081 812.5,-255 835.117,-247.17 840.015,-243.201 862.5,-235 910.43,-217.518 934.084,-233.683 971.5,-199 1004.63,-168.295 1018.45,-114.564 1023.67,-86.0437"/>
<polygon fill="midnightblue" stroke="midnightblue" points="1027.18,-86.2552 1025.37,-75.817 1020.28,-85.1086 1027.18,-86.2552"/>
</g>
<!-- Node21 -->
<g id="node21" class="node"><title>Node21</title>
<g id="a_node21"><a xlink:title=" ">
<polygon fill="white" stroke="#bfbfbf" points="0,-56.5 0,-75.5 49,-75.5 49,-56.5 0,-56.5"/>
<text text-anchor="middle" x="24.5" y="-63.5" font-family="Helvetica,sans-Serif" font-size="10.00">cassert</text>
</a>
</g>
</g>
<!-- Node20&#45;&gt;Node21 -->
<g id="edge22" class="edge"><title>Node20&#45;&gt;Node21</title>
<path fill="none" stroke="midnightblue" d="M632.325,-299.261C557.886,-296.19 346.206,-280.376 195.5,-199 133.327,-165.429 70.0494,-109.777 40.9671,-82.7281"/>
<polygon fill="midnightblue" stroke="midnightblue" points="43.0714,-79.9026 33.3883,-75.6027 38.2765,-85.0025 43.0714,-79.9026"/>
</g>
<!-- Node22 -->
<g id="node22" class="node"><title>Node22</title>
<g id="a_node22"><a xlink:href="address_8h.html" target="_top" xlink:title=" ">
<polygon fill="white" stroke="black" points="745,-235.5 745,-254.5 804,-254.5 804,-235.5 745,-235.5"/>
<text text-anchor="middle" x="774.5" y="-242.5" font-family="Helvetica,sans-Serif" font-size="10.00">address.h</text>
</a>
</g>
</g>
<!-- Node20&#45;&gt;Node22 -->
<g id="edge24" class="edge"><title>Node20&#45;&gt;Node22</title>
<path fill="none" stroke="midnightblue" d="M677.722,-291.444C696.396,-282.675 725.656,-268.935 747.117,-258.858"/>
<polygon fill="midnightblue" stroke="midnightblue" points="748.799,-261.935 756.363,-254.516 745.824,-255.599 748.799,-261.935"/>
</g>
<!-- Node28 -->
<g id="node28" class="node"><title>Node28</title>
<g id="a_node28"><a xlink:href="buffer_8h.html" target="_top" xlink:title=" ">
<polygon fill="white" stroke="black" points="188.5,-118 188.5,-137 236.5,-137 236.5,-118 188.5,-118"/>
<text text-anchor="middle" x="212.5" y="-125" font-family="Helvetica,sans-Serif" font-size="10.00">buffer.h</text>
</a>
</g>
</g>
<!-- Node20&#45;&gt;Node28 -->
<g id="edge67" class="edge"><title>Node20&#45;&gt;Node28</title>
<path fill="none" stroke="midnightblue" d="M639.01,-291.443C607.564,-278.455 545.383,-253.339 491.5,-235 437.981,-216.785 422.518,-218.624 369.5,-199 322.471,-181.593 269.625,-156.708 238.803,-141.632"/>
<polygon fill="midnightblue" stroke="midnightblue" points="240.123,-138.381 229.606,-137.104 237.031,-144.661 240.123,-138.381"/>
</g>
<!-- Node33 -->
<g id="node33" class="node"><title>Node33</title>
<g id="a_node33"><a xlink:href="utils_8h.html" target="_top" xlink:title=" ">
<polygon fill="white" stroke="black" points="605,-118 605,-137 648,-137 648,-118 605,-118"/>
<text text-anchor="middle" x="626.5" y="-125" font-family="Helvetica,sans-Serif" font-size="10.00">utils.h</text>
</a>
</g>
</g>
<!-- Node20&#45;&gt;Node33 -->
<g id="edge71" class="edge"><title>Node20&#45;&gt;Node33</title>
<path fill="none" stroke="midnightblue" d="M632.265,-293.962C611.89,-287.862 585.408,-276.208 572.5,-255 554.939,-226.146 559.053,-209.986 572.5,-179 578.956,-164.124 592.191,-151.632 603.942,-142.794"/>
<polygon fill="midnightblue" stroke="midnightblue" points="605.967,-145.648 612.118,-137.022 601.93,-139.93 605.967,-145.648"/>
</g>
<!-- Node38 -->
<g id="node38" class="node"><title>Node38</title>
<g id="a_node38"><a xlink:href="exception_8h.html" target="_top" xlink:title=" ">
<polygon fill="white" stroke="black" points="704,-118 704,-137 771,-137 771,-118 704,-118"/>
<text text-anchor="middle" x="737.5" y="-125" font-family="Helvetica,sans-Serif" font-size="10.00">exception.h</text>
</a>
</g>
</g>
<!-- Node20&#45;&gt;Node38 -->
<g id="edge69" class="edge"><title>Node20&#45;&gt;Node38</title>
<path fill="none" stroke="midnightblue" d="M654.888,-291.336C644.42,-270.371 621.425,-215.919 643.5,-179 654.642,-160.366 675.284,-148.209 694.392,-140.504"/>
<polygon fill="midnightblue" stroke="midnightblue" points="695.74,-143.737 703.892,-136.971 693.299,-137.177 695.74,-143.737"/>
</g>
<!-- Node41 -->
<g id="node41" class="node"><title>Node41</title>
<g id="a_node41"><a xlink:href="useful__base__types_8h.html" target="_top" xlink:title=" ">
<polygon fill="white" stroke="black" points="1121.5,-56.5 1121.5,-75.5 1227.5,-75.5 1227.5,-56.5 1121.5,-56.5"/>
<text text-anchor="middle" x="1174.5" y="-63.5" font-family="Helvetica,sans-Serif" font-size="10.00">useful_base_types.h</text>
</a>
</g>
</g>
<!-- Node20&#45;&gt;Node41 -->
<g id="edge70" class="edge"><title>Node20&#45;&gt;Node41</title>
<path fill="none" stroke="midnightblue" d="M686.681,-295.373C724.314,-288.576 794.14,-274.546 851.5,-255 871.833,-248.071 874.859,-240.948 895.5,-235 952.817,-218.482 1116.73,-238.413 1161.5,-199 1193.38,-170.938 1186.07,-114.795 1179.49,-85.5991"/>
<polygon fill="midnightblue" stroke="midnightblue" points="1182.88,-84.7171 1177.09,-75.8438 1176.08,-86.3906 1182.88,-84.7171"/>
</g>
<!-- Node23 -->
<g id="node23" class="node"><title>Node23</title>
<g id="a_node23"><a xlink:title=" ">
<polygon fill="white" stroke="#bfbfbf" points="803,-179.5 803,-198.5 844,-198.5 844,-179.5 803,-179.5"/>
<text text-anchor="middle" x="823.5" y="-186.5" font-family="Helvetica,sans-Serif" font-size="10.00">string</text>
</a>
</g>
</g>
<!-- Node22&#45;&gt;Node23 -->
<g id="edge25" class="edge"><title>Node22&#45;&gt;Node23</title>
<path fill="none" stroke="midnightblue" d="M782.591,-235.083C789.655,-227.298 800.088,-215.801 808.649,-206.367"/>
<polygon fill="midnightblue" stroke="midnightblue" points="811.431,-208.509 815.559,-198.751 806.247,-203.805 811.431,-208.509"/>
</g>
<!-- Node24 -->
<g id="node24" class="node"><title>Node24</title>
<g id="a_node24"><a xlink:title=" ">
<polygon fill="white" stroke="#bfbfbf" points="862.5,-179.5 862.5,-198.5 906.5,-198.5 906.5,-179.5 862.5,-179.5"/>
<text text-anchor="middle" x="884.5" y="-186.5" font-family="Helvetica,sans-Serif" font-size="10.00">variant</text>
</a>
</g>
</g>
<!-- Node22&#45;&gt;Node24 -->
<g id="edge26" class="edge"><title>Node22&#45;&gt;Node24</title>
<path fill="none" stroke="midnightblue" d="M792.173,-235.324C809.894,-226.625 837.403,-213.12 857.788,-203.113"/>
<polygon fill="midnightblue" stroke="midnightblue" points="859.436,-206.203 866.87,-198.655 856.351,-199.919 859.436,-206.203"/>
</g>
<!-- Node25 -->
<g id="node25" class="node"><title>Node25</title>
<g id="a_node25"><a xlink:href="bin__rw_8h.html" target="_top" xlink:title=" ">
<polygon fill="white" stroke="black" points="467,-179.5 467,-198.5 520,-198.5 520,-179.5 467,-179.5"/>
<text text-anchor="middle" x="493.5" y="-186.5" font-family="Helvetica,sans-Serif" font-size="10.00">bin_rw.h</text>
</a>
</g>
</g>
<!-- Node22&#45;&gt;Node25 -->
<g id="edge27" class="edge"><title>Node22&#45;&gt;Node25</title>
<path fill="none" stroke="midnightblue" d="M744.959,-238.323C693.224,-228.381 586.383,-207.849 530.07,-197.028"/>
<polygon fill="midnightblue" stroke="midnightblue" points="530.648,-193.575 520.167,-195.125 529.327,-200.449 530.648,-193.575"/>
</g>
<!-- Node22&#45;&gt;Node28 -->
<g id="edge55" class="edge"><title>Node22&#45;&gt;Node28</title>
<path fill="none" stroke="midnightblue" d="M744.75,-241.417C663.007,-233.666 428.875,-207.068 245.5,-143 243.835,-142.418 242.136,-141.789 240.432,-141.129"/>
<polygon fill="midnightblue" stroke="midnightblue" points="241.376,-137.732 230.798,-137.144 238.701,-144.201 241.376,-137.732"/>
</g>
<!-- Node22&#45;&gt;Node33 -->
<g id="edge66" class="edge"><title>Node22&#45;&gt;Node33</title>
<path fill="none" stroke="midnightblue" d="M744.812,-241.874C714.933,-238.116 669.637,-227.725 643.5,-199 630.681,-184.912 627.076,-162.855 626.272,-147.167"/>
<polygon fill="midnightblue" stroke="midnightblue" points="629.77,-147.009 626.089,-137.074 622.771,-147.136 629.77,-147.009"/>
</g>
<!-- Node22&#45;&gt;Node38 -->
<g id="edge56" class="edge"><title>Node22&#45;&gt;Node38</title>
<path fill="none" stroke="midnightblue" d="M772.08,-235.119C768.617,-222.556 761.952,-198.908 755.5,-179 751.998,-168.192 747.743,-156.21 744.25,-146.63"/>
<polygon fill="midnightblue" stroke="midnightblue" points="747.452,-145.199 740.71,-137.026 740.884,-147.62 747.452,-145.199"/>
</g>
<!-- Node39 -->
<g id="node39" class="node"><title>Node39</title>
<g id="a_node39"><a xlink:href="sys__socket__ops_8h.html" target="_top" xlink:title=" ">
<polygon fill="white" stroke="black" points="1056.5,-179.5 1056.5,-198.5 1152.5,-198.5 1152.5,-179.5 1056.5,-179.5"/>
<text text-anchor="middle" x="1104.5" y="-186.5" font-family="Helvetica,sans-Serif" font-size="10.00">sys_socket_ops.h</text>
</a>
</g>
</g>
<!-- Node22&#45;&gt;Node39 -->
<g id="edge59" class="edge"><title>Node22&#45;&gt;Node39</title>
<path fill="none" stroke="midnightblue" d="M804.076,-239.16C858.509,-230.253 975.459,-211.116 1046.32,-199.521"/>
<polygon fill="midnightblue" stroke="midnightblue" points="1047.12,-202.936 1056.42,-197.867 1045.99,-196.028 1047.12,-202.936"/>
</g>
<!-- Node42 -->
<g id="node42" class="node"><title>Node42</title>
<g id="a_node42"><a xlink:href="tag_8h.html" target="_top" xlink:title=" ">
<polygon fill="white" stroke="black" points="924.5,-179.5 924.5,-198.5 962.5,-198.5 962.5,-179.5 924.5,-179.5"/>
<text text-anchor="middle" x="943.5" y="-186.5" font-family="Helvetica,sans-Serif" font-size="10.00">tag.h</text>
</a>
</g>
</g>
<!-- Node22&#45;&gt;Node42 -->
<g id="edge65" class="edge"><title>Node22&#45;&gt;Node42</title>
<path fill="none" stroke="midnightblue" d="M801.274,-235.473C827.756,-227.035 869.691,-213.664 914.599,-199.284"/>
<polygon fill="midnightblue" stroke="midnightblue" points="915.766,-202.586 924.222,-196.202 913.631,-195.919 915.766,-202.586"/>
</g>
<!-- Node25&#45;&gt;Node17 -->
<g id="edge30" class="edge"><title>Node25&#45;&gt;Node17</title>
<path fill="none" stroke="midnightblue" d="M466.599,-182.07C461.9,-181.041 457.059,-179.986 452.5,-179 377.439,-162.767 351.772,-178.166 283.5,-143 275.765,-139.016 238.611,-103.782 216.722,-82.7137"/>
<polygon fill="midnightblue" stroke="midnightblue" points="219.057,-80.1031 209.431,-75.6769 214.196,-85.1399 219.057,-80.1031"/>
</g>
<!-- Node26 -->
<g id="node26" class="node"><title>Node26</title>
<g id="a_node26"><a xlink:title=" ">
<polygon fill="white" stroke="#bfbfbf" points="440.5,-118 440.5,-137 496.5,-137 496.5,-118 440.5,-118"/>
<text text-anchor="middle" x="468.5" y="-125" font-family="Helvetica,sans-Serif" font-size="10.00">algorithm</text>
</a>
</g>
</g>
<!-- Node25&#45;&gt;Node26 -->
<g id="edge28" class="edge"><title>Node25&#45;&gt;Node26</title>
<path fill="none" stroke="midnightblue" d="M489.918,-179.475C486.317,-170.904 480.654,-157.427 476.056,-146.483"/>
<polygon fill="midnightblue" stroke="midnightblue" points="479.176,-144.873 472.075,-137.009 472.722,-147.584 479.176,-144.873"/>
</g>
<!-- Node27 -->
<g id="node27" class="node"><title>Node27</title>
<g id="a_node27"><a xlink:title=" ">
<polygon fill="white" stroke="#bfbfbf" points="453.5,-56.5 453.5,-75.5 499.5,-75.5 499.5,-56.5 453.5,-56.5"/>
<text text-anchor="middle" x="476.5" y="-63.5" font-family="Helvetica,sans-Serif" font-size="10.00">cstring</text>
</a>
</g>
</g>
<!-- Node25&#45;&gt;Node27 -->
<g id="edge29" class="edge"><title>Node25&#45;&gt;Node27</title>
<path fill="none" stroke="midnightblue" d="M497.274,-179.407C503.002,-165.155 512.515,-135.835 505.5,-112 502.488,-101.765 496.345,-91.6599 490.486,-83.627"/>
<polygon fill="midnightblue" stroke="midnightblue" points="493.086,-81.2694 484.173,-75.5413 487.568,-85.5773 493.086,-81.2694"/>
</g>
<!-- Node25&#45;&gt;Node28 -->
<g id="edge31" class="edge"><title>Node25&#45;&gt;Node28</title>
<path fill="none" stroke="midnightblue" d="M466.626,-181.941C461.924,-180.927 457.075,-179.909 452.5,-179 363.058,-161.22 338.378,-167.363 250.5,-143 247.848,-142.265 245.123,-141.418 242.409,-140.509"/>
<polygon fill="midnightblue" stroke="midnightblue" points="243.369,-137.135 232.774,-137.044 241,-143.722 243.369,-137.135"/>
</g>
<!-- Node29 -->
<g id="node29" class="node"><title>Node29</title>
<g id="a_node29"><a xlink:href="endian_8h.html" target="_top" xlink:title=" ">
<polygon fill="white" stroke="black" points="293,-118 293,-137 346,-137 346,-118 293,-118"/>
<text text-anchor="middle" x="319.5" y="-125" font-family="Helvetica,sans-Serif" font-size="10.00">endian.h</text>
</a>
</g>
</g>
<!-- Node25&#45;&gt;Node29 -->
<g id="edge38" class="edge"><title>Node25&#45;&gt;Node29</title>
<path fill="none" stroke="midnightblue" d="M468.57,-179.475C438.464,-169.18 387.668,-151.81 353.862,-140.25"/>
<polygon fill="midnightblue" stroke="midnightblue" points="354.978,-136.933 344.384,-137.009 352.713,-143.556 354.978,-136.933"/>
</g>
<!-- Node25&#45;&gt;Node33 -->
<g id="edge45" class="edge"><title>Node25&#45;&gt;Node33</title>
<path fill="none" stroke="midnightblue" d="M512.556,-179.475C534.975,-169.445 572.405,-152.7 598.213,-141.155"/>
<polygon fill="midnightblue" stroke="midnightblue" points="599.781,-144.288 607.48,-137.009 596.922,-137.898 599.781,-144.288"/>
</g>
<!-- Node28&#45;&gt;Node4 -->
<g id="edge35" class="edge"><title>Node28&#45;&gt;Node4</title>
<path fill="none" stroke="midnightblue" d="M236.767,-121.276C250.461,-118.396 267.904,-114.839 283.5,-112 380.021,-94.4306 407.116,-93.7516 507.423,-76.1386"/>
<polygon fill="midnightblue" stroke="midnightblue" points="508.126,-79.5686 517.364,-74.3801 506.907,-72.6756 508.126,-79.5686"/>
</g>
<!-- Node28&#45;&gt;Node5 -->
<g id="edge37" class="edge"><title>Node28&#45;&gt;Node5</title>
<path fill="none" stroke="midnightblue" d="M236.666,-120.625C250.329,-117.541 267.775,-113.997 283.5,-112 590.091,-73.056 674.079,-116.676 985.044,-75.7771"/>
<polygon fill="midnightblue" stroke="midnightblue" points="985.806,-79.2066 995.255,-74.4146 984.88,-72.268 985.806,-79.2066"/>
</g>
<!-- Node28&#45;&gt;Node14 -->
<g id="edge33" class="edge"><title>Node28&#45;&gt;Node14</title>
<path fill="none" stroke="midnightblue" d="M198.154,-117.951C177.125,-104.377 142.298,-77.2556 160.5,-56 192.87,-18.1998 345.1,-11.9033 414.664,-11.028"/>
<polygon fill="midnightblue" stroke="midnightblue" points="415.122,-14.524 425.088,-10.9301 415.056,-7.52429 415.122,-14.524"/>
</g>
<!-- Node28&#45;&gt;Node16 -->
<g id="edge34" class="edge"><title>Node28&#45;&gt;Node16</title>
<path fill="none" stroke="midnightblue" d="M195.02,-117.975C174.637,-108.034 140.725,-91.4947 117.075,-79.961"/>
<polygon fill="midnightblue" stroke="midnightblue" points="118.469,-76.7468 107.947,-75.5091 115.401,-83.0385 118.469,-76.7468"/>
</g>
<!-- Node28&#45;&gt;Node17 -->
<g id="edge36" class="edge"><title>Node28&#45;&gt;Node17</title>
<path fill="none" stroke="midnightblue" d="M210.781,-117.975C209.07,-109.492 206.39,-96.2043 204.195,-85.3222"/>
<polygon fill="midnightblue" stroke="midnightblue" points="207.624,-84.6197 202.216,-75.5091 200.762,-86.0037 207.624,-84.6197"/>
</g>
<!-- Node28&#45;&gt;Node21 -->
<g id="edge32" class="edge"><title>Node28&#45;&gt;Node21</title>
<path fill="none" stroke="midnightblue" d="M188.307,-118.843C155.492,-108.458 96.6753,-89.8427 59.1707,-77.9729"/>
<polygon fill="midnightblue" stroke="midnightblue" points="59.787,-74.4969 49.197,-74.8163 57.6748,-81.1706 59.787,-74.4969"/>
</g>
<!-- Node29&#45;&gt;Node16 -->
<g id="edge40" class="edge"><title>Node29&#45;&gt;Node16</title>
<path fill="none" stroke="midnightblue" d="M292.783,-119.558C250.662,-108.614 168.935,-87.3793 123.311,-75.5251"/>
<polygon fill="midnightblue" stroke="midnightblue" points="124.171,-72.1323 113.612,-73.005 122.41,-78.9074 124.171,-72.1323"/>
</g>
<!-- Node29&#45;&gt;Node17 -->
<g id="edge43" class="edge"><title>Node29&#45;&gt;Node17</title>
<path fill="none" stroke="midnightblue" d="M302.45,-117.975C282.656,-108.078 249.783,-91.6416 226.73,-80.1151"/>
<polygon fill="midnightblue" stroke="midnightblue" points="228.028,-76.8508 217.518,-75.5091 224.897,-83.1118 228.028,-76.8508"/>
</g>
<!-- Node29&#45;&gt;Node27 -->
<g id="edge41" class="edge"><title>Node29&#45;&gt;Node27</title>
<path fill="none" stroke="midnightblue" d="M341.994,-117.975C368.809,-107.813 413.815,-90.7564 444.309,-79.1996"/>
<polygon fill="midnightblue" stroke="midnightblue" points="445.937,-82.3258 454.047,-75.5091 443.456,-75.7801 445.937,-82.3258"/>
</g>
<!-- Node30 -->
<g id="node30" class="node"><title>Node30</title>
<g id="a_node30"><a xlink:title=" ">
<polygon fill="white" stroke="#bfbfbf" points="308,-56.5 308,-75.5 353,-75.5 353,-56.5 308,-56.5"/>
<text text-anchor="middle" x="330.5" y="-63.5" font-family="Helvetica,sans-Serif" font-size="10.00">climits</text>
</a>
</g>
</g>
<!-- Node29&#45;&gt;Node30 -->
<g id="edge39" class="edge"><title>Node29&#45;&gt;Node30</title>
<path fill="none" stroke="midnightblue" d="M321.076,-117.975C322.628,-109.58 325.05,-96.4806 327.05,-85.6631"/>
<polygon fill="midnightblue" stroke="midnightblue" points="330.551,-85.9788 328.927,-75.5091 323.667,-84.7062 330.551,-85.9788"/>
</g>
<!-- Node31 -->
<g id="node31" class="node"><title>Node31</title>
<g id="a_node31"><a xlink:title=" ">
<polygon fill="white" stroke="#bfbfbf" points="371.5,-56.5 371.5,-75.5 435.5,-75.5 435.5,-56.5 371.5,-56.5"/>
<text text-anchor="middle" x="403.5" y="-63.5" font-family="Helvetica,sans-Serif" font-size="10.00">string_view</text>
</a>
</g>
</g>
<!-- Node29&#45;&gt;Node31 -->
<g id="edge42" class="edge"><title>Node29&#45;&gt;Node31</title>
<path fill="none" stroke="midnightblue" d="M331.535,-117.975C345.008,-108.431 367.066,-92.8073 383.215,-81.3683"/>
<polygon fill="midnightblue" stroke="midnightblue" points="385.35,-84.1454 391.487,-75.5091 381.304,-78.4332 385.35,-84.1454"/>
</g>
<!-- Node32 -->
<g id="node32" class="node"><title>Node32</title>
<g id="a_node32"><a xlink:title=" ">
<polygon fill="white" stroke="#bfbfbf" points="249.5,-56.5 249.5,-75.5 289.5,-75.5 289.5,-56.5 249.5,-56.5"/>
<text text-anchor="middle" x="269.5" y="-63.5" font-family="Helvetica,sans-Serif" font-size="10.00">utility</text>
</a>
</g>
</g>
<!-- Node29&#45;&gt;Node32 -->
<g id="edge44" class="edge"><title>Node29&#45;&gt;Node32</title>
<path fill="none" stroke="midnightblue" d="M312.336,-117.975C304.762,-108.962 292.63,-94.5246 283.207,-83.3118"/>
<polygon fill="midnightblue" stroke="midnightblue" points="285.763,-80.9132 276.65,-75.5091 280.404,-85.4166 285.763,-80.9132"/>
</g>
<!-- Node33&#45;&gt;Node2 -->
<g id="edge48" class="edge"><title>Node33&#45;&gt;Node2</title>
<path fill="none" stroke="midnightblue" d="M626.787,-117.975C627.069,-109.58 627.509,-96.4806 627.873,-85.6631"/>
<polygon fill="midnightblue" stroke="midnightblue" points="631.376,-85.6211 628.214,-75.5091 624.38,-85.3858 631.376,-85.6211"/>
</g>
<!-- Node33&#45;&gt;Node4 -->
<g id="edge51" class="edge"><title>Node33&#45;&gt;Node4</title>
<path fill="none" stroke="midnightblue" d="M616.184,-117.975C604.849,-108.608 586.427,-93.3839 572.661,-82.0081"/>
<polygon fill="midnightblue" stroke="midnightblue" points="574.735,-79.1813 564.797,-75.5091 570.276,-84.5773 574.735,-79.1813"/>
</g>
<!-- Node33&#45;&gt;Node5 -->
<g id="edge54" class="edge"><title>Node33&#45;&gt;Node5</title>
<path fill="none" stroke="midnightblue" d="M648.151,-121.38C661.465,-118.358 678.906,-114.622 694.5,-112 819.878,-90.9183 855.332,-97.6406 985.283,-75.8693"/>
<polygon fill="midnightblue" stroke="midnightblue" points="985.947,-79.3066 995.22,-74.1804 984.774,-72.4056 985.947,-79.3066"/>
</g>
<!-- Node33&#45;&gt;Node17 -->
<g id="edge52" class="edge"><title>Node33&#45;&gt;Node17</title>
<path fill="none" stroke="midnightblue" d="M604.984,-123.948C537.383,-115.89 329.04,-90.743 241.897,-76.0808"/>
<polygon fill="midnightblue" stroke="midnightblue" points="242.339,-72.6053 231.888,-74.3465 241.144,-79.5025 242.339,-72.6053"/>
</g>
<!-- Node33&#45;&gt;Node27 -->
<g id="edge50" class="edge"><title>Node33&#45;&gt;Node27</title>
<path fill="none" stroke="midnightblue" d="M605.009,-117.975C579.39,-107.813 536.39,-90.7564 507.255,-79.1996"/>
<polygon fill="midnightblue" stroke="midnightblue" points="508.537,-75.9429 497.951,-75.5091 505.956,-82.4497 508.537,-75.9429"/>
</g>
<!-- Node34 -->
<g id="node34" class="node"><title>Node34</title>
<g id="a_node34"><a xlink:title=" ">
<polygon fill="white" stroke="#bfbfbf" points="665.5,-56.5 665.5,-75.5 725.5,-75.5 725.5,-56.5 665.5,-56.5"/>
<text text-anchor="middle" x="695.5" y="-63.5" font-family="Helvetica,sans-Serif" font-size="10.00">fmt/core.h</text>
</a>
</g>
</g>
<!-- Node33&#45;&gt;Node34 -->
<g id="edge46" class="edge"><title>Node33&#45;&gt;Node34</title>
<path fill="none" stroke="midnightblue" d="M636.386,-117.975C647.146,-108.697 664.571,-93.6706 677.721,-82.331"/>
<polygon fill="midnightblue" stroke="midnightblue" points="680.345,-84.6902 685.632,-75.5091 675.773,-79.389 680.345,-84.6902"/>
</g>
<!-- Node35 -->
<g id="node35" class="node"><title>Node35</title>
<g id="a_node35"><a xlink:title=" ">
<polygon fill="white" stroke="#bfbfbf" points="743.5,-56.5 743.5,-75.5 811.5,-75.5 811.5,-56.5 743.5,-56.5"/>
<text text-anchor="middle" x="777.5" y="-63.5" font-family="Helvetica,sans-Serif" font-size="10.00">fmt/format.h</text>
</a>
</g>
</g>
<!-- Node33&#45;&gt;Node35 -->
<g id="edge47" class="edge"><title>Node33&#45;&gt;Node35</title>
<path fill="none" stroke="midnightblue" d="M648.135,-117.975C673.924,-107.813 717.211,-90.7564 746.54,-79.1996"/>
<polygon fill="midnightblue" stroke="midnightblue" points="747.885,-82.4315 755.906,-75.5091 745.319,-75.9189 747.885,-82.4315"/>
</g>
<!-- Node36 -->
<g id="node36" class="node"><title>Node36</title>
<g id="a_node36"><a xlink:title=" ">
<polygon fill="white" stroke="#bfbfbf" points="829.5,-56.5 829.5,-75.5 875.5,-75.5 875.5,-56.5 829.5,-56.5"/>
<text text-anchor="middle" x="852.5" y="-63.5" font-family="Helvetica,sans-Serif" font-size="10.00">chrono</text>
</a>
</g>
</g>
<!-- Node33&#45;&gt;Node36 -->
<g id="edge49" class="edge"><title>Node33&#45;&gt;Node36</title>
<path fill="none" stroke="midnightblue" d="M648.067,-121.032C682.237,-112.338 751.154,-94.6765 819.385,-76.2639"/>
<polygon fill="midnightblue" stroke="midnightblue" points="820.704,-79.5329 829.443,-73.5428 818.876,-72.7759 820.704,-79.5329"/>
</g>
<!-- Node37 -->
<g id="node37" class="node"><title>Node37</title>
<g id="a_node37"><a xlink:title=" ">
<polygon fill="white" stroke="#bfbfbf" points="894,-56.5 894,-75.5 977,-75.5 977,-56.5 894,-56.5"/>
<text text-anchor="middle" x="935.5" y="-63.5" font-family="Helvetica,sans-Serif" font-size="10.00">unordered_map</text>
</a>
</g>
</g>
<!-- Node33&#45;&gt;Node37 -->
<g id="edge53" class="edge"><title>Node33&#45;&gt;Node37</title>
<path fill="none" stroke="midnightblue" d="M648.214,-121.722C661.551,-118.825 678.994,-115.1 694.5,-112 759.573,-98.9891 834.773,-85.1351 883.629,-76.2909"/>
<polygon fill="midnightblue" stroke="midnightblue" points="884.423,-79.7041 893.641,-74.4817 883.178,-72.8157 884.423,-79.7041"/>
</g>
<!-- Node38&#45;&gt;Node4 -->
<g id="edge57" class="edge"><title>Node38&#45;&gt;Node4</title>
<path fill="none" stroke="midnightblue" d="M711.281,-117.975C679.482,-107.636 625.735,-90.1611 590.183,-78.6017"/>
<polygon fill="midnightblue" stroke="midnightblue" points="591.263,-75.2727 580.671,-75.5091 589.099,-81.9297 591.263,-75.2727"/>
</g>
<!-- Node38&#45;&gt;Node5 -->
<g id="edge58" class="edge"><title>Node38&#45;&gt;Node5</title>
<path fill="none" stroke="midnightblue" d="M771.229,-119.801C817.155,-110.642 902.187,-93.5536 985.309,-76.0135"/>
<polygon fill="midnightblue" stroke="midnightblue" points="986.112,-79.4213 995.171,-73.9284 984.664,-72.5727 986.112,-79.4213"/>
</g>
<!-- Node39&#45;&gt;Node5 -->
<g id="edge60" class="edge"><title>Node39&#45;&gt;Node5</title>
<path fill="none" stroke="midnightblue" d="M1087.73,-179.391C1074.31,-171.647 1056.05,-159.034 1045.5,-143 1034.19,-125.813 1029.61,-102.399 1027.76,-86.1195"/>
<polygon fill="midnightblue" stroke="midnightblue" points="1031.21,-85.3682 1026.83,-75.7173 1024.23,-85.9879 1031.21,-85.3682"/>
</g>
<!-- Node40 -->
<g id="node40" class="node"><title>Node40</title>
<g id="a_node40"><a xlink:href="sys__error__code_8h.html" target="_top" xlink:title=" ">
<polygon fill="white" stroke="black" points="1054.5,-118 1054.5,-137 1146.5,-137 1146.5,-118 1054.5,-118"/>
<text text-anchor="middle" x="1100.5" y="-125" font-family="Helvetica,sans-Serif" font-size="10.00">sys_error_code.h</text>
</a>
</g>
</g>
<!-- Node39&#45;&gt;Node40 -->
<g id="edge61" class="edge"><title>Node39&#45;&gt;Node40</title>
<path fill="none" stroke="midnightblue" d="M1103.93,-179.475C1103.36,-171.08 1102.48,-157.981 1101.75,-147.163"/>
<polygon fill="midnightblue" stroke="midnightblue" points="1105.24,-146.752 1101.07,-137.009 1098.25,-147.221 1105.24,-146.752"/>
</g>
<!-- Node39&#45;&gt;Node41 -->
<g id="edge64" class="edge"><title>Node39&#45;&gt;Node41</title>
<path fill="none" stroke="midnightblue" d="M1118.29,-179.347C1129.94,-171.324 1146.17,-158.335 1155.5,-143 1166.19,-125.421 1170.88,-102.078 1172.93,-85.9223"/>
<polygon fill="midnightblue" stroke="midnightblue" points="1176.45,-85.9226 1174,-75.614 1169.49,-85.198 1176.45,-85.9226"/>
</g>
<!-- Node40&#45;&gt;Node5 -->
<g id="edge62" class="edge"><title>Node40&#45;&gt;Node5</title>
<path fill="none" stroke="midnightblue" d="M1089.9,-117.975C1078.25,-108.608 1059.31,-93.3839 1045.17,-82.0081"/>
<polygon fill="midnightblue" stroke="midnightblue" points="1047.07,-79.0477 1037.08,-75.5091 1042.68,-84.503 1047.07,-79.0477"/>
</g>
<!-- Node40&#45;&gt;Node41 -->
<g id="edge63" class="edge"><title>Node40&#45;&gt;Node41</title>
<path fill="none" stroke="midnightblue" d="M1111.1,-117.975C1122.75,-108.608 1141.69,-93.3839 1155.83,-82.0081"/>
<polygon fill="midnightblue" stroke="midnightblue" points="1158.32,-84.503 1163.92,-75.5091 1153.93,-79.0477 1158.32,-84.503"/>
</g>
</g>
</svg>
        <g id="navigator" transform="translate(0 0)" fill="#404254">
                <rect fill="#f2f5e9" fill-opacity="0.5" stroke="#606060" stroke-width=".5" x="0" y="0" width="60" height="60"/>
                <use id="zoomplus" xlink:href="#zoomPlus" x="17" y="9" onmousedown="handleZoom(evt,'in')"/>
                <use id="zoomminus" xlink:href="#zoomMin" x="42" y="9" onmousedown="handleZoom(evt,'out')"/>
                <use id="reset" xlink:href="#resetDef" x="30" y="36" onmousedown="handleReset()"/>
                <g id="arrowUp" xlink:href="#dirArrow" transform="translate(30 24)" onmousedown="handlePan(0,-1)">
                  <use xlink:href="#rim" fill="#404040">
                        <set attributeName="fill" to="#808080" begin="arrowUp.mouseover" end="arrowUp.mouseout"/>
                  </use>
                  <path fill="none" stroke="white" stroke-width="1.5" d="M0,-3.0v7 M-2.5,-0.5L0,-3.0L2.5,-0.5"/>
                </g>
                <g id="arrowRight" xlink:href="#dirArrow" transform="rotate(90) translate(36 -43)" onmousedown="handlePan(1,0)">
                  <use xlink:href="#rim" fill="#404040">
                        <set attributeName="fill" to="#808080" begin="arrowRight.mouseover" end="arrowRight.mouseout"/>
                  </use>
                  <path fill="none" stroke="white" stroke-width="1.5" d="M0,-3.0v7 M-2.5,-0.5L0,-3.0L2.5,-0.5"/>
                </g>
                <g id="arrowDown" xlink:href="#dirArrow" transform="rotate(180) translate(-30 -48)" onmousedown="handlePan(0,1)">
                  <use xlink:href="#rim" fill="#404040">
                        <set attributeName="fill" to="#808080" begin="arrowDown.mouseover" end="arrowDown.mouseout"/>
                  </use>
                  <path fill="none" stroke="white" stroke-width="1.5" d="M0,-3.0v7 M-2.5,-0.5L0,-3.0L2.5,-0.5"/>
                </g>
                <g id="arrowLeft" xlink:href="#dirArrow" transform="rotate(270) translate(-36 17)" onmousedown="handlePan(-1,0)">
                  <use xlink:href="#rim" fill="#404040">
                        <set attributeName="fill" to="#808080" begin="arrowLeft.mouseover" end="arrowLeft.mouseout"/>
                  </use>
                  <path fill="none" stroke="white" stroke-width="1.5" d="M0,-3.0v7 M-2.5,-0.5L0,-3.0L2.5,-0.5"/>
                </g>
        </g>
        <svg viewBox="0 0 15 15" width="100%" height="30px" preserveAspectRatio="xMaxYMin meet">
         <g id="arrow_out" transform="scale(0.3 0.3)">
          <a xlink:href="executor__select__base_8h__incl_org.svg" target="_base">
           <rect id="button" ry="5" rx="5" y="6" x="6" height="38" width="38"
                fill="#f2f5e9" fill-opacity="0.5" stroke="#606060" stroke-width="1.0"/>
           <path id="arrow"
             d="M 11.500037,31.436501 C 11.940474,20.09759 22.043105,11.32322 32.158766,21.979434 L 37.068811,17.246167 C 37.068811,17.246167 37.088388,32 37.088388,32 L 22.160133,31.978069 C 22.160133,31.978069 26.997745,27.140456 26.997745,27.140456 C 18.528582,18.264221 13.291696,25.230495 11.500037,31.436501 z"
             style="fill:#404040;"/>
          </a>
         </g>
        </svg>
</svg>
