<?xml version="1.0" encoding="UTF-8" standalone="no"?>
<!DOCTYPE svg PUBLIC "-//W3C//DTD SVG 1.1//EN"
 "http://www.w3.org/Graphics/SVG/1.1/DTD/svg11.dtd">
<!-- Generated by graphviz version 2.38.0 (20140413.2041)
 -->
<!-- Title: C:/projects/ndt/sources/include/ndt/executor_select_base.h Pages: 1 -->
<svg width="349pt" height="351pt"
 viewBox="0.00 0.00 348.79 351.00" xmlns="http://www.w3.org/2000/svg" xmlns:xlink="http://www.w3.org/1999/xlink">
<g id="graph0" class="graph" transform="scale(1 1) rotate(0) translate(4 347)">
<title>C:/projects/ndt/sources/include/ndt/executor_select_base.h</title>
<polygon fill="white" stroke="none" points="-4,4 -4,-347 344.788,-347 344.788,4 -4,4"/>
<!-- Node1 -->
<g id="node1" class="node"><title>Node1</title>
<g id="a_node1"><a xlink:title=" ">
<polygon fill="#bfbfbf" stroke="black" points="113.647,-301.5 113.647,-342.5 231.647,-342.5 231.647,-301.5 113.647,-301.5"/>
<text text-anchor="start" x="121.647" y="-330.5" font-family="Helvetica,sans-Serif" font-size="10.00">C:/projects/ndt/sources</text>
<text text-anchor="start" x="121.647" y="-319.5" font-family="Helvetica,sans-Serif" font-size="10.00">/include/ndt/executor</text>
<text text-anchor="middle" x="172.647" y="-308.5" font-family="Helvetica,sans-Serif" font-size="10.00">_select_base.h</text>
</a>
</g>
</g>
<!-- Node2 -->
<g id="node2" class="node"><title>Node2</title>
<g id="a_node2"><a xlink:href="core_8h.html" target="_top" xlink:title=" ">
<polygon fill="white" stroke="black" points="21.6471,-0.5 21.6471,-30.5 139.647,-30.5 139.647,-0.5 21.6471,-0.5"/>
<text text-anchor="start" x="29.6471" y="-18.5" font-family="Helvetica,sans-Serif" font-size="10.00">C:/projects/ndt/sources</text>
<text text-anchor="middle" x="80.6471" y="-7.5" font-family="Helvetica,sans-Serif" font-size="10.00">/include/ndt/core.h</text>
</a>
</g>
</g>
<!-- Node1&#45;&gt;Node2 -->
<g id="edge1" class="edge"><title>Node1&#45;&gt;Node2</title>
<path fill="none" stroke="midnightblue" d="M103.596,-313.733C72.2501,-306.591 37.9398,-292.544 18.6471,-265 -34.795,-188.701 40.7548,-70.8584 69.9638,-30.5659"/>
<polygon fill="midnightblue" stroke="midnightblue" points="103.144,-317.214 113.646,-315.817 104.565,-310.359 103.144,-317.214"/>
</g>
<!-- Node3 -->
<g id="node3" class="node"><title>Node3</title>
<g id="a_node3"><a xlink:href="nix_2executor__select__impl_8h.html" target="_top" xlink:title=" ">
<polygon fill="white" stroke="black" points="27.6471,-223.5 27.6471,-264.5 163.647,-264.5 163.647,-223.5 27.6471,-223.5"/>
<text text-anchor="start" x="35.6471" y="-252.5" font-family="Helvetica,sans-Serif" font-size="10.00">C:/projects/ndt/sources</text>
<text text-anchor="start" x="35.6471" y="-241.5" font-family="Helvetica,sans-Serif" font-size="10.00">/include/ndt/platform</text>
<text text-anchor="middle" x="95.6471" y="-230.5" font-family="Helvetica,sans-Serif" font-size="10.00">/nix/executor_select_impl.h</text>
</a>
</g>
</g>
<!-- Node1&#45;&gt;Node3 -->
<g id="edge2" class="edge"><title>Node1&#45;&gt;Node3</title>
<path fill="none" stroke="midnightblue" d="M145.499,-294.204C135.582,-284.416 124.561,-273.539 115.409,-264.506"/>
<polygon fill="midnightblue" stroke="midnightblue" points="143.242,-296.894 152.818,-301.428 148.159,-291.912 143.242,-296.894"/>
</g>
<!-- Node7 -->
<g id="node7" class="node"><title>Node7</title>
<g id="a_node7"><a xlink:href="win_2executor__select__impl_8h.html" target="_top" xlink:title=" ">
<polygon fill="white" stroke="black" points="182.147,-223.5 182.147,-264.5 319.147,-264.5 319.147,-223.5 182.147,-223.5"/>
<text text-anchor="start" x="190.147" y="-252.5" font-family="Helvetica,sans-Serif" font-size="10.00">C:/projects/ndt/sources</text>
<text text-anchor="start" x="190.147" y="-241.5" font-family="Helvetica,sans-Serif" font-size="10.00">/include/ndt/platform</text>
<text text-anchor="middle" x="250.647" y="-230.5" font-family="Helvetica,sans-Serif" font-size="10.00">/win/executor_select_impl.h</text>
</a>
</g>
</g>
<!-- Node1&#45;&gt;Node7 -->
<g id="edge10" class="edge"><title>Node1&#45;&gt;Node7</title>
<path fill="none" stroke="midnightblue" d="M200.148,-294.204C210.194,-284.416 221.357,-273.539 230.628,-264.506"/>
<polygon fill="midnightblue" stroke="midnightblue" points="197.454,-291.943 192.734,-301.428 202.339,-296.956 197.454,-291.943"/>
</g>
<!-- Node4 -->
<g id="node4" class="node"><title>Node4</title>
<g id="a_node4"><a xlink:href="executor__select_8h.html" target="_top" xlink:title=" ">
<polygon fill="white" stroke="black" points="51.6471,-145.5 51.6471,-186.5 169.647,-186.5 169.647,-145.5 51.6471,-145.5"/>
<text text-anchor="start" x="59.6471" y="-174.5" font-family="Helvetica,sans-Serif" font-size="10.00">C:/projects/ndt/sources</text>
<text text-anchor="start" x="59.6471" y="-163.5" font-family="Helvetica,sans-Serif" font-size="10.00">/include/ndt/executor</text>
<text text-anchor="middle" x="110.647" y="-152.5" font-family="Helvetica,sans-Serif" font-size="10.00">_select.h</text>
</a>
</g>
</g>
<!-- Node3&#45;&gt;Node4 -->
<g id="edge3" class="edge"><title>Node3&#45;&gt;Node4</title>
<path fill="none" stroke="midnightblue" d="M101.452,-213.59C103.244,-204.511 105.172,-194.742 106.797,-186.506"/>
<polygon fill="midnightblue" stroke="midnightblue" points="98.0127,-212.94 99.51,-223.428 104.88,-214.295 98.0127,-212.94"/>
</g>
<!-- Node4&#45;&gt;Node2 -->
<g id="edge6" class="edge"><title>Node4&#45;&gt;Node2</title>
<path fill="none" stroke="midnightblue" d="M76.9802,-138.368C68.7603,-129.945 61.065,-119.946 56.6471,-109 45.8427,-82.2302 60.813,-49.1179 71.5118,-30.6519"/>
<polygon fill="midnightblue" stroke="midnightblue" points="74.6264,-140.96 84.2697,-145.349 79.4679,-135.904 74.6264,-140.96"/>
</g>
<!-- Node5 -->
<g id="node5" class="node"><title>Node5</title>
<g id="a_node5"><a xlink:href="context_8h.html" target="_top" xlink:title=" ">
<polygon fill="white" stroke="black" points="65.6471,-73 65.6471,-103 183.647,-103 183.647,-73 65.6471,-73"/>
<text text-anchor="start" x="73.6471" y="-91" font-family="Helvetica,sans-Serif" font-size="10.00">C:/projects/ndt/sources</text>
<text text-anchor="middle" x="124.647" y="-80" font-family="Helvetica,sans-Serif" font-size="10.00">/include/ndt/context.h</text>
</a>
</g>
</g>
<!-- Node4&#45;&gt;Node5 -->
<g id="edge4" class="edge"><title>Node4&#45;&gt;Node5</title>
<path fill="none" stroke="midnightblue" d="M116.121,-135.283C118.153,-124.254 120.365,-112.246 122.027,-103.225"/>
<polygon fill="midnightblue" stroke="midnightblue" points="112.622,-134.959 114.252,-145.428 119.506,-136.228 112.622,-134.959"/>
</g>
<!-- Node6 -->
<g id="node6" class="node"><title>Node6</title>
<g id="a_node6"><a xlink:href="event__handler__select_8h.html" target="_top" xlink:title=" ">
<polygon fill="white" stroke="black" points="202.147,-67.5 202.147,-108.5 331.147,-108.5 331.147,-67.5 202.147,-67.5"/>
<text text-anchor="start" x="210.147" y="-96.5" font-family="Helvetica,sans-Serif" font-size="10.00">C:/projects/ndt/sources</text>
<text text-anchor="start" x="210.147" y="-85.5" font-family="Helvetica,sans-Serif" font-size="10.00">/include/ndt/event_handler</text>
<text text-anchor="middle" x="266.647" y="-74.5" font-family="Helvetica,sans-Serif" font-size="10.00">_select.h</text>
</a>
</g>
</g>
<!-- Node4&#45;&gt;Node6 -->
<g id="edge7" class="edge"><title>Node4&#45;&gt;Node6</title>
<path fill="none" stroke="midnightblue" d="M160.099,-140.908C181.549,-130.458 206.341,-118.38 226.609,-108.506"/>
<polygon fill="midnightblue" stroke="midnightblue" points="158.278,-137.902 150.821,-145.428 161.344,-144.195 158.278,-137.902"/>
</g>
<!-- Node5&#45;&gt;Node2 -->
<g id="edge5" class="edge"><title>Node5&#45;&gt;Node2</title>
<path fill="none" stroke="midnightblue" d="M110.328,-64.0566C103.481,-53.0859 95.4989,-40.2965 89.5379,-30.7455"/>
<polygon fill="midnightblue" stroke="midnightblue" points="107.479,-66.103 115.743,-72.7333 113.418,-62.3968 107.479,-66.103"/>
</g>
<!-- Node6&#45;&gt;Node1 -->
<g id="edge9" class="edge"><title>Node6&#45;&gt;Node1</title>
<path fill="none" stroke="midnightblue" d="M290.782,-116.338C319.983,-152.882 361.4,-218.443 328.647,-265 306.875,-295.948 266.308,-309.878 232,-316.108"/>
<polygon fill="midnightblue" stroke="midnightblue" points="293.453,-114.076 284.404,-108.566 288.042,-118.516 293.453,-114.076"/>
</g>
<!-- Node6&#45;&gt;Node2 -->
<g id="edge8" class="edge"><title>Node6&#45;&gt;Node2</title>
<path fill="none" stroke="midnightblue" d="M205.221,-63.7174C176.289,-52.7515 142.732,-40.0323 117.741,-30.5597"/>
<polygon fill="midnightblue" stroke="midnightblue" points="204.244,-67.0903 214.836,-67.3618 206.725,-60.5447 204.244,-67.0903"/>
</g>
</g>
</svg>
