<?xml version="1.0" encoding="UTF-8" standalone="no"?>
<!DOCTYPE svg PUBLIC "-//W3C//DTD SVG 1.1//EN"
 "http://www.w3.org/Graphics/SVG/1.1/DTD/svg11.dtd">
<!-- Generated by graphviz version 2.38.0 (20140413.2041)
 -->
<!-- Title: C:/projects/ndt/sources/src/file.cpp Pages: 1 -->
<svg width="945pt" height="319pt"
 viewBox="0.00 0.00 944.50 319.00" xmlns="http://www.w3.org/2000/svg" xmlns:xlink="http://www.w3.org/1999/xlink">
<g id="graph0" class="graph" transform="scale(1 1) rotate(0) translate(4 315)">
<title>C:/projects/ndt/sources/src/file.cpp</title>
<polygon fill="white" stroke="none" points="-4,4 -4,-315 940.5,-315 940.5,4 -4,4"/>
<!-- Node1 -->
<g id="node1" class="node"><title>Node1</title>
<g id="a_node1"><a xlink:title=" ">
<polygon fill="#bfbfbf" stroke="black" points="205,-280.5 205,-310.5 323,-310.5 323,-280.5 205,-280.5"/>
<text text-anchor="start" x="213" y="-298.5" font-family="Helvetica,sans-Serif" font-size="10.00">C:/projects/ndt/sources</text>
<text text-anchor="middle" x="264" y="-287.5" font-family="Helvetica,sans-Serif" font-size="10.00">/src/file.cpp</text>
</a>
</g>
</g>
<!-- Node2 -->
<g id="node2" class="node"><title>Node2</title>
<g id="a_node2"><a xlink:href="file_8h.html" target="_top" xlink:title=" ">
<polygon fill="white" stroke="black" points="237.5,-224.5 237.5,-243.5 290.5,-243.5 290.5,-224.5 237.5,-224.5"/>
<text text-anchor="middle" x="264" y="-231.5" font-family="Helvetica,sans-Serif" font-size="10.00">ndt/file.h</text>
</a>
</g>
</g>
<!-- Node1&#45;&gt;Node2 -->
<g id="edge1" class="edge"><title>Node1&#45;&gt;Node2</title>
<path fill="none" stroke="midnightblue" d="M264,-280.399C264,-272.466 264,-262.458 264,-253.858"/>
<polygon fill="midnightblue" stroke="midnightblue" points="267.5,-253.658 264,-243.658 260.5,-253.658 267.5,-253.658"/>
</g>
<!-- Node3 -->
<g id="node3" class="node"><title>Node3</title>
<g id="a_node3"><a xlink:title=" ">
<polygon fill="white" stroke="#bfbfbf" points="0,-168.5 0,-187.5 60,-187.5 60,-168.5 0,-168.5"/>
<text text-anchor="middle" x="30" y="-175.5" font-family="Helvetica,sans-Serif" font-size="10.00">sys/stat.h</text>
</a>
</g>
</g>
<!-- Node2&#45;&gt;Node3 -->
<g id="edge2" class="edge"><title>Node2&#45;&gt;Node3</title>
<path fill="none" stroke="midnightblue" d="M237.157,-226.806C196.223,-217.359 117.932,-199.292 70.1968,-188.276"/>
<polygon fill="midnightblue" stroke="midnightblue" points="70.7404,-184.81 60.2094,-185.971 69.1663,-191.63 70.7404,-184.81"/>
</g>
<!-- Node4 -->
<g id="node4" class="node"><title>Node4</title>
<g id="a_node4"><a xlink:title=" ">
<polygon fill="white" stroke="#bfbfbf" points="78.5,-168.5 78.5,-187.5 119.5,-187.5 119.5,-168.5 78.5,-168.5"/>
<text text-anchor="middle" x="99" y="-175.5" font-family="Helvetica,sans-Serif" font-size="10.00">string</text>
</a>
</g>
</g>
<!-- Node2&#45;&gt;Node4 -->
<g id="edge3" class="edge"><title>Node2&#45;&gt;Node4</title>
<path fill="none" stroke="midnightblue" d="M237.855,-224.444C208.464,-214.825 160.795,-199.224 129.669,-189.037"/>
<polygon fill="midnightblue" stroke="midnightblue" points="130.391,-185.591 119.798,-185.807 128.213,-192.244 130.391,-185.591"/>
</g>
<!-- Node5 -->
<g id="node5" class="node"><title>Node5</title>
<g id="a_node5"><a xlink:title=" ">
<polygon fill="white" stroke="#bfbfbf" points="138,-168.5 138,-187.5 212,-187.5 212,-168.5 138,-168.5"/>
<text text-anchor="middle" x="175" y="-175.5" font-family="Helvetica,sans-Serif" font-size="10.00">system_error</text>
</a>
</g>
</g>
<!-- Node2&#45;&gt;Node5 -->
<g id="edge4" class="edge"><title>Node2&#45;&gt;Node5</title>
<path fill="none" stroke="midnightblue" d="M249.701,-224.324C235.817,-215.9 214.508,-202.971 198.196,-193.074"/>
<polygon fill="midnightblue" stroke="midnightblue" points="199.629,-189.85 189.264,-187.655 195.998,-195.834 199.629,-189.85"/>
</g>
<!-- Node6 -->
<g id="node6" class="node"><title>Node6</title>
<g id="a_node6"><a xlink:title=" ">
<polygon fill="white" stroke="#bfbfbf" points="175,-112.5 175,-131.5 237,-131.5 237,-112.5 175,-112.5"/>
<text text-anchor="middle" x="206" y="-119.5" font-family="Helvetica,sans-Serif" font-size="10.00">type_traits</text>
</a>
</g>
</g>
<!-- Node2&#45;&gt;Node6 -->
<g id="edge5" class="edge"><title>Node2&#45;&gt;Node6</title>
<path fill="none" stroke="midnightblue" d="M259.449,-224.368C249.962,-206.376 227.908,-164.55 215.294,-140.627"/>
<polygon fill="midnightblue" stroke="midnightblue" points="218.29,-138.805 210.53,-131.591 212.098,-142.07 218.29,-138.805"/>
</g>
<!-- Node7 -->
<g id="node7" class="node"><title>Node7</title>
<g id="a_node7"><a xlink:title=" ">
<polygon fill="white" stroke="#bfbfbf" points="268,-168.5 268,-187.5 308,-187.5 308,-168.5 268,-168.5"/>
<text text-anchor="middle" x="288" y="-175.5" font-family="Helvetica,sans-Serif" font-size="10.00">utility</text>
</a>
</g>
</g>
<!-- Node2&#45;&gt;Node7 -->
<g id="edge6" class="edge"><title>Node2&#45;&gt;Node7</title>
<path fill="none" stroke="midnightblue" d="M267.963,-224.083C271.213,-216.77 275.919,-206.181 279.954,-197.103"/>
<polygon fill="midnightblue" stroke="midnightblue" points="283.248,-198.311 284.111,-187.751 276.851,-195.468 283.248,-198.311"/>
</g>
<!-- Node8 -->
<g id="node8" class="node"><title>Node8</title>
<g id="a_node8"><a xlink:href="buffer_8h.html" target="_top" xlink:title=" ">
<polygon fill="white" stroke="black" points="326.5,-168.5 326.5,-187.5 391.5,-187.5 391.5,-168.5 326.5,-168.5"/>
<text text-anchor="middle" x="359" y="-175.5" font-family="Helvetica,sans-Serif" font-size="10.00">ndt/buffer.h</text>
</a>
</g>
</g>
<!-- Node2&#45;&gt;Node8 -->
<g id="edge7" class="edge"><title>Node2&#45;&gt;Node8</title>
<path fill="none" stroke="midnightblue" d="M279.263,-224.324C294.221,-215.822 317.255,-202.729 334.727,-192.797"/>
<polygon fill="midnightblue" stroke="midnightblue" points="336.81,-195.639 343.774,-187.655 333.351,-189.553 336.81,-195.639"/>
</g>
<!-- Node21 -->
<g id="node21" class="node"><title>Node21</title>
<g id="a_node21"><a xlink:href="sys__file__ops_8h.html" target="_top" xlink:title=" ">
<polygon fill="white" stroke="black" points="480.5,-168.5 480.5,-187.5 575.5,-187.5 575.5,-168.5 480.5,-168.5"/>
<text text-anchor="middle" x="528" y="-175.5" font-family="Helvetica,sans-Serif" font-size="10.00">ndt/sys_file_ops.h</text>
</a>
</g>
</g>
<!-- Node2&#45;&gt;Node21 -->
<g id="edge22" class="edge"><title>Node2&#45;&gt;Node21</title>
<path fill="none" stroke="midnightblue" d="M290.767,-227.525C334.082,-218.665 420.299,-201.03 476,-189.636"/>
<polygon fill="midnightblue" stroke="midnightblue" points="476.933,-193.018 486.028,-187.585 475.53,-186.16 476.933,-193.018"/>
</g>
<!-- Node24 -->
<g id="node24" class="node"><title>Node24</title>
<g id="a_node24"><a xlink:href="useful__base__types_8h.html" target="_top" xlink:title=" ">
<polygon fill="white" stroke="black" points="606,-56.5 606,-75.5 712,-75.5 712,-56.5 606,-56.5"/>
<text text-anchor="middle" x="659" y="-63.5" font-family="Helvetica,sans-Serif" font-size="10.00">useful_base_types.h</text>
</a>
</g>
</g>
<!-- Node2&#45;&gt;Node24 -->
<g id="edge28" class="edge"><title>Node2&#45;&gt;Node24</title>
<path fill="none" stroke="midnightblue" d="M290.921,-231.26C358.335,-226.582 532.738,-212.409 585,-188 618.643,-172.287 628.893,-164.418 647,-132 654.957,-117.755 657.777,-99.2818 658.711,-85.672"/>
<polygon fill="midnightblue" stroke="midnightblue" points="662.212,-85.7179 659.125,-75.583 655.218,-85.4314 662.212,-85.7179"/>
</g>
<!-- Node8&#45;&gt;Node6 -->
<g id="edge11" class="edge"><title>Node8&#45;&gt;Node6</title>
<path fill="none" stroke="midnightblue" d="M334.757,-168.444C309.129,-159.399 268.515,-145.064 239.762,-134.916"/>
<polygon fill="midnightblue" stroke="midnightblue" points="240.725,-131.544 230.13,-131.516 238.395,-138.145 240.725,-131.544"/>
</g>
<!-- Node9 -->
<g id="node9" class="node"><title>Node9</title>
<g id="a_node9"><a xlink:title=" ">
<polygon fill="white" stroke="#bfbfbf" points="255.5,-112.5 255.5,-131.5 304.5,-131.5 304.5,-112.5 255.5,-112.5"/>
<text text-anchor="middle" x="280" y="-119.5" font-family="Helvetica,sans-Serif" font-size="10.00">cassert</text>
</a>
</g>
</g>
<!-- Node8&#45;&gt;Node9 -->
<g id="edge8" class="edge"><title>Node8&#45;&gt;Node9</title>
<path fill="none" stroke="midnightblue" d="M346.307,-168.324C334.099,-159.979 315.422,-147.212 300.997,-137.352"/>
<polygon fill="midnightblue" stroke="midnightblue" points="302.892,-134.408 292.661,-131.655 298.942,-140.187 302.892,-134.408"/>
</g>
<!-- Node10 -->
<g id="node10" class="node"><title>Node10</title>
<g id="a_node10"><a xlink:title=" ">
<polygon fill="white" stroke="#bfbfbf" points="285,-0.5 285,-19.5 333,-19.5 333,-0.5 285,-0.5"/>
<text text-anchor="middle" x="309" y="-7.5" font-family="Helvetica,sans-Serif" font-size="10.00">cstddef</text>
</a>
</g>
</g>
<!-- Node8&#45;&gt;Node10 -->
<g id="edge9" class="edge"><title>Node8&#45;&gt;Node10</title>
<path fill="none" stroke="midnightblue" d="M356.312,-168.075C348.441,-141.945 325.328,-65.2106 314.595,-29.577"/>
<polygon fill="midnightblue" stroke="midnightblue" points="317.816,-28.1338 311.581,-19.5681 311.114,-30.1526 317.816,-28.1338"/>
</g>
<!-- Node11 -->
<g id="node11" class="node"><title>Node11</title>
<g id="a_node11"><a xlink:title=" ">
<polygon fill="white" stroke="#bfbfbf" points="361,-112.5 361,-131.5 407,-131.5 407,-112.5 361,-112.5"/>
<text text-anchor="middle" x="384" y="-119.5" font-family="Helvetica,sans-Serif" font-size="10.00">cstdint</text>
</a>
</g>
</g>
<!-- Node8&#45;&gt;Node11 -->
<g id="edge10" class="edge"><title>Node8&#45;&gt;Node11</title>
<path fill="none" stroke="midnightblue" d="M363.128,-168.083C366.514,-160.77 371.416,-150.181 375.619,-141.103"/>
<polygon fill="midnightblue" stroke="midnightblue" points="378.923,-142.296 379.949,-131.751 372.571,-139.355 378.923,-142.296"/>
</g>
<!-- Node12 -->
<g id="node12" class="node"><title>Node12</title>
<g id="a_node12"><a xlink:href="common_8h.html" target="_top" xlink:title="Header with typedefs to make type designation platform independent.">
<polygon fill="white" stroke="black" points="526,-56.5 526,-75.5 588,-75.5 588,-56.5 526,-56.5"/>
<text text-anchor="middle" x="557" y="-63.5" font-family="Helvetica,sans-Serif" font-size="10.00">common.h</text>
</a>
</g>
</g>
<!-- Node8&#45;&gt;Node12 -->
<g id="edge12" class="edge"><title>Node8&#45;&gt;Node12</title>
<path fill="none" stroke="midnightblue" d="M370.392,-168.292C387.947,-155.105 422.946,-129.734 455,-112 477.705,-99.4386 504.602,-87.6926 525.074,-79.3529"/>
<polygon fill="midnightblue" stroke="midnightblue" points="526.586,-82.5177 534.562,-75.5438 523.978,-76.0217 526.586,-82.5177"/>
</g>
<!-- Node12&#45;&gt;Node10 -->
<g id="edge21" class="edge"><title>Node12&#45;&gt;Node10</title>
<path fill="none" stroke="midnightblue" d="M525.894,-59.0971C485.849,-51.3658 413.906,-37.0305 343.089,-20.152"/>
<polygon fill="midnightblue" stroke="midnightblue" points="343.649,-16.6868 333.108,-17.7539 342.013,-23.4932 343.649,-16.6868"/>
</g>
<!-- Node13 -->
<g id="node13" class="node"><title>Node13</title>
<g id="a_node13"><a xlink:title=" ">
<polygon fill="white" stroke="#bfbfbf" points="351,-0.5 351,-19.5 413,-19.5 413,-0.5 351,-0.5"/>
<text text-anchor="middle" x="382" y="-7.5" font-family="Helvetica,sans-Serif" font-size="10.00">arpa/inet.h</text>
</a>
</g>
</g>
<!-- Node12&#45;&gt;Node13 -->
<g id="edge13" class="edge"><title>Node12&#45;&gt;Node13</title>
<path fill="none" stroke="midnightblue" d="M529.271,-56.4435C499.574,-47.2801 452.284,-32.6876 419.331,-22.5192"/>
<polygon fill="midnightblue" stroke="midnightblue" points="420.187,-19.1206 409.6,-19.5164 418.123,-25.8094 420.187,-19.1206"/>
</g>
<!-- Node14 -->
<g id="node14" class="node"><title>Node14</title>
<g id="a_node14"><a xlink:title=" ">
<polygon fill="white" stroke="#bfbfbf" points="431.5,-0.5 431.5,-19.5 478.5,-19.5 478.5,-0.5 431.5,-0.5"/>
<text text-anchor="middle" x="455" y="-7.5" font-family="Helvetica,sans-Serif" font-size="10.00">errno.h</text>
</a>
</g>
</g>
<!-- Node12&#45;&gt;Node14 -->
<g id="edge14" class="edge"><title>Node12&#45;&gt;Node14</title>
<path fill="none" stroke="midnightblue" d="M540.612,-56.324C524.329,-47.7034 499.133,-34.3643 480.284,-24.3855"/>
<polygon fill="midnightblue" stroke="midnightblue" points="481.823,-21.2402 471.347,-19.6545 478.548,-27.4267 481.823,-21.2402"/>
</g>
<!-- Node15 -->
<g id="node15" class="node"><title>Node15</title>
<g id="a_node15"><a xlink:title=" ">
<polygon fill="white" stroke="#bfbfbf" points="496.5,-0.5 496.5,-19.5 539.5,-19.5 539.5,-0.5 496.5,-0.5"/>
<text text-anchor="middle" x="518" y="-7.5" font-family="Helvetica,sans-Serif" font-size="10.00">fcntl.h</text>
</a>
</g>
</g>
<!-- Node12&#45;&gt;Node15 -->
<g id="edge15" class="edge"><title>Node12&#45;&gt;Node15</title>
<path fill="none" stroke="midnightblue" d="M550.56,-56.083C545.051,-48.4554 536.969,-37.2645 530.235,-27.9408"/>
<polygon fill="midnightblue" stroke="midnightblue" points="533.013,-25.8087 524.32,-19.7511 527.338,-29.9071 533.013,-25.8087"/>
</g>
<!-- Node16 -->
<g id="node16" class="node"><title>Node16</title>
<g id="a_node16"><a xlink:title=" ">
<polygon fill="white" stroke="#bfbfbf" points="557.5,-0.5 557.5,-19.5 606.5,-19.5 606.5,-0.5 557.5,-0.5"/>
<text text-anchor="middle" x="582" y="-7.5" font-family="Helvetica,sans-Serif" font-size="10.00">netdb.h</text>
</a>
</g>
</g>
<!-- Node12&#45;&gt;Node16 -->
<g id="edge16" class="edge"><title>Node12&#45;&gt;Node16</title>
<path fill="none" stroke="midnightblue" d="M561.128,-56.083C564.514,-48.77 569.416,-38.1814 573.619,-29.1034"/>
<polygon fill="midnightblue" stroke="midnightblue" points="576.923,-30.2962 577.949,-19.7511 570.571,-27.3553 576.923,-30.2962"/>
</g>
<!-- Node17 -->
<g id="node17" class="node"><title>Node17</title>
<g id="a_node17"><a xlink:title=" ">
<polygon fill="white" stroke="#bfbfbf" points="624.5,-0.5 624.5,-19.5 689.5,-19.5 689.5,-0.5 624.5,-0.5"/>
<text text-anchor="middle" x="657" y="-7.5" font-family="Helvetica,sans-Serif" font-size="10.00">netinet/in.h</text>
</a>
</g>
</g>
<!-- Node12&#45;&gt;Node17 -->
<g id="edge17" class="edge"><title>Node12&#45;&gt;Node17</title>
<path fill="none" stroke="midnightblue" d="M573.067,-56.324C588.958,-47.7428 613.507,-34.486 631.958,-24.5224"/>
<polygon fill="midnightblue" stroke="midnightblue" points="633.837,-27.4857 640.973,-19.6545 630.511,-21.3264 633.837,-27.4857"/>
</g>
<!-- Node18 -->
<g id="node18" class="node"><title>Node18</title>
<g id="a_node18"><a xlink:title=" ">
<polygon fill="white" stroke="#bfbfbf" points="707.5,-0.5 707.5,-19.5 780.5,-19.5 780.5,-0.5 707.5,-0.5"/>
<text text-anchor="middle" x="744" y="-7.5" font-family="Helvetica,sans-Serif" font-size="10.00">sys/socket.h</text>
</a>
</g>
</g>
<!-- Node12&#45;&gt;Node18 -->
<g id="edge18" class="edge"><title>Node12&#45;&gt;Node18</title>
<path fill="none" stroke="midnightblue" d="M586.631,-56.4435C618.5,-47.2406 669.333,-32.5617 704.564,-22.3879"/>
<polygon fill="midnightblue" stroke="midnightblue" points="705.872,-25.6534 714.508,-19.5164 703.929,-18.9282 705.872,-25.6534"/>
</g>
<!-- Node19 -->
<g id="node19" class="node"><title>Node19</title>
<g id="a_node19"><a xlink:title=" ">
<polygon fill="white" stroke="#bfbfbf" points="799,-0.5 799,-19.5 867,-19.5 867,-0.5 799,-0.5"/>
<text text-anchor="middle" x="833" y="-7.5" font-family="Helvetica,sans-Serif" font-size="10.00">sys/types.h</text>
</a>
</g>
</g>
<!-- Node12&#45;&gt;Node19 -->
<g id="edge19" class="edge"><title>Node12&#45;&gt;Node19</title>
<path fill="none" stroke="midnightblue" d="M588.419,-57.8157C591.317,-57.1877 594.211,-56.5736 597,-56 679.38,-39.0552 702.735,-37.067 788.797,-20.201"/>
<polygon fill="midnightblue" stroke="midnightblue" points="789.612,-23.6078 798.746,-18.24 788.258,-16.7399 789.612,-23.6078"/>
</g>
<!-- Node20 -->
<g id="node20" class="node"><title>Node20</title>
<g id="a_node20"><a xlink:title=" ">
<polygon fill="white" stroke="#bfbfbf" points="885.5,-0.5 885.5,-19.5 936.5,-19.5 936.5,-0.5 885.5,-0.5"/>
<text text-anchor="middle" x="911" y="-7.5" font-family="Helvetica,sans-Serif" font-size="10.00">unistd.h</text>
</a>
</g>
</g>
<!-- Node12&#45;&gt;Node20 -->
<g id="edge20" class="edge"><title>Node12&#45;&gt;Node20</title>
<path fill="none" stroke="midnightblue" d="M588.387,-57.6482C591.292,-57.0554 594.196,-56.4952 597,-56 716.996,-34.8061 751.483,-43.1582 875.583,-19.8412"/>
<polygon fill="midnightblue" stroke="midnightblue" points="876.302,-23.2672 885.468,-17.9532 874.989,-16.3915 876.302,-23.2672"/>
</g>
<!-- Node22 -->
<g id="node22" class="node"><title>Node22</title>
<g id="a_node22"><a xlink:title=" ">
<polygon fill="white" stroke="#bfbfbf" points="463.5,-112.5 463.5,-131.5 506.5,-131.5 506.5,-112.5 463.5,-112.5"/>
<text text-anchor="middle" x="485" y="-119.5" font-family="Helvetica,sans-Serif" font-size="10.00">cstdio</text>
</a>
</g>
</g>
<!-- Node21&#45;&gt;Node22 -->
<g id="edge23" class="edge"><title>Node21&#45;&gt;Node22</title>
<path fill="none" stroke="midnightblue" d="M520.899,-168.083C514.763,-160.377 505.73,-149.033 498.261,-139.653"/>
<polygon fill="midnightblue" stroke="midnightblue" points="500.936,-137.394 491.968,-131.751 495.46,-141.754 500.936,-137.394"/>
</g>
<!-- Node23 -->
<g id="node23" class="node"><title>Node23</title>
<g id="a_node23"><a xlink:href="sys__error__code_8h.html" target="_top" xlink:title=" ">
<polygon fill="white" stroke="black" points="525,-112.5 525,-131.5 617,-131.5 617,-112.5 525,-112.5"/>
<text text-anchor="middle" x="571" y="-119.5" font-family="Helvetica,sans-Serif" font-size="10.00">sys_error_code.h</text>
</a>
</g>
</g>
<!-- Node21&#45;&gt;Node23 -->
<g id="edge24" class="edge"><title>Node21&#45;&gt;Node23</title>
<path fill="none" stroke="midnightblue" d="M535.101,-168.083C541.237,-160.377 550.27,-149.033 557.739,-139.653"/>
<polygon fill="midnightblue" stroke="midnightblue" points="560.54,-141.754 564.032,-131.751 555.064,-137.394 560.54,-141.754"/>
</g>
<!-- Node21&#45;&gt;Node24 -->
<g id="edge27" class="edge"><title>Node21&#45;&gt;Node24</title>
<path fill="none" stroke="midnightblue" d="M559.855,-168.393C580.744,-161.414 607.51,-149.777 626,-132 639.377,-119.139 648.256,-99.6873 653.401,-85.4137"/>
<polygon fill="midnightblue" stroke="midnightblue" points="656.796,-86.2961 656.621,-75.7027 650.152,-84.0932 656.796,-86.2961"/>
</g>
<!-- Node23&#45;&gt;Node12 -->
<g id="edge25" class="edge"><title>Node23&#45;&gt;Node12</title>
<path fill="none" stroke="midnightblue" d="M568.688,-112.083C566.833,-104.927 564.165,-94.6353 561.846,-85.6911"/>
<polygon fill="midnightblue" stroke="midnightblue" points="565.166,-84.5527 559.269,-75.7511 558.391,-86.3094 565.166,-84.5527"/>
</g>
<!-- Node23&#45;&gt;Node24 -->
<g id="edge26" class="edge"><title>Node23&#45;&gt;Node24</title>
<path fill="none" stroke="midnightblue" d="M585.139,-112.324C598.866,-103.9 619.936,-90.9709 636.064,-81.0741"/>
<polygon fill="midnightblue" stroke="midnightblue" points="638.204,-83.8678 644.896,-75.6545 634.543,-77.9016 638.204,-83.8678"/>
</g>
</g>
</svg>
