<?xml version="1.0" encoding="UTF-8" standalone="no"?>
<!DOCTYPE svg PUBLIC "-//W3C//DTD SVG 1.1//EN"
 "http://www.w3.org/Graphics/SVG/1.1/DTD/svg11.dtd">
<!-- Generated by graphviz version 2.38.0 (20140413.2041)
 -->
<!-- Title: C:/projects/ndt/sources/src/file.cpp Pages: 1 -->
<svg width="891pt" height="319pt"
 viewBox="0.00 0.00 891.00 319.00" xmlns="http://www.w3.org/2000/svg" xmlns:xlink="http://www.w3.org/1999/xlink">
<g id="graph0" class="graph" transform="scale(1 1) rotate(0) translate(4 315)">
<title>C:/projects/ndt/sources/src/file.cpp</title>
<polygon fill="white" stroke="none" points="-4,4 -4,-315 887,-315 887,4 -4,4"/>
<!-- Node1 -->
<g id="node1" class="node"><title>Node1</title>
<g id="a_node1"><a xlink:title=" ">
<polygon fill="#bfbfbf" stroke="black" points="151,-280.5 151,-310.5 269,-310.5 269,-280.5 151,-280.5"/>
<text text-anchor="start" x="159" y="-298.5" font-family="Helvetica,sans-Serif" font-size="10.00">C:/projects/ndt/sources</text>
<text text-anchor="middle" x="210" y="-287.5" font-family="Helvetica,sans-Serif" font-size="10.00">/src/file.cpp</text>
</a>
</g>
</g>
<!-- Node2 -->
<g id="node2" class="node"><title>Node2</title>
<g id="a_node2"><a xlink:href="file_8h.html" target="_top" xlink:title=" ">
<polygon fill="white" stroke="black" points="183.5,-224.5 183.5,-243.5 236.5,-243.5 236.5,-224.5 183.5,-224.5"/>
<text text-anchor="middle" x="210" y="-231.5" font-family="Helvetica,sans-Serif" font-size="10.00">ndt/file.h</text>
</a>
</g>
</g>
<!-- Node1&#45;&gt;Node2 -->
<g id="edge1" class="edge"><title>Node1&#45;&gt;Node2</title>
<path fill="none" stroke="midnightblue" d="M210,-280.399C210,-272.466 210,-262.458 210,-253.858"/>
<polygon fill="midnightblue" stroke="midnightblue" points="213.5,-253.658 210,-243.658 206.5,-253.658 213.5,-253.658"/>
</g>
<!-- Node3 -->
<g id="node3" class="node"><title>Node3</title>
<g id="a_node3"><a xlink:title=" ">
<polygon fill="white" stroke="#bfbfbf" points="0,-168.5 0,-187.5 60,-187.5 60,-168.5 0,-168.5"/>
<text text-anchor="middle" x="30" y="-175.5" font-family="Helvetica,sans-Serif" font-size="10.00">sys/stat.h</text>
</a>
</g>
</g>
<!-- Node2&#45;&gt;Node3 -->
<g id="edge2" class="edge"><title>Node2&#45;&gt;Node3</title>
<path fill="none" stroke="midnightblue" d="M183.44,-225.032C153,-215.9 102.859,-200.858 68.2232,-190.467"/>
<polygon fill="midnightblue" stroke="midnightblue" points="69.0372,-187.057 58.4532,-187.536 67.0258,-193.762 69.0372,-187.057"/>
</g>
<!-- Node4 -->
<g id="node4" class="node"><title>Node4</title>
<g id="a_node4"><a xlink:title=" ">
<polygon fill="white" stroke="#bfbfbf" points="78.5,-168.5 78.5,-187.5 119.5,-187.5 119.5,-168.5 78.5,-168.5"/>
<text text-anchor="middle" x="99" y="-175.5" font-family="Helvetica,sans-Serif" font-size="10.00">string</text>
</a>
</g>
</g>
<!-- Node2&#45;&gt;Node4 -->
<g id="edge3" class="edge"><title>Node2&#45;&gt;Node4</title>
<path fill="none" stroke="midnightblue" d="M192.166,-224.324C174.284,-215.625 146.525,-202.12 125.954,-192.113"/>
<polygon fill="midnightblue" stroke="midnightblue" points="127.313,-188.882 116.79,-187.655 124.251,-195.177 127.313,-188.882"/>
</g>
<!-- Node5 -->
<g id="node5" class="node"><title>Node5</title>
<g id="a_node5"><a xlink:title=" ">
<polygon fill="white" stroke="#bfbfbf" points="59,-112.5 59,-131.5 133,-131.5 133,-112.5 59,-112.5"/>
<text text-anchor="middle" x="96" y="-119.5" font-family="Helvetica,sans-Serif" font-size="10.00">system_error</text>
</a>
</g>
</g>
<!-- Node2&#45;&gt;Node5 -->
<g id="edge4" class="edge"><title>Node2&#45;&gt;Node5</title>
<path fill="none" stroke="midnightblue" d="M201.055,-224.368C181.908,-205.894 136.721,-162.293 112.316,-138.744"/>
<polygon fill="midnightblue" stroke="midnightblue" points="114.53,-136.016 104.904,-131.591 109.67,-141.054 114.53,-136.016"/>
</g>
<!-- Node6 -->
<g id="node6" class="node"><title>Node6</title>
<g id="a_node6"><a xlink:title=" ">
<polygon fill="white" stroke="#bfbfbf" points="151,-112.5 151,-131.5 213,-131.5 213,-112.5 151,-112.5"/>
<text text-anchor="middle" x="182" y="-119.5" font-family="Helvetica,sans-Serif" font-size="10.00">type_traits</text>
</a>
</g>
</g>
<!-- Node2&#45;&gt;Node6 -->
<g id="edge5" class="edge"><title>Node2&#45;&gt;Node6</title>
<path fill="none" stroke="midnightblue" d="M207.803,-224.368C203.284,-206.617 192.861,-165.666 186.734,-141.597"/>
<polygon fill="midnightblue" stroke="midnightblue" points="190.046,-140.419 184.187,-131.591 183.262,-142.146 190.046,-140.419"/>
</g>
<!-- Node7 -->
<g id="node7" class="node"><title>Node7</title>
<g id="a_node7"><a xlink:title=" ">
<polygon fill="white" stroke="#bfbfbf" points="214,-168.5 214,-187.5 254,-187.5 254,-168.5 214,-168.5"/>
<text text-anchor="middle" x="234" y="-175.5" font-family="Helvetica,sans-Serif" font-size="10.00">utility</text>
</a>
</g>
</g>
<!-- Node2&#45;&gt;Node7 -->
<g id="edge6" class="edge"><title>Node2&#45;&gt;Node7</title>
<path fill="none" stroke="midnightblue" d="M213.963,-224.083C217.213,-216.77 221.919,-206.181 225.954,-197.103"/>
<polygon fill="midnightblue" stroke="midnightblue" points="229.248,-198.311 230.111,-187.751 222.851,-195.468 229.248,-198.311"/>
</g>
<!-- Node8 -->
<g id="node8" class="node"><title>Node8</title>
<g id="a_node8"><a xlink:href="buffer_8h.html" target="_top" xlink:title=" ">
<polygon fill="white" stroke="black" points="272.5,-168.5 272.5,-187.5 337.5,-187.5 337.5,-168.5 272.5,-168.5"/>
<text text-anchor="middle" x="305" y="-175.5" font-family="Helvetica,sans-Serif" font-size="10.00">ndt/buffer.h</text>
</a>
</g>
</g>
<!-- Node2&#45;&gt;Node8 -->
<g id="edge7" class="edge"><title>Node2&#45;&gt;Node8</title>
<path fill="none" stroke="midnightblue" d="M225.263,-224.324C240.221,-215.822 263.255,-202.729 280.727,-192.797"/>
<polygon fill="midnightblue" stroke="midnightblue" points="282.81,-195.639 289.774,-187.655 279.351,-189.553 282.81,-195.639"/>
</g>
<!-- Node21 -->
<g id="node21" class="node"><title>Node21</title>
<g id="a_node21"><a xlink:href="sys__file__ops_8h.html" target="_top" xlink:title=" ">
<polygon fill="white" stroke="black" points="480.5,-168.5 480.5,-187.5 575.5,-187.5 575.5,-168.5 480.5,-168.5"/>
<text text-anchor="middle" x="528" y="-175.5" font-family="Helvetica,sans-Serif" font-size="10.00">ndt/sys_file_ops.h</text>
</a>
</g>
</g>
<!-- Node2&#45;&gt;Node21 -->
<g id="edge23" class="edge"><title>Node2&#45;&gt;Node21</title>
<path fill="none" stroke="midnightblue" d="M236.566,-228.489C287.785,-219.791 401.243,-200.525 470.516,-188.761"/>
<polygon fill="midnightblue" stroke="midnightblue" points="471.13,-192.207 480.403,-187.083 469.958,-185.306 471.13,-192.207"/>
</g>
<!-- Node24 -->
<g id="node24" class="node"><title>Node24</title>
<g id="a_node24"><a xlink:href="useful__base__types_8h.html" target="_top" xlink:title=" ">
<polygon fill="white" stroke="black" points="568,-56.5 568,-75.5 674,-75.5 674,-56.5 568,-56.5"/>
<text text-anchor="middle" x="621" y="-63.5" font-family="Helvetica,sans-Serif" font-size="10.00">useful_base_types.h</text>
</a>
</g>
</g>
<!-- Node2&#45;&gt;Node24 -->
<g id="edge29" class="edge"><title>Node2&#45;&gt;Node24</title>
<path fill="none" stroke="midnightblue" d="M236.59,-232.698C312.199,-231.396 526.716,-224.496 585,-188 610.077,-172.297 612.662,-160.389 621,-132 625.427,-116.926 625.039,-99.0241 623.764,-85.8278"/>
<polygon fill="midnightblue" stroke="midnightblue" points="627.205,-85.1313 622.513,-75.6318 620.257,-85.9835 627.205,-85.1313"/>
</g>
<!-- Node8&#45;&gt;Node5 -->
<g id="edge11" class="edge"><title>Node8&#45;&gt;Node5</title>
<path fill="none" stroke="midnightblue" d="M272.344,-168.563C236.435,-159.285 178.59,-144.339 139.011,-134.113"/>
<polygon fill="midnightblue" stroke="midnightblue" points="139.674,-130.669 129.117,-131.556 137.923,-137.447 139.674,-130.669"/>
</g>
<!-- Node8&#45;&gt;Node6 -->
<g id="edge12" class="edge"><title>Node8&#45;&gt;Node6</title>
<path fill="none" stroke="midnightblue" d="M285.51,-168.444C265.358,-159.596 233.677,-145.687 210.669,-135.586"/>
<polygon fill="midnightblue" stroke="midnightblue" points="211.962,-132.332 201.399,-131.516 209.148,-138.741 211.962,-132.332"/>
</g>
<!-- Node9 -->
<g id="node9" class="node"><title>Node9</title>
<g id="a_node9"><a xlink:title=" ">
<polygon fill="white" stroke="#bfbfbf" points="231.5,-112.5 231.5,-131.5 280.5,-131.5 280.5,-112.5 231.5,-112.5"/>
<text text-anchor="middle" x="256" y="-119.5" font-family="Helvetica,sans-Serif" font-size="10.00">cassert</text>
</a>
</g>
</g>
<!-- Node8&#45;&gt;Node9 -->
<g id="edge8" class="edge"><title>Node8&#45;&gt;Node9</title>
<path fill="none" stroke="midnightblue" d="M296.909,-168.083C289.845,-160.298 279.412,-148.801 270.851,-139.367"/>
<polygon fill="midnightblue" stroke="midnightblue" points="273.253,-136.805 263.941,-131.751 268.069,-141.509 273.253,-136.805"/>
</g>
<!-- Node10 -->
<g id="node10" class="node"><title>Node10</title>
<g id="a_node10"><a xlink:title=" ">
<polygon fill="white" stroke="#bfbfbf" points="231,-0.5 231,-19.5 279,-19.5 279,-0.5 231,-0.5"/>
<text text-anchor="middle" x="255" y="-7.5" font-family="Helvetica,sans-Serif" font-size="10.00">cstddef</text>
</a>
</g>
</g>
<!-- Node8&#45;&gt;Node10 -->
<g id="edge9" class="edge"><title>Node8&#45;&gt;Node10</title>
<path fill="none" stroke="midnightblue" d="M303.259,-168.092C300.726,-155.497 295.701,-131.811 290,-112 281.517,-82.5216 269.397,-49.0036 261.874,-28.952"/>
<polygon fill="midnightblue" stroke="midnightblue" points="265.126,-27.6584 258.31,-19.5473 258.58,-30.1386 265.126,-27.6584"/>
</g>
<!-- Node11 -->
<g id="node11" class="node"><title>Node11</title>
<g id="a_node11"><a xlink:title=" ">
<polygon fill="white" stroke="#bfbfbf" points="337,-112.5 337,-131.5 383,-131.5 383,-112.5 337,-112.5"/>
<text text-anchor="middle" x="360" y="-119.5" font-family="Helvetica,sans-Serif" font-size="10.00">cstdint</text>
</a>
</g>
</g>
<!-- Node8&#45;&gt;Node11 -->
<g id="edge10" class="edge"><title>Node8&#45;&gt;Node11</title>
<path fill="none" stroke="midnightblue" d="M314.082,-168.083C322.171,-160.141 334.195,-148.335 343.91,-138.797"/>
<polygon fill="midnightblue" stroke="midnightblue" points="346.403,-141.254 351.087,-131.751 341.499,-136.26 346.403,-141.254"/>
</g>
<!-- Node12 -->
<g id="node12" class="node"><title>Node12</title>
<g id="a_node12"><a xlink:href="common_8h.html" target="_top" xlink:title="Header with typedefs to make type designation platform independent.">
<polygon fill="white" stroke="black" points="454,-56.5 454,-75.5 516,-75.5 516,-56.5 454,-56.5"/>
<text text-anchor="middle" x="485" y="-63.5" font-family="Helvetica,sans-Serif" font-size="10.00">common.h</text>
</a>
</g>
</g>
<!-- Node8&#45;&gt;Node12 -->
<g id="edge13" class="edge"><title>Node8&#45;&gt;Node12</title>
<path fill="none" stroke="midnightblue" d="M323.378,-168.376C341.255,-159.782 369.006,-145.898 392,-132 418.367,-116.063 447.23,-95.3366 465.697,-81.6224"/>
<polygon fill="midnightblue" stroke="midnightblue" points="467.962,-84.299 473.871,-75.5049 463.768,-78.6947 467.962,-84.299"/>
</g>
<!-- Node12&#45;&gt;Node10 -->
<g id="edge22" class="edge"><title>Node12&#45;&gt;Node10</title>
<path fill="none" stroke="midnightblue" d="M453.694,-58.1476C414.94,-49.5877 346.959,-34.3202 289,-20 288.9,-19.9753 288.8,-19.9505 288.699,-19.9257"/>
<polygon fill="midnightblue" stroke="midnightblue" points="289.675,-16.5624 279.121,-17.4903 287.95,-23.3465 289.675,-16.5624"/>
</g>
<!-- Node13 -->
<g id="node13" class="node"><title>Node13</title>
<g id="a_node13"><a xlink:title=" ">
<polygon fill="white" stroke="#bfbfbf" points="821,-0.5 821,-19.5 883,-19.5 883,-0.5 821,-0.5"/>
<text text-anchor="middle" x="852" y="-7.5" font-family="Helvetica,sans-Serif" font-size="10.00">arpa/inet.h</text>
</a>
</g>
</g>
<!-- Node12&#45;&gt;Node13 -->
<g id="edge14" class="edge"><title>Node12&#45;&gt;Node13</title>
<path fill="none" stroke="midnightblue" d="M516.21,-61.048C583.053,-52.5309 739.138,-32.3464 810.338,-20.1406"/>
<polygon fill="midnightblue" stroke="midnightblue" points="811.369,-23.5126 820.608,-18.3266 810.152,-16.6193 811.369,-23.5126"/>
</g>
<!-- Node14 -->
<g id="node14" class="node"><title>Node14</title>
<g id="a_node14"><a xlink:title=" ">
<polygon fill="white" stroke="#bfbfbf" points="297.5,-0.5 297.5,-19.5 344.5,-19.5 344.5,-0.5 297.5,-0.5"/>
<text text-anchor="middle" x="321" y="-7.5" font-family="Helvetica,sans-Serif" font-size="10.00">errno.h</text>
</a>
</g>
</g>
<!-- Node12&#45;&gt;Node14 -->
<g id="edge15" class="edge"><title>Node12&#45;&gt;Node14</title>
<path fill="none" stroke="midnightblue" d="M459.014,-56.4435C430.775,-47.1454 385.559,-32.2572 354.631,-22.0735"/>
<polygon fill="midnightblue" stroke="midnightblue" points="355.328,-18.6182 344.735,-18.8151 353.138,-25.2671 355.328,-18.6182"/>
</g>
<!-- Node15 -->
<g id="node15" class="node"><title>Node15</title>
<g id="a_node15"><a xlink:title=" ">
<polygon fill="white" stroke="#bfbfbf" points="362.5,-0.5 362.5,-19.5 405.5,-19.5 405.5,-0.5 362.5,-0.5"/>
<text text-anchor="middle" x="384" y="-7.5" font-family="Helvetica,sans-Serif" font-size="10.00">fcntl.h</text>
</a>
</g>
</g>
<!-- Node12&#45;&gt;Node15 -->
<g id="edge16" class="edge"><title>Node12&#45;&gt;Node15</title>
<path fill="none" stroke="midnightblue" d="M468.773,-56.324C452.649,-47.7034 427.7,-34.3643 409.036,-24.3855"/>
<polygon fill="midnightblue" stroke="midnightblue" points="410.656,-21.283 400.187,-19.6545 407.356,-27.456 410.656,-21.283"/>
</g>
<!-- Node16 -->
<g id="node16" class="node"><title>Node16</title>
<g id="a_node16"><a xlink:title=" ">
<polygon fill="white" stroke="#bfbfbf" points="423.5,-0.5 423.5,-19.5 472.5,-19.5 472.5,-0.5 423.5,-0.5"/>
<text text-anchor="middle" x="448" y="-7.5" font-family="Helvetica,sans-Serif" font-size="10.00">netdb.h</text>
</a>
</g>
</g>
<!-- Node12&#45;&gt;Node16 -->
<g id="edge17" class="edge"><title>Node12&#45;&gt;Node16</title>
<path fill="none" stroke="midnightblue" d="M478.89,-56.083C473.718,-48.5341 466.154,-37.4948 459.806,-28.2298"/>
<polygon fill="midnightblue" stroke="midnightblue" points="462.536,-26.0221 453.996,-19.7511 456.761,-29.9787 462.536,-26.0221"/>
</g>
<!-- Node17 -->
<g id="node17" class="node"><title>Node17</title>
<g id="a_node17"><a xlink:title=" ">
<polygon fill="white" stroke="#bfbfbf" points="490.5,-0.5 490.5,-19.5 555.5,-19.5 555.5,-0.5 490.5,-0.5"/>
<text text-anchor="middle" x="523" y="-7.5" font-family="Helvetica,sans-Serif" font-size="10.00">netinet/in.h</text>
</a>
</g>
</g>
<!-- Node12&#45;&gt;Node17 -->
<g id="edge18" class="edge"><title>Node12&#45;&gt;Node17</title>
<path fill="none" stroke="midnightblue" d="M491.275,-56.083C496.642,-48.4554 504.518,-37.2645 511.079,-27.9408"/>
<polygon fill="midnightblue" stroke="midnightblue" points="513.949,-29.9434 516.842,-19.7511 508.225,-25.9149 513.949,-29.9434"/>
</g>
<!-- Node18 -->
<g id="node18" class="node"><title>Node18</title>
<g id="a_node18"><a xlink:title=" ">
<polygon fill="white" stroke="#bfbfbf" points="573.5,-0.5 573.5,-19.5 646.5,-19.5 646.5,-0.5 573.5,-0.5"/>
<text text-anchor="middle" x="610" y="-7.5" font-family="Helvetica,sans-Serif" font-size="10.00">sys/socket.h</text>
</a>
</g>
</g>
<!-- Node12&#45;&gt;Node18 -->
<g id="edge19" class="edge"><title>Node12&#45;&gt;Node18</title>
<path fill="none" stroke="midnightblue" d="M504.807,-56.4435C525.287,-47.5961 557.483,-33.6875 580.865,-23.5865"/>
<polygon fill="midnightblue" stroke="midnightblue" points="582.494,-26.6953 590.286,-19.5164 579.718,-20.2692 582.494,-26.6953"/>
</g>
<!-- Node19 -->
<g id="node19" class="node"><title>Node19</title>
<g id="a_node19"><a xlink:title=" ">
<polygon fill="white" stroke="#bfbfbf" points="665,-0.5 665,-19.5 733,-19.5 733,-0.5 665,-0.5"/>
<text text-anchor="middle" x="699" y="-7.5" font-family="Helvetica,sans-Serif" font-size="10.00">sys/types.h</text>
</a>
</g>
</g>
<!-- Node12&#45;&gt;Node19 -->
<g id="edge20" class="edge"><title>Node12&#45;&gt;Node19</title>
<path fill="none" stroke="midnightblue" d="M516.117,-57.1479C552.743,-47.9059 613.808,-32.4972 655.202,-22.0518"/>
<polygon fill="midnightblue" stroke="midnightblue" points="656.176,-25.4159 665.015,-19.5756 654.463,-18.6287 656.176,-25.4159"/>
</g>
<!-- Node20 -->
<g id="node20" class="node"><title>Node20</title>
<g id="a_node20"><a xlink:title=" ">
<polygon fill="white" stroke="#bfbfbf" points="751.5,-0.5 751.5,-19.5 802.5,-19.5 802.5,-0.5 751.5,-0.5"/>
<text text-anchor="middle" x="777" y="-7.5" font-family="Helvetica,sans-Serif" font-size="10.00">unistd.h</text>
</a>
</g>
</g>
<!-- Node12&#45;&gt;Node20 -->
<g id="edge21" class="edge"><title>Node12&#45;&gt;Node20</title>
<path fill="none" stroke="midnightblue" d="M516.009,-60.3745C562.71,-53.234 654.06,-38.5921 741.613,-19.9339"/>
<polygon fill="midnightblue" stroke="midnightblue" points="742.401,-23.3445 751.441,-17.8188 740.928,-16.5012 742.401,-23.3445"/>
</g>
<!-- Node22 -->
<g id="node22" class="node"><title>Node22</title>
<g id="a_node22"><a xlink:title=" ">
<polygon fill="white" stroke="#bfbfbf" points="549.5,-112.5 549.5,-131.5 592.5,-131.5 592.5,-112.5 549.5,-112.5"/>
<text text-anchor="middle" x="571" y="-119.5" font-family="Helvetica,sans-Serif" font-size="10.00">cstdio</text>
</a>
</g>
</g>
<!-- Node21&#45;&gt;Node22 -->
<g id="edge24" class="edge"><title>Node21&#45;&gt;Node22</title>
<path fill="none" stroke="midnightblue" d="M535.101,-168.083C541.237,-160.377 550.27,-149.033 557.739,-139.653"/>
<polygon fill="midnightblue" stroke="midnightblue" points="560.54,-141.754 564.032,-131.751 555.064,-137.394 560.54,-141.754"/>
</g>
<!-- Node23 -->
<g id="node23" class="node"><title>Node23</title>
<g id="a_node23"><a xlink:href="sys__error__code_8h.html" target="_top" xlink:title=" ">
<polygon fill="white" stroke="black" points="439,-112.5 439,-131.5 531,-131.5 531,-112.5 439,-112.5"/>
<text text-anchor="middle" x="485" y="-119.5" font-family="Helvetica,sans-Serif" font-size="10.00">sys_error_code.h</text>
</a>
</g>
</g>
<!-- Node21&#45;&gt;Node23 -->
<g id="edge25" class="edge"><title>Node21&#45;&gt;Node23</title>
<path fill="none" stroke="midnightblue" d="M520.899,-168.083C514.763,-160.377 505.73,-149.033 498.261,-139.653"/>
<polygon fill="midnightblue" stroke="midnightblue" points="500.936,-137.394 491.968,-131.751 495.46,-141.754 500.936,-137.394"/>
</g>
<!-- Node21&#45;&gt;Node24 -->
<g id="edge28" class="edge"><title>Node21&#45;&gt;Node24</title>
<path fill="none" stroke="midnightblue" d="M550.876,-168.409C567.356,-161.102 588.912,-149.06 602,-132 612.277,-118.604 617.003,-99.7827 619.172,-85.8385"/>
<polygon fill="midnightblue" stroke="midnightblue" points="622.647,-86.2562 620.42,-75.8981 615.701,-85.3841 622.647,-86.2562"/>
</g>
<!-- Node23&#45;&gt;Node12 -->
<g id="edge26" class="edge"><title>Node23&#45;&gt;Node12</title>
<path fill="none" stroke="midnightblue" d="M485,-112.083C485,-105.006 485,-94.8611 485,-85.9865"/>
<polygon fill="midnightblue" stroke="midnightblue" points="488.5,-85.751 485,-75.7511 481.5,-85.7511 488.5,-85.751"/>
</g>
<!-- Node23&#45;&gt;Node24 -->
<g id="edge27" class="edge"><title>Node23&#45;&gt;Node24</title>
<path fill="none" stroke="midnightblue" d="M506.55,-112.444C529.031,-103.517 564.488,-89.4387 589.98,-79.3168"/>
<polygon fill="midnightblue" stroke="midnightblue" points="591.549,-82.4598 599.551,-75.5164 588.965,-75.9539 591.549,-82.4598"/>
</g>
</g>
</svg>
