<?xml version="1.0" encoding="UTF-8" standalone="no"?>
<!DOCTYPE svg PUBLIC "-//W3C//DTD SVG 1.1//EN"
 "http://www.w3.org/Graphics/SVG/1.1/DTD/svg11.dtd">
<!-- Generated by graphviz version 2.38.0 (20140413.2041)
 -->
<!-- Title: Graphical Class Hierarchy Pages: 1 -->
<svg width="270pt" height="66pt"
 viewBox="0.00 0.00 270.00 66.00" xmlns="http://www.w3.org/2000/svg" xmlns:xlink="http://www.w3.org/1999/xlink">
<g id="graph0" class="graph" transform="scale(1 1) rotate(0) translate(4 62)">
<title>Graphical Class Hierarchy</title>
<polygon fill="white" stroke="none" points="-4,4 -4,-62 266,-62 266,4 -4,4"/>
<!-- Node0 -->
<g id="node1" class="node"><title>Node0</title>
<g id="a_node1"><a xlink:href="classndt_1_1_type_id.html" target="_top" xlink:title=" ">
<polygon fill="white" stroke="black" points="0,-38.5 0,-57.5 113,-57.5 113,-38.5 0,-38.5"/>
<text text-anchor="middle" x="56.5" y="-45.5" font-family="Helvetica,sans-Serif" font-size="10.00">ndt::TypeId&lt; EnumT &gt;</text>
</a>
</g>
</g>
<!-- Node1 -->
<g id="node2" class="node"><title>Node1</title>
<g id="a_node2"><a xlink:href="classndt_1_1_packet.html" target="_top" xlink:title=" ">
<polygon fill="white" stroke="black" points="149,-14 149,-44 262,-44 262,-14 149,-14"/>
<text text-anchor="start" x="157" y="-32" font-family="Helvetica,sans-Serif" font-size="10.00">ndt::Packet&lt; EnumT,</text>
<text text-anchor="middle" x="205.5" y="-21" font-family="Helvetica,sans-Serif" font-size="10.00"> packetType, Mixins &gt;</text>
</a>
</g>
</g>
<!-- Node0&#45;&gt;Node1 -->
<g id="edge1" class="edge"><title>Node0&#45;&gt;Node1</title>
<path fill="none" stroke="midnightblue" d="M123.078,-39.524C131.681,-38.412 140.43,-37.2812 148.847,-36.1932"/>
<polygon fill="midnightblue" stroke="midnightblue" points="122.543,-36.0638 113.074,-40.8169 123.441,-43.0061 122.543,-36.0638"/>
</g>
<!-- Node64 -->
<g id="node3" class="node"><title>Node64</title>
<g id="a_node3"><a xlink:title=" ">
<polygon fill="white" stroke="#bfbfbf" points="24,-0.5 24,-19.5 89,-19.5 89,-0.5 24,-0.5"/>
<text text-anchor="middle" x="56.5" y="-7.5" font-family="Helvetica,sans-Serif" font-size="10.00">ndt::Mixins</text>
</a>
</g>
</g>
<!-- Node64&#45;&gt;Node1 -->
<g id="edge2" class="edge"><title>Node64&#45;&gt;Node1</title>
<path fill="none" stroke="midnightblue" d="M99.3152,-15.4047C114.761,-17.4011 132.515,-19.6958 148.985,-21.8246"/>
<polygon fill="midnightblue" stroke="midnightblue" points="99.4014,-11.8868 89.0352,-14.076 98.504,-18.829 99.4014,-11.8868"/>
</g>
</g>
</svg>
