<?xml version="1.0" encoding="UTF-8" standalone="no"?>
<!DOCTYPE svg PUBLIC "-//W3C//DTD SVG 1.1//EN"
 "http://www.w3.org/Graphics/SVG/1.1/DTD/svg11.dtd">
<!-- Generated by graphviz version 2.38.0 (20140413.2041)
 -->
<!-- Title: Graphical Class Hierarchy Pages: 1 -->
<svg width="269pt" height="137pt"
 viewBox="0.00 0.00 269.00 137.00" xmlns="http://www.w3.org/2000/svg" xmlns:xlink="http://www.w3.org/1999/xlink">
<g id="graph0" class="graph" transform="scale(1 1) rotate(0) translate(4 133)">
<title>Graphical Class Hierarchy</title>
<polygon fill="white" stroke="none" points="-4,4 -4,-133 265,-133 265,4 -4,4"/>
<!-- Node53 -->
<g id="node1" class="node"><title>Node53</title>
<g id="a_node1"><a xlink:title=" ">
<polygon fill="white" stroke="#bfbfbf" points="0,-55 0,-74 57,-74 57,-55 0,-55"/>
<text text-anchor="middle" x="28.5" y="-62" font-family="Helvetica,sans-Serif" font-size="10.00">true_type</text>
</a>
</g>
</g>
<!-- Node0 -->
<g id="node2" class="node"><title>Node0</title>
<g id="a_node2"><a xlink:href="structstd_1_1is__error__code__enum_3_01ndt_1_1e_address_error_code_01_4.html" target="_top" xlink:title=" ">
<polygon fill="white" stroke="black" points="93,-98.5 93,-128.5 261,-128.5 261,-98.5 93,-98.5"/>
<text text-anchor="start" x="101" y="-116.5" font-family="Helvetica,sans-Serif" font-size="10.00">std::is_error_code</text>
<text text-anchor="middle" x="177" y="-105.5" font-family="Helvetica,sans-Serif" font-size="10.00">_enum&lt; ndt::eAddressErrorCode &gt;</text>
</a>
</g>
</g>
<!-- Node53&#45;&gt;Node0 -->
<g id="edge1" class="edge"><title>Node53&#45;&gt;Node0</title>
<path fill="none" stroke="midnightblue" d="M61.7508,-77.8722C71.6996,-81.8144 82.738,-86.0048 93,-89.5 102.087,-92.5951 111.819,-95.6427 121.304,-98.473"/>
<polygon fill="midnightblue" stroke="midnightblue" points="62.8181,-74.5291 52.2342,-74.0477 60.2078,-81.0243 62.8181,-74.5291"/>
</g>
<!-- Node55 -->
<g id="node3" class="node"><title>Node55</title>
<g id="a_node3"><a xlink:href="structstd_1_1is__error__code__enum_3_01ndt_1_1e_context_error_code_01_4.html" target="_top" xlink:title=" ">
<polygon fill="white" stroke="black" points="94,-49.5 94,-79.5 260,-79.5 260,-49.5 94,-49.5"/>
<text text-anchor="start" x="102" y="-67.5" font-family="Helvetica,sans-Serif" font-size="10.00">std::is_error_code</text>
<text text-anchor="middle" x="177" y="-56.5" font-family="Helvetica,sans-Serif" font-size="10.00">_enum&lt; ndt::eContextErrorCode &gt;</text>
</a>
</g>
</g>
<!-- Node53&#45;&gt;Node55 -->
<g id="edge2" class="edge"><title>Node53&#45;&gt;Node55</title>
<path fill="none" stroke="midnightblue" d="M67.1039,-64.5C75.4152,-64.5 84.5361,-64.5 93.852,-64.5"/>
<polygon fill="midnightblue" stroke="midnightblue" points="67.0556,-61.0001 57.0555,-64.5 67.0555,-68.0001 67.0556,-61.0001"/>
</g>
<!-- Node56 -->
<g id="node4" class="node"><title>Node56</title>
<g id="a_node4"><a xlink:href="structstd_1_1is__error__code__enum_3_01ndt_1_1e_file_error_code_01_4.html" target="_top" xlink:title=" ">
<polygon fill="white" stroke="black" points="103,-0.5 103,-30.5 251,-30.5 251,-0.5 103,-0.5"/>
<text text-anchor="start" x="111" y="-18.5" font-family="Helvetica,sans-Serif" font-size="10.00">std::is_error_code</text>
<text text-anchor="middle" x="177" y="-7.5" font-family="Helvetica,sans-Serif" font-size="10.00">_enum&lt; ndt::eFileErrorCode &gt;</text>
</a>
</g>
</g>
<!-- Node53&#45;&gt;Node56 -->
<g id="edge3" class="edge"><title>Node53&#45;&gt;Node56</title>
<path fill="none" stroke="midnightblue" d="M63.0975,-51.309C72.7069,-47.6705 83.2253,-43.8149 93,-40.5 102.976,-37.1167 113.703,-33.7145 124.023,-30.5566"/>
<polygon fill="midnightblue" stroke="midnightblue" points="61.5695,-48.1462 53.4819,-54.9902 64.0723,-54.6835 61.5695,-48.1462"/>
</g>
</g>
</svg>
