<?xml version="1.0" encoding="UTF-8" standalone="no"?>
<!DOCTYPE svg PUBLIC "-//W3C//DTD SVG 1.1//EN"
 "http://www.w3.org/Graphics/SVG/1.1/DTD/svg11.dtd">
<!-- Generated by graphviz version 2.38.0 (20140413.2041)
 -->
<!-- Title: Graphical Class Hierarchy Pages: 1 -->
<svg width="532pt" height="459pt"
 viewBox="0.00 0.00 532.00 458.50" xmlns="http://www.w3.org/2000/svg" xmlns:xlink="http://www.w3.org/1999/xlink">
<g id="graph0" class="graph" transform="scale(1 1) rotate(0) translate(4 454.5)">
<title>Graphical Class Hierarchy</title>
<polygon fill="white" stroke="none" points="-4,4 -4,-454.5 528,-454.5 528,4 -4,4"/>
<!-- Node0 -->
<g id="node1" class="node"><title>Node0</title>
<g id="a_node1"><a xlink:href="structndt_1_1_no_copy_able.html" target="_top" xlink:title=" ">
<polygon fill="white" stroke="black" points="22.5,-343 22.5,-362 112.5,-362 112.5,-343 22.5,-343"/>
<text text-anchor="middle" x="67.5" y="-350" font-family="Helvetica,sans-Serif" font-size="10.00">ndt::NoCopyAble</text>
</a>
</g>
</g>
<!-- Node1 -->
<g id="node2" class="node"><title>Node1</title>
<g id="a_node2"><a xlink:href="classndt_1_1_context_base.html" target="_top" xlink:title=" ">
<polygon fill="white" stroke="black" points="171,-431 171,-450 341,-450 341,-431 171,-431"/>
<text text-anchor="middle" x="256" y="-438" font-family="Helvetica,sans-Serif" font-size="10.00">ndt::ContextBase&lt; SysWrapperT &gt;</text>
</a>
</g>
</g>
<!-- Node0&#45;&gt;Node1 -->
<g id="edge1" class="edge"><title>Node0&#45;&gt;Node1</title>
<path fill="none" stroke="#8b1a1a" d="M87.9291,-368.444C107.694,-383.899 139.776,-406.938 171,-420.5 180.763,-424.74 191.571,-428.167 202.095,-430.905"/>
<polygon fill="#8b1a1a" stroke="#8b1a1a" points="90.01,-365.627 80.0066,-362.137 85.6499,-371.104 90.01,-365.627"/>
</g>
<!-- Node3 -->
<g id="node4" class="node"><title>Node3</title>
<g id="a_node4"><a xlink:href="classndt_1_1_file.html" target="_top" xlink:title=" ">
<polygon fill="white" stroke="black" points="191.5,-381.5 191.5,-411.5 320.5,-411.5 320.5,-381.5 191.5,-381.5"/>
<text text-anchor="start" x="199.5" y="-399.5" font-family="Helvetica,sans-Serif" font-size="10.00">ndt::File&lt; DestructorError</text>
<text text-anchor="middle" x="256" y="-388.5" font-family="Helvetica,sans-Serif" font-size="10.00">HandlerT, SysWrapperT &gt;</text>
</a>
</g>
</g>
<!-- Node0&#45;&gt;Node3 -->
<g id="edge3" class="edge"><title>Node0&#45;&gt;Node3</title>
<path fill="none" stroke="midnightblue" d="M118.872,-364.384C141.121,-369.633 167.532,-375.864 191.143,-381.435"/>
<polygon fill="midnightblue" stroke="midnightblue" points="119.504,-360.937 108.968,-362.047 117.897,-367.75 119.504,-360.937"/>
</g>
<!-- Node4 -->
<g id="node5" class="node"><title>Node4</title>
<g id="a_node5"><a xlink:href="structndt_1_1_no_constructible_no_destructible.html" target="_top" xlink:title=" ">
<polygon fill="white" stroke="black" points="171.5,-229 171.5,-248 340.5,-248 340.5,-229 171.5,-229"/>
<text text-anchor="middle" x="256" y="-236" font-family="Helvetica,sans-Serif" font-size="10.00">ndt::NoConstructibleNoDestructible</text>
</a>
</g>
</g>
<!-- Node0&#45;&gt;Node4 -->
<g id="edge4" class="edge"><title>Node0&#45;&gt;Node4</title>
<path fill="none" stroke="midnightblue" d="M82.3563,-334.911C100.397,-313.263 134.022,-276.984 171,-257.5 178.408,-253.597 186.594,-250.492 194.864,-248.023"/>
<polygon fill="midnightblue" stroke="midnightblue" points="79.4166,-332.979 75.8189,-342.944 84.8458,-337.397 79.4166,-332.979"/>
</g>
<!-- Node7 -->
<g id="node8" class="node"><title>Node7</title>
<g id="a_node8"><a xlink:href="structndt_1_1_no_copy_move_def_constructible.html" target="_top" xlink:title=" ">
<polygon fill="white" stroke="black" points="174,-153 174,-172 338,-172 338,-153 174,-153"/>
<text text-anchor="middle" x="256" y="-160" font-family="Helvetica,sans-Serif" font-size="10.00">ndt::NoCopyMoveDefConstructible</text>
</a>
</g>
</g>
<!-- Node0&#45;&gt;Node7 -->
<g id="edge7" class="edge"><title>Node0&#45;&gt;Node7</title>
<path fill="none" stroke="midnightblue" d="M82.2987,-334.734C96.4535,-316.085 118.654,-285.62 135,-257.5 153.783,-225.187 141.831,-204.869 171,-181.5 175.784,-177.667 181.191,-174.575 186.897,-172.084"/>
<polygon fill="midnightblue" stroke="midnightblue" points="79.3621,-332.812 76.0572,-342.879 84.9182,-337.07 79.3621,-332.812"/>
</g>
<!-- Node13 -->
<g id="node14" class="node"><title>Node13</title>
<g id="a_node14"><a xlink:href="classndt_1_1_socket_base.html" target="_top" xlink:title=" ">
<polygon fill="white" stroke="black" points="172.5,-343 172.5,-362 339.5,-362 339.5,-343 172.5,-343"/>
<text text-anchor="middle" x="256" y="-350" font-family="Helvetica,sans-Serif" font-size="10.00">ndt::SocketBase&lt; SysWrapperT &gt;</text>
</a>
</g>
</g>
<!-- Node0&#45;&gt;Node13 -->
<g id="edge13" class="edge"><title>Node0&#45;&gt;Node13</title>
<path fill="none" stroke="#8b1a1a" d="M123.084,-352.5C138.521,-352.5 155.676,-352.5 172.371,-352.5"/>
<polygon fill="#8b1a1a" stroke="#8b1a1a" points="122.698,-349 112.698,-352.5 122.698,-356 122.698,-349"/>
</g>
<!-- Node2 -->
<g id="node3" class="node"><title>Node2</title>
<g id="a_node3"><a xlink:href="classndt_1_1_context.html" target="_top" xlink:title=" ">
<polygon fill="white" stroke="black" points="377,-431 377,-450 524,-450 524,-431 377,-431"/>
<text text-anchor="middle" x="450.5" y="-438" font-family="Helvetica,sans-Serif" font-size="10.00">ndt::Context&lt; SysWrapperT &gt;</text>
</a>
</g>
</g>
<!-- Node1&#45;&gt;Node2 -->
<g id="edge2" class="edge"><title>Node1&#45;&gt;Node2</title>
<path fill="none" stroke="midnightblue" d="M351.269,-440.5C359.909,-440.5 368.57,-440.5 376.974,-440.5"/>
<polygon fill="midnightblue" stroke="midnightblue" points="351.153,-437 341.153,-440.5 351.153,-444 351.153,-437"/>
</g>
<!-- Node5 -->
<g id="node6" class="node"><title>Node5</title>
<g id="a_node6"><a xlink:href="classndt_1_1_file_ops.html" target="_top" xlink:title=" ">
<polygon fill="white" stroke="black" points="415.5,-284 415.5,-303 485.5,-303 485.5,-284 415.5,-284"/>
<text text-anchor="middle" x="450.5" y="-291" font-family="Helvetica,sans-Serif" font-size="10.00">ndt::FileOps</text>
</a>
</g>
</g>
<!-- Node4&#45;&gt;Node5 -->
<g id="edge5" class="edge"><title>Node4&#45;&gt;Node5</title>
<path fill="none" stroke="midnightblue" d="M317.412,-250.487C325.421,-252.563 333.463,-254.903 341,-257.5 357.729,-263.264 360.371,-268.454 377,-274.5 389.229,-278.946 402.966,-282.818 415.168,-285.886"/>
<polygon fill="midnightblue" stroke="midnightblue" points="318.243,-247.087 307.695,-248.085 316.563,-253.883 318.243,-247.087"/>
</g>
<!-- Node6 -->
<g id="node7" class="node"><title>Node6</title>
<g id="a_node7"><a xlink:href="classndt_1_1_socket_ops.html" target="_top" xlink:title=" ">
<polygon fill="white" stroke="black" points="408,-246 408,-265 493,-265 493,-246 408,-246"/>
<text text-anchor="middle" x="450.5" y="-253" font-family="Helvetica,sans-Serif" font-size="10.00">ndt::SocketOps</text>
</a>
</g>
</g>
<!-- Node4&#45;&gt;Node6 -->
<g id="edge6" class="edge"><title>Node4&#45;&gt;Node6</title>
<path fill="none" stroke="midnightblue" d="M350.714,-246.776C370.74,-248.545 390.913,-250.326 407.76,-251.814"/>
<polygon fill="midnightblue" stroke="midnightblue" points="350.863,-243.276 340.593,-245.882 350.247,-250.248 350.863,-243.276"/>
</g>
<!-- Node8 -->
<g id="node9" class="node"><title>Node8</title>
<g id="a_node9"><a xlink:href="classndt_1_1details_1_1_byte_order.html" target="_top" xlink:title=" ">
<polygon fill="white" stroke="black" points="393,-147.5 393,-177.5 508,-177.5 508,-147.5 393,-147.5"/>
<text text-anchor="start" x="401" y="-165.5" font-family="Helvetica,sans-Serif" font-size="10.00">ndt::details::ByteOrder</text>
<text text-anchor="middle" x="450.5" y="-154.5" font-family="Helvetica,sans-Serif" font-size="10.00">&lt; T, numBytes &gt;</text>
</a>
</g>
</g>
<!-- Node7&#45;&gt;Node8 -->
<g id="edge8" class="edge"><title>Node7&#45;&gt;Node8</title>
<path fill="none" stroke="#8b1a1a" d="M348.487,-162.5C363.582,-162.5 378.835,-162.5 392.753,-162.5"/>
<polygon fill="#8b1a1a" stroke="#8b1a1a" points="348.079,-159 338.079,-162.5 348.079,-166 348.079,-159"/>
</g>
<!-- Node9 -->
<g id="node10" class="node"><title>Node9</title>
<g id="a_node10"><a xlink:href="classndt_1_1details_1_1_byte_order_3_01uint16__t_00_012_01_4.html" target="_top" xlink:title=" ">
<polygon fill="white" stroke="black" points="393,-98.5 393,-128.5 508,-128.5 508,-98.5 393,-98.5"/>
<text text-anchor="start" x="401" y="-116.5" font-family="Helvetica,sans-Serif" font-size="10.00">ndt::details::ByteOrder</text>
<text text-anchor="middle" x="450.5" y="-105.5" font-family="Helvetica,sans-Serif" font-size="10.00">&lt; uint16_t, 2 &gt;</text>
</a>
</g>
</g>
<!-- Node7&#45;&gt;Node9 -->
<g id="edge9" class="edge"><title>Node7&#45;&gt;Node9</title>
<path fill="none" stroke="#8b1a1a" d="M304.439,-150.425C331.117,-143.634 364.599,-135.111 392.672,-127.965"/>
<polygon fill="#8b1a1a" stroke="#8b1a1a" points="303.4,-147.077 294.573,-152.936 305.127,-153.861 303.4,-147.077"/>
</g>
<!-- Node10 -->
<g id="node11" class="node"><title>Node10</title>
<g id="a_node11"><a xlink:href="classndt_1_1details_1_1_byte_order_3_01uint32__t_00_014_01_4.html" target="_top" xlink:title=" ">
<polygon fill="white" stroke="black" points="393,-49.5 393,-79.5 508,-79.5 508,-49.5 393,-49.5"/>
<text text-anchor="start" x="401" y="-67.5" font-family="Helvetica,sans-Serif" font-size="10.00">ndt::details::ByteOrder</text>
<text text-anchor="middle" x="450.5" y="-56.5" font-family="Helvetica,sans-Serif" font-size="10.00">&lt; uint32_t, 4 &gt;</text>
</a>
</g>
</g>
<!-- Node7&#45;&gt;Node10 -->
<g id="edge10" class="edge"><title>Node7&#45;&gt;Node10</title>
<path fill="none" stroke="#8b1a1a" d="M278.549,-147.066C301.925,-130.845 340.767,-105.387 377,-88.5 383.97,-85.2515 391.503,-82.243 398.987,-79.5326"/>
<polygon fill="#8b1a1a" stroke="#8b1a1a" points="276.275,-144.386 270.1,-152.995 280.296,-150.116 276.275,-144.386"/>
</g>
<!-- Node11 -->
<g id="node12" class="node"><title>Node11</title>
<g id="a_node12"><a xlink:href="classndt_1_1details_1_1_byte_order_3_01uint64__t_00_018_01_4.html" target="_top" xlink:title=" ">
<polygon fill="white" stroke="black" points="393,-0.5 393,-30.5 508,-30.5 508,-0.5 393,-0.5"/>
<text text-anchor="start" x="401" y="-18.5" font-family="Helvetica,sans-Serif" font-size="10.00">ndt::details::ByteOrder</text>
<text text-anchor="middle" x="450.5" y="-7.5" font-family="Helvetica,sans-Serif" font-size="10.00">&lt; uint64_t, 8 &gt;</text>
</a>
</g>
</g>
<!-- Node7&#45;&gt;Node11 -->
<g id="edge11" class="edge"><title>Node7&#45;&gt;Node11</title>
<path fill="none" stroke="#8b1a1a" d="M269.878,-144.644C289.917,-118.083 331.063,-68.2175 377,-39.5 382.396,-36.1264 388.318,-33.1742 394.378,-30.6039"/>
<polygon fill="#8b1a1a" stroke="#8b1a1a" points="266.834,-142.875 263.697,-152.995 272.46,-147.039 266.834,-142.875"/>
</g>
<!-- Node12 -->
<g id="node13" class="node"><title>Node12</title>
<g id="a_node13"><a xlink:href="classndt_1_1details_1_1_byte_order_3_01uint8__t_00_011_01_4.html" target="_top" xlink:title=" ">
<polygon fill="white" stroke="black" points="393,-196.5 393,-226.5 508,-226.5 508,-196.5 393,-196.5"/>
<text text-anchor="start" x="401" y="-214.5" font-family="Helvetica,sans-Serif" font-size="10.00">ndt::details::ByteOrder</text>
<text text-anchor="middle" x="450.5" y="-203.5" font-family="Helvetica,sans-Serif" font-size="10.00">&lt; uint8_t, 1 &gt;</text>
</a>
</g>
</g>
<!-- Node7&#45;&gt;Node12 -->
<g id="edge12" class="edge"><title>Node7&#45;&gt;Node12</title>
<path fill="none" stroke="#8b1a1a" d="M310.976,-174.312C320.978,-176.613 331.32,-179.069 341,-181.5 359.291,-186.095 379.21,-191.488 396.93,-196.425"/>
<polygon fill="#8b1a1a" stroke="#8b1a1a" points="311.652,-170.877 301.125,-172.069 310.098,-177.702 311.652,-170.877"/>
</g>
<!-- Node14 -->
<g id="node15" class="node"><title>Node14</title>
<g id="a_node15"><a xlink:href="classndt_1_1_socket.html" target="_top" xlink:title=" ">
<polygon fill="white" stroke="black" points="396.5,-337.5 396.5,-367.5 504.5,-367.5 504.5,-337.5 396.5,-337.5"/>
<text text-anchor="start" x="404.5" y="-355.5" font-family="Helvetica,sans-Serif" font-size="10.00">ndt::Socket&lt; FlagsT,</text>
<text text-anchor="middle" x="450.5" y="-344.5" font-family="Helvetica,sans-Serif" font-size="10.00"> SysWrapperT &gt;</text>
</a>
</g>
</g>
<!-- Node13&#45;&gt;Node14 -->
<g id="edge14" class="edge"><title>Node13&#45;&gt;Node14</title>
<path fill="none" stroke="midnightblue" d="M350.134,-352.5C365.981,-352.5 381.941,-352.5 396.293,-352.5"/>
<polygon fill="midnightblue" stroke="midnightblue" points="349.755,-349 339.754,-352.5 349.754,-356 349.755,-349"/>
</g>
<!-- Node41 -->
<g id="node16" class="node"><title>Node41</title>
<g id="a_node16"><a xlink:href="structndt_1_1_no_default_constructible.html" target="_top" xlink:title=" ">
<polygon fill="white" stroke="black" points="0,-191 0,-210 135,-210 135,-191 0,-191"/>
<text text-anchor="middle" x="67.5" y="-198" font-family="Helvetica,sans-Serif" font-size="10.00">ndt::NoDefaultConstructible</text>
</a>
</g>
</g>
<!-- Node41&#45;&gt;Node4 -->
<g id="edge15" class="edge"><title>Node41&#45;&gt;Node4</title>
<path fill="none" stroke="midnightblue" d="M125.478,-212.11C152.003,-217.514 183.166,-223.864 208.277,-228.98"/>
<polygon fill="midnightblue" stroke="midnightblue" points="126.059,-208.656 115.562,-210.089 124.662,-215.515 126.059,-208.656"/>
</g>
<!-- Node41&#45;&gt;Node7 -->
<g id="edge16" class="edge"><title>Node41&#45;&gt;Node7</title>
<path fill="none" stroke="midnightblue" d="M125.478,-188.89C152.003,-183.486 183.166,-177.136 208.277,-172.02"/>
<polygon fill="midnightblue" stroke="midnightblue" points="124.662,-185.485 115.562,-190.911 126.059,-192.344 124.662,-185.485"/>
</g>
<!-- Node42 -->
<g id="node17" class="node"><title>Node42</title>
<g id="a_node17"><a xlink:href="structndt_1_1_no_destructible.html" target="_top" xlink:title=" ">
<polygon fill="white" stroke="black" points="17.5,-229 17.5,-248 117.5,-248 117.5,-229 17.5,-229"/>
<text text-anchor="middle" x="67.5" y="-236" font-family="Helvetica,sans-Serif" font-size="10.00">ndt::NoDestructible</text>
</a>
</g>
</g>
<!-- Node42&#45;&gt;Node4 -->
<g id="edge17" class="edge"><title>Node42&#45;&gt;Node4</title>
<path fill="none" stroke="midnightblue" d="M127.837,-238.5C141.679,-238.5 156.676,-238.5 171.352,-238.5"/>
<polygon fill="midnightblue" stroke="midnightblue" points="127.501,-235 117.501,-238.5 127.501,-242 127.501,-235"/>
</g>
<!-- Node43 -->
<g id="node18" class="node"><title>Node43</title>
<g id="a_node18"><a xlink:href="structndt_1_1_no_move_able.html" target="_top" xlink:title=" ">
<polygon fill="white" stroke="black" points="22.5,-153 22.5,-172 112.5,-172 112.5,-153 22.5,-153"/>
<text text-anchor="middle" x="67.5" y="-160" font-family="Helvetica,sans-Serif" font-size="10.00">ndt::NoMoveAble</text>
</a>
</g>
</g>
<!-- Node43&#45;&gt;Node4 -->
<g id="edge18" class="edge"><title>Node43&#45;&gt;Node4</title>
<path fill="none" stroke="midnightblue" d="M122.5,-175.197C126.857,-177.033 131.083,-179.123 135,-181.5 154.89,-193.568 150.781,-207.992 171,-219.5 177.757,-223.346 185.235,-226.413 192.862,-228.86"/>
<polygon fill="midnightblue" stroke="midnightblue" points="123.415,-171.802 112.823,-171.569 120.958,-178.357 123.415,-171.802"/>
</g>
<!-- Node43&#45;&gt;Node7 -->
<g id="edge19" class="edge"><title>Node43&#45;&gt;Node7</title>
<path fill="none" stroke="midnightblue" d="M122.885,-162.5C138.831,-162.5 156.624,-162.5 173.855,-162.5"/>
<polygon fill="midnightblue" stroke="midnightblue" points="122.698,-159 112.698,-162.5 122.698,-166 122.698,-159"/>
</g>
<!-- Node48 -->
<g id="node19" class="node"><title>Node48</title>
<g id="a_node19"><a xlink:href="classndt_1_1_sys_error_code.html" target="_top" xlink:title=" ">
<polygon fill="white" stroke="black" points="207.5,-267 207.5,-286 304.5,-286 304.5,-267 207.5,-267"/>
<text text-anchor="middle" x="256" y="-274" font-family="Helvetica,sans-Serif" font-size="10.00">ndt::SysErrorCode</text>
</a>
</g>
</g>
<!-- Node48&#45;&gt;Node5 -->
<g id="edge20" class="edge"><title>Node48&#45;&gt;Node5</title>
<path fill="none" stroke="midnightblue" d="M314.961,-281.619C347.764,-284.516 387.656,-288.038 415.447,-290.493"/>
<polygon fill="midnightblue" stroke="midnightblue" points="314.853,-278.096 304.584,-280.702 314.238,-285.068 314.853,-278.096"/>
</g>
<!-- Node48&#45;&gt;Node6 -->
<g id="edge21" class="edge"><title>Node48&#45;&gt;Node6</title>
<path fill="none" stroke="midnightblue" d="M314.883,-270.186C344.76,-266.926 380.535,-263.023 407.693,-260.061"/>
<polygon fill="midnightblue" stroke="midnightblue" points="314.146,-266.745 304.584,-271.309 314.905,-273.704 314.146,-266.745"/>
</g>
<!-- Node49 -->
<g id="node20" class="node"><title>Node49</title>
<g id="a_node20"><a xlink:href="classndt_1_1_sys_file_ops.html" target="_top" xlink:title=" ">
<polygon fill="white" stroke="black" points="212.5,-305 212.5,-324 299.5,-324 299.5,-305 212.5,-305"/>
<text text-anchor="middle" x="256" y="-312" font-family="Helvetica,sans-Serif" font-size="10.00">ndt::SysFileOps</text>
</a>
</g>
</g>
<!-- Node49&#45;&gt;Node5 -->
<g id="edge22" class="edge"><title>Node49&#45;&gt;Node5</title>
<path fill="none" stroke="midnightblue" d="M309.84,-308.736C343.445,-305.07 385.982,-300.429 415.23,-297.238"/>
<polygon fill="midnightblue" stroke="midnightblue" points="309.283,-305.275 299.722,-309.839 310.043,-312.234 309.283,-305.275"/>
</g>
<!-- Node50 -->
<g id="node21" class="node"><title>Node50</title>
<g id="a_node21"><a xlink:href="classndt_1_1_sys_socket_ops.html" target="_top" xlink:title=" ">
<polygon fill="white" stroke="black" points="205,-191 205,-210 307,-210 307,-191 205,-191"/>
<text text-anchor="middle" x="256" y="-198" font-family="Helvetica,sans-Serif" font-size="10.00">ndt::SysSocketOps</text>
</a>
</g>
</g>
<!-- Node50&#45;&gt;Node6 -->
<g id="edge23" class="edge"><title>Node50&#45;&gt;Node6</title>
<path fill="none" stroke="midnightblue" d="M316.716,-212.486C324.944,-214.579 333.231,-216.923 341,-219.5 357.618,-225.013 360.515,-229.6 377,-235.5 387.818,-239.372 399.766,-242.945 410.788,-245.967"/>
<polygon fill="midnightblue" stroke="midnightblue" points="317.29,-209.024 306.746,-210.06 315.635,-215.826 317.29,-209.024"/>
</g>
</g>
</svg>
