<?xml version="1.0" encoding="UTF-8" standalone="no"?>
<!DOCTYPE svg PUBLIC "-//W3C//DTD SVG 1.1//EN"
 "http://www.w3.org/Graphics/SVG/1.1/DTD/svg11.dtd">
<!-- Generated by graphviz version 2.38.0 (20140413.2041)
 -->
<!-- Title: Graphical Class Hierarchy Pages: 1 -->
<svg width="532pt" height="306pt"
 viewBox="0.00 0.00 532.00 306.00" xmlns="http://www.w3.org/2000/svg" xmlns:xlink="http://www.w3.org/1999/xlink">
<g id="graph0" class="graph" transform="scale(1 1) rotate(0) translate(4 302)">
<title>Graphical Class Hierarchy</title>
<polygon fill="white" stroke="none" points="-4,4 -4,-302 528,-302 528,4 -4,4"/>
<!-- Node0 -->
<g id="node1" class="node"><title>Node0</title>
<g id="a_node1"><a xlink:href="structndt_1_1_no_copy_able.html" target="_top" xlink:title=" ">
<polygon fill="white" stroke="black" points="22.5,-190.5 22.5,-209.5 112.5,-209.5 112.5,-190.5 22.5,-190.5"/>
<text text-anchor="middle" x="67.5" y="-197.5" font-family="Helvetica,sans-Serif" font-size="10.00">ndt::NoCopyAble</text>
</a>
</g>
</g>
<!-- Node1 -->
<g id="node2" class="node"><title>Node1</title>
<g id="a_node2"><a xlink:href="classndt_1_1_context_base.html" target="_top" xlink:title=" ">
<polygon fill="white" stroke="black" points="171,-278.5 171,-297.5 341,-297.5 341,-278.5 171,-278.5"/>
<text text-anchor="middle" x="256" y="-285.5" font-family="Helvetica,sans-Serif" font-size="10.00">ndt::ContextBase&lt; SysWrapperT &gt;</text>
</a>
</g>
</g>
<!-- Node0&#45;&gt;Node1 -->
<g id="edge1" class="edge"><title>Node0&#45;&gt;Node1</title>
<path fill="none" stroke="#8b1a1a" d="M87.5337,-216.011C107.214,-231.763 139.432,-255.375 171,-269 179.923,-272.851 189.73,-275.972 199.397,-278.484"/>
<polygon fill="#8b1a1a" stroke="#8b1a1a" points="89.6249,-213.2 79.6633,-209.592 85.2007,-218.625 89.6249,-213.2"/>
</g>
<!-- Node3 -->
<g id="node4" class="node"><title>Node3</title>
<g id="a_node4"><a xlink:href="classndt_1_1_file.html" target="_top" xlink:title=" ">
<polygon fill="white" stroke="black" points="191.5,-229 191.5,-259 320.5,-259 320.5,-229 191.5,-229"/>
<text text-anchor="start" x="199.5" y="-247" font-family="Helvetica,sans-Serif" font-size="10.00">ndt::File&lt; DestructorError</text>
<text text-anchor="middle" x="256" y="-236" font-family="Helvetica,sans-Serif" font-size="10.00">HandlerT, SysWrapperT &gt;</text>
</a>
</g>
</g>
<!-- Node0&#45;&gt;Node3 -->
<g id="edge3" class="edge"><title>Node0&#45;&gt;Node3</title>
<path fill="none" stroke="midnightblue" d="M118.872,-211.884C141.121,-217.133 167.532,-223.364 191.143,-228.935"/>
<polygon fill="midnightblue" stroke="midnightblue" points="119.504,-208.437 108.968,-209.547 117.897,-215.25 119.504,-208.437"/>
</g>
<!-- Node4 -->
<g id="node5" class="node"><title>Node4</title>
<g id="a_node5"><a xlink:href="structndt_1_1_no_constructible_no_destructible.html" target="_top" xlink:title=" ">
<polygon fill="white" stroke="black" points="171.5,-76.5 171.5,-95.5 340.5,-95.5 340.5,-76.5 171.5,-76.5"/>
<text text-anchor="middle" x="256" y="-83.5" font-family="Helvetica,sans-Serif" font-size="10.00">ndt::NoConstructibleNoDestructible</text>
</a>
</g>
</g>
<!-- Node0&#45;&gt;Node4 -->
<g id="edge4" class="edge"><title>Node0&#45;&gt;Node4</title>
<path fill="none" stroke="midnightblue" d="M82.3563,-182.411C100.397,-160.763 134.022,-124.484 171,-105 178.408,-101.097 186.594,-97.9922 194.864,-95.5234"/>
<polygon fill="midnightblue" stroke="midnightblue" points="79.4166,-180.479 75.8189,-190.444 84.8458,-184.897 79.4166,-180.479"/>
</g>
<!-- Node7 -->
<g id="node8" class="node"><title>Node7</title>
<g id="a_node8"><a xlink:href="structndt_1_1_no_copy_move_def_constructible.html" target="_top" xlink:title=" ">
<polygon fill="white" stroke="black" points="174,-0.5 174,-19.5 338,-19.5 338,-0.5 174,-0.5"/>
<text text-anchor="middle" x="256" y="-7.5" font-family="Helvetica,sans-Serif" font-size="10.00">ndt::NoCopyMoveDefConstructible</text>
</a>
</g>
</g>
<!-- Node0&#45;&gt;Node7 -->
<g id="edge7" class="edge"><title>Node0&#45;&gt;Node7</title>
<path fill="none" stroke="midnightblue" d="M82.2987,-182.234C96.4535,-163.585 118.654,-133.12 135,-105 153.783,-72.687 141.831,-52.3686 171,-29 175.784,-25.1672 181.191,-22.0747 186.897,-19.5837"/>
<polygon fill="midnightblue" stroke="midnightblue" points="79.3621,-180.312 76.0572,-190.379 84.9182,-184.57 79.3621,-180.312"/>
</g>
<!-- Node8 -->
<g id="node9" class="node"><title>Node8</title>
<g id="a_node9"><a xlink:href="classndt_1_1_socket_base.html" target="_top" xlink:title=" ">
<polygon fill="white" stroke="black" points="172.5,-190.5 172.5,-209.5 339.5,-209.5 339.5,-190.5 172.5,-190.5"/>
<text text-anchor="middle" x="256" y="-197.5" font-family="Helvetica,sans-Serif" font-size="10.00">ndt::SocketBase&lt; SysWrapperT &gt;</text>
</a>
</g>
</g>
<!-- Node0&#45;&gt;Node8 -->
<g id="edge8" class="edge"><title>Node0&#45;&gt;Node8</title>
<path fill="none" stroke="#8b1a1a" d="M123.084,-200C138.521,-200 155.676,-200 172.371,-200"/>
<polygon fill="#8b1a1a" stroke="#8b1a1a" points="122.698,-196.5 112.698,-200 122.698,-203.5 122.698,-196.5"/>
</g>
<!-- Node2 -->
<g id="node3" class="node"><title>Node2</title>
<g id="a_node3"><a xlink:href="classndt_1_1_context.html" target="_top" xlink:title=" ">
<polygon fill="white" stroke="black" points="377,-278.5 377,-297.5 524,-297.5 524,-278.5 377,-278.5"/>
<text text-anchor="middle" x="450.5" y="-285.5" font-family="Helvetica,sans-Serif" font-size="10.00">ndt::Context&lt; SysWrapperT &gt;</text>
</a>
</g>
</g>
<!-- Node1&#45;&gt;Node2 -->
<g id="edge2" class="edge"><title>Node1&#45;&gt;Node2</title>
<path fill="none" stroke="midnightblue" d="M351.269,-288C359.909,-288 368.57,-288 376.974,-288"/>
<polygon fill="midnightblue" stroke="midnightblue" points="351.153,-284.5 341.153,-288 351.153,-291.5 351.153,-284.5"/>
</g>
<!-- Node5 -->
<g id="node6" class="node"><title>Node5</title>
<g id="a_node6"><a xlink:href="classndt_1_1_file_ops.html" target="_top" xlink:title=" ">
<polygon fill="white" stroke="black" points="415.5,-114.5 415.5,-133.5 485.5,-133.5 485.5,-114.5 415.5,-114.5"/>
<text text-anchor="middle" x="450.5" y="-121.5" font-family="Helvetica,sans-Serif" font-size="10.00">ndt::FileOps</text>
</a>
</g>
</g>
<!-- Node4&#45;&gt;Node5 -->
<g id="edge5" class="edge"><title>Node4&#45;&gt;Node5</title>
<path fill="none" stroke="midnightblue" d="M315.455,-97.5392C348.068,-103.977 387.562,-111.773 415.203,-117.23"/>
<polygon fill="midnightblue" stroke="midnightblue" points="316.064,-94.092 305.576,-95.589 314.709,-100.959 316.064,-94.092"/>
</g>
<!-- Node6 -->
<g id="node7" class="node"><title>Node6</title>
<g id="a_node7"><a xlink:href="classndt_1_1_socket_ops.html" target="_top" xlink:title=" ">
<polygon fill="white" stroke="black" points="408,-76.5 408,-95.5 493,-95.5 493,-76.5 408,-76.5"/>
<text text-anchor="middle" x="450.5" y="-83.5" font-family="Helvetica,sans-Serif" font-size="10.00">ndt::SocketOps</text>
</a>
</g>
</g>
<!-- Node4&#45;&gt;Node6 -->
<g id="edge6" class="edge"><title>Node4&#45;&gt;Node6</title>
<path fill="none" stroke="midnightblue" d="M350.714,-86C370.74,-86 390.913,-86 407.76,-86"/>
<polygon fill="midnightblue" stroke="midnightblue" points="350.593,-82.5001 340.593,-86 350.593,-89.5001 350.593,-82.5001"/>
</g>
<!-- Node9 -->
<g id="node10" class="node"><title>Node9</title>
<g id="a_node10"><a xlink:href="classndt_1_1_socket.html" target="_top" xlink:title=" ">
<polygon fill="white" stroke="black" points="396.5,-185 396.5,-215 504.5,-215 504.5,-185 396.5,-185"/>
<text text-anchor="start" x="404.5" y="-203" font-family="Helvetica,sans-Serif" font-size="10.00">ndt::Socket&lt; FlagsT,</text>
<text text-anchor="middle" x="450.5" y="-192" font-family="Helvetica,sans-Serif" font-size="10.00"> SysWrapperT &gt;</text>
</a>
</g>
</g>
<!-- Node8&#45;&gt;Node9 -->
<g id="edge9" class="edge"><title>Node8&#45;&gt;Node9</title>
<path fill="none" stroke="midnightblue" d="M350.134,-200C365.981,-200 381.941,-200 396.293,-200"/>
<polygon fill="midnightblue" stroke="midnightblue" points="349.755,-196.5 339.754,-200 349.754,-203.5 349.755,-196.5"/>
</g>
<!-- Node48 -->
<g id="node11" class="node"><title>Node48</title>
<g id="a_node11"><a xlink:href="structndt_1_1_no_default_constructible.html" target="_top" xlink:title=" ">
<polygon fill="white" stroke="black" points="0,-38.5 0,-57.5 135,-57.5 135,-38.5 0,-38.5"/>
<text text-anchor="middle" x="67.5" y="-45.5" font-family="Helvetica,sans-Serif" font-size="10.00">ndt::NoDefaultConstructible</text>
</a>
</g>
</g>
<!-- Node48&#45;&gt;Node4 -->
<g id="edge10" class="edge"><title>Node48&#45;&gt;Node4</title>
<path fill="none" stroke="midnightblue" d="M125.478,-59.6095C152.003,-65.014 183.166,-71.3635 208.277,-76.4799"/>
<polygon fill="midnightblue" stroke="midnightblue" points="126.059,-56.1561 115.562,-57.589 124.662,-63.0151 126.059,-56.1561"/>
</g>
<!-- Node48&#45;&gt;Node7 -->
<g id="edge11" class="edge"><title>Node48&#45;&gt;Node7</title>
<path fill="none" stroke="midnightblue" d="M125.478,-36.3905C152.003,-30.986 183.166,-24.6365 208.277,-19.5201"/>
<polygon fill="midnightblue" stroke="midnightblue" points="124.662,-32.9849 115.562,-38.411 126.059,-39.8439 124.662,-32.9849"/>
</g>
<!-- Node49 -->
<g id="node12" class="node"><title>Node49</title>
<g id="a_node12"><a xlink:href="structndt_1_1_no_destructible.html" target="_top" xlink:title=" ">
<polygon fill="white" stroke="black" points="17.5,-76.5 17.5,-95.5 117.5,-95.5 117.5,-76.5 17.5,-76.5"/>
<text text-anchor="middle" x="67.5" y="-83.5" font-family="Helvetica,sans-Serif" font-size="10.00">ndt::NoDestructible</text>
</a>
</g>
</g>
<!-- Node49&#45;&gt;Node4 -->
<g id="edge12" class="edge"><title>Node49&#45;&gt;Node4</title>
<path fill="none" stroke="midnightblue" d="M127.837,-86C141.679,-86 156.676,-86 171.352,-86"/>
<polygon fill="midnightblue" stroke="midnightblue" points="127.501,-82.5001 117.501,-86 127.501,-89.5001 127.501,-82.5001"/>
</g>
<!-- Node50 -->
<g id="node13" class="node"><title>Node50</title>
<g id="a_node13"><a xlink:href="structndt_1_1_no_move_able.html" target="_top" xlink:title=" ">
<polygon fill="white" stroke="black" points="22.5,-0.5 22.5,-19.5 112.5,-19.5 112.5,-0.5 22.5,-0.5"/>
<text text-anchor="middle" x="67.5" y="-7.5" font-family="Helvetica,sans-Serif" font-size="10.00">ndt::NoMoveAble</text>
</a>
</g>
</g>
<!-- Node50&#45;&gt;Node4 -->
<g id="edge13" class="edge"><title>Node50&#45;&gt;Node4</title>
<path fill="none" stroke="midnightblue" d="M122.5,-22.6969C126.857,-24.5333 131.083,-26.6235 135,-29 154.89,-41.0679 150.781,-55.4922 171,-67 177.757,-70.8459 185.235,-73.9133 192.862,-76.3598"/>
<polygon fill="midnightblue" stroke="midnightblue" points="123.415,-19.3023 112.823,-19.0694 120.958,-25.8569 123.415,-19.3023"/>
</g>
<!-- Node50&#45;&gt;Node7 -->
<g id="edge14" class="edge"><title>Node50&#45;&gt;Node7</title>
<path fill="none" stroke="midnightblue" d="M122.885,-10C138.831,-10 156.624,-10 173.855,-10"/>
<polygon fill="midnightblue" stroke="midnightblue" points="122.698,-6.5001 112.698,-10 122.698,-13.5001 122.698,-6.5001"/>
</g>
<!-- Node55 -->
<g id="node14" class="node"><title>Node55</title>
<g id="a_node14"><a xlink:href="classndt_1_1_sys_error_code.html" target="_top" xlink:title=" ">
<polygon fill="white" stroke="black" points="207.5,-114.5 207.5,-133.5 304.5,-133.5 304.5,-114.5 207.5,-114.5"/>
<text text-anchor="middle" x="256" y="-121.5" font-family="Helvetica,sans-Serif" font-size="10.00">ndt::SysErrorCode</text>
</a>
</g>
</g>
<!-- Node55&#45;&gt;Node5 -->
<g id="edge15" class="edge"><title>Node55&#45;&gt;Node5</title>
<path fill="none" stroke="midnightblue" d="M314.961,-124C347.764,-124 387.656,-124 415.447,-124"/>
<polygon fill="midnightblue" stroke="midnightblue" points="314.584,-120.5 304.584,-124 314.584,-127.5 314.584,-120.5"/>
</g>
<!-- Node55&#45;&gt;Node6 -->
<g id="edge16" class="edge"><title>Node55&#45;&gt;Node6</title>
<path fill="none" stroke="midnightblue" d="M314.491,-112.651C344.447,-106.738 380.417,-99.6373 407.693,-94.2528"/>
<polygon fill="midnightblue" stroke="midnightblue" points="313.717,-109.236 304.584,-114.607 315.073,-116.104 313.717,-109.236"/>
</g>
<!-- Node56 -->
<g id="node15" class="node"><title>Node56</title>
<g id="a_node15"><a xlink:href="classndt_1_1_sys_file_ops.html" target="_top" xlink:title=" ">
<polygon fill="white" stroke="black" points="212.5,-152.5 212.5,-171.5 299.5,-171.5 299.5,-152.5 212.5,-152.5"/>
<text text-anchor="middle" x="256" y="-159.5" font-family="Helvetica,sans-Serif" font-size="10.00">ndt::SysFileOps</text>
</a>
</g>
</g>
<!-- Node56&#45;&gt;Node5 -->
<g id="edge17" class="edge"><title>Node56&#45;&gt;Node5</title>
<path fill="none" stroke="midnightblue" d="M309.84,-151.569C343.445,-144.935 385.982,-136.539 415.23,-130.765"/>
<polygon fill="midnightblue" stroke="midnightblue" points="308.855,-148.196 299.722,-153.567 310.211,-155.064 308.855,-148.196"/>
</g>
<!-- Node57 -->
<g id="node16" class="node"><title>Node57</title>
<g id="a_node16"><a xlink:href="classndt_1_1_sys_socket_ops.html" target="_top" xlink:title=" ">
<polygon fill="white" stroke="black" points="205,-38.5 205,-57.5 307,-57.5 307,-38.5 205,-38.5"/>
<text text-anchor="middle" x="256" y="-45.5" font-family="Helvetica,sans-Serif" font-size="10.00">ndt::SysSocketOps</text>
</a>
</g>
</g>
<!-- Node57&#45;&gt;Node6 -->
<g id="edge18" class="edge"><title>Node57&#45;&gt;Node6</title>
<path fill="none" stroke="midnightblue" d="M315.442,-59.5365C345.243,-65.4195 380.795,-72.4375 407.797,-77.7677"/>
<polygon fill="midnightblue" stroke="midnightblue" points="316.064,-56.092 305.576,-57.589 314.709,-62.9595 316.064,-56.092"/>
</g>
</g>
</svg>
