<?xml version="1.0" encoding="UTF-8" standalone="no"?>
<!DOCTYPE svg PUBLIC "-//W3C//DTD SVG 1.1//EN"
 "http://www.w3.org/Graphics/SVG/1.1/DTD/svg11.dtd">
<!-- Generated by graphviz version 2.38.0 (20140413.2041)
 -->
<!-- Title: Graphical Class Hierarchy Pages: 1 -->
<svg width="289pt" height="318pt"
 viewBox="0.00 0.00 289.00 317.50" xmlns="http://www.w3.org/2000/svg" xmlns:xlink="http://www.w3.org/1999/xlink">
<g id="graph0" class="graph" transform="scale(1 1) rotate(0) translate(4 313.5)">
<title>Graphical Class Hierarchy</title>
<polygon fill="white" stroke="none" points="-4,4 -4,-313.5 285,-313.5 285,4 -4,4"/>
<!-- Node65 -->
<g id="node1" class="node"><title>Node65</title>
<g id="a_node1"><a xlink:title=" ">
<polygon fill="white" stroke="#bfbfbf" points="0,-131 0,-150 77,-150 77,-131 0,-131"/>
<text text-anchor="middle" x="38.5" y="-138" font-family="Helvetica,sans-Serif" font-size="10.00">std::true_type</text>
</a>
</g>
</g>
<!-- Node0 -->
<g id="node2" class="node"><title>Node0</title>
<g id="a_node2"><a xlink:href="structndt_1_1is__std__array_3_01std_1_1array_3_01_data_t_00_01_size_01_4_01_4.html" target="_top" xlink:title=" ">
<polygon fill="white" stroke="black" points="148,-268 148,-309 246,-309 246,-268 148,-268"/>
<text text-anchor="start" x="156" y="-297" font-family="Helvetica,sans-Serif" font-size="10.00">ndt::is_std_array&lt;</text>
<text text-anchor="start" x="156" y="-286" font-family="Helvetica,sans-Serif" font-size="10.00"> std::array&lt; DataT,</text>
<text text-anchor="middle" x="197" y="-275" font-family="Helvetica,sans-Serif" font-size="10.00"> Size &gt; &gt;</text>
</a>
</g>
</g>
<!-- Node65&#45;&gt;Node0 -->
<g id="edge1" class="edge"><title>Node65&#45;&gt;Node0</title>
<path fill="none" stroke="midnightblue" d="M46.7522,-159.749C57.4533,-185.684 79.8538,-231.681 113,-258.5 123.125,-266.692 135.676,-272.751 147.927,-277.191"/>
<polygon fill="midnightblue" stroke="midnightblue" points="49.9356,-158.281 42.9978,-150.274 43.4279,-160.86 49.9356,-158.281"/>
</g>
<!-- Node67 -->
<g id="node3" class="node"><title>Node67</title>
<g id="a_node3"><a xlink:href="structndt_1_1is__std__duration_3_01std_1_1chrono_1_1duration_3_01_rep_00_01_period_01_4_01_4.html" target="_top" xlink:title=" ">
<polygon fill="white" stroke="black" points="139.5,-208 139.5,-249 254.5,-249 254.5,-208 139.5,-208"/>
<text text-anchor="start" x="147.5" y="-237" font-family="Helvetica,sans-Serif" font-size="10.00">ndt::is_std_duration</text>
<text text-anchor="start" x="147.5" y="-226" font-family="Helvetica,sans-Serif" font-size="10.00">&lt; std::chrono::duration</text>
<text text-anchor="middle" x="197" y="-215" font-family="Helvetica,sans-Serif" font-size="10.00">&lt; Rep, Period &gt; &gt;</text>
</a>
</g>
</g>
<!-- Node65&#45;&gt;Node67 -->
<g id="edge2" class="edge"><title>Node65&#45;&gt;Node67</title>
<path fill="none" stroke="midnightblue" d="M57.2205,-157.178C71.4261,-169.853 92.3361,-187.011 113,-198.5 121.169,-203.042 130.157,-207.123 139.111,-210.704"/>
<polygon fill="midnightblue" stroke="midnightblue" points="59.4324,-154.458 49.6837,-150.31 54.7174,-159.632 59.4324,-154.458"/>
</g>
<!-- Node68 -->
<g id="node4" class="node"><title>Node68</title>
<g id="a_node4"><a xlink:href="structndt_1_1is__value_3_01_value_3_01_t_00_01_min_3_01_min_v_01_4_00_01_max_3_01_max_v_01_4_01_4_01_4.html" target="_top" xlink:title=" ">
<polygon fill="white" stroke="black" points="138,-148 138,-189 256,-189 256,-148 138,-148"/>
<text text-anchor="start" x="146" y="-177" font-family="Helvetica,sans-Serif" font-size="10.00">ndt::is_value&lt; Value</text>
<text text-anchor="start" x="146" y="-166" font-family="Helvetica,sans-Serif" font-size="10.00">&lt; T, Min&lt; MinV &gt;, Max</text>
<text text-anchor="middle" x="197" y="-155" font-family="Helvetica,sans-Serif" font-size="10.00">&lt; MaxV &gt; &gt; &gt;</text>
</a>
</g>
</g>
<!-- Node65&#45;&gt;Node68 -->
<g id="edge3" class="edge"><title>Node65&#45;&gt;Node68</title>
<path fill="none" stroke="midnightblue" d="M87.5394,-149.095C103.478,-151.947 121.392,-155.152 138,-158.123"/>
<polygon fill="midnightblue" stroke="midnightblue" points="87.8444,-145.594 77.3843,-147.278 86.6115,-152.485 87.8444,-145.594"/>
</g>
<!-- Node69 -->
<g id="node5" class="node"><title>Node69</title>
<g id="a_node5"><a xlink:href="structstd_1_1is__error__code__enum_3_01ndt_1_1e_address_error_code_01_4.html" target="_top" xlink:title=" ">
<polygon fill="white" stroke="black" points="113,-98.5 113,-128.5 281,-128.5 281,-98.5 113,-98.5"/>
<text text-anchor="start" x="121" y="-116.5" font-family="Helvetica,sans-Serif" font-size="10.00">std::is_error_code</text>
<text text-anchor="middle" x="197" y="-105.5" font-family="Helvetica,sans-Serif" font-size="10.00">_enum&lt; ndt::eAddressErrorCode &gt;</text>
</a>
</g>
</g>
<!-- Node65&#45;&gt;Node69 -->
<g id="edge4" class="edge"><title>Node65&#45;&gt;Node69</title>
<path fill="none" stroke="midnightblue" d="M87.3967,-132.237C95.5469,-130.831 104.217,-129.335 112.967,-127.825"/>
<polygon fill="midnightblue" stroke="midnightblue" points="86.6436,-128.815 77.3843,-133.964 87.8338,-135.713 86.6436,-128.815"/>
</g>
<!-- Node70 -->
<g id="node6" class="node"><title>Node70</title>
<g id="a_node6"><a xlink:href="structstd_1_1is__error__code__enum_3_01ndt_1_1e_context_error_code_01_4.html" target="_top" xlink:title=" ">
<polygon fill="white" stroke="black" points="114,-49.5 114,-79.5 280,-79.5 280,-49.5 114,-49.5"/>
<text text-anchor="start" x="122" y="-67.5" font-family="Helvetica,sans-Serif" font-size="10.00">std::is_error_code</text>
<text text-anchor="middle" x="197" y="-56.5" font-family="Helvetica,sans-Serif" font-size="10.00">_enum&lt; ndt::eContextErrorCode &gt;</text>
</a>
</g>
</g>
<!-- Node65&#45;&gt;Node70 -->
<g id="edge5" class="edge"><title>Node65&#45;&gt;Node70</title>
<path fill="none" stroke="midnightblue" d="M58.7968,-124.581C73.046,-113.477 93.3075,-99.0025 113,-89.5 120.726,-85.7721 129.126,-82.4648 137.517,-79.5758"/>
<polygon fill="midnightblue" stroke="midnightblue" points="56.3998,-122.016 50.7604,-130.985 60.7622,-127.49 56.3998,-122.016"/>
</g>
<!-- Node71 -->
<g id="node7" class="node"><title>Node71</title>
<g id="a_node7"><a xlink:href="structstd_1_1is__error__code__enum_3_01ndt_1_1e_file_error_code_01_4.html" target="_top" xlink:title=" ">
<polygon fill="white" stroke="black" points="123,-0.5 123,-30.5 271,-30.5 271,-0.5 123,-0.5"/>
<text text-anchor="start" x="131" y="-18.5" font-family="Helvetica,sans-Serif" font-size="10.00">std::is_error_code</text>
<text text-anchor="middle" x="197" y="-7.5" font-family="Helvetica,sans-Serif" font-size="10.00">_enum&lt; ndt::eFileErrorCode &gt;</text>
</a>
</g>
</g>
<!-- Node65&#45;&gt;Node71 -->
<g id="edge6" class="edge"><title>Node65&#45;&gt;Node71</title>
<path fill="none" stroke="midnightblue" d="M48.5074,-121.711C60.2621,-99.1578 82.9307,-61.7299 113,-40.5 118.409,-36.6809 124.411,-33.436 130.642,-30.6809"/>
<polygon fill="midnightblue" stroke="midnightblue" points="45.2456,-120.407 43.8872,-130.915 51.5016,-123.548 45.2456,-120.407"/>
</g>
</g>
</svg>
