<?xml version="1.0" encoding="UTF-8" standalone="no"?>
<!DOCTYPE svg PUBLIC "-//W3C//DTD SVG 1.1//EN"
 "http://www.w3.org/Graphics/SVG/1.1/DTD/svg11.dtd">
<!-- Generated by graphviz version 2.38.0 (20140413.2041)
 -->
<!-- Title: Graphical Class Hierarchy Pages: 1 -->
<svg width="302pt" height="50pt"
 viewBox="0.00 0.00 302.00 50.00" xmlns="http://www.w3.org/2000/svg" xmlns:xlink="http://www.w3.org/1999/xlink">
<g id="graph0" class="graph" transform="scale(1 1) rotate(0) translate(4 46)">
<title>Graphical Class Hierarchy</title>
<polygon fill="white" stroke="none" points="-4,4 -4,-46 298,-46 298,4 -4,4"/>
<!-- Node0 -->
<g id="node1" class="node"><title>Node0</title>
<g id="a_node1"><a xlink:href="classndt_1_1_executor_select_base.html" target="_top" xlink:title=" ">
<polygon fill="white" stroke="black" points="0,-0.5 0,-41.5 155,-41.5 155,-0.5 0,-0.5"/>
<text text-anchor="start" x="8" y="-29.5" font-family="Helvetica,sans-Serif" font-size="10.00">ndt::ExecutorSelectBase</text>
<text text-anchor="start" x="8" y="-18.5" font-family="Helvetica,sans-Serif" font-size="10.00">&lt; ExecutorSelect&lt; SysWrapper</text>
<text text-anchor="middle" x="77.5" y="-7.5" font-family="Helvetica,sans-Serif" font-size="10.00">T &gt;, SysWrapperT &gt;</text>
</a>
</g>
</g>
<!-- Node1 -->
<g id="node2" class="node"><title>Node1</title>
<g id="a_node2"><a xlink:href="classndt_1_1_executor_select.html" target="_top" xlink:title=" ">
<polygon fill="white" stroke="black" points="191,-6 191,-36 294,-36 294,-6 191,-6"/>
<text text-anchor="start" x="199" y="-24" font-family="Helvetica,sans-Serif" font-size="10.00">ndt::ExecutorSelect</text>
<text text-anchor="middle" x="242.5" y="-13" font-family="Helvetica,sans-Serif" font-size="10.00">&lt; SysWrapperT &gt;</text>
</a>
</g>
</g>
<!-- Node0&#45;&gt;Node1 -->
<g id="edge1" class="edge"><title>Node0&#45;&gt;Node1</title>
<path fill="none" stroke="midnightblue" d="M165.409,-21C174.07,-21 182.649,-21 190.753,-21"/>
<polygon fill="midnightblue" stroke="midnightblue" points="165.227,-17.5001 155.227,-21 165.227,-24.5001 165.227,-17.5001"/>
</g>
</g>
</svg>
