<?xml version="1.0" encoding="UTF-8" standalone="no"?>
<!DOCTYPE svg PUBLIC "-//W3C//DTD SVG 1.1//EN"
 "http://www.w3.org/Graphics/SVG/1.1/DTD/svg11.dtd">
<!-- Generated by graphviz version 2.38.0 (20140413.2041)
 -->
<!-- Title: Graphical Class Hierarchy Pages: 1 -->
<svg width="249pt" height="154pt"
 viewBox="0.00 0.00 249.00 153.50" xmlns="http://www.w3.org/2000/svg" xmlns:xlink="http://www.w3.org/1999/xlink">
<g id="graph0" class="graph" transform="scale(1 1) rotate(0) translate(4 149.5)">
<title>Graphical Class Hierarchy</title>
<polygon fill="white" stroke="none" points="-4,4 -4,-149.5 245,-149.5 245,4 -4,4"/>
<!-- Node22 -->
<g id="node1" class="node"><title>Node22</title>
<g id="a_node1"><a xlink:title=" ">
<polygon fill="white" stroke="#bfbfbf" points="0,-57.5 0,-76.5 80,-76.5 80,-57.5 0,-57.5"/>
<text text-anchor="middle" x="40" y="-64.5" font-family="Helvetica,sans-Serif" font-size="10.00">std::false_type</text>
</a>
</g>
</g>
<!-- Node0 -->
<g id="node2" class="node"><title>Node0</title>
<g id="a_node2"><a xlink:href="structndt_1_1is__parameterized__with__enum.html" target="_top" xlink:title=" ">
<polygon fill="white" stroke="black" points="123.5,-115 123.5,-145 233.5,-145 233.5,-115 123.5,-115"/>
<text text-anchor="start" x="131.5" y="-133" font-family="Helvetica,sans-Serif" font-size="10.00">ndt::is_parameterized</text>
<text text-anchor="middle" x="178.5" y="-122" font-family="Helvetica,sans-Serif" font-size="10.00">_with_enum&lt; T &gt;</text>
</a>
</g>
</g>
<!-- Node22&#45;&gt;Node0 -->
<g id="edge1" class="edge"><title>Node22&#45;&gt;Node0</title>
<path fill="none" stroke="midnightblue" d="M68.1425,-81.4361C82.2752,-88.7778 99.9194,-97.673 116,-105 123.342,-108.345 131.267,-111.73 138.907,-114.883"/>
<polygon fill="midnightblue" stroke="midnightblue" points="69.4643,-78.1775 58.9817,-76.64 66.2175,-84.379 69.4643,-78.1775"/>
</g>
<!-- Node24 -->
<g id="node3" class="node"><title>Node24</title>
<g id="a_node3"><a xlink:href="structndt_1_1is__std__array.html" target="_top" xlink:title=" ">
<polygon fill="white" stroke="black" points="122,-76.5 122,-95.5 235,-95.5 235,-76.5 122,-76.5"/>
<text text-anchor="middle" x="178.5" y="-83.5" font-family="Helvetica,sans-Serif" font-size="10.00">ndt::is_std_array&lt; T &gt;</text>
</a>
</g>
</g>
<!-- Node22&#45;&gt;Node24 -->
<g id="edge2" class="edge"><title>Node22&#45;&gt;Node24</title>
<path fill="none" stroke="midnightblue" d="M90.1514,-73.8416C100.436,-75.2731 111.349,-76.7922 121.85,-78.2539"/>
<polygon fill="midnightblue" stroke="midnightblue" points="90.5025,-70.3568 80.1154,-72.4446 89.5374,-77.29 90.5025,-70.3568"/>
</g>
<!-- Node25 -->
<g id="node4" class="node"><title>Node25</title>
<g id="a_node4"><a xlink:href="structndt_1_1is__std__duration.html" target="_top" xlink:title=" ">
<polygon fill="white" stroke="black" points="116,-38.5 116,-57.5 241,-57.5 241,-38.5 116,-38.5"/>
<text text-anchor="middle" x="178.5" y="-45.5" font-family="Helvetica,sans-Serif" font-size="10.00">ndt::is_std_duration&lt; T &gt;</text>
</a>
</g>
</g>
<!-- Node22&#45;&gt;Node25 -->
<g id="edge3" class="edge"><title>Node22&#45;&gt;Node25</title>
<path fill="none" stroke="midnightblue" d="M90.1007,-60.1655C98.4888,-58.9979 107.297,-57.7719 115.959,-56.5661"/>
<polygon fill="midnightblue" stroke="midnightblue" points="89.5374,-56.71 80.1154,-61.5554 90.5025,-63.6432 89.5374,-56.71"/>
</g>
<!-- Node26 -->
<g id="node5" class="node"><title>Node26</title>
<g id="a_node5"><a xlink:href="structndt_1_1is__value.html" target="_top" xlink:title=" ">
<polygon fill="white" stroke="black" points="131.5,-0.5 131.5,-19.5 225.5,-19.5 225.5,-0.5 131.5,-0.5"/>
<text text-anchor="middle" x="178.5" y="-7.5" font-family="Helvetica,sans-Serif" font-size="10.00">ndt::is_value&lt; T &gt;</text>
</a>
</g>
</g>
<!-- Node22&#45;&gt;Node26 -->
<g id="edge4" class="edge"><title>Node22&#45;&gt;Node26</title>
<path fill="none" stroke="midnightblue" d="M67.0459,-52.4301C81.2455,-44.84 99.2879,-35.7586 116,-29 124.599,-25.5226 134.086,-22.3028 142.983,-19.5392"/>
<polygon fill="midnightblue" stroke="midnightblue" points="65.011,-49.5522 57.8928,-57.3996 68.3511,-55.704 65.011,-49.5522"/>
</g>
</g>
</svg>
