<?xml version="1.0" encoding="UTF-8" standalone="no"?>
<!DOCTYPE svg PUBLIC "-//W3C//DTD SVG 1.1//EN"
 "http://www.w3.org/Graphics/SVG/1.1/DTD/svg11.dtd">
<!-- Generated by graphviz version 2.38.0 (20140413.2041)
 -->
<!-- Title: ndt::deserialize Pages: 1 -->
<svg width="574pt" height="116pt"
 viewBox="0.00 0.00 574.00 115.50" xmlns="http://www.w3.org/2000/svg" xmlns:xlink="http://www.w3.org/1999/xlink">
<g id="graph0" class="graph" transform="scale(1 1) rotate(0) translate(4 111.5)">
<title>ndt::deserialize</title>
<polygon fill="white" stroke="none" points="-4,4 -4,-111.5 570,-111.5 570,4 -4,4"/>
<!-- Node1 -->
<g id="node1" class="node"><title>Node1</title>
<g id="a_node1"><a xlink:title=" ">
<polygon fill="#bfbfbf" stroke="black" points="0,-50 0,-69 83,-69 83,-50 0,-50"/>
<text text-anchor="middle" x="41.5" y="-57" font-family="Helvetica,sans-Serif" font-size="10.00">ndt::deserialize</text>
</a>
</g>
</g>
<!-- Node2 -->
<g id="node2" class="node"><title>Node2</title>
<g id="a_node2"><a xlink:href="classndt_1_1_address.html#ae40f211c43c0d6a45b6e6728db27097b" target="_top" xlink:title=" ">
<polygon fill="white" stroke="black" points="119,-88 119,-107 233,-107 233,-88 119,-88"/>
<text text-anchor="middle" x="176" y="-95" font-family="Helvetica,sans-Serif" font-size="10.00">ndt::Address::Address</text>
</a>
</g>
</g>
<!-- Node1&#45;&gt;Node2 -->
<g id="edge1" class="edge"><title>Node1&#45;&gt;Node2</title>
<path fill="none" stroke="midnightblue" d="M75.9353,-69.089C92.8829,-73.9494 113.663,-79.9091 131.808,-85.1127"/>
<polygon fill="midnightblue" stroke="midnightblue" points="130.998,-88.5216 141.575,-87.9141 132.928,-81.7928 130.998,-88.5216"/>
</g>
<!-- Node4 -->
<g id="node4" class="node"><title>Node4</title>
<g id="a_node4"><a xlink:href="classndt_1_1_bin_reader.html#abe942576a40e5581bb6d6e4b94a9046d" target="_top" xlink:title=" ">
<polygon fill="white" stroke="black" points="125.5,-50 125.5,-69 226.5,-69 226.5,-50 125.5,-50"/>
<text text-anchor="middle" x="176" y="-57" font-family="Helvetica,sans-Serif" font-size="10.00">ndt::BinReader::get</text>
</a>
</g>
</g>
<!-- Node1&#45;&gt;Node4 -->
<g id="edge3" class="edge"><title>Node1&#45;&gt;Node4</title>
<path fill="none" stroke="midnightblue" d="M83.3355,-59.5C93.3619,-59.5 104.304,-59.5 115.024,-59.5"/>
<polygon fill="midnightblue" stroke="midnightblue" points="115.198,-63.0001 125.198,-59.5 115.198,-56.0001 115.198,-63.0001"/>
</g>
<!-- Node7 -->
<g id="node7" class="node"><title>Node7</title>
<g id="a_node7"><a xlink:href="namespacendt.html#aff5aae17f9fa68f8d8d9d552c2aed652" target="_top" xlink:title=" ">
<polygon fill="white" stroke="black" points="146.5,-9 146.5,-28 205.5,-28 205.5,-9 146.5,-9"/>
<text text-anchor="middle" x="176" y="-16" font-family="Helvetica,sans-Serif" font-size="10.00">ndt::toNet</text>
</a>
</g>
</g>
<!-- Node1&#45;&gt;Node7 -->
<g id="edge6" class="edge"><title>Node1&#45;&gt;Node7</title>
<path fill="none" stroke="midnightblue" d="M73.2312,-49.9907C92.0663,-44.1625 116.339,-36.6516 136.456,-30.4269"/>
<polygon fill="midnightblue" stroke="midnightblue" points="137.731,-33.6961 146.249,-27.3964 135.662,-27.0089 137.731,-33.6961"/>
</g>
<!-- Node3 -->
<g id="node3" class="node"><title>Node3</title>
<g id="a_node3"><a xlink:href="classndt_1_1_address.html#ab40eccd53620a2883bd78cd51c745b1d" target="_top" xlink:title=" ">
<polygon fill="white" stroke="black" points="276.5,-88 276.5,-107 376.5,-107 376.5,-88 276.5,-88"/>
<text text-anchor="middle" x="326.5" y="-95" font-family="Helvetica,sans-Serif" font-size="10.00">ndt::Address::reset</text>
</a>
</g>
</g>
<!-- Node2&#45;&gt;Node3 -->
<g id="edge2" class="edge"><title>Node2&#45;&gt;Node3</title>
<path fill="none" stroke="midnightblue" d="M233.141,-97.5C243.847,-97.5 255.088,-97.5 265.897,-97.5"/>
<polygon fill="midnightblue" stroke="midnightblue" points="266.097,-101 276.097,-97.5 266.097,-94.0001 266.097,-101"/>
</g>
<!-- Node5 -->
<g id="node5" class="node"><title>Node5</title>
<g id="a_node5"><a xlink:href="namespacendt.html#ad4c1e716b25fd6e4ad568edd93a2e518" target="_top" xlink:title=" ">
<polygon fill="white" stroke="black" points="271,-50 271,-69 382,-69 382,-50 271,-50"/>
<text text-anchor="middle" x="326.5" y="-57" font-family="Helvetica,sans-Serif" font-size="10.00">ndt::make_error_code</text>
</a>
</g>
</g>
<!-- Node4&#45;&gt;Node5 -->
<g id="edge4" class="edge"><title>Node4&#45;&gt;Node5</title>
<path fill="none" stroke="midnightblue" d="M226.861,-59.5C237.699,-59.5 249.317,-59.5 260.639,-59.5"/>
<polygon fill="midnightblue" stroke="midnightblue" points="260.922,-63.0001 270.922,-59.5 260.922,-56.0001 260.922,-63.0001"/>
</g>
<!-- Node6 -->
<g id="node6" class="node"><title>Node6</title>
<g id="a_node6"><a xlink:href="namespacendt.html#afb00545aff91ded0f81e30a6dfde4608" target="_top" xlink:title=" ">
<polygon fill="white" stroke="black" points="420,-50 420,-69 566,-69 566,-50 420,-50"/>
<text text-anchor="middle" x="493" y="-57" font-family="Helvetica,sans-Serif" font-size="10.00">ndt::getAddressErrorCategory</text>
</a>
</g>
</g>
<!-- Node5&#45;&gt;Node6 -->
<g id="edge5" class="edge"><title>Node5&#45;&gt;Node6</title>
<path fill="none" stroke="midnightblue" d="M382.276,-59.5C391.13,-59.5 400.464,-59.5 409.798,-59.5"/>
<polygon fill="midnightblue" stroke="midnightblue" points="409.902,-63.0001 419.902,-59.5 409.902,-56.0001 409.902,-63.0001"/>
</g>
<!-- Node8 -->
<g id="node8" class="node"><title>Node8</title>
<g id="a_node8"><a xlink:href="classndt_1_1details_1_1_byte_order.html#a8e1bd472e0ebade5d2accb62318b6e18" target="_top" xlink:title=" ">
<polygon fill="white" stroke="black" points="269,-0.5 269,-30.5 384,-30.5 384,-0.5 269,-0.5"/>
<text text-anchor="start" x="277" y="-18.5" font-family="Helvetica,sans-Serif" font-size="10.00">ndt::details::ByteOrder</text>
<text text-anchor="middle" x="326.5" y="-7.5" font-family="Helvetica,sans-Serif" font-size="10.00">::toNet</text>
</a>
</g>
</g>
<!-- Node7&#45;&gt;Node8 -->
<g id="edge7" class="edge"><title>Node7&#45;&gt;Node8</title>
<path fill="none" stroke="midnightblue" d="M205.632,-17.9216C220.849,-17.6142 240.24,-17.2224 258.969,-16.8441"/>
<polygon fill="midnightblue" stroke="midnightblue" points="259.047,-20.3433 268.975,-16.6419 258.906,-13.3447 259.047,-20.3433"/>
</g>
</g>
</svg>
