<?xml version="1.0" encoding="UTF-8" standalone="no"?>
<!DOCTYPE svg PUBLIC "-//W3C//DTD SVG 1.1//EN"
 "http://www.w3.org/Graphics/SVG/1.1/DTD/svg11.dtd">
<!-- Generated by graphviz version 2.38.0 (20140413.2041)
 -->
<!-- Title: ndt::type_name Pages: 1 -->
<svg width="423pt" height="61pt"
 viewBox="0.00 0.00 423.00 61.00" xmlns="http://www.w3.org/2000/svg" xmlns:xlink="http://www.w3.org/1999/xlink">
<g id="graph0" class="graph" transform="scale(1 1) rotate(0) translate(4 57)">
<title>ndt::type_name</title>
<polygon fill="white" stroke="none" points="-4,4 -4,-57 419,-57 419,4 -4,4"/>
<!-- Node1 -->
<g id="node1" class="node"><title>Node1</title>
<g id="a_node1"><a xlink:title=" ">
<polygon fill="#bfbfbf" stroke="black" points="0,-28 0,-47 84,-47 84,-28 0,-28"/>
<text text-anchor="middle" x="42" y="-35" font-family="Helvetica,sans-Serif" font-size="10.00">ndt::type_name</text>
</a>
</g>
</g>
<!-- Node2 -->
<g id="node2" class="node"><title>Node2</title>
<g id="a_node2"><a xlink:href="namespacendt_1_1details.html#a7a025e6de923567470f192642ff1daf7" target="_top" xlink:title=" ">
<polygon fill="white" stroke="black" points="285,-22.5 285,-52.5 415,-52.5 415,-22.5 285,-22.5"/>
<text text-anchor="start" x="293" y="-40.5" font-family="Helvetica,sans-Serif" font-size="10.00">ndt::details::wrapped</text>
<text text-anchor="middle" x="350" y="-29.5" font-family="Helvetica,sans-Serif" font-size="10.00">_type_name_prefix_length</text>
</a>
</g>
</g>
<!-- Node1&#45;&gt;Node2 -->
<g id="edge1" class="edge"><title>Node1&#45;&gt;Node2</title>
<path fill="none" stroke="midnightblue" d="M84.1512,-39.3998C95.7427,-39.8543 108.363,-40.2734 120,-40.5 177.322,-41.6162 191.673,-41.3597 249,-40.5 257.363,-40.3746 266.119,-40.1902 274.823,-39.9734"/>
<polygon fill="midnightblue" stroke="midnightblue" points="275.086,-43.4678 284.99,-39.7058 274.902,-36.4703 275.086,-43.4678"/>
</g>
<!-- Node3 -->
<g id="node3" class="node"><title>Node3</title>
<g id="a_node3"><a xlink:href="namespacendt_1_1details.html#a707e8dde30afc68861e94d1580014fae" target="_top" xlink:title=" ">
<polygon fill="white" stroke="black" points="120,-0.5 120,-30.5 249,-30.5 249,-0.5 120,-0.5"/>
<text text-anchor="start" x="128" y="-18.5" font-family="Helvetica,sans-Serif" font-size="10.00">ndt::details::wrapped</text>
<text text-anchor="middle" x="184.5" y="-7.5" font-family="Helvetica,sans-Serif" font-size="10.00">_type_name_suffix_length</text>
</a>
</g>
</g>
<!-- Node1&#45;&gt;Node3 -->
<g id="edge2" class="edge"><title>Node1&#45;&gt;Node3</title>
<path fill="none" stroke="midnightblue" d="M84.0161,-31.0775C92.1962,-29.7967 101.02,-28.415 109.915,-27.0222"/>
<polygon fill="midnightblue" stroke="midnightblue" points="110.62,-30.4546 119.958,-25.4497 109.537,-23.5389 110.62,-30.4546"/>
</g>
<!-- Node3&#45;&gt;Node2 -->
<g id="edge3" class="edge"><title>Node3&#45;&gt;Node2</title>
<path fill="none" stroke="midnightblue" d="M249.182,-24.0688C257.624,-25.2048 266.337,-26.3772 274.936,-27.5342"/>
<polygon fill="midnightblue" stroke="midnightblue" points="274.577,-31.0173 284.954,-28.8822 275.51,-24.0798 274.577,-31.0173"/>
</g>
</g>
</svg>
