<?xml version="1.0" encoding="UTF-8" standalone="no"?>
<!DOCTYPE svg PUBLIC "-//W3C//DTD SVG 1.1//EN"
 "http://www.w3.org/Graphics/SVG/1.1/DTD/svg11.dtd">
<!-- Generated by graphviz version 2.38.0 (20140413.2041)
 -->
<!-- Title: ndt::deserializeStruct Pages: 1 -->
<svg width="719pt" height="116pt"
 viewBox="0.00 0.00 719.00 115.50" xmlns="http://www.w3.org/2000/svg" xmlns:xlink="http://www.w3.org/1999/xlink">
<g id="graph0" class="graph" transform="scale(1 1) rotate(0) translate(4 111.5)">
<title>ndt::deserializeStruct</title>
<polygon fill="white" stroke="none" points="-4,4 -4,-111.5 715,-111.5 715,4 -4,4"/>
<!-- Node1 -->
<g id="node1" class="node"><title>Node1</title>
<g id="a_node1"><a xlink:title=" ">
<polygon fill="#bfbfbf" stroke="black" points="0,-50 0,-69 109,-69 109,-50 0,-50"/>
<text text-anchor="middle" x="54.5" y="-57" font-family="Helvetica,sans-Serif" font-size="10.00">ndt::deserializeStruct</text>
</a>
</g>
</g>
<!-- Node2 -->
<g id="node2" class="node"><title>Node2</title>
<g id="a_node2"><a xlink:href="namespacendt.html#ab8891ed023a4bc139e70e0724c94d1b9" target="_top" xlink:title=" ">
<polygon fill="white" stroke="black" points="145,-50 145,-69 228,-69 228,-50 145,-50"/>
<text text-anchor="middle" x="186.5" y="-57" font-family="Helvetica,sans-Serif" font-size="10.00">ndt::deserialize</text>
</a>
</g>
</g>
<!-- Node1&#45;&gt;Node2 -->
<g id="edge1" class="edge"><title>Node1&#45;&gt;Node2</title>
<path fill="none" stroke="midnightblue" d="M109.127,-59.5C117.58,-59.5 126.298,-59.5 134.684,-59.5"/>
<polygon fill="midnightblue" stroke="midnightblue" points="134.71,-63.0001 144.71,-59.5 134.71,-56.0001 134.71,-63.0001"/>
</g>
<!-- Node3 -->
<g id="node3" class="node"><title>Node3</title>
<g id="a_node3"><a xlink:href="classndt_1_1_address.html#ae40f211c43c0d6a45b6e6728db27097b" target="_top" xlink:title=" ">
<polygon fill="white" stroke="black" points="264,-88 264,-107 378,-107 378,-88 264,-88"/>
<text text-anchor="middle" x="321" y="-95" font-family="Helvetica,sans-Serif" font-size="10.00">ndt::Address::Address</text>
</a>
</g>
</g>
<!-- Node2&#45;&gt;Node3 -->
<g id="edge2" class="edge"><title>Node2&#45;&gt;Node3</title>
<path fill="none" stroke="midnightblue" d="M220.935,-69.089C237.883,-73.9494 258.663,-79.9091 276.808,-85.1127"/>
<polygon fill="midnightblue" stroke="midnightblue" points="275.998,-88.5216 286.575,-87.9141 277.928,-81.7928 275.998,-88.5216"/>
</g>
<!-- Node5 -->
<g id="node5" class="node"><title>Node5</title>
<g id="a_node5"><a xlink:href="classndt_1_1_bin_reader.html#abe942576a40e5581bb6d6e4b94a9046d" target="_top" xlink:title=" ">
<polygon fill="white" stroke="black" points="270.5,-50 270.5,-69 371.5,-69 371.5,-50 270.5,-50"/>
<text text-anchor="middle" x="321" y="-57" font-family="Helvetica,sans-Serif" font-size="10.00">ndt::BinReader::get</text>
</a>
</g>
</g>
<!-- Node2&#45;&gt;Node5 -->
<g id="edge4" class="edge"><title>Node2&#45;&gt;Node5</title>
<path fill="none" stroke="midnightblue" d="M228.336,-59.5C238.362,-59.5 249.304,-59.5 260.024,-59.5"/>
<polygon fill="midnightblue" stroke="midnightblue" points="260.198,-63.0001 270.198,-59.5 260.198,-56.0001 260.198,-63.0001"/>
</g>
<!-- Node8 -->
<g id="node8" class="node"><title>Node8</title>
<g id="a_node8"><a xlink:href="namespacendt.html#aff5aae17f9fa68f8d8d9d552c2aed652" target="_top" xlink:title=" ">
<polygon fill="white" stroke="black" points="291.5,-9 291.5,-28 350.5,-28 350.5,-9 291.5,-9"/>
<text text-anchor="middle" x="321" y="-16" font-family="Helvetica,sans-Serif" font-size="10.00">ndt::toNet</text>
</a>
</g>
</g>
<!-- Node2&#45;&gt;Node8 -->
<g id="edge7" class="edge"><title>Node2&#45;&gt;Node8</title>
<path fill="none" stroke="midnightblue" d="M218.231,-49.9907C237.066,-44.1625 261.339,-36.6516 281.456,-30.4269"/>
<polygon fill="midnightblue" stroke="midnightblue" points="282.731,-33.6961 291.249,-27.3964 280.662,-27.0089 282.731,-33.6961"/>
</g>
<!-- Node4 -->
<g id="node4" class="node"><title>Node4</title>
<g id="a_node4"><a xlink:href="classndt_1_1_address.html#ab40eccd53620a2883bd78cd51c745b1d" target="_top" xlink:title=" ">
<polygon fill="white" stroke="black" points="421.5,-88 421.5,-107 521.5,-107 521.5,-88 421.5,-88"/>
<text text-anchor="middle" x="471.5" y="-95" font-family="Helvetica,sans-Serif" font-size="10.00">ndt::Address::reset</text>
</a>
</g>
</g>
<!-- Node3&#45;&gt;Node4 -->
<g id="edge3" class="edge"><title>Node3&#45;&gt;Node4</title>
<path fill="none" stroke="midnightblue" d="M378.141,-97.5C388.847,-97.5 400.088,-97.5 410.897,-97.5"/>
<polygon fill="midnightblue" stroke="midnightblue" points="411.097,-101 421.097,-97.5 411.097,-94.0001 411.097,-101"/>
</g>
<!-- Node6 -->
<g id="node6" class="node"><title>Node6</title>
<g id="a_node6"><a xlink:href="namespacendt.html#ad4c1e716b25fd6e4ad568edd93a2e518" target="_top" xlink:title=" ">
<polygon fill="white" stroke="black" points="416,-50 416,-69 527,-69 527,-50 416,-50"/>
<text text-anchor="middle" x="471.5" y="-57" font-family="Helvetica,sans-Serif" font-size="10.00">ndt::make_error_code</text>
</a>
</g>
</g>
<!-- Node5&#45;&gt;Node6 -->
<g id="edge5" class="edge"><title>Node5&#45;&gt;Node6</title>
<path fill="none" stroke="midnightblue" d="M371.861,-59.5C382.699,-59.5 394.317,-59.5 405.639,-59.5"/>
<polygon fill="midnightblue" stroke="midnightblue" points="405.922,-63.0001 415.922,-59.5 405.922,-56.0001 405.922,-63.0001"/>
</g>
<!-- Node7 -->
<g id="node7" class="node"><title>Node7</title>
<g id="a_node7"><a xlink:href="namespacendt.html#afb00545aff91ded0f81e30a6dfde4608" target="_top" xlink:title=" ">
<polygon fill="white" stroke="black" points="565,-50 565,-69 711,-69 711,-50 565,-50"/>
<text text-anchor="middle" x="638" y="-57" font-family="Helvetica,sans-Serif" font-size="10.00">ndt::getAddressErrorCategory</text>
</a>
</g>
</g>
<!-- Node6&#45;&gt;Node7 -->
<g id="edge6" class="edge"><title>Node6&#45;&gt;Node7</title>
<path fill="none" stroke="midnightblue" d="M527.276,-59.5C536.13,-59.5 545.464,-59.5 554.798,-59.5"/>
<polygon fill="midnightblue" stroke="midnightblue" points="554.902,-63.0001 564.902,-59.5 554.902,-56.0001 554.902,-63.0001"/>
</g>
<!-- Node9 -->
<g id="node9" class="node"><title>Node9</title>
<g id="a_node9"><a xlink:href="classndt_1_1details_1_1_byte_order.html#a8e1bd472e0ebade5d2accb62318b6e18" target="_top" xlink:title=" ">
<polygon fill="white" stroke="black" points="414,-0.5 414,-30.5 529,-30.5 529,-0.5 414,-0.5"/>
<text text-anchor="start" x="422" y="-18.5" font-family="Helvetica,sans-Serif" font-size="10.00">ndt::details::ByteOrder</text>
<text text-anchor="middle" x="471.5" y="-7.5" font-family="Helvetica,sans-Serif" font-size="10.00">::toNet</text>
</a>
</g>
</g>
<!-- Node8&#45;&gt;Node9 -->
<g id="edge8" class="edge"><title>Node8&#45;&gt;Node9</title>
<path fill="none" stroke="midnightblue" d="M350.632,-17.9216C365.849,-17.6142 385.24,-17.2224 403.969,-16.8441"/>
<polygon fill="midnightblue" stroke="midnightblue" points="404.047,-20.3433 413.975,-16.6419 403.906,-13.3447 404.047,-20.3433"/>
</g>
</g>
</svg>
