<?xml version="1.0" encoding="UTF-8" standalone="no"?>
<!DOCTYPE svg PUBLIC "-//W3C//DTD SVG 1.1//EN"
 "http://www.w3.org/Graphics/SVG/1.1/DTD/svg11.dtd">
<!-- Generated by graphviz version 2.38.0 (20140413.2041)
 -->
<!-- Title: ndt::throw_if_error Pages: 1 -->
<!--zoomable 424 -->
<svg id="main" version="1.1" xmlns="http://www.w3.org/2000/svg" xmlns:xlink="http://www.w3.org/1999/xlink" xml:space="preserve" onload="init(evt)">
<style type="text/css"><![CDATA[
.edge:hover path { stroke: red; }
.edge:hover polygon { stroke: red; fill: red; }
]]></style>
<script type="text/javascript"><![CDATA[
var edges = document.getElementsByTagName('g');
if (edges && edges.length) {
  for (var i=0;i<edges.length;i++) {
    if (edges[i].id.substr(0,4)=='edge') {
      edges[i].setAttribute('class','edge');
    }
  }
}
]]></script>
        <defs>
                <circle id="rim" cx="0" cy="0" r="7"/>
                <circle id="rim2" cx="0" cy="0" r="3.5"/>
                <g id="zoomPlus">
                        <use xlink:href="#rim" fill="#404040">
                                <set attributeName="fill" to="#808080" begin="zoomplus.mouseover" end="zoomplus.mouseout"/>
                        </use>
                        <path d="M-4,0h8M0,-4v8" fill="none" stroke="white" stroke-width="1.5" pointer-events="none"/>
                </g>
                <g id="zoomMin">
                        <use xlink:href="#rim" fill="#404040">
                                <set attributeName="fill" to="#808080" begin="zoomminus.mouseover" end="zoomminus.mouseout"/>
                        </use>
                        <path d="M-4,0h8" fill="none" stroke="white" stroke-width="1.5" pointer-events="none"/>
                </g>
                <g id="dirArrow">
                        <path fill="none" stroke="white" stroke-width="1.5" d="M0,-3.0v7 M-2.5,-0.5L0,-3.0L2.5,-0.5"/>
                </g>
               <g id="resetDef">
                       <use xlink:href="#rim2" fill="#404040">
                               <set attributeName="fill" to="#808080" begin="reset.mouseover" end="reset.mouseout"/>
                       </use>
               </g>
        </defs>

<script type="text/javascript">
var viewWidth = 576;
var viewHeight = 424;
var sectionId = 'dynsection-31';
</script>
<script xlink:href="svgpan.js"/>
<svg id="graph" class="graph">
<g id="viewport">
<title>ndt::throw_if_error</title>
<polygon fill="white" stroke="none" points="-4,4 -4,-419.738 572,-419.738 572,4 -4,4"/>
<!-- Node1 -->
<g id="node1" class="node"><title>Node1</title>
<g id="a_node1"><a xlink:title=" ">
<polygon fill="#bfbfbf" stroke="black" points="474,-202 474,-221 568,-221 568,-202 474,-202"/>
<text text-anchor="middle" x="521" y="-209" font-family="Helvetica,sans-Serif" font-size="10.00">ndt::throw_if_error</text>
</a>
</g>
</g>
<!-- Node2 -->
<g id="node2" class="node"><title>Node2</title>
<g id="a_node2"><a xlink:href="classndt_1_1_socket.html#a5b1fb8238de80b0ad69e63053e4da7b7" target="_top" xlink:title=" ">
<polygon fill="white" stroke="black" points="151,-392 151,-411 242,-411 242,-392 151,-392"/>
<text text-anchor="middle" x="196.5" y="-399" font-family="Helvetica,sans-Serif" font-size="10.00">ndt::Socket::bind</text>
</a>
</g>
</g>
<!-- Node1&#45;&gt;Node2 -->
<g id="edge1" class="edge"><title>Node1&#45;&gt;Node2</title>
<path fill="none" stroke="midnightblue" d="M516.975,-231.442C510.216,-268.331 490.163,-346.718 438,-382.5 379.803,-422.422 294.025,-418.022 242.186,-410.35"/>
<polygon fill="midnightblue" stroke="midnightblue" points="520.453,-231.862 518.667,-221.419 513.551,-230.697 520.453,-231.862"/>
</g>
<!-- Node4 -->
<g id="node4" class="node"><title>Node4</title>
<g id="a_node4"><a xlink:href="classndt_1_1_socket_base.html#a3b264551313b54b15ea79c3753a7bd30" target="_top" xlink:title=" ">
<polygon fill="white" stroke="black" points="304,-354 304,-373 423,-373 423,-354 304,-354"/>
<text text-anchor="middle" x="363.5" y="-361" font-family="Helvetica,sans-Serif" font-size="10.00">ndt::SocketBase::close</text>
</a>
</g>
</g>
<!-- Node1&#45;&gt;Node4 -->
<g id="edge3" class="edge"><title>Node1&#45;&gt;Node4</title>
<path fill="none" stroke="midnightblue" d="M513.469,-230.789C502.57,-259.984 477.854,-315.097 438,-344.5 432.697,-348.412 426.662,-351.521 420.383,-353.991"/>
<polygon fill="midnightblue" stroke="midnightblue" points="516.79,-231.896 516.861,-221.302 510.198,-229.539 516.79,-231.896"/>
</g>
<!-- Node6 -->
<g id="node6" class="node"><title>Node6</title>
<g id="a_node6"><a xlink:href="classndt_1_1_address.html#a7f2360db518d8721002e7fb7b4aa44ba" target="_top" xlink:title=" ">
<polygon fill="white" stroke="black" points="320.5,-316 320.5,-335 406.5,-335 406.5,-316 320.5,-316"/>
<text text-anchor="middle" x="363.5" y="-323" font-family="Helvetica,sans-Serif" font-size="10.00">ndt::Address::ip</text>
</a>
</g>
</g>
<!-- Node1&#45;&gt;Node6 -->
<g id="edge6" class="edge"><title>Node1&#45;&gt;Node6</title>
<path fill="none" stroke="midnightblue" d="M509.074,-229.896C495.258,-251.533 469.437,-286.972 438,-306.5 428.596,-312.342 417.449,-316.395 406.717,-319.206"/>
<polygon fill="midnightblue" stroke="midnightblue" points="512.112,-231.638 514.399,-221.293 506.16,-227.954 512.112,-231.638"/>
</g>
<!-- Node7 -->
<g id="node7" class="node"><title>Node7</title>
<g id="a_node7"><a xlink:href="classndt_1_1_address.html#a76b5fb0164f7ddc715f754819e7d9696" target="_top" xlink:title=" ">
<polygon fill="white" stroke="black" points="314.5,-278 314.5,-297 412.5,-297 412.5,-278 314.5,-278"/>
<text text-anchor="middle" x="363.5" y="-285" font-family="Helvetica,sans-Serif" font-size="10.00">ndt::Address::ipStr</text>
</a>
</g>
</g>
<!-- Node1&#45;&gt;Node7 -->
<g id="edge7" class="edge"><title>Node1&#45;&gt;Node7</title>
<path fill="none" stroke="midnightblue" d="M500.873,-227.75C484.974,-240.5 461.267,-257.823 438,-268.5 429.735,-272.293 420.585,-275.421 411.629,-277.968"/>
<polygon fill="midnightblue" stroke="midnightblue" points="503.337,-230.255 508.849,-221.208 498.898,-224.843 503.337,-230.255"/>
</g>
<!-- Node8 -->
<g id="node8" class="node"><title>Node8</title>
<g id="a_node8"><a xlink:href="classndt_1_1_address.html#a56ab570ba82f937c8b236e2cadf6d362" target="_top" xlink:title=" ">
<polygon fill="white" stroke="black" points="314.5,-240 314.5,-259 412.5,-259 412.5,-240 314.5,-240"/>
<text text-anchor="middle" x="363.5" y="-247" font-family="Helvetica,sans-Serif" font-size="10.00">ndt::Address::ipV4</text>
</a>
</g>
</g>
<!-- Node1&#45;&gt;Node8 -->
<g id="edge8" class="edge"><title>Node1&#45;&gt;Node8</title>
<path fill="none" stroke="midnightblue" d="M471.026,-223.468C449.235,-228.793 423.933,-234.976 403.457,-239.98"/>
<polygon fill="midnightblue" stroke="midnightblue" points="471.878,-226.863 480.761,-221.089 470.216,-220.063 471.878,-226.863"/>
</g>
<!-- Node9 -->
<g id="node9" class="node"><title>Node9</title>
<g id="a_node9"><a xlink:href="classndt_1_1_address.html#a128f4a10a90bffa0815fcd5869c6b834" target="_top" xlink:title=" ">
<polygon fill="white" stroke="black" points="314.5,-202 314.5,-221 412.5,-221 412.5,-202 314.5,-202"/>
<text text-anchor="middle" x="363.5" y="-209" font-family="Helvetica,sans-Serif" font-size="10.00">ndt::Address::ipV6</text>
</a>
</g>
</g>
<!-- Node1&#45;&gt;Node9 -->
<g id="edge9" class="edge"><title>Node1&#45;&gt;Node9</title>
<path fill="none" stroke="midnightblue" d="M463.597,-211.5C446.921,-211.5 428.824,-211.5 412.715,-211.5"/>
<polygon fill="midnightblue" stroke="midnightblue" points="463.766,-215 473.766,-211.5 463.766,-208 463.766,-215"/>
</g>
<!-- Node10 -->
<g id="node10" class="node"><title>Node10</title>
<g id="a_node10"><a xlink:href="classndt_1_1_socket_base.html#ad78892429dd1ead33f5ff60063c7c974" target="_top" xlink:title=" ">
<polygon fill="white" stroke="black" points="289,-164 289,-183 438,-183 438,-164 289,-164"/>
<text text-anchor="middle" x="363.5" y="-171" font-family="Helvetica,sans-Serif" font-size="10.00">ndt::SocketBase::nonBlocking</text>
</a>
</g>
</g>
<!-- Node1&#45;&gt;Node10 -->
<g id="edge10" class="edge"><title>Node1&#45;&gt;Node10</title>
<path fill="none" stroke="midnightblue" d="M471.026,-199.532C449.235,-194.207 423.933,-188.024 403.457,-183.02"/>
<polygon fill="midnightblue" stroke="midnightblue" points="470.216,-202.937 480.761,-201.911 471.878,-196.137 470.216,-202.937"/>
</g>
<!-- Node11 -->
<g id="node11" class="node"><title>Node11</title>
<g id="a_node11"><a xlink:href="classndt_1_1_socket.html#ab5c375a16dedc44d203e4fab662a1a85" target="_top" xlink:title=" ">
<polygon fill="white" stroke="black" points="149.5,-221 149.5,-240 243.5,-240 243.5,-221 149.5,-221"/>
<text text-anchor="middle" x="196.5" y="-228" font-family="Helvetica,sans-Serif" font-size="10.00">ndt::Socket::open</text>
</a>
</g>
</g>
<!-- Node1&#45;&gt;Node11 -->
<g id="edge11" class="edge"><title>Node1&#45;&gt;Node11</title>
<path fill="none" stroke="midnightblue" d="M502.809,-194.79C487.3,-180.968 463.126,-162.375 438,-154.5 374.809,-134.695 351.285,-132.007 289,-154.5 251.903,-167.897 219.228,-203.609 205.026,-220.88"/>
<polygon fill="midnightblue" stroke="midnightblue" points="500.763,-197.665 510.484,-201.88 505.513,-192.523 500.763,-197.665"/>
</g>
<!-- Node12 -->
<g id="node12" class="node"><title>Node12</title>
<g id="a_node12"><a xlink:href="classndt_1_1_socket_base.html#aa455ddb9a917960f098644fec488873d" target="_top" xlink:title=" ">
<polygon fill="white" stroke="black" points="296,-88 296,-107 431,-107 431,-88 296,-88"/>
<text text-anchor="middle" x="363.5" y="-95" font-family="Helvetica,sans-Serif" font-size="10.00">ndt::SocketBase::recvFrom</text>
</a>
</g>
</g>
<!-- Node1&#45;&gt;Node12 -->
<g id="edge13" class="edge"><title>Node1&#45;&gt;Node12</title>
<path fill="none" stroke="midnightblue" d="M508.003,-193.511C493.623,-173.265 467.713,-140.702 438,-121.5 428.417,-115.307 417.095,-110.581 406.245,-107.03"/>
<polygon fill="midnightblue" stroke="midnightblue" points="505.206,-195.619 513.771,-201.854 510.964,-191.638 505.206,-195.619"/>
</g>
<!-- Node14 -->
<g id="node14" class="node"><title>Node14</title>
<g id="a_node14"><a xlink:href="classndt_1_1_socket_base.html#a6a0407e91c88a1388b3cd86d5f7eda70" target="_top" xlink:title=" ">
<polygon fill="white" stroke="black" points="300,-50 300,-69 427,-69 427,-50 300,-50"/>
<text text-anchor="middle" x="363.5" y="-57" font-family="Helvetica,sans-Serif" font-size="10.00">ndt::SocketBase::sendTo</text>
</a>
</g>
</g>
<!-- Node1&#45;&gt;Node14 -->
<g id="edge15" class="edge"><title>Node1&#45;&gt;Node14</title>
<path fill="none" stroke="midnightblue" d="M513.469,-192.211C502.57,-163.016 477.854,-107.903 438,-78.5 432.697,-74.5876 426.662,-71.4787 420.383,-69.0087"/>
<polygon fill="midnightblue" stroke="midnightblue" points="510.198,-193.461 516.861,-201.698 516.79,-191.104 510.198,-193.461"/>
</g>
<!-- Node16 -->
<g id="node16" class="node"><title>Node16</title>
<g id="a_node16"><a xlink:href="classndt_1_1_address.html#abe5b967619059f2d8ed44ffe1f08835a" target="_top" xlink:title=" ">
<polygon fill="white" stroke="black" points="297.5,-0.5 297.5,-30.5 429.5,-30.5 429.5,-0.5 297.5,-0.5"/>
<text text-anchor="start" x="305.5" y="-18.5" font-family="Helvetica,sans-Serif" font-size="10.00">ndt::Address::throwIfInvalid</text>
<text text-anchor="middle" x="363.5" y="-7.5" font-family="Helvetica,sans-Serif" font-size="10.00">Family</text>
</a>
</g>
</g>
<!-- Node1&#45;&gt;Node16 -->
<g id="edge17" class="edge"><title>Node1&#45;&gt;Node16</title>
<path fill="none" stroke="midnightblue" d="M515.842,-191.762C507.389,-156.41 484.889,-82.105 438,-40.5 433.665,-36.6534 428.712,-33.3936 423.472,-30.6322"/>
<polygon fill="midnightblue" stroke="midnightblue" points="512.488,-192.798 518.106,-201.78 519.316,-191.255 512.488,-192.798"/>
</g>
<!-- Node3 -->
<g id="node3" class="node"><title>Node3</title>
<g id="a_node3"><a xlink:href="classndt_1_1_socket.html#a3197d960951387836cd2811f47f7606a" target="_top" xlink:title=" ">
<polygon fill="white" stroke="black" points="0,-354 0,-373 104,-373 104,-354 0,-354"/>
<text text-anchor="middle" x="52" y="-361" font-family="Helvetica,sans-Serif" font-size="10.00">ndt::Socket::Socket</text>
</a>
</g>
</g>
<!-- Node2&#45;&gt;Node3 -->
<g id="edge2" class="edge"><title>Node2&#45;&gt;Node3</title>
<path fill="none" stroke="midnightblue" d="M149.847,-389.326C130.142,-384.071 107.425,-378.013 88.9473,-373.086"/>
<polygon fill="midnightblue" stroke="midnightblue" points="148.977,-392.716 159.541,-391.911 150.781,-385.952 148.977,-392.716"/>
</g>
<!-- Node5 -->
<g id="node5" class="node"><title>Node5</title>
<g id="a_node5"><a xlink:href="classndt_1_1_socket.html#ada7325a27938e937b2143901c5e50c18" target="_top" xlink:title=" ">
<polygon fill="white" stroke="black" points="148.5,-354 148.5,-373 244.5,-373 244.5,-354 148.5,-354"/>
<text text-anchor="middle" x="196.5" y="-361" font-family="Helvetica,sans-Serif" font-size="10.00">ndt::Socket::close</text>
</a>
</g>
</g>
<!-- Node4&#45;&gt;Node5 -->
<g id="edge4" class="edge"><title>Node4&#45;&gt;Node5</title>
<path fill="none" stroke="midnightblue" d="M293.686,-363.5C277.145,-363.5 259.849,-363.5 244.558,-363.5"/>
<polygon fill="midnightblue" stroke="midnightblue" points="293.863,-367 303.863,-363.5 293.863,-360 293.863,-367"/>
</g>
<!-- Node5&#45;&gt;Node3 -->
<g id="edge5" class="edge"><title>Node5&#45;&gt;Node3</title>
<path fill="none" stroke="midnightblue" d="M138.324,-363.5C127.118,-363.5 115.429,-363.5 104.425,-363.5"/>
<polygon fill="midnightblue" stroke="midnightblue" points="138.445,-367 148.445,-363.5 138.445,-360 138.445,-367"/>
</g>
<!-- Node11&#45;&gt;Node3 -->
<g id="edge12" class="edge"><title>Node11&#45;&gt;Node3</title>
<path fill="none" stroke="midnightblue" d="M177.61,-247.197C147.531,-275.271 87.7446,-331.072 63.5399,-353.663"/>
<polygon fill="midnightblue" stroke="midnightblue" points="180.329,-249.447 185.252,-240.065 175.553,-244.33 180.329,-249.447"/>
</g>
<!-- Node13 -->
<g id="node13" class="node"><title>Node13</title>
<g id="a_node13"><a xlink:href="classndt_1_1_socket.html#ad3b91234a06b77202d907ffe96dd3bf6" target="_top" xlink:title=" ">
<polygon fill="white" stroke="black" points="140,-88 140,-107 253,-107 253,-88 140,-88"/>
<text text-anchor="middle" x="196.5" y="-95" font-family="Helvetica,sans-Serif" font-size="10.00">ndt::Socket::recvFrom</text>
</a>
</g>
</g>
<!-- Node12&#45;&gt;Node13 -->
<g id="edge14" class="edge"><title>Node12&#45;&gt;Node13</title>
<path fill="none" stroke="midnightblue" d="M285.78,-97.5C274.732,-97.5 263.545,-97.5 253.017,-97.5"/>
<polygon fill="midnightblue" stroke="midnightblue" points="285.864,-101 295.864,-97.5 285.864,-94.0001 285.864,-101"/>
</g>
<!-- Node15 -->
<g id="node15" class="node"><title>Node15</title>
<g id="a_node15"><a xlink:href="classndt_1_1_socket.html#a964b3606cf0ad98570b2462b65b98602" target="_top" xlink:title=" ">
<polygon fill="white" stroke="black" points="144.5,-50 144.5,-69 248.5,-69 248.5,-50 144.5,-50"/>
<text text-anchor="middle" x="196.5" y="-57" font-family="Helvetica,sans-Serif" font-size="10.00">ndt::Socket::sendTo</text>
</a>
</g>
</g>
<!-- Node14&#45;&gt;Node15 -->
<g id="edge16" class="edge"><title>Node14&#45;&gt;Node15</title>
<path fill="none" stroke="midnightblue" d="M289.265,-59.5C275.563,-59.5 261.516,-59.5 248.661,-59.5"/>
<polygon fill="midnightblue" stroke="midnightblue" points="289.65,-63.0001 299.65,-59.5 289.65,-56.0001 289.65,-63.0001"/>
</g>
</g>
</svg>
        <g id="navigator" transform="translate(0 0)" fill="#404254">
                <rect fill="#f2f5e9" fill-opacity="0.5" stroke="#606060" stroke-width=".5" x="0" y="0" width="60" height="60"/>
                <use id="zoomplus" xlink:href="#zoomPlus" x="17" y="9" onmousedown="handleZoom(evt,'in')"/>
                <use id="zoomminus" xlink:href="#zoomMin" x="42" y="9" onmousedown="handleZoom(evt,'out')"/>
                <use id="reset" xlink:href="#resetDef" x="30" y="36" onmousedown="handleReset()"/>
                <g id="arrowUp" xlink:href="#dirArrow" transform="translate(30 24)" onmousedown="handlePan(0,-1)">
                  <use xlink:href="#rim" fill="#404040">
                        <set attributeName="fill" to="#808080" begin="arrowUp.mouseover" end="arrowUp.mouseout"/>
                  </use>
                  <path fill="none" stroke="white" stroke-width="1.5" d="M0,-3.0v7 M-2.5,-0.5L0,-3.0L2.5,-0.5"/>
                </g>
                <g id="arrowRight" xlink:href="#dirArrow" transform="rotate(90) translate(36 -43)" onmousedown="handlePan(1,0)">
                  <use xlink:href="#rim" fill="#404040">
                        <set attributeName="fill" to="#808080" begin="arrowRight.mouseover" end="arrowRight.mouseout"/>
                  </use>
                  <path fill="none" stroke="white" stroke-width="1.5" d="M0,-3.0v7 M-2.5,-0.5L0,-3.0L2.5,-0.5"/>
                </g>
                <g id="arrowDown" xlink:href="#dirArrow" transform="rotate(180) translate(-30 -48)" onmousedown="handlePan(0,1)">
                  <use xlink:href="#rim" fill="#404040">
                        <set attributeName="fill" to="#808080" begin="arrowDown.mouseover" end="arrowDown.mouseout"/>
                  </use>
                  <path fill="none" stroke="white" stroke-width="1.5" d="M0,-3.0v7 M-2.5,-0.5L0,-3.0L2.5,-0.5"/>
                </g>
                <g id="arrowLeft" xlink:href="#dirArrow" transform="rotate(270) translate(-36 17)" onmousedown="handlePan(-1,0)">
                  <use xlink:href="#rim" fill="#404040">
                        <set attributeName="fill" to="#808080" begin="arrowLeft.mouseover" end="arrowLeft.mouseout"/>
                  </use>
                  <path fill="none" stroke="white" stroke-width="1.5" d="M0,-3.0v7 M-2.5,-0.5L0,-3.0L2.5,-0.5"/>
                </g>
        </g>
        <svg viewBox="0 0 15 15" width="100%" height="30px" preserveAspectRatio="xMaxYMin meet">
         <g id="arrow_out" transform="scale(0.3 0.3)">
          <a xlink:href="namespacendt_aa944f7db5d9dd6201e090a114718ef3b_icgraph_org.svg" target="_base">
           <rect id="button" ry="5" rx="5" y="6" x="6" height="38" width="38"
                fill="#f2f5e9" fill-opacity="0.5" stroke="#606060" stroke-width="1.0"/>
           <path id="arrow"
             d="M 11.500037,31.436501 C 11.940474,20.09759 22.043105,11.32322 32.158766,21.979434 L 37.068811,17.246167 C 37.068811,17.246167 37.088388,32 37.088388,32 L 22.160133,31.978069 C 22.160133,31.978069 26.997745,27.140456 26.997745,27.140456 C 18.528582,18.264221 13.291696,25.230495 11.500037,31.436501 z"
             style="fill:#404040;"/>
          </a>
         </g>
        </svg>
</svg>
