<?xml version="1.0" encoding="UTF-8" standalone="no"?>
<!DOCTYPE svg PUBLIC "-//W3C//DTD SVG 1.1//EN"
 "http://www.w3.org/Graphics/SVG/1.1/DTD/svg11.dtd">
<!-- Generated by graphviz version 2.38.0 (20140413.2041)
 -->
<!-- Title: ndt::utils::vlog Pages: 1 -->
<svg width="474pt" height="28pt"
 viewBox="0.00 0.00 474.00 28.00" xmlns="http://www.w3.org/2000/svg" xmlns:xlink="http://www.w3.org/1999/xlink">
<g id="graph0" class="graph" transform="scale(1 1) rotate(0) translate(4 24)">
<title>ndt::utils::vlog</title>
<polygon fill="white" stroke="none" points="-4,4 -4,-24 470,-24 470,4 -4,4"/>
<!-- Node1 -->
<g id="node1" class="node"><title>Node1</title>
<g id="a_node1"><a xlink:title=" ">
<polygon fill="#bfbfbf" stroke="black" points="389,-0.5 389,-19.5 466,-19.5 466,-0.5 389,-0.5"/>
<text text-anchor="middle" x="427.5" y="-7.5" font-family="Helvetica,sans-Serif" font-size="10.00">ndt::utils::vlog</text>
</a>
</g>
</g>
<!-- Node2 -->
<g id="node2" class="node"><title>Node2</title>
<g id="a_node2"><a xlink:href="namespacendt_1_1utils.html#a8da0062fdcd45cf535fbd64ee4bce7e1" target="_top" xlink:title=" ">
<polygon fill="white" stroke="black" points="280,-0.5 280,-19.5 353,-19.5 353,-0.5 280,-0.5"/>
<text text-anchor="middle" x="316.5" y="-7.5" font-family="Helvetica,sans-Serif" font-size="10.00">ndt::utils::log</text>
</a>
</g>
</g>
<!-- Node1&#45;&gt;Node2 -->
<g id="edge1" class="edge"><title>Node1&#45;&gt;Node2</title>
<path fill="none" stroke="midnightblue" d="M378.722,-10C370.166,-10 361.386,-10 353.243,-10"/>
<polygon fill="midnightblue" stroke="midnightblue" points="378.988,-13.5001 388.988,-10 378.988,-6.5001 378.988,-13.5001"/>
</g>
<!-- Node3 -->
<g id="node3" class="node"><title>Node3</title>
<g id="a_node3"><a xlink:href="namespacendt_1_1utils.html#a278a6d1ed5fd5da73c1ce34559282ebf" target="_top" xlink:title=" ">
<polygon fill="white" stroke="black" points="146,-0.5 146,-19.5 244,-19.5 244,-0.5 146,-0.5"/>
<text text-anchor="middle" x="195" y="-7.5" font-family="Helvetica,sans-Serif" font-size="10.00">ndt::utils::logIfError</text>
</a>
</g>
</g>
<!-- Node2&#45;&gt;Node3 -->
<g id="edge2" class="edge"><title>Node2&#45;&gt;Node3</title>
<path fill="none" stroke="midnightblue" d="M269.887,-10C261.417,-10 252.544,-10 244.005,-10"/>
<polygon fill="midnightblue" stroke="midnightblue" points="269.97,-13.5001 279.97,-10 269.97,-6.5001 269.97,-13.5001"/>
</g>
<!-- Node4 -->
<g id="node4" class="node"><title>Node4</title>
<g id="a_node4"><a xlink:href="namespacendt_1_1utils.html#a9c116a97d3af7137a8a299593543933e" target="_top" xlink:title=" ">
<polygon fill="white" stroke="black" points="0,-0.5 0,-19.5 110,-19.5 110,-0.5 0,-0.5"/>
<text text-anchor="middle" x="55" y="-7.5" font-family="Helvetica,sans-Serif" font-size="10.00">ndt::utils::handleError</text>
</a>
</g>
</g>
<!-- Node3&#45;&gt;Node4 -->
<g id="edge3" class="edge"><title>Node3&#45;&gt;Node4</title>
<path fill="none" stroke="midnightblue" d="M135.581,-10C127.141,-10 118.484,-10 110.133,-10"/>
<polygon fill="midnightblue" stroke="midnightblue" points="135.734,-13.5001 145.734,-10 135.734,-6.5001 135.734,-13.5001"/>
</g>
</g>
</svg>
