<?xml version="1.0" encoding="UTF-8" standalone="no"?>
<!DOCTYPE svg PUBLIC "-//W3C//DTD SVG 1.1//EN"
 "http://www.w3.org/Graphics/SVG/1.1/DTD/svg11.dtd">
<!-- Generated by graphviz version 2.38.0 (20140413.2041)
 -->
<!-- Title: ndt::swap Pages: 1 -->
<svg width="390pt" height="180pt"
 viewBox="0.00 0.00 390.00 180.00" xmlns="http://www.w3.org/2000/svg" xmlns:xlink="http://www.w3.org/1999/xlink">
<g id="graph0" class="graph" transform="scale(1 1) rotate(0) translate(4 176)">
<title>ndt::swap</title>
<polygon fill="white" stroke="none" points="-4,4 -4,-176 386,-176 386,4 -4,4"/>
<!-- Node1 -->
<g id="node1" class="node"><title>Node1</title>
<g id="a_node1"><a xlink:title=" ">
<polygon fill="#bfbfbf" stroke="black" points="323,-76.5 323,-95.5 382,-95.5 382,-76.5 323,-76.5"/>
<text text-anchor="middle" x="352.5" y="-83.5" font-family="Helvetica,sans-Serif" font-size="10.00">ndt::swap</text>
</a>
</g>
</g>
<!-- Node2 -->
<g id="node2" class="node"><title>Node2</title>
<g id="a_node2"><a xlink:href="classndt_1_1_address.html#ace9053d5d6cec0f480c66194e887dd1e" target="_top" xlink:title=" ">
<polygon fill="white" stroke="black" points="161.5,-152.5 161.5,-171.5 275.5,-171.5 275.5,-152.5 161.5,-152.5"/>
<text text-anchor="middle" x="218.5" y="-159.5" font-family="Helvetica,sans-Serif" font-size="10.00">ndt::Address::Address</text>
</a>
</g>
</g>
<!-- Node1&#45;&gt;Node2 -->
<g id="edge1" class="edge"><title>Node1&#45;&gt;Node2</title>
<path fill="none" stroke="midnightblue" d="M336.21,-103.171C324.035,-115.866 305.944,-132.674 287,-143 279.945,-146.846 272.041,-149.971 264.195,-152.492"/>
<polygon fill="midnightblue" stroke="midnightblue" points="339.064,-105.241 343.306,-95.5323 333.936,-100.477 339.064,-105.241"/>
</g>
<!-- Node3 -->
<g id="node3" class="node"><title>Node3</title>
<g id="a_node3"><a xlink:href="classndt_1_1_address.html#a5cdb3b6dc180bfe42aad04f965b62033" target="_top" xlink:title=" ">
<polygon fill="white" stroke="black" points="159,-114.5 159,-133.5 278,-133.5 278,-114.5 159,-114.5"/>
<text text-anchor="middle" x="218.5" y="-121.5" font-family="Helvetica,sans-Serif" font-size="10.00">ndt::Address::operator=</text>
</a>
</g>
</g>
<!-- Node1&#45;&gt;Node3 -->
<g id="edge2" class="edge"><title>Node1&#45;&gt;Node3</title>
<path fill="none" stroke="midnightblue" d="M313.142,-97.3821C304.546,-99.9098 295.466,-102.562 287,-105 276.237,-108.1 264.493,-111.426 253.862,-114.414"/>
<polygon fill="midnightblue" stroke="midnightblue" points="314.343,-100.677 322.945,-94.4922 312.363,-93.9628 314.343,-100.677"/>
</g>
<!-- Node4 -->
<g id="node4" class="node"><title>Node4</title>
<g id="a_node4"><a xlink:href="class_fast_pimpl.html#a5a84fab6500625b7f80005b9fdba775a" target="_top" xlink:title=" ">
<polygon fill="white" stroke="black" points="164.5,-76.5 164.5,-95.5 272.5,-95.5 272.5,-76.5 164.5,-76.5"/>
<text text-anchor="middle" x="218.5" y="-83.5" font-family="Helvetica,sans-Serif" font-size="10.00">FastPimpl::operator=</text>
</a>
</g>
</g>
<!-- Node1&#45;&gt;Node4 -->
<g id="edge3" class="edge"><title>Node1&#45;&gt;Node4</title>
<path fill="none" stroke="midnightblue" d="M312.726,-86C300.156,-86 285.987,-86 272.562,-86"/>
<polygon fill="midnightblue" stroke="midnightblue" points="312.858,-89.5001 322.858,-86 312.858,-82.5001 312.858,-89.5001"/>
</g>
<!-- Node5 -->
<g id="node5" class="node"><title>Node5</title>
<g id="a_node5"><a xlink:href="classndt_1_1_socket.html#a515c48cf208f74ef56f736bb32670194" target="_top" xlink:title=" ">
<polygon fill="white" stroke="black" points="0,-19.5 0,-38.5 114,-38.5 114,-19.5 0,-19.5"/>
<text text-anchor="middle" x="57" y="-26.5" font-family="Helvetica,sans-Serif" font-size="10.00">ndt::Socket::operator=</text>
</a>
</g>
</g>
<!-- Node1&#45;&gt;Node5 -->
<g id="edge4" class="edge"><title>Node1&#45;&gt;Node5</title>
<path fill="none" stroke="midnightblue" d="M313.077,-73.8473C304.543,-71.3822 295.505,-68.9507 287,-67 228.668,-53.6213 160.954,-42.9773 114.371,-36.3972"/>
<polygon fill="midnightblue" stroke="midnightblue" points="312.219,-77.2435 322.801,-76.7298 314.208,-70.5321 312.219,-77.2435"/>
</g>
<!-- Node6 -->
<g id="node6" class="node"><title>Node6</title>
<g id="a_node6"><a xlink:href="classndt_1_1_socket_base.html#a2315d431b31a2a7572045d8c46f7e3bf" target="_top" xlink:title=" ">
<polygon fill="white" stroke="black" points="150,-0.5 150,-19.5 287,-19.5 287,-0.5 150,-0.5"/>
<text text-anchor="middle" x="218.5" y="-7.5" font-family="Helvetica,sans-Serif" font-size="10.00">ndt::SocketBase::operator=</text>
</a>
</g>
</g>
<!-- Node1&#45;&gt;Node6 -->
<g id="edge5" class="edge"><title>Node1&#45;&gt;Node6</title>
<path fill="none" stroke="midnightblue" d="M334.452,-69.5697C322.079,-58.3475 304.505,-43.7933 287,-34 276.58,-28.1705 264.483,-23.3382 253.431,-19.5748"/>
<polygon fill="midnightblue" stroke="midnightblue" points="332.071,-72.1351 341.778,-76.3795 336.836,-67.0078 332.071,-72.1351"/>
</g>
<!-- Node6&#45;&gt;Node5 -->
<g id="edge6" class="edge"><title>Node6&#45;&gt;Node5</title>
<path fill="none" stroke="midnightblue" d="M139.765,-19.2599C131.135,-20.288 122.473,-21.3198 114.185,-22.3072"/>
<polygon fill="midnightblue" stroke="midnightblue" points="140.342,-22.7161 149.858,-18.0577 139.514,-15.7652 140.342,-22.7161"/>
</g>
</g>
</svg>
