<?xml version="1.0" encoding="UTF-8" standalone="no"?>
<!DOCTYPE svg PUBLIC "-//W3C//DTD SVG 1.1//EN"
 "http://www.w3.org/Graphics/SVG/1.1/DTD/svg11.dtd">
<!-- Generated by graphviz version 2.38.0 (20140413.2041)
 -->
<!-- Title: ndt::details::concatenate_arrays Pages: 1 -->
<svg width="292pt" height="78pt"
 viewBox="0.00 0.00 292.00 77.50" xmlns="http://www.w3.org/2000/svg" xmlns:xlink="http://www.w3.org/1999/xlink">
<g id="graph0" class="graph" transform="scale(1 1) rotate(0) translate(4 73.5)">
<title>ndt::details::concatenate_arrays</title>
<polygon fill="white" stroke="none" points="-4,4 -4,-73.5 288,-73.5 288,4 -4,4"/>
<!-- Node1 -->
<g id="node1" class="node"><title>Node1</title>
<g id="a_node1"><a xlink:title=" ">
<polygon fill="#bfbfbf" stroke="black" points="160,-17 160,-47 284,-47 284,-17 160,-17"/>
<text text-anchor="start" x="168" y="-35" font-family="Helvetica,sans-Serif" font-size="10.00">ndt::details::concatenate</text>
<text text-anchor="middle" x="222" y="-24" font-family="Helvetica,sans-Serif" font-size="10.00">_arrays</text>
</a>
</g>
</g>
<!-- Node2 -->
<g id="node2" class="node"><title>Node2</title>
<g id="a_node2"><a xlink:href="namespacendt_1_1details.html#a9b819c7778fd46d8ef447ab49e1874bc" target="_top" xlink:title=" ">
<polygon fill="white" stroke="black" points="0,-39 0,-69 124,-69 124,-39 0,-39"/>
<text text-anchor="start" x="8" y="-57" font-family="Helvetica,sans-Serif" font-size="10.00">ndt::details::concatenate</text>
<text text-anchor="middle" x="62" y="-46" font-family="Helvetica,sans-Serif" font-size="10.00">_arrays</text>
</a>
</g>
</g>
<!-- Node1&#45;&gt;Node2 -->
<g id="edge1" class="edge"><title>Node1&#45;&gt;Node2</title>
<path fill="none" stroke="midnightblue" d="M149.914,-41.898C141.327,-43.0937 132.613,-44.307 124.185,-45.4806"/>
<polygon fill="midnightblue" stroke="midnightblue" points="150.491,-45.3515 159.913,-40.5058 149.526,-38.4184 150.491,-45.3515"/>
</g>
<!-- Node3 -->
<g id="node3" class="node"><title>Node3</title>
<g id="a_node3"><a xlink:href="namespacendt.html#accbd7ec5ca53381af27055897954e158" target="_top" xlink:title=" ">
<polygon fill="white" stroke="black" points="1,-0.5 1,-19.5 123,-19.5 123,-0.5 1,-0.5"/>
<text text-anchor="middle" x="62" y="-7.5" font-family="Helvetica,sans-Serif" font-size="10.00">ndt::concatenate_arrays</text>
</a>
</g>
</g>
<!-- Node1&#45;&gt;Node3 -->
<g id="edge2" class="edge"><title>Node1&#45;&gt;Node3</title>
<path fill="none" stroke="midnightblue" d="M149.904,-22.1006C140.966,-20.856 131.891,-19.5924 123.144,-18.3745"/>
<polygon fill="midnightblue" stroke="midnightblue" points="149.526,-25.5816 159.913,-23.4942 150.491,-18.6485 149.526,-25.5816"/>
</g>
</g>
</svg>
