<?xml version="1.0" encoding="UTF-8" standalone="no"?>
<!DOCTYPE svg PUBLIC "-//W3C//DTD SVG 1.1//EN"
 "http://www.w3.org/Graphics/SVG/1.1/DTD/svg11.dtd">
<!-- Generated by graphviz version 2.38.0 (20140413.2041)
 -->
<!-- Title: ndt::utils::to_underlying Pages: 1 -->
<svg width="425pt" height="127pt"
 viewBox="0.00 0.00 425.00 127.00" xmlns="http://www.w3.org/2000/svg" xmlns:xlink="http://www.w3.org/1999/xlink">
<g id="graph0" class="graph" transform="scale(1 1) rotate(0) translate(4 123)">
<title>ndt::utils::to_underlying</title>
<polygon fill="white" stroke="none" points="-4,4 -4,-123 421,-123 421,4 -4,4"/>
<!-- Node1 -->
<g id="node1" class="node"><title>Node1</title>
<g id="a_node1"><a xlink:title=" ">
<polygon fill="#bfbfbf" stroke="black" points="299,-50 299,-69 417,-69 417,-50 299,-50"/>
<text text-anchor="middle" x="358" y="-57" font-family="Helvetica,sans-Serif" font-size="10.00">ndt::utils::to_underlying</text>
</a>
</g>
</g>
<!-- Node2 -->
<g id="node2" class="node"><title>Node2</title>
<g id="a_node2"><a xlink:href="classndt_1_1_packet_handlers.html#ad4a727d34b9077111ef69982b7c10a2b" target="_top" xlink:title=" ">
<polygon fill="white" stroke="black" points="144.5,-88.5 144.5,-118.5 255.5,-118.5 255.5,-88.5 144.5,-88.5"/>
<text text-anchor="start" x="152.5" y="-106.5" font-family="Helvetica,sans-Serif" font-size="10.00">ndt::PacketHandlers</text>
<text text-anchor="middle" x="200" y="-95.5" font-family="Helvetica,sans-Serif" font-size="10.00">::createHandlersArray</text>
</a>
</g>
</g>
<!-- Node1&#45;&gt;Node2 -->
<g id="edge1" class="edge"><title>Node1&#45;&gt;Node2</title>
<path fill="none" stroke="midnightblue" d="M313.349,-71.8118C295.063,-76.9694 273.629,-83.0148 254.414,-88.4346"/>
<polygon fill="midnightblue" stroke="midnightblue" points="314.476,-75.1306 323.15,-69.0473 312.576,-68.3934 314.476,-75.1306"/>
</g>
<!-- Node3 -->
<g id="node3" class="node"><title>Node3</title>
<g id="a_node3"><a xlink:href="classndt_1_1_bin_reader.html#a75d45d63f869285103db0289a2b9463a" target="_top" xlink:title=" ">
<polygon fill="white" stroke="black" points="137,-50 137,-69 263,-69 263,-50 137,-50"/>
<text text-anchor="middle" x="200" y="-57" font-family="Helvetica,sans-Serif" font-size="10.00">ndt::BinReader::getEnum</text>
</a>
</g>
</g>
<!-- Node1&#45;&gt;Node3 -->
<g id="edge2" class="edge"><title>Node1&#45;&gt;Node3</title>
<path fill="none" stroke="midnightblue" d="M288.637,-59.5C280.128,-59.5 271.464,-59.5 263.058,-59.5"/>
<polygon fill="midnightblue" stroke="midnightblue" points="288.911,-63.0001 298.911,-59.5 288.911,-56.0001 288.911,-63.0001"/>
</g>
<!-- Node5 -->
<g id="node5" class="node"><title>Node5</title>
<g id="a_node5"><a xlink:href="classndt_1_1_packet_handlers.html#af437e71797e66d54ec5458cb8c46e315" target="_top" xlink:title=" ">
<polygon fill="white" stroke="black" points="147.5,-0.5 147.5,-30.5 252.5,-30.5 252.5,-0.5 147.5,-0.5"/>
<text text-anchor="start" x="155.5" y="-18.5" font-family="Helvetica,sans-Serif" font-size="10.00">ndt::PacketHandlers</text>
<text text-anchor="middle" x="200" y="-7.5" font-family="Helvetica,sans-Serif" font-size="10.00">::operator()</text>
</a>
</g>
</g>
<!-- Node1&#45;&gt;Node5 -->
<g id="edge4" class="edge"><title>Node1&#45;&gt;Node5</title>
<path fill="none" stroke="midnightblue" d="M313.338,-47.185C294.474,-41.8644 272.262,-35.5994 252.59,-30.0511"/>
<polygon fill="midnightblue" stroke="midnightblue" points="312.576,-50.6066 323.15,-49.9527 314.476,-43.8694 312.576,-50.6066"/>
</g>
<!-- Node4 -->
<g id="node4" class="node"><title>Node4</title>
<g id="a_node4"><a xlink:href="classndt_1_1_bin_reader.html#a1b8c7c205714a42066b241f560112284" target="_top" xlink:title=" ">
<polygon fill="white" stroke="black" points="0,-50 0,-69 101,-69 101,-50 0,-50"/>
<text text-anchor="middle" x="50.5" y="-57" font-family="Helvetica,sans-Serif" font-size="10.00">ndt::BinReader::get</text>
</a>
</g>
</g>
<!-- Node3&#45;&gt;Node4 -->
<g id="edge3" class="edge"><title>Node3&#45;&gt;Node4</title>
<path fill="none" stroke="midnightblue" d="M126.706,-59.5C118.01,-59.5 109.286,-59.5 101.019,-59.5"/>
<polygon fill="midnightblue" stroke="midnightblue" points="126.874,-63.0001 136.874,-59.5 126.874,-56.0001 126.874,-63.0001"/>
</g>
</g>
</svg>
