<?xml version="1.0" encoding="UTF-8" standalone="no"?>
<!DOCTYPE svg PUBLIC "-//W3C//DTD SVG 1.1//EN"
 "http://www.w3.org/Graphics/SVG/1.1/DTD/svg11.dtd">
<!-- Generated by graphviz version 2.38.0 (20140413.2041)
 -->
<!-- Title: ndt::deserialize Pages: 1 -->
<svg width="834pt" height="104pt"
 viewBox="0.00 0.00 834.00 104.00" xmlns="http://www.w3.org/2000/svg" xmlns:xlink="http://www.w3.org/1999/xlink">
<g id="graph0" class="graph" transform="scale(1 1) rotate(0) translate(4 100)">
<title>ndt::deserialize</title>
<polygon fill="white" stroke="none" points="-4,4 -4,-100 830,-100 830,4 -4,4"/>
<!-- Node1 -->
<g id="node1" class="node"><title>Node1</title>
<g id="a_node1"><a xlink:title=" ">
<polygon fill="#bfbfbf" stroke="black" points="0,-38.5 0,-57.5 83,-57.5 83,-38.5 0,-38.5"/>
<text text-anchor="middle" x="41.5" y="-45.5" font-family="Helvetica,sans-Serif" font-size="10.00">ndt::deserialize</text>
</a>
</g>
</g>
<!-- Node2 -->
<g id="node2" class="node"><title>Node2</title>
<g id="a_node2"><a xlink:href="namespacendt.html#a9f58b21d1594e31cdbd6aa8c7c2ad34d" target="_top" xlink:title=" ">
<polygon fill="white" stroke="black" points="119,-38.5 119,-57.5 228,-57.5 228,-38.5 119,-38.5"/>
<text text-anchor="middle" x="173.5" y="-45.5" font-family="Helvetica,sans-Serif" font-size="10.00">ndt::deserializeStruct</text>
</a>
</g>
</g>
<!-- Node1&#45;&gt;Node2 -->
<g id="edge1" class="edge"><title>Node1&#45;&gt;Node2</title>
<path fill="none" stroke="midnightblue" d="M83.2761,-48C91.4111,-48 100.137,-48 108.831,-48"/>
<polygon fill="midnightblue" stroke="midnightblue" points="108.985,-51.5001 118.985,-48 108.985,-44.5001 108.985,-51.5001"/>
</g>
<!-- Node3 -->
<g id="node3" class="node"><title>Node3</title>
<g id="a_node3"><a xlink:href="namespacendt.html#ab8891ed023a4bc139e70e0724c94d1b9" target="_top" xlink:title=" ">
<polygon fill="white" stroke="black" points="264,-38.5 264,-57.5 347,-57.5 347,-38.5 264,-38.5"/>
<text text-anchor="middle" x="305.5" y="-45.5" font-family="Helvetica,sans-Serif" font-size="10.00">ndt::deserialize</text>
</a>
</g>
</g>
<!-- Node2&#45;&gt;Node3 -->
<g id="edge2" class="edge"><title>Node2&#45;&gt;Node3</title>
<path fill="none" stroke="midnightblue" d="M228.127,-48C236.58,-48 245.298,-48 253.684,-48"/>
<polygon fill="midnightblue" stroke="midnightblue" points="253.71,-51.5001 263.71,-48 253.71,-44.5001 253.71,-51.5001"/>
</g>
<!-- Node4 -->
<g id="node4" class="node"><title>Node4</title>
<g id="a_node4"><a xlink:href="classndt_1_1_address.html#ae40f211c43c0d6a45b6e6728db27097b" target="_top" xlink:title=" ">
<polygon fill="white" stroke="black" points="383,-76.5 383,-95.5 497,-95.5 497,-76.5 383,-76.5"/>
<text text-anchor="middle" x="440" y="-83.5" font-family="Helvetica,sans-Serif" font-size="10.00">ndt::Address::Address</text>
</a>
</g>
</g>
<!-- Node3&#45;&gt;Node4 -->
<g id="edge3" class="edge"><title>Node3&#45;&gt;Node4</title>
<path fill="none" stroke="midnightblue" d="M339.935,-57.589C356.883,-62.4494 377.663,-68.4091 395.808,-73.6127"/>
<polygon fill="midnightblue" stroke="midnightblue" points="394.998,-77.0216 405.575,-76.4141 396.928,-70.2928 394.998,-77.0216"/>
</g>
<!-- Node6 -->
<g id="node6" class="node"><title>Node6</title>
<g id="a_node6"><a xlink:href="classndt_1_1_bin_reader.html#abe942576a40e5581bb6d6e4b94a9046d" target="_top" xlink:title=" ">
<polygon fill="white" stroke="black" points="389.5,-38.5 389.5,-57.5 490.5,-57.5 490.5,-38.5 389.5,-38.5"/>
<text text-anchor="middle" x="440" y="-45.5" font-family="Helvetica,sans-Serif" font-size="10.00">ndt::BinReader::get</text>
</a>
</g>
</g>
<!-- Node3&#45;&gt;Node6 -->
<g id="edge5" class="edge"><title>Node3&#45;&gt;Node6</title>
<path fill="none" stroke="midnightblue" d="M347.336,-48C357.362,-48 368.304,-48 379.024,-48"/>
<polygon fill="midnightblue" stroke="midnightblue" points="379.198,-51.5001 389.198,-48 379.198,-44.5001 379.198,-51.5001"/>
</g>
<!-- Node9 -->
<g id="node9" class="node"><title>Node9</title>
<g id="a_node9"><a xlink:href="namespacendt.html#a98d1fa5159a6cdd4cbbc87ee249b912a" target="_top" xlink:title=" ">
<polygon fill="white" stroke="black" points="410.5,-0.5 410.5,-19.5 469.5,-19.5 469.5,-0.5 410.5,-0.5"/>
<text text-anchor="middle" x="440" y="-7.5" font-family="Helvetica,sans-Serif" font-size="10.00">ndt::toNet</text>
</a>
</g>
</g>
<!-- Node3&#45;&gt;Node9 -->
<g id="edge8" class="edge"><title>Node3&#45;&gt;Node9</title>
<path fill="none" stroke="midnightblue" d="M339.935,-38.411C358.346,-33.1311 381.279,-26.554 400.442,-21.0581"/>
<polygon fill="midnightblue" stroke="midnightblue" points="401.428,-24.4165 410.076,-18.2952 399.498,-17.6877 401.428,-24.4165"/>
</g>
<!-- Node5 -->
<g id="node5" class="node"><title>Node5</title>
<g id="a_node5"><a xlink:href="classndt_1_1_address.html#ab40eccd53620a2883bd78cd51c745b1d" target="_top" xlink:title=" ">
<polygon fill="white" stroke="black" points="538.5,-76.5 538.5,-95.5 638.5,-95.5 638.5,-76.5 538.5,-76.5"/>
<text text-anchor="middle" x="588.5" y="-83.5" font-family="Helvetica,sans-Serif" font-size="10.00">ndt::Address::reset</text>
</a>
</g>
</g>
<!-- Node4&#45;&gt;Node5 -->
<g id="edge4" class="edge"><title>Node4&#45;&gt;Node5</title>
<path fill="none" stroke="midnightblue" d="M497.222,-86C507.389,-86 518.019,-86 528.269,-86"/>
<polygon fill="midnightblue" stroke="midnightblue" points="528.361,-89.5001 538.361,-86 528.361,-82.5001 528.361,-89.5001"/>
</g>
<!-- Node7 -->
<g id="node7" class="node"><title>Node7</title>
<g id="a_node7"><a xlink:href="namespacendt.html#ad4c1e716b25fd6e4ad568edd93a2e518" target="_top" xlink:title=" ">
<polygon fill="white" stroke="black" points="533,-38.5 533,-57.5 644,-57.5 644,-38.5 533,-38.5"/>
<text text-anchor="middle" x="588.5" y="-45.5" font-family="Helvetica,sans-Serif" font-size="10.00">ndt::make_error_code</text>
</a>
</g>
</g>
<!-- Node6&#45;&gt;Node7 -->
<g id="edge6" class="edge"><title>Node6&#45;&gt;Node7</title>
<path fill="none" stroke="midnightblue" d="M490.598,-48C500.915,-48 511.932,-48 522.703,-48"/>
<polygon fill="midnightblue" stroke="midnightblue" points="522.923,-51.5001 532.923,-48 522.923,-44.5001 522.923,-51.5001"/>
</g>
<!-- Node8 -->
<g id="node8" class="node"><title>Node8</title>
<g id="a_node8"><a xlink:href="namespacendt.html#afb00545aff91ded0f81e30a6dfde4608" target="_top" xlink:title=" ">
<polygon fill="white" stroke="black" points="680,-38.5 680,-57.5 826,-57.5 826,-38.5 680,-38.5"/>
<text text-anchor="middle" x="753" y="-45.5" font-family="Helvetica,sans-Serif" font-size="10.00">ndt::getAddressErrorCategory</text>
</a>
</g>
</g>
<!-- Node7&#45;&gt;Node8 -->
<g id="edge7" class="edge"><title>Node7&#45;&gt;Node8</title>
<path fill="none" stroke="midnightblue" d="M644.062,-48C652.346,-48 661.046,-48 669.762,-48"/>
<polygon fill="midnightblue" stroke="midnightblue" points="669.976,-51.5001 679.976,-48 669.976,-44.5001 669.976,-51.5001"/>
</g>
<!-- Node10 -->
<g id="node10" class="node"><title>Node10</title>
<g id="a_node10"><a xlink:href="namespacendt.html#a95df39eaa7d87a9005500419f320d650" target="_top" xlink:title=" ">
<polygon fill="white" stroke="black" points="556.5,-0.5 556.5,-19.5 620.5,-19.5 620.5,-0.5 556.5,-0.5"/>
<text text-anchor="middle" x="588.5" y="-7.5" font-family="Helvetica,sans-Serif" font-size="10.00">ndt::bswap</text>
</a>
</g>
</g>
<!-- Node9&#45;&gt;Node10 -->
<g id="edge9" class="edge"><title>Node9&#45;&gt;Node10</title>
<path fill="none" stroke="midnightblue" d="M469.594,-10C491.453,-10 521.89,-10 546.364,-10"/>
<polygon fill="midnightblue" stroke="midnightblue" points="546.445,-13.5001 556.445,-10 546.445,-6.5001 546.445,-13.5001"/>
</g>
</g>
</svg>
