<?xml version="1.0" encoding="UTF-8" standalone="no"?>
<!DOCTYPE svg PUBLIC "-//W3C//DTD SVG 1.1//EN"
 "http://www.w3.org/Graphics/SVG/1.1/DTD/svg11.dtd">
<!-- Generated by graphviz version 2.38.0 (20140413.2041)
 -->
<!-- Title: ndt::deserialize Pages: 1 -->
<svg width="693pt" height="116pt"
 viewBox="0.00 0.00 693.00 115.50" xmlns="http://www.w3.org/2000/svg" xmlns:xlink="http://www.w3.org/1999/xlink">
<g id="graph0" class="graph" transform="scale(1 1) rotate(0) translate(4 111.5)">
<title>ndt::deserialize</title>
<polygon fill="white" stroke="none" points="-4,4 -4,-111.5 689,-111.5 689,4 -4,4"/>
<!-- Node1 -->
<g id="node1" class="node"><title>Node1</title>
<g id="a_node1"><a xlink:title=" ">
<polygon fill="#bfbfbf" stroke="black" points="0,-50 0,-69 83,-69 83,-50 0,-50"/>
<text text-anchor="middle" x="41.5" y="-57" font-family="Helvetica,sans-Serif" font-size="10.00">ndt::deserialize</text>
</a>
</g>
</g>
<!-- Node2 -->
<g id="node2" class="node"><title>Node2</title>
<g id="a_node2"><a xlink:href="namespacendt.html#ab8891ed023a4bc139e70e0724c94d1b9" target="_top" xlink:title=" ">
<polygon fill="white" stroke="black" points="119,-50 119,-69 202,-69 202,-50 119,-50"/>
<text text-anchor="middle" x="160.5" y="-57" font-family="Helvetica,sans-Serif" font-size="10.00">ndt::deserialize</text>
</a>
</g>
</g>
<!-- Node1&#45;&gt;Node2 -->
<g id="edge1" class="edge"><title>Node1&#45;&gt;Node2</title>
<path fill="none" stroke="midnightblue" d="M83.0926,-59.5C91.3509,-59.5 100.136,-59.5 108.698,-59.5"/>
<polygon fill="midnightblue" stroke="midnightblue" points="108.979,-63.0001 118.979,-59.5 108.979,-56.0001 108.979,-63.0001"/>
</g>
<!-- Node3 -->
<g id="node3" class="node"><title>Node3</title>
<g id="a_node3"><a xlink:href="classndt_1_1_address.html#ae40f211c43c0d6a45b6e6728db27097b" target="_top" xlink:title=" ">
<polygon fill="white" stroke="black" points="238,-88 238,-107 352,-107 352,-88 238,-88"/>
<text text-anchor="middle" x="295" y="-95" font-family="Helvetica,sans-Serif" font-size="10.00">ndt::Address::Address</text>
</a>
</g>
</g>
<!-- Node2&#45;&gt;Node3 -->
<g id="edge2" class="edge"><title>Node2&#45;&gt;Node3</title>
<path fill="none" stroke="midnightblue" d="M194.935,-69.089C211.883,-73.9494 232.663,-79.9091 250.808,-85.1127"/>
<polygon fill="midnightblue" stroke="midnightblue" points="249.998,-88.5216 260.575,-87.9141 251.928,-81.7928 249.998,-88.5216"/>
</g>
<!-- Node5 -->
<g id="node5" class="node"><title>Node5</title>
<g id="a_node5"><a xlink:href="classndt_1_1_bin_reader.html#abe942576a40e5581bb6d6e4b94a9046d" target="_top" xlink:title=" ">
<polygon fill="white" stroke="black" points="244.5,-50 244.5,-69 345.5,-69 345.5,-50 244.5,-50"/>
<text text-anchor="middle" x="295" y="-57" font-family="Helvetica,sans-Serif" font-size="10.00">ndt::BinReader::get</text>
</a>
</g>
</g>
<!-- Node2&#45;&gt;Node5 -->
<g id="edge4" class="edge"><title>Node2&#45;&gt;Node5</title>
<path fill="none" stroke="midnightblue" d="M202.336,-59.5C212.362,-59.5 223.304,-59.5 234.024,-59.5"/>
<polygon fill="midnightblue" stroke="midnightblue" points="234.198,-63.0001 244.198,-59.5 234.198,-56.0001 234.198,-63.0001"/>
</g>
<!-- Node8 -->
<g id="node8" class="node"><title>Node8</title>
<g id="a_node8"><a xlink:href="namespacendt.html#aff5aae17f9fa68f8d8d9d552c2aed652" target="_top" xlink:title=" ">
<polygon fill="white" stroke="black" points="265.5,-9 265.5,-28 324.5,-28 324.5,-9 265.5,-9"/>
<text text-anchor="middle" x="295" y="-16" font-family="Helvetica,sans-Serif" font-size="10.00">ndt::toNet</text>
</a>
</g>
</g>
<!-- Node2&#45;&gt;Node8 -->
<g id="edge7" class="edge"><title>Node2&#45;&gt;Node8</title>
<path fill="none" stroke="midnightblue" d="M192.231,-49.9907C211.066,-44.1625 235.339,-36.6516 255.456,-30.4269"/>
<polygon fill="midnightblue" stroke="midnightblue" points="256.731,-33.6961 265.249,-27.3964 254.662,-27.0089 256.731,-33.6961"/>
</g>
<!-- Node4 -->
<g id="node4" class="node"><title>Node4</title>
<g id="a_node4"><a xlink:href="classndt_1_1_address.html#ab40eccd53620a2883bd78cd51c745b1d" target="_top" xlink:title=" ">
<polygon fill="white" stroke="black" points="395.5,-88 395.5,-107 495.5,-107 495.5,-88 395.5,-88"/>
<text text-anchor="middle" x="445.5" y="-95" font-family="Helvetica,sans-Serif" font-size="10.00">ndt::Address::reset</text>
</a>
</g>
</g>
<!-- Node3&#45;&gt;Node4 -->
<g id="edge3" class="edge"><title>Node3&#45;&gt;Node4</title>
<path fill="none" stroke="midnightblue" d="M352.141,-97.5C362.847,-97.5 374.088,-97.5 384.897,-97.5"/>
<polygon fill="midnightblue" stroke="midnightblue" points="385.097,-101 395.097,-97.5 385.097,-94.0001 385.097,-101"/>
</g>
<!-- Node6 -->
<g id="node6" class="node"><title>Node6</title>
<g id="a_node6"><a xlink:href="namespacendt.html#ad4c1e716b25fd6e4ad568edd93a2e518" target="_top" xlink:title=" ">
<polygon fill="white" stroke="black" points="390,-50 390,-69 501,-69 501,-50 390,-50"/>
<text text-anchor="middle" x="445.5" y="-57" font-family="Helvetica,sans-Serif" font-size="10.00">ndt::make_error_code</text>
</a>
</g>
</g>
<!-- Node5&#45;&gt;Node6 -->
<g id="edge5" class="edge"><title>Node5&#45;&gt;Node6</title>
<path fill="none" stroke="midnightblue" d="M345.861,-59.5C356.699,-59.5 368.317,-59.5 379.639,-59.5"/>
<polygon fill="midnightblue" stroke="midnightblue" points="379.922,-63.0001 389.922,-59.5 379.922,-56.0001 379.922,-63.0001"/>
</g>
<!-- Node7 -->
<g id="node7" class="node"><title>Node7</title>
<g id="a_node7"><a xlink:href="namespacendt.html#afb00545aff91ded0f81e30a6dfde4608" target="_top" xlink:title=" ">
<polygon fill="white" stroke="black" points="539,-50 539,-69 685,-69 685,-50 539,-50"/>
<text text-anchor="middle" x="612" y="-57" font-family="Helvetica,sans-Serif" font-size="10.00">ndt::getAddressErrorCategory</text>
</a>
</g>
</g>
<!-- Node6&#45;&gt;Node7 -->
<g id="edge6" class="edge"><title>Node6&#45;&gt;Node7</title>
<path fill="none" stroke="midnightblue" d="M501.276,-59.5C510.13,-59.5 519.464,-59.5 528.798,-59.5"/>
<polygon fill="midnightblue" stroke="midnightblue" points="528.902,-63.0001 538.902,-59.5 528.902,-56.0001 528.902,-63.0001"/>
</g>
<!-- Node9 -->
<g id="node9" class="node"><title>Node9</title>
<g id="a_node9"><a xlink:href="classndt_1_1details_1_1_byte_order.html#a8e1bd472e0ebade5d2accb62318b6e18" target="_top" xlink:title=" ">
<polygon fill="white" stroke="black" points="388,-0.5 388,-30.5 503,-30.5 503,-0.5 388,-0.5"/>
<text text-anchor="start" x="396" y="-18.5" font-family="Helvetica,sans-Serif" font-size="10.00">ndt::details::ByteOrder</text>
<text text-anchor="middle" x="445.5" y="-7.5" font-family="Helvetica,sans-Serif" font-size="10.00">::toNet</text>
</a>
</g>
</g>
<!-- Node8&#45;&gt;Node9 -->
<g id="edge8" class="edge"><title>Node8&#45;&gt;Node9</title>
<path fill="none" stroke="midnightblue" d="M324.632,-17.9216C339.849,-17.6142 359.24,-17.2224 377.969,-16.8441"/>
<polygon fill="midnightblue" stroke="midnightblue" points="378.047,-20.3433 387.975,-16.6419 377.906,-13.3447 378.047,-20.3433"/>
</g>
</g>
</svg>
