<?xml version="1.0" encoding="UTF-8" standalone="no"?>
<!DOCTYPE svg PUBLIC "-//W3C//DTD SVG 1.1//EN"
 "http://www.w3.org/Graphics/SVG/1.1/DTD/svg11.dtd">
<!-- Generated by graphviz version 2.38.0 (20140413.2041)
 -->
<!-- Title: ndt::deserialize Pages: 1 -->
<!--zoomable 116 -->
<svg id="main" version="1.1" xmlns="http://www.w3.org/2000/svg" xmlns:xlink="http://www.w3.org/1999/xlink" xml:space="preserve" onload="init(evt)">
<style type="text/css"><![CDATA[
.edge:hover path { stroke: red; }
.edge:hover polygon { stroke: red; fill: red; }
]]></style>
<script type="text/javascript"><![CDATA[
var edges = document.getElementsByTagName('g');
if (edges && edges.length) {
  for (var i=0;i<edges.length;i++) {
    if (edges[i].id.substr(0,4)=='edge') {
      edges[i].setAttribute('class','edge');
    }
  }
}
]]></script>
        <defs>
                <circle id="rim" cx="0" cy="0" r="7"/>
                <circle id="rim2" cx="0" cy="0" r="3.5"/>
                <g id="zoomPlus">
                        <use xlink:href="#rim" fill="#404040">
                                <set attributeName="fill" to="#808080" begin="zoomplus.mouseover" end="zoomplus.mouseout"/>
                        </use>
                        <path d="M-4,0h8M0,-4v8" fill="none" stroke="white" stroke-width="1.5" pointer-events="none"/>
                </g>
                <g id="zoomMin">
                        <use xlink:href="#rim" fill="#404040">
                                <set attributeName="fill" to="#808080" begin="zoomminus.mouseover" end="zoomminus.mouseout"/>
                        </use>
                        <path d="M-4,0h8" fill="none" stroke="white" stroke-width="1.5" pointer-events="none"/>
                </g>
                <g id="dirArrow">
                        <path fill="none" stroke="white" stroke-width="1.5" d="M0,-3.0v7 M-2.5,-0.5L0,-3.0L2.5,-0.5"/>
                </g>
               <g id="resetDef">
                       <use xlink:href="#rim2" fill="#404040">
                               <set attributeName="fill" to="#808080" begin="reset.mouseover" end="reset.mouseout"/>
                       </use>
               </g>
        </defs>

<script type="text/javascript">
var viewWidth = 693;
var viewHeight = 116;
var sectionId = 'dynsection-2';
</script>
<script xlink:href="svgpan.js"/>
<svg id="graph" class="graph">
<g id="viewport">
<title>ndt::deserialize</title>
<polygon fill="white" stroke="none" points="-4,4 -4,-111.5 689,-111.5 689,4 -4,4"/>
<!-- Node1 -->
<g id="node1" class="node"><title>Node1</title>
<g id="a_node1"><a xlink:title=" ">
<polygon fill="#bfbfbf" stroke="black" points="0,-50 0,-69 83,-69 83,-50 0,-50"/>
<text text-anchor="middle" x="41.5" y="-57" font-family="Helvetica,sans-Serif" font-size="10.00">ndt::deserialize</text>
</a>
</g>
</g>
<!-- Node2 -->
<g id="node2" class="node"><title>Node2</title>
<g id="a_node2"><a xlink:href="namespacendt.html#ab8891ed023a4bc139e70e0724c94d1b9" target="_top" xlink:title=" ">
<polygon fill="white" stroke="black" points="119,-50 119,-69 202,-69 202,-50 119,-50"/>
<text text-anchor="middle" x="160.5" y="-57" font-family="Helvetica,sans-Serif" font-size="10.00">ndt::deserialize</text>
</a>
</g>
</g>
<!-- Node1&#45;&gt;Node2 -->
<g id="edge1" class="edge"><title>Node1&#45;&gt;Node2</title>
<path fill="none" stroke="midnightblue" d="M83.0926,-59.5C91.3509,-59.5 100.136,-59.5 108.698,-59.5"/>
<polygon fill="midnightblue" stroke="midnightblue" points="108.979,-63.0001 118.979,-59.5 108.979,-56.0001 108.979,-63.0001"/>
</g>
<!-- Node3 -->
<g id="node3" class="node"><title>Node3</title>
<g id="a_node3"><a xlink:href="classndt_1_1_address.html#ae40f211c43c0d6a45b6e6728db27097b" target="_top" xlink:title=" ">
<polygon fill="white" stroke="black" points="238,-88 238,-107 352,-107 352,-88 238,-88"/>
<text text-anchor="middle" x="295" y="-95" font-family="Helvetica,sans-Serif" font-size="10.00">ndt::Address::Address</text>
</a>
</g>
</g>
<!-- Node2&#45;&gt;Node3 -->
<g id="edge2" class="edge"><title>Node2&#45;&gt;Node3</title>
<path fill="none" stroke="midnightblue" d="M194.935,-69.089C211.883,-73.9494 232.663,-79.9091 250.808,-85.1127"/>
<polygon fill="midnightblue" stroke="midnightblue" points="249.998,-88.5216 260.575,-87.9141 251.928,-81.7928 249.998,-88.5216"/>
</g>
<!-- Node5 -->
<g id="node5" class="node"><title>Node5</title>
<g id="a_node5"><a xlink:href="classndt_1_1_bin_reader.html#abe942576a40e5581bb6d6e4b94a9046d" target="_top" xlink:title=" ">
<polygon fill="white" stroke="black" points="244.5,-50 244.5,-69 345.5,-69 345.5,-50 244.5,-50"/>
<text text-anchor="middle" x="295" y="-57" font-family="Helvetica,sans-Serif" font-size="10.00">ndt::BinReader::get</text>
</a>
</g>
</g>
<!-- Node2&#45;&gt;Node5 -->
<g id="edge4" class="edge"><title>Node2&#45;&gt;Node5</title>
<path fill="none" stroke="midnightblue" d="M202.336,-59.5C212.362,-59.5 223.304,-59.5 234.024,-59.5"/>
<polygon fill="midnightblue" stroke="midnightblue" points="234.198,-63.0001 244.198,-59.5 234.198,-56.0001 234.198,-63.0001"/>
</g>
<!-- Node8 -->
<g id="node8" class="node"><title>Node8</title>
<g id="a_node8"><a xlink:href="namespacendt.html#aff5aae17f9fa68f8d8d9d552c2aed652" target="_top" xlink:title=" ">
<polygon fill="white" stroke="black" points="265.5,-9 265.5,-28 324.5,-28 324.5,-9 265.5,-9"/>
<text text-anchor="middle" x="295" y="-16" font-family="Helvetica,sans-Serif" font-size="10.00">ndt::toNet</text>
</a>
</g>
</g>
<!-- Node2&#45;&gt;Node8 -->
<g id="edge7" class="edge"><title>Node2&#45;&gt;Node8</title>
<path fill="none" stroke="midnightblue" d="M192.231,-49.9907C211.066,-44.1625 235.339,-36.6516 255.456,-30.4269"/>
<polygon fill="midnightblue" stroke="midnightblue" points="256.731,-33.6961 265.249,-27.3964 254.662,-27.0089 256.731,-33.6961"/>
</g>
<!-- Node4 -->
<g id="node4" class="node"><title>Node4</title>
<g id="a_node4"><a xlink:href="classndt_1_1_address.html#ab40eccd53620a2883bd78cd51c745b1d" target="_top" xlink:title=" ">
<polygon fill="white" stroke="black" points="395.5,-88 395.5,-107 495.5,-107 495.5,-88 395.5,-88"/>
<text text-anchor="middle" x="445.5" y="-95" font-family="Helvetica,sans-Serif" font-size="10.00">ndt::Address::reset</text>
</a>
</g>
</g>
<!-- Node3&#45;&gt;Node4 -->
<g id="edge3" class="edge"><title>Node3&#45;&gt;Node4</title>
<path fill="none" stroke="midnightblue" d="M352.141,-97.5C362.847,-97.5 374.088,-97.5 384.897,-97.5"/>
<polygon fill="midnightblue" stroke="midnightblue" points="385.097,-101 395.097,-97.5 385.097,-94.0001 385.097,-101"/>
</g>
<!-- Node6 -->
<g id="node6" class="node"><title>Node6</title>
<g id="a_node6"><a xlink:href="namespacendt.html#ad4c1e716b25fd6e4ad568edd93a2e518" target="_top" xlink:title=" ">
<polygon fill="white" stroke="black" points="390,-50 390,-69 501,-69 501,-50 390,-50"/>
<text text-anchor="middle" x="445.5" y="-57" font-family="Helvetica,sans-Serif" font-size="10.00">ndt::make_error_code</text>
</a>
</g>
</g>
<!-- Node5&#45;&gt;Node6 -->
<g id="edge5" class="edge"><title>Node5&#45;&gt;Node6</title>
<path fill="none" stroke="midnightblue" d="M345.861,-59.5C356.699,-59.5 368.317,-59.5 379.639,-59.5"/>
<polygon fill="midnightblue" stroke="midnightblue" points="379.922,-63.0001 389.922,-59.5 379.922,-56.0001 379.922,-63.0001"/>
</g>
<!-- Node7 -->
<g id="node7" class="node"><title>Node7</title>
<g id="a_node7"><a xlink:href="namespacendt.html#afb00545aff91ded0f81e30a6dfde4608" target="_top" xlink:title=" ">
<polygon fill="white" stroke="black" points="539,-50 539,-69 685,-69 685,-50 539,-50"/>
<text text-anchor="middle" x="612" y="-57" font-family="Helvetica,sans-Serif" font-size="10.00">ndt::getAddressErrorCategory</text>
</a>
</g>
</g>
<!-- Node6&#45;&gt;Node7 -->
<g id="edge6" class="edge"><title>Node6&#45;&gt;Node7</title>
<path fill="none" stroke="midnightblue" d="M501.276,-59.5C510.13,-59.5 519.464,-59.5 528.798,-59.5"/>
<polygon fill="midnightblue" stroke="midnightblue" points="528.902,-63.0001 538.902,-59.5 528.902,-56.0001 528.902,-63.0001"/>
</g>
<!-- Node9 -->
<g id="node9" class="node"><title>Node9</title>
<g id="a_node9"><a xlink:href="classndt_1_1details_1_1_byte_order.html#a8e1bd472e0ebade5d2accb62318b6e18" target="_top" xlink:title=" ">
<polygon fill="white" stroke="black" points="388,-0.5 388,-30.5 503,-30.5 503,-0.5 388,-0.5"/>
<text text-anchor="start" x="396" y="-18.5" font-family="Helvetica,sans-Serif" font-size="10.00">ndt::details::ByteOrder</text>
<text text-anchor="middle" x="445.5" y="-7.5" font-family="Helvetica,sans-Serif" font-size="10.00">::toNet</text>
</a>
</g>
</g>
<!-- Node8&#45;&gt;Node9 -->
<g id="edge8" class="edge"><title>Node8&#45;&gt;Node9</title>
<path fill="none" stroke="midnightblue" d="M324.632,-17.9216C339.849,-17.6142 359.24,-17.2224 377.969,-16.8441"/>
<polygon fill="midnightblue" stroke="midnightblue" points="378.047,-20.3433 387.975,-16.6419 377.906,-13.3447 378.047,-20.3433"/>
</g>
</g>
</svg>
        <g id="navigator" transform="translate(0 0)" fill="#404254">
                <rect fill="#f2f5e9" fill-opacity="0.5" stroke="#606060" stroke-width=".5" x="0" y="0" width="60" height="60"/>
                <use id="zoomplus" xlink:href="#zoomPlus" x="17" y="9" onmousedown="handleZoom(evt,'in')"/>
                <use id="zoomminus" xlink:href="#zoomMin" x="42" y="9" onmousedown="handleZoom(evt,'out')"/>
                <use id="reset" xlink:href="#resetDef" x="30" y="36" onmousedown="handleReset()"/>
                <g id="arrowUp" xlink:href="#dirArrow" transform="translate(30 24)" onmousedown="handlePan(0,-1)">
                  <use xlink:href="#rim" fill="#404040">
                        <set attributeName="fill" to="#808080" begin="arrowUp.mouseover" end="arrowUp.mouseout"/>
                  </use>
                  <path fill="none" stroke="white" stroke-width="1.5" d="M0,-3.0v7 M-2.5,-0.5L0,-3.0L2.5,-0.5"/>
                </g>
                <g id="arrowRight" xlink:href="#dirArrow" transform="rotate(90) translate(36 -43)" onmousedown="handlePan(1,0)">
                  <use xlink:href="#rim" fill="#404040">
                        <set attributeName="fill" to="#808080" begin="arrowRight.mouseover" end="arrowRight.mouseout"/>
                  </use>
                  <path fill="none" stroke="white" stroke-width="1.5" d="M0,-3.0v7 M-2.5,-0.5L0,-3.0L2.5,-0.5"/>
                </g>
                <g id="arrowDown" xlink:href="#dirArrow" transform="rotate(180) translate(-30 -48)" onmousedown="handlePan(0,1)">
                  <use xlink:href="#rim" fill="#404040">
                        <set attributeName="fill" to="#808080" begin="arrowDown.mouseover" end="arrowDown.mouseout"/>
                  </use>
                  <path fill="none" stroke="white" stroke-width="1.5" d="M0,-3.0v7 M-2.5,-0.5L0,-3.0L2.5,-0.5"/>
                </g>
                <g id="arrowLeft" xlink:href="#dirArrow" transform="rotate(270) translate(-36 17)" onmousedown="handlePan(-1,0)">
                  <use xlink:href="#rim" fill="#404040">
                        <set attributeName="fill" to="#808080" begin="arrowLeft.mouseover" end="arrowLeft.mouseout"/>
                  </use>
                  <path fill="none" stroke="white" stroke-width="1.5" d="M0,-3.0v7 M-2.5,-0.5L0,-3.0L2.5,-0.5"/>
                </g>
        </g>
        <svg viewBox="0 0 15 15" width="100%" height="30px" preserveAspectRatio="xMaxYMin meet">
         <g id="arrow_out" transform="scale(0.3 0.3)">
          <a xlink:href="namespacendt_a659a3c1ff9f586346cfbc6198f531f7e_cgraph_org.svg" target="_base">
           <rect id="button" ry="5" rx="5" y="6" x="6" height="38" width="38"
                fill="#f2f5e9" fill-opacity="0.5" stroke="#606060" stroke-width="1.0"/>
           <path id="arrow"
             d="M 11.500037,31.436501 C 11.940474,20.09759 22.043105,11.32322 32.158766,21.979434 L 37.068811,17.246167 C 37.068811,17.246167 37.088388,32 37.088388,32 L 22.160133,31.978069 C 22.160133,31.978069 26.997745,27.140456 26.997745,27.140456 C 18.528582,18.264221 13.291696,25.230495 11.500037,31.436501 z"
             style="fill:#404040;"/>
          </a>
         </g>
        </svg>
</svg>
