<?xml version="1.0" encoding="UTF-8" standalone="no"?>
<!DOCTYPE svg PUBLIC "-//W3C//DTD SVG 1.1//EN"
 "http://www.w3.org/Graphics/SVG/1.1/DTD/svg11.dtd">
<!-- Generated by graphviz version 2.38.0 (20140413.2041)
 -->
<!-- Title: ndt::utils::to_underlying Pages: 1 -->
<svg width="288pt" height="127pt"
 viewBox="0.00 0.00 288.00 127.00" xmlns="http://www.w3.org/2000/svg" xmlns:xlink="http://www.w3.org/1999/xlink">
<g id="graph0" class="graph" transform="scale(1 1) rotate(0) translate(4 123)">
<title>ndt::utils::to_underlying</title>
<polygon fill="white" stroke="none" points="-4,4 -4,-123 284,-123 284,4 -4,4"/>
<!-- Node1 -->
<g id="node1" class="node"><title>Node1</title>
<g id="a_node1"><a xlink:title=" ">
<polygon fill="#bfbfbf" stroke="black" points="162,-50 162,-69 280,-69 280,-50 162,-50"/>
<text text-anchor="middle" x="221" y="-57" font-family="Helvetica,sans-Serif" font-size="10.00">ndt::utils::to_underlying</text>
</a>
</g>
</g>
<!-- Node2 -->
<g id="node2" class="node"><title>Node2</title>
<g id="a_node2"><a xlink:href="classndt_1_1_packet_handlers.html#ad4a727d34b9077111ef69982b7c10a2b" target="_top" xlink:title=" ">
<polygon fill="white" stroke="black" points="7.5,-88.5 7.5,-118.5 118.5,-118.5 118.5,-88.5 7.5,-88.5"/>
<text text-anchor="start" x="15.5" y="-106.5" font-family="Helvetica,sans-Serif" font-size="10.00">ndt::PacketHandlers</text>
<text text-anchor="middle" x="63" y="-95.5" font-family="Helvetica,sans-Serif" font-size="10.00">::createHandlersArray</text>
</a>
</g>
</g>
<!-- Node1&#45;&gt;Node2 -->
<g id="edge1" class="edge"><title>Node1&#45;&gt;Node2</title>
<path fill="none" stroke="midnightblue" d="M176.349,-71.8118C158.063,-76.9694 136.629,-83.0148 117.414,-88.4346"/>
<polygon fill="midnightblue" stroke="midnightblue" points="177.476,-75.1306 186.15,-69.0473 175.576,-68.3934 177.476,-75.1306"/>
</g>
<!-- Node3 -->
<g id="node3" class="node"><title>Node3</title>
<g id="a_node3"><a xlink:href="classndt_1_1_bin_reader.html#a53a026ffc5573d046ced62b8a1749ba0" target="_top" xlink:title=" ">
<polygon fill="white" stroke="black" points="0,-50 0,-69 126,-69 126,-50 0,-50"/>
<text text-anchor="middle" x="63" y="-57" font-family="Helvetica,sans-Serif" font-size="10.00">ndt::BinReader::getEnum</text>
</a>
</g>
</g>
<!-- Node1&#45;&gt;Node3 -->
<g id="edge2" class="edge"><title>Node1&#45;&gt;Node3</title>
<path fill="none" stroke="midnightblue" d="M151.637,-59.5C143.128,-59.5 134.464,-59.5 126.058,-59.5"/>
<polygon fill="midnightblue" stroke="midnightblue" points="151.911,-63.0001 161.911,-59.5 151.911,-56.0001 151.911,-63.0001"/>
</g>
<!-- Node4 -->
<g id="node4" class="node"><title>Node4</title>
<g id="a_node4"><a xlink:href="classndt_1_1_packet_handlers.html#af437e71797e66d54ec5458cb8c46e315" target="_top" xlink:title=" ">
<polygon fill="white" stroke="black" points="10.5,-0.5 10.5,-30.5 115.5,-30.5 115.5,-0.5 10.5,-0.5"/>
<text text-anchor="start" x="18.5" y="-18.5" font-family="Helvetica,sans-Serif" font-size="10.00">ndt::PacketHandlers</text>
<text text-anchor="middle" x="63" y="-7.5" font-family="Helvetica,sans-Serif" font-size="10.00">::operator()</text>
</a>
</g>
</g>
<!-- Node1&#45;&gt;Node4 -->
<g id="edge3" class="edge"><title>Node1&#45;&gt;Node4</title>
<path fill="none" stroke="midnightblue" d="M176.338,-47.185C157.474,-41.8644 135.262,-35.5994 115.59,-30.0511"/>
<polygon fill="midnightblue" stroke="midnightblue" points="175.576,-50.6066 186.15,-49.9527 177.476,-43.8694 175.576,-50.6066"/>
</g>
</g>
</svg>
