<?xml version="1.0" encoding="UTF-8" standalone="no"?>
<!DOCTYPE svg PUBLIC "-//W3C//DTD SVG 1.1//EN"
 "http://www.w3.org/Graphics/SVG/1.1/DTD/svg11.dtd">
<!-- Generated by graphviz version 2.38.0 (20140413.2041)
 -->
<!-- Title: ndt::serialize Pages: 1 -->
<svg width="785pt" height="47pt"
 viewBox="0.00 0.00 785.00 47.00" xmlns="http://www.w3.org/2000/svg" xmlns:xlink="http://www.w3.org/1999/xlink">
<g id="graph0" class="graph" transform="scale(1 1) rotate(0) translate(4 43)">
<title>ndt::serialize</title>
<polygon fill="white" stroke="none" points="-4,4 -4,-43 781,-43 781,4 -4,4"/>
<!-- Node1 -->
<g id="node1" class="node"><title>Node1</title>
<g id="a_node1"><a xlink:title=" ">
<polygon fill="#bfbfbf" stroke="black" points="0,-19.5 0,-38.5 72,-38.5 72,-19.5 0,-19.5"/>
<text text-anchor="middle" x="36" y="-26.5" font-family="Helvetica,sans-Serif" font-size="10.00">ndt::serialize</text>
</a>
</g>
</g>
<!-- Node2 -->
<g id="node2" class="node"><title>Node2</title>
<g id="a_node2"><a xlink:href="classndt_1_1_bin_writer.html#a35faf9f5ca7d24f724b1d7443ef36aa6" target="_top" xlink:title=" ">
<polygon fill="white" stroke="black" points="350,-19.5 350,-38.5 448,-38.5 448,-19.5 350,-19.5"/>
<text text-anchor="middle" x="399" y="-26.5" font-family="Helvetica,sans-Serif" font-size="10.00">ndt::BinWriter::add</text>
</a>
</g>
</g>
<!-- Node1&#45;&gt;Node2 -->
<g id="edge1" class="edge"><title>Node1&#45;&gt;Node2</title>
<path fill="none" stroke="midnightblue" d="M72.2715,-29C134.373,-29 263.806,-29 339.48,-29"/>
<polygon fill="midnightblue" stroke="midnightblue" points="339.789,-32.5001 349.789,-29 339.789,-25.5001 339.789,-32.5001"/>
</g>
<!-- Node5 -->
<g id="node5" class="node"><title>Node5</title>
<g id="a_node5"><a xlink:href="namespacendt.html#ac23d246ace5c15ad0d5d9690e59d5483" target="_top" xlink:title=" ">
<polygon fill="white" stroke="black" points="108,-0.5 108,-19.5 206,-19.5 206,-0.5 108,-0.5"/>
<text text-anchor="middle" x="157" y="-7.5" font-family="Helvetica,sans-Serif" font-size="10.00">ndt::serializeStruct</text>
</a>
</g>
</g>
<!-- Node1&#45;&gt;Node5 -->
<g id="edge4" class="edge"><title>Node1&#45;&gt;Node5</title>
<path fill="none" stroke="midnightblue" d="M72.0603,-23.4021C80.2295,-22.0978 89.1426,-20.6747 98.011,-19.2587"/>
<polygon fill="midnightblue" stroke="midnightblue" points="98.6395,-22.7028 107.963,-17.6698 97.5358,-15.7904 98.6395,-22.7028"/>
</g>
<!-- Node3 -->
<g id="node3" class="node"><title>Node3</title>
<g id="a_node3"><a xlink:href="namespacendt.html#ad4c1e716b25fd6e4ad568edd93a2e518" target="_top" xlink:title=" ">
<polygon fill="white" stroke="black" points="484,-19.5 484,-38.5 595,-38.5 595,-19.5 484,-19.5"/>
<text text-anchor="middle" x="539.5" y="-26.5" font-family="Helvetica,sans-Serif" font-size="10.00">ndt::make_error_code</text>
</a>
</g>
</g>
<!-- Node2&#45;&gt;Node3 -->
<g id="edge2" class="edge"><title>Node2&#45;&gt;Node3</title>
<path fill="none" stroke="midnightblue" d="M448.052,-29C456.363,-29 465.125,-29 473.791,-29"/>
<polygon fill="midnightblue" stroke="midnightblue" points="473.889,-32.5001 483.889,-29 473.888,-25.5001 473.889,-32.5001"/>
</g>
<!-- Node4 -->
<g id="node4" class="node"><title>Node4</title>
<g id="a_node4"><a xlink:href="namespacendt.html#afb00545aff91ded0f81e30a6dfde4608" target="_top" xlink:title=" ">
<polygon fill="white" stroke="black" points="631,-19.5 631,-38.5 777,-38.5 777,-19.5 631,-19.5"/>
<text text-anchor="middle" x="704" y="-26.5" font-family="Helvetica,sans-Serif" font-size="10.00">ndt::getAddressErrorCategory</text>
</a>
</g>
</g>
<!-- Node3&#45;&gt;Node4 -->
<g id="edge3" class="edge"><title>Node3&#45;&gt;Node4</title>
<path fill="none" stroke="midnightblue" d="M595.062,-29C603.346,-29 612.046,-29 620.762,-29"/>
<polygon fill="midnightblue" stroke="midnightblue" points="620.976,-32.5001 630.976,-29 620.976,-25.5001 620.976,-32.5001"/>
</g>
<!-- Node6 -->
<g id="node6" class="node"><title>Node6</title>
<g id="a_node6"><a xlink:href="namespacendt.html#a0645da168cfe455888152aa94418b891" target="_top" xlink:title=" ">
<polygon fill="white" stroke="black" points="242,-0.5 242,-19.5 314,-19.5 314,-0.5 242,-0.5"/>
<text text-anchor="middle" x="278" y="-7.5" font-family="Helvetica,sans-Serif" font-size="10.00">ndt::serialize</text>
</a>
</g>
</g>
<!-- Node5&#45;&gt;Node6 -->
<g id="edge5" class="edge"><title>Node5&#45;&gt;Node6</title>
<path fill="none" stroke="midnightblue" d="M206.059,-10C214.589,-10 223.445,-10 231.889,-10"/>
<polygon fill="midnightblue" stroke="midnightblue" points="231.936,-13.5001 241.936,-10 231.936,-6.5001 231.936,-13.5001"/>
</g>
<!-- Node6&#45;&gt;Node2 -->
<g id="edge6" class="edge"><title>Node6&#45;&gt;Node2</title>
<path fill="none" stroke="midnightblue" d="M314.06,-15.5979C322.229,-16.9022 331.143,-18.3253 340.011,-19.7413"/>
<polygon fill="midnightblue" stroke="midnightblue" points="339.536,-23.2096 349.963,-21.3302 340.64,-16.2972 339.536,-23.2096"/>
</g>
</g>
</svg>
