<?xml version="1.0" encoding="UTF-8" standalone="no"?>
<!DOCTYPE svg PUBLIC "-//W3C//DTD SVG 1.1//EN"
 "http://www.w3.org/Graphics/SVG/1.1/DTD/svg11.dtd">
<!-- Generated by graphviz version 2.38.0 (20140413.2041)
 -->
<!-- Title: ndt::serialize Pages: 1 -->
<svg width="543pt" height="28pt"
 viewBox="0.00 0.00 543.00 28.00" xmlns="http://www.w3.org/2000/svg" xmlns:xlink="http://www.w3.org/1999/xlink">
<g id="graph0" class="graph" transform="scale(1 1) rotate(0) translate(4 24)">
<title>ndt::serialize</title>
<polygon fill="white" stroke="none" points="-4,4 -4,-24 539,-24 539,4 -4,4"/>
<!-- Node1 -->
<g id="node1" class="node"><title>Node1</title>
<g id="a_node1"><a xlink:title=" ">
<polygon fill="#bfbfbf" stroke="black" points="0,-0.5 0,-19.5 72,-19.5 72,-0.5 0,-0.5"/>
<text text-anchor="middle" x="36" y="-7.5" font-family="Helvetica,sans-Serif" font-size="10.00">ndt::serialize</text>
</a>
</g>
</g>
<!-- Node2 -->
<g id="node2" class="node"><title>Node2</title>
<g id="a_node2"><a xlink:href="classndt_1_1_bin_writer.html#a35faf9f5ca7d24f724b1d7443ef36aa6" target="_top" xlink:title=" ">
<polygon fill="white" stroke="black" points="108,-0.5 108,-19.5 206,-19.5 206,-0.5 108,-0.5"/>
<text text-anchor="middle" x="157" y="-7.5" font-family="Helvetica,sans-Serif" font-size="10.00">ndt::BinWriter::add</text>
</a>
</g>
</g>
<!-- Node1&#45;&gt;Node2 -->
<g id="edge1" class="edge"><title>Node1&#45;&gt;Node2</title>
<path fill="none" stroke="midnightblue" d="M72.0603,-10C80.1417,-10 88.951,-10 97.7249,-10"/>
<polygon fill="midnightblue" stroke="midnightblue" points="97.9626,-13.5001 107.963,-10 97.9626,-6.5001 97.9626,-13.5001"/>
</g>
<!-- Node3 -->
<g id="node3" class="node"><title>Node3</title>
<g id="a_node3"><a xlink:href="namespacendt.html#ad4c1e716b25fd6e4ad568edd93a2e518" target="_top" xlink:title=" ">
<polygon fill="white" stroke="black" points="242,-0.5 242,-19.5 353,-19.5 353,-0.5 242,-0.5"/>
<text text-anchor="middle" x="297.5" y="-7.5" font-family="Helvetica,sans-Serif" font-size="10.00">ndt::make_error_code</text>
</a>
</g>
</g>
<!-- Node2&#45;&gt;Node3 -->
<g id="edge2" class="edge"><title>Node2&#45;&gt;Node3</title>
<path fill="none" stroke="midnightblue" d="M206.052,-10C214.363,-10 223.125,-10 231.791,-10"/>
<polygon fill="midnightblue" stroke="midnightblue" points="231.889,-13.5001 241.889,-10 231.888,-6.5001 231.889,-13.5001"/>
</g>
<!-- Node4 -->
<g id="node4" class="node"><title>Node4</title>
<g id="a_node4"><a xlink:href="namespacendt.html#afb00545aff91ded0f81e30a6dfde4608" target="_top" xlink:title=" ">
<polygon fill="white" stroke="black" points="389,-0.5 389,-19.5 535,-19.5 535,-0.5 389,-0.5"/>
<text text-anchor="middle" x="462" y="-7.5" font-family="Helvetica,sans-Serif" font-size="10.00">ndt::getAddressErrorCategory</text>
</a>
</g>
</g>
<!-- Node3&#45;&gt;Node4 -->
<g id="edge3" class="edge"><title>Node3&#45;&gt;Node4</title>
<path fill="none" stroke="midnightblue" d="M353.062,-10C361.346,-10 370.046,-10 378.762,-10"/>
<polygon fill="midnightblue" stroke="midnightblue" points="378.976,-13.5001 388.976,-10 378.976,-6.5001 378.976,-13.5001"/>
</g>
</g>
</svg>
