<?xml version="1.0" encoding="UTF-8" standalone="no"?>
<!DOCTYPE svg PUBLIC "-//W3C//DTD SVG 1.1//EN"
 "http://www.w3.org/Graphics/SVG/1.1/DTD/svg11.dtd">
<!-- Generated by graphviz version 2.38.0 (20140413.2041)
 -->
<!-- Title: ndt::toNet Pages: 1 -->
<svg width="482pt" height="244pt"
 viewBox="0.00 0.00 482.00 243.50" xmlns="http://www.w3.org/2000/svg" xmlns:xlink="http://www.w3.org/1999/xlink">
<g id="graph0" class="graph" transform="scale(1 1) rotate(0) translate(4 239.5)">
<title>ndt::toNet</title>
<polygon fill="white" stroke="none" points="-4,4 -4,-239.5 478,-239.5 478,4 -4,4"/>
<!-- Node1 -->
<g id="node1" class="node"><title>Node1</title>
<g id="a_node1"><a xlink:title=" ">
<polygon fill="#bfbfbf" stroke="black" points="415,-104 415,-123 474,-123 474,-104 415,-104"/>
<text text-anchor="middle" x="444.5" y="-111" font-family="Helvetica,sans-Serif" font-size="10.00">ndt::toNet</text>
</a>
</g>
</g>
<!-- Node2 -->
<g id="node2" class="node"><title>Node2</title>
<g id="a_node2"><a xlink:href="namespacendt.html#ab8891ed023a4bc139e70e0724c94d1b9" target="_top" xlink:title=" ">
<polygon fill="white" stroke="black" points="280,-197 280,-216 363,-216 363,-197 280,-197"/>
<text text-anchor="middle" x="321.5" y="-204" font-family="Helvetica,sans-Serif" font-size="10.00">ndt::deserialize</text>
</a>
</g>
</g>
<!-- Node1&#45;&gt;Node2 -->
<g id="edge1" class="edge"><title>Node1&#45;&gt;Node2</title>
<path fill="none" stroke="midnightblue" d="M431.989,-131.491C420.45,-148.188 401.237,-172.639 379,-187.5 373.321,-191.295 366.815,-194.396 360.286,-196.909"/>
<polygon fill="midnightblue" stroke="midnightblue" points="434.936,-133.381 437.581,-123.122 429.115,-129.492 434.936,-133.381"/>
</g>
<!-- Node6 -->
<g id="node6" class="node"><title>Node6</title>
<g id="a_node6"><a xlink:href="classndt_1_1details_1_1_byte_order_3_01uint16__t_00_012_01_4.html#adf248fb96859fee666b88a9e09797cdd" target="_top" xlink:title=" ">
<polygon fill="white" stroke="black" points="264,-147.5 264,-177.5 379,-177.5 379,-147.5 264,-147.5"/>
<text text-anchor="start" x="272" y="-165.5" font-family="Helvetica,sans-Serif" font-size="10.00">ndt::details::ByteOrder</text>
<text text-anchor="middle" x="321.5" y="-154.5" font-family="Helvetica,sans-Serif" font-size="10.00">&lt; uint16_t, 2 &gt;::toHost</text>
</a>
</g>
</g>
<!-- Node1&#45;&gt;Node6 -->
<g id="edge5" class="edge"><title>Node1&#45;&gt;Node6</title>
<path fill="none" stroke="midnightblue" d="M410.579,-126.832C394.902,-133.18 376.081,-140.802 359.869,-147.367"/>
<polygon fill="midnightblue" stroke="midnightblue" points="411.928,-130.062 419.883,-123.064 409.3,-123.573 411.928,-130.062"/>
</g>
<!-- Node7 -->
<g id="node7" class="node"><title>Node7</title>
<g id="a_node7"><a xlink:href="classndt_1_1details_1_1_byte_order_3_01uint32__t_00_014_01_4.html#a152a816569992ed2ba3e9ae6fbec023d" target="_top" xlink:title=" ">
<polygon fill="white" stroke="black" points="264,-98.5 264,-128.5 379,-128.5 379,-98.5 264,-98.5"/>
<text text-anchor="start" x="272" y="-116.5" font-family="Helvetica,sans-Serif" font-size="10.00">ndt::details::ByteOrder</text>
<text text-anchor="middle" x="321.5" y="-105.5" font-family="Helvetica,sans-Serif" font-size="10.00">&lt; uint32_t, 4 &gt;::toHost</text>
</a>
</g>
</g>
<!-- Node1&#45;&gt;Node7 -->
<g id="edge6" class="edge"><title>Node1&#45;&gt;Node7</title>
<path fill="none" stroke="midnightblue" d="M404.798,-113.5C396.577,-113.5 387.736,-113.5 379.006,-113.5"/>
<polygon fill="midnightblue" stroke="midnightblue" points="404.825,-117 414.825,-113.5 404.825,-110 404.825,-117"/>
</g>
<!-- Node8 -->
<g id="node8" class="node"><title>Node8</title>
<g id="a_node8"><a xlink:href="classndt_1_1details_1_1_byte_order_3_01uint64__t_00_018_01_4.html#a13f11fa0654c62c5da9f04fc9ea3a53b" target="_top" xlink:title=" ">
<polygon fill="white" stroke="black" points="264,-49.5 264,-79.5 379,-79.5 379,-49.5 264,-49.5"/>
<text text-anchor="start" x="272" y="-67.5" font-family="Helvetica,sans-Serif" font-size="10.00">ndt::details::ByteOrder</text>
<text text-anchor="middle" x="321.5" y="-56.5" font-family="Helvetica,sans-Serif" font-size="10.00">&lt; uint64_t, 8 &gt;::toHost</text>
</a>
</g>
</g>
<!-- Node1&#45;&gt;Node8 -->
<g id="edge7" class="edge"><title>Node1&#45;&gt;Node8</title>
<path fill="none" stroke="midnightblue" d="M410.579,-100.168C394.902,-93.8196 376.081,-86.198 359.869,-79.6328"/>
<polygon fill="midnightblue" stroke="midnightblue" points="409.3,-103.427 419.883,-103.936 411.928,-96.9383 409.3,-103.427"/>
</g>
<!-- Node9 -->
<g id="node9" class="node"><title>Node9</title>
<g id="a_node9"><a xlink:href="classndt_1_1details_1_1_byte_order_3_01uint8__t_00_011_01_4.html#ad31899e56f26b8a58f5a13742dbfe724" target="_top" xlink:title=" ">
<polygon fill="white" stroke="black" points="264,-0.5 264,-30.5 379,-30.5 379,-0.5 264,-0.5"/>
<text text-anchor="start" x="272" y="-18.5" font-family="Helvetica,sans-Serif" font-size="10.00">ndt::details::ByteOrder</text>
<text text-anchor="middle" x="321.5" y="-7.5" font-family="Helvetica,sans-Serif" font-size="10.00">&lt; uint8_t, 1 &gt;::toHost</text>
</a>
</g>
</g>
<!-- Node1&#45;&gt;Node9 -->
<g id="edge8" class="edge"><title>Node1&#45;&gt;Node9</title>
<path fill="none" stroke="midnightblue" d="M430.907,-95.2355C419.042,-79.1187 399.99,-55.8643 379,-40.5 373.98,-36.8254 368.334,-33.5326 362.604,-30.6372"/>
<polygon fill="midnightblue" stroke="midnightblue" points="428.358,-97.6888 437.022,-103.786 434.052,-93.6166 428.358,-97.6888"/>
</g>
<!-- Node3 -->
<g id="node3" class="node"><title>Node3</title>
<g id="a_node3"><a xlink:href="namespacendt.html#a659a3c1ff9f586346cfbc6198f531f7e" target="_top" xlink:title=" ">
<polygon fill="white" stroke="black" points="132,-216 132,-235 215,-235 215,-216 132,-216"/>
<text text-anchor="middle" x="173.5" y="-223" font-family="Helvetica,sans-Serif" font-size="10.00">ndt::deserialize</text>
</a>
</g>
</g>
<!-- Node2&#45;&gt;Node3 -->
<g id="edge2" class="edge"><title>Node2&#45;&gt;Node3</title>
<path fill="none" stroke="midnightblue" d="M269.609,-213.123C251.806,-215.44 232.065,-218.009 215.204,-220.203"/>
<polygon fill="midnightblue" stroke="midnightblue" points="270.366,-216.554 279.831,-211.793 269.463,-209.612 270.366,-216.554"/>
</g>
<!-- Node4 -->
<g id="node4" class="node"><title>Node4</title>
<g id="a_node4"><a xlink:href="namespacendt.html#a9f58b21d1594e31cdbd6aa8c7c2ad34d" target="_top" xlink:title=" ">
<polygon fill="white" stroke="black" points="119,-178 119,-197 228,-197 228,-178 119,-178"/>
<text text-anchor="middle" x="173.5" y="-185" font-family="Helvetica,sans-Serif" font-size="10.00">ndt::deserializeStruct</text>
</a>
</g>
</g>
<!-- Node2&#45;&gt;Node4 -->
<g id="edge3" class="edge"><title>Node2&#45;&gt;Node4</title>
<path fill="none" stroke="midnightblue" d="M269.774,-199.899C256.291,-198.144 241.687,-196.244 228.059,-194.47"/>
<polygon fill="midnightblue" stroke="midnightblue" points="269.463,-203.388 279.831,-201.207 270.366,-196.446 269.463,-203.388"/>
</g>
<!-- Node5 -->
<g id="node5" class="node"><title>Node5</title>
<g id="a_node5"><a xlink:href="namespacendt.html#ab788b02adea235a3fd072ee0624cac01" target="_top" xlink:title=" ">
<polygon fill="white" stroke="black" points="0,-178 0,-197 83,-197 83,-178 0,-178"/>
<text text-anchor="middle" x="41.5" y="-185" font-family="Helvetica,sans-Serif" font-size="10.00">ndt::deserialize</text>
</a>
</g>
</g>
<!-- Node4&#45;&gt;Node5 -->
<g id="edge4" class="edge"><title>Node4&#45;&gt;Node5</title>
<path fill="none" stroke="midnightblue" d="M108.754,-187.5C100.09,-187.5 91.3971,-187.5 83.29,-187.5"/>
<polygon fill="midnightblue" stroke="midnightblue" points="108.874,-191 118.873,-187.5 108.873,-184 108.874,-191"/>
</g>
</g>
</svg>
