<?xml version="1.0" encoding="UTF-8" standalone="no"?>
<!DOCTYPE svg PUBLIC "-//W3C//DTD SVG 1.1//EN"
 "http://www.w3.org/Graphics/SVG/1.1/DTD/svg11.dtd">
<!-- Generated by graphviz version 2.38.0 (20140413.2041)
 -->
<!-- Title: ndt::deserializeStruct Pages: 1 -->
<svg width="715pt" height="104pt"
 viewBox="0.00 0.00 715.00 104.00" xmlns="http://www.w3.org/2000/svg" xmlns:xlink="http://www.w3.org/1999/xlink">
<g id="graph0" class="graph" transform="scale(1 1) rotate(0) translate(4 100)">
<title>ndt::deserializeStruct</title>
<polygon fill="white" stroke="none" points="-4,4 -4,-100 711,-100 711,4 -4,4"/>
<!-- Node1 -->
<g id="node1" class="node"><title>Node1</title>
<g id="a_node1"><a xlink:title=" ">
<polygon fill="#bfbfbf" stroke="black" points="0,-38.5 0,-57.5 109,-57.5 109,-38.5 0,-38.5"/>
<text text-anchor="middle" x="54.5" y="-45.5" font-family="Helvetica,sans-Serif" font-size="10.00">ndt::deserializeStruct</text>
</a>
</g>
</g>
<!-- Node2 -->
<g id="node2" class="node"><title>Node2</title>
<g id="a_node2"><a xlink:href="namespacendt.html#ab8891ed023a4bc139e70e0724c94d1b9" target="_top" xlink:title=" ">
<polygon fill="white" stroke="black" points="145,-38.5 145,-57.5 228,-57.5 228,-38.5 145,-38.5"/>
<text text-anchor="middle" x="186.5" y="-45.5" font-family="Helvetica,sans-Serif" font-size="10.00">ndt::deserialize</text>
</a>
</g>
</g>
<!-- Node1&#45;&gt;Node2 -->
<g id="edge1" class="edge"><title>Node1&#45;&gt;Node2</title>
<path fill="none" stroke="midnightblue" d="M109.127,-48C117.58,-48 126.298,-48 134.684,-48"/>
<polygon fill="midnightblue" stroke="midnightblue" points="134.71,-51.5001 144.71,-48 134.71,-44.5001 134.71,-51.5001"/>
</g>
<!-- Node3 -->
<g id="node3" class="node"><title>Node3</title>
<g id="a_node3"><a xlink:href="classndt_1_1_address.html#ae40f211c43c0d6a45b6e6728db27097b" target="_top" xlink:title=" ">
<polygon fill="white" stroke="black" points="264,-76.5 264,-95.5 378,-95.5 378,-76.5 264,-76.5"/>
<text text-anchor="middle" x="321" y="-83.5" font-family="Helvetica,sans-Serif" font-size="10.00">ndt::Address::Address</text>
</a>
</g>
</g>
<!-- Node2&#45;&gt;Node3 -->
<g id="edge2" class="edge"><title>Node2&#45;&gt;Node3</title>
<path fill="none" stroke="midnightblue" d="M220.935,-57.589C237.883,-62.4494 258.663,-68.4091 276.808,-73.6127"/>
<polygon fill="midnightblue" stroke="midnightblue" points="275.998,-77.0216 286.575,-76.4141 277.928,-70.2928 275.998,-77.0216"/>
</g>
<!-- Node5 -->
<g id="node5" class="node"><title>Node5</title>
<g id="a_node5"><a xlink:href="classndt_1_1_bin_reader.html#abe942576a40e5581bb6d6e4b94a9046d" target="_top" xlink:title=" ">
<polygon fill="white" stroke="black" points="270.5,-38.5 270.5,-57.5 371.5,-57.5 371.5,-38.5 270.5,-38.5"/>
<text text-anchor="middle" x="321" y="-45.5" font-family="Helvetica,sans-Serif" font-size="10.00">ndt::BinReader::get</text>
</a>
</g>
</g>
<!-- Node2&#45;&gt;Node5 -->
<g id="edge4" class="edge"><title>Node2&#45;&gt;Node5</title>
<path fill="none" stroke="midnightblue" d="M228.336,-48C238.362,-48 249.304,-48 260.024,-48"/>
<polygon fill="midnightblue" stroke="midnightblue" points="260.198,-51.5001 270.198,-48 260.198,-44.5001 260.198,-51.5001"/>
</g>
<!-- Node8 -->
<g id="node8" class="node"><title>Node8</title>
<g id="a_node8"><a xlink:href="namespacendt.html#a98d1fa5159a6cdd4cbbc87ee249b912a" target="_top" xlink:title=" ">
<polygon fill="white" stroke="black" points="291.5,-0.5 291.5,-19.5 350.5,-19.5 350.5,-0.5 291.5,-0.5"/>
<text text-anchor="middle" x="321" y="-7.5" font-family="Helvetica,sans-Serif" font-size="10.00">ndt::toNet</text>
</a>
</g>
</g>
<!-- Node2&#45;&gt;Node8 -->
<g id="edge7" class="edge"><title>Node2&#45;&gt;Node8</title>
<path fill="none" stroke="midnightblue" d="M220.935,-38.411C239.346,-33.1311 262.279,-26.554 281.442,-21.0581"/>
<polygon fill="midnightblue" stroke="midnightblue" points="282.428,-24.4165 291.076,-18.2952 280.498,-17.6877 282.428,-24.4165"/>
</g>
<!-- Node4 -->
<g id="node4" class="node"><title>Node4</title>
<g id="a_node4"><a xlink:href="classndt_1_1_address.html#ab40eccd53620a2883bd78cd51c745b1d" target="_top" xlink:title=" ">
<polygon fill="white" stroke="black" points="419.5,-76.5 419.5,-95.5 519.5,-95.5 519.5,-76.5 419.5,-76.5"/>
<text text-anchor="middle" x="469.5" y="-83.5" font-family="Helvetica,sans-Serif" font-size="10.00">ndt::Address::reset</text>
</a>
</g>
</g>
<!-- Node3&#45;&gt;Node4 -->
<g id="edge3" class="edge"><title>Node3&#45;&gt;Node4</title>
<path fill="none" stroke="midnightblue" d="M378.222,-86C388.389,-86 399.019,-86 409.269,-86"/>
<polygon fill="midnightblue" stroke="midnightblue" points="409.361,-89.5001 419.361,-86 409.361,-82.5001 409.361,-89.5001"/>
</g>
<!-- Node6 -->
<g id="node6" class="node"><title>Node6</title>
<g id="a_node6"><a xlink:href="namespacendt.html#ad4c1e716b25fd6e4ad568edd93a2e518" target="_top" xlink:title=" ">
<polygon fill="white" stroke="black" points="414,-38.5 414,-57.5 525,-57.5 525,-38.5 414,-38.5"/>
<text text-anchor="middle" x="469.5" y="-45.5" font-family="Helvetica,sans-Serif" font-size="10.00">ndt::make_error_code</text>
</a>
</g>
</g>
<!-- Node5&#45;&gt;Node6 -->
<g id="edge5" class="edge"><title>Node5&#45;&gt;Node6</title>
<path fill="none" stroke="midnightblue" d="M371.598,-48C381.915,-48 392.932,-48 403.703,-48"/>
<polygon fill="midnightblue" stroke="midnightblue" points="403.923,-51.5001 413.923,-48 403.923,-44.5001 403.923,-51.5001"/>
</g>
<!-- Node7 -->
<g id="node7" class="node"><title>Node7</title>
<g id="a_node7"><a xlink:href="namespacendt.html#afb00545aff91ded0f81e30a6dfde4608" target="_top" xlink:title=" ">
<polygon fill="white" stroke="black" points="561,-38.5 561,-57.5 707,-57.5 707,-38.5 561,-38.5"/>
<text text-anchor="middle" x="634" y="-45.5" font-family="Helvetica,sans-Serif" font-size="10.00">ndt::getAddressErrorCategory</text>
</a>
</g>
</g>
<!-- Node6&#45;&gt;Node7 -->
<g id="edge6" class="edge"><title>Node6&#45;&gt;Node7</title>
<path fill="none" stroke="midnightblue" d="M525.062,-48C533.346,-48 542.046,-48 550.762,-48"/>
<polygon fill="midnightblue" stroke="midnightblue" points="550.976,-51.5001 560.976,-48 550.976,-44.5001 550.976,-51.5001"/>
</g>
<!-- Node9 -->
<g id="node9" class="node"><title>Node9</title>
<g id="a_node9"><a xlink:href="namespacendt.html#a95df39eaa7d87a9005500419f320d650" target="_top" xlink:title=" ">
<polygon fill="white" stroke="black" points="437.5,-0.5 437.5,-19.5 501.5,-19.5 501.5,-0.5 437.5,-0.5"/>
<text text-anchor="middle" x="469.5" y="-7.5" font-family="Helvetica,sans-Serif" font-size="10.00">ndt::bswap</text>
</a>
</g>
</g>
<!-- Node8&#45;&gt;Node9 -->
<g id="edge8" class="edge"><title>Node8&#45;&gt;Node9</title>
<path fill="none" stroke="midnightblue" d="M350.594,-10C372.453,-10 402.89,-10 427.364,-10"/>
<polygon fill="midnightblue" stroke="midnightblue" points="427.445,-13.5001 437.445,-10 427.445,-6.5001 427.445,-13.5001"/>
</g>
</g>
</svg>
