<?xml version="1.0" encoding="UTF-8" standalone="no"?>
<!DOCTYPE svg PUBLIC "-//W3C//DTD SVG 1.1//EN"
 "http://www.w3.org/Graphics/SVG/1.1/DTD/svg11.dtd">
<!-- Generated by graphviz version 2.38.0 (20140413.2041)
 -->
<!-- Title: ndt::make_error_code Pages: 1 -->
<svg width="695pt" height="249pt"
 viewBox="0.00 0.00 695.00 249.00" xmlns="http://www.w3.org/2000/svg" xmlns:xlink="http://www.w3.org/1999/xlink">
<g id="graph0" class="graph" transform="scale(1 1) rotate(0) translate(4 245)">
<title>ndt::make_error_code</title>
<polygon fill="white" stroke="none" points="-4,4 -4,-245 691,-245 691,4 -4,4"/>
<!-- Node1 -->
<g id="node1" class="node"><title>Node1</title>
<g id="a_node1"><a xlink:title=" ">
<polygon fill="#bfbfbf" stroke="black" points="576,-98.5 576,-117.5 687,-117.5 687,-98.5 576,-98.5"/>
<text text-anchor="middle" x="631.5" y="-105.5" font-family="Helvetica,sans-Serif" font-size="10.00">ndt::make_error_code</text>
</a>
</g>
</g>
<!-- Node2 -->
<g id="node2" class="node"><title>Node2</title>
<g id="a_node2"><a xlink:href="classndt_1_1_bin_writer.html#a35faf9f5ca7d24f724b1d7443ef36aa6" target="_top" xlink:title=" ">
<polygon fill="white" stroke="black" points="418,-202.5 418,-221.5 516,-221.5 516,-202.5 418,-202.5"/>
<text text-anchor="middle" x="467" y="-209.5" font-family="Helvetica,sans-Serif" font-size="10.00">ndt::BinWriter::add</text>
</a>
</g>
</g>
<!-- Node1&#45;&gt;Node2 -->
<g id="edge1" class="edge"><title>Node1&#45;&gt;Node2</title>
<path fill="none" stroke="midnightblue" d="M615.35,-124.95C598.522,-142.86 569.779,-170.838 540,-188 529.611,-193.987 517.511,-198.75 506.228,-202.403"/>
<polygon fill="midnightblue" stroke="midnightblue" points="618.007,-127.232 622.204,-117.504 612.856,-122.491 618.007,-127.232"/>
</g>
<!-- Node8 -->
<g id="node8" class="node"><title>Node8</title>
<g id="a_node8"><a xlink:href="classndt_1_1details_1_1_bin_base.html#a11c9cb886c406f480d51e221ae54fb51" target="_top" xlink:title=" ">
<polygon fill="white" stroke="black" points="242,-125 242,-155 358,-155 358,-125 242,-125"/>
<text text-anchor="start" x="250" y="-143" font-family="Helvetica,sans-Serif" font-size="10.00">ndt::details::BinBase</text>
<text text-anchor="middle" x="300" y="-132" font-family="Helvetica,sans-Serif" font-size="10.00">::checkAlignedBufArgs</text>
</a>
</g>
</g>
<!-- Node1&#45;&gt;Node8 -->
<g id="edge7" class="edge"><title>Node1&#45;&gt;Node8</title>
<path fill="none" stroke="midnightblue" d="M608.81,-123.071C591.181,-134.351 565.191,-148.849 540,-155 479.216,-169.843 407.299,-162.049 358.346,-153.105"/>
<polygon fill="midnightblue" stroke="midnightblue" points="610.796,-125.954 617.218,-117.527 606.943,-120.11 610.796,-125.954"/>
</g>
<!-- Node9 -->
<g id="node9" class="node"><title>Node9</title>
<g id="a_node9"><a xlink:href="classndt_1_1details_1_1_bin_base.html#a2f5da6f75c3f038c3b9aee85b9a2932f" target="_top" xlink:title=" ">
<polygon fill="white" stroke="black" points="394,-115 394,-145 540,-145 540,-115 394,-115"/>
<text text-anchor="start" x="402" y="-133" font-family="Helvetica,sans-Serif" font-size="10.00">ndt::details::BinBase</text>
<text text-anchor="middle" x="467" y="-122" font-family="Helvetica,sans-Serif" font-size="10.00">::checkIsAlignedSizeAvailable</text>
</a>
</g>
</g>
<!-- Node1&#45;&gt;Node9 -->
<g id="edge8" class="edge"><title>Node1&#45;&gt;Node9</title>
<path fill="none" stroke="midnightblue" d="M565.767,-116.764C557.306,-117.909 548.596,-119.089 540.024,-120.249"/>
<polygon fill="midnightblue" stroke="midnightblue" points="566.498,-120.197 575.938,-115.387 565.559,-113.26 566.498,-120.197"/>
</g>
<!-- Node10 -->
<g id="node10" class="node"><title>Node10</title>
<g id="a_node10"><a xlink:href="namespacendt.html#a5aaa1fee44932232d1cb468ec7efbf46" target="_top" xlink:title=" ">
<polygon fill="white" stroke="black" points="425.5,-76.5 425.5,-95.5 508.5,-95.5 508.5,-76.5 425.5,-76.5"/>
<text text-anchor="middle" x="467" y="-83.5" font-family="Helvetica,sans-Serif" font-size="10.00">ndt::deserialize</text>
</a>
</g>
</g>
<!-- Node1&#45;&gt;Node10 -->
<g id="edge10" class="edge"><title>Node1&#45;&gt;Node10</title>
<path fill="none" stroke="midnightblue" d="M565.955,-99.2615C546.586,-96.6393 525.894,-93.8379 508.541,-91.4887"/>
<polygon fill="midnightblue" stroke="midnightblue" points="565.559,-102.74 575.938,-100.613 566.498,-95.8031 565.559,-102.74"/>
</g>
<!-- Node11 -->
<g id="node11" class="node"><title>Node11</title>
<g id="a_node11"><a xlink:href="classndt_1_1_bin_reader.html#aaacf8a2e2d1c3de1a8700c72aab3206a" target="_top" xlink:title=" ">
<polygon fill="white" stroke="black" points="416.5,-38.5 416.5,-57.5 517.5,-57.5 517.5,-38.5 416.5,-38.5"/>
<text text-anchor="middle" x="467" y="-45.5" font-family="Helvetica,sans-Serif" font-size="10.00">ndt::BinReader::get</text>
</a>
</g>
</g>
<!-- Node1&#45;&gt;Node11 -->
<g id="edge11" class="edge"><title>Node1&#45;&gt;Node11</title>
<path fill="none" stroke="midnightblue" d="M602.657,-93.9215C585.009,-85.3674 561.529,-74.6565 540,-67 530.134,-63.4911 519.303,-60.3006 509.106,-57.5782"/>
<polygon fill="midnightblue" stroke="midnightblue" points="601.294,-97.1511 611.812,-98.4188 604.38,-90.8682 601.294,-97.1511"/>
</g>
<!-- Node12 -->
<g id="node12" class="node"><title>Node12</title>
<g id="a_node12"><a xlink:href="namespacendt.html#a8cd0d1ac3fa1e4cb38861e0422a2c96b" target="_top" xlink:title=" ">
<polygon fill="white" stroke="black" points="431,-0.5 431,-19.5 503,-19.5 503,-0.5 431,-0.5"/>
<text text-anchor="middle" x="467" y="-7.5" font-family="Helvetica,sans-Serif" font-size="10.00">ndt::serialize</text>
</a>
</g>
</g>
<!-- Node1&#45;&gt;Node12 -->
<g id="edge12" class="edge"><title>Node1&#45;&gt;Node12</title>
<path fill="none" stroke="midnightblue" d="M615.512,-90.9027C598.822,-72.9098 570.195,-45.0217 540,-29 528.694,-23.0011 515.365,-18.8005 503.268,-15.9045"/>
<polygon fill="midnightblue" stroke="midnightblue" points="612.994,-93.3364 622.303,-98.3953 618.181,-88.6353 612.994,-93.3364"/>
</g>
<!-- Node3 -->
<g id="node3" class="node"><title>Node3</title>
<g id="a_node3"><a xlink:href="classndt_1_1_bin_writer.html#a54744a085035f18d67f710a7110ad779" target="_top" xlink:title=" ">
<polygon fill="white" stroke="black" points="251,-221.5 251,-240.5 349,-240.5 349,-221.5 251,-221.5"/>
<text text-anchor="middle" x="300" y="-228.5" font-family="Helvetica,sans-Serif" font-size="10.00">ndt::BinWriter::add</text>
</a>
</g>
</g>
<!-- Node2&#45;&gt;Node3 -->
<g id="edge2" class="edge"><title>Node2&#45;&gt;Node3</title>
<path fill="none" stroke="midnightblue" d="M407.724,-218.711C388.585,-220.914 367.537,-223.338 349.228,-225.446"/>
<polygon fill="midnightblue" stroke="midnightblue" points="408.298,-222.168 417.832,-217.547 407.497,-215.214 408.298,-222.168"/>
</g>
<!-- Node4 -->
<g id="node4" class="node"><title>Node4</title>
<g id="a_node4"><a xlink:href="namespacendt.html#a0645da168cfe455888152aa94418b891" target="_top" xlink:title=" ">
<polygon fill="white" stroke="black" points="264,-183.5 264,-202.5 336,-202.5 336,-183.5 264,-183.5"/>
<text text-anchor="middle" x="300" y="-190.5" font-family="Helvetica,sans-Serif" font-size="10.00">ndt::serialize</text>
</a>
</g>
</g>
<!-- Node2&#45;&gt;Node4 -->
<g id="edge3" class="edge"><title>Node2&#45;&gt;Node4</title>
<path fill="none" stroke="midnightblue" d="M407.786,-205.297C383.857,-202.541 356.935,-199.441 336.11,-197.043"/>
<polygon fill="midnightblue" stroke="midnightblue" points="407.497,-208.786 417.832,-206.453 408.298,-201.832 407.497,-208.786"/>
</g>
<!-- Node5 -->
<g id="node5" class="node"><title>Node5</title>
<g id="a_node5"><a xlink:href="namespacendt.html#ab2e926bf2219d00b991bbc3f89c6c4ca" target="_top" xlink:title=" ">
<polygon fill="white" stroke="black" points="121,-202.5 121,-221.5 193,-221.5 193,-202.5 121,-202.5"/>
<text text-anchor="middle" x="157" y="-209.5" font-family="Helvetica,sans-Serif" font-size="10.00">ndt::serialize</text>
</a>
</g>
</g>
<!-- Node4&#45;&gt;Node5 -->
<g id="edge4" class="edge"><title>Node4&#45;&gt;Node5</title>
<path fill="none" stroke="midnightblue" d="M253.842,-199.085C234.23,-201.728 211.6,-204.777 193.256,-207.249"/>
<polygon fill="midnightblue" stroke="midnightblue" points="254.34,-202.55 263.783,-197.745 253.406,-195.612 254.34,-202.55"/>
</g>
<!-- Node6 -->
<g id="node6" class="node"><title>Node6</title>
<g id="a_node6"><a xlink:href="namespacendt.html#ac23d246ace5c15ad0d5d9690e59d5483" target="_top" xlink:title=" ">
<polygon fill="white" stroke="black" points="108,-164.5 108,-183.5 206,-183.5 206,-164.5 108,-164.5"/>
<text text-anchor="middle" x="157" y="-171.5" font-family="Helvetica,sans-Serif" font-size="10.00">ndt::serializeStruct</text>
</a>
</g>
</g>
<!-- Node4&#45;&gt;Node6 -->
<g id="edge5" class="edge"><title>Node4&#45;&gt;Node6</title>
<path fill="none" stroke="midnightblue" d="M253.596,-186.882C238.409,-184.835 221.434,-182.548 206.051,-180.475"/>
<polygon fill="midnightblue" stroke="midnightblue" points="253.406,-190.388 263.783,-188.255 254.34,-183.45 253.406,-190.388"/>
</g>
<!-- Node7 -->
<g id="node7" class="node"><title>Node7</title>
<g id="a_node7"><a xlink:href="namespacendt.html#ae59497fb4dad656d21ec0861a63af470" target="_top" xlink:title=" ">
<polygon fill="white" stroke="black" points="0,-164.5 0,-183.5 72,-183.5 72,-164.5 0,-164.5"/>
<text text-anchor="middle" x="36" y="-171.5" font-family="Helvetica,sans-Serif" font-size="10.00">ndt::serialize</text>
</a>
</g>
</g>
<!-- Node6&#45;&gt;Node7 -->
<g id="edge6" class="edge"><title>Node6&#45;&gt;Node7</title>
<path fill="none" stroke="midnightblue" d="M97.7104,-174C88.9427,-174 80.1399,-174 72.0641,-174"/>
<polygon fill="midnightblue" stroke="midnightblue" points="97.9412,-177.5 107.941,-174 97.9411,-170.5 97.9412,-177.5"/>
</g>
<!-- Node9&#45;&gt;Node8 -->
<g id="edge9" class="edge"><title>Node9&#45;&gt;Node8</title>
<path fill="none" stroke="midnightblue" d="M383.37,-135.008C374.941,-135.519 366.514,-136.029 358.441,-136.519"/>
<polygon fill="midnightblue" stroke="midnightblue" points="383.859,-138.485 393.629,-134.386 383.435,-131.498 383.859,-138.485"/>
</g>
</g>
</svg>
