<?xml version="1.0" encoding="UTF-8" standalone="no"?>
<!DOCTYPE svg PUBLIC "-//W3C//DTD SVG 1.1//EN"
 "http://www.w3.org/Graphics/SVG/1.1/DTD/svg11.dtd">
<!-- Generated by graphviz version 2.38.0 (20140413.2041)
 -->
<!-- Title: ndt Pages: 1 -->
<svg width="1016pt" height="298pt"
 viewBox="0.00 0.00 1016.31 298.43" xmlns="http://www.w3.org/2000/svg" xmlns:xlink="http://www.w3.org/1999/xlink">
<g id="graph0" class="graph" transform="scale(1 1) rotate(0) translate(4 294.434)">
<title>ndt</title>
<polygon fill="white" stroke="none" points="-4,4 -4,-294.434 1012.31,-294.434 1012.31,4 -4,4"/>
<g id="clust1" class="cluster"><title>clusterLegend</title>
<polygon fill="none" stroke="black" points="8,-8 8,-282.434 521,-282.434 521,-8 8,-8"/>
<text text-anchor="middle" x="264.5" y="-267.234" font-family="Times New Roman,serif" font-size="14.00">Legend</text>
</g>
<!-- legendNode0 -->
<g id="node1" class="node"><title>legendNode0</title>
<polygon fill="none" stroke="black" points="274.982,-215.484 277.619,-215.582 280.228,-215.73 282.8,-215.926 285.323,-216.17 287.788,-216.461 290.184,-216.799 292.503,-217.182 294.736,-217.61 296.874,-218.081 298.909,-218.595 300.836,-219.149 302.646,-219.742 304.335,-220.373 305.898,-221.04 307.329,-221.74 308.626,-222.473 309.787,-223.235 310.807,-224.026 311.688,-224.842 312.427,-225.682 313.025,-226.544 313.483,-227.424 313.803,-228.32 313.986,-229.231 314.035,-230.153 313.954,-231.084 313.746,-232.021 313.415,-232.963 312.966,-233.906 312.404,-234.847 311.734,-235.784 310.961,-236.716 310.092,-237.638 309.131,-238.548 308.085,-239.445 306.959,-240.325 305.76,-241.186 304.493,-242.026 303.164,-242.842 301.778,-243.633 300.34,-244.396 298.857,-245.128 297.331,-245.829 295.769,-246.495 294.174,-247.126 292.55,-247.719 290.901,-248.274 289.23,-248.787 287.541,-249.258 285.836,-249.686 284.118,-250.07 282.389,-250.408 280.651,-250.699 278.905,-250.943 277.154,-251.139 275.399,-251.286 273.64,-251.385 271.88,-251.434 270.12,-251.434 268.36,-251.385 266.601,-251.286 264.846,-251.139 263.095,-250.943 261.349,-250.699 259.611,-250.408 257.882,-250.07 256.164,-249.686 254.459,-249.258 252.77,-248.787 251.099,-248.274 249.45,-247.719 247.826,-247.126 246.231,-246.495 244.669,-245.829 243.143,-245.128 241.66,-244.396 240.222,-243.633 238.836,-242.842 237.507,-242.026 236.24,-241.186 235.041,-240.325 233.915,-239.445 232.869,-238.548 231.908,-237.638 231.039,-236.716 230.266,-235.784 229.596,-234.847 229.034,-233.906 228.585,-232.963 228.254,-232.021 228.046,-231.084 227.965,-230.153 228.014,-229.231 228.197,-228.32 228.517,-227.424 228.975,-226.544 229.573,-225.682 230.312,-224.842 231.193,-224.026 232.213,-223.235 233.374,-222.473 234.671,-221.74 236.102,-221.04 237.665,-220.373 239.354,-219.742 241.164,-219.149 243.091,-218.595 245.126,-218.081 247.264,-217.61 249.497,-217.182 251.816,-216.799 254.212,-216.461 256.677,-216.17 259.2,-215.926 261.772,-215.73 264.381,-215.582 267.018,-215.484 269.671,-215.434 272.329,-215.434 274.982,-215.484"/>
<text text-anchor="middle" x="271" y="-230.334" font-family="Times New Roman,serif" font-size="12.00">Executable</text>
</g>
<!-- legendNode1 -->
<g id="node2" class="node"><title>legendNode1</title>
<polygon fill="none" stroke="black" points="119.944,-133.261 119.944,-148.173 89.5158,-158.717 46.4842,-158.717 16.0562,-148.173 16.0562,-133.261 46.4842,-122.717 89.5158,-122.717 119.944,-133.261"/>
<text text-anchor="middle" x="68" y="-137.617" font-family="Times New Roman,serif" font-size="12.00">Static Library</text>
</g>
<!-- legendNode0&#45;&gt;legendNode1 -->
<g id="edge1" class="edge"><title>legendNode0&#45;&gt;legendNode1</title>
<path fill="none" stroke="black" d="M241.047,-219.049C205.97,-203.373 147.698,-177.333 108.582,-159.853"/>
<polygon fill="black" stroke="black" points="109.634,-156.489 99.0765,-155.605 106.778,-162.88 109.634,-156.489"/>
</g>
<!-- legendNode2 -->
<g id="node3" class="node"><title>legendNode2</title>
<polygon fill="none" stroke="black" points="255.763,-133.261 255.763,-148.173 222.512,-158.717 175.488,-158.717 142.237,-148.173 142.237,-133.261 175.488,-122.717 222.512,-122.717 255.763,-133.261"/>
<polygon fill="none" stroke="black" points="259.772,-130.335 259.772,-151.099 223.134,-162.717 174.866,-162.717 138.228,-151.099 138.228,-130.335 174.866,-118.717 223.134,-118.717 259.772,-130.335"/>
<text text-anchor="middle" x="199" y="-137.617" font-family="Times New Roman,serif" font-size="12.00">Shared Library</text>
</g>
<!-- legendNode0&#45;&gt;legendNode2 -->
<g id="edge2" class="edge"><title>legendNode0&#45;&gt;legendNode2</title>
<path fill="none" stroke="black" d="M257.794,-215.795C247.792,-203.193 233.802,-185.566 221.978,-170.668"/>
<polygon fill="black" stroke="black" points="224.629,-168.379 215.671,-162.722 219.146,-172.73 224.629,-168.379"/>
</g>
<!-- legendNode3 -->
<g id="node4" class="node"><title>legendNode3</title>
<polygon fill="none" stroke="black" points="402.754,-133.261 402.754,-148.173 368.337,-158.717 319.663,-158.717 285.246,-148.173 285.246,-133.261 319.663,-122.717 368.337,-122.717 402.754,-133.261"/>
<polygon fill="none" stroke="black" points="406.762,-130.305 406.762,-151.129 368.938,-162.717 319.062,-162.717 281.238,-151.129 281.238,-130.305 319.062,-118.717 368.938,-118.717 406.762,-130.305"/>
<polygon fill="none" stroke="black" points="410.77,-127.349 410.77,-154.086 369.539,-166.717 318.461,-166.717 277.23,-154.086 277.23,-127.349 318.461,-114.717 369.539,-114.717 410.77,-127.349"/>
<text text-anchor="middle" x="344" y="-137.617" font-family="Times New Roman,serif" font-size="12.00">Module Library</text>
</g>
<!-- legendNode0&#45;&gt;legendNode3 -->
<!-- legendNode7 -->
<g id="node8" class="node"><title>legendNode7</title>
<polygon fill="none" stroke="black" points="513,-158.717 429,-158.717 429,-122.717 513,-122.717 513,-158.717"/>
<text text-anchor="middle" x="471" y="-137.617" font-family="Times New Roman,serif" font-size="12.00">Custom Target</text>
</g>
<!-- legendNode0&#45;&gt;legendNode7 -->
<!-- legendNode4 -->
<g id="node5" class="node"><title>legendNode4</title>
<polygon fill="none" stroke="black" points="156.007,-39.5623 86,-52 15.993,-39.5623 42.7333,-19.4377 129.267,-19.4377 156.007,-39.5623"/>
<text text-anchor="middle" x="86" y="-30.9" font-family="Times New Roman,serif" font-size="12.00">Interface Library</text>
</g>
<!-- legendNode1&#45;&gt;legendNode4 -->
<g id="edge4" class="edge"><title>legendNode1&#45;&gt;legendNode4</title>
<path fill="none" stroke="black" stroke-dasharray="5,2" d="M70.9723,-122.425C73.82,-105.858 78.1578,-80.623 81.4421,-61.5159"/>
<polygon fill="black" stroke="black" points="84.8975,-62.0737 83.1423,-51.6253 77.9987,-60.8878 84.8975,-62.0737"/>
<text text-anchor="middle" x="102.5" y="-85.5171" font-family="Times New Roman,serif" font-size="14.00">Interface</text>
</g>
<!-- legendNode5 -->
<g id="node6" class="node"><title>legendNode5</title>
<polygon fill="none" stroke="black" points="293.918,-34 263.959,-52 204.041,-52 174.082,-34 204.041,-16 263.959,-16 293.918,-34"/>
<text text-anchor="middle" x="234" y="-30.9" font-family="Times New Roman,serif" font-size="12.00">Object Library</text>
</g>
<!-- legendNode2&#45;&gt;legendNode5 -->
<g id="edge5" class="edge"><title>legendNode2&#45;&gt;legendNode5</title>
<path fill="none" stroke="black" stroke-dasharray="1,5" d="M206.083,-118.526C211.56,-102.14 219.177,-79.35 225.071,-61.7144"/>
<polygon fill="black" stroke="black" points="228.463,-62.6077 228.313,-52.0139 221.824,-60.3886 228.463,-62.6077"/>
<text text-anchor="middle" x="237.5" y="-85.5171" font-family="Times New Roman,serif" font-size="14.00">Private</text>
</g>
<!-- legendNode6 -->
<g id="node7" class="node"><title>legendNode6</title>
<polygon fill="none" stroke="black" points="444.051,-29.9946 430.969,-45.2228 378,-52 325.031,-45.2228 311.949,-29.9946 348.604,-17.7826 407.396,-17.7826 444.051,-29.9946"/>
<text text-anchor="middle" x="378" y="-30.9" font-family="Times New Roman,serif" font-size="12.00">Unknown Library</text>
</g>
<!-- legendNode3&#45;&gt;legendNode6 -->
<g id="edge6" class="edge"><title>legendNode3&#45;&gt;legendNode6</title>
<path fill="none" stroke="black" d="M352.144,-114.635C357.415,-98.3999 364.262,-77.311 369.586,-60.914"/>
<polygon fill="black" stroke="black" points="372.917,-61.9883 372.676,-51.3962 366.259,-59.8266 372.917,-61.9883"/>
</g>
<!-- node0 -->
<g id="node9" class="node"><title>node0</title>
<polygon fill="none" stroke="black" points="784.368,-43.2507 725,-63.9358 665.632,-43.2507 688.308,-9.78145 761.692,-9.78145 784.368,-43.2507"/>
<text text-anchor="middle" x="725" y="-37.4" font-family="Times New Roman,serif" font-size="12.00">boost_pfr</text>
<text text-anchor="middle" x="725" y="-24.4" font-family="Times New Roman,serif" font-size="12.00">(Boost::pfr)</text>
</g>
<!-- node1 -->
<g id="node10" class="node"><title>node1</title>
<polygon fill="none" stroke="black" points="889.752,-23.2118 889.752,-44.7882 864.123,-60.045 827.877,-60.045 802.248,-44.7882 802.248,-23.2118 827.877,-7.95503 864.123,-7.95503 889.752,-23.2118"/>
<text text-anchor="middle" x="846" y="-37.4" font-family="Times New Roman,serif" font-size="12.00">fmt</text>
<text text-anchor="middle" x="846" y="-24.4" font-family="Times New Roman,serif" font-size="12.00">(fmt::fmt)</text>
</g>
<!-- node2 -->
<g id="node11" class="node"><title>node2</title>
<polygon fill="none" stroke="black" points="891.276,-242.685 790,-263.37 688.724,-242.685 727.408,-209.216 852.592,-209.216 891.276,-242.685"/>
<text text-anchor="middle" x="790" y="-236.834" font-family="Times New Roman,serif" font-size="12.00">fmt&#45;header&#45;only</text>
<text text-anchor="middle" x="790" y="-223.834" font-family="Times New Roman,serif" font-size="12.00">(fmt::fmt&#45;header&#45;only)</text>
</g>
<!-- node3 -->
<g id="node12" class="node"><title>node3</title>
<polygon fill="none" stroke="black" points="593.134,-133.261 593.134,-148.173 574.896,-158.717 549.104,-158.717 530.866,-148.173 530.866,-133.261 549.104,-122.717 574.896,-122.717 593.134,-133.261"/>
<text text-anchor="middle" x="562" y="-137.617" font-family="Times New Roman,serif" font-size="12.00">gmock</text>
</g>
<!-- node4 -->
<g id="node13" class="node"><title>node4</title>
<polygon fill="none" stroke="black" points="1008.11,-225.978 1008.11,-240.89 979.344,-251.434 938.656,-251.434 909.886,-240.89 909.886,-225.978 938.656,-215.434 979.344,-215.434 1008.11,-225.978"/>
<text text-anchor="middle" x="959" y="-230.334" font-family="Times New Roman,serif" font-size="12.00">gmock_main</text>
</g>
<!-- node5 -->
<g id="node14" class="node"><title>node5</title>
<polygon fill="none" stroke="black" points="648,-26.5442 648,-41.4558 632.184,-52 609.816,-52 594,-41.4558 594,-26.5442 609.816,-16 632.184,-16 648,-26.5442"/>
<text text-anchor="middle" x="621" y="-30.9" font-family="Times New Roman,serif" font-size="12.00">gtest</text>
</g>
<!-- node6 -->
<g id="node15" class="node"><title>node6</title>
<polygon fill="none" stroke="black" points="735.121,-133.261 735.121,-148.173 709.861,-158.717 674.139,-158.717 648.879,-148.173 648.879,-133.261 674.139,-122.717 709.861,-122.717 735.121,-133.261"/>
<text text-anchor="middle" x="692" y="-137.617" font-family="Times New Roman,serif" font-size="12.00">gtest_main</text>
</g>
<!-- node6&#45;&gt;node5 -->
<g id="edge8" class="edge"><title>node6&#45;&gt;node5</title>
<path fill="none" stroke="black" d="M680.276,-122.425C668.799,-105.499 651.188,-79.5239 638.141,-60.281"/>
<polygon fill="black" stroke="black" points="641.015,-58.2829 632.506,-51.9701 635.221,-62.2112 641.015,-58.2829"/>
</g>
<!-- node7 -->
<g id="node16" class="node"><title>node7</title>
<polygon fill="none" stroke="black" points="840,-133.261 840,-148.173 824.184,-158.717 801.816,-158.717 786,-148.173 786,-133.261 801.816,-122.717 824.184,-122.717 840,-133.261"/>
<text text-anchor="middle" x="813" y="-137.617" font-family="Times New Roman,serif" font-size="12.00">ndt</text>
</g>
<!-- node7&#45;&gt;node0 -->
<g id="edge9" class="edge"><title>node7&#45;&gt;node0</title>
<path fill="none" stroke="black" d="M799.635,-123.813C786.677,-108.393 766.682,-84.5997 750.648,-65.5199"/>
<polygon fill="black" stroke="black" points="753.164,-63.0736 744.051,-57.6696 747.805,-67.5771 753.164,-63.0736"/>
</g>
<!-- node7&#45;&gt;node1 -->
<g id="edge10" class="edge"><title>node7&#45;&gt;node1</title>
<path fill="none" stroke="black" d="M818.449,-122.425C822.918,-108.246 829.388,-87.7155 834.935,-70.113"/>
<polygon fill="black" stroke="black" points="838.405,-70.7469 838.072,-60.1573 831.728,-68.6429 838.405,-70.7469"/>
</g>
<!-- node8 -->
<g id="node17" class="node"><title>node8</title>
<polygon fill="none" stroke="black" points="999.95,-26.5442 999.95,-41.4558 973.033,-52 934.967,-52 908.05,-41.4558 908.05,-26.5442 934.967,-16 973.033,-16 999.95,-26.5442"/>
<text text-anchor="middle" x="954" y="-30.9" font-family="Times New Roman,serif" font-size="12.00">ndt_version</text>
</g>
<!-- node7&#45;&gt;node8 -->
<g id="edge11" class="edge"><title>node7&#45;&gt;node8</title>
<path fill="none" stroke="black" d="M830.573,-126.666C853.855,-109.375 895.285,-78.6061 923.673,-57.5234"/>
<polygon fill="black" stroke="black" points="926.088,-60.0893 932.029,-51.3171 921.914,-54.4696 926.088,-60.0893"/>
</g>
<!-- node9 -->
<g id="node18" class="node"><title>node9</title>
<polygon fill="none" stroke="black" points="636.446,-215.484 638.727,-215.582 640.984,-215.73 643.209,-215.926 645.392,-216.17 647.525,-216.461 649.598,-216.799 651.605,-217.182 653.536,-217.61 655.386,-218.081 657.147,-218.595 658.814,-219.149 660.381,-219.742 661.842,-220.373 663.194,-221.04 664.432,-221.74 665.555,-222.473 666.558,-223.235 667.442,-224.026 668.203,-224.842 668.843,-225.682 669.36,-226.544 669.757,-227.424 670.033,-228.32 670.192,-229.231 670.234,-230.153 670.164,-231.084 669.984,-232.021 669.698,-232.963 669.309,-233.906 668.823,-234.847 668.243,-235.784 667.575,-236.716 666.822,-237.638 665.991,-238.548 665.086,-239.445 664.112,-240.325 663.075,-241.186 661.979,-242.026 660.828,-242.842 659.629,-243.633 658.386,-244.396 657.102,-245.128 655.782,-245.829 654.43,-246.495 653.05,-247.126 651.645,-247.719 650.218,-248.274 648.773,-248.787 647.312,-249.258 645.837,-249.686 644.35,-250.07 642.854,-250.408 641.35,-250.699 639.84,-250.943 638.325,-251.139 636.806,-251.286 635.284,-251.385 633.762,-251.434 632.238,-251.434 630.716,-251.385 629.194,-251.286 627.675,-251.139 626.16,-250.943 624.65,-250.699 623.146,-250.408 621.65,-250.07 620.163,-249.686 618.688,-249.258 617.227,-248.787 615.782,-248.274 614.355,-247.719 612.95,-247.126 611.57,-246.495 610.218,-245.829 608.898,-245.128 607.614,-244.396 606.371,-243.633 605.172,-242.842 604.021,-242.026 602.925,-241.186 601.888,-240.325 600.914,-239.445 600.009,-238.548 599.178,-237.638 598.425,-236.716 597.757,-235.784 597.177,-234.847 596.691,-233.906 596.302,-232.963 596.016,-232.021 595.836,-231.084 595.766,-230.153 595.808,-229.231 595.967,-228.32 596.243,-227.424 596.64,-226.544 597.157,-225.682 597.797,-224.842 598.558,-224.026 599.442,-223.235 600.445,-222.473 601.568,-221.74 602.806,-221.04 604.158,-220.373 605.619,-219.742 607.186,-219.149 608.853,-218.595 610.614,-218.081 612.464,-217.61 614.395,-217.182 616.402,-216.799 618.475,-216.461 620.608,-216.17 622.791,-215.926 625.016,-215.73 627.273,-215.582 629.554,-215.484 631.85,-215.434 634.15,-215.434 636.446,-215.484"/>
<text text-anchor="middle" x="633" y="-230.334" font-family="Times New Roman,serif" font-size="12.00">ndt_tests</text>
</g>
<!-- node9&#45;&gt;node3 -->
<g id="edge12" class="edge"><title>node9&#45;&gt;node3</title>
<path fill="none" stroke="black" stroke-dasharray="1,5" d="M619.978,-215.795C609.236,-202.071 593.831,-182.387 581.599,-166.759"/>
<polygon fill="black" stroke="black" points="584.1,-164.275 575.18,-158.558 578.587,-168.59 584.1,-164.275"/>
</g>
<!-- node9&#45;&gt;node5 -->
<g id="edge13" class="edge"><title>node9&#45;&gt;node5</title>
<path fill="none" stroke="black" stroke-dasharray="1,5" d="M631.956,-215.259C629.873,-180.982 625.184,-103.837 622.669,-62.457"/>
<polygon fill="black" stroke="black" points="626.15,-62.0457 622.05,-52.2765 619.163,-62.4704 626.15,-62.0457"/>
</g>
<!-- node9&#45;&gt;node6 -->
<g id="edge14" class="edge"><title>node9&#45;&gt;node6</title>
<path fill="none" stroke="black" stroke-dasharray="1,5" d="M643.822,-215.795C652.609,-202.283 665.154,-182.996 675.239,-167.488"/>
<polygon fill="black" stroke="black" points="678.328,-169.158 680.846,-158.867 672.46,-165.342 678.328,-169.158"/>
</g>
<!-- node9&#45;&gt;node7 -->
<g id="edge15" class="edge"><title>node9&#45;&gt;node7</title>
<path fill="none" stroke="black" stroke-dasharray="1,5" d="M655.649,-217.888C663.279,-213.179 671.911,-208.056 680,-203.717 713.791,-185.592 753.823,-167.347 781.077,-155.39"/>
<polygon fill="black" stroke="black" points="782.736,-158.485 790.504,-151.281 779.939,-152.068 782.736,-158.485"/>
</g>
</g>
</svg>
