<?xml version="1.0" encoding="UTF-8" standalone="no"?>
<!DOCTYPE svg PUBLIC "-//W3C//DTD SVG 1.1//EN"
 "http://www.w3.org/Graphics/SVG/1.1/DTD/svg11.dtd">
<!-- Generated by graphviz version 2.38.0 (20140413.2041)
 -->
<!-- Title: ndt Pages: 1 -->
<svg width="1016pt" height="295pt"
 viewBox="0.00 0.00 1016.31 294.74" xmlns="http://www.w3.org/2000/svg" xmlns:xlink="http://www.w3.org/1999/xlink">
<g id="graph0" class="graph" transform="scale(1 1) rotate(0) translate(4 290.74)">
<title>ndt</title>
<polygon fill="white" stroke="none" points="-4,4 -4,-290.74 1012.31,-290.74 1012.31,4 -4,4"/>
<g id="clust1" class="cluster"><title>clusterLegend</title>
<polygon fill="none" stroke="black" points="8,-8 8,-278.74 521,-278.74 521,-8 8,-8"/>
<text text-anchor="middle" x="264.5" y="-263.54" font-family="Times New Roman,serif" font-size="14.00">Legend</text>
</g>
<!-- legendNode0 -->
<g id="node1" class="node"><title>legendNode0</title>
<polygon fill="none" stroke="black" points="274.982,-211.789 277.619,-211.887 280.228,-212.035 282.8,-212.231 285.323,-212.475 287.788,-212.766 290.184,-213.104 292.503,-213.487 294.736,-213.915 296.874,-214.387 298.909,-214.9 300.836,-215.454 302.646,-216.048 304.335,-216.678 305.898,-217.345 307.329,-218.045 308.626,-218.778 309.787,-219.541 310.807,-220.331 311.688,-221.148 312.427,-221.988 313.025,-222.849 313.483,-223.729 313.803,-224.626 313.986,-225.536 314.035,-226.458 313.954,-227.389 313.746,-228.327 313.415,-229.268 312.966,-230.211 312.404,-231.152 311.734,-232.09 310.961,-233.021 310.092,-233.943 309.131,-234.854 308.085,-235.75 306.959,-236.63 305.76,-237.491 304.493,-238.331 303.164,-239.148 301.778,-239.938 300.34,-240.701 298.857,-241.434 297.331,-242.134 295.769,-242.801 294.174,-243.432 292.55,-244.025 290.901,-244.579 289.23,-245.092 287.541,-245.564 285.836,-245.992 284.118,-246.375 282.389,-246.713 280.651,-247.004 278.905,-247.248 277.154,-247.444 275.399,-247.592 273.64,-247.69 271.88,-247.74 270.12,-247.74 268.36,-247.69 266.601,-247.592 264.846,-247.444 263.095,-247.248 261.349,-247.004 259.611,-246.713 257.882,-246.375 256.164,-245.992 254.459,-245.564 252.77,-245.092 251.099,-244.579 249.45,-244.025 247.826,-243.432 246.231,-242.801 244.669,-242.134 243.143,-241.434 241.66,-240.701 240.222,-239.938 238.836,-239.148 237.507,-238.331 236.24,-237.491 235.041,-236.63 233.915,-235.75 232.869,-234.854 231.908,-233.943 231.039,-233.021 230.266,-232.09 229.596,-231.152 229.034,-230.211 228.585,-229.268 228.254,-228.327 228.046,-227.389 227.965,-226.458 228.014,-225.536 228.197,-224.626 228.517,-223.729 228.975,-222.849 229.573,-221.988 230.312,-221.148 231.193,-220.331 232.213,-219.541 233.374,-218.778 234.671,-218.045 236.102,-217.345 237.665,-216.678 239.354,-216.048 241.164,-215.454 243.091,-214.9 245.126,-214.387 247.264,-213.915 249.497,-213.487 251.816,-213.104 254.212,-212.766 256.677,-212.475 259.2,-212.231 261.772,-212.035 264.381,-211.887 267.018,-211.789 269.671,-211.74 272.329,-211.74 274.982,-211.789"/>
<text text-anchor="middle" x="271" y="-226.64" font-family="Times New Roman,serif" font-size="12.00">Executable</text>
</g>
<!-- legendNode1 -->
<g id="node2" class="node"><title>legendNode1</title>
<polygon fill="none" stroke="black" points="119.944,-129.567 119.944,-144.478 89.5158,-155.022 46.4842,-155.022 16.0562,-144.478 16.0562,-129.567 46.4842,-119.022 89.5158,-119.022 119.944,-129.567"/>
<text text-anchor="middle" x="68" y="-133.922" font-family="Times New Roman,serif" font-size="12.00">Static Library</text>
</g>
<!-- legendNode0&#45;&gt;legendNode1 -->
<g id="edge1" class="edge"><title>legendNode0&#45;&gt;legendNode1</title>
<path fill="none" stroke="black" d="M241.047,-215.354C205.97,-199.679 147.698,-173.638 108.582,-156.158"/>
<polygon fill="black" stroke="black" points="109.634,-152.795 99.0765,-151.91 106.778,-159.185 109.634,-152.795"/>
</g>
<!-- legendNode2 -->
<g id="node3" class="node"><title>legendNode2</title>
<polygon fill="none" stroke="black" points="255.763,-129.567 255.763,-144.478 222.512,-155.022 175.488,-155.022 142.237,-144.478 142.237,-129.567 175.488,-119.022 222.512,-119.022 255.763,-129.567"/>
<polygon fill="none" stroke="black" points="259.772,-126.641 259.772,-147.404 223.134,-159.022 174.866,-159.022 138.228,-147.404 138.228,-126.641 174.866,-115.022 223.134,-115.022 259.772,-126.641"/>
<text text-anchor="middle" x="199" y="-133.922" font-family="Times New Roman,serif" font-size="12.00">Shared Library</text>
</g>
<!-- legendNode0&#45;&gt;legendNode2 -->
<g id="edge2" class="edge"><title>legendNode0&#45;&gt;legendNode2</title>
<path fill="none" stroke="black" d="M257.794,-212.101C247.792,-199.498 233.802,-181.871 221.978,-166.974"/>
<polygon fill="black" stroke="black" points="224.629,-164.684 215.671,-159.027 219.146,-169.036 224.629,-164.684"/>
</g>
<!-- legendNode3 -->
<g id="node4" class="node"><title>legendNode3</title>
<polygon fill="none" stroke="black" points="402.754,-129.567 402.754,-144.478 368.337,-155.022 319.663,-155.022 285.246,-144.478 285.246,-129.567 319.663,-119.022 368.337,-119.022 402.754,-129.567"/>
<polygon fill="none" stroke="black" points="406.762,-126.61 406.762,-147.435 368.938,-159.022 319.062,-159.022 281.238,-147.435 281.238,-126.61 319.062,-115.022 368.938,-115.022 406.762,-126.61"/>
<polygon fill="none" stroke="black" points="410.77,-123.654 410.77,-150.391 369.539,-163.022 318.461,-163.022 277.23,-150.391 277.23,-123.654 318.461,-111.022 369.539,-111.022 410.77,-123.654"/>
<text text-anchor="middle" x="344" y="-133.922" font-family="Times New Roman,serif" font-size="12.00">Module Library</text>
</g>
<!-- legendNode0&#45;&gt;legendNode3 -->
<!-- legendNode7 -->
<g id="node8" class="node"><title>legendNode7</title>
<polygon fill="none" stroke="black" points="513,-155.022 429,-155.022 429,-119.022 513,-119.022 513,-155.022"/>
<text text-anchor="middle" x="471" y="-133.922" font-family="Times New Roman,serif" font-size="12.00">Custom Target</text>
</g>
<!-- legendNode0&#45;&gt;legendNode7 -->
<!-- legendNode4 -->
<g id="node5" class="node"><title>legendNode4</title>
<polygon fill="none" stroke="black" points="156.007,-39.5623 86,-52 15.993,-39.5623 42.7333,-19.4377 129.267,-19.4377 156.007,-39.5623"/>
<text text-anchor="middle" x="86" y="-30.9" font-family="Times New Roman,serif" font-size="12.00">Interface Library</text>
</g>
<!-- legendNode1&#45;&gt;legendNode4 -->
<g id="edge4" class="edge"><title>legendNode1&#45;&gt;legendNode4</title>
<path fill="none" stroke="black" stroke-dasharray="5,2" d="M71.0535,-118.885C73.8539,-103.168 78.0448,-79.6475 81.2768,-61.508"/>
<polygon fill="black" stroke="black" points="84.7428,-62.0082 83.0513,-51.5493 77.8513,-60.7802 84.7428,-62.0082"/>
<text text-anchor="middle" x="103.5" y="-81.8225" font-family="Times New Roman,serif" font-size="14.00">Interface</text>
</g>
<!-- legendNode5 -->
<g id="node6" class="node"><title>legendNode5</title>
<polygon fill="none" stroke="black" points="293.918,-34 263.959,-52 204.041,-52 174.082,-34 204.041,-16 263.959,-16 293.918,-34"/>
<text text-anchor="middle" x="234" y="-30.9" font-family="Times New Roman,serif" font-size="12.00">Object Library</text>
</g>
<!-- legendNode2&#45;&gt;legendNode5 -->
<g id="edge5" class="edge"><title>legendNode2&#45;&gt;legendNode5</title>
<path fill="none" stroke="black" stroke-dasharray="1,5" d="M206.423,-114.598C211.773,-99.1539 219.031,-78.2061 224.758,-61.6765"/>
<polygon fill="black" stroke="black" points="228.128,-62.639 228.095,-52.0442 221.514,-60.3474 228.128,-62.639"/>
<text text-anchor="middle" x="238.5" y="-81.8225" font-family="Times New Roman,serif" font-size="14.00">Private</text>
</g>
<!-- legendNode6 -->
<g id="node7" class="node"><title>legendNode6</title>
<polygon fill="none" stroke="black" points="444.051,-29.9946 430.969,-45.2228 378,-52 325.031,-45.2228 311.949,-29.9946 348.604,-17.7826 407.396,-17.7826 444.051,-29.9946"/>
<text text-anchor="middle" x="378" y="-30.9" font-family="Times New Roman,serif" font-size="12.00">Unknown Library</text>
</g>
<!-- legendNode3&#45;&gt;legendNode6 -->
<g id="edge6" class="edge"><title>legendNode3&#45;&gt;legendNode6</title>
<path fill="none" stroke="black" d="M352.492,-110.791C357.574,-95.691 364.023,-76.5301 369.165,-61.2523"/>
<polygon fill="black" stroke="black" points="372.61,-61.9874 372.483,-51.3934 365.976,-59.7546 372.61,-61.9874"/>
</g>
<!-- node0 -->
<g id="node9" class="node"><title>node0</title>
<polygon fill="none" stroke="black" points="768.752,-23.2118 768.752,-44.7882 743.123,-60.045 706.877,-60.045 681.248,-44.7882 681.248,-23.2118 706.877,-7.95503 743.123,-7.95503 768.752,-23.2118"/>
<text text-anchor="middle" x="725" y="-37.4" font-family="Times New Roman,serif" font-size="12.00">fmt</text>
<text text-anchor="middle" x="725" y="-24.4" font-family="Times New Roman,serif" font-size="12.00">(fmt::fmt)</text>
</g>
<!-- node1 -->
<g id="node10" class="node"><title>node1</title>
<polygon fill="none" stroke="black" points="891.276,-238.99 790,-259.675 688.724,-238.99 727.408,-205.521 852.592,-205.521 891.276,-238.99"/>
<text text-anchor="middle" x="790" y="-233.14" font-family="Times New Roman,serif" font-size="12.00">fmt&#45;header&#45;only</text>
<text text-anchor="middle" x="790" y="-220.14" font-family="Times New Roman,serif" font-size="12.00">(fmt::fmt&#45;header&#45;only)</text>
</g>
<!-- node2 -->
<g id="node11" class="node"><title>node2</title>
<polygon fill="none" stroke="black" points="593.134,-129.567 593.134,-144.478 574.896,-155.022 549.104,-155.022 530.866,-144.478 530.866,-129.567 549.104,-119.022 574.896,-119.022 593.134,-129.567"/>
<text text-anchor="middle" x="562" y="-133.922" font-family="Times New Roman,serif" font-size="12.00">gmock</text>
</g>
<!-- node3 -->
<g id="node12" class="node"><title>node3</title>
<polygon fill="none" stroke="black" points="1008.11,-222.284 1008.11,-237.195 979.344,-247.74 938.656,-247.74 909.886,-237.195 909.886,-222.284 938.656,-211.74 979.344,-211.74 1008.11,-222.284"/>
<text text-anchor="middle" x="959" y="-226.64" font-family="Times New Roman,serif" font-size="12.00">gmock_main</text>
</g>
<!-- node4 -->
<g id="node13" class="node"><title>node4</title>
<polygon fill="none" stroke="black" points="651,-26.5442 651,-41.4558 635.184,-52 612.816,-52 597,-41.4558 597,-26.5442 612.816,-16 635.184,-16 651,-26.5442"/>
<text text-anchor="middle" x="624" y="-30.9" font-family="Times New Roman,serif" font-size="12.00">gtest</text>
</g>
<!-- node5 -->
<g id="node14" class="node"><title>node5</title>
<polygon fill="none" stroke="black" points="735.121,-129.567 735.121,-144.478 709.861,-155.022 674.139,-155.022 648.879,-144.478 648.879,-129.567 674.139,-119.022 709.861,-119.022 735.121,-129.567"/>
<text text-anchor="middle" x="692" y="-133.922" font-family="Times New Roman,serif" font-size="12.00">gtest_main</text>
</g>
<!-- node5&#45;&gt;node4 -->
<g id="edge8" class="edge"><title>node5&#45;&gt;node4</title>
<path fill="none" stroke="black" d="M680.465,-118.885C669.654,-102.824 653.358,-78.6144 641.047,-60.3251"/>
<polygon fill="black" stroke="black" points="643.852,-58.2253 635.365,-51.884 638.045,-62.1342 643.852,-58.2253"/>
</g>
<!-- node6 -->
<g id="node15" class="node"><title>node6</title>
<polygon fill="none" stroke="black" points="807,-129.567 807,-144.478 791.184,-155.022 768.816,-155.022 753,-144.478 753,-129.567 768.816,-119.022 791.184,-119.022 807,-129.567"/>
<text text-anchor="middle" x="780" y="-133.922" font-family="Times New Roman,serif" font-size="12.00">ndt</text>
</g>
<!-- node6&#45;&gt;node0 -->
<g id="edge9" class="edge"><title>node6&#45;&gt;node0</title>
<path fill="none" stroke="black" d="M770.67,-118.885C763.274,-105.301 752.705,-85.8877 743.596,-69.1575"/>
<polygon fill="black" stroke="black" points="746.572,-67.3022 738.716,-60.193 740.424,-70.6493 746.572,-67.3022"/>
</g>
<!-- node7 -->
<g id="node16" class="node"><title>node7</title>
<polygon fill="none" stroke="black" points="878.95,-26.5442 878.95,-41.4558 852.033,-52 813.967,-52 787.05,-41.4558 787.05,-26.5442 813.967,-16 852.033,-16 878.95,-26.5442"/>
<text text-anchor="middle" x="833" y="-30.9" font-family="Times New Roman,serif" font-size="12.00">ndt_version</text>
</g>
<!-- node6&#45;&gt;node7 -->
<g id="edge10" class="edge"><title>node6&#45;&gt;node7</title>
<path fill="none" stroke="black" d="M788.991,-118.885C797.29,-103.066 809.737,-79.3418 819.278,-61.1554"/>
<polygon fill="black" stroke="black" points="822.419,-62.7025 823.965,-52.2212 816.22,-59.4504 822.419,-62.7025"/>
</g>
<!-- node8 -->
<g id="node17" class="node"><title>node8</title>
<polygon fill="none" stroke="black" points="636.446,-211.789 638.727,-211.887 640.984,-212.035 643.209,-212.231 645.392,-212.475 647.525,-212.766 649.598,-213.104 651.605,-213.487 653.536,-213.915 655.386,-214.387 657.147,-214.9 658.814,-215.454 660.381,-216.048 661.842,-216.678 663.194,-217.345 664.432,-218.045 665.555,-218.778 666.558,-219.541 667.442,-220.331 668.203,-221.148 668.843,-221.988 669.36,-222.849 669.757,-223.729 670.033,-224.626 670.192,-225.536 670.234,-226.458 670.164,-227.389 669.984,-228.327 669.698,-229.268 669.309,-230.211 668.823,-231.152 668.243,-232.09 667.575,-233.021 666.822,-233.943 665.991,-234.854 665.086,-235.75 664.112,-236.63 663.075,-237.491 661.979,-238.331 660.828,-239.148 659.629,-239.938 658.386,-240.701 657.102,-241.434 655.782,-242.134 654.43,-242.801 653.05,-243.432 651.645,-244.025 650.218,-244.579 648.773,-245.092 647.312,-245.564 645.837,-245.992 644.35,-246.375 642.854,-246.713 641.35,-247.004 639.84,-247.248 638.325,-247.444 636.806,-247.592 635.284,-247.69 633.762,-247.74 632.238,-247.74 630.716,-247.69 629.194,-247.592 627.675,-247.444 626.16,-247.248 624.65,-247.004 623.146,-246.713 621.65,-246.375 620.163,-245.992 618.688,-245.564 617.227,-245.092 615.782,-244.579 614.355,-244.025 612.95,-243.432 611.57,-242.801 610.218,-242.134 608.898,-241.434 607.614,-240.701 606.371,-239.938 605.172,-239.148 604.021,-238.331 602.925,-237.491 601.888,-236.63 600.914,-235.75 600.009,-234.854 599.178,-233.943 598.425,-233.021 597.757,-232.09 597.177,-231.152 596.691,-230.211 596.302,-229.268 596.016,-228.327 595.836,-227.389 595.766,-226.458 595.808,-225.536 595.967,-224.626 596.243,-223.729 596.64,-222.849 597.157,-221.988 597.797,-221.148 598.558,-220.331 599.442,-219.541 600.445,-218.778 601.568,-218.045 602.806,-217.345 604.158,-216.678 605.619,-216.048 607.186,-215.454 608.853,-214.9 610.614,-214.387 612.464,-213.915 614.395,-213.487 616.402,-213.104 618.475,-212.766 620.608,-212.475 622.791,-212.231 625.016,-212.035 627.273,-211.887 629.554,-211.789 631.85,-211.74 634.15,-211.74 636.446,-211.789"/>
<text text-anchor="middle" x="633" y="-226.64" font-family="Times New Roman,serif" font-size="12.00">ndt_tests</text>
</g>
<!-- node8&#45;&gt;node2 -->
<g id="edge11" class="edge"><title>node8&#45;&gt;node2</title>
<path fill="none" stroke="black" stroke-dasharray="1,5" d="M619.978,-212.101C609.236,-198.376 593.831,-178.693 581.599,-163.064"/>
<polygon fill="black" stroke="black" points="584.1,-160.581 575.18,-154.863 578.587,-164.895 584.1,-160.581"/>
</g>
<!-- node8&#45;&gt;node4 -->
<g id="edge12" class="edge"><title>node8&#45;&gt;node4</title>
<path fill="none" stroke="black" stroke-dasharray="1,5" d="M632.201,-211.546C630.637,-177.869 627.157,-102.967 625.272,-62.3912"/>
<polygon fill="black" stroke="black" points="628.757,-61.9813 624.797,-52.1546 621.765,-62.3062 628.757,-61.9813"/>
</g>
<!-- node8&#45;&gt;node5 -->
<g id="edge13" class="edge"><title>node8&#45;&gt;node5</title>
<path fill="none" stroke="black" stroke-dasharray="1,5" d="M643.822,-212.101C652.609,-198.589 665.154,-179.301 675.239,-163.794"/>
<polygon fill="black" stroke="black" points="678.328,-165.464 680.846,-155.172 672.46,-161.647 678.328,-165.464"/>
</g>
<!-- node8&#45;&gt;node6 -->
<g id="edge14" class="edge"><title>node8&#45;&gt;node6</title>
<path fill="none" stroke="black" stroke-dasharray="1,5" d="M656.361,-214.312C663.884,-209.707 672.274,-204.615 680,-200.022 708.243,-183.234 716.261,-180.63 744,-163.022 747.208,-160.986 750.535,-158.793 753.811,-156.582"/>
<polygon fill="black" stroke="black" points="755.993,-159.329 762.252,-150.781 752.028,-153.56 755.993,-159.329"/>
</g>
</g>
</svg>
