<?xml version="1.0" encoding="UTF-8" standalone="no"?>
<!DOCTYPE svg PUBLIC "-//W3C//DTD SVG 1.1//EN"
 "http://www.w3.org/Graphics/SVG/1.1/DTD/svg11.dtd">
<!-- Generated by graphviz version 2.38.0 (20140413.2041)
 -->
<!-- Title: C:/projects/ndt/sources/include/ndt/platform/nix/executor_select_impl.h Pages: 1 -->
<!--zoomable 453 -->
<svg id="main" version="1.1" xmlns="http://www.w3.org/2000/svg" xmlns:xlink="http://www.w3.org/1999/xlink" xml:space="preserve" onload="init(evt)">
<style type="text/css"><![CDATA[
.edge:hover path { stroke: red; }
.edge:hover polygon { stroke: red; fill: red; }
]]></style>
<script type="text/javascript"><![CDATA[
var edges = document.getElementsByTagName('g');
if (edges && edges.length) {
  for (var i=0;i<edges.length;i++) {
    if (edges[i].id.substr(0,4)=='edge') {
      edges[i].setAttribute('class','edge');
    }
  }
}
]]></script>
        <defs>
                <circle id="rim" cx="0" cy="0" r="7"/>
                <circle id="rim2" cx="0" cy="0" r="3.5"/>
                <g id="zoomPlus">
                        <use xlink:href="#rim" fill="#404040">
                                <set attributeName="fill" to="#808080" begin="zoomplus.mouseover" end="zoomplus.mouseout"/>
                        </use>
                        <path d="M-4,0h8M0,-4v8" fill="none" stroke="white" stroke-width="1.5" pointer-events="none"/>
                </g>
                <g id="zoomMin">
                        <use xlink:href="#rim" fill="#404040">
                                <set attributeName="fill" to="#808080" begin="zoomminus.mouseover" end="zoomminus.mouseout"/>
                        </use>
                        <path d="M-4,0h8" fill="none" stroke="white" stroke-width="1.5" pointer-events="none"/>
                </g>
                <g id="dirArrow">
                        <path fill="none" stroke="white" stroke-width="1.5" d="M0,-3.0v7 M-2.5,-0.5L0,-3.0L2.5,-0.5"/>
                </g>
               <g id="resetDef">
                       <use xlink:href="#rim2" fill="#404040">
                               <set attributeName="fill" to="#808080" begin="reset.mouseover" end="reset.mouseout"/>
                       </use>
               </g>
        </defs>

<script type="text/javascript">
var viewWidth = 1371;
var viewHeight = 453;
var sectionId = 'dynsection-0';
</script>
<script xlink:href="svgpan.js"/>
<svg id="graph" class="graph">
<g id="viewport">
<title>C:/projects/ndt/sources/include/ndt/platform/nix/executor_select_impl.h</title>
<polygon fill="white" stroke="none" points="-4,4 -4,-449 1366.5,-449 1366.5,4 -4,4"/>
<!-- Node1 -->
<g id="node1" class="node"><title>Node1</title>
<g id="a_node1"><a xlink:title=" ">
<polygon fill="#bfbfbf" stroke="black" points="612.5,-403.5 612.5,-444.5 748.5,-444.5 748.5,-403.5 612.5,-403.5"/>
<text text-anchor="start" x="620.5" y="-432.5" font-family="Helvetica,sans-Serif" font-size="10.00">C:/projects/ndt/sources</text>
<text text-anchor="start" x="620.5" y="-421.5" font-family="Helvetica,sans-Serif" font-size="10.00">/include/ndt/platform</text>
<text text-anchor="middle" x="680.5" y="-410.5" font-family="Helvetica,sans-Serif" font-size="10.00">/nix/executor_select_impl.h</text>
</a>
</g>
</g>
<!-- Node2 -->
<g id="node2" class="node"><title>Node2</title>
<g id="a_node2"><a xlink:href="common_8h.html" target="_top" xlink:title="Header with typedefs to make type designation platform independent.">
<polygon fill="white" stroke="black" points="335.5,-56.5 335.5,-75.5 415.5,-75.5 415.5,-56.5 335.5,-56.5"/>
<text text-anchor="middle" x="375.5" y="-63.5" font-family="Helvetica,sans-Serif" font-size="10.00">../../common.h</text>
</a>
</g>
</g>
<!-- Node1&#45;&gt;Node2 -->
<g id="edge1" class="edge"><title>Node1&#45;&gt;Node2</title>
<path fill="none" stroke="midnightblue" d="M612.383,-419.902C471.577,-411.634 161.5,-382.985 161.5,-291 161.5,-291 161.5,-291 161.5,-177 161.5,-103.695 262.053,-79.2013 325.306,-71.0451"/>
<polygon fill="midnightblue" stroke="midnightblue" points="325.984,-74.4891 335.499,-69.8293 325.155,-67.5384 325.984,-74.4891"/>
</g>
<!-- Node12 -->
<g id="node12" class="node"><title>Node12</title>
<g id="a_node12"><a xlink:href="executor__select__base_8h.html" target="_top" xlink:title=" ">
<polygon fill="white" stroke="black" points="628.5,-336.5 628.5,-366.5 732.5,-366.5 732.5,-336.5 628.5,-336.5"/>
<text text-anchor="start" x="636.5" y="-354.5" font-family="Helvetica,sans-Serif" font-size="10.00">../../executor_select</text>
<text text-anchor="middle" x="680.5" y="-343.5" font-family="Helvetica,sans-Serif" font-size="10.00">_base.h</text>
</a>
</g>
</g>
<!-- Node1&#45;&gt;Node12 -->
<g id="edge11" class="edge"><title>Node1&#45;&gt;Node12</title>
<path fill="none" stroke="midnightblue" d="M680.5,-403.362C680.5,-395.226 680.5,-385.7 680.5,-377.105"/>
<polygon fill="midnightblue" stroke="midnightblue" points="684,-376.892 680.5,-366.892 677,-376.892 684,-376.892"/>
</g>
<!-- Node3 -->
<g id="node3" class="node"><title>Node3</title>
<g id="a_node3"><a xlink:title=" ">
<polygon fill="white" stroke="#bfbfbf" points="458.5,-0.5 458.5,-19.5 520.5,-19.5 520.5,-0.5 458.5,-0.5"/>
<text text-anchor="middle" x="489.5" y="-7.5" font-family="Helvetica,sans-Serif" font-size="10.00">arpa/inet.h</text>
</a>
</g>
</g>
<!-- Node2&#45;&gt;Node3 -->
<g id="edge2" class="edge"><title>Node2&#45;&gt;Node3</title>
<path fill="none" stroke="midnightblue" d="M393.564,-56.4435C412.075,-47.6751 441.081,-33.9355 462.355,-23.8579"/>
<polygon fill="midnightblue" stroke="midnightblue" points="463.982,-26.9604 471.521,-19.5164 460.985,-20.6343 463.982,-26.9604"/>
</g>
<!-- Node4 -->
<g id="node4" class="node"><title>Node4</title>
<g id="a_node4"><a xlink:title=" ">
<polygon fill="white" stroke="#bfbfbf" points="539,-0.5 539,-19.5 586,-19.5 586,-0.5 539,-0.5"/>
<text text-anchor="middle" x="562.5" y="-7.5" font-family="Helvetica,sans-Serif" font-size="10.00">errno.h</text>
</a>
</g>
</g>
<!-- Node2&#45;&gt;Node4 -->
<g id="edge3" class="edge"><title>Node2&#45;&gt;Node4</title>
<path fill="none" stroke="midnightblue" d="M405.131,-56.4435C438.875,-46.6993 493.879,-30.8158 529.112,-20.6414"/>
<polygon fill="midnightblue" stroke="midnightblue" points="530.292,-23.9437 538.929,-17.8067 528.35,-17.2185 530.292,-23.9437"/>
</g>
<!-- Node5 -->
<g id="node5" class="node"><title>Node5</title>
<g id="a_node5"><a xlink:title=" ">
<polygon fill="white" stroke="#bfbfbf" points="0,-0.5 0,-19.5 43,-19.5 43,-0.5 0,-0.5"/>
<text text-anchor="middle" x="21.5" y="-7.5" font-family="Helvetica,sans-Serif" font-size="10.00">fcntl.h</text>
</a>
</g>
</g>
<!-- Node2&#45;&gt;Node5 -->
<g id="edge4" class="edge"><title>Node2&#45;&gt;Node5</title>
<path fill="none" stroke="midnightblue" d="M335.248,-61.4144C275.506,-55.6568 159.765,-42.8316 52.9977,-20.0517"/>
<polygon fill="midnightblue" stroke="midnightblue" points="53.5412,-16.5883 43.0266,-17.889 52.0574,-23.4292 53.5412,-16.5883"/>
</g>
<!-- Node6 -->
<g id="node6" class="node"><title>Node6</title>
<g id="a_node6"><a xlink:title=" ">
<polygon fill="white" stroke="#bfbfbf" points="61,-0.5 61,-19.5 110,-19.5 110,-0.5 61,-0.5"/>
<text text-anchor="middle" x="85.5" y="-7.5" font-family="Helvetica,sans-Serif" font-size="10.00">netdb.h</text>
</a>
</g>
</g>
<!-- Node2&#45;&gt;Node6 -->
<g id="edge5" class="edge"><title>Node2&#45;&gt;Node6</title>
<path fill="none" stroke="midnightblue" d="M335.208,-59.1313C286.397,-51.761 201.498,-38.1073 120.199,-20.2311"/>
<polygon fill="midnightblue" stroke="midnightblue" points="120.826,-16.7852 110.305,-18.0303 119.306,-23.6182 120.826,-16.7852"/>
</g>
<!-- Node7 -->
<g id="node7" class="node"><title>Node7</title>
<g id="a_node7"><a xlink:title=" ">
<polygon fill="white" stroke="#bfbfbf" points="128,-0.5 128,-19.5 193,-19.5 193,-0.5 128,-0.5"/>
<text text-anchor="middle" x="160.5" y="-7.5" font-family="Helvetica,sans-Serif" font-size="10.00">netinet/in.h</text>
</a>
</g>
</g>
<!-- Node2&#45;&gt;Node7 -->
<g id="edge6" class="edge"><title>Node2&#45;&gt;Node7</title>
<path fill="none" stroke="midnightblue" d="M341.433,-56.4435C303.883,-47.0125 243.436,-31.8305 202.862,-21.6397"/>
<polygon fill="midnightblue" stroke="midnightblue" points="203.552,-18.2044 193.001,-19.1629 201.847,-24.9936 203.552,-18.2044"/>
</g>
<!-- Node8 -->
<g id="node8" class="node"><title>Node8</title>
<g id="a_node8"><a xlink:title=" ">
<polygon fill="white" stroke="#bfbfbf" points="211,-0.5 211,-19.5 284,-19.5 284,-0.5 211,-0.5"/>
<text text-anchor="middle" x="247.5" y="-7.5" font-family="Helvetica,sans-Serif" font-size="10.00">sys/socket.h</text>
</a>
</g>
</g>
<!-- Node2&#45;&gt;Node8 -->
<g id="edge7" class="edge"><title>Node2&#45;&gt;Node8</title>
<path fill="none" stroke="midnightblue" d="M355.218,-56.4435C334.153,-47.5566 300.983,-33.5632 277.014,-23.4514"/>
<polygon fill="midnightblue" stroke="midnightblue" points="278.261,-20.1787 267.687,-19.5164 275.54,-26.6283 278.261,-20.1787"/>
</g>
<!-- Node9 -->
<g id="node9" class="node"><title>Node9</title>
<g id="a_node9"><a xlink:title=" ">
<polygon fill="white" stroke="#bfbfbf" points="302.5,-0.5 302.5,-19.5 370.5,-19.5 370.5,-0.5 302.5,-0.5"/>
<text text-anchor="middle" x="336.5" y="-7.5" font-family="Helvetica,sans-Serif" font-size="10.00">sys/types.h</text>
</a>
</g>
</g>
<!-- Node2&#45;&gt;Node9 -->
<g id="edge8" class="edge"><title>Node2&#45;&gt;Node9</title>
<path fill="none" stroke="midnightblue" d="M369.06,-56.083C363.551,-48.4554 355.469,-37.2645 348.735,-27.9408"/>
<polygon fill="midnightblue" stroke="midnightblue" points="351.513,-25.8087 342.82,-19.7511 345.838,-29.9071 351.513,-25.8087"/>
</g>
<!-- Node10 -->
<g id="node10" class="node"><title>Node10</title>
<g id="a_node10"><a xlink:title=" ">
<polygon fill="white" stroke="#bfbfbf" points="389,-0.5 389,-19.5 440,-19.5 440,-0.5 389,-0.5"/>
<text text-anchor="middle" x="414.5" y="-7.5" font-family="Helvetica,sans-Serif" font-size="10.00">unistd.h</text>
</a>
</g>
</g>
<!-- Node2&#45;&gt;Node10 -->
<g id="edge9" class="edge"><title>Node2&#45;&gt;Node10</title>
<path fill="none" stroke="midnightblue" d="M381.94,-56.083C387.449,-48.4554 395.531,-37.2645 402.265,-27.9408"/>
<polygon fill="midnightblue" stroke="midnightblue" points="405.162,-29.9071 408.18,-19.7511 399.487,-25.8087 405.162,-29.9071"/>
</g>
<!-- Node11 -->
<g id="node11" class="node"><title>Node11</title>
<g id="a_node11"><a xlink:title=" ">
<polygon fill="white" stroke="#bfbfbf" points="604.5,-0.5 604.5,-19.5 652.5,-19.5 652.5,-0.5 604.5,-0.5"/>
<text text-anchor="middle" x="628.5" y="-7.5" font-family="Helvetica,sans-Serif" font-size="10.00">cstddef</text>
</a>
</g>
</g>
<!-- Node2&#45;&gt;Node11 -->
<g id="edge10" class="edge"><title>Node2&#45;&gt;Node11</title>
<path fill="none" stroke="midnightblue" d="M415.61,-57.459C459.639,-49.0182 532.341,-34.601 594.5,-20 594.6,-19.9764 594.701,-19.9528 594.801,-19.9291"/>
<polygon fill="midnightblue" stroke="midnightblue" points="595.527,-23.3551 604.396,-17.5592 593.848,-16.5594 595.527,-23.3551"/>
</g>
<!-- Node12&#45;&gt;Node2 -->
<g id="edge15" class="edge"><title>Node12&#45;&gt;Node2</title>
<path fill="none" stroke="midnightblue" d="M628.109,-348.945C503.444,-343.825 199.5,-322.384 199.5,-235 199.5,-235 199.5,-235 199.5,-177 199.5,-117.253 273.337,-88.7555 325.361,-76.0917"/>
<polygon fill="midnightblue" stroke="midnightblue" points="326.167,-79.4977 335.122,-73.8363 324.591,-72.6774 326.167,-79.4977"/>
</g>
<!-- Node13 -->
<g id="node13" class="node"><title>Node13</title>
<g id="a_node13"><a xlink:title=" ">
<polygon fill="white" stroke="#bfbfbf" points="1324.5,-56.5 1324.5,-75.5 1362.5,-75.5 1362.5,-56.5 1324.5,-56.5"/>
<text text-anchor="middle" x="1343.5" y="-63.5" font-family="Helvetica,sans-Serif" font-size="10.00">array</text>
</a>
</g>
</g>
<!-- Node12&#45;&gt;Node13 -->
<g id="edge12" class="edge"><title>Node12&#45;&gt;Node13</title>
<path fill="none" stroke="midnightblue" d="M732.674,-350.2C867.043,-348.026 1214.5,-332.935 1214.5,-235 1214.5,-235 1214.5,-235 1214.5,-177 1214.5,-124.585 1276.93,-91.8627 1314.93,-76.8"/>
<polygon fill="midnightblue" stroke="midnightblue" points="1316.36,-80.001 1324.47,-73.1835 1313.87,-73.4556 1316.36,-80.001"/>
</g>
<!-- Node14 -->
<g id="node14" class="node"><title>Node14</title>
<g id="a_node14"><a xlink:title=" ">
<polygon fill="white" stroke="#bfbfbf" points="819.5,-224.5 819.5,-243.5 877.5,-243.5 877.5,-224.5 819.5,-224.5"/>
<text text-anchor="middle" x="848.5" y="-231.5" font-family="Helvetica,sans-Serif" font-size="10.00">functional</text>
</a>
</g>
</g>
<!-- Node12&#45;&gt;Node14 -->
<g id="edge13" class="edge"><title>Node12&#45;&gt;Node14</title>
<path fill="none" stroke="midnightblue" d="M701.1,-336.337C733.296,-314.203 795.2,-271.644 827.587,-249.378"/>
<polygon fill="midnightblue" stroke="midnightblue" points="829.632,-252.219 835.89,-243.669 825.667,-246.451 829.632,-252.219"/>
</g>
<!-- Node15 -->
<g id="node15" class="node"><title>Node15</title>
<g id="a_node15"><a xlink:title=" ">
<polygon fill="white" stroke="#bfbfbf" points="444.5,-56.5 444.5,-75.5 518.5,-75.5 518.5,-56.5 444.5,-56.5"/>
<text text-anchor="middle" x="481.5" y="-63.5" font-family="Helvetica,sans-Serif" font-size="10.00">system_error</text>
</a>
</g>
</g>
<!-- Node12&#45;&gt;Node15 -->
<g id="edge14" class="edge"><title>Node12&#45;&gt;Node15</title>
<path fill="none" stroke="midnightblue" d="M628.308,-345.091C526.985,-333.136 313.5,-300.21 313.5,-235 313.5,-235 313.5,-235 313.5,-177 313.5,-146.902 311.313,-133.377 332.5,-112 346.906,-97.4651 396.424,-84.3768 434.463,-76.1115"/>
<polygon fill="midnightblue" stroke="midnightblue" points="435.296,-79.5127 444.352,-74.0137 433.843,-72.6651 435.296,-79.5127"/>
</g>
<!-- Node16 -->
<g id="node16" class="node"><title>Node16</title>
<g id="a_node16"><a xlink:href="event__handler__select_8h.html" target="_top" xlink:title=" ">
<polygon fill="white" stroke="black" points="854.5,-280.5 854.5,-299.5 970.5,-299.5 970.5,-280.5 854.5,-280.5"/>
<text text-anchor="middle" x="912.5" y="-287.5" font-family="Helvetica,sans-Serif" font-size="10.00">event_handler_select.h</text>
</a>
</g>
</g>
<!-- Node12&#45;&gt;Node16 -->
<g id="edge16" class="edge"><title>Node12&#45;&gt;Node16</title>
<path fill="none" stroke="midnightblue" d="M732.565,-337.147C773.771,-326.579 830.63,-311.997 869.329,-302.072"/>
<polygon fill="midnightblue" stroke="midnightblue" points="870.428,-305.403 879.245,-299.529 868.689,-298.623 870.428,-305.403"/>
</g>
<!-- Node20 -->
<g id="node20" class="node"><title>Node20</title>
<g id="a_node20"><a xlink:href="socket_8h.html" target="_top" xlink:title=" ">
<polygon fill="white" stroke="black" points="574.5,-280.5 574.5,-299.5 628.5,-299.5 628.5,-280.5 574.5,-280.5"/>
<text text-anchor="middle" x="601.5" y="-287.5" font-family="Helvetica,sans-Serif" font-size="10.00">socket.h</text>
</a>
</g>
</g>
<!-- Node12&#45;&gt;Node20 -->
<g id="edge21" class="edge"><title>Node12&#45;&gt;Node20</title>
<path fill="none" stroke="midnightblue" d="M661.778,-336.399C649.588,-327.218 633.708,-315.258 621.307,-305.918"/>
<polygon fill="midnightblue" stroke="midnightblue" points="623.089,-302.878 612.995,-299.658 618.877,-308.47 623.089,-302.878"/>
</g>
<!-- Node17 -->
<g id="node17" class="node"><title>Node17</title>
<g id="a_node17"><a xlink:title=" ">
<polygon fill="white" stroke="#bfbfbf" points="580.5,-56.5 580.5,-75.5 626.5,-75.5 626.5,-56.5 580.5,-56.5"/>
<text text-anchor="middle" x="603.5" y="-63.5" font-family="Helvetica,sans-Serif" font-size="10.00">cstdint</text>
</a>
</g>
</g>
<!-- Node16&#45;&gt;Node17 -->
<g id="edge17" class="edge"><title>Node16&#45;&gt;Node17</title>
<path fill="none" stroke="midnightblue" d="M910.996,-280.449C908.249,-267.016 901.286,-240.777 886.5,-224 849.132,-181.601 695.733,-108.886 631.74,-79.685"/>
<polygon fill="midnightblue" stroke="midnightblue" points="633.172,-76.4912 622.619,-75.5418 630.277,-82.8645 633.172,-76.4912"/>
</g>
<!-- Node18 -->
<g id="node18" class="node"><title>Node18</title>
<g id="a_node18"><a xlink:title=" ">
<polygon fill="white" stroke="#bfbfbf" points="850.5,-56.5 850.5,-75.5 912.5,-75.5 912.5,-56.5 850.5,-56.5"/>
<text text-anchor="middle" x="881.5" y="-63.5" font-family="Helvetica,sans-Serif" font-size="10.00">type_traits</text>
</a>
</g>
</g>
<!-- Node16&#45;&gt;Node18 -->
<g id="edge18" class="edge"><title>Node16&#45;&gt;Node18</title>
<path fill="none" stroke="midnightblue" d="M914.667,-280.452C919.394,-260.613 929.725,-209.939 923.5,-168 919.681,-142.271 916.651,-135.948 906.5,-112 902.489,-102.537 897.037,-92.4953 892.247,-84.3041"/>
<polygon fill="midnightblue" stroke="midnightblue" points="895.213,-82.4447 887.056,-75.684 889.217,-86.0562 895.213,-82.4447"/>
</g>
<!-- Node19 -->
<g id="node19" class="node"><title>Node19</title>
<g id="a_node19"><a xlink:href="executor__select_8h.html" target="_top" xlink:title=" ">
<polygon fill="white" stroke="black" points="971.5,-224.5 971.5,-243.5 1065.5,-243.5 1065.5,-224.5 971.5,-224.5"/>
<text text-anchor="middle" x="1018.5" y="-231.5" font-family="Helvetica,sans-Serif" font-size="10.00">executor_select.h</text>
</a>
</g>
</g>
<!-- Node16&#45;&gt;Node19 -->
<g id="edge19" class="edge"><title>Node16&#45;&gt;Node19</title>
<path fill="none" stroke="midnightblue" d="M929.531,-280.324C946.53,-271.664 972.876,-258.242 992.493,-248.249"/>
<polygon fill="midnightblue" stroke="midnightblue" points="994.19,-251.312 1001.51,-243.655 991.012,-245.075 994.19,-251.312"/>
</g>
<!-- Node19&#45;&gt;Node1 -->
<g id="edge20" class="edge"><title>Node19&#45;&gt;Node1</title>
<path fill="none" stroke="midnightblue" d="M1015.34,-243.786C1009.97,-257.539 997.858,-284.21 979.5,-300 915.445,-355.094 823.345,-387.923 758.326,-405.623"/>
<polygon fill="midnightblue" stroke="midnightblue" points="757.297,-402.275 748.534,-408.23 759.098,-409.039 757.297,-402.275"/>
</g>
<!-- Node20&#45;&gt;Node2 -->
<g id="edge67" class="edge"><title>Node20&#45;&gt;Node2</title>
<path fill="none" stroke="midnightblue" d="M574.375,-285.038C511.293,-274.15 355.824,-237.242 299.5,-132 287.296,-109.196 315.03,-90.9219 340.354,-79.6271"/>
<polygon fill="midnightblue" stroke="midnightblue" points="341.984,-82.739 349.854,-75.6451 339.278,-76.2832 341.984,-82.739"/>
</g>
<!-- Node20&#45;&gt;Node14 -->
<g id="edge23" class="edge"><title>Node20&#45;&gt;Node14</title>
<path fill="none" stroke="midnightblue" d="M628.877,-283.015C672.825,-273.407 759.274,-254.507 809.61,-243.502"/>
<polygon fill="midnightblue" stroke="midnightblue" points="810.452,-246.901 819.474,-241.346 808.957,-240.062 810.452,-246.901"/>
</g>
<!-- Node21 -->
<g id="node21" class="node"><title>Node21</title>
<g id="a_node21"><a xlink:title=" ">
<polygon fill="white" stroke="#bfbfbf" points="184,-56.5 184,-75.5 233,-75.5 233,-56.5 184,-56.5"/>
<text text-anchor="middle" x="208.5" y="-63.5" font-family="Helvetica,sans-Serif" font-size="10.00">cassert</text>
</a>
</g>
</g>
<!-- Node20&#45;&gt;Node21 -->
<g id="edge22" class="edge"><title>Node20&#45;&gt;Node21</title>
<path fill="none" stroke="midnightblue" d="M574.187,-287.075C533.031,-283.319 453.451,-272.691 392.5,-244 312.981,-206.568 246.26,-120.938 220.216,-84.2272"/>
<polygon fill="midnightblue" stroke="midnightblue" points="222.814,-81.834 214.228,-75.6269 217.07,-85.8336 222.814,-81.834"/>
</g>
<!-- Node22 -->
<g id="node22" class="node"><title>Node22</title>
<g id="a_node22"><a xlink:href="address_8h.html" target="_top" xlink:title=" ">
<polygon fill="white" stroke="black" points="572,-224.5 572,-243.5 631,-243.5 631,-224.5 572,-224.5"/>
<text text-anchor="middle" x="601.5" y="-231.5" font-family="Helvetica,sans-Serif" font-size="10.00">address.h</text>
</a>
</g>
</g>
<!-- Node20&#45;&gt;Node22 -->
<g id="edge24" class="edge"><title>Node20&#45;&gt;Node22</title>
<path fill="none" stroke="midnightblue" d="M601.5,-280.083C601.5,-273.006 601.5,-262.861 601.5,-253.986"/>
<polygon fill="midnightblue" stroke="midnightblue" points="605,-253.751 601.5,-243.751 598,-253.751 605,-253.751"/>
</g>
<!-- Node28 -->
<g id="node28" class="node"><title>Node28</title>
<g id="a_node28"><a xlink:href="buffer_8h.html" target="_top" xlink:title=" ">
<polygon fill="white" stroke="black" points="465.5,-112.5 465.5,-131.5 513.5,-131.5 513.5,-112.5 465.5,-112.5"/>
<text text-anchor="middle" x="489.5" y="-119.5" font-family="Helvetica,sans-Serif" font-size="10.00">buffer.h</text>
</a>
</g>
</g>
<!-- Node20&#45;&gt;Node28 -->
<g id="edge66" class="edge"><title>Node20&#45;&gt;Node28</title>
<path fill="none" stroke="midnightblue" d="M581.873,-280.373C552.172,-266.092 496.899,-234.433 474.5,-188 467.282,-173.038 472.862,-154.436 479.164,-140.971"/>
<polygon fill="midnightblue" stroke="midnightblue" points="482.414,-142.307 483.924,-131.82 476.204,-139.077 482.414,-142.307"/>
</g>
<!-- Node31 -->
<g id="node31" class="node"><title>Node31</title>
<g id="a_node31"><a xlink:href="useful__base__types_8h.html" target="_top" xlink:title=" ">
<polygon fill="white" stroke="black" points="644.5,-56.5 644.5,-75.5 750.5,-75.5 750.5,-56.5 644.5,-56.5"/>
<text text-anchor="middle" x="697.5" y="-63.5" font-family="Helvetica,sans-Serif" font-size="10.00">useful_base_types.h</text>
</a>
</g>
</g>
<!-- Node20&#45;&gt;Node31 -->
<g id="edge69" class="edge"><title>Node20&#45;&gt;Node31</title>
<path fill="none" stroke="midnightblue" d="M628.576,-282.514C669.18,-271.164 744.486,-243.44 776.5,-188 780.945,-180.302 779.526,-176.358 776.5,-168 769.41,-148.417 759.439,-148.32 746.5,-132 733.66,-115.804 719.498,-96.8994 709.716,-83.6665"/>
<polygon fill="midnightblue" stroke="midnightblue" points="712.461,-81.4916 703.713,-75.5145 706.824,-85.6422 712.461,-81.4916"/>
</g>
<!-- Node32 -->
<g id="node32" class="node"><title>Node32</title>
<g id="a_node32"><a xlink:href="utils_8h.html" target="_top" xlink:title=" ">
<polygon fill="white" stroke="black" points="1016,-112.5 1016,-131.5 1059,-131.5 1059,-112.5 1016,-112.5"/>
<text text-anchor="middle" x="1037.5" y="-119.5" font-family="Helvetica,sans-Serif" font-size="10.00">utils.h</text>
</a>
</g>
</g>
<!-- Node20&#45;&gt;Node32 -->
<g id="edge70" class="edge"><title>Node20&#45;&gt;Node32</title>
<path fill="none" stroke="midnightblue" d="M628.678,-283.137C661.922,-275.623 719.677,-261.459 767.5,-244 787.299,-236.772 790.603,-230.954 810.5,-224 874.813,-201.524 898.634,-218.605 959.5,-188 984.215,-175.573 1007.94,-153.954 1022.6,-139.084"/>
<polygon fill="midnightblue" stroke="midnightblue" points="1025.37,-141.258 1029.76,-131.618 1020.32,-136.412 1025.37,-141.258"/>
</g>
<!-- Node37 -->
<g id="node37" class="node"><title>Node37</title>
<g id="a_node37"><a xlink:href="exception_8h.html" target="_top" xlink:title=" ">
<polygon fill="white" stroke="black" points="342,-112.5 342,-131.5 409,-131.5 409,-112.5 342,-112.5"/>
<text text-anchor="middle" x="375.5" y="-119.5" font-family="Helvetica,sans-Serif" font-size="10.00">exception.h</text>
</a>
</g>
</g>
<!-- Node20&#45;&gt;Node37 -->
<g id="edge68" class="edge"><title>Node20&#45;&gt;Node37</title>
<path fill="none" stroke="midnightblue" d="M575.762,-280.46C554.174,-272.679 523.027,-259.975 498.5,-244 452.471,-214.021 409.272,-164.904 388.466,-139.45"/>
<polygon fill="midnightblue" stroke="midnightblue" points="391.069,-137.101 382.073,-131.503 385.615,-141.489 391.069,-137.101"/>
</g>
<!-- Node23 -->
<g id="node23" class="node"><title>Node23</title>
<g id="a_node23"><a xlink:title=" ">
<polygon fill="white" stroke="#bfbfbf" points="550,-168.5 550,-187.5 591,-187.5 591,-168.5 550,-168.5"/>
<text text-anchor="middle" x="570.5" y="-175.5" font-family="Helvetica,sans-Serif" font-size="10.00">string</text>
</a>
</g>
</g>
<!-- Node22&#45;&gt;Node23 -->
<g id="edge25" class="edge"><title>Node22&#45;&gt;Node23</title>
<path fill="none" stroke="midnightblue" d="M596.381,-224.083C592.092,-216.613 585.842,-205.724 580.558,-196.52"/>
<polygon fill="midnightblue" stroke="midnightblue" points="583.538,-194.681 575.524,-187.751 577.467,-198.166 583.538,-194.681"/>
</g>
<!-- Node24 -->
<g id="node24" class="node"><title>Node24</title>
<g id="a_node24"><a xlink:title=" ">
<polygon fill="white" stroke="#bfbfbf" points="609.5,-168.5 609.5,-187.5 653.5,-187.5 653.5,-168.5 609.5,-168.5"/>
<text text-anchor="middle" x="631.5" y="-175.5" font-family="Helvetica,sans-Serif" font-size="10.00">variant</text>
</a>
</g>
</g>
<!-- Node22&#45;&gt;Node24 -->
<g id="edge26" class="edge"><title>Node22&#45;&gt;Node24</title>
<path fill="none" stroke="midnightblue" d="M606.454,-224.083C610.604,-216.613 616.653,-205.724 621.767,-196.52"/>
<polygon fill="midnightblue" stroke="midnightblue" points="624.841,-198.192 626.638,-187.751 618.722,-194.793 624.841,-198.192"/>
</g>
<!-- Node25 -->
<g id="node25" class="node"><title>Node25</title>
<g id="a_node25"><a xlink:href="bin__rw_8h.html" target="_top" xlink:title=" ">
<polygon fill="white" stroke="black" points="862,-168.5 862,-187.5 915,-187.5 915,-168.5 862,-168.5"/>
<text text-anchor="middle" x="888.5" y="-175.5" font-family="Helvetica,sans-Serif" font-size="10.00">bin_rw.h</text>
</a>
</g>
</g>
<!-- Node22&#45;&gt;Node25 -->
<g id="edge27" class="edge"><title>Node22&#45;&gt;Node25</title>
<path fill="none" stroke="midnightblue" d="M631.133,-227.424C683.985,-217.48 794.352,-196.714 851.868,-185.893"/>
<polygon fill="midnightblue" stroke="midnightblue" points="852.786,-189.281 861.966,-183.992 851.491,-182.402 852.786,-189.281"/>
</g>
<!-- Node22&#45;&gt;Node28 -->
<g id="edge54" class="edge"><title>Node22&#45;&gt;Node28</title>
<path fill="none" stroke="midnightblue" d="M571.748,-230.727C543.972,-226.843 503.967,-216.345 484.5,-188 475.207,-174.469 478.048,-155.407 482.258,-141.425"/>
<polygon fill="midnightblue" stroke="midnightblue" points="485.592,-142.492 485.565,-131.897 478.979,-140.197 485.592,-142.492"/>
</g>
<!-- Node22&#45;&gt;Node32 -->
<g id="edge65" class="edge"><title>Node22&#45;&gt;Node32</title>
<path fill="none" stroke="midnightblue" d="M631.221,-232.565C689.055,-230.917 820.118,-223.241 923.5,-188 958.785,-175.972 995.536,-152.766 1017.46,-137.584"/>
<polygon fill="midnightblue" stroke="midnightblue" points="1019.76,-140.251 1025.91,-131.625 1015.72,-134.532 1019.76,-140.251"/>
</g>
<!-- Node22&#45;&gt;Node37 -->
<g id="edge55" class="edge"><title>Node22&#45;&gt;Node37</title>
<path fill="none" stroke="midnightblue" d="M571.935,-224.736C545.66,-216.879 506.557,-203.913 474.5,-188 445.246,-173.479 414.18,-151.953 394.814,-137.706"/>
<polygon fill="midnightblue" stroke="midnightblue" points="396.656,-134.713 386.547,-131.541 392.471,-140.325 396.656,-134.713"/>
</g>
<!-- Node38 -->
<g id="node38" class="node"><title>Node38</title>
<g id="a_node38"><a xlink:href="sys__socket__ops_8h.html" target="_top" xlink:title=" ">
<polygon fill="white" stroke="black" points="671.5,-168.5 671.5,-187.5 767.5,-187.5 767.5,-168.5 671.5,-168.5"/>
<text text-anchor="middle" x="719.5" y="-175.5" font-family="Helvetica,sans-Serif" font-size="10.00">sys_socket_ops.h</text>
</a>
</g>
</g>
<!-- Node22&#45;&gt;Node38 -->
<g id="edge58" class="edge"><title>Node22&#45;&gt;Node38</title>
<path fill="none" stroke="midnightblue" d="M620.197,-224.444C639.444,-215.636 669.652,-201.812 691.7,-191.722"/>
<polygon fill="midnightblue" stroke="midnightblue" points="693.253,-194.86 700.89,-187.516 690.34,-188.495 693.253,-194.86"/>
</g>
<!-- Node40 -->
<g id="node40" class="node"><title>Node40</title>
<g id="a_node40"><a xlink:href="tag_8h.html" target="_top" xlink:title=" ">
<polygon fill="white" stroke="black" points="493.5,-168.5 493.5,-187.5 531.5,-187.5 531.5,-168.5 493.5,-168.5"/>
<text text-anchor="middle" x="512.5" y="-175.5" font-family="Helvetica,sans-Serif" font-size="10.00">tag.h</text>
</a>
</g>
</g>
<!-- Node22&#45;&gt;Node40 -->
<g id="edge64" class="edge"><title>Node22&#45;&gt;Node40</title>
<path fill="none" stroke="midnightblue" d="M587.201,-224.324C573.317,-215.9 552.008,-202.971 535.696,-193.074"/>
<polygon fill="midnightblue" stroke="midnightblue" points="537.129,-189.85 526.764,-187.655 533.498,-195.834 537.129,-189.85"/>
</g>
<!-- Node25&#45;&gt;Node18 -->
<g id="edge30" class="edge"><title>Node25&#45;&gt;Node18</title>
<path fill="none" stroke="midnightblue" d="M889.777,-168.141C891.387,-155.605 893.694,-131.988 891.5,-112 890.527,-103.14 888.508,-93.4716 886.537,-85.3755"/>
<polygon fill="midnightblue" stroke="midnightblue" points="889.883,-84.333 883.982,-75.5332 883.107,-86.0919 889.883,-84.333"/>
</g>
<!-- Node26 -->
<g id="node26" class="node"><title>Node26</title>
<g id="a_node26"><a xlink:title=" ">
<polygon fill="white" stroke="#bfbfbf" points="755.5,-112.5 755.5,-131.5 811.5,-131.5 811.5,-112.5 755.5,-112.5"/>
<text text-anchor="middle" x="783.5" y="-119.5" font-family="Helvetica,sans-Serif" font-size="10.00">algorithm</text>
</a>
</g>
</g>
<!-- Node25&#45;&gt;Node26 -->
<g id="edge28" class="edge"><title>Node25&#45;&gt;Node26</title>
<path fill="none" stroke="midnightblue" d="M871.63,-168.324C854.791,-159.664 828.693,-146.242 809.262,-136.249"/>
<polygon fill="midnightblue" stroke="midnightblue" points="810.822,-133.116 800.328,-131.655 807.62,-139.341 810.822,-133.116"/>
</g>
<!-- Node27 -->
<g id="node27" class="node"><title>Node27</title>
<g id="a_node27"><a xlink:title=" ">
<polygon fill="white" stroke="#bfbfbf" points="930.5,-56.5 930.5,-75.5 976.5,-75.5 976.5,-56.5 930.5,-56.5"/>
<text text-anchor="middle" x="953.5" y="-63.5" font-family="Helvetica,sans-Serif" font-size="10.00">cstring</text>
</a>
</g>
</g>
<!-- Node25&#45;&gt;Node27 -->
<g id="edge29" class="edge"><title>Node25&#45;&gt;Node27</title>
<path fill="none" stroke="midnightblue" d="M893.6,-168.368C904.28,-150.296 929.168,-108.176 943.273,-84.3074"/>
<polygon fill="midnightblue" stroke="midnightblue" points="946.349,-85.9813 948.423,-75.5914 940.323,-82.4201 946.349,-85.9813"/>
</g>
<!-- Node25&#45;&gt;Node28 -->
<g id="edge31" class="edge"><title>Node25&#45;&gt;Node28</title>
<path fill="none" stroke="midnightblue" d="M861.656,-175.031C802.337,-170.397 655.533,-157.378 523.443,-131.925"/>
<polygon fill="midnightblue" stroke="midnightblue" points="524.042,-128.476 513.556,-129.991 522.698,-135.345 524.042,-128.476"/>
</g>
<!-- Node29 -->
<g id="node29" class="node"><title>Node29</title>
<g id="a_node29"><a xlink:href="endian_8h.html" target="_top" xlink:title=" ">
<polygon fill="white" stroke="black" points="830,-112.5 830,-131.5 883,-131.5 883,-112.5 830,-112.5"/>
<text text-anchor="middle" x="856.5" y="-119.5" font-family="Helvetica,sans-Serif" font-size="10.00">endian.h</text>
</a>
</g>
</g>
<!-- Node25&#45;&gt;Node29 -->
<g id="edge38" class="edge"><title>Node25&#45;&gt;Node29</title>
<path fill="none" stroke="midnightblue" d="M883.216,-168.083C878.789,-160.613 872.337,-149.724 866.882,-140.52"/>
<polygon fill="midnightblue" stroke="midnightblue" points="869.795,-138.57 861.686,-131.751 863.773,-142.138 869.795,-138.57"/>
</g>
<!-- Node25&#45;&gt;Node32 -->
<g id="edge44" class="edge"><title>Node25&#45;&gt;Node32</title>
<path fill="none" stroke="midnightblue" d="M912.109,-168.444C937.543,-159.226 978.133,-144.516 1006.21,-134.34"/>
<polygon fill="midnightblue" stroke="midnightblue" points="1007.73,-137.513 1015.94,-130.815 1005.34,-130.932 1007.73,-137.513"/>
</g>
<!-- Node28&#45;&gt;Node2 -->
<g id="edge37" class="edge"><title>Node28&#45;&gt;Node2</title>
<path fill="none" stroke="midnightblue" d="M471.436,-112.444C452.925,-103.675 423.919,-89.9355 402.645,-79.8579"/>
<polygon fill="midnightblue" stroke="midnightblue" points="404.015,-76.6343 393.479,-75.5164 401.018,-82.9604 404.015,-76.6343"/>
</g>
<!-- Node28&#45;&gt;Node11 -->
<g id="edge33" class="edge"><title>Node28&#45;&gt;Node11</title>
<path fill="none" stroke="midnightblue" d="M500.371,-112.371C516.068,-99.9152 545.997,-76.1745 571.5,-56 584.14,-46.0009 598.369,-34.7677 609.448,-26.0259"/>
<polygon fill="midnightblue" stroke="midnightblue" points="611.884,-28.5619 617.568,-19.6204 607.549,-23.0661 611.884,-28.5619"/>
</g>
<!-- Node28&#45;&gt;Node15 -->
<g id="edge35" class="edge"><title>Node28&#45;&gt;Node15</title>
<path fill="none" stroke="midnightblue" d="M488.179,-112.083C487.119,-104.927 485.594,-94.6353 484.269,-85.6911"/>
<polygon fill="midnightblue" stroke="midnightblue" points="487.724,-85.1302 482.796,-75.7511 480.8,-86.1561 487.724,-85.1302"/>
</g>
<!-- Node28&#45;&gt;Node17 -->
<g id="edge34" class="edge"><title>Node28&#45;&gt;Node17</title>
<path fill="none" stroke="midnightblue" d="M507.564,-112.444C526.075,-103.675 555.081,-89.9355 576.355,-79.8579"/>
<polygon fill="midnightblue" stroke="midnightblue" points="577.982,-82.9604 585.521,-75.5164 574.985,-76.6343 577.982,-82.9604"/>
</g>
<!-- Node28&#45;&gt;Node18 -->
<g id="edge36" class="edge"><title>Node28&#45;&gt;Node18</title>
<path fill="none" stroke="midnightblue" d="M513.55,-113.981C516.548,-113.243 519.584,-112.559 522.5,-112 659.481,-85.7531 699.037,-99.0624 840.225,-76.0447"/>
<polygon fill="midnightblue" stroke="midnightblue" points="840.83,-79.4922 850.121,-74.3996 839.682,-72.587 840.83,-79.4922"/>
</g>
<!-- Node28&#45;&gt;Node21 -->
<g id="edge32" class="edge"><title>Node28&#45;&gt;Node21</title>
<path fill="none" stroke="midnightblue" d="M465.055,-116.302C415.025,-106.688 300.827,-84.7425 243.169,-73.6623"/>
<polygon fill="midnightblue" stroke="midnightblue" points="243.57,-70.1754 233.089,-71.7253 242.249,-77.0496 243.57,-70.1754"/>
</g>
<!-- Node29&#45;&gt;Node17 -->
<g id="edge39" class="edge"><title>Node29&#45;&gt;Node17</title>
<path fill="none" stroke="midnightblue" d="M829.801,-114.159C826.671,-113.406 823.519,-112.671 820.5,-112 741.763,-94.5098 718.693,-95.27 636.309,-76.0314"/>
<polygon fill="midnightblue" stroke="midnightblue" points="637.05,-72.6102 626.513,-73.7158 635.44,-79.4225 637.05,-72.6102"/>
</g>
<!-- Node29&#45;&gt;Node18 -->
<g id="edge42" class="edge"><title>Node29&#45;&gt;Node18</title>
<path fill="none" stroke="midnightblue" d="M860.628,-112.083C864.014,-104.77 868.916,-94.1814 873.119,-85.1034"/>
<polygon fill="midnightblue" stroke="midnightblue" points="876.423,-86.2962 877.449,-75.7511 870.071,-83.3553 876.423,-86.2962"/>
</g>
<!-- Node29&#45;&gt;Node27 -->
<g id="edge40" class="edge"><title>Node29&#45;&gt;Node27</title>
<path fill="none" stroke="midnightblue" d="M872.085,-112.324C887.499,-103.743 911.312,-90.486 929.21,-80.5224"/>
<polygon fill="midnightblue" stroke="midnightblue" points="930.919,-83.5767 937.954,-75.6545 927.514,-77.4606 930.919,-83.5767"/>
</g>
<!-- Node30 -->
<g id="node30" class="node"><title>Node30</title>
<g id="a_node30"><a xlink:title=" ">
<polygon fill="white" stroke="#bfbfbf" points="768.5,-56.5 768.5,-75.5 832.5,-75.5 832.5,-56.5 768.5,-56.5"/>
<text text-anchor="middle" x="800.5" y="-63.5" font-family="Helvetica,sans-Serif" font-size="10.00">string_view</text>
</a>
</g>
</g>
<!-- Node29&#45;&gt;Node30 -->
<g id="edge41" class="edge"><title>Node29&#45;&gt;Node30</title>
<path fill="none" stroke="midnightblue" d="M847.503,-112.324C839.306,-104.42 826.994,-92.5482 817.028,-82.9377"/>
<polygon fill="midnightblue" stroke="midnightblue" points="819.289,-80.2558 809.661,-75.8339 814.43,-85.2947 819.289,-80.2558"/>
</g>
<!-- Node29&#45;&gt;Node31 -->
<g id="edge43" class="edge"><title>Node29&#45;&gt;Node31</title>
<path fill="none" stroke="midnightblue" d="M831.306,-112.444C804.557,-103.359 762.097,-88.9388 732.195,-78.7831"/>
<polygon fill="midnightblue" stroke="midnightblue" points="733.171,-75.4182 722.576,-75.5164 730.919,-82.0464 733.171,-75.4182"/>
</g>
<!-- Node32&#45;&gt;Node2 -->
<g id="edge53" class="edge"><title>Node32&#45;&gt;Node2</title>
<path fill="none" stroke="midnightblue" d="M1015.86,-119.599C922.24,-113.506 551.629,-89.0318 435.5,-76 432.307,-75.6417 429.024,-75.2411 425.716,-74.8132"/>
<polygon fill="midnightblue" stroke="midnightblue" points="426.17,-71.3427 415.789,-73.4633 425.226,-78.2789 426.17,-71.3427"/>
</g>
<!-- Node32&#45;&gt;Node13 -->
<g id="edge47" class="edge"><title>Node32&#45;&gt;Node13</title>
<path fill="none" stroke="midnightblue" d="M1059.25,-118.518C1106.25,-112.926 1220.59,-98.0847 1314.5,-76 1314.6,-75.9766 1314.7,-75.9531 1314.8,-75.9294"/>
<polygon fill="midnightblue" stroke="midnightblue" points="1315.51,-79.3616 1324.26,-73.3829 1313.69,-72.6021 1315.51,-79.3616"/>
</g>
<!-- Node32&#45;&gt;Node15 -->
<g id="edge50" class="edge"><title>Node32&#45;&gt;Node15</title>
<path fill="none" stroke="midnightblue" d="M1015.66,-118.918C949.05,-112.561 742.581,-92.8144 571.5,-76 557.677,-74.6414 542.662,-73.1472 528.928,-71.7733"/>
<polygon fill="midnightblue" stroke="midnightblue" points="529.016,-68.2647 518.717,-70.7504 528.318,-75.2298 529.016,-68.2647"/>
</g>
<!-- Node32&#45;&gt;Node18 -->
<g id="edge51" class="edge"><title>Node32&#45;&gt;Node18</title>
<path fill="none" stroke="midnightblue" d="M1015.81,-113.492C989.934,-104.535 946.358,-89.4509 915.879,-78.9005"/>
<polygon fill="midnightblue" stroke="midnightblue" points="916.684,-75.4755 906.09,-75.5118 914.395,-82.0904 916.684,-75.4755"/>
</g>
<!-- Node32&#45;&gt;Node27 -->
<g id="edge49" class="edge"><title>Node32&#45;&gt;Node27</title>
<path fill="none" stroke="midnightblue" d="M1024,-112.324C1010.9,-103.9 990.788,-90.9709 975.393,-81.0741"/>
<polygon fill="midnightblue" stroke="midnightblue" points="977.267,-78.118 966.963,-75.6545 973.482,-84.0063 977.267,-78.118"/>
</g>
<!-- Node33 -->
<g id="node33" class="node"><title>Node33</title>
<g id="a_node33"><a xlink:title=" ">
<polygon fill="white" stroke="#bfbfbf" points="994.5,-56.5 994.5,-75.5 1054.5,-75.5 1054.5,-56.5 994.5,-56.5"/>
<text text-anchor="middle" x="1024.5" y="-63.5" font-family="Helvetica,sans-Serif" font-size="10.00">fmt/core.h</text>
</a>
</g>
</g>
<!-- Node32&#45;&gt;Node33 -->
<g id="edge45" class="edge"><title>Node32&#45;&gt;Node33</title>
<path fill="none" stroke="midnightblue" d="M1035.35,-112.083C1033.63,-104.927 1031.15,-94.6353 1029,-85.6911"/>
<polygon fill="midnightblue" stroke="midnightblue" points="1032.35,-84.6541 1026.61,-75.7511 1025.54,-86.2925 1032.35,-84.6541"/>
</g>
<!-- Node34 -->
<g id="node34" class="node"><title>Node34</title>
<g id="a_node34"><a xlink:title=" ">
<polygon fill="white" stroke="#bfbfbf" points="1072.5,-56.5 1072.5,-75.5 1140.5,-75.5 1140.5,-56.5 1072.5,-56.5"/>
<text text-anchor="middle" x="1106.5" y="-63.5" font-family="Helvetica,sans-Serif" font-size="10.00">fmt/format.h</text>
</a>
</g>
</g>
<!-- Node32&#45;&gt;Node34 -->
<g id="edge46" class="edge"><title>Node32&#45;&gt;Node34</title>
<path fill="none" stroke="midnightblue" d="M1048.59,-112.324C1058.99,-104.185 1074.76,-91.8395 1087.22,-82.0874"/>
<polygon fill="midnightblue" stroke="midnightblue" points="1089.49,-84.7533 1095.21,-75.8339 1085.18,-79.2407 1089.49,-84.7533"/>
</g>
<!-- Node35 -->
<g id="node35" class="node"><title>Node35</title>
<g id="a_node35"><a xlink:title=" ">
<polygon fill="white" stroke="#bfbfbf" points="1158.5,-56.5 1158.5,-75.5 1204.5,-75.5 1204.5,-56.5 1158.5,-56.5"/>
<text text-anchor="middle" x="1181.5" y="-63.5" font-family="Helvetica,sans-Serif" font-size="10.00">chrono</text>
</a>
</g>
</g>
<!-- Node32&#45;&gt;Node35 -->
<g id="edge48" class="edge"><title>Node32&#45;&gt;Node35</title>
<path fill="none" stroke="midnightblue" d="M1059.06,-112.916C1082.82,-104.006 1121.3,-89.5746 1148.78,-79.2691"/>
<polygon fill="midnightblue" stroke="midnightblue" points="1150.23,-82.4654 1158.36,-75.677 1147.77,-75.9111 1150.23,-82.4654"/>
</g>
<!-- Node36 -->
<g id="node36" class="node"><title>Node36</title>
<g id="a_node36"><a xlink:title=" ">
<polygon fill="white" stroke="#bfbfbf" points="1223,-56.5 1223,-75.5 1306,-75.5 1306,-56.5 1223,-56.5"/>
<text text-anchor="middle" x="1264.5" y="-63.5" font-family="Helvetica,sans-Serif" font-size="10.00">unordered_map</text>
</a>
</g>
</g>
<!-- Node32&#45;&gt;Node36 -->
<g id="edge52" class="edge"><title>Node32&#45;&gt;Node36</title>
<path fill="none" stroke="midnightblue" d="M1059.27,-115.822C1095.84,-107.123 1170.36,-89.3948 1218.82,-77.8655"/>
<polygon fill="midnightblue" stroke="midnightblue" points="1219.83,-81.2241 1228.75,-75.5048 1218.21,-74.4142 1219.83,-81.2241"/>
</g>
<!-- Node37&#45;&gt;Node2 -->
<g id="edge57" class="edge"><title>Node37&#45;&gt;Node2</title>
<path fill="none" stroke="midnightblue" d="M375.5,-112.083C375.5,-105.006 375.5,-94.8611 375.5,-85.9865"/>
<polygon fill="midnightblue" stroke="midnightblue" points="379,-85.751 375.5,-75.7511 372,-85.7511 379,-85.751"/>
</g>
<!-- Node37&#45;&gt;Node15 -->
<g id="edge56" class="edge"><title>Node37&#45;&gt;Node15</title>
<path fill="none" stroke="midnightblue" d="M392.531,-112.324C409.53,-103.664 435.876,-90.2424 455.493,-80.249"/>
<polygon fill="midnightblue" stroke="midnightblue" points="457.19,-83.3125 464.512,-75.6545 454.012,-77.0752 457.19,-83.3125"/>
</g>
<!-- Node38&#45;&gt;Node2 -->
<g id="edge59" class="edge"><title>Node38&#45;&gt;Node2</title>
<path fill="none" stroke="midnightblue" d="M671.395,-169.409C598.189,-157.764 466.229,-136.378 456.5,-132 430.457,-120.281 405.633,-98.1807 390.489,-83.0316"/>
<polygon fill="midnightblue" stroke="midnightblue" points="392.976,-80.5683 383.497,-75.8351 387.955,-85.4463 392.976,-80.5683"/>
</g>
<!-- Node38&#45;&gt;Node31 -->
<g id="edge63" class="edge"><title>Node38&#45;&gt;Node31</title>
<path fill="none" stroke="midnightblue" d="M717.774,-168.368C714.223,-150.617 706.033,-109.666 701.219,-85.5974"/>
<polygon fill="midnightblue" stroke="midnightblue" points="704.612,-84.7108 699.218,-75.5914 697.747,-86.0837 704.612,-84.7108"/>
</g>
<!-- Node39 -->
<g id="node39" class="node"><title>Node39</title>
<g id="a_node39"><a xlink:href="sys__error__code_8h.html" target="_top" xlink:title=" ">
<polygon fill="white" stroke="black" points="531.5,-112.5 531.5,-131.5 623.5,-131.5 623.5,-112.5 531.5,-112.5"/>
<text text-anchor="middle" x="577.5" y="-119.5" font-family="Helvetica,sans-Serif" font-size="10.00">sys_error_code.h</text>
</a>
</g>
</g>
<!-- Node38&#45;&gt;Node39 -->
<g id="edge60" class="edge"><title>Node38&#45;&gt;Node39</title>
<path fill="none" stroke="midnightblue" d="M697,-168.444C673.423,-159.478 636.178,-145.314 609.536,-135.183"/>
<polygon fill="midnightblue" stroke="midnightblue" points="610.486,-131.8 599.895,-131.516 607.998,-138.342 610.486,-131.8"/>
</g>
<!-- Node39&#45;&gt;Node2 -->
<g id="edge61" class="edge"><title>Node39&#45;&gt;Node2</title>
<path fill="none" stroke="midnightblue" d="M545.492,-112.444C510.771,-103.162 455.212,-88.3093 417.123,-78.127"/>
<polygon fill="midnightblue" stroke="midnightblue" points="417.922,-74.7178 407.358,-75.5164 416.115,-81.4803 417.922,-74.7178"/>
</g>
<!-- Node39&#45;&gt;Node31 -->
<g id="edge62" class="edge"><title>Node39&#45;&gt;Node31</title>
<path fill="none" stroke="midnightblue" d="M596.514,-112.444C616.088,-103.636 646.808,-89.8116 669.229,-79.722"/>
<polygon fill="midnightblue" stroke="midnightblue" points="670.892,-82.8119 678.575,-75.5164 668.019,-76.4284 670.892,-82.8119"/>
</g>
</g>
</svg>
        <g id="navigator" transform="translate(0 0)" fill="#404254">
                <rect fill="#f2f5e9" fill-opacity="0.5" stroke="#606060" stroke-width=".5" x="0" y="0" width="60" height="60"/>
                <use id="zoomplus" xlink:href="#zoomPlus" x="17" y="9" onmousedown="handleZoom(evt,'in')"/>
                <use id="zoomminus" xlink:href="#zoomMin" x="42" y="9" onmousedown="handleZoom(evt,'out')"/>
                <use id="reset" xlink:href="#resetDef" x="30" y="36" onmousedown="handleReset()"/>
                <g id="arrowUp" xlink:href="#dirArrow" transform="translate(30 24)" onmousedown="handlePan(0,-1)">
                  <use xlink:href="#rim" fill="#404040">
                        <set attributeName="fill" to="#808080" begin="arrowUp.mouseover" end="arrowUp.mouseout"/>
                  </use>
                  <path fill="none" stroke="white" stroke-width="1.5" d="M0,-3.0v7 M-2.5,-0.5L0,-3.0L2.5,-0.5"/>
                </g>
                <g id="arrowRight" xlink:href="#dirArrow" transform="rotate(90) translate(36 -43)" onmousedown="handlePan(1,0)">
                  <use xlink:href="#rim" fill="#404040">
                        <set attributeName="fill" to="#808080" begin="arrowRight.mouseover" end="arrowRight.mouseout"/>
                  </use>
                  <path fill="none" stroke="white" stroke-width="1.5" d="M0,-3.0v7 M-2.5,-0.5L0,-3.0L2.5,-0.5"/>
                </g>
                <g id="arrowDown" xlink:href="#dirArrow" transform="rotate(180) translate(-30 -48)" onmousedown="handlePan(0,1)">
                  <use xlink:href="#rim" fill="#404040">
                        <set attributeName="fill" to="#808080" begin="arrowDown.mouseover" end="arrowDown.mouseout"/>
                  </use>
                  <path fill="none" stroke="white" stroke-width="1.5" d="M0,-3.0v7 M-2.5,-0.5L0,-3.0L2.5,-0.5"/>
                </g>
                <g id="arrowLeft" xlink:href="#dirArrow" transform="rotate(270) translate(-36 17)" onmousedown="handlePan(-1,0)">
                  <use xlink:href="#rim" fill="#404040">
                        <set attributeName="fill" to="#808080" begin="arrowLeft.mouseover" end="arrowLeft.mouseout"/>
                  </use>
                  <path fill="none" stroke="white" stroke-width="1.5" d="M0,-3.0v7 M-2.5,-0.5L0,-3.0L2.5,-0.5"/>
                </g>
        </g>
        <svg viewBox="0 0 15 15" width="100%" height="30px" preserveAspectRatio="xMaxYMin meet">
         <g id="arrow_out" transform="scale(0.3 0.3)">
          <a xlink:href="nix_2executor__select__impl_8h__incl_org.svg" target="_base">
           <rect id="button" ry="5" rx="5" y="6" x="6" height="38" width="38"
                fill="#f2f5e9" fill-opacity="0.5" stroke="#606060" stroke-width="1.0"/>
           <path id="arrow"
             d="M 11.500037,31.436501 C 11.940474,20.09759 22.043105,11.32322 32.158766,21.979434 L 37.068811,17.246167 C 37.068811,17.246167 37.088388,32 37.088388,32 L 22.160133,31.978069 C 22.160133,31.978069 26.997745,27.140456 26.997745,27.140456 C 18.528582,18.264221 13.291696,25.230495 11.500037,31.436501 z"
             style="fill:#404040;"/>
          </a>
         </g>
        </svg>
</svg>
