<?xml version="1.0" encoding="UTF-8" standalone="no"?>
<!DOCTYPE svg PUBLIC "-//W3C//DTD SVG 1.1//EN"
 "http://www.w3.org/Graphics/SVG/1.1/DTD/svg11.dtd">
<!-- Generated by graphviz version 2.38.0 (20140413.2041)
 -->
<!-- Title: C:/projects/ndt/sources/include/ndt/platform/nix/executor_select_impl.h Pages: 1 -->
<svg width="369pt" height="362pt"
 viewBox="0.00 0.00 368.50 362.00" xmlns="http://www.w3.org/2000/svg" xmlns:xlink="http://www.w3.org/1999/xlink">
<g id="graph0" class="graph" transform="scale(1 1) rotate(0) translate(4 358)">
<title>C:/projects/ndt/sources/include/ndt/platform/nix/executor_select_impl.h</title>
<polygon fill="white" stroke="none" points="-4,4 -4,-358 364.5,-358 364.5,4 -4,4"/>
<!-- Node1 -->
<g id="node1" class="node"><title>Node1</title>
<g id="a_node1"><a xlink:title=" ">
<polygon fill="#bfbfbf" stroke="black" points="217,-312.5 217,-353.5 353,-353.5 353,-312.5 217,-312.5"/>
<text text-anchor="start" x="225" y="-341.5" font-family="Helvetica,sans-Serif" font-size="10.00">C:/projects/ndt/sources</text>
<text text-anchor="start" x="225" y="-330.5" font-family="Helvetica,sans-Serif" font-size="10.00">/include/ndt/platform</text>
<text text-anchor="middle" x="285" y="-319.5" font-family="Helvetica,sans-Serif" font-size="10.00">/nix/executor_select_impl.h</text>
</a>
</g>
</g>
<!-- Node2 -->
<g id="node2" class="node"><title>Node2</title>
<g id="a_node2"><a xlink:href="executor__select_8h.html" target="_top" xlink:title=" ">
<polygon fill="white" stroke="black" points="133,-234.5 133,-275.5 251,-275.5 251,-234.5 133,-234.5"/>
<text text-anchor="start" x="141" y="-263.5" font-family="Helvetica,sans-Serif" font-size="10.00">C:/projects/ndt/sources</text>
<text text-anchor="start" x="141" y="-252.5" font-family="Helvetica,sans-Serif" font-size="10.00">/include/ndt/executor</text>
<text text-anchor="middle" x="192" y="-241.5" font-family="Helvetica,sans-Serif" font-size="10.00">_select.h</text>
</a>
</g>
</g>
<!-- Node1&#45;&gt;Node2 -->
<g id="edge1" class="edge"><title>Node1&#45;&gt;Node2</title>
<path fill="none" stroke="midnightblue" d="M253.263,-306.065C241.018,-296.057 227.248,-284.804 215.869,-275.506"/>
<polygon fill="midnightblue" stroke="midnightblue" points="251.092,-308.81 261.05,-312.428 255.522,-303.39 251.092,-308.81"/>
</g>
<!-- Node3 -->
<g id="node3" class="node"><title>Node3</title>
<g id="a_node3"><a xlink:href="context_8h.html" target="_top" xlink:title=" ">
<polygon fill="white" stroke="black" points="0,-84 0,-114 118,-114 118,-84 0,-84"/>
<text text-anchor="start" x="8" y="-102" font-family="Helvetica,sans-Serif" font-size="10.00">C:/projects/ndt/sources</text>
<text text-anchor="middle" x="59" y="-91" font-family="Helvetica,sans-Serif" font-size="10.00">/include/ndt/context.h</text>
</a>
</g>
</g>
<!-- Node2&#45;&gt;Node3 -->
<g id="edge2" class="edge"><title>Node2&#45;&gt;Node3</title>
<path fill="none" stroke="midnightblue" d="M161.514,-227.515C151.724,-218.502 141.073,-208.137 132,-198 106.957,-170.019 81.6466,-133.882 68.4103,-114.244"/>
<polygon fill="midnightblue" stroke="midnightblue" points="159.375,-230.3 169.134,-234.423 164.076,-225.114 159.375,-230.3"/>
</g>
<!-- Node4 -->
<g id="node4" class="node"><title>Node4</title>
<g id="a_node4"><a xlink:href="core_8h.html" target="_top" xlink:title=" ">
<polygon fill="white" stroke="black" points="87,-6 87,-36 205,-36 205,-6 87,-6"/>
<text text-anchor="start" x="95" y="-24" font-family="Helvetica,sans-Serif" font-size="10.00">C:/projects/ndt/sources</text>
<text text-anchor="middle" x="146" y="-13" font-family="Helvetica,sans-Serif" font-size="10.00">/include/ndt/core.h</text>
</a>
</g>
</g>
<!-- Node2&#45;&gt;Node4 -->
<g id="edge4" class="edge"><title>Node2&#45;&gt;Node4</title>
<path fill="none" stroke="midnightblue" d="M175.841,-225.287C171.675,-216.741 167.629,-207.199 165,-198 148.361,-139.787 146.079,-66.944 145.911,-36.46"/>
<polygon fill="midnightblue" stroke="midnightblue" points="172.854,-227.133 180.526,-234.439 179.085,-223.943 172.854,-227.133"/>
</g>
<!-- Node5 -->
<g id="node5" class="node"><title>Node5</title>
<g id="a_node5"><a xlink:href="event__handler__select_8h.html" target="_top" xlink:title=" ">
<polygon fill="white" stroke="black" points="174.5,-156.5 174.5,-197.5 303.5,-197.5 303.5,-156.5 174.5,-156.5"/>
<text text-anchor="start" x="182.5" y="-185.5" font-family="Helvetica,sans-Serif" font-size="10.00">C:/projects/ndt/sources</text>
<text text-anchor="start" x="182.5" y="-174.5" font-family="Helvetica,sans-Serif" font-size="10.00">/include/ndt/event_handler</text>
<text text-anchor="middle" x="239" y="-163.5" font-family="Helvetica,sans-Serif" font-size="10.00">_select.h</text>
</a>
</g>
</g>
<!-- Node2&#45;&gt;Node5 -->
<g id="edge5" class="edge"><title>Node2&#45;&gt;Node5</title>
<path fill="none" stroke="midnightblue" d="M209.466,-225.757C215.281,-216.354 221.625,-206.096 226.937,-197.506"/>
<polygon fill="midnightblue" stroke="midnightblue" points="206.387,-224.082 204.104,-234.428 212.34,-227.764 206.387,-224.082"/>
</g>
<!-- Node3&#45;&gt;Node4 -->
<g id="edge3" class="edge"><title>Node3&#45;&gt;Node4</title>
<path fill="none" stroke="midnightblue" d="M83.1607,-76.8941C97.9986,-63.9322 116.606,-47.6775 129.709,-36.2309"/>
<polygon fill="midnightblue" stroke="midnightblue" points="80.5926,-74.4901 75.364,-83.705 85.1978,-79.7619 80.5926,-74.4901"/>
</g>
<!-- Node5&#45;&gt;Node4 -->
<g id="edge6" class="edge"><title>Node5&#45;&gt;Node4</title>
<path fill="none" stroke="midnightblue" d="M221.96,-147.783C202.07,-114.846 169.953,-61.6639 154.647,-36.3195"/>
<polygon fill="midnightblue" stroke="midnightblue" points="219.056,-149.745 227.221,-156.496 225.048,-146.126 219.056,-149.745"/>
</g>
<!-- Node6 -->
<g id="node6" class="node"><title>Node6</title>
<g id="a_node6"><a xlink:href="executor__select__base_8h.html" target="_top" xlink:title=" ">
<polygon fill="white" stroke="black" points="228,-78.5 228,-119.5 346,-119.5 346,-78.5 228,-78.5"/>
<text text-anchor="start" x="236" y="-107.5" font-family="Helvetica,sans-Serif" font-size="10.00">C:/projects/ndt/sources</text>
<text text-anchor="start" x="236" y="-96.5" font-family="Helvetica,sans-Serif" font-size="10.00">/include/ndt/executor</text>
<text text-anchor="middle" x="287" y="-85.5" font-family="Helvetica,sans-Serif" font-size="10.00">_select_base.h</text>
</a>
</g>
</g>
<!-- Node5&#45;&gt;Node6 -->
<g id="edge7" class="edge"><title>Node5&#45;&gt;Node6</title>
<path fill="none" stroke="midnightblue" d="M256.838,-147.757C262.776,-138.354 269.255,-128.096 274.681,-119.506"/>
<polygon fill="midnightblue" stroke="midnightblue" points="253.742,-146.104 251.361,-156.428 259.66,-149.842 253.742,-146.104"/>
</g>
<!-- Node6&#45;&gt;Node1 -->
<g id="edge9" class="edge"><title>Node6&#45;&gt;Node1</title>
<path fill="none" stroke="midnightblue" d="M302.562,-128.673C306.431,-137.217 310.033,-146.77 312,-156 323.983,-212.236 304.3,-279.663 292.64,-312.333"/>
<polygon fill="midnightblue" stroke="midnightblue" points="305.648,-127.014 298.153,-119.525 299.342,-130.053 305.648,-127.014"/>
</g>
<!-- Node6&#45;&gt;Node4 -->
<g id="edge8" class="edge"><title>Node6&#45;&gt;Node4</title>
<path fill="none" stroke="midnightblue" d="M241.811,-73.643C218.905,-61.2962 191.887,-46.7336 172.392,-36.2254"/>
<polygon fill="midnightblue" stroke="midnightblue" points="240.226,-76.7643 250.689,-78.4281 243.547,-70.6024 240.226,-76.7643"/>
</g>
<!-- Node7 -->
<g id="node7" class="node"><title>Node7</title>
<g id="a_node7"><a xlink:href="win_2executor__select__impl_8h.html" target="_top" xlink:title=" ">
<polygon fill="white" stroke="black" points="223.5,-0.5 223.5,-41.5 360.5,-41.5 360.5,-0.5 223.5,-0.5"/>
<text text-anchor="start" x="231.5" y="-29.5" font-family="Helvetica,sans-Serif" font-size="10.00">C:/projects/ndt/sources</text>
<text text-anchor="start" x="231.5" y="-18.5" font-family="Helvetica,sans-Serif" font-size="10.00">/include/ndt/platform</text>
<text text-anchor="middle" x="292" y="-7.5" font-family="Helvetica,sans-Serif" font-size="10.00">/win/executor_select_impl.h</text>
</a>
</g>
</g>
<!-- Node6&#45;&gt;Node7 -->
<g id="edge10" class="edge"><title>Node6&#45;&gt;Node7</title>
<path fill="none" stroke="midnightblue" d="M288.954,-68.2965C289.546,-59.3009 290.181,-49.6532 290.717,-41.5056"/>
<polygon fill="midnightblue" stroke="midnightblue" points="285.452,-68.2199 288.288,-78.4281 292.437,-68.6795 285.452,-68.2199"/>
</g>
</g>
</svg>
