<?xml version="1.0" encoding="UTF-8" standalone="no"?>
<!DOCTYPE svg PUBLIC "-//W3C//DTD SVG 1.1//EN"
 "http://www.w3.org/Graphics/SVG/1.1/DTD/svg11.dtd">
<!-- Generated by graphviz version 2.38.0 (20140413.2041)
 -->
<!-- Title: C:/projects/ndt/sources/include/ndt/platform/nix/executor_select_impl.h Pages: 1 -->
<!--zoomable 453 -->
<svg id="main" version="1.1" xmlns="http://www.w3.org/2000/svg" xmlns:xlink="http://www.w3.org/1999/xlink" xml:space="preserve" onload="init(evt)">
<style type="text/css"><![CDATA[
.edge:hover path { stroke: red; }
.edge:hover polygon { stroke: red; fill: red; }
]]></style>
<script type="text/javascript"><![CDATA[
var edges = document.getElementsByTagName('g');
if (edges && edges.length) {
  for (var i=0;i<edges.length;i++) {
    if (edges[i].id.substr(0,4)=='edge') {
      edges[i].setAttribute('class','edge');
    }
  }
}
]]></script>
        <defs>
                <circle id="rim" cx="0" cy="0" r="7"/>
                <circle id="rim2" cx="0" cy="0" r="3.5"/>
                <g id="zoomPlus">
                        <use xlink:href="#rim" fill="#404040">
                                <set attributeName="fill" to="#808080" begin="zoomplus.mouseover" end="zoomplus.mouseout"/>
                        </use>
                        <path d="M-4,0h8M0,-4v8" fill="none" stroke="white" stroke-width="1.5" pointer-events="none"/>
                </g>
                <g id="zoomMin">
                        <use xlink:href="#rim" fill="#404040">
                                <set attributeName="fill" to="#808080" begin="zoomminus.mouseover" end="zoomminus.mouseout"/>
                        </use>
                        <path d="M-4,0h8" fill="none" stroke="white" stroke-width="1.5" pointer-events="none"/>
                </g>
                <g id="dirArrow">
                        <path fill="none" stroke="white" stroke-width="1.5" d="M0,-3.0v7 M-2.5,-0.5L0,-3.0L2.5,-0.5"/>
                </g>
               <g id="resetDef">
                       <use xlink:href="#rim2" fill="#404040">
                               <set attributeName="fill" to="#808080" begin="reset.mouseover" end="reset.mouseout"/>
                       </use>
               </g>
        </defs>

<script type="text/javascript">
var viewWidth = 1221;
var viewHeight = 453;
var sectionId = 'dynsection-0';
</script>
<script xlink:href="svgpan.js"/>
<svg id="graph" class="graph">
<g id="viewport">
<title>C:/projects/ndt/sources/include/ndt/platform/nix/executor_select_impl.h</title>
<polygon fill="white" stroke="none" points="-4,4 -4,-449 1217,-449 1217,4 -4,4"/>
<!-- Node1 -->
<g id="node1" class="node"><title>Node1</title>
<g id="a_node1"><a xlink:title=" ">
<polygon fill="#bfbfbf" stroke="black" points="7,-403.5 7,-444.5 143,-444.5 143,-403.5 7,-403.5"/>
<text text-anchor="start" x="15" y="-432.5" font-family="Helvetica,sans-Serif" font-size="10.00">C:/projects/ndt/sources</text>
<text text-anchor="start" x="15" y="-421.5" font-family="Helvetica,sans-Serif" font-size="10.00">/include/ndt/platform</text>
<text text-anchor="middle" x="75" y="-410.5" font-family="Helvetica,sans-Serif" font-size="10.00">/nix/executor_select_impl.h</text>
</a>
</g>
</g>
<!-- Node2 -->
<g id="node2" class="node"><title>Node2</title>
<g id="a_node2"><a xlink:href="common_8h.html" target="_top" xlink:title="Header with typedefs to make type designation platform independent.">
<polygon fill="white" stroke="black" points="480,-56.5 480,-75.5 560,-75.5 560,-56.5 480,-56.5"/>
<text text-anchor="middle" x="520" y="-63.5" font-family="Helvetica,sans-Serif" font-size="10.00">../../common.h</text>
</a>
</g>
</g>
<!-- Node1&#45;&gt;Node2 -->
<g id="edge1" class="edge"><title>Node1&#45;&gt;Node2</title>
<path fill="none" stroke="midnightblue" d="M55.2946,-403.489C33.0734,-379.314 0,-335.808 0,-291 0,-291 0,-291 0,-177 0,-81.6546 338.851,-68.5625 469.485,-67.0578"/>
<polygon fill="midnightblue" stroke="midnightblue" points="469.664,-70.5564 479.629,-66.9597 469.596,-63.5567 469.664,-70.5564"/>
</g>
<!-- Node12 -->
<g id="node12" class="node"><title>Node12</title>
<g id="a_node12"><a xlink:href="executor__select__base_8h.html" target="_top" xlink:title=" ">
<polygon fill="white" stroke="black" points="270,-336.5 270,-366.5 374,-366.5 374,-336.5 270,-336.5"/>
<text text-anchor="start" x="278" y="-354.5" font-family="Helvetica,sans-Serif" font-size="10.00">../../executor_select</text>
<text text-anchor="middle" x="322" y="-343.5" font-family="Helvetica,sans-Serif" font-size="10.00">_base.h</text>
</a>
</g>
</g>
<!-- Node1&#45;&gt;Node12 -->
<g id="edge11" class="edge"><title>Node1&#45;&gt;Node12</title>
<path fill="none" stroke="midnightblue" d="M143.148,-403.549C180.738,-392.82 226.955,-379.628 262.99,-369.343"/>
<polygon fill="midnightblue" stroke="midnightblue" points="264.213,-372.634 272.868,-366.523 262.292,-365.902 264.213,-372.634"/>
</g>
<!-- Node3 -->
<g id="node3" class="node"><title>Node3</title>
<g id="a_node3"><a xlink:title=" ">
<polygon fill="white" stroke="#bfbfbf" points="818,-0.5 818,-19.5 880,-19.5 880,-0.5 818,-0.5"/>
<text text-anchor="middle" x="849" y="-7.5" font-family="Helvetica,sans-Serif" font-size="10.00">arpa/inet.h</text>
</a>
</g>
</g>
<!-- Node2&#45;&gt;Node3 -->
<g id="edge2" class="edge"><title>Node2&#45;&gt;Node3</title>
<path fill="none" stroke="midnightblue" d="M560.353,-59.585C614.437,-52.1369 713.627,-37.8106 807.639,-20.1599"/>
<polygon fill="midnightblue" stroke="midnightblue" points="808.424,-23.5735 817.598,-18.2736 807.122,-16.6957 808.424,-23.5735"/>
</g>
<!-- Node4 -->
<g id="node4" class="node"><title>Node4</title>
<g id="a_node4"><a xlink:title=" ">
<polygon fill="white" stroke="#bfbfbf" points="294.5,-0.5 294.5,-19.5 341.5,-19.5 341.5,-0.5 294.5,-0.5"/>
<text text-anchor="middle" x="318" y="-7.5" font-family="Helvetica,sans-Serif" font-size="10.00">errno.h</text>
</a>
</g>
</g>
<!-- Node2&#45;&gt;Node4 -->
<g id="edge3" class="edge"><title>Node2&#45;&gt;Node4</title>
<path fill="none" stroke="midnightblue" d="M487.052,-56.439C454.783,-48.019 403.964,-34.6652 351.555,-20.3984"/>
<polygon fill="midnightblue" stroke="midnightblue" points="352.323,-16.9801 341.754,-17.7248 350.481,-23.7333 352.323,-16.9801"/>
</g>
<!-- Node5 -->
<g id="node5" class="node"><title>Node5</title>
<g id="a_node5"><a xlink:title=" ">
<polygon fill="white" stroke="#bfbfbf" points="359.5,-0.5 359.5,-19.5 402.5,-19.5 402.5,-0.5 359.5,-0.5"/>
<text text-anchor="middle" x="381" y="-7.5" font-family="Helvetica,sans-Serif" font-size="10.00">fcntl.h</text>
</a>
</g>
</g>
<!-- Node2&#45;&gt;Node5 -->
<g id="edge4" class="edge"><title>Node2&#45;&gt;Node5</title>
<path fill="none" stroke="midnightblue" d="M497.975,-56.4435C474.896,-47.4776 438.438,-33.314 412.359,-23.1827"/>
<polygon fill="midnightblue" stroke="midnightblue" points="413.511,-19.8753 402.922,-19.5164 410.976,-26.4002 413.511,-19.8753"/>
</g>
<!-- Node6 -->
<g id="node6" class="node"><title>Node6</title>
<g id="a_node6"><a xlink:title=" ">
<polygon fill="white" stroke="#bfbfbf" points="420.5,-0.5 420.5,-19.5 469.5,-19.5 469.5,-0.5 420.5,-0.5"/>
<text text-anchor="middle" x="445" y="-7.5" font-family="Helvetica,sans-Serif" font-size="10.00">netdb.h</text>
</a>
</g>
</g>
<!-- Node2&#45;&gt;Node6 -->
<g id="edge5" class="edge"><title>Node2&#45;&gt;Node6</title>
<path fill="none" stroke="midnightblue" d="M507.95,-56.324C496.537,-48.1066 479.169,-35.6017 465.565,-25.8069"/>
<polygon fill="midnightblue" stroke="midnightblue" points="467.43,-22.8366 457.269,-19.8339 463.34,-28.5174 467.43,-22.8366"/>
</g>
<!-- Node7 -->
<g id="node7" class="node"><title>Node7</title>
<g id="a_node7"><a xlink:title=" ">
<polygon fill="white" stroke="#bfbfbf" points="487.5,-0.5 487.5,-19.5 552.5,-19.5 552.5,-0.5 487.5,-0.5"/>
<text text-anchor="middle" x="520" y="-7.5" font-family="Helvetica,sans-Serif" font-size="10.00">netinet/in.h</text>
</a>
</g>
</g>
<!-- Node2&#45;&gt;Node7 -->
<g id="edge6" class="edge"><title>Node2&#45;&gt;Node7</title>
<path fill="none" stroke="midnightblue" d="M520,-56.083C520,-49.0059 520,-38.8611 520,-29.9865"/>
<polygon fill="midnightblue" stroke="midnightblue" points="523.5,-29.751 520,-19.7511 516.5,-29.7511 523.5,-29.751"/>
</g>
<!-- Node8 -->
<g id="node8" class="node"><title>Node8</title>
<g id="a_node8"><a xlink:title=" ">
<polygon fill="white" stroke="#bfbfbf" points="570.5,-0.5 570.5,-19.5 643.5,-19.5 643.5,-0.5 570.5,-0.5"/>
<text text-anchor="middle" x="607" y="-7.5" font-family="Helvetica,sans-Serif" font-size="10.00">sys/socket.h</text>
</a>
</g>
</g>
<!-- Node2&#45;&gt;Node8 -->
<g id="edge7" class="edge"><title>Node2&#45;&gt;Node8</title>
<path fill="none" stroke="midnightblue" d="M533.978,-56.324C547.55,-47.9002 568.38,-34.9709 584.325,-25.0741"/>
<polygon fill="midnightblue" stroke="midnightblue" points="586.406,-27.9019 593.057,-19.6545 582.714,-21.9544 586.406,-27.9019"/>
</g>
<!-- Node9 -->
<g id="node9" class="node"><title>Node9</title>
<g id="a_node9"><a xlink:title=" ">
<polygon fill="white" stroke="#bfbfbf" points="662,-0.5 662,-19.5 730,-19.5 730,-0.5 662,-0.5"/>
<text text-anchor="middle" x="696" y="-7.5" font-family="Helvetica,sans-Serif" font-size="10.00">sys/types.h</text>
</a>
</g>
</g>
<!-- Node2&#45;&gt;Node9 -->
<g id="edge8" class="edge"><title>Node2&#45;&gt;Node9</title>
<path fill="none" stroke="midnightblue" d="M547.888,-56.4435C577.754,-47.2801 625.315,-32.6876 658.456,-22.5192"/>
<polygon fill="midnightblue" stroke="midnightblue" points="659.709,-25.7958 668.243,-19.5164 657.656,-19.1037 659.709,-25.7958"/>
</g>
<!-- Node10 -->
<g id="node10" class="node"><title>Node10</title>
<g id="a_node10"><a xlink:title=" ">
<polygon fill="white" stroke="#bfbfbf" points="748.5,-0.5 748.5,-19.5 799.5,-19.5 799.5,-0.5 748.5,-0.5"/>
<text text-anchor="middle" x="774" y="-7.5" font-family="Helvetica,sans-Serif" font-size="10.00">unistd.h</text>
</a>
</g>
</g>
<!-- Node2&#45;&gt;Node10 -->
<g id="edge9" class="edge"><title>Node2&#45;&gt;Node10</title>
<path fill="none" stroke="midnightblue" d="M560.09,-57.3746C602.04,-49.26 670.038,-35.7253 738.344,-20.0582"/>
<polygon fill="midnightblue" stroke="midnightblue" points="739.465,-23.3916 748.421,-17.7316 737.89,-16.5711 739.465,-23.3916"/>
</g>
<!-- Node11 -->
<g id="node11" class="node"><title>Node11</title>
<g id="a_node11"><a xlink:title=" ">
<polygon fill="white" stroke="#bfbfbf" points="228,-0.5 228,-19.5 276,-19.5 276,-0.5 228,-0.5"/>
<text text-anchor="middle" x="252" y="-7.5" font-family="Helvetica,sans-Serif" font-size="10.00">cstddef</text>
</a>
</g>
</g>
<!-- Node2&#45;&gt;Node11 -->
<g id="edge10" class="edge"><title>Node2&#45;&gt;Node11</title>
<path fill="none" stroke="midnightblue" d="M479.885,-58.2887C434.963,-50.5587 359.796,-36.9858 286.022,-20.0967"/>
<polygon fill="midnightblue" stroke="midnightblue" points="286.628,-16.6445 276.096,-17.802 285.051,-23.4646 286.628,-16.6445"/>
</g>
<!-- Node12&#45;&gt;Node2 -->
<g id="edge15" class="edge"><title>Node12&#45;&gt;Node2</title>
<path fill="none" stroke="midnightblue" d="M269.721,-345.585C236.656,-339.809 195.336,-327.258 169,-300 148.087,-278.355 150,-265.098 150,-235 150,-235 150,-235 150,-177 150,-146.902 146.115,-131.549 169,-112 213.214,-74.2295 383.971,-67.7126 469.944,-66.8806"/>
<polygon fill="midnightblue" stroke="midnightblue" points="470.021,-70.3802 479.994,-66.8056 469.969,-63.3804 470.021,-70.3802"/>
</g>
<!-- Node13 -->
<g id="node13" class="node"><title>Node13</title>
<g id="a_node13"><a xlink:title=" ">
<polygon fill="white" stroke="#bfbfbf" points="350,-280.5 350,-299.5 388,-299.5 388,-280.5 350,-280.5"/>
<text text-anchor="middle" x="369" y="-287.5" font-family="Helvetica,sans-Serif" font-size="10.00">array</text>
</a>
</g>
</g>
<!-- Node12&#45;&gt;Node13 -->
<g id="edge12" class="edge"><title>Node12&#45;&gt;Node13</title>
<path fill="none" stroke="midnightblue" d="M333.138,-336.399C339.968,-327.753 348.745,-316.642 355.906,-307.576"/>
<polygon fill="midnightblue" stroke="midnightblue" points="358.709,-309.674 362.161,-299.658 353.216,-305.335 358.709,-309.674"/>
</g>
<!-- Node14 -->
<g id="node14" class="node"><title>Node14</title>
<g id="a_node14"><a xlink:title=" ">
<polygon fill="white" stroke="#bfbfbf" points="267,-224.5 267,-243.5 325,-243.5 325,-224.5 267,-224.5"/>
<text text-anchor="middle" x="296" y="-231.5" font-family="Helvetica,sans-Serif" font-size="10.00">functional</text>
</a>
</g>
</g>
<!-- Node12&#45;&gt;Node14 -->
<g id="edge13" class="edge"><title>Node12&#45;&gt;Node14</title>
<path fill="none" stroke="midnightblue" d="M318.812,-336.337C314.127,-315.527 305.379,-276.663 300.183,-253.583"/>
<polygon fill="midnightblue" stroke="midnightblue" points="303.562,-252.657 297.952,-243.669 296.733,-254.194 303.562,-252.657"/>
</g>
<!-- Node15 -->
<g id="node15" class="node"><title>Node15</title>
<g id="a_node15"><a xlink:title=" ">
<polygon fill="white" stroke="#bfbfbf" points="872,-112.5 872,-131.5 946,-131.5 946,-112.5 872,-112.5"/>
<text text-anchor="middle" x="909" y="-119.5" font-family="Helvetica,sans-Serif" font-size="10.00">system_error</text>
</a>
</g>
</g>
<!-- Node12&#45;&gt;Node15 -->
<g id="edge14" class="edge"><title>Node12&#45;&gt;Node15</title>
<path fill="none" stroke="midnightblue" d="M364.662,-336.491C394.115,-326.662 434.105,-313.003 469,-300 549.804,-269.891 792.934,-170.562 878.669,-135.439"/>
<polygon fill="midnightblue" stroke="midnightblue" points="880.167,-138.608 888.093,-131.577 877.513,-132.13 880.167,-138.608"/>
</g>
<!-- Node16 -->
<g id="node16" class="node"><title>Node16</title>
<g id="a_node16"><a xlink:href="event__handler__select_8h.html" target="_top" xlink:title=" ">
<polygon fill="white" stroke="black" points="178,-280.5 178,-299.5 294,-299.5 294,-280.5 178,-280.5"/>
<text text-anchor="middle" x="236" y="-287.5" font-family="Helvetica,sans-Serif" font-size="10.00">event_handler_select.h</text>
</a>
</g>
</g>
<!-- Node12&#45;&gt;Node16 -->
<g id="edge16" class="edge"><title>Node12&#45;&gt;Node16</title>
<path fill="none" stroke="midnightblue" d="M301.619,-336.399C288.092,-327.04 270.389,-314.792 256.78,-305.377"/>
<polygon fill="midnightblue" stroke="midnightblue" points="258.729,-302.469 248.514,-299.658 254.746,-308.226 258.729,-302.469"/>
</g>
<!-- Node20 -->
<g id="node20" class="node"><title>Node20</title>
<g id="a_node20"><a xlink:href="socket_8h.html" target="_top" xlink:title=" ">
<polygon fill="white" stroke="black" points="406,-280.5 406,-299.5 460,-299.5 460,-280.5 406,-280.5"/>
<text text-anchor="middle" x="433" y="-287.5" font-family="Helvetica,sans-Serif" font-size="10.00">socket.h</text>
</a>
</g>
</g>
<!-- Node12&#45;&gt;Node20 -->
<g id="edge21" class="edge"><title>Node12&#45;&gt;Node20</title>
<path fill="none" stroke="midnightblue" d="M348.305,-336.399C366.264,-326.773 389.924,-314.09 407.671,-304.577"/>
<polygon fill="midnightblue" stroke="midnightblue" points="409.688,-307.467 416.849,-299.658 406.381,-301.297 409.688,-307.467"/>
</g>
<!-- Node17 -->
<g id="node17" class="node"><title>Node17</title>
<g id="a_node17"><a xlink:title=" ">
<polygon fill="white" stroke="#bfbfbf" points="178,-112.5 178,-131.5 224,-131.5 224,-112.5 178,-112.5"/>
<text text-anchor="middle" x="201" y="-119.5" font-family="Helvetica,sans-Serif" font-size="10.00">cstdint</text>
</a>
</g>
</g>
<!-- Node16&#45;&gt;Node17 -->
<g id="edge17" class="edge"><title>Node16&#45;&gt;Node17</title>
<path fill="none" stroke="midnightblue" d="M233.778,-280.399C231.472,-271.362 227.815,-256.721 225,-244 217.007,-207.881 208.874,-165.415 204.429,-141.612"/>
<polygon fill="midnightblue" stroke="midnightblue" points="207.825,-140.729 202.559,-131.535 200.942,-142.006 207.825,-140.729"/>
</g>
<!-- Node18 -->
<g id="node18" class="node"><title>Node18</title>
<g id="a_node18"><a xlink:title=" ">
<polygon fill="white" stroke="#bfbfbf" points="424,-112.5 424,-131.5 486,-131.5 486,-112.5 424,-112.5"/>
<text text-anchor="middle" x="455" y="-119.5" font-family="Helvetica,sans-Serif" font-size="10.00">type_traits</text>
</a>
</g>
</g>
<!-- Node16&#45;&gt;Node18 -->
<g id="edge18" class="edge"><title>Node16&#45;&gt;Node18</title>
<path fill="none" stroke="midnightblue" d="M236.392,-280.459C237.504,-266.556 241.757,-239.073 258,-224 305.093,-180.298 343.272,-221.651 398,-188 417.508,-176.005 434.01,-155.219 444.159,-140.381"/>
<polygon fill="midnightblue" stroke="midnightblue" points="447.331,-141.926 449.88,-131.642 441.474,-138.092 447.331,-141.926"/>
</g>
<!-- Node19 -->
<g id="node19" class="node"><title>Node19</title>
<g id="a_node19"><a xlink:href="executor__select_8h.html" target="_top" xlink:title=" ">
<polygon fill="white" stroke="black" points="28,-224.5 28,-243.5 122,-243.5 122,-224.5 28,-224.5"/>
<text text-anchor="middle" x="75" y="-231.5" font-family="Helvetica,sans-Serif" font-size="10.00">executor_select.h</text>
</a>
</g>
</g>
<!-- Node16&#45;&gt;Node19 -->
<g id="edge19" class="edge"><title>Node16&#45;&gt;Node19</title>
<path fill="none" stroke="midnightblue" d="M210.489,-280.444C183.404,-271.359 140.41,-256.939 110.131,-246.783"/>
<polygon fill="midnightblue" stroke="midnightblue" points="110.986,-243.378 100.392,-243.516 108.76,-250.015 110.986,-243.378"/>
</g>
<!-- Node19&#45;&gt;Node1 -->
<g id="edge20" class="edge"><title>Node19&#45;&gt;Node1</title>
<path fill="none" stroke="midnightblue" d="M75,-243.841C75,-270.256 75,-349.466 75,-393.193"/>
<polygon fill="midnightblue" stroke="midnightblue" points="71.5001,-393.236 75,-403.236 78.5001,-393.236 71.5001,-393.236"/>
</g>
<!-- Node20&#45;&gt;Node2 -->
<g id="edge51" class="edge"><title>Node20&#45;&gt;Node2</title>
<path fill="none" stroke="midnightblue" d="M418.811,-280.28C395.458,-264.987 349.746,-230.842 332,-188 324.785,-170.582 326.63,-125.028 338,-112 355.098,-92.4095 421.749,-79.7439 469.437,-72.9903"/>
<polygon fill="midnightblue" stroke="midnightblue" points="470.169,-76.4229 479.601,-71.5987 469.219,-69.4876 470.169,-76.4229"/>
</g>
<!-- Node20&#45;&gt;Node14 -->
<g id="edge23" class="edge"><title>Node20&#45;&gt;Node14</title>
<path fill="none" stroke="midnightblue" d="M411.292,-280.444C388.645,-271.517 352.928,-257.439 327.248,-247.317"/>
<polygon fill="midnightblue" stroke="midnightblue" points="328.193,-243.927 317.606,-243.516 325.626,-250.44 328.193,-243.927"/>
</g>
<!-- Node21 -->
<g id="node21" class="node"><title>Node21</title>
<g id="a_node21"><a xlink:title=" ">
<polygon fill="white" stroke="#bfbfbf" points="356.5,-112.5 356.5,-131.5 405.5,-131.5 405.5,-112.5 356.5,-112.5"/>
<text text-anchor="middle" x="381" y="-119.5" font-family="Helvetica,sans-Serif" font-size="10.00">cassert</text>
</a>
</g>
</g>
<!-- Node20&#45;&gt;Node21 -->
<g id="edge22" class="edge"><title>Node20&#45;&gt;Node21</title>
<path fill="none" stroke="midnightblue" d="M430.77,-280.419C425.543,-260.513 411.885,-209.704 398,-168 395.028,-159.075 391.381,-149.291 388.227,-141.133"/>
<polygon fill="midnightblue" stroke="midnightblue" points="391.378,-139.582 384.464,-131.554 384.863,-142.141 391.378,-139.582"/>
</g>
<!-- Node22 -->
<g id="node22" class="node"><title>Node22</title>
<g id="a_node22"><a xlink:href="address_8h.html" target="_top" xlink:title=" ">
<polygon fill="white" stroke="black" points="799.5,-224.5 799.5,-243.5 858.5,-243.5 858.5,-224.5 799.5,-224.5"/>
<text text-anchor="middle" x="829" y="-231.5" font-family="Helvetica,sans-Serif" font-size="10.00">address.h</text>
</a>
</g>
</g>
<!-- Node20&#45;&gt;Node22 -->
<g id="edge24" class="edge"><title>Node20&#45;&gt;Node22</title>
<path fill="none" stroke="midnightblue" d="M460.219,-285.288C528.784,-275.939 708.852,-251.384 789.246,-240.421"/>
<polygon fill="midnightblue" stroke="midnightblue" points="790.018,-243.848 799.453,-239.029 789.072,-236.912 790.018,-243.848"/>
</g>
<!-- Node25 -->
<g id="node25" class="node"><title>Node25</title>
<g id="a_node25"><a xlink:href="buffer_8h.html" target="_top" xlink:title=" ">
<polygon fill="white" stroke="black" points="341,-168.5 341,-187.5 389,-187.5 389,-168.5 341,-168.5"/>
<text text-anchor="middle" x="365" y="-175.5" font-family="Helvetica,sans-Serif" font-size="10.00">buffer.h</text>
</a>
</g>
</g>
<!-- Node20&#45;&gt;Node25 -->
<g id="edge50" class="edge"><title>Node20&#45;&gt;Node25</title>
<path fill="none" stroke="midnightblue" d="M427.664,-280.368C416.492,-262.296 390.455,-220.176 375.699,-196.307"/>
<polygon fill="midnightblue" stroke="midnightblue" points="378.546,-194.257 370.311,-187.591 372.592,-197.938 378.546,-194.257"/>
</g>
<!-- Node26 -->
<g id="node26" class="node"><title>Node26</title>
<g id="a_node26"><a xlink:href="exception_8h.html" target="_top" xlink:title=" ">
<polygon fill="white" stroke="black" points="871.5,-168.5 871.5,-187.5 938.5,-187.5 938.5,-168.5 871.5,-168.5"/>
<text text-anchor="middle" x="905" y="-175.5" font-family="Helvetica,sans-Serif" font-size="10.00">exception.h</text>
</a>
</g>
</g>
<!-- Node20&#45;&gt;Node26 -->
<g id="edge52" class="edge"><title>Node20&#45;&gt;Node26</title>
<path fill="none" stroke="midnightblue" d="M460.261,-289.36C544.713,-289.993 800.364,-288.139 868,-244 884.276,-233.379 894.167,-212.959 899.577,-197.828"/>
<polygon fill="midnightblue" stroke="midnightblue" points="903.02,-198.553 902.75,-187.961 896.356,-196.409 903.02,-198.553"/>
</g>
<!-- Node29 -->
<g id="node29" class="node"><title>Node29</title>
<g id="a_node29"><a xlink:href="useful__base__types_8h.html" target="_top" xlink:title=" ">
<polygon fill="white" stroke="black" points="1107,-56.5 1107,-75.5 1213,-75.5 1213,-56.5 1107,-56.5"/>
<text text-anchor="middle" x="1160" y="-63.5" font-family="Helvetica,sans-Serif" font-size="10.00">useful_base_types.h</text>
</a>
</g>
</g>
<!-- Node20&#45;&gt;Node29 -->
<g id="edge53" class="edge"><title>Node20&#45;&gt;Node29</title>
<path fill="none" stroke="midnightblue" d="M460.206,-288.561C575.587,-286.185 1023.48,-271.635 1131,-188 1153.12,-170.791 1153.37,-159.232 1160,-132 1163.72,-116.736 1163.39,-98.8503 1162.32,-85.7089"/>
<polygon fill="midnightblue" stroke="midnightblue" points="1165.78,-85.153 1161.27,-75.5667 1158.82,-85.874 1165.78,-85.153"/>
</g>
<!-- Node30 -->
<g id="node30" class="node"><title>Node30</title>
<g id="a_node30"><a xlink:href="utils_8h.html" target="_top" xlink:title=" ">
<polygon fill="white" stroke="black" points="678.5,-168.5 678.5,-187.5 721.5,-187.5 721.5,-168.5 678.5,-168.5"/>
<text text-anchor="middle" x="700" y="-175.5" font-family="Helvetica,sans-Serif" font-size="10.00">utils.h</text>
</a>
</g>
</g>
<!-- Node20&#45;&gt;Node30 -->
<g id="edge54" class="edge"><title>Node20&#45;&gt;Node30</title>
<path fill="none" stroke="midnightblue" d="M453.951,-280.368C500.938,-261.01 614.889,-214.065 669.641,-191.507"/>
<polygon fill="midnightblue" stroke="midnightblue" points="671.233,-194.637 679.146,-187.591 668.567,-188.165 671.233,-194.637"/>
</g>
<!-- Node23 -->
<g id="node23" class="node"><title>Node23</title>
<g id="a_node23"><a xlink:title=" ">
<polygon fill="white" stroke="#bfbfbf" points="808.5,-168.5 808.5,-187.5 849.5,-187.5 849.5,-168.5 808.5,-168.5"/>
<text text-anchor="middle" x="829" y="-175.5" font-family="Helvetica,sans-Serif" font-size="10.00">string</text>
</a>
</g>
</g>
<!-- Node22&#45;&gt;Node23 -->
<g id="edge25" class="edge"><title>Node22&#45;&gt;Node23</title>
<path fill="none" stroke="midnightblue" d="M829,-224.083C829,-217.006 829,-206.861 829,-197.986"/>
<polygon fill="midnightblue" stroke="midnightblue" points="832.5,-197.751 829,-187.751 825.5,-197.751 832.5,-197.751"/>
</g>
<!-- Node24 -->
<g id="node24" class="node"><title>Node24</title>
<g id="a_node24"><a xlink:title=" ">
<polygon fill="white" stroke="#bfbfbf" points="1078,-168.5 1078,-187.5 1122,-187.5 1122,-168.5 1078,-168.5"/>
<text text-anchor="middle" x="1100" y="-175.5" font-family="Helvetica,sans-Serif" font-size="10.00">variant</text>
</a>
</g>
</g>
<!-- Node22&#45;&gt;Node24 -->
<g id="edge26" class="edge"><title>Node22&#45;&gt;Node24</title>
<path fill="none" stroke="midnightblue" d="M858.754,-228.377C902.527,-221.37 987.011,-207.062 1067.88,-188.087"/>
<polygon fill="midnightblue" stroke="midnightblue" points="1068.8,-191.466 1077.72,-185.75 1067.18,-184.655 1068.8,-191.466"/>
</g>
<!-- Node22&#45;&gt;Node25 -->
<g id="edge27" class="edge"><title>Node22&#45;&gt;Node25</title>
<path fill="none" stroke="midnightblue" d="M799.269,-229.54C716.992,-219.965 486.616,-193.154 399.214,-182.982"/>
<polygon fill="midnightblue" stroke="midnightblue" points="399.382,-179.478 389.045,-181.798 398.573,-186.431 399.382,-179.478"/>
</g>
<!-- Node22&#45;&gt;Node26 -->
<g id="edge33" class="edge"><title>Node22&#45;&gt;Node26</title>
<path fill="none" stroke="midnightblue" d="M841.211,-224.324C852.776,-216.107 870.375,-203.602 884.161,-193.807"/>
<polygon fill="midnightblue" stroke="midnightblue" points="886.443,-196.479 892.567,-187.834 882.388,-190.773 886.443,-196.479"/>
</g>
<!-- Node27 -->
<g id="node27" class="node"><title>Node27</title>
<g id="a_node27"><a xlink:href="sys__socket__ops_8h.html" target="_top" xlink:title=" ">
<polygon fill="white" stroke="black" points="964,-168.5 964,-187.5 1060,-187.5 1060,-168.5 964,-168.5"/>
<text text-anchor="middle" x="1012" y="-175.5" font-family="Helvetica,sans-Serif" font-size="10.00">sys_socket_ops.h</text>
</a>
</g>
</g>
<!-- Node22&#45;&gt;Node27 -->
<g id="edge36" class="edge"><title>Node22&#45;&gt;Node27</title>
<path fill="none" stroke="midnightblue" d="M857.997,-224.444C889.185,-215.241 938.93,-200.562 973.408,-190.388"/>
<polygon fill="midnightblue" stroke="midnightblue" points="974.538,-193.704 983.139,-187.516 972.557,-186.99 974.538,-193.704"/>
</g>
<!-- Node22&#45;&gt;Node30 -->
<g id="edge42" class="edge"><title>Node22&#45;&gt;Node30</title>
<path fill="none" stroke="midnightblue" d="M808.56,-224.444C787.33,-215.557 753.901,-201.563 729.745,-191.451"/>
<polygon fill="midnightblue" stroke="midnightblue" points="730.921,-188.149 720.345,-187.516 728.218,-194.606 730.921,-188.149"/>
</g>
<!-- Node25&#45;&gt;Node2 -->
<g id="edge32" class="edge"><title>Node25&#45;&gt;Node2</title>
<path fill="none" stroke="midnightblue" d="M358.09,-168.073C348.562,-154.6 333.965,-128.86 347,-112 361.956,-92.6554 424.051,-80.0753 469.584,-73.2617"/>
<polygon fill="midnightblue" stroke="midnightblue" points="470.207,-76.7081 479.604,-71.8142 469.206,-69.7801 470.207,-76.7081"/>
</g>
<!-- Node25&#45;&gt;Node11 -->
<g id="edge29" class="edge"><title>Node25&#45;&gt;Node11</title>
<path fill="none" stroke="midnightblue" d="M358.925,-168.075C340.906,-141.606 287.54,-63.2089 263.715,-28.2097"/>
<polygon fill="midnightblue" stroke="midnightblue" points="266.353,-25.8651 257.833,-19.5681 260.566,-29.8041 266.353,-25.8651"/>
</g>
<!-- Node25&#45;&gt;Node17 -->
<g id="edge30" class="edge"><title>Node25&#45;&gt;Node17</title>
<path fill="none" stroke="midnightblue" d="M340.801,-169.032C312.501,-159.714 265.511,-144.241 233.912,-133.837"/>
<polygon fill="midnightblue" stroke="midnightblue" points="234.829,-130.454 224.236,-130.651 232.64,-137.103 234.829,-130.454"/>
</g>
<!-- Node25&#45;&gt;Node18 -->
<g id="edge31" class="edge"><title>Node25&#45;&gt;Node18</title>
<path fill="none" stroke="midnightblue" d="M379.46,-168.324C393.5,-159.9 415.048,-146.971 431.543,-137.074"/>
<polygon fill="midnightblue" stroke="midnightblue" points="433.802,-139.801 440.576,-131.655 430.2,-133.798 433.802,-139.801"/>
</g>
<!-- Node25&#45;&gt;Node21 -->
<g id="edge28" class="edge"><title>Node25&#45;&gt;Node21</title>
<path fill="none" stroke="midnightblue" d="M367.642,-168.083C369.786,-160.849 372.879,-150.409 375.549,-141.397"/>
<polygon fill="midnightblue" stroke="midnightblue" points="378.922,-142.333 378.407,-131.751 372.21,-140.345 378.922,-142.333"/>
</g>
<!-- Node26&#45;&gt;Node2 -->
<g id="edge35" class="edge"><title>Node26&#45;&gt;Node2</title>
<path fill="none" stroke="midnightblue" d="M919.804,-168.459C940.118,-155.706 972.259,-131.136 955,-112 929.631,-83.8713 679.472,-72.2517 570.405,-68.4956"/>
<polygon fill="midnightblue" stroke="midnightblue" points="570.415,-64.9941 560.303,-68.1564 570.18,-71.9901 570.415,-64.9941"/>
</g>
<!-- Node26&#45;&gt;Node15 -->
<g id="edge34" class="edge"><title>Node26&#45;&gt;Node15</title>
<path fill="none" stroke="midnightblue" d="M905.661,-168.083C906.185,-161.006 906.936,-150.861 907.594,-141.986"/>
<polygon fill="midnightblue" stroke="midnightblue" points="911.103,-141.982 908.352,-131.751 904.123,-141.465 911.103,-141.982"/>
</g>
<!-- Node27&#45;&gt;Node2 -->
<g id="edge37" class="edge"><title>Node27&#45;&gt;Node2</title>
<path fill="none" stroke="midnightblue" d="M1009.37,-168.47C1004.45,-154.063 992.335,-125.191 971,-112 905.081,-71.2434 673.576,-66.565 570.343,-66.5739"/>
<polygon fill="midnightblue" stroke="midnightblue" points="570.167,-63.0741 560.172,-66.5902 570.178,-70.0741 570.167,-63.0741"/>
</g>
<!-- Node28 -->
<g id="node28" class="node"><title>Node28</title>
<g id="a_node28"><a xlink:href="sys__error__code_8h.html" target="_top" xlink:title=" ">
<polygon fill="white" stroke="black" points="1040,-112.5 1040,-131.5 1132,-131.5 1132,-112.5 1040,-112.5"/>
<text text-anchor="middle" x="1086" y="-119.5" font-family="Helvetica,sans-Serif" font-size="10.00">sys_error_code.h</text>
</a>
</g>
</g>
<!-- Node27&#45;&gt;Node28 -->
<g id="edge38" class="edge"><title>Node27&#45;&gt;Node28</title>
<path fill="none" stroke="midnightblue" d="M1023.89,-168.324C1035.15,-160.107 1052.29,-147.602 1065.71,-137.807"/>
<polygon fill="midnightblue" stroke="midnightblue" points="1067.88,-140.556 1073.89,-131.834 1063.75,-134.901 1067.88,-140.556"/>
</g>
<!-- Node27&#45;&gt;Node29 -->
<g id="edge41" class="edge"><title>Node27&#45;&gt;Node29</title>
<path fill="none" stroke="midnightblue" d="M1047.62,-168.484C1081.1,-159.808 1127.97,-145.714 1141,-132 1152.76,-119.625 1157.29,-100.379 1159.01,-86.037"/>
<polygon fill="midnightblue" stroke="midnightblue" points="1162.52,-86.0695 1159.87,-75.8109 1155.54,-85.4816 1162.52,-86.0695"/>
</g>
<!-- Node28&#45;&gt;Node2 -->
<g id="edge39" class="edge"><title>Node28&#45;&gt;Node2</title>
<path fill="none" stroke="midnightblue" d="M1039.85,-113.791C1035.18,-113.147 1030.5,-112.537 1026,-112 859.463,-92.1227 661.124,-76.9448 570.132,-70.4533"/>
<polygon fill="midnightblue" stroke="midnightblue" points="570.321,-66.958 560.098,-69.7417 569.825,-73.9404 570.321,-66.958"/>
</g>
<!-- Node28&#45;&gt;Node29 -->
<g id="edge40" class="edge"><title>Node28&#45;&gt;Node29</title>
<path fill="none" stroke="midnightblue" d="M1097.89,-112.324C1109.15,-104.107 1126.29,-91.6017 1139.71,-81.8069"/>
<polygon fill="midnightblue" stroke="midnightblue" points="1141.88,-84.5559 1147.89,-75.8339 1137.75,-78.9014 1141.88,-84.5559"/>
</g>
<!-- Node30&#45;&gt;Node2 -->
<g id="edge49" class="edge"><title>Node30&#45;&gt;Node2</title>
<path fill="none" stroke="midnightblue" d="M721.736,-172.321C754.204,-164.842 812.865,-149.266 825,-132 830.111,-124.728 830.809,-118.728 825,-112 792.698,-74.5823 648.232,-67.7332 570.273,-66.8203"/>
<polygon fill="midnightblue" stroke="midnightblue" points="570.221,-63.3198 560.191,-66.731 570.159,-70.3195 570.221,-63.3198"/>
</g>
<!-- Node30&#45;&gt;Node15 -->
<g id="edge46" class="edge"><title>Node30&#45;&gt;Node15</title>
<path fill="none" stroke="midnightblue" d="M721.579,-171.424C755.542,-162.65 822.116,-145.449 866.081,-134.089"/>
<polygon fill="midnightblue" stroke="midnightblue" points="867.111,-137.438 875.918,-131.548 865.36,-130.661 867.111,-137.438"/>
</g>
<!-- Node30&#45;&gt;Node18 -->
<g id="edge47" class="edge"><title>Node30&#45;&gt;Node18</title>
<path fill="none" stroke="midnightblue" d="M678.446,-172.308C642.689,-164.514 568.601,-148.332 495.8,-132.169"/>
<polygon fill="midnightblue" stroke="midnightblue" points="496.526,-128.745 486.005,-129.993 495.008,-135.579 496.526,-128.745"/>
</g>
<!-- Node31 -->
<g id="node31" class="node"><title>Node31</title>
<g id="a_node31"><a xlink:title=" ">
<polygon fill="white" stroke="#bfbfbf" points="670,-112.5 670,-131.5 730,-131.5 730,-112.5 670,-112.5"/>
<text text-anchor="middle" x="700" y="-119.5" font-family="Helvetica,sans-Serif" font-size="10.00">fmt/core.h</text>
</a>
</g>
</g>
<!-- Node30&#45;&gt;Node31 -->
<g id="edge43" class="edge"><title>Node30&#45;&gt;Node31</title>
<path fill="none" stroke="midnightblue" d="M700,-168.083C700,-161.006 700,-150.861 700,-141.986"/>
<polygon fill="midnightblue" stroke="midnightblue" points="703.5,-141.751 700,-131.751 696.5,-141.751 703.5,-141.751"/>
</g>
<!-- Node32 -->
<g id="node32" class="node"><title>Node32</title>
<g id="a_node32"><a xlink:title=" ">
<polygon fill="white" stroke="#bfbfbf" points="748,-112.5 748,-131.5 816,-131.5 816,-112.5 748,-112.5"/>
<text text-anchor="middle" x="782" y="-119.5" font-family="Helvetica,sans-Serif" font-size="10.00">fmt/format.h</text>
</a>
</g>
</g>
<!-- Node30&#45;&gt;Node32 -->
<g id="edge44" class="edge"><title>Node30&#45;&gt;Node32</title>
<path fill="none" stroke="midnightblue" d="M713.175,-168.324C725.847,-159.979 745.233,-147.212 760.206,-137.352"/>
<polygon fill="midnightblue" stroke="midnightblue" points="762.431,-140.078 768.858,-131.655 758.581,-134.231 762.431,-140.078"/>
</g>
<!-- Node33 -->
<g id="node33" class="node"><title>Node33</title>
<g id="a_node33"><a xlink:title=" ">
<polygon fill="white" stroke="#bfbfbf" points="504,-112.5 504,-131.5 550,-131.5 550,-112.5 504,-112.5"/>
<text text-anchor="middle" x="527" y="-119.5" font-family="Helvetica,sans-Serif" font-size="10.00">cstring</text>
</a>
</g>
</g>
<!-- Node30&#45;&gt;Node33 -->
<g id="edge45" class="edge"><title>Node30&#45;&gt;Node33</title>
<path fill="none" stroke="midnightblue" d="M678.439,-170.27C648.678,-160.981 594.749,-144.147 559.926,-133.278"/>
<polygon fill="midnightblue" stroke="midnightblue" points="560.803,-129.885 550.214,-130.246 558.717,-136.567 560.803,-129.885"/>
</g>
<!-- Node34 -->
<g id="node34" class="node"><title>Node34</title>
<g id="a_node34"><a xlink:title=" ">
<polygon fill="white" stroke="#bfbfbf" points="568.5,-112.5 568.5,-131.5 651.5,-131.5 651.5,-112.5 568.5,-112.5"/>
<text text-anchor="middle" x="610" y="-119.5" font-family="Helvetica,sans-Serif" font-size="10.00">unordered_map</text>
</a>
</g>
</g>
<!-- Node30&#45;&gt;Node34 -->
<g id="edge48" class="edge"><title>Node30&#45;&gt;Node34</title>
<path fill="none" stroke="midnightblue" d="M685.54,-168.324C671.5,-159.9 649.952,-146.971 633.457,-137.074"/>
<polygon fill="midnightblue" stroke="midnightblue" points="634.8,-133.798 624.424,-131.655 631.198,-139.801 634.8,-133.798"/>
</g>
</g>
</svg>
        <g id="navigator" transform="translate(0 0)" fill="#404254">
                <rect fill="#f2f5e9" fill-opacity="0.5" stroke="#606060" stroke-width=".5" x="0" y="0" width="60" height="60"/>
                <use id="zoomplus" xlink:href="#zoomPlus" x="17" y="9" onmousedown="handleZoom(evt,'in')"/>
                <use id="zoomminus" xlink:href="#zoomMin" x="42" y="9" onmousedown="handleZoom(evt,'out')"/>
                <use id="reset" xlink:href="#resetDef" x="30" y="36" onmousedown="handleReset()"/>
                <g id="arrowUp" xlink:href="#dirArrow" transform="translate(30 24)" onmousedown="handlePan(0,-1)">
                  <use xlink:href="#rim" fill="#404040">
                        <set attributeName="fill" to="#808080" begin="arrowUp.mouseover" end="arrowUp.mouseout"/>
                  </use>
                  <path fill="none" stroke="white" stroke-width="1.5" d="M0,-3.0v7 M-2.5,-0.5L0,-3.0L2.5,-0.5"/>
                </g>
                <g id="arrowRight" xlink:href="#dirArrow" transform="rotate(90) translate(36 -43)" onmousedown="handlePan(1,0)">
                  <use xlink:href="#rim" fill="#404040">
                        <set attributeName="fill" to="#808080" begin="arrowRight.mouseover" end="arrowRight.mouseout"/>
                  </use>
                  <path fill="none" stroke="white" stroke-width="1.5" d="M0,-3.0v7 M-2.5,-0.5L0,-3.0L2.5,-0.5"/>
                </g>
                <g id="arrowDown" xlink:href="#dirArrow" transform="rotate(180) translate(-30 -48)" onmousedown="handlePan(0,1)">
                  <use xlink:href="#rim" fill="#404040">
                        <set attributeName="fill" to="#808080" begin="arrowDown.mouseover" end="arrowDown.mouseout"/>
                  </use>
                  <path fill="none" stroke="white" stroke-width="1.5" d="M0,-3.0v7 M-2.5,-0.5L0,-3.0L2.5,-0.5"/>
                </g>
                <g id="arrowLeft" xlink:href="#dirArrow" transform="rotate(270) translate(-36 17)" onmousedown="handlePan(-1,0)">
                  <use xlink:href="#rim" fill="#404040">
                        <set attributeName="fill" to="#808080" begin="arrowLeft.mouseover" end="arrowLeft.mouseout"/>
                  </use>
                  <path fill="none" stroke="white" stroke-width="1.5" d="M0,-3.0v7 M-2.5,-0.5L0,-3.0L2.5,-0.5"/>
                </g>
        </g>
        <svg viewBox="0 0 15 15" width="100%" height="30px" preserveAspectRatio="xMaxYMin meet">
         <g id="arrow_out" transform="scale(0.3 0.3)">
          <a xlink:href="nix_2executor__select__impl_8h__incl_org.svg" target="_base">
           <rect id="button" ry="5" rx="5" y="6" x="6" height="38" width="38"
                fill="#f2f5e9" fill-opacity="0.5" stroke="#606060" stroke-width="1.0"/>
           <path id="arrow"
             d="M 11.500037,31.436501 C 11.940474,20.09759 22.043105,11.32322 32.158766,21.979434 L 37.068811,17.246167 C 37.068811,17.246167 37.088388,32 37.088388,32 L 22.160133,31.978069 C 22.160133,31.978069 26.997745,27.140456 26.997745,27.140456 C 18.528582,18.264221 13.291696,25.230495 11.500037,31.436501 z"
             style="fill:#404040;"/>
          </a>
         </g>
        </svg>
</svg>
