<?xml version="1.0" encoding="UTF-8" standalone="no"?>
<!DOCTYPE svg PUBLIC "-//W3C//DTD SVG 1.1//EN"
 "http://www.w3.org/Graphics/SVG/1.1/DTD/svg11.dtd">
<!-- Generated by graphviz version 2.38.0 (20140413.2041)
 -->
<!-- Title: C:/projects/ndt/sources/include/ndt/platform/nix/executor_select_impl.h Pages: 1 -->
<!--zoomable 453 -->
<svg id="main" version="1.1" xmlns="http://www.w3.org/2000/svg" xmlns:xlink="http://www.w3.org/1999/xlink" xml:space="preserve" onload="init(evt)">
<style type="text/css"><![CDATA[
.edge:hover path { stroke: red; }
.edge:hover polygon { stroke: red; fill: red; }
]]></style>
<script type="text/javascript"><![CDATA[
var edges = document.getElementsByTagName('g');
if (edges && edges.length) {
  for (var i=0;i<edges.length;i++) {
    if (edges[i].id.substr(0,4)=='edge') {
      edges[i].setAttribute('class','edge');
    }
  }
}
]]></script>
        <defs>
                <circle id="rim" cx="0" cy="0" r="7"/>
                <circle id="rim2" cx="0" cy="0" r="3.5"/>
                <g id="zoomPlus">
                        <use xlink:href="#rim" fill="#404040">
                                <set attributeName="fill" to="#808080" begin="zoomplus.mouseover" end="zoomplus.mouseout"/>
                        </use>
                        <path d="M-4,0h8M0,-4v8" fill="none" stroke="white" stroke-width="1.5" pointer-events="none"/>
                </g>
                <g id="zoomMin">
                        <use xlink:href="#rim" fill="#404040">
                                <set attributeName="fill" to="#808080" begin="zoomminus.mouseover" end="zoomminus.mouseout"/>
                        </use>
                        <path d="M-4,0h8" fill="none" stroke="white" stroke-width="1.5" pointer-events="none"/>
                </g>
                <g id="dirArrow">
                        <path fill="none" stroke="white" stroke-width="1.5" d="M0,-3.0v7 M-2.5,-0.5L0,-3.0L2.5,-0.5"/>
                </g>
               <g id="resetDef">
                       <use xlink:href="#rim2" fill="#404040">
                               <set attributeName="fill" to="#808080" begin="reset.mouseover" end="reset.mouseout"/>
                       </use>
               </g>
        </defs>

<script type="text/javascript">
var viewWidth = 1321;
var viewHeight = 453;
var sectionId = 'dynsection-0';
</script>
<script xlink:href="svgpan.js"/>
<svg id="graph" class="graph">
<g id="viewport">
<title>C:/projects/ndt/sources/include/ndt/platform/nix/executor_select_impl.h</title>
<polygon fill="white" stroke="none" points="-4,4 -4,-449 1317,-449 1317,4 -4,4"/>
<!-- Node1 -->
<g id="node1" class="node"><title>Node1</title>
<g id="a_node1"><a xlink:title=" ">
<polygon fill="#bfbfbf" stroke="black" points="483,-403.5 483,-444.5 619,-444.5 619,-403.5 483,-403.5"/>
<text text-anchor="start" x="491" y="-432.5" font-family="Helvetica,sans-Serif" font-size="10.00">C:/projects/ndt/sources</text>
<text text-anchor="start" x="491" y="-421.5" font-family="Helvetica,sans-Serif" font-size="10.00">/include/ndt/platform</text>
<text text-anchor="middle" x="551" y="-410.5" font-family="Helvetica,sans-Serif" font-size="10.00">/nix/executor_select_impl.h</text>
</a>
</g>
</g>
<!-- Node2 -->
<g id="node2" class="node"><title>Node2</title>
<g id="a_node2"><a xlink:href="common_8h.html" target="_top" xlink:title="Header with typedefs to make type designation platform independent.">
<polygon fill="white" stroke="black" points="237,-56.5 237,-75.5 317,-75.5 317,-56.5 237,-56.5"/>
<text text-anchor="middle" x="277" y="-63.5" font-family="Helvetica,sans-Serif" font-size="10.00">../../common.h</text>
</a>
</g>
</g>
<!-- Node1&#45;&gt;Node2 -->
<g id="edge1" class="edge"><title>Node1&#45;&gt;Node2</title>
<path fill="none" stroke="midnightblue" d="M482.726,-406.044C420.581,-387.928 329.028,-354.238 265,-300 236.481,-275.842 225.702,-261.23 229,-224 233.492,-173.291 234.711,-159.509 253,-112 256.618,-102.601 261.76,-92.6698 266.356,-84.5354"/>
<polygon fill="midnightblue" stroke="midnightblue" points="269.52,-86.0586 271.553,-75.6607 263.48,-82.521 269.52,-86.0586"/>
</g>
<!-- Node12 -->
<g id="node12" class="node"><title>Node12</title>
<g id="a_node12"><a xlink:href="executor__select__base_8h.html" target="_top" xlink:title=" ">
<polygon fill="white" stroke="black" points="499,-336.5 499,-366.5 603,-366.5 603,-336.5 499,-336.5"/>
<text text-anchor="start" x="507" y="-354.5" font-family="Helvetica,sans-Serif" font-size="10.00">../../executor_select</text>
<text text-anchor="middle" x="551" y="-343.5" font-family="Helvetica,sans-Serif" font-size="10.00">_base.h</text>
</a>
</g>
</g>
<!-- Node1&#45;&gt;Node12 -->
<g id="edge11" class="edge"><title>Node1&#45;&gt;Node12</title>
<path fill="none" stroke="midnightblue" d="M551,-403.362C551,-395.226 551,-385.7 551,-377.105"/>
<polygon fill="midnightblue" stroke="midnightblue" points="554.5,-376.892 551,-366.892 547.5,-376.892 554.5,-376.892"/>
</g>
<!-- Node3 -->
<g id="node3" class="node"><title>Node3</title>
<g id="a_node3"><a xlink:title=" ">
<polygon fill="white" stroke="#bfbfbf" points="532,-0.5 532,-19.5 594,-19.5 594,-0.5 532,-0.5"/>
<text text-anchor="middle" x="563" y="-7.5" font-family="Helvetica,sans-Serif" font-size="10.00">arpa/inet.h</text>
</a>
</g>
</g>
<!-- Node2&#45;&gt;Node3 -->
<g id="edge2" class="edge"><title>Node2&#45;&gt;Node3</title>
<path fill="none" stroke="midnightblue" d="M317.206,-57.6197C377.476,-46.5559 487.188,-26.4138 521.705,-19.9088"/>
<polygon fill="midnightblue" stroke="midnightblue" points="522.525,-23.3153 531.684,-17.9905 521.203,-16.4412 522.525,-23.3153"/>
</g>
<!-- Node4 -->
<g id="node4" class="node"><title>Node4</title>
<g id="a_node4"><a xlink:title=" ">
<polygon fill="white" stroke="#bfbfbf" points="8.5,-0.5 8.5,-19.5 55.5,-19.5 55.5,-0.5 8.5,-0.5"/>
<text text-anchor="middle" x="32" y="-7.5" font-family="Helvetica,sans-Serif" font-size="10.00">errno.h</text>
</a>
</g>
</g>
<!-- Node2&#45;&gt;Node4 -->
<g id="edge3" class="edge"><title>Node2&#45;&gt;Node4</title>
<path fill="none" stroke="midnightblue" d="M236.778,-57.3245C195.916,-49.3445 130.594,-36.0898 65.7058,-20.309"/>
<polygon fill="midnightblue" stroke="midnightblue" points="66.2655,-16.8425 55.7195,-17.859 64.5976,-23.6409 66.2655,-16.8425"/>
</g>
<!-- Node5 -->
<g id="node5" class="node"><title>Node5</title>
<g id="a_node5"><a xlink:title=" ">
<polygon fill="white" stroke="#bfbfbf" points="73.5,-0.5 73.5,-19.5 116.5,-19.5 116.5,-0.5 73.5,-0.5"/>
<text text-anchor="middle" x="95" y="-7.5" font-family="Helvetica,sans-Serif" font-size="10.00">fcntl.h</text>
</a>
</g>
</g>
<!-- Node2&#45;&gt;Node5 -->
<g id="edge4" class="edge"><title>Node2&#45;&gt;Node5</title>
<path fill="none" stroke="midnightblue" d="M248.134,-56.488C219.463,-48.0262 173.996,-34.587 126.211,-20.3543"/>
<polygon fill="midnightblue" stroke="midnightblue" points="127.21,-17.0001 116.627,-17.4984 125.211,-23.7085 127.21,-17.0001"/>
</g>
<!-- Node6 -->
<g id="node6" class="node"><title>Node6</title>
<g id="a_node6"><a xlink:title=" ">
<polygon fill="white" stroke="#bfbfbf" points="134.5,-0.5 134.5,-19.5 183.5,-19.5 183.5,-0.5 134.5,-0.5"/>
<text text-anchor="middle" x="159" y="-7.5" font-family="Helvetica,sans-Serif" font-size="10.00">netdb.h</text>
</a>
</g>
</g>
<!-- Node2&#45;&gt;Node6 -->
<g id="edge5" class="edge"><title>Node2&#45;&gt;Node6</title>
<path fill="none" stroke="midnightblue" d="M258.303,-56.4435C239.056,-47.6356 208.848,-33.8116 186.8,-23.722"/>
<polygon fill="midnightblue" stroke="midnightblue" points="188.16,-20.4951 177.61,-19.5164 185.247,-26.8603 188.16,-20.4951"/>
</g>
<!-- Node7 -->
<g id="node7" class="node"><title>Node7</title>
<g id="a_node7"><a xlink:title=" ">
<polygon fill="white" stroke="#bfbfbf" points="201.5,-0.5 201.5,-19.5 266.5,-19.5 266.5,-0.5 201.5,-0.5"/>
<text text-anchor="middle" x="234" y="-7.5" font-family="Helvetica,sans-Serif" font-size="10.00">netinet/in.h</text>
</a>
</g>
</g>
<!-- Node2&#45;&gt;Node7 -->
<g id="edge6" class="edge"><title>Node2&#45;&gt;Node7</title>
<path fill="none" stroke="midnightblue" d="M269.899,-56.083C263.763,-48.3768 254.73,-37.0333 247.261,-27.6531"/>
<polygon fill="midnightblue" stroke="midnightblue" points="249.936,-25.3936 240.968,-19.7511 244.46,-29.7542 249.936,-25.3936"/>
</g>
<!-- Node8 -->
<g id="node8" class="node"><title>Node8</title>
<g id="a_node8"><a xlink:title=" ">
<polygon fill="white" stroke="#bfbfbf" points="284.5,-0.5 284.5,-19.5 357.5,-19.5 357.5,-0.5 284.5,-0.5"/>
<text text-anchor="middle" x="321" y="-7.5" font-family="Helvetica,sans-Serif" font-size="10.00">sys/socket.h</text>
</a>
</g>
</g>
<!-- Node2&#45;&gt;Node8 -->
<g id="edge7" class="edge"><title>Node2&#45;&gt;Node8</title>
<path fill="none" stroke="midnightblue" d="M284.266,-56.083C290.545,-48.3768 299.788,-37.0333 307.431,-27.6531"/>
<polygon fill="midnightblue" stroke="midnightblue" points="310.266,-29.7143 313.869,-19.7511 304.839,-25.2926 310.266,-29.7143"/>
</g>
<!-- Node9 -->
<g id="node9" class="node"><title>Node9</title>
<g id="a_node9"><a xlink:title=" ">
<polygon fill="white" stroke="#bfbfbf" points="376,-0.5 376,-19.5 444,-19.5 444,-0.5 376,-0.5"/>
<text text-anchor="middle" x="410" y="-7.5" font-family="Helvetica,sans-Serif" font-size="10.00">sys/types.h</text>
</a>
</g>
</g>
<!-- Node2&#45;&gt;Node9 -->
<g id="edge8" class="edge"><title>Node2&#45;&gt;Node9</title>
<path fill="none" stroke="midnightblue" d="M298.074,-56.4435C320.06,-47.5171 354.734,-33.4387 379.664,-23.3168"/>
<polygon fill="midnightblue" stroke="midnightblue" points="381.076,-26.5213 389.024,-19.5164 378.442,-20.0355 381.076,-26.5213"/>
</g>
<!-- Node10 -->
<g id="node10" class="node"><title>Node10</title>
<g id="a_node10"><a xlink:title=" ">
<polygon fill="white" stroke="#bfbfbf" points="462.5,-0.5 462.5,-19.5 513.5,-19.5 513.5,-0.5 462.5,-0.5"/>
<text text-anchor="middle" x="488" y="-7.5" font-family="Helvetica,sans-Serif" font-size="10.00">unistd.h</text>
</a>
</g>
</g>
<!-- Node2&#45;&gt;Node10 -->
<g id="edge9" class="edge"><title>Node2&#45;&gt;Node10</title>
<path fill="none" stroke="midnightblue" d="M310.416,-56.4705C343.816,-47.9422 396.909,-34.3765 452.374,-20.1578"/>
<polygon fill="midnightblue" stroke="midnightblue" points="453.569,-23.4647 462.387,-17.5906 451.831,-16.684 453.569,-23.4647"/>
</g>
<!-- Node11 -->
<g id="node11" class="node"><title>Node11</title>
<g id="a_node11"><a xlink:title=" ">
<polygon fill="white" stroke="#bfbfbf" points="756,-0.5 756,-19.5 804,-19.5 804,-0.5 756,-0.5"/>
<text text-anchor="middle" x="780" y="-7.5" font-family="Helvetica,sans-Serif" font-size="10.00">cstddef</text>
</a>
</g>
</g>
<!-- Node2&#45;&gt;Node11 -->
<g id="edge10" class="edge"><title>Node2&#45;&gt;Node11</title>
<path fill="none" stroke="midnightblue" d="M317.067,-57.3613C320.085,-56.8716 323.088,-56.411 326,-56 481.858,-34.0008 669.321,-19.0393 745.399,-13.4459"/>
<polygon fill="midnightblue" stroke="midnightblue" points="746.079,-16.9058 755.799,-12.6889 745.571,-9.92426 746.079,-16.9058"/>
</g>
<!-- Node12&#45;&gt;Node2 -->
<g id="edge15" class="edge"><title>Node12&#45;&gt;Node2</title>
<path fill="none" stroke="midnightblue" d="M498.896,-351.039C424.682,-348.581 291.2,-331.46 234,-244 225.242,-230.61 257.206,-127.769 270.979,-85.2784"/>
<polygon fill="midnightblue" stroke="midnightblue" points="274.345,-86.2453 274.123,-75.6527 267.691,-84.0715 274.345,-86.2453"/>
</g>
<!-- Node13 -->
<g id="node13" class="node"><title>Node13</title>
<g id="a_node13"><a xlink:title=" ">
<polygon fill="white" stroke="#bfbfbf" points="757,-56.5 757,-75.5 795,-75.5 795,-56.5 757,-56.5"/>
<text text-anchor="middle" x="776" y="-63.5" font-family="Helvetica,sans-Serif" font-size="10.00">array</text>
</a>
</g>
</g>
<!-- Node12&#45;&gt;Node13 -->
<g id="edge12" class="edge"><title>Node12&#45;&gt;Node13</title>
<path fill="none" stroke="midnightblue" d="M569.23,-336.468C581.176,-326.845 596.781,-313.432 609,-300 676.447,-225.857 741.128,-124.168 765.653,-84.1606"/>
<polygon fill="midnightblue" stroke="midnightblue" points="768.671,-85.9345 770.879,-75.5724 762.691,-82.2954 768.671,-85.9345"/>
</g>
<!-- Node14 -->
<g id="node14" class="node"><title>Node14</title>
<g id="a_node14"><a xlink:title=" ">
<polygon fill="white" stroke="#bfbfbf" points="243,-224.5 243,-243.5 301,-243.5 301,-224.5 243,-224.5"/>
<text text-anchor="middle" x="272" y="-231.5" font-family="Helvetica,sans-Serif" font-size="10.00">functional</text>
</a>
</g>
</g>
<!-- Node12&#45;&gt;Node14 -->
<g id="edge13" class="edge"><title>Node12&#45;&gt;Node14</title>
<path fill="none" stroke="midnightblue" d="M507.043,-336.499C478.277,-326.992 440.039,-313.697 407,-300 368.05,-283.852 324.301,-262.094 297.446,-248.304"/>
<polygon fill="midnightblue" stroke="midnightblue" points="298.847,-245.088 288.356,-243.609 295.635,-251.308 298.847,-245.088"/>
</g>
<!-- Node15 -->
<g id="node15" class="node"><title>Node15</title>
<g id="a_node15"><a xlink:title=" ">
<polygon fill="white" stroke="#bfbfbf" points="665,-56.5 665,-75.5 739,-75.5 739,-56.5 665,-56.5"/>
<text text-anchor="middle" x="702" y="-63.5" font-family="Helvetica,sans-Serif" font-size="10.00">system_error</text>
</a>
</g>
</g>
<!-- Node12&#45;&gt;Node15 -->
<g id="edge14" class="edge"><title>Node12&#45;&gt;Node15</title>
<path fill="none" stroke="midnightblue" d="M561.781,-336.366C582.346,-308.931 627.731,-246.047 657,-188 674.589,-153.117 689.088,-109.641 696.55,-85.4455"/>
<polygon fill="midnightblue" stroke="midnightblue" points="699.927,-86.3703 699.47,-75.7853 693.226,-84.3452 699.927,-86.3703"/>
</g>
<!-- Node16 -->
<g id="node16" class="node"><title>Node16</title>
<g id="a_node16"><a xlink:href="event__handler__select_8h.html" target="_top" xlink:title=" ">
<polygon fill="white" stroke="black" points="820,-280.5 820,-299.5 936,-299.5 936,-280.5 820,-280.5"/>
<text text-anchor="middle" x="878" y="-287.5" font-family="Helvetica,sans-Serif" font-size="10.00">event_handler_select.h</text>
</a>
</g>
</g>
<!-- Node12&#45;&gt;Node16 -->
<g id="edge16" class="edge"><title>Node12&#45;&gt;Node16</title>
<path fill="none" stroke="midnightblue" d="M603.176,-341.006C662.701,-330.175 759.719,-312.522 821.134,-301.347"/>
<polygon fill="midnightblue" stroke="midnightblue" points="821.835,-304.777 831.047,-299.543 820.582,-297.89 821.835,-304.777"/>
</g>
<!-- Node20 -->
<g id="node20" class="node"><title>Node20</title>
<g id="a_node20"><a xlink:href="socket_8h.html" target="_top" xlink:title=" ">
<polygon fill="white" stroke="black" points="416,-280.5 416,-299.5 470,-299.5 470,-280.5 416,-280.5"/>
<text text-anchor="middle" x="443" y="-287.5" font-family="Helvetica,sans-Serif" font-size="10.00">socket.h</text>
</a>
</g>
</g>
<!-- Node12&#45;&gt;Node20 -->
<g id="edge21" class="edge"><title>Node12&#45;&gt;Node20</title>
<path fill="none" stroke="midnightblue" d="M525.406,-336.399C507.932,-326.773 484.912,-314.09 467.644,-304.577"/>
<polygon fill="midnightblue" stroke="midnightblue" points="469.163,-301.418 458.715,-299.658 465.785,-307.549 469.163,-301.418"/>
</g>
<!-- Node17 -->
<g id="node17" class="node"><title>Node17</title>
<g id="a_node17"><a xlink:title=" ">
<polygon fill="white" stroke="#bfbfbf" points="1063,-56.5 1063,-75.5 1109,-75.5 1109,-56.5 1063,-56.5"/>
<text text-anchor="middle" x="1086" y="-63.5" font-family="Helvetica,sans-Serif" font-size="10.00">cstdint</text>
</a>
</g>
</g>
<!-- Node16&#45;&gt;Node17 -->
<g id="edge17" class="edge"><title>Node16&#45;&gt;Node17</title>
<path fill="none" stroke="midnightblue" d="M892.016,-280.262C917.101,-264.167 970.461,-227.819 1007,-188 1037.26,-155.02 1063.72,-109.237 1076.97,-84.5162"/>
<polygon fill="midnightblue" stroke="midnightblue" points="1080.11,-86.0654 1081.67,-75.5864 1073.92,-82.8041 1080.11,-86.0654"/>
</g>
<!-- Node18 -->
<g id="node18" class="node"><title>Node18</title>
<g id="a_node18"><a xlink:title=" ">
<polygon fill="white" stroke="#bfbfbf" points="813,-56.5 813,-75.5 875,-75.5 875,-56.5 813,-56.5"/>
<text text-anchor="middle" x="844" y="-63.5" font-family="Helvetica,sans-Serif" font-size="10.00">type_traits</text>
</a>
</g>
</g>
<!-- Node16&#45;&gt;Node18 -->
<g id="edge18" class="edge"><title>Node16&#45;&gt;Node18</title>
<path fill="none" stroke="midnightblue" d="M878.72,-280.455C879.39,-267.032 878.783,-240.805 866,-224 843.857,-194.89 811.673,-218.833 792,-188 773.83,-159.522 776.813,-142.657 791,-112 796.92,-99.2072 808.468,-88.7216 819.278,-81.1003"/>
<polygon fill="midnightblue" stroke="midnightblue" points="821.214,-84.0161 827.666,-75.613 817.382,-78.1581 821.214,-84.0161"/>
</g>
<!-- Node19 -->
<g id="node19" class="node"><title>Node19</title>
<g id="a_node19"><a xlink:href="executor__select_8h.html" target="_top" xlink:title=" ">
<polygon fill="white" stroke="black" points="763,-224.5 763,-243.5 857,-243.5 857,-224.5 763,-224.5"/>
<text text-anchor="middle" x="810" y="-231.5" font-family="Helvetica,sans-Serif" font-size="10.00">executor_select.h</text>
</a>
</g>
</g>
<!-- Node16&#45;&gt;Node19 -->
<g id="edge19" class="edge"><title>Node16&#45;&gt;Node19</title>
<path fill="none" stroke="midnightblue" d="M867.075,-280.324C856.825,-272.185 841.279,-259.839 828.999,-250.087"/>
<polygon fill="midnightblue" stroke="midnightblue" points="831.132,-247.312 821.124,-243.834 826.779,-252.794 831.132,-247.312"/>
</g>
<!-- Node19&#45;&gt;Node1 -->
<g id="edge20" class="edge"><title>Node19&#45;&gt;Node1</title>
<path fill="none" stroke="midnightblue" d="M803.117,-243.679C792.426,-256.826 770.785,-282.147 749,-300 700.885,-339.429 639.161,-375.856 597.521,-398.669"/>
<polygon fill="midnightblue" stroke="midnightblue" points="595.807,-395.616 588.692,-403.467 599.15,-401.767 595.807,-395.616"/>
</g>
<!-- Node20&#45;&gt;Node2 -->
<g id="edge68" class="edge"><title>Node20&#45;&gt;Node2</title>
<path fill="none" stroke="midnightblue" d="M436.493,-280.297C411.705,-247.148 322.922,-128.414 289.683,-83.9613"/>
<polygon fill="midnightblue" stroke="midnightblue" points="292.434,-81.7964 283.643,-75.8837 286.828,-85.9884 292.434,-81.7964"/>
</g>
<!-- Node20&#45;&gt;Node14 -->
<g id="edge23" class="edge"><title>Node20&#45;&gt;Node14</title>
<path fill="none" stroke="midnightblue" d="M415.905,-280.444C387.012,-271.32 341.075,-256.813 308.895,-246.651"/>
<polygon fill="midnightblue" stroke="midnightblue" points="309.559,-243.19 298.969,-243.516 307.451,-249.865 309.559,-243.19"/>
</g>
<!-- Node21 -->
<g id="node21" class="node"><title>Node21</title>
<g id="a_node21"><a xlink:title=" ">
<polygon fill="white" stroke="#bfbfbf" points="995.5,-56.5 995.5,-75.5 1044.5,-75.5 1044.5,-56.5 995.5,-56.5"/>
<text text-anchor="middle" x="1020" y="-63.5" font-family="Helvetica,sans-Serif" font-size="10.00">cassert</text>
</a>
</g>
</g>
<!-- Node20&#45;&gt;Node21 -->
<g id="edge22" class="edge"><title>Node20&#45;&gt;Node21</title>
<path fill="none" stroke="midnightblue" d="M470.036,-283.33C524.009,-272.016 648.961,-245.843 754,-224 831.317,-207.922 855.584,-219.503 928,-188 967.465,-170.832 983.567,-168.099 1007,-132 1015.91,-118.275 1018.93,-99.7443 1019.86,-85.9804"/>
<polygon fill="midnightblue" stroke="midnightblue" points="1023.37,-85.8695 1020.23,-75.7499 1016.37,-85.6173 1023.37,-85.8695"/>
</g>
<!-- Node22 -->
<g id="node22" class="node"><title>Node22</title>
<g id="a_node22"><a xlink:href="address_8h.html" target="_top" xlink:title=" ">
<polygon fill="white" stroke="black" points="523.5,-224.5 523.5,-243.5 582.5,-243.5 582.5,-224.5 523.5,-224.5"/>
<text text-anchor="middle" x="553" y="-231.5" font-family="Helvetica,sans-Serif" font-size="10.00">address.h</text>
</a>
</g>
</g>
<!-- Node20&#45;&gt;Node22 -->
<g id="edge24" class="edge"><title>Node20&#45;&gt;Node22</title>
<path fill="none" stroke="midnightblue" d="M460.673,-280.324C478.394,-271.625 505.903,-258.12 526.288,-248.113"/>
<polygon fill="midnightblue" stroke="midnightblue" points="527.936,-251.203 535.37,-243.655 524.851,-244.919 527.936,-251.203"/>
</g>
<!-- Node28 -->
<g id="node28" class="node"><title>Node28</title>
<g id="a_node28"><a xlink:href="buffer_8h.html" target="_top" xlink:title=" ">
<polygon fill="white" stroke="black" points="950,-112.5 950,-131.5 998,-131.5 998,-112.5 950,-112.5"/>
<text text-anchor="middle" x="974" y="-119.5" font-family="Helvetica,sans-Serif" font-size="10.00">buffer.h</text>
</a>
</g>
</g>
<!-- Node20&#45;&gt;Node28 -->
<g id="edge67" class="edge"><title>Node20&#45;&gt;Node28</title>
<path fill="none" stroke="midnightblue" d="M470.139,-280.709C514.388,-267.404 604.982,-241.053 683,-224 777.651,-203.311 810.208,-228.98 898,-188 922.69,-176.475 945.67,-154.653 959.758,-139.489"/>
<polygon fill="midnightblue" stroke="midnightblue" points="962.537,-141.633 966.624,-131.858 957.334,-136.951 962.537,-141.633"/>
</g>
<!-- Node33 -->
<g id="node33" class="node"><title>Node33</title>
<g id="a_node33"><a xlink:href="utils_8h.html" target="_top" xlink:title=" ">
<polygon fill="white" stroke="black" points="601.5,-112.5 601.5,-131.5 644.5,-131.5 644.5,-112.5 601.5,-112.5"/>
<text text-anchor="middle" x="623" y="-119.5" font-family="Helvetica,sans-Serif" font-size="10.00">utils.h</text>
</a>
</g>
</g>
<!-- Node20&#45;&gt;Node33 -->
<g id="edge71" class="edge"><title>Node20&#45;&gt;Node33</title>
<path fill="none" stroke="midnightblue" d="M441.512,-280.385C438.272,-258.569 433.027,-200.571 462,-168 494.567,-131.389 554.205,-123.495 591.041,-122.365"/>
<polygon fill="midnightblue" stroke="midnightblue" points="591.291,-125.861 601.236,-122.207 591.182,-118.862 591.291,-125.861"/>
</g>
<!-- Node38 -->
<g id="node38" class="node"><title>Node38</title>
<g id="a_node38"><a xlink:href="exception_8h.html" target="_top" xlink:title=" ">
<polygon fill="white" stroke="black" points="364.5,-112.5 364.5,-131.5 431.5,-131.5 431.5,-112.5 364.5,-112.5"/>
<text text-anchor="middle" x="398" y="-119.5" font-family="Helvetica,sans-Serif" font-size="10.00">exception.h</text>
</a>
</g>
</g>
<!-- Node20&#45;&gt;Node38 -->
<g id="edge69" class="edge"><title>Node20&#45;&gt;Node38</title>
<path fill="none" stroke="midnightblue" d="M440.186,-280.412C437.261,-271.385 432.615,-256.752 429,-244 418.738,-207.798 408.145,-165.081 402.385,-141.314"/>
<polygon fill="midnightblue" stroke="midnightblue" points="405.777,-140.45 400.032,-131.548 398.972,-142.09 405.777,-140.45"/>
</g>
<!-- Node41 -->
<g id="node41" class="node"><title>Node41</title>
<g id="a_node41"><a xlink:href="useful__base__types_8h.html" target="_top" xlink:title=" ">
<polygon fill="white" stroke="black" points="0,-56.5 0,-75.5 106,-75.5 106,-56.5 0,-56.5"/>
<text text-anchor="middle" x="53" y="-63.5" font-family="Helvetica,sans-Serif" font-size="10.00">useful_base_types.h</text>
</a>
</g>
</g>
<!-- Node20&#45;&gt;Node41 -->
<g id="edge70" class="edge"><title>Node20&#45;&gt;Node41</title>
<path fill="none" stroke="midnightblue" d="M428.825,-280.325C405.124,-266.23 355.558,-238.477 310,-224 214.738,-193.729 169.359,-246.068 88,-188 55.6166,-164.887 51.5843,-113.513 51.9618,-85.7208"/>
<polygon fill="midnightblue" stroke="midnightblue" points="55.4602,-85.8262 52.3063,-75.7117 48.4643,-85.5853 55.4602,-85.8262"/>
</g>
<!-- Node23 -->
<g id="node23" class="node"><title>Node23</title>
<g id="a_node23"><a xlink:title=" ">
<polygon fill="white" stroke="#bfbfbf" points="471.5,-168.5 471.5,-187.5 512.5,-187.5 512.5,-168.5 471.5,-168.5"/>
<text text-anchor="middle" x="492" y="-175.5" font-family="Helvetica,sans-Serif" font-size="10.00">string</text>
</a>
</g>
</g>
<!-- Node22&#45;&gt;Node23 -->
<g id="edge25" class="edge"><title>Node22&#45;&gt;Node23</title>
<path fill="none" stroke="midnightblue" d="M543.199,-224.324C534.182,-216.341 520.594,-204.313 509.682,-194.653"/>
<polygon fill="midnightblue" stroke="midnightblue" points="511.787,-191.842 501.979,-187.834 507.147,-197.083 511.787,-191.842"/>
</g>
<!-- Node24 -->
<g id="node24" class="node"><title>Node24</title>
<g id="a_node24"><a xlink:title=" ">
<polygon fill="white" stroke="#bfbfbf" points="531,-168.5 531,-187.5 575,-187.5 575,-168.5 531,-168.5"/>
<text text-anchor="middle" x="553" y="-175.5" font-family="Helvetica,sans-Serif" font-size="10.00">variant</text>
</a>
</g>
</g>
<!-- Node22&#45;&gt;Node24 -->
<g id="edge26" class="edge"><title>Node22&#45;&gt;Node24</title>
<path fill="none" stroke="midnightblue" d="M553,-224.083C553,-217.006 553,-206.861 553,-197.986"/>
<polygon fill="midnightblue" stroke="midnightblue" points="556.5,-197.751 553,-187.751 549.5,-197.751 556.5,-197.751"/>
</g>
<!-- Node25 -->
<g id="node25" class="node"><title>Node25</title>
<g id="a_node25"><a xlink:href="bin__rw_8h.html" target="_top" xlink:title=" ">
<polygon fill="white" stroke="black" points="801.5,-168.5 801.5,-187.5 854.5,-187.5 854.5,-168.5 801.5,-168.5"/>
<text text-anchor="middle" x="828" y="-175.5" font-family="Helvetica,sans-Serif" font-size="10.00">bin_rw.h</text>
</a>
</g>
</g>
<!-- Node22&#45;&gt;Node25 -->
<g id="edge27" class="edge"><title>Node22&#45;&gt;Node25</title>
<path fill="none" stroke="midnightblue" d="M582.691,-227.17C633.316,-217.229 736.191,-197.028 791.261,-186.214"/>
<polygon fill="midnightblue" stroke="midnightblue" points="792.148,-189.607 801.286,-184.246 790.799,-182.738 792.148,-189.607"/>
</g>
<!-- Node22&#45;&gt;Node28 -->
<g id="edge55" class="edge"><title>Node22&#45;&gt;Node28</title>
<path fill="none" stroke="midnightblue" d="M582.687,-227.913C590.582,-226.598 599.109,-225.212 607,-224 720.565,-206.554 754.48,-225.745 863,-188 897.512,-175.996 933.253,-152.783 954.553,-137.593"/>
<polygon fill="midnightblue" stroke="midnightblue" points="956.723,-140.343 962.752,-131.631 952.606,-134.682 956.723,-140.343"/>
</g>
<!-- Node22&#45;&gt;Node33 -->
<g id="edge66" class="edge"><title>Node22&#45;&gt;Node33</title>
<path fill="none" stroke="midnightblue" d="M582.777,-226.182C602.764,-219.888 627.623,-208.337 640,-188 648.881,-173.407 642.037,-154.238 634.553,-140.504"/>
<polygon fill="midnightblue" stroke="midnightblue" points="637.358,-138.376 629.207,-131.608 631.358,-141.982 637.358,-138.376"/>
</g>
<!-- Node22&#45;&gt;Node38 -->
<g id="edge56" class="edge"><title>Node22&#45;&gt;Node38</title>
<path fill="none" stroke="midnightblue" d="M530.515,-224.371C511.349,-216.451 483.564,-203.597 462,-188 442.66,-174.011 423.909,-153.964 411.757,-139.84"/>
<polygon fill="midnightblue" stroke="midnightblue" points="414.212,-137.321 405.097,-131.919 408.854,-141.826 414.212,-137.321"/>
</g>
<!-- Node39 -->
<g id="node39" class="node"><title>Node39</title>
<g id="a_node39"><a xlink:href="sys__socket__ops_8h.html" target="_top" xlink:title=" ">
<polygon fill="white" stroke="black" points="97,-168.5 97,-187.5 193,-187.5 193,-168.5 97,-168.5"/>
<text text-anchor="middle" x="145" y="-175.5" font-family="Helvetica,sans-Serif" font-size="10.00">sys_socket_ops.h</text>
</a>
</g>
</g>
<!-- Node22&#45;&gt;Node39 -->
<g id="edge59" class="edge"><title>Node22&#45;&gt;Node39</title>
<path fill="none" stroke="midnightblue" d="M523.329,-229.073C456.212,-220.19 291.718,-198.419 203.367,-186.725"/>
<polygon fill="midnightblue" stroke="midnightblue" points="203.615,-183.227 193.242,-185.385 202.696,-190.167 203.615,-183.227"/>
</g>
<!-- Node42 -->
<g id="node42" class="node"><title>Node42</title>
<g id="a_node42"><a xlink:href="tag_8h.html" target="_top" xlink:title=" ">
<polygon fill="white" stroke="black" points="593,-168.5 593,-187.5 631,-187.5 631,-168.5 593,-168.5"/>
<text text-anchor="middle" x="612" y="-175.5" font-family="Helvetica,sans-Serif" font-size="10.00">tag.h</text>
</a>
</g>
</g>
<!-- Node22&#45;&gt;Node42 -->
<g id="edge65" class="edge"><title>Node22&#45;&gt;Node42</title>
<path fill="none" stroke="midnightblue" d="M562.479,-224.324C571.201,-216.341 584.343,-204.313 594.898,-194.653"/>
<polygon fill="midnightblue" stroke="midnightblue" points="597.334,-197.167 602.348,-187.834 592.608,-192.004 597.334,-197.167"/>
</g>
<!-- Node25&#45;&gt;Node18 -->
<g id="edge30" class="edge"><title>Node25&#45;&gt;Node18</title>
<path fill="none" stroke="midnightblue" d="M838.438,-168.245C847.424,-159.969 859.746,-146.663 865,-132 870.73,-116.009 863.474,-97.5642 855.97,-84.4171"/>
<polygon fill="midnightblue" stroke="midnightblue" points="858.91,-82.5181 850.644,-75.8912 852.973,-86.2268 858.91,-82.5181"/>
</g>
<!-- Node26 -->
<g id="node26" class="node"><title>Node26</title>
<g id="a_node26"><a xlink:title=" ">
<polygon fill="white" stroke="#bfbfbf" points="800,-112.5 800,-131.5 856,-131.5 856,-112.5 800,-112.5"/>
<text text-anchor="middle" x="828" y="-119.5" font-family="Helvetica,sans-Serif" font-size="10.00">algorithm</text>
</a>
</g>
</g>
<!-- Node25&#45;&gt;Node26 -->
<g id="edge28" class="edge"><title>Node25&#45;&gt;Node26</title>
<path fill="none" stroke="midnightblue" d="M828,-168.083C828,-161.006 828,-150.861 828,-141.986"/>
<polygon fill="midnightblue" stroke="midnightblue" points="831.5,-141.751 828,-131.751 824.5,-141.751 831.5,-141.751"/>
</g>
<!-- Node27 -->
<g id="node27" class="node"><title>Node27</title>
<g id="a_node27"><a xlink:title=" ">
<polygon fill="white" stroke="#bfbfbf" points="893,-56.5 893,-75.5 939,-75.5 939,-56.5 893,-56.5"/>
<text text-anchor="middle" x="916" y="-63.5" font-family="Helvetica,sans-Serif" font-size="10.00">cstring</text>
</a>
</g>
</g>
<!-- Node25&#45;&gt;Node27 -->
<g id="edge29" class="edge"><title>Node25&#45;&gt;Node27</title>
<path fill="none" stroke="midnightblue" d="M840.521,-168.465C852.064,-160.146 869.154,-146.637 881,-132 892.694,-117.551 902.371,-98.6115 908.564,-84.9069"/>
<polygon fill="midnightblue" stroke="midnightblue" points="911.829,-86.1755 912.596,-75.6085 905.406,-83.3908 911.829,-86.1755"/>
</g>
<!-- Node25&#45;&gt;Node28 -->
<g id="edge31" class="edge"><title>Node25&#45;&gt;Node28</title>
<path fill="none" stroke="midnightblue" d="M851.134,-168.444C875.482,-159.438 914.007,-145.189 941.423,-135.049"/>
<polygon fill="midnightblue" stroke="midnightblue" points="942.809,-138.268 950.974,-131.516 940.381,-131.703 942.809,-138.268"/>
</g>
<!-- Node29 -->
<g id="node29" class="node"><title>Node29</title>
<g id="a_node29"><a xlink:href="endian_8h.html" target="_top" xlink:title=" ">
<polygon fill="white" stroke="black" points="1092.5,-112.5 1092.5,-131.5 1145.5,-131.5 1145.5,-112.5 1092.5,-112.5"/>
<text text-anchor="middle" x="1119" y="-119.5" font-family="Helvetica,sans-Serif" font-size="10.00">endian.h</text>
</a>
</g>
</g>
<!-- Node25&#45;&gt;Node29 -->
<g id="edge38" class="edge"><title>Node25&#45;&gt;Node29</title>
<path fill="none" stroke="midnightblue" d="M854.596,-172.065C906.745,-162.387 1022.52,-140.904 1082.06,-129.855"/>
<polygon fill="midnightblue" stroke="midnightblue" points="1082.96,-133.248 1092.15,-127.982 1081.68,-126.366 1082.96,-133.248"/>
</g>
<!-- Node25&#45;&gt;Node33 -->
<g id="edge45" class="edge"><title>Node25&#45;&gt;Node33</title>
<path fill="none" stroke="midnightblue" d="M801.2,-169.94C763.46,-159.999 694.787,-141.91 654.605,-131.325"/>
<polygon fill="midnightblue" stroke="midnightblue" points="655.361,-127.905 644.799,-128.742 653.578,-134.674 655.361,-127.905"/>
</g>
<!-- Node28&#45;&gt;Node2 -->
<g id="edge37" class="edge"><title>Node28&#45;&gt;Node2</title>
<path fill="none" stroke="midnightblue" d="M949.765,-118.889C927.682,-116.992 894.16,-114.178 865,-112 628.851,-94.3656 565.951,-105.423 327.089,-75.9916"/>
<polygon fill="midnightblue" stroke="midnightblue" points="327.409,-72.5046 317.053,-74.7442 326.545,-79.4511 327.409,-72.5046"/>
</g>
<!-- Node28&#45;&gt;Node11 -->
<g id="edge33" class="edge"><title>Node28&#45;&gt;Node11</title>
<path fill="none" stroke="midnightblue" d="M973.023,-112.444C970.971,-98.5206 964.906,-71.0081 948,-56 910.801,-22.9767 851.908,-13.8203 814.646,-11.4888"/>
<polygon fill="midnightblue" stroke="midnightblue" points="814.445,-7.9748 804.286,-10.9814 814.103,-14.9664 814.445,-7.9748"/>
</g>
<!-- Node28&#45;&gt;Node15 -->
<g id="edge35" class="edge"><title>Node28&#45;&gt;Node15</title>
<path fill="none" stroke="midnightblue" d="M949.862,-116.208C904.971,-107.296 807.909,-88.026 749.453,-76.4209"/>
<polygon fill="midnightblue" stroke="midnightblue" points="749.851,-72.9317 739.361,-74.4173 748.488,-79.7977 749.851,-72.9317"/>
</g>
<!-- Node28&#45;&gt;Node17 -->
<g id="edge34" class="edge"><title>Node28&#45;&gt;Node17</title>
<path fill="none" stroke="midnightblue" d="M991.995,-112.324C1010.04,-103.625 1038.05,-90.1202 1058.8,-80.113"/>
<polygon fill="midnightblue" stroke="midnightblue" points="1060.56,-83.1502 1068.05,-75.6545 1057.52,-76.8449 1060.56,-83.1502"/>
</g>
<!-- Node28&#45;&gt;Node18 -->
<g id="edge36" class="edge"><title>Node28&#45;&gt;Node18</title>
<path fill="none" stroke="midnightblue" d="M953.401,-112.444C932.007,-103.557 898.319,-89.5632 873.976,-79.4514"/>
<polygon fill="midnightblue" stroke="midnightblue" points="875.08,-76.1203 864.503,-75.5164 872.395,-82.5848 875.08,-76.1203"/>
</g>
<!-- Node28&#45;&gt;Node21 -->
<g id="edge32" class="edge"><title>Node28&#45;&gt;Node21</title>
<path fill="none" stroke="midnightblue" d="M981.596,-112.083C988.227,-104.298 998.021,-92.8015 1006.06,-83.3665"/>
<polygon fill="midnightblue" stroke="midnightblue" points="1008.73,-85.6332 1012.55,-75.7511 1003.4,-81.0939 1008.73,-85.6332"/>
</g>
<!-- Node29&#45;&gt;Node17 -->
<g id="edge40" class="edge"><title>Node29&#45;&gt;Node17</title>
<path fill="none" stroke="midnightblue" d="M1113.55,-112.083C1108.99,-104.613 1102.33,-93.7244 1096.71,-84.5199"/>
<polygon fill="midnightblue" stroke="midnightblue" points="1099.55,-82.4588 1091.35,-75.7511 1093.58,-86.109 1099.55,-82.4588"/>
</g>
<!-- Node29&#45;&gt;Node18 -->
<g id="edge43" class="edge"><title>Node29&#45;&gt;Node18</title>
<path fill="none" stroke="midnightblue" d="M1092.16,-116.15C1050.16,-108.5 966.137,-92.9412 885.266,-76.2152"/>
<polygon fill="midnightblue" stroke="midnightblue" points="885.925,-72.7775 875.422,-74.1701 884.501,-79.6311 885.925,-72.7775"/>
</g>
<!-- Node29&#45;&gt;Node27 -->
<g id="edge41" class="edge"><title>Node29&#45;&gt;Node27</title>
<path fill="none" stroke="midnightblue" d="M1092.46,-113.94C1055.58,-104.131 988.88,-86.3868 948.891,-75.7492"/>
<polygon fill="midnightblue" stroke="midnightblue" points="949.656,-72.3311 939.092,-73.1427 947.856,-79.0959 949.656,-72.3311"/>
</g>
<!-- Node30 -->
<g id="node30" class="node"><title>Node30</title>
<g id="a_node30"><a xlink:title=" ">
<polygon fill="white" stroke="#bfbfbf" points="1127.5,-56.5 1127.5,-75.5 1172.5,-75.5 1172.5,-56.5 1127.5,-56.5"/>
<text text-anchor="middle" x="1150" y="-63.5" font-family="Helvetica,sans-Serif" font-size="10.00">climits</text>
</a>
</g>
</g>
<!-- Node29&#45;&gt;Node30 -->
<g id="edge39" class="edge"><title>Node29&#45;&gt;Node30</title>
<path fill="none" stroke="midnightblue" d="M1124.12,-112.083C1128.41,-104.613 1134.66,-93.7244 1139.94,-84.5199"/>
<polygon fill="midnightblue" stroke="midnightblue" points="1143.03,-86.1662 1144.98,-75.7511 1136.96,-82.6811 1143.03,-86.1662"/>
</g>
<!-- Node31 -->
<g id="node31" class="node"><title>Node31</title>
<g id="a_node31"><a xlink:title=" ">
<polygon fill="white" stroke="#bfbfbf" points="1191,-56.5 1191,-75.5 1255,-75.5 1255,-56.5 1191,-56.5"/>
<text text-anchor="middle" x="1223" y="-63.5" font-family="Helvetica,sans-Serif" font-size="10.00">string_view</text>
</a>
</g>
</g>
<!-- Node29&#45;&gt;Node31 -->
<g id="edge42" class="edge"><title>Node29&#45;&gt;Node31</title>
<path fill="none" stroke="midnightblue" d="M1135.71,-112.324C1152.31,-103.703 1178,-90.3643 1197.22,-80.3855"/>
<polygon fill="midnightblue" stroke="midnightblue" points="1199.07,-83.3689 1206.33,-75.6545 1195.84,-77.1565 1199.07,-83.3689"/>
</g>
<!-- Node32 -->
<g id="node32" class="node"><title>Node32</title>
<g id="a_node32"><a xlink:title=" ">
<polygon fill="white" stroke="#bfbfbf" points="1273,-56.5 1273,-75.5 1313,-75.5 1313,-56.5 1273,-56.5"/>
<text text-anchor="middle" x="1293" y="-63.5" font-family="Helvetica,sans-Serif" font-size="10.00">utility</text>
</a>
</g>
</g>
<!-- Node29&#45;&gt;Node32 -->
<g id="edge44" class="edge"><title>Node29&#45;&gt;Node32</title>
<path fill="none" stroke="midnightblue" d="M1145.81,-112.681C1177.46,-102.857 1229.97,-86.561 1262.97,-76.3204"/>
<polygon fill="midnightblue" stroke="midnightblue" points="1264.43,-79.5309 1272.94,-73.2241 1262.36,-72.8455 1264.43,-79.5309"/>
</g>
<!-- Node33&#45;&gt;Node2 -->
<g id="edge54" class="edge"><title>Node33&#45;&gt;Node2</title>
<path fill="none" stroke="midnightblue" d="M601.349,-117.956C553.765,-111.217 436.272,-94.3018 327.274,-76.1709"/>
<polygon fill="midnightblue" stroke="midnightblue" points="327.534,-72.6658 317.093,-74.4696 326.38,-79.57 327.534,-72.6658"/>
</g>
<!-- Node33&#45;&gt;Node13 -->
<g id="edge48" class="edge"><title>Node33&#45;&gt;Node13</title>
<path fill="none" stroke="midnightblue" d="M644.597,-113.378C671.535,-103.87 717.67,-87.5869 747.489,-77.0627"/>
<polygon fill="midnightblue" stroke="midnightblue" points="748.66,-80.3612 756.925,-73.7325 746.33,-73.7603 748.66,-80.3612"/>
</g>
<!-- Node33&#45;&gt;Node15 -->
<g id="edge51" class="edge"><title>Node33&#45;&gt;Node15</title>
<path fill="none" stroke="midnightblue" d="M635.693,-112.324C647.901,-103.979 666.578,-91.2122 681.003,-81.3524"/>
<polygon fill="midnightblue" stroke="midnightblue" points="683.058,-84.1871 689.339,-75.6545 679.108,-78.4082 683.058,-84.1871"/>
</g>
<!-- Node33&#45;&gt;Node18 -->
<g id="edge52" class="edge"><title>Node33&#45;&gt;Node18</title>
<path fill="none" stroke="midnightblue" d="M644.593,-115.724C681.223,-106.774 756.116,-88.4739 802.972,-77.025"/>
<polygon fill="midnightblue" stroke="midnightblue" points="803.923,-80.3956 812.807,-74.6219 802.262,-73.5956 803.923,-80.3956"/>
</g>
<!-- Node33&#45;&gt;Node27 -->
<g id="edge50" class="edge"><title>Node33&#45;&gt;Node27</title>
<path fill="none" stroke="midnightblue" d="M644.805,-118.02C688.264,-111.914 788.903,-96.9531 882.721,-76.1031"/>
<polygon fill="midnightblue" stroke="midnightblue" points="883.665,-79.4781 892.653,-73.8675 882.128,-72.649 883.665,-79.4781"/>
</g>
<!-- Node34 -->
<g id="node34" class="node"><title>Node34</title>
<g id="a_node34"><a xlink:title=" ">
<polygon fill="white" stroke="#bfbfbf" points="335,-56.5 335,-75.5 395,-75.5 395,-56.5 335,-56.5"/>
<text text-anchor="middle" x="365" y="-63.5" font-family="Helvetica,sans-Serif" font-size="10.00">fmt/core.h</text>
</a>
</g>
</g>
<!-- Node33&#45;&gt;Node34 -->
<g id="edge46" class="edge"><title>Node33&#45;&gt;Node34</title>
<path fill="none" stroke="midnightblue" d="M601.205,-116.703C563.405,-109.211 483.01,-93.1078 405.185,-76.2197"/>
<polygon fill="midnightblue" stroke="midnightblue" points="405.733,-72.757 395.217,-74.0491 404.244,-79.5967 405.733,-72.757"/>
</g>
<!-- Node35 -->
<g id="node35" class="node"><title>Node35</title>
<g id="a_node35"><a xlink:title=" ">
<polygon fill="white" stroke="#bfbfbf" points="413,-56.5 413,-75.5 481,-75.5 481,-56.5 413,-56.5"/>
<text text-anchor="middle" x="447" y="-63.5" font-family="Helvetica,sans-Serif" font-size="10.00">fmt/format.h</text>
</a>
</g>
</g>
<!-- Node33&#45;&gt;Node35 -->
<g id="edge47" class="edge"><title>Node33&#45;&gt;Node35</title>
<path fill="none" stroke="midnightblue" d="M601.419,-114.379C572.305,-105.446 520.001,-89.3981 484.413,-78.4789"/>
<polygon fill="midnightblue" stroke="midnightblue" points="485.438,-75.1325 474.851,-75.5453 483.385,-81.8246 485.438,-75.1325"/>
</g>
<!-- Node36 -->
<g id="node36" class="node"><title>Node36</title>
<g id="a_node36"><a xlink:title=" ">
<polygon fill="white" stroke="#bfbfbf" points="499,-56.5 499,-75.5 545,-75.5 545,-56.5 499,-56.5"/>
<text text-anchor="middle" x="522" y="-63.5" font-family="Helvetica,sans-Serif" font-size="10.00">chrono</text>
</a>
</g>
</g>
<!-- Node33&#45;&gt;Node36 -->
<g id="edge49" class="edge"><title>Node33&#45;&gt;Node36</title>
<path fill="none" stroke="midnightblue" d="M606.773,-112.324C590.649,-103.703 565.7,-90.3643 547.036,-80.3855"/>
<polygon fill="midnightblue" stroke="midnightblue" points="548.656,-77.283 538.187,-75.6545 545.356,-83.456 548.656,-77.283"/>
</g>
<!-- Node37 -->
<g id="node37" class="node"><title>Node37</title>
<g id="a_node37"><a xlink:title=" ">
<polygon fill="white" stroke="#bfbfbf" points="563.5,-56.5 563.5,-75.5 646.5,-75.5 646.5,-56.5 563.5,-56.5"/>
<text text-anchor="middle" x="605" y="-63.5" font-family="Helvetica,sans-Serif" font-size="10.00">unordered_map</text>
</a>
</g>
</g>
<!-- Node33&#45;&gt;Node37 -->
<g id="edge53" class="edge"><title>Node33&#45;&gt;Node37</title>
<path fill="none" stroke="midnightblue" d="M620.028,-112.083C617.616,-104.849 614.136,-94.4087 611.132,-85.3968"/>
<polygon fill="midnightblue" stroke="midnightblue" points="614.4,-84.1311 607.917,-75.7511 607.759,-86.3447 614.4,-84.1311"/>
</g>
<!-- Node38&#45;&gt;Node2 -->
<g id="edge58" class="edge"><title>Node38&#45;&gt;Node2</title>
<path fill="none" stroke="midnightblue" d="M378.827,-112.444C359.091,-103.636 328.115,-89.8116 305.507,-79.722"/>
<polygon fill="midnightblue" stroke="midnightblue" points="306.641,-76.3957 296.083,-75.5164 303.789,-82.788 306.641,-76.3957"/>
</g>
<!-- Node38&#45;&gt;Node15 -->
<g id="edge57" class="edge"><title>Node38&#45;&gt;Node15</title>
<path fill="none" stroke="midnightblue" d="M431.708,-115.273C479.026,-107.196 568.097,-91.8516 654.799,-76.0112"/>
<polygon fill="midnightblue" stroke="midnightblue" points="655.604,-79.422 664.81,-74.1779 654.343,-72.5365 655.604,-79.422"/>
</g>
<!-- Node39&#45;&gt;Node2 -->
<g id="edge60" class="edge"><title>Node39&#45;&gt;Node2</title>
<path fill="none" stroke="midnightblue" d="M155.358,-168.368C177.72,-149.733 230.761,-105.532 258.839,-82.1338"/>
<polygon fill="midnightblue" stroke="midnightblue" points="261.249,-84.6821 266.69,-75.5914 256.767,-79.3045 261.249,-84.6821"/>
</g>
<!-- Node40 -->
<g id="node40" class="node"><title>Node40</title>
<g id="a_node40"><a xlink:href="sys__error__code_8h.html" target="_top" xlink:title=" ">
<polygon fill="white" stroke="black" points="81,-112.5 81,-131.5 173,-131.5 173,-112.5 81,-112.5"/>
<text text-anchor="middle" x="127" y="-119.5" font-family="Helvetica,sans-Serif" font-size="10.00">sys_error_code.h</text>
</a>
</g>
</g>
<!-- Node39&#45;&gt;Node40 -->
<g id="edge61" class="edge"><title>Node39&#45;&gt;Node40</title>
<path fill="none" stroke="midnightblue" d="M142.028,-168.083C139.616,-160.849 136.136,-150.409 133.132,-141.397"/>
<polygon fill="midnightblue" stroke="midnightblue" points="136.4,-140.131 129.917,-131.751 129.759,-142.345 136.4,-140.131"/>
</g>
<!-- Node39&#45;&gt;Node41 -->
<g id="edge64" class="edge"><title>Node39&#45;&gt;Node41</title>
<path fill="none" stroke="midnightblue" d="M122.772,-168.487C106.471,-161.156 84.9981,-149.049 72,-132 61.7634,-118.573 57.0326,-99.7554 54.8517,-85.8206"/>
<polygon fill="midnightblue" stroke="midnightblue" points="58.3226,-85.3687 53.593,-75.8882 51.3781,-86.2489 58.3226,-85.3687"/>
</g>
<!-- Node40&#45;&gt;Node2 -->
<g id="edge62" class="edge"><title>Node40&#45;&gt;Node2</title>
<path fill="none" stroke="midnightblue" d="M150.768,-112.444C175.893,-103.399 215.711,-89.064 243.9,-78.9158"/>
<polygon fill="midnightblue" stroke="midnightblue" points="245.12,-82.1968 253.343,-75.5164 242.749,-75.6106 245.12,-82.1968"/>
</g>
<!-- Node40&#45;&gt;Node41 -->
<g id="edge63" class="edge"><title>Node40&#45;&gt;Node41</title>
<path fill="none" stroke="midnightblue" d="M115.111,-112.324C103.85,-104.107 86.7134,-91.6017 73.2909,-81.8069"/>
<polygon fill="midnightblue" stroke="midnightblue" points="75.2468,-78.9014 65.1057,-75.8339 71.1205,-84.5559 75.2468,-78.9014"/>
</g>
</g>
</svg>
        <g id="navigator" transform="translate(0 0)" fill="#404254">
                <rect fill="#f2f5e9" fill-opacity="0.5" stroke="#606060" stroke-width=".5" x="0" y="0" width="60" height="60"/>
                <use id="zoomplus" xlink:href="#zoomPlus" x="17" y="9" onmousedown="handleZoom(evt,'in')"/>
                <use id="zoomminus" xlink:href="#zoomMin" x="42" y="9" onmousedown="handleZoom(evt,'out')"/>
                <use id="reset" xlink:href="#resetDef" x="30" y="36" onmousedown="handleReset()"/>
                <g id="arrowUp" xlink:href="#dirArrow" transform="translate(30 24)" onmousedown="handlePan(0,-1)">
                  <use xlink:href="#rim" fill="#404040">
                        <set attributeName="fill" to="#808080" begin="arrowUp.mouseover" end="arrowUp.mouseout"/>
                  </use>
                  <path fill="none" stroke="white" stroke-width="1.5" d="M0,-3.0v7 M-2.5,-0.5L0,-3.0L2.5,-0.5"/>
                </g>
                <g id="arrowRight" xlink:href="#dirArrow" transform="rotate(90) translate(36 -43)" onmousedown="handlePan(1,0)">
                  <use xlink:href="#rim" fill="#404040">
                        <set attributeName="fill" to="#808080" begin="arrowRight.mouseover" end="arrowRight.mouseout"/>
                  </use>
                  <path fill="none" stroke="white" stroke-width="1.5" d="M0,-3.0v7 M-2.5,-0.5L0,-3.0L2.5,-0.5"/>
                </g>
                <g id="arrowDown" xlink:href="#dirArrow" transform="rotate(180) translate(-30 -48)" onmousedown="handlePan(0,1)">
                  <use xlink:href="#rim" fill="#404040">
                        <set attributeName="fill" to="#808080" begin="arrowDown.mouseover" end="arrowDown.mouseout"/>
                  </use>
                  <path fill="none" stroke="white" stroke-width="1.5" d="M0,-3.0v7 M-2.5,-0.5L0,-3.0L2.5,-0.5"/>
                </g>
                <g id="arrowLeft" xlink:href="#dirArrow" transform="rotate(270) translate(-36 17)" onmousedown="handlePan(-1,0)">
                  <use xlink:href="#rim" fill="#404040">
                        <set attributeName="fill" to="#808080" begin="arrowLeft.mouseover" end="arrowLeft.mouseout"/>
                  </use>
                  <path fill="none" stroke="white" stroke-width="1.5" d="M0,-3.0v7 M-2.5,-0.5L0,-3.0L2.5,-0.5"/>
                </g>
        </g>
        <svg viewBox="0 0 15 15" width="100%" height="30px" preserveAspectRatio="xMaxYMin meet">
         <g id="arrow_out" transform="scale(0.3 0.3)">
          <a xlink:href="nix_2executor__select__impl_8h__incl_org.svg" target="_base">
           <rect id="button" ry="5" rx="5" y="6" x="6" height="38" width="38"
                fill="#f2f5e9" fill-opacity="0.5" stroke="#606060" stroke-width="1.0"/>
           <path id="arrow"
             d="M 11.500037,31.436501 C 11.940474,20.09759 22.043105,11.32322 32.158766,21.979434 L 37.068811,17.246167 C 37.068811,17.246167 37.088388,32 37.088388,32 L 22.160133,31.978069 C 22.160133,31.978069 26.997745,27.140456 26.997745,27.140456 C 18.528582,18.264221 13.291696,25.230495 11.500037,31.436501 z"
             style="fill:#404040;"/>
          </a>
         </g>
        </svg>
</svg>
