<?xml version="1.0" encoding="UTF-8" standalone="no"?>
<!DOCTYPE svg PUBLIC "-//W3C//DTD SVG 1.1//EN"
 "http://www.w3.org/Graphics/SVG/1.1/DTD/svg11.dtd">
<!-- Generated by graphviz version 2.38.0 (20140413.2041)
 -->
<!-- Title: C:/projects/ndt/sources/include/ndt/packet_handlers.h Pages: 1 -->
<!--zoomable 263 -->
<svg id="main" version="1.1" xmlns="http://www.w3.org/2000/svg" xmlns:xlink="http://www.w3.org/1999/xlink" xml:space="preserve" onload="init(evt)">
<style type="text/css"><![CDATA[
.edge:hover path { stroke: red; }
.edge:hover polygon { stroke: red; fill: red; }
]]></style>
<script type="text/javascript"><![CDATA[
var edges = document.getElementsByTagName('g');
if (edges && edges.length) {
  for (var i=0;i<edges.length;i++) {
    if (edges[i].id.substr(0,4)=='edge') {
      edges[i].setAttribute('class','edge');
    }
  }
}
]]></script>
        <defs>
                <circle id="rim" cx="0" cy="0" r="7"/>
                <circle id="rim2" cx="0" cy="0" r="3.5"/>
                <g id="zoomPlus">
                        <use xlink:href="#rim" fill="#404040">
                                <set attributeName="fill" to="#808080" begin="zoomplus.mouseover" end="zoomplus.mouseout"/>
                        </use>
                        <path d="M-4,0h8M0,-4v8" fill="none" stroke="white" stroke-width="1.5" pointer-events="none"/>
                </g>
                <g id="zoomMin">
                        <use xlink:href="#rim" fill="#404040">
                                <set attributeName="fill" to="#808080" begin="zoomminus.mouseover" end="zoomminus.mouseout"/>
                        </use>
                        <path d="M-4,0h8" fill="none" stroke="white" stroke-width="1.5" pointer-events="none"/>
                </g>
                <g id="dirArrow">
                        <path fill="none" stroke="white" stroke-width="1.5" d="M0,-3.0v7 M-2.5,-0.5L0,-3.0L2.5,-0.5"/>
                </g>
               <g id="resetDef">
                       <use xlink:href="#rim2" fill="#404040">
                               <set attributeName="fill" to="#808080" begin="reset.mouseover" end="reset.mouseout"/>
                       </use>
               </g>
        </defs>

<script type="text/javascript">
var viewWidth = 1068;
var viewHeight = 263;
var sectionId = 'dynsection-0';
</script>
<script xlink:href="svgpan.js"/>
<svg id="graph" class="graph">
<g id="viewport">
<title>C:/projects/ndt/sources/include/ndt/packet_handlers.h</title>
<polygon fill="white" stroke="none" points="-4,4 -4,-259 1064,-259 1064,4 -4,4"/>
<!-- Node1 -->
<g id="node1" class="node"><title>Node1</title>
<g id="a_node1"><a xlink:title=" ">
<polygon fill="#bfbfbf" stroke="black" points="333.5,-224.5 333.5,-254.5 482.5,-254.5 482.5,-224.5 333.5,-224.5"/>
<text text-anchor="start" x="341.5" y="-242.5" font-family="Helvetica,sans-Serif" font-size="10.00">C:/projects/ndt/sources</text>
<text text-anchor="middle" x="408" y="-231.5" font-family="Helvetica,sans-Serif" font-size="10.00">/include/ndt/packet_handlers.h</text>
</a>
</g>
</g>
<!-- Node2 -->
<g id="node2" class="node"><title>Node2</title>
<g id="a_node2"><a xlink:title=" ">
<polygon fill="white" stroke="#bfbfbf" points="414,-56.5 414,-75.5 452,-75.5 452,-56.5 414,-56.5"/>
<text text-anchor="middle" x="433" y="-63.5" font-family="Helvetica,sans-Serif" font-size="10.00">array</text>
</a>
</g>
</g>
<!-- Node1&#45;&gt;Node2 -->
<g id="edge1" class="edge"><title>Node1&#45;&gt;Node2</title>
<path fill="none" stroke="midnightblue" d="M340.21,-224.451C305.987,-213.715 274.486,-195.909 289,-168 313.172,-121.52 369.62,-91.9772 404.227,-77.5453"/>
<polygon fill="midnightblue" stroke="midnightblue" points="405.807,-80.6828 413.785,-73.7114 403.201,-74.186 405.807,-80.6828"/>
</g>
<!-- Node3 -->
<g id="node3" class="node"><title>Node3</title>
<g id="a_node3"><a xlink:title=" ">
<polygon fill="white" stroke="#bfbfbf" points="298,-168.5 298,-187.5 356,-187.5 356,-168.5 298,-168.5"/>
<text text-anchor="middle" x="327" y="-175.5" font-family="Helvetica,sans-Serif" font-size="10.00">functional</text>
</a>
</g>
</g>
<!-- Node1&#45;&gt;Node3 -->
<g id="edge2" class="edge"><title>Node1&#45;&gt;Node3</title>
<path fill="none" stroke="midnightblue" d="M388.804,-224.399C376.184,-215.129 359.707,-203.025 346.939,-193.647"/>
<polygon fill="midnightblue" stroke="midnightblue" points="348.918,-190.757 338.786,-187.658 344.773,-196.399 348.918,-190.757"/>
</g>
<!-- Node4 -->
<g id="node4" class="node"><title>Node4</title>
<g id="a_node4"><a xlink:title=" ">
<polygon fill="white" stroke="#bfbfbf" points="334,-56.5 334,-75.5 396,-75.5 396,-56.5 334,-56.5"/>
<text text-anchor="middle" x="365" y="-63.5" font-family="Helvetica,sans-Serif" font-size="10.00">type_traits</text>
</a>
</g>
</g>
<!-- Node1&#45;&gt;Node4 -->
<g id="edge3" class="edge"><title>Node1&#45;&gt;Node4</title>
<path fill="none" stroke="midnightblue" d="M404.481,-224.465C396.768,-193.704 378.371,-120.329 369.689,-85.7003"/>
<polygon fill="midnightblue" stroke="midnightblue" points="372.973,-84.4082 367.146,-75.5597 366.183,-86.1107 372.973,-84.4082"/>
</g>
<!-- Node5 -->
<g id="node5" class="node"><title>Node5</title>
<g id="a_node5"><a xlink:title=" ">
<polygon fill="white" stroke="#bfbfbf" points="412,-168.5 412,-187.5 452,-187.5 452,-168.5 412,-168.5"/>
<text text-anchor="middle" x="432" y="-175.5" font-family="Helvetica,sans-Serif" font-size="10.00">utility</text>
</a>
</g>
</g>
<!-- Node1&#45;&gt;Node5 -->
<g id="edge4" class="edge"><title>Node1&#45;&gt;Node5</title>
<path fill="none" stroke="midnightblue" d="M413.688,-224.399C416.995,-216.199 421.198,-205.781 424.742,-196.994"/>
<polygon fill="midnightblue" stroke="midnightblue" points="428.013,-198.241 428.508,-187.658 421.521,-195.622 428.013,-198.241"/>
</g>
<!-- Node6 -->
<g id="node6" class="node"><title>Node6</title>
<g id="a_node6"><a xlink:href="bin__rw_8h.html" target="_top" xlink:title=" ">
<polygon fill="white" stroke="black" points="470.5,-168.5 470.5,-187.5 523.5,-187.5 523.5,-168.5 470.5,-168.5"/>
<text text-anchor="middle" x="497" y="-175.5" font-family="Helvetica,sans-Serif" font-size="10.00">bin_rw.h</text>
</a>
</g>
</g>
<!-- Node1&#45;&gt;Node6 -->
<g id="edge5" class="edge"><title>Node1&#45;&gt;Node6</title>
<path fill="none" stroke="midnightblue" d="M429.092,-224.399C443.091,-215.04 461.411,-202.792 475.495,-193.377"/>
<polygon fill="midnightblue" stroke="midnightblue" points="477.682,-196.125 484.05,-187.658 473.791,-190.306 477.682,-196.125"/>
</g>
<!-- Node26 -->
<g id="node26" class="node"><title>Node26</title>
<g id="a_node26"><a xlink:href="utils_8h.html" target="_top" xlink:title=" ">
<polygon fill="white" stroke="black" points="591.5,-112.5 591.5,-131.5 634.5,-131.5 634.5,-112.5 591.5,-112.5"/>
<text text-anchor="middle" x="613" y="-119.5" font-family="Helvetica,sans-Serif" font-size="10.00">utils.h</text>
</a>
</g>
</g>
<!-- Node1&#45;&gt;Node26 -->
<g id="edge41" class="edge"><title>Node1&#45;&gt;Node26</title>
<path fill="none" stroke="midnightblue" d="M451.052,-224.456C475.593,-215.606 506.452,-203.021 532,-188 556.131,-173.813 580.783,-152.928 596.45,-138.686"/>
<polygon fill="midnightblue" stroke="midnightblue" points="599.207,-140.904 604.169,-131.543 594.453,-135.766 599.207,-140.904"/>
</g>
<!-- Node6&#45;&gt;Node4 -->
<g id="edge8" class="edge"><title>Node6&#45;&gt;Node4</title>
<path fill="none" stroke="midnightblue" d="M486.185,-168.47C474.848,-159.491 456.554,-144.896 441,-132 420.701,-115.17 397.738,-95.432 382.417,-82.1597"/>
<polygon fill="midnightblue" stroke="midnightblue" points="384.603,-79.4225 374.757,-75.5109 380.014,-84.709 384.603,-79.4225"/>
</g>
<!-- Node7 -->
<g id="node7" class="node"><title>Node7</title>
<g id="a_node7"><a xlink:title=" ">
<polygon fill="white" stroke="#bfbfbf" points="450,-112.5 450,-131.5 506,-131.5 506,-112.5 450,-112.5"/>
<text text-anchor="middle" x="478" y="-119.5" font-family="Helvetica,sans-Serif" font-size="10.00">algorithm</text>
</a>
</g>
</g>
<!-- Node6&#45;&gt;Node7 -->
<g id="edge6" class="edge"><title>Node6&#45;&gt;Node7</title>
<path fill="none" stroke="midnightblue" d="M493.863,-168.083C491.317,-160.849 487.644,-150.409 484.473,-141.397"/>
<polygon fill="midnightblue" stroke="midnightblue" points="487.7,-140.023 481.079,-131.751 481.097,-142.346 487.7,-140.023"/>
</g>
<!-- Node8 -->
<g id="node8" class="node"><title>Node8</title>
<g id="a_node8"><a xlink:title=" ">
<polygon fill="white" stroke="#bfbfbf" points="270,-56.5 270,-75.5 316,-75.5 316,-56.5 270,-56.5"/>
<text text-anchor="middle" x="293" y="-63.5" font-family="Helvetica,sans-Serif" font-size="10.00">cstring</text>
</a>
</g>
</g>
<!-- Node6&#45;&gt;Node8 -->
<g id="edge7" class="edge"><title>Node6&#45;&gt;Node8</title>
<path fill="none" stroke="midnightblue" d="M480.992,-168.368C445.539,-149.251 360.188,-103.229 317.779,-80.361"/>
<polygon fill="midnightblue" stroke="midnightblue" points="319.396,-77.2569 308.933,-75.5914 316.074,-83.4183 319.396,-77.2569"/>
</g>
<!-- Node9 -->
<g id="node9" class="node"><title>Node9</title>
<g id="a_node9"><a xlink:href="buffer_8h.html" target="_top" xlink:title=" ">
<polygon fill="white" stroke="black" points="524,-112.5 524,-131.5 572,-131.5 572,-112.5 524,-112.5"/>
<text text-anchor="middle" x="548" y="-119.5" font-family="Helvetica,sans-Serif" font-size="10.00">buffer.h</text>
</a>
</g>
</g>
<!-- Node6&#45;&gt;Node9 -->
<g id="edge9" class="edge"><title>Node6&#45;&gt;Node9</title>
<path fill="none" stroke="midnightblue" d="M505.422,-168.083C512.848,-160.22 523.852,-148.569 532.812,-139.081"/>
<polygon fill="midnightblue" stroke="midnightblue" points="535.413,-141.424 539.735,-131.751 530.324,-136.618 535.413,-141.424"/>
</g>
<!-- Node23 -->
<g id="node23" class="node"><title>Node23</title>
<g id="a_node23"><a xlink:href="endian_8h.html" target="_top" xlink:title=" ">
<polygon fill="white" stroke="black" points="188.5,-112.5 188.5,-131.5 241.5,-131.5 241.5,-112.5 188.5,-112.5"/>
<text text-anchor="middle" x="215" y="-119.5" font-family="Helvetica,sans-Serif" font-size="10.00">endian.h</text>
</a>
</g>
</g>
<!-- Node6&#45;&gt;Node23 -->
<g id="edge25" class="edge"><title>Node6&#45;&gt;Node23</title>
<path fill="none" stroke="midnightblue" d="M470.308,-170.125C467.177,-169.378 464.022,-168.654 461,-168 387.069,-152.014 299.834,-136.945 251.642,-128.949"/>
<polygon fill="midnightblue" stroke="midnightblue" points="252.121,-125.481 241.685,-127.305 250.981,-132.387 252.121,-125.481"/>
</g>
<!-- Node6&#45;&gt;Node26 -->
<g id="edge31" class="edge"><title>Node6&#45;&gt;Node26</title>
<path fill="none" stroke="midnightblue" d="M515.381,-168.444C534.216,-159.675 563.731,-145.935 585.379,-135.858"/>
<polygon fill="midnightblue" stroke="midnightblue" points="587.117,-138.91 594.705,-131.516 584.162,-132.564 587.117,-138.91"/>
</g>
<!-- Node9&#45;&gt;Node4 -->
<g id="edge14" class="edge"><title>Node9&#45;&gt;Node4</title>
<path fill="none" stroke="midnightblue" d="M523.699,-113.829C493.039,-104.782 439.943,-89.1144 403.68,-78.4139"/>
<polygon fill="midnightblue" stroke="midnightblue" points="404.513,-75.0105 393.931,-75.5371 402.532,-81.7243 404.513,-75.0105"/>
</g>
<!-- Node10 -->
<g id="node10" class="node"><title>Node10</title>
<g id="a_node10"><a xlink:title=" ">
<polygon fill="white" stroke="#bfbfbf" points="470.5,-56.5 470.5,-75.5 519.5,-75.5 519.5,-56.5 470.5,-56.5"/>
<text text-anchor="middle" x="495" y="-63.5" font-family="Helvetica,sans-Serif" font-size="10.00">cassert</text>
</a>
</g>
</g>
<!-- Node9&#45;&gt;Node10 -->
<g id="edge10" class="edge"><title>Node9&#45;&gt;Node10</title>
<path fill="none" stroke="midnightblue" d="M539.248,-112.083C531.53,-104.22 520.095,-92.5688 510.783,-83.0813"/>
<polygon fill="midnightblue" stroke="midnightblue" points="513.092,-80.4363 503.589,-75.7511 508.096,-85.3396 513.092,-80.4363"/>
</g>
<!-- Node11 -->
<g id="node11" class="node"><title>Node11</title>
<g id="a_node11"><a xlink:title=" ">
<polygon fill="white" stroke="#bfbfbf" points="391,-0.5 391,-19.5 439,-19.5 439,-0.5 391,-0.5"/>
<text text-anchor="middle" x="415" y="-7.5" font-family="Helvetica,sans-Serif" font-size="10.00">cstddef</text>
</a>
</g>
</g>
<!-- Node9&#45;&gt;Node11 -->
<g id="edge11" class="edge"><title>Node9&#45;&gt;Node11</title>
<path fill="none" stroke="midnightblue" d="M547.64,-112.256C546.618,-98.5606 542.731,-71.9671 528,-56 516.921,-43.991 477.943,-30.0567 448.845,-20.9133"/>
<polygon fill="midnightblue" stroke="midnightblue" points="449.614,-17.488 439.027,-17.89 447.554,-24.178 449.614,-17.488"/>
</g>
<!-- Node12 -->
<g id="node12" class="node"><title>Node12</title>
<g id="a_node12"><a xlink:title=" ">
<polygon fill="white" stroke="#bfbfbf" points="206,-56.5 206,-75.5 252,-75.5 252,-56.5 206,-56.5"/>
<text text-anchor="middle" x="229" y="-63.5" font-family="Helvetica,sans-Serif" font-size="10.00">cstdint</text>
</a>
</g>
</g>
<!-- Node9&#45;&gt;Node12 -->
<g id="edge12" class="edge"><title>Node9&#45;&gt;Node12</title>
<path fill="none" stroke="midnightblue" d="M523.934,-114.062C520.939,-113.309 517.908,-112.6 515,-112 406.498,-89.6074 374.379,-98.9174 262.334,-76.0339"/>
<polygon fill="midnightblue" stroke="midnightblue" points="262.833,-72.5629 252.33,-73.9495 261.405,-79.4157 262.833,-72.5629"/>
</g>
<!-- Node13 -->
<g id="node13" class="node"><title>Node13</title>
<g id="a_node13"><a xlink:title=" ">
<polygon fill="white" stroke="#bfbfbf" points="576,-56.5 576,-75.5 650,-75.5 650,-56.5 576,-56.5"/>
<text text-anchor="middle" x="613" y="-63.5" font-family="Helvetica,sans-Serif" font-size="10.00">system_error</text>
</a>
</g>
</g>
<!-- Node9&#45;&gt;Node13 -->
<g id="edge13" class="edge"><title>Node9&#45;&gt;Node13</title>
<path fill="none" stroke="midnightblue" d="M558.443,-112.324C568.146,-104.263 582.815,-92.0765 594.5,-82.3695"/>
<polygon fill="midnightblue" stroke="midnightblue" points="596.911,-84.9163 602.367,-75.8339 592.438,-79.532 596.911,-84.9163"/>
</g>
<!-- Node14 -->
<g id="node14" class="node"><title>Node14</title>
<g id="a_node14"><a xlink:href="common_8h.html" target="_top" xlink:title="Header with typedefs to make type designation platform independent.">
<polygon fill="white" stroke="black" points="668,-56.5 668,-75.5 730,-75.5 730,-56.5 668,-56.5"/>
<text text-anchor="middle" x="699" y="-63.5" font-family="Helvetica,sans-Serif" font-size="10.00">common.h</text>
</a>
</g>
</g>
<!-- Node9&#45;&gt;Node14 -->
<g id="edge15" class="edge"><title>Node9&#45;&gt;Node14</title>
<path fill="none" stroke="midnightblue" d="M571.926,-112.444C597.219,-103.399 637.302,-89.064 665.68,-78.9158"/>
<polygon fill="midnightblue" stroke="midnightblue" points="666.948,-82.1794 675.186,-75.5164 664.591,-75.5882 666.948,-82.1794"/>
</g>
<!-- Node14&#45;&gt;Node11 -->
<g id="edge24" class="edge"><title>Node14&#45;&gt;Node11</title>
<path fill="none" stroke="midnightblue" d="M667.59,-57.7697C664.69,-57.1514 661.793,-56.5521 659,-56 568.772,-38.1648 542.61,-40.3651 448.975,-20.0349"/>
<polygon fill="midnightblue" stroke="midnightblue" points="449.602,-16.5892 439.083,-17.8588 448.098,-23.4257 449.602,-16.5892"/>
</g>
<!-- Node15 -->
<g id="node15" class="node"><title>Node15</title>
<g id="a_node15"><a xlink:title=" ">
<polygon fill="white" stroke="#bfbfbf" points="705,-0.5 705,-19.5 767,-19.5 767,-0.5 705,-0.5"/>
<text text-anchor="middle" x="736" y="-7.5" font-family="Helvetica,sans-Serif" font-size="10.00">arpa/inet.h</text>
</a>
</g>
</g>
<!-- Node14&#45;&gt;Node15 -->
<g id="edge16" class="edge"><title>Node14&#45;&gt;Node15</title>
<path fill="none" stroke="midnightblue" d="M705.11,-56.083C710.282,-48.5341 717.846,-37.4948 724.194,-28.2298"/>
<polygon fill="midnightblue" stroke="midnightblue" points="727.239,-29.9787 730.004,-19.7511 721.464,-26.0221 727.239,-29.9787"/>
</g>
<!-- Node16 -->
<g id="node16" class="node"><title>Node16</title>
<g id="a_node16"><a xlink:title=" ">
<polygon fill="white" stroke="#bfbfbf" points="785.5,-0.5 785.5,-19.5 832.5,-19.5 832.5,-0.5 785.5,-0.5"/>
<text text-anchor="middle" x="809" y="-7.5" font-family="Helvetica,sans-Serif" font-size="10.00">errno.h</text>
</a>
</g>
</g>
<!-- Node14&#45;&gt;Node16 -->
<g id="edge17" class="edge"><title>Node14&#45;&gt;Node16</title>
<path fill="none" stroke="midnightblue" d="M716.673,-56.324C734.394,-47.6247 761.903,-34.1202 782.288,-24.113"/>
<polygon fill="midnightblue" stroke="midnightblue" points="783.936,-27.2031 791.37,-19.6545 780.851,-20.9195 783.936,-27.2031"/>
</g>
<!-- Node17 -->
<g id="node17" class="node"><title>Node17</title>
<g id="a_node17"><a xlink:title=" ">
<polygon fill="white" stroke="#bfbfbf" points="850.5,-0.5 850.5,-19.5 893.5,-19.5 893.5,-0.5 850.5,-0.5"/>
<text text-anchor="middle" x="872" y="-7.5" font-family="Helvetica,sans-Serif" font-size="10.00">fcntl.h</text>
</a>
</g>
</g>
<!-- Node14&#45;&gt;Node17 -->
<g id="edge18" class="edge"><title>Node14&#45;&gt;Node17</title>
<path fill="none" stroke="midnightblue" d="M726.412,-56.4435C757.448,-46.7561 807.923,-31.0008 840.54,-20.8199"/>
<polygon fill="midnightblue" stroke="midnightblue" points="841.952,-24.0458 850.455,-17.7251 839.866,-17.3637 841.952,-24.0458"/>
</g>
<!-- Node18 -->
<g id="node18" class="node"><title>Node18</title>
<g id="a_node18"><a xlink:title=" ">
<polygon fill="white" stroke="#bfbfbf" points="911.5,-0.5 911.5,-19.5 960.5,-19.5 960.5,-0.5 911.5,-0.5"/>
<text text-anchor="middle" x="936" y="-7.5" font-family="Helvetica,sans-Serif" font-size="10.00">netdb.h</text>
</a>
</g>
</g>
<!-- Node14&#45;&gt;Node18 -->
<g id="edge19" class="edge"><title>Node14&#45;&gt;Node18</title>
<path fill="none" stroke="midnightblue" d="M730.005,-58.007C733.044,-57.3267 736.082,-56.6486 739,-56 808.717,-40.5052 828.829,-38.02 901.108,-20.3851"/>
<polygon fill="midnightblue" stroke="midnightblue" points="902.291,-23.6987 911.168,-17.9156 900.622,-16.9005 902.291,-23.6987"/>
</g>
<!-- Node19 -->
<g id="node19" class="node"><title>Node19</title>
<g id="a_node19"><a xlink:title=" ">
<polygon fill="white" stroke="#bfbfbf" points="978.5,-0.5 978.5,-19.5 1043.5,-19.5 1043.5,-0.5 978.5,-0.5"/>
<text text-anchor="middle" x="1011" y="-7.5" font-family="Helvetica,sans-Serif" font-size="10.00">netinet/in.h</text>
</a>
</g>
</g>
<!-- Node14&#45;&gt;Node19 -->
<g id="edge20" class="edge"><title>Node14&#45;&gt;Node19</title>
<path fill="none" stroke="midnightblue" d="M730.402,-57.7268C733.303,-57.1175 736.203,-56.532 739,-56 837.886,-37.1916 866.125,-39.0094 968.245,-20.2362"/>
<polygon fill="midnightblue" stroke="midnightblue" points="969.172,-23.6239 978.363,-18.3538 967.892,-16.742 969.172,-23.6239"/>
</g>
<!-- Node20 -->
<g id="node20" class="node"><title>Node20</title>
<g id="a_node20"><a xlink:title=" ">
<polygon fill="white" stroke="#bfbfbf" points="457.5,-0.5 457.5,-19.5 530.5,-19.5 530.5,-0.5 457.5,-0.5"/>
<text text-anchor="middle" x="494" y="-7.5" font-family="Helvetica,sans-Serif" font-size="10.00">sys/socket.h</text>
</a>
</g>
</g>
<!-- Node14&#45;&gt;Node20 -->
<g id="edge21" class="edge"><title>Node14&#45;&gt;Node20</title>
<path fill="none" stroke="midnightblue" d="M667.865,-56.7986C632.729,-47.5432 575.382,-32.4372 536.23,-22.124"/>
<polygon fill="midnightblue" stroke="midnightblue" points="537.007,-18.7095 526.446,-19.5467 535.224,-25.4786 537.007,-18.7095"/>
</g>
<!-- Node21 -->
<g id="node21" class="node"><title>Node21</title>
<g id="a_node21"><a xlink:title=" ">
<polygon fill="white" stroke="#bfbfbf" points="549,-0.5 549,-19.5 617,-19.5 617,-0.5 549,-0.5"/>
<text text-anchor="middle" x="583" y="-7.5" font-family="Helvetica,sans-Serif" font-size="10.00">sys/types.h</text>
</a>
</g>
</g>
<!-- Node14&#45;&gt;Node21 -->
<g id="edge22" class="edge"><title>Node14&#45;&gt;Node21</title>
<path fill="none" stroke="midnightblue" d="M680.619,-56.4435C661.784,-47.6751 632.269,-33.9355 610.621,-23.8579"/>
<polygon fill="midnightblue" stroke="midnightblue" points="611.838,-20.5637 601.295,-19.5164 608.883,-26.9098 611.838,-20.5637"/>
</g>
<!-- Node22 -->
<g id="node22" class="node"><title>Node22</title>
<g id="a_node22"><a xlink:title=" ">
<polygon fill="white" stroke="#bfbfbf" points="635.5,-0.5 635.5,-19.5 686.5,-19.5 686.5,-0.5 635.5,-0.5"/>
<text text-anchor="middle" x="661" y="-7.5" font-family="Helvetica,sans-Serif" font-size="10.00">unistd.h</text>
</a>
</g>
</g>
<!-- Node14&#45;&gt;Node22 -->
<g id="edge23" class="edge"><title>Node14&#45;&gt;Node22</title>
<path fill="none" stroke="midnightblue" d="M692.725,-56.083C687.358,-48.4554 679.482,-37.2645 672.921,-27.9408"/>
<polygon fill="midnightblue" stroke="midnightblue" points="675.775,-25.9149 667.158,-19.7511 670.051,-29.9434 675.775,-25.9149"/>
</g>
<!-- Node23&#45;&gt;Node4 -->
<g id="edge29" class="edge"><title>Node23&#45;&gt;Node4</title>
<path fill="none" stroke="midnightblue" d="M238.768,-112.444C263.893,-103.399 303.711,-89.064 331.9,-78.9158"/>
<polygon fill="midnightblue" stroke="midnightblue" points="333.12,-82.1968 341.343,-75.5164 330.749,-75.6106 333.12,-82.1968"/>
</g>
<!-- Node23&#45;&gt;Node8 -->
<g id="edge27" class="edge"><title>Node23&#45;&gt;Node8</title>
<path fill="none" stroke="midnightblue" d="M227.532,-112.324C239.586,-103.979 258.027,-91.2122 272.269,-81.3524"/>
<polygon fill="midnightblue" stroke="midnightblue" points="274.269,-84.2243 280.499,-75.6545 270.285,-78.469 274.269,-84.2243"/>
</g>
<!-- Node23&#45;&gt;Node12 -->
<g id="edge26" class="edge"><title>Node23&#45;&gt;Node12</title>
<path fill="none" stroke="midnightblue" d="M217.312,-112.083C219.167,-104.927 221.835,-94.6353 224.154,-85.6911"/>
<polygon fill="midnightblue" stroke="midnightblue" points="227.609,-86.3094 226.731,-75.7511 220.834,-84.5527 227.609,-86.3094"/>
</g>
<!-- Node24 -->
<g id="node24" class="node"><title>Node24</title>
<g id="a_node24"><a xlink:title=" ">
<polygon fill="white" stroke="#bfbfbf" points="0,-56.5 0,-75.5 64,-75.5 64,-56.5 0,-56.5"/>
<text text-anchor="middle" x="32" y="-63.5" font-family="Helvetica,sans-Serif" font-size="10.00">string_view</text>
</a>
</g>
</g>
<!-- Node23&#45;&gt;Node24 -->
<g id="edge28" class="edge"><title>Node23&#45;&gt;Node24</title>
<path fill="none" stroke="midnightblue" d="M188.39,-113.148C157.534,-104.043 106.393,-88.9519 71.0359,-78.5188"/>
<polygon fill="midnightblue" stroke="midnightblue" points="71.6434,-75.0489 61.0617,-75.5756 69.6622,-81.7627 71.6434,-75.0489"/>
</g>
<!-- Node25 -->
<g id="node25" class="node"><title>Node25</title>
<g id="a_node25"><a xlink:href="useful__base__types_8h.html" target="_top" xlink:title=" ">
<polygon fill="white" stroke="black" points="82,-56.5 82,-75.5 188,-75.5 188,-56.5 82,-56.5"/>
<text text-anchor="middle" x="135" y="-63.5" font-family="Helvetica,sans-Serif" font-size="10.00">useful_base_types.h</text>
</a>
</g>
</g>
<!-- Node23&#45;&gt;Node25 -->
<g id="edge30" class="edge"><title>Node23&#45;&gt;Node25</title>
<path fill="none" stroke="midnightblue" d="M202.147,-112.324C189.784,-103.979 170.87,-91.2122 156.263,-81.3524"/>
<polygon fill="midnightblue" stroke="midnightblue" points="158.068,-78.3483 147.821,-75.6545 154.152,-84.1503 158.068,-78.3483"/>
</g>
<!-- Node26&#45;&gt;Node2 -->
<g id="edge34" class="edge"><title>Node26&#45;&gt;Node2</title>
<path fill="none" stroke="midnightblue" d="M591.305,-114.749C563.501,-106.7 513.582,-92.1264 461.922,-76.2368"/>
<polygon fill="midnightblue" stroke="midnightblue" points="462.849,-72.8598 452.261,-73.2558 460.785,-79.5486 462.849,-72.8598"/>
</g>
<!-- Node26&#45;&gt;Node4 -->
<g id="edge38" class="edge"><title>Node26&#45;&gt;Node4</title>
<path fill="none" stroke="midnightblue" d="M591.367,-114.687C587.911,-113.744 584.365,-112.816 581,-112 506.439,-93.9144 484.739,-92.8245 406.286,-76.2348"/>
<polygon fill="midnightblue" stroke="midnightblue" points="406.94,-72.7957 396.43,-74.1327 405.48,-79.6417 406.94,-72.7957"/>
</g>
<!-- Node26&#45;&gt;Node8 -->
<g id="edge36" class="edge"><title>Node26&#45;&gt;Node8</title>
<path fill="none" stroke="midnightblue" d="M591.409,-114.503C587.947,-113.584 584.389,-112.711 581,-112 471.739,-89.0613 439.273,-99 326.406,-76.045"/>
<polygon fill="midnightblue" stroke="midnightblue" points="326.832,-72.5587 316.329,-73.9524 325.408,-79.4125 326.832,-72.5587"/>
</g>
<!-- Node26&#45;&gt;Node13 -->
<g id="edge37" class="edge"><title>Node26&#45;&gt;Node13</title>
<path fill="none" stroke="midnightblue" d="M613,-112.083C613,-105.006 613,-94.8611 613,-85.9865"/>
<polygon fill="midnightblue" stroke="midnightblue" points="616.5,-85.751 613,-75.7511 609.5,-85.7511 616.5,-85.751"/>
</g>
<!-- Node26&#45;&gt;Node14 -->
<g id="edge40" class="edge"><title>Node26&#45;&gt;Node14</title>
<path fill="none" stroke="midnightblue" d="M626.817,-112.324C640.233,-103.9 660.824,-90.9709 676.586,-81.0741"/>
<polygon fill="midnightblue" stroke="midnightblue" points="678.609,-83.9364 685.217,-75.6545 674.887,-78.0081 678.609,-83.9364"/>
</g>
<!-- Node27 -->
<g id="node27" class="node"><title>Node27</title>
<g id="a_node27"><a xlink:title=" ">
<polygon fill="white" stroke="#bfbfbf" points="914,-56.5 914,-75.5 974,-75.5 974,-56.5 914,-56.5"/>
<text text-anchor="middle" x="944" y="-63.5" font-family="Helvetica,sans-Serif" font-size="10.00">fmt/core.h</text>
</a>
</g>
</g>
<!-- Node26&#45;&gt;Node27 -->
<g id="edge32" class="edge"><title>Node26&#45;&gt;Node27</title>
<path fill="none" stroke="midnightblue" d="M634.707,-118.214C681.839,-112.045 797.238,-96.3032 903.856,-76.1029"/>
<polygon fill="midnightblue" stroke="midnightblue" points="904.649,-79.5147 913.813,-74.1981 903.334,-72.6394 904.649,-79.5147"/>
</g>
<!-- Node28 -->
<g id="node28" class="node"><title>Node28</title>
<g id="a_node28"><a xlink:title=" ">
<polygon fill="white" stroke="#bfbfbf" points="992,-56.5 992,-75.5 1060,-75.5 1060,-56.5 992,-56.5"/>
<text text-anchor="middle" x="1026" y="-63.5" font-family="Helvetica,sans-Serif" font-size="10.00">fmt/format.h</text>
</a>
</g>
</g>
<!-- Node26&#45;&gt;Node28 -->
<g id="edge33" class="edge"><title>Node26&#45;&gt;Node28</title>
<path fill="none" stroke="midnightblue" d="M634.778,-119.006C690.7,-113.749 844.063,-98.4605 981.887,-76.0615"/>
<polygon fill="midnightblue" stroke="midnightblue" points="982.481,-79.5109 991.782,-74.4366 981.347,-72.6034 982.481,-79.5109"/>
</g>
<!-- Node29 -->
<g id="node29" class="node"><title>Node29</title>
<g id="a_node29"><a xlink:title=" ">
<polygon fill="white" stroke="#bfbfbf" points="748,-56.5 748,-75.5 794,-75.5 794,-56.5 748,-56.5"/>
<text text-anchor="middle" x="771" y="-63.5" font-family="Helvetica,sans-Serif" font-size="10.00">chrono</text>
</a>
</g>
</g>
<!-- Node26&#45;&gt;Node29 -->
<g id="edge35" class="edge"><title>Node26&#45;&gt;Node29</title>
<path fill="none" stroke="midnightblue" d="M634.638,-113.605C661.406,-104.456 707.238,-88.7922 738.304,-78.1745"/>
<polygon fill="midnightblue" stroke="midnightblue" points="739.498,-81.4652 747.829,-74.9192 737.235,-74.8414 739.498,-81.4652"/>
</g>
<!-- Node30 -->
<g id="node30" class="node"><title>Node30</title>
<g id="a_node30"><a xlink:title=" ">
<polygon fill="white" stroke="#bfbfbf" points="812.5,-56.5 812.5,-75.5 895.5,-75.5 895.5,-56.5 812.5,-56.5"/>
<text text-anchor="middle" x="854" y="-63.5" font-family="Helvetica,sans-Serif" font-size="10.00">unordered_map</text>
</a>
</g>
</g>
<!-- Node26&#45;&gt;Node30 -->
<g id="edge39" class="edge"><title>Node26&#45;&gt;Node30</title>
<path fill="none" stroke="midnightblue" d="M634.812,-116.113C673.266,-107.496 753.961,-89.4153 805.981,-77.7595"/>
<polygon fill="midnightblue" stroke="midnightblue" points="806.988,-81.1206 815.981,-75.5188 805.458,-74.29 806.988,-81.1206"/>
</g>
</g>
</svg>
        <g id="navigator" transform="translate(0 0)" fill="#404254">
                <rect fill="#f2f5e9" fill-opacity="0.5" stroke="#606060" stroke-width=".5" x="0" y="0" width="60" height="60"/>
                <use id="zoomplus" xlink:href="#zoomPlus" x="17" y="9" onmousedown="handleZoom(evt,'in')"/>
                <use id="zoomminus" xlink:href="#zoomMin" x="42" y="9" onmousedown="handleZoom(evt,'out')"/>
                <use id="reset" xlink:href="#resetDef" x="30" y="36" onmousedown="handleReset()"/>
                <g id="arrowUp" xlink:href="#dirArrow" transform="translate(30 24)" onmousedown="handlePan(0,-1)">
                  <use xlink:href="#rim" fill="#404040">
                        <set attributeName="fill" to="#808080" begin="arrowUp.mouseover" end="arrowUp.mouseout"/>
                  </use>
                  <path fill="none" stroke="white" stroke-width="1.5" d="M0,-3.0v7 M-2.5,-0.5L0,-3.0L2.5,-0.5"/>
                </g>
                <g id="arrowRight" xlink:href="#dirArrow" transform="rotate(90) translate(36 -43)" onmousedown="handlePan(1,0)">
                  <use xlink:href="#rim" fill="#404040">
                        <set attributeName="fill" to="#808080" begin="arrowRight.mouseover" end="arrowRight.mouseout"/>
                  </use>
                  <path fill="none" stroke="white" stroke-width="1.5" d="M0,-3.0v7 M-2.5,-0.5L0,-3.0L2.5,-0.5"/>
                </g>
                <g id="arrowDown" xlink:href="#dirArrow" transform="rotate(180) translate(-30 -48)" onmousedown="handlePan(0,1)">
                  <use xlink:href="#rim" fill="#404040">
                        <set attributeName="fill" to="#808080" begin="arrowDown.mouseover" end="arrowDown.mouseout"/>
                  </use>
                  <path fill="none" stroke="white" stroke-width="1.5" d="M0,-3.0v7 M-2.5,-0.5L0,-3.0L2.5,-0.5"/>
                </g>
                <g id="arrowLeft" xlink:href="#dirArrow" transform="rotate(270) translate(-36 17)" onmousedown="handlePan(-1,0)">
                  <use xlink:href="#rim" fill="#404040">
                        <set attributeName="fill" to="#808080" begin="arrowLeft.mouseover" end="arrowLeft.mouseout"/>
                  </use>
                  <path fill="none" stroke="white" stroke-width="1.5" d="M0,-3.0v7 M-2.5,-0.5L0,-3.0L2.5,-0.5"/>
                </g>
        </g>
        <svg viewBox="0 0 15 15" width="100%" height="30px" preserveAspectRatio="xMaxYMin meet">
         <g id="arrow_out" transform="scale(0.3 0.3)">
          <a xlink:href="packet__handlers_8h__incl_org.svg" target="_base">
           <rect id="button" ry="5" rx="5" y="6" x="6" height="38" width="38"
                fill="#f2f5e9" fill-opacity="0.5" stroke="#606060" stroke-width="1.0"/>
           <path id="arrow"
             d="M 11.500037,31.436501 C 11.940474,20.09759 22.043105,11.32322 32.158766,21.979434 L 37.068811,17.246167 C 37.068811,17.246167 37.088388,32 37.088388,32 L 22.160133,31.978069 C 22.160133,31.978069 26.997745,27.140456 26.997745,27.140456 C 18.528582,18.264221 13.291696,25.230495 11.500037,31.436501 z"
             style="fill:#404040;"/>
          </a>
         </g>
        </svg>
</svg>
