<?xml version="1.0" encoding="UTF-8" standalone="no"?>
<!DOCTYPE svg PUBLIC "-//W3C//DTD SVG 1.1//EN"
 "http://www.w3.org/Graphics/SVG/1.1/DTD/svg11.dtd">
<!-- Generated by graphviz version 2.38.0 (20140413.2041)
 -->
<!-- Title: C:/projects/ndt/sources/src/packet.cpp Pages: 1 -->
<!--zoomable 319 -->
<svg id="main" version="1.1" xmlns="http://www.w3.org/2000/svg" xmlns:xlink="http://www.w3.org/1999/xlink" xml:space="preserve" onload="init(evt)">
<style type="text/css"><![CDATA[
.edge:hover path { stroke: red; }
.edge:hover polygon { stroke: red; fill: red; }
]]></style>
<script type="text/javascript"><![CDATA[
var edges = document.getElementsByTagName('g');
if (edges && edges.length) {
  for (var i=0;i<edges.length;i++) {
    if (edges[i].id.substr(0,4)=='edge') {
      edges[i].setAttribute('class','edge');
    }
  }
}
]]></script>
        <defs>
                <circle id="rim" cx="0" cy="0" r="7"/>
                <circle id="rim2" cx="0" cy="0" r="3.5"/>
                <g id="zoomPlus">
                        <use xlink:href="#rim" fill="#404040">
                                <set attributeName="fill" to="#808080" begin="zoomplus.mouseover" end="zoomplus.mouseout"/>
                        </use>
                        <path d="M-4,0h8M0,-4v8" fill="none" stroke="white" stroke-width="1.5" pointer-events="none"/>
                </g>
                <g id="zoomMin">
                        <use xlink:href="#rim" fill="#404040">
                                <set attributeName="fill" to="#808080" begin="zoomminus.mouseover" end="zoomminus.mouseout"/>
                        </use>
                        <path d="M-4,0h8" fill="none" stroke="white" stroke-width="1.5" pointer-events="none"/>
                </g>
                <g id="dirArrow">
                        <path fill="none" stroke="white" stroke-width="1.5" d="M0,-3.0v7 M-2.5,-0.5L0,-3.0L2.5,-0.5"/>
                </g>
               <g id="resetDef">
                       <use xlink:href="#rim2" fill="#404040">
                               <set attributeName="fill" to="#808080" begin="reset.mouseover" end="reset.mouseout"/>
                       </use>
               </g>
        </defs>

<script type="text/javascript">
var viewWidth = 956;
var viewHeight = 319;
var sectionId = 'dynsection-0';
</script>
<script xlink:href="svgpan.js"/>
<svg id="graph" class="graph">
<g id="viewport">
<title>C:/projects/ndt/sources/src/packet.cpp</title>
<polygon fill="white" stroke="none" points="-4,4 -4,-315 952,-315 952,4 -4,4"/>
<!-- Node1 -->
<g id="node1" class="node"><title>Node1</title>
<g id="a_node1"><a xlink:title=" ">
<polygon fill="#bfbfbf" stroke="black" points="163,-280.5 163,-310.5 281,-310.5 281,-280.5 163,-280.5"/>
<text text-anchor="start" x="171" y="-298.5" font-family="Helvetica,sans-Serif" font-size="10.00">C:/projects/ndt/sources</text>
<text text-anchor="middle" x="222" y="-287.5" font-family="Helvetica,sans-Serif" font-size="10.00">/src/packet.cpp</text>
</a>
</g>
</g>
<!-- Node2 -->
<g id="node2" class="node"><title>Node2</title>
<g id="a_node2"><a xlink:href="packet_8h.html" target="_top" xlink:title=" ">
<polygon fill="white" stroke="black" points="186.5,-224.5 186.5,-243.5 257.5,-243.5 257.5,-224.5 186.5,-224.5"/>
<text text-anchor="middle" x="222" y="-231.5" font-family="Helvetica,sans-Serif" font-size="10.00">ndt/packet.h</text>
</a>
</g>
</g>
<!-- Node1&#45;&gt;Node2 -->
<g id="edge1" class="edge"><title>Node1&#45;&gt;Node2</title>
<path fill="none" stroke="midnightblue" d="M222,-280.399C222,-272.466 222,-262.458 222,-253.858"/>
<polygon fill="midnightblue" stroke="midnightblue" points="225.5,-253.658 222,-243.658 218.5,-253.658 225.5,-253.658"/>
</g>
<!-- Node3 -->
<g id="node3" class="node"><title>Node3</title>
<g id="a_node3"><a xlink:title=" ">
<polygon fill="white" stroke="#bfbfbf" points="31,-168.5 31,-187.5 75,-187.5 75,-168.5 31,-168.5"/>
<text text-anchor="middle" x="53" y="-175.5" font-family="Helvetica,sans-Serif" font-size="10.00">cerrno</text>
</a>
</g>
</g>
<!-- Node2&#45;&gt;Node3 -->
<g id="edge2" class="edge"><title>Node2&#45;&gt;Node3</title>
<path fill="none" stroke="midnightblue" d="M195.221,-224.444C165.239,-214.863 116.685,-199.349 84.7982,-189.16"/>
<polygon fill="midnightblue" stroke="midnightblue" points="85.6664,-185.764 75.0755,-186.054 83.5357,-192.431 85.6664,-185.764"/>
</g>
<!-- Node4 -->
<g id="node4" class="node"><title>Node4</title>
<g id="a_node4"><a xlink:title=" ">
<polygon fill="white" stroke="#bfbfbf" points="93,-168.5 93,-187.5 139,-187.5 139,-168.5 93,-168.5"/>
<text text-anchor="middle" x="116" y="-175.5" font-family="Helvetica,sans-Serif" font-size="10.00">chrono</text>
</a>
</g>
</g>
<!-- Node2&#45;&gt;Node4 -->
<g id="edge3" class="edge"><title>Node2&#45;&gt;Node4</title>
<path fill="none" stroke="midnightblue" d="M204.969,-224.324C187.97,-215.664 161.624,-202.242 142.007,-192.249"/>
<polygon fill="midnightblue" stroke="midnightblue" points="143.488,-189.075 132.988,-187.655 140.31,-195.312 143.488,-189.075"/>
</g>
<!-- Node5 -->
<g id="node5" class="node"><title>Node5</title>
<g id="a_node5"><a xlink:title=" ">
<polygon fill="white" stroke="#bfbfbf" points="0,-56.5 0,-75.5 46,-75.5 46,-56.5 0,-56.5"/>
<text text-anchor="middle" x="23" y="-63.5" font-family="Helvetica,sans-Serif" font-size="10.00">cstdint</text>
</a>
</g>
</g>
<!-- Node2&#45;&gt;Node5 -->
<g id="edge4" class="edge"><title>Node2&#45;&gt;Node5</title>
<path fill="none" stroke="midnightblue" d="M212.53,-224.459C198.56,-211.911 171.538,-187.833 148,-168 110.973,-136.802 66.7052,-101.489 42.0282,-81.9762"/>
<polygon fill="midnightblue" stroke="midnightblue" points="44.1785,-79.2146 34.1606,-75.7659 39.8414,-84.7091 44.1785,-79.2146"/>
</g>
<!-- Node6 -->
<g id="node6" class="node"><title>Node6</title>
<g id="a_node6"><a xlink:title=" ">
<polygon fill="white" stroke="#bfbfbf" points="866,-56.5 866,-75.5 940,-75.5 940,-56.5 866,-56.5"/>
<text text-anchor="middle" x="903" y="-63.5" font-family="Helvetica,sans-Serif" font-size="10.00">system_error</text>
</a>
</g>
</g>
<!-- Node2&#45;&gt;Node6 -->
<g id="edge5" class="edge"><title>Node2&#45;&gt;Node6</title>
<path fill="none" stroke="midnightblue" d="M257.18,-224.425C371.34,-196.597 731.407,-108.827 858.248,-77.9086"/>
<polygon fill="midnightblue" stroke="midnightblue" points="859.144,-81.2928 868.031,-75.5241 857.486,-74.492 859.144,-81.2928"/>
</g>
<!-- Node7 -->
<g id="node7" class="node"><title>Node7</title>
<g id="a_node7"><a xlink:title=" ">
<polygon fill="white" stroke="#bfbfbf" points="270,-56.5 270,-75.5 332,-75.5 332,-56.5 270,-56.5"/>
<text text-anchor="middle" x="301" y="-63.5" font-family="Helvetica,sans-Serif" font-size="10.00">type_traits</text>
</a>
</g>
</g>
<!-- Node2&#45;&gt;Node7 -->
<g id="edge6" class="edge"><title>Node2&#45;&gt;Node7</title>
<path fill="none" stroke="midnightblue" d="M226.247,-224.075C238.79,-197.719 275.835,-119.878 292.595,-84.6608"/>
<polygon fill="midnightblue" stroke="midnightblue" points="295.785,-86.1018 296.922,-75.5681 289.465,-83.0937 295.785,-86.1018"/>
</g>
<!-- Node8 -->
<g id="node8" class="node"><title>Node8</title>
<g id="a_node8"><a xlink:href="bin__rw_8h.html" target="_top" xlink:title=" ">
<polygon fill="white" stroke="black" points="306.5,-168.5 306.5,-187.5 359.5,-187.5 359.5,-168.5 306.5,-168.5"/>
<text text-anchor="middle" x="333" y="-175.5" font-family="Helvetica,sans-Serif" font-size="10.00">bin_rw.h</text>
</a>
</g>
</g>
<!-- Node2&#45;&gt;Node8 -->
<g id="edge7" class="edge"><title>Node2&#45;&gt;Node8</title>
<path fill="none" stroke="midnightblue" d="M239.834,-224.324C257.716,-215.625 285.475,-202.12 306.046,-192.113"/>
<polygon fill="midnightblue" stroke="midnightblue" points="307.749,-195.177 315.21,-187.655 304.687,-188.882 307.749,-195.177"/>
</g>
<!-- Node9 -->
<g id="node9" class="node"><title>Node9</title>
<g id="a_node9"><a xlink:title=" ">
<polygon fill="white" stroke="#bfbfbf" points="305,-112.5 305,-131.5 361,-131.5 361,-112.5 305,-112.5"/>
<text text-anchor="middle" x="333" y="-119.5" font-family="Helvetica,sans-Serif" font-size="10.00">algorithm</text>
</a>
</g>
</g>
<!-- Node8&#45;&gt;Node9 -->
<g id="edge8" class="edge"><title>Node8&#45;&gt;Node9</title>
<path fill="none" stroke="midnightblue" d="M333,-168.083C333,-161.006 333,-150.861 333,-141.986"/>
<polygon fill="midnightblue" stroke="midnightblue" points="336.5,-141.751 333,-131.751 329.5,-141.751 336.5,-141.751"/>
</g>
<!-- Node10 -->
<g id="node10" class="node"><title>Node10</title>
<g id="a_node10"><a xlink:href="buffer_8h.html" target="_top" xlink:title=" ">
<polygon fill="white" stroke="black" points="379,-112.5 379,-131.5 427,-131.5 427,-112.5 379,-112.5"/>
<text text-anchor="middle" x="403" y="-119.5" font-family="Helvetica,sans-Serif" font-size="10.00">buffer.h</text>
</a>
</g>
</g>
<!-- Node8&#45;&gt;Node10 -->
<g id="edge9" class="edge"><title>Node8&#45;&gt;Node10</title>
<path fill="none" stroke="midnightblue" d="M344.247,-168.324C354.797,-160.185 370.801,-147.839 383.442,-138.087"/>
<polygon fill="midnightblue" stroke="midnightblue" points="385.769,-140.713 391.549,-131.834 381.493,-135.171 385.769,-140.713"/>
</g>
<!-- Node22 -->
<g id="node22" class="node"><title>Node22</title>
<g id="a_node22"><a xlink:href="endian_8h.html" target="_top" xlink:title=" ">
<polygon fill="white" stroke="black" points="195.5,-112.5 195.5,-131.5 248.5,-131.5 248.5,-112.5 195.5,-112.5"/>
<text text-anchor="middle" x="222" y="-119.5" font-family="Helvetica,sans-Serif" font-size="10.00">endian.h</text>
</a>
</g>
</g>
<!-- Node8&#45;&gt;Node22 -->
<g id="edge24" class="edge"><title>Node8&#45;&gt;Node22</title>
<path fill="none" stroke="midnightblue" d="M315.166,-168.324C297.284,-159.625 269.525,-146.12 248.954,-136.113"/>
<polygon fill="midnightblue" stroke="midnightblue" points="250.313,-132.882 239.79,-131.655 247.251,-139.177 250.313,-132.882"/>
</g>
<!-- Node26 -->
<g id="node26" class="node"><title>Node26</title>
<g id="a_node26"><a xlink:href="utils_8h.html" target="_top" xlink:title=" ">
<polygon fill="white" stroke="black" points="568.5,-112.5 568.5,-131.5 611.5,-131.5 611.5,-112.5 568.5,-112.5"/>
<text text-anchor="middle" x="590" y="-119.5" font-family="Helvetica,sans-Serif" font-size="10.00">utils.h</text>
</a>
</g>
</g>
<!-- Node8&#45;&gt;Node26 -->
<g id="edge30" class="edge"><title>Node8&#45;&gt;Node26</title>
<path fill="none" stroke="midnightblue" d="M359.536,-171.424C407.288,-161.391 507.474,-140.34 558.574,-129.603"/>
<polygon fill="midnightblue" stroke="midnightblue" points="559.336,-133.019 568.403,-127.538 557.897,-126.169 559.336,-133.019"/>
</g>
<!-- Node10&#45;&gt;Node5 -->
<g id="edge12" class="edge"><title>Node10&#45;&gt;Node5</title>
<path fill="none" stroke="midnightblue" d="M378.949,-113.985C375.951,-113.246 372.916,-112.561 370,-112 234.868,-86.0084 195.121,-102.354 56.4709,-75.9963"/>
<polygon fill="midnightblue" stroke="midnightblue" points="56.7984,-72.4946 46.3145,-74.0236 55.4637,-79.3662 56.7984,-72.4946"/>
</g>
<!-- Node10&#45;&gt;Node7 -->
<g id="edge13" class="edge"><title>Node10&#45;&gt;Node7</title>
<path fill="none" stroke="midnightblue" d="M386.612,-112.324C370.329,-103.703 345.133,-90.3643 326.284,-80.3855"/>
<polygon fill="midnightblue" stroke="midnightblue" points="327.823,-77.2402 317.347,-75.6545 324.548,-83.4267 327.823,-77.2402"/>
</g>
<!-- Node11 -->
<g id="node11" class="node"><title>Node11</title>
<g id="a_node11"><a xlink:title=" ">
<polygon fill="white" stroke="#bfbfbf" points="452.5,-56.5 452.5,-75.5 501.5,-75.5 501.5,-56.5 452.5,-56.5"/>
<text text-anchor="middle" x="477" y="-63.5" font-family="Helvetica,sans-Serif" font-size="10.00">cassert</text>
</a>
</g>
</g>
<!-- Node10&#45;&gt;Node11 -->
<g id="edge10" class="edge"><title>Node10&#45;&gt;Node11</title>
<path fill="none" stroke="midnightblue" d="M414.889,-112.324C426.15,-104.107 443.287,-91.6017 456.709,-81.8069"/>
<polygon fill="midnightblue" stroke="midnightblue" points="458.88,-84.5559 464.894,-75.8339 454.753,-78.9014 458.88,-84.5559"/>
</g>
<!-- Node12 -->
<g id="node12" class="node"><title>Node12</title>
<g id="a_node12"><a xlink:title=" ">
<polygon fill="white" stroke="#bfbfbf" points="296,-0.5 296,-19.5 344,-19.5 344,-0.5 296,-0.5"/>
<text text-anchor="middle" x="320" y="-7.5" font-family="Helvetica,sans-Serif" font-size="10.00">cstddef</text>
</a>
</g>
</g>
<!-- Node10&#45;&gt;Node12 -->
<g id="edge11" class="edge"><title>Node10&#45;&gt;Node12</title>
<path fill="none" stroke="midnightblue" d="M396.487,-112.368C382.729,-94.135 350.503,-51.4257 332.582,-27.6752"/>
<polygon fill="midnightblue" stroke="midnightblue" points="335.3,-25.4659 326.483,-19.5914 329.712,-29.6821 335.3,-25.4659"/>
</g>
<!-- Node13 -->
<g id="node13" class="node"><title>Node13</title>
<g id="a_node13"><a xlink:href="common_8h.html" target="_top" xlink:title="Header with typedefs to make type designation platform independent.">
<polygon fill="white" stroke="black" points="520,-56.5 520,-75.5 582,-75.5 582,-56.5 520,-56.5"/>
<text text-anchor="middle" x="551" y="-63.5" font-family="Helvetica,sans-Serif" font-size="10.00">common.h</text>
</a>
</g>
</g>
<!-- Node10&#45;&gt;Node13 -->
<g id="edge14" class="edge"><title>Node10&#45;&gt;Node13</title>
<path fill="none" stroke="midnightblue" d="M426.451,-112.444C451.133,-103.438 490.185,-89.1891 517.977,-79.049"/>
<polygon fill="midnightblue" stroke="midnightblue" points="519.464,-82.2321 527.659,-75.5164 517.065,-75.6561 519.464,-82.2321"/>
</g>
<!-- Node13&#45;&gt;Node12 -->
<g id="edge23" class="edge"><title>Node13&#45;&gt;Node12</title>
<path fill="none" stroke="midnightblue" d="M519.663,-57.9039C468.224,-46.2461 369.967,-23.9357 354,-20 353.9,-19.9753 353.8,-19.9506 353.699,-19.9258"/>
<polygon fill="midnightblue" stroke="midnightblue" points="354.674,-16.5622 344.12,-17.4936 352.951,-23.3469 354.674,-16.5622"/>
</g>
<!-- Node14 -->
<g id="node14" class="node"><title>Node14</title>
<g id="a_node14"><a xlink:title=" ">
<polygon fill="white" stroke="#bfbfbf" points="886,-0.5 886,-19.5 948,-19.5 948,-0.5 886,-0.5"/>
<text text-anchor="middle" x="917" y="-7.5" font-family="Helvetica,sans-Serif" font-size="10.00">arpa/inet.h</text>
</a>
</g>
</g>
<!-- Node13&#45;&gt;Node14 -->
<g id="edge15" class="edge"><title>Node13&#45;&gt;Node14</title>
<path fill="none" stroke="midnightblue" d="M582.386,-57.6389C585.291,-57.0481 588.195,-56.4909 591,-56 713.992,-34.474 749.038,-41.6912 875.538,-20.1077"/>
<polygon fill="midnightblue" stroke="midnightblue" points="876.359,-23.5177 885.614,-18.3611 875.164,-16.6205 876.359,-23.5177"/>
</g>
<!-- Node15 -->
<g id="node15" class="node"><title>Node15</title>
<g id="a_node15"><a xlink:title=" ">
<polygon fill="white" stroke="#bfbfbf" points="362.5,-0.5 362.5,-19.5 409.5,-19.5 409.5,-0.5 362.5,-0.5"/>
<text text-anchor="middle" x="386" y="-7.5" font-family="Helvetica,sans-Serif" font-size="10.00">errno.h</text>
</a>
</g>
</g>
<!-- Node13&#45;&gt;Node15 -->
<g id="edge16" class="edge"><title>Node13&#45;&gt;Node15</title>
<path fill="none" stroke="midnightblue" d="M524.855,-56.4435C496.239,-47.0781 450.293,-32.0415 419.163,-21.8532"/>
<polygon fill="midnightblue" stroke="midnightblue" points="420.209,-18.5131 409.616,-18.729 418.032,-25.1659 420.209,-18.5131"/>
</g>
<!-- Node16 -->
<g id="node16" class="node"><title>Node16</title>
<g id="a_node16"><a xlink:title=" ">
<polygon fill="white" stroke="#bfbfbf" points="427.5,-0.5 427.5,-19.5 470.5,-19.5 470.5,-0.5 427.5,-0.5"/>
<text text-anchor="middle" x="449" y="-7.5" font-family="Helvetica,sans-Serif" font-size="10.00">fcntl.h</text>
</a>
</g>
</g>
<!-- Node13&#45;&gt;Node16 -->
<g id="edge17" class="edge"><title>Node13&#45;&gt;Node16</title>
<path fill="none" stroke="midnightblue" d="M534.612,-56.324C518.329,-47.7034 493.133,-34.3643 474.284,-24.3855"/>
<polygon fill="midnightblue" stroke="midnightblue" points="475.823,-21.2402 465.347,-19.6545 472.548,-27.4267 475.823,-21.2402"/>
</g>
<!-- Node17 -->
<g id="node17" class="node"><title>Node17</title>
<g id="a_node17"><a xlink:title=" ">
<polygon fill="white" stroke="#bfbfbf" points="488.5,-0.5 488.5,-19.5 537.5,-19.5 537.5,-0.5 488.5,-0.5"/>
<text text-anchor="middle" x="513" y="-7.5" font-family="Helvetica,sans-Serif" font-size="10.00">netdb.h</text>
</a>
</g>
</g>
<!-- Node13&#45;&gt;Node17 -->
<g id="edge18" class="edge"><title>Node13&#45;&gt;Node17</title>
<path fill="none" stroke="midnightblue" d="M544.725,-56.083C539.358,-48.4554 531.482,-37.2645 524.921,-27.9408"/>
<polygon fill="midnightblue" stroke="midnightblue" points="527.775,-25.9149 519.158,-19.7511 522.051,-29.9434 527.775,-25.9149"/>
</g>
<!-- Node18 -->
<g id="node18" class="node"><title>Node18</title>
<g id="a_node18"><a xlink:title=" ">
<polygon fill="white" stroke="#bfbfbf" points="555.5,-0.5 555.5,-19.5 620.5,-19.5 620.5,-0.5 555.5,-0.5"/>
<text text-anchor="middle" x="588" y="-7.5" font-family="Helvetica,sans-Serif" font-size="10.00">netinet/in.h</text>
</a>
</g>
</g>
<!-- Node13&#45;&gt;Node18 -->
<g id="edge19" class="edge"><title>Node13&#45;&gt;Node18</title>
<path fill="none" stroke="midnightblue" d="M557.11,-56.083C562.282,-48.5341 569.846,-37.4948 576.194,-28.2298"/>
<polygon fill="midnightblue" stroke="midnightblue" points="579.239,-29.9787 582.004,-19.7511 573.464,-26.0221 579.239,-29.9787"/>
</g>
<!-- Node19 -->
<g id="node19" class="node"><title>Node19</title>
<g id="a_node19"><a xlink:title=" ">
<polygon fill="white" stroke="#bfbfbf" points="638.5,-0.5 638.5,-19.5 711.5,-19.5 711.5,-0.5 638.5,-0.5"/>
<text text-anchor="middle" x="675" y="-7.5" font-family="Helvetica,sans-Serif" font-size="10.00">sys/socket.h</text>
</a>
</g>
</g>
<!-- Node13&#45;&gt;Node19 -->
<g id="edge20" class="edge"><title>Node13&#45;&gt;Node19</title>
<path fill="none" stroke="midnightblue" d="M570.648,-56.4435C590.965,-47.5961 622.903,-33.6875 646.098,-23.5865"/>
<polygon fill="midnightblue" stroke="midnightblue" points="647.673,-26.7181 655.444,-19.5164 644.878,-20.3002 647.673,-26.7181"/>
</g>
<!-- Node20 -->
<g id="node20" class="node"><title>Node20</title>
<g id="a_node20"><a xlink:title=" ">
<polygon fill="white" stroke="#bfbfbf" points="730,-0.5 730,-19.5 798,-19.5 798,-0.5 730,-0.5"/>
<text text-anchor="middle" x="764" y="-7.5" font-family="Helvetica,sans-Serif" font-size="10.00">sys/types.h</text>
</a>
</g>
</g>
<!-- Node13&#45;&gt;Node20 -->
<g id="edge21" class="edge"><title>Node13&#45;&gt;Node20</title>
<path fill="none" stroke="midnightblue" d="M582.429,-57.0321C618.991,-47.7628 679.571,-32.4045 720.604,-22.0019"/>
<polygon fill="midnightblue" stroke="midnightblue" points="721.497,-25.3862 730.33,-19.536 719.777,-18.6008 721.497,-25.3862"/>
</g>
<!-- Node21 -->
<g id="node21" class="node"><title>Node21</title>
<g id="a_node21"><a xlink:title=" ">
<polygon fill="white" stroke="#bfbfbf" points="816.5,-0.5 816.5,-19.5 867.5,-19.5 867.5,-0.5 816.5,-0.5"/>
<text text-anchor="middle" x="842" y="-7.5" font-family="Helvetica,sans-Serif" font-size="10.00">unistd.h</text>
</a>
</g>
</g>
<!-- Node13&#45;&gt;Node21 -->
<g id="edge22" class="edge"><title>Node13&#45;&gt;Node21</title>
<path fill="none" stroke="midnightblue" d="M582.408,-57.7582C585.308,-57.1424 588.206,-56.5468 591,-56 683.435,-37.913 710.08,-39.9778 806.569,-19.9219"/>
<polygon fill="midnightblue" stroke="midnightblue" points="807.381,-23.3279 816.446,-17.8432 805.939,-16.4779 807.381,-23.3279"/>
</g>
<!-- Node22&#45;&gt;Node5 -->
<g id="edge25" class="edge"><title>Node22&#45;&gt;Node5</title>
<path fill="none" stroke="midnightblue" d="M195.366,-113.92C164.254,-105.628 110.981,-91.365 55.9842,-76.2499"/>
<polygon fill="midnightblue" stroke="midnightblue" points="56.6339,-72.7986 46.0636,-73.5192 54.7762,-79.5476 56.6339,-72.7986"/>
</g>
<!-- Node22&#45;&gt;Node7 -->
<g id="edge28" class="edge"><title>Node22&#45;&gt;Node7</title>
<path fill="none" stroke="midnightblue" d="M234.693,-112.324C246.901,-103.979 265.578,-91.2122 280.003,-81.3524"/>
<polygon fill="midnightblue" stroke="midnightblue" points="282.058,-84.1871 288.339,-75.6545 278.108,-78.4082 282.058,-84.1871"/>
</g>
<!-- Node23 -->
<g id="node23" class="node"><title>Node23</title>
<g id="a_node23"><a xlink:title=" ">
<polygon fill="white" stroke="#bfbfbf" points="388,-56.5 388,-75.5 434,-75.5 434,-56.5 388,-56.5"/>
<text text-anchor="middle" x="411" y="-63.5" font-family="Helvetica,sans-Serif" font-size="10.00">cstring</text>
</a>
</g>
</g>
<!-- Node22&#45;&gt;Node23 -->
<g id="edge26" class="edge"><title>Node22&#45;&gt;Node23</title>
<path fill="none" stroke="midnightblue" d="M248.678,-113.378C282.627,-103.678 341.256,-86.9268 377.986,-76.4325"/>
<polygon fill="midnightblue" stroke="midnightblue" points="379.073,-79.7622 387.726,-73.6496 377.15,-73.0315 379.073,-79.7622"/>
</g>
<!-- Node24 -->
<g id="node24" class="node"><title>Node24</title>
<g id="a_node24"><a xlink:title=" ">
<polygon fill="white" stroke="#bfbfbf" points="64,-56.5 64,-75.5 128,-75.5 128,-56.5 64,-56.5"/>
<text text-anchor="middle" x="96" y="-63.5" font-family="Helvetica,sans-Serif" font-size="10.00">string_view</text>
</a>
</g>
</g>
<!-- Node22&#45;&gt;Node24 -->
<g id="edge27" class="edge"><title>Node22&#45;&gt;Node24</title>
<path fill="none" stroke="midnightblue" d="M202.035,-112.444C181.391,-103.596 148.937,-89.6875 125.368,-79.5865"/>
<polygon fill="midnightblue" stroke="midnightblue" points="126.442,-76.2387 115.872,-75.5164 123.684,-82.6727 126.442,-76.2387"/>
</g>
<!-- Node25 -->
<g id="node25" class="node"><title>Node25</title>
<g id="a_node25"><a xlink:href="useful__base__types_8h.html" target="_top" xlink:title=" ">
<polygon fill="white" stroke="black" points="146,-56.5 146,-75.5 252,-75.5 252,-56.5 146,-56.5"/>
<text text-anchor="middle" x="199" y="-63.5" font-family="Helvetica,sans-Serif" font-size="10.00">useful_base_types.h</text>
</a>
</g>
</g>
<!-- Node22&#45;&gt;Node25 -->
<g id="edge29" class="edge"><title>Node22&#45;&gt;Node25</title>
<path fill="none" stroke="midnightblue" d="M218.202,-112.083C215.087,-104.77 210.577,-94.1814 206.711,-85.1034"/>
<polygon fill="midnightblue" stroke="midnightblue" points="209.866,-83.5798 202.727,-75.7511 203.426,-86.3229 209.866,-83.5798"/>
</g>
<!-- Node26&#45;&gt;Node6 -->
<g id="edge34" class="edge"><title>Node26&#45;&gt;Node6</title>
<path fill="none" stroke="midnightblue" d="M611.838,-117.519C655.932,-110.447 758.976,-93.7066 855.897,-76.1635"/>
<polygon fill="midnightblue" stroke="midnightblue" points="856.646,-79.5849 865.859,-74.3535 855.394,-72.6977 856.646,-79.5849"/>
</g>
<!-- Node26&#45;&gt;Node7 -->
<g id="edge35" class="edge"><title>Node26&#45;&gt;Node7</title>
<path fill="none" stroke="midnightblue" d="M568.278,-116.941C520.28,-107.973 404.523,-86.3434 342.267,-74.7107"/>
<polygon fill="midnightblue" stroke="midnightblue" points="342.86,-71.2612 332.388,-72.8648 341.575,-78.1421 342.86,-71.2612"/>
</g>
<!-- Node26&#45;&gt;Node13 -->
<g id="edge37" class="edge"><title>Node26&#45;&gt;Node13</title>
<path fill="none" stroke="midnightblue" d="M583.56,-112.083C578.051,-104.455 569.969,-93.2645 563.235,-83.9408"/>
<polygon fill="midnightblue" stroke="midnightblue" points="566.013,-81.8087 557.32,-75.7511 560.338,-85.9071 566.013,-81.8087"/>
</g>
<!-- Node26&#45;&gt;Node23 -->
<g id="edge33" class="edge"><title>Node26&#45;&gt;Node23</title>
<path fill="none" stroke="midnightblue" d="M568.408,-114.486C537.385,-105.127 479.955,-87.802 443.705,-76.8665"/>
<polygon fill="midnightblue" stroke="midnightblue" points="444.667,-73.5009 434.082,-73.9634 442.645,-80.2025 444.667,-73.5009"/>
</g>
<!-- Node27 -->
<g id="node27" class="node"><title>Node27</title>
<g id="a_node27"><a xlink:title=" ">
<polygon fill="white" stroke="#bfbfbf" points="600,-56.5 600,-75.5 660,-75.5 660,-56.5 600,-56.5"/>
<text text-anchor="middle" x="630" y="-63.5" font-family="Helvetica,sans-Serif" font-size="10.00">fmt/core.h</text>
</a>
</g>
</g>
<!-- Node26&#45;&gt;Node27 -->
<g id="edge31" class="edge"><title>Node26&#45;&gt;Node27</title>
<path fill="none" stroke="midnightblue" d="M596.605,-112.083C602.255,-104.455 610.545,-93.2645 617.451,-83.9408"/>
<polygon fill="midnightblue" stroke="midnightblue" points="620.378,-85.87 623.518,-75.7511 614.753,-81.7034 620.378,-85.87"/>
</g>
<!-- Node28 -->
<g id="node28" class="node"><title>Node28</title>
<g id="a_node28"><a xlink:title=" ">
<polygon fill="white" stroke="#bfbfbf" points="678,-56.5 678,-75.5 746,-75.5 746,-56.5 678,-56.5"/>
<text text-anchor="middle" x="712" y="-63.5" font-family="Helvetica,sans-Serif" font-size="10.00">fmt/format.h</text>
</a>
</g>
</g>
<!-- Node26&#45;&gt;Node28 -->
<g id="edge32" class="edge"><title>Node26&#45;&gt;Node28</title>
<path fill="none" stroke="midnightblue" d="M609.331,-112.444C629.32,-103.596 660.743,-89.6875 683.564,-79.5865"/>
<polygon fill="midnightblue" stroke="midnightblue" points="685.032,-82.7645 692.759,-75.5164 682.198,-76.3635 685.032,-82.7645"/>
</g>
<!-- Node29 -->
<g id="node29" class="node"><title>Node29</title>
<g id="a_node29"><a xlink:title=" ">
<polygon fill="white" stroke="#bfbfbf" points="764.5,-56.5 764.5,-75.5 847.5,-75.5 847.5,-56.5 764.5,-56.5"/>
<text text-anchor="middle" x="806" y="-63.5" font-family="Helvetica,sans-Serif" font-size="10.00">unordered_map</text>
</a>
</g>
</g>
<!-- Node26&#45;&gt;Node29 -->
<g id="edge36" class="edge"><title>Node26&#45;&gt;Node29</title>
<path fill="none" stroke="midnightblue" d="M611.501,-115.625C646.421,-106.895 716.16,-89.46 761.942,-78.0144"/>
<polygon fill="midnightblue" stroke="midnightblue" points="763.041,-81.3476 771.893,-75.5267 761.343,-74.5566 763.041,-81.3476"/>
</g>
</g>
</svg>
        <g id="navigator" transform="translate(0 0)" fill="#404254">
                <rect fill="#f2f5e9" fill-opacity="0.5" stroke="#606060" stroke-width=".5" x="0" y="0" width="60" height="60"/>
                <use id="zoomplus" xlink:href="#zoomPlus" x="17" y="9" onmousedown="handleZoom(evt,'in')"/>
                <use id="zoomminus" xlink:href="#zoomMin" x="42" y="9" onmousedown="handleZoom(evt,'out')"/>
                <use id="reset" xlink:href="#resetDef" x="30" y="36" onmousedown="handleReset()"/>
                <g id="arrowUp" xlink:href="#dirArrow" transform="translate(30 24)" onmousedown="handlePan(0,-1)">
                  <use xlink:href="#rim" fill="#404040">
                        <set attributeName="fill" to="#808080" begin="arrowUp.mouseover" end="arrowUp.mouseout"/>
                  </use>
                  <path fill="none" stroke="white" stroke-width="1.5" d="M0,-3.0v7 M-2.5,-0.5L0,-3.0L2.5,-0.5"/>
                </g>
                <g id="arrowRight" xlink:href="#dirArrow" transform="rotate(90) translate(36 -43)" onmousedown="handlePan(1,0)">
                  <use xlink:href="#rim" fill="#404040">
                        <set attributeName="fill" to="#808080" begin="arrowRight.mouseover" end="arrowRight.mouseout"/>
                  </use>
                  <path fill="none" stroke="white" stroke-width="1.5" d="M0,-3.0v7 M-2.5,-0.5L0,-3.0L2.5,-0.5"/>
                </g>
                <g id="arrowDown" xlink:href="#dirArrow" transform="rotate(180) translate(-30 -48)" onmousedown="handlePan(0,1)">
                  <use xlink:href="#rim" fill="#404040">
                        <set attributeName="fill" to="#808080" begin="arrowDown.mouseover" end="arrowDown.mouseout"/>
                  </use>
                  <path fill="none" stroke="white" stroke-width="1.5" d="M0,-3.0v7 M-2.5,-0.5L0,-3.0L2.5,-0.5"/>
                </g>
                <g id="arrowLeft" xlink:href="#dirArrow" transform="rotate(270) translate(-36 17)" onmousedown="handlePan(-1,0)">
                  <use xlink:href="#rim" fill="#404040">
                        <set attributeName="fill" to="#808080" begin="arrowLeft.mouseover" end="arrowLeft.mouseout"/>
                  </use>
                  <path fill="none" stroke="white" stroke-width="1.5" d="M0,-3.0v7 M-2.5,-0.5L0,-3.0L2.5,-0.5"/>
                </g>
        </g>
        <svg viewBox="0 0 15 15" width="100%" height="30px" preserveAspectRatio="xMaxYMin meet">
         <g id="arrow_out" transform="scale(0.3 0.3)">
          <a xlink:href="packet_8cpp__incl_org.svg" target="_base">
           <rect id="button" ry="5" rx="5" y="6" x="6" height="38" width="38"
                fill="#f2f5e9" fill-opacity="0.5" stroke="#606060" stroke-width="1.0"/>
           <path id="arrow"
             d="M 11.500037,31.436501 C 11.940474,20.09759 22.043105,11.32322 32.158766,21.979434 L 37.068811,17.246167 C 37.068811,17.246167 37.088388,32 37.088388,32 L 22.160133,31.978069 C 22.160133,31.978069 26.997745,27.140456 26.997745,27.140456 C 18.528582,18.264221 13.291696,25.230495 11.500037,31.436501 z"
             style="fill:#404040;"/>
          </a>
         </g>
        </svg>
</svg>
