<?xml version="1.0" encoding="UTF-8" standalone="no"?>
<!DOCTYPE svg PUBLIC "-//W3C//DTD SVG 1.1//EN"
 "http://www.w3.org/Graphics/SVG/1.1/DTD/svg11.dtd">
<!-- Generated by graphviz version 2.38.0 (20140413.2041)
 -->
<!-- Title: C:/projects/ndt/sources/include/ndt/packet_handlers.h Pages: 1 -->
<!--zoomable 263 -->
<svg id="main" version="1.1" xmlns="http://www.w3.org/2000/svg" xmlns:xlink="http://www.w3.org/1999/xlink" xml:space="preserve" onload="init(evt)">
<style type="text/css"><![CDATA[
.edge:hover path { stroke: red; }
.edge:hover polygon { stroke: red; fill: red; }
]]></style>
<script type="text/javascript"><![CDATA[
var edges = document.getElementsByTagName('g');
if (edges && edges.length) {
  for (var i=0;i<edges.length;i++) {
    if (edges[i].id.substr(0,4)=='edge') {
      edges[i].setAttribute('class','edge');
    }
  }
}
]]></script>
        <defs>
                <circle id="rim" cx="0" cy="0" r="7"/>
                <circle id="rim2" cx="0" cy="0" r="3.5"/>
                <g id="zoomPlus">
                        <use xlink:href="#rim" fill="#404040">
                                <set attributeName="fill" to="#808080" begin="zoomplus.mouseover" end="zoomplus.mouseout"/>
                        </use>
                        <path d="M-4,0h8M0,-4v8" fill="none" stroke="white" stroke-width="1.5" pointer-events="none"/>
                </g>
                <g id="zoomMin">
                        <use xlink:href="#rim" fill="#404040">
                                <set attributeName="fill" to="#808080" begin="zoomminus.mouseover" end="zoomminus.mouseout"/>
                        </use>
                        <path d="M-4,0h8" fill="none" stroke="white" stroke-width="1.5" pointer-events="none"/>
                </g>
                <g id="dirArrow">
                        <path fill="none" stroke="white" stroke-width="1.5" d="M0,-3.0v7 M-2.5,-0.5L0,-3.0L2.5,-0.5"/>
                </g>
               <g id="resetDef">
                       <use xlink:href="#rim2" fill="#404040">
                               <set attributeName="fill" to="#808080" begin="reset.mouseover" end="reset.mouseout"/>
                       </use>
               </g>
        </defs>

<script type="text/javascript">
var viewWidth = 1066;
var viewHeight = 263;
var sectionId = 'dynsection-0';
</script>
<script xlink:href="svgpan.js"/>
<svg id="graph" class="graph">
<g id="viewport">
<title>C:/projects/ndt/sources/include/ndt/packet_handlers.h</title>
<polygon fill="white" stroke="none" points="-4,4 -4,-259 1062,-259 1062,4 -4,4"/>
<!-- Node1 -->
<g id="node1" class="node"><title>Node1</title>
<g id="a_node1"><a xlink:title=" ">
<polygon fill="#bfbfbf" stroke="black" points="404.5,-224.5 404.5,-254.5 553.5,-254.5 553.5,-224.5 404.5,-224.5"/>
<text text-anchor="start" x="412.5" y="-242.5" font-family="Helvetica,sans-Serif" font-size="10.00">C:/projects/ndt/sources</text>
<text text-anchor="middle" x="479" y="-231.5" font-family="Helvetica,sans-Serif" font-size="10.00">/include/ndt/packet_handlers.h</text>
</a>
</g>
</g>
<!-- Node2 -->
<g id="node2" class="node"><title>Node2</title>
<g id="a_node2"><a xlink:title=" ">
<polygon fill="white" stroke="#bfbfbf" points="1020,-56.5 1020,-75.5 1058,-75.5 1058,-56.5 1020,-56.5"/>
<text text-anchor="middle" x="1039" y="-63.5" font-family="Helvetica,sans-Serif" font-size="10.00">array</text>
</a>
</g>
</g>
<!-- Node1&#45;&gt;Node2 -->
<g id="edge1" class="edge"><title>Node1&#45;&gt;Node2</title>
<path fill="none" stroke="midnightblue" d="M513.833,-224.37C551.494,-209.362 613.462,-185.442 668,-168 815.249,-120.907 857.863,-120.599 1010.05,-76.1708"/>
<polygon fill="midnightblue" stroke="midnightblue" points="1011.15,-79.4967 1019.76,-73.3213 1009.18,-72.7802 1011.15,-79.4967"/>
</g>
<!-- Node3 -->
<g id="node3" class="node"><title>Node3</title>
<g id="a_node3"><a xlink:title=" ">
<polygon fill="white" stroke="#bfbfbf" points="677,-168.5 677,-187.5 735,-187.5 735,-168.5 677,-168.5"/>
<text text-anchor="middle" x="706" y="-175.5" font-family="Helvetica,sans-Serif" font-size="10.00">functional</text>
</a>
</g>
</g>
<!-- Node1&#45;&gt;Node3 -->
<g id="edge2" class="edge"><title>Node1&#45;&gt;Node3</title>
<path fill="none" stroke="midnightblue" d="M532.508,-224.475C573.724,-213.672 629.75,-198.986 666.85,-189.262"/>
<polygon fill="midnightblue" stroke="midnightblue" points="667.999,-192.579 676.785,-186.658 666.224,-185.808 667.999,-192.579"/>
</g>
<!-- Node4 -->
<g id="node4" class="node"><title>Node4</title>
<g id="a_node4"><a xlink:title=" ">
<polygon fill="white" stroke="#bfbfbf" points="332,-56.5 332,-75.5 394,-75.5 394,-56.5 332,-56.5"/>
<text text-anchor="middle" x="363" y="-63.5" font-family="Helvetica,sans-Serif" font-size="10.00">type_traits</text>
</a>
</g>
</g>
<!-- Node1&#45;&gt;Node4 -->
<g id="edge3" class="edge"><title>Node1&#45;&gt;Node4</title>
<path fill="none" stroke="midnightblue" d="M475.15,-224.366C467.891,-199.61 450.317,-147.649 422,-112 412.295,-99.7818 398.565,-89.0516 386.792,-81.1366"/>
<polygon fill="midnightblue" stroke="midnightblue" points="388.574,-78.1209 378.27,-75.6546 384.787,-84.0082 388.574,-78.1209"/>
</g>
<!-- Node5 -->
<g id="node5" class="node"><title>Node5</title>
<g id="a_node5"><a xlink:title=" ">
<polygon fill="white" stroke="#bfbfbf" points="0,-56.5 0,-75.5 40,-75.5 40,-56.5 0,-56.5"/>
<text text-anchor="middle" x="20" y="-63.5" font-family="Helvetica,sans-Serif" font-size="10.00">utility</text>
</a>
</g>
</g>
<!-- Node1&#45;&gt;Node5 -->
<g id="edge4" class="edge"><title>Node1&#45;&gt;Node5</title>
<path fill="none" stroke="midnightblue" d="M440.758,-224.484C385.554,-204.222 280.349,-165.501 191,-132 141.333,-113.378 83.6899,-91.3882 49.6172,-78.3511"/>
<polygon fill="midnightblue" stroke="midnightblue" points="50.8367,-75.0703 40.2463,-74.7639 48.3341,-81.6077 50.8367,-75.0703"/>
</g>
<!-- Node6 -->
<g id="node6" class="node"><title>Node6</title>
<g id="a_node6"><a xlink:href="bin__rw_8h.html" target="_top" xlink:title=" ">
<polygon fill="white" stroke="black" points="358.5,-168.5 358.5,-187.5 411.5,-187.5 411.5,-168.5 358.5,-168.5"/>
<text text-anchor="middle" x="385" y="-175.5" font-family="Helvetica,sans-Serif" font-size="10.00">bin_rw.h</text>
</a>
</g>
</g>
<!-- Node1&#45;&gt;Node6 -->
<g id="edge5" class="edge"><title>Node1&#45;&gt;Node6</title>
<path fill="none" stroke="midnightblue" d="M456.723,-224.399C441.797,-214.951 422.219,-202.559 407.29,-193.109"/>
<polygon fill="midnightblue" stroke="midnightblue" points="408.999,-190.049 398.678,-187.658 405.255,-195.964 408.999,-190.049"/>
</g>
<!-- Node26 -->
<g id="node26" class="node"><title>Node26</title>
<g id="a_node26"><a xlink:href="utils_8h.html" target="_top" xlink:title=" ">
<polygon fill="white" stroke="black" points="577.5,-112.5 577.5,-131.5 620.5,-131.5 620.5,-112.5 577.5,-112.5"/>
<text text-anchor="middle" x="599" y="-119.5" font-family="Helvetica,sans-Serif" font-size="10.00">utils.h</text>
</a>
</g>
</g>
<!-- Node1&#45;&gt;Node26 -->
<g id="edge42" class="edge"><title>Node1&#45;&gt;Node26</title>
<path fill="none" stroke="midnightblue" d="M493.714,-224.337C516.22,-202.676 559.049,-161.453 582.551,-138.832"/>
<polygon fill="midnightblue" stroke="midnightblue" points="585.215,-141.126 589.993,-131.669 580.361,-136.082 585.215,-141.126"/>
</g>
<!-- Node6&#45;&gt;Node4 -->
<g id="edge8" class="edge"><title>Node6&#45;&gt;Node4</title>
<path fill="none" stroke="midnightblue" d="M374.562,-168.245C365.576,-159.969 353.254,-146.663 348,-132 342.451,-116.515 347.677,-98.2046 353.429,-84.9704"/>
<polygon fill="midnightblue" stroke="midnightblue" points="356.76,-86.1227 357.96,-75.596 350.457,-83.0767 356.76,-86.1227"/>
</g>
<!-- Node7 -->
<g id="node7" class="node"><title>Node7</title>
<g id="a_node7"><a xlink:title=" ">
<polygon fill="white" stroke="#bfbfbf" points="357,-112.5 357,-131.5 413,-131.5 413,-112.5 357,-112.5"/>
<text text-anchor="middle" x="385" y="-119.5" font-family="Helvetica,sans-Serif" font-size="10.00">algorithm</text>
</a>
</g>
</g>
<!-- Node6&#45;&gt;Node7 -->
<g id="edge6" class="edge"><title>Node6&#45;&gt;Node7</title>
<path fill="none" stroke="midnightblue" d="M385,-168.083C385,-161.006 385,-150.861 385,-141.986"/>
<polygon fill="midnightblue" stroke="midnightblue" points="388.5,-141.751 385,-131.751 381.5,-141.751 388.5,-141.751"/>
</g>
<!-- Node8 -->
<g id="node8" class="node"><title>Node8</title>
<g id="a_node8"><a xlink:title=" ">
<polygon fill="white" stroke="#bfbfbf" points="268,-56.5 268,-75.5 314,-75.5 314,-56.5 268,-56.5"/>
<text text-anchor="middle" x="291" y="-63.5" font-family="Helvetica,sans-Serif" font-size="10.00">cstring</text>
</a>
</g>
</g>
<!-- Node6&#45;&gt;Node8 -->
<g id="edge7" class="edge"><title>Node6&#45;&gt;Node8</title>
<path fill="none" stroke="midnightblue" d="M376.171,-168.274C367.288,-159.378 353.322,-145.067 342,-132 328.263,-116.146 313.577,-97.1923 303.509,-83.8548"/>
<polygon fill="midnightblue" stroke="midnightblue" points="306.142,-81.5313 297.345,-75.6256 300.539,-85.7277 306.142,-81.5313"/>
</g>
<!-- Node9 -->
<g id="node9" class="node"><title>Node9</title>
<g id="a_node9"><a xlink:href="buffer_8h.html" target="_top" xlink:title=" ">
<polygon fill="white" stroke="black" points="469,-112.5 469,-131.5 517,-131.5 517,-112.5 469,-112.5"/>
<text text-anchor="middle" x="493" y="-119.5" font-family="Helvetica,sans-Serif" font-size="10.00">buffer.h</text>
</a>
</g>
</g>
<!-- Node6&#45;&gt;Node9 -->
<g id="edge9" class="edge"><title>Node6&#45;&gt;Node9</title>
<path fill="none" stroke="midnightblue" d="M402.352,-168.324C419.672,-159.664 446.515,-146.242 466.502,-136.249"/>
<polygon fill="midnightblue" stroke="midnightblue" points="468.312,-139.257 475.691,-131.655 465.181,-132.996 468.312,-139.257"/>
</g>
<!-- Node23 -->
<g id="node23" class="node"><title>Node23</title>
<g id="a_node23"><a xlink:href="endian_8h.html" target="_top" xlink:title=" ">
<polygon fill="white" stroke="black" points="200.5,-112.5 200.5,-131.5 253.5,-131.5 253.5,-112.5 200.5,-112.5"/>
<text text-anchor="middle" x="227" y="-119.5" font-family="Helvetica,sans-Serif" font-size="10.00">endian.h</text>
</a>
</g>
</g>
<!-- Node6&#45;&gt;Node23 -->
<g id="edge25" class="edge"><title>Node6&#45;&gt;Node23</title>
<path fill="none" stroke="midnightblue" d="M359.964,-168.444C333.384,-159.359 291.191,-144.939 261.477,-134.783"/>
<polygon fill="midnightblue" stroke="midnightblue" points="262.513,-131.439 251.918,-131.516 260.249,-138.062 262.513,-131.439"/>
</g>
<!-- Node6&#45;&gt;Node26 -->
<g id="edge32" class="edge"><title>Node6&#45;&gt;Node26</title>
<path fill="none" stroke="midnightblue" d="M411.671,-170.27C451.315,-160.266 525.629,-141.514 567.761,-130.883"/>
<polygon fill="midnightblue" stroke="midnightblue" points="568.65,-134.268 577.489,-128.428 566.937,-127.481 568.65,-134.268"/>
</g>
<!-- Node9&#45;&gt;Node4 -->
<g id="edge14" class="edge"><title>Node9&#45;&gt;Node4</title>
<path fill="none" stroke="midnightblue" d="M472.401,-112.444C451.007,-103.557 417.319,-89.5632 392.976,-79.4514"/>
<polygon fill="midnightblue" stroke="midnightblue" points="394.08,-76.1203 383.503,-75.5164 391.395,-82.5848 394.08,-76.1203"/>
</g>
<!-- Node10 -->
<g id="node10" class="node"><title>Node10</title>
<g id="a_node10"><a xlink:title=" ">
<polygon fill="white" stroke="#bfbfbf" points="412.5,-56.5 412.5,-75.5 461.5,-75.5 461.5,-56.5 412.5,-56.5"/>
<text text-anchor="middle" x="437" y="-63.5" font-family="Helvetica,sans-Serif" font-size="10.00">cassert</text>
</a>
</g>
</g>
<!-- Node9&#45;&gt;Node10 -->
<g id="edge10" class="edge"><title>Node9&#45;&gt;Node10</title>
<path fill="none" stroke="midnightblue" d="M484.003,-112.324C475.806,-104.42 463.494,-92.5482 453.528,-82.9377"/>
<polygon fill="midnightblue" stroke="midnightblue" points="455.789,-80.2558 446.161,-75.8339 450.93,-85.2947 455.789,-80.2558"/>
</g>
<!-- Node11 -->
<g id="node11" class="node"><title>Node11</title>
<g id="a_node11"><a xlink:title=" ">
<polygon fill="white" stroke="#bfbfbf" points="333,-0.5 333,-19.5 381,-19.5 381,-0.5 333,-0.5"/>
<text text-anchor="middle" x="357" y="-7.5" font-family="Helvetica,sans-Serif" font-size="10.00">cstddef</text>
</a>
</g>
</g>
<!-- Node9&#45;&gt;Node11 -->
<g id="edge11" class="edge"><title>Node9&#45;&gt;Node11</title>
<path fill="none" stroke="midnightblue" d="M492.189,-112.234C490.47,-98.5083 485.269,-71.8742 470,-56 458.706,-44.258 419.972,-30.3218 390.981,-21.1027"/>
<polygon fill="midnightblue" stroke="midnightblue" points="391.782,-17.6864 381.194,-18.0498 389.698,-24.3689 391.782,-17.6864"/>
</g>
<!-- Node12 -->
<g id="node12" class="node"><title>Node12</title>
<g id="a_node12"><a xlink:title=" ">
<polygon fill="white" stroke="#bfbfbf" points="204,-56.5 204,-75.5 250,-75.5 250,-56.5 204,-56.5"/>
<text text-anchor="middle" x="227" y="-63.5" font-family="Helvetica,sans-Serif" font-size="10.00">cstdint</text>
</a>
</g>
</g>
<!-- Node9&#45;&gt;Node12 -->
<g id="edge12" class="edge"><title>Node9&#45;&gt;Node12</title>
<path fill="none" stroke="midnightblue" d="M468.941,-117.062C427.994,-110.212 341.974,-95.186 259.757,-76.018"/>
<polygon fill="midnightblue" stroke="midnightblue" points="260.548,-72.6086 250.012,-73.7219 258.943,-79.4221 260.548,-72.6086"/>
</g>
<!-- Node13 -->
<g id="node13" class="node"><title>Node13</title>
<g id="a_node13"><a xlink:title=" ">
<polygon fill="white" stroke="#bfbfbf" points="518,-56.5 518,-75.5 592,-75.5 592,-56.5 518,-56.5"/>
<text text-anchor="middle" x="555" y="-63.5" font-family="Helvetica,sans-Serif" font-size="10.00">system_error</text>
</a>
</g>
</g>
<!-- Node9&#45;&gt;Node13 -->
<g id="edge13" class="edge"><title>Node9&#45;&gt;Node13</title>
<path fill="none" stroke="midnightblue" d="M502.961,-112.324C512.127,-104.341 525.937,-92.3128 537.028,-82.6529"/>
<polygon fill="midnightblue" stroke="midnightblue" points="539.615,-85.041 544.857,-75.8339 535.018,-79.7624 539.615,-85.041"/>
</g>
<!-- Node14 -->
<g id="node14" class="node"><title>Node14</title>
<g id="a_node14"><a xlink:href="common_8h.html" target="_top" xlink:title="Header with typedefs to make type designation platform independent.">
<polygon fill="white" stroke="black" points="610,-56.5 610,-75.5 672,-75.5 672,-56.5 610,-56.5"/>
<text text-anchor="middle" x="641" y="-63.5" font-family="Helvetica,sans-Serif" font-size="10.00">common.h</text>
</a>
</g>
</g>
<!-- Node9&#45;&gt;Node14 -->
<g id="edge15" class="edge"><title>Node9&#45;&gt;Node14</title>
<path fill="none" stroke="midnightblue" d="M516.451,-112.444C541.133,-103.438 580.185,-89.1891 607.977,-79.049"/>
<polygon fill="midnightblue" stroke="midnightblue" points="609.464,-82.2321 617.659,-75.5164 607.065,-75.6561 609.464,-82.2321"/>
</g>
<!-- Node14&#45;&gt;Node11 -->
<g id="edge24" class="edge"><title>Node14&#45;&gt;Node11</title>
<path fill="none" stroke="midnightblue" d="M609.59,-57.7697C606.69,-57.1514 603.793,-56.5521 601,-56 510.772,-38.1648 484.61,-40.3651 390.975,-20.0349"/>
<polygon fill="midnightblue" stroke="midnightblue" points="391.602,-16.5892 381.083,-17.8588 390.098,-23.4257 391.602,-16.5892"/>
</g>
<!-- Node15 -->
<g id="node15" class="node"><title>Node15</title>
<g id="a_node15"><a xlink:title=" ">
<polygon fill="white" stroke="#bfbfbf" points="647,-0.5 647,-19.5 709,-19.5 709,-0.5 647,-0.5"/>
<text text-anchor="middle" x="678" y="-7.5" font-family="Helvetica,sans-Serif" font-size="10.00">arpa/inet.h</text>
</a>
</g>
</g>
<!-- Node14&#45;&gt;Node15 -->
<g id="edge16" class="edge"><title>Node14&#45;&gt;Node15</title>
<path fill="none" stroke="midnightblue" d="M647.11,-56.083C652.282,-48.5341 659.846,-37.4948 666.194,-28.2298"/>
<polygon fill="midnightblue" stroke="midnightblue" points="669.239,-29.9787 672.004,-19.7511 663.464,-26.0221 669.239,-29.9787"/>
</g>
<!-- Node16 -->
<g id="node16" class="node"><title>Node16</title>
<g id="a_node16"><a xlink:title=" ">
<polygon fill="white" stroke="#bfbfbf" points="727.5,-0.5 727.5,-19.5 774.5,-19.5 774.5,-0.5 727.5,-0.5"/>
<text text-anchor="middle" x="751" y="-7.5" font-family="Helvetica,sans-Serif" font-size="10.00">errno.h</text>
</a>
</g>
</g>
<!-- Node14&#45;&gt;Node16 -->
<g id="edge17" class="edge"><title>Node14&#45;&gt;Node16</title>
<path fill="none" stroke="midnightblue" d="M658.673,-56.324C676.394,-47.6247 703.903,-34.1202 724.288,-24.113"/>
<polygon fill="midnightblue" stroke="midnightblue" points="725.936,-27.2031 733.37,-19.6545 722.851,-20.9195 725.936,-27.2031"/>
</g>
<!-- Node17 -->
<g id="node17" class="node"><title>Node17</title>
<g id="a_node17"><a xlink:title=" ">
<polygon fill="white" stroke="#bfbfbf" points="792.5,-0.5 792.5,-19.5 835.5,-19.5 835.5,-0.5 792.5,-0.5"/>
<text text-anchor="middle" x="814" y="-7.5" font-family="Helvetica,sans-Serif" font-size="10.00">fcntl.h</text>
</a>
</g>
</g>
<!-- Node14&#45;&gt;Node17 -->
<g id="edge18" class="edge"><title>Node14&#45;&gt;Node17</title>
<path fill="none" stroke="midnightblue" d="M668.412,-56.4435C699.448,-46.7561 749.923,-31.0008 782.54,-20.8199"/>
<polygon fill="midnightblue" stroke="midnightblue" points="783.952,-24.0458 792.455,-17.7251 781.866,-17.3637 783.952,-24.0458"/>
</g>
<!-- Node18 -->
<g id="node18" class="node"><title>Node18</title>
<g id="a_node18"><a xlink:title=" ">
<polygon fill="white" stroke="#bfbfbf" points="853.5,-0.5 853.5,-19.5 902.5,-19.5 902.5,-0.5 853.5,-0.5"/>
<text text-anchor="middle" x="878" y="-7.5" font-family="Helvetica,sans-Serif" font-size="10.00">netdb.h</text>
</a>
</g>
</g>
<!-- Node14&#45;&gt;Node18 -->
<g id="edge19" class="edge"><title>Node14&#45;&gt;Node18</title>
<path fill="none" stroke="midnightblue" d="M672.005,-58.007C675.044,-57.3267 678.082,-56.6486 681,-56 750.717,-40.5052 770.829,-38.02 843.108,-20.3851"/>
<polygon fill="midnightblue" stroke="midnightblue" points="844.291,-23.6987 853.168,-17.9156 842.622,-16.9005 844.291,-23.6987"/>
</g>
<!-- Node19 -->
<g id="node19" class="node"><title>Node19</title>
<g id="a_node19"><a xlink:title=" ">
<polygon fill="white" stroke="#bfbfbf" points="920.5,-0.5 920.5,-19.5 985.5,-19.5 985.5,-0.5 920.5,-0.5"/>
<text text-anchor="middle" x="953" y="-7.5" font-family="Helvetica,sans-Serif" font-size="10.00">netinet/in.h</text>
</a>
</g>
</g>
<!-- Node14&#45;&gt;Node19 -->
<g id="edge20" class="edge"><title>Node14&#45;&gt;Node19</title>
<path fill="none" stroke="midnightblue" d="M672.402,-57.7268C675.303,-57.1175 678.203,-56.532 681,-56 779.886,-37.1916 808.125,-39.0094 910.245,-20.2362"/>
<polygon fill="midnightblue" stroke="midnightblue" points="911.172,-23.6239 920.363,-18.3538 909.892,-16.742 911.172,-23.6239"/>
</g>
<!-- Node20 -->
<g id="node20" class="node"><title>Node20</title>
<g id="a_node20"><a xlink:title=" ">
<polygon fill="white" stroke="#bfbfbf" points="399.5,-0.5 399.5,-19.5 472.5,-19.5 472.5,-0.5 399.5,-0.5"/>
<text text-anchor="middle" x="436" y="-7.5" font-family="Helvetica,sans-Serif" font-size="10.00">sys/socket.h</text>
</a>
</g>
</g>
<!-- Node14&#45;&gt;Node20 -->
<g id="edge21" class="edge"><title>Node14&#45;&gt;Node20</title>
<path fill="none" stroke="midnightblue" d="M609.865,-56.7986C574.729,-47.5432 517.382,-32.4372 478.23,-22.124"/>
<polygon fill="midnightblue" stroke="midnightblue" points="479.007,-18.7095 468.446,-19.5467 477.224,-25.4786 479.007,-18.7095"/>
</g>
<!-- Node21 -->
<g id="node21" class="node"><title>Node21</title>
<g id="a_node21"><a xlink:title=" ">
<polygon fill="white" stroke="#bfbfbf" points="491,-0.5 491,-19.5 559,-19.5 559,-0.5 491,-0.5"/>
<text text-anchor="middle" x="525" y="-7.5" font-family="Helvetica,sans-Serif" font-size="10.00">sys/types.h</text>
</a>
</g>
</g>
<!-- Node14&#45;&gt;Node21 -->
<g id="edge22" class="edge"><title>Node14&#45;&gt;Node21</title>
<path fill="none" stroke="midnightblue" d="M622.619,-56.4435C603.784,-47.6751 574.269,-33.9355 552.621,-23.8579"/>
<polygon fill="midnightblue" stroke="midnightblue" points="553.838,-20.5637 543.295,-19.5164 550.883,-26.9098 553.838,-20.5637"/>
</g>
<!-- Node22 -->
<g id="node22" class="node"><title>Node22</title>
<g id="a_node22"><a xlink:title=" ">
<polygon fill="white" stroke="#bfbfbf" points="577.5,-0.5 577.5,-19.5 628.5,-19.5 628.5,-0.5 577.5,-0.5"/>
<text text-anchor="middle" x="603" y="-7.5" font-family="Helvetica,sans-Serif" font-size="10.00">unistd.h</text>
</a>
</g>
</g>
<!-- Node14&#45;&gt;Node22 -->
<g id="edge23" class="edge"><title>Node14&#45;&gt;Node22</title>
<path fill="none" stroke="midnightblue" d="M634.725,-56.083C629.358,-48.4554 621.482,-37.2645 614.921,-27.9408"/>
<polygon fill="midnightblue" stroke="midnightblue" points="617.775,-25.9149 609.158,-19.7511 612.051,-29.9434 617.775,-25.9149"/>
</g>
<!-- Node23&#45;&gt;Node4 -->
<g id="edge30" class="edge"><title>Node23&#45;&gt;Node4</title>
<path fill="none" stroke="midnightblue" d="M248.55,-112.444C271.031,-103.517 306.488,-89.4387 331.98,-79.3168"/>
<polygon fill="midnightblue" stroke="midnightblue" points="333.549,-82.4598 341.551,-75.5164 330.965,-75.9539 333.549,-82.4598"/>
</g>
<!-- Node23&#45;&gt;Node5 -->
<g id="edge31" class="edge"><title>Node23&#45;&gt;Node5</title>
<path fill="none" stroke="midnightblue" d="M200.344,-114.73C167.275,-106.851 108.961,-92.6253 50.076,-76.196"/>
<polygon fill="midnightblue" stroke="midnightblue" points="50.8146,-72.7681 40.2406,-73.4324 48.921,-79.5071 50.8146,-72.7681"/>
</g>
<!-- Node23&#45;&gt;Node8 -->
<g id="edge28" class="edge"><title>Node23&#45;&gt;Node8</title>
<path fill="none" stroke="midnightblue" d="M237.283,-112.324C246.836,-104.263 261.28,-92.0765 272.784,-82.3695"/>
<polygon fill="midnightblue" stroke="midnightblue" points="275.144,-84.9577 280.53,-75.8339 270.63,-79.6076 275.144,-84.9577"/>
</g>
<!-- Node23&#45;&gt;Node12 -->
<g id="edge27" class="edge"><title>Node23&#45;&gt;Node12</title>
<path fill="none" stroke="midnightblue" d="M227,-112.083C227,-105.006 227,-94.8611 227,-85.9865"/>
<polygon fill="midnightblue" stroke="midnightblue" points="230.5,-85.751 227,-75.7511 223.5,-85.7511 230.5,-85.751"/>
</g>
<!-- Node24 -->
<g id="node24" class="node"><title>Node24</title>
<g id="a_node24"><a xlink:title=" ">
<polygon fill="white" stroke="#bfbfbf" points="58.5,-56.5 58.5,-75.5 103.5,-75.5 103.5,-56.5 58.5,-56.5"/>
<text text-anchor="middle" x="81" y="-63.5" font-family="Helvetica,sans-Serif" font-size="10.00">climits</text>
</a>
</g>
</g>
<!-- Node23&#45;&gt;Node24 -->
<g id="edge26" class="edge"><title>Node23&#45;&gt;Node24</title>
<path fill="none" stroke="midnightblue" d="M203.866,-112.444C179.375,-103.385 140.539,-89.0213 113.094,-78.8705"/>
<polygon fill="midnightblue" stroke="midnightblue" points="114.139,-75.5253 103.546,-75.339 111.711,-82.0907 114.139,-75.5253"/>
</g>
<!-- Node25 -->
<g id="node25" class="node"><title>Node25</title>
<g id="a_node25"><a xlink:title=" ">
<polygon fill="white" stroke="#bfbfbf" points="122,-56.5 122,-75.5 186,-75.5 186,-56.5 122,-56.5"/>
<text text-anchor="middle" x="154" y="-63.5" font-family="Helvetica,sans-Serif" font-size="10.00">string_view</text>
</a>
</g>
</g>
<!-- Node23&#45;&gt;Node25 -->
<g id="edge29" class="edge"><title>Node23&#45;&gt;Node25</title>
<path fill="none" stroke="midnightblue" d="M215.271,-112.324C204.163,-104.107 187.258,-91.6017 174.017,-81.8069"/>
<polygon fill="midnightblue" stroke="midnightblue" points="176.063,-78.9671 165.942,-75.8339 171.9,-84.5948 176.063,-78.9671"/>
</g>
<!-- Node26&#45;&gt;Node2 -->
<g id="edge35" class="edge"><title>Node26&#45;&gt;Node2</title>
<path fill="none" stroke="midnightblue" d="M620.591,-115.046C625.311,-113.9 630.302,-112.808 635,-112 797.218,-84.1181 844.732,-108.875 1009.86,-75.7972"/>
<polygon fill="midnightblue" stroke="midnightblue" points="1010.77,-79.1829 1019.87,-73.7507 1009.37,-72.3248 1010.77,-79.1829"/>
</g>
<!-- Node26&#45;&gt;Node4 -->
<g id="edge39" class="edge"><title>Node26&#45;&gt;Node4</title>
<path fill="none" stroke="midnightblue" d="M577.221,-116.017C537.935,-107.028 454.622,-87.9643 404.255,-76.4396"/>
<polygon fill="midnightblue" stroke="midnightblue" points="404.868,-72.9895 394.339,-74.1708 403.306,-79.8132 404.868,-72.9895"/>
</g>
<!-- Node26&#45;&gt;Node8 -->
<g id="edge37" class="edge"><title>Node26&#45;&gt;Node8</title>
<path fill="none" stroke="midnightblue" d="M577.371,-118.317C532.139,-112.528 424.119,-97.773 324.285,-76.0823"/>
<polygon fill="midnightblue" stroke="midnightblue" points="324.861,-72.6252 314.342,-73.8924 323.355,-79.4614 324.861,-72.6252"/>
</g>
<!-- Node26&#45;&gt;Node13 -->
<g id="edge38" class="edge"><title>Node26&#45;&gt;Node13</title>
<path fill="none" stroke="midnightblue" d="M591.734,-112.083C585.455,-104.377 576.212,-93.0333 568.569,-83.6531"/>
<polygon fill="midnightblue" stroke="midnightblue" points="571.161,-81.2926 562.131,-75.7511 565.734,-85.7143 571.161,-81.2926"/>
</g>
<!-- Node26&#45;&gt;Node14 -->
<g id="edge41" class="edge"><title>Node26&#45;&gt;Node14</title>
<path fill="none" stroke="midnightblue" d="M605.935,-112.083C611.929,-104.377 620.752,-93.0333 628.048,-83.6531"/>
<polygon fill="midnightblue" stroke="midnightblue" points="630.817,-85.7934 634.194,-75.7511 625.291,-81.4958 630.817,-85.7934"/>
</g>
<!-- Node27 -->
<g id="node27" class="node"><title>Node27</title>
<g id="a_node27"><a xlink:title=" ">
<polygon fill="white" stroke="#bfbfbf" points="792,-56.5 792,-75.5 852,-75.5 852,-56.5 792,-56.5"/>
<text text-anchor="middle" x="822" y="-63.5" font-family="Helvetica,sans-Serif" font-size="10.00">fmt/core.h</text>
</a>
</g>
</g>
<!-- Node26&#45;&gt;Node27 -->
<g id="edge33" class="edge"><title>Node26&#45;&gt;Node27</title>
<path fill="none" stroke="midnightblue" d="M620.694,-115.544C625.409,-114.367 630.37,-113.136 635,-112 685.542,-99.6012 743.851,-85.6211 781.738,-76.5802"/>
<polygon fill="midnightblue" stroke="midnightblue" points="782.944,-79.8908 791.86,-74.1666 781.32,-73.0818 782.944,-79.8908"/>
</g>
<!-- Node28 -->
<g id="node28" class="node"><title>Node28</title>
<g id="a_node28"><a xlink:title=" ">
<polygon fill="white" stroke="#bfbfbf" points="870,-56.5 870,-75.5 938,-75.5 938,-56.5 870,-56.5"/>
<text text-anchor="middle" x="904" y="-63.5" font-family="Helvetica,sans-Serif" font-size="10.00">fmt/format.h</text>
</a>
</g>
</g>
<!-- Node26&#45;&gt;Node28 -->
<g id="edge34" class="edge"><title>Node26&#45;&gt;Node28</title>
<path fill="none" stroke="midnightblue" d="M620.632,-115.268C625.35,-114.108 630.329,-112.954 635,-112 731.539,-92.2825 759.255,-94.2728 859.8,-76.1408"/>
<polygon fill="midnightblue" stroke="midnightblue" points="860.553,-79.5612 869.762,-74.3219 859.296,-72.675 860.553,-79.5612"/>
</g>
<!-- Node29 -->
<g id="node29" class="node"><title>Node29</title>
<g id="a_node29"><a xlink:title=" ">
<polygon fill="white" stroke="#bfbfbf" points="956,-56.5 956,-75.5 1002,-75.5 1002,-56.5 956,-56.5"/>
<text text-anchor="middle" x="979" y="-63.5" font-family="Helvetica,sans-Serif" font-size="10.00">chrono</text>
</a>
</g>
</g>
<!-- Node26&#45;&gt;Node29 -->
<g id="edge36" class="edge"><title>Node26&#45;&gt;Node29</title>
<path fill="none" stroke="midnightblue" d="M620.603,-115.115C625.323,-113.965 630.31,-112.853 635,-112 769.115,-87.6053 808.223,-102.256 945.62,-75.984"/>
<polygon fill="midnightblue" stroke="midnightblue" points="946.54,-79.3706 955.685,-74.0206 945.2,-72.5001 946.54,-79.3706"/>
</g>
<!-- Node30 -->
<g id="node30" class="node"><title>Node30</title>
<g id="a_node30"><a xlink:title=" ">
<polygon fill="white" stroke="#bfbfbf" points="690.5,-56.5 690.5,-75.5 773.5,-75.5 773.5,-56.5 690.5,-56.5"/>
<text text-anchor="middle" x="732" y="-63.5" font-family="Helvetica,sans-Serif" font-size="10.00">unordered_map</text>
</a>
</g>
</g>
<!-- Node26&#45;&gt;Node30 -->
<g id="edge40" class="edge"><title>Node26&#45;&gt;Node30</title>
<path fill="none" stroke="midnightblue" d="M620.074,-112.444C642.06,-103.517 676.734,-89.4387 701.664,-79.3168"/>
<polygon fill="midnightblue" stroke="midnightblue" points="703.076,-82.5213 711.024,-75.5164 700.442,-76.0355 703.076,-82.5213"/>
</g>
</g>
</svg>
        <g id="navigator" transform="translate(0 0)" fill="#404254">
                <rect fill="#f2f5e9" fill-opacity="0.5" stroke="#606060" stroke-width=".5" x="0" y="0" width="60" height="60"/>
                <use id="zoomplus" xlink:href="#zoomPlus" x="17" y="9" onmousedown="handleZoom(evt,'in')"/>
                <use id="zoomminus" xlink:href="#zoomMin" x="42" y="9" onmousedown="handleZoom(evt,'out')"/>
                <use id="reset" xlink:href="#resetDef" x="30" y="36" onmousedown="handleReset()"/>
                <g id="arrowUp" xlink:href="#dirArrow" transform="translate(30 24)" onmousedown="handlePan(0,-1)">
                  <use xlink:href="#rim" fill="#404040">
                        <set attributeName="fill" to="#808080" begin="arrowUp.mouseover" end="arrowUp.mouseout"/>
                  </use>
                  <path fill="none" stroke="white" stroke-width="1.5" d="M0,-3.0v7 M-2.5,-0.5L0,-3.0L2.5,-0.5"/>
                </g>
                <g id="arrowRight" xlink:href="#dirArrow" transform="rotate(90) translate(36 -43)" onmousedown="handlePan(1,0)">
                  <use xlink:href="#rim" fill="#404040">
                        <set attributeName="fill" to="#808080" begin="arrowRight.mouseover" end="arrowRight.mouseout"/>
                  </use>
                  <path fill="none" stroke="white" stroke-width="1.5" d="M0,-3.0v7 M-2.5,-0.5L0,-3.0L2.5,-0.5"/>
                </g>
                <g id="arrowDown" xlink:href="#dirArrow" transform="rotate(180) translate(-30 -48)" onmousedown="handlePan(0,1)">
                  <use xlink:href="#rim" fill="#404040">
                        <set attributeName="fill" to="#808080" begin="arrowDown.mouseover" end="arrowDown.mouseout"/>
                  </use>
                  <path fill="none" stroke="white" stroke-width="1.5" d="M0,-3.0v7 M-2.5,-0.5L0,-3.0L2.5,-0.5"/>
                </g>
                <g id="arrowLeft" xlink:href="#dirArrow" transform="rotate(270) translate(-36 17)" onmousedown="handlePan(-1,0)">
                  <use xlink:href="#rim" fill="#404040">
                        <set attributeName="fill" to="#808080" begin="arrowLeft.mouseover" end="arrowLeft.mouseout"/>
                  </use>
                  <path fill="none" stroke="white" stroke-width="1.5" d="M0,-3.0v7 M-2.5,-0.5L0,-3.0L2.5,-0.5"/>
                </g>
        </g>
        <svg viewBox="0 0 15 15" width="100%" height="30px" preserveAspectRatio="xMaxYMin meet">
         <g id="arrow_out" transform="scale(0.3 0.3)">
          <a xlink:href="packet__handlers_8h__incl_org.svg" target="_base">
           <rect id="button" ry="5" rx="5" y="6" x="6" height="38" width="38"
                fill="#f2f5e9" fill-opacity="0.5" stroke="#606060" stroke-width="1.0"/>
           <path id="arrow"
             d="M 11.500037,31.436501 C 11.940474,20.09759 22.043105,11.32322 32.158766,21.979434 L 37.068811,17.246167 C 37.068811,17.246167 37.088388,32 37.088388,32 L 22.160133,31.978069 C 22.160133,31.978069 26.997745,27.140456 26.997745,27.140456 C 18.528582,18.264221 13.291696,25.230495 11.500037,31.436501 z"
             style="fill:#404040;"/>
          </a>
         </g>
        </svg>
</svg>
