<?xml version="1.0" encoding="UTF-8" standalone="no"?>
<!DOCTYPE svg PUBLIC "-//W3C//DTD SVG 1.1//EN"
 "http://www.w3.org/Graphics/SVG/1.1/DTD/svg11.dtd">
<!-- Generated by graphviz version 2.38.0 (20140413.2041)
 -->
<!-- Title: C:/projects/ndt/sources/include/ndt/serialize.h Pages: 1 -->
<!--zoomable 263 -->
<svg id="main" version="1.1" xmlns="http://www.w3.org/2000/svg" xmlns:xlink="http://www.w3.org/1999/xlink" xml:space="preserve" onload="init(evt)">
<style type="text/css"><![CDATA[
.edge:hover path { stroke: red; }
.edge:hover polygon { stroke: red; fill: red; }
]]></style>
<script type="text/javascript"><![CDATA[
var edges = document.getElementsByTagName('g');
if (edges && edges.length) {
  for (var i=0;i<edges.length;i++) {
    if (edges[i].id.substr(0,4)=='edge') {
      edges[i].setAttribute('class','edge');
    }
  }
}
]]></script>
        <defs>
                <circle id="rim" cx="0" cy="0" r="7"/>
                <circle id="rim2" cx="0" cy="0" r="3.5"/>
                <g id="zoomPlus">
                        <use xlink:href="#rim" fill="#404040">
                                <set attributeName="fill" to="#808080" begin="zoomplus.mouseover" end="zoomplus.mouseout"/>
                        </use>
                        <path d="M-4,0h8M0,-4v8" fill="none" stroke="white" stroke-width="1.5" pointer-events="none"/>
                </g>
                <g id="zoomMin">
                        <use xlink:href="#rim" fill="#404040">
                                <set attributeName="fill" to="#808080" begin="zoomminus.mouseover" end="zoomminus.mouseout"/>
                        </use>
                        <path d="M-4,0h8" fill="none" stroke="white" stroke-width="1.5" pointer-events="none"/>
                </g>
                <g id="dirArrow">
                        <path fill="none" stroke="white" stroke-width="1.5" d="M0,-3.0v7 M-2.5,-0.5L0,-3.0L2.5,-0.5"/>
                </g>
               <g id="resetDef">
                       <use xlink:href="#rim2" fill="#404040">
                               <set attributeName="fill" to="#808080" begin="reset.mouseover" end="reset.mouseout"/>
                       </use>
               </g>
        </defs>

<script type="text/javascript">
var viewWidth = 1066;
var viewHeight = 263;
var sectionId = 'dynsection-0';
</script>
<script xlink:href="svgpan.js"/>
<svg id="graph" class="graph">
<g id="viewport">
<title>C:/projects/ndt/sources/include/ndt/serialize.h</title>
<polygon fill="white" stroke="none" points="-4,4 -4,-259 1062,-259 1062,4 -4,4"/>
<!-- Node1 -->
<g id="node1" class="node"><title>Node1</title>
<g id="a_node1"><a xlink:title=" ">
<polygon fill="#bfbfbf" stroke="black" points="485,-224.5 485,-254.5 603,-254.5 603,-224.5 485,-224.5"/>
<text text-anchor="start" x="493" y="-242.5" font-family="Helvetica,sans-Serif" font-size="10.00">C:/projects/ndt/sources</text>
<text text-anchor="middle" x="544" y="-231.5" font-family="Helvetica,sans-Serif" font-size="10.00">/include/ndt/serialize.h</text>
</a>
</g>
</g>
<!-- Node2 -->
<g id="node2" class="node"><title>Node2</title>
<g id="a_node2"><a xlink:title=" ">
<polygon fill="white" stroke="#bfbfbf" points="261.5,-168.5 261.5,-187.5 334.5,-187.5 334.5,-168.5 261.5,-168.5"/>
<text text-anchor="middle" x="298" y="-175.5" font-family="Helvetica,sans-Serif" font-size="10.00">boost/pfr.hpp</text>
</a>
</g>
</g>
<!-- Node1&#45;&gt;Node2 -->
<g id="edge1" class="edge"><title>Node1&#45;&gt;Node2</title>
<path fill="none" stroke="midnightblue" d="M486.013,-224.475C442.276,-213.896 383.148,-199.595 342.958,-189.874"/>
<polygon fill="midnightblue" stroke="midnightblue" points="343.712,-186.455 333.169,-187.506 342.066,-193.259 343.712,-186.455"/>
</g>
<!-- Node3 -->
<g id="node3" class="node"><title>Node3</title>
<g id="a_node3"><a xlink:title=" ">
<polygon fill="white" stroke="#bfbfbf" points="1012,-56.5 1012,-75.5 1058,-75.5 1058,-56.5 1012,-56.5"/>
<text text-anchor="middle" x="1035" y="-63.5" font-family="Helvetica,sans-Serif" font-size="10.00">chrono</text>
</a>
</g>
</g>
<!-- Node1&#45;&gt;Node3 -->
<g id="edge2" class="edge"><title>Node1&#45;&gt;Node3</title>
<path fill="none" stroke="midnightblue" d="M584.181,-224.465C679.024,-191.338 915.354,-108.791 1002.26,-78.4354"/>
<polygon fill="midnightblue" stroke="midnightblue" points="1003.58,-81.6834 1011.86,-75.0816 1001.27,-75.0749 1003.58,-81.6834"/>
</g>
<!-- Node4 -->
<g id="node4" class="node"><title>Node4</title>
<g id="a_node4"><a xlink:title=" ">
<polygon fill="white" stroke="#bfbfbf" points="438,-56.5 438,-75.5 500,-75.5 500,-56.5 438,-56.5"/>
<text text-anchor="middle" x="469" y="-63.5" font-family="Helvetica,sans-Serif" font-size="10.00">type_traits</text>
</a>
</g>
</g>
<!-- Node1&#45;&gt;Node4 -->
<g id="edge3" class="edge"><title>Node1&#45;&gt;Node4</title>
<path fill="none" stroke="midnightblue" d="M540.618,-224.3C534.594,-200.315 520.757,-150.616 501,-112 495.934,-102.098 488.886,-91.9271 482.694,-83.766"/>
<polygon fill="midnightblue" stroke="midnightblue" points="485.373,-81.5107 476.445,-75.8065 479.867,-85.8334 485.373,-81.5107"/>
</g>
<!-- Node5 -->
<g id="node5" class="node"><title>Node5</title>
<g id="a_node5"><a xlink:href="bin__rw_8h.html" target="_top" xlink:title=" ">
<polygon fill="white" stroke="black" points="443.5,-168.5 443.5,-187.5 496.5,-187.5 496.5,-168.5 443.5,-168.5"/>
<text text-anchor="middle" x="470" y="-175.5" font-family="Helvetica,sans-Serif" font-size="10.00">bin_rw.h</text>
</a>
</g>
</g>
<!-- Node1&#45;&gt;Node5 -->
<g id="edge4" class="edge"><title>Node1&#45;&gt;Node5</title>
<path fill="none" stroke="midnightblue" d="M526.463,-224.399C515.156,-215.308 500.458,-203.49 488.893,-194.191"/>
<polygon fill="midnightblue" stroke="midnightblue" points="490.754,-191.196 480.768,-187.658 486.368,-196.652 490.754,-191.196"/>
</g>
<!-- Node26 -->
<g id="node26" class="node"><title>Node26</title>
<g id="a_node26"><a xlink:href="utils_8h.html" target="_top" xlink:title=" ">
<polygon fill="white" stroke="black" points="613.5,-112.5 613.5,-131.5 656.5,-131.5 656.5,-112.5 613.5,-112.5"/>
<text text-anchor="middle" x="635" y="-119.5" font-family="Helvetica,sans-Serif" font-size="10.00">utils.h</text>
</a>
</g>
</g>
<!-- Node1&#45;&gt;Node26 -->
<g id="edge44" class="edge"><title>Node1&#45;&gt;Node26</title>
<path fill="none" stroke="midnightblue" d="M555.158,-224.337C572.002,-202.96 603.855,-162.53 621.818,-139.731"/>
<polygon fill="midnightblue" stroke="midnightblue" points="624.73,-141.69 628.17,-131.669 619.232,-137.358 624.73,-141.69"/>
</g>
<!-- Node31 -->
<g id="node31" class="node"><title>Node31</title>
<g id="a_node31"><a xlink:href="tag_8h.html" target="_top" xlink:title=" ">
<polygon fill="white" stroke="black" points="610,-168.5 610,-187.5 648,-187.5 648,-168.5 610,-168.5"/>
<text text-anchor="middle" x="629" y="-175.5" font-family="Helvetica,sans-Serif" font-size="10.00">tag.h</text>
</a>
</g>
</g>
<!-- Node1&#45;&gt;Node31 -->
<g id="edge41" class="edge"><title>Node1&#45;&gt;Node31</title>
<path fill="none" stroke="midnightblue" d="M564.144,-224.399C577.387,-215.129 594.678,-203.025 608.076,-193.647"/>
<polygon fill="midnightblue" stroke="midnightblue" points="610.447,-196.26 616.632,-187.658 606.432,-190.525 610.447,-196.26"/>
</g>
<!-- Node32 -->
<g id="node32" class="node"><title>Node32</title>
<g id="a_node32"><a xlink:href="type__name_8h.html" target="_top" xlink:title=" ">
<polygon fill="white" stroke="black" points="352.5,-168.5 352.5,-187.5 425.5,-187.5 425.5,-168.5 352.5,-168.5"/>
<text text-anchor="middle" x="389" y="-175.5" font-family="Helvetica,sans-Serif" font-size="10.00">type_name.h</text>
</a>
</g>
</g>
<!-- Node1&#45;&gt;Node32 -->
<g id="edge42" class="edge"><title>Node1&#45;&gt;Node32</title>
<path fill="none" stroke="midnightblue" d="M507.267,-224.399C481.029,-214.327 446.075,-200.909 420.982,-191.277"/>
<polygon fill="midnightblue" stroke="midnightblue" points="422.144,-187.974 411.554,-187.658 419.635,-194.509 422.144,-187.974"/>
</g>
<!-- Node5&#45;&gt;Node4 -->
<g id="edge7" class="edge"><title>Node5&#45;&gt;Node4</title>
<path fill="none" stroke="midnightblue" d="M474.866,-168.252C481.174,-155.849 490.926,-132.388 487,-112 485.21,-102.705 481.517,-92.8887 477.939,-84.8048"/>
<polygon fill="midnightblue" stroke="midnightblue" points="481.056,-83.2089 473.621,-75.6611 474.727,-86.1981 481.056,-83.2089"/>
</g>
<!-- Node6 -->
<g id="node6" class="node"><title>Node6</title>
<g id="a_node6"><a xlink:title=" ">
<polygon fill="white" stroke="#bfbfbf" points="422,-112.5 422,-131.5 478,-131.5 478,-112.5 422,-112.5"/>
<text text-anchor="middle" x="450" y="-119.5" font-family="Helvetica,sans-Serif" font-size="10.00">algorithm</text>
</a>
</g>
</g>
<!-- Node5&#45;&gt;Node6 -->
<g id="edge5" class="edge"><title>Node5&#45;&gt;Node6</title>
<path fill="none" stroke="midnightblue" d="M466.697,-168.083C464.018,-160.849 460.151,-150.409 456.814,-141.397"/>
<polygon fill="midnightblue" stroke="midnightblue" points="459.996,-139.913 453.241,-131.751 453.432,-142.344 459.996,-139.913"/>
</g>
<!-- Node7 -->
<g id="node7" class="node"><title>Node7</title>
<g id="a_node7"><a xlink:title=" ">
<polygon fill="white" stroke="#bfbfbf" points="268,-56.5 268,-75.5 314,-75.5 314,-56.5 268,-56.5"/>
<text text-anchor="middle" x="291" y="-63.5" font-family="Helvetica,sans-Serif" font-size="10.00">cstring</text>
</a>
</g>
</g>
<!-- Node5&#45;&gt;Node7 -->
<g id="edge6" class="edge"><title>Node5&#45;&gt;Node7</title>
<path fill="none" stroke="midnightblue" d="M443.339,-168.985C412.209,-159.327 362.942,-143.028 347,-132 328.511,-119.209 312.357,-98.9057 302.212,-84.3947"/>
<polygon fill="midnightblue" stroke="midnightblue" points="304.936,-82.174 296.449,-75.8325 299.129,-86.0827 304.936,-82.174"/>
</g>
<!-- Node8 -->
<g id="node8" class="node"><title>Node8</title>
<g id="a_node8"><a xlink:href="buffer_8h.html" target="_top" xlink:title=" ">
<polygon fill="white" stroke="black" points="356,-112.5 356,-131.5 404,-131.5 404,-112.5 356,-112.5"/>
<text text-anchor="middle" x="380" y="-119.5" font-family="Helvetica,sans-Serif" font-size="10.00">buffer.h</text>
</a>
</g>
</g>
<!-- Node5&#45;&gt;Node8 -->
<g id="edge8" class="edge"><title>Node5&#45;&gt;Node8</title>
<path fill="none" stroke="midnightblue" d="M455.54,-168.324C441.5,-159.9 419.952,-146.971 403.457,-137.074"/>
<polygon fill="midnightblue" stroke="midnightblue" points="404.8,-133.798 394.424,-131.655 401.198,-139.801 404.8,-133.798"/>
</g>
<!-- Node22 -->
<g id="node22" class="node"><title>Node22</title>
<g id="a_node22"><a xlink:href="endian_8h.html" target="_top" xlink:title=" ">
<polygon fill="white" stroke="black" points="200.5,-112.5 200.5,-131.5 253.5,-131.5 253.5,-112.5 200.5,-112.5"/>
<text text-anchor="middle" x="227" y="-119.5" font-family="Helvetica,sans-Serif" font-size="10.00">endian.h</text>
</a>
</g>
</g>
<!-- Node5&#45;&gt;Node22 -->
<g id="edge24" class="edge"><title>Node5&#45;&gt;Node22</title>
<path fill="none" stroke="midnightblue" d="M443.273,-170.014C440.483,-169.319 437.686,-168.636 435,-168 375.174,-153.842 305.243,-139.077 263.619,-130.476"/>
<polygon fill="midnightblue" stroke="midnightblue" points="264.17,-127.016 253.67,-128.426 262.758,-133.872 264.17,-127.016"/>
</g>
<!-- Node5&#45;&gt;Node26 -->
<g id="edge31" class="edge"><title>Node5&#45;&gt;Node26</title>
<path fill="none" stroke="midnightblue" d="M496.145,-168.444C525.291,-158.905 572.412,-143.483 603.549,-133.293"/>
<polygon fill="midnightblue" stroke="midnightblue" points="605.032,-136.491 613.447,-130.054 602.854,-129.838 605.032,-136.491"/>
</g>
<!-- Node8&#45;&gt;Node4 -->
<g id="edge13" class="edge"><title>Node8&#45;&gt;Node4</title>
<path fill="none" stroke="midnightblue" d="M394.299,-112.324C408.183,-103.9 429.492,-90.9709 445.804,-81.0741"/>
<polygon fill="midnightblue" stroke="midnightblue" points="448.002,-83.8341 454.736,-75.6545 444.371,-77.8495 448.002,-83.8341"/>
</g>
<!-- Node9 -->
<g id="node9" class="node"><title>Node9</title>
<g id="a_node9"><a xlink:title=" ">
<polygon fill="white" stroke="#bfbfbf" points="370.5,-56.5 370.5,-75.5 419.5,-75.5 419.5,-56.5 370.5,-56.5"/>
<text text-anchor="middle" x="395" y="-63.5" font-family="Helvetica,sans-Serif" font-size="10.00">cassert</text>
</a>
</g>
</g>
<!-- Node8&#45;&gt;Node9 -->
<g id="edge9" class="edge"><title>Node8&#45;&gt;Node9</title>
<path fill="none" stroke="midnightblue" d="M382.477,-112.083C384.486,-104.849 387.386,-94.4087 389.89,-85.3968"/>
<polygon fill="midnightblue" stroke="midnightblue" points="393.265,-86.323 392.569,-75.7511 386.52,-84.4495 393.265,-86.323"/>
</g>
<!-- Node10 -->
<g id="node10" class="node"><title>Node10</title>
<g id="a_node10"><a xlink:title=" ">
<polygon fill="white" stroke="#bfbfbf" points="235,-0.5 235,-19.5 283,-19.5 283,-0.5 235,-0.5"/>
<text text-anchor="middle" x="259" y="-7.5" font-family="Helvetica,sans-Serif" font-size="10.00">cstddef</text>
</a>
</g>
</g>
<!-- Node8&#45;&gt;Node10 -->
<g id="edge10" class="edge"><title>Node8&#45;&gt;Node10</title>
<path fill="none" stroke="midnightblue" d="M373.559,-112.422C363.558,-99.4063 343.322,-74.2542 323,-56 310.234,-44.5329 294.481,-33.4245 281.799,-25.1134"/>
<polygon fill="midnightblue" stroke="midnightblue" points="283.5,-22.0462 273.193,-19.5909 279.719,-27.9375 283.5,-22.0462"/>
</g>
<!-- Node11 -->
<g id="node11" class="node"><title>Node11</title>
<g id="a_node11"><a xlink:title=" ">
<polygon fill="white" stroke="#bfbfbf" points="204,-56.5 204,-75.5 250,-75.5 250,-56.5 204,-56.5"/>
<text text-anchor="middle" x="227" y="-63.5" font-family="Helvetica,sans-Serif" font-size="10.00">cstdint</text>
</a>
</g>
</g>
<!-- Node8&#45;&gt;Node11 -->
<g id="edge11" class="edge"><title>Node8&#45;&gt;Node11</title>
<path fill="none" stroke="midnightblue" d="M355.757,-112.444C329.828,-103.292 288.557,-88.726 259.752,-78.5594"/>
<polygon fill="midnightblue" stroke="midnightblue" points="260.723,-75.1907 250.128,-75.1629 258.393,-81.7917 260.723,-75.1907"/>
</g>
<!-- Node12 -->
<g id="node12" class="node"><title>Node12</title>
<g id="a_node12"><a xlink:title=" ">
<polygon fill="white" stroke="#bfbfbf" points="598,-56.5 598,-75.5 672,-75.5 672,-56.5 598,-56.5"/>
<text text-anchor="middle" x="635" y="-63.5" font-family="Helvetica,sans-Serif" font-size="10.00">system_error</text>
</a>
</g>
</g>
<!-- Node8&#45;&gt;Node12 -->
<g id="edge12" class="edge"><title>Node8&#45;&gt;Node12</title>
<path fill="none" stroke="midnightblue" d="M404.103,-114.228C407.092,-113.447 410.111,-112.686 413,-112 429.774,-108.017 527.73,-88.3767 587.782,-76.3977"/>
<polygon fill="midnightblue" stroke="midnightblue" points="588.678,-79.788 597.801,-74.4001 587.309,-72.9231 588.678,-79.788"/>
</g>
<!-- Node13 -->
<g id="node13" class="node"><title>Node13</title>
<g id="a_node13"><a xlink:href="common_8h.html" target="_top" xlink:title="Header with typedefs to make type designation platform independent.">
<polygon fill="white" stroke="black" points="518,-56.5 518,-75.5 580,-75.5 580,-56.5 518,-56.5"/>
<text text-anchor="middle" x="549" y="-63.5" font-family="Helvetica,sans-Serif" font-size="10.00">common.h</text>
</a>
</g>
</g>
<!-- Node8&#45;&gt;Node13 -->
<g id="edge14" class="edge"><title>Node8&#45;&gt;Node13</title>
<path fill="none" stroke="midnightblue" d="M404.214,-113.263C432.584,-104.198 479.873,-89.0879 512.652,-78.6141"/>
<polygon fill="midnightblue" stroke="midnightblue" points="513.862,-81.902 522.322,-75.5243 511.731,-75.2341 513.862,-81.902"/>
</g>
<!-- Node13&#45;&gt;Node10 -->
<g id="edge23" class="edge"><title>Node13&#45;&gt;Node10</title>
<path fill="none" stroke="midnightblue" d="M517.593,-57.756C514.692,-57.1406 511.794,-56.5457 509,-56 416.142,-37.8662 389.225,-40.6781 292.935,-20.0156"/>
<polygon fill="midnightblue" stroke="midnightblue" points="293.596,-16.5775 283.081,-17.8717 292.108,-23.4176 293.596,-16.5775"/>
</g>
<!-- Node14 -->
<g id="node14" class="node"><title>Node14</title>
<g id="a_node14"><a xlink:title=" ">
<polygon fill="white" stroke="#bfbfbf" points="632,-0.5 632,-19.5 694,-19.5 694,-0.5 632,-0.5"/>
<text text-anchor="middle" x="663" y="-7.5" font-family="Helvetica,sans-Serif" font-size="10.00">arpa/inet.h</text>
</a>
</g>
</g>
<!-- Node13&#45;&gt;Node14 -->
<g id="edge15" class="edge"><title>Node13&#45;&gt;Node14</title>
<path fill="none" stroke="midnightblue" d="M567.064,-56.4435C585.575,-47.6751 614.581,-33.9355 635.855,-23.8579"/>
<polygon fill="midnightblue" stroke="midnightblue" points="637.482,-26.9604 645.021,-19.5164 634.485,-20.6343 637.482,-26.9604"/>
</g>
<!-- Node15 -->
<g id="node15" class="node"><title>Node15</title>
<g id="a_node15"><a xlink:title=" ">
<polygon fill="white" stroke="#bfbfbf" points="712.5,-0.5 712.5,-19.5 759.5,-19.5 759.5,-0.5 712.5,-0.5"/>
<text text-anchor="middle" x="736" y="-7.5" font-family="Helvetica,sans-Serif" font-size="10.00">errno.h</text>
</a>
</g>
</g>
<!-- Node13&#45;&gt;Node15 -->
<g id="edge16" class="edge"><title>Node13&#45;&gt;Node15</title>
<path fill="none" stroke="midnightblue" d="M578.631,-56.4435C612.375,-46.6993 667.379,-30.8158 702.612,-20.6414"/>
<polygon fill="midnightblue" stroke="midnightblue" points="703.792,-23.9437 712.429,-17.8067 701.85,-17.2185 703.792,-23.9437"/>
</g>
<!-- Node16 -->
<g id="node16" class="node"><title>Node16</title>
<g id="a_node16"><a xlink:title=" ">
<polygon fill="white" stroke="#bfbfbf" points="777.5,-0.5 777.5,-19.5 820.5,-19.5 820.5,-0.5 777.5,-0.5"/>
<text text-anchor="middle" x="799" y="-7.5" font-family="Helvetica,sans-Serif" font-size="10.00">fcntl.h</text>
</a>
</g>
</g>
<!-- Node13&#45;&gt;Node16 -->
<g id="edge17" class="edge"><title>Node13&#45;&gt;Node16</title>
<path fill="none" stroke="midnightblue" d="M580.427,-57.8543C583.324,-57.2183 586.215,-56.5917 589,-56 665.686,-39.7067 688.107,-39.7157 767.469,-20.211"/>
<polygon fill="midnightblue" stroke="midnightblue" points="768.577,-23.5423 777.437,-17.7333 766.888,-16.749 768.577,-23.5423"/>
</g>
<!-- Node17 -->
<g id="node17" class="node"><title>Node17</title>
<g id="a_node17"><a xlink:title=" ">
<polygon fill="white" stroke="#bfbfbf" points="838.5,-0.5 838.5,-19.5 887.5,-19.5 887.5,-0.5 838.5,-0.5"/>
<text text-anchor="middle" x="863" y="-7.5" font-family="Helvetica,sans-Serif" font-size="10.00">netdb.h</text>
</a>
</g>
</g>
<!-- Node13&#45;&gt;Node17 -->
<g id="edge18" class="edge"><title>Node13&#45;&gt;Node17</title>
<path fill="none" stroke="midnightblue" d="M580.398,-57.7079C583.301,-57.1026 586.201,-56.5232 589,-56 692.337,-36.6832 722.278,-41.9464 828.39,-20.147"/>
<polygon fill="midnightblue" stroke="midnightblue" points="829.136,-23.5669 838.21,-18.0979 827.706,-16.7145 829.136,-23.5669"/>
</g>
<!-- Node18 -->
<g id="node18" class="node"><title>Node18</title>
<g id="a_node18"><a xlink:title=" ">
<polygon fill="white" stroke="#bfbfbf" points="301.5,-0.5 301.5,-19.5 366.5,-19.5 366.5,-0.5 301.5,-0.5"/>
<text text-anchor="middle" x="334" y="-7.5" font-family="Helvetica,sans-Serif" font-size="10.00">netinet/in.h</text>
</a>
</g>
</g>
<!-- Node13&#45;&gt;Node18 -->
<g id="edge19" class="edge"><title>Node13&#45;&gt;Node18</title>
<path fill="none" stroke="midnightblue" d="M517.737,-57.1479C480.51,-47.7979 418.152,-32.1359 376.552,-21.6874"/>
<polygon fill="midnightblue" stroke="midnightblue" points="377.262,-18.2571 366.71,-19.2157 375.557,-25.0463 377.262,-18.2571"/>
</g>
<!-- Node19 -->
<g id="node19" class="node"><title>Node19</title>
<g id="a_node19"><a xlink:title=" ">
<polygon fill="white" stroke="#bfbfbf" points="384.5,-0.5 384.5,-19.5 457.5,-19.5 457.5,-0.5 384.5,-0.5"/>
<text text-anchor="middle" x="421" y="-7.5" font-family="Helvetica,sans-Serif" font-size="10.00">sys/socket.h</text>
</a>
</g>
</g>
<!-- Node13&#45;&gt;Node19 -->
<g id="edge20" class="edge"><title>Node13&#45;&gt;Node19</title>
<path fill="none" stroke="midnightblue" d="M528.718,-56.4435C507.653,-47.5566 474.483,-33.5632 450.514,-23.4514"/>
<polygon fill="midnightblue" stroke="midnightblue" points="451.761,-20.1787 441.187,-19.5164 449.04,-26.6283 451.761,-20.1787"/>
</g>
<!-- Node20 -->
<g id="node20" class="node"><title>Node20</title>
<g id="a_node20"><a xlink:title=" ">
<polygon fill="white" stroke="#bfbfbf" points="476,-0.5 476,-19.5 544,-19.5 544,-0.5 476,-0.5"/>
<text text-anchor="middle" x="510" y="-7.5" font-family="Helvetica,sans-Serif" font-size="10.00">sys/types.h</text>
</a>
</g>
</g>
<!-- Node13&#45;&gt;Node20 -->
<g id="edge21" class="edge"><title>Node13&#45;&gt;Node20</title>
<path fill="none" stroke="midnightblue" d="M542.56,-56.083C537.051,-48.4554 528.969,-37.2645 522.235,-27.9408"/>
<polygon fill="midnightblue" stroke="midnightblue" points="525.013,-25.8087 516.32,-19.7511 519.338,-29.9071 525.013,-25.8087"/>
</g>
<!-- Node21 -->
<g id="node21" class="node"><title>Node21</title>
<g id="a_node21"><a xlink:title=" ">
<polygon fill="white" stroke="#bfbfbf" points="562.5,-0.5 562.5,-19.5 613.5,-19.5 613.5,-0.5 562.5,-0.5"/>
<text text-anchor="middle" x="588" y="-7.5" font-family="Helvetica,sans-Serif" font-size="10.00">unistd.h</text>
</a>
</g>
</g>
<!-- Node13&#45;&gt;Node21 -->
<g id="edge22" class="edge"><title>Node13&#45;&gt;Node21</title>
<path fill="none" stroke="midnightblue" d="M555.44,-56.083C560.949,-48.4554 569.031,-37.2645 575.765,-27.9408"/>
<polygon fill="midnightblue" stroke="midnightblue" points="578.662,-29.9071 581.68,-19.7511 572.987,-25.8087 578.662,-29.9071"/>
</g>
<!-- Node22&#45;&gt;Node4 -->
<g id="edge29" class="edge"><title>Node22&#45;&gt;Node4</title>
<path fill="none" stroke="midnightblue" d="M253.798,-115.049C290.674,-106.856 359.403,-91.5715 427.893,-76.2443"/>
<polygon fill="midnightblue" stroke="midnightblue" points="428.999,-79.5835 437.993,-73.9835 427.469,-72.7526 428.999,-79.5835"/>
</g>
<!-- Node22&#45;&gt;Node7 -->
<g id="edge27" class="edge"><title>Node22&#45;&gt;Node7</title>
<path fill="none" stroke="midnightblue" d="M237.283,-112.324C246.836,-104.263 261.28,-92.0765 272.784,-82.3695"/>
<polygon fill="midnightblue" stroke="midnightblue" points="275.144,-84.9577 280.53,-75.8339 270.63,-79.6076 275.144,-84.9577"/>
</g>
<!-- Node22&#45;&gt;Node11 -->
<g id="edge26" class="edge"><title>Node22&#45;&gt;Node11</title>
<path fill="none" stroke="midnightblue" d="M227,-112.083C227,-105.006 227,-94.8611 227,-85.9865"/>
<polygon fill="midnightblue" stroke="midnightblue" points="230.5,-85.751 227,-75.7511 223.5,-85.7511 230.5,-85.751"/>
</g>
<!-- Node23 -->
<g id="node23" class="node"><title>Node23</title>
<g id="a_node23"><a xlink:title=" ">
<polygon fill="white" stroke="#bfbfbf" points="140.5,-56.5 140.5,-75.5 185.5,-75.5 185.5,-56.5 140.5,-56.5"/>
<text text-anchor="middle" x="163" y="-63.5" font-family="Helvetica,sans-Serif" font-size="10.00">climits</text>
</a>
</g>
</g>
<!-- Node22&#45;&gt;Node23 -->
<g id="edge25" class="edge"><title>Node22&#45;&gt;Node23</title>
<path fill="none" stroke="midnightblue" d="M216.717,-112.324C207.164,-104.263 192.72,-92.0765 181.216,-82.3695"/>
<polygon fill="midnightblue" stroke="midnightblue" points="183.37,-79.6076 173.47,-75.8339 178.856,-84.9577 183.37,-79.6076"/>
</g>
<!-- Node24 -->
<g id="node24" class="node"><title>Node24</title>
<g id="a_node24"><a xlink:title=" ">
<polygon fill="white" stroke="#bfbfbf" points="0,-56.5 0,-75.5 64,-75.5 64,-56.5 0,-56.5"/>
<text text-anchor="middle" x="32" y="-63.5" font-family="Helvetica,sans-Serif" font-size="10.00">string_view</text>
</a>
</g>
</g>
<!-- Node22&#45;&gt;Node24 -->
<g id="edge28" class="edge"><title>Node22&#45;&gt;Node24</title>
<path fill="none" stroke="midnightblue" d="M200.295,-113.605C167.357,-104.483 111.03,-88.8852 72.6947,-78.2693"/>
<polygon fill="midnightblue" stroke="midnightblue" points="73.4495,-74.8467 62.8781,-75.5509 71.5813,-81.5928 73.4495,-74.8467"/>
</g>
<!-- Node25 -->
<g id="node25" class="node"><title>Node25</title>
<g id="a_node25"><a xlink:title=" ">
<polygon fill="white" stroke="#bfbfbf" points="82,-56.5 82,-75.5 122,-75.5 122,-56.5 82,-56.5"/>
<text text-anchor="middle" x="102" y="-63.5" font-family="Helvetica,sans-Serif" font-size="10.00">utility</text>
</a>
</g>
</g>
<!-- Node22&#45;&gt;Node25 -->
<g id="edge30" class="edge"><title>Node22&#45;&gt;Node25</title>
<path fill="none" stroke="midnightblue" d="M207.193,-112.444C186.713,-103.596 154.517,-89.6875 131.135,-79.5865"/>
<polygon fill="midnightblue" stroke="midnightblue" points="132.282,-76.2692 121.714,-75.5164 129.506,-82.6953 132.282,-76.2692"/>
</g>
<!-- Node26&#45;&gt;Node3 -->
<g id="edge35" class="edge"><title>Node26&#45;&gt;Node3</title>
<path fill="none" stroke="midnightblue" d="M656.773,-115.498C662.362,-114.218 668.382,-112.952 674,-112 815.769,-87.9716 856.765,-103.284 1001.54,-75.9869"/>
<polygon fill="midnightblue" stroke="midnightblue" points="1002.53,-79.3614 1011.69,-74.0368 1001.21,-72.4872 1002.53,-79.3614"/>
</g>
<!-- Node26&#45;&gt;Node4 -->
<g id="edge38" class="edge"><title>Node26&#45;&gt;Node4</title>
<path fill="none" stroke="midnightblue" d="M613.298,-113.94C585.821,-105.002 538.093,-89.4761 505.093,-78.7412"/>
<polygon fill="midnightblue" stroke="midnightblue" points="505.956,-75.3412 495.363,-75.576 503.79,-81.9979 505.956,-75.3412"/>
</g>
<!-- Node26&#45;&gt;Node7 -->
<g id="edge36" class="edge"><title>Node26&#45;&gt;Node7</title>
<path fill="none" stroke="midnightblue" d="M613.481,-117.622C555.28,-108.486 394.432,-83.2364 324.355,-72.236"/>
<polygon fill="midnightblue" stroke="midnightblue" points="324.728,-68.7518 314.307,-70.6586 323.643,-75.6671 324.728,-68.7518"/>
</g>
<!-- Node26&#45;&gt;Node12 -->
<g id="edge37" class="edge"><title>Node26&#45;&gt;Node12</title>
<path fill="none" stroke="midnightblue" d="M635,-112.083C635,-105.006 635,-94.8611 635,-85.9865"/>
<polygon fill="midnightblue" stroke="midnightblue" points="638.5,-85.751 635,-75.7511 631.5,-85.7511 638.5,-85.751"/>
</g>
<!-- Node26&#45;&gt;Node13 -->
<g id="edge40" class="edge"><title>Node26&#45;&gt;Node13</title>
<path fill="none" stroke="midnightblue" d="M621.183,-112.324C607.767,-103.9 587.176,-90.9709 571.414,-81.0741"/>
<polygon fill="midnightblue" stroke="midnightblue" points="573.113,-78.0081 562.783,-75.6545 569.391,-83.9364 573.113,-78.0081"/>
</g>
<!-- Node27 -->
<g id="node27" class="node"><title>Node27</title>
<g id="a_node27"><a xlink:title=" ">
<polygon fill="white" stroke="#bfbfbf" points="690,-56.5 690,-75.5 750,-75.5 750,-56.5 690,-56.5"/>
<text text-anchor="middle" x="720" y="-63.5" font-family="Helvetica,sans-Serif" font-size="10.00">fmt/core.h</text>
</a>
</g>
</g>
<!-- Node26&#45;&gt;Node27 -->
<g id="edge32" class="edge"><title>Node26&#45;&gt;Node27</title>
<path fill="none" stroke="midnightblue" d="M648.657,-112.324C661.916,-103.9 682.268,-90.9709 697.846,-81.0741"/>
<polygon fill="midnightblue" stroke="midnightblue" points="699.813,-83.9711 706.377,-75.6545 696.06,-78.0626 699.813,-83.9711"/>
</g>
<!-- Node28 -->
<g id="node28" class="node"><title>Node28</title>
<g id="a_node28"><a xlink:title=" ">
<polygon fill="white" stroke="#bfbfbf" points="768,-56.5 768,-75.5 836,-75.5 836,-56.5 768,-56.5"/>
<text text-anchor="middle" x="802" y="-63.5" font-family="Helvetica,sans-Serif" font-size="10.00">fmt/format.h</text>
</a>
</g>
</g>
<!-- Node26&#45;&gt;Node28 -->
<g id="edge33" class="edge"><title>Node26&#45;&gt;Node28</title>
<path fill="none" stroke="midnightblue" d="M656.832,-113.94C684.475,-105.002 732.491,-89.4761 765.689,-78.7412"/>
<polygon fill="midnightblue" stroke="midnightblue" points="767.04,-81.983 775.478,-75.576 764.886,-75.3226 767.04,-81.983"/>
</g>
<!-- Node29 -->
<g id="node29" class="node"><title>Node29</title>
<g id="a_node29"><a xlink:title=" ">
<polygon fill="white" stroke="#bfbfbf" points="854,-56.5 854,-75.5 892,-75.5 892,-56.5 854,-56.5"/>
<text text-anchor="middle" x="873" y="-63.5" font-family="Helvetica,sans-Serif" font-size="10.00">array</text>
</a>
</g>
</g>
<!-- Node26&#45;&gt;Node29 -->
<g id="edge34" class="edge"><title>Node26&#45;&gt;Node29</title>
<path fill="none" stroke="midnightblue" d="M656.848,-115.88C662.435,-114.592 668.436,-113.228 674,-112 746.731,-95.9536 768.188,-95.8864 843.792,-76.1095"/>
<polygon fill="midnightblue" stroke="midnightblue" points="845.026,-79.4033 853.798,-73.4609 843.235,-72.6363 845.026,-79.4033"/>
</g>
<!-- Node30 -->
<g id="node30" class="node"><title>Node30</title>
<g id="a_node30"><a xlink:title=" ">
<polygon fill="white" stroke="#bfbfbf" points="910.5,-56.5 910.5,-75.5 993.5,-75.5 993.5,-56.5 910.5,-56.5"/>
<text text-anchor="middle" x="952" y="-63.5" font-family="Helvetica,sans-Serif" font-size="10.00">unordered_map</text>
</a>
</g>
</g>
<!-- Node26&#45;&gt;Node30 -->
<g id="edge39" class="edge"><title>Node26&#45;&gt;Node30</title>
<path fill="none" stroke="midnightblue" d="M656.807,-115.686C662.395,-114.402 668.407,-113.088 674,-112 771.138,-93.1128 798.558,-92.8728 900.19,-76.1022"/>
<polygon fill="midnightblue" stroke="midnightblue" points="900.972,-79.5203 910.262,-74.4265 899.823,-72.6153 900.972,-79.5203"/>
</g>
<!-- Node32&#45;&gt;Node24 -->
<g id="edge43" class="edge"><title>Node32&#45;&gt;Node24</title>
<path fill="none" stroke="midnightblue" d="M352.158,-169.386C303.544,-159.207 220.666,-141.365 191,-132 143.783,-117.095 90.9322,-94.1825 59.6159,-79.9189"/>
<polygon fill="midnightblue" stroke="midnightblue" points="60.7877,-76.6056 50.2394,-75.6128 57.8663,-82.9668 60.7877,-76.6056"/>
</g>
</g>
</svg>
        <g id="navigator" transform="translate(0 0)" fill="#404254">
                <rect fill="#f2f5e9" fill-opacity="0.5" stroke="#606060" stroke-width=".5" x="0" y="0" width="60" height="60"/>
                <use id="zoomplus" xlink:href="#zoomPlus" x="17" y="9" onmousedown="handleZoom(evt,'in')"/>
                <use id="zoomminus" xlink:href="#zoomMin" x="42" y="9" onmousedown="handleZoom(evt,'out')"/>
                <use id="reset" xlink:href="#resetDef" x="30" y="36" onmousedown="handleReset()"/>
                <g id="arrowUp" xlink:href="#dirArrow" transform="translate(30 24)" onmousedown="handlePan(0,-1)">
                  <use xlink:href="#rim" fill="#404040">
                        <set attributeName="fill" to="#808080" begin="arrowUp.mouseover" end="arrowUp.mouseout"/>
                  </use>
                  <path fill="none" stroke="white" stroke-width="1.5" d="M0,-3.0v7 M-2.5,-0.5L0,-3.0L2.5,-0.5"/>
                </g>
                <g id="arrowRight" xlink:href="#dirArrow" transform="rotate(90) translate(36 -43)" onmousedown="handlePan(1,0)">
                  <use xlink:href="#rim" fill="#404040">
                        <set attributeName="fill" to="#808080" begin="arrowRight.mouseover" end="arrowRight.mouseout"/>
                  </use>
                  <path fill="none" stroke="white" stroke-width="1.5" d="M0,-3.0v7 M-2.5,-0.5L0,-3.0L2.5,-0.5"/>
                </g>
                <g id="arrowDown" xlink:href="#dirArrow" transform="rotate(180) translate(-30 -48)" onmousedown="handlePan(0,1)">
                  <use xlink:href="#rim" fill="#404040">
                        <set attributeName="fill" to="#808080" begin="arrowDown.mouseover" end="arrowDown.mouseout"/>
                  </use>
                  <path fill="none" stroke="white" stroke-width="1.5" d="M0,-3.0v7 M-2.5,-0.5L0,-3.0L2.5,-0.5"/>
                </g>
                <g id="arrowLeft" xlink:href="#dirArrow" transform="rotate(270) translate(-36 17)" onmousedown="handlePan(-1,0)">
                  <use xlink:href="#rim" fill="#404040">
                        <set attributeName="fill" to="#808080" begin="arrowLeft.mouseover" end="arrowLeft.mouseout"/>
                  </use>
                  <path fill="none" stroke="white" stroke-width="1.5" d="M0,-3.0v7 M-2.5,-0.5L0,-3.0L2.5,-0.5"/>
                </g>
        </g>
        <svg viewBox="0 0 15 15" width="100%" height="30px" preserveAspectRatio="xMaxYMin meet">
         <g id="arrow_out" transform="scale(0.3 0.3)">
          <a xlink:href="serialize_8h__incl_org.svg" target="_base">
           <rect id="button" ry="5" rx="5" y="6" x="6" height="38" width="38"
                fill="#f2f5e9" fill-opacity="0.5" stroke="#606060" stroke-width="1.0"/>
           <path id="arrow"
             d="M 11.500037,31.436501 C 11.940474,20.09759 22.043105,11.32322 32.158766,21.979434 L 37.068811,17.246167 C 37.068811,17.246167 37.088388,32 37.088388,32 L 22.160133,31.978069 C 22.160133,31.978069 26.997745,27.140456 26.997745,27.140456 C 18.528582,18.264221 13.291696,25.230495 11.500037,31.436501 z"
             style="fill:#404040;"/>
          </a>
         </g>
        </svg>
</svg>
