<?xml version="1.0" encoding="UTF-8" standalone="no"?>
<!DOCTYPE svg PUBLIC "-//W3C//DTD SVG 1.1//EN"
 "http://www.w3.org/Graphics/SVG/1.1/DTD/svg11.dtd">
<!-- Generated by graphviz version 2.38.0 (20140413.2041)
 -->
<!-- Title: C:/projects/ndt/sources/include/ndt/serialize.h Pages: 1 -->
<!--zoomable 263 -->
<svg id="main" version="1.1" xmlns="http://www.w3.org/2000/svg" xmlns:xlink="http://www.w3.org/1999/xlink" xml:space="preserve" onload="init(evt)">
<style type="text/css"><![CDATA[
.edge:hover path { stroke: red; }
.edge:hover polygon { stroke: red; fill: red; }
]]></style>
<script type="text/javascript"><![CDATA[
var edges = document.getElementsByTagName('g');
if (edges && edges.length) {
  for (var i=0;i<edges.length;i++) {
    if (edges[i].id.substr(0,4)=='edge') {
      edges[i].setAttribute('class','edge');
    }
  }
}
]]></script>
        <defs>
                <circle id="rim" cx="0" cy="0" r="7"/>
                <circle id="rim2" cx="0" cy="0" r="3.5"/>
                <g id="zoomPlus">
                        <use xlink:href="#rim" fill="#404040">
                                <set attributeName="fill" to="#808080" begin="zoomplus.mouseover" end="zoomplus.mouseout"/>
                        </use>
                        <path d="M-4,0h8M0,-4v8" fill="none" stroke="white" stroke-width="1.5" pointer-events="none"/>
                </g>
                <g id="zoomMin">
                        <use xlink:href="#rim" fill="#404040">
                                <set attributeName="fill" to="#808080" begin="zoomminus.mouseover" end="zoomminus.mouseout"/>
                        </use>
                        <path d="M-4,0h8" fill="none" stroke="white" stroke-width="1.5" pointer-events="none"/>
                </g>
                <g id="dirArrow">
                        <path fill="none" stroke="white" stroke-width="1.5" d="M0,-3.0v7 M-2.5,-0.5L0,-3.0L2.5,-0.5"/>
                </g>
               <g id="resetDef">
                       <use xlink:href="#rim2" fill="#404040">
                               <set attributeName="fill" to="#808080" begin="reset.mouseover" end="reset.mouseout"/>
                       </use>
               </g>
        </defs>

<script type="text/javascript">
var viewWidth = 1068;
var viewHeight = 263;
var sectionId = 'dynsection-0';
</script>
<script xlink:href="svgpan.js"/>
<svg id="graph" class="graph">
<g id="viewport">
<title>C:/projects/ndt/sources/include/ndt/serialize.h</title>
<polygon fill="white" stroke="none" points="-4,4 -4,-259 1064,-259 1064,4 -4,4"/>
<!-- Node1 -->
<g id="node1" class="node"><title>Node1</title>
<g id="a_node1"><a xlink:title=" ">
<polygon fill="#bfbfbf" stroke="black" points="350,-224.5 350,-254.5 468,-254.5 468,-224.5 350,-224.5"/>
<text text-anchor="start" x="358" y="-242.5" font-family="Helvetica,sans-Serif" font-size="10.00">C:/projects/ndt/sources</text>
<text text-anchor="middle" x="409" y="-231.5" font-family="Helvetica,sans-Serif" font-size="10.00">/include/ndt/serialize.h</text>
</a>
</g>
</g>
<!-- Node2 -->
<g id="node2" class="node"><title>Node2</title>
<g id="a_node2"><a xlink:title=" ">
<polygon fill="white" stroke="#bfbfbf" points="126.5,-168.5 126.5,-187.5 199.5,-187.5 199.5,-168.5 126.5,-168.5"/>
<text text-anchor="middle" x="163" y="-175.5" font-family="Helvetica,sans-Serif" font-size="10.00">boost/pfr.hpp</text>
</a>
</g>
</g>
<!-- Node1&#45;&gt;Node2 -->
<g id="edge1" class="edge"><title>Node1&#45;&gt;Node2</title>
<path fill="none" stroke="midnightblue" d="M351.013,-224.475C307.276,-213.896 248.148,-199.595 207.958,-189.874"/>
<polygon fill="midnightblue" stroke="midnightblue" points="208.712,-186.455 198.169,-187.506 207.066,-193.259 208.712,-186.455"/>
</g>
<!-- Node3 -->
<g id="node3" class="node"><title>Node3</title>
<g id="a_node3"><a xlink:title=" ">
<polygon fill="white" stroke="#bfbfbf" points="1014,-56.5 1014,-75.5 1060,-75.5 1060,-56.5 1014,-56.5"/>
<text text-anchor="middle" x="1037" y="-63.5" font-family="Helvetica,sans-Serif" font-size="10.00">chrono</text>
</a>
</g>
</g>
<!-- Node1&#45;&gt;Node3 -->
<g id="edge2" class="edge"><title>Node1&#45;&gt;Node3</title>
<path fill="none" stroke="midnightblue" d="M461.257,-224.403C563.368,-196.823 796.783,-133.619 1004.08,-76.2388"/>
<polygon fill="midnightblue" stroke="midnightblue" points="1005.23,-79.5528 1013.93,-73.511 1003.36,-72.8066 1005.23,-79.5528"/>
</g>
<!-- Node4 -->
<g id="node4" class="node"><title>Node4</title>
<g id="a_node4"><a xlink:title=" ">
<polygon fill="white" stroke="#bfbfbf" points="270,-56.5 270,-75.5 332,-75.5 332,-56.5 270,-56.5"/>
<text text-anchor="middle" x="301" y="-63.5" font-family="Helvetica,sans-Serif" font-size="10.00">type_traits</text>
</a>
</g>
</g>
<!-- Node1&#45;&gt;Node4 -->
<g id="edge3" class="edge"><title>Node1&#45;&gt;Node4</title>
<path fill="none" stroke="midnightblue" d="M398.645,-224.08C391.545,-214.067 381.999,-200.358 374,-188 350.554,-151.777 324.868,-108.215 311.087,-84.4947"/>
<polygon fill="midnightblue" stroke="midnightblue" points="313.99,-82.5235 305.95,-75.6229 307.932,-86.0308 313.99,-82.5235"/>
</g>
<!-- Node5 -->
<g id="node5" class="node"><title>Node5</title>
<g id="a_node5"><a xlink:href="bin__rw_8h.html" target="_top" xlink:title=" ">
<polygon fill="white" stroke="black" points="382.5,-168.5 382.5,-187.5 435.5,-187.5 435.5,-168.5 382.5,-168.5"/>
<text text-anchor="middle" x="409" y="-175.5" font-family="Helvetica,sans-Serif" font-size="10.00">bin_rw.h</text>
</a>
</g>
</g>
<!-- Node1&#45;&gt;Node5 -->
<g id="edge4" class="edge"><title>Node1&#45;&gt;Node5</title>
<path fill="none" stroke="midnightblue" d="M409,-224.399C409,-216.466 409,-206.458 409,-197.858"/>
<polygon fill="midnightblue" stroke="midnightblue" points="412.5,-197.658 409,-187.658 405.5,-197.658 412.5,-197.658"/>
</g>
<!-- Node25 -->
<g id="node25" class="node"><title>Node25</title>
<g id="a_node25"><a xlink:href="utils_8h.html" target="_top" xlink:title=" ">
<polygon fill="white" stroke="black" points="615.5,-112.5 615.5,-131.5 658.5,-131.5 658.5,-112.5 615.5,-112.5"/>
<text text-anchor="middle" x="637" y="-119.5" font-family="Helvetica,sans-Serif" font-size="10.00">utils.h</text>
</a>
</g>
</g>
<!-- Node1&#45;&gt;Node25 -->
<g id="edge43" class="edge"><title>Node1&#45;&gt;Node25</title>
<path fill="none" stroke="midnightblue" d="M420.303,-224.226C433.657,-208.288 457.324,-182.794 483,-168 521.813,-145.636 572.636,-133.611 605.062,-127.762"/>
<polygon fill="midnightblue" stroke="midnightblue" points="606.043,-131.145 615.309,-126.008 604.862,-124.245 606.043,-131.145"/>
</g>
<!-- Node30 -->
<g id="node30" class="node"><title>Node30</title>
<g id="a_node30"><a xlink:href="tag_8h.html" target="_top" xlink:title=" ">
<polygon fill="white" stroke="black" points="492,-168.5 492,-187.5 530,-187.5 530,-168.5 492,-168.5"/>
<text text-anchor="middle" x="511" y="-175.5" font-family="Helvetica,sans-Serif" font-size="10.00">tag.h</text>
</a>
</g>
</g>
<!-- Node1&#45;&gt;Node30 -->
<g id="edge40" class="edge"><title>Node1&#45;&gt;Node30</title>
<path fill="none" stroke="midnightblue" d="M433.173,-224.399C449.522,-214.862 471.015,-202.325 487.27,-192.842"/>
<polygon fill="midnightblue" stroke="midnightblue" points="489.284,-195.72 496.158,-187.658 485.757,-189.673 489.284,-195.72"/>
</g>
<!-- Node31 -->
<g id="node31" class="node"><title>Node31</title>
<g id="a_node31"><a xlink:href="type__name_8h.html" target="_top" xlink:title=" ">
<polygon fill="white" stroke="black" points="217.5,-168.5 217.5,-187.5 290.5,-187.5 290.5,-168.5 217.5,-168.5"/>
<text text-anchor="middle" x="254" y="-175.5" font-family="Helvetica,sans-Serif" font-size="10.00">type_name.h</text>
</a>
</g>
</g>
<!-- Node1&#45;&gt;Node31 -->
<g id="edge41" class="edge"><title>Node1&#45;&gt;Node31</title>
<path fill="none" stroke="midnightblue" d="M372.267,-224.399C346.029,-214.327 311.075,-200.909 285.982,-191.277"/>
<polygon fill="midnightblue" stroke="midnightblue" points="287.144,-187.974 276.554,-187.658 284.635,-194.509 287.144,-187.974"/>
</g>
<!-- Node5&#45;&gt;Node4 -->
<g id="edge7" class="edge"><title>Node5&#45;&gt;Node4</title>
<path fill="none" stroke="midnightblue" d="M400.525,-168.368C382.387,-149.894 339.578,-106.293 316.457,-82.7436"/>
<polygon fill="midnightblue" stroke="midnightblue" points="318.939,-80.275 309.435,-75.5914 313.944,-85.1792 318.939,-80.275"/>
</g>
<!-- Node6 -->
<g id="node6" class="node"><title>Node6</title>
<g id="a_node6"><a xlink:title=" ">
<polygon fill="white" stroke="#bfbfbf" points="489,-112.5 489,-131.5 545,-131.5 545,-112.5 489,-112.5"/>
<text text-anchor="middle" x="517" y="-119.5" font-family="Helvetica,sans-Serif" font-size="10.00">algorithm</text>
</a>
</g>
</g>
<!-- Node5&#45;&gt;Node6 -->
<g id="edge5" class="edge"><title>Node5&#45;&gt;Node6</title>
<path fill="none" stroke="midnightblue" d="M426.352,-168.324C443.672,-159.664 470.515,-146.242 490.502,-136.249"/>
<polygon fill="midnightblue" stroke="midnightblue" points="492.312,-139.257 499.691,-131.655 489.181,-132.996 492.312,-139.257"/>
</g>
<!-- Node7 -->
<g id="node7" class="node"><title>Node7</title>
<g id="a_node7"><a xlink:title=" ">
<polygon fill="white" stroke="#bfbfbf" points="456,-56.5 456,-75.5 502,-75.5 502,-56.5 456,-56.5"/>
<text text-anchor="middle" x="479" y="-63.5" font-family="Helvetica,sans-Serif" font-size="10.00">cstring</text>
</a>
</g>
</g>
<!-- Node5&#45;&gt;Node7 -->
<g id="edge6" class="edge"><title>Node5&#45;&gt;Node7</title>
<path fill="none" stroke="midnightblue" d="M415.884,-168.249C422.786,-159.334 433.569,-145.007 442,-132 452.131,-116.371 462.525,-97.8499 469.707,-84.5842"/>
<polygon fill="midnightblue" stroke="midnightblue" points="472.882,-86.0675 474.515,-75.5991 466.71,-82.7647 472.882,-86.0675"/>
</g>
<!-- Node8 -->
<g id="node8" class="node"><title>Node8</title>
<g id="a_node8"><a xlink:href="buffer_8h.html" target="_top" xlink:title=" ">
<polygon fill="white" stroke="black" points="385,-112.5 385,-131.5 433,-131.5 433,-112.5 385,-112.5"/>
<text text-anchor="middle" x="409" y="-119.5" font-family="Helvetica,sans-Serif" font-size="10.00">buffer.h</text>
</a>
</g>
</g>
<!-- Node5&#45;&gt;Node8 -->
<g id="edge8" class="edge"><title>Node5&#45;&gt;Node8</title>
<path fill="none" stroke="midnightblue" d="M409,-168.083C409,-161.006 409,-150.861 409,-141.986"/>
<polygon fill="midnightblue" stroke="midnightblue" points="412.5,-141.751 409,-131.751 405.5,-141.751 412.5,-141.751"/>
</g>
<!-- Node22 -->
<g id="node22" class="node"><title>Node22</title>
<g id="a_node22"><a xlink:href="endian_8h.html" target="_top" xlink:title=" ">
<polygon fill="white" stroke="black" points="210.5,-112.5 210.5,-131.5 263.5,-131.5 263.5,-112.5 210.5,-112.5"/>
<text text-anchor="middle" x="237" y="-119.5" font-family="Helvetica,sans-Serif" font-size="10.00">endian.h</text>
</a>
</g>
</g>
<!-- Node5&#45;&gt;Node22 -->
<g id="edge24" class="edge"><title>Node5&#45;&gt;Node22</title>
<path fill="none" stroke="midnightblue" d="M382.125,-168.563C352.841,-159.369 305.831,-144.61 273.286,-134.392"/>
<polygon fill="midnightblue" stroke="midnightblue" points="274.276,-131.034 263.686,-131.378 272.179,-137.713 274.276,-131.034"/>
</g>
<!-- Node5&#45;&gt;Node25 -->
<g id="edge30" class="edge"><title>Node5&#45;&gt;Node25</title>
<path fill="none" stroke="midnightblue" d="M435.601,-170.7C477.885,-160.685 560.26,-141.175 605.455,-130.471"/>
<polygon fill="midnightblue" stroke="midnightblue" points="606.379,-133.849 615.303,-128.139 604.765,-127.038 606.379,-133.849"/>
</g>
<!-- Node8&#45;&gt;Node4 -->
<g id="edge13" class="edge"><title>Node8&#45;&gt;Node4</title>
<path fill="none" stroke="midnightblue" d="M391.648,-112.324C374.328,-103.664 347.485,-90.2424 327.498,-80.249"/>
<polygon fill="midnightblue" stroke="midnightblue" points="328.819,-76.9962 318.309,-75.6545 325.688,-83.2572 328.819,-76.9962"/>
</g>
<!-- Node9 -->
<g id="node9" class="node"><title>Node9</title>
<g id="a_node9"><a xlink:title=" ">
<polygon fill="white" stroke="#bfbfbf" points="350.5,-56.5 350.5,-75.5 399.5,-75.5 399.5,-56.5 350.5,-56.5"/>
<text text-anchor="middle" x="375" y="-63.5" font-family="Helvetica,sans-Serif" font-size="10.00">cassert</text>
</a>
</g>
</g>
<!-- Node8&#45;&gt;Node9 -->
<g id="edge9" class="edge"><title>Node8&#45;&gt;Node9</title>
<path fill="none" stroke="midnightblue" d="M403.386,-112.083C398.633,-104.534 391.682,-93.4948 385.848,-84.2298"/>
<polygon fill="midnightblue" stroke="midnightblue" points="388.8,-82.3486 380.51,-75.7511 382.876,-86.0783 388.8,-82.3486"/>
</g>
<!-- Node10 -->
<g id="node10" class="node"><title>Node10</title>
<g id="a_node10"><a xlink:title=" ">
<polygon fill="white" stroke="#bfbfbf" points="254,-0.5 254,-19.5 302,-19.5 302,-0.5 254,-0.5"/>
<text text-anchor="middle" x="278" y="-7.5" font-family="Helvetica,sans-Serif" font-size="10.00">cstddef</text>
</a>
</g>
</g>
<!-- Node8&#45;&gt;Node10 -->
<g id="edge10" class="edge"><title>Node8&#45;&gt;Node10</title>
<path fill="none" stroke="midnightblue" d="M411.863,-112.478C415.786,-99.0852 421.064,-72.8998 409,-56 403.141,-47.7928 348.724,-31.0225 311.894,-20.4334"/>
<polygon fill="midnightblue" stroke="midnightblue" points="312.603,-16.9964 302.027,-17.6229 310.685,-23.7286 312.603,-16.9964"/>
</g>
<!-- Node11 -->
<g id="node11" class="node"><title>Node11</title>
<g id="a_node11"><a xlink:title=" ">
<polygon fill="white" stroke="#bfbfbf" points="206,-56.5 206,-75.5 252,-75.5 252,-56.5 206,-56.5"/>
<text text-anchor="middle" x="229" y="-63.5" font-family="Helvetica,sans-Serif" font-size="10.00">cstdint</text>
</a>
</g>
</g>
<!-- Node8&#45;&gt;Node11 -->
<g id="edge11" class="edge"><title>Node8&#45;&gt;Node11</title>
<path fill="none" stroke="midnightblue" d="M384.724,-113.717C353.02,-104.206 297.39,-87.5169 261.913,-76.8739"/>
<polygon fill="midnightblue" stroke="midnightblue" points="262.623,-73.4327 252.039,-73.9116 260.611,-80.1375 262.623,-73.4327"/>
</g>
<!-- Node12 -->
<g id="node12" class="node"><title>Node12</title>
<g id="a_node12"><a xlink:title=" ">
<polygon fill="white" stroke="#bfbfbf" points="600,-56.5 600,-75.5 674,-75.5 674,-56.5 600,-56.5"/>
<text text-anchor="middle" x="637" y="-63.5" font-family="Helvetica,sans-Serif" font-size="10.00">system_error</text>
</a>
</g>
</g>
<!-- Node8&#45;&gt;Node12 -->
<g id="edge12" class="edge"><title>Node8&#45;&gt;Node12</title>
<path fill="none" stroke="midnightblue" d="M433.4,-115.221C470.937,-106.331 543.488,-89.1476 591.072,-77.8777"/>
<polygon fill="midnightblue" stroke="midnightblue" points="591.901,-81.2782 600.826,-75.5676 590.288,-74.4666 591.901,-81.2782"/>
</g>
<!-- Node13 -->
<g id="node13" class="node"><title>Node13</title>
<g id="a_node13"><a xlink:href="common_8h.html" target="_top" xlink:title="Header with typedefs to make type designation platform independent.">
<polygon fill="white" stroke="black" points="520,-56.5 520,-75.5 582,-75.5 582,-56.5 520,-56.5"/>
<text text-anchor="middle" x="551" y="-63.5" font-family="Helvetica,sans-Serif" font-size="10.00">common.h</text>
</a>
</g>
</g>
<!-- Node8&#45;&gt;Node13 -->
<g id="edge14" class="edge"><title>Node8&#45;&gt;Node13</title>
<path fill="none" stroke="midnightblue" d="M431.5,-112.444C455.077,-103.478 492.322,-89.314 518.964,-79.1827"/>
<polygon fill="midnightblue" stroke="midnightblue" points="520.502,-82.3424 528.605,-75.5164 518.014,-75.7995 520.502,-82.3424"/>
</g>
<!-- Node13&#45;&gt;Node10 -->
<g id="edge23" class="edge"><title>Node13&#45;&gt;Node10</title>
<path fill="none" stroke="midnightblue" d="M519.584,-57.7995C516.685,-57.1749 513.79,-56.5661 511,-56 422.914,-38.1311 399.736,-39.5153 312,-20 311.899,-19.9776 311.799,-19.9552 311.698,-19.9326"/>
<polygon fill="midnightblue" stroke="midnightblue" points="312.628,-16.5565 302.088,-17.6303 310.997,-23.3639 312.628,-16.5565"/>
</g>
<!-- Node14 -->
<g id="node14" class="node"><title>Node14</title>
<g id="a_node14"><a xlink:title=" ">
<polygon fill="white" stroke="#bfbfbf" points="718,-0.5 718,-19.5 780,-19.5 780,-0.5 718,-0.5"/>
<text text-anchor="middle" x="749" y="-7.5" font-family="Helvetica,sans-Serif" font-size="10.00">arpa/inet.h</text>
</a>
</g>
</g>
<!-- Node13&#45;&gt;Node14 -->
<g id="edge15" class="edge"><title>Node13&#45;&gt;Node14</title>
<path fill="none" stroke="midnightblue" d="M582.374,-56.4435C616.263,-47.2011 670.403,-32.4356 707.724,-22.2572"/>
<polygon fill="midnightblue" stroke="midnightblue" points="709.046,-25.5243 717.773,-19.5164 707.205,-18.771 709.046,-25.5243"/>
</g>
<!-- Node15 -->
<g id="node15" class="node"><title>Node15</title>
<g id="a_node15"><a xlink:title=" ">
<polygon fill="white" stroke="#bfbfbf" points="798.5,-0.5 798.5,-19.5 845.5,-19.5 845.5,-0.5 798.5,-0.5"/>
<text text-anchor="middle" x="822" y="-7.5" font-family="Helvetica,sans-Serif" font-size="10.00">errno.h</text>
</a>
</g>
</g>
<!-- Node13&#45;&gt;Node15 -->
<g id="edge16" class="edge"><title>Node13&#45;&gt;Node15</title>
<path fill="none" stroke="midnightblue" d="M582.416,-57.8021C585.315,-57.177 588.21,-56.5673 591,-56 675.568,-38.8058 700.067,-39.6965 788.357,-19.9753"/>
<polygon fill="midnightblue" stroke="midnightblue" points="789.286,-23.3538 798.269,-17.7355 787.743,-16.5259 789.286,-23.3538"/>
</g>
<!-- Node16 -->
<g id="node16" class="node"><title>Node16</title>
<g id="a_node16"><a xlink:title=" ">
<polygon fill="white" stroke="#bfbfbf" points="863.5,-0.5 863.5,-19.5 906.5,-19.5 906.5,-0.5 863.5,-0.5"/>
<text text-anchor="middle" x="885" y="-7.5" font-family="Helvetica,sans-Serif" font-size="10.00">fcntl.h</text>
</a>
</g>
</g>
<!-- Node13&#45;&gt;Node16 -->
<g id="edge17" class="edge"><title>Node13&#45;&gt;Node16</title>
<path fill="none" stroke="midnightblue" d="M582.391,-57.6697C585.295,-57.0724 588.198,-56.5053 591,-56 704.353,-35.5581 737.471,-44.5605 853.49,-20.0441"/>
<polygon fill="midnightblue" stroke="midnightblue" points="854.435,-23.4209 863.475,-17.8956 852.962,-16.5776 854.435,-23.4209"/>
</g>
<!-- Node17 -->
<g id="node17" class="node"><title>Node17</title>
<g id="a_node17"><a xlink:title=" ">
<polygon fill="white" stroke="#bfbfbf" points="320.5,-0.5 320.5,-19.5 369.5,-19.5 369.5,-0.5 320.5,-0.5"/>
<text text-anchor="middle" x="345" y="-7.5" font-family="Helvetica,sans-Serif" font-size="10.00">netdb.h</text>
</a>
</g>
</g>
<!-- Node13&#45;&gt;Node17 -->
<g id="edge18" class="edge"><title>Node13&#45;&gt;Node17</title>
<path fill="none" stroke="midnightblue" d="M519.921,-56.8975C487.419,-48.4179 434.661,-34.6357 379.475,-20.1191"/>
<polygon fill="midnightblue" stroke="midnightblue" points="380.073,-16.6576 369.512,-17.4974 378.292,-23.4272 380.073,-16.6576"/>
</g>
<!-- Node18 -->
<g id="node18" class="node"><title>Node18</title>
<g id="a_node18"><a xlink:title=" ">
<polygon fill="white" stroke="#bfbfbf" points="387.5,-0.5 387.5,-19.5 452.5,-19.5 452.5,-0.5 387.5,-0.5"/>
<text text-anchor="middle" x="420" y="-7.5" font-family="Helvetica,sans-Serif" font-size="10.00">netinet/in.h</text>
</a>
</g>
</g>
<!-- Node13&#45;&gt;Node18 -->
<g id="edge19" class="edge"><title>Node13&#45;&gt;Node18</title>
<path fill="none" stroke="midnightblue" d="M530.243,-56.4435C508.684,-47.5566 474.737,-33.5632 450.206,-23.4514"/>
<polygon fill="midnightblue" stroke="midnightblue" points="451.239,-20.0917 440.66,-19.5164 448.572,-26.5634 451.239,-20.0917"/>
</g>
<!-- Node19 -->
<g id="node19" class="node"><title>Node19</title>
<g id="a_node19"><a xlink:title=" ">
<polygon fill="white" stroke="#bfbfbf" points="470.5,-0.5 470.5,-19.5 543.5,-19.5 543.5,-0.5 470.5,-0.5"/>
<text text-anchor="middle" x="507" y="-7.5" font-family="Helvetica,sans-Serif" font-size="10.00">sys/socket.h</text>
</a>
</g>
</g>
<!-- Node13&#45;&gt;Node19 -->
<g id="edge20" class="edge"><title>Node13&#45;&gt;Node19</title>
<path fill="none" stroke="midnightblue" d="M543.734,-56.083C537.455,-48.3768 528.212,-37.0333 520.569,-27.6531"/>
<polygon fill="midnightblue" stroke="midnightblue" points="523.161,-25.2926 514.131,-19.7511 517.734,-29.7143 523.161,-25.2926"/>
</g>
<!-- Node20 -->
<g id="node20" class="node"><title>Node20</title>
<g id="a_node20"><a xlink:title=" ">
<polygon fill="white" stroke="#bfbfbf" points="562,-0.5 562,-19.5 630,-19.5 630,-0.5 562,-0.5"/>
<text text-anchor="middle" x="596" y="-7.5" font-family="Helvetica,sans-Serif" font-size="10.00">sys/types.h</text>
</a>
</g>
</g>
<!-- Node13&#45;&gt;Node20 -->
<g id="edge21" class="edge"><title>Node13&#45;&gt;Node20</title>
<path fill="none" stroke="midnightblue" d="M558.431,-56.083C564.853,-48.3768 574.306,-37.0333 582.122,-27.6531"/>
<polygon fill="midnightblue" stroke="midnightblue" points="584.994,-29.674 588.707,-19.7511 579.617,-25.1927 584.994,-29.674"/>
</g>
<!-- Node21 -->
<g id="node21" class="node"><title>Node21</title>
<g id="a_node21"><a xlink:title=" ">
<polygon fill="white" stroke="#bfbfbf" points="648.5,-0.5 648.5,-19.5 699.5,-19.5 699.5,-0.5 648.5,-0.5"/>
<text text-anchor="middle" x="674" y="-7.5" font-family="Helvetica,sans-Serif" font-size="10.00">unistd.h</text>
</a>
</g>
</g>
<!-- Node13&#45;&gt;Node21 -->
<g id="edge22" class="edge"><title>Node13&#45;&gt;Node21</title>
<path fill="none" stroke="midnightblue" d="M570.49,-56.4435C590.642,-47.5961 622.323,-33.6875 645.331,-23.5865"/>
<polygon fill="midnightblue" stroke="midnightblue" points="646.852,-26.7411 654.601,-19.5164 644.038,-20.3316 646.852,-26.7411"/>
</g>
<!-- Node22&#45;&gt;Node4 -->
<g id="edge28" class="edge"><title>Node22&#45;&gt;Node4</title>
<path fill="none" stroke="midnightblue" d="M247.283,-112.324C256.836,-104.263 271.28,-92.0765 282.784,-82.3695"/>
<polygon fill="midnightblue" stroke="midnightblue" points="285.144,-84.9577 290.53,-75.8339 280.63,-79.6076 285.144,-84.9577"/>
</g>
<!-- Node22&#45;&gt;Node7 -->
<g id="edge26" class="edge"><title>Node22&#45;&gt;Node7</title>
<path fill="none" stroke="midnightblue" d="M263.823,-115.015C308.421,-105.063 397.692,-85.1431 446.05,-74.3526"/>
<polygon fill="midnightblue" stroke="midnightblue" points="447.002,-77.7262 456,-72.1323 445.477,-70.8942 447.002,-77.7262"/>
</g>
<!-- Node22&#45;&gt;Node11 -->
<g id="edge25" class="edge"><title>Node22&#45;&gt;Node11</title>
<path fill="none" stroke="midnightblue" d="M235.679,-112.083C234.619,-104.927 233.094,-94.6353 231.769,-85.6911"/>
<polygon fill="midnightblue" stroke="midnightblue" points="235.224,-85.1302 230.296,-75.7511 228.3,-86.1561 235.224,-85.1302"/>
</g>
<!-- Node23 -->
<g id="node23" class="node"><title>Node23</title>
<g id="a_node23"><a xlink:title=" ">
<polygon fill="white" stroke="#bfbfbf" points="0,-56.5 0,-75.5 64,-75.5 64,-56.5 0,-56.5"/>
<text text-anchor="middle" x="32" y="-63.5" font-family="Helvetica,sans-Serif" font-size="10.00">string_view</text>
</a>
</g>
</g>
<!-- Node22&#45;&gt;Node23 -->
<g id="edge27" class="edge"><title>Node22&#45;&gt;Node23</title>
<path fill="none" stroke="midnightblue" d="M210.2,-113.94C175.582,-104.822 114.936,-88.8464 74.1271,-78.0969"/>
<polygon fill="midnightblue" stroke="midnightblue" points="74.7691,-74.6467 64.2074,-75.4839 72.986,-81.4158 74.7691,-74.6467"/>
</g>
<!-- Node24 -->
<g id="node24" class="node"><title>Node24</title>
<g id="a_node24"><a xlink:href="useful__base__types_8h.html" target="_top" xlink:title=" ">
<polygon fill="white" stroke="black" points="82,-56.5 82,-75.5 188,-75.5 188,-56.5 82,-56.5"/>
<text text-anchor="middle" x="135" y="-63.5" font-family="Helvetica,sans-Serif" font-size="10.00">useful_base_types.h</text>
</a>
</g>
</g>
<!-- Node22&#45;&gt;Node24 -->
<g id="edge29" class="edge"><title>Node22&#45;&gt;Node24</title>
<path fill="none" stroke="midnightblue" d="M220.612,-112.324C204.329,-103.703 179.133,-90.3643 160.284,-80.3855"/>
<polygon fill="midnightblue" stroke="midnightblue" points="161.823,-77.2402 151.347,-75.6545 158.548,-83.4267 161.823,-77.2402"/>
</g>
<!-- Node25&#45;&gt;Node3 -->
<g id="edge34" class="edge"><title>Node25&#45;&gt;Node3</title>
<path fill="none" stroke="midnightblue" d="M658.753,-119.504C714.534,-115.425 867.291,-102.714 1003.49,-76.0314"/>
<polygon fill="midnightblue" stroke="midnightblue" points="1004.56,-79.3875 1013.68,-74.0019 1003.19,-72.5223 1004.56,-79.3875"/>
</g>
<!-- Node25&#45;&gt;Node4 -->
<g id="edge37" class="edge"><title>Node25&#45;&gt;Node4</title>
<path fill="none" stroke="midnightblue" d="M615.451,-118.2C568.053,-111.937 451,-95.9069 342.13,-75.9098"/>
<polygon fill="midnightblue" stroke="midnightblue" points="342.767,-72.4684 332.297,-74.0885 341.492,-79.3513 342.767,-72.4684"/>
</g>
<!-- Node25&#45;&gt;Node7 -->
<g id="edge35" class="edge"><title>Node25&#45;&gt;Node7</title>
<path fill="none" stroke="midnightblue" d="M615.362,-113.605C588.594,-104.456 542.762,-88.7922 511.696,-78.1745"/>
<polygon fill="midnightblue" stroke="midnightblue" points="512.765,-74.8414 502.171,-74.9192 510.502,-81.4652 512.765,-74.8414"/>
</g>
<!-- Node25&#45;&gt;Node12 -->
<g id="edge36" class="edge"><title>Node25&#45;&gt;Node12</title>
<path fill="none" stroke="midnightblue" d="M637,-112.083C637,-105.006 637,-94.8611 637,-85.9865"/>
<polygon fill="midnightblue" stroke="midnightblue" points="640.5,-85.751 637,-75.7511 633.5,-85.7511 640.5,-85.751"/>
</g>
<!-- Node25&#45;&gt;Node13 -->
<g id="edge39" class="edge"><title>Node25&#45;&gt;Node13</title>
<path fill="none" stroke="midnightblue" d="M623.183,-112.324C609.767,-103.9 589.176,-90.9709 573.414,-81.0741"/>
<polygon fill="midnightblue" stroke="midnightblue" points="575.113,-78.0081 564.783,-75.6545 571.391,-83.9364 575.113,-78.0081"/>
</g>
<!-- Node26 -->
<g id="node26" class="node"><title>Node26</title>
<g id="a_node26"><a xlink:title=" ">
<polygon fill="white" stroke="#bfbfbf" points="850,-56.5 850,-75.5 910,-75.5 910,-56.5 850,-56.5"/>
<text text-anchor="middle" x="880" y="-63.5" font-family="Helvetica,sans-Serif" font-size="10.00">fmt/core.h</text>
</a>
</g>
</g>
<!-- Node25&#45;&gt;Node26 -->
<g id="edge31" class="edge"><title>Node25&#45;&gt;Node26</title>
<path fill="none" stroke="midnightblue" d="M658.753,-116.274C694.39,-108.516 767.687,-92.4953 839.634,-76.2925"/>
<polygon fill="midnightblue" stroke="midnightblue" points="840.788,-79.6203 849.773,-74.0059 839.248,-72.7918 840.788,-79.6203"/>
</g>
<!-- Node27 -->
<g id="node27" class="node"><title>Node27</title>
<g id="a_node27"><a xlink:title=" ">
<polygon fill="white" stroke="#bfbfbf" points="928,-56.5 928,-75.5 996,-75.5 996,-56.5 928,-56.5"/>
<text text-anchor="middle" x="962" y="-63.5" font-family="Helvetica,sans-Serif" font-size="10.00">fmt/format.h</text>
</a>
</g>
</g>
<!-- Node25&#45;&gt;Node27 -->
<g id="edge32" class="edge"><title>Node25&#45;&gt;Node27</title>
<path fill="none" stroke="midnightblue" d="M658.642,-117.909C704.498,-111.283 815.021,-94.9063 917.838,-76.1439"/>
<polygon fill="midnightblue" stroke="midnightblue" points="918.559,-79.5702 927.762,-74.321 917.294,-72.6854 918.559,-79.5702"/>
</g>
<!-- Node28 -->
<g id="node28" class="node"><title>Node28</title>
<g id="a_node28"><a xlink:title=" ">
<polygon fill="white" stroke="#bfbfbf" points="692,-56.5 692,-75.5 730,-75.5 730,-56.5 692,-56.5"/>
<text text-anchor="middle" x="711" y="-63.5" font-family="Helvetica,sans-Serif" font-size="10.00">array</text>
</a>
</g>
</g>
<!-- Node25&#45;&gt;Node28 -->
<g id="edge33" class="edge"><title>Node25&#45;&gt;Node28</title>
<path fill="none" stroke="midnightblue" d="M648.889,-112.324C660.15,-104.107 677.287,-91.6017 690.709,-81.8069"/>
<polygon fill="midnightblue" stroke="midnightblue" points="692.88,-84.5559 698.894,-75.8339 688.753,-78.9014 692.88,-84.5559"/>
</g>
<!-- Node29 -->
<g id="node29" class="node"><title>Node29</title>
<g id="a_node29"><a xlink:title=" ">
<polygon fill="white" stroke="#bfbfbf" points="748.5,-56.5 748.5,-75.5 831.5,-75.5 831.5,-56.5 748.5,-56.5"/>
<text text-anchor="middle" x="790" y="-63.5" font-family="Helvetica,sans-Serif" font-size="10.00">unordered_map</text>
</a>
</g>
</g>
<!-- Node25&#45;&gt;Node29 -->
<g id="edge38" class="edge"><title>Node25&#45;&gt;Node29</title>
<path fill="none" stroke="midnightblue" d="M658.597,-113.378C683.981,-104.419 726.411,-89.4432 756.172,-78.9393"/>
<polygon fill="midnightblue" stroke="midnightblue" points="757.471,-82.1924 765.736,-75.5637 755.141,-75.5915 757.471,-82.1924"/>
</g>
<!-- Node31&#45;&gt;Node23 -->
<g id="edge42" class="edge"><title>Node31&#45;&gt;Node23</title>
<path fill="none" stroke="midnightblue" d="M236.58,-168.368C197.836,-149.171 104.335,-102.842 58.3856,-80.074"/>
<polygon fill="midnightblue" stroke="midnightblue" points="59.8534,-76.8952 49.339,-75.5914 56.7455,-83.1674 59.8534,-76.8952"/>
</g>
</g>
</svg>
        <g id="navigator" transform="translate(0 0)" fill="#404254">
                <rect fill="#f2f5e9" fill-opacity="0.5" stroke="#606060" stroke-width=".5" x="0" y="0" width="60" height="60"/>
                <use id="zoomplus" xlink:href="#zoomPlus" x="17" y="9" onmousedown="handleZoom(evt,'in')"/>
                <use id="zoomminus" xlink:href="#zoomMin" x="42" y="9" onmousedown="handleZoom(evt,'out')"/>
                <use id="reset" xlink:href="#resetDef" x="30" y="36" onmousedown="handleReset()"/>
                <g id="arrowUp" xlink:href="#dirArrow" transform="translate(30 24)" onmousedown="handlePan(0,-1)">
                  <use xlink:href="#rim" fill="#404040">
                        <set attributeName="fill" to="#808080" begin="arrowUp.mouseover" end="arrowUp.mouseout"/>
                  </use>
                  <path fill="none" stroke="white" stroke-width="1.5" d="M0,-3.0v7 M-2.5,-0.5L0,-3.0L2.5,-0.5"/>
                </g>
                <g id="arrowRight" xlink:href="#dirArrow" transform="rotate(90) translate(36 -43)" onmousedown="handlePan(1,0)">
                  <use xlink:href="#rim" fill="#404040">
                        <set attributeName="fill" to="#808080" begin="arrowRight.mouseover" end="arrowRight.mouseout"/>
                  </use>
                  <path fill="none" stroke="white" stroke-width="1.5" d="M0,-3.0v7 M-2.5,-0.5L0,-3.0L2.5,-0.5"/>
                </g>
                <g id="arrowDown" xlink:href="#dirArrow" transform="rotate(180) translate(-30 -48)" onmousedown="handlePan(0,1)">
                  <use xlink:href="#rim" fill="#404040">
                        <set attributeName="fill" to="#808080" begin="arrowDown.mouseover" end="arrowDown.mouseout"/>
                  </use>
                  <path fill="none" stroke="white" stroke-width="1.5" d="M0,-3.0v7 M-2.5,-0.5L0,-3.0L2.5,-0.5"/>
                </g>
                <g id="arrowLeft" xlink:href="#dirArrow" transform="rotate(270) translate(-36 17)" onmousedown="handlePan(-1,0)">
                  <use xlink:href="#rim" fill="#404040">
                        <set attributeName="fill" to="#808080" begin="arrowLeft.mouseover" end="arrowLeft.mouseout"/>
                  </use>
                  <path fill="none" stroke="white" stroke-width="1.5" d="M0,-3.0v7 M-2.5,-0.5L0,-3.0L2.5,-0.5"/>
                </g>
        </g>
        <svg viewBox="0 0 15 15" width="100%" height="30px" preserveAspectRatio="xMaxYMin meet">
         <g id="arrow_out" transform="scale(0.3 0.3)">
          <a xlink:href="serialize_8h__incl_org.svg" target="_base">
           <rect id="button" ry="5" rx="5" y="6" x="6" height="38" width="38"
                fill="#f2f5e9" fill-opacity="0.5" stroke="#606060" stroke-width="1.0"/>
           <path id="arrow"
             d="M 11.500037,31.436501 C 11.940474,20.09759 22.043105,11.32322 32.158766,21.979434 L 37.068811,17.246167 C 37.068811,17.246167 37.088388,32 37.088388,32 L 22.160133,31.978069 C 22.160133,31.978069 26.997745,27.140456 26.997745,27.140456 C 18.528582,18.264221 13.291696,25.230495 11.500037,31.436501 z"
             style="fill:#404040;"/>
          </a>
         </g>
        </svg>
</svg>
