<?xml version="1.0" encoding="UTF-8" standalone="no"?>
<!DOCTYPE svg PUBLIC "-//W3C//DTD SVG 1.1//EN"
 "http://www.w3.org/Graphics/SVG/1.1/DTD/svg11.dtd">
<!-- Generated by graphviz version 2.38.0 (20140413.2041)
 -->
<!-- Title: C:/projects/ndt/sources/include/ndt/socket.h Pages: 1 -->
<!--zoomable 319 -->
<svg id="main" version="1.1" xmlns="http://www.w3.org/2000/svg" xmlns:xlink="http://www.w3.org/1999/xlink" xml:space="preserve" onload="init(evt)">
<style type="text/css"><![CDATA[
.edge:hover path { stroke: red; }
.edge:hover polygon { stroke: red; fill: red; }
]]></style>
<script type="text/javascript"><![CDATA[
var edges = document.getElementsByTagName('g');
if (edges && edges.length) {
  for (var i=0;i<edges.length;i++) {
    if (edges[i].id.substr(0,4)=='edge') {
      edges[i].setAttribute('class','edge');
    }
  }
}
]]></script>
        <defs>
                <circle id="rim" cx="0" cy="0" r="7"/>
                <circle id="rim2" cx="0" cy="0" r="3.5"/>
                <g id="zoomPlus">
                        <use xlink:href="#rim" fill="#404040">
                                <set attributeName="fill" to="#808080" begin="zoomplus.mouseover" end="zoomplus.mouseout"/>
                        </use>
                        <path d="M-4,0h8M0,-4v8" fill="none" stroke="white" stroke-width="1.5" pointer-events="none"/>
                </g>
                <g id="zoomMin">
                        <use xlink:href="#rim" fill="#404040">
                                <set attributeName="fill" to="#808080" begin="zoomminus.mouseover" end="zoomminus.mouseout"/>
                        </use>
                        <path d="M-4,0h8" fill="none" stroke="white" stroke-width="1.5" pointer-events="none"/>
                </g>
                <g id="dirArrow">
                        <path fill="none" stroke="white" stroke-width="1.5" d="M0,-3.0v7 M-2.5,-0.5L0,-3.0L2.5,-0.5"/>
                </g>
               <g id="resetDef">
                       <use xlink:href="#rim2" fill="#404040">
                               <set attributeName="fill" to="#808080" begin="reset.mouseover" end="reset.mouseout"/>
                       </use>
               </g>
        </defs>

<script type="text/javascript">
var viewWidth = 988;
var viewHeight = 319;
var sectionId = 'dynsection-0';
</script>
<script xlink:href="svgpan.js"/>
<svg id="graph" class="graph">
<g id="viewport">
<title>C:/projects/ndt/sources/include/ndt/socket.h</title>
<polygon fill="white" stroke="none" points="-4,4 -4,-315 984.253,-315 984.253,4 -4,4"/>
<!-- Node1 -->
<g id="node1" class="node"><title>Node1</title>
<g id="a_node1"><a xlink:title=" ">
<polygon fill="#bfbfbf" stroke="black" points="182.858,-280.5 182.858,-310.5 300.858,-310.5 300.858,-280.5 182.858,-280.5"/>
<text text-anchor="start" x="190.858" y="-298.5" font-family="Helvetica,sans-Serif" font-size="10.00">C:/projects/ndt/sources</text>
<text text-anchor="middle" x="241.858" y="-287.5" font-family="Helvetica,sans-Serif" font-size="10.00">/include/ndt/socket.h</text>
</a>
</g>
</g>
<!-- Node2 -->
<g id="node2" class="node"><title>Node2</title>
<g id="a_node2"><a xlink:title=" ">
<polygon fill="white" stroke="#bfbfbf" points="13.3584,-112.5 13.3584,-131.5 62.3584,-131.5 62.3584,-112.5 13.3584,-112.5"/>
<text text-anchor="middle" x="37.8584" y="-119.5" font-family="Helvetica,sans-Serif" font-size="10.00">cassert</text>
</a>
</g>
</g>
<!-- Node1&#45;&gt;Node2 -->
<g id="edge1" class="edge"><title>Node1&#45;&gt;Node2</title>
<path fill="none" stroke="midnightblue" d="M182.616,-287.909C128.935,-280.571 55.5949,-266.663 37.8584,-244 14.7479,-214.471 23.8657,-167.293 31.5043,-141.435"/>
<polygon fill="midnightblue" stroke="midnightblue" points="34.8821,-142.363 34.5891,-131.772 28.2137,-140.234 34.8821,-142.363"/>
</g>
<!-- Node3 -->
<g id="node3" class="node"><title>Node3</title>
<g id="a_node3"><a xlink:title=" ">
<polygon fill="white" stroke="#bfbfbf" points="46.8584,-224.5 46.8584,-243.5 104.858,-243.5 104.858,-224.5 46.8584,-224.5"/>
<text text-anchor="middle" x="75.8584" y="-231.5" font-family="Helvetica,sans-Serif" font-size="10.00">functional</text>
</a>
</g>
</g>
<!-- Node1&#45;&gt;Node3 -->
<g id="edge2" class="edge"><title>Node1&#45;&gt;Node3</title>
<path fill="none" stroke="midnightblue" d="M202.519,-280.399C174.294,-270.283 136.652,-256.791 109.754,-247.149"/>
<polygon fill="midnightblue" stroke="midnightblue" points="110.607,-243.737 100.013,-243.658 108.245,-250.327 110.607,-243.737"/>
</g>
<!-- Node4 -->
<g id="node4" class="node"><title>Node4</title>
<g id="a_node4"><a xlink:href="address_8h.html" target="_top" xlink:title=" ">
<polygon fill="white" stroke="black" points="274.358,-224.5 274.358,-243.5 333.358,-243.5 333.358,-224.5 274.358,-224.5"/>
<text text-anchor="middle" x="303.858" y="-231.5" font-family="Helvetica,sans-Serif" font-size="10.00">address.h</text>
</a>
</g>
</g>
<!-- Node1&#45;&gt;Node4 -->
<g id="edge3" class="edge"><title>Node1&#45;&gt;Node4</title>
<path fill="none" stroke="midnightblue" d="M256.551,-280.399C265.839,-271.486 277.858,-259.952 287.456,-250.741"/>
<polygon fill="midnightblue" stroke="midnightblue" points="290.045,-253.107 294.837,-243.658 285.198,-248.057 290.045,-253.107"/>
</g>
<!-- Node7 -->
<g id="node7" class="node"><title>Node7</title>
<g id="a_node7"><a xlink:href="buffer_8h.html" target="_top" xlink:title=" ">
<polygon fill="white" stroke="black" points="154.858,-168.5 154.858,-187.5 202.858,-187.5 202.858,-168.5 154.858,-168.5"/>
<text text-anchor="middle" x="178.858" y="-175.5" font-family="Helvetica,sans-Serif" font-size="10.00">buffer.h</text>
</a>
</g>
</g>
<!-- Node1&#45;&gt;Node7 -->
<g id="edge38" class="edge"><title>Node1&#45;&gt;Node7</title>
<path fill="none" stroke="midnightblue" d="M234.133,-280.337C222.627,-259.243 201.004,-219.6 188.485,-196.648"/>
<polygon fill="midnightblue" stroke="midnightblue" points="191.448,-194.772 183.587,-187.669 185.303,-198.124 191.448,-194.772"/>
</g>
<!-- Node11 -->
<g id="node11" class="node"><title>Node11</title>
<g id="a_node11"><a xlink:href="common_8h.html" target="_top" xlink:title="Header with typedefs to make type designation platform independent.">
<polygon fill="white" stroke="black" points="427.858,-56.5 427.858,-75.5 489.858,-75.5 489.858,-56.5 427.858,-56.5"/>
<text text-anchor="middle" x="458.858" y="-63.5" font-family="Helvetica,sans-Serif" font-size="10.00">common.h</text>
</a>
</g>
</g>
<!-- Node1&#45;&gt;Node11 -->
<g id="edge39" class="edge"><title>Node1&#45;&gt;Node11</title>
<path fill="none" stroke="midnightblue" d="M300.92,-290.646C459.956,-278.918 890.933,-237.783 975.858,-132 981.423,-125.069 981.865,-118.552 975.858,-112 943.94,-77.1827 617.4,-69.2113 500.337,-67.4668"/>
<polygon fill="midnightblue" stroke="midnightblue" points="500.05,-63.9625 490.001,-67.321 499.951,-70.9618 500.05,-63.9625"/>
</g>
<!-- Node20 -->
<g id="node20" class="node"><title>Node20</title>
<g id="a_node20"><a xlink:href="exception_8h.html" target="_top" xlink:title=" ">
<polygon fill="white" stroke="black" points="460.358,-168.5 460.358,-187.5 527.358,-187.5 527.358,-168.5 460.358,-168.5"/>
<text text-anchor="middle" x="493.858" y="-175.5" font-family="Helvetica,sans-Serif" font-size="10.00">exception.h</text>
</a>
</g>
</g>
<!-- Node1&#45;&gt;Node20 -->
<g id="edge40" class="edge"><title>Node1&#45;&gt;Node20</title>
<path fill="none" stroke="midnightblue" d="M272.759,-280.337C322.207,-257.674 418.374,-213.597 465.896,-191.816"/>
<polygon fill="midnightblue" stroke="midnightblue" points="467.632,-194.871 475.264,-187.522 464.715,-188.507 467.632,-194.871"/>
</g>
<!-- Node24 -->
<g id="node24" class="node"><title>Node24</title>
<g id="a_node24"><a xlink:href="useful__base__types_8h.html" target="_top" xlink:title=" ">
<polygon fill="white" stroke="black" points="177.858,-56.5 177.858,-75.5 283.858,-75.5 283.858,-56.5 177.858,-56.5"/>
<text text-anchor="middle" x="230.858" y="-63.5" font-family="Helvetica,sans-Serif" font-size="10.00">useful_base_types.h</text>
</a>
</g>
</g>
<!-- Node1&#45;&gt;Node24 -->
<g id="edge41" class="edge"><title>Node1&#45;&gt;Node24</title>
<path fill="none" stroke="midnightblue" d="M215.173,-280.466C158.025,-249.796 27.1051,-176.021 3.85835,-132 -0.292504,-124.14 -1.78293,-118.869 3.85835,-112 24.2559,-87.162 107.823,-75.7935 167.633,-70.7599"/>
<polygon fill="midnightblue" stroke="midnightblue" points="168.07,-74.2362 177.758,-69.9485 167.51,-67.2586 168.07,-74.2362"/>
</g>
<!-- Node25 -->
<g id="node25" class="node"><title>Node25</title>
<g id="a_node25"><a xlink:href="utils_8h.html" target="_top" xlink:title=" ">
<polygon fill="white" stroke="black" points="605.358,-168.5 605.358,-187.5 648.358,-187.5 648.358,-168.5 605.358,-168.5"/>
<text text-anchor="middle" x="626.858" y="-175.5" font-family="Helvetica,sans-Serif" font-size="10.00">utils.h</text>
</a>
</g>
</g>
<!-- Node1&#45;&gt;Node25 -->
<g id="edge42" class="edge"><title>Node1&#45;&gt;Node25</title>
<path fill="none" stroke="midnightblue" d="M288.682,-280.453C368.358,-256.55 528.217,-208.592 595.682,-188.353"/>
<polygon fill="midnightblue" stroke="midnightblue" points="596.745,-191.688 605.318,-185.462 594.734,-184.983 596.745,-191.688"/>
</g>
<!-- Node5 -->
<g id="node5" class="node"><title>Node5</title>
<g id="a_node5"><a xlink:title=" ">
<polygon fill="white" stroke="#bfbfbf" points="283.358,-168.5 283.358,-187.5 324.358,-187.5 324.358,-168.5 283.358,-168.5"/>
<text text-anchor="middle" x="303.858" y="-175.5" font-family="Helvetica,sans-Serif" font-size="10.00">string</text>
</a>
</g>
</g>
<!-- Node4&#45;&gt;Node5 -->
<g id="edge4" class="edge"><title>Node4&#45;&gt;Node5</title>
<path fill="none" stroke="midnightblue" d="M303.858,-224.083C303.858,-217.006 303.858,-206.861 303.858,-197.986"/>
<polygon fill="midnightblue" stroke="midnightblue" points="307.358,-197.751 303.858,-187.751 300.358,-197.751 307.358,-197.751"/>
</g>
<!-- Node6 -->
<g id="node6" class="node"><title>Node6</title>
<g id="a_node6"><a xlink:title=" ">
<polygon fill="white" stroke="#bfbfbf" points="220.858,-168.5 220.858,-187.5 264.858,-187.5 264.858,-168.5 220.858,-168.5"/>
<text text-anchor="middle" x="242.858" y="-175.5" font-family="Helvetica,sans-Serif" font-size="10.00">variant</text>
</a>
</g>
</g>
<!-- Node4&#45;&gt;Node6 -->
<g id="edge5" class="edge"><title>Node4&#45;&gt;Node6</title>
<path fill="none" stroke="midnightblue" d="M294.058,-224.324C285.04,-216.341 271.452,-204.313 260.54,-194.653"/>
<polygon fill="midnightblue" stroke="midnightblue" points="262.645,-191.842 252.837,-187.834 258.005,-197.083 262.645,-191.842"/>
</g>
<!-- Node4&#45;&gt;Node7 -->
<g id="edge6" class="edge"><title>Node4&#45;&gt;Node7</title>
<path fill="none" stroke="midnightblue" d="M284.052,-224.444C263.572,-215.596 231.376,-201.687 207.994,-191.586"/>
<polygon fill="midnightblue" stroke="midnightblue" points="209.14,-188.269 198.572,-187.516 206.364,-194.695 209.14,-188.269"/>
</g>
<!-- Node4&#45;&gt;Node20 -->
<g id="edge21" class="edge"><title>Node4&#45;&gt;Node20</title>
<path fill="none" stroke="midnightblue" d="M333.546,-224.563C365.982,-215.344 418.107,-200.529 454.068,-190.309"/>
<polygon fill="midnightblue" stroke="midnightblue" points="455.09,-193.657 463.752,-187.556 453.176,-186.924 455.09,-193.657"/>
</g>
<!-- Node22 -->
<g id="node22" class="node"><title>Node22</title>
<g id="a_node22"><a xlink:href="sys__socket__ops_8h.html" target="_top" xlink:title=" ">
<polygon fill="white" stroke="black" points="342.858,-168.5 342.858,-187.5 438.858,-187.5 438.858,-168.5 342.858,-168.5"/>
<text text-anchor="middle" x="390.858" y="-175.5" font-family="Helvetica,sans-Serif" font-size="10.00">sys_socket_ops.h</text>
</a>
</g>
</g>
<!-- Node4&#45;&gt;Node22 -->
<g id="edge24" class="edge"><title>Node4&#45;&gt;Node22</title>
<path fill="none" stroke="midnightblue" d="M317.836,-224.324C331.408,-215.9 352.239,-202.971 368.183,-193.074"/>
<polygon fill="midnightblue" stroke="midnightblue" points="370.264,-195.902 376.915,-187.655 366.573,-189.954 370.264,-195.902"/>
</g>
<!-- Node4&#45;&gt;Node25 -->
<g id="edge30" class="edge"><title>Node4&#45;&gt;Node25</title>
<path fill="none" stroke="midnightblue" d="M333.379,-228.065C394.033,-217.924 532.228,-194.821 594.899,-184.343"/>
<polygon fill="midnightblue" stroke="midnightblue" points="595.702,-187.757 604.988,-182.656 594.548,-180.853 595.702,-187.757"/>
</g>
<!-- Node7&#45;&gt;Node2 -->
<g id="edge7" class="edge"><title>Node7&#45;&gt;Node2</title>
<path fill="none" stroke="midnightblue" d="M156.516,-168.444C133.105,-159.478 96.1228,-145.314 69.6687,-135.183"/>
<polygon fill="midnightblue" stroke="midnightblue" points="70.6861,-131.824 60.0957,-131.516 68.1825,-138.361 70.6861,-131.824"/>
</g>
<!-- Node8 -->
<g id="node8" class="node"><title>Node8</title>
<g id="a_node8"><a xlink:title=" ">
<polygon fill="white" stroke="#bfbfbf" points="91.8584,-0.5 91.8584,-19.5 139.858,-19.5 139.858,-0.5 91.8584,-0.5"/>
<text text-anchor="middle" x="115.858" y="-7.5" font-family="Helvetica,sans-Serif" font-size="10.00">cstddef</text>
</a>
</g>
</g>
<!-- Node7&#45;&gt;Node8 -->
<g id="edge8" class="edge"><title>Node7&#45;&gt;Node8</title>
<path fill="none" stroke="midnightblue" d="M155.07,-168.499C139.137,-161.413 119.395,-149.605 109.858,-132 92.1433,-99.2972 101.764,-54.0399 109.409,-29.1758"/>
<polygon fill="midnightblue" stroke="midnightblue" points="112.764,-30.1772 112.578,-19.584 106.118,-27.9812 112.764,-30.1772"/>
</g>
<!-- Node9 -->
<g id="node9" class="node"><title>Node9</title>
<g id="a_node9"><a xlink:title=" ">
<polygon fill="white" stroke="#bfbfbf" points="118.858,-112.5 118.858,-131.5 164.858,-131.5 164.858,-112.5 118.858,-112.5"/>
<text text-anchor="middle" x="141.858" y="-119.5" font-family="Helvetica,sans-Serif" font-size="10.00">cstdint</text>
</a>
</g>
</g>
<!-- Node7&#45;&gt;Node9 -->
<g id="edge9" class="edge"><title>Node7&#45;&gt;Node9</title>
<path fill="none" stroke="midnightblue" d="M172.749,-168.083C167.576,-160.534 160.012,-149.495 153.664,-140.23"/>
<polygon fill="midnightblue" stroke="midnightblue" points="156.394,-138.022 147.854,-131.751 150.62,-141.979 156.394,-138.022"/>
</g>
<!-- Node10 -->
<g id="node10" class="node"><title>Node10</title>
<g id="a_node10"><a xlink:title=" ">
<polygon fill="white" stroke="#bfbfbf" points="258.858,-112.5 258.858,-131.5 320.858,-131.5 320.858,-112.5 258.858,-112.5"/>
<text text-anchor="middle" x="289.858" y="-119.5" font-family="Helvetica,sans-Serif" font-size="10.00">type_traits</text>
</a>
</g>
</g>
<!-- Node7&#45;&gt;Node10 -->
<g id="edge10" class="edge"><title>Node7&#45;&gt;Node10</title>
<path fill="none" stroke="midnightblue" d="M196.692,-168.324C214.574,-159.625 242.333,-146.12 262.904,-136.113"/>
<polygon fill="midnightblue" stroke="midnightblue" points="264.607,-139.177 272.069,-131.655 261.545,-132.882 264.607,-139.177"/>
</g>
<!-- Node7&#45;&gt;Node11 -->
<g id="edge11" class="edge"><title>Node7&#45;&gt;Node11</title>
<path fill="none" stroke="midnightblue" d="M185.686,-168.277C197.274,-154.113 222.24,-126.263 249.858,-112 303.745,-84.1721 373.99,-73.5351 417.756,-69.4809"/>
<polygon fill="midnightblue" stroke="midnightblue" points="418.084,-72.9658 427.75,-68.6274 417.488,-65.9912 418.084,-72.9658"/>
</g>
<!-- Node11&#45;&gt;Node8 -->
<g id="edge20" class="edge"><title>Node11&#45;&gt;Node8</title>
<path fill="none" stroke="midnightblue" d="M427.459,-60.7588C373.043,-53.297 257.746,-36.9942 160.858,-20 157.379,-19.3896 153.754,-18.7207 150.139,-18.0317"/>
<polygon fill="midnightblue" stroke="midnightblue" points="150.593,-14.5542 140.107,-16.0693 149.249,-21.424 150.593,-14.5542"/>
</g>
<!-- Node12 -->
<g id="node12" class="node"><title>Node12</title>
<g id="a_node12"><a xlink:title=" ">
<polygon fill="white" stroke="#bfbfbf" points="567.858,-0.5 567.858,-19.5 629.858,-19.5 629.858,-0.5 567.858,-0.5"/>
<text text-anchor="middle" x="598.858" y="-7.5" font-family="Helvetica,sans-Serif" font-size="10.00">arpa/inet.h</text>
</a>
</g>
</g>
<!-- Node11&#45;&gt;Node12 -->
<g id="edge12" class="edge"><title>Node11&#45;&gt;Node12</title>
<path fill="none" stroke="midnightblue" d="M481.042,-56.4435C504.287,-47.4776 541.007,-33.314 567.274,-23.1827"/>
<polygon fill="midnightblue" stroke="midnightblue" points="568.708,-26.3807 576.779,-19.5164 566.189,-19.8497 568.708,-26.3807"/>
</g>
<!-- Node13 -->
<g id="node13" class="node"><title>Node13</title>
<g id="a_node13"><a xlink:title=" ">
<polygon fill="white" stroke="#bfbfbf" points="648.358,-0.5 648.358,-19.5 695.358,-19.5 695.358,-0.5 648.358,-0.5"/>
<text text-anchor="middle" x="671.858" y="-7.5" font-family="Helvetica,sans-Serif" font-size="10.00">errno.h</text>
</a>
</g>
</g>
<!-- Node11&#45;&gt;Node13 -->
<g id="edge13" class="edge"><title>Node11&#45;&gt;Node13</title>
<path fill="none" stroke="midnightblue" d="M490.127,-57.3967C524.175,-49.0705 580.475,-35.1666 638.397,-20.0794"/>
<polygon fill="midnightblue" stroke="midnightblue" points="639.291,-23.4633 648.081,-17.5495 637.522,-16.6906 639.291,-23.4633"/>
</g>
<!-- Node14 -->
<g id="node14" class="node"><title>Node14</title>
<g id="a_node14"><a xlink:title=" ">
<polygon fill="white" stroke="#bfbfbf" points="713.358,-0.5 713.358,-19.5 756.358,-19.5 756.358,-0.5 713.358,-0.5"/>
<text text-anchor="middle" x="734.858" y="-7.5" font-family="Helvetica,sans-Serif" font-size="10.00">fcntl.h</text>
</a>
</g>
</g>
<!-- Node11&#45;&gt;Node14 -->
<g id="edge14" class="edge"><title>Node11&#45;&gt;Node14</title>
<path fill="none" stroke="midnightblue" d="M490.157,-60.411C535.283,-53.5489 621.387,-39.5397 703.336,-20.1655"/>
<polygon fill="midnightblue" stroke="midnightblue" points="704.397,-23.5104 713.306,-17.7764 702.766,-16.7032 704.397,-23.5104"/>
</g>
<!-- Node15 -->
<g id="node15" class="node"><title>Node15</title>
<g id="a_node15"><a xlink:title=" ">
<polygon fill="white" stroke="#bfbfbf" points="170.358,-0.5 170.358,-19.5 219.358,-19.5 219.358,-0.5 170.358,-0.5"/>
<text text-anchor="middle" x="194.858" y="-7.5" font-family="Helvetica,sans-Serif" font-size="10.00">netdb.h</text>
</a>
</g>
</g>
<!-- Node11&#45;&gt;Node15 -->
<g id="edge15" class="edge"><title>Node11&#45;&gt;Node15</title>
<path fill="none" stroke="midnightblue" d="M427.692,-59.6828C384.994,-52.2345 305.728,-37.8241 229.443,-20.251"/>
<polygon fill="midnightblue" stroke="midnightblue" points="230.208,-16.8354 219.675,-17.9791 228.622,-23.6534 230.208,-16.8354"/>
</g>
<!-- Node16 -->
<g id="node16" class="node"><title>Node16</title>
<g id="a_node16"><a xlink:title=" ">
<polygon fill="white" stroke="#bfbfbf" points="237.358,-0.5 237.358,-19.5 302.358,-19.5 302.358,-0.5 237.358,-0.5"/>
<text text-anchor="middle" x="269.858" y="-7.5" font-family="Helvetica,sans-Serif" font-size="10.00">netinet/in.h</text>
</a>
</g>
</g>
<!-- Node11&#45;&gt;Node16 -->
<g id="edge16" class="edge"><title>Node11&#45;&gt;Node16</title>
<path fill="none" stroke="midnightblue" d="M428.911,-56.4435C396.7,-47.2406 345.324,-32.5617 309.716,-22.3879"/>
<polygon fill="midnightblue" stroke="midnightblue" points="310.243,-18.8984 299.666,-19.5164 308.32,-25.629 310.243,-18.8984"/>
</g>
<!-- Node17 -->
<g id="node17" class="node"><title>Node17</title>
<g id="a_node17"><a xlink:title=" ">
<polygon fill="white" stroke="#bfbfbf" points="320.358,-0.5 320.358,-19.5 393.358,-19.5 393.358,-0.5 320.358,-0.5"/>
<text text-anchor="middle" x="356.858" y="-7.5" font-family="Helvetica,sans-Serif" font-size="10.00">sys/socket.h</text>
</a>
</g>
</g>
<!-- Node11&#45;&gt;Node17 -->
<g id="edge17" class="edge"><title>Node11&#45;&gt;Node17</title>
<path fill="none" stroke="midnightblue" d="M442.47,-56.324C426.187,-47.7034 400.991,-34.3643 382.142,-24.3855"/>
<polygon fill="midnightblue" stroke="midnightblue" points="383.681,-21.2402 373.206,-19.6545 380.406,-27.4267 383.681,-21.2402"/>
</g>
<!-- Node18 -->
<g id="node18" class="node"><title>Node18</title>
<g id="a_node18"><a xlink:title=" ">
<polygon fill="white" stroke="#bfbfbf" points="411.858,-0.5 411.858,-19.5 479.858,-19.5 479.858,-0.5 411.858,-0.5"/>
<text text-anchor="middle" x="445.858" y="-7.5" font-family="Helvetica,sans-Serif" font-size="10.00">sys/types.h</text>
</a>
</g>
</g>
<!-- Node11&#45;&gt;Node18 -->
<g id="edge18" class="edge"><title>Node11&#45;&gt;Node18</title>
<path fill="none" stroke="midnightblue" d="M456.712,-56.083C454.989,-48.9272 452.511,-38.6353 450.358,-29.6911"/>
<polygon fill="midnightblue" stroke="midnightblue" points="453.708,-28.6541 447.965,-19.7511 446.903,-30.2925 453.708,-28.6541"/>
</g>
<!-- Node19 -->
<g id="node19" class="node"><title>Node19</title>
<g id="a_node19"><a xlink:title=" ">
<polygon fill="white" stroke="#bfbfbf" points="498.358,-0.5 498.358,-19.5 549.358,-19.5 549.358,-0.5 498.358,-0.5"/>
<text text-anchor="middle" x="523.858" y="-7.5" font-family="Helvetica,sans-Serif" font-size="10.00">unistd.h</text>
</a>
</g>
</g>
<!-- Node11&#45;&gt;Node19 -->
<g id="edge19" class="edge"><title>Node11&#45;&gt;Node19</title>
<path fill="none" stroke="midnightblue" d="M469.302,-56.324C479.005,-48.2631 493.674,-36.0765 505.358,-26.3695"/>
<polygon fill="midnightblue" stroke="midnightblue" points="507.77,-28.9163 513.225,-19.8339 503.296,-23.532 507.77,-28.9163"/>
</g>
<!-- Node20&#45;&gt;Node11 -->
<g id="edge23" class="edge"><title>Node20&#45;&gt;Node11</title>
<path fill="none" stroke="midnightblue" d="M491.112,-168.368C485.438,-150.537 472.316,-109.295 464.672,-85.2717"/>
<polygon fill="midnightblue" stroke="midnightblue" points="467.959,-84.0594 461.592,-75.5914 461.289,-86.1819 467.959,-84.0594"/>
</g>
<!-- Node21 -->
<g id="node21" class="node"><title>Node21</title>
<g id="a_node21"><a xlink:title=" ">
<polygon fill="white" stroke="#bfbfbf" points="524.858,-112.5 524.858,-131.5 598.858,-131.5 598.858,-112.5 524.858,-112.5"/>
<text text-anchor="middle" x="561.858" y="-119.5" font-family="Helvetica,sans-Serif" font-size="10.00">system_error</text>
</a>
</g>
</g>
<!-- Node20&#45;&gt;Node21 -->
<g id="edge22" class="edge"><title>Node20&#45;&gt;Node21</title>
<path fill="none" stroke="midnightblue" d="M504.784,-168.324C515.033,-160.185 530.579,-147.839 542.859,-138.087"/>
<polygon fill="midnightblue" stroke="midnightblue" points="545.08,-140.794 550.734,-131.834 540.726,-135.312 545.08,-140.794"/>
</g>
<!-- Node22&#45;&gt;Node11 -->
<g id="edge25" class="edge"><title>Node22&#45;&gt;Node11</title>
<path fill="none" stroke="midnightblue" d="M403.524,-168.456C414.644,-160.322 430.468,-147.106 439.858,-132 448.684,-117.802 453.567,-99.3242 456.164,-85.7002"/>
<polygon fill="midnightblue" stroke="midnightblue" points="459.656,-86.0372 457.845,-75.5983 452.751,-84.8882 459.656,-86.0372"/>
</g>
<!-- Node23 -->
<g id="node23" class="node"><title>Node23</title>
<g id="a_node23"><a xlink:href="sys__error__code_8h.html" target="_top" xlink:title=" ">
<polygon fill="white" stroke="black" points="338.858,-112.5 338.858,-131.5 430.858,-131.5 430.858,-112.5 338.858,-112.5"/>
<text text-anchor="middle" x="384.858" y="-119.5" font-family="Helvetica,sans-Serif" font-size="10.00">sys_error_code.h</text>
</a>
</g>
</g>
<!-- Node22&#45;&gt;Node23 -->
<g id="edge26" class="edge"><title>Node22&#45;&gt;Node23</title>
<path fill="none" stroke="midnightblue" d="M389.868,-168.083C389.072,-160.927 387.929,-150.635 386.935,-141.691"/>
<polygon fill="midnightblue" stroke="midnightblue" points="390.414,-141.303 385.831,-131.751 383.457,-142.076 390.414,-141.303"/>
</g>
<!-- Node22&#45;&gt;Node24 -->
<g id="edge29" class="edge"><title>Node22&#45;&gt;Node24</title>
<path fill="none" stroke="midnightblue" d="M350.228,-168.493C313.786,-160.091 263.945,-146.437 249.858,-132 237.937,-119.783 233.427,-100.516 231.756,-86.1259"/>
<polygon fill="midnightblue" stroke="midnightblue" points="235.221,-85.5484 230.937,-75.8584 228.243,-86.1051 235.221,-85.5484"/>
</g>
<!-- Node23&#45;&gt;Node11 -->
<g id="edge27" class="edge"><title>Node23&#45;&gt;Node11</title>
<path fill="none" stroke="midnightblue" d="M396.748,-112.324C408.009,-104.107 425.145,-91.6017 438.567,-81.8069"/>
<polygon fill="midnightblue" stroke="midnightblue" points="440.738,-84.5559 446.753,-75.8339 436.612,-78.9014 440.738,-84.5559"/>
</g>
<!-- Node23&#45;&gt;Node24 -->
<g id="edge28" class="edge"><title>Node23&#45;&gt;Node24</title>
<path fill="none" stroke="midnightblue" d="M360.457,-112.444C334.662,-103.399 293.782,-89.064 264.841,-78.9158"/>
<polygon fill="midnightblue" stroke="midnightblue" points="265.741,-75.5226 255.146,-75.5164 263.424,-82.1283 265.741,-75.5226"/>
</g>
<!-- Node25&#45;&gt;Node10 -->
<g id="edge35" class="edge"><title>Node25&#45;&gt;Node10</title>
<path fill="none" stroke="midnightblue" d="M605.156,-174.249C557.468,-168.09 439.781,-152.27 331.38,-132.18"/>
<polygon fill="midnightblue" stroke="midnightblue" points="331.731,-128.685 321.258,-130.286 330.443,-135.565 331.731,-128.685"/>
</g>
<!-- Node25&#45;&gt;Node11 -->
<g id="edge37" class="edge"><title>Node25&#45;&gt;Node11</title>
<path fill="none" stroke="midnightblue" d="M626.809,-168.113C626.24,-154.222 623.087,-127.365 607.858,-112 579.537,-83.4249 533.76,-72.8667 500.411,-69.0339"/>
<polygon fill="midnightblue" stroke="midnightblue" points="500.353,-65.5113 490.058,-68.0115 499.665,-72.4774 500.353,-65.5113"/>
</g>
<!-- Node25&#45;&gt;Node21 -->
<g id="edge34" class="edge"><title>Node25&#45;&gt;Node21</title>
<path fill="none" stroke="midnightblue" d="M616.415,-168.324C606.712,-160.263 592.043,-148.077 580.359,-138.369"/>
<polygon fill="midnightblue" stroke="midnightblue" points="582.42,-135.532 572.492,-131.834 577.947,-140.916 582.42,-135.532"/>
</g>
<!-- Node26 -->
<g id="node26" class="node"><title>Node26</title>
<g id="a_node26"><a xlink:title=" ">
<polygon fill="white" stroke="#bfbfbf" points="756.858,-112.5 756.858,-131.5 816.858,-131.5 816.858,-112.5 756.858,-112.5"/>
<text text-anchor="middle" x="786.858" y="-119.5" font-family="Helvetica,sans-Serif" font-size="10.00">fmt/core.h</text>
</a>
</g>
</g>
<!-- Node25&#45;&gt;Node26 -->
<g id="edge31" class="edge"><title>Node25&#45;&gt;Node26</title>
<path fill="none" stroke="midnightblue" d="M648.437,-169.717C674.914,-160.781 720.164,-145.509 751.693,-134.868"/>
<polygon fill="midnightblue" stroke="midnightblue" points="753.051,-138.104 761.406,-131.59 750.812,-131.472 753.051,-138.104"/>
</g>
<!-- Node27 -->
<g id="node27" class="node"><title>Node27</title>
<g id="a_node27"><a xlink:title=" ">
<polygon fill="white" stroke="#bfbfbf" points="834.858,-112.5 834.858,-131.5 902.858,-131.5 902.858,-112.5 834.858,-112.5"/>
<text text-anchor="middle" x="868.858" y="-119.5" font-family="Helvetica,sans-Serif" font-size="10.00">fmt/format.h</text>
</a>
</g>
</g>
<!-- Node25&#45;&gt;Node27 -->
<g id="edge32" class="edge"><title>Node25&#45;&gt;Node27</title>
<path fill="none" stroke="midnightblue" d="M648.761,-172.113C688.356,-163.277 772.552,-144.49 824.567,-132.883"/>
<polygon fill="midnightblue" stroke="midnightblue" points="825.52,-136.257 834.518,-130.663 823.996,-129.425 825.52,-136.257"/>
</g>
<!-- Node28 -->
<g id="node28" class="node"><title>Node28</title>
<g id="a_node28"><a xlink:title=" ">
<polygon fill="white" stroke="#bfbfbf" points="920.858,-112.5 920.858,-131.5 966.858,-131.5 966.858,-112.5 920.858,-112.5"/>
<text text-anchor="middle" x="943.858" y="-119.5" font-family="Helvetica,sans-Serif" font-size="10.00">cstring</text>
</a>
</g>
</g>
<!-- Node25&#45;&gt;Node28 -->
<g id="edge33" class="edge"><title>Node25&#45;&gt;Node28</title>
<path fill="none" stroke="midnightblue" d="M648.471,-174.469C694.785,-168.86 807.16,-154.256 910.545,-132.076"/>
<polygon fill="midnightblue" stroke="midnightblue" points="911.492,-135.452 920.519,-129.906 910.004,-128.612 911.492,-135.452"/>
</g>
<!-- Node29 -->
<g id="node29" class="node"><title>Node29</title>
<g id="a_node29"><a xlink:title=" ">
<polygon fill="white" stroke="#bfbfbf" points="655.358,-112.5 655.358,-131.5 738.358,-131.5 738.358,-112.5 655.358,-112.5"/>
<text text-anchor="middle" x="696.858" y="-119.5" font-family="Helvetica,sans-Serif" font-size="10.00">unordered_map</text>
</a>
</g>
</g>
<!-- Node25&#45;&gt;Node29 -->
<g id="edge36" class="edge"><title>Node25&#45;&gt;Node29</title>
<path fill="none" stroke="midnightblue" d="M638.105,-168.324C648.656,-160.185 664.659,-147.839 677.301,-138.087"/>
<polygon fill="midnightblue" stroke="midnightblue" points="679.627,-140.713 685.407,-131.834 675.351,-135.171 679.627,-140.713"/>
</g>
</g>
</svg>
        <g id="navigator" transform="translate(0 0)" fill="#404254">
                <rect fill="#f2f5e9" fill-opacity="0.5" stroke="#606060" stroke-width=".5" x="0" y="0" width="60" height="60"/>
                <use id="zoomplus" xlink:href="#zoomPlus" x="17" y="9" onmousedown="handleZoom(evt,'in')"/>
                <use id="zoomminus" xlink:href="#zoomMin" x="42" y="9" onmousedown="handleZoom(evt,'out')"/>
                <use id="reset" xlink:href="#resetDef" x="30" y="36" onmousedown="handleReset()"/>
                <g id="arrowUp" xlink:href="#dirArrow" transform="translate(30 24)" onmousedown="handlePan(0,-1)">
                  <use xlink:href="#rim" fill="#404040">
                        <set attributeName="fill" to="#808080" begin="arrowUp.mouseover" end="arrowUp.mouseout"/>
                  </use>
                  <path fill="none" stroke="white" stroke-width="1.5" d="M0,-3.0v7 M-2.5,-0.5L0,-3.0L2.5,-0.5"/>
                </g>
                <g id="arrowRight" xlink:href="#dirArrow" transform="rotate(90) translate(36 -43)" onmousedown="handlePan(1,0)">
                  <use xlink:href="#rim" fill="#404040">
                        <set attributeName="fill" to="#808080" begin="arrowRight.mouseover" end="arrowRight.mouseout"/>
                  </use>
                  <path fill="none" stroke="white" stroke-width="1.5" d="M0,-3.0v7 M-2.5,-0.5L0,-3.0L2.5,-0.5"/>
                </g>
                <g id="arrowDown" xlink:href="#dirArrow" transform="rotate(180) translate(-30 -48)" onmousedown="handlePan(0,1)">
                  <use xlink:href="#rim" fill="#404040">
                        <set attributeName="fill" to="#808080" begin="arrowDown.mouseover" end="arrowDown.mouseout"/>
                  </use>
                  <path fill="none" stroke="white" stroke-width="1.5" d="M0,-3.0v7 M-2.5,-0.5L0,-3.0L2.5,-0.5"/>
                </g>
                <g id="arrowLeft" xlink:href="#dirArrow" transform="rotate(270) translate(-36 17)" onmousedown="handlePan(-1,0)">
                  <use xlink:href="#rim" fill="#404040">
                        <set attributeName="fill" to="#808080" begin="arrowLeft.mouseover" end="arrowLeft.mouseout"/>
                  </use>
                  <path fill="none" stroke="white" stroke-width="1.5" d="M0,-3.0v7 M-2.5,-0.5L0,-3.0L2.5,-0.5"/>
                </g>
        </g>
        <svg viewBox="0 0 15 15" width="100%" height="30px" preserveAspectRatio="xMaxYMin meet">
         <g id="arrow_out" transform="scale(0.3 0.3)">
          <a xlink:href="socket_8h__incl_org.svg" target="_base">
           <rect id="button" ry="5" rx="5" y="6" x="6" height="38" width="38"
                fill="#f2f5e9" fill-opacity="0.5" stroke="#606060" stroke-width="1.0"/>
           <path id="arrow"
             d="M 11.500037,31.436501 C 11.940474,20.09759 22.043105,11.32322 32.158766,21.979434 L 37.068811,17.246167 C 37.068811,17.246167 37.088388,32 37.088388,32 L 22.160133,31.978069 C 22.160133,31.978069 26.997745,27.140456 26.997745,27.140456 C 18.528582,18.264221 13.291696,25.230495 11.500037,31.436501 z"
             style="fill:#404040;"/>
          </a>
         </g>
        </svg>
</svg>
