<?xml version="1.0" encoding="UTF-8" standalone="no"?>
<!DOCTYPE svg PUBLIC "-//W3C//DTD SVG 1.1//EN"
 "http://www.w3.org/Graphics/SVG/1.1/DTD/svg11.dtd">
<!-- Generated by graphviz version 2.38.0 (20140413.2041)
 -->
<!-- Title: C:/projects/ndt/sources/include/ndt/socket.h Pages: 1 -->
<svg width="1296pt" height="319pt"
 viewBox="0.00 0.00 1295.50 319.00" xmlns="http://www.w3.org/2000/svg" xmlns:xlink="http://www.w3.org/1999/xlink">
<g id="graph0" class="graph" transform="scale(1 1) rotate(0) translate(4 315)">
<title>C:/projects/ndt/sources/include/ndt/socket.h</title>
<polygon fill="white" stroke="none" points="-4,4 -4,-315 1291.5,-315 1291.5,4 -4,4"/>
<!-- Node1 -->
<g id="node1" class="node"><title>Node1</title>
<g id="a_node1"><a xlink:title=" ">
<polygon fill="#bfbfbf" stroke="black" points="760,-280.5 760,-310.5 878,-310.5 878,-280.5 760,-280.5"/>
<text text-anchor="start" x="768" y="-298.5" font-family="Helvetica,sans-Serif" font-size="10.00">C:/projects/ndt/sources</text>
<text text-anchor="middle" x="819" y="-287.5" font-family="Helvetica,sans-Serif" font-size="10.00">/include/ndt/socket.h</text>
</a>
</g>
</g>
<!-- Node2 -->
<g id="node2" class="node"><title>Node2</title>
<g id="a_node2"><a xlink:title=" ">
<polygon fill="white" stroke="#bfbfbf" points="676.5,-56.5 676.5,-75.5 725.5,-75.5 725.5,-56.5 676.5,-56.5"/>
<text text-anchor="middle" x="701" y="-63.5" font-family="Helvetica,sans-Serif" font-size="10.00">cassert</text>
</a>
</g>
</g>
<!-- Node1&#45;&gt;Node2 -->
<g id="edge1" class="edge"><title>Node1&#45;&gt;Node2</title>
<path fill="none" stroke="midnightblue" d="M759.916,-290.081C698.202,-281.725 606.244,-257.599 576,-188 572.457,-179.848 572.169,-176.021 576,-168 586.991,-144.988 646.029,-103.337 678.887,-81.4024"/>
<polygon fill="midnightblue" stroke="midnightblue" points="680.99,-84.2075 687.399,-75.7705 677.128,-78.3697 680.99,-84.2075"/>
</g>
<!-- Node3 -->
<g id="node3" class="node"><title>Node3</title>
<g id="a_node3"><a xlink:title=" ">
<polygon fill="white" stroke="#bfbfbf" points="1133,-224.5 1133,-243.5 1191,-243.5 1191,-224.5 1133,-224.5"/>
<text text-anchor="middle" x="1162" y="-231.5" font-family="Helvetica,sans-Serif" font-size="10.00">functional</text>
</a>
</g>
</g>
<!-- Node1&#45;&gt;Node3 -->
<g id="edge2" class="edge"><title>Node1&#45;&gt;Node3</title>
<path fill="none" stroke="midnightblue" d="M878.039,-285.269C938.628,-275.63 1035.57,-259.746 1119,-244 1120.26,-243.761 1121.55,-243.515 1122.85,-243.263"/>
<polygon fill="midnightblue" stroke="midnightblue" points="1123.77,-246.648 1132.89,-241.256 1122.39,-239.784 1123.77,-246.648"/>
</g>
<!-- Node4 -->
<g id="node4" class="node"><title>Node4</title>
<g id="a_node4"><a xlink:href="address_8h.html" target="_top" xlink:title=" ">
<polygon fill="white" stroke="black" points="645.5,-224.5 645.5,-243.5 704.5,-243.5 704.5,-224.5 645.5,-224.5"/>
<text text-anchor="middle" x="675" y="-231.5" font-family="Helvetica,sans-Serif" font-size="10.00">address.h</text>
</a>
</g>
</g>
<!-- Node1&#45;&gt;Node4 -->
<g id="edge3" class="edge"><title>Node1&#45;&gt;Node4</title>
<path fill="none" stroke="midnightblue" d="M784.874,-280.399C760.713,-270.416 728.598,-257.147 705.333,-247.534"/>
<polygon fill="midnightblue" stroke="midnightblue" points="706.532,-244.242 695.953,-243.658 703.859,-250.711 706.532,-244.242"/>
</g>
<!-- Node11 -->
<g id="node11" class="node"><title>Node11</title>
<g id="a_node11"><a xlink:href="buffer_8h.html" target="_top" xlink:title=" ">
<polygon fill="white" stroke="black" points="677,-112.5 677,-131.5 725,-131.5 725,-112.5 677,-112.5"/>
<text text-anchor="middle" x="701" y="-119.5" font-family="Helvetica,sans-Serif" font-size="10.00">buffer.h</text>
</a>
</g>
</g>
<!-- Node1&#45;&gt;Node11 -->
<g id="edge54" class="edge"><title>Node1&#45;&gt;Node11</title>
<path fill="none" stroke="midnightblue" d="M815.208,-280.32C808.039,-255.491 790.602,-203.421 762,-168 751.986,-155.598 737.792,-144.858 725.616,-136.984"/>
<polygon fill="midnightblue" stroke="midnightblue" points="727.148,-133.816 716.8,-131.54 723.47,-139.772 727.148,-133.816"/>
</g>
<!-- Node15 -->
<g id="node15" class="node"><title>Node15</title>
<g id="a_node15"><a xlink:href="common_8h.html" target="_top" xlink:title="Header with typedefs to make type designation platform independent.">
<polygon fill="white" stroke="black" points="874,-56.5 874,-75.5 936,-75.5 936,-56.5 874,-56.5"/>
<text text-anchor="middle" x="905" y="-63.5" font-family="Helvetica,sans-Serif" font-size="10.00">common.h</text>
</a>
</g>
</g>
<!-- Node1&#45;&gt;Node15 -->
<g id="edge55" class="edge"><title>Node1&#45;&gt;Node15</title>
<path fill="none" stroke="midnightblue" d="M824.38,-280.269C839.327,-240.728 881.356,-129.548 898.044,-85.4019"/>
<polygon fill="midnightblue" stroke="midnightblue" points="901.363,-86.5186 901.625,-75.927 894.815,-84.0434 901.363,-86.5186"/>
</g>
<!-- Node26 -->
<g id="node26" class="node"><title>Node26</title>
<g id="a_node26"><a xlink:href="useful__base__types_8h.html" target="_top" xlink:title=" ">
<polygon fill="white" stroke="black" points="984,-56.5 984,-75.5 1090,-75.5 1090,-56.5 984,-56.5"/>
<text text-anchor="middle" x="1037" y="-63.5" font-family="Helvetica,sans-Serif" font-size="10.00">useful_base_types.h</text>
</a>
</g>
</g>
<!-- Node1&#45;&gt;Node26 -->
<g id="edge57" class="edge"><title>Node1&#45;&gt;Node26</title>
<path fill="none" stroke="midnightblue" d="M870.827,-280.491C919.655,-264.972 992.125,-235.639 1039,-188 1064.04,-162.553 1074.81,-146.326 1065,-112 1062.1,-101.844 1056.17,-91.747 1050.51,-83.6991"/>
<polygon fill="midnightblue" stroke="midnightblue" points="1053.22,-81.4786 1044.41,-75.5891 1047.62,-85.6853 1053.22,-81.4786"/>
</g>
<!-- Node27 -->
<g id="node27" class="node"><title>Node27</title>
<g id="a_node27"><a xlink:href="utils_8h.html" target="_top" xlink:title=" ">
<polygon fill="white" stroke="black" points="330.5,-112.5 330.5,-131.5 373.5,-131.5 373.5,-112.5 330.5,-112.5"/>
<text text-anchor="middle" x="352" y="-119.5" font-family="Helvetica,sans-Serif" font-size="10.00">utils.h</text>
</a>
</g>
</g>
<!-- Node1&#45;&gt;Node27 -->
<g id="edge58" class="edge"><title>Node1&#45;&gt;Node27</title>
<path fill="none" stroke="midnightblue" d="M759.974,-289.981C697.437,-283.997 596.404,-270.885 513,-244 459.652,-226.803 442.964,-223.998 400,-188 383.925,-174.531 370.255,-154.626 361.664,-140.395"/>
<polygon fill="midnightblue" stroke="midnightblue" points="364.606,-138.492 356.56,-131.599 358.551,-142.005 364.606,-138.492"/>
</g>
<!-- Node33 -->
<g id="node33" class="node"><title>Node33</title>
<g id="a_node33"><a xlink:href="exception_8h.html" target="_top" xlink:title=" ">
<polygon fill="white" stroke="black" points="785.5,-112.5 785.5,-131.5 852.5,-131.5 852.5,-112.5 785.5,-112.5"/>
<text text-anchor="middle" x="819" y="-119.5" font-family="Helvetica,sans-Serif" font-size="10.00">exception.h</text>
</a>
</g>
</g>
<!-- Node1&#45;&gt;Node33 -->
<g id="edge56" class="edge"><title>Node1&#45;&gt;Node33</title>
<path fill="none" stroke="midnightblue" d="M819,-280.465C819,-249.704 819,-176.329 819,-141.7"/>
<polygon fill="midnightblue" stroke="midnightblue" points="822.5,-141.56 819,-131.56 815.5,-141.56 822.5,-141.56"/>
</g>
<!-- Node5 -->
<g id="node5" class="node"><title>Node5</title>
<g id="a_node5"><a xlink:title=" ">
<polygon fill="white" stroke="#bfbfbf" points="593.5,-168.5 593.5,-187.5 634.5,-187.5 634.5,-168.5 593.5,-168.5"/>
<text text-anchor="middle" x="614" y="-175.5" font-family="Helvetica,sans-Serif" font-size="10.00">string</text>
</a>
</g>
</g>
<!-- Node4&#45;&gt;Node5 -->
<g id="edge4" class="edge"><title>Node4&#45;&gt;Node5</title>
<path fill="none" stroke="midnightblue" d="M665.199,-224.324C656.182,-216.341 642.594,-204.313 631.682,-194.653"/>
<polygon fill="midnightblue" stroke="midnightblue" points="633.787,-191.842 623.979,-187.834 629.147,-197.083 633.787,-191.842"/>
</g>
<!-- Node6 -->
<g id="node6" class="node"><title>Node6</title>
<g id="a_node6"><a xlink:title=" ">
<polygon fill="white" stroke="#bfbfbf" points="653,-168.5 653,-187.5 697,-187.5 697,-168.5 653,-168.5"/>
<text text-anchor="middle" x="675" y="-175.5" font-family="Helvetica,sans-Serif" font-size="10.00">variant</text>
</a>
</g>
</g>
<!-- Node4&#45;&gt;Node6 -->
<g id="edge5" class="edge"><title>Node4&#45;&gt;Node6</title>
<path fill="none" stroke="midnightblue" d="M675,-224.083C675,-217.006 675,-206.861 675,-197.986"/>
<polygon fill="midnightblue" stroke="midnightblue" points="678.5,-197.751 675,-187.751 671.5,-197.751 678.5,-197.751"/>
</g>
<!-- Node7 -->
<g id="node7" class="node"><title>Node7</title>
<g id="a_node7"><a xlink:href="bin__rw_8h.html" target="_top" xlink:title=" ">
<polygon fill="white" stroke="black" points="445.5,-168.5 445.5,-187.5 498.5,-187.5 498.5,-168.5 445.5,-168.5"/>
<text text-anchor="middle" x="472" y="-175.5" font-family="Helvetica,sans-Serif" font-size="10.00">bin_rw.h</text>
</a>
</g>
</g>
<!-- Node4&#45;&gt;Node7 -->
<g id="edge6" class="edge"><title>Node4&#45;&gt;Node7</title>
<path fill="none" stroke="midnightblue" d="M645.482,-225.148C609.166,-215.488 547.521,-199.089 508.333,-188.665"/>
<polygon fill="midnightblue" stroke="midnightblue" points="509.204,-185.275 498.641,-186.087 507.405,-192.04 509.204,-185.275"/>
</g>
<!-- Node4&#45;&gt;Node11 -->
<g id="edge42" class="edge"><title>Node4&#45;&gt;Node11</title>
<path fill="none" stroke="midnightblue" d="M645.349,-225.312C612.121,-215.175 565.204,-195.367 584,-168 602.464,-141.117 639.402,-130.287 666.86,-125.928"/>
<polygon fill="midnightblue" stroke="midnightblue" points="667.43,-129.383 676.861,-124.555 666.477,-122.448 667.43,-129.383"/>
</g>
<!-- Node4&#45;&gt;Node27 -->
<g id="edge53" class="edge"><title>Node4&#45;&gt;Node27</title>
<path fill="none" stroke="midnightblue" d="M645.355,-231.858C598.826,-229.109 506.67,-219.757 436,-188 409.36,-176.028 383.529,-153.988 367.704,-138.922"/>
<polygon fill="midnightblue" stroke="midnightblue" points="369.986,-136.258 360.39,-131.769 365.092,-141.263 369.986,-136.258"/>
</g>
<!-- Node4&#45;&gt;Node33 -->
<g id="edge43" class="edge"><title>Node4&#45;&gt;Node33</title>
<path fill="none" stroke="midnightblue" d="M696.697,-224.487C715.144,-216.639 741.78,-203.827 762,-188 779.646,-174.189 796.096,-154.379 806.744,-140.265"/>
<polygon fill="midnightblue" stroke="midnightblue" points="809.764,-142.066 812.857,-131.933 804.12,-137.925 809.764,-142.066"/>
</g>
<!-- Node34 -->
<g id="node34" class="node"><title>Node34</title>
<g id="a_node34"><a xlink:href="sys__socket__ops_8h.html" target="_top" xlink:title=" ">
<polygon fill="white" stroke="black" points="934,-168.5 934,-187.5 1030,-187.5 1030,-168.5 934,-168.5"/>
<text text-anchor="middle" x="982" y="-175.5" font-family="Helvetica,sans-Serif" font-size="10.00">sys_socket_ops.h</text>
</a>
</g>
</g>
<!-- Node4&#45;&gt;Node34 -->
<g id="edge46" class="edge"><title>Node4&#45;&gt;Node34</title>
<path fill="none" stroke="midnightblue" d="M704.715,-227.773C755.137,-218.904 858.322,-200.754 923.614,-189.27"/>
<polygon fill="midnightblue" stroke="midnightblue" points="924.511,-192.666 933.754,-187.486 923.298,-185.772 924.511,-192.666"/>
</g>
<!-- Node36 -->
<g id="node36" class="node"><title>Node36</title>
<g id="a_node36"><a xlink:href="tag_8h.html" target="_top" xlink:title=" ">
<polygon fill="white" stroke="black" points="715,-168.5 715,-187.5 753,-187.5 753,-168.5 715,-168.5"/>
<text text-anchor="middle" x="734" y="-175.5" font-family="Helvetica,sans-Serif" font-size="10.00">tag.h</text>
</a>
</g>
</g>
<!-- Node4&#45;&gt;Node36 -->
<g id="edge52" class="edge"><title>Node4&#45;&gt;Node36</title>
<path fill="none" stroke="midnightblue" d="M684.479,-224.324C693.201,-216.341 706.343,-204.313 716.898,-194.653"/>
<polygon fill="midnightblue" stroke="midnightblue" points="719.334,-197.167 724.348,-187.834 714.608,-192.004 719.334,-197.167"/>
</g>
<!-- Node8 -->
<g id="node8" class="node"><title>Node8</title>
<g id="a_node8"><a xlink:title=" ">
<polygon fill="white" stroke="#bfbfbf" points="468,-112.5 468,-131.5 524,-131.5 524,-112.5 468,-112.5"/>
<text text-anchor="middle" x="496" y="-119.5" font-family="Helvetica,sans-Serif" font-size="10.00">algorithm</text>
</a>
</g>
</g>
<!-- Node7&#45;&gt;Node8 -->
<g id="edge7" class="edge"><title>Node7&#45;&gt;Node8</title>
<path fill="none" stroke="midnightblue" d="M475.963,-168.083C479.213,-160.77 483.919,-150.181 487.954,-141.103"/>
<polygon fill="midnightblue" stroke="midnightblue" points="491.248,-142.311 492.111,-131.751 484.851,-139.468 491.248,-142.311"/>
</g>
<!-- Node9 -->
<g id="node9" class="node"><title>Node9</title>
<g id="a_node9"><a xlink:title=" ">
<polygon fill="white" stroke="#bfbfbf" points="386,-56.5 386,-75.5 432,-75.5 432,-56.5 386,-56.5"/>
<text text-anchor="middle" x="409" y="-63.5" font-family="Helvetica,sans-Serif" font-size="10.00">cstring</text>
</a>
</g>
</g>
<!-- Node7&#45;&gt;Node9 -->
<g id="edge8" class="edge"><title>Node7&#45;&gt;Node9</title>
<path fill="none" stroke="midnightblue" d="M467.056,-168.368C456.706,-150.296 432.583,-108.176 418.912,-84.3074"/>
<polygon fill="midnightblue" stroke="midnightblue" points="421.928,-82.5295 413.921,-75.5914 415.853,-86.0085 421.928,-82.5295"/>
</g>
<!-- Node10 -->
<g id="node10" class="node"><title>Node10</title>
<g id="a_node10"><a xlink:title=" ">
<polygon fill="white" stroke="#bfbfbf" points="450,-56.5 450,-75.5 512,-75.5 512,-56.5 450,-56.5"/>
<text text-anchor="middle" x="481" y="-63.5" font-family="Helvetica,sans-Serif" font-size="10.00">type_traits</text>
</a>
</g>
</g>
<!-- Node7&#45;&gt;Node10 -->
<g id="edge9" class="edge"><title>Node7&#45;&gt;Node10</title>
<path fill="none" stroke="midnightblue" d="M467.829,-168.133C462.471,-155.586 454.383,-131.957 459,-112 461.23,-102.363 465.821,-92.4052 470.236,-84.3149"/>
<polygon fill="midnightblue" stroke="midnightblue" points="473.351,-85.9216 475.362,-75.5194 467.303,-82.3968 473.351,-85.9216"/>
</g>
<!-- Node7&#45;&gt;Node11 -->
<g id="edge10" class="edge"><title>Node7&#45;&gt;Node11</title>
<path fill="none" stroke="midnightblue" d="M498.717,-170.7C540.509,-160.845 621.291,-141.796 667.113,-130.991"/>
<polygon fill="midnightblue" stroke="midnightblue" points="667.948,-134.39 676.878,-128.688 666.341,-127.577 667.948,-134.39"/>
</g>
<!-- Node24 -->
<g id="node24" class="node"><title>Node24</title>
<g id="a_node24"><a xlink:href="endian_8h.html" target="_top" xlink:title=" ">
<polygon fill="white" stroke="black" points="542.5,-112.5 542.5,-131.5 595.5,-131.5 595.5,-112.5 542.5,-112.5"/>
<text text-anchor="middle" x="569" y="-119.5" font-family="Helvetica,sans-Serif" font-size="10.00">endian.h</text>
</a>
</g>
</g>
<!-- Node7&#45;&gt;Node24 -->
<g id="edge26" class="edge"><title>Node7&#45;&gt;Node24</title>
<path fill="none" stroke="midnightblue" d="M487.585,-168.324C502.999,-159.743 526.812,-146.486 544.71,-136.522"/>
<polygon fill="midnightblue" stroke="midnightblue" points="546.419,-139.577 553.454,-131.655 543.014,-133.461 546.419,-139.577"/>
</g>
<!-- Node7&#45;&gt;Node27 -->
<g id="edge32" class="edge"><title>Node7&#45;&gt;Node27</title>
<path fill="none" stroke="midnightblue" d="M452.986,-168.444C433.412,-159.636 402.692,-145.812 380.271,-135.722"/>
<polygon fill="midnightblue" stroke="midnightblue" points="381.481,-132.428 370.925,-131.516 378.608,-138.812 381.481,-132.428"/>
</g>
<!-- Node11&#45;&gt;Node2 -->
<g id="edge11" class="edge"><title>Node11&#45;&gt;Node2</title>
<path fill="none" stroke="midnightblue" d="M701,-112.083C701,-105.006 701,-94.8611 701,-85.9865"/>
<polygon fill="midnightblue" stroke="midnightblue" points="704.5,-85.751 701,-75.7511 697.5,-85.7511 704.5,-85.751"/>
</g>
<!-- Node11&#45;&gt;Node10 -->
<g id="edge15" class="edge"><title>Node11&#45;&gt;Node10</title>
<path fill="none" stroke="midnightblue" d="M676.616,-115.015C639.277,-105.85 567.494,-88.2303 522.04,-77.0735"/>
<polygon fill="midnightblue" stroke="midnightblue" points="522.751,-73.6442 512.205,-74.6594 521.082,-80.4424 522.751,-73.6442"/>
</g>
<!-- Node12 -->
<g id="node12" class="node"><title>Node12</title>
<g id="a_node12"><a xlink:title=" ">
<polygon fill="white" stroke="#bfbfbf" points="635,-0.5 635,-19.5 683,-19.5 683,-0.5 635,-0.5"/>
<text text-anchor="middle" x="659" y="-7.5" font-family="Helvetica,sans-Serif" font-size="10.00">cstddef</text>
</a>
</g>
</g>
<!-- Node11&#45;&gt;Node12 -->
<g id="edge12" class="edge"><title>Node11&#45;&gt;Node12</title>
<path fill="none" stroke="midnightblue" d="M725.052,-118.022C769.182,-111.578 856.017,-93.7689 827,-56 791.016,-9.1624 755.59,-33.4847 693.003,-19.9936"/>
<polygon fill="midnightblue" stroke="midnightblue" points="693.69,-16.5586 683.146,-17.6022 692.039,-23.3613 693.69,-16.5586"/>
</g>
<!-- Node13 -->
<g id="node13" class="node"><title>Node13</title>
<g id="a_node13"><a xlink:title=" ">
<polygon fill="white" stroke="#bfbfbf" points="612,-56.5 612,-75.5 658,-75.5 658,-56.5 612,-56.5"/>
<text text-anchor="middle" x="635" y="-63.5" font-family="Helvetica,sans-Serif" font-size="10.00">cstdint</text>
</a>
</g>
</g>
<!-- Node11&#45;&gt;Node13 -->
<g id="edge13" class="edge"><title>Node11&#45;&gt;Node13</title>
<path fill="none" stroke="midnightblue" d="M690.396,-112.324C680.544,-104.263 665.649,-92.0765 653.785,-82.3695"/>
<polygon fill="midnightblue" stroke="midnightblue" points="655.753,-79.4575 645.797,-75.8339 651.32,-84.8752 655.753,-79.4575"/>
</g>
<!-- Node14 -->
<g id="node14" class="node"><title>Node14</title>
<g id="a_node14"><a xlink:title=" ">
<polygon fill="white" stroke="#bfbfbf" points="744,-56.5 744,-75.5 818,-75.5 818,-56.5 744,-56.5"/>
<text text-anchor="middle" x="781" y="-63.5" font-family="Helvetica,sans-Serif" font-size="10.00">system_error</text>
</a>
</g>
</g>
<!-- Node11&#45;&gt;Node14 -->
<g id="edge14" class="edge"><title>Node11&#45;&gt;Node14</title>
<path fill="none" stroke="midnightblue" d="M713.853,-112.324C726.216,-103.979 745.13,-91.2122 759.737,-81.3524"/>
<polygon fill="midnightblue" stroke="midnightblue" points="761.848,-84.1503 768.179,-75.6545 757.932,-78.3483 761.848,-84.1503"/>
</g>
<!-- Node11&#45;&gt;Node15 -->
<g id="edge16" class="edge"><title>Node11&#45;&gt;Node15</title>
<path fill="none" stroke="midnightblue" d="M725.203,-114.593C759.426,-105.534 822.418,-88.8601 864.011,-77.8501"/>
<polygon fill="midnightblue" stroke="midnightblue" points="865.063,-81.1921 873.835,-75.2496 863.272,-74.4252 865.063,-81.1921"/>
</g>
<!-- Node15&#45;&gt;Node12 -->
<g id="edge25" class="edge"><title>Node15&#45;&gt;Node12</title>
<path fill="none" stroke="midnightblue" d="M873.596,-58.5992C826.674,-48.9988 739.57,-31.0269 692.956,-20.1002"/>
<polygon fill="midnightblue" stroke="midnightblue" points="693.648,-16.6673 683.109,-17.7486 692.022,-23.4758 693.648,-16.6673"/>
</g>
<!-- Node16 -->
<g id="node16" class="node"><title>Node16</title>
<g id="a_node16"><a xlink:title=" ">
<polygon fill="white" stroke="#bfbfbf" points="1160,-0.5 1160,-19.5 1222,-19.5 1222,-0.5 1160,-0.5"/>
<text text-anchor="middle" x="1191" y="-7.5" font-family="Helvetica,sans-Serif" font-size="10.00">arpa/inet.h</text>
</a>
</g>
</g>
<!-- Node15&#45;&gt;Node16 -->
<g id="edge17" class="edge"><title>Node15&#45;&gt;Node16</title>
<path fill="none" stroke="midnightblue" d="M936.006,-59.6578C980.792,-51.8647 1066.42,-36.6782 1149.79,-19.9806"/>
<polygon fill="midnightblue" stroke="midnightblue" points="1150.57,-23.3945 1159.68,-17.9905 1149.19,-16.5321 1150.57,-23.3945"/>
</g>
<!-- Node17 -->
<g id="node17" class="node"><title>Node17</title>
<g id="a_node17"><a xlink:title=" ">
<polygon fill="white" stroke="#bfbfbf" points="1240.5,-0.5 1240.5,-19.5 1287.5,-19.5 1287.5,-0.5 1240.5,-0.5"/>
<text text-anchor="middle" x="1264" y="-7.5" font-family="Helvetica,sans-Serif" font-size="10.00">errno.h</text>
</a>
</g>
</g>
<!-- Node15&#45;&gt;Node17 -->
<g id="edge18" class="edge"><title>Node15&#45;&gt;Node17</title>
<path fill="none" stroke="midnightblue" d="M936.075,-60.9434C1006.59,-51.7071 1176.2,-29.3082 1230.13,-19.7864"/>
<polygon fill="midnightblue" stroke="midnightblue" points="1231.12,-23.1614 1240.29,-17.8583 1229.82,-16.2842 1231.12,-23.1614"/>
</g>
<!-- Node18 -->
<g id="node18" class="node"><title>Node18</title>
<g id="a_node18"><a xlink:title=" ">
<polygon fill="white" stroke="#bfbfbf" points="701.5,-0.5 701.5,-19.5 744.5,-19.5 744.5,-0.5 701.5,-0.5"/>
<text text-anchor="middle" x="723" y="-7.5" font-family="Helvetica,sans-Serif" font-size="10.00">fcntl.h</text>
</a>
</g>
</g>
<!-- Node15&#45;&gt;Node18 -->
<g id="edge19" class="edge"><title>Node15&#45;&gt;Node18</title>
<path fill="none" stroke="midnightblue" d="M876.134,-56.488C847.463,-48.0262 801.996,-34.587 754.211,-20.3543"/>
<polygon fill="midnightblue" stroke="midnightblue" points="755.21,-17.0001 744.627,-17.4984 753.211,-23.7085 755.21,-17.0001"/>
</g>
<!-- Node19 -->
<g id="node19" class="node"><title>Node19</title>
<g id="a_node19"><a xlink:title=" ">
<polygon fill="white" stroke="#bfbfbf" points="762.5,-0.5 762.5,-19.5 811.5,-19.5 811.5,-0.5 762.5,-0.5"/>
<text text-anchor="middle" x="787" y="-7.5" font-family="Helvetica,sans-Serif" font-size="10.00">netdb.h</text>
</a>
</g>
</g>
<!-- Node15&#45;&gt;Node19 -->
<g id="edge20" class="edge"><title>Node15&#45;&gt;Node19</title>
<path fill="none" stroke="midnightblue" d="M886.303,-56.4435C867.056,-47.6356 836.848,-33.8116 814.8,-23.722"/>
<polygon fill="midnightblue" stroke="midnightblue" points="816.16,-20.4951 805.61,-19.5164 813.247,-26.8603 816.16,-20.4951"/>
</g>
<!-- Node20 -->
<g id="node20" class="node"><title>Node20</title>
<g id="a_node20"><a xlink:title=" ">
<polygon fill="white" stroke="#bfbfbf" points="829.5,-0.5 829.5,-19.5 894.5,-19.5 894.5,-0.5 829.5,-0.5"/>
<text text-anchor="middle" x="862" y="-7.5" font-family="Helvetica,sans-Serif" font-size="10.00">netinet/in.h</text>
</a>
</g>
</g>
<!-- Node15&#45;&gt;Node20 -->
<g id="edge21" class="edge"><title>Node15&#45;&gt;Node20</title>
<path fill="none" stroke="midnightblue" d="M897.899,-56.083C891.763,-48.3768 882.73,-37.0333 875.261,-27.6531"/>
<polygon fill="midnightblue" stroke="midnightblue" points="877.936,-25.3936 868.968,-19.7511 872.46,-29.7542 877.936,-25.3936"/>
</g>
<!-- Node21 -->
<g id="node21" class="node"><title>Node21</title>
<g id="a_node21"><a xlink:title=" ">
<polygon fill="white" stroke="#bfbfbf" points="912.5,-0.5 912.5,-19.5 985.5,-19.5 985.5,-0.5 912.5,-0.5"/>
<text text-anchor="middle" x="949" y="-7.5" font-family="Helvetica,sans-Serif" font-size="10.00">sys/socket.h</text>
</a>
</g>
</g>
<!-- Node15&#45;&gt;Node21 -->
<g id="edge22" class="edge"><title>Node15&#45;&gt;Node21</title>
<path fill="none" stroke="midnightblue" d="M912.266,-56.083C918.545,-48.3768 927.788,-37.0333 935.431,-27.6531"/>
<polygon fill="midnightblue" stroke="midnightblue" points="938.266,-29.7143 941.869,-19.7511 932.839,-25.2926 938.266,-29.7143"/>
</g>
<!-- Node22 -->
<g id="node22" class="node"><title>Node22</title>
<g id="a_node22"><a xlink:title=" ">
<polygon fill="white" stroke="#bfbfbf" points="1004,-0.5 1004,-19.5 1072,-19.5 1072,-0.5 1004,-0.5"/>
<text text-anchor="middle" x="1038" y="-7.5" font-family="Helvetica,sans-Serif" font-size="10.00">sys/types.h</text>
</a>
</g>
</g>
<!-- Node15&#45;&gt;Node22 -->
<g id="edge23" class="edge"><title>Node15&#45;&gt;Node22</title>
<path fill="none" stroke="midnightblue" d="M926.074,-56.4435C948.06,-47.5171 982.734,-33.4387 1007.66,-23.3168"/>
<polygon fill="midnightblue" stroke="midnightblue" points="1009.08,-26.5213 1017.02,-19.5164 1006.44,-20.0355 1009.08,-26.5213"/>
</g>
<!-- Node23 -->
<g id="node23" class="node"><title>Node23</title>
<g id="a_node23"><a xlink:title=" ">
<polygon fill="white" stroke="#bfbfbf" points="1090.5,-0.5 1090.5,-19.5 1141.5,-19.5 1141.5,-0.5 1090.5,-0.5"/>
<text text-anchor="middle" x="1116" y="-7.5" font-family="Helvetica,sans-Serif" font-size="10.00">unistd.h</text>
</a>
</g>
</g>
<!-- Node15&#45;&gt;Node23 -->
<g id="edge24" class="edge"><title>Node15&#45;&gt;Node23</title>
<path fill="none" stroke="midnightblue" d="M936.16,-57.0467C969.415,-48.5555 1023.91,-34.6326 1080.54,-20.1152"/>
<polygon fill="midnightblue" stroke="midnightblue" points="1081.57,-23.4647 1090.39,-17.5906 1079.83,-16.684 1081.57,-23.4647"/>
</g>
<!-- Node24&#45;&gt;Node9 -->
<g id="edge28" class="edge"><title>Node24&#45;&gt;Node9</title>
<path fill="none" stroke="midnightblue" d="M543.648,-112.444C516.097,-103.145 471.984,-88.2572 441.81,-78.0735"/>
<polygon fill="midnightblue" stroke="midnightblue" points="442.75,-74.6967 432.156,-74.8151 440.512,-81.3292 442.75,-74.6967"/>
</g>
<!-- Node24&#45;&gt;Node10 -->
<g id="edge30" class="edge"><title>Node24&#45;&gt;Node10</title>
<path fill="none" stroke="midnightblue" d="M554.861,-112.324C541.134,-103.9 520.064,-90.9709 503.936,-81.0741"/>
<polygon fill="midnightblue" stroke="midnightblue" points="505.457,-77.9016 495.104,-75.6545 501.796,-83.8678 505.457,-77.9016"/>
</g>
<!-- Node24&#45;&gt;Node13 -->
<g id="edge27" class="edge"><title>Node24&#45;&gt;Node13</title>
<path fill="none" stroke="midnightblue" d="M579.604,-112.324C589.456,-104.263 604.351,-92.0765 616.215,-82.3695"/>
<polygon fill="midnightblue" stroke="midnightblue" points="618.68,-84.8752 624.203,-75.8339 614.247,-79.4575 618.68,-84.8752"/>
</g>
<!-- Node25 -->
<g id="node25" class="node"><title>Node25</title>
<g id="a_node25"><a xlink:title=" ">
<polygon fill="white" stroke="#bfbfbf" points="530,-56.5 530,-75.5 594,-75.5 594,-56.5 530,-56.5"/>
<text text-anchor="middle" x="562" y="-63.5" font-family="Helvetica,sans-Serif" font-size="10.00">string_view</text>
</a>
</g>
</g>
<!-- Node24&#45;&gt;Node25 -->
<g id="edge29" class="edge"><title>Node24&#45;&gt;Node25</title>
<path fill="none" stroke="midnightblue" d="M567.844,-112.083C566.916,-104.927 565.582,-94.6353 564.423,-85.6911"/>
<polygon fill="midnightblue" stroke="midnightblue" points="567.891,-85.2181 563.134,-75.7511 560.949,-86.1181 567.891,-85.2181"/>
</g>
<!-- Node24&#45;&gt;Node26 -->
<g id="edge31" class="edge"><title>Node24&#45;&gt;Node26</title>
<path fill="none" stroke="midnightblue" d="M595.503,-117.942C667.829,-109.597 870.111,-86.2564 973.867,-74.2846"/>
<polygon fill="midnightblue" stroke="midnightblue" points="974.363,-77.7506 983.896,-73.1274 973.561,-70.7968 974.363,-77.7506"/>
</g>
<!-- Node27&#45;&gt;Node9 -->
<g id="edge37" class="edge"><title>Node27&#45;&gt;Node9</title>
<path fill="none" stroke="midnightblue" d="M361.158,-112.324C369.501,-104.42 382.032,-92.5482 392.177,-82.9377"/>
<polygon fill="midnightblue" stroke="midnightblue" points="394.823,-85.2522 399.675,-75.8339 390.009,-80.1705 394.823,-85.2522"/>
</g>
<!-- Node27&#45;&gt;Node10 -->
<g id="edge39" class="edge"><title>Node27&#45;&gt;Node10</title>
<path fill="none" stroke="midnightblue" d="M372.44,-112.444C393.67,-103.557 427.099,-89.5632 451.255,-79.4514"/>
<polygon fill="midnightblue" stroke="midnightblue" points="452.782,-82.6064 460.655,-75.5164 450.079,-76.1493 452.782,-82.6064"/>
</g>
<!-- Node27&#45;&gt;Node14 -->
<g id="edge38" class="edge"><title>Node27&#45;&gt;Node14</title>
<path fill="none" stroke="midnightblue" d="M373.613,-119.004C430.633,-113.622 590.011,-97.8295 733.947,-75.8928"/>
<polygon fill="midnightblue" stroke="midnightblue" points="734.491,-79.3504 743.842,-74.371 733.427,-72.4317 734.491,-79.3504"/>
</g>
<!-- Node27&#45;&gt;Node15 -->
<g id="edge41" class="edge"><title>Node27&#45;&gt;Node15</title>
<path fill="none" stroke="midnightblue" d="M373.795,-119.095C441.214,-113.167 652.352,-94.3467 827,-76 838.953,-74.7443 851.926,-73.2859 863.797,-71.9135"/>
<polygon fill="midnightblue" stroke="midnightblue" points="864.365,-75.3711 873.892,-70.7368 863.554,-68.4181 864.365,-75.3711"/>
</g>
<!-- Node28 -->
<g id="node28" class="node"><title>Node28</title>
<g id="a_node28"><a xlink:title=" ">
<polygon fill="white" stroke="#bfbfbf" points="0,-56.5 0,-75.5 60,-75.5 60,-56.5 0,-56.5"/>
<text text-anchor="middle" x="30" y="-63.5" font-family="Helvetica,sans-Serif" font-size="10.00">fmt/core.h</text>
</a>
</g>
</g>
<!-- Node27&#45;&gt;Node28 -->
<g id="edge33" class="edge"><title>Node27&#45;&gt;Node28</title>
<path fill="none" stroke="midnightblue" d="M330.253,-118.065C284.179,-111.735 173.163,-95.8994 70.1329,-76.1109"/>
<polygon fill="midnightblue" stroke="midnightblue" points="70.673,-72.6506 60.1897,-74.1838 69.341,-79.5227 70.673,-72.6506"/>
</g>
<!-- Node29 -->
<g id="node29" class="node"><title>Node29</title>
<g id="a_node29"><a xlink:title=" ">
<polygon fill="white" stroke="#bfbfbf" points="78,-56.5 78,-75.5 146,-75.5 146,-56.5 78,-56.5"/>
<text text-anchor="middle" x="112" y="-63.5" font-family="Helvetica,sans-Serif" font-size="10.00">fmt/format.h</text>
</a>
</g>
</g>
<!-- Node27&#45;&gt;Node29 -->
<g id="edge34" class="edge"><title>Node27&#45;&gt;Node29</title>
<path fill="none" stroke="midnightblue" d="M330.278,-116.113C291.011,-107.277 207.51,-88.4898 155.926,-76.8832"/>
<polygon fill="midnightblue" stroke="midnightblue" points="156.581,-73.4433 146.057,-74.6628 155.045,-80.2726 156.581,-73.4433"/>
</g>
<!-- Node30 -->
<g id="node30" class="node"><title>Node30</title>
<g id="a_node30"><a xlink:title=" ">
<polygon fill="white" stroke="#bfbfbf" points="164,-56.5 164,-75.5 202,-75.5 202,-56.5 164,-56.5"/>
<text text-anchor="middle" x="183" y="-63.5" font-family="Helvetica,sans-Serif" font-size="10.00">array</text>
</a>
</g>
</g>
<!-- Node27&#45;&gt;Node30 -->
<g id="edge35" class="edge"><title>Node27&#45;&gt;Node30</title>
<path fill="none" stroke="midnightblue" d="M330.497,-114.152C304.572,-105.894 259.438,-91.5051 211.828,-76.2609"/>
<polygon fill="midnightblue" stroke="midnightblue" points="212.869,-72.9193 202.278,-73.2023 210.734,-79.5857 212.869,-72.9193"/>
</g>
<!-- Node31 -->
<g id="node31" class="node"><title>Node31</title>
<g id="a_node31"><a xlink:title=" ">
<polygon fill="white" stroke="#bfbfbf" points="220,-56.5 220,-75.5 266,-75.5 266,-56.5 220,-56.5"/>
<text text-anchor="middle" x="243" y="-63.5" font-family="Helvetica,sans-Serif" font-size="10.00">chrono</text>
</a>
</g>
</g>
<!-- Node27&#45;&gt;Node31 -->
<g id="edge36" class="edge"><title>Node27&#45;&gt;Node31</title>
<path fill="none" stroke="midnightblue" d="M334.487,-112.324C316.928,-103.625 289.669,-90.1202 269.469,-80.113"/>
<polygon fill="midnightblue" stroke="midnightblue" points="270.984,-76.9575 260.469,-75.6545 267.876,-83.23 270.984,-76.9575"/>
</g>
<!-- Node32 -->
<g id="node32" class="node"><title>Node32</title>
<g id="a_node32"><a xlink:title=" ">
<polygon fill="white" stroke="#bfbfbf" points="284.5,-56.5 284.5,-75.5 367.5,-75.5 367.5,-56.5 284.5,-56.5"/>
<text text-anchor="middle" x="326" y="-63.5" font-family="Helvetica,sans-Serif" font-size="10.00">unordered_map</text>
</a>
</g>
</g>
<!-- Node27&#45;&gt;Node32 -->
<g id="edge40" class="edge"><title>Node27&#45;&gt;Node32</title>
<path fill="none" stroke="midnightblue" d="M347.707,-112.083C344.148,-104.691 338.978,-93.9533 334.576,-84.8111"/>
<polygon fill="midnightblue" stroke="midnightblue" points="337.705,-83.2427 330.213,-75.7511 331.398,-86.2795 337.705,-83.2427"/>
</g>
<!-- Node33&#45;&gt;Node14 -->
<g id="edge44" class="edge"><title>Node33&#45;&gt;Node14</title>
<path fill="none" stroke="midnightblue" d="M812.725,-112.083C807.358,-104.455 799.482,-93.2645 792.921,-83.9408"/>
<polygon fill="midnightblue" stroke="midnightblue" points="795.775,-81.9149 787.158,-75.7511 790.051,-85.9434 795.775,-81.9149"/>
</g>
<!-- Node33&#45;&gt;Node15 -->
<g id="edge45" class="edge"><title>Node33&#45;&gt;Node15</title>
<path fill="none" stroke="midnightblue" d="M832.817,-112.324C846.233,-103.9 866.824,-90.9709 882.586,-81.0741"/>
<polygon fill="midnightblue" stroke="midnightblue" points="884.609,-83.9364 891.217,-75.6545 880.887,-78.0081 884.609,-83.9364"/>
</g>
<!-- Node34&#45;&gt;Node15 -->
<g id="edge47" class="edge"><title>Node34&#45;&gt;Node15</title>
<path fill="none" stroke="midnightblue" d="M972.015,-168.434C962.462,-159.884 948.059,-146.031 938,-132 927.527,-117.391 918.517,-98.9846 912.571,-85.4912"/>
<polygon fill="midnightblue" stroke="midnightblue" points="915.622,-83.7233 908.489,-75.8896 909.18,-86.4618 915.622,-83.7233"/>
</g>
<!-- Node34&#45;&gt;Node26 -->
<g id="edge51" class="edge"><title>Node34&#45;&gt;Node26</title>
<path fill="none" stroke="midnightblue" d="M1004.46,-168.382C1019.77,-161.184 1038.86,-149.288 1048,-132 1055.76,-117.324 1051.19,-98.4151 1045.78,-84.7792"/>
<polygon fill="midnightblue" stroke="midnightblue" points="1048.93,-83.249 1041.67,-75.5373 1042.54,-86.0963 1048.93,-83.249"/>
</g>
<!-- Node35 -->
<g id="node35" class="node"><title>Node35</title>
<g id="a_node35"><a xlink:href="sys__error__code_8h.html" target="_top" xlink:title=" ">
<polygon fill="white" stroke="black" points="947,-112.5 947,-131.5 1039,-131.5 1039,-112.5 947,-112.5"/>
<text text-anchor="middle" x="993" y="-119.5" font-family="Helvetica,sans-Serif" font-size="10.00">sys_error_code.h</text>
</a>
</g>
</g>
<!-- Node34&#45;&gt;Node35 -->
<g id="edge48" class="edge"><title>Node34&#45;&gt;Node35</title>
<path fill="none" stroke="midnightblue" d="M983.816,-168.083C985.274,-160.927 987.371,-150.635 989.193,-141.691"/>
<polygon fill="midnightblue" stroke="midnightblue" points="992.651,-142.248 991.217,-131.751 985.792,-140.851 992.651,-142.248"/>
</g>
<!-- Node35&#45;&gt;Node15 -->
<g id="edge49" class="edge"><title>Node35&#45;&gt;Node15</title>
<path fill="none" stroke="midnightblue" d="M978.861,-112.324C965.134,-103.9 944.064,-90.9709 927.936,-81.0741"/>
<polygon fill="midnightblue" stroke="midnightblue" points="929.457,-77.9016 919.104,-75.6545 925.796,-83.8678 929.457,-77.9016"/>
</g>
<!-- Node35&#45;&gt;Node26 -->
<g id="edge50" class="edge"><title>Node35&#45;&gt;Node26</title>
<path fill="none" stroke="midnightblue" d="M1000.27,-112.083C1006.54,-104.377 1015.79,-93.0333 1023.43,-83.6531"/>
<polygon fill="midnightblue" stroke="midnightblue" points="1026.27,-85.7143 1029.87,-75.7511 1020.84,-81.2926 1026.27,-85.7143"/>
</g>
</g>
</svg>
