<?xml version="1.0" encoding="UTF-8" standalone="no"?>
<!DOCTYPE svg PUBLIC "-//W3C//DTD SVG 1.1//EN"
 "http://www.w3.org/Graphics/SVG/1.1/DTD/svg11.dtd">
<!-- Generated by graphviz version 2.38.0 (20140413.2041)
 -->
<!-- Title: C:/projects/ndt/sources/include/ndt/socket.h Pages: 1 -->
<!--zoomable 319 -->
<svg id="main" version="1.1" xmlns="http://www.w3.org/2000/svg" xmlns:xlink="http://www.w3.org/1999/xlink" xml:space="preserve" onload="init(evt)">
<style type="text/css"><![CDATA[
.edge:hover path { stroke: red; }
.edge:hover polygon { stroke: red; fill: red; }
]]></style>
<script type="text/javascript"><![CDATA[
var edges = document.getElementsByTagName('g');
if (edges && edges.length) {
  for (var i=0;i<edges.length;i++) {
    if (edges[i].id.substr(0,4)=='edge') {
      edges[i].setAttribute('class','edge');
    }
  }
}
]]></script>
        <defs>
                <circle id="rim" cx="0" cy="0" r="7"/>
                <circle id="rim2" cx="0" cy="0" r="3.5"/>
                <g id="zoomPlus">
                        <use xlink:href="#rim" fill="#404040">
                                <set attributeName="fill" to="#808080" begin="zoomplus.mouseover" end="zoomplus.mouseout"/>
                        </use>
                        <path d="M-4,0h8M0,-4v8" fill="none" stroke="white" stroke-width="1.5" pointer-events="none"/>
                </g>
                <g id="zoomMin">
                        <use xlink:href="#rim" fill="#404040">
                                <set attributeName="fill" to="#808080" begin="zoomminus.mouseover" end="zoomminus.mouseout"/>
                        </use>
                        <path d="M-4,0h8" fill="none" stroke="white" stroke-width="1.5" pointer-events="none"/>
                </g>
                <g id="dirArrow">
                        <path fill="none" stroke="white" stroke-width="1.5" d="M0,-3.0v7 M-2.5,-0.5L0,-3.0L2.5,-0.5"/>
                </g>
               <g id="resetDef">
                       <use xlink:href="#rim2" fill="#404040">
                               <set attributeName="fill" to="#808080" begin="reset.mouseover" end="reset.mouseout"/>
                       </use>
               </g>
        </defs>

<script type="text/javascript">
var viewWidth = 1350;
var viewHeight = 319;
var sectionId = 'dynsection-0';
</script>
<script xlink:href="svgpan.js"/>
<svg id="graph" class="graph">
<g id="viewport">
<title>C:/projects/ndt/sources/include/ndt/socket.h</title>
<polygon fill="white" stroke="none" points="-4,4 -4,-315 1346,-315 1346,4 -4,4"/>
<!-- Node1 -->
<g id="node1" class="node"><title>Node1</title>
<g id="a_node1"><a xlink:title=" ">
<polygon fill="#bfbfbf" stroke="black" points="656.5,-280.5 656.5,-310.5 774.5,-310.5 774.5,-280.5 656.5,-280.5"/>
<text text-anchor="start" x="664.5" y="-298.5" font-family="Helvetica,sans-Serif" font-size="10.00">C:/projects/ndt/sources</text>
<text text-anchor="middle" x="715.5" y="-287.5" font-family="Helvetica,sans-Serif" font-size="10.00">/include/ndt/socket.h</text>
</a>
</g>
</g>
<!-- Node2 -->
<g id="node2" class="node"><title>Node2</title>
<g id="a_node2"><a xlink:title=" ">
<polygon fill="white" stroke="#bfbfbf" points="0,-56.5 0,-75.5 49,-75.5 49,-56.5 0,-56.5"/>
<text text-anchor="middle" x="24.5" y="-63.5" font-family="Helvetica,sans-Serif" font-size="10.00">cassert</text>
</a>
</g>
</g>
<!-- Node1&#45;&gt;Node2 -->
<g id="edge1" class="edge"><title>Node1&#45;&gt;Node2</title>
<path fill="none" stroke="midnightblue" d="M656.387,-283.079C611.997,-273.97 549.923,-260.1 496.5,-244 325.635,-192.509 127.507,-110.748 53.9516,-79.6073"/>
<polygon fill="midnightblue" stroke="midnightblue" points="54.9876,-76.2448 44.4151,-75.5575 52.2514,-82.6879 54.9876,-76.2448"/>
</g>
<!-- Node3 -->
<g id="node3" class="node"><title>Node3</title>
<g id="a_node3"><a xlink:title=" ">
<polygon fill="white" stroke="#bfbfbf" points="1160.5,-224.5 1160.5,-243.5 1218.5,-243.5 1218.5,-224.5 1160.5,-224.5"/>
<text text-anchor="middle" x="1189.5" y="-231.5" font-family="Helvetica,sans-Serif" font-size="10.00">functional</text>
</a>
</g>
</g>
<!-- Node1&#45;&gt;Node3 -->
<g id="edge2" class="edge"><title>Node1&#45;&gt;Node3</title>
<path fill="none" stroke="midnightblue" d="M774.642,-289.265C857.914,-281.508 1014.33,-265.531 1146.5,-244 1147.77,-243.793 1149.06,-243.574 1150.36,-243.346"/>
<polygon fill="midnightblue" stroke="midnightblue" points="1151.24,-246.742 1160.42,-241.455 1149.95,-239.863 1151.24,-246.742"/>
</g>
<!-- Node4 -->
<g id="node4" class="node"><title>Node4</title>
<g id="a_node4"><a xlink:href="address_8h.html" target="_top" xlink:title=" ">
<polygon fill="white" stroke="black" points="715,-224.5 715,-243.5 774,-243.5 774,-224.5 715,-224.5"/>
<text text-anchor="middle" x="744.5" y="-231.5" font-family="Helvetica,sans-Serif" font-size="10.00">address.h</text>
</a>
</g>
</g>
<!-- Node1&#45;&gt;Node4 -->
<g id="edge3" class="edge"><title>Node1&#45;&gt;Node4</title>
<path fill="none" stroke="midnightblue" d="M722.373,-280.399C726.413,-272.11 731.558,-261.554 735.869,-252.708"/>
<polygon fill="midnightblue" stroke="midnightblue" points="739.045,-254.18 740.28,-243.658 732.753,-251.113 739.045,-254.18"/>
</g>
<!-- Node11 -->
<g id="node11" class="node"><title>Node11</title>
<g id="a_node11"><a xlink:href="buffer_8h.html" target="_top" xlink:title=" ">
<polygon fill="white" stroke="black" points="379.5,-112.5 379.5,-131.5 427.5,-131.5 427.5,-112.5 379.5,-112.5"/>
<text text-anchor="middle" x="403.5" y="-119.5" font-family="Helvetica,sans-Serif" font-size="10.00">buffer.h</text>
</a>
</g>
</g>
<!-- Node1&#45;&gt;Node11 -->
<g id="edge55" class="edge"><title>Node1&#45;&gt;Node11</title>
<path fill="none" stroke="midnightblue" d="M656.258,-282.887C597.012,-268.806 505.954,-240.197 443.5,-188 428.446,-175.419 417.425,-155.648 410.808,-141.212"/>
<polygon fill="midnightblue" stroke="midnightblue" points="413.937,-139.628 406.773,-131.822 407.506,-142.392 413.937,-139.628"/>
</g>
<!-- Node15 -->
<g id="node15" class="node"><title>Node15</title>
<g id="a_node15"><a xlink:href="common_8h.html" target="_top" xlink:title="Header with typedefs to make type designation platform independent.">
<polygon fill="white" stroke="black" points="994.5,-56.5 994.5,-75.5 1056.5,-75.5 1056.5,-56.5 994.5,-56.5"/>
<text text-anchor="middle" x="1025.5" y="-63.5" font-family="Helvetica,sans-Serif" font-size="10.00">common.h</text>
</a>
</g>
</g>
<!-- Node1&#45;&gt;Node15 -->
<g id="edge56" class="edge"><title>Node1&#45;&gt;Node15</title>
<path fill="none" stroke="midnightblue" d="M739.355,-280.371C753.221,-271.285 770.308,-258.489 782.5,-244 806.944,-214.95 794.462,-194.652 821.5,-168 868.207,-121.961 940.083,-93.1691 984.87,-78.6098"/>
<polygon fill="midnightblue" stroke="midnightblue" points="986.066,-81.9026 994.544,-75.5494 983.954,-75.2286 986.066,-81.9026"/>
</g>
<!-- Node28 -->
<g id="node28" class="node"><title>Node28</title>
<g id="a_node28"><a xlink:href="utils_8h.html" target="_top" xlink:title=" ">
<polygon fill="white" stroke="black" points="622,-112.5 622,-131.5 665,-131.5 665,-112.5 622,-112.5"/>
<text text-anchor="middle" x="643.5" y="-119.5" font-family="Helvetica,sans-Serif" font-size="10.00">utils.h</text>
</a>
</g>
</g>
<!-- Node1&#45;&gt;Node28 -->
<g id="edge59" class="edge"><title>Node1&#45;&gt;Node28</title>
<path fill="none" stroke="midnightblue" d="M709.608,-280.465C696.581,-249.436 665.352,-175.049 650.975,-140.806"/>
<polygon fill="midnightblue" stroke="midnightblue" points="654.192,-139.425 647.094,-131.56 647.737,-142.135 654.192,-139.425"/>
</g>
<!-- Node34 -->
<g id="node34" class="node"><title>Node34</title>
<g id="a_node34"><a xlink:href="exception_8h.html" target="_top" xlink:title=" ">
<polygon fill="white" stroke="black" points="698,-112.5 698,-131.5 765,-131.5 765,-112.5 698,-112.5"/>
<text text-anchor="middle" x="731.5" y="-119.5" font-family="Helvetica,sans-Serif" font-size="10.00">exception.h</text>
</a>
</g>
</g>
<!-- Node1&#45;&gt;Node34 -->
<g id="edge57" class="edge"><title>Node1&#45;&gt;Node34</title>
<path fill="none" stroke="midnightblue" d="M711.953,-280.461C709.597,-270.389 706.721,-256.453 705.5,-244 701.863,-206.912 715.088,-164.54 723.997,-141.066"/>
<polygon fill="midnightblue" stroke="midnightblue" points="727.279,-142.284 727.71,-131.697 720.771,-139.704 727.279,-142.284"/>
</g>
<!-- Node37 -->
<g id="node37" class="node"><title>Node37</title>
<g id="a_node37"><a xlink:href="useful__base__types_8h.html" target="_top" xlink:title=" ">
<polygon fill="white" stroke="black" points="1074.5,-56.5 1074.5,-75.5 1180.5,-75.5 1180.5,-56.5 1074.5,-56.5"/>
<text text-anchor="middle" x="1127.5" y="-63.5" font-family="Helvetica,sans-Serif" font-size="10.00">useful_base_types.h</text>
</a>
</g>
</g>
<!-- Node1&#45;&gt;Node37 -->
<g id="edge58" class="edge"><title>Node1&#45;&gt;Node37</title>
<path fill="none" stroke="midnightblue" d="M774.729,-286.834C874.478,-272.65 1069.44,-239.026 1113.5,-188 1138.18,-159.418 1135.24,-111.834 1131.21,-85.666"/>
<polygon fill="midnightblue" stroke="midnightblue" points="1134.61,-84.8268 1129.43,-75.5866 1127.72,-86.0426 1134.61,-84.8268"/>
</g>
<!-- Node5 -->
<g id="node5" class="node"><title>Node5</title>
<g id="a_node5"><a xlink:title=" ">
<polygon fill="white" stroke="#bfbfbf" points="945,-168.5 945,-187.5 986,-187.5 986,-168.5 945,-168.5"/>
<text text-anchor="middle" x="965.5" y="-175.5" font-family="Helvetica,sans-Serif" font-size="10.00">string</text>
</a>
</g>
</g>
<!-- Node4&#45;&gt;Node5 -->
<g id="edge4" class="edge"><title>Node4&#45;&gt;Node5</title>
<path fill="none" stroke="midnightblue" d="M774.086,-226.608C809.905,-218.744 872.258,-204.652 935.196,-187.952"/>
<polygon fill="midnightblue" stroke="midnightblue" points="936.133,-191.325 944.89,-185.361 934.325,-184.562 936.133,-191.325"/>
</g>
<!-- Node6 -->
<g id="node6" class="node"><title>Node6</title>
<g id="a_node6"><a xlink:title=" ">
<polygon fill="white" stroke="#bfbfbf" points="1004.5,-168.5 1004.5,-187.5 1048.5,-187.5 1048.5,-168.5 1004.5,-168.5"/>
<text text-anchor="middle" x="1026.5" y="-175.5" font-family="Helvetica,sans-Serif" font-size="10.00">variant</text>
</a>
</g>
</g>
<!-- Node4&#45;&gt;Node6 -->
<g id="edge5" class="edge"><title>Node4&#45;&gt;Node6</title>
<path fill="none" stroke="midnightblue" d="M774.32,-228.582C819.635,-221.664 908.706,-207.265 994.311,-187.838"/>
<polygon fill="midnightblue" stroke="midnightblue" points="995.228,-191.219 1004.19,-185.57 993.661,-184.396 995.228,-191.219"/>
</g>
<!-- Node7 -->
<g id="node7" class="node"><title>Node7</title>
<g id="a_node7"><a xlink:href="bin__rw_8h.html" target="_top" xlink:title=" ">
<polygon fill="white" stroke="black" points="485,-168.5 485,-187.5 538,-187.5 538,-168.5 485,-168.5"/>
<text text-anchor="middle" x="511.5" y="-175.5" font-family="Helvetica,sans-Serif" font-size="10.00">bin_rw.h</text>
</a>
</g>
</g>
<!-- Node4&#45;&gt;Node7 -->
<g id="edge6" class="edge"><title>Node4&#45;&gt;Node7</title>
<path fill="none" stroke="midnightblue" d="M714.99,-226.161C672.526,-216.319 594.237,-198.175 548.131,-187.49"/>
<polygon fill="midnightblue" stroke="midnightblue" points="548.783,-184.048 538.251,-185.2 547.203,-190.867 548.783,-184.048"/>
</g>
<!-- Node4&#45;&gt;Node11 -->
<g id="edge43" class="edge"><title>Node4&#45;&gt;Node11</title>
<path fill="none" stroke="midnightblue" d="M714.61,-233.358C663.156,-232.841 555.655,-226.724 475.5,-188 451.923,-176.61 430.426,-155.078 417.179,-139.925"/>
<polygon fill="midnightblue" stroke="midnightblue" points="419.503,-137.252 410.38,-131.866 414.153,-141.766 419.503,-137.252"/>
</g>
<!-- Node4&#45;&gt;Node28 -->
<g id="edge54" class="edge"><title>Node4&#45;&gt;Node28</title>
<path fill="none" stroke="midnightblue" d="M736.575,-224.368C719.686,-205.974 679.925,-162.671 658.239,-139.052"/>
<polygon fill="midnightblue" stroke="midnightblue" points="660.73,-136.59 651.388,-131.591 655.574,-141.325 660.73,-136.59"/>
</g>
<!-- Node4&#45;&gt;Node34 -->
<g id="edge44" class="edge"><title>Node4&#45;&gt;Node34</title>
<path fill="none" stroke="midnightblue" d="M743.48,-224.368C741.382,-206.617 736.542,-165.666 733.698,-141.597"/>
<polygon fill="midnightblue" stroke="midnightblue" points="737.165,-141.112 732.515,-131.591 730.213,-141.933 737.165,-141.112"/>
</g>
<!-- Node35 -->
<g id="node35" class="node"><title>Node35</title>
<g id="a_node35"><a xlink:href="sys__socket__ops_8h.html" target="_top" xlink:title=" ">
<polygon fill="white" stroke="black" points="830.5,-168.5 830.5,-187.5 926.5,-187.5 926.5,-168.5 830.5,-168.5"/>
<text text-anchor="middle" x="878.5" y="-175.5" font-family="Helvetica,sans-Serif" font-size="10.00">sys_socket_ops.h</text>
</a>
</g>
</g>
<!-- Node4&#45;&gt;Node35 -->
<g id="edge47" class="edge"><title>Node4&#45;&gt;Node35</title>
<path fill="none" stroke="midnightblue" d="M765.733,-224.444C787.884,-215.517 822.819,-201.439 847.936,-191.317"/>
<polygon fill="midnightblue" stroke="midnightblue" points="849.4,-194.501 857.367,-187.516 846.783,-188.008 849.4,-194.501"/>
</g>
<!-- Node38 -->
<g id="node38" class="node"><title>Node38</title>
<g id="a_node38"><a xlink:href="tag_8h.html" target="_top" xlink:title=" ">
<polygon fill="white" stroke="black" points="1066.5,-168.5 1066.5,-187.5 1104.5,-187.5 1104.5,-168.5 1066.5,-168.5"/>
<text text-anchor="middle" x="1085.5" y="-175.5" font-family="Helvetica,sans-Serif" font-size="10.00">tag.h</text>
</a>
</g>
</g>
<!-- Node4&#45;&gt;Node38 -->
<g id="edge53" class="edge"><title>Node4&#45;&gt;Node38</title>
<path fill="none" stroke="midnightblue" d="M774.149,-230.415C828.447,-225.322 947.547,-212.493 1056.5,-187.888"/>
<polygon fill="midnightblue" stroke="midnightblue" points="1057.38,-191.279 1066.34,-185.628 1055.81,-184.456 1057.38,-191.279"/>
</g>
<!-- Node8 -->
<g id="node8" class="node"><title>Node8</title>
<g id="a_node8"><a xlink:title=" ">
<polygon fill="white" stroke="#bfbfbf" points="483.5,-112.5 483.5,-131.5 539.5,-131.5 539.5,-112.5 483.5,-112.5"/>
<text text-anchor="middle" x="511.5" y="-119.5" font-family="Helvetica,sans-Serif" font-size="10.00">algorithm</text>
</a>
</g>
</g>
<!-- Node7&#45;&gt;Node8 -->
<g id="edge7" class="edge"><title>Node7&#45;&gt;Node8</title>
<path fill="none" stroke="midnightblue" d="M511.5,-168.083C511.5,-161.006 511.5,-150.861 511.5,-141.986"/>
<polygon fill="midnightblue" stroke="midnightblue" points="515,-141.751 511.5,-131.751 508,-141.751 515,-141.751"/>
</g>
<!-- Node9 -->
<g id="node9" class="node"><title>Node9</title>
<g id="a_node9"><a xlink:title=" ">
<polygon fill="white" stroke="#bfbfbf" points="452.5,-56.5 452.5,-75.5 498.5,-75.5 498.5,-56.5 452.5,-56.5"/>
<text text-anchor="middle" x="475.5" y="-63.5" font-family="Helvetica,sans-Serif" font-size="10.00">cstring</text>
</a>
</g>
</g>
<!-- Node7&#45;&gt;Node9 -->
<g id="edge8" class="edge"><title>Node7&#45;&gt;Node9</title>
<path fill="none" stroke="midnightblue" d="M522.849,-168.195C537.478,-155.723 559.767,-132.181 548.5,-112 539.785,-96.3906 523.185,-85.5239 508.014,-78.3851"/>
<polygon fill="midnightblue" stroke="midnightblue" points="509.404,-75.1728 498.836,-74.4128 506.623,-81.5969 509.404,-75.1728"/>
</g>
<!-- Node10 -->
<g id="node10" class="node"><title>Node10</title>
<g id="a_node10"><a xlink:title=" ">
<polygon fill="white" stroke="#bfbfbf" points="372.5,-56.5 372.5,-75.5 434.5,-75.5 434.5,-56.5 372.5,-56.5"/>
<text text-anchor="middle" x="403.5" y="-63.5" font-family="Helvetica,sans-Serif" font-size="10.00">type_traits</text>
</a>
</g>
</g>
<!-- Node7&#45;&gt;Node10 -->
<g id="edge9" class="edge"><title>Node7&#45;&gt;Node10</title>
<path fill="none" stroke="midnightblue" d="M503.025,-168.368C484.887,-149.894 442.078,-106.293 418.957,-82.7436"/>
<polygon fill="midnightblue" stroke="midnightblue" points="421.439,-80.275 411.935,-75.5914 416.444,-85.1792 421.439,-80.275"/>
</g>
<!-- Node7&#45;&gt;Node11 -->
<g id="edge10" class="edge"><title>Node7&#45;&gt;Node11</title>
<path fill="none" stroke="midnightblue" d="M494.148,-168.324C476.828,-159.664 449.985,-146.242 429.998,-136.249"/>
<polygon fill="midnightblue" stroke="midnightblue" points="431.319,-132.996 420.809,-131.655 428.188,-139.257 431.319,-132.996"/>
</g>
<!-- Node24 -->
<g id="node24" class="node"><title>Node24</title>
<g id="a_node24"><a xlink:href="endian_8h.html" target="_top" xlink:title=" ">
<polygon fill="white" stroke="black" points="267,-112.5 267,-131.5 320,-131.5 320,-112.5 267,-112.5"/>
<text text-anchor="middle" x="293.5" y="-119.5" font-family="Helvetica,sans-Serif" font-size="10.00">endian.h</text>
</a>
</g>
</g>
<!-- Node7&#45;&gt;Node24 -->
<g id="edge26" class="edge"><title>Node7&#45;&gt;Node24</title>
<path fill="none" stroke="midnightblue" d="M484.769,-170.379C445.929,-160.758 373.77,-142.883 330.045,-132.052"/>
<polygon fill="midnightblue" stroke="midnightblue" points="330.657,-128.598 320.108,-129.591 328.973,-135.393 330.657,-128.598"/>
</g>
<!-- Node7&#45;&gt;Node28 -->
<g id="edge33" class="edge"><title>Node7&#45;&gt;Node28</title>
<path fill="none" stroke="midnightblue" d="M532.416,-168.444C554.236,-159.517 588.65,-145.439 613.392,-135.317"/>
<polygon fill="midnightblue" stroke="midnightblue" points="614.752,-138.542 622.682,-131.516 612.101,-132.063 614.752,-138.542"/>
</g>
<!-- Node11&#45;&gt;Node2 -->
<g id="edge11" class="edge"><title>Node11&#45;&gt;Node2</title>
<path fill="none" stroke="midnightblue" d="M379.399,-118.06C310.982,-109.688 117.215,-85.7939 59.4481,-76.0116"/>
<polygon fill="midnightblue" stroke="midnightblue" points="59.7464,-72.5081 49.2794,-74.149 58.4852,-79.3935 59.7464,-72.5081"/>
</g>
<!-- Node11&#45;&gt;Node10 -->
<g id="edge15" class="edge"><title>Node11&#45;&gt;Node10</title>
<path fill="none" stroke="midnightblue" d="M403.5,-112.083C403.5,-105.006 403.5,-94.8611 403.5,-85.9865"/>
<polygon fill="midnightblue" stroke="midnightblue" points="407,-85.751 403.5,-75.7511 400,-85.7511 407,-85.751"/>
</g>
<!-- Node12 -->
<g id="node12" class="node"><title>Node12</title>
<g id="a_node12"><a xlink:title=" ">
<polygon fill="white" stroke="#bfbfbf" points="524.5,-0.5 524.5,-19.5 572.5,-19.5 572.5,-0.5 524.5,-0.5"/>
<text text-anchor="middle" x="548.5" y="-7.5" font-family="Helvetica,sans-Serif" font-size="10.00">cstddef</text>
</a>
</g>
</g>
<!-- Node11&#45;&gt;Node12 -->
<g id="edge12" class="edge"><title>Node11&#45;&gt;Node12</title>
<path fill="none" stroke="midnightblue" d="M391.396,-112.387C374.812,-99.5418 348.68,-74.8565 363.5,-56 381.91,-32.5746 466.13,-19.8263 514.346,-14.334"/>
<polygon fill="midnightblue" stroke="midnightblue" points="514.777,-17.8077 524.337,-13.2408 514.016,-10.8492 514.777,-17.8077"/>
</g>
<!-- Node13 -->
<g id="node13" class="node"><title>Node13</title>
<g id="a_node13"><a xlink:title=" ">
<polygon fill="white" stroke="#bfbfbf" points="270.5,-56.5 270.5,-75.5 316.5,-75.5 316.5,-56.5 270.5,-56.5"/>
<text text-anchor="middle" x="293.5" y="-63.5" font-family="Helvetica,sans-Serif" font-size="10.00">cstdint</text>
</a>
</g>
</g>
<!-- Node11&#45;&gt;Node13 -->
<g id="edge13" class="edge"><title>Node11&#45;&gt;Node13</title>
<path fill="none" stroke="midnightblue" d="M385.827,-112.324C368.106,-103.625 340.597,-90.1202 320.212,-80.113"/>
<polygon fill="midnightblue" stroke="midnightblue" points="321.649,-76.9195 311.13,-75.6545 318.564,-83.2031 321.649,-76.9195"/>
</g>
<!-- Node14 -->
<g id="node14" class="node"><title>Node14</title>
<g id="a_node14"><a xlink:title=" ">
<polygon fill="white" stroke="#bfbfbf" points="516.5,-56.5 516.5,-75.5 590.5,-75.5 590.5,-56.5 516.5,-56.5"/>
<text text-anchor="middle" x="553.5" y="-63.5" font-family="Helvetica,sans-Serif" font-size="10.00">system_error</text>
</a>
</g>
</g>
<!-- Node11&#45;&gt;Node14 -->
<g id="edge14" class="edge"><title>Node11&#45;&gt;Node14</title>
<path fill="none" stroke="midnightblue" d="M427.268,-112.444C452.393,-103.399 492.211,-89.064 520.4,-78.9158"/>
<polygon fill="midnightblue" stroke="midnightblue" points="521.62,-82.1968 529.843,-75.5164 519.249,-75.6106 521.62,-82.1968"/>
</g>
<!-- Node11&#45;&gt;Node15 -->
<g id="edge16" class="edge"><title>Node11&#45;&gt;Node15</title>
<path fill="none" stroke="midnightblue" d="M427.779,-117.583C441.477,-115.74 458.92,-113.536 474.5,-112 697.322,-90.0304 757.834,-107.906 984.047,-75.8164"/>
<polygon fill="midnightblue" stroke="midnightblue" points="984.846,-79.2377 994.247,-74.3518 983.851,-72.3087 984.846,-79.2377"/>
</g>
<!-- Node15&#45;&gt;Node12 -->
<g id="edge25" class="edge"><title>Node15&#45;&gt;Node12</title>
<path fill="none" stroke="midnightblue" d="M994.23,-57.7538C990.955,-57.1092 987.666,-56.5092 984.5,-56 835.911,-32.1022 656.686,-18.2713 582.845,-13.216"/>
<polygon fill="midnightblue" stroke="midnightblue" points="582.944,-9.71484 572.731,-12.5337 582.473,-16.699 582.944,-9.71484"/>
</g>
<!-- Node16 -->
<g id="node16" class="node"><title>Node16</title>
<g id="a_node16"><a xlink:title=" ">
<polygon fill="white" stroke="#bfbfbf" points="756.5,-0.5 756.5,-19.5 818.5,-19.5 818.5,-0.5 756.5,-0.5"/>
<text text-anchor="middle" x="787.5" y="-7.5" font-family="Helvetica,sans-Serif" font-size="10.00">arpa/inet.h</text>
</a>
</g>
</g>
<!-- Node15&#45;&gt;Node16 -->
<g id="edge17" class="edge"><title>Node15&#45;&gt;Node16</title>
<path fill="none" stroke="midnightblue" d="M994.386,-57.9404C951.891,-48.2988 875.614,-30.9923 828.498,-20.302"/>
<polygon fill="midnightblue" stroke="midnightblue" points="829.149,-16.8608 818.622,-18.0613 827.6,-23.6873 829.149,-16.8608"/>
</g>
<!-- Node17 -->
<g id="node17" class="node"><title>Node17</title>
<g id="a_node17"><a xlink:title=" ">
<polygon fill="white" stroke="#bfbfbf" points="837,-0.5 837,-19.5 884,-19.5 884,-0.5 837,-0.5"/>
<text text-anchor="middle" x="860.5" y="-7.5" font-family="Helvetica,sans-Serif" font-size="10.00">errno.h</text>
</a>
</g>
</g>
<!-- Node15&#45;&gt;Node17 -->
<g id="edge18" class="edge"><title>Node15&#45;&gt;Node17</title>
<path fill="none" stroke="midnightblue" d="M999.355,-56.4435C970.739,-47.0781 924.793,-32.0415 893.663,-21.8532"/>
<polygon fill="midnightblue" stroke="midnightblue" points="894.709,-18.5131 884.116,-18.729 892.532,-25.1659 894.709,-18.5131"/>
</g>
<!-- Node18 -->
<g id="node18" class="node"><title>Node18</title>
<g id="a_node18"><a xlink:title=" ">
<polygon fill="white" stroke="#bfbfbf" points="902,-0.5 902,-19.5 945,-19.5 945,-0.5 902,-0.5"/>
<text text-anchor="middle" x="923.5" y="-7.5" font-family="Helvetica,sans-Serif" font-size="10.00">fcntl.h</text>
</a>
</g>
</g>
<!-- Node15&#45;&gt;Node18 -->
<g id="edge19" class="edge"><title>Node15&#45;&gt;Node18</title>
<path fill="none" stroke="midnightblue" d="M1009.11,-56.324C992.829,-47.7034 967.633,-34.3643 948.784,-24.3855"/>
<polygon fill="midnightblue" stroke="midnightblue" points="950.323,-21.2402 939.847,-19.6545 947.048,-27.4267 950.323,-21.2402"/>
</g>
<!-- Node19 -->
<g id="node19" class="node"><title>Node19</title>
<g id="a_node19"><a xlink:title=" ">
<polygon fill="white" stroke="#bfbfbf" points="963,-0.5 963,-19.5 1012,-19.5 1012,-0.5 963,-0.5"/>
<text text-anchor="middle" x="987.5" y="-7.5" font-family="Helvetica,sans-Serif" font-size="10.00">netdb.h</text>
</a>
</g>
</g>
<!-- Node15&#45;&gt;Node19 -->
<g id="edge20" class="edge"><title>Node15&#45;&gt;Node19</title>
<path fill="none" stroke="midnightblue" d="M1019.23,-56.083C1013.86,-48.4554 1005.98,-37.2645 999.421,-27.9408"/>
<polygon fill="midnightblue" stroke="midnightblue" points="1002.28,-25.9149 993.658,-19.7511 996.551,-29.9434 1002.28,-25.9149"/>
</g>
<!-- Node20 -->
<g id="node20" class="node"><title>Node20</title>
<g id="a_node20"><a xlink:title=" ">
<polygon fill="white" stroke="#bfbfbf" points="1030,-0.5 1030,-19.5 1095,-19.5 1095,-0.5 1030,-0.5"/>
<text text-anchor="middle" x="1062.5" y="-7.5" font-family="Helvetica,sans-Serif" font-size="10.00">netinet/in.h</text>
</a>
</g>
</g>
<!-- Node15&#45;&gt;Node20 -->
<g id="edge21" class="edge"><title>Node15&#45;&gt;Node20</title>
<path fill="none" stroke="midnightblue" d="M1031.61,-56.083C1036.78,-48.5341 1044.35,-37.4948 1050.69,-28.2298"/>
<polygon fill="midnightblue" stroke="midnightblue" points="1053.74,-29.9787 1056.5,-19.7511 1047.96,-26.0221 1053.74,-29.9787"/>
</g>
<!-- Node21 -->
<g id="node21" class="node"><title>Node21</title>
<g id="a_node21"><a xlink:title=" ">
<polygon fill="white" stroke="#bfbfbf" points="1113,-0.5 1113,-19.5 1186,-19.5 1186,-0.5 1113,-0.5"/>
<text text-anchor="middle" x="1149.5" y="-7.5" font-family="Helvetica,sans-Serif" font-size="10.00">sys/socket.h</text>
</a>
</g>
</g>
<!-- Node15&#45;&gt;Node21 -->
<g id="edge22" class="edge"><title>Node15&#45;&gt;Node21</title>
<path fill="none" stroke="midnightblue" d="M1045.15,-56.4435C1065.46,-47.5961 1097.4,-33.6875 1120.6,-23.5865"/>
<polygon fill="midnightblue" stroke="midnightblue" points="1122.17,-26.7181 1129.94,-19.5164 1119.38,-20.3002 1122.17,-26.7181"/>
</g>
<!-- Node22 -->
<g id="node22" class="node"><title>Node22</title>
<g id="a_node22"><a xlink:title=" ">
<polygon fill="white" stroke="#bfbfbf" points="1204.5,-0.5 1204.5,-19.5 1272.5,-19.5 1272.5,-0.5 1204.5,-0.5"/>
<text text-anchor="middle" x="1238.5" y="-7.5" font-family="Helvetica,sans-Serif" font-size="10.00">sys/types.h</text>
</a>
</g>
</g>
<!-- Node15&#45;&gt;Node22 -->
<g id="edge23" class="edge"><title>Node15&#45;&gt;Node22</title>
<path fill="none" stroke="midnightblue" d="M1056.93,-57.0321C1093.49,-47.7628 1154.07,-32.4045 1195.1,-22.0019"/>
<polygon fill="midnightblue" stroke="midnightblue" points="1196,-25.3862 1204.83,-19.536 1194.28,-18.6008 1196,-25.3862"/>
</g>
<!-- Node23 -->
<g id="node23" class="node"><title>Node23</title>
<g id="a_node23"><a xlink:title=" ">
<polygon fill="white" stroke="#bfbfbf" points="1291,-0.5 1291,-19.5 1342,-19.5 1342,-0.5 1291,-0.5"/>
<text text-anchor="middle" x="1316.5" y="-7.5" font-family="Helvetica,sans-Serif" font-size="10.00">unistd.h</text>
</a>
</g>
</g>
<!-- Node15&#45;&gt;Node23 -->
<g id="edge24" class="edge"><title>Node15&#45;&gt;Node23</title>
<path fill="none" stroke="midnightblue" d="M1056.91,-57.7582C1059.81,-57.1424 1062.71,-56.5468 1065.5,-56 1157.93,-37.913 1184.58,-39.9778 1281.07,-19.9219"/>
<polygon fill="midnightblue" stroke="midnightblue" points="1281.88,-23.3279 1290.95,-17.8432 1280.44,-16.4779 1281.88,-23.3279"/>
</g>
<!-- Node24&#45;&gt;Node9 -->
<g id="edge29" class="edge"><title>Node24&#45;&gt;Node9</title>
<path fill="none" stroke="midnightblue" d="M320.355,-113.032C352.843,-103.393 407.526,-87.1682 442.538,-76.78"/>
<polygon fill="midnightblue" stroke="midnightblue" points="443.699,-80.0862 452.291,-73.8863 441.708,-73.3754 443.699,-80.0862"/>
</g>
<!-- Node24&#45;&gt;Node10 -->
<g id="edge31" class="edge"><title>Node24&#45;&gt;Node10</title>
<path fill="none" stroke="midnightblue" d="M311.173,-112.324C328.894,-103.625 356.403,-90.1202 376.788,-80.113"/>
<polygon fill="midnightblue" stroke="midnightblue" points="378.436,-83.2031 385.87,-75.6545 375.351,-76.9195 378.436,-83.2031"/>
</g>
<!-- Node24&#45;&gt;Node13 -->
<g id="edge28" class="edge"><title>Node24&#45;&gt;Node13</title>
<path fill="none" stroke="midnightblue" d="M293.5,-112.083C293.5,-105.006 293.5,-94.8611 293.5,-85.9865"/>
<polygon fill="midnightblue" stroke="midnightblue" points="297,-85.751 293.5,-75.7511 290,-85.7511 297,-85.751"/>
</g>
<!-- Node25 -->
<g id="node25" class="node"><title>Node25</title>
<g id="a_node25"><a xlink:title=" ">
<polygon fill="white" stroke="#bfbfbf" points="67,-56.5 67,-75.5 112,-75.5 112,-56.5 67,-56.5"/>
<text text-anchor="middle" x="89.5" y="-63.5" font-family="Helvetica,sans-Serif" font-size="10.00">climits</text>
</a>
</g>
</g>
<!-- Node24&#45;&gt;Node25 -->
<g id="edge27" class="edge"><title>Node24&#45;&gt;Node25</title>
<path fill="none" stroke="midnightblue" d="M266.941,-114.212C234.966,-106.005 179.394,-91.6305 122.158,-76.1413"/>
<polygon fill="midnightblue" stroke="midnightblue" points="122.779,-72.6834 112.211,-73.4428 120.946,-79.4392 122.779,-72.6834"/>
</g>
<!-- Node26 -->
<g id="node26" class="node"><title>Node26</title>
<g id="a_node26"><a xlink:title=" ">
<polygon fill="white" stroke="#bfbfbf" points="130.5,-56.5 130.5,-75.5 194.5,-75.5 194.5,-56.5 130.5,-56.5"/>
<text text-anchor="middle" x="162.5" y="-63.5" font-family="Helvetica,sans-Serif" font-size="10.00">string_view</text>
</a>
</g>
</g>
<!-- Node24&#45;&gt;Node26 -->
<g id="edge30" class="edge"><title>Node24&#45;&gt;Node26</title>
<path fill="none" stroke="midnightblue" d="M272.743,-112.444C251.184,-103.557 217.237,-89.5632 192.706,-79.4514"/>
<polygon fill="midnightblue" stroke="midnightblue" points="193.739,-76.0917 183.16,-75.5164 191.072,-82.5634 193.739,-76.0917"/>
</g>
<!-- Node27 -->
<g id="node27" class="node"><title>Node27</title>
<g id="a_node27"><a xlink:title=" ">
<polygon fill="white" stroke="#bfbfbf" points="212.5,-56.5 212.5,-75.5 252.5,-75.5 252.5,-56.5 212.5,-56.5"/>
<text text-anchor="middle" x="232.5" y="-63.5" font-family="Helvetica,sans-Serif" font-size="10.00">utility</text>
</a>
</g>
</g>
<!-- Node24&#45;&gt;Node27 -->
<g id="edge32" class="edge"><title>Node24&#45;&gt;Node27</title>
<path fill="none" stroke="midnightblue" d="M283.699,-112.324C274.682,-104.341 261.094,-92.3128 250.182,-82.6529"/>
<polygon fill="midnightblue" stroke="midnightblue" points="252.287,-79.8416 242.479,-75.8339 247.647,-85.083 252.287,-79.8416"/>
</g>
<!-- Node28&#45;&gt;Node9 -->
<g id="edge38" class="edge"><title>Node28&#45;&gt;Node9</title>
<path fill="none" stroke="midnightblue" d="M621.881,-114.051C593.129,-104.809 542.038,-88.3873 508.465,-77.5958"/>
<polygon fill="midnightblue" stroke="midnightblue" points="509.243,-74.1697 498.652,-74.4416 507.101,-80.8339 509.243,-74.1697"/>
</g>
<!-- Node28&#45;&gt;Node10 -->
<g id="edge40" class="edge"><title>Node28&#45;&gt;Node10</title>
<path fill="none" stroke="midnightblue" d="M621.778,-116.113C581.753,-107.107 495.773,-87.7615 444.477,-76.2199"/>
<polygon fill="midnightblue" stroke="midnightblue" points="445.229,-72.8016 434.705,-74.021 443.692,-79.6309 445.229,-72.8016"/>
</g>
<!-- Node28&#45;&gt;Node14 -->
<g id="edge39" class="edge"><title>Node28&#45;&gt;Node14</title>
<path fill="none" stroke="midnightblue" d="M629.04,-112.324C615,-103.9 593.452,-90.9709 576.957,-81.0741"/>
<polygon fill="midnightblue" stroke="midnightblue" points="578.3,-77.7983 567.924,-75.6545 574.698,-83.8007 578.3,-77.7983"/>
</g>
<!-- Node28&#45;&gt;Node15 -->
<g id="edge42" class="edge"><title>Node28&#45;&gt;Node15</title>
<path fill="none" stroke="midnightblue" d="M665.412,-116.269C672.732,-114.781 680.948,-113.213 688.5,-112 816.154,-91.5025 852.111,-97.8955 984.126,-75.8931"/>
<polygon fill="midnightblue" stroke="midnightblue" points="984.944,-79.3047 994.221,-74.1871 983.777,-72.4025 984.944,-79.3047"/>
</g>
<!-- Node29 -->
<g id="node29" class="node"><title>Node29</title>
<g id="a_node29"><a xlink:title=" ">
<polygon fill="white" stroke="#bfbfbf" points="608.5,-56.5 608.5,-75.5 668.5,-75.5 668.5,-56.5 608.5,-56.5"/>
<text text-anchor="middle" x="638.5" y="-63.5" font-family="Helvetica,sans-Serif" font-size="10.00">fmt/core.h</text>
</a>
</g>
</g>
<!-- Node28&#45;&gt;Node29 -->
<g id="edge34" class="edge"><title>Node28&#45;&gt;Node29</title>
<path fill="none" stroke="midnightblue" d="M642.674,-112.083C642.019,-105.006 641.08,-94.8611 640.258,-85.9865"/>
<polygon fill="midnightblue" stroke="midnightblue" points="643.717,-85.3858 639.31,-75.7511 636.747,-86.0312 643.717,-85.3858"/>
</g>
<!-- Node30 -->
<g id="node30" class="node"><title>Node30</title>
<g id="a_node30"><a xlink:title=" ">
<polygon fill="white" stroke="#bfbfbf" points="686.5,-56.5 686.5,-75.5 754.5,-75.5 754.5,-56.5 686.5,-56.5"/>
<text text-anchor="middle" x="720.5" y="-63.5" font-family="Helvetica,sans-Serif" font-size="10.00">fmt/format.h</text>
</a>
</g>
</g>
<!-- Node28&#45;&gt;Node30 -->
<g id="edge35" class="edge"><title>Node28&#45;&gt;Node30</title>
<path fill="none" stroke="midnightblue" d="M655.871,-112.324C667.658,-104.058 685.632,-91.4527 699.636,-81.6322"/>
<polygon fill="midnightblue" stroke="midnightblue" points="701.982,-84.2619 708.159,-75.6545 697.962,-78.5307 701.982,-84.2619"/>
</g>
<!-- Node31 -->
<g id="node31" class="node"><title>Node31</title>
<g id="a_node31"><a xlink:title=" ">
<polygon fill="white" stroke="#bfbfbf" points="772.5,-56.5 772.5,-75.5 810.5,-75.5 810.5,-56.5 772.5,-56.5"/>
<text text-anchor="middle" x="791.5" y="-63.5" font-family="Helvetica,sans-Serif" font-size="10.00">array</text>
</a>
</g>
</g>
<!-- Node28&#45;&gt;Node31 -->
<g id="edge36" class="edge"><title>Node28&#45;&gt;Node31</title>
<path fill="none" stroke="midnightblue" d="M665.02,-113.148C690.838,-103.728 734.214,-87.9016 762.848,-77.4542"/>
<polygon fill="midnightblue" stroke="midnightblue" points="764.114,-80.7181 772.308,-74.0025 761.714,-74.1422 764.114,-80.7181"/>
</g>
<!-- Node32 -->
<g id="node32" class="node"><title>Node32</title>
<g id="a_node32"><a xlink:title=" ">
<polygon fill="white" stroke="#bfbfbf" points="828.5,-56.5 828.5,-75.5 874.5,-75.5 874.5,-56.5 828.5,-56.5"/>
<text text-anchor="middle" x="851.5" y="-63.5" font-family="Helvetica,sans-Serif" font-size="10.00">chrono</text>
</a>
</g>
</g>
<!-- Node28&#45;&gt;Node32 -->
<g id="edge37" class="edge"><title>Node28&#45;&gt;Node32</title>
<path fill="none" stroke="midnightblue" d="M665.22,-115.624C696.804,-107.768 757.486,-92.5321 818.633,-76.1867"/>
<polygon fill="midnightblue" stroke="midnightblue" points="819.694,-79.5258 828.446,-73.5547 817.881,-72.7647 819.694,-79.5258"/>
</g>
<!-- Node33 -->
<g id="node33" class="node"><title>Node33</title>
<g id="a_node33"><a xlink:title=" ">
<polygon fill="white" stroke="#bfbfbf" points="893,-56.5 893,-75.5 976,-75.5 976,-56.5 893,-56.5"/>
<text text-anchor="middle" x="934.5" y="-63.5" font-family="Helvetica,sans-Serif" font-size="10.00">unordered_map</text>
</a>
</g>
</g>
<!-- Node28&#45;&gt;Node33 -->
<g id="edge41" class="edge"><title>Node28&#45;&gt;Node33</title>
<path fill="none" stroke="midnightblue" d="M665.002,-116.625C672.44,-115.131 680.831,-113.468 688.5,-112 755.522,-99.1686 832.974,-85.1308 882.786,-76.2045"/>
<polygon fill="midnightblue" stroke="midnightblue" points="883.448,-79.6417 892.675,-74.4345 882.215,-72.7512 883.448,-79.6417"/>
</g>
<!-- Node34&#45;&gt;Node14 -->
<g id="edge45" class="edge"><title>Node34&#45;&gt;Node14</title>
<path fill="none" stroke="midnightblue" d="M703.295,-112.444C673.09,-103.28 624.989,-88.6876 591.471,-78.5192"/>
<polygon fill="midnightblue" stroke="midnightblue" points="592.158,-75.0703 581.573,-75.5164 590.126,-81.7688 592.158,-75.0703"/>
</g>
<!-- Node34&#45;&gt;Node15 -->
<g id="edge46" class="edge"><title>Node34&#45;&gt;Node15</title>
<path fill="none" stroke="midnightblue" d="M765.139,-115.458C811.886,-107.659 899.369,-92.7185 984.373,-75.9547"/>
<polygon fill="midnightblue" stroke="midnightblue" points="985.06,-79.3869 994.188,-74.0087 983.698,-72.5205 985.06,-79.3869"/>
</g>
<!-- Node35&#45;&gt;Node15 -->
<g id="edge48" class="edge"><title>Node35&#45;&gt;Node15</title>
<path fill="none" stroke="midnightblue" d="M890.035,-168.368C915.045,-149.653 974.517,-105.151 1005.68,-81.8324"/>
<polygon fill="midnightblue" stroke="midnightblue" points="1008.11,-84.385 1014.02,-75.5914 1003.92,-78.7804 1008.11,-84.385"/>
</g>
<!-- Node36 -->
<g id="node36" class="node"><title>Node36</title>
<g id="a_node36"><a xlink:href="sys__error__code_8h.html" target="_top" xlink:title=" ">
<polygon fill="white" stroke="black" points="974.5,-112.5 974.5,-131.5 1066.5,-131.5 1066.5,-112.5 974.5,-112.5"/>
<text text-anchor="middle" x="1020.5" y="-119.5" font-family="Helvetica,sans-Serif" font-size="10.00">sys_error_code.h</text>
</a>
</g>
</g>
<!-- Node35&#45;&gt;Node36 -->
<g id="edge49" class="edge"><title>Node35&#45;&gt;Node36</title>
<path fill="none" stroke="midnightblue" d="M901,-168.444C924.577,-159.478 961.822,-145.314 988.464,-135.183"/>
<polygon fill="midnightblue" stroke="midnightblue" points="990.002,-138.342 998.105,-131.516 987.514,-131.8 990.002,-138.342"/>
</g>
<!-- Node35&#45;&gt;Node37 -->
<g id="edge52" class="edge"><title>Node35&#45;&gt;Node37</title>
<path fill="none" stroke="midnightblue" d="M923.143,-168.419C977.2,-157.779 1062.65,-140.064 1075.5,-132 1094.18,-120.282 1109.06,-99.442 1118.04,-84.5166"/>
<polygon fill="midnightblue" stroke="midnightblue" points="1121.15,-86.1367 1123.07,-75.7177 1115.07,-82.6638 1121.15,-86.1367"/>
</g>
<!-- Node36&#45;&gt;Node15 -->
<g id="edge50" class="edge"><title>Node36&#45;&gt;Node15</title>
<path fill="none" stroke="midnightblue" d="M1021.33,-112.083C1021.98,-105.006 1022.92,-94.8611 1023.74,-85.9865"/>
<polygon fill="midnightblue" stroke="midnightblue" points="1027.25,-86.0312 1024.69,-75.7511 1020.28,-85.3858 1027.25,-86.0312"/>
</g>
<!-- Node36&#45;&gt;Node37 -->
<g id="edge51" class="edge"><title>Node36&#45;&gt;Node37</title>
<path fill="none" stroke="midnightblue" d="M1037.69,-112.324C1054.85,-103.664 1081.45,-90.2424 1101.25,-80.249"/>
<polygon fill="midnightblue" stroke="midnightblue" points="1103,-83.2847 1110.35,-75.6545 1099.85,-77.0354 1103,-83.2847"/>
</g>
</g>
</svg>
        <g id="navigator" transform="translate(0 0)" fill="#404254">
                <rect fill="#f2f5e9" fill-opacity="0.5" stroke="#606060" stroke-width=".5" x="0" y="0" width="60" height="60"/>
                <use id="zoomplus" xlink:href="#zoomPlus" x="17" y="9" onmousedown="handleZoom(evt,'in')"/>
                <use id="zoomminus" xlink:href="#zoomMin" x="42" y="9" onmousedown="handleZoom(evt,'out')"/>
                <use id="reset" xlink:href="#resetDef" x="30" y="36" onmousedown="handleReset()"/>
                <g id="arrowUp" xlink:href="#dirArrow" transform="translate(30 24)" onmousedown="handlePan(0,-1)">
                  <use xlink:href="#rim" fill="#404040">
                        <set attributeName="fill" to="#808080" begin="arrowUp.mouseover" end="arrowUp.mouseout"/>
                  </use>
                  <path fill="none" stroke="white" stroke-width="1.5" d="M0,-3.0v7 M-2.5,-0.5L0,-3.0L2.5,-0.5"/>
                </g>
                <g id="arrowRight" xlink:href="#dirArrow" transform="rotate(90) translate(36 -43)" onmousedown="handlePan(1,0)">
                  <use xlink:href="#rim" fill="#404040">
                        <set attributeName="fill" to="#808080" begin="arrowRight.mouseover" end="arrowRight.mouseout"/>
                  </use>
                  <path fill="none" stroke="white" stroke-width="1.5" d="M0,-3.0v7 M-2.5,-0.5L0,-3.0L2.5,-0.5"/>
                </g>
                <g id="arrowDown" xlink:href="#dirArrow" transform="rotate(180) translate(-30 -48)" onmousedown="handlePan(0,1)">
                  <use xlink:href="#rim" fill="#404040">
                        <set attributeName="fill" to="#808080" begin="arrowDown.mouseover" end="arrowDown.mouseout"/>
                  </use>
                  <path fill="none" stroke="white" stroke-width="1.5" d="M0,-3.0v7 M-2.5,-0.5L0,-3.0L2.5,-0.5"/>
                </g>
                <g id="arrowLeft" xlink:href="#dirArrow" transform="rotate(270) translate(-36 17)" onmousedown="handlePan(-1,0)">
                  <use xlink:href="#rim" fill="#404040">
                        <set attributeName="fill" to="#808080" begin="arrowLeft.mouseover" end="arrowLeft.mouseout"/>
                  </use>
                  <path fill="none" stroke="white" stroke-width="1.5" d="M0,-3.0v7 M-2.5,-0.5L0,-3.0L2.5,-0.5"/>
                </g>
        </g>
        <svg viewBox="0 0 15 15" width="100%" height="30px" preserveAspectRatio="xMaxYMin meet">
         <g id="arrow_out" transform="scale(0.3 0.3)">
          <a xlink:href="socket_8h__incl_org.svg" target="_base">
           <rect id="button" ry="5" rx="5" y="6" x="6" height="38" width="38"
                fill="#f2f5e9" fill-opacity="0.5" stroke="#606060" stroke-width="1.0"/>
           <path id="arrow"
             d="M 11.500037,31.436501 C 11.940474,20.09759 22.043105,11.32322 32.158766,21.979434 L 37.068811,17.246167 C 37.068811,17.246167 37.088388,32 37.088388,32 L 22.160133,31.978069 C 22.160133,31.978069 26.997745,27.140456 26.997745,27.140456 C 18.528582,18.264221 13.291696,25.230495 11.500037,31.436501 z"
             style="fill:#404040;"/>
          </a>
         </g>
        </svg>
</svg>
