<?xml version="1.0" encoding="UTF-8" standalone="no"?>
<!DOCTYPE svg PUBLIC "-//W3C//DTD SVG 1.1//EN"
 "http://www.w3.org/Graphics/SVG/1.1/DTD/svg11.dtd">
<!-- Generated by graphviz version 2.38.0 (20140413.2041)
 -->
<!-- Title: C:/projects/ndt/sources/include/ndt/socket.h Pages: 1 -->
<svg width="578pt" height="418pt"
 viewBox="0.00 0.00 578.00 418.00" xmlns="http://www.w3.org/2000/svg" xmlns:xlink="http://www.w3.org/1999/xlink">
<g id="graph0" class="graph" transform="scale(1 1) rotate(0) translate(4 414)">
<title>C:/projects/ndt/sources/include/ndt/socket.h</title>
<polygon fill="white" stroke="none" points="-4,4 -4,-414 574,-414 574,4 -4,4"/>
<!-- Node1 -->
<g id="node1" class="node"><title>Node1</title>
<g id="a_node1"><a xlink:title=" ">
<polygon fill="#bfbfbf" stroke="black" points="152,-379.5 152,-409.5 270,-409.5 270,-379.5 152,-379.5"/>
<text text-anchor="start" x="160" y="-397.5" font-family="Helvetica,sans-Serif" font-size="10.00">C:/projects/ndt/sources</text>
<text text-anchor="middle" x="211" y="-386.5" font-family="Helvetica,sans-Serif" font-size="10.00">/include/ndt/socket.h</text>
</a>
</g>
</g>
<!-- Node2 -->
<g id="node2" class="node"><title>Node2</title>
<g id="a_node2"><a xlink:href="core_8h.html" target="_top" xlink:title=" ">
<polygon fill="white" stroke="black" points="60,-0.5 60,-30.5 178,-30.5 178,-0.5 60,-0.5"/>
<text text-anchor="start" x="68" y="-18.5" font-family="Helvetica,sans-Serif" font-size="10.00">C:/projects/ndt/sources</text>
<text text-anchor="middle" x="119" y="-7.5" font-family="Helvetica,sans-Serif" font-size="10.00">/include/ndt/core.h</text>
</a>
</g>
</g>
<!-- Node1&#45;&gt;Node2 -->
<g id="edge1" class="edge"><title>Node1&#45;&gt;Node2</title>
<path fill="none" stroke="midnightblue" d="M143.07,-376.371C81.3888,-356.256 0,-316.221 0,-245 0,-245 0,-245 0,-165 0,-104.045 61.8101,-53.8182 96.3369,-30.5166"/>
<polygon fill="midnightblue" stroke="midnightblue" points="142.195,-379.765 152.785,-379.43 144.298,-373.088 142.195,-379.765"/>
</g>
<!-- Node3 -->
<g id="node3" class="node"><title>Node3</title>
<g id="a_node3"><a xlink:href="executor__select__base_8h.html" target="_top" xlink:title=" ">
<polygon fill="white" stroke="black" points="152,-301.5 152,-342.5 270,-342.5 270,-301.5 152,-301.5"/>
<text text-anchor="start" x="160" y="-330.5" font-family="Helvetica,sans-Serif" font-size="10.00">C:/projects/ndt/sources</text>
<text text-anchor="start" x="160" y="-319.5" font-family="Helvetica,sans-Serif" font-size="10.00">/include/ndt/executor</text>
<text text-anchor="middle" x="211" y="-308.5" font-family="Helvetica,sans-Serif" font-size="10.00">_select_base.h</text>
</a>
</g>
</g>
<!-- Node1&#45;&gt;Node3 -->
<g id="edge2" class="edge"><title>Node1&#45;&gt;Node3</title>
<path fill="none" stroke="midnightblue" d="M211,-368.982C211,-360.347 211,-350.762 211,-342.588"/>
<polygon fill="midnightblue" stroke="midnightblue" points="207.5,-369.233 211,-379.233 214.5,-369.233 207.5,-369.233"/>
</g>
<!-- Node9 -->
<g id="node9" class="node"><title>Node9</title>
<g id="a_node9"><a xlink:href="udp_8h.html" target="_top" xlink:title=" ">
<polygon fill="white" stroke="black" points="365,-307 365,-337 483,-337 483,-307 365,-307"/>
<text text-anchor="start" x="373" y="-325" font-family="Helvetica,sans-Serif" font-size="10.00">C:/projects/ndt/sources</text>
<text text-anchor="middle" x="424" y="-314" font-family="Helvetica,sans-Serif" font-size="10.00">/include/ndt/udp.h</text>
</a>
</g>
</g>
<!-- Node1&#45;&gt;Node9 -->
<g id="edge13" class="edge"><title>Node1&#45;&gt;Node9</title>
<path fill="none" stroke="midnightblue" d="M263.254,-376.205C299.571,-364.184 347.368,-348.364 381.379,-337.107"/>
<polygon fill="midnightblue" stroke="midnightblue" points="261.73,-373.022 253.337,-379.487 263.93,-379.668 261.73,-373.022"/>
</g>
<!-- Node3&#45;&gt;Node2 -->
<g id="edge3" class="edge"><title>Node3&#45;&gt;Node2</title>
<path fill="none" stroke="midnightblue" d="M141.949,-313.733C110.603,-306.591 76.2926,-292.544 57,-265 3.55787,-188.701 79.1076,-70.8584 108.317,-30.5659"/>
<polygon fill="midnightblue" stroke="midnightblue" points="141.497,-317.214 151.999,-315.817 142.918,-310.359 141.497,-317.214"/>
</g>
<!-- Node4 -->
<g id="node4" class="node"><title>Node4</title>
<g id="a_node4"><a xlink:href="nix_2executor__select__impl_8h.html" target="_top" xlink:title=" ">
<polygon fill="white" stroke="black" points="66,-223.5 66,-264.5 202,-264.5 202,-223.5 66,-223.5"/>
<text text-anchor="start" x="74" y="-252.5" font-family="Helvetica,sans-Serif" font-size="10.00">C:/projects/ndt/sources</text>
<text text-anchor="start" x="74" y="-241.5" font-family="Helvetica,sans-Serif" font-size="10.00">/include/ndt/platform</text>
<text text-anchor="middle" x="134" y="-230.5" font-family="Helvetica,sans-Serif" font-size="10.00">/nix/executor_select_impl.h</text>
</a>
</g>
</g>
<!-- Node3&#45;&gt;Node4 -->
<g id="edge4" class="edge"><title>Node3&#45;&gt;Node4</title>
<path fill="none" stroke="midnightblue" d="M183.851,-294.204C173.935,-284.416 162.914,-273.539 153.762,-264.506"/>
<polygon fill="midnightblue" stroke="midnightblue" points="181.595,-296.894 191.171,-301.428 186.512,-291.912 181.595,-296.894"/>
</g>
<!-- Node8 -->
<g id="node8" class="node"><title>Node8</title>
<g id="a_node8"><a xlink:href="win_2executor__select__impl_8h.html" target="_top" xlink:title=" ">
<polygon fill="white" stroke="black" points="220.5,-223.5 220.5,-264.5 357.5,-264.5 357.5,-223.5 220.5,-223.5"/>
<text text-anchor="start" x="228.5" y="-252.5" font-family="Helvetica,sans-Serif" font-size="10.00">C:/projects/ndt/sources</text>
<text text-anchor="start" x="228.5" y="-241.5" font-family="Helvetica,sans-Serif" font-size="10.00">/include/ndt/platform</text>
<text text-anchor="middle" x="289" y="-230.5" font-family="Helvetica,sans-Serif" font-size="10.00">/win/executor_select_impl.h</text>
</a>
</g>
</g>
<!-- Node3&#45;&gt;Node8 -->
<g id="edge12" class="edge"><title>Node3&#45;&gt;Node8</title>
<path fill="none" stroke="midnightblue" d="M238.501,-294.204C248.547,-284.416 259.71,-273.539 268.981,-264.506"/>
<polygon fill="midnightblue" stroke="midnightblue" points="235.807,-291.943 231.087,-301.428 240.692,-296.956 235.807,-291.943"/>
</g>
<!-- Node5 -->
<g id="node5" class="node"><title>Node5</title>
<g id="a_node5"><a xlink:href="executor__select_8h.html" target="_top" xlink:title=" ">
<polygon fill="white" stroke="black" points="89,-145.5 89,-186.5 207,-186.5 207,-145.5 89,-145.5"/>
<text text-anchor="start" x="97" y="-174.5" font-family="Helvetica,sans-Serif" font-size="10.00">C:/projects/ndt/sources</text>
<text text-anchor="start" x="97" y="-163.5" font-family="Helvetica,sans-Serif" font-size="10.00">/include/ndt/executor</text>
<text text-anchor="middle" x="148" y="-152.5" font-family="Helvetica,sans-Serif" font-size="10.00">_select.h</text>
</a>
</g>
</g>
<!-- Node4&#45;&gt;Node5 -->
<g id="edge5" class="edge"><title>Node4&#45;&gt;Node5</title>
<path fill="none" stroke="midnightblue" d="M139.418,-213.59C141.09,-204.511 142.89,-194.742 144.407,-186.506"/>
<polygon fill="midnightblue" stroke="midnightblue" points="135.975,-212.959 137.605,-223.428 142.859,-214.228 135.975,-212.959"/>
</g>
<!-- Node5&#45;&gt;Node2 -->
<g id="edge8" class="edge"><title>Node5&#45;&gt;Node2</title>
<path fill="none" stroke="midnightblue" d="M114.946,-138.268C106.878,-129.844 99.328,-119.869 95,-109 84.3207,-82.18 99.246,-49.0858 109.903,-30.6365"/>
<polygon fill="midnightblue" stroke="midnightblue" points="112.501,-140.773 122.101,-145.256 117.392,-135.765 112.501,-140.773"/>
</g>
<!-- Node6 -->
<g id="node6" class="node"><title>Node6</title>
<g id="a_node6"><a xlink:href="context_8h.html" target="_top" xlink:title=" ">
<polygon fill="white" stroke="black" points="104,-73 104,-103 222,-103 222,-73 104,-73"/>
<text text-anchor="start" x="112" y="-91" font-family="Helvetica,sans-Serif" font-size="10.00">C:/projects/ndt/sources</text>
<text text-anchor="middle" x="163" y="-80" font-family="Helvetica,sans-Serif" font-size="10.00">/include/ndt/context.h</text>
</a>
</g>
</g>
<!-- Node5&#45;&gt;Node6 -->
<g id="edge6" class="edge"><title>Node5&#45;&gt;Node6</title>
<path fill="none" stroke="midnightblue" d="M153.865,-135.283C156.042,-124.254 158.412,-112.246 160.192,-103.225"/>
<polygon fill="midnightblue" stroke="midnightblue" points="150.366,-134.94 151.863,-145.428 157.233,-136.295 150.366,-134.94"/>
</g>
<!-- Node7 -->
<g id="node7" class="node"><title>Node7</title>
<g id="a_node7"><a xlink:href="event__handler__select_8h.html" target="_top" xlink:title=" ">
<polygon fill="white" stroke="black" points="240.5,-67.5 240.5,-108.5 369.5,-108.5 369.5,-67.5 240.5,-67.5"/>
<text text-anchor="start" x="248.5" y="-96.5" font-family="Helvetica,sans-Serif" font-size="10.00">C:/projects/ndt/sources</text>
<text text-anchor="start" x="248.5" y="-85.5" font-family="Helvetica,sans-Serif" font-size="10.00">/include/ndt/event_handler</text>
<text text-anchor="middle" x="305" y="-74.5" font-family="Helvetica,sans-Serif" font-size="10.00">_select.h</text>
</a>
</g>
</g>
<!-- Node5&#45;&gt;Node7 -->
<g id="edge9" class="edge"><title>Node5&#45;&gt;Node7</title>
<path fill="none" stroke="midnightblue" d="M197.478,-141.049C219.132,-130.566 244.215,-118.424 264.706,-108.506"/>
<polygon fill="midnightblue" stroke="midnightblue" points="195.907,-137.921 188.431,-145.428 198.957,-144.221 195.907,-137.921"/>
</g>
<!-- Node6&#45;&gt;Node2 -->
<g id="edge7" class="edge"><title>Node6&#45;&gt;Node2</title>
<path fill="none" stroke="midnightblue" d="M148.681,-64.0566C141.834,-53.0859 133.852,-40.2965 127.891,-30.7455"/>
<polygon fill="midnightblue" stroke="midnightblue" points="145.832,-66.103 154.096,-72.7333 151.77,-62.3968 145.832,-66.103"/>
</g>
<!-- Node7&#45;&gt;Node2 -->
<g id="edge10" class="edge"><title>Node7&#45;&gt;Node2</title>
<path fill="none" stroke="midnightblue" d="M243.574,-63.7174C214.642,-52.7515 181.085,-40.0323 156.094,-30.5597"/>
<polygon fill="midnightblue" stroke="midnightblue" points="242.597,-67.0903 253.189,-67.3618 245.078,-60.5447 242.597,-67.0903"/>
</g>
<!-- Node7&#45;&gt;Node3 -->
<g id="edge11" class="edge"><title>Node7&#45;&gt;Node3</title>
<path fill="none" stroke="midnightblue" d="M328.871,-116.353C357.741,-152.913 398.647,-218.492 366,-265 344.465,-295.678 304.382,-309.623 270.373,-315.927"/>
<polygon fill="midnightblue" stroke="midnightblue" points="331.581,-114.138 322.564,-108.576 326.145,-118.548 331.581,-114.138"/>
</g>
<!-- Node9&#45;&gt;Node2 -->
<g id="edge14" class="edge"><title>Node9&#45;&gt;Node2</title>
<path fill="none" stroke="midnightblue" d="M427.673,-296.791C433.819,-246.43 440.02,-129.857 378,-67 350.69,-39.3219 245.72,-26.1458 178.088,-20.409"/>
<polygon fill="midnightblue" stroke="midnightblue" points="424.196,-296.385 426.348,-306.759 431.135,-297.308 424.196,-296.385"/>
</g>
<!-- Node10 -->
<g id="node10" class="node"><title>Node10</title>
<g id="a_node10"><a xlink:href="udp_8cpp.html" target="_top" xlink:title=" ">
<polygon fill="white" stroke="black" points="452,-229 452,-259 570,-259 570,-229 452,-229"/>
<text text-anchor="start" x="460" y="-247" font-family="Helvetica,sans-Serif" font-size="10.00">C:/projects/ndt/sources</text>
<text text-anchor="middle" x="511" y="-236" font-family="Helvetica,sans-Serif" font-size="10.00">/src/udp.cpp</text>
</a>
</g>
</g>
<!-- Node9&#45;&gt;Node10 -->
<g id="edge15" class="edge"><title>Node9&#45;&gt;Node10</title>
<path fill="none" stroke="midnightblue" d="M448.161,-299.894C462.999,-286.932 481.606,-270.678 494.709,-259.231"/>
<polygon fill="midnightblue" stroke="midnightblue" points="445.593,-297.49 440.364,-306.705 450.198,-302.762 445.593,-297.49"/>
</g>
</g>
</svg>
