<?xml version="1.0" encoding="UTF-8" standalone="no"?>
<!DOCTYPE svg PUBLIC "-//W3C//DTD SVG 1.1//EN"
 "http://www.w3.org/Graphics/SVG/1.1/DTD/svg11.dtd">
<!-- Generated by graphviz version 2.38.0 (20140413.2041)
 -->
<!-- Title: ndt::is_parameterized_with_enum&lt; U&lt; kEnumV &gt; &gt; Pages: 1 -->
<svg width="157pt" height="204pt"
 viewBox="0.00 0.00 157.00 204.00" xmlns="http://www.w3.org/2000/svg" xmlns:xlink="http://www.w3.org/1999/xlink">
<g id="graph0" class="graph" transform="scale(1 1) rotate(0) translate(4 200)">
<title>ndt::is_parameterized_with_enum&lt; U&lt; kEnumV &gt; &gt;</title>
<polygon fill="white" stroke="none" points="-4,4 -4,-200 153,-200 153,4 -4,4"/>
<!-- Node1 -->
<g id="node1" class="node"><title>Node1</title>
<g id="a_node1"><a xlink:title=" ">
<polygon fill="#bfbfbf" stroke="black" points="0,-0.5 0,-68.5 149,-68.5 149,-0.5 0,-0.5"/>
<text text-anchor="start" x="8" y="-56.5" font-family="Helvetica,sans-Serif" font-size="10.00">ndt::is_parameterized</text>
<text text-anchor="middle" x="74.5" y="-45.5" font-family="Helvetica,sans-Serif" font-size="10.00">_with_enum&lt; U&lt; kEnumV &gt; &gt;</text>
<polyline fill="none" stroke="black" points="0,-38.5 149,-38.5 "/>
<text text-anchor="start" x="8" y="-26.5" font-family="Helvetica,sans-Serif" font-size="10.00">+ enum_value</text>
<polyline fill="none" stroke="black" points="0,-19.5 149,-19.5 "/>
<text text-anchor="middle" x="74.5" y="-7.5" font-family="Helvetica,sans-Serif" font-size="10.00"> </text>
</a>
</g>
</g>
<!-- Node2 -->
<g id="node2" class="node"><title>Node2</title>
<g id="a_node2"><a xlink:title=" ">
<polygon fill="white" stroke="#bfbfbf" points="6,-105.5 6,-195.5 143,-195.5 143,-105.5 6,-105.5"/>
<text text-anchor="start" x="14" y="-183.5" font-family="Helvetica,sans-Serif" font-size="10.00">std::conditional_t</text>
<text text-anchor="start" x="14" y="-172.5" font-family="Helvetica,sans-Serif" font-size="10.00">&lt; std::is_enum_v&lt; decltype</text>
<text text-anchor="start" x="14" y="-161.5" font-family="Helvetica,sans-Serif" font-size="10.00">(kEnumV)&gt;, std::true_type,</text>
<text text-anchor="middle" x="74.5" y="-150.5" font-family="Helvetica,sans-Serif" font-size="10.00"> std::false_type &gt;</text>
<polyline fill="none" stroke="#bfbfbf" points="6,-143.5 143,-143.5 "/>
<text text-anchor="middle" x="74.5" y="-131.5" font-family="Helvetica,sans-Serif" font-size="10.00"> </text>
<polyline fill="none" stroke="#bfbfbf" points="6,-124.5 143,-124.5 "/>
<text text-anchor="middle" x="74.5" y="-112.5" font-family="Helvetica,sans-Serif" font-size="10.00"> </text>
</a>
</g>
</g>
<!-- Node2&#45;&gt;Node1 -->
<g id="edge1" class="edge"><title>Node2&#45;&gt;Node1</title>
<path fill="none" stroke="midnightblue" d="M74.5,-95.3164C74.5,-86.2849 74.5,-77.1589 74.5,-68.8483"/>
<polygon fill="none" stroke="midnightblue" points="71.0001,-95.4246 74.5,-105.425 78.0001,-95.4247 71.0001,-95.4246"/>
</g>
</g>
</svg>
