<?xml version="1.0" encoding="UTF-8" standalone="no"?>
<!DOCTYPE svg PUBLIC "-//W3C//DTD SVG 1.1//EN"
 "http://www.w3.org/Graphics/SVG/1.1/DTD/svg11.dtd">
<!-- Generated by graphviz version 2.38.0 (20140413.2041)
 -->
<!-- Title: ndt::NoConstructibleNoDestructible Pages: 1 -->
<svg width="483pt" height="193pt"
 viewBox="0.00 0.00 482.50 193.00" xmlns="http://www.w3.org/2000/svg" xmlns:xlink="http://www.w3.org/1999/xlink">
<g id="graph0" class="graph" transform="scale(1 1) rotate(0) translate(4 189)">
<title>ndt::NoConstructibleNoDestructible</title>
<polygon fill="white" stroke="none" points="-4,4 -4,-189 478.5,-189 478.5,4 -4,4"/>
<!-- Node1 -->
<g id="node1" class="node"><title>Node1</title>
<g id="a_node1"><a xlink:title=" ">
<polygon fill="#bfbfbf" stroke="black" points="176,-0.5 176,-57.5 345,-57.5 345,-0.5 176,-0.5"/>
<text text-anchor="middle" x="260.5" y="-45.5" font-family="Helvetica,sans-Serif" font-size="10.00">ndt::NoConstructibleNoDestructible</text>
<polyline fill="none" stroke="black" points="176,-38.5 345,-38.5 "/>
<text text-anchor="middle" x="260.5" y="-26.5" font-family="Helvetica,sans-Serif" font-size="10.00"> </text>
<polyline fill="none" stroke="black" points="176,-19.5 345,-19.5 "/>
<text text-anchor="middle" x="260.5" y="-7.5" font-family="Helvetica,sans-Serif" font-size="10.00"> </text>
</a>
</g>
</g>
<!-- Node2 -->
<g id="node2" class="node"><title>Node2</title>
<g id="a_node2"><a xlink:href="structndt_1_1_no_default_constructible.html" target="_top" xlink:title=" ">
<polygon fill="white" stroke="black" points="0,-111 0,-168 135,-168 135,-111 0,-111"/>
<text text-anchor="middle" x="67.5" y="-156" font-family="Helvetica,sans-Serif" font-size="10.00">ndt::NoDefaultConstructible</text>
<polyline fill="none" stroke="black" points="0,-149 135,-149 "/>
<text text-anchor="middle" x="67.5" y="-137" font-family="Helvetica,sans-Serif" font-size="10.00"> </text>
<polyline fill="none" stroke="black" points="0,-130 135,-130 "/>
<text text-anchor="start" x="8" y="-118" font-family="Helvetica,sans-Serif" font-size="10.00">+ NoDefaultConstructible()</text>
</a>
</g>
</g>
<!-- Node2&#45;&gt;Node1 -->
<g id="edge1" class="edge"><title>Node2&#45;&gt;Node1</title>
<path fill="none" stroke="midnightblue" d="M122.753,-105.895C129.72,-101.859 136.764,-97.8133 143.5,-94 164.958,-81.8525 188.811,-68.7356 209.353,-57.5584"/>
<polygon fill="none" stroke="midnightblue" points="120.885,-102.933 113.999,-110.985 124.403,-108.984 120.885,-102.933"/>
</g>
<!-- Node3 -->
<g id="node3" class="node"><title>Node3</title>
<g id="a_node3"><a xlink:href="structndt_1_1_no_destructible.html" target="_top" xlink:title=" ">
<polygon fill="white" stroke="black" points="153,-111 153,-168 254,-168 254,-111 153,-111"/>
<text text-anchor="middle" x="203.5" y="-156" font-family="Helvetica,sans-Serif" font-size="10.00">ndt::NoDestructible</text>
<polyline fill="none" stroke="black" points="153,-149 254,-149 "/>
<text text-anchor="middle" x="203.5" y="-137" font-family="Helvetica,sans-Serif" font-size="10.00"> </text>
<polyline fill="none" stroke="black" points="153,-130 254,-130 "/>
<text text-anchor="start" x="161" y="-118" font-family="Helvetica,sans-Serif" font-size="10.00">+ ~NoDestructible()</text>
</a>
</g>
</g>
<!-- Node3&#45;&gt;Node1 -->
<g id="edge2" class="edge"><title>Node3&#45;&gt;Node1</title>
<path fill="none" stroke="midnightblue" d="M222.845,-101.677C230.422,-87.2541 238.965,-70.993 245.996,-57.6094"/>
<polygon fill="none" stroke="midnightblue" points="219.583,-100.36 218.031,-110.84 225.78,-103.615 219.583,-100.36"/>
</g>
<!-- Node4 -->
<g id="node4" class="node"><title>Node4</title>
<g id="a_node4"><a xlink:href="structndt_1_1_no_copy_able.html" target="_top" xlink:title=" ">
<polygon fill="white" stroke="black" points="272.5,-94.5 272.5,-184.5 364.5,-184.5 364.5,-94.5 272.5,-94.5"/>
<text text-anchor="middle" x="318.5" y="-172.5" font-family="Helvetica,sans-Serif" font-size="10.00">ndt::NoCopyAble</text>
<polyline fill="none" stroke="black" points="272.5,-165.5 364.5,-165.5 "/>
<text text-anchor="middle" x="318.5" y="-153.5" font-family="Helvetica,sans-Serif" font-size="10.00"> </text>
<polyline fill="none" stroke="black" points="272.5,-146.5 364.5,-146.5 "/>
<text text-anchor="start" x="280.5" y="-134.5" font-family="Helvetica,sans-Serif" font-size="10.00">+ NoCopyAble()</text>
<text text-anchor="start" x="280.5" y="-123.5" font-family="Helvetica,sans-Serif" font-size="10.00">+ ~NoCopyAble()</text>
<text text-anchor="start" x="280.5" y="-112.5" font-family="Helvetica,sans-Serif" font-size="10.00">+ NoCopyAble()</text>
<text text-anchor="start" x="280.5" y="-101.5" font-family="Helvetica,sans-Serif" font-size="10.00">+ operator=()</text>
</a>
</g>
</g>
<!-- Node4&#45;&gt;Node1 -->
<g id="edge3" class="edge"><title>Node4&#45;&gt;Node1</title>
<path fill="none" stroke="midnightblue" d="M290.188,-85.5375C285.018,-75.866 279.819,-66.1399 275.248,-57.5896"/>
<polygon fill="none" stroke="midnightblue" points="287.108,-87.1999 294.909,-94.3689 293.281,-83.8998 287.108,-87.1999"/>
</g>
<!-- Node5 -->
<g id="node5" class="node"><title>Node5</title>
<g id="a_node5"><a xlink:href="structndt_1_1_no_move_able.html" target="_top" xlink:title=" ">
<polygon fill="white" stroke="black" points="382.5,-94.5 382.5,-184.5 474.5,-184.5 474.5,-94.5 382.5,-94.5"/>
<text text-anchor="middle" x="428.5" y="-172.5" font-family="Helvetica,sans-Serif" font-size="10.00">ndt::NoMoveAble</text>
<polyline fill="none" stroke="black" points="382.5,-165.5 474.5,-165.5 "/>
<text text-anchor="middle" x="428.5" y="-153.5" font-family="Helvetica,sans-Serif" font-size="10.00"> </text>
<polyline fill="none" stroke="black" points="382.5,-146.5 474.5,-146.5 "/>
<text text-anchor="start" x="390.5" y="-134.5" font-family="Helvetica,sans-Serif" font-size="10.00">+ NoMoveAble()</text>
<text text-anchor="start" x="390.5" y="-123.5" font-family="Helvetica,sans-Serif" font-size="10.00">+ ~NoMoveAble()</text>
<text text-anchor="start" x="390.5" y="-112.5" font-family="Helvetica,sans-Serif" font-size="10.00">+ NoMoveAble()</text>
<text text-anchor="start" x="390.5" y="-101.5" font-family="Helvetica,sans-Serif" font-size="10.00">+ operator=()</text>
</a>
</g>
</g>
<!-- Node5&#45;&gt;Node1 -->
<g id="edge4" class="edge"><title>Node5&#45;&gt;Node1</title>
<path fill="none" stroke="midnightblue" d="M374.052,-94.3772C373.868,-94.251 373.684,-94.1253 373.5,-94 354.491,-81.0569 332.691,-68.2676 313.341,-57.5644"/>
<polygon fill="none" stroke="midnightblue" points="372.224,-97.3716 382.402,-100.313 376.28,-91.6661 372.224,-97.3716"/>
</g>
</g>
</svg>
