<?xml version="1.0" encoding="UTF-8" standalone="no"?>
<!DOCTYPE svg PUBLIC "-//W3C//DTD SVG 1.1//EN"
 "http://www.w3.org/Graphics/SVG/1.1/DTD/svg11.dtd">
<!-- Generated by graphviz version 2.38.0 (20140413.2041)
 -->
<!-- Title: ndt::NoCopyAble Pages: 1 -->
<!--zoomable 815 -->
<svg id="main" version="1.1" xmlns="http://www.w3.org/2000/svg" xmlns:xlink="http://www.w3.org/1999/xlink" xml:space="preserve" onload="init(evt)">
<style type="text/css"><![CDATA[
.edge:hover path { stroke: red; }
.edge:hover polygon { stroke: red; fill: red; }
]]></style>
<script type="text/javascript"><![CDATA[
var edges = document.getElementsByTagName('g');
if (edges && edges.length) {
  for (var i=0;i<edges.length;i++) {
    if (edges[i].id.substr(0,4)=='edge') {
      edges[i].setAttribute('class','edge');
    }
  }
}
]]></script>
        <defs>
                <circle id="rim" cx="0" cy="0" r="7"/>
                <circle id="rim2" cx="0" cy="0" r="3.5"/>
                <g id="zoomPlus">
                        <use xlink:href="#rim" fill="#404040">
                                <set attributeName="fill" to="#808080" begin="zoomplus.mouseover" end="zoomplus.mouseout"/>
                        </use>
                        <path d="M-4,0h8M0,-4v8" fill="none" stroke="white" stroke-width="1.5" pointer-events="none"/>
                </g>
                <g id="zoomMin">
                        <use xlink:href="#rim" fill="#404040">
                                <set attributeName="fill" to="#808080" begin="zoomminus.mouseover" end="zoomminus.mouseout"/>
                        </use>
                        <path d="M-4,0h8" fill="none" stroke="white" stroke-width="1.5" pointer-events="none"/>
                </g>
                <g id="dirArrow">
                        <path fill="none" stroke="white" stroke-width="1.5" d="M0,-3.0v7 M-2.5,-0.5L0,-3.0L2.5,-0.5"/>
                </g>
               <g id="resetDef">
                       <use xlink:href="#rim2" fill="#404040">
                               <set attributeName="fill" to="#808080" begin="reset.mouseover" end="reset.mouseout"/>
                       </use>
               </g>
        </defs>

<script type="text/javascript">
var viewWidth = 881;
var viewHeight = 815;
var sectionId = 'dynsection-0';
</script>
<script xlink:href="svgpan.js"/>
<svg id="graph" class="graph">
<g id="viewport">
<title>ndt::NoCopyAble</title>
<polygon fill="white" stroke="none" points="-4,4 -4,-811 876.5,-811 876.5,4 -4,4"/>
<!-- Node1 -->
<g id="node1" class="node"><title>Node1</title>
<g id="a_node1"><a xlink:title=" ">
<polygon fill="#bfbfbf" stroke="black" points="290,-716.5 290,-806.5 382,-806.5 382,-716.5 290,-716.5"/>
<text text-anchor="middle" x="336" y="-794.5" font-family="Helvetica,sans-Serif" font-size="10.00">ndt::NoCopyAble</text>
<polyline fill="none" stroke="black" points="290,-787.5 382,-787.5 "/>
<text text-anchor="middle" x="336" y="-775.5" font-family="Helvetica,sans-Serif" font-size="10.00"> </text>
<polyline fill="none" stroke="black" points="290,-768.5 382,-768.5 "/>
<text text-anchor="start" x="298" y="-756.5" font-family="Helvetica,sans-Serif" font-size="10.00">+ NoCopyAble()</text>
<text text-anchor="start" x="298" y="-745.5" font-family="Helvetica,sans-Serif" font-size="10.00">+ ~NoCopyAble()</text>
<text text-anchor="start" x="298" y="-734.5" font-family="Helvetica,sans-Serif" font-size="10.00">+ NoCopyAble()</text>
<text text-anchor="start" x="298" y="-723.5" font-family="Helvetica,sans-Serif" font-size="10.00">+ operator=()</text>
</a>
</g>
</g>
<!-- Node2 -->
<g id="node2" class="node"><title>Node2</title>
<g id="a_node2"><a xlink:href="classndt_1_1_context_base.html" target="_top" xlink:title=" ">
<polygon fill="white" stroke="black" points="0,-430 0,-564 170,-564 170,-430 0,-430"/>
<text text-anchor="middle" x="85" y="-552" font-family="Helvetica,sans-Serif" font-size="10.00">ndt::ContextBase&lt; SysWrapperT &gt;</text>
<polyline fill="none" stroke="black" points="0,-545 170,-545 "/>
<text text-anchor="start" x="8" y="-533" font-family="Helvetica,sans-Serif" font-size="10.00">&#45; instanceCount_</text>
<polyline fill="none" stroke="black" points="0,-526 170,-526 "/>
<text text-anchor="start" x="8" y="-514" font-family="Helvetica,sans-Serif" font-size="10.00">+ ~ContextBase()</text>
<text text-anchor="start" x="8" y="-503" font-family="Helvetica,sans-Serif" font-size="10.00">+ ContextBase()</text>
<text text-anchor="start" x="8" y="-492" font-family="Helvetica,sans-Serif" font-size="10.00">+ ~ContextBase()</text>
<text text-anchor="start" x="8" y="-481" font-family="Helvetica,sans-Serif" font-size="10.00">+ ContextBase()</text>
<text text-anchor="start" x="8" y="-470" font-family="Helvetica,sans-Serif" font-size="10.00">+ instanceCount()</text>
<text text-anchor="start" x="8" y="-459" font-family="Helvetica,sans-Serif" font-size="10.00">+ instanceCount()</text>
<text text-anchor="start" x="8" y="-448" font-family="Helvetica,sans-Serif" font-size="10.00">&#45; startUp()</text>
<text text-anchor="start" x="8" y="-437" font-family="Helvetica,sans-Serif" font-size="10.00">&#45; cleanUp()</text>
</a>
</g>
</g>
<!-- Node1&#45;&gt;Node2 -->
<g id="edge1" class="edge"><title>Node1&#45;&gt;Node2</title>
<path fill="none" stroke="#8b1a1a" d="M280.261,-744.757C244.958,-731.747 200.534,-710.444 170,-680 137.513,-647.609 113.898,-601.648 99.6146,-564.018"/>
<polygon fill="none" stroke="#8b1a1a" points="279.363,-748.152 289.958,-748.207 281.71,-741.557 279.363,-748.152"/>
</g>
<!-- Node1&#45;&gt;Node2 -->
<g id="edge3" class="edge"><title>Node1&#45;&gt;Node2</title>
<path fill="none" stroke="#8b1a1a" d="M280.271,-738.459C250.161,-725.267 214.032,-705.955 188,-680 155.513,-647.609 131.898,-601.648 115.311,-564.018"/>
<polygon fill="none" stroke="#8b1a1a" points="279.244,-741.826 289.815,-742.528 281.989,-735.387 279.244,-741.826"/>
</g>
<!-- Node4 -->
<g id="node4" class="node"><title>Node4</title>
<g id="a_node4"><a xlink:href="classndt_1_1_file.html" target="_top" xlink:title=" ">
<polygon fill="white" stroke="black" points="188.5,-314.5 188.5,-679.5 317.5,-679.5 317.5,-314.5 188.5,-314.5"/>
<text text-anchor="start" x="196.5" y="-667.5" font-family="Helvetica,sans-Serif" font-size="10.00">ndt::File&lt; DestructorError</text>
<text text-anchor="middle" x="253" y="-656.5" font-family="Helvetica,sans-Serif" font-size="10.00">HandlerT, SysWrapperT &gt;</text>
<polyline fill="none" stroke="black" points="188.5,-649.5 317.5,-649.5 "/>
<text text-anchor="start" x="196.5" y="-637.5" font-family="Helvetica,sans-Serif" font-size="10.00">&#45; fd_</text>
<text text-anchor="start" x="196.5" y="-626.5" font-family="Helvetica,sans-Serif" font-size="10.00">&#45; destructorErrorHandler_</text>
<polyline fill="none" stroke="black" points="188.5,-619.5 317.5,-619.5 "/>
<text text-anchor="start" x="196.5" y="-607.5" font-family="Helvetica,sans-Serif" font-size="10.00">+ ~File()</text>
<text text-anchor="start" x="196.5" y="-596.5" font-family="Helvetica,sans-Serif" font-size="10.00">+ File()</text>
<text text-anchor="start" x="196.5" y="-585.5" font-family="Helvetica,sans-Serif" font-size="10.00">+ File()</text>
<text text-anchor="start" x="196.5" y="-574.5" font-family="Helvetica,sans-Serif" font-size="10.00">+ operator=()</text>
<text text-anchor="start" x="196.5" y="-563.5" font-family="Helvetica,sans-Serif" font-size="10.00">+ open()</text>
<text text-anchor="start" x="196.5" y="-552.5" font-family="Helvetica,sans-Serif" font-size="10.00">+ write()</text>
<text text-anchor="start" x="196.5" y="-541.5" font-family="Helvetica,sans-Serif" font-size="10.00">+ read()</text>
<text text-anchor="start" x="196.5" y="-530.5" font-family="Helvetica,sans-Serif" font-size="10.00">+ read()</text>
<text text-anchor="start" x="196.5" y="-519.5" font-family="Helvetica,sans-Serif" font-size="10.00">+ rewind()</text>
<text text-anchor="start" x="196.5" y="-508.5" font-family="Helvetica,sans-Serif" font-size="10.00">+ open()</text>
<text text-anchor="start" x="196.5" y="-497.5" font-family="Helvetica,sans-Serif" font-size="10.00">+ open()</text>
<text text-anchor="start" x="196.5" y="-486.5" font-family="Helvetica,sans-Serif" font-size="10.00">+ open()</text>
<text text-anchor="start" x="196.5" y="-475.5" font-family="Helvetica,sans-Serif" font-size="10.00">+ open()</text>
<text text-anchor="start" x="196.5" y="-464.5" font-family="Helvetica,sans-Serif" font-size="10.00">+ open()</text>
<text text-anchor="start" x="196.5" y="-453.5" font-family="Helvetica,sans-Serif" font-size="10.00">+ open()</text>
<text text-anchor="start" x="196.5" y="-442.5" font-family="Helvetica,sans-Serif" font-size="10.00">+ open()</text>
<text text-anchor="start" x="196.5" y="-431.5" font-family="Helvetica,sans-Serif" font-size="10.00">+ open()</text>
<text text-anchor="start" x="196.5" y="-420.5" font-family="Helvetica,sans-Serif" font-size="10.00">+ open()</text>
<text text-anchor="start" x="196.5" y="-409.5" font-family="Helvetica,sans-Serif" font-size="10.00">+ open()</text>
<text text-anchor="start" x="196.5" y="-398.5" font-family="Helvetica,sans-Serif" font-size="10.00">+ open()</text>
<text text-anchor="start" x="196.5" y="-387.5" font-family="Helvetica,sans-Serif" font-size="10.00">+ open()</text>
<text text-anchor="start" x="196.5" y="-376.5" font-family="Helvetica,sans-Serif" font-size="10.00">+ open()</text>
<text text-anchor="start" x="196.5" y="-365.5" font-family="Helvetica,sans-Serif" font-size="10.00">+ close()</text>
<text text-anchor="start" x="196.5" y="-354.5" font-family="Helvetica,sans-Serif" font-size="10.00">+ flush()</text>
<text text-anchor="start" x="196.5" y="-343.5" font-family="Helvetica,sans-Serif" font-size="10.00">+ remove()</text>
<text text-anchor="start" x="196.5" y="-332.5" font-family="Helvetica,sans-Serif" font-size="10.00">+ size()</text>
<text text-anchor="start" x="196.5" y="-321.5" font-family="Helvetica,sans-Serif" font-size="10.00">&#45; read()</text>
</a>
</g>
</g>
<!-- Node1&#45;&gt;Node4 -->
<g id="edge4" class="edge"><title>Node1&#45;&gt;Node4</title>
<path fill="none" stroke="midnightblue" d="M318.985,-706.686C316.318,-698.252 313.441,-689.154 310.433,-679.639"/>
<polygon fill="none" stroke="midnightblue" points="315.662,-707.788 322.014,-716.267 322.336,-705.677 315.662,-707.788"/>
</g>
<!-- Node5 -->
<g id="node5" class="node"><title>Node5</title>
<g id="a_node5"><a xlink:href="structndt_1_1_no_constructible_no_destructible.html" target="_top" xlink:title=" ">
<polygon fill="white" stroke="black" points="335.5,-468.5 335.5,-525.5 504.5,-525.5 504.5,-468.5 335.5,-468.5"/>
<text text-anchor="middle" x="420" y="-513.5" font-family="Helvetica,sans-Serif" font-size="10.00">ndt::NoConstructibleNoDestructible</text>
<polyline fill="none" stroke="black" points="335.5,-506.5 504.5,-506.5 "/>
<text text-anchor="middle" x="420" y="-494.5" font-family="Helvetica,sans-Serif" font-size="10.00"> </text>
<polyline fill="none" stroke="black" points="335.5,-487.5 504.5,-487.5 "/>
<text text-anchor="middle" x="420" y="-475.5" font-family="Helvetica,sans-Serif" font-size="10.00"> </text>
</a>
</g>
</g>
<!-- Node1&#45;&gt;Node5 -->
<g id="edge5" class="edge"><title>Node1&#45;&gt;Node5</title>
<path fill="none" stroke="midnightblue" d="M353.217,-706.697C370.786,-651.795 397.362,-568.744 411.091,-525.842"/>
<polygon fill="none" stroke="midnightblue" points="349.869,-705.676 350.154,-716.267 356.536,-707.81 349.869,-705.676"/>
</g>
<!-- Node8 -->
<g id="node8" class="node"><title>Node8</title>
<g id="a_node8"><a xlink:href="structndt_1_1_no_copy_move_def_constructible.html" target="_top" xlink:title=" ">
<polygon fill="white" stroke="black" points="523,-468.5 523,-525.5 687,-525.5 687,-468.5 523,-468.5"/>
<text text-anchor="middle" x="605" y="-513.5" font-family="Helvetica,sans-Serif" font-size="10.00">ndt::NoCopyMoveDefConstructible</text>
<polyline fill="none" stroke="black" points="523,-506.5 687,-506.5 "/>
<text text-anchor="middle" x="605" y="-494.5" font-family="Helvetica,sans-Serif" font-size="10.00"> </text>
<polyline fill="none" stroke="black" points="523,-487.5 687,-487.5 "/>
<text text-anchor="middle" x="605" y="-475.5" font-family="Helvetica,sans-Serif" font-size="10.00"> </text>
</a>
</g>
</g>
<!-- Node1&#45;&gt;Node8 -->
<g id="edge8" class="edge"><title>Node1&#45;&gt;Node8</title>
<path fill="none" stroke="midnightblue" d="M392.222,-745.681C430.145,-733.314 479.238,-712.399 513,-680 558.726,-636.12 585.486,-564.622 597.448,-525.582"/>
<polygon fill="none" stroke="midnightblue" points="390.827,-742.451 382.341,-748.794 392.931,-749.127 390.827,-742.451"/>
</g>
<!-- Node9 -->
<g id="node9" class="node"><title>Node9</title>
<g id="a_node9"><a xlink:href="classndt_1_1_socket_base.html" target="_top" xlink:title=" ">
<polygon fill="white" stroke="black" points="705.5,-336.5 705.5,-657.5 872.5,-657.5 872.5,-336.5 705.5,-336.5"/>
<text text-anchor="middle" x="789" y="-645.5" font-family="Helvetica,sans-Serif" font-size="10.00">ndt::SocketBase&lt; SysWrapperT &gt;</text>
<polyline fill="none" stroke="black" points="705.5,-638.5 872.5,-638.5 "/>
<text text-anchor="start" x="713.5" y="-626.5" font-family="Helvetica,sans-Serif" font-size="10.00"># socketHandle_</text>
<text text-anchor="start" x="713.5" y="-615.5" font-family="Helvetica,sans-Serif" font-size="10.00"># isOpen_</text>
<text text-anchor="start" x="713.5" y="-604.5" font-family="Helvetica,sans-Serif" font-size="10.00"># isNonBlocking_</text>
<text text-anchor="start" x="713.5" y="-593.5" font-family="Helvetica,sans-Serif" font-size="10.00"># context_</text>
<text text-anchor="start" x="713.5" y="-582.5" font-family="Helvetica,sans-Serif" font-size="10.00"># handler_</text>
<polyline fill="none" stroke="black" points="705.5,-575.5 872.5,-575.5 "/>
<text text-anchor="start" x="713.5" y="-563.5" font-family="Helvetica,sans-Serif" font-size="10.00">+ nativeHandle()</text>
<text text-anchor="start" x="713.5" y="-552.5" font-family="Helvetica,sans-Serif" font-size="10.00">+ nonBlocking()</text>
<text text-anchor="start" x="713.5" y="-541.5" font-family="Helvetica,sans-Serif" font-size="10.00">+ isOpen()</text>
<text text-anchor="start" x="713.5" y="-530.5" font-family="Helvetica,sans-Serif" font-size="10.00">+ handler()</text>
<text text-anchor="start" x="713.5" y="-519.5" font-family="Helvetica,sans-Serif" font-size="10.00">+ handler()</text>
<text text-anchor="start" x="713.5" y="-508.5" font-family="Helvetica,sans-Serif" font-size="10.00">+ sendTo()</text>
<text text-anchor="start" x="713.5" y="-497.5" font-family="Helvetica,sans-Serif" font-size="10.00">+ sendTo()</text>
<text text-anchor="start" x="713.5" y="-486.5" font-family="Helvetica,sans-Serif" font-size="10.00">+ recvFrom()</text>
<text text-anchor="start" x="713.5" y="-475.5" font-family="Helvetica,sans-Serif" font-size="10.00">+ recvFrom()</text>
<text text-anchor="start" x="713.5" y="-464.5" font-family="Helvetica,sans-Serif" font-size="10.00">+ close()</text>
<text text-anchor="start" x="713.5" y="-453.5" font-family="Helvetica,sans-Serif" font-size="10.00">+ close()</text>
<text text-anchor="start" x="713.5" y="-442.5" font-family="Helvetica,sans-Serif" font-size="10.00">+ nonBlocking()</text>
<text text-anchor="start" x="713.5" y="-431.5" font-family="Helvetica,sans-Serif" font-size="10.00">+ nonBlocking()</text>
<text text-anchor="start" x="713.5" y="-420.5" font-family="Helvetica,sans-Serif" font-size="10.00"># ~SocketBase()</text>
<text text-anchor="start" x="713.5" y="-409.5" font-family="Helvetica,sans-Serif" font-size="10.00"># SocketBase()</text>
<text text-anchor="start" x="713.5" y="-398.5" font-family="Helvetica,sans-Serif" font-size="10.00"># SocketBase()</text>
<text text-anchor="start" x="713.5" y="-387.5" font-family="Helvetica,sans-Serif" font-size="10.00"># SocketBase()</text>
<text text-anchor="start" x="713.5" y="-376.5" font-family="Helvetica,sans-Serif" font-size="10.00"># operator=()</text>
<text text-anchor="start" x="713.5" y="-365.5" font-family="Helvetica,sans-Serif" font-size="10.00"># setIsSubscribed()</text>
<text text-anchor="start" x="713.5" y="-354.5" font-family="Helvetica,sans-Serif" font-size="10.00"># open()</text>
<text text-anchor="start" x="713.5" y="-343.5" font-family="Helvetica,sans-Serif" font-size="10.00"># bind()</text>
</a>
</g>
</g>
<!-- Node1&#45;&gt;Node9 -->
<g id="edge9" class="edge"><title>Node1&#45;&gt;Node9</title>
<path fill="none" stroke="#8b1a1a" d="M392.317,-753.808C481.282,-742.28 649.068,-716.364 696,-680 704.415,-673.48 712.134,-665.989 719.206,-657.844"/>
<polygon fill="none" stroke="#8b1a1a" points="391.609,-750.37 382.133,-755.109 392.496,-757.313 391.609,-750.37"/>
</g>
<!-- Node3 -->
<g id="node3" class="node"><title>Node3</title>
<g id="a_node3"><a xlink:href="classndt_1_1_context.html" target="_top" xlink:title=" ">
<polygon fill="white" stroke="black" points="11.5,-83 11.5,-195 158.5,-195 158.5,-83 11.5,-83"/>
<text text-anchor="middle" x="85" y="-183" font-family="Helvetica,sans-Serif" font-size="10.00">ndt::Context&lt; SysWrapperT &gt;</text>
<polyline fill="none" stroke="black" points="11.5,-176 158.5,-176 "/>
<text text-anchor="start" x="19.5" y="-164" font-family="Helvetica,sans-Serif" font-size="10.00">&#45; isRunning_</text>
<text text-anchor="start" x="19.5" y="-153" font-family="Helvetica,sans-Serif" font-size="10.00">&#45; executor_</text>
<polyline fill="none" stroke="black" points="11.5,-146 158.5,-146 "/>
<text text-anchor="start" x="19.5" y="-134" font-family="Helvetica,sans-Serif" font-size="10.00">+ ~Context()</text>
<text text-anchor="start" x="19.5" y="-123" font-family="Helvetica,sans-Serif" font-size="10.00">+ Context()</text>
<text text-anchor="start" x="19.5" y="-112" font-family="Helvetica,sans-Serif" font-size="10.00">+ run()</text>
<text text-anchor="start" x="19.5" y="-101" font-family="Helvetica,sans-Serif" font-size="10.00">+ stop()</text>
<text text-anchor="start" x="19.5" y="-90" font-family="Helvetica,sans-Serif" font-size="10.00">+ executor()</text>
</a>
</g>
</g>
<!-- Node2&#45;&gt;Node3 -->
<g id="edge2" class="edge"><title>Node2&#45;&gt;Node3</title>
<path fill="none" stroke="midnightblue" d="M85,-419.727C85,-352.278 85,-255.494 85,-195.259"/>
<polygon fill="none" stroke="midnightblue" points="81.5001,-419.873 85,-429.873 88.5001,-419.873 81.5001,-419.873"/>
</g>
<!-- Node6 -->
<g id="node6" class="node"><title>Node6</title>
<g id="a_node6"><a xlink:href="classndt_1_1_file_ops.html" target="_top" xlink:title=" ">
<polygon fill="white" stroke="black" points="337,-110.5 337,-167.5 407,-167.5 407,-110.5 337,-110.5"/>
<text text-anchor="middle" x="372" y="-155.5" font-family="Helvetica,sans-Serif" font-size="10.00">ndt::FileOps</text>
<polyline fill="none" stroke="black" points="337,-148.5 407,-148.5 "/>
<text text-anchor="middle" x="372" y="-136.5" font-family="Helvetica,sans-Serif" font-size="10.00"> </text>
<polyline fill="none" stroke="black" points="337,-129.5 407,-129.5 "/>
<text text-anchor="middle" x="372" y="-117.5" font-family="Helvetica,sans-Serif" font-size="10.00"> </text>
</a>
</g>
</g>
<!-- Node5&#45;&gt;Node6 -->
<g id="edge6" class="edge"><title>Node5&#45;&gt;Node6</title>
<path fill="none" stroke="midnightblue" d="M414.929,-458.387C405.242,-386.543 384.311,-231.305 375.757,-167.866"/>
<polygon fill="none" stroke="midnightblue" points="411.469,-458.919 416.273,-468.362 418.406,-457.983 411.469,-458.919"/>
</g>
<!-- Node7 -->
<g id="node7" class="node"><title>Node7</title>
<g id="a_node7"><a xlink:href="classndt_1_1_socket_ops.html" target="_top" xlink:title=" ">
<polygon fill="white" stroke="black" points="425.5,-110.5 425.5,-167.5 510.5,-167.5 510.5,-110.5 425.5,-110.5"/>
<text text-anchor="middle" x="468" y="-155.5" font-family="Helvetica,sans-Serif" font-size="10.00">ndt::SocketOps</text>
<polyline fill="none" stroke="black" points="425.5,-148.5 510.5,-148.5 "/>
<text text-anchor="middle" x="468" y="-136.5" font-family="Helvetica,sans-Serif" font-size="10.00"> </text>
<polyline fill="none" stroke="black" points="425.5,-129.5 510.5,-129.5 "/>
<text text-anchor="middle" x="468" y="-117.5" font-family="Helvetica,sans-Serif" font-size="10.00"> </text>
</a>
</g>
</g>
<!-- Node5&#45;&gt;Node7 -->
<g id="edge7" class="edge"><title>Node5&#45;&gt;Node7</title>
<path fill="none" stroke="midnightblue" d="M425.071,-458.387C434.758,-386.543 455.689,-231.305 464.243,-167.866"/>
<polygon fill="none" stroke="midnightblue" points="421.594,-457.983 423.727,-468.362 428.531,-458.919 421.594,-457.983"/>
</g>
<!-- Node10 -->
<g id="node10" class="node"><title>Node10</title>
<g id="a_node10"><a xlink:href="classndt_1_1_socket.html" target="_top" xlink:title=" ">
<polygon fill="white" stroke="black" points="735,-0.5 735,-277.5 843,-277.5 843,-0.5 735,-0.5"/>
<text text-anchor="start" x="743" y="-265.5" font-family="Helvetica,sans-Serif" font-size="10.00">ndt::Socket&lt; FlagsT,</text>
<text text-anchor="middle" x="789" y="-254.5" font-family="Helvetica,sans-Serif" font-size="10.00"> SysWrapperT &gt;</text>
<polyline fill="none" stroke="black" points="735,-247.5 843,-247.5 "/>
<text text-anchor="start" x="743" y="-235.5" font-family="Helvetica,sans-Serif" font-size="10.00">&#45; flags_</text>
<polyline fill="none" stroke="black" points="735,-228.5 843,-228.5 "/>
<text text-anchor="start" x="743" y="-216.5" font-family="Helvetica,sans-Serif" font-size="10.00">+ ~Socket()</text>
<text text-anchor="start" x="743" y="-205.5" font-family="Helvetica,sans-Serif" font-size="10.00">+ Socket()</text>
<text text-anchor="start" x="743" y="-194.5" font-family="Helvetica,sans-Serif" font-size="10.00">+ Socket()</text>
<text text-anchor="start" x="743" y="-183.5" font-family="Helvetica,sans-Serif" font-size="10.00">+ operator=()</text>
<text text-anchor="start" x="743" y="-172.5" font-family="Helvetica,sans-Serif" font-size="10.00">+ Socket()</text>
<text text-anchor="start" x="743" y="-161.5" font-family="Helvetica,sans-Serif" font-size="10.00">+ Socket()</text>
<text text-anchor="start" x="743" y="-150.5" font-family="Helvetica,sans-Serif" font-size="10.00">+ open()</text>
<text text-anchor="start" x="743" y="-139.5" font-family="Helvetica,sans-Serif" font-size="10.00">+ open()</text>
<text text-anchor="start" x="743" y="-128.5" font-family="Helvetica,sans-Serif" font-size="10.00">+ bind()</text>
<text text-anchor="start" x="743" y="-117.5" font-family="Helvetica,sans-Serif" font-size="10.00">+ bind()</text>
<text text-anchor="start" x="743" y="-106.5" font-family="Helvetica,sans-Serif" font-size="10.00">+ sendTo()</text>
<text text-anchor="start" x="743" y="-95.5" font-family="Helvetica,sans-Serif" font-size="10.00">+ sendTo()</text>
<text text-anchor="start" x="743" y="-84.5" font-family="Helvetica,sans-Serif" font-size="10.00">+ recvFrom()</text>
<text text-anchor="start" x="743" y="-73.5" font-family="Helvetica,sans-Serif" font-size="10.00">+ recvFrom()</text>
<text text-anchor="start" x="743" y="-62.5" font-family="Helvetica,sans-Serif" font-size="10.00">+ close()</text>
<text text-anchor="start" x="743" y="-51.5" font-family="Helvetica,sans-Serif" font-size="10.00">+ close()</text>
<text text-anchor="start" x="743" y="-40.5" font-family="Helvetica,sans-Serif" font-size="10.00">+ nonBlocking()</text>
<text text-anchor="start" x="743" y="-29.5" font-family="Helvetica,sans-Serif" font-size="10.00">+ nonBlocking()</text>
<text text-anchor="start" x="743" y="-18.5" font-family="Helvetica,sans-Serif" font-size="10.00">+ nonBlocking()</text>
<text text-anchor="start" x="743" y="-7.5" font-family="Helvetica,sans-Serif" font-size="10.00">+ flags()</text>
</a>
</g>
</g>
<!-- Node9&#45;&gt;Node10 -->
<g id="edge10" class="edge"><title>Node9&#45;&gt;Node10</title>
<path fill="none" stroke="midnightblue" d="M789,-326.35C789,-310.05 789,-293.655 789,-277.716"/>
<polygon fill="none" stroke="midnightblue" points="785.5,-326.483 789,-336.483 792.5,-326.483 785.5,-326.483"/>
</g>
</g>
</svg>
        <g id="navigator" transform="translate(0 0)" fill="#404254">
                <rect fill="#f2f5e9" fill-opacity="0.5" stroke="#606060" stroke-width=".5" x="0" y="0" width="60" height="60"/>
                <use id="zoomplus" xlink:href="#zoomPlus" x="17" y="9" onmousedown="handleZoom(evt,'in')"/>
                <use id="zoomminus" xlink:href="#zoomMin" x="42" y="9" onmousedown="handleZoom(evt,'out')"/>
                <use id="reset" xlink:href="#resetDef" x="30" y="36" onmousedown="handleReset()"/>
                <g id="arrowUp" xlink:href="#dirArrow" transform="translate(30 24)" onmousedown="handlePan(0,-1)">
                  <use xlink:href="#rim" fill="#404040">
                        <set attributeName="fill" to="#808080" begin="arrowUp.mouseover" end="arrowUp.mouseout"/>
                  </use>
                  <path fill="none" stroke="white" stroke-width="1.5" d="M0,-3.0v7 M-2.5,-0.5L0,-3.0L2.5,-0.5"/>
                </g>
                <g id="arrowRight" xlink:href="#dirArrow" transform="rotate(90) translate(36 -43)" onmousedown="handlePan(1,0)">
                  <use xlink:href="#rim" fill="#404040">
                        <set attributeName="fill" to="#808080" begin="arrowRight.mouseover" end="arrowRight.mouseout"/>
                  </use>
                  <path fill="none" stroke="white" stroke-width="1.5" d="M0,-3.0v7 M-2.5,-0.5L0,-3.0L2.5,-0.5"/>
                </g>
                <g id="arrowDown" xlink:href="#dirArrow" transform="rotate(180) translate(-30 -48)" onmousedown="handlePan(0,1)">
                  <use xlink:href="#rim" fill="#404040">
                        <set attributeName="fill" to="#808080" begin="arrowDown.mouseover" end="arrowDown.mouseout"/>
                  </use>
                  <path fill="none" stroke="white" stroke-width="1.5" d="M0,-3.0v7 M-2.5,-0.5L0,-3.0L2.5,-0.5"/>
                </g>
                <g id="arrowLeft" xlink:href="#dirArrow" transform="rotate(270) translate(-36 17)" onmousedown="handlePan(-1,0)">
                  <use xlink:href="#rim" fill="#404040">
                        <set attributeName="fill" to="#808080" begin="arrowLeft.mouseover" end="arrowLeft.mouseout"/>
                  </use>
                  <path fill="none" stroke="white" stroke-width="1.5" d="M0,-3.0v7 M-2.5,-0.5L0,-3.0L2.5,-0.5"/>
                </g>
        </g>
        <svg viewBox="0 0 15 15" width="100%" height="30px" preserveAspectRatio="xMaxYMin meet">
         <g id="arrow_out" transform="scale(0.3 0.3)">
          <a xlink:href="structndt_1_1_no_copy_able__inherit__graph_org.svg" target="_base">
           <rect id="button" ry="5" rx="5" y="6" x="6" height="38" width="38"
                fill="#f2f5e9" fill-opacity="0.5" stroke="#606060" stroke-width="1.0"/>
           <path id="arrow"
             d="M 11.500037,31.436501 C 11.940474,20.09759 22.043105,11.32322 32.158766,21.979434 L 37.068811,17.246167 C 37.068811,17.246167 37.088388,32 37.088388,32 L 22.160133,31.978069 C 22.160133,31.978069 26.997745,27.140456 26.997745,27.140456 C 18.528582,18.264221 13.291696,25.230495 11.500037,31.436501 z"
             style="fill:#404040;"/>
          </a>
         </g>
        </svg>
</svg>
