<?xml version="1.0" encoding="UTF-8" standalone="no"?>
<!DOCTYPE svg PUBLIC "-//W3C//DTD SVG 1.1//EN"
 "http://www.w3.org/Graphics/SVG/1.1/DTD/svg11.dtd">
<!-- Generated by graphviz version 2.38.0 (20140413.2041)
 -->
<!-- Title: ndt::NoConstructibleNoDestructible Pages: 1 -->
<svg width="483pt" height="287pt"
 viewBox="0.00 0.00 482.50 287.00" xmlns="http://www.w3.org/2000/svg" xmlns:xlink="http://www.w3.org/1999/xlink">
<g id="graph0" class="graph" transform="scale(1 1) rotate(0) translate(4 283)">
<title>ndt::NoConstructibleNoDestructible</title>
<polygon fill="white" stroke="none" points="-4,4 -4,-283 478.5,-283 478.5,4 -4,4"/>
<!-- Node1 -->
<g id="node1" class="node"><title>Node1</title>
<g id="a_node1"><a xlink:title=" ">
<polygon fill="#bfbfbf" stroke="black" points="176,-94.5 176,-151.5 345,-151.5 345,-94.5 176,-94.5"/>
<text text-anchor="middle" x="260.5" y="-139.5" font-family="Helvetica,sans-Serif" font-size="10.00">ndt::NoConstructibleNoDestructible</text>
<polyline fill="none" stroke="black" points="176,-132.5 345,-132.5 "/>
<text text-anchor="middle" x="260.5" y="-120.5" font-family="Helvetica,sans-Serif" font-size="10.00"> </text>
<polyline fill="none" stroke="black" points="176,-113.5 345,-113.5 "/>
<text text-anchor="middle" x="260.5" y="-101.5" font-family="Helvetica,sans-Serif" font-size="10.00"> </text>
</a>
</g>
</g>
<!-- Node6 -->
<g id="node6" class="node"><title>Node6</title>
<g id="a_node6"><a xlink:href="classndt_1_1_file_ops.html" target="_top" xlink:title=" ">
<polygon fill="white" stroke="black" points="177.5,-0.5 177.5,-57.5 247.5,-57.5 247.5,-0.5 177.5,-0.5"/>
<text text-anchor="middle" x="212.5" y="-45.5" font-family="Helvetica,sans-Serif" font-size="10.00">ndt::FileOps</text>
<polyline fill="none" stroke="black" points="177.5,-38.5 247.5,-38.5 "/>
<text text-anchor="middle" x="212.5" y="-26.5" font-family="Helvetica,sans-Serif" font-size="10.00"> </text>
<polyline fill="none" stroke="black" points="177.5,-19.5 247.5,-19.5 "/>
<text text-anchor="middle" x="212.5" y="-7.5" font-family="Helvetica,sans-Serif" font-size="10.00"> </text>
</a>
</g>
</g>
<!-- Node1&#45;&gt;Node6 -->
<g id="edge5" class="edge"><title>Node1&#45;&gt;Node6</title>
<path fill="none" stroke="midnightblue" d="M241.389,-85.3697C236.556,-76.107 231.447,-66.3151 226.891,-57.5836"/>
<polygon fill="none" stroke="midnightblue" points="238.37,-87.1501 246.098,-94.397 244.576,-83.9121 238.37,-87.1501"/>
</g>
<!-- Node7 -->
<g id="node7" class="node"><title>Node7</title>
<g id="a_node7"><a xlink:href="classndt_1_1_socket_ops.html" target="_top" xlink:title=" ">
<polygon fill="white" stroke="black" points="266,-0.5 266,-57.5 351,-57.5 351,-0.5 266,-0.5"/>
<text text-anchor="middle" x="308.5" y="-45.5" font-family="Helvetica,sans-Serif" font-size="10.00">ndt::SocketOps</text>
<polyline fill="none" stroke="black" points="266,-38.5 351,-38.5 "/>
<text text-anchor="middle" x="308.5" y="-26.5" font-family="Helvetica,sans-Serif" font-size="10.00"> </text>
<polyline fill="none" stroke="black" points="266,-19.5 351,-19.5 "/>
<text text-anchor="middle" x="308.5" y="-7.5" font-family="Helvetica,sans-Serif" font-size="10.00"> </text>
</a>
</g>
</g>
<!-- Node1&#45;&gt;Node7 -->
<g id="edge6" class="edge"><title>Node1&#45;&gt;Node7</title>
<path fill="none" stroke="midnightblue" d="M279.611,-85.3697C284.444,-76.107 289.553,-66.3151 294.109,-57.5836"/>
<polygon fill="none" stroke="midnightblue" points="276.424,-83.9121 274.902,-94.397 282.63,-87.1501 276.424,-83.9121"/>
</g>
<!-- Node2 -->
<g id="node2" class="node"><title>Node2</title>
<g id="a_node2"><a xlink:href="structndt_1_1_no_default_constructible.html" target="_top" xlink:title=" ">
<polygon fill="white" stroke="black" points="0,-205 0,-262 135,-262 135,-205 0,-205"/>
<text text-anchor="middle" x="67.5" y="-250" font-family="Helvetica,sans-Serif" font-size="10.00">ndt::NoDefaultConstructible</text>
<polyline fill="none" stroke="black" points="0,-243 135,-243 "/>
<text text-anchor="middle" x="67.5" y="-231" font-family="Helvetica,sans-Serif" font-size="10.00"> </text>
<polyline fill="none" stroke="black" points="0,-224 135,-224 "/>
<text text-anchor="start" x="8" y="-212" font-family="Helvetica,sans-Serif" font-size="10.00">+ NoDefaultConstructible()</text>
</a>
</g>
</g>
<!-- Node2&#45;&gt;Node1 -->
<g id="edge1" class="edge"><title>Node2&#45;&gt;Node1</title>
<path fill="none" stroke="midnightblue" d="M122.753,-199.895C129.72,-195.859 136.764,-191.813 143.5,-188 164.958,-175.852 188.811,-162.736 209.353,-151.558"/>
<polygon fill="none" stroke="midnightblue" points="120.885,-196.933 113.999,-204.985 124.403,-202.984 120.885,-196.933"/>
</g>
<!-- Node3 -->
<g id="node3" class="node"><title>Node3</title>
<g id="a_node3"><a xlink:href="structndt_1_1_no_destructible.html" target="_top" xlink:title=" ">
<polygon fill="white" stroke="black" points="153,-205 153,-262 254,-262 254,-205 153,-205"/>
<text text-anchor="middle" x="203.5" y="-250" font-family="Helvetica,sans-Serif" font-size="10.00">ndt::NoDestructible</text>
<polyline fill="none" stroke="black" points="153,-243 254,-243 "/>
<text text-anchor="middle" x="203.5" y="-231" font-family="Helvetica,sans-Serif" font-size="10.00"> </text>
<polyline fill="none" stroke="black" points="153,-224 254,-224 "/>
<text text-anchor="start" x="161" y="-212" font-family="Helvetica,sans-Serif" font-size="10.00">+ ~NoDestructible()</text>
</a>
</g>
</g>
<!-- Node3&#45;&gt;Node1 -->
<g id="edge2" class="edge"><title>Node3&#45;&gt;Node1</title>
<path fill="none" stroke="midnightblue" d="M222.845,-195.677C230.422,-181.254 238.965,-164.993 245.996,-151.609"/>
<polygon fill="none" stroke="midnightblue" points="219.583,-194.36 218.031,-204.84 225.78,-197.615 219.583,-194.36"/>
</g>
<!-- Node4 -->
<g id="node4" class="node"><title>Node4</title>
<g id="a_node4"><a xlink:href="structndt_1_1_no_copy_able.html" target="_top" xlink:title=" ">
<polygon fill="white" stroke="black" points="272.5,-188.5 272.5,-278.5 364.5,-278.5 364.5,-188.5 272.5,-188.5"/>
<text text-anchor="middle" x="318.5" y="-266.5" font-family="Helvetica,sans-Serif" font-size="10.00">ndt::NoCopyAble</text>
<polyline fill="none" stroke="black" points="272.5,-259.5 364.5,-259.5 "/>
<text text-anchor="middle" x="318.5" y="-247.5" font-family="Helvetica,sans-Serif" font-size="10.00"> </text>
<polyline fill="none" stroke="black" points="272.5,-240.5 364.5,-240.5 "/>
<text text-anchor="start" x="280.5" y="-228.5" font-family="Helvetica,sans-Serif" font-size="10.00">+ NoCopyAble()</text>
<text text-anchor="start" x="280.5" y="-217.5" font-family="Helvetica,sans-Serif" font-size="10.00">+ ~NoCopyAble()</text>
<text text-anchor="start" x="280.5" y="-206.5" font-family="Helvetica,sans-Serif" font-size="10.00">+ NoCopyAble()</text>
<text text-anchor="start" x="280.5" y="-195.5" font-family="Helvetica,sans-Serif" font-size="10.00">+ operator=()</text>
</a>
</g>
</g>
<!-- Node4&#45;&gt;Node1 -->
<g id="edge3" class="edge"><title>Node4&#45;&gt;Node1</title>
<path fill="none" stroke="midnightblue" d="M290.188,-179.538C285.018,-169.866 279.819,-160.14 275.248,-151.59"/>
<polygon fill="none" stroke="midnightblue" points="287.108,-181.2 294.909,-188.369 293.281,-177.9 287.108,-181.2"/>
</g>
<!-- Node5 -->
<g id="node5" class="node"><title>Node5</title>
<g id="a_node5"><a xlink:href="structndt_1_1_no_move_able.html" target="_top" xlink:title=" ">
<polygon fill="white" stroke="black" points="382.5,-188.5 382.5,-278.5 474.5,-278.5 474.5,-188.5 382.5,-188.5"/>
<text text-anchor="middle" x="428.5" y="-266.5" font-family="Helvetica,sans-Serif" font-size="10.00">ndt::NoMoveAble</text>
<polyline fill="none" stroke="black" points="382.5,-259.5 474.5,-259.5 "/>
<text text-anchor="middle" x="428.5" y="-247.5" font-family="Helvetica,sans-Serif" font-size="10.00"> </text>
<polyline fill="none" stroke="black" points="382.5,-240.5 474.5,-240.5 "/>
<text text-anchor="start" x="390.5" y="-228.5" font-family="Helvetica,sans-Serif" font-size="10.00">+ NoMoveAble()</text>
<text text-anchor="start" x="390.5" y="-217.5" font-family="Helvetica,sans-Serif" font-size="10.00">+ ~NoMoveAble()</text>
<text text-anchor="start" x="390.5" y="-206.5" font-family="Helvetica,sans-Serif" font-size="10.00">+ NoMoveAble()</text>
<text text-anchor="start" x="390.5" y="-195.5" font-family="Helvetica,sans-Serif" font-size="10.00">+ operator=()</text>
</a>
</g>
</g>
<!-- Node5&#45;&gt;Node1 -->
<g id="edge4" class="edge"><title>Node5&#45;&gt;Node1</title>
<path fill="none" stroke="midnightblue" d="M374.052,-188.377C373.868,-188.251 373.684,-188.125 373.5,-188 354.491,-175.057 332.691,-162.268 313.341,-151.564"/>
<polygon fill="none" stroke="midnightblue" points="372.224,-191.372 382.402,-194.313 376.28,-185.666 372.224,-191.372"/>
</g>
</g>
</svg>
