<?xml version="1.0" encoding="UTF-8" standalone="no"?>
<!DOCTYPE svg PUBLIC "-//W3C//DTD SVG 1.1//EN"
 "http://www.w3.org/Graphics/SVG/1.1/DTD/svg11.dtd">
<!-- Generated by graphviz version 2.38.0 (20140413.2041)
 -->
<!-- Title: ndt::NoCopyMoveDefConstructible Pages: 1 -->
<svg width="655pt" height="309pt"
 viewBox="0.00 0.00 655.00 309.00" xmlns="http://www.w3.org/2000/svg" xmlns:xlink="http://www.w3.org/1999/xlink">
<g id="graph0" class="graph" transform="scale(1 1) rotate(0) translate(4 305)">
<title>ndt::NoCopyMoveDefConstructible</title>
<polygon fill="white" stroke="none" points="-4,4 -4,-305 651,-305 651,4 -4,4"/>
<!-- Node1 -->
<g id="node1" class="node"><title>Node1</title>
<g id="a_node1"><a xlink:title=" ">
<polygon fill="#bfbfbf" stroke="black" points="241.5,-116.5 241.5,-173.5 405.5,-173.5 405.5,-116.5 241.5,-116.5"/>
<text text-anchor="middle" x="323.5" y="-161.5" font-family="Helvetica,sans-Serif" font-size="10.00">ndt::NoCopyMoveDefConstructible</text>
<polyline fill="none" stroke="black" points="241.5,-154.5 405.5,-154.5 "/>
<text text-anchor="middle" x="323.5" y="-142.5" font-family="Helvetica,sans-Serif" font-size="10.00"> </text>
<polyline fill="none" stroke="black" points="241.5,-135.5 405.5,-135.5 "/>
<text text-anchor="middle" x="323.5" y="-123.5" font-family="Helvetica,sans-Serif" font-size="10.00"> </text>
</a>
</g>
</g>
<!-- Node5 -->
<g id="node5" class="node"><title>Node5</title>
<g id="a_node5"><a xlink:href="classndt_1_1details_1_1_byte_order.html" target="_top" xlink:title=" ">
<polygon fill="white" stroke="black" points="0,-0.5 0,-79.5 115,-79.5 115,-0.5 0,-0.5"/>
<text text-anchor="start" x="8" y="-67.5" font-family="Helvetica,sans-Serif" font-size="10.00">ndt::details::ByteOrder</text>
<text text-anchor="middle" x="57.5" y="-56.5" font-family="Helvetica,sans-Serif" font-size="10.00">&lt; T, numBytes &gt;</text>
<polyline fill="none" stroke="black" points="0,-49.5 115,-49.5 "/>
<text text-anchor="middle" x="57.5" y="-37.5" font-family="Helvetica,sans-Serif" font-size="10.00"> </text>
<polyline fill="none" stroke="black" points="0,-30.5 115,-30.5 "/>
<text text-anchor="start" x="8" y="-18.5" font-family="Helvetica,sans-Serif" font-size="10.00">+ toHost()</text>
<text text-anchor="start" x="8" y="-7.5" font-family="Helvetica,sans-Serif" font-size="10.00">+ toNet()</text>
</a>
</g>
</g>
<!-- Node1&#45;&gt;Node5 -->
<g id="edge4" class="edge"><title>Node1&#45;&gt;Node5</title>
<path fill="none" stroke="#8b1a1a" d="M231.579,-119.303C197.048,-108.807 157.857,-95.4132 123.5,-80 120.707,-78.747 117.883,-77.4044 115.057,-75.9983"/>
<polygon fill="none" stroke="#8b1a1a" points="230.603,-122.664 241.187,-122.185 232.614,-115.959 230.603,-122.664"/>
</g>
<!-- Node6 -->
<g id="node6" class="node"><title>Node6</title>
<g id="a_node6"><a xlink:href="classndt_1_1details_1_1_byte_order_3_01uint16__t_00_012_01_4.html" target="_top" xlink:title=" ">
<polygon fill="white" stroke="black" points="133,-0.5 133,-79.5 248,-79.5 248,-0.5 133,-0.5"/>
<text text-anchor="start" x="141" y="-67.5" font-family="Helvetica,sans-Serif" font-size="10.00">ndt::details::ByteOrder</text>
<text text-anchor="middle" x="190.5" y="-56.5" font-family="Helvetica,sans-Serif" font-size="10.00">&lt; uint16_t, 2 &gt;</text>
<polyline fill="none" stroke="black" points="133,-49.5 248,-49.5 "/>
<text text-anchor="middle" x="190.5" y="-37.5" font-family="Helvetica,sans-Serif" font-size="10.00"> </text>
<polyline fill="none" stroke="black" points="133,-30.5 248,-30.5 "/>
<text text-anchor="start" x="141" y="-18.5" font-family="Helvetica,sans-Serif" font-size="10.00">+ toHost()</text>
<text text-anchor="start" x="141" y="-7.5" font-family="Helvetica,sans-Serif" font-size="10.00">+ toNet()</text>
</a>
</g>
</g>
<!-- Node1&#45;&gt;Node6 -->
<g id="edge5" class="edge"><title>Node1&#45;&gt;Node6</title>
<path fill="none" stroke="#8b1a1a" d="M279.753,-110.12C267.11,-100.329 253.219,-89.5721 240.24,-79.5205"/>
<polygon fill="none" stroke="#8b1a1a" points="277.809,-113.042 287.858,-116.398 282.095,-107.508 277.809,-113.042"/>
</g>
<!-- Node7 -->
<g id="node7" class="node"><title>Node7</title>
<g id="a_node7"><a xlink:href="classndt_1_1details_1_1_byte_order_3_01uint32__t_00_014_01_4.html" target="_top" xlink:title=" ">
<polygon fill="white" stroke="black" points="266,-0.5 266,-79.5 381,-79.5 381,-0.5 266,-0.5"/>
<text text-anchor="start" x="274" y="-67.5" font-family="Helvetica,sans-Serif" font-size="10.00">ndt::details::ByteOrder</text>
<text text-anchor="middle" x="323.5" y="-56.5" font-family="Helvetica,sans-Serif" font-size="10.00">&lt; uint32_t, 4 &gt;</text>
<polyline fill="none" stroke="black" points="266,-49.5 381,-49.5 "/>
<text text-anchor="middle" x="323.5" y="-37.5" font-family="Helvetica,sans-Serif" font-size="10.00"> </text>
<polyline fill="none" stroke="black" points="266,-30.5 381,-30.5 "/>
<text text-anchor="start" x="274" y="-18.5" font-family="Helvetica,sans-Serif" font-size="10.00">+ toHost()</text>
<text text-anchor="start" x="274" y="-7.5" font-family="Helvetica,sans-Serif" font-size="10.00">+ toNet()</text>
</a>
</g>
</g>
<!-- Node1&#45;&gt;Node7 -->
<g id="edge6" class="edge"><title>Node1&#45;&gt;Node7</title>
<path fill="none" stroke="#8b1a1a" d="M323.5,-106.156C323.5,-97.4733 323.5,-88.2318 323.5,-79.5205"/>
<polygon fill="none" stroke="#8b1a1a" points="320,-106.398 323.5,-116.398 327,-106.398 320,-106.398"/>
</g>
<!-- Node8 -->
<g id="node8" class="node"><title>Node8</title>
<g id="a_node8"><a xlink:href="classndt_1_1details_1_1_byte_order_3_01uint64__t_00_018_01_4.html" target="_top" xlink:title=" ">
<polygon fill="white" stroke="black" points="399,-0.5 399,-79.5 514,-79.5 514,-0.5 399,-0.5"/>
<text text-anchor="start" x="407" y="-67.5" font-family="Helvetica,sans-Serif" font-size="10.00">ndt::details::ByteOrder</text>
<text text-anchor="middle" x="456.5" y="-56.5" font-family="Helvetica,sans-Serif" font-size="10.00">&lt; uint64_t, 8 &gt;</text>
<polyline fill="none" stroke="black" points="399,-49.5 514,-49.5 "/>
<text text-anchor="middle" x="456.5" y="-37.5" font-family="Helvetica,sans-Serif" font-size="10.00"> </text>
<polyline fill="none" stroke="black" points="399,-30.5 514,-30.5 "/>
<text text-anchor="start" x="407" y="-18.5" font-family="Helvetica,sans-Serif" font-size="10.00">+ toHost()</text>
<text text-anchor="start" x="407" y="-7.5" font-family="Helvetica,sans-Serif" font-size="10.00">+ toNet()</text>
</a>
</g>
</g>
<!-- Node1&#45;&gt;Node8 -->
<g id="edge7" class="edge"><title>Node1&#45;&gt;Node8</title>
<path fill="none" stroke="#8b1a1a" d="M367.247,-110.12C379.89,-100.329 393.781,-89.5721 406.76,-79.5205"/>
<polygon fill="none" stroke="#8b1a1a" points="364.905,-107.508 359.142,-116.398 369.191,-113.042 364.905,-107.508"/>
</g>
<!-- Node9 -->
<g id="node9" class="node"><title>Node9</title>
<g id="a_node9"><a xlink:href="classndt_1_1details_1_1_byte_order_3_01uint8__t_00_011_01_4.html" target="_top" xlink:title=" ">
<polygon fill="white" stroke="black" points="532,-0.5 532,-79.5 647,-79.5 647,-0.5 532,-0.5"/>
<text text-anchor="start" x="540" y="-67.5" font-family="Helvetica,sans-Serif" font-size="10.00">ndt::details::ByteOrder</text>
<text text-anchor="middle" x="589.5" y="-56.5" font-family="Helvetica,sans-Serif" font-size="10.00">&lt; uint8_t, 1 &gt;</text>
<polyline fill="none" stroke="black" points="532,-49.5 647,-49.5 "/>
<text text-anchor="middle" x="589.5" y="-37.5" font-family="Helvetica,sans-Serif" font-size="10.00"> </text>
<polyline fill="none" stroke="black" points="532,-30.5 647,-30.5 "/>
<text text-anchor="start" x="540" y="-18.5" font-family="Helvetica,sans-Serif" font-size="10.00">+ toHost()</text>
<text text-anchor="start" x="540" y="-7.5" font-family="Helvetica,sans-Serif" font-size="10.00">+ toNet()</text>
</a>
</g>
</g>
<!-- Node1&#45;&gt;Node9 -->
<g id="edge8" class="edge"><title>Node1&#45;&gt;Node9</title>
<path fill="none" stroke="#8b1a1a" d="M415.421,-119.303C449.952,-108.807 489.143,-95.4132 523.5,-80 526.293,-78.747 529.117,-77.4044 531.943,-75.9983"/>
<polygon fill="none" stroke="#8b1a1a" points="414.386,-115.959 405.813,-122.185 416.397,-122.664 414.386,-115.959"/>
</g>
<!-- Node2 -->
<g id="node2" class="node"><title>Node2</title>
<g id="a_node2"><a xlink:href="structndt_1_1_no_copy_able.html" target="_top" xlink:title=" ">
<polygon fill="white" stroke="black" points="167.5,-210.5 167.5,-300.5 259.5,-300.5 259.5,-210.5 167.5,-210.5"/>
<text text-anchor="middle" x="213.5" y="-288.5" font-family="Helvetica,sans-Serif" font-size="10.00">ndt::NoCopyAble</text>
<polyline fill="none" stroke="black" points="167.5,-281.5 259.5,-281.5 "/>
<text text-anchor="middle" x="213.5" y="-269.5" font-family="Helvetica,sans-Serif" font-size="10.00"> </text>
<polyline fill="none" stroke="black" points="167.5,-262.5 259.5,-262.5 "/>
<text text-anchor="start" x="175.5" y="-250.5" font-family="Helvetica,sans-Serif" font-size="10.00">+ NoCopyAble()</text>
<text text-anchor="start" x="175.5" y="-239.5" font-family="Helvetica,sans-Serif" font-size="10.00">+ ~NoCopyAble()</text>
<text text-anchor="start" x="175.5" y="-228.5" font-family="Helvetica,sans-Serif" font-size="10.00">+ NoCopyAble()</text>
<text text-anchor="start" x="175.5" y="-217.5" font-family="Helvetica,sans-Serif" font-size="10.00">+ operator=()</text>
</a>
</g>
</g>
<!-- Node2&#45;&gt;Node1 -->
<g id="edge1" class="edge"><title>Node2&#45;&gt;Node1</title>
<path fill="none" stroke="midnightblue" d="M265.395,-203.313C275.788,-193.061 286.33,-182.663 295.529,-173.59"/>
<polygon fill="none" stroke="midnightblue" points="262.903,-200.855 258.241,-210.369 267.819,-205.838 262.903,-200.855"/>
</g>
<!-- Node3 -->
<g id="node3" class="node"><title>Node3</title>
<g id="a_node3"><a xlink:href="structndt_1_1_no_move_able.html" target="_top" xlink:title=" ">
<polygon fill="white" stroke="black" points="277.5,-210.5 277.5,-300.5 369.5,-300.5 369.5,-210.5 277.5,-210.5"/>
<text text-anchor="middle" x="323.5" y="-288.5" font-family="Helvetica,sans-Serif" font-size="10.00">ndt::NoMoveAble</text>
<polyline fill="none" stroke="black" points="277.5,-281.5 369.5,-281.5 "/>
<text text-anchor="middle" x="323.5" y="-269.5" font-family="Helvetica,sans-Serif" font-size="10.00"> </text>
<polyline fill="none" stroke="black" points="277.5,-262.5 369.5,-262.5 "/>
<text text-anchor="start" x="285.5" y="-250.5" font-family="Helvetica,sans-Serif" font-size="10.00">+ NoMoveAble()</text>
<text text-anchor="start" x="285.5" y="-239.5" font-family="Helvetica,sans-Serif" font-size="10.00">+ ~NoMoveAble()</text>
<text text-anchor="start" x="285.5" y="-228.5" font-family="Helvetica,sans-Serif" font-size="10.00">+ NoMoveAble()</text>
<text text-anchor="start" x="285.5" y="-217.5" font-family="Helvetica,sans-Serif" font-size="10.00">+ operator=()</text>
</a>
</g>
</g>
<!-- Node3&#45;&gt;Node1 -->
<g id="edge2" class="edge"><title>Node3&#45;&gt;Node1</title>
<path fill="none" stroke="midnightblue" d="M323.5,-200.353C323.5,-191.074 323.5,-181.791 323.5,-173.59"/>
<polygon fill="none" stroke="midnightblue" points="320,-200.369 323.5,-210.369 327,-200.369 320,-200.369"/>
</g>
<!-- Node4 -->
<g id="node4" class="node"><title>Node4</title>
<g id="a_node4"><a xlink:href="structndt_1_1_no_default_constructible.html" target="_top" xlink:title=" ">
<polygon fill="white" stroke="black" points="388,-227 388,-284 523,-284 523,-227 388,-227"/>
<text text-anchor="middle" x="455.5" y="-272" font-family="Helvetica,sans-Serif" font-size="10.00">ndt::NoDefaultConstructible</text>
<polyline fill="none" stroke="black" points="388,-265 523,-265 "/>
<text text-anchor="middle" x="455.5" y="-253" font-family="Helvetica,sans-Serif" font-size="10.00"> </text>
<polyline fill="none" stroke="black" points="388,-246 523,-246 "/>
<text text-anchor="start" x="396" y="-234" font-family="Helvetica,sans-Serif" font-size="10.00">+ NoDefaultConstructible()</text>
</a>
</g>
</g>
<!-- Node4&#45;&gt;Node1 -->
<g id="edge3" class="edge"><title>Node4&#45;&gt;Node1</title>
<path fill="none" stroke="midnightblue" d="M413.686,-220.13C395.427,-205.122 374.302,-187.758 357.089,-173.609"/>
<polygon fill="none" stroke="midnightblue" points="411.902,-223.194 421.849,-226.84 416.347,-217.786 411.902,-223.194"/>
</g>
</g>
</svg>
