<?xml version="1.0" encoding="UTF-8" standalone="no"?>
<!DOCTYPE svg PUBLIC "-//W3C//DTD SVG 1.1//EN"
 "http://www.w3.org/Graphics/SVG/1.1/DTD/svg11.dtd">
<!-- Generated by graphviz version 2.38.0 (20140413.2041)
 -->
<!-- Title: ndt::ipv4_t Pages: 1 -->
<svg width="81pt" height="204pt"
 viewBox="0.00 0.00 80.50 204.00" xmlns="http://www.w3.org/2000/svg" xmlns:xlink="http://www.w3.org/1999/xlink">
<g id="graph0" class="graph" transform="scale(1 1) rotate(0) translate(4 200)">
<title>ndt::ipv4_t</title>
<polygon fill="white" stroke="none" points="-4,4 -4,-200 76.5,-200 76.5,4 -4,4"/>
<!-- Node1 -->
<g id="node1" class="node"><title>Node1</title>
<g id="a_node1"><a xlink:title=" ">
<polygon fill="#bfbfbf" stroke="black" points="5,-0.5 5,-57.5 66,-57.5 66,-0.5 5,-0.5"/>
<text text-anchor="middle" x="35.5" y="-45.5" font-family="Helvetica,sans-Serif" font-size="10.00">ndt::ipv4_t</text>
<polyline fill="none" stroke="black" points="5,-38.5 66,-38.5 "/>
<text text-anchor="middle" x="35.5" y="-26.5" font-family="Helvetica,sans-Serif" font-size="10.00"> </text>
<polyline fill="none" stroke="black" points="5,-19.5 66,-19.5 "/>
<text text-anchor="middle" x="35.5" y="-7.5" font-family="Helvetica,sans-Serif" font-size="10.00"> </text>
</a>
</g>
</g>
<!-- Node2 -->
<g id="node2" class="node"><title>Node2</title>
<g id="a_node2"><a xlink:href="unionndt_1_1u__ipv4__t.html" target="_top" xlink:title=" ">
<polygon fill="white" stroke="black" points="0,-105.5 0,-195.5 71,-195.5 71,-105.5 0,-105.5"/>
<text text-anchor="middle" x="35.5" y="-183.5" font-family="Helvetica,sans-Serif" font-size="10.00">ndt::u_ipv4_t</text>
<polyline fill="none" stroke="black" points="0,-176.5 71,-176.5 "/>
<text text-anchor="start" x="8" y="-164.5" font-family="Helvetica,sans-Serif" font-size="10.00">+ data32</text>
<text text-anchor="start" x="8" y="-153.5" font-family="Helvetica,sans-Serif" font-size="10.00">+ data16</text>
<text text-anchor="start" x="8" y="-142.5" font-family="Helvetica,sans-Serif" font-size="10.00">+ data8</text>
<text text-anchor="start" x="8" y="-131.5" font-family="Helvetica,sans-Serif" font-size="10.00">+ nativeData</text>
<polyline fill="none" stroke="black" points="0,-124.5 71,-124.5 "/>
<text text-anchor="middle" x="35.5" y="-112.5" font-family="Helvetica,sans-Serif" font-size="10.00"> </text>
</a>
</g>
</g>
<!-- Node2&#45;&gt;Node1 -->
<g id="edge1" class="edge"><title>Node2&#45;&gt;Node1</title>
<path fill="none" stroke="#404040" d="M35.5,-105.342C35.5,-93.7485 35.5,-81.3129 35.5,-69.9534"/>
<polygon fill="none" stroke="#404040" points="35.5001,-69.6879 31.5,-63.6879 35.5,-57.6879 39.5,-63.6878 35.5001,-69.6879"/>
<text text-anchor="middle" x="54" y="-79" font-family="Helvetica,sans-Serif" font-size="10.00"> +u_ipv4</text>
</g>
</g>
</svg>
