<?xml version="1.0" encoding="UTF-8" standalone="no"?>
<!DOCTYPE svg PUBLIC "-//W3C//DTD SVG 1.1//EN"
 "http://www.w3.org/Graphics/SVG/1.1/DTD/svg11.dtd">
<!-- Generated by graphviz version 2.38.0 (20140413.2041)
 -->
<!-- Title: ndt::Interval&lt; T, MinT, MaxT &gt; Pages: 1 -->
<svg width="176pt" height="215pt"
 viewBox="0.00 0.00 175.50 215.00" xmlns="http://www.w3.org/2000/svg" xmlns:xlink="http://www.w3.org/1999/xlink">
<g id="graph0" class="graph" transform="scale(1 1) rotate(0) translate(4 211)">
<title>ndt::Interval&lt; T, MinT, MaxT &gt;</title>
<polygon fill="white" stroke="none" points="-4,4 -4,-211 171.5,-211 171.5,4 -4,4"/>
<!-- Node1 -->
<g id="node1" class="node"><title>Node1</title>
<g id="a_node1"><a xlink:title=" ">
<polygon fill="#bfbfbf" stroke="black" points="6.5,-138.5 6.5,-206.5 116.5,-206.5 116.5,-138.5 6.5,-138.5"/>
<text text-anchor="start" x="14.5" y="-194.5" font-family="Helvetica,sans-Serif" font-size="10.00">ndt::Interval&lt; T, MinT,</text>
<text text-anchor="middle" x="61.5" y="-183.5" font-family="Helvetica,sans-Serif" font-size="10.00"> MaxT &gt;</text>
<polyline fill="none" stroke="black" points="6.5,-176.5 116.5,-176.5 "/>
<text text-anchor="middle" x="61.5" y="-164.5" font-family="Helvetica,sans-Serif" font-size="10.00"> </text>
<polyline fill="none" stroke="black" points="6.5,-157.5 116.5,-157.5 "/>
<text text-anchor="middle" x="61.5" y="-145.5" font-family="Helvetica,sans-Serif" font-size="10.00"> </text>
</a>
</g>
</g>
<!-- Node2 -->
<g id="node2" class="node"><title>Node2</title>
<g id="a_node2"><a xlink:href="structndt_1_1_interval.html" target="_top" xlink:title=" ">
<polygon fill="white" stroke="black" points="0,-0.5 0,-79.5 123,-79.5 123,-0.5 0,-0.5"/>
<text text-anchor="start" x="8" y="-67.5" font-family="Helvetica,sans-Serif" font-size="10.00">ndt::Interval&lt; T, ndt</text>
<text text-anchor="start" x="8" y="-56.5" font-family="Helvetica,sans-Serif" font-size="10.00">::Min&lt; MinV &gt;, ndt::Max</text>
<text text-anchor="middle" x="61.5" y="-45.5" font-family="Helvetica,sans-Serif" font-size="10.00">&lt; MaxV &gt; &gt;</text>
<polyline fill="none" stroke="black" points="0,-38.5 123,-38.5 "/>
<text text-anchor="middle" x="61.5" y="-26.5" font-family="Helvetica,sans-Serif" font-size="10.00"> </text>
<polyline fill="none" stroke="black" points="0,-19.5 123,-19.5 "/>
<text text-anchor="middle" x="61.5" y="-7.5" font-family="Helvetica,sans-Serif" font-size="10.00"> </text>
</a>
</g>
</g>
<!-- Node1&#45;&gt;Node2 -->
<g id="edge1" class="edge"><title>Node1&#45;&gt;Node2</title>
<path fill="none" stroke="orange" d="M61.5,-127.812C61.5,-112.263 61.5,-94.8731 61.5,-79.7651"/>
<polygon fill="orange" stroke="orange" points="58.0001,-128.232 61.5,-138.232 65.0001,-128.232 58.0001,-128.232"/>
<text text-anchor="start" x="61.5" y="-112" font-family="Helvetica,sans-Serif" font-size="10.00"> &lt; T, ndt::Min&lt; MinV</text>
<text text-anchor="middle" x="114.5" y="-101" font-family="Helvetica,sans-Serif" font-size="10.00"> &gt;, ndt::Max&lt; MaxV &gt; &gt;</text>
</g>
</g>
</svg>
