<?xml version="1.0" encoding="UTF-8" standalone="no"?>
<!DOCTYPE svg PUBLIC "-//W3C//DTD SVG 1.1//EN"
 "http://www.w3.org/Graphics/SVG/1.1/DTD/svg11.dtd">
<!-- Generated by graphviz version 2.38.0 (20140413.2041)
 -->
<!-- Title: ndt::NoDefaultConstructible Pages: 1 -->
<svg width="360pt" height="254pt"
 viewBox="0.00 0.00 359.50 254.00" xmlns="http://www.w3.org/2000/svg" xmlns:xlink="http://www.w3.org/1999/xlink">
<g id="graph0" class="graph" transform="scale(1 1) rotate(0) translate(4 250)">
<title>ndt::NoDefaultConstructible</title>
<polygon fill="white" stroke="none" points="-4,4 -4,-250 355.5,-250 355.5,4 -4,4"/>
<!-- Node1 -->
<g id="node1" class="node"><title>Node1</title>
<g id="a_node1"><a xlink:title=" ">
<polygon fill="#bfbfbf" stroke="black" points="109,-188.5 109,-245.5 244,-245.5 244,-188.5 109,-188.5"/>
<text text-anchor="middle" x="176.5" y="-233.5" font-family="Helvetica,sans-Serif" font-size="10.00">ndt::NoDefaultConstructible</text>
<polyline fill="none" stroke="black" points="109,-226.5 244,-226.5 "/>
<text text-anchor="middle" x="176.5" y="-214.5" font-family="Helvetica,sans-Serif" font-size="10.00"> </text>
<polyline fill="none" stroke="black" points="109,-207.5 244,-207.5 "/>
<text text-anchor="start" x="117" y="-195.5" font-family="Helvetica,sans-Serif" font-size="10.00">+ NoDefaultConstructible()</text>
</a>
</g>
</g>
<!-- Node2 -->
<g id="node2" class="node"><title>Node2</title>
<g id="a_node2"><a xlink:href="structndt_1_1_no_constructible_no_destructible.html" target="_top" xlink:title=" ">
<polygon fill="white" stroke="black" points="0,-94.5 0,-151.5 169,-151.5 169,-94.5 0,-94.5"/>
<text text-anchor="middle" x="84.5" y="-139.5" font-family="Helvetica,sans-Serif" font-size="10.00">ndt::NoConstructibleNoDestructible</text>
<polyline fill="none" stroke="black" points="0,-132.5 169,-132.5 "/>
<text text-anchor="middle" x="84.5" y="-120.5" font-family="Helvetica,sans-Serif" font-size="10.00"> </text>
<polyline fill="none" stroke="black" points="0,-113.5 169,-113.5 "/>
<text text-anchor="middle" x="84.5" y="-101.5" font-family="Helvetica,sans-Serif" font-size="10.00"> </text>
</a>
</g>
</g>
<!-- Node1&#45;&gt;Node2 -->
<g id="edge1" class="edge"><title>Node1&#45;&gt;Node2</title>
<path fill="none" stroke="midnightblue" d="M141.6,-181.1C131.835,-171.335 121.361,-160.861 112.084,-151.584"/>
<polygon fill="none" stroke="midnightblue" points="139.351,-183.801 148.897,-188.397 144.301,-178.851 139.351,-183.801"/>
</g>
<!-- Node5 -->
<g id="node5" class="node"><title>Node5</title>
<g id="a_node5"><a xlink:href="structndt_1_1_no_copy_move_def_constructible.html" target="_top" xlink:title=" ">
<polygon fill="white" stroke="black" points="187.5,-94.5 187.5,-151.5 351.5,-151.5 351.5,-94.5 187.5,-94.5"/>
<text text-anchor="middle" x="269.5" y="-139.5" font-family="Helvetica,sans-Serif" font-size="10.00">ndt::NoCopyMoveDefConstructible</text>
<polyline fill="none" stroke="black" points="187.5,-132.5 351.5,-132.5 "/>
<text text-anchor="middle" x="269.5" y="-120.5" font-family="Helvetica,sans-Serif" font-size="10.00"> </text>
<polyline fill="none" stroke="black" points="187.5,-113.5 351.5,-113.5 "/>
<text text-anchor="middle" x="269.5" y="-101.5" font-family="Helvetica,sans-Serif" font-size="10.00"> </text>
</a>
</g>
</g>
<!-- Node1&#45;&gt;Node5 -->
<g id="edge4" class="edge"><title>Node1&#45;&gt;Node5</title>
<path fill="none" stroke="midnightblue" d="M211.78,-181.1C221.65,-171.335 232.239,-160.861 241.617,-151.584"/>
<polygon fill="none" stroke="midnightblue" points="209.051,-178.876 204.403,-188.397 213.974,-183.852 209.051,-178.876"/>
</g>
<!-- Node3 -->
<g id="node3" class="node"><title>Node3</title>
<g id="a_node3"><a xlink:href="classndt_1_1_file_ops.html" target="_top" xlink:title=" ">
<polygon fill="white" stroke="black" points="1.5,-0.5 1.5,-57.5 71.5,-57.5 71.5,-0.5 1.5,-0.5"/>
<text text-anchor="middle" x="36.5" y="-45.5" font-family="Helvetica,sans-Serif" font-size="10.00">ndt::FileOps</text>
<polyline fill="none" stroke="black" points="1.5,-38.5 71.5,-38.5 "/>
<text text-anchor="middle" x="36.5" y="-26.5" font-family="Helvetica,sans-Serif" font-size="10.00"> </text>
<polyline fill="none" stroke="black" points="1.5,-19.5 71.5,-19.5 "/>
<text text-anchor="middle" x="36.5" y="-7.5" font-family="Helvetica,sans-Serif" font-size="10.00"> </text>
</a>
</g>
</g>
<!-- Node2&#45;&gt;Node3 -->
<g id="edge2" class="edge"><title>Node2&#45;&gt;Node3</title>
<path fill="none" stroke="midnightblue" d="M65.3885,-85.3697C60.5558,-76.107 55.447,-66.3151 50.8914,-57.5836"/>
<polygon fill="none" stroke="midnightblue" points="62.3697,-87.1501 70.0984,-94.397 68.5758,-83.9121 62.3697,-87.1501"/>
</g>
<!-- Node4 -->
<g id="node4" class="node"><title>Node4</title>
<g id="a_node4"><a xlink:href="classndt_1_1_socket_ops.html" target="_top" xlink:title=" ">
<polygon fill="white" stroke="black" points="90,-0.5 90,-57.5 175,-57.5 175,-0.5 90,-0.5"/>
<text text-anchor="middle" x="132.5" y="-45.5" font-family="Helvetica,sans-Serif" font-size="10.00">ndt::SocketOps</text>
<polyline fill="none" stroke="black" points="90,-38.5 175,-38.5 "/>
<text text-anchor="middle" x="132.5" y="-26.5" font-family="Helvetica,sans-Serif" font-size="10.00"> </text>
<polyline fill="none" stroke="black" points="90,-19.5 175,-19.5 "/>
<text text-anchor="middle" x="132.5" y="-7.5" font-family="Helvetica,sans-Serif" font-size="10.00"> </text>
</a>
</g>
</g>
<!-- Node2&#45;&gt;Node4 -->
<g id="edge3" class="edge"><title>Node2&#45;&gt;Node4</title>
<path fill="none" stroke="midnightblue" d="M103.611,-85.3697C108.444,-76.107 113.553,-66.3151 118.109,-57.5836"/>
<polygon fill="none" stroke="midnightblue" points="100.424,-83.9121 98.9016,-94.397 106.63,-87.1501 100.424,-83.9121"/>
</g>
</g>
</svg>
