<?xml version="1.0" encoding="UTF-8" standalone="no"?>
<!DOCTYPE svg PUBLIC "-//W3C//DTD SVG 1.1//EN"
 "http://www.w3.org/Graphics/SVG/1.1/DTD/svg11.dtd">
<!-- Generated by graphviz version 2.38.0 (20140413.2041)
 -->
<!-- Title: ndt::NoCopyAble Pages: 1 -->
<!--zoomable 815 -->
<svg id="main" version="1.1" xmlns="http://www.w3.org/2000/svg" xmlns:xlink="http://www.w3.org/1999/xlink" xml:space="preserve" onload="init(evt)">
<style type="text/css"><![CDATA[
.edge:hover path { stroke: red; }
.edge:hover polygon { stroke: red; fill: red; }
]]></style>
<script type="text/javascript"><![CDATA[
var edges = document.getElementsByTagName('g');
if (edges && edges.length) {
  for (var i=0;i<edges.length;i++) {
    if (edges[i].id.substr(0,4)=='edge') {
      edges[i].setAttribute('class','edge');
    }
  }
}
]]></script>
        <defs>
                <circle id="rim" cx="0" cy="0" r="7"/>
                <circle id="rim2" cx="0" cy="0" r="3.5"/>
                <g id="zoomPlus">
                        <use xlink:href="#rim" fill="#404040">
                                <set attributeName="fill" to="#808080" begin="zoomplus.mouseover" end="zoomplus.mouseout"/>
                        </use>
                        <path d="M-4,0h8M0,-4v8" fill="none" stroke="white" stroke-width="1.5" pointer-events="none"/>
                </g>
                <g id="zoomMin">
                        <use xlink:href="#rim" fill="#404040">
                                <set attributeName="fill" to="#808080" begin="zoomminus.mouseover" end="zoomminus.mouseout"/>
                        </use>
                        <path d="M-4,0h8" fill="none" stroke="white" stroke-width="1.5" pointer-events="none"/>
                </g>
                <g id="dirArrow">
                        <path fill="none" stroke="white" stroke-width="1.5" d="M0,-3.0v7 M-2.5,-0.5L0,-3.0L2.5,-0.5"/>
                </g>
               <g id="resetDef">
                       <use xlink:href="#rim2" fill="#404040">
                               <set attributeName="fill" to="#808080" begin="reset.mouseover" end="reset.mouseout"/>
                       </use>
               </g>
        </defs>

<script type="text/javascript">
var viewWidth = 1194;
var viewHeight = 815;
var sectionId = 'dynsection-0';
</script>
<script xlink:href="svgpan.js"/>
<svg id="graph" class="graph">
<g id="viewport">
<title>ndt::NoCopyAble</title>
<polygon fill="white" stroke="none" points="-4,4 -4,-811 1190,-811 1190,4 -4,4"/>
<!-- Node1 -->
<g id="node1" class="node"><title>Node1</title>
<g id="a_node1"><a xlink:title=" ">
<polygon fill="#bfbfbf" stroke="black" points="290,-716.5 290,-806.5 382,-806.5 382,-716.5 290,-716.5"/>
<text text-anchor="middle" x="336" y="-794.5" font-family="Helvetica,sans-Serif" font-size="10.00">ndt::NoCopyAble</text>
<polyline fill="none" stroke="black" points="290,-787.5 382,-787.5 "/>
<text text-anchor="middle" x="336" y="-775.5" font-family="Helvetica,sans-Serif" font-size="10.00"> </text>
<polyline fill="none" stroke="black" points="290,-768.5 382,-768.5 "/>
<text text-anchor="start" x="298" y="-756.5" font-family="Helvetica,sans-Serif" font-size="10.00">+ NoCopyAble()</text>
<text text-anchor="start" x="298" y="-745.5" font-family="Helvetica,sans-Serif" font-size="10.00">+ ~NoCopyAble()</text>
<text text-anchor="start" x="298" y="-734.5" font-family="Helvetica,sans-Serif" font-size="10.00">+ NoCopyAble()</text>
<text text-anchor="start" x="298" y="-723.5" font-family="Helvetica,sans-Serif" font-size="10.00">+ operator=()</text>
</a>
</g>
</g>
<!-- Node2 -->
<g id="node2" class="node"><title>Node2</title>
<g id="a_node2"><a xlink:href="classndt_1_1_context_base.html" target="_top" xlink:title=" ">
<polygon fill="white" stroke="black" points="0,-430 0,-564 170,-564 170,-430 0,-430"/>
<text text-anchor="middle" x="85" y="-552" font-family="Helvetica,sans-Serif" font-size="10.00">ndt::ContextBase&lt; SysWrapperT &gt;</text>
<polyline fill="none" stroke="black" points="0,-545 170,-545 "/>
<text text-anchor="start" x="8" y="-533" font-family="Helvetica,sans-Serif" font-size="10.00">&#45; instanceCount_</text>
<polyline fill="none" stroke="black" points="0,-526 170,-526 "/>
<text text-anchor="start" x="8" y="-514" font-family="Helvetica,sans-Serif" font-size="10.00">+ ~ContextBase()</text>
<text text-anchor="start" x="8" y="-503" font-family="Helvetica,sans-Serif" font-size="10.00">+ ContextBase()</text>
<text text-anchor="start" x="8" y="-492" font-family="Helvetica,sans-Serif" font-size="10.00">+ ~ContextBase()</text>
<text text-anchor="start" x="8" y="-481" font-family="Helvetica,sans-Serif" font-size="10.00">+ ContextBase()</text>
<text text-anchor="start" x="8" y="-470" font-family="Helvetica,sans-Serif" font-size="10.00">+ instanceCount()</text>
<text text-anchor="start" x="8" y="-459" font-family="Helvetica,sans-Serif" font-size="10.00">+ instanceCount()</text>
<text text-anchor="start" x="8" y="-448" font-family="Helvetica,sans-Serif" font-size="10.00">&#45; startUp()</text>
<text text-anchor="start" x="8" y="-437" font-family="Helvetica,sans-Serif" font-size="10.00">&#45; cleanUp()</text>
</a>
</g>
</g>
<!-- Node1&#45;&gt;Node2 -->
<g id="edge1" class="edge"><title>Node1&#45;&gt;Node2</title>
<path fill="none" stroke="#8b1a1a" d="M280.261,-744.757C244.958,-731.747 200.534,-710.444 170,-680 137.513,-647.609 113.898,-601.648 99.6146,-564.018"/>
<polygon fill="none" stroke="#8b1a1a" points="279.363,-748.152 289.958,-748.207 281.71,-741.557 279.363,-748.152"/>
</g>
<!-- Node1&#45;&gt;Node2 -->
<g id="edge3" class="edge"><title>Node1&#45;&gt;Node2</title>
<path fill="none" stroke="#8b1a1a" d="M280.271,-738.459C250.161,-725.267 214.032,-705.955 188,-680 155.513,-647.609 131.898,-601.648 115.311,-564.018"/>
<polygon fill="none" stroke="#8b1a1a" points="279.244,-741.826 289.815,-742.528 281.989,-735.387 279.244,-741.826"/>
</g>
<!-- Node4 -->
<g id="node4" class="node"><title>Node4</title>
<g id="a_node4"><a xlink:href="classndt_1_1_file.html" target="_top" xlink:title=" ">
<polygon fill="white" stroke="black" points="188.5,-314.5 188.5,-679.5 317.5,-679.5 317.5,-314.5 188.5,-314.5"/>
<text text-anchor="start" x="196.5" y="-667.5" font-family="Helvetica,sans-Serif" font-size="10.00">ndt::File&lt; DestructorError</text>
<text text-anchor="middle" x="253" y="-656.5" font-family="Helvetica,sans-Serif" font-size="10.00">HandlerT, SysWrapperT &gt;</text>
<polyline fill="none" stroke="black" points="188.5,-649.5 317.5,-649.5 "/>
<text text-anchor="start" x="196.5" y="-637.5" font-family="Helvetica,sans-Serif" font-size="10.00">&#45; fd_</text>
<text text-anchor="start" x="196.5" y="-626.5" font-family="Helvetica,sans-Serif" font-size="10.00">&#45; destructorErrorHandler_</text>
<polyline fill="none" stroke="black" points="188.5,-619.5 317.5,-619.5 "/>
<text text-anchor="start" x="196.5" y="-607.5" font-family="Helvetica,sans-Serif" font-size="10.00">+ ~File()</text>
<text text-anchor="start" x="196.5" y="-596.5" font-family="Helvetica,sans-Serif" font-size="10.00">+ File()</text>
<text text-anchor="start" x="196.5" y="-585.5" font-family="Helvetica,sans-Serif" font-size="10.00">+ File()</text>
<text text-anchor="start" x="196.5" y="-574.5" font-family="Helvetica,sans-Serif" font-size="10.00">+ operator=()</text>
<text text-anchor="start" x="196.5" y="-563.5" font-family="Helvetica,sans-Serif" font-size="10.00">+ open()</text>
<text text-anchor="start" x="196.5" y="-552.5" font-family="Helvetica,sans-Serif" font-size="10.00">+ write()</text>
<text text-anchor="start" x="196.5" y="-541.5" font-family="Helvetica,sans-Serif" font-size="10.00">+ read()</text>
<text text-anchor="start" x="196.5" y="-530.5" font-family="Helvetica,sans-Serif" font-size="10.00">+ read()</text>
<text text-anchor="start" x="196.5" y="-519.5" font-family="Helvetica,sans-Serif" font-size="10.00">+ rewind()</text>
<text text-anchor="start" x="196.5" y="-508.5" font-family="Helvetica,sans-Serif" font-size="10.00">+ open()</text>
<text text-anchor="start" x="196.5" y="-497.5" font-family="Helvetica,sans-Serif" font-size="10.00">+ open()</text>
<text text-anchor="start" x="196.5" y="-486.5" font-family="Helvetica,sans-Serif" font-size="10.00">+ open()</text>
<text text-anchor="start" x="196.5" y="-475.5" font-family="Helvetica,sans-Serif" font-size="10.00">+ open()</text>
<text text-anchor="start" x="196.5" y="-464.5" font-family="Helvetica,sans-Serif" font-size="10.00">+ open()</text>
<text text-anchor="start" x="196.5" y="-453.5" font-family="Helvetica,sans-Serif" font-size="10.00">+ open()</text>
<text text-anchor="start" x="196.5" y="-442.5" font-family="Helvetica,sans-Serif" font-size="10.00">+ open()</text>
<text text-anchor="start" x="196.5" y="-431.5" font-family="Helvetica,sans-Serif" font-size="10.00">+ open()</text>
<text text-anchor="start" x="196.5" y="-420.5" font-family="Helvetica,sans-Serif" font-size="10.00">+ open()</text>
<text text-anchor="start" x="196.5" y="-409.5" font-family="Helvetica,sans-Serif" font-size="10.00">+ open()</text>
<text text-anchor="start" x="196.5" y="-398.5" font-family="Helvetica,sans-Serif" font-size="10.00">+ open()</text>
<text text-anchor="start" x="196.5" y="-387.5" font-family="Helvetica,sans-Serif" font-size="10.00">+ open()</text>
<text text-anchor="start" x="196.5" y="-376.5" font-family="Helvetica,sans-Serif" font-size="10.00">+ open()</text>
<text text-anchor="start" x="196.5" y="-365.5" font-family="Helvetica,sans-Serif" font-size="10.00">+ close()</text>
<text text-anchor="start" x="196.5" y="-354.5" font-family="Helvetica,sans-Serif" font-size="10.00">+ flush()</text>
<text text-anchor="start" x="196.5" y="-343.5" font-family="Helvetica,sans-Serif" font-size="10.00">+ remove()</text>
<text text-anchor="start" x="196.5" y="-332.5" font-family="Helvetica,sans-Serif" font-size="10.00">+ size()</text>
<text text-anchor="start" x="196.5" y="-321.5" font-family="Helvetica,sans-Serif" font-size="10.00">&#45; read()</text>
</a>
</g>
</g>
<!-- Node1&#45;&gt;Node4 -->
<g id="edge4" class="edge"><title>Node1&#45;&gt;Node4</title>
<path fill="none" stroke="midnightblue" d="M318.985,-706.686C316.318,-698.252 313.441,-689.154 310.433,-679.639"/>
<polygon fill="none" stroke="midnightblue" points="315.662,-707.788 322.014,-716.267 322.336,-705.677 315.662,-707.788"/>
</g>
<!-- Node5 -->
<g id="node5" class="node"><title>Node5</title>
<g id="a_node5"><a xlink:href="structndt_1_1_no_constructible_no_destructible.html" target="_top" xlink:title=" ">
<polygon fill="white" stroke="black" points="335.5,-468.5 335.5,-525.5 504.5,-525.5 504.5,-468.5 335.5,-468.5"/>
<text text-anchor="middle" x="420" y="-513.5" font-family="Helvetica,sans-Serif" font-size="10.00">ndt::NoConstructibleNoDestructible</text>
<polyline fill="none" stroke="black" points="335.5,-506.5 504.5,-506.5 "/>
<text text-anchor="middle" x="420" y="-494.5" font-family="Helvetica,sans-Serif" font-size="10.00"> </text>
<polyline fill="none" stroke="black" points="335.5,-487.5 504.5,-487.5 "/>
<text text-anchor="middle" x="420" y="-475.5" font-family="Helvetica,sans-Serif" font-size="10.00"> </text>
</a>
</g>
</g>
<!-- Node1&#45;&gt;Node5 -->
<g id="edge5" class="edge"><title>Node1&#45;&gt;Node5</title>
<path fill="none" stroke="midnightblue" d="M353.217,-706.697C370.786,-651.795 397.362,-568.744 411.091,-525.842"/>
<polygon fill="none" stroke="midnightblue" points="349.869,-705.676 350.154,-716.267 356.536,-707.81 349.869,-705.676"/>
</g>
<!-- Node8 -->
<g id="node8" class="node"><title>Node8</title>
<g id="a_node8"><a xlink:href="structndt_1_1_no_copy_move_def_constructible.html" target="_top" xlink:title=" ">
<polygon fill="white" stroke="black" points="566,-468.5 566,-525.5 730,-525.5 730,-468.5 566,-468.5"/>
<text text-anchor="middle" x="648" y="-513.5" font-family="Helvetica,sans-Serif" font-size="10.00">ndt::NoCopyMoveDefConstructible</text>
<polyline fill="none" stroke="black" points="566,-506.5 730,-506.5 "/>
<text text-anchor="middle" x="648" y="-494.5" font-family="Helvetica,sans-Serif" font-size="10.00"> </text>
<polyline fill="none" stroke="black" points="566,-487.5 730,-487.5 "/>
<text text-anchor="middle" x="648" y="-475.5" font-family="Helvetica,sans-Serif" font-size="10.00"> </text>
</a>
</g>
</g>
<!-- Node1&#45;&gt;Node8 -->
<g id="edge8" class="edge"><title>Node1&#45;&gt;Node8</title>
<path fill="none" stroke="midnightblue" d="M391.673,-743.401C428.702,-730.153 476.968,-709.121 513,-680 567.616,-635.86 611.703,-564.79 633.39,-525.805"/>
<polygon fill="none" stroke="midnightblue" points="390.32,-740.166 382.032,-746.766 392.627,-746.775 390.32,-740.166"/>
</g>
<!-- Node14 -->
<g id="node14" class="node"><title>Node14</title>
<g id="a_node14"><a xlink:href="classndt_1_1_socket_base.html" target="_top" xlink:title=" ">
<polygon fill="white" stroke="black" points="897.5,-336.5 897.5,-657.5 1064.5,-657.5 1064.5,-336.5 897.5,-336.5"/>
<text text-anchor="middle" x="981" y="-645.5" font-family="Helvetica,sans-Serif" font-size="10.00">ndt::SocketBase&lt; SysWrapperT &gt;</text>
<polyline fill="none" stroke="black" points="897.5,-638.5 1064.5,-638.5 "/>
<text text-anchor="start" x="905.5" y="-626.5" font-family="Helvetica,sans-Serif" font-size="10.00"># socketHandle_</text>
<text text-anchor="start" x="905.5" y="-615.5" font-family="Helvetica,sans-Serif" font-size="10.00"># isOpen_</text>
<text text-anchor="start" x="905.5" y="-604.5" font-family="Helvetica,sans-Serif" font-size="10.00"># isNonBlocking_</text>
<text text-anchor="start" x="905.5" y="-593.5" font-family="Helvetica,sans-Serif" font-size="10.00"># context_</text>
<text text-anchor="start" x="905.5" y="-582.5" font-family="Helvetica,sans-Serif" font-size="10.00"># handler_</text>
<polyline fill="none" stroke="black" points="897.5,-575.5 1064.5,-575.5 "/>
<text text-anchor="start" x="905.5" y="-563.5" font-family="Helvetica,sans-Serif" font-size="10.00">+ nativeHandle()</text>
<text text-anchor="start" x="905.5" y="-552.5" font-family="Helvetica,sans-Serif" font-size="10.00">+ nonBlocking()</text>
<text text-anchor="start" x="905.5" y="-541.5" font-family="Helvetica,sans-Serif" font-size="10.00">+ isOpen()</text>
<text text-anchor="start" x="905.5" y="-530.5" font-family="Helvetica,sans-Serif" font-size="10.00">+ handler()</text>
<text text-anchor="start" x="905.5" y="-519.5" font-family="Helvetica,sans-Serif" font-size="10.00">+ handler()</text>
<text text-anchor="start" x="905.5" y="-508.5" font-family="Helvetica,sans-Serif" font-size="10.00">+ sendTo()</text>
<text text-anchor="start" x="905.5" y="-497.5" font-family="Helvetica,sans-Serif" font-size="10.00">+ sendTo()</text>
<text text-anchor="start" x="905.5" y="-486.5" font-family="Helvetica,sans-Serif" font-size="10.00">+ recvFrom()</text>
<text text-anchor="start" x="905.5" y="-475.5" font-family="Helvetica,sans-Serif" font-size="10.00">+ recvFrom()</text>
<text text-anchor="start" x="905.5" y="-464.5" font-family="Helvetica,sans-Serif" font-size="10.00">+ close()</text>
<text text-anchor="start" x="905.5" y="-453.5" font-family="Helvetica,sans-Serif" font-size="10.00">+ close()</text>
<text text-anchor="start" x="905.5" y="-442.5" font-family="Helvetica,sans-Serif" font-size="10.00">+ nonBlocking()</text>
<text text-anchor="start" x="905.5" y="-431.5" font-family="Helvetica,sans-Serif" font-size="10.00">+ nonBlocking()</text>
<text text-anchor="start" x="905.5" y="-420.5" font-family="Helvetica,sans-Serif" font-size="10.00"># ~SocketBase()</text>
<text text-anchor="start" x="905.5" y="-409.5" font-family="Helvetica,sans-Serif" font-size="10.00"># SocketBase()</text>
<text text-anchor="start" x="905.5" y="-398.5" font-family="Helvetica,sans-Serif" font-size="10.00"># SocketBase()</text>
<text text-anchor="start" x="905.5" y="-387.5" font-family="Helvetica,sans-Serif" font-size="10.00"># SocketBase()</text>
<text text-anchor="start" x="905.5" y="-376.5" font-family="Helvetica,sans-Serif" font-size="10.00"># operator=()</text>
<text text-anchor="start" x="905.5" y="-365.5" font-family="Helvetica,sans-Serif" font-size="10.00"># setIsSubscribed()</text>
<text text-anchor="start" x="905.5" y="-354.5" font-family="Helvetica,sans-Serif" font-size="10.00"># open()</text>
<text text-anchor="start" x="905.5" y="-343.5" font-family="Helvetica,sans-Serif" font-size="10.00"># bind()</text>
</a>
</g>
</g>
<!-- Node1&#45;&gt;Node14 -->
<g id="edge14" class="edge"><title>Node1&#45;&gt;Node14</title>
<path fill="none" stroke="#8b1a1a" d="M392.5,-757.142C472.716,-750.646 622.774,-732.041 739,-680 796.575,-654.22 853.348,-612.619 897.419,-575.693"/>
<polygon fill="none" stroke="#8b1a1a" points="391.827,-753.684 382.127,-757.946 392.368,-760.663 391.827,-753.684"/>
</g>
<!-- Node3 -->
<g id="node3" class="node"><title>Node3</title>
<g id="a_node3"><a xlink:href="classndt_1_1_context.html" target="_top" xlink:title=" ">
<polygon fill="white" stroke="black" points="11.5,-83 11.5,-195 158.5,-195 158.5,-83 11.5,-83"/>
<text text-anchor="middle" x="85" y="-183" font-family="Helvetica,sans-Serif" font-size="10.00">ndt::Context&lt; SysWrapperT &gt;</text>
<polyline fill="none" stroke="black" points="11.5,-176 158.5,-176 "/>
<text text-anchor="start" x="19.5" y="-164" font-family="Helvetica,sans-Serif" font-size="10.00">&#45; isRunning_</text>
<text text-anchor="start" x="19.5" y="-153" font-family="Helvetica,sans-Serif" font-size="10.00">&#45; executor_</text>
<polyline fill="none" stroke="black" points="11.5,-146 158.5,-146 "/>
<text text-anchor="start" x="19.5" y="-134" font-family="Helvetica,sans-Serif" font-size="10.00">+ ~Context()</text>
<text text-anchor="start" x="19.5" y="-123" font-family="Helvetica,sans-Serif" font-size="10.00">+ Context()</text>
<text text-anchor="start" x="19.5" y="-112" font-family="Helvetica,sans-Serif" font-size="10.00">+ run()</text>
<text text-anchor="start" x="19.5" y="-101" font-family="Helvetica,sans-Serif" font-size="10.00">+ stop()</text>
<text text-anchor="start" x="19.5" y="-90" font-family="Helvetica,sans-Serif" font-size="10.00">+ executor()</text>
</a>
</g>
</g>
<!-- Node2&#45;&gt;Node3 -->
<g id="edge2" class="edge"><title>Node2&#45;&gt;Node3</title>
<path fill="none" stroke="midnightblue" d="M85,-419.727C85,-352.278 85,-255.494 85,-195.259"/>
<polygon fill="none" stroke="midnightblue" points="81.5001,-419.873 85,-429.873 88.5001,-419.873 81.5001,-419.873"/>
</g>
<!-- Node6 -->
<g id="node6" class="node"><title>Node6</title>
<g id="a_node6"><a xlink:href="classndt_1_1_file_ops.html" target="_top" xlink:title=" ">
<polygon fill="white" stroke="black" points="221,-110.5 221,-167.5 291,-167.5 291,-110.5 221,-110.5"/>
<text text-anchor="middle" x="256" y="-155.5" font-family="Helvetica,sans-Serif" font-size="10.00">ndt::FileOps</text>
<polyline fill="none" stroke="black" points="221,-148.5 291,-148.5 "/>
<text text-anchor="middle" x="256" y="-136.5" font-family="Helvetica,sans-Serif" font-size="10.00"> </text>
<polyline fill="none" stroke="black" points="221,-129.5 291,-129.5 "/>
<text text-anchor="middle" x="256" y="-117.5" font-family="Helvetica,sans-Serif" font-size="10.00"> </text>
</a>
</g>
</g>
<!-- Node5&#45;&gt;Node6 -->
<g id="edge6" class="edge"><title>Node5&#45;&gt;Node6</title>
<path fill="none" stroke="midnightblue" d="M402.889,-458.995C385.133,-421.587 355.83,-362.532 326,-314 315.665,-297.186 308.887,-295.623 300,-278 281.714,-241.738 268.988,-196.307 262.085,-167.707"/>
<polygon fill="none" stroke="midnightblue" points="399.933,-460.931 407.365,-468.482 406.264,-457.944 399.933,-460.931"/>
</g>
<!-- Node7 -->
<g id="node7" class="node"><title>Node7</title>
<g id="a_node7"><a xlink:href="classndt_1_1_socket_ops.html" target="_top" xlink:title=" ">
<polygon fill="white" stroke="black" points="309.5,-110.5 309.5,-167.5 394.5,-167.5 394.5,-110.5 309.5,-110.5"/>
<text text-anchor="middle" x="352" y="-155.5" font-family="Helvetica,sans-Serif" font-size="10.00">ndt::SocketOps</text>
<polyline fill="none" stroke="black" points="309.5,-148.5 394.5,-148.5 "/>
<text text-anchor="middle" x="352" y="-136.5" font-family="Helvetica,sans-Serif" font-size="10.00"> </text>
<polyline fill="none" stroke="black" points="309.5,-129.5 394.5,-129.5 "/>
<text text-anchor="middle" x="352" y="-117.5" font-family="Helvetica,sans-Serif" font-size="10.00"> </text>
</a>
</g>
</g>
<!-- Node5&#45;&gt;Node7 -->
<g id="edge7" class="edge"><title>Node5&#45;&gt;Node7</title>
<path fill="none" stroke="midnightblue" d="M412.816,-458.387C399.093,-386.543 369.44,-231.305 357.323,-167.866"/>
<polygon fill="none" stroke="midnightblue" points="409.407,-459.196 414.721,-468.362 416.282,-457.882 409.407,-459.196"/>
</g>
<!-- Node9 -->
<g id="node9" class="node"><title>Node9</title>
<g id="a_node9"><a xlink:href="classndt_1_1details_1_1_byte_order.html" target="_top" xlink:title=" ">
<polygon fill="white" stroke="black" points="412.5,-99.5 412.5,-178.5 527.5,-178.5 527.5,-99.5 412.5,-99.5"/>
<text text-anchor="start" x="420.5" y="-166.5" font-family="Helvetica,sans-Serif" font-size="10.00">ndt::details::ByteOrder</text>
<text text-anchor="middle" x="470" y="-155.5" font-family="Helvetica,sans-Serif" font-size="10.00">&lt; T, numBytes &gt;</text>
<polyline fill="none" stroke="black" points="412.5,-148.5 527.5,-148.5 "/>
<text text-anchor="middle" x="470" y="-136.5" font-family="Helvetica,sans-Serif" font-size="10.00"> </text>
<polyline fill="none" stroke="black" points="412.5,-129.5 527.5,-129.5 "/>
<text text-anchor="start" x="420.5" y="-117.5" font-family="Helvetica,sans-Serif" font-size="10.00">+ toHost()</text>
<text text-anchor="start" x="420.5" y="-106.5" font-family="Helvetica,sans-Serif" font-size="10.00">+ toNet()</text>
</a>
</g>
</g>
<!-- Node8&#45;&gt;Node9 -->
<g id="edge9" class="edge"><title>Node8&#45;&gt;Node9</title>
<path fill="none" stroke="#8b1a1a" d="M628.718,-459.257C606.141,-416.055 567.788,-342.104 536,-278 519.423,-244.571 501.162,-206.269 488.058,-178.511"/>
<polygon fill="none" stroke="#8b1a1a" points="625.688,-461.016 633.424,-468.254 631.891,-457.771 625.688,-461.016"/>
</g>
<!-- Node10 -->
<g id="node10" class="node"><title>Node10</title>
<g id="a_node10"><a xlink:href="classndt_1_1details_1_1_byte_order_3_01uint16__t_00_012_01_4.html" target="_top" xlink:title=" ">
<polygon fill="white" stroke="black" points="545.5,-99.5 545.5,-178.5 660.5,-178.5 660.5,-99.5 545.5,-99.5"/>
<text text-anchor="start" x="553.5" y="-166.5" font-family="Helvetica,sans-Serif" font-size="10.00">ndt::details::ByteOrder</text>
<text text-anchor="middle" x="603" y="-155.5" font-family="Helvetica,sans-Serif" font-size="10.00">&lt; uint16_t, 2 &gt;</text>
<polyline fill="none" stroke="black" points="545.5,-148.5 660.5,-148.5 "/>
<text text-anchor="middle" x="603" y="-136.5" font-family="Helvetica,sans-Serif" font-size="10.00"> </text>
<polyline fill="none" stroke="black" points="545.5,-129.5 660.5,-129.5 "/>
<text text-anchor="start" x="553.5" y="-117.5" font-family="Helvetica,sans-Serif" font-size="10.00">+ toHost()</text>
<text text-anchor="start" x="553.5" y="-106.5" font-family="Helvetica,sans-Serif" font-size="10.00">+ toNet()</text>
</a>
</g>
</g>
<!-- Node8&#45;&gt;Node10 -->
<g id="edge10" class="edge"><title>Node8&#45;&gt;Node10</title>
<path fill="none" stroke="#8b1a1a" d="M643.207,-458.083C634.592,-389.925 616.578,-247.416 607.891,-178.695"/>
<polygon fill="none" stroke="#8b1a1a" points="639.78,-458.879 644.506,-468.362 646.725,-458.002 639.78,-458.879"/>
</g>
<!-- Node11 -->
<g id="node11" class="node"><title>Node11</title>
<g id="a_node11"><a xlink:href="classndt_1_1details_1_1_byte_order_3_01uint32__t_00_014_01_4.html" target="_top" xlink:title=" ">
<polygon fill="white" stroke="black" points="678.5,-99.5 678.5,-178.5 793.5,-178.5 793.5,-99.5 678.5,-99.5"/>
<text text-anchor="start" x="686.5" y="-166.5" font-family="Helvetica,sans-Serif" font-size="10.00">ndt::details::ByteOrder</text>
<text text-anchor="middle" x="736" y="-155.5" font-family="Helvetica,sans-Serif" font-size="10.00">&lt; uint32_t, 4 &gt;</text>
<polyline fill="none" stroke="black" points="678.5,-148.5 793.5,-148.5 "/>
<text text-anchor="middle" x="736" y="-136.5" font-family="Helvetica,sans-Serif" font-size="10.00"> </text>
<polyline fill="none" stroke="black" points="678.5,-129.5 793.5,-129.5 "/>
<text text-anchor="start" x="686.5" y="-117.5" font-family="Helvetica,sans-Serif" font-size="10.00">+ toHost()</text>
<text text-anchor="start" x="686.5" y="-106.5" font-family="Helvetica,sans-Serif" font-size="10.00">+ toNet()</text>
</a>
</g>
</g>
<!-- Node8&#45;&gt;Node11 -->
<g id="edge11" class="edge"><title>Node8&#45;&gt;Node11</title>
<path fill="none" stroke="#8b1a1a" d="M657.269,-458.503C674.076,-390.511 709.413,-247.557 726.435,-178.695"/>
<polygon fill="none" stroke="#8b1a1a" points="653.834,-457.814 654.832,-468.362 660.629,-459.494 653.834,-457.814"/>
</g>
<!-- Node12 -->
<g id="node12" class="node"><title>Node12</title>
<g id="a_node12"><a xlink:href="classndt_1_1details_1_1_byte_order_3_01uint64__t_00_018_01_4.html" target="_top" xlink:title=" ">
<polygon fill="white" stroke="black" points="811.5,-99.5 811.5,-178.5 926.5,-178.5 926.5,-99.5 811.5,-99.5"/>
<text text-anchor="start" x="819.5" y="-166.5" font-family="Helvetica,sans-Serif" font-size="10.00">ndt::details::ByteOrder</text>
<text text-anchor="middle" x="869" y="-155.5" font-family="Helvetica,sans-Serif" font-size="10.00">&lt; uint64_t, 8 &gt;</text>
<polyline fill="none" stroke="black" points="811.5,-148.5 926.5,-148.5 "/>
<text text-anchor="middle" x="869" y="-136.5" font-family="Helvetica,sans-Serif" font-size="10.00"> </text>
<polyline fill="none" stroke="black" points="811.5,-129.5 926.5,-129.5 "/>
<text text-anchor="start" x="819.5" y="-117.5" font-family="Helvetica,sans-Serif" font-size="10.00">+ toHost()</text>
<text text-anchor="start" x="819.5" y="-106.5" font-family="Helvetica,sans-Serif" font-size="10.00">+ toNet()</text>
</a>
</g>
</g>
<!-- Node8&#45;&gt;Node12 -->
<g id="edge12" class="edge"><title>Node8&#45;&gt;Node12</title>
<path fill="none" stroke="#8b1a1a" d="M675.884,-460.404C708.279,-418.212 762.344,-345.142 802,-278 821.165,-245.552 839.613,-206.813 852.282,-178.651"/>
<polygon fill="none" stroke="#8b1a1a" points="673.038,-458.363 669.705,-468.42 678.582,-462.637 673.038,-458.363"/>
</g>
<!-- Node13 -->
<g id="node13" class="node"><title>Node13</title>
<g id="a_node13"><a xlink:href="classndt_1_1details_1_1_byte_order_3_01uint8__t_00_011_01_4.html" target="_top" xlink:title=" ">
<polygon fill="white" stroke="black" points="944.5,-99.5 944.5,-178.5 1059.5,-178.5 1059.5,-99.5 944.5,-99.5"/>
<text text-anchor="start" x="952.5" y="-166.5" font-family="Helvetica,sans-Serif" font-size="10.00">ndt::details::ByteOrder</text>
<text text-anchor="middle" x="1002" y="-155.5" font-family="Helvetica,sans-Serif" font-size="10.00">&lt; uint8_t, 1 &gt;</text>
<polyline fill="none" stroke="black" points="944.5,-148.5 1059.5,-148.5 "/>
<text text-anchor="middle" x="1002" y="-136.5" font-family="Helvetica,sans-Serif" font-size="10.00"> </text>
<polyline fill="none" stroke="black" points="944.5,-129.5 1059.5,-129.5 "/>
<text text-anchor="start" x="952.5" y="-117.5" font-family="Helvetica,sans-Serif" font-size="10.00">+ toHost()</text>
<text text-anchor="start" x="952.5" y="-106.5" font-family="Helvetica,sans-Serif" font-size="10.00">+ toNet()</text>
</a>
</g>
</g>
<!-- Node8&#45;&gt;Node13 -->
<g id="edge13" class="edge"><title>Node8&#45;&gt;Node13</title>
<path fill="none" stroke="#8b1a1a" d="M692.431,-462.353C772.715,-401.543 933.809,-279.453 935,-278 959.395,-248.236 977.597,-208.105 988.825,-178.793"/>
<polygon fill="none" stroke="#8b1a1a" points="690.314,-459.566 684.455,-468.394 694.54,-465.146 690.314,-459.566"/>
</g>
<!-- Node15 -->
<g id="node15" class="node"><title>Node15</title>
<g id="a_node15"><a xlink:href="classndt_1_1_socket.html" target="_top" xlink:title=" ">
<polygon fill="white" stroke="black" points="1078,-0.5 1078,-277.5 1186,-277.5 1186,-0.5 1078,-0.5"/>
<text text-anchor="start" x="1086" y="-265.5" font-family="Helvetica,sans-Serif" font-size="10.00">ndt::Socket&lt; FlagsT,</text>
<text text-anchor="middle" x="1132" y="-254.5" font-family="Helvetica,sans-Serif" font-size="10.00"> SysWrapperT &gt;</text>
<polyline fill="none" stroke="black" points="1078,-247.5 1186,-247.5 "/>
<text text-anchor="start" x="1086" y="-235.5" font-family="Helvetica,sans-Serif" font-size="10.00">&#45; flags_</text>
<polyline fill="none" stroke="black" points="1078,-228.5 1186,-228.5 "/>
<text text-anchor="start" x="1086" y="-216.5" font-family="Helvetica,sans-Serif" font-size="10.00">+ ~Socket()</text>
<text text-anchor="start" x="1086" y="-205.5" font-family="Helvetica,sans-Serif" font-size="10.00">+ Socket()</text>
<text text-anchor="start" x="1086" y="-194.5" font-family="Helvetica,sans-Serif" font-size="10.00">+ Socket()</text>
<text text-anchor="start" x="1086" y="-183.5" font-family="Helvetica,sans-Serif" font-size="10.00">+ operator=()</text>
<text text-anchor="start" x="1086" y="-172.5" font-family="Helvetica,sans-Serif" font-size="10.00">+ Socket()</text>
<text text-anchor="start" x="1086" y="-161.5" font-family="Helvetica,sans-Serif" font-size="10.00">+ Socket()</text>
<text text-anchor="start" x="1086" y="-150.5" font-family="Helvetica,sans-Serif" font-size="10.00">+ open()</text>
<text text-anchor="start" x="1086" y="-139.5" font-family="Helvetica,sans-Serif" font-size="10.00">+ open()</text>
<text text-anchor="start" x="1086" y="-128.5" font-family="Helvetica,sans-Serif" font-size="10.00">+ bind()</text>
<text text-anchor="start" x="1086" y="-117.5" font-family="Helvetica,sans-Serif" font-size="10.00">+ bind()</text>
<text text-anchor="start" x="1086" y="-106.5" font-family="Helvetica,sans-Serif" font-size="10.00">+ sendTo()</text>
<text text-anchor="start" x="1086" y="-95.5" font-family="Helvetica,sans-Serif" font-size="10.00">+ sendTo()</text>
<text text-anchor="start" x="1086" y="-84.5" font-family="Helvetica,sans-Serif" font-size="10.00">+ recvFrom()</text>
<text text-anchor="start" x="1086" y="-73.5" font-family="Helvetica,sans-Serif" font-size="10.00">+ recvFrom()</text>
<text text-anchor="start" x="1086" y="-62.5" font-family="Helvetica,sans-Serif" font-size="10.00">+ close()</text>
<text text-anchor="start" x="1086" y="-51.5" font-family="Helvetica,sans-Serif" font-size="10.00">+ close()</text>
<text text-anchor="start" x="1086" y="-40.5" font-family="Helvetica,sans-Serif" font-size="10.00">+ nonBlocking()</text>
<text text-anchor="start" x="1086" y="-29.5" font-family="Helvetica,sans-Serif" font-size="10.00">+ nonBlocking()</text>
<text text-anchor="start" x="1086" y="-18.5" font-family="Helvetica,sans-Serif" font-size="10.00">+ nonBlocking()</text>
<text text-anchor="start" x="1086" y="-7.5" font-family="Helvetica,sans-Serif" font-size="10.00">+ flags()</text>
</a>
</g>
</g>
<!-- Node14&#45;&gt;Node15 -->
<g id="edge15" class="edge"><title>Node14&#45;&gt;Node15</title>
<path fill="none" stroke="midnightblue" d="M1052.58,-327.251C1061.11,-307.126 1069.72,-286.843 1077.95,-267.435"/>
<polygon fill="none" stroke="midnightblue" points="1049.34,-325.91 1048.66,-336.483 1055.79,-328.644 1049.34,-325.91"/>
</g>
</g>
</svg>
        <g id="navigator" transform="translate(0 0)" fill="#404254">
                <rect fill="#f2f5e9" fill-opacity="0.5" stroke="#606060" stroke-width=".5" x="0" y="0" width="60" height="60"/>
                <use id="zoomplus" xlink:href="#zoomPlus" x="17" y="9" onmousedown="handleZoom(evt,'in')"/>
                <use id="zoomminus" xlink:href="#zoomMin" x="42" y="9" onmousedown="handleZoom(evt,'out')"/>
                <use id="reset" xlink:href="#resetDef" x="30" y="36" onmousedown="handleReset()"/>
                <g id="arrowUp" xlink:href="#dirArrow" transform="translate(30 24)" onmousedown="handlePan(0,-1)">
                  <use xlink:href="#rim" fill="#404040">
                        <set attributeName="fill" to="#808080" begin="arrowUp.mouseover" end="arrowUp.mouseout"/>
                  </use>
                  <path fill="none" stroke="white" stroke-width="1.5" d="M0,-3.0v7 M-2.5,-0.5L0,-3.0L2.5,-0.5"/>
                </g>
                <g id="arrowRight" xlink:href="#dirArrow" transform="rotate(90) translate(36 -43)" onmousedown="handlePan(1,0)">
                  <use xlink:href="#rim" fill="#404040">
                        <set attributeName="fill" to="#808080" begin="arrowRight.mouseover" end="arrowRight.mouseout"/>
                  </use>
                  <path fill="none" stroke="white" stroke-width="1.5" d="M0,-3.0v7 M-2.5,-0.5L0,-3.0L2.5,-0.5"/>
                </g>
                <g id="arrowDown" xlink:href="#dirArrow" transform="rotate(180) translate(-30 -48)" onmousedown="handlePan(0,1)">
                  <use xlink:href="#rim" fill="#404040">
                        <set attributeName="fill" to="#808080" begin="arrowDown.mouseover" end="arrowDown.mouseout"/>
                  </use>
                  <path fill="none" stroke="white" stroke-width="1.5" d="M0,-3.0v7 M-2.5,-0.5L0,-3.0L2.5,-0.5"/>
                </g>
                <g id="arrowLeft" xlink:href="#dirArrow" transform="rotate(270) translate(-36 17)" onmousedown="handlePan(-1,0)">
                  <use xlink:href="#rim" fill="#404040">
                        <set attributeName="fill" to="#808080" begin="arrowLeft.mouseover" end="arrowLeft.mouseout"/>
                  </use>
                  <path fill="none" stroke="white" stroke-width="1.5" d="M0,-3.0v7 M-2.5,-0.5L0,-3.0L2.5,-0.5"/>
                </g>
        </g>
        <svg viewBox="0 0 15 15" width="100%" height="30px" preserveAspectRatio="xMaxYMin meet">
         <g id="arrow_out" transform="scale(0.3 0.3)">
          <a xlink:href="structndt_1_1_no_copy_able__inherit__graph_org.svg" target="_base">
           <rect id="button" ry="5" rx="5" y="6" x="6" height="38" width="38"
                fill="#f2f5e9" fill-opacity="0.5" stroke="#606060" stroke-width="1.0"/>
           <path id="arrow"
             d="M 11.500037,31.436501 C 11.940474,20.09759 22.043105,11.32322 32.158766,21.979434 L 37.068811,17.246167 C 37.068811,17.246167 37.088388,32 37.088388,32 L 22.160133,31.978069 C 22.160133,31.978069 26.997745,27.140456 26.997745,27.140456 C 18.528582,18.264221 13.291696,25.230495 11.500037,31.436501 z"
             style="fill:#404040;"/>
          </a>
         </g>
        </svg>
</svg>
