<?xml version="1.0" encoding="UTF-8" standalone="no"?>
<!DOCTYPE svg PUBLIC "-//W3C//DTD SVG 1.1//EN"
 "http://www.w3.org/Graphics/SVG/1.1/DTD/svg11.dtd">
<!-- Generated by graphviz version 2.38.0 (20140413.2041)
 -->
<!-- Title: ndt::is_value&lt; Value&lt; T, Min&lt; MinV &gt;, Max&lt; MaxV &gt; &gt; &gt; Pages: 1 -->
<svg width="126pt" height="193pt"
 viewBox="0.00 0.00 126.00 193.00" xmlns="http://www.w3.org/2000/svg" xmlns:xlink="http://www.w3.org/1999/xlink">
<g id="graph0" class="graph" transform="scale(1 1) rotate(0) translate(4 189)">
<title>ndt::is_value&lt; Value&lt; T, Min&lt; MinV &gt;, Max&lt; MaxV &gt; &gt; &gt;</title>
<polygon fill="white" stroke="none" points="-4,4 -4,-189 122,-189 122,4 -4,4"/>
<!-- Node1 -->
<g id="node1" class="node"><title>Node1</title>
<g id="a_node1"><a xlink:title=" ">
<polygon fill="#bfbfbf" stroke="black" points="0,-0.5 0,-90.5 118,-90.5 118,-0.5 0,-0.5"/>
<text text-anchor="start" x="8" y="-78.5" font-family="Helvetica,sans-Serif" font-size="10.00">ndt::is_value&lt; Value</text>
<text text-anchor="start" x="8" y="-67.5" font-family="Helvetica,sans-Serif" font-size="10.00">&lt; T, Min&lt; MinV &gt;, Max</text>
<text text-anchor="middle" x="59" y="-56.5" font-family="Helvetica,sans-Serif" font-size="10.00">&lt; MaxV &gt; &gt; &gt;</text>
<polyline fill="none" stroke="black" points="0,-49.5 118,-49.5 "/>
<text text-anchor="start" x="8" y="-37.5" font-family="Helvetica,sans-Serif" font-size="10.00">+ min_value</text>
<text text-anchor="start" x="8" y="-26.5" font-family="Helvetica,sans-Serif" font-size="10.00">+ max_value</text>
<polyline fill="none" stroke="black" points="0,-19.5 118,-19.5 "/>
<text text-anchor="middle" x="59" y="-7.5" font-family="Helvetica,sans-Serif" font-size="10.00"> </text>
</a>
</g>
</g>
<!-- Node2 -->
<g id="node2" class="node"><title>Node2</title>
<g id="a_node2"><a xlink:title=" ">
<polygon fill="white" stroke="#bfbfbf" points="20.5,-127.5 20.5,-184.5 97.5,-184.5 97.5,-127.5 20.5,-127.5"/>
<text text-anchor="middle" x="59" y="-172.5" font-family="Helvetica,sans-Serif" font-size="10.00">std::true_type</text>
<polyline fill="none" stroke="#bfbfbf" points="20.5,-165.5 97.5,-165.5 "/>
<text text-anchor="middle" x="59" y="-153.5" font-family="Helvetica,sans-Serif" font-size="10.00"> </text>
<polyline fill="none" stroke="#bfbfbf" points="20.5,-146.5 97.5,-146.5 "/>
<text text-anchor="middle" x="59" y="-134.5" font-family="Helvetica,sans-Serif" font-size="10.00"> </text>
</a>
</g>
</g>
<!-- Node2&#45;&gt;Node1 -->
<g id="edge1" class="edge"><title>Node2&#45;&gt;Node1</title>
<path fill="none" stroke="midnightblue" d="M59,-117.214C59,-108.609 59,-99.3943 59,-90.5541"/>
<polygon fill="none" stroke="midnightblue" points="55.5001,-117.34 59,-127.34 62.5001,-117.34 55.5001,-117.34"/>
</g>
</g>
</svg>
