<?xml version="1.0" encoding="UTF-8" standalone="no"?>
<!DOCTYPE svg PUBLIC "-//W3C//DTD SVG 1.1//EN"
 "http://www.w3.org/Graphics/SVG/1.1/DTD/svg11.dtd">
<!-- Generated by graphviz version 2.38.0 (20140413.2041)
 -->
<!-- Title: std::is_error_code_enum&lt; ndt::eAddressErrorCode &gt; Pages: 1 -->
<svg width="176pt" height="171pt"
 viewBox="0.00 0.00 176.00 171.00" xmlns="http://www.w3.org/2000/svg" xmlns:xlink="http://www.w3.org/1999/xlink">
<g id="graph0" class="graph" transform="scale(1 1) rotate(0) translate(4 167)">
<title>std::is_error_code_enum&lt; ndt::eAddressErrorCode &gt;</title>
<polygon fill="white" stroke="none" points="-4,4 -4,-167 172,-167 172,4 -4,4"/>
<!-- Node1 -->
<g id="node1" class="node"><title>Node1</title>
<g id="a_node1"><a xlink:title=" ">
<polygon fill="#bfbfbf" stroke="black" points="0,-0.5 0,-68.5 168,-68.5 168,-0.5 0,-0.5"/>
<text text-anchor="start" x="8" y="-56.5" font-family="Helvetica,sans-Serif" font-size="10.00">std::is_error_code</text>
<text text-anchor="middle" x="84" y="-45.5" font-family="Helvetica,sans-Serif" font-size="10.00">_enum&lt; ndt::eAddressErrorCode &gt;</text>
<polyline fill="none" stroke="black" points="0,-38.5 168,-38.5 "/>
<text text-anchor="middle" x="84" y="-26.5" font-family="Helvetica,sans-Serif" font-size="10.00"> </text>
<polyline fill="none" stroke="black" points="0,-19.5 168,-19.5 "/>
<text text-anchor="middle" x="84" y="-7.5" font-family="Helvetica,sans-Serif" font-size="10.00"> </text>
</a>
</g>
</g>
<!-- Node2 -->
<g id="node2" class="node"><title>Node2</title>
<g id="a_node2"><a xlink:title=" ">
<polygon fill="white" stroke="#bfbfbf" points="45.5,-105.5 45.5,-162.5 122.5,-162.5 122.5,-105.5 45.5,-105.5"/>
<text text-anchor="middle" x="84" y="-150.5" font-family="Helvetica,sans-Serif" font-size="10.00">std::true_type</text>
<polyline fill="none" stroke="#bfbfbf" points="45.5,-143.5 122.5,-143.5 "/>
<text text-anchor="middle" x="84" y="-131.5" font-family="Helvetica,sans-Serif" font-size="10.00"> </text>
<polyline fill="none" stroke="#bfbfbf" points="45.5,-124.5 122.5,-124.5 "/>
<text text-anchor="middle" x="84" y="-112.5" font-family="Helvetica,sans-Serif" font-size="10.00"> </text>
</a>
</g>
</g>
<!-- Node2&#45;&gt;Node1 -->
<g id="edge1" class="edge"><title>Node2&#45;&gt;Node1</title>
<path fill="none" stroke="midnightblue" d="M84,-95.0631C84,-86.3933 84,-77.2431 84,-68.7855"/>
<polygon fill="none" stroke="midnightblue" points="80.5001,-95.3212 84,-105.321 87.5001,-95.3212 80.5001,-95.3212"/>
</g>
</g>
</svg>
