<?xml version="1.0" encoding="UTF-8" standalone="no"?>
<!DOCTYPE svg PUBLIC "-//W3C//DTD SVG 1.1//EN"
 "http://www.w3.org/Graphics/SVG/1.1/DTD/svg11.dtd">
<!-- Generated by graphviz version 2.38.0 (20140413.2041)
 -->
<!-- Title: ndt::NoMoveAble Pages: 1 -->
<svg width="847pt" height="309pt"
 viewBox="0.00 0.00 846.50 309.00" xmlns="http://www.w3.org/2000/svg" xmlns:xlink="http://www.w3.org/1999/xlink">
<g id="graph0" class="graph" transform="scale(1 1) rotate(0) translate(4 305)">
<title>ndt::NoMoveAble</title>
<polygon fill="white" stroke="none" points="-4,4 -4,-305 842.5,-305 842.5,4 -4,4"/>
<!-- Node1 -->
<g id="node1" class="node"><title>Node1</title>
<g id="a_node1"><a xlink:title=" ">
<polygon fill="#bfbfbf" stroke="black" points="210,-210.5 210,-300.5 302,-300.5 302,-210.5 210,-210.5"/>
<text text-anchor="middle" x="256" y="-288.5" font-family="Helvetica,sans-Serif" font-size="10.00">ndt::NoMoveAble</text>
<polyline fill="none" stroke="black" points="210,-281.5 302,-281.5 "/>
<text text-anchor="middle" x="256" y="-269.5" font-family="Helvetica,sans-Serif" font-size="10.00"> </text>
<polyline fill="none" stroke="black" points="210,-262.5 302,-262.5 "/>
<text text-anchor="start" x="218" y="-250.5" font-family="Helvetica,sans-Serif" font-size="10.00">+ NoMoveAble()</text>
<text text-anchor="start" x="218" y="-239.5" font-family="Helvetica,sans-Serif" font-size="10.00">+ ~NoMoveAble()</text>
<text text-anchor="start" x="218" y="-228.5" font-family="Helvetica,sans-Serif" font-size="10.00">+ NoMoveAble()</text>
<text text-anchor="start" x="218" y="-217.5" font-family="Helvetica,sans-Serif" font-size="10.00">+ operator=()</text>
</a>
</g>
</g>
<!-- Node2 -->
<g id="node2" class="node"><title>Node2</title>
<g id="a_node2"><a xlink:href="structndt_1_1_no_constructible_no_destructible.html" target="_top" xlink:title=" ">
<polygon fill="white" stroke="black" points="46.5,-116.5 46.5,-173.5 215.5,-173.5 215.5,-116.5 46.5,-116.5"/>
<text text-anchor="middle" x="131" y="-161.5" font-family="Helvetica,sans-Serif" font-size="10.00">ndt::NoConstructibleNoDestructible</text>
<polyline fill="none" stroke="black" points="46.5,-154.5 215.5,-154.5 "/>
<text text-anchor="middle" x="131" y="-142.5" font-family="Helvetica,sans-Serif" font-size="10.00"> </text>
<polyline fill="none" stroke="black" points="46.5,-135.5 215.5,-135.5 "/>
<text text-anchor="middle" x="131" y="-123.5" font-family="Helvetica,sans-Serif" font-size="10.00"> </text>
</a>
</g>
</g>
<!-- Node1&#45;&gt;Node2 -->
<g id="edge1" class="edge"><title>Node1&#45;&gt;Node2</title>
<path fill="none" stroke="midnightblue" d="M202.044,-207.666C188.718,-196.099 174.864,-184.074 162.967,-173.748"/>
<polygon fill="none" stroke="midnightblue" points="199.964,-210.495 209.81,-214.407 204.552,-205.209 199.964,-210.495"/>
</g>
<!-- Node5 -->
<g id="node5" class="node"><title>Node5</title>
<g id="a_node5"><a xlink:href="structndt_1_1_no_copy_move_def_constructible.html" target="_top" xlink:title=" ">
<polygon fill="white" stroke="black" points="366,-116.5 366,-173.5 530,-173.5 530,-116.5 366,-116.5"/>
<text text-anchor="middle" x="448" y="-161.5" font-family="Helvetica,sans-Serif" font-size="10.00">ndt::NoCopyMoveDefConstructible</text>
<polyline fill="none" stroke="black" points="366,-154.5 530,-154.5 "/>
<text text-anchor="middle" x="448" y="-142.5" font-family="Helvetica,sans-Serif" font-size="10.00"> </text>
<polyline fill="none" stroke="black" points="366,-135.5 530,-135.5 "/>
<text text-anchor="middle" x="448" y="-123.5" font-family="Helvetica,sans-Serif" font-size="10.00"> </text>
</a>
</g>
</g>
<!-- Node1&#45;&gt;Node5 -->
<g id="edge4" class="edge"><title>Node1&#45;&gt;Node5</title>
<path fill="none" stroke="midnightblue" d="M311.289,-223.256C339.078,-207.552 372.454,-188.692 399.271,-173.537"/>
<polygon fill="none" stroke="midnightblue" points="309.462,-220.268 302.478,-228.235 312.906,-226.362 309.462,-220.268"/>
</g>
<!-- Node3 -->
<g id="node3" class="node"><title>Node3</title>
<g id="a_node3"><a xlink:href="classndt_1_1_file_ops.html" target="_top" xlink:title=" ">
<polygon fill="white" stroke="black" points="0,-11.5 0,-68.5 70,-68.5 70,-11.5 0,-11.5"/>
<text text-anchor="middle" x="35" y="-56.5" font-family="Helvetica,sans-Serif" font-size="10.00">ndt::FileOps</text>
<polyline fill="none" stroke="black" points="0,-49.5 70,-49.5 "/>
<text text-anchor="middle" x="35" y="-37.5" font-family="Helvetica,sans-Serif" font-size="10.00"> </text>
<polyline fill="none" stroke="black" points="0,-30.5 70,-30.5 "/>
<text text-anchor="middle" x="35" y="-18.5" font-family="Helvetica,sans-Serif" font-size="10.00"> </text>
</a>
</g>
</g>
<!-- Node2&#45;&gt;Node3 -->
<g id="edge2" class="edge"><title>Node2&#45;&gt;Node3</title>
<path fill="none" stroke="midnightblue" d="M98.2683,-108.882C86.033,-95.7542 72.3204,-81.0416 60.7973,-68.6783"/>
<polygon fill="none" stroke="midnightblue" points="95.8953,-111.469 105.274,-116.398 101.016,-106.696 95.8953,-111.469"/>
</g>
<!-- Node4 -->
<g id="node4" class="node"><title>Node4</title>
<g id="a_node4"><a xlink:href="classndt_1_1_socket_ops.html" target="_top" xlink:title=" ">
<polygon fill="white" stroke="black" points="88.5,-11.5 88.5,-68.5 173.5,-68.5 173.5,-11.5 88.5,-11.5"/>
<text text-anchor="middle" x="131" y="-56.5" font-family="Helvetica,sans-Serif" font-size="10.00">ndt::SocketOps</text>
<polyline fill="none" stroke="black" points="88.5,-49.5 173.5,-49.5 "/>
<text text-anchor="middle" x="131" y="-37.5" font-family="Helvetica,sans-Serif" font-size="10.00"> </text>
<polyline fill="none" stroke="black" points="88.5,-30.5 173.5,-30.5 "/>
<text text-anchor="middle" x="131" y="-18.5" font-family="Helvetica,sans-Serif" font-size="10.00"> </text>
</a>
</g>
</g>
<!-- Node2&#45;&gt;Node4 -->
<g id="edge3" class="edge"><title>Node2&#45;&gt;Node4</title>
<path fill="none" stroke="midnightblue" d="M131,-106.286C131,-93.8392 131,-80.2328 131,-68.6783"/>
<polygon fill="none" stroke="midnightblue" points="127.5,-106.398 131,-116.398 134.5,-106.398 127.5,-106.398"/>
</g>
<!-- Node6 -->
<g id="node6" class="node"><title>Node6</title>
<g id="a_node6"><a xlink:href="classndt_1_1details_1_1_byte_order.html" target="_top" xlink:title=" ">
<polygon fill="white" stroke="black" points="191.5,-0.5 191.5,-79.5 306.5,-79.5 306.5,-0.5 191.5,-0.5"/>
<text text-anchor="start" x="199.5" y="-67.5" font-family="Helvetica,sans-Serif" font-size="10.00">ndt::details::ByteOrder</text>
<text text-anchor="middle" x="249" y="-56.5" font-family="Helvetica,sans-Serif" font-size="10.00">&lt; T, numBytes &gt;</text>
<polyline fill="none" stroke="black" points="191.5,-49.5 306.5,-49.5 "/>
<text text-anchor="middle" x="249" y="-37.5" font-family="Helvetica,sans-Serif" font-size="10.00"> </text>
<polyline fill="none" stroke="black" points="191.5,-30.5 306.5,-30.5 "/>
<text text-anchor="start" x="199.5" y="-18.5" font-family="Helvetica,sans-Serif" font-size="10.00">+ toHost()</text>
<text text-anchor="start" x="199.5" y="-7.5" font-family="Helvetica,sans-Serif" font-size="10.00">+ toNet()</text>
</a>
</g>
</g>
<!-- Node5&#45;&gt;Node6 -->
<g id="edge5" class="edge"><title>Node5&#45;&gt;Node6</title>
<path fill="none" stroke="#8b1a1a" d="M378.817,-112.083C358.109,-102.162 335.471,-90.9478 315,-80 312.301,-78.5564 309.554,-77.0573 306.789,-75.5245"/>
<polygon fill="none" stroke="#8b1a1a" points="377.337,-115.255 387.87,-116.397 380.348,-108.936 377.337,-115.255"/>
</g>
<!-- Node7 -->
<g id="node7" class="node"><title>Node7</title>
<g id="a_node7"><a xlink:href="classndt_1_1details_1_1_byte_order_3_01uint16__t_00_012_01_4.html" target="_top" xlink:title=" ">
<polygon fill="white" stroke="black" points="324.5,-0.5 324.5,-79.5 439.5,-79.5 439.5,-0.5 324.5,-0.5"/>
<text text-anchor="start" x="332.5" y="-67.5" font-family="Helvetica,sans-Serif" font-size="10.00">ndt::details::ByteOrder</text>
<text text-anchor="middle" x="382" y="-56.5" font-family="Helvetica,sans-Serif" font-size="10.00">&lt; uint16_t, 2 &gt;</text>
<polyline fill="none" stroke="black" points="324.5,-49.5 439.5,-49.5 "/>
<text text-anchor="middle" x="382" y="-37.5" font-family="Helvetica,sans-Serif" font-size="10.00"> </text>
<polyline fill="none" stroke="black" points="324.5,-30.5 439.5,-30.5 "/>
<text text-anchor="start" x="332.5" y="-18.5" font-family="Helvetica,sans-Serif" font-size="10.00">+ toHost()</text>
<text text-anchor="start" x="332.5" y="-7.5" font-family="Helvetica,sans-Serif" font-size="10.00">+ toNet()</text>
</a>
</g>
</g>
<!-- Node5&#45;&gt;Node7 -->
<g id="edge6" class="edge"><title>Node5&#45;&gt;Node7</title>
<path fill="none" stroke="#8b1a1a" d="M424.846,-107.866C418.969,-98.6942 412.633,-88.8062 406.683,-79.5205"/>
<polygon fill="none" stroke="#8b1a1a" points="421.971,-109.866 430.313,-116.398 427.865,-106.09 421.971,-109.866"/>
</g>
<!-- Node8 -->
<g id="node8" class="node"><title>Node8</title>
<g id="a_node8"><a xlink:href="classndt_1_1details_1_1_byte_order_3_01uint32__t_00_014_01_4.html" target="_top" xlink:title=" ">
<polygon fill="white" stroke="black" points="457.5,-0.5 457.5,-79.5 572.5,-79.5 572.5,-0.5 457.5,-0.5"/>
<text text-anchor="start" x="465.5" y="-67.5" font-family="Helvetica,sans-Serif" font-size="10.00">ndt::details::ByteOrder</text>
<text text-anchor="middle" x="515" y="-56.5" font-family="Helvetica,sans-Serif" font-size="10.00">&lt; uint32_t, 4 &gt;</text>
<polyline fill="none" stroke="black" points="457.5,-49.5 572.5,-49.5 "/>
<text text-anchor="middle" x="515" y="-37.5" font-family="Helvetica,sans-Serif" font-size="10.00"> </text>
<polyline fill="none" stroke="black" points="457.5,-30.5 572.5,-30.5 "/>
<text text-anchor="start" x="465.5" y="-18.5" font-family="Helvetica,sans-Serif" font-size="10.00">+ toHost()</text>
<text text-anchor="start" x="465.5" y="-7.5" font-family="Helvetica,sans-Serif" font-size="10.00">+ toNet()</text>
</a>
</g>
</g>
<!-- Node5&#45;&gt;Node8 -->
<g id="edge7" class="edge"><title>Node5&#45;&gt;Node8</title>
<path fill="none" stroke="#8b1a1a" d="M471.504,-107.866C477.471,-98.6942 483.903,-88.8062 489.943,-79.5205"/>
<polygon fill="none" stroke="#8b1a1a" points="468.474,-106.107 465.955,-116.398 474.341,-109.924 468.474,-106.107"/>
</g>
<!-- Node9 -->
<g id="node9" class="node"><title>Node9</title>
<g id="a_node9"><a xlink:href="classndt_1_1details_1_1_byte_order_3_01uint64__t_00_018_01_4.html" target="_top" xlink:title=" ">
<polygon fill="white" stroke="black" points="590.5,-0.5 590.5,-79.5 705.5,-79.5 705.5,-0.5 590.5,-0.5"/>
<text text-anchor="start" x="598.5" y="-67.5" font-family="Helvetica,sans-Serif" font-size="10.00">ndt::details::ByteOrder</text>
<text text-anchor="middle" x="648" y="-56.5" font-family="Helvetica,sans-Serif" font-size="10.00">&lt; uint64_t, 8 &gt;</text>
<polyline fill="none" stroke="black" points="590.5,-49.5 705.5,-49.5 "/>
<text text-anchor="middle" x="648" y="-37.5" font-family="Helvetica,sans-Serif" font-size="10.00"> </text>
<polyline fill="none" stroke="black" points="590.5,-30.5 705.5,-30.5 "/>
<text text-anchor="start" x="598.5" y="-18.5" font-family="Helvetica,sans-Serif" font-size="10.00">+ toHost()</text>
<text text-anchor="start" x="598.5" y="-7.5" font-family="Helvetica,sans-Serif" font-size="10.00">+ toNet()</text>
</a>
</g>
</g>
<!-- Node5&#45;&gt;Node9 -->
<g id="edge8" class="edge"><title>Node5&#45;&gt;Node9</title>
<path fill="none" stroke="#8b1a1a" d="M517.719,-112.129C538.584,-102.21 561.388,-90.9846 582,-80 584.701,-78.5603 587.45,-77.0645 590.216,-75.5343"/>
<polygon fill="none" stroke="#8b1a1a" points="516.142,-109.003 508.598,-116.442 519.134,-115.332 516.142,-109.003"/>
</g>
<!-- Node10 -->
<g id="node10" class="node"><title>Node10</title>
<g id="a_node10"><a xlink:href="classndt_1_1details_1_1_byte_order_3_01uint8__t_00_011_01_4.html" target="_top" xlink:title=" ">
<polygon fill="white" stroke="black" points="723.5,-0.5 723.5,-79.5 838.5,-79.5 838.5,-0.5 723.5,-0.5"/>
<text text-anchor="start" x="731.5" y="-67.5" font-family="Helvetica,sans-Serif" font-size="10.00">ndt::details::ByteOrder</text>
<text text-anchor="middle" x="781" y="-56.5" font-family="Helvetica,sans-Serif" font-size="10.00">&lt; uint8_t, 1 &gt;</text>
<polyline fill="none" stroke="black" points="723.5,-49.5 838.5,-49.5 "/>
<text text-anchor="middle" x="781" y="-37.5" font-family="Helvetica,sans-Serif" font-size="10.00"> </text>
<polyline fill="none" stroke="black" points="723.5,-30.5 838.5,-30.5 "/>
<text text-anchor="start" x="731.5" y="-18.5" font-family="Helvetica,sans-Serif" font-size="10.00">+ toHost()</text>
<text text-anchor="start" x="731.5" y="-7.5" font-family="Helvetica,sans-Serif" font-size="10.00">+ toNet()</text>
</a>
</g>
</g>
<!-- Node5&#45;&gt;Node10 -->
<g id="edge9" class="edge"><title>Node5&#45;&gt;Node10</title>
<path fill="none" stroke="#8b1a1a" d="M540.24,-128.937C592.669,-118.65 658.855,-102.717 715,-80 717.714,-78.9017 720.449,-77.7042 723.182,-76.4326"/>
<polygon fill="none" stroke="#8b1a1a" points="539.438,-125.527 530.281,-130.856 540.763,-132.4 539.438,-125.527"/>
</g>
</g>
</svg>
