<?xml version="1.0" encoding="UTF-8" standalone="no"?>
<!DOCTYPE svg PUBLIC "-//W3C//DTD SVG 1.1//EN"
 "http://www.w3.org/Graphics/SVG/1.1/DTD/svg11.dtd">
<!-- Generated by graphviz version 2.38.0 (20140413.2041)
 -->
<!-- Title: C:/projects/ndt/sources/include/ndt/sys_socket_ops.h Pages: 1 -->
<svg width="798pt" height="552pt"
 viewBox="0.00 0.00 798.00 552.00" xmlns="http://www.w3.org/2000/svg" xmlns:xlink="http://www.w3.org/1999/xlink">
<g id="graph0" class="graph" transform="scale(1 1) rotate(0) translate(4 548)">
<title>C:/projects/ndt/sources/include/ndt/sys_socket_ops.h</title>
<polygon fill="white" stroke="none" points="-4,4 -4,-548 794,-548 794,4 -4,4"/>
<!-- Node1 -->
<g id="node1" class="node"><title>Node1</title>
<g id="a_node1"><a xlink:title=" ">
<polygon fill="#bfbfbf" stroke="black" points="561.5,-513.5 561.5,-543.5 710.5,-543.5 710.5,-513.5 561.5,-513.5"/>
<text text-anchor="start" x="569.5" y="-531.5" font-family="Helvetica,sans-Serif" font-size="10.00">C:/projects/ndt/sources</text>
<text text-anchor="middle" x="636" y="-520.5" font-family="Helvetica,sans-Serif" font-size="10.00">/include/ndt/sys_socket_ops.h</text>
</a>
</g>
</g>
<!-- Node2 -->
<g id="node2" class="node"><title>Node2</title>
<g id="a_node2"><a xlink:href="address_8h.html" target="_top" xlink:title=" ">
<polygon fill="white" stroke="black" points="258,-446.5 258,-476.5 376,-476.5 376,-446.5 258,-446.5"/>
<text text-anchor="start" x="266" y="-464.5" font-family="Helvetica,sans-Serif" font-size="10.00">C:/projects/ndt/sources</text>
<text text-anchor="middle" x="317" y="-453.5" font-family="Helvetica,sans-Serif" font-size="10.00">/include/ndt/address.h</text>
</a>
</g>
</g>
<!-- Node1&#45;&gt;Node2 -->
<g id="edge1" class="edge"><title>Node1&#45;&gt;Node2</title>
<path fill="none" stroke="midnightblue" d="M557.282,-511.46C501.225,-500.038 427.082,-484.93 376.059,-474.534"/>
<polygon fill="midnightblue" stroke="midnightblue" points="556.677,-514.909 567.174,-513.476 558.075,-508.05 556.677,-514.909"/>
</g>
<!-- Node3 -->
<g id="node3" class="node"><title>Node3</title>
<g id="a_node3"><a xlink:href="core_8h.html" target="_top" xlink:title=" ">
<polygon fill="white" stroke="black" points="98,-0.5 98,-30.5 216,-30.5 216,-0.5 98,-0.5"/>
<text text-anchor="start" x="106" y="-18.5" font-family="Helvetica,sans-Serif" font-size="10.00">C:/projects/ndt/sources</text>
<text text-anchor="middle" x="157" y="-7.5" font-family="Helvetica,sans-Serif" font-size="10.00">/include/ndt/core.h</text>
</a>
</g>
</g>
<!-- Node1&#45;&gt;Node3 -->
<g id="edge20" class="edge"><title>Node1&#45;&gt;Node3</title>
<path fill="none" stroke="midnightblue" d="M636,-502.989C636,-476.487 636,-432.997 636,-395.5 636,-395.5 636,-395.5 636,-165 636,-78.0444 344.372,-36.3763 216.215,-22.2634"/>
<polygon fill="midnightblue" stroke="midnightblue" points="632.5,-503.241 636,-513.241 639.5,-503.241 632.5,-503.241"/>
</g>
<!-- Node14 -->
<g id="node14" class="node"><title>Node14</title>
<g id="a_node14"><a xlink:href="sys__socket__ops_8cpp.html" target="_top" xlink:title=" ">
<polygon fill="white" stroke="black" points="664,-446.5 664,-476.5 790,-476.5 790,-446.5 664,-446.5"/>
<text text-anchor="start" x="672" y="-464.5" font-family="Helvetica,sans-Serif" font-size="10.00">C:/projects/ndt/sources</text>
<text text-anchor="middle" x="727" y="-453.5" font-family="Helvetica,sans-Serif" font-size="10.00">/src/sys_socket_ops.cpp</text>
</a>
</g>
</g>
<!-- Node1&#45;&gt;Node14 -->
<g id="edge21" class="edge"><title>Node1&#45;&gt;Node14</title>
<path fill="none" stroke="midnightblue" d="M664.068,-507.451C678.068,-497.452 694.661,-485.6 707.293,-476.577"/>
<polygon fill="midnightblue" stroke="midnightblue" points="661.849,-504.735 655.746,-513.396 665.917,-510.432 661.849,-504.735"/>
</g>
<!-- Node2&#45;&gt;Node3 -->
<g id="edge2" class="edge"><title>Node2&#45;&gt;Node3</title>
<path fill="none" stroke="midnightblue" d="M247.521,-459.771C154.216,-454.699 0,-430.114 0,-323 0,-323 0,-323 0,-165 0,-115.693 16.452,-101.169 52,-67 68.9895,-50.6693 92.261,-38.7438 112.578,-30.596"/>
<polygon fill="midnightblue" stroke="midnightblue" points="247.59,-463.278 257.747,-460.262 247.926,-456.286 247.59,-463.278"/>
</g>
<!-- Node4 -->
<g id="node4" class="node"><title>Node4</title>
<g id="a_node4"><a xlink:href="socket_8h.html" target="_top" xlink:title=" ">
<polygon fill="white" stroke="black" points="190,-379.5 190,-409.5 308,-409.5 308,-379.5 190,-379.5"/>
<text text-anchor="start" x="198" y="-397.5" font-family="Helvetica,sans-Serif" font-size="10.00">C:/projects/ndt/sources</text>
<text text-anchor="middle" x="249" y="-386.5" font-family="Helvetica,sans-Serif" font-size="10.00">/include/ndt/socket.h</text>
</a>
</g>
</g>
<!-- Node2&#45;&gt;Node4 -->
<g id="edge3" class="edge"><title>Node2&#45;&gt;Node4</title>
<path fill="none" stroke="midnightblue" d="M294.834,-439.311C284.633,-429.561 272.809,-418.259 263.726,-409.577"/>
<polygon fill="midnightblue" stroke="midnightblue" points="292.598,-442.016 302.245,-446.396 297.435,-436.956 292.598,-442.016"/>
</g>
<!-- Node13 -->
<g id="node13" class="node"><title>Node13</title>
<g id="a_node13"><a xlink:href="address_8cpp.html" target="_top" xlink:title=" ">
<polygon fill="white" stroke="black" points="326,-379.5 326,-409.5 444,-409.5 444,-379.5 326,-379.5"/>
<text text-anchor="start" x="334" y="-397.5" font-family="Helvetica,sans-Serif" font-size="10.00">C:/projects/ndt/sources</text>
<text text-anchor="middle" x="385" y="-386.5" font-family="Helvetica,sans-Serif" font-size="10.00">/src/address.cpp</text>
</a>
</g>
</g>
<!-- Node2&#45;&gt;Node13 -->
<g id="edge19" class="edge"><title>Node2&#45;&gt;Node13</title>
<path fill="none" stroke="midnightblue" d="M339.166,-439.311C349.367,-429.561 361.191,-418.259 370.274,-409.577"/>
<polygon fill="midnightblue" stroke="midnightblue" points="336.565,-436.956 331.755,-446.396 341.402,-442.016 336.565,-436.956"/>
</g>
<!-- Node4&#45;&gt;Node3 -->
<g id="edge4" class="edge"><title>Node4&#45;&gt;Node3</title>
<path fill="none" stroke="midnightblue" d="M181.07,-376.371C119.389,-356.256 38,-316.221 38,-245 38,-245 38,-245 38,-165 38,-104.045 99.8101,-53.8182 134.337,-30.5166"/>
<polygon fill="midnightblue" stroke="midnightblue" points="180.195,-379.765 190.785,-379.43 182.298,-373.088 180.195,-379.765"/>
</g>
<!-- Node5 -->
<g id="node5" class="node"><title>Node5</title>
<g id="a_node5"><a xlink:href="executor__select__base_8h.html" target="_top" xlink:title=" ">
<polygon fill="white" stroke="black" points="190,-301.5 190,-342.5 308,-342.5 308,-301.5 190,-301.5"/>
<text text-anchor="start" x="198" y="-330.5" font-family="Helvetica,sans-Serif" font-size="10.00">C:/projects/ndt/sources</text>
<text text-anchor="start" x="198" y="-319.5" font-family="Helvetica,sans-Serif" font-size="10.00">/include/ndt/executor</text>
<text text-anchor="middle" x="249" y="-308.5" font-family="Helvetica,sans-Serif" font-size="10.00">_select_base.h</text>
</a>
</g>
</g>
<!-- Node4&#45;&gt;Node5 -->
<g id="edge5" class="edge"><title>Node4&#45;&gt;Node5</title>
<path fill="none" stroke="midnightblue" d="M249,-368.982C249,-360.347 249,-350.762 249,-342.588"/>
<polygon fill="midnightblue" stroke="midnightblue" points="245.5,-369.233 249,-379.233 252.5,-369.233 245.5,-369.233"/>
</g>
<!-- Node11 -->
<g id="node11" class="node"><title>Node11</title>
<g id="a_node11"><a xlink:href="udp_8h.html" target="_top" xlink:title=" ">
<polygon fill="white" stroke="black" points="403,-307 403,-337 521,-337 521,-307 403,-307"/>
<text text-anchor="start" x="411" y="-325" font-family="Helvetica,sans-Serif" font-size="10.00">C:/projects/ndt/sources</text>
<text text-anchor="middle" x="462" y="-314" font-family="Helvetica,sans-Serif" font-size="10.00">/include/ndt/udp.h</text>
</a>
</g>
</g>
<!-- Node4&#45;&gt;Node11 -->
<g id="edge16" class="edge"><title>Node4&#45;&gt;Node11</title>
<path fill="none" stroke="midnightblue" d="M301.254,-376.205C337.571,-364.184 385.368,-348.364 419.379,-337.107"/>
<polygon fill="midnightblue" stroke="midnightblue" points="299.73,-373.022 291.337,-379.487 301.93,-379.668 299.73,-373.022"/>
</g>
<!-- Node5&#45;&gt;Node3 -->
<g id="edge6" class="edge"><title>Node5&#45;&gt;Node3</title>
<path fill="none" stroke="midnightblue" d="M179.949,-313.733C148.603,-306.591 114.293,-292.544 95,-265 41.5579,-188.701 117.108,-70.8584 146.317,-30.5659"/>
<polygon fill="midnightblue" stroke="midnightblue" points="179.497,-317.214 189.999,-315.817 180.918,-310.359 179.497,-317.214"/>
</g>
<!-- Node6 -->
<g id="node6" class="node"><title>Node6</title>
<g id="a_node6"><a xlink:href="nix_2executor__select__impl_8h.html" target="_top" xlink:title=" ">
<polygon fill="white" stroke="black" points="104,-223.5 104,-264.5 240,-264.5 240,-223.5 104,-223.5"/>
<text text-anchor="start" x="112" y="-252.5" font-family="Helvetica,sans-Serif" font-size="10.00">C:/projects/ndt/sources</text>
<text text-anchor="start" x="112" y="-241.5" font-family="Helvetica,sans-Serif" font-size="10.00">/include/ndt/platform</text>
<text text-anchor="middle" x="172" y="-230.5" font-family="Helvetica,sans-Serif" font-size="10.00">/nix/executor_select_impl.h</text>
</a>
</g>
</g>
<!-- Node5&#45;&gt;Node6 -->
<g id="edge7" class="edge"><title>Node5&#45;&gt;Node6</title>
<path fill="none" stroke="midnightblue" d="M221.851,-294.204C211.935,-284.416 200.914,-273.539 191.762,-264.506"/>
<polygon fill="midnightblue" stroke="midnightblue" points="219.595,-296.894 229.171,-301.428 224.512,-291.912 219.595,-296.894"/>
</g>
<!-- Node10 -->
<g id="node10" class="node"><title>Node10</title>
<g id="a_node10"><a xlink:href="win_2executor__select__impl_8h.html" target="_top" xlink:title=" ">
<polygon fill="white" stroke="black" points="258.5,-223.5 258.5,-264.5 395.5,-264.5 395.5,-223.5 258.5,-223.5"/>
<text text-anchor="start" x="266.5" y="-252.5" font-family="Helvetica,sans-Serif" font-size="10.00">C:/projects/ndt/sources</text>
<text text-anchor="start" x="266.5" y="-241.5" font-family="Helvetica,sans-Serif" font-size="10.00">/include/ndt/platform</text>
<text text-anchor="middle" x="327" y="-230.5" font-family="Helvetica,sans-Serif" font-size="10.00">/win/executor_select_impl.h</text>
</a>
</g>
</g>
<!-- Node5&#45;&gt;Node10 -->
<g id="edge15" class="edge"><title>Node5&#45;&gt;Node10</title>
<path fill="none" stroke="midnightblue" d="M276.501,-294.204C286.547,-284.416 297.71,-273.539 306.981,-264.506"/>
<polygon fill="midnightblue" stroke="midnightblue" points="273.807,-291.943 269.087,-301.428 278.692,-296.956 273.807,-291.943"/>
</g>
<!-- Node7 -->
<g id="node7" class="node"><title>Node7</title>
<g id="a_node7"><a xlink:href="executor__select_8h.html" target="_top" xlink:title=" ">
<polygon fill="white" stroke="black" points="127,-145.5 127,-186.5 245,-186.5 245,-145.5 127,-145.5"/>
<text text-anchor="start" x="135" y="-174.5" font-family="Helvetica,sans-Serif" font-size="10.00">C:/projects/ndt/sources</text>
<text text-anchor="start" x="135" y="-163.5" font-family="Helvetica,sans-Serif" font-size="10.00">/include/ndt/executor</text>
<text text-anchor="middle" x="186" y="-152.5" font-family="Helvetica,sans-Serif" font-size="10.00">_select.h</text>
</a>
</g>
</g>
<!-- Node6&#45;&gt;Node7 -->
<g id="edge8" class="edge"><title>Node6&#45;&gt;Node7</title>
<path fill="none" stroke="midnightblue" d="M177.418,-213.59C179.09,-204.511 180.89,-194.742 182.407,-186.506"/>
<polygon fill="midnightblue" stroke="midnightblue" points="173.975,-212.959 175.605,-223.428 180.859,-214.228 173.975,-212.959"/>
</g>
<!-- Node7&#45;&gt;Node3 -->
<g id="edge11" class="edge"><title>Node7&#45;&gt;Node3</title>
<path fill="none" stroke="midnightblue" d="M152.946,-138.268C144.878,-129.844 137.328,-119.869 133,-109 122.321,-82.18 137.246,-49.0858 147.903,-30.6365"/>
<polygon fill="midnightblue" stroke="midnightblue" points="150.501,-140.773 160.101,-145.256 155.392,-135.765 150.501,-140.773"/>
</g>
<!-- Node8 -->
<g id="node8" class="node"><title>Node8</title>
<g id="a_node8"><a xlink:href="context_8h.html" target="_top" xlink:title=" ">
<polygon fill="white" stroke="black" points="142,-73 142,-103 260,-103 260,-73 142,-73"/>
<text text-anchor="start" x="150" y="-91" font-family="Helvetica,sans-Serif" font-size="10.00">C:/projects/ndt/sources</text>
<text text-anchor="middle" x="201" y="-80" font-family="Helvetica,sans-Serif" font-size="10.00">/include/ndt/context.h</text>
</a>
</g>
</g>
<!-- Node7&#45;&gt;Node8 -->
<g id="edge9" class="edge"><title>Node7&#45;&gt;Node8</title>
<path fill="none" stroke="midnightblue" d="M191.865,-135.283C194.042,-124.254 196.412,-112.246 198.192,-103.225"/>
<polygon fill="midnightblue" stroke="midnightblue" points="188.366,-134.94 189.863,-145.428 195.233,-136.295 188.366,-134.94"/>
</g>
<!-- Node9 -->
<g id="node9" class="node"><title>Node9</title>
<g id="a_node9"><a xlink:href="event__handler__select_8h.html" target="_top" xlink:title=" ">
<polygon fill="white" stroke="black" points="278.5,-67.5 278.5,-108.5 407.5,-108.5 407.5,-67.5 278.5,-67.5"/>
<text text-anchor="start" x="286.5" y="-96.5" font-family="Helvetica,sans-Serif" font-size="10.00">C:/projects/ndt/sources</text>
<text text-anchor="start" x="286.5" y="-85.5" font-family="Helvetica,sans-Serif" font-size="10.00">/include/ndt/event_handler</text>
<text text-anchor="middle" x="343" y="-74.5" font-family="Helvetica,sans-Serif" font-size="10.00">_select.h</text>
</a>
</g>
</g>
<!-- Node7&#45;&gt;Node9 -->
<g id="edge12" class="edge"><title>Node7&#45;&gt;Node9</title>
<path fill="none" stroke="midnightblue" d="M235.478,-141.049C257.132,-130.566 282.215,-118.424 302.706,-108.506"/>
<polygon fill="midnightblue" stroke="midnightblue" points="233.907,-137.921 226.431,-145.428 236.957,-144.221 233.907,-137.921"/>
</g>
<!-- Node8&#45;&gt;Node3 -->
<g id="edge10" class="edge"><title>Node8&#45;&gt;Node3</title>
<path fill="none" stroke="midnightblue" d="M186.681,-64.0566C179.834,-53.0859 171.852,-40.2965 165.891,-30.7455"/>
<polygon fill="midnightblue" stroke="midnightblue" points="183.832,-66.103 192.096,-72.7333 189.77,-62.3968 183.832,-66.103"/>
</g>
<!-- Node9&#45;&gt;Node3 -->
<g id="edge13" class="edge"><title>Node9&#45;&gt;Node3</title>
<path fill="none" stroke="midnightblue" d="M281.574,-63.7174C252.642,-52.7515 219.085,-40.0323 194.094,-30.5597"/>
<polygon fill="midnightblue" stroke="midnightblue" points="280.597,-67.0903 291.189,-67.3618 283.078,-60.5447 280.597,-67.0903"/>
</g>
<!-- Node9&#45;&gt;Node5 -->
<g id="edge14" class="edge"><title>Node9&#45;&gt;Node5</title>
<path fill="none" stroke="midnightblue" d="M366.871,-116.353C395.741,-152.913 436.647,-218.492 404,-265 382.465,-295.678 342.382,-309.623 308.373,-315.927"/>
<polygon fill="midnightblue" stroke="midnightblue" points="369.581,-114.138 360.564,-108.576 364.145,-118.548 369.581,-114.138"/>
</g>
<!-- Node11&#45;&gt;Node3 -->
<g id="edge17" class="edge"><title>Node11&#45;&gt;Node3</title>
<path fill="none" stroke="midnightblue" d="M465.673,-296.791C471.819,-246.43 478.02,-129.857 416,-67 388.69,-39.3219 283.72,-26.1458 216.088,-20.409"/>
<polygon fill="midnightblue" stroke="midnightblue" points="462.196,-296.385 464.348,-306.759 469.135,-297.308 462.196,-296.385"/>
</g>
<!-- Node12 -->
<g id="node12" class="node"><title>Node12</title>
<g id="a_node12"><a xlink:href="udp_8cpp.html" target="_top" xlink:title=" ">
<polygon fill="white" stroke="black" points="490,-229 490,-259 608,-259 608,-229 490,-229"/>
<text text-anchor="start" x="498" y="-247" font-family="Helvetica,sans-Serif" font-size="10.00">C:/projects/ndt/sources</text>
<text text-anchor="middle" x="549" y="-236" font-family="Helvetica,sans-Serif" font-size="10.00">/src/udp.cpp</text>
</a>
</g>
</g>
<!-- Node11&#45;&gt;Node12 -->
<g id="edge18" class="edge"><title>Node11&#45;&gt;Node12</title>
<path fill="none" stroke="midnightblue" d="M486.161,-299.894C500.999,-286.932 519.606,-270.678 532.709,-259.231"/>
<polygon fill="midnightblue" stroke="midnightblue" points="483.593,-297.49 478.364,-306.705 488.198,-302.762 483.593,-297.49"/>
</g>
</g>
</svg>
