<?xml version="1.0" encoding="UTF-8" standalone="no"?>
<!DOCTYPE svg PUBLIC "-//W3C//DTD SVG 1.1//EN"
 "http://www.w3.org/Graphics/SVG/1.1/DTD/svg11.dtd">
<!-- Generated by graphviz version 2.38.0 (20140413.2041)
 -->
<!-- Title: C:/projects/ndt/sources/include/ndt/sys_file_ops.h Pages: 1 -->
<svg width="262pt" height="173pt"
 viewBox="0.00 0.00 262.00 173.00" xmlns="http://www.w3.org/2000/svg" xmlns:xlink="http://www.w3.org/1999/xlink">
<g id="graph0" class="graph" transform="scale(1 1) rotate(0) translate(4 169)">
<title>C:/projects/ndt/sources/include/ndt/sys_file_ops.h</title>
<polygon fill="white" stroke="none" points="-4,4 -4,-169 258,-169 258,4 -4,4"/>
<!-- Node1 -->
<g id="node1" class="node"><title>Node1</title>
<g id="a_node1"><a xlink:title=" ">
<polygon fill="#bfbfbf" stroke="black" points="61,-134.5 61,-164.5 193,-164.5 193,-134.5 61,-134.5"/>
<text text-anchor="start" x="69" y="-152.5" font-family="Helvetica,sans-Serif" font-size="10.00">C:/projects/ndt/sources</text>
<text text-anchor="middle" x="127" y="-141.5" font-family="Helvetica,sans-Serif" font-size="10.00">/include/ndt/sys_file_ops.h</text>
</a>
</g>
</g>
<!-- Node2 -->
<g id="node2" class="node"><title>Node2</title>
<g id="a_node2"><a xlink:href="file_8h.html" target="_top" xlink:title=" ">
<polygon fill="white" stroke="black" points="0,-67.5 0,-97.5 118,-97.5 118,-67.5 0,-67.5"/>
<text text-anchor="start" x="8" y="-85.5" font-family="Helvetica,sans-Serif" font-size="10.00">C:/projects/ndt/sources</text>
<text text-anchor="middle" x="59" y="-74.5" font-family="Helvetica,sans-Serif" font-size="10.00">/include/ndt/file.h</text>
</a>
</g>
</g>
<!-- Node1&#45;&gt;Node2 -->
<g id="edge1" class="edge"><title>Node1&#45;&gt;Node2</title>
<path fill="none" stroke="midnightblue" d="M104.834,-127.311C94.6333,-117.561 82.8095,-106.259 73.7262,-97.5765"/>
<polygon fill="midnightblue" stroke="midnightblue" points="102.598,-130.016 112.245,-134.396 107.435,-124.956 102.598,-130.016"/>
</g>
<!-- Node4 -->
<g id="node4" class="node"><title>Node4</title>
<g id="a_node4"><a xlink:href="sys__file__ops_8cpp.html" target="_top" xlink:title=" ">
<polygon fill="white" stroke="black" points="136,-67.5 136,-97.5 254,-97.5 254,-67.5 136,-67.5"/>
<text text-anchor="start" x="144" y="-85.5" font-family="Helvetica,sans-Serif" font-size="10.00">C:/projects/ndt/sources</text>
<text text-anchor="middle" x="195" y="-74.5" font-family="Helvetica,sans-Serif" font-size="10.00">/src/sys_file_ops.cpp</text>
</a>
</g>
</g>
<!-- Node1&#45;&gt;Node4 -->
<g id="edge3" class="edge"><title>Node1&#45;&gt;Node4</title>
<path fill="none" stroke="midnightblue" d="M149.166,-127.311C159.367,-117.561 171.191,-106.259 180.274,-97.5765"/>
<polygon fill="midnightblue" stroke="midnightblue" points="146.565,-124.956 141.755,-134.396 151.402,-130.016 146.565,-124.956"/>
</g>
<!-- Node3 -->
<g id="node3" class="node"><title>Node3</title>
<g id="a_node3"><a xlink:href="file_8cpp.html" target="_top" xlink:title=" ">
<polygon fill="white" stroke="black" points="0,-0.5 0,-30.5 118,-30.5 118,-0.5 0,-0.5"/>
<text text-anchor="start" x="8" y="-18.5" font-family="Helvetica,sans-Serif" font-size="10.00">C:/projects/ndt/sources</text>
<text text-anchor="middle" x="59" y="-7.5" font-family="Helvetica,sans-Serif" font-size="10.00">/src/file.cpp</text>
</a>
</g>
</g>
<!-- Node2&#45;&gt;Node3 -->
<g id="edge2" class="edge"><title>Node2&#45;&gt;Node3</title>
<path fill="none" stroke="midnightblue" d="M59,-57.1081C59,-48.1539 59,-38.3227 59,-30.5765"/>
<polygon fill="midnightblue" stroke="midnightblue" points="55.5001,-57.3959 59,-67.396 62.5001,-57.396 55.5001,-57.3959"/>
</g>
</g>
</svg>
