<?xml version="1.0" encoding="UTF-8" standalone="no"?>
<!DOCTYPE svg PUBLIC "-//W3C//DTD SVG 1.1//EN"
 "http://www.w3.org/Graphics/SVG/1.1/DTD/svg11.dtd">
<!-- Generated by graphviz version 2.38.0 (20140413.2041)
 -->
<!-- Title: C:/projects/ndt/sources/include/ndt/sys_socket_ops.h Pages: 1 -->
<svg width="660pt" height="207pt"
 viewBox="0.00 0.00 660.00 207.00" xmlns="http://www.w3.org/2000/svg" xmlns:xlink="http://www.w3.org/1999/xlink">
<g id="graph0" class="graph" transform="scale(1 1) rotate(0) translate(4 203)">
<title>C:/projects/ndt/sources/include/ndt/sys_socket_ops.h</title>
<polygon fill="white" stroke="none" points="-4,4 -4,-203 656,-203 656,4 -4,4"/>
<!-- Node1 -->
<g id="node1" class="node"><title>Node1</title>
<g id="a_node1"><a xlink:title=" ">
<polygon fill="#bfbfbf" stroke="black" points="294.5,-168.5 294.5,-198.5 443.5,-198.5 443.5,-168.5 294.5,-168.5"/>
<text text-anchor="start" x="302.5" y="-186.5" font-family="Helvetica,sans-Serif" font-size="10.00">C:/projects/ndt/sources</text>
<text text-anchor="middle" x="369" y="-175.5" font-family="Helvetica,sans-Serif" font-size="10.00">/include/ndt/sys_socket_ops.h</text>
</a>
</g>
</g>
<!-- Node2 -->
<g id="node2" class="node"><title>Node2</title>
<g id="a_node2"><a xlink:href="common_8h.html" target="_top" xlink:title="Header with typedefs to make type designation platform independent.">
<polygon fill="white" stroke="black" points="275,-56.5 275,-75.5 337,-75.5 337,-56.5 275,-56.5"/>
<text text-anchor="middle" x="306" y="-63.5" font-family="Helvetica,sans-Serif" font-size="10.00">common.h</text>
</a>
</g>
</g>
<!-- Node1&#45;&gt;Node2 -->
<g id="edge1" class="edge"><title>Node1&#45;&gt;Node2</title>
<path fill="none" stroke="midnightblue" d="M347.194,-168.316C335.342,-159.379 321.592,-146.754 314,-132 306.603,-117.625 304.955,-99.1664 304.952,-85.595"/>
<polygon fill="midnightblue" stroke="midnightblue" points="308.452,-85.6394 305.245,-75.5414 301.455,-85.4348 308.452,-85.6394"/>
</g>
<!-- Node12 -->
<g id="node12" class="node"><title>Node12</title>
<g id="a_node12"><a xlink:href="sys__error__code_8h.html" target="_top" xlink:title=" ">
<polygon fill="white" stroke="black" points="323,-112.5 323,-131.5 415,-131.5 415,-112.5 323,-112.5"/>
<text text-anchor="middle" x="369" y="-119.5" font-family="Helvetica,sans-Serif" font-size="10.00">sys_error_code.h</text>
</a>
</g>
</g>
<!-- Node1&#45;&gt;Node12 -->
<g id="edge11" class="edge"><title>Node1&#45;&gt;Node12</title>
<path fill="none" stroke="midnightblue" d="M369,-168.399C369,-160.466 369,-150.458 369,-141.858"/>
<polygon fill="midnightblue" stroke="midnightblue" points="372.5,-141.658 369,-131.658 365.5,-141.658 372.5,-141.658"/>
</g>
<!-- Node13 -->
<g id="node13" class="node"><title>Node13</title>
<g id="a_node13"><a xlink:href="useful__base__types_8h.html" target="_top" xlink:title=" ">
<polygon fill="white" stroke="black" points="378,-56.5 378,-75.5 484,-75.5 484,-56.5 378,-56.5"/>
<text text-anchor="middle" x="431" y="-63.5" font-family="Helvetica,sans-Serif" font-size="10.00">useful_base_types.h</text>
</a>
</g>
</g>
<!-- Node1&#45;&gt;Node13 -->
<g id="edge14" class="edge"><title>Node1&#45;&gt;Node13</title>
<path fill="none" stroke="midnightblue" d="M390.89,-168.358C402.77,-159.436 416.52,-146.811 424,-132 431.275,-117.595 432.628,-99.1393 432.393,-85.5769"/>
<polygon fill="midnightblue" stroke="midnightblue" points="435.887,-85.3549 431.918,-75.5316 428.895,-85.686 435.887,-85.3549"/>
</g>
<!-- Node3 -->
<g id="node3" class="node"><title>Node3</title>
<g id="a_node3"><a xlink:title=" ">
<polygon fill="white" stroke="#bfbfbf" points="0,-0.5 0,-19.5 62,-19.5 62,-0.5 0,-0.5"/>
<text text-anchor="middle" x="31" y="-7.5" font-family="Helvetica,sans-Serif" font-size="10.00">arpa/inet.h</text>
</a>
</g>
</g>
<!-- Node2&#45;&gt;Node3 -->
<g id="edge2" class="edge"><title>Node2&#45;&gt;Node3</title>
<path fill="none" stroke="midnightblue" d="M274.766,-59.3489C231.533,-51.4552 150.772,-36.4516 72.4546,-20.2544"/>
<polygon fill="midnightblue" stroke="midnightblue" points="72.9251,-16.7775 62.4222,-18.1701 71.5011,-23.6312 72.9251,-16.7775"/>
</g>
<!-- Node4 -->
<g id="node4" class="node"><title>Node4</title>
<g id="a_node4"><a xlink:title=" ">
<polygon fill="white" stroke="#bfbfbf" points="80.5,-0.5 80.5,-19.5 127.5,-19.5 127.5,-0.5 80.5,-0.5"/>
<text text-anchor="middle" x="104" y="-7.5" font-family="Helvetica,sans-Serif" font-size="10.00">errno.h</text>
</a>
</g>
</g>
<!-- Node2&#45;&gt;Node4 -->
<g id="edge3" class="edge"><title>Node2&#45;&gt;Node4</title>
<path fill="none" stroke="midnightblue" d="M274.94,-56.9316C242.827,-48.5559 190.98,-34.9401 137.713,-20.4413"/>
<polygon fill="midnightblue" stroke="midnightblue" points="138.323,-16.9799 127.754,-17.7248 136.481,-23.7332 138.323,-16.9799"/>
</g>
<!-- Node5 -->
<g id="node5" class="node"><title>Node5</title>
<g id="a_node5"><a xlink:title=" ">
<polygon fill="white" stroke="#bfbfbf" points="145.5,-0.5 145.5,-19.5 188.5,-19.5 188.5,-0.5 145.5,-0.5"/>
<text text-anchor="middle" x="167" y="-7.5" font-family="Helvetica,sans-Serif" font-size="10.00">fcntl.h</text>
</a>
</g>
</g>
<!-- Node2&#45;&gt;Node5 -->
<g id="edge4" class="edge"><title>Node2&#45;&gt;Node5</title>
<path fill="none" stroke="midnightblue" d="M283.975,-56.4435C260.896,-47.4776 224.438,-33.314 198.359,-23.1827"/>
<polygon fill="midnightblue" stroke="midnightblue" points="199.511,-19.8753 188.922,-19.5164 196.976,-26.4002 199.511,-19.8753"/>
</g>
<!-- Node6 -->
<g id="node6" class="node"><title>Node6</title>
<g id="a_node6"><a xlink:title=" ">
<polygon fill="white" stroke="#bfbfbf" points="206.5,-0.5 206.5,-19.5 255.5,-19.5 255.5,-0.5 206.5,-0.5"/>
<text text-anchor="middle" x="231" y="-7.5" font-family="Helvetica,sans-Serif" font-size="10.00">netdb.h</text>
</a>
</g>
</g>
<!-- Node2&#45;&gt;Node6 -->
<g id="edge5" class="edge"><title>Node2&#45;&gt;Node6</title>
<path fill="none" stroke="midnightblue" d="M293.95,-56.324C282.537,-48.1066 265.169,-35.6017 251.565,-25.8069"/>
<polygon fill="midnightblue" stroke="midnightblue" points="253.43,-22.8366 243.269,-19.8339 249.34,-28.5174 253.43,-22.8366"/>
</g>
<!-- Node7 -->
<g id="node7" class="node"><title>Node7</title>
<g id="a_node7"><a xlink:title=" ">
<polygon fill="white" stroke="#bfbfbf" points="273.5,-0.5 273.5,-19.5 338.5,-19.5 338.5,-0.5 273.5,-0.5"/>
<text text-anchor="middle" x="306" y="-7.5" font-family="Helvetica,sans-Serif" font-size="10.00">netinet/in.h</text>
</a>
</g>
</g>
<!-- Node2&#45;&gt;Node7 -->
<g id="edge6" class="edge"><title>Node2&#45;&gt;Node7</title>
<path fill="none" stroke="midnightblue" d="M306,-56.083C306,-49.0059 306,-38.8611 306,-29.9865"/>
<polygon fill="midnightblue" stroke="midnightblue" points="309.5,-29.751 306,-19.7511 302.5,-29.7511 309.5,-29.751"/>
</g>
<!-- Node8 -->
<g id="node8" class="node"><title>Node8</title>
<g id="a_node8"><a xlink:title=" ">
<polygon fill="white" stroke="#bfbfbf" points="356.5,-0.5 356.5,-19.5 429.5,-19.5 429.5,-0.5 356.5,-0.5"/>
<text text-anchor="middle" x="393" y="-7.5" font-family="Helvetica,sans-Serif" font-size="10.00">sys/socket.h</text>
</a>
</g>
</g>
<!-- Node2&#45;&gt;Node8 -->
<g id="edge7" class="edge"><title>Node2&#45;&gt;Node8</title>
<path fill="none" stroke="midnightblue" d="M319.978,-56.324C333.55,-47.9002 354.38,-34.9709 370.325,-25.0741"/>
<polygon fill="midnightblue" stroke="midnightblue" points="372.406,-27.9019 379.057,-19.6545 368.714,-21.9544 372.406,-27.9019"/>
</g>
<!-- Node9 -->
<g id="node9" class="node"><title>Node9</title>
<g id="a_node9"><a xlink:title=" ">
<polygon fill="white" stroke="#bfbfbf" points="448,-0.5 448,-19.5 516,-19.5 516,-0.5 448,-0.5"/>
<text text-anchor="middle" x="482" y="-7.5" font-family="Helvetica,sans-Serif" font-size="10.00">sys/types.h</text>
</a>
</g>
</g>
<!-- Node2&#45;&gt;Node9 -->
<g id="edge8" class="edge"><title>Node2&#45;&gt;Node9</title>
<path fill="none" stroke="midnightblue" d="M333.888,-56.4435C363.754,-47.2801 411.315,-32.6876 444.456,-22.5192"/>
<polygon fill="midnightblue" stroke="midnightblue" points="445.709,-25.7958 454.243,-19.5164 443.656,-19.1037 445.709,-25.7958"/>
</g>
<!-- Node10 -->
<g id="node10" class="node"><title>Node10</title>
<g id="a_node10"><a xlink:title=" ">
<polygon fill="white" stroke="#bfbfbf" points="534.5,-0.5 534.5,-19.5 585.5,-19.5 585.5,-0.5 534.5,-0.5"/>
<text text-anchor="middle" x="560" y="-7.5" font-family="Helvetica,sans-Serif" font-size="10.00">unistd.h</text>
</a>
</g>
</g>
<!-- Node2&#45;&gt;Node10 -->
<g id="edge9" class="edge"><title>Node2&#45;&gt;Node10</title>
<path fill="none" stroke="midnightblue" d="M337.294,-59.0707C378.058,-51.2376 451.756,-36.7047 524.616,-19.9951"/>
<polygon fill="midnightblue" stroke="midnightblue" points="525.465,-23.3912 534.421,-17.7316 523.89,-16.5706 525.465,-23.3912"/>
</g>
<!-- Node11 -->
<g id="node11" class="node"><title>Node11</title>
<g id="a_node11"><a xlink:title=" ">
<polygon fill="white" stroke="#bfbfbf" points="604,-0.5 604,-19.5 652,-19.5 652,-0.5 604,-0.5"/>
<text text-anchor="middle" x="628" y="-7.5" font-family="Helvetica,sans-Serif" font-size="10.00">cstddef</text>
</a>
</g>
</g>
<!-- Node2&#45;&gt;Node11 -->
<g id="edge10" class="edge"><title>Node2&#45;&gt;Node11</title>
<path fill="none" stroke="midnightblue" d="M337.091,-60.3602C401.236,-50.7607 545.707,-28.9936 594.032,-19.8816"/>
<polygon fill="midnightblue" stroke="midnightblue" points="594.808,-23.2958 603.926,-17.8997 593.433,-16.4322 594.808,-23.2958"/>
</g>
<!-- Node12&#45;&gt;Node2 -->
<g id="edge12" class="edge"><title>Node12&#45;&gt;Node2</title>
<path fill="none" stroke="midnightblue" d="M358.878,-112.324C349.474,-104.263 335.256,-92.0765 323.931,-82.3695"/>
<polygon fill="midnightblue" stroke="midnightblue" points="326.177,-79.6844 316.306,-75.8339 321.621,-84.9993 326.177,-79.6844"/>
</g>
<!-- Node12&#45;&gt;Node13 -->
<g id="edge13" class="edge"><title>Node12&#45;&gt;Node13</title>
<path fill="none" stroke="midnightblue" d="M378.961,-112.324C388.127,-104.341 401.937,-92.3128 413.028,-82.6529"/>
<polygon fill="midnightblue" stroke="midnightblue" points="415.615,-85.041 420.857,-75.8339 411.018,-79.7624 415.615,-85.041"/>
</g>
</g>
</svg>
