<?xml version="1.0" encoding="UTF-8" standalone="no"?>
<!DOCTYPE svg PUBLIC "-//W3C//DTD SVG 1.1//EN"
 "http://www.w3.org/Graphics/SVG/1.1/DTD/svg11.dtd">
<!-- Generated by graphviz version 2.38.0 (20140413.2041)
 -->
<!-- Title: C:/projects/ndt/sources/include/ndt/sys_error_code.h Pages: 1 -->
<!--zoomable 630 -->
<svg id="main" version="1.1" xmlns="http://www.w3.org/2000/svg" xmlns:xlink="http://www.w3.org/1999/xlink" xml:space="preserve" onload="init(evt)">
<style type="text/css"><![CDATA[
.edge:hover path { stroke: red; }
.edge:hover polygon { stroke: red; fill: red; }
]]></style>
<script type="text/javascript"><![CDATA[
var edges = document.getElementsByTagName('g');
if (edges && edges.length) {
  for (var i=0;i<edges.length;i++) {
    if (edges[i].id.substr(0,4)=='edge') {
      edges[i].setAttribute('class','edge');
    }
  }
}
]]></script>
        <defs>
                <circle id="rim" cx="0" cy="0" r="7"/>
                <circle id="rim2" cx="0" cy="0" r="3.5"/>
                <g id="zoomPlus">
                        <use xlink:href="#rim" fill="#404040">
                                <set attributeName="fill" to="#808080" begin="zoomplus.mouseover" end="zoomplus.mouseout"/>
                        </use>
                        <path d="M-4,0h8M0,-4v8" fill="none" stroke="white" stroke-width="1.5" pointer-events="none"/>
                </g>
                <g id="zoomMin">
                        <use xlink:href="#rim" fill="#404040">
                                <set attributeName="fill" to="#808080" begin="zoomminus.mouseover" end="zoomminus.mouseout"/>
                        </use>
                        <path d="M-4,0h8" fill="none" stroke="white" stroke-width="1.5" pointer-events="none"/>
                </g>
                <g id="dirArrow">
                        <path fill="none" stroke="white" stroke-width="1.5" d="M0,-3.0v7 M-2.5,-0.5L0,-3.0L2.5,-0.5"/>
                </g>
               <g id="resetDef">
                       <use xlink:href="#rim2" fill="#404040">
                               <set attributeName="fill" to="#808080" begin="reset.mouseover" end="reset.mouseout"/>
                       </use>
               </g>
        </defs>

<script type="text/javascript">
var viewWidth = 944;
var viewHeight = 630;
var sectionId = 'dynsection-1';
</script>
<script xlink:href="svgpan.js"/>
<svg id="graph" class="graph">
<g id="viewport">
<title>C:/projects/ndt/sources/include/ndt/sys_error_code.h</title>
<polygon fill="white" stroke="none" points="-4,4 -4,-626 940,-626 940,4 -4,4"/>
<!-- Node1 -->
<g id="node1" class="node"><title>Node1</title>
<g id="a_node1"><a xlink:title=" ">
<polygon fill="#bfbfbf" stroke="black" points="353,-580.5 353,-621.5 471,-621.5 471,-580.5 353,-580.5"/>
<text text-anchor="start" x="361" y="-609.5" font-family="Helvetica,sans-Serif" font-size="10.00">C:/projects/ndt/sources</text>
<text text-anchor="start" x="361" y="-598.5" font-family="Helvetica,sans-Serif" font-size="10.00">/include/ndt/sys_error</text>
<text text-anchor="middle" x="412" y="-587.5" font-family="Helvetica,sans-Serif" font-size="10.00">_code.h</text>
</a>
</g>
</g>
<!-- Node2 -->
<g id="node2" class="node"><title>Node2</title>
<g id="a_node2"><a xlink:href="sys__file__ops_8h.html" target="_top" xlink:title=" ">
<polygon fill="white" stroke="black" points="261,-513.5 261,-543.5 393,-543.5 393,-513.5 261,-513.5"/>
<text text-anchor="start" x="269" y="-531.5" font-family="Helvetica,sans-Serif" font-size="10.00">C:/projects/ndt/sources</text>
<text text-anchor="middle" x="327" y="-520.5" font-family="Helvetica,sans-Serif" font-size="10.00">/include/ndt/sys_file_ops.h</text>
</a>
</g>
</g>
<!-- Node1&#45;&gt;Node2 -->
<g id="edge1" class="edge"><title>Node1&#45;&gt;Node2</title>
<path fill="none" stroke="midnightblue" d="M380.464,-573.844C368.143,-563.625 354.503,-552.312 344.084,-543.67"/>
<polygon fill="midnightblue" stroke="midnightblue" points="378.391,-576.672 388.323,-580.362 382.86,-571.284 378.391,-576.672"/>
</g>
<!-- Node6 -->
<g id="node6" class="node"><title>Node6</title>
<g id="a_node6"><a xlink:href="sys__socket__ops_8h.html" target="_top" xlink:title=" ">
<polygon fill="white" stroke="black" points="423.5,-513.5 423.5,-543.5 572.5,-543.5 572.5,-513.5 423.5,-513.5"/>
<text text-anchor="start" x="431.5" y="-531.5" font-family="Helvetica,sans-Serif" font-size="10.00">C:/projects/ndt/sources</text>
<text text-anchor="middle" x="498" y="-520.5" font-family="Helvetica,sans-Serif" font-size="10.00">/include/ndt/sys_socket_ops.h</text>
</a>
</g>
</g>
<!-- Node1&#45;&gt;Node6 -->
<g id="edge5" class="edge"><title>Node1&#45;&gt;Node6</title>
<path fill="none" stroke="midnightblue" d="M443.907,-573.844C456.372,-563.625 470.173,-552.312 480.715,-543.67"/>
<polygon fill="midnightblue" stroke="midnightblue" points="441.47,-571.315 435.956,-580.362 445.908,-576.729 441.47,-571.315"/>
</g>
<!-- Node3 -->
<g id="node3" class="node"><title>Node3</title>
<g id="a_node3"><a xlink:href="file_8h.html" target="_top" xlink:title=" ">
<polygon fill="white" stroke="black" points="107,-446.5 107,-476.5 225,-476.5 225,-446.5 107,-446.5"/>
<text text-anchor="start" x="115" y="-464.5" font-family="Helvetica,sans-Serif" font-size="10.00">C:/projects/ndt/sources</text>
<text text-anchor="middle" x="166" y="-453.5" font-family="Helvetica,sans-Serif" font-size="10.00">/include/ndt/file.h</text>
</a>
</g>
</g>
<!-- Node2&#45;&gt;Node3 -->
<g id="edge2" class="edge"><title>Node2&#45;&gt;Node3</title>
<path fill="none" stroke="midnightblue" d="M282.525,-509.544C256.762,-499.143 224.797,-486.238 200.866,-476.577"/>
<polygon fill="midnightblue" stroke="midnightblue" points="281.482,-512.898 292.065,-513.396 284.103,-506.407 281.482,-512.898"/>
</g>
<!-- Node5 -->
<g id="node5" class="node"><title>Node5</title>
<g id="a_node5"><a xlink:href="sys__file__ops_8cpp.html" target="_top" xlink:title=" ">
<polygon fill="white" stroke="black" points="268,-446.5 268,-476.5 386,-476.5 386,-446.5 268,-446.5"/>
<text text-anchor="start" x="276" y="-464.5" font-family="Helvetica,sans-Serif" font-size="10.00">C:/projects/ndt/sources</text>
<text text-anchor="middle" x="327" y="-453.5" font-family="Helvetica,sans-Serif" font-size="10.00">/src/sys_file_ops.cpp</text>
</a>
</g>
</g>
<!-- Node2&#45;&gt;Node5 -->
<g id="edge4" class="edge"><title>Node2&#45;&gt;Node5</title>
<path fill="none" stroke="midnightblue" d="M327,-503.108C327,-494.154 327,-484.323 327,-476.577"/>
<polygon fill="midnightblue" stroke="midnightblue" points="323.5,-503.396 327,-513.396 330.5,-503.396 323.5,-503.396"/>
</g>
<!-- Node4 -->
<g id="node4" class="node"><title>Node4</title>
<g id="a_node4"><a xlink:href="file_8cpp.html" target="_top" xlink:title=" ">
<polygon fill="white" stroke="black" points="0,-379.5 0,-409.5 118,-409.5 118,-379.5 0,-379.5"/>
<text text-anchor="start" x="8" y="-397.5" font-family="Helvetica,sans-Serif" font-size="10.00">C:/projects/ndt/sources</text>
<text text-anchor="middle" x="59" y="-386.5" font-family="Helvetica,sans-Serif" font-size="10.00">/src/file.cpp</text>
</a>
</g>
</g>
<!-- Node3&#45;&gt;Node4 -->
<g id="edge3" class="edge"><title>Node3&#45;&gt;Node4</title>
<path fill="none" stroke="midnightblue" d="M133.925,-441.015C117.274,-430.9 97.3056,-418.77 82.1721,-409.577"/>
<polygon fill="midnightblue" stroke="midnightblue" points="132.419,-444.195 142.783,-446.396 136.053,-438.213 132.419,-444.195"/>
</g>
<!-- Node7 -->
<g id="node7" class="node"><title>Node7</title>
<g id="a_node7"><a xlink:href="address_8h.html" target="_top" xlink:title=" ">
<polygon fill="white" stroke="black" points="422,-446.5 422,-476.5 540,-476.5 540,-446.5 422,-446.5"/>
<text text-anchor="start" x="430" y="-464.5" font-family="Helvetica,sans-Serif" font-size="10.00">C:/projects/ndt/sources</text>
<text text-anchor="middle" x="481" y="-453.5" font-family="Helvetica,sans-Serif" font-size="10.00">/include/ndt/address.h</text>
</a>
</g>
</g>
<!-- Node6&#45;&gt;Node7 -->
<g id="edge6" class="edge"><title>Node6&#45;&gt;Node7</title>
<path fill="none" stroke="midnightblue" d="M491.775,-503.697C489.392,-494.587 486.752,-484.493 484.682,-476.577"/>
<polygon fill="midnightblue" stroke="midnightblue" points="488.395,-504.607 494.311,-513.396 495.167,-502.836 488.395,-504.607"/>
</g>
<!-- Node8 -->
<g id="node8" class="node"><title>Node8</title>
<g id="a_node8"><a xlink:href="core_8h.html" target="_top" xlink:title=" ">
<polygon fill="white" stroke="black" points="244,-0.5 244,-30.5 362,-30.5 362,-0.5 244,-0.5"/>
<text text-anchor="start" x="252" y="-18.5" font-family="Helvetica,sans-Serif" font-size="10.00">C:/projects/ndt/sources</text>
<text text-anchor="middle" x="303" y="-7.5" font-family="Helvetica,sans-Serif" font-size="10.00">/include/ndt/core.h</text>
</a>
</g>
</g>
<!-- Node6&#45;&gt;Node8 -->
<g id="edge25" class="edge"><title>Node6&#45;&gt;Node8</title>
<path fill="none" stroke="midnightblue" d="M582.657,-523.047C666.355,-513.535 782,-484.32 782,-395.5 782,-395.5 782,-395.5 782,-165 782,-78.0444 490.372,-36.3763 362.215,-22.2634"/>
<polygon fill="midnightblue" stroke="midnightblue" points="582.193,-519.577 572.618,-524.112 582.931,-526.537 582.193,-519.577"/>
</g>
<!-- Node19 -->
<g id="node19" class="node"><title>Node19</title>
<g id="a_node19"><a xlink:href="sys__socket__ops_8cpp.html" target="_top" xlink:title=" ">
<polygon fill="white" stroke="black" points="810,-446.5 810,-476.5 936,-476.5 936,-446.5 810,-446.5"/>
<text text-anchor="start" x="818" y="-464.5" font-family="Helvetica,sans-Serif" font-size="10.00">C:/projects/ndt/sources</text>
<text text-anchor="middle" x="873" y="-453.5" font-family="Helvetica,sans-Serif" font-size="10.00">/src/sys_socket_ops.cpp</text>
</a>
</g>
</g>
<!-- Node6&#45;&gt;Node19 -->
<g id="edge26" class="edge"><title>Node6&#45;&gt;Node19</title>
<path fill="none" stroke="midnightblue" d="M582.899,-513.536C642.562,-503.62 724.221,-489.839 796,-477 800.553,-476.186 805.254,-475.332 809.985,-474.463"/>
<polygon fill="midnightblue" stroke="midnightblue" points="582.063,-510.127 572.771,-515.218 583.209,-517.033 582.063,-510.127"/>
</g>
<!-- Node7&#45;&gt;Node8 -->
<g id="edge7" class="edge"><title>Node7&#45;&gt;Node8</title>
<path fill="none" stroke="midnightblue" d="M412.034,-446.758C313.972,-425.21 146,-379.982 146,-323 146,-323 146,-323 146,-165 146,-115.693 162.452,-101.169 198,-67 214.99,-50.6693 238.261,-38.7438 258.578,-30.596"/>
<polygon fill="midnightblue" stroke="midnightblue" points="411.365,-450.194 421.88,-448.894 412.849,-443.354 411.365,-450.194"/>
</g>
<!-- Node9 -->
<g id="node9" class="node"><title>Node9</title>
<g id="a_node9"><a xlink:href="socket_8h.html" target="_top" xlink:title=" ">
<polygon fill="white" stroke="black" points="336,-379.5 336,-409.5 454,-409.5 454,-379.5 336,-379.5"/>
<text text-anchor="start" x="344" y="-397.5" font-family="Helvetica,sans-Serif" font-size="10.00">C:/projects/ndt/sources</text>
<text text-anchor="middle" x="395" y="-386.5" font-family="Helvetica,sans-Serif" font-size="10.00">/include/ndt/socket.h</text>
</a>
</g>
</g>
<!-- Node7&#45;&gt;Node9 -->
<g id="edge8" class="edge"><title>Node7&#45;&gt;Node9</title>
<path fill="none" stroke="midnightblue" d="M454.099,-440.168C440.948,-430.228 425.45,-418.514 413.624,-409.577"/>
<polygon fill="midnightblue" stroke="midnightblue" points="452.251,-443.158 462.339,-446.396 456.472,-437.574 452.251,-443.158"/>
</g>
<!-- Node18 -->
<g id="node18" class="node"><title>Node18</title>
<g id="a_node18"><a xlink:href="address_8cpp.html" target="_top" xlink:title=" ">
<polygon fill="white" stroke="black" points="472,-379.5 472,-409.5 590,-409.5 590,-379.5 472,-379.5"/>
<text text-anchor="start" x="480" y="-397.5" font-family="Helvetica,sans-Serif" font-size="10.00">C:/projects/ndt/sources</text>
<text text-anchor="middle" x="531" y="-386.5" font-family="Helvetica,sans-Serif" font-size="10.00">/src/address.cpp</text>
</a>
</g>
</g>
<!-- Node7&#45;&gt;Node18 -->
<g id="edge24" class="edge"><title>Node7&#45;&gt;Node18</title>
<path fill="none" stroke="midnightblue" d="M497.964,-438.447C505.309,-428.899 513.689,-418.004 520.172,-409.577"/>
<polygon fill="midnightblue" stroke="midnightblue" points="495.172,-436.336 491.849,-446.396 500.721,-440.604 495.172,-436.336"/>
</g>
<!-- Node9&#45;&gt;Node8 -->
<g id="edge9" class="edge"><title>Node9&#45;&gt;Node8</title>
<path fill="none" stroke="midnightblue" d="M327.07,-376.371C265.389,-356.256 184,-316.221 184,-245 184,-245 184,-245 184,-165 184,-104.045 245.81,-53.8182 280.337,-30.5166"/>
<polygon fill="midnightblue" stroke="midnightblue" points="326.195,-379.765 336.785,-379.43 328.298,-373.088 326.195,-379.765"/>
</g>
<!-- Node10 -->
<g id="node10" class="node"><title>Node10</title>
<g id="a_node10"><a xlink:href="executor__select__base_8h.html" target="_top" xlink:title=" ">
<polygon fill="white" stroke="black" points="336,-301.5 336,-342.5 454,-342.5 454,-301.5 336,-301.5"/>
<text text-anchor="start" x="344" y="-330.5" font-family="Helvetica,sans-Serif" font-size="10.00">C:/projects/ndt/sources</text>
<text text-anchor="start" x="344" y="-319.5" font-family="Helvetica,sans-Serif" font-size="10.00">/include/ndt/executor</text>
<text text-anchor="middle" x="395" y="-308.5" font-family="Helvetica,sans-Serif" font-size="10.00">_select_base.h</text>
</a>
</g>
</g>
<!-- Node9&#45;&gt;Node10 -->
<g id="edge10" class="edge"><title>Node9&#45;&gt;Node10</title>
<path fill="none" stroke="midnightblue" d="M395,-368.982C395,-360.347 395,-350.762 395,-342.588"/>
<polygon fill="midnightblue" stroke="midnightblue" points="391.5,-369.233 395,-379.233 398.5,-369.233 391.5,-369.233"/>
</g>
<!-- Node16 -->
<g id="node16" class="node"><title>Node16</title>
<g id="a_node16"><a xlink:href="udp_8h.html" target="_top" xlink:title=" ">
<polygon fill="white" stroke="black" points="549,-307 549,-337 667,-337 667,-307 549,-307"/>
<text text-anchor="start" x="557" y="-325" font-family="Helvetica,sans-Serif" font-size="10.00">C:/projects/ndt/sources</text>
<text text-anchor="middle" x="608" y="-314" font-family="Helvetica,sans-Serif" font-size="10.00">/include/ndt/udp.h</text>
</a>
</g>
</g>
<!-- Node9&#45;&gt;Node16 -->
<g id="edge21" class="edge"><title>Node9&#45;&gt;Node16</title>
<path fill="none" stroke="midnightblue" d="M447.254,-376.205C483.571,-364.184 531.368,-348.364 565.379,-337.107"/>
<polygon fill="midnightblue" stroke="midnightblue" points="445.73,-373.022 437.337,-379.487 447.93,-379.668 445.73,-373.022"/>
</g>
<!-- Node10&#45;&gt;Node8 -->
<g id="edge11" class="edge"><title>Node10&#45;&gt;Node8</title>
<path fill="none" stroke="midnightblue" d="M325.949,-313.733C294.603,-306.591 260.293,-292.544 241,-265 187.558,-188.701 263.108,-70.8584 292.317,-30.5659"/>
<polygon fill="midnightblue" stroke="midnightblue" points="325.497,-317.214 335.999,-315.817 326.918,-310.359 325.497,-317.214"/>
</g>
<!-- Node11 -->
<g id="node11" class="node"><title>Node11</title>
<g id="a_node11"><a xlink:href="nix_2executor__select__impl_8h.html" target="_top" xlink:title=" ">
<polygon fill="white" stroke="black" points="250,-223.5 250,-264.5 386,-264.5 386,-223.5 250,-223.5"/>
<text text-anchor="start" x="258" y="-252.5" font-family="Helvetica,sans-Serif" font-size="10.00">C:/projects/ndt/sources</text>
<text text-anchor="start" x="258" y="-241.5" font-family="Helvetica,sans-Serif" font-size="10.00">/include/ndt/platform</text>
<text text-anchor="middle" x="318" y="-230.5" font-family="Helvetica,sans-Serif" font-size="10.00">/nix/executor_select_impl.h</text>
</a>
</g>
</g>
<!-- Node10&#45;&gt;Node11 -->
<g id="edge12" class="edge"><title>Node10&#45;&gt;Node11</title>
<path fill="none" stroke="midnightblue" d="M367.851,-294.204C357.935,-284.416 346.914,-273.539 337.762,-264.506"/>
<polygon fill="midnightblue" stroke="midnightblue" points="365.595,-296.894 375.171,-301.428 370.512,-291.912 365.595,-296.894"/>
</g>
<!-- Node15 -->
<g id="node15" class="node"><title>Node15</title>
<g id="a_node15"><a xlink:href="win_2executor__select__impl_8h.html" target="_top" xlink:title=" ">
<polygon fill="white" stroke="black" points="404.5,-223.5 404.5,-264.5 541.5,-264.5 541.5,-223.5 404.5,-223.5"/>
<text text-anchor="start" x="412.5" y="-252.5" font-family="Helvetica,sans-Serif" font-size="10.00">C:/projects/ndt/sources</text>
<text text-anchor="start" x="412.5" y="-241.5" font-family="Helvetica,sans-Serif" font-size="10.00">/include/ndt/platform</text>
<text text-anchor="middle" x="473" y="-230.5" font-family="Helvetica,sans-Serif" font-size="10.00">/win/executor_select_impl.h</text>
</a>
</g>
</g>
<!-- Node10&#45;&gt;Node15 -->
<g id="edge20" class="edge"><title>Node10&#45;&gt;Node15</title>
<path fill="none" stroke="midnightblue" d="M422.501,-294.204C432.547,-284.416 443.71,-273.539 452.981,-264.506"/>
<polygon fill="midnightblue" stroke="midnightblue" points="419.807,-291.943 415.087,-301.428 424.692,-296.956 419.807,-291.943"/>
</g>
<!-- Node12 -->
<g id="node12" class="node"><title>Node12</title>
<g id="a_node12"><a xlink:href="executor__select_8h.html" target="_top" xlink:title=" ">
<polygon fill="white" stroke="black" points="273,-145.5 273,-186.5 391,-186.5 391,-145.5 273,-145.5"/>
<text text-anchor="start" x="281" y="-174.5" font-family="Helvetica,sans-Serif" font-size="10.00">C:/projects/ndt/sources</text>
<text text-anchor="start" x="281" y="-163.5" font-family="Helvetica,sans-Serif" font-size="10.00">/include/ndt/executor</text>
<text text-anchor="middle" x="332" y="-152.5" font-family="Helvetica,sans-Serif" font-size="10.00">_select.h</text>
</a>
</g>
</g>
<!-- Node11&#45;&gt;Node12 -->
<g id="edge13" class="edge"><title>Node11&#45;&gt;Node12</title>
<path fill="none" stroke="midnightblue" d="M323.418,-213.59C325.09,-204.511 326.89,-194.742 328.407,-186.506"/>
<polygon fill="midnightblue" stroke="midnightblue" points="319.975,-212.959 321.605,-223.428 326.859,-214.228 319.975,-212.959"/>
</g>
<!-- Node12&#45;&gt;Node8 -->
<g id="edge16" class="edge"><title>Node12&#45;&gt;Node8</title>
<path fill="none" stroke="midnightblue" d="M298.946,-138.268C290.878,-129.844 283.328,-119.869 279,-109 268.321,-82.18 283.246,-49.0858 293.903,-30.6365"/>
<polygon fill="midnightblue" stroke="midnightblue" points="296.501,-140.773 306.101,-145.256 301.392,-135.765 296.501,-140.773"/>
</g>
<!-- Node13 -->
<g id="node13" class="node"><title>Node13</title>
<g id="a_node13"><a xlink:href="context_8h.html" target="_top" xlink:title=" ">
<polygon fill="white" stroke="black" points="288,-73 288,-103 406,-103 406,-73 288,-73"/>
<text text-anchor="start" x="296" y="-91" font-family="Helvetica,sans-Serif" font-size="10.00">C:/projects/ndt/sources</text>
<text text-anchor="middle" x="347" y="-80" font-family="Helvetica,sans-Serif" font-size="10.00">/include/ndt/context.h</text>
</a>
</g>
</g>
<!-- Node12&#45;&gt;Node13 -->
<g id="edge14" class="edge"><title>Node12&#45;&gt;Node13</title>
<path fill="none" stroke="midnightblue" d="M337.865,-135.283C340.042,-124.254 342.412,-112.246 344.192,-103.225"/>
<polygon fill="midnightblue" stroke="midnightblue" points="334.366,-134.94 335.863,-145.428 341.233,-136.295 334.366,-134.94"/>
</g>
<!-- Node14 -->
<g id="node14" class="node"><title>Node14</title>
<g id="a_node14"><a xlink:href="event__handler__select_8h.html" target="_top" xlink:title=" ">
<polygon fill="white" stroke="black" points="424.5,-67.5 424.5,-108.5 553.5,-108.5 553.5,-67.5 424.5,-67.5"/>
<text text-anchor="start" x="432.5" y="-96.5" font-family="Helvetica,sans-Serif" font-size="10.00">C:/projects/ndt/sources</text>
<text text-anchor="start" x="432.5" y="-85.5" font-family="Helvetica,sans-Serif" font-size="10.00">/include/ndt/event_handler</text>
<text text-anchor="middle" x="489" y="-74.5" font-family="Helvetica,sans-Serif" font-size="10.00">_select.h</text>
</a>
</g>
</g>
<!-- Node12&#45;&gt;Node14 -->
<g id="edge17" class="edge"><title>Node12&#45;&gt;Node14</title>
<path fill="none" stroke="midnightblue" d="M381.478,-141.049C403.132,-130.566 428.215,-118.424 448.706,-108.506"/>
<polygon fill="midnightblue" stroke="midnightblue" points="379.907,-137.921 372.431,-145.428 382.957,-144.221 379.907,-137.921"/>
</g>
<!-- Node13&#45;&gt;Node8 -->
<g id="edge15" class="edge"><title>Node13&#45;&gt;Node8</title>
<path fill="none" stroke="midnightblue" d="M332.681,-64.0566C325.834,-53.0859 317.852,-40.2965 311.891,-30.7455"/>
<polygon fill="midnightblue" stroke="midnightblue" points="329.832,-66.103 338.096,-72.7333 335.77,-62.3968 329.832,-66.103"/>
</g>
<!-- Node14&#45;&gt;Node8 -->
<g id="edge18" class="edge"><title>Node14&#45;&gt;Node8</title>
<path fill="none" stroke="midnightblue" d="M427.574,-63.7174C398.642,-52.7515 365.085,-40.0323 340.094,-30.5597"/>
<polygon fill="midnightblue" stroke="midnightblue" points="426.597,-67.0903 437.189,-67.3618 429.078,-60.5447 426.597,-67.0903"/>
</g>
<!-- Node14&#45;&gt;Node10 -->
<g id="edge19" class="edge"><title>Node14&#45;&gt;Node10</title>
<path fill="none" stroke="midnightblue" d="M512.871,-116.353C541.741,-152.913 582.647,-218.492 550,-265 528.465,-295.678 488.382,-309.623 454.373,-315.927"/>
<polygon fill="midnightblue" stroke="midnightblue" points="515.581,-114.138 506.564,-108.576 510.145,-118.548 515.581,-114.138"/>
</g>
<!-- Node16&#45;&gt;Node8 -->
<g id="edge22" class="edge"><title>Node16&#45;&gt;Node8</title>
<path fill="none" stroke="midnightblue" d="M611.673,-296.791C617.819,-246.43 624.02,-129.857 562,-67 534.69,-39.3219 429.72,-26.1458 362.088,-20.409"/>
<polygon fill="midnightblue" stroke="midnightblue" points="608.196,-296.385 610.348,-306.759 615.135,-297.308 608.196,-296.385"/>
</g>
<!-- Node17 -->
<g id="node17" class="node"><title>Node17</title>
<g id="a_node17"><a xlink:href="udp_8cpp.html" target="_top" xlink:title=" ">
<polygon fill="white" stroke="black" points="636,-229 636,-259 754,-259 754,-229 636,-229"/>
<text text-anchor="start" x="644" y="-247" font-family="Helvetica,sans-Serif" font-size="10.00">C:/projects/ndt/sources</text>
<text text-anchor="middle" x="695" y="-236" font-family="Helvetica,sans-Serif" font-size="10.00">/src/udp.cpp</text>
</a>
</g>
</g>
<!-- Node16&#45;&gt;Node17 -->
<g id="edge23" class="edge"><title>Node16&#45;&gt;Node17</title>
<path fill="none" stroke="midnightblue" d="M632.161,-299.894C646.999,-286.932 665.606,-270.678 678.709,-259.231"/>
<polygon fill="midnightblue" stroke="midnightblue" points="629.593,-297.49 624.364,-306.705 634.198,-302.762 629.593,-297.49"/>
</g>
</g>
</svg>
        <g id="navigator" transform="translate(0 0)" fill="#404254">
                <rect fill="#f2f5e9" fill-opacity="0.5" stroke="#606060" stroke-width=".5" x="0" y="0" width="60" height="60"/>
                <use id="zoomplus" xlink:href="#zoomPlus" x="17" y="9" onmousedown="handleZoom(evt,'in')"/>
                <use id="zoomminus" xlink:href="#zoomMin" x="42" y="9" onmousedown="handleZoom(evt,'out')"/>
                <use id="reset" xlink:href="#resetDef" x="30" y="36" onmousedown="handleReset()"/>
                <g id="arrowUp" xlink:href="#dirArrow" transform="translate(30 24)" onmousedown="handlePan(0,-1)">
                  <use xlink:href="#rim" fill="#404040">
                        <set attributeName="fill" to="#808080" begin="arrowUp.mouseover" end="arrowUp.mouseout"/>
                  </use>
                  <path fill="none" stroke="white" stroke-width="1.5" d="M0,-3.0v7 M-2.5,-0.5L0,-3.0L2.5,-0.5"/>
                </g>
                <g id="arrowRight" xlink:href="#dirArrow" transform="rotate(90) translate(36 -43)" onmousedown="handlePan(1,0)">
                  <use xlink:href="#rim" fill="#404040">
                        <set attributeName="fill" to="#808080" begin="arrowRight.mouseover" end="arrowRight.mouseout"/>
                  </use>
                  <path fill="none" stroke="white" stroke-width="1.5" d="M0,-3.0v7 M-2.5,-0.5L0,-3.0L2.5,-0.5"/>
                </g>
                <g id="arrowDown" xlink:href="#dirArrow" transform="rotate(180) translate(-30 -48)" onmousedown="handlePan(0,1)">
                  <use xlink:href="#rim" fill="#404040">
                        <set attributeName="fill" to="#808080" begin="arrowDown.mouseover" end="arrowDown.mouseout"/>
                  </use>
                  <path fill="none" stroke="white" stroke-width="1.5" d="M0,-3.0v7 M-2.5,-0.5L0,-3.0L2.5,-0.5"/>
                </g>
                <g id="arrowLeft" xlink:href="#dirArrow" transform="rotate(270) translate(-36 17)" onmousedown="handlePan(-1,0)">
                  <use xlink:href="#rim" fill="#404040">
                        <set attributeName="fill" to="#808080" begin="arrowLeft.mouseover" end="arrowLeft.mouseout"/>
                  </use>
                  <path fill="none" stroke="white" stroke-width="1.5" d="M0,-3.0v7 M-2.5,-0.5L0,-3.0L2.5,-0.5"/>
                </g>
        </g>
        <svg viewBox="0 0 15 15" width="100%" height="30px" preserveAspectRatio="xMaxYMin meet">
         <g id="arrow_out" transform="scale(0.3 0.3)">
          <a xlink:href="sys__error__code_8h__dep__incl_org.svg" target="_base">
           <rect id="button" ry="5" rx="5" y="6" x="6" height="38" width="38"
                fill="#f2f5e9" fill-opacity="0.5" stroke="#606060" stroke-width="1.0"/>
           <path id="arrow"
             d="M 11.500037,31.436501 C 11.940474,20.09759 22.043105,11.32322 32.158766,21.979434 L 37.068811,17.246167 C 37.068811,17.246167 37.088388,32 37.088388,32 L 22.160133,31.978069 C 22.160133,31.978069 26.997745,27.140456 26.997745,27.140456 C 18.528582,18.264221 13.291696,25.230495 11.500037,31.436501 z"
             style="fill:#404040;"/>
          </a>
         </g>
        </svg>
</svg>
