<?xml version="1.0" encoding="UTF-8" standalone="no"?>
<!DOCTYPE svg PUBLIC "-//W3C//DTD SVG 1.1//EN"
 "http://www.w3.org/Graphics/SVG/1.1/DTD/svg11.dtd">
<!-- Generated by graphviz version 2.38.0 (20140413.2041)
 -->
<!-- Title: C:/projects/ndt/sources/src/sys_file_ops.cpp Pages: 1 -->
<!--zoomable 263 -->
<svg id="main" version="1.1" xmlns="http://www.w3.org/2000/svg" xmlns:xlink="http://www.w3.org/1999/xlink" xml:space="preserve" onload="init(evt)">
<style type="text/css"><![CDATA[
.edge:hover path { stroke: red; }
.edge:hover polygon { stroke: red; fill: red; }
]]></style>
<script type="text/javascript"><![CDATA[
var edges = document.getElementsByTagName('g');
if (edges && edges.length) {
  for (var i=0;i<edges.length;i++) {
    if (edges[i].id.substr(0,4)=='edge') {
      edges[i].setAttribute('class','edge');
    }
  }
}
]]></script>
        <defs>
                <circle id="rim" cx="0" cy="0" r="7"/>
                <circle id="rim2" cx="0" cy="0" r="3.5"/>
                <g id="zoomPlus">
                        <use xlink:href="#rim" fill="#404040">
                                <set attributeName="fill" to="#808080" begin="zoomplus.mouseover" end="zoomplus.mouseout"/>
                        </use>
                        <path d="M-4,0h8M0,-4v8" fill="none" stroke="white" stroke-width="1.5" pointer-events="none"/>
                </g>
                <g id="zoomMin">
                        <use xlink:href="#rim" fill="#404040">
                                <set attributeName="fill" to="#808080" begin="zoomminus.mouseover" end="zoomminus.mouseout"/>
                        </use>
                        <path d="M-4,0h8" fill="none" stroke="white" stroke-width="1.5" pointer-events="none"/>
                </g>
                <g id="dirArrow">
                        <path fill="none" stroke="white" stroke-width="1.5" d="M0,-3.0v7 M-2.5,-0.5L0,-3.0L2.5,-0.5"/>
                </g>
               <g id="resetDef">
                       <use xlink:href="#rim2" fill="#404040">
                               <set attributeName="fill" to="#808080" begin="reset.mouseover" end="reset.mouseout"/>
                       </use>
               </g>
        </defs>

<script type="text/javascript">
var viewWidth = 660;
var viewHeight = 263;
var sectionId = 'dynsection-0';
</script>
<script xlink:href="svgpan.js"/>
<svg id="graph" class="graph">
<g id="viewport">
<title>C:/projects/ndt/sources/src/sys_file_ops.cpp</title>
<polygon fill="white" stroke="none" points="-4,4 -4,-259 656,-259 656,4 -4,4"/>
<!-- Node1 -->
<g id="node1" class="node"><title>Node1</title>
<g id="a_node1"><a xlink:title=" ">
<polygon fill="#bfbfbf" stroke="black" points="323,-224.5 323,-254.5 441,-254.5 441,-224.5 323,-224.5"/>
<text text-anchor="start" x="331" y="-242.5" font-family="Helvetica,sans-Serif" font-size="10.00">C:/projects/ndt/sources</text>
<text text-anchor="middle" x="382" y="-231.5" font-family="Helvetica,sans-Serif" font-size="10.00">/src/sys_file_ops.cpp</text>
</a>
</g>
</g>
<!-- Node2 -->
<g id="node2" class="node"><title>Node2</title>
<g id="a_node2"><a xlink:href="sys__file__ops_8h.html" target="_top" xlink:title=" ">
<polygon fill="white" stroke="black" points="286.5,-168.5 286.5,-187.5 381.5,-187.5 381.5,-168.5 286.5,-168.5"/>
<text text-anchor="middle" x="334" y="-175.5" font-family="Helvetica,sans-Serif" font-size="10.00">ndt/sys_file_ops.h</text>
</a>
</g>
</g>
<!-- Node1&#45;&gt;Node2 -->
<g id="edge1" class="edge"><title>Node1&#45;&gt;Node2</title>
<path fill="none" stroke="midnightblue" d="M370.625,-224.399C363.65,-215.753 354.686,-204.642 347.372,-195.576"/>
<polygon fill="midnightblue" stroke="midnightblue" points="349.987,-193.243 340.984,-187.658 344.539,-197.638 349.987,-193.243"/>
</g>
<!-- Node16 -->
<g id="node16" class="node"><title>Node16</title>
<g id="a_node16"><a xlink:title=" ">
<polygon fill="white" stroke="#bfbfbf" points="400,-168.5 400,-187.5 460,-187.5 460,-168.5 400,-168.5"/>
<text text-anchor="middle" x="430" y="-175.5" font-family="Helvetica,sans-Serif" font-size="10.00">sys/stat.h</text>
</a>
</g>
</g>
<!-- Node1&#45;&gt;Node16 -->
<g id="edge16" class="edge"><title>Node1&#45;&gt;Node16</title>
<path fill="none" stroke="midnightblue" d="M393.375,-224.399C400.35,-215.753 409.314,-204.642 416.628,-195.576"/>
<polygon fill="midnightblue" stroke="midnightblue" points="419.461,-197.638 423.016,-187.658 414.013,-193.243 419.461,-197.638"/>
</g>
<!-- Node3 -->
<g id="node3" class="node"><title>Node3</title>
<g id="a_node3"><a xlink:title=" ">
<polygon fill="white" stroke="#bfbfbf" points="226.5,-112.5 226.5,-131.5 269.5,-131.5 269.5,-112.5 226.5,-112.5"/>
<text text-anchor="middle" x="248" y="-119.5" font-family="Helvetica,sans-Serif" font-size="10.00">cstdio</text>
</a>
</g>
</g>
<!-- Node2&#45;&gt;Node3 -->
<g id="edge2" class="edge"><title>Node2&#45;&gt;Node3</title>
<path fill="none" stroke="midnightblue" d="M320.183,-168.324C306.767,-159.9 286.176,-146.971 270.414,-137.074"/>
<polygon fill="midnightblue" stroke="midnightblue" points="272.113,-134.008 261.783,-131.655 268.391,-139.936 272.113,-134.008"/>
</g>
<!-- Node4 -->
<g id="node4" class="node"><title>Node4</title>
<g id="a_node4"><a xlink:href="sys__error__code_8h.html" target="_top" xlink:title=" ">
<polygon fill="white" stroke="black" points="288,-112.5 288,-131.5 380,-131.5 380,-112.5 288,-112.5"/>
<text text-anchor="middle" x="334" y="-119.5" font-family="Helvetica,sans-Serif" font-size="10.00">sys_error_code.h</text>
</a>
</g>
</g>
<!-- Node2&#45;&gt;Node4 -->
<g id="edge3" class="edge"><title>Node2&#45;&gt;Node4</title>
<path fill="none" stroke="midnightblue" d="M334,-168.083C334,-161.006 334,-150.861 334,-141.986"/>
<polygon fill="midnightblue" stroke="midnightblue" points="337.5,-141.751 334,-131.751 330.5,-141.751 337.5,-141.751"/>
</g>
<!-- Node15 -->
<g id="node15" class="node"><title>Node15</title>
<g id="a_node15"><a xlink:href="useful__base__types_8h.html" target="_top" xlink:title=" ">
<polygon fill="white" stroke="black" points="355,-56.5 355,-75.5 461,-75.5 461,-56.5 355,-56.5"/>
<text text-anchor="middle" x="408" y="-63.5" font-family="Helvetica,sans-Serif" font-size="10.00">useful_base_types.h</text>
</a>
</g>
</g>
<!-- Node2&#45;&gt;Node15 -->
<g id="edge15" class="edge"><title>Node2&#45;&gt;Node15</title>
<path fill="none" stroke="midnightblue" d="M348.731,-168.496C361.2,-160.57 378.649,-147.637 389,-132 398.227,-118.06 403.066,-99.5535 405.544,-85.8531"/>
<polygon fill="midnightblue" stroke="midnightblue" points="409.048,-86.0982 407.116,-75.6811 402.13,-85.0295 409.048,-86.0982"/>
</g>
<!-- Node5 -->
<g id="node5" class="node"><title>Node5</title>
<g id="a_node5"><a xlink:href="common_8h.html" target="_top" xlink:title="Header with typedefs to make type designation platform independent.">
<polygon fill="white" stroke="black" points="275,-56.5 275,-75.5 337,-75.5 337,-56.5 275,-56.5"/>
<text text-anchor="middle" x="306" y="-63.5" font-family="Helvetica,sans-Serif" font-size="10.00">common.h</text>
</a>
</g>
</g>
<!-- Node4&#45;&gt;Node5 -->
<g id="edge4" class="edge"><title>Node4&#45;&gt;Node5</title>
<path fill="none" stroke="midnightblue" d="M329.376,-112.083C325.544,-104.691 319.976,-93.9533 315.235,-84.8111"/>
<polygon fill="midnightblue" stroke="midnightblue" points="318.248,-83.0175 310.538,-75.7511 312.034,-86.2398 318.248,-83.0175"/>
</g>
<!-- Node4&#45;&gt;Node15 -->
<g id="edge14" class="edge"><title>Node4&#45;&gt;Node15</title>
<path fill="none" stroke="midnightblue" d="M345.889,-112.324C357.15,-104.107 374.287,-91.6017 387.709,-81.8069"/>
<polygon fill="midnightblue" stroke="midnightblue" points="389.88,-84.5559 395.894,-75.8339 385.753,-78.9014 389.88,-84.5559"/>
</g>
<!-- Node6 -->
<g id="node6" class="node"><title>Node6</title>
<g id="a_node6"><a xlink:title=" ">
<polygon fill="white" stroke="#bfbfbf" points="0,-0.5 0,-19.5 62,-19.5 62,-0.5 0,-0.5"/>
<text text-anchor="middle" x="31" y="-7.5" font-family="Helvetica,sans-Serif" font-size="10.00">arpa/inet.h</text>
</a>
</g>
</g>
<!-- Node5&#45;&gt;Node6 -->
<g id="edge5" class="edge"><title>Node5&#45;&gt;Node6</title>
<path fill="none" stroke="midnightblue" d="M274.766,-59.3489C231.533,-51.4552 150.772,-36.4516 72.4546,-20.2544"/>
<polygon fill="midnightblue" stroke="midnightblue" points="72.9251,-16.7775 62.4222,-18.1701 71.5011,-23.6312 72.9251,-16.7775"/>
</g>
<!-- Node7 -->
<g id="node7" class="node"><title>Node7</title>
<g id="a_node7"><a xlink:title=" ">
<polygon fill="white" stroke="#bfbfbf" points="80.5,-0.5 80.5,-19.5 127.5,-19.5 127.5,-0.5 80.5,-0.5"/>
<text text-anchor="middle" x="104" y="-7.5" font-family="Helvetica,sans-Serif" font-size="10.00">errno.h</text>
</a>
</g>
</g>
<!-- Node5&#45;&gt;Node7 -->
<g id="edge6" class="edge"><title>Node5&#45;&gt;Node7</title>
<path fill="none" stroke="midnightblue" d="M274.94,-56.9316C242.827,-48.5559 190.98,-34.9401 137.713,-20.4413"/>
<polygon fill="midnightblue" stroke="midnightblue" points="138.323,-16.9799 127.754,-17.7248 136.481,-23.7332 138.323,-16.9799"/>
</g>
<!-- Node8 -->
<g id="node8" class="node"><title>Node8</title>
<g id="a_node8"><a xlink:title=" ">
<polygon fill="white" stroke="#bfbfbf" points="145.5,-0.5 145.5,-19.5 188.5,-19.5 188.5,-0.5 145.5,-0.5"/>
<text text-anchor="middle" x="167" y="-7.5" font-family="Helvetica,sans-Serif" font-size="10.00">fcntl.h</text>
</a>
</g>
</g>
<!-- Node5&#45;&gt;Node8 -->
<g id="edge7" class="edge"><title>Node5&#45;&gt;Node8</title>
<path fill="none" stroke="midnightblue" d="M283.975,-56.4435C260.896,-47.4776 224.438,-33.314 198.359,-23.1827"/>
<polygon fill="midnightblue" stroke="midnightblue" points="199.511,-19.8753 188.922,-19.5164 196.976,-26.4002 199.511,-19.8753"/>
</g>
<!-- Node9 -->
<g id="node9" class="node"><title>Node9</title>
<g id="a_node9"><a xlink:title=" ">
<polygon fill="white" stroke="#bfbfbf" points="206.5,-0.5 206.5,-19.5 255.5,-19.5 255.5,-0.5 206.5,-0.5"/>
<text text-anchor="middle" x="231" y="-7.5" font-family="Helvetica,sans-Serif" font-size="10.00">netdb.h</text>
</a>
</g>
</g>
<!-- Node5&#45;&gt;Node9 -->
<g id="edge8" class="edge"><title>Node5&#45;&gt;Node9</title>
<path fill="none" stroke="midnightblue" d="M293.95,-56.324C282.537,-48.1066 265.169,-35.6017 251.565,-25.8069"/>
<polygon fill="midnightblue" stroke="midnightblue" points="253.43,-22.8366 243.269,-19.8339 249.34,-28.5174 253.43,-22.8366"/>
</g>
<!-- Node10 -->
<g id="node10" class="node"><title>Node10</title>
<g id="a_node10"><a xlink:title=" ">
<polygon fill="white" stroke="#bfbfbf" points="273.5,-0.5 273.5,-19.5 338.5,-19.5 338.5,-0.5 273.5,-0.5"/>
<text text-anchor="middle" x="306" y="-7.5" font-family="Helvetica,sans-Serif" font-size="10.00">netinet/in.h</text>
</a>
</g>
</g>
<!-- Node5&#45;&gt;Node10 -->
<g id="edge9" class="edge"><title>Node5&#45;&gt;Node10</title>
<path fill="none" stroke="midnightblue" d="M306,-56.083C306,-49.0059 306,-38.8611 306,-29.9865"/>
<polygon fill="midnightblue" stroke="midnightblue" points="309.5,-29.751 306,-19.7511 302.5,-29.7511 309.5,-29.751"/>
</g>
<!-- Node11 -->
<g id="node11" class="node"><title>Node11</title>
<g id="a_node11"><a xlink:title=" ">
<polygon fill="white" stroke="#bfbfbf" points="356.5,-0.5 356.5,-19.5 429.5,-19.5 429.5,-0.5 356.5,-0.5"/>
<text text-anchor="middle" x="393" y="-7.5" font-family="Helvetica,sans-Serif" font-size="10.00">sys/socket.h</text>
</a>
</g>
</g>
<!-- Node5&#45;&gt;Node11 -->
<g id="edge10" class="edge"><title>Node5&#45;&gt;Node11</title>
<path fill="none" stroke="midnightblue" d="M319.978,-56.324C333.55,-47.9002 354.38,-34.9709 370.325,-25.0741"/>
<polygon fill="midnightblue" stroke="midnightblue" points="372.406,-27.9019 379.057,-19.6545 368.714,-21.9544 372.406,-27.9019"/>
</g>
<!-- Node12 -->
<g id="node12" class="node"><title>Node12</title>
<g id="a_node12"><a xlink:title=" ">
<polygon fill="white" stroke="#bfbfbf" points="448,-0.5 448,-19.5 516,-19.5 516,-0.5 448,-0.5"/>
<text text-anchor="middle" x="482" y="-7.5" font-family="Helvetica,sans-Serif" font-size="10.00">sys/types.h</text>
</a>
</g>
</g>
<!-- Node5&#45;&gt;Node12 -->
<g id="edge11" class="edge"><title>Node5&#45;&gt;Node12</title>
<path fill="none" stroke="midnightblue" d="M333.888,-56.4435C363.754,-47.2801 411.315,-32.6876 444.456,-22.5192"/>
<polygon fill="midnightblue" stroke="midnightblue" points="445.709,-25.7958 454.243,-19.5164 443.656,-19.1037 445.709,-25.7958"/>
</g>
<!-- Node13 -->
<g id="node13" class="node"><title>Node13</title>
<g id="a_node13"><a xlink:title=" ">
<polygon fill="white" stroke="#bfbfbf" points="534.5,-0.5 534.5,-19.5 585.5,-19.5 585.5,-0.5 534.5,-0.5"/>
<text text-anchor="middle" x="560" y="-7.5" font-family="Helvetica,sans-Serif" font-size="10.00">unistd.h</text>
</a>
</g>
</g>
<!-- Node5&#45;&gt;Node13 -->
<g id="edge12" class="edge"><title>Node5&#45;&gt;Node13</title>
<path fill="none" stroke="midnightblue" d="M337.428,-57.8575C340.324,-57.2208 343.215,-56.5932 346,-56 422.267,-39.7528 444.205,-38.212 524.354,-20.0442"/>
<polygon fill="midnightblue" stroke="midnightblue" points="525.455,-23.383 534.424,-17.7441 523.896,-16.5587 525.455,-23.383"/>
</g>
<!-- Node14 -->
<g id="node14" class="node"><title>Node14</title>
<g id="a_node14"><a xlink:title=" ">
<polygon fill="white" stroke="#bfbfbf" points="604,-0.5 604,-19.5 652,-19.5 652,-0.5 604,-0.5"/>
<text text-anchor="middle" x="628" y="-7.5" font-family="Helvetica,sans-Serif" font-size="10.00">cstddef</text>
</a>
</g>
</g>
<!-- Node5&#45;&gt;Node14 -->
<g id="edge13" class="edge"><title>Node5&#45;&gt;Node14</title>
<path fill="none" stroke="midnightblue" d="M337.395,-57.6938C340.298,-57.0915 343.2,-56.5166 346,-56 452.847,-36.2866 483.783,-42.3764 594.082,-19.9641"/>
<polygon fill="midnightblue" stroke="midnightblue" points="594.846,-23.3802 603.932,-17.9305 593.431,-16.5247 594.846,-23.3802"/>
</g>
</g>
</svg>
        <g id="navigator" transform="translate(0 0)" fill="#404254">
                <rect fill="#f2f5e9" fill-opacity="0.5" stroke="#606060" stroke-width=".5" x="0" y="0" width="60" height="60"/>
                <use id="zoomplus" xlink:href="#zoomPlus" x="17" y="9" onmousedown="handleZoom(evt,'in')"/>
                <use id="zoomminus" xlink:href="#zoomMin" x="42" y="9" onmousedown="handleZoom(evt,'out')"/>
                <use id="reset" xlink:href="#resetDef" x="30" y="36" onmousedown="handleReset()"/>
                <g id="arrowUp" xlink:href="#dirArrow" transform="translate(30 24)" onmousedown="handlePan(0,-1)">
                  <use xlink:href="#rim" fill="#404040">
                        <set attributeName="fill" to="#808080" begin="arrowUp.mouseover" end="arrowUp.mouseout"/>
                  </use>
                  <path fill="none" stroke="white" stroke-width="1.5" d="M0,-3.0v7 M-2.5,-0.5L0,-3.0L2.5,-0.5"/>
                </g>
                <g id="arrowRight" xlink:href="#dirArrow" transform="rotate(90) translate(36 -43)" onmousedown="handlePan(1,0)">
                  <use xlink:href="#rim" fill="#404040">
                        <set attributeName="fill" to="#808080" begin="arrowRight.mouseover" end="arrowRight.mouseout"/>
                  </use>
                  <path fill="none" stroke="white" stroke-width="1.5" d="M0,-3.0v7 M-2.5,-0.5L0,-3.0L2.5,-0.5"/>
                </g>
                <g id="arrowDown" xlink:href="#dirArrow" transform="rotate(180) translate(-30 -48)" onmousedown="handlePan(0,1)">
                  <use xlink:href="#rim" fill="#404040">
                        <set attributeName="fill" to="#808080" begin="arrowDown.mouseover" end="arrowDown.mouseout"/>
                  </use>
                  <path fill="none" stroke="white" stroke-width="1.5" d="M0,-3.0v7 M-2.5,-0.5L0,-3.0L2.5,-0.5"/>
                </g>
                <g id="arrowLeft" xlink:href="#dirArrow" transform="rotate(270) translate(-36 17)" onmousedown="handlePan(-1,0)">
                  <use xlink:href="#rim" fill="#404040">
                        <set attributeName="fill" to="#808080" begin="arrowLeft.mouseover" end="arrowLeft.mouseout"/>
                  </use>
                  <path fill="none" stroke="white" stroke-width="1.5" d="M0,-3.0v7 M-2.5,-0.5L0,-3.0L2.5,-0.5"/>
                </g>
        </g>
        <svg viewBox="0 0 15 15" width="100%" height="30px" preserveAspectRatio="xMaxYMin meet">
         <g id="arrow_out" transform="scale(0.3 0.3)">
          <a xlink:href="sys__file__ops_8cpp__incl_org.svg" target="_base">
           <rect id="button" ry="5" rx="5" y="6" x="6" height="38" width="38"
                fill="#f2f5e9" fill-opacity="0.5" stroke="#606060" stroke-width="1.0"/>
           <path id="arrow"
             d="M 11.500037,31.436501 C 11.940474,20.09759 22.043105,11.32322 32.158766,21.979434 L 37.068811,17.246167 C 37.068811,17.246167 37.088388,32 37.088388,32 L 22.160133,31.978069 C 22.160133,31.978069 26.997745,27.140456 26.997745,27.140456 C 18.528582,18.264221 13.291696,25.230495 11.500037,31.436501 z"
             style="fill:#404040;"/>
          </a>
         </g>
        </svg>
</svg>
