<?xml version="1.0" encoding="UTF-8" standalone="no"?>
<!DOCTYPE svg PUBLIC "-//W3C//DTD SVG 1.1//EN"
 "http://www.w3.org/Graphics/SVG/1.1/DTD/svg11.dtd">
<!-- Generated by graphviz version 2.38.0 (20140413.2041)
 -->
<!-- Title: C:/projects/ndt/sources/src/thread_pool.cpp Pages: 1 -->
<svg width="609pt" height="151pt"
 viewBox="0.00 0.00 608.50 151.00" xmlns="http://www.w3.org/2000/svg" xmlns:xlink="http://www.w3.org/1999/xlink">
<g id="graph0" class="graph" transform="scale(1 1) rotate(0) translate(4 147)">
<title>C:/projects/ndt/sources/src/thread_pool.cpp</title>
<polygon fill="white" stroke="none" points="-4,4 -4,-147 604.5,-147 604.5,4 -4,4"/>
<!-- Node1 -->
<g id="node1" class="node"><title>Node1</title>
<g id="a_node1"><a xlink:title=" ">
<polygon fill="#bfbfbf" stroke="black" points="269.5,-112.5 269.5,-142.5 387.5,-142.5 387.5,-112.5 269.5,-112.5"/>
<text text-anchor="start" x="277.5" y="-130.5" font-family="Helvetica,sans-Serif" font-size="10.00">C:/projects/ndt/sources</text>
<text text-anchor="middle" x="328.5" y="-119.5" font-family="Helvetica,sans-Serif" font-size="10.00">/src/thread_pool.cpp</text>
</a>
</g>
</g>
<!-- Node2 -->
<g id="node2" class="node"><title>Node2</title>
<g id="a_node2"><a xlink:href="thread__pool_8h.html" target="_top" xlink:title=" ">
<polygon fill="white" stroke="black" points="282.5,-56.5 282.5,-75.5 374.5,-75.5 374.5,-56.5 282.5,-56.5"/>
<text text-anchor="middle" x="328.5" y="-63.5" font-family="Helvetica,sans-Serif" font-size="10.00">ndt/thread_pool.h</text>
</a>
</g>
</g>
<!-- Node1&#45;&gt;Node2 -->
<g id="edge1" class="edge"><title>Node1&#45;&gt;Node2</title>
<path fill="none" stroke="midnightblue" d="M328.5,-112.399C328.5,-104.466 328.5,-94.458 328.5,-85.8583"/>
<polygon fill="midnightblue" stroke="midnightblue" points="332,-85.6577 328.5,-75.6578 325,-85.6578 332,-85.6577"/>
</g>
<!-- Node3 -->
<g id="node3" class="node"><title>Node3</title>
<g id="a_node3"><a xlink:title=" ">
<polygon fill="white" stroke="#bfbfbf" points="0,-0.5 0,-19.5 93,-19.5 93,-0.5 0,-0.5"/>
<text text-anchor="middle" x="46.5" y="-7.5" font-family="Helvetica,sans-Serif" font-size="10.00">condition_variable</text>
</a>
</g>
</g>
<!-- Node2&#45;&gt;Node3 -->
<g id="edge2" class="edge"><title>Node2&#45;&gt;Node3</title>
<path fill="none" stroke="midnightblue" d="M283.816,-56.4435C234.21,-46.9444 154.135,-31.611 100.915,-21.4198"/>
<polygon fill="midnightblue" stroke="midnightblue" points="101.455,-17.9597 90.9747,-19.5164 100.138,-24.8348 101.455,-17.9597"/>
</g>
<!-- Node4 -->
<g id="node4" class="node"><title>Node4</title>
<g id="a_node4"><a xlink:title=" ">
<polygon fill="white" stroke="#bfbfbf" points="111,-0.5 111,-19.5 154,-19.5 154,-0.5 111,-0.5"/>
<text text-anchor="middle" x="132.5" y="-7.5" font-family="Helvetica,sans-Serif" font-size="10.00">deque</text>
</a>
</g>
</g>
<!-- Node2&#45;&gt;Node4 -->
<g id="edge3" class="edge"><title>Node2&#45;&gt;Node4</title>
<path fill="none" stroke="midnightblue" d="M296.518,-56.4432C265.195,-48.0263 215.869,-34.675 163.898,-20.0784"/>
<polygon fill="midnightblue" stroke="midnightblue" points="164.742,-16.6798 154.167,-17.3393 162.845,-23.4179 164.742,-16.6798"/>
</g>
<!-- Node5 -->
<g id="node5" class="node"><title>Node5</title>
<g id="a_node5"><a xlink:title=" ">
<polygon fill="white" stroke="#bfbfbf" points="172.5,-0.5 172.5,-19.5 230.5,-19.5 230.5,-0.5 172.5,-0.5"/>
<text text-anchor="middle" x="201.5" y="-7.5" font-family="Helvetica,sans-Serif" font-size="10.00">functional</text>
</a>
</g>
</g>
<!-- Node2&#45;&gt;Node5 -->
<g id="edge4" class="edge"><title>Node2&#45;&gt;Node5</title>
<path fill="none" stroke="midnightblue" d="M308.376,-56.4435C287.476,-47.5566 254.565,-33.5632 230.784,-23.4514"/>
<polygon fill="midnightblue" stroke="midnightblue" points="232.102,-20.2085 221.529,-19.5164 229.362,-26.6504 232.102,-20.2085"/>
</g>
<!-- Node6 -->
<g id="node6" class="node"><title>Node6</title>
<g id="a_node6"><a xlink:title=" ">
<polygon fill="white" stroke="#bfbfbf" points="249,-0.5 249,-19.5 290,-19.5 290,-0.5 249,-0.5"/>
<text text-anchor="middle" x="269.5" y="-7.5" font-family="Helvetica,sans-Serif" font-size="10.00">future</text>
</a>
</g>
</g>
<!-- Node2&#45;&gt;Node6 -->
<g id="edge5" class="edge"><title>Node2&#45;&gt;Node6</title>
<path fill="none" stroke="midnightblue" d="M319.021,-56.324C310.299,-48.3414 297.157,-36.3128 286.602,-26.6529"/>
<polygon fill="midnightblue" stroke="midnightblue" points="288.892,-24.0036 279.152,-19.8339 284.166,-29.1674 288.892,-24.0036"/>
</g>
<!-- Node7 -->
<g id="node7" class="node"><title>Node7</title>
<g id="a_node7"><a xlink:title=" ">
<polygon fill="white" stroke="#bfbfbf" points="308.5,-0.5 308.5,-19.5 348.5,-19.5 348.5,-0.5 308.5,-0.5"/>
<text text-anchor="middle" x="328.5" y="-7.5" font-family="Helvetica,sans-Serif" font-size="10.00">limits</text>
</a>
</g>
</g>
<!-- Node2&#45;&gt;Node7 -->
<g id="edge6" class="edge"><title>Node2&#45;&gt;Node7</title>
<path fill="none" stroke="midnightblue" d="M328.5,-56.083C328.5,-49.0059 328.5,-38.8611 328.5,-29.9865"/>
<polygon fill="midnightblue" stroke="midnightblue" points="332,-29.751 328.5,-19.7511 325,-29.7511 332,-29.751"/>
</g>
<!-- Node8 -->
<g id="node8" class="node"><title>Node8</title>
<g id="a_node8"><a xlink:title=" ">
<polygon fill="white" stroke="#bfbfbf" points="366.5,-0.5 366.5,-19.5 410.5,-19.5 410.5,-0.5 366.5,-0.5"/>
<text text-anchor="middle" x="388.5" y="-7.5" font-family="Helvetica,sans-Serif" font-size="10.00">mutex</text>
</a>
</g>
</g>
<!-- Node2&#45;&gt;Node8 -->
<g id="edge7" class="edge"><title>Node2&#45;&gt;Node8</title>
<path fill="none" stroke="midnightblue" d="M338.14,-56.324C347.01,-48.3414 360.375,-36.3128 371.108,-26.6529"/>
<polygon fill="midnightblue" stroke="midnightblue" points="373.593,-29.1251 378.685,-19.8339 368.91,-23.922 373.593,-29.1251"/>
</g>
<!-- Node9 -->
<g id="node9" class="node"><title>Node9</title>
<g id="a_node9"><a xlink:title=" ">
<polygon fill="white" stroke="#bfbfbf" points="428.5,-0.5 428.5,-19.5 478.5,-19.5 478.5,-0.5 428.5,-0.5"/>
<text text-anchor="middle" x="453.5" y="-7.5" font-family="Helvetica,sans-Serif" font-size="10.00">optional</text>
</a>
</g>
</g>
<!-- Node2&#45;&gt;Node9 -->
<g id="edge8" class="edge"><title>Node2&#45;&gt;Node9</title>
<path fill="none" stroke="midnightblue" d="M348.307,-56.4435C368.787,-47.5961 400.983,-33.6875 424.365,-23.5865"/>
<polygon fill="midnightblue" stroke="midnightblue" points="425.994,-26.6953 433.786,-19.5164 423.218,-20.2692 425.994,-26.6953"/>
</g>
<!-- Node10 -->
<g id="node10" class="node"><title>Node10</title>
<g id="a_node10"><a xlink:title=" ">
<polygon fill="white" stroke="#bfbfbf" points="496.5,-0.5 496.5,-19.5 540.5,-19.5 540.5,-0.5 496.5,-0.5"/>
<text text-anchor="middle" x="518.5" y="-7.5" font-family="Helvetica,sans-Serif" font-size="10.00">thread</text>
</a>
</g>
</g>
<!-- Node2&#45;&gt;Node10 -->
<g id="edge9" class="edge"><title>Node2&#45;&gt;Node10</title>
<path fill="none" stroke="midnightblue" d="M358.999,-56.4342C389.081,-47.971 436.624,-34.5567 486.766,-20.197"/>
<polygon fill="midnightblue" stroke="midnightblue" points="487.841,-23.5299 496.49,-17.4099 485.913,-16.8009 487.841,-23.5299"/>
</g>
<!-- Node11 -->
<g id="node11" class="node"><title>Node11</title>
<g id="a_node11"><a xlink:title=" ">
<polygon fill="white" stroke="#bfbfbf" points="558.5,-0.5 558.5,-19.5 600.5,-19.5 600.5,-0.5 558.5,-0.5"/>
<text text-anchor="middle" x="579.5" y="-7.5" font-family="Helvetica,sans-Serif" font-size="10.00">vector</text>
</a>
</g>
</g>
<!-- Node2&#45;&gt;Node11 -->
<g id="edge10" class="edge"><title>Node2&#45;&gt;Node11</title>
<path fill="none" stroke="midnightblue" d="M374.912,-56.8151C417.63,-48.9989 482.926,-36.3405 548.21,-20.1519"/>
<polygon fill="midnightblue" stroke="midnightblue" points="549.413,-23.4587 558.261,-17.631 547.71,-16.669 549.413,-23.4587"/>
</g>
</g>
</svg>
