<?xml version="1.0" encoding="UTF-8" standalone="no"?>
<!DOCTYPE svg PUBLIC "-//W3C//DTD SVG 1.1//EN"
 "http://www.w3.org/Graphics/SVG/1.1/DTD/svg11.dtd">
<!-- Generated by graphviz version 2.38.0 (20140413.2041)
 -->
<!-- Title: C:/projects/ndt/sources/include/ndt/thread_pool.h Pages: 1 -->
<svg width="609pt" height="95pt"
 viewBox="0.00 0.00 608.50 95.00" xmlns="http://www.w3.org/2000/svg" xmlns:xlink="http://www.w3.org/1999/xlink">
<g id="graph0" class="graph" transform="scale(1 1) rotate(0) translate(4 91)">
<title>C:/projects/ndt/sources/include/ndt/thread_pool.h</title>
<polygon fill="white" stroke="none" points="-4,4 -4,-91 604.5,-91 604.5,4 -4,4"/>
<!-- Node1 -->
<g id="node1" class="node"><title>Node1</title>
<g id="a_node1"><a xlink:title=" ">
<polygon fill="#bfbfbf" stroke="black" points="264.5,-56.5 264.5,-86.5 392.5,-86.5 392.5,-56.5 264.5,-56.5"/>
<text text-anchor="start" x="272.5" y="-74.5" font-family="Helvetica,sans-Serif" font-size="10.00">C:/projects/ndt/sources</text>
<text text-anchor="middle" x="328.5" y="-63.5" font-family="Helvetica,sans-Serif" font-size="10.00">/include/ndt/thread_pool.h</text>
</a>
</g>
</g>
<!-- Node2 -->
<g id="node2" class="node"><title>Node2</title>
<g id="a_node2"><a xlink:title=" ">
<polygon fill="white" stroke="#bfbfbf" points="0,-0.5 0,-19.5 93,-19.5 93,-0.5 0,-0.5"/>
<text text-anchor="middle" x="46.5" y="-7.5" font-family="Helvetica,sans-Serif" font-size="10.00">condition_variable</text>
</a>
</g>
</g>
<!-- Node1&#45;&gt;Node2 -->
<g id="edge1" class="edge"><title>Node1&#45;&gt;Node2</title>
<path fill="none" stroke="midnightblue" d="M264.157,-56.9241C213.423,-46.2195 143.665,-31.5011 96.9271,-21.6398"/>
<polygon fill="midnightblue" stroke="midnightblue" points="97.5346,-18.1909 87.0274,-19.551 96.0894,-25.0401 97.5346,-18.1909"/>
</g>
<!-- Node3 -->
<g id="node3" class="node"><title>Node3</title>
<g id="a_node3"><a xlink:title=" ">
<polygon fill="white" stroke="#bfbfbf" points="111,-0.5 111,-19.5 154,-19.5 154,-0.5 111,-0.5"/>
<text text-anchor="middle" x="132.5" y="-7.5" font-family="Helvetica,sans-Serif" font-size="10.00">deque</text>
</a>
</g>
</g>
<!-- Node1&#45;&gt;Node3 -->
<g id="edge2" class="edge"><title>Node1&#45;&gt;Node3</title>
<path fill="none" stroke="midnightblue" d="M282.051,-56.3993C245.584,-45.3291 195.804,-30.2173 163.899,-20.5319"/>
<polygon fill="midnightblue" stroke="midnightblue" points="164.794,-17.1458 154.208,-17.59 162.76,-23.8439 164.794,-17.1458"/>
</g>
<!-- Node4 -->
<g id="node4" class="node"><title>Node4</title>
<g id="a_node4"><a xlink:title=" ">
<polygon fill="white" stroke="#bfbfbf" points="172.5,-0.5 172.5,-19.5 230.5,-19.5 230.5,-0.5 172.5,-0.5"/>
<text text-anchor="middle" x="201.5" y="-7.5" font-family="Helvetica,sans-Serif" font-size="10.00">functional</text>
</a>
</g>
</g>
<!-- Node1&#45;&gt;Node4 -->
<g id="edge3" class="edge"><title>Node1&#45;&gt;Node4</title>
<path fill="none" stroke="midnightblue" d="M298.403,-56.3993C277.38,-46.55 249.528,-33.5014 229.081,-23.9217"/>
<polygon fill="midnightblue" stroke="midnightblue" points="230.52,-20.7309 219.98,-19.6578 227.55,-27.0698 230.52,-20.7309"/>
</g>
<!-- Node5 -->
<g id="node5" class="node"><title>Node5</title>
<g id="a_node5"><a xlink:title=" ">
<polygon fill="white" stroke="#bfbfbf" points="249,-0.5 249,-19.5 290,-19.5 290,-0.5 249,-0.5"/>
<text text-anchor="middle" x="269.5" y="-7.5" font-family="Helvetica,sans-Serif" font-size="10.00">future</text>
</a>
</g>
</g>
<!-- Node1&#45;&gt;Node5 -->
<g id="edge4" class="edge"><title>Node1&#45;&gt;Node5</title>
<path fill="none" stroke="midnightblue" d="M314.518,-56.3993C305.768,-47.575 294.471,-36.1827 285.383,-27.0178"/>
<polygon fill="midnightblue" stroke="midnightblue" points="287.612,-24.2942 278.085,-19.6578 282.641,-29.2231 287.612,-24.2942"/>
</g>
<!-- Node6 -->
<g id="node6" class="node"><title>Node6</title>
<g id="a_node6"><a xlink:title=" ">
<polygon fill="white" stroke="#bfbfbf" points="308.5,-0.5 308.5,-19.5 348.5,-19.5 348.5,-0.5 308.5,-0.5"/>
<text text-anchor="middle" x="328.5" y="-7.5" font-family="Helvetica,sans-Serif" font-size="10.00">limits</text>
</a>
</g>
</g>
<!-- Node1&#45;&gt;Node6 -->
<g id="edge5" class="edge"><title>Node1&#45;&gt;Node6</title>
<path fill="none" stroke="midnightblue" d="M328.5,-56.3993C328.5,-48.4664 328.5,-38.458 328.5,-29.8583"/>
<polygon fill="midnightblue" stroke="midnightblue" points="332,-29.6577 328.5,-19.6578 325,-29.6578 332,-29.6577"/>
</g>
<!-- Node7 -->
<g id="node7" class="node"><title>Node7</title>
<g id="a_node7"><a xlink:title=" ">
<polygon fill="white" stroke="#bfbfbf" points="366.5,-0.5 366.5,-19.5 410.5,-19.5 410.5,-0.5 366.5,-0.5"/>
<text text-anchor="middle" x="388.5" y="-7.5" font-family="Helvetica,sans-Serif" font-size="10.00">mutex</text>
</a>
</g>
</g>
<!-- Node1&#45;&gt;Node7 -->
<g id="edge6" class="edge"><title>Node1&#45;&gt;Node7</title>
<path fill="none" stroke="midnightblue" d="M342.719,-56.3993C351.708,-47.4859 363.338,-35.9523 372.627,-26.7408"/>
<polygon fill="midnightblue" stroke="midnightblue" points="375.133,-29.1844 379.769,-19.6578 370.204,-24.214 375.133,-29.1844"/>
</g>
<!-- Node8 -->
<g id="node8" class="node"><title>Node8</title>
<g id="a_node8"><a xlink:title=" ">
<polygon fill="white" stroke="#bfbfbf" points="428.5,-0.5 428.5,-19.5 478.5,-19.5 478.5,-0.5 428.5,-0.5"/>
<text text-anchor="middle" x="453.5" y="-7.5" font-family="Helvetica,sans-Serif" font-size="10.00">optional</text>
</a>
</g>
</g>
<!-- Node1&#45;&gt;Node8 -->
<g id="edge7" class="edge"><title>Node1&#45;&gt;Node8</title>
<path fill="none" stroke="midnightblue" d="M358.123,-56.3993C378.722,-46.5945 405.98,-33.6194 426.08,-24.052"/>
<polygon fill="midnightblue" stroke="midnightblue" points="427.786,-27.116 435.311,-19.6578 424.778,-20.7955 427.786,-27.116"/>
</g>
<!-- Node9 -->
<g id="node9" class="node"><title>Node9</title>
<g id="a_node9"><a xlink:title=" ">
<polygon fill="white" stroke="#bfbfbf" points="496.5,-0.5 496.5,-19.5 540.5,-19.5 540.5,-0.5 496.5,-0.5"/>
<text text-anchor="middle" x="518.5" y="-7.5" font-family="Helvetica,sans-Serif" font-size="10.00">thread</text>
</a>
</g>
</g>
<!-- Node1&#45;&gt;Node9 -->
<g id="edge8" class="edge"><title>Node1&#45;&gt;Node9</title>
<path fill="none" stroke="midnightblue" d="M373.527,-56.3993C408.33,-45.5005 455.642,-30.6843 486.613,-20.9857"/>
<polygon fill="midnightblue" stroke="midnightblue" points="487.951,-24.2344 496.448,-17.9058 485.859,-17.5543 487.951,-24.2344"/>
</g>
<!-- Node10 -->
<g id="node10" class="node"><title>Node10</title>
<g id="a_node10"><a xlink:title=" ">
<polygon fill="white" stroke="#bfbfbf" points="558.5,-0.5 558.5,-19.5 600.5,-19.5 600.5,-0.5 558.5,-0.5"/>
<text text-anchor="middle" x="579.5" y="-7.5" font-family="Helvetica,sans-Serif" font-size="10.00">vector</text>
</a>
</g>
</g>
<!-- Node1&#45;&gt;Node10 -->
<g id="edge9" class="edge"><title>Node1&#45;&gt;Node10</title>
<path fill="none" stroke="midnightblue" d="M392.605,-57.0375C434.534,-47.9579 490.689,-35.2829 548.565,-20.1227"/>
<polygon fill="midnightblue" stroke="midnightblue" points="549.469,-23.5041 558.244,-17.5679 547.682,-16.7359 549.469,-23.5041"/>
</g>
</g>
</svg>
