<?xml version="1.0" encoding="UTF-8" standalone="no"?>
<!DOCTYPE svg PUBLIC "-//W3C//DTD SVG 1.1//EN"
 "http://www.w3.org/Graphics/SVG/1.1/DTD/svg11.dtd">
<!-- Generated by graphviz version 2.38.0 (20140413.2041)
 -->
<!-- Title: C:/projects/ndt/sources/src/udp.cpp Pages: 1 -->
<svg width="1326pt" height="431pt"
 viewBox="0.00 0.00 1325.50 431.00" xmlns="http://www.w3.org/2000/svg" xmlns:xlink="http://www.w3.org/1999/xlink">
<g id="graph0" class="graph" transform="scale(1 1) rotate(0) translate(4 427)">
<title>C:/projects/ndt/sources/src/udp.cpp</title>
<polygon fill="white" stroke="none" points="-4,4 -4,-427 1321.5,-427 1321.5,4 -4,4"/>
<!-- Node1 -->
<g id="node1" class="node"><title>Node1</title>
<g id="a_node1"><a xlink:title=" ">
<polygon fill="#bfbfbf" stroke="black" points="356.5,-392.5 356.5,-422.5 474.5,-422.5 474.5,-392.5 356.5,-392.5"/>
<text text-anchor="start" x="364.5" y="-410.5" font-family="Helvetica,sans-Serif" font-size="10.00">C:/projects/ndt/sources</text>
<text text-anchor="middle" x="415.5" y="-399.5" font-family="Helvetica,sans-Serif" font-size="10.00">/src/udp.cpp</text>
</a>
</g>
</g>
<!-- Node2 -->
<g id="node2" class="node"><title>Node2</title>
<g id="a_node2"><a xlink:href="udp_8h.html" target="_top" xlink:title=" ">
<polygon fill="white" stroke="black" points="458,-336.5 458,-355.5 515,-355.5 515,-336.5 458,-336.5"/>
<text text-anchor="middle" x="486.5" y="-343.5" font-family="Helvetica,sans-Serif" font-size="10.00">ndt/udp.h</text>
</a>
</g>
</g>
<!-- Node1&#45;&gt;Node2 -->
<g id="edge1" class="edge"><title>Node1&#45;&gt;Node2</title>
<path fill="none" stroke="midnightblue" d="M432.326,-392.399C443.175,-383.308 457.277,-371.49 468.373,-362.191"/>
<polygon fill="midnightblue" stroke="midnightblue" points="470.752,-364.763 476.169,-355.658 466.256,-359.398 470.752,-364.763"/>
</g>
<!-- Node12 -->
<g id="node12" class="node"><title>Node12</title>
<g id="a_node12"><a xlink:href="common_8h.html" target="_top" xlink:title="Header with typedefs to make type designation platform independent.">
<polygon fill="white" stroke="black" points="260.5,-56.5 260.5,-75.5 322.5,-75.5 322.5,-56.5 260.5,-56.5"/>
<text text-anchor="middle" x="291.5" y="-63.5" font-family="Helvetica,sans-Serif" font-size="10.00">common.h</text>
</a>
</g>
</g>
<!-- Node1&#45;&gt;Node12 -->
<g id="edge63" class="edge"><title>Node1&#45;&gt;Node12</title>
<path fill="none" stroke="midnightblue" d="M399.389,-392.194C378.441,-371.927 344.5,-332.662 344.5,-291 344.5,-291 344.5,-291 344.5,-177 344.5,-140.992 321.166,-104.339 305.463,-83.7501"/>
<polygon fill="midnightblue" stroke="midnightblue" points="308.05,-81.3793 299.094,-75.7193 302.565,-85.7291 308.05,-81.3793"/>
</g>
<!-- Node3 -->
<g id="node3" class="node"><title>Node3</title>
<g id="a_node3"><a xlink:href="utils_8h.html" target="_top" xlink:title=" ">
<polygon fill="white" stroke="black" points="744,-112.5 744,-131.5 787,-131.5 787,-112.5 744,-112.5"/>
<text text-anchor="middle" x="765.5" y="-119.5" font-family="Helvetica,sans-Serif" font-size="10.00">utils.h</text>
</a>
</g>
</g>
<!-- Node2&#45;&gt;Node3 -->
<g id="edge2" class="edge"><title>Node2&#45;&gt;Node3</title>
<path fill="none" stroke="midnightblue" d="M515.332,-339.912C576.785,-327.259 718.929,-287.876 766.5,-188 773.401,-173.512 772.327,-155.066 770.009,-141.528"/>
<polygon fill="midnightblue" stroke="midnightblue" points="773.386,-140.579 767.917,-131.505 766.534,-142.009 773.386,-140.579"/>
</g>
<!-- Node22 -->
<g id="node22" class="node"><title>Node22</title>
<g id="a_node22"><a xlink:href="socket_8h.html" target="_top" xlink:title=" ">
<polygon fill="white" stroke="black" points="459.5,-280.5 459.5,-299.5 513.5,-299.5 513.5,-280.5 459.5,-280.5"/>
<text text-anchor="middle" x="486.5" y="-287.5" font-family="Helvetica,sans-Serif" font-size="10.00">socket.h</text>
</a>
</g>
</g>
<!-- Node2&#45;&gt;Node22 -->
<g id="edge21" class="edge"><title>Node2&#45;&gt;Node22</title>
<path fill="none" stroke="midnightblue" d="M486.5,-336.083C486.5,-329.006 486.5,-318.861 486.5,-309.986"/>
<polygon fill="midnightblue" stroke="midnightblue" points="490,-309.751 486.5,-299.751 483,-309.751 490,-309.751"/>
</g>
<!-- Node4 -->
<g id="node4" class="node"><title>Node4</title>
<g id="a_node4"><a xlink:title=" ">
<polygon fill="white" stroke="#bfbfbf" points="573.5,-56.5 573.5,-75.5 633.5,-75.5 633.5,-56.5 573.5,-56.5"/>
<text text-anchor="middle" x="603.5" y="-63.5" font-family="Helvetica,sans-Serif" font-size="10.00">fmt/core.h</text>
</a>
</g>
</g>
<!-- Node3&#45;&gt;Node4 -->
<g id="edge3" class="edge"><title>Node3&#45;&gt;Node4</title>
<path fill="none" stroke="midnightblue" d="M743.988,-113.829C717.194,-104.898 671.045,-89.515 638.984,-78.8279"/>
<polygon fill="midnightblue" stroke="midnightblue" points="639.705,-75.3791 629.111,-75.5371 637.491,-82.0199 639.705,-75.3791"/>
</g>
<!-- Node5 -->
<g id="node5" class="node"><title>Node5</title>
<g id="a_node5"><a xlink:title=" ">
<polygon fill="white" stroke="#bfbfbf" points="651.5,-56.5 651.5,-75.5 719.5,-75.5 719.5,-56.5 651.5,-56.5"/>
<text text-anchor="middle" x="685.5" y="-63.5" font-family="Helvetica,sans-Serif" font-size="10.00">fmt/format.h</text>
</a>
</g>
</g>
<!-- Node3&#45;&gt;Node5 -->
<g id="edge4" class="edge"><title>Node3&#45;&gt;Node5</title>
<path fill="none" stroke="midnightblue" d="M752.647,-112.324C740.284,-103.979 721.37,-91.2122 706.763,-81.3524"/>
<polygon fill="midnightblue" stroke="midnightblue" points="708.568,-78.3483 698.321,-75.6545 704.652,-84.1503 708.568,-78.3483"/>
</g>
<!-- Node6 -->
<g id="node6" class="node"><title>Node6</title>
<g id="a_node6"><a xlink:title=" ">
<polygon fill="white" stroke="#bfbfbf" points="829.5,-56.5 829.5,-75.5 867.5,-75.5 867.5,-56.5 829.5,-56.5"/>
<text text-anchor="middle" x="848.5" y="-63.5" font-family="Helvetica,sans-Serif" font-size="10.00">array</text>
</a>
</g>
</g>
<!-- Node3&#45;&gt;Node6 -->
<g id="edge5" class="edge"><title>Node3&#45;&gt;Node6</title>
<path fill="none" stroke="midnightblue" d="M778.835,-112.324C791.662,-103.979 811.285,-91.2122 826.44,-81.3524"/>
<polygon fill="midnightblue" stroke="midnightblue" points="828.724,-84.0417 835.198,-75.6545 824.907,-78.1742 828.724,-84.0417"/>
</g>
<!-- Node7 -->
<g id="node7" class="node"><title>Node7</title>
<g id="a_node7"><a xlink:title=" ">
<polygon fill="white" stroke="#bfbfbf" points="340.5,-56.5 340.5,-75.5 386.5,-75.5 386.5,-56.5 340.5,-56.5"/>
<text text-anchor="middle" x="363.5" y="-63.5" font-family="Helvetica,sans-Serif" font-size="10.00">chrono</text>
</a>
</g>
</g>
<!-- Node3&#45;&gt;Node7 -->
<g id="edge6" class="edge"><title>Node3&#45;&gt;Node7</title>
<path fill="none" stroke="midnightblue" d="M743.629,-119.516C687.488,-115.458 533.648,-102.782 396.652,-75.9595"/>
<polygon fill="midnightblue" stroke="midnightblue" points="397.309,-72.5218 386.818,-74.0037 395.944,-79.3873 397.309,-72.5218"/>
</g>
<!-- Node8 -->
<g id="node8" class="node"><title>Node8</title>
<g id="a_node8"><a xlink:title=" ">
<polygon fill="white" stroke="#bfbfbf" points="1003.5,-56.5 1003.5,-75.5 1049.5,-75.5 1049.5,-56.5 1003.5,-56.5"/>
<text text-anchor="middle" x="1026.5" y="-63.5" font-family="Helvetica,sans-Serif" font-size="10.00">cstring</text>
</a>
</g>
</g>
<!-- Node3&#45;&gt;Node8 -->
<g id="edge7" class="edge"><title>Node3&#45;&gt;Node8</title>
<path fill="none" stroke="midnightblue" d="M787.093,-117.352C826.26,-110.609 911.798,-95.304 993.539,-76.0749"/>
<polygon fill="midnightblue" stroke="midnightblue" points="994.566,-79.4284 1003.49,-73.7107 992.947,-72.6181 994.566,-79.4284"/>
</g>
<!-- Node9 -->
<g id="node9" class="node"><title>Node9</title>
<g id="a_node9"><a xlink:title=" ">
<polygon fill="white" stroke="#bfbfbf" points="737.5,-56.5 737.5,-75.5 811.5,-75.5 811.5,-56.5 737.5,-56.5"/>
<text text-anchor="middle" x="774.5" y="-63.5" font-family="Helvetica,sans-Serif" font-size="10.00">system_error</text>
</a>
</g>
</g>
<!-- Node3&#45;&gt;Node9 -->
<g id="edge8" class="edge"><title>Node3&#45;&gt;Node9</title>
<path fill="none" stroke="midnightblue" d="M766.986,-112.083C768.179,-104.927 769.894,-94.6353 771.385,-85.6911"/>
<polygon fill="midnightblue" stroke="midnightblue" points="774.85,-86.1904 773.041,-75.7511 767.945,-85.0396 774.85,-86.1904"/>
</g>
<!-- Node10 -->
<g id="node10" class="node"><title>Node10</title>
<g id="a_node10"><a xlink:title=" ">
<polygon fill="white" stroke="#bfbfbf" points="923.5,-56.5 923.5,-75.5 985.5,-75.5 985.5,-56.5 923.5,-56.5"/>
<text text-anchor="middle" x="954.5" y="-63.5" font-family="Helvetica,sans-Serif" font-size="10.00">type_traits</text>
</a>
</g>
</g>
<!-- Node3&#45;&gt;Node10 -->
<g id="edge9" class="edge"><title>Node3&#45;&gt;Node10</title>
<path fill="none" stroke="midnightblue" d="M787.181,-114.806C818.244,-105.93 875.944,-89.4445 914.784,-78.3474"/>
<polygon fill="midnightblue" stroke="midnightblue" points="916.058,-81.6235 924.712,-75.5108 914.135,-74.8928 916.058,-81.6235"/>
</g>
<!-- Node11 -->
<g id="node11" class="node"><title>Node11</title>
<g id="a_node11"><a xlink:title=" ">
<polygon fill="white" stroke="#bfbfbf" points="405,-56.5 405,-75.5 488,-75.5 488,-56.5 405,-56.5"/>
<text text-anchor="middle" x="446.5" y="-63.5" font-family="Helvetica,sans-Serif" font-size="10.00">unordered_map</text>
</a>
</g>
</g>
<!-- Node3&#45;&gt;Node11 -->
<g id="edge10" class="edge"><title>Node3&#45;&gt;Node11</title>
<path fill="none" stroke="midnightblue" d="M743.866,-117.474C699.676,-110.252 595.623,-93.1447 498.242,-76.2875"/>
<polygon fill="midnightblue" stroke="midnightblue" points="498.686,-72.8124 488.235,-74.552 497.49,-79.7095 498.686,-72.8124"/>
</g>
<!-- Node3&#45;&gt;Node12 -->
<g id="edge11" class="edge"><title>Node3&#45;&gt;Node12</title>
<path fill="none" stroke="midnightblue" d="M743.704,-119.653C681.268,-115.604 496.286,-102.27 333.095,-76.0882"/>
<polygon fill="midnightblue" stroke="midnightblue" points="333.307,-72.5768 322.874,-74.4268 332.183,-79.4861 333.307,-72.5768"/>
</g>
<!-- Node13 -->
<g id="node13" class="node"><title>Node13</title>
<g id="a_node13"><a xlink:title=" ">
<polygon fill="white" stroke="#bfbfbf" points="458.5,-0.5 458.5,-19.5 520.5,-19.5 520.5,-0.5 458.5,-0.5"/>
<text text-anchor="middle" x="489.5" y="-7.5" font-family="Helvetica,sans-Serif" font-size="10.00">arpa/inet.h</text>
</a>
</g>
</g>
<!-- Node12&#45;&gt;Node13 -->
<g id="edge12" class="edge"><title>Node12&#45;&gt;Node13</title>
<path fill="none" stroke="midnightblue" d="M322.874,-56.4435C356.763,-47.2011 410.903,-32.4356 448.224,-22.2572"/>
<polygon fill="midnightblue" stroke="midnightblue" points="449.546,-25.5243 458.273,-19.5164 447.705,-18.771 449.546,-25.5243"/>
</g>
<!-- Node14 -->
<g id="node14" class="node"><title>Node14</title>
<g id="a_node14"><a xlink:title=" ">
<polygon fill="white" stroke="#bfbfbf" points="539,-0.5 539,-19.5 586,-19.5 586,-0.5 539,-0.5"/>
<text text-anchor="middle" x="562.5" y="-7.5" font-family="Helvetica,sans-Serif" font-size="10.00">errno.h</text>
</a>
</g>
</g>
<!-- Node12&#45;&gt;Node14 -->
<g id="edge13" class="edge"><title>Node12&#45;&gt;Node14</title>
<path fill="none" stroke="midnightblue" d="M322.916,-57.8021C325.815,-57.177 328.71,-56.5673 331.5,-56 416.068,-38.8058 440.567,-39.6965 528.857,-19.9753"/>
<polygon fill="midnightblue" stroke="midnightblue" points="529.786,-23.3538 538.769,-17.7355 528.243,-16.5259 529.786,-23.3538"/>
</g>
<!-- Node15 -->
<g id="node15" class="node"><title>Node15</title>
<g id="a_node15"><a xlink:title=" ">
<polygon fill="white" stroke="#bfbfbf" points="0,-0.5 0,-19.5 43,-19.5 43,-0.5 0,-0.5"/>
<text text-anchor="middle" x="21.5" y="-7.5" font-family="Helvetica,sans-Serif" font-size="10.00">fcntl.h</text>
</a>
</g>
</g>
<!-- Node12&#45;&gt;Node15 -->
<g id="edge14" class="edge"><title>Node12&#45;&gt;Node15</title>
<path fill="none" stroke="midnightblue" d="M260.207,-60.2212C216.066,-53.245 132.839,-39.2315 53.2447,-20.2301"/>
<polygon fill="midnightblue" stroke="midnightblue" points="53.5979,-16.7146 43.0552,-17.7648 51.9517,-23.5183 53.5979,-16.7146"/>
</g>
<!-- Node16 -->
<g id="node16" class="node"><title>Node16</title>
<g id="a_node16"><a xlink:title=" ">
<polygon fill="white" stroke="#bfbfbf" points="61,-0.5 61,-19.5 110,-19.5 110,-0.5 61,-0.5"/>
<text text-anchor="middle" x="85.5" y="-7.5" font-family="Helvetica,sans-Serif" font-size="10.00">netdb.h</text>
</a>
</g>
</g>
<!-- Node12&#45;&gt;Node16 -->
<g id="edge15" class="edge"><title>Node12&#45;&gt;Node16</title>
<path fill="none" stroke="midnightblue" d="M260.218,-56.9812C227.509,-48.5706 174.428,-34.8491 120.144,-20.4189"/>
<polygon fill="midnightblue" stroke="midnightblue" points="120.922,-17.004 110.358,-17.813 119.12,-23.7683 120.922,-17.004"/>
</g>
<!-- Node17 -->
<g id="node17" class="node"><title>Node17</title>
<g id="a_node17"><a xlink:title=" ">
<polygon fill="white" stroke="#bfbfbf" points="128,-0.5 128,-19.5 193,-19.5 193,-0.5 128,-0.5"/>
<text text-anchor="middle" x="160.5" y="-7.5" font-family="Helvetica,sans-Serif" font-size="10.00">netinet/in.h</text>
</a>
</g>
</g>
<!-- Node12&#45;&gt;Node17 -->
<g id="edge16" class="edge"><title>Node12&#45;&gt;Node17</title>
<path fill="none" stroke="midnightblue" d="M270.743,-56.4435C249.184,-47.5566 215.237,-33.5632 190.706,-23.4514"/>
<polygon fill="midnightblue" stroke="midnightblue" points="191.739,-20.0917 181.16,-19.5164 189.072,-26.5634 191.739,-20.0917"/>
</g>
<!-- Node18 -->
<g id="node18" class="node"><title>Node18</title>
<g id="a_node18"><a xlink:title=" ">
<polygon fill="white" stroke="#bfbfbf" points="211,-0.5 211,-19.5 284,-19.5 284,-0.5 211,-0.5"/>
<text text-anchor="middle" x="247.5" y="-7.5" font-family="Helvetica,sans-Serif" font-size="10.00">sys/socket.h</text>
</a>
</g>
</g>
<!-- Node12&#45;&gt;Node18 -->
<g id="edge17" class="edge"><title>Node12&#45;&gt;Node18</title>
<path fill="none" stroke="midnightblue" d="M284.234,-56.083C277.955,-48.3768 268.712,-37.0333 261.069,-27.6531"/>
<polygon fill="midnightblue" stroke="midnightblue" points="263.661,-25.2926 254.631,-19.7511 258.234,-29.7143 263.661,-25.2926"/>
</g>
<!-- Node19 -->
<g id="node19" class="node"><title>Node19</title>
<g id="a_node19"><a xlink:title=" ">
<polygon fill="white" stroke="#bfbfbf" points="302.5,-0.5 302.5,-19.5 370.5,-19.5 370.5,-0.5 302.5,-0.5"/>
<text text-anchor="middle" x="336.5" y="-7.5" font-family="Helvetica,sans-Serif" font-size="10.00">sys/types.h</text>
</a>
</g>
</g>
<!-- Node12&#45;&gt;Node19 -->
<g id="edge18" class="edge"><title>Node12&#45;&gt;Node19</title>
<path fill="none" stroke="midnightblue" d="M298.931,-56.083C305.353,-48.3768 314.806,-37.0333 322.622,-27.6531"/>
<polygon fill="midnightblue" stroke="midnightblue" points="325.494,-29.674 329.207,-19.7511 320.117,-25.1927 325.494,-29.674"/>
</g>
<!-- Node20 -->
<g id="node20" class="node"><title>Node20</title>
<g id="a_node20"><a xlink:title=" ">
<polygon fill="white" stroke="#bfbfbf" points="389,-0.5 389,-19.5 440,-19.5 440,-0.5 389,-0.5"/>
<text text-anchor="middle" x="414.5" y="-7.5" font-family="Helvetica,sans-Serif" font-size="10.00">unistd.h</text>
</a>
</g>
</g>
<!-- Node12&#45;&gt;Node20 -->
<g id="edge19" class="edge"><title>Node12&#45;&gt;Node20</title>
<path fill="none" stroke="midnightblue" d="M310.99,-56.4435C331.142,-47.5961 362.823,-33.6875 385.831,-23.5865"/>
<polygon fill="midnightblue" stroke="midnightblue" points="387.352,-26.7411 395.101,-19.5164 384.538,-20.3316 387.352,-26.7411"/>
</g>
<!-- Node21 -->
<g id="node21" class="node"><title>Node21</title>
<g id="a_node21"><a xlink:title=" ">
<polygon fill="white" stroke="#bfbfbf" points="715.5,-0.5 715.5,-19.5 763.5,-19.5 763.5,-0.5 715.5,-0.5"/>
<text text-anchor="middle" x="739.5" y="-7.5" font-family="Helvetica,sans-Serif" font-size="10.00">cstddef</text>
</a>
</g>
</g>
<!-- Node12&#45;&gt;Node21 -->
<g id="edge20" class="edge"><title>Node12&#45;&gt;Node21</title>
<path fill="none" stroke="midnightblue" d="M322.878,-57.5928C325.784,-57.0117 328.692,-56.4693 331.5,-56 469.224,-32.9847 635.14,-18.8386 705.409,-13.4679"/>
<polygon fill="midnightblue" stroke="midnightblue" points="705.75,-16.9523 715.458,-12.7102 705.223,-9.97212 705.75,-16.9523"/>
</g>
<!-- Node22&#45;&gt;Node3 -->
<g id="edge62" class="edge"><title>Node22&#45;&gt;Node3</title>
<path fill="none" stroke="midnightblue" d="M507.017,-280.496C522.245,-273.105 542.245,-260.915 553.5,-244 572.572,-215.336 544.519,-192.704 568.5,-168 591.095,-144.724 683.848,-131.594 733.606,-126.097"/>
<polygon fill="midnightblue" stroke="midnightblue" points="734.246,-129.549 743.82,-125.01 733.505,-122.588 734.246,-129.549"/>
</g>
<!-- Node22&#45;&gt;Node12 -->
<g id="edge59" class="edge"><title>Node22&#45;&gt;Node12</title>
<path fill="none" stroke="midnightblue" d="M478.902,-280.214C471.258,-271.271 459.24,-256.923 449.5,-244 406.612,-187.096 409.191,-162.08 358.5,-112 346.028,-99.678 329.741,-88.651 316.349,-80.5967"/>
<polygon fill="midnightblue" stroke="midnightblue" points="318.026,-77.5227 307.623,-75.5161 314.504,-83.5722 318.026,-77.5227"/>
</g>
<!-- Node23 -->
<g id="node23" class="node"><title>Node23</title>
<g id="a_node23"><a xlink:title=" ">
<polygon fill="white" stroke="#bfbfbf" points="506,-56.5 506,-75.5 555,-75.5 555,-56.5 506,-56.5"/>
<text text-anchor="middle" x="530.5" y="-63.5" font-family="Helvetica,sans-Serif" font-size="10.00">cassert</text>
</a>
</g>
</g>
<!-- Node22&#45;&gt;Node23 -->
<g id="edge22" class="edge"><title>Node22&#45;&gt;Node23</title>
<path fill="none" stroke="midnightblue" d="M480.796,-280.199C464.031,-253.121 418.129,-169.414 451.5,-112 461.181,-95.3448 479.586,-84.3423 496.198,-77.3882"/>
<polygon fill="midnightblue" stroke="midnightblue" points="497.607,-80.5966 505.691,-73.7494 495.101,-74.0603 497.607,-80.5966"/>
</g>
<!-- Node24 -->
<g id="node24" class="node"><title>Node24</title>
<g id="a_node24"><a xlink:title=" ">
<polygon fill="white" stroke="#bfbfbf" points="486.5,-224.5 486.5,-243.5 544.5,-243.5 544.5,-224.5 486.5,-224.5"/>
<text text-anchor="middle" x="515.5" y="-231.5" font-family="Helvetica,sans-Serif" font-size="10.00">functional</text>
</a>
</g>
</g>
<!-- Node22&#45;&gt;Node24 -->
<g id="edge23" class="edge"><title>Node22&#45;&gt;Node24</title>
<path fill="none" stroke="midnightblue" d="M491.289,-280.083C495.258,-272.691 501.025,-261.953 505.935,-252.811"/>
<polygon fill="midnightblue" stroke="midnightblue" points="509.153,-254.217 510.8,-243.751 502.986,-250.905 509.153,-254.217"/>
</g>
<!-- Node25 -->
<g id="node25" class="node"><title>Node25</title>
<g id="a_node25"><a xlink:href="address_8h.html" target="_top" xlink:title=" ">
<polygon fill="white" stroke="black" points="630,-224.5 630,-243.5 689,-243.5 689,-224.5 630,-224.5"/>
<text text-anchor="middle" x="659.5" y="-231.5" font-family="Helvetica,sans-Serif" font-size="10.00">address.h</text>
</a>
</g>
</g>
<!-- Node22&#45;&gt;Node25 -->
<g id="edge24" class="edge"><title>Node22&#45;&gt;Node25</title>
<path fill="none" stroke="midnightblue" d="M513.531,-280.563C542.813,-271.423 589.716,-256.782 622.427,-246.572"/>
<polygon fill="midnightblue" stroke="midnightblue" points="623.585,-249.877 632.088,-243.556 621.499,-243.195 623.585,-249.877"/>
</g>
<!-- Node30 -->
<g id="node30" class="node"><title>Node30</title>
<g id="a_node30"><a xlink:href="buffer_8h.html" target="_top" xlink:title=" ">
<polygon fill="white" stroke="black" points="855.5,-112.5 855.5,-131.5 903.5,-131.5 903.5,-112.5 855.5,-112.5"/>
<text text-anchor="middle" x="879.5" y="-119.5" font-family="Helvetica,sans-Serif" font-size="10.00">buffer.h</text>
</a>
</g>
</g>
<!-- Node22&#45;&gt;Node30 -->
<g id="edge58" class="edge"><title>Node22&#45;&gt;Node30</title>
<path fill="none" stroke="midnightblue" d="M513.532,-285.84C554.382,-280.491 633.832,-267.833 697.5,-244 745.57,-226.006 755.886,-216.61 798.5,-188 821.488,-172.567 846.043,-152.26 862.013,-138.48"/>
<polygon fill="midnightblue" stroke="midnightblue" points="864.702,-140.779 869.938,-131.569 860.101,-135.504 864.702,-140.779"/>
</g>
<!-- Node36 -->
<g id="node36" class="node"><title>Node36</title>
<g id="a_node36"><a xlink:href="exception_8h.html" target="_top" xlink:title=" ">
<polygon fill="white" stroke="black" points="461,-112.5 461,-131.5 528,-131.5 528,-112.5 461,-112.5"/>
<text text-anchor="middle" x="494.5" y="-119.5" font-family="Helvetica,sans-Serif" font-size="10.00">exception.h</text>
</a>
</g>
</g>
<!-- Node22&#45;&gt;Node36 -->
<g id="edge60" class="edge"><title>Node22&#45;&gt;Node36</title>
<path fill="none" stroke="midnightblue" d="M484.265,-280.449C482.038,-271.453 478.772,-256.844 477.5,-244 473.891,-207.552 482.883,-165.229 489.12,-141.535"/>
<polygon fill="midnightblue" stroke="midnightblue" points="492.527,-142.347 491.815,-131.776 485.779,-140.483 492.527,-142.347"/>
</g>
<!-- Node39 -->
<g id="node39" class="node"><title>Node39</title>
<g id="a_node39"><a xlink:href="useful__base__types_8h.html" target="_top" xlink:title=" ">
<polygon fill="white" stroke="black" points="105.5,-56.5 105.5,-75.5 211.5,-75.5 211.5,-56.5 105.5,-56.5"/>
<text text-anchor="middle" x="158.5" y="-63.5" font-family="Helvetica,sans-Serif" font-size="10.00">useful_base_types.h</text>
</a>
</g>
</g>
<!-- Node22&#45;&gt;Node39 -->
<g id="edge61" class="edge"><title>Node22&#45;&gt;Node39</title>
<path fill="none" stroke="midnightblue" d="M459.418,-286.278C403.544,-279.373 273.991,-256.553 193.5,-188 163.491,-162.442 158.389,-112.888 157.998,-85.7999"/>
<polygon fill="midnightblue" stroke="midnightblue" points="161.498,-85.7228 158.059,-75.7016 154.498,-85.6801 161.498,-85.7228"/>
</g>
<!-- Node25&#45;&gt;Node3 -->
<g id="edge57" class="edge"><title>Node25&#45;&gt;Node3</title>
<path fill="none" stroke="midnightblue" d="M689.236,-224.375C708.163,-217.437 731.798,-205.852 746.5,-188 757.351,-174.823 762.005,-155.686 764.001,-141.587"/>
<polygon fill="midnightblue" stroke="midnightblue" points="767.489,-141.892 765.1,-131.57 760.531,-141.129 767.489,-141.892"/>
</g>
<!-- Node26 -->
<g id="node26" class="node"><title>Node26</title>
<g id="a_node26"><a xlink:title=" ">
<polygon fill="white" stroke="#bfbfbf" points="578,-168.5 578,-187.5 619,-187.5 619,-168.5 578,-168.5"/>
<text text-anchor="middle" x="598.5" y="-175.5" font-family="Helvetica,sans-Serif" font-size="10.00">string</text>
</a>
</g>
</g>
<!-- Node25&#45;&gt;Node26 -->
<g id="edge25" class="edge"><title>Node25&#45;&gt;Node26</title>
<path fill="none" stroke="midnightblue" d="M649.699,-224.324C640.682,-216.341 627.094,-204.313 616.182,-194.653"/>
<polygon fill="midnightblue" stroke="midnightblue" points="618.287,-191.842 608.479,-187.834 613.647,-197.083 618.287,-191.842"/>
</g>
<!-- Node27 -->
<g id="node27" class="node"><title>Node27</title>
<g id="a_node27"><a xlink:title=" ">
<polygon fill="white" stroke="#bfbfbf" points="637.5,-168.5 637.5,-187.5 681.5,-187.5 681.5,-168.5 637.5,-168.5"/>
<text text-anchor="middle" x="659.5" y="-175.5" font-family="Helvetica,sans-Serif" font-size="10.00">variant</text>
</a>
</g>
</g>
<!-- Node25&#45;&gt;Node27 -->
<g id="edge26" class="edge"><title>Node25&#45;&gt;Node27</title>
<path fill="none" stroke="midnightblue" d="M659.5,-224.083C659.5,-217.006 659.5,-206.861 659.5,-197.986"/>
<polygon fill="midnightblue" stroke="midnightblue" points="663,-197.751 659.5,-187.751 656,-197.751 663,-197.751"/>
</g>
<!-- Node28 -->
<g id="node28" class="node"><title>Node28</title>
<g id="a_node28"><a xlink:href="bin__rw_8h.html" target="_top" xlink:title=" ">
<polygon fill="white" stroke="black" points="908,-168.5 908,-187.5 961,-187.5 961,-168.5 908,-168.5"/>
<text text-anchor="middle" x="934.5" y="-175.5" font-family="Helvetica,sans-Serif" font-size="10.00">bin_rw.h</text>
</a>
</g>
</g>
<!-- Node25&#45;&gt;Node28 -->
<g id="edge27" class="edge"><title>Node25&#45;&gt;Node28</title>
<path fill="none" stroke="midnightblue" d="M689.191,-227.17C739.816,-217.229 842.691,-197.028 897.761,-186.214"/>
<polygon fill="midnightblue" stroke="midnightblue" points="898.648,-189.607 907.786,-184.246 897.299,-182.738 898.648,-189.607"/>
</g>
<!-- Node25&#45;&gt;Node30 -->
<g id="edge46" class="edge"><title>Node25&#45;&gt;Node30</title>
<path fill="none" stroke="midnightblue" d="M681.993,-224.481C703.898,-215.965 737.97,-202.137 766.5,-188 798.794,-171.998 834.638,-150.751 857.118,-136.978"/>
<polygon fill="midnightblue" stroke="midnightblue" points="859.211,-139.799 865.885,-131.569 855.536,-133.841 859.211,-139.799"/>
</g>
<!-- Node25&#45;&gt;Node36 -->
<g id="edge47" class="edge"><title>Node25&#45;&gt;Node36</title>
<path fill="none" stroke="midnightblue" d="M638.414,-224.453C619.403,-216.318 591.054,-203.101 568.5,-188 546.681,-173.391 524.411,-152.92 510.083,-138.876"/>
<polygon fill="midnightblue" stroke="midnightblue" points="512.547,-136.391 502.993,-131.813 507.607,-141.351 512.547,-136.391"/>
</g>
<!-- Node37 -->
<g id="node37" class="node"><title>Node37</title>
<g id="a_node37"><a xlink:href="sys__socket__ops_8h.html" target="_top" xlink:title=" ">
<polygon fill="white" stroke="black" points="202.5,-168.5 202.5,-187.5 298.5,-187.5 298.5,-168.5 202.5,-168.5"/>
<text text-anchor="middle" x="250.5" y="-175.5" font-family="Helvetica,sans-Serif" font-size="10.00">sys_socket_ops.h</text>
</a>
</g>
</g>
<!-- Node25&#45;&gt;Node37 -->
<g id="edge50" class="edge"><title>Node25&#45;&gt;Node37</title>
<path fill="none" stroke="midnightblue" d="M629.756,-229.073C562.387,-220.178 397.144,-198.361 308.662,-186.679"/>
<polygon fill="midnightblue" stroke="midnightblue" points="308.896,-183.18 298.523,-185.341 307.979,-190.119 308.896,-183.18"/>
</g>
<!-- Node40 -->
<g id="node40" class="node"><title>Node40</title>
<g id="a_node40"><a xlink:href="tag_8h.html" target="_top" xlink:title=" ">
<polygon fill="white" stroke="black" points="699.5,-168.5 699.5,-187.5 737.5,-187.5 737.5,-168.5 699.5,-168.5"/>
<text text-anchor="middle" x="718.5" y="-175.5" font-family="Helvetica,sans-Serif" font-size="10.00">tag.h</text>
</a>
</g>
</g>
<!-- Node25&#45;&gt;Node40 -->
<g id="edge56" class="edge"><title>Node25&#45;&gt;Node40</title>
<path fill="none" stroke="midnightblue" d="M668.979,-224.324C677.701,-216.341 690.843,-204.313 701.398,-194.653"/>
<polygon fill="midnightblue" stroke="midnightblue" points="703.834,-197.167 708.848,-187.834 699.108,-192.004 703.834,-197.167"/>
</g>
<!-- Node28&#45;&gt;Node3 -->
<g id="edge45" class="edge"><title>Node28&#45;&gt;Node3</title>
<path fill="none" stroke="midnightblue" d="M907.721,-168.444C877.571,-158.81 828.641,-143.175 796.764,-132.99"/>
<polygon fill="midnightblue" stroke="midnightblue" points="797.65,-129.598 787.059,-129.889 795.519,-136.266 797.65,-129.598"/>
</g>
<!-- Node28&#45;&gt;Node8 -->
<g id="edge29" class="edge"><title>Node28&#45;&gt;Node8</title>
<path fill="none" stroke="midnightblue" d="M941.719,-168.368C957.036,-150.055 993.005,-107.049 1012.82,-83.3624"/>
<polygon fill="midnightblue" stroke="midnightblue" points="1015.58,-85.5077 1019.31,-75.5914 1010.21,-81.0168 1015.58,-85.5077"/>
</g>
<!-- Node28&#45;&gt;Node10 -->
<g id="edge30" class="edge"><title>Node28&#45;&gt;Node10</title>
<path fill="none" stroke="midnightblue" d="M936.069,-168.368C939.297,-150.617 946.742,-109.666 951.119,-85.5974"/>
<polygon fill="midnightblue" stroke="midnightblue" points="954.593,-86.0562 952.938,-75.5914 947.705,-84.804 954.593,-86.0562"/>
</g>
<!-- Node29 -->
<g id="node29" class="node"><title>Node29</title>
<g id="a_node29"><a xlink:title=" ">
<polygon fill="white" stroke="#bfbfbf" points="998.5,-112.5 998.5,-131.5 1054.5,-131.5 1054.5,-112.5 998.5,-112.5"/>
<text text-anchor="middle" x="1026.5" y="-119.5" font-family="Helvetica,sans-Serif" font-size="10.00">algorithm</text>
</a>
</g>
</g>
<!-- Node28&#45;&gt;Node29 -->
<g id="edge28" class="edge"><title>Node28&#45;&gt;Node29</title>
<path fill="none" stroke="midnightblue" d="M949.281,-168.324C963.767,-159.822 986.073,-146.729 1002.99,-136.797"/>
<polygon fill="midnightblue" stroke="midnightblue" points="1004.9,-139.735 1011.76,-131.655 1001.36,-133.698 1004.9,-139.735"/>
</g>
<!-- Node28&#45;&gt;Node30 -->
<g id="edge31" class="edge"><title>Node28&#45;&gt;Node30</title>
<path fill="none" stroke="midnightblue" d="M925.418,-168.083C917.329,-160.141 905.305,-148.335 895.59,-138.797"/>
<polygon fill="midnightblue" stroke="midnightblue" points="898.001,-136.26 888.413,-131.751 893.097,-141.254 898.001,-136.26"/>
</g>
<!-- Node32 -->
<g id="node32" class="node"><title>Node32</title>
<g id="a_node32"><a xlink:href="endian_8h.html" target="_top" xlink:title=" ">
<polygon fill="white" stroke="black" points="1073,-112.5 1073,-131.5 1126,-131.5 1126,-112.5 1073,-112.5"/>
<text text-anchor="middle" x="1099.5" y="-119.5" font-family="Helvetica,sans-Serif" font-size="10.00">endian.h</text>
</a>
</g>
</g>
<!-- Node28&#45;&gt;Node32 -->
<g id="edge38" class="edge"><title>Node28&#45;&gt;Node32</title>
<path fill="none" stroke="midnightblue" d="M960.645,-168.444C988.523,-159.32 1032.85,-144.813 1063.9,-134.651"/>
<polygon fill="midnightblue" stroke="midnightblue" points="1065.06,-137.953 1073.48,-131.516 1062.88,-131.3 1065.06,-137.953"/>
</g>
<!-- Node30&#45;&gt;Node9 -->
<g id="edge35" class="edge"><title>Node30&#45;&gt;Node9</title>
<path fill="none" stroke="midnightblue" d="M862.63,-112.324C845.791,-103.664 819.693,-90.2424 800.262,-80.249"/>
<polygon fill="midnightblue" stroke="midnightblue" points="801.822,-77.1155 791.328,-75.6545 798.62,-83.3405 801.822,-77.1155"/>
</g>
<!-- Node30&#45;&gt;Node10 -->
<g id="edge36" class="edge"><title>Node30&#45;&gt;Node10</title>
<path fill="none" stroke="midnightblue" d="M891.55,-112.324C902.963,-104.107 920.331,-91.6017 933.935,-81.8069"/>
<polygon fill="midnightblue" stroke="midnightblue" points="936.16,-84.5174 942.231,-75.8339 932.07,-78.8366 936.16,-84.5174"/>
</g>
<!-- Node30&#45;&gt;Node12 -->
<g id="edge37" class="edge"><title>Node30&#45;&gt;Node12</title>
<path fill="none" stroke="midnightblue" d="M855.258,-118.213C838.489,-116.331 815.654,-113.861 795.5,-112 592.853,-93.2867 537.802,-106.346 333.044,-76.0292"/>
<polygon fill="midnightblue" stroke="midnightblue" points="333.27,-72.5242 322.862,-74.5045 332.234,-79.447 333.27,-72.5242"/>
</g>
<!-- Node30&#45;&gt;Node21 -->
<g id="edge33" class="edge"><title>Node30&#45;&gt;Node21</title>
<path fill="none" stroke="midnightblue" d="M881.906,-112.395C885.124,-98.8886 889.076,-72.5502 876.5,-56 852.618,-24.57 806.183,-14.7857 774.036,-11.9062"/>
<polygon fill="midnightblue" stroke="midnightblue" points="773.958,-8.3919 763.735,-11.1731 773.461,-15.3742 773.958,-8.3919"/>
</g>
<!-- Node30&#45;&gt;Node23 -->
<g id="edge32" class="edge"><title>Node30&#45;&gt;Node23</title>
<path fill="none" stroke="midnightblue" d="M855.229,-118.512C803.665,-113.018 679.276,-98.6655 565.246,-75.933"/>
<polygon fill="midnightblue" stroke="midnightblue" points="565.799,-72.4741 555.304,-73.9239 564.412,-79.3354 565.799,-72.4741"/>
</g>
<!-- Node31 -->
<g id="node31" class="node"><title>Node31</title>
<g id="a_node31"><a xlink:title=" ">
<polygon fill="white" stroke="#bfbfbf" points="1067.5,-56.5 1067.5,-75.5 1113.5,-75.5 1113.5,-56.5 1067.5,-56.5"/>
<text text-anchor="middle" x="1090.5" y="-63.5" font-family="Helvetica,sans-Serif" font-size="10.00">cstdint</text>
</a>
</g>
</g>
<!-- Node30&#45;&gt;Node31 -->
<g id="edge34" class="edge"><title>Node30&#45;&gt;Node31</title>
<path fill="none" stroke="midnightblue" d="M903.586,-115.171C936.261,-107.214 996.684,-92.3295 1057.66,-76.1695"/>
<polygon fill="midnightblue" stroke="midnightblue" points="1058.68,-79.5192 1067.45,-73.5659 1056.89,-72.7544 1058.68,-79.5192"/>
</g>
<!-- Node32&#45;&gt;Node8 -->
<g id="edge41" class="edge"><title>Node32&#45;&gt;Node8</title>
<path fill="none" stroke="midnightblue" d="M1087.77,-112.324C1076.66,-104.107 1059.76,-91.6017 1046.52,-81.8069"/>
<polygon fill="midnightblue" stroke="midnightblue" points="1048.56,-78.9671 1038.44,-75.8339 1044.4,-84.5948 1048.56,-78.9671"/>
</g>
<!-- Node32&#45;&gt;Node10 -->
<g id="edge43" class="edge"><title>Node32&#45;&gt;Node10</title>
<path fill="none" stroke="midnightblue" d="M1076.52,-112.444C1052.34,-103.438 1014.08,-89.1891 986.854,-79.049"/>
<polygon fill="midnightblue" stroke="midnightblue" points="987.961,-75.7265 977.368,-75.5164 985.518,-82.2864 987.961,-75.7265"/>
</g>
<!-- Node32&#45;&gt;Node31 -->
<g id="edge40" class="edge"><title>Node32&#45;&gt;Node31</title>
<path fill="none" stroke="midnightblue" d="M1098.01,-112.083C1096.82,-104.927 1095.11,-94.6353 1093.62,-85.6911"/>
<polygon fill="midnightblue" stroke="midnightblue" points="1097.05,-85.0396 1091.96,-75.7511 1090.15,-86.1904 1097.05,-85.0396"/>
</g>
<!-- Node33 -->
<g id="node33" class="node"><title>Node33</title>
<g id="a_node33"><a xlink:title=" ">
<polygon fill="white" stroke="#bfbfbf" points="1132,-56.5 1132,-75.5 1177,-75.5 1177,-56.5 1132,-56.5"/>
<text text-anchor="middle" x="1154.5" y="-63.5" font-family="Helvetica,sans-Serif" font-size="10.00">climits</text>
</a>
</g>
</g>
<!-- Node32&#45;&gt;Node33 -->
<g id="edge39" class="edge"><title>Node32&#45;&gt;Node33</title>
<path fill="none" stroke="midnightblue" d="M1108.58,-112.083C1116.67,-104.141 1128.7,-92.3354 1138.41,-82.7973"/>
<polygon fill="midnightblue" stroke="midnightblue" points="1140.9,-85.2545 1145.59,-75.7511 1136,-80.2595 1140.9,-85.2545"/>
</g>
<!-- Node34 -->
<g id="node34" class="node"><title>Node34</title>
<g id="a_node34"><a xlink:title=" ">
<polygon fill="white" stroke="#bfbfbf" points="1195.5,-56.5 1195.5,-75.5 1259.5,-75.5 1259.5,-56.5 1195.5,-56.5"/>
<text text-anchor="middle" x="1227.5" y="-63.5" font-family="Helvetica,sans-Serif" font-size="10.00">string_view</text>
</a>
</g>
</g>
<!-- Node32&#45;&gt;Node34 -->
<g id="edge42" class="edge"><title>Node32&#45;&gt;Node34</title>
<path fill="none" stroke="midnightblue" d="M1119.78,-112.444C1140.85,-103.557 1174.02,-89.5632 1197.99,-79.4514"/>
<polygon fill="midnightblue" stroke="midnightblue" points="1199.46,-82.6283 1207.31,-75.5164 1196.74,-76.1787 1199.46,-82.6283"/>
</g>
<!-- Node35 -->
<g id="node35" class="node"><title>Node35</title>
<g id="a_node35"><a xlink:title=" ">
<polygon fill="white" stroke="#bfbfbf" points="1277.5,-56.5 1277.5,-75.5 1317.5,-75.5 1317.5,-56.5 1277.5,-56.5"/>
<text text-anchor="middle" x="1297.5" y="-63.5" font-family="Helvetica,sans-Serif" font-size="10.00">utility</text>
</a>
</g>
</g>
<!-- Node32&#45;&gt;Node35 -->
<g id="edge44" class="edge"><title>Node32&#45;&gt;Node35</title>
<path fill="none" stroke="midnightblue" d="M1126.23,-114.241C1157.8,-106.181 1212.1,-92.0719 1267.61,-76.1756"/>
<polygon fill="midnightblue" stroke="midnightblue" points="1268.61,-79.53 1277.25,-73.3996 1266.67,-72.8033 1268.61,-79.53"/>
</g>
<!-- Node36&#45;&gt;Node9 -->
<g id="edge48" class="edge"><title>Node36&#45;&gt;Node9</title>
<path fill="none" stroke="midnightblue" d="M528.22,-114.551C571.835,-106.201 650.438,-91.1275 727.472,-76.1948"/>
<polygon fill="midnightblue" stroke="midnightblue" points="728.194,-79.6201 737.345,-74.2801 726.861,-72.7481 728.194,-79.6201"/>
</g>
<!-- Node36&#45;&gt;Node12 -->
<g id="edge49" class="edge"><title>Node36&#45;&gt;Node12</title>
<path fill="none" stroke="midnightblue" d="M462.334,-112.444C427.133,-103.08 370.62,-88.0467 332.32,-77.8585"/>
<polygon fill="midnightblue" stroke="midnightblue" points="333.081,-74.4392 322.517,-75.2508 331.281,-81.2039 333.081,-74.4392"/>
</g>
<!-- Node37&#45;&gt;Node12 -->
<g id="edge51" class="edge"><title>Node37&#45;&gt;Node12</title>
<path fill="none" stroke="midnightblue" d="M260.382,-168.486C269.248,-160.181 281.724,-146.683 287.5,-132 293.262,-117.353 293.94,-99.413 293.36,-86.0939"/>
<polygon fill="midnightblue" stroke="midnightblue" points="296.826,-85.5022 292.622,-75.7775 289.844,-86.0018 296.826,-85.5022"/>
</g>
<!-- Node38 -->
<g id="node38" class="node"><title>Node38</title>
<g id="a_node38"><a xlink:href="sys__error__code_8h.html" target="_top" xlink:title=" ">
<polygon fill="white" stroke="black" points="186.5,-112.5 186.5,-131.5 278.5,-131.5 278.5,-112.5 186.5,-112.5"/>
<text text-anchor="middle" x="232.5" y="-119.5" font-family="Helvetica,sans-Serif" font-size="10.00">sys_error_code.h</text>
</a>
</g>
</g>
<!-- Node37&#45;&gt;Node38 -->
<g id="edge52" class="edge"><title>Node37&#45;&gt;Node38</title>
<path fill="none" stroke="midnightblue" d="M247.528,-168.083C245.116,-160.849 241.636,-150.409 238.632,-141.397"/>
<polygon fill="midnightblue" stroke="midnightblue" points="241.9,-140.131 235.417,-131.751 235.259,-142.345 241.9,-140.131"/>
</g>
<!-- Node37&#45;&gt;Node39 -->
<g id="edge55" class="edge"><title>Node37&#45;&gt;Node39</title>
<path fill="none" stroke="midnightblue" d="M228.272,-168.487C211.971,-161.156 190.498,-149.049 177.5,-132 167.263,-118.573 162.533,-99.7554 160.352,-85.8206"/>
<polygon fill="midnightblue" stroke="midnightblue" points="163.823,-85.3687 159.093,-75.8882 156.878,-86.2489 163.823,-85.3687"/>
</g>
<!-- Node38&#45;&gt;Node12 -->
<g id="edge53" class="edge"><title>Node38&#45;&gt;Node12</title>
<path fill="none" stroke="midnightblue" d="M241.979,-112.324C250.701,-104.341 263.843,-92.3128 274.398,-82.6529"/>
<polygon fill="midnightblue" stroke="midnightblue" points="276.834,-85.1674 281.848,-75.8339 272.108,-80.0036 276.834,-85.1674"/>
</g>
<!-- Node38&#45;&gt;Node39 -->
<g id="edge54" class="edge"><title>Node38&#45;&gt;Node39</title>
<path fill="none" stroke="midnightblue" d="M220.611,-112.324C209.35,-104.107 192.213,-91.6017 178.791,-81.8069"/>
<polygon fill="midnightblue" stroke="midnightblue" points="180.747,-78.9014 170.606,-75.8339 176.62,-84.5559 180.747,-78.9014"/>
</g>
</g>
</svg>
