<?xml version="1.0" encoding="UTF-8" standalone="no"?>
<!DOCTYPE svg PUBLIC "-//W3C//DTD SVG 1.1//EN"
 "http://www.w3.org/Graphics/SVG/1.1/DTD/svg11.dtd">
<!-- Generated by graphviz version 2.38.0 (20140413.2041)
 -->
<!-- Title: C:/projects/ndt/sources/src/udp.cpp Pages: 1 -->
<!--zoomable 431 -->
<svg id="main" version="1.1" xmlns="http://www.w3.org/2000/svg" xmlns:xlink="http://www.w3.org/1999/xlink" xml:space="preserve" onload="init(evt)">
<style type="text/css"><![CDATA[
.edge:hover path { stroke: red; }
.edge:hover polygon { stroke: red; fill: red; }
]]></style>
<script type="text/javascript"><![CDATA[
var edges = document.getElementsByTagName('g');
if (edges && edges.length) {
  for (var i=0;i<edges.length;i++) {
    if (edges[i].id.substr(0,4)=='edge') {
      edges[i].setAttribute('class','edge');
    }
  }
}
]]></script>
        <defs>
                <circle id="rim" cx="0" cy="0" r="7"/>
                <circle id="rim2" cx="0" cy="0" r="3.5"/>
                <g id="zoomPlus">
                        <use xlink:href="#rim" fill="#404040">
                                <set attributeName="fill" to="#808080" begin="zoomplus.mouseover" end="zoomplus.mouseout"/>
                        </use>
                        <path d="M-4,0h8M0,-4v8" fill="none" stroke="white" stroke-width="1.5" pointer-events="none"/>
                </g>
                <g id="zoomMin">
                        <use xlink:href="#rim" fill="#404040">
                                <set attributeName="fill" to="#808080" begin="zoomminus.mouseover" end="zoomminus.mouseout"/>
                        </use>
                        <path d="M-4,0h8" fill="none" stroke="white" stroke-width="1.5" pointer-events="none"/>
                </g>
                <g id="dirArrow">
                        <path fill="none" stroke="white" stroke-width="1.5" d="M0,-3.0v7 M-2.5,-0.5L0,-3.0L2.5,-0.5"/>
                </g>
               <g id="resetDef">
                       <use xlink:href="#rim2" fill="#404040">
                               <set attributeName="fill" to="#808080" begin="reset.mouseover" end="reset.mouseout"/>
                       </use>
               </g>
        </defs>

<script type="text/javascript">
var viewWidth = 1288;
var viewHeight = 431;
var sectionId = 'dynsection-0';
</script>
<script xlink:href="svgpan.js"/>
<svg id="graph" class="graph">
<g id="viewport">
<title>C:/projects/ndt/sources/src/udp.cpp</title>
<polygon fill="white" stroke="none" points="-4,4 -4,-427 1283.5,-427 1283.5,4 -4,4"/>
<!-- Node1 -->
<g id="node1" class="node"><title>Node1</title>
<g id="a_node1"><a xlink:title=" ">
<polygon fill="#bfbfbf" stroke="black" points="785,-392.5 785,-422.5 903,-422.5 903,-392.5 785,-392.5"/>
<text text-anchor="start" x="793" y="-410.5" font-family="Helvetica,sans-Serif" font-size="10.00">C:/projects/ndt/sources</text>
<text text-anchor="middle" x="844" y="-399.5" font-family="Helvetica,sans-Serif" font-size="10.00">/src/udp.cpp</text>
</a>
</g>
</g>
<!-- Node2 -->
<g id="node2" class="node"><title>Node2</title>
<g id="a_node2"><a xlink:href="udp_8h.html" target="_top" xlink:title=" ">
<polygon fill="white" stroke="black" points="716.5,-336.5 716.5,-355.5 773.5,-355.5 773.5,-336.5 716.5,-336.5"/>
<text text-anchor="middle" x="745" y="-343.5" font-family="Helvetica,sans-Serif" font-size="10.00">ndt/udp.h</text>
</a>
</g>
</g>
<!-- Node1&#45;&gt;Node2 -->
<g id="edge1" class="edge"><title>Node1&#45;&gt;Node2</title>
<path fill="none" stroke="midnightblue" d="M820.538,-392.399C804.669,-382.862 783.809,-370.325 768.032,-360.842"/>
<polygon fill="midnightblue" stroke="midnightblue" points="769.779,-357.809 759.405,-355.658 766.174,-363.809 769.779,-357.809"/>
</g>
<!-- Node12 -->
<g id="node12" class="node"><title>Node12</title>
<g id="a_node12"><a xlink:href="common_8h.html" target="_top" xlink:title="Header with typedefs to make type designation platform independent.">
<polygon fill="white" stroke="black" points="874,-56.5 874,-75.5 936,-75.5 936,-56.5 874,-56.5"/>
<text text-anchor="middle" x="905" y="-63.5" font-family="Helvetica,sans-Serif" font-size="10.00">common.h</text>
</a>
</g>
</g>
<!-- Node1&#45;&gt;Node12 -->
<g id="edge62" class="edge"><title>Node1&#45;&gt;Node12</title>
<path fill="none" stroke="midnightblue" d="M846.543,-392.344C856.203,-338.584 890.622,-147.023 901.605,-85.8932"/>
<polygon fill="midnightblue" stroke="midnightblue" points="905.1,-86.2324 903.424,-75.771 898.211,-84.9945 905.1,-86.2324"/>
</g>
<!-- Node3 -->
<g id="node3" class="node"><title>Node3</title>
<g id="a_node3"><a xlink:href="utils_8h.html" target="_top" xlink:title=" ">
<polygon fill="white" stroke="black" points="330.5,-112.5 330.5,-131.5 373.5,-131.5 373.5,-112.5 330.5,-112.5"/>
<text text-anchor="middle" x="352" y="-119.5" font-family="Helvetica,sans-Serif" font-size="10.00">utils.h</text>
</a>
</g>
</g>
<!-- Node2&#45;&gt;Node3 -->
<g id="edge2" class="edge"><title>Node2&#45;&gt;Node3</title>
<path fill="none" stroke="midnightblue" d="M716.264,-339.56C659.216,-327.961 528.741,-297.405 431,-244 396.643,-225.228 382.615,-221.883 363,-188 354.847,-173.916 352.357,-155.425 351.755,-141.768"/>
<polygon fill="midnightblue" stroke="midnightblue" points="355.253,-141.584 351.61,-131.635 348.253,-141.684 355.253,-141.584"/>
</g>
<!-- Node22 -->
<g id="node22" class="node"><title>Node22</title>
<g id="a_node22"><a xlink:href="socket_8h.html" target="_top" xlink:title=" ">
<polygon fill="white" stroke="black" points="718,-280.5 718,-299.5 772,-299.5 772,-280.5 718,-280.5"/>
<text text-anchor="middle" x="745" y="-287.5" font-family="Helvetica,sans-Serif" font-size="10.00">socket.h</text>
</a>
</g>
</g>
<!-- Node2&#45;&gt;Node22 -->
<g id="edge21" class="edge"><title>Node2&#45;&gt;Node22</title>
<path fill="none" stroke="midnightblue" d="M745,-336.083C745,-329.006 745,-318.861 745,-309.986"/>
<polygon fill="midnightblue" stroke="midnightblue" points="748.5,-309.751 745,-299.751 741.5,-309.751 748.5,-309.751"/>
</g>
<!-- Node4 -->
<g id="node4" class="node"><title>Node4</title>
<g id="a_node4"><a xlink:title=" ">
<polygon fill="white" stroke="#bfbfbf" points="166,-56.5 166,-75.5 226,-75.5 226,-56.5 166,-56.5"/>
<text text-anchor="middle" x="196" y="-63.5" font-family="Helvetica,sans-Serif" font-size="10.00">fmt/core.h</text>
</a>
</g>
</g>
<!-- Node3&#45;&gt;Node4 -->
<g id="edge3" class="edge"><title>Node3&#45;&gt;Node4</title>
<path fill="none" stroke="midnightblue" d="M330.309,-113.492C304.434,-104.535 260.858,-89.4509 230.379,-78.9005"/>
<polygon fill="midnightblue" stroke="midnightblue" points="231.184,-75.4755 220.59,-75.5118 228.895,-82.0904 231.184,-75.4755"/>
</g>
<!-- Node5 -->
<g id="node5" class="node"><title>Node5</title>
<g id="a_node5"><a xlink:title=" ">
<polygon fill="white" stroke="#bfbfbf" points="244,-56.5 244,-75.5 312,-75.5 312,-56.5 244,-56.5"/>
<text text-anchor="middle" x="278" y="-63.5" font-family="Helvetica,sans-Serif" font-size="10.00">fmt/format.h</text>
</a>
</g>
</g>
<!-- Node3&#45;&gt;Node5 -->
<g id="edge4" class="edge"><title>Node3&#45;&gt;Node5</title>
<path fill="none" stroke="midnightblue" d="M340.111,-112.324C328.85,-104.107 311.713,-91.6017 298.291,-81.8069"/>
<polygon fill="midnightblue" stroke="midnightblue" points="300.247,-78.9014 290.106,-75.8339 296.12,-84.5559 300.247,-78.9014"/>
</g>
<!-- Node6 -->
<g id="node6" class="node"><title>Node6</title>
<g id="a_node6"><a xlink:title=" ">
<polygon fill="white" stroke="#bfbfbf" points="330,-56.5 330,-75.5 368,-75.5 368,-56.5 330,-56.5"/>
<text text-anchor="middle" x="349" y="-63.5" font-family="Helvetica,sans-Serif" font-size="10.00">array</text>
</a>
</g>
</g>
<!-- Node3&#45;&gt;Node6 -->
<g id="edge5" class="edge"><title>Node3&#45;&gt;Node6</title>
<path fill="none" stroke="midnightblue" d="M351.505,-112.083C351.111,-105.006 350.548,-94.8611 350.055,-85.9865"/>
<polygon fill="midnightblue" stroke="midnightblue" points="353.536,-85.5415 349.486,-75.7511 346.546,-85.9299 353.536,-85.5415"/>
</g>
<!-- Node7 -->
<g id="node7" class="node"><title>Node7</title>
<g id="a_node7"><a xlink:title=" ">
<polygon fill="white" stroke="#bfbfbf" points="0,-56.5 0,-75.5 46,-75.5 46,-56.5 0,-56.5"/>
<text text-anchor="middle" x="23" y="-63.5" font-family="Helvetica,sans-Serif" font-size="10.00">chrono</text>
</a>
</g>
</g>
<!-- Node3&#45;&gt;Node7 -->
<g id="edge6" class="edge"><title>Node3&#45;&gt;Node7</title>
<path fill="none" stroke="midnightblue" d="M330.219,-118.637C282.376,-113.248 164.396,-98.8801 56.4164,-76.0829"/>
<polygon fill="midnightblue" stroke="midnightblue" points="56.8465,-72.5957 46.3352,-73.9232 55.3801,-79.4404 56.8465,-72.5957"/>
</g>
<!-- Node8 -->
<g id="node8" class="node"><title>Node8</title>
<g id="a_node8"><a xlink:title=" ">
<polygon fill="white" stroke="#bfbfbf" points="386,-56.5 386,-75.5 432,-75.5 432,-56.5 386,-56.5"/>
<text text-anchor="middle" x="409" y="-63.5" font-family="Helvetica,sans-Serif" font-size="10.00">cstring</text>
</a>
</g>
</g>
<!-- Node3&#45;&gt;Node8 -->
<g id="edge7" class="edge"><title>Node3&#45;&gt;Node8</title>
<path fill="none" stroke="midnightblue" d="M361.158,-112.324C369.501,-104.42 382.032,-92.5482 392.177,-82.9377"/>
<polygon fill="midnightblue" stroke="midnightblue" points="394.823,-85.2522 399.675,-75.8339 390.009,-80.1705 394.823,-85.2522"/>
</g>
<!-- Node9 -->
<g id="node9" class="node"><title>Node9</title>
<g id="a_node9"><a xlink:title=" ">
<polygon fill="white" stroke="#bfbfbf" points="714,-56.5 714,-75.5 788,-75.5 788,-56.5 714,-56.5"/>
<text text-anchor="middle" x="751" y="-63.5" font-family="Helvetica,sans-Serif" font-size="10.00">system_error</text>
</a>
</g>
</g>
<!-- Node3&#45;&gt;Node9 -->
<g id="edge8" class="edge"><title>Node3&#45;&gt;Node9</title>
<path fill="none" stroke="midnightblue" d="M373.735,-118.058C436.165,-109.609 617.071,-85.1258 703.69,-73.4029"/>
<polygon fill="midnightblue" stroke="midnightblue" points="704.331,-76.8481 713.771,-72.0385 703.392,-69.9113 704.331,-76.8481"/>
</g>
<!-- Node10 -->
<g id="node10" class="node"><title>Node10</title>
<g id="a_node10"><a xlink:title=" ">
<polygon fill="white" stroke="#bfbfbf" points="450,-56.5 450,-75.5 512,-75.5 512,-56.5 450,-56.5"/>
<text text-anchor="middle" x="481" y="-63.5" font-family="Helvetica,sans-Serif" font-size="10.00">type_traits</text>
</a>
</g>
</g>
<!-- Node3&#45;&gt;Node10 -->
<g id="edge9" class="edge"><title>Node3&#45;&gt;Node10</title>
<path fill="none" stroke="midnightblue" d="M372.44,-112.444C393.67,-103.557 427.099,-89.5632 451.255,-79.4514"/>
<polygon fill="midnightblue" stroke="midnightblue" points="452.782,-82.6064 460.655,-75.5164 450.079,-76.1493 452.782,-82.6064"/>
</g>
<!-- Node11 -->
<g id="node11" class="node"><title>Node11</title>
<g id="a_node11"><a xlink:title=" ">
<polygon fill="white" stroke="#bfbfbf" points="64.5,-56.5 64.5,-75.5 147.5,-75.5 147.5,-56.5 64.5,-56.5"/>
<text text-anchor="middle" x="106" y="-63.5" font-family="Helvetica,sans-Serif" font-size="10.00">unordered_map</text>
</a>
</g>
</g>
<!-- Node3&#45;&gt;Node11 -->
<g id="edge10" class="edge"><title>Node3&#45;&gt;Node11</title>
<path fill="none" stroke="midnightblue" d="M330.169,-116.208C291.063,-107.624 208.181,-89.4299 154.89,-77.732"/>
<polygon fill="midnightblue" stroke="midnightblue" points="155.493,-74.2811 144.975,-75.5555 153.992,-81.1183 155.493,-74.2811"/>
</g>
<!-- Node3&#45;&gt;Node12 -->
<g id="edge11" class="edge"><title>Node3&#45;&gt;Node12</title>
<path fill="none" stroke="midnightblue" d="M373.795,-119.251C460.895,-112.24 782.764,-86.1166 863.615,-75.7125"/>
<polygon fill="midnightblue" stroke="midnightblue" points="864.32,-79.1481 873.738,-74.2957 863.35,-72.2156 864.32,-79.1481"/>
</g>
<!-- Node13 -->
<g id="node13" class="node"><title>Node13</title>
<g id="a_node13"><a xlink:title=" ">
<polygon fill="white" stroke="#bfbfbf" points="1152,-0.5 1152,-19.5 1214,-19.5 1214,-0.5 1152,-0.5"/>
<text text-anchor="middle" x="1183" y="-7.5" font-family="Helvetica,sans-Serif" font-size="10.00">arpa/inet.h</text>
</a>
</g>
</g>
<!-- Node12&#45;&gt;Node13 -->
<g id="edge12" class="edge"><title>Node12&#45;&gt;Node13</title>
<path fill="none" stroke="midnightblue" d="M936.112,-59.3842C979.603,-51.4705 1061.29,-36.3767 1141.41,-20.0697"/>
<polygon fill="midnightblue" stroke="midnightblue" points="1142.58,-23.4026 1151.68,-17.9711 1141.18,-16.5444 1142.58,-23.4026"/>
</g>
<!-- Node14 -->
<g id="node14" class="node"><title>Node14</title>
<g id="a_node14"><a xlink:title=" ">
<polygon fill="white" stroke="#bfbfbf" points="1232.5,-0.5 1232.5,-19.5 1279.5,-19.5 1279.5,-0.5 1232.5,-0.5"/>
<text text-anchor="middle" x="1256" y="-7.5" font-family="Helvetica,sans-Serif" font-size="10.00">errno.h</text>
</a>
</g>
</g>
<!-- Node12&#45;&gt;Node14 -->
<g id="edge13" class="edge"><title>Node12&#45;&gt;Node14</title>
<path fill="none" stroke="midnightblue" d="M936.369,-61.884C991.996,-56.0743 1111.69,-42.2968 1222.3,-19.8999"/>
<polygon fill="midnightblue" stroke="midnightblue" points="1223.2,-23.2887 1232.29,-17.8485 1221.79,-16.4319 1223.2,-23.2887"/>
</g>
<!-- Node15 -->
<g id="node15" class="node"><title>Node15</title>
<g id="a_node15"><a xlink:title=" ">
<polygon fill="white" stroke="#bfbfbf" points="693.5,-0.5 693.5,-19.5 736.5,-19.5 736.5,-0.5 693.5,-0.5"/>
<text text-anchor="middle" x="715" y="-7.5" font-family="Helvetica,sans-Serif" font-size="10.00">fcntl.h</text>
</a>
</g>
</g>
<!-- Node12&#45;&gt;Node15 -->
<g id="edge14" class="edge"><title>Node12&#45;&gt;Node15</title>
<path fill="none" stroke="midnightblue" d="M873.983,-56.4475C843.669,-48.0514 795.971,-34.7407 746.251,-20.3322"/>
<polygon fill="midnightblue" stroke="midnightblue" points="747.196,-16.9621 736.617,-17.5337 745.244,-23.6843 747.196,-16.9621"/>
</g>
<!-- Node16 -->
<g id="node16" class="node"><title>Node16</title>
<g id="a_node16"><a xlink:title=" ">
<polygon fill="white" stroke="#bfbfbf" points="754.5,-0.5 754.5,-19.5 803.5,-19.5 803.5,-0.5 754.5,-0.5"/>
<text text-anchor="middle" x="779" y="-7.5" font-family="Helvetica,sans-Serif" font-size="10.00">netdb.h</text>
</a>
</g>
</g>
<!-- Node12&#45;&gt;Node16 -->
<g id="edge15" class="edge"><title>Node12&#45;&gt;Node16</title>
<path fill="none" stroke="midnightblue" d="M885.035,-56.4435C864.391,-47.5961 831.937,-33.6875 808.368,-23.5865"/>
<polygon fill="midnightblue" stroke="midnightblue" points="809.442,-20.2387 798.872,-19.5164 806.684,-26.6727 809.442,-20.2387"/>
</g>
<!-- Node17 -->
<g id="node17" class="node"><title>Node17</title>
<g id="a_node17"><a xlink:title=" ">
<polygon fill="white" stroke="#bfbfbf" points="821.5,-0.5 821.5,-19.5 886.5,-19.5 886.5,-0.5 821.5,-0.5"/>
<text text-anchor="middle" x="854" y="-7.5" font-family="Helvetica,sans-Serif" font-size="10.00">netinet/in.h</text>
</a>
</g>
</g>
<!-- Node12&#45;&gt;Node17 -->
<g id="edge16" class="edge"><title>Node12&#45;&gt;Node17</title>
<path fill="none" stroke="midnightblue" d="M896.578,-56.083C889.152,-48.2195 878.148,-36.5688 869.188,-27.0813"/>
<polygon fill="midnightblue" stroke="midnightblue" points="871.676,-24.618 862.265,-19.7511 866.587,-29.4244 871.676,-24.618"/>
</g>
<!-- Node18 -->
<g id="node18" class="node"><title>Node18</title>
<g id="a_node18"><a xlink:title=" ">
<polygon fill="white" stroke="#bfbfbf" points="904.5,-0.5 904.5,-19.5 977.5,-19.5 977.5,-0.5 904.5,-0.5"/>
<text text-anchor="middle" x="941" y="-7.5" font-family="Helvetica,sans-Serif" font-size="10.00">sys/socket.h</text>
</a>
</g>
</g>
<!-- Node12&#45;&gt;Node18 -->
<g id="edge17" class="edge"><title>Node12&#45;&gt;Node18</title>
<path fill="none" stroke="midnightblue" d="M910.945,-56.083C915.977,-48.5341 923.337,-37.4948 929.513,-28.2298"/>
<polygon fill="midnightblue" stroke="midnightblue" points="932.531,-30.0131 935.166,-19.7511 926.707,-26.1301 932.531,-30.0131"/>
</g>
<!-- Node19 -->
<g id="node19" class="node"><title>Node19</title>
<g id="a_node19"><a xlink:title=" ">
<polygon fill="white" stroke="#bfbfbf" points="996,-0.5 996,-19.5 1064,-19.5 1064,-0.5 996,-0.5"/>
<text text-anchor="middle" x="1030" y="-7.5" font-family="Helvetica,sans-Serif" font-size="10.00">sys/types.h</text>
</a>
</g>
</g>
<!-- Node12&#45;&gt;Node19 -->
<g id="edge18" class="edge"><title>Node12&#45;&gt;Node19</title>
<path fill="none" stroke="midnightblue" d="M924.807,-56.4435C945.287,-47.5961 977.483,-33.6875 1000.86,-23.5865"/>
<polygon fill="midnightblue" stroke="midnightblue" points="1002.49,-26.6953 1010.29,-19.5164 999.718,-20.2692 1002.49,-26.6953"/>
</g>
<!-- Node20 -->
<g id="node20" class="node"><title>Node20</title>
<g id="a_node20"><a xlink:title=" ">
<polygon fill="white" stroke="#bfbfbf" points="1082.5,-0.5 1082.5,-19.5 1133.5,-19.5 1133.5,-0.5 1082.5,-0.5"/>
<text text-anchor="middle" x="1108" y="-7.5" font-family="Helvetica,sans-Serif" font-size="10.00">unistd.h</text>
</a>
</g>
</g>
<!-- Node12&#45;&gt;Node20 -->
<g id="edge19" class="edge"><title>Node12&#45;&gt;Node20</title>
<path fill="none" stroke="midnightblue" d="M936.274,-56.6808C973.13,-46.8768 1034.22,-30.6273 1072.73,-20.383"/>
<polygon fill="midnightblue" stroke="midnightblue" points="1073.71,-23.7425 1082.48,-17.7894 1071.91,-16.9778 1073.71,-23.7425"/>
</g>
<!-- Node21 -->
<g id="node21" class="node"><title>Node21</title>
<g id="a_node21"><a xlink:title=" ">
<polygon fill="white" stroke="#bfbfbf" points="627,-0.5 627,-19.5 675,-19.5 675,-0.5 627,-0.5"/>
<text text-anchor="middle" x="651" y="-7.5" font-family="Helvetica,sans-Serif" font-size="10.00">cstddef</text>
</a>
</g>
</g>
<!-- Node12&#45;&gt;Node21 -->
<g id="edge20" class="edge"><title>Node12&#45;&gt;Node21</title>
<path fill="none" stroke="midnightblue" d="M873.674,-58.0604C870.409,-57.356 867.138,-56.6582 864,-56 787.272,-39.9073 765.113,-38.8088 685.148,-20.1444"/>
<polygon fill="midnightblue" stroke="midnightblue" points="685.638,-16.6641 675.102,-17.779 684.033,-23.4778 685.638,-16.6641"/>
</g>
<!-- Node22&#45;&gt;Node3 -->
<g id="edge61" class="edge"><title>Node22&#45;&gt;Node3</title>
<path fill="none" stroke="midnightblue" d="M717.967,-289.212C652.031,-288.272 481.111,-276.869 382,-188 368.432,-175.834 360.565,-156.281 356.319,-141.794"/>
<polygon fill="midnightblue" stroke="midnightblue" points="359.652,-140.704 353.744,-131.91 352.878,-142.469 359.652,-140.704"/>
</g>
<!-- Node22&#45;&gt;Node12 -->
<g id="edge58" class="edge"><title>Node22&#45;&gt;Node12</title>
<path fill="none" stroke="midnightblue" d="M771.412,-280.419C789.915,-273.238 814.084,-261.349 830,-244 852.527,-219.445 885.545,-125.499 898.98,-85.359"/>
<polygon fill="midnightblue" stroke="midnightblue" points="902.334,-86.3636 902.159,-75.7702 895.69,-84.1611 902.334,-86.3636"/>
</g>
<!-- Node23 -->
<g id="node23" class="node"><title>Node23</title>
<g id="a_node23"><a xlink:title=" ">
<polygon fill="white" stroke="#bfbfbf" points="806.5,-56.5 806.5,-75.5 855.5,-75.5 855.5,-56.5 806.5,-56.5"/>
<text text-anchor="middle" x="831" y="-63.5" font-family="Helvetica,sans-Serif" font-size="10.00">cassert</text>
</a>
</g>
</g>
<!-- Node22&#45;&gt;Node23 -->
<g id="edge22" class="edge"><title>Node22&#45;&gt;Node23</title>
<path fill="none" stroke="midnightblue" d="M766.242,-280.365C781.368,-273.036 800.762,-260.985 811,-244 841.551,-193.316 837.602,-119.5 833.661,-85.4579"/>
<polygon fill="midnightblue" stroke="midnightblue" points="837.131,-84.9963 832.375,-75.5289 830.189,-85.8957 837.131,-84.9963"/>
</g>
<!-- Node24 -->
<g id="node24" class="node"><title>Node24</title>
<g id="a_node24"><a xlink:title=" ">
<polygon fill="white" stroke="#bfbfbf" points="744,-224.5 744,-243.5 802,-243.5 802,-224.5 744,-224.5"/>
<text text-anchor="middle" x="773" y="-231.5" font-family="Helvetica,sans-Serif" font-size="10.00">functional</text>
</a>
</g>
</g>
<!-- Node22&#45;&gt;Node24 -->
<g id="edge23" class="edge"><title>Node22&#45;&gt;Node24</title>
<path fill="none" stroke="midnightblue" d="M749.624,-280.083C753.456,-272.691 759.024,-261.953 763.765,-252.811"/>
<polygon fill="midnightblue" stroke="midnightblue" points="766.966,-254.24 768.462,-243.751 760.752,-251.018 766.966,-254.24"/>
</g>
<!-- Node25 -->
<g id="node25" class="node"><title>Node25</title>
<g id="a_node25"><a xlink:href="address_8h.html" target="_top" xlink:title=" ">
<polygon fill="white" stroke="black" points="628.5,-224.5 628.5,-243.5 687.5,-243.5 687.5,-224.5 628.5,-224.5"/>
<text text-anchor="middle" x="658" y="-231.5" font-family="Helvetica,sans-Serif" font-size="10.00">address.h</text>
</a>
</g>
</g>
<!-- Node22&#45;&gt;Node25 -->
<g id="edge24" class="edge"><title>Node22&#45;&gt;Node25</title>
<path fill="none" stroke="midnightblue" d="M731.022,-280.324C717.45,-271.9 696.62,-258.971 680.675,-249.074"/>
<polygon fill="midnightblue" stroke="midnightblue" points="682.286,-245.954 671.943,-243.655 678.594,-251.902 682.286,-245.954"/>
</g>
<!-- Node30 -->
<g id="node30" class="node"><title>Node30</title>
<g id="a_node30"><a xlink:href="buffer_8h.html" target="_top" xlink:title=" ">
<polygon fill="white" stroke="black" points="662,-112.5 662,-131.5 710,-131.5 710,-112.5 662,-112.5"/>
<text text-anchor="middle" x="686" y="-119.5" font-family="Helvetica,sans-Serif" font-size="10.00">buffer.h</text>
</a>
</g>
</g>
<!-- Node22&#45;&gt;Node30 -->
<g id="edge57" class="edge"><title>Node22&#45;&gt;Node30</title>
<path fill="none" stroke="midnightblue" d="M717.904,-286.614C667.541,-280.516 560.833,-259.373 519,-188 514.505,-180.331 513.594,-175.056 519,-168 535.062,-147.037 607.894,-133.637 651.899,-127.303"/>
<polygon fill="midnightblue" stroke="midnightblue" points="652.46,-130.759 661.883,-125.916 651.496,-123.825 652.46,-130.759"/>
</g>
<!-- Node34 -->
<g id="node34" class="node"><title>Node34</title>
<g id="a_node34"><a xlink:href="useful__base__types_8h.html" target="_top" xlink:title=" ">
<polygon fill="white" stroke="black" points="1002,-56.5 1002,-75.5 1108,-75.5 1108,-56.5 1002,-56.5"/>
<text text-anchor="middle" x="1055" y="-63.5" font-family="Helvetica,sans-Serif" font-size="10.00">useful_base_types.h</text>
</a>
</g>
</g>
<!-- Node22&#45;&gt;Node34 -->
<g id="edge60" class="edge"><title>Node22&#45;&gt;Node34</title>
<path fill="none" stroke="midnightblue" d="M772.316,-286.743C830.717,-280.632 969.512,-259.09 1057,-188 1085.44,-164.888 1100.65,-146.748 1089,-112 1085.4,-101.251 1078.1,-91.0204 1071.18,-83.0378"/>
<polygon fill="midnightblue" stroke="midnightblue" points="1073.65,-80.5561 1064.29,-75.6053 1068.52,-85.3168 1073.65,-80.5561"/>
</g>
<!-- Node35 -->
<g id="node35" class="node"><title>Node35</title>
<g id="a_node35"><a xlink:href="exception_8h.html" target="_top" xlink:title=" ">
<polygon fill="white" stroke="black" points="731.5,-112.5 731.5,-131.5 798.5,-131.5 798.5,-112.5 731.5,-112.5"/>
<text text-anchor="middle" x="765" y="-119.5" font-family="Helvetica,sans-Serif" font-size="10.00">exception.h</text>
</a>
</g>
</g>
<!-- Node22&#45;&gt;Node35 -->
<g id="edge59" class="edge"><title>Node22&#45;&gt;Node35</title>
<path fill="none" stroke="midnightblue" d="M742.518,-280.467C740.043,-271.485 736.415,-256.888 735,-244 730.904,-206.687 746.128,-164.394 756.373,-140.996"/>
<polygon fill="midnightblue" stroke="midnightblue" points="759.667,-142.21 760.643,-131.66 753.301,-139.298 759.667,-142.21"/>
</g>
<!-- Node25&#45;&gt;Node3 -->
<g id="edge56" class="edge"><title>Node25&#45;&gt;Node3</title>
<path fill="none" stroke="midnightblue" d="M628.281,-233.771C579.338,-233.757 480.117,-228.233 409,-188 388.878,-176.617 372.335,-155.4 362.349,-140.304"/>
<polygon fill="midnightblue" stroke="midnightblue" points="365.302,-138.427 357.005,-131.839 359.383,-142.163 365.302,-138.427"/>
</g>
<!-- Node26 -->
<g id="node26" class="node"><title>Node26</title>
<g id="a_node26"><a xlink:title=" ">
<polygon fill="white" stroke="#bfbfbf" points="528.5,-168.5 528.5,-187.5 569.5,-187.5 569.5,-168.5 528.5,-168.5"/>
<text text-anchor="middle" x="549" y="-175.5" font-family="Helvetica,sans-Serif" font-size="10.00">string</text>
</a>
</g>
</g>
<!-- Node25&#45;&gt;Node26 -->
<g id="edge25" class="edge"><title>Node25&#45;&gt;Node26</title>
<path fill="none" stroke="midnightblue" d="M640.487,-224.324C622.928,-215.625 595.669,-202.12 575.469,-192.113"/>
<polygon fill="midnightblue" stroke="midnightblue" points="576.984,-188.958 566.469,-187.655 573.876,-195.23 576.984,-188.958"/>
</g>
<!-- Node27 -->
<g id="node27" class="node"><title>Node27</title>
<g id="a_node27"><a xlink:title=" ">
<polygon fill="white" stroke="#bfbfbf" points="588,-168.5 588,-187.5 632,-187.5 632,-168.5 588,-168.5"/>
<text text-anchor="middle" x="610" y="-175.5" font-family="Helvetica,sans-Serif" font-size="10.00">variant</text>
</a>
</g>
</g>
<!-- Node25&#45;&gt;Node27 -->
<g id="edge26" class="edge"><title>Node25&#45;&gt;Node27</title>
<path fill="none" stroke="midnightblue" d="M650.074,-224.083C643.154,-216.298 632.935,-204.801 624.548,-195.367"/>
<polygon fill="midnightblue" stroke="midnightblue" points="627.038,-192.9 617.779,-187.751 621.806,-197.55 627.038,-192.9"/>
</g>
<!-- Node28 -->
<g id="node28" class="node"><title>Node28</title>
<g id="a_node28"><a xlink:href="bin__rw_8h.html" target="_top" xlink:title=" ">
<polygon fill="white" stroke="black" points="418.5,-168.5 418.5,-187.5 471.5,-187.5 471.5,-168.5 418.5,-168.5"/>
<text text-anchor="middle" x="445" y="-175.5" font-family="Helvetica,sans-Serif" font-size="10.00">bin_rw.h</text>
</a>
</g>
</g>
<!-- Node25&#45;&gt;Node28 -->
<g id="edge27" class="edge"><title>Node25&#45;&gt;Node28</title>
<path fill="none" stroke="midnightblue" d="M628.383,-225.492C589.944,-215.746 522.892,-198.747 481.394,-188.227"/>
<polygon fill="midnightblue" stroke="midnightblue" points="482.234,-184.829 471.68,-185.764 480.513,-191.614 482.234,-184.829"/>
</g>
<!-- Node25&#45;&gt;Node30 -->
<g id="edge45" class="edge"><title>Node25&#45;&gt;Node30</title>
<path fill="none" stroke="midnightblue" d="M668.99,-224.365C678.453,-216.171 691.436,-202.917 697,-188 702.681,-172.769 698.673,-154.431 693.977,-141.122"/>
<polygon fill="midnightblue" stroke="midnightblue" points="697.174,-139.689 690.237,-131.681 690.667,-142.267 697.174,-139.689"/>
</g>
<!-- Node25&#45;&gt;Node35 -->
<g id="edge46" class="edge"><title>Node25&#45;&gt;Node35</title>
<path fill="none" stroke="midnightblue" d="M669.983,-224.358C681.554,-215.752 699.292,-201.859 713,-188 727.863,-172.973 742.715,-153.902 752.718,-140.311"/>
<polygon fill="midnightblue" stroke="midnightblue" points="755.781,-142.048 758.809,-131.895 750.11,-137.944 755.781,-142.048"/>
</g>
<!-- Node36 -->
<g id="node36" class="node"><title>Node36</title>
<g id="a_node36"><a xlink:href="sys__socket__ops_8h.html" target="_top" xlink:title=" ">
<polygon fill="white" stroke="black" points="952,-168.5 952,-187.5 1048,-187.5 1048,-168.5 952,-168.5"/>
<text text-anchor="middle" x="1000" y="-175.5" font-family="Helvetica,sans-Serif" font-size="10.00">sys_socket_ops.h</text>
</a>
</g>
</g>
<!-- Node25&#45;&gt;Node36 -->
<g id="edge49" class="edge"><title>Node25&#45;&gt;Node36</title>
<path fill="none" stroke="midnightblue" d="M687.752,-228.302C744.327,-219.369 868.323,-199.791 941.901,-188.174"/>
<polygon fill="midnightblue" stroke="midnightblue" points="942.604,-191.606 951.936,-186.589 941.513,-184.692 942.604,-191.606"/>
</g>
<!-- Node38 -->
<g id="node38" class="node"><title>Node38</title>
<g id="a_node38"><a xlink:href="tag_8h.html" target="_top" xlink:title=" ">
<polygon fill="white" stroke="black" points="650,-168.5 650,-187.5 688,-187.5 688,-168.5 650,-168.5"/>
<text text-anchor="middle" x="669" y="-175.5" font-family="Helvetica,sans-Serif" font-size="10.00">tag.h</text>
</a>
</g>
</g>
<!-- Node25&#45;&gt;Node38 -->
<g id="edge55" class="edge"><title>Node25&#45;&gt;Node38</title>
<path fill="none" stroke="midnightblue" d="M659.816,-224.083C661.274,-216.927 663.371,-206.635 665.193,-197.691"/>
<polygon fill="midnightblue" stroke="midnightblue" points="668.651,-198.248 667.217,-187.751 661.792,-196.851 668.651,-198.248"/>
</g>
<!-- Node28&#45;&gt;Node3 -->
<g id="edge44" class="edge"><title>Node28&#45;&gt;Node3</title>
<path fill="none" stroke="midnightblue" d="M430.058,-168.324C415.415,-159.822 392.866,-146.729 375.762,-136.797"/>
<polygon fill="midnightblue" stroke="midnightblue" points="377.31,-133.649 366.905,-131.655 373.795,-139.703 377.31,-133.649"/>
</g>
<!-- Node28&#45;&gt;Node8 -->
<g id="edge29" class="edge"><title>Node28&#45;&gt;Node8</title>
<path fill="none" stroke="midnightblue" d="M442.175,-168.368C436.339,-150.537 422.842,-109.295 414.98,-85.2717"/>
<polygon fill="midnightblue" stroke="midnightblue" points="418.249,-84.0067 411.812,-75.5914 411.596,-86.1841 418.249,-84.0067"/>
</g>
<!-- Node28&#45;&gt;Node10 -->
<g id="edge30" class="edge"><title>Node28&#45;&gt;Node10</title>
<path fill="none" stroke="midnightblue" d="M447.827,-168.16C451.836,-155.647 459.417,-132.057 466,-112 468.893,-103.186 472.144,-93.4168 474.878,-85.2387"/>
<polygon fill="midnightblue" stroke="midnightblue" points="478.243,-86.2128 478.101,-75.619 471.605,-83.9891 478.243,-86.2128"/>
</g>
<!-- Node29 -->
<g id="node29" class="node"><title>Node29</title>
<g id="a_node29"><a xlink:title=" ">
<polygon fill="white" stroke="#bfbfbf" points="547,-112.5 547,-131.5 603,-131.5 603,-112.5 547,-112.5"/>
<text text-anchor="middle" x="575" y="-119.5" font-family="Helvetica,sans-Serif" font-size="10.00">algorithm</text>
</a>
</g>
</g>
<!-- Node28&#45;&gt;Node29 -->
<g id="edge28" class="edge"><title>Node28&#45;&gt;Node29</title>
<path fill="none" stroke="midnightblue" d="M465.599,-168.444C486.993,-159.557 520.681,-145.563 545.024,-135.451"/>
<polygon fill="midnightblue" stroke="midnightblue" points="546.605,-138.585 554.497,-131.516 543.92,-132.12 546.605,-138.585"/>
</g>
<!-- Node28&#45;&gt;Node30 -->
<g id="edge31" class="edge"><title>Node28&#45;&gt;Node30</title>
<path fill="none" stroke="midnightblue" d="M471.712,-171.015C515.67,-161.165 603.204,-141.552 651.687,-130.688"/>
<polygon fill="midnightblue" stroke="midnightblue" points="652.703,-134.047 661.696,-128.446 651.173,-127.217 652.703,-134.047"/>
</g>
<!-- Node32 -->
<g id="node32" class="node"><title>Node32</title>
<g id="a_node32"><a xlink:href="endian_8h.html" target="_top" xlink:title=" ">
<polygon fill="white" stroke="black" points="475.5,-112.5 475.5,-131.5 528.5,-131.5 528.5,-112.5 475.5,-112.5"/>
<text text-anchor="middle" x="502" y="-119.5" font-family="Helvetica,sans-Serif" font-size="10.00">endian.h</text>
</a>
</g>
</g>
<!-- Node28&#45;&gt;Node32 -->
<g id="edge38" class="edge"><title>Node28&#45;&gt;Node32</title>
<path fill="none" stroke="midnightblue" d="M454.158,-168.324C462.501,-160.42 475.032,-148.548 485.177,-138.938"/>
<polygon fill="midnightblue" stroke="midnightblue" points="487.823,-141.252 492.675,-131.834 483.009,-136.171 487.823,-141.252"/>
</g>
<!-- Node30&#45;&gt;Node9 -->
<g id="edge35" class="edge"><title>Node30&#45;&gt;Node9</title>
<path fill="none" stroke="midnightblue" d="M696.443,-112.324C706.146,-104.263 720.815,-92.0765 732.5,-82.3695"/>
<polygon fill="midnightblue" stroke="midnightblue" points="734.911,-84.9163 740.367,-75.8339 730.438,-79.532 734.911,-84.9163"/>
</g>
<!-- Node30&#45;&gt;Node10 -->
<g id="edge36" class="edge"><title>Node30&#45;&gt;Node10</title>
<path fill="none" stroke="midnightblue" d="M661.679,-114.593C627.288,-105.534 563.987,-88.8601 522.19,-77.8501"/>
<polygon fill="midnightblue" stroke="midnightblue" points="522.88,-74.4124 512.318,-75.2496 521.097,-81.1815 522.88,-74.4124"/>
</g>
<!-- Node30&#45;&gt;Node12 -->
<g id="edge37" class="edge"><title>Node30&#45;&gt;Node12</title>
<path fill="none" stroke="midnightblue" d="M710.009,-114.984C714.013,-113.985 718.123,-112.961 722,-112 770.765,-99.9088 826.874,-86.1314 863.97,-77.0414"/>
<polygon fill="midnightblue" stroke="midnightblue" points="865.026,-80.3861 873.906,-74.6072 863.361,-73.5872 865.026,-80.3861"/>
</g>
<!-- Node30&#45;&gt;Node21 -->
<g id="edge33" class="edge"><title>Node30&#45;&gt;Node21</title>
<path fill="none" stroke="midnightblue" d="M683.578,-112.12C680.112,-99.5579 673.444,-75.9106 667,-56 664.124,-47.114 660.681,-37.3357 657.727,-29.1706"/>
<polygon fill="midnightblue" stroke="midnightblue" points="660.94,-27.7636 654.215,-19.5768 654.366,-30.1706 660.94,-27.7636"/>
</g>
<!-- Node30&#45;&gt;Node23 -->
<g id="edge32" class="edge"><title>Node30&#45;&gt;Node23</title>
<path fill="none" stroke="midnightblue" d="M708.976,-112.444C733.157,-103.438 771.418,-89.1891 798.646,-79.049"/>
<polygon fill="midnightblue" stroke="midnightblue" points="799.982,-82.2864 808.132,-75.5164 797.539,-75.7265 799.982,-82.2864"/>
</g>
<!-- Node31 -->
<g id="node31" class="node"><title>Node31</title>
<g id="a_node31"><a xlink:title=" ">
<polygon fill="white" stroke="#bfbfbf" points="612,-56.5 612,-75.5 658,-75.5 658,-56.5 612,-56.5"/>
<text text-anchor="middle" x="635" y="-63.5" font-family="Helvetica,sans-Serif" font-size="10.00">cstdint</text>
</a>
</g>
</g>
<!-- Node30&#45;&gt;Node31 -->
<g id="edge34" class="edge"><title>Node30&#45;&gt;Node31</title>
<path fill="none" stroke="midnightblue" d="M677.578,-112.083C670.152,-104.22 659.148,-92.5688 650.188,-83.0813"/>
<polygon fill="midnightblue" stroke="midnightblue" points="652.676,-80.618 643.265,-75.7511 647.587,-85.4244 652.676,-80.618"/>
</g>
<!-- Node32&#45;&gt;Node8 -->
<g id="edge40" class="edge"><title>Node32&#45;&gt;Node8</title>
<path fill="none" stroke="midnightblue" d="M487.058,-112.324C472.415,-103.822 449.866,-90.7288 432.762,-80.7975"/>
<polygon fill="midnightblue" stroke="midnightblue" points="434.31,-77.6491 423.905,-75.6545 430.795,-83.7027 434.31,-77.6491"/>
</g>
<!-- Node32&#45;&gt;Node10 -->
<g id="edge42" class="edge"><title>Node32&#45;&gt;Node10</title>
<path fill="none" stroke="midnightblue" d="M498.532,-112.083C495.688,-104.77 491.571,-94.1814 488.04,-85.1034"/>
<polygon fill="midnightblue" stroke="midnightblue" points="491.29,-83.8025 484.403,-75.7511 484.766,-86.3397 491.29,-83.8025"/>
</g>
<!-- Node32&#45;&gt;Node31 -->
<g id="edge39" class="edge"><title>Node32&#45;&gt;Node31</title>
<path fill="none" stroke="midnightblue" d="M523.074,-112.444C545.06,-103.517 579.734,-89.4387 604.664,-79.3168"/>
<polygon fill="midnightblue" stroke="midnightblue" points="606.076,-82.5213 614.024,-75.5164 603.442,-76.0355 606.076,-82.5213"/>
</g>
<!-- Node33 -->
<g id="node33" class="node"><title>Node33</title>
<g id="a_node33"><a xlink:title=" ">
<polygon fill="white" stroke="#bfbfbf" points="530,-56.5 530,-75.5 594,-75.5 594,-56.5 530,-56.5"/>
<text text-anchor="middle" x="562" y="-63.5" font-family="Helvetica,sans-Serif" font-size="10.00">string_view</text>
</a>
</g>
</g>
<!-- Node32&#45;&gt;Node33 -->
<g id="edge41" class="edge"><title>Node32&#45;&gt;Node33</title>
<path fill="none" stroke="midnightblue" d="M511.64,-112.324C520.51,-104.341 533.875,-92.3128 544.608,-82.6529"/>
<polygon fill="midnightblue" stroke="midnightblue" points="547.093,-85.1251 552.185,-75.8339 542.41,-79.922 547.093,-85.1251"/>
</g>
<!-- Node32&#45;&gt;Node34 -->
<g id="edge43" class="edge"><title>Node32&#45;&gt;Node34</title>
<path fill="none" stroke="midnightblue" d="M528.638,-113.842C531.778,-113.146 534.95,-112.511 538,-112 560.03,-108.311 858.238,-83.3283 991.47,-72.26"/>
<polygon fill="midnightblue" stroke="midnightblue" points="991.864,-75.7395 1001.54,-71.4239 991.284,-68.7635 991.864,-75.7395"/>
</g>
<!-- Node35&#45;&gt;Node9 -->
<g id="edge47" class="edge"><title>Node35&#45;&gt;Node9</title>
<path fill="none" stroke="midnightblue" d="M762.688,-112.083C760.833,-104.927 758.165,-94.6353 755.846,-85.6911"/>
<polygon fill="midnightblue" stroke="midnightblue" points="759.166,-84.5527 753.269,-75.7511 752.391,-86.3094 759.166,-84.5527"/>
</g>
<!-- Node35&#45;&gt;Node12 -->
<g id="edge48" class="edge"><title>Node35&#45;&gt;Node12</title>
<path fill="none" stroke="midnightblue" d="M787.183,-112.444C810.428,-103.478 847.149,-89.314 873.415,-79.1827"/>
<polygon fill="midnightblue" stroke="midnightblue" points="874.85,-82.3807 882.92,-75.5164 872.331,-75.8497 874.85,-82.3807"/>
</g>
<!-- Node36&#45;&gt;Node12 -->
<g id="edge50" class="edge"><title>Node36&#45;&gt;Node12</title>
<path fill="none" stroke="midnightblue" d="M992.546,-168.368C976.729,-150.055 939.588,-107.049 919.131,-83.3624"/>
<polygon fill="midnightblue" stroke="midnightblue" points="921.605,-80.872 912.42,-75.5914 916.307,-85.4474 921.605,-80.872"/>
</g>
<!-- Node36&#45;&gt;Node34 -->
<g id="edge54" class="edge"><title>Node36&#45;&gt;Node34</title>
<path fill="none" stroke="midnightblue" d="M1026.21,-168.414C1042.85,-161.445 1063.06,-149.809 1073,-132 1081.27,-117.191 1074.42,-98.3318 1066.91,-84.7461"/>
<polygon fill="midnightblue" stroke="midnightblue" points="1069.72,-82.6391 1061.53,-75.919 1063.75,-86.2802 1069.72,-82.6391"/>
</g>
<!-- Node37 -->
<g id="node37" class="node"><title>Node37</title>
<g id="a_node37"><a xlink:href="sys__error__code_8h.html" target="_top" xlink:title=" ">
<polygon fill="white" stroke="black" points="972,-112.5 972,-131.5 1064,-131.5 1064,-112.5 972,-112.5"/>
<text text-anchor="middle" x="1018" y="-119.5" font-family="Helvetica,sans-Serif" font-size="10.00">sys_error_code.h</text>
</a>
</g>
</g>
<!-- Node36&#45;&gt;Node37 -->
<g id="edge51" class="edge"><title>Node36&#45;&gt;Node37</title>
<path fill="none" stroke="midnightblue" d="M1002.97,-168.083C1005.38,-160.849 1008.86,-150.409 1011.87,-141.397"/>
<polygon fill="midnightblue" stroke="midnightblue" points="1015.24,-142.345 1015.08,-131.751 1008.6,-140.131 1015.24,-142.345"/>
</g>
<!-- Node37&#45;&gt;Node12 -->
<g id="edge52" class="edge"><title>Node37&#45;&gt;Node12</title>
<path fill="none" stroke="midnightblue" d="M1000.09,-112.444C981.746,-103.675 952.995,-89.9355 931.906,-79.8579"/>
<polygon fill="midnightblue" stroke="midnightblue" points="933.353,-76.6703 922.821,-75.5164 930.335,-82.9862 933.353,-76.6703"/>
</g>
<!-- Node37&#45;&gt;Node34 -->
<g id="edge53" class="edge"><title>Node37&#45;&gt;Node34</title>
<path fill="none" stroke="midnightblue" d="M1024.11,-112.083C1029.28,-104.534 1036.85,-93.4948 1043.19,-84.2298"/>
<polygon fill="midnightblue" stroke="midnightblue" points="1046.24,-85.9787 1049,-75.7511 1040.46,-82.0221 1046.24,-85.9787"/>
</g>
</g>
</svg>
        <g id="navigator" transform="translate(0 0)" fill="#404254">
                <rect fill="#f2f5e9" fill-opacity="0.5" stroke="#606060" stroke-width=".5" x="0" y="0" width="60" height="60"/>
                <use id="zoomplus" xlink:href="#zoomPlus" x="17" y="9" onmousedown="handleZoom(evt,'in')"/>
                <use id="zoomminus" xlink:href="#zoomMin" x="42" y="9" onmousedown="handleZoom(evt,'out')"/>
                <use id="reset" xlink:href="#resetDef" x="30" y="36" onmousedown="handleReset()"/>
                <g id="arrowUp" xlink:href="#dirArrow" transform="translate(30 24)" onmousedown="handlePan(0,-1)">
                  <use xlink:href="#rim" fill="#404040">
                        <set attributeName="fill" to="#808080" begin="arrowUp.mouseover" end="arrowUp.mouseout"/>
                  </use>
                  <path fill="none" stroke="white" stroke-width="1.5" d="M0,-3.0v7 M-2.5,-0.5L0,-3.0L2.5,-0.5"/>
                </g>
                <g id="arrowRight" xlink:href="#dirArrow" transform="rotate(90) translate(36 -43)" onmousedown="handlePan(1,0)">
                  <use xlink:href="#rim" fill="#404040">
                        <set attributeName="fill" to="#808080" begin="arrowRight.mouseover" end="arrowRight.mouseout"/>
                  </use>
                  <path fill="none" stroke="white" stroke-width="1.5" d="M0,-3.0v7 M-2.5,-0.5L0,-3.0L2.5,-0.5"/>
                </g>
                <g id="arrowDown" xlink:href="#dirArrow" transform="rotate(180) translate(-30 -48)" onmousedown="handlePan(0,1)">
                  <use xlink:href="#rim" fill="#404040">
                        <set attributeName="fill" to="#808080" begin="arrowDown.mouseover" end="arrowDown.mouseout"/>
                  </use>
                  <path fill="none" stroke="white" stroke-width="1.5" d="M0,-3.0v7 M-2.5,-0.5L0,-3.0L2.5,-0.5"/>
                </g>
                <g id="arrowLeft" xlink:href="#dirArrow" transform="rotate(270) translate(-36 17)" onmousedown="handlePan(-1,0)">
                  <use xlink:href="#rim" fill="#404040">
                        <set attributeName="fill" to="#808080" begin="arrowLeft.mouseover" end="arrowLeft.mouseout"/>
                  </use>
                  <path fill="none" stroke="white" stroke-width="1.5" d="M0,-3.0v7 M-2.5,-0.5L0,-3.0L2.5,-0.5"/>
                </g>
        </g>
        <svg viewBox="0 0 15 15" width="100%" height="30px" preserveAspectRatio="xMaxYMin meet">
         <g id="arrow_out" transform="scale(0.3 0.3)">
          <a xlink:href="udp_8cpp__incl_org.svg" target="_base">
           <rect id="button" ry="5" rx="5" y="6" x="6" height="38" width="38"
                fill="#f2f5e9" fill-opacity="0.5" stroke="#606060" stroke-width="1.0"/>
           <path id="arrow"
             d="M 11.500037,31.436501 C 11.940474,20.09759 22.043105,11.32322 32.158766,21.979434 L 37.068811,17.246167 C 37.068811,17.246167 37.088388,32 37.088388,32 L 22.160133,31.978069 C 22.160133,31.978069 26.997745,27.140456 26.997745,27.140456 C 18.528582,18.264221 13.291696,25.230495 11.500037,31.436501 z"
             style="fill:#404040;"/>
          </a>
         </g>
        </svg>
</svg>
