<?xml version="1.0" encoding="UTF-8" standalone="no"?>
<!DOCTYPE svg PUBLIC "-//W3C//DTD SVG 1.1//EN"
 "http://www.w3.org/Graphics/SVG/1.1/DTD/svg11.dtd">
<!-- Generated by graphviz version 2.38.0 (20140413.2041)
 -->
<!-- Title: C:/projects/ndt/sources/src/udp.cpp Pages: 1 -->
<svg width="1071pt" height="431pt"
 viewBox="0.00 0.00 1070.62 431.00" xmlns="http://www.w3.org/2000/svg" xmlns:xlink="http://www.w3.org/1999/xlink">
<g id="graph0" class="graph" transform="scale(1 1) rotate(0) translate(4 427)">
<title>C:/projects/ndt/sources/src/udp.cpp</title>
<polygon fill="white" stroke="none" points="-4,4 -4,-427 1066.62,-427 1066.62,4 -4,4"/>
<!-- Node1 -->
<g id="node1" class="node"><title>Node1</title>
<g id="a_node1"><a xlink:title=" ">
<polygon fill="#bfbfbf" stroke="black" points="309,-392.5 309,-422.5 427,-422.5 427,-392.5 309,-392.5"/>
<text text-anchor="start" x="317" y="-410.5" font-family="Helvetica,sans-Serif" font-size="10.00">C:/projects/ndt/sources</text>
<text text-anchor="middle" x="368" y="-399.5" font-family="Helvetica,sans-Serif" font-size="10.00">/src/udp.cpp</text>
</a>
</g>
</g>
<!-- Node2 -->
<g id="node2" class="node"><title>Node2</title>
<g id="a_node2"><a xlink:href="udp_8h.html" target="_top" xlink:title=" ">
<polygon fill="white" stroke="black" points="468.5,-336.5 468.5,-355.5 525.5,-355.5 525.5,-336.5 468.5,-336.5"/>
<text text-anchor="middle" x="497" y="-343.5" font-family="Helvetica,sans-Serif" font-size="10.00">ndt/udp.h</text>
</a>
</g>
</g>
<!-- Node1&#45;&gt;Node2 -->
<g id="edge1" class="edge"><title>Node1&#45;&gt;Node2</title>
<path fill="none" stroke="midnightblue" d="M398.571,-392.399C419.925,-382.55 448.215,-369.501 468.985,-359.922"/>
<polygon fill="midnightblue" stroke="midnightblue" points="470.615,-363.024 478.229,-355.658 467.683,-356.668 470.615,-363.024"/>
</g>
<!-- Node10 -->
<g id="node10" class="node"><title>Node10</title>
<g id="a_node10"><a xlink:href="common_8h.html" target="_top" xlink:title="Header with typedefs to make type designation platform independent.">
<polygon fill="white" stroke="black" points="605,-56.5 605,-75.5 667,-75.5 667,-56.5 605,-56.5"/>
<text text-anchor="middle" x="636" y="-63.5" font-family="Helvetica,sans-Serif" font-size="10.00">common.h</text>
</a>
</g>
</g>
<!-- Node1&#45;&gt;Node10 -->
<g id="edge46" class="edge"><title>Node1&#45;&gt;Node10</title>
<path fill="none" stroke="midnightblue" d="M331.723,-392.372C293.568,-374.854 239,-341.051 239,-291 239,-291 239,-291 239,-177 239,-146.902 235.028,-131.446 258,-112 308.048,-69.6354 507.621,-65.9098 594.847,-66.3764"/>
<polygon fill="midnightblue" stroke="midnightblue" points="594.883,-69.8767 604.909,-66.4518 594.936,-62.8769 594.883,-69.8767"/>
</g>
<!-- Node3 -->
<g id="node3" class="node"><title>Node3</title>
<g id="a_node3"><a xlink:href="utils_8h.html" target="_top" xlink:title=" ">
<polygon fill="white" stroke="black" points="521.5,-168.5 521.5,-187.5 564.5,-187.5 564.5,-168.5 521.5,-168.5"/>
<text text-anchor="middle" x="543" y="-175.5" font-family="Helvetica,sans-Serif" font-size="10.00">utils.h</text>
</a>
</g>
</g>
<!-- Node2&#45;&gt;Node3 -->
<g id="edge2" class="edge"><title>Node2&#45;&gt;Node3</title>
<path fill="none" stroke="midnightblue" d="M497.235,-336.208C498.023,-315.857 501.421,-264.178 516,-224 519.529,-214.274 525.24,-204.322 530.503,-196.258"/>
<polygon fill="midnightblue" stroke="midnightblue" points="533.545,-198.011 536.318,-187.786 527.773,-194.05 533.545,-198.011"/>
</g>
<!-- Node20 -->
<g id="node20" class="node"><title>Node20</title>
<g id="a_node20"><a xlink:href="socket_8h.html" target="_top" xlink:title=" ">
<polygon fill="white" stroke="black" points="642,-280.5 642,-299.5 696,-299.5 696,-280.5 642,-280.5"/>
<text text-anchor="middle" x="669" y="-287.5" font-family="Helvetica,sans-Serif" font-size="10.00">socket.h</text>
</a>
</g>
</g>
<!-- Node2&#45;&gt;Node20 -->
<g id="edge19" class="edge"><title>Node2&#45;&gt;Node20</title>
<path fill="none" stroke="midnightblue" d="M524.254,-336.444C553.441,-327.28 599.921,-312.688 632.309,-302.519"/>
<polygon fill="midnightblue" stroke="midnightblue" points="633.381,-305.851 641.874,-299.516 631.284,-299.173 633.381,-305.851"/>
</g>
<!-- Node4 -->
<g id="node4" class="node"><title>Node4</title>
<g id="a_node4"><a xlink:title=" ">
<polygon fill="white" stroke="#bfbfbf" points="433,-112.5 433,-131.5 493,-131.5 493,-112.5 433,-112.5"/>
<text text-anchor="middle" x="463" y="-119.5" font-family="Helvetica,sans-Serif" font-size="10.00">fmt/core.h</text>
</a>
</g>
</g>
<!-- Node3&#45;&gt;Node4 -->
<g id="edge3" class="edge"><title>Node3&#45;&gt;Node4</title>
<path fill="none" stroke="midnightblue" d="M530.147,-168.324C517.784,-159.979 498.87,-147.212 484.263,-137.352"/>
<polygon fill="midnightblue" stroke="midnightblue" points="486.068,-134.348 475.821,-131.655 482.152,-140.15 486.068,-134.348"/>
</g>
<!-- Node5 -->
<g id="node5" class="node"><title>Node5</title>
<g id="a_node5"><a xlink:title=" ">
<polygon fill="white" stroke="#bfbfbf" points="511,-112.5 511,-131.5 579,-131.5 579,-112.5 511,-112.5"/>
<text text-anchor="middle" x="545" y="-119.5" font-family="Helvetica,sans-Serif" font-size="10.00">fmt/format.h</text>
</a>
</g>
</g>
<!-- Node3&#45;&gt;Node5 -->
<g id="edge4" class="edge"><title>Node3&#45;&gt;Node5</title>
<path fill="none" stroke="midnightblue" d="M543.33,-168.083C543.592,-161.006 543.968,-150.861 544.297,-141.986"/>
<polygon fill="midnightblue" stroke="midnightblue" points="547.803,-141.874 544.676,-131.751 540.808,-141.615 547.803,-141.874"/>
</g>
<!-- Node6 -->
<g id="node6" class="node"><title>Node6</title>
<g id="a_node6"><a xlink:title=" ">
<polygon fill="white" stroke="#bfbfbf" points="267,-112.5 267,-131.5 313,-131.5 313,-112.5 267,-112.5"/>
<text text-anchor="middle" x="290" y="-119.5" font-family="Helvetica,sans-Serif" font-size="10.00">cstring</text>
</a>
</g>
</g>
<!-- Node3&#45;&gt;Node6 -->
<g id="edge5" class="edge"><title>Node3&#45;&gt;Node6</title>
<path fill="none" stroke="midnightblue" d="M521.238,-173.117C483.107,-166.196 401.552,-150.877 323.069,-132.117"/>
<polygon fill="midnightblue" stroke="midnightblue" points="323.561,-128.636 313.019,-129.692 321.919,-135.44 323.561,-128.636"/>
</g>
<!-- Node7 -->
<g id="node7" class="node"><title>Node7</title>
<g id="a_node7"><a xlink:title=" ">
<polygon fill="white" stroke="#bfbfbf" points="635,-112.5 635,-131.5 709,-131.5 709,-112.5 635,-112.5"/>
<text text-anchor="middle" x="672" y="-119.5" font-family="Helvetica,sans-Serif" font-size="10.00">system_error</text>
</a>
</g>
</g>
<!-- Node3&#45;&gt;Node7 -->
<g id="edge6" class="edge"><title>Node3&#45;&gt;Node7</title>
<path fill="none" stroke="midnightblue" d="M563.44,-168.444C584.67,-159.557 618.099,-145.563 642.255,-135.451"/>
<polygon fill="midnightblue" stroke="midnightblue" points="643.782,-138.606 651.655,-131.516 641.079,-132.149 643.782,-138.606"/>
</g>
<!-- Node8 -->
<g id="node8" class="node"><title>Node8</title>
<g id="a_node8"><a xlink:title=" ">
<polygon fill="white" stroke="#bfbfbf" points="765,-112.5 765,-131.5 827,-131.5 827,-112.5 765,-112.5"/>
<text text-anchor="middle" x="796" y="-119.5" font-family="Helvetica,sans-Serif" font-size="10.00">type_traits</text>
</a>
</g>
</g>
<!-- Node3&#45;&gt;Node8 -->
<g id="edge7" class="edge"><title>Node3&#45;&gt;Node8</title>
<path fill="none" stroke="midnightblue" d="M564.619,-170.477C567.755,-169.602 570.953,-168.75 574,-168 636.706,-152.57 710.308,-138.42 755.029,-130.256"/>
<polygon fill="midnightblue" stroke="midnightblue" points="755.72,-133.688 764.935,-128.46 754.47,-126.8 755.72,-133.688"/>
</g>
<!-- Node9 -->
<g id="node9" class="node"><title>Node9</title>
<g id="a_node9"><a xlink:title=" ">
<polygon fill="white" stroke="#bfbfbf" points="331.5,-112.5 331.5,-131.5 414.5,-131.5 414.5,-112.5 331.5,-112.5"/>
<text text-anchor="middle" x="373" y="-119.5" font-family="Helvetica,sans-Serif" font-size="10.00">unordered_map</text>
</a>
</g>
</g>
<!-- Node3&#45;&gt;Node9 -->
<g id="edge8" class="edge"><title>Node3&#45;&gt;Node9</title>
<path fill="none" stroke="midnightblue" d="M521.469,-170.161C493.333,-161.224 443.641,-145.439 409.554,-134.611"/>
<polygon fill="midnightblue" stroke="midnightblue" points="410.542,-131.253 399.952,-131.561 408.423,-137.924 410.542,-131.253"/>
</g>
<!-- Node3&#45;&gt;Node10 -->
<g id="edge9" class="edge"><title>Node3&#45;&gt;Node10</title>
<path fill="none" stroke="midnightblue" d="M552.373,-168.414C561.772,-159.626 576.467,-145.398 588,-132 601.385,-116.451 615.142,-97.454 624.478,-84.0231"/>
<polygon fill="midnightblue" stroke="midnightblue" points="627.401,-85.9498 630.176,-75.7249 621.63,-81.9874 627.401,-85.9498"/>
</g>
<!-- Node11 -->
<g id="node11" class="node"><title>Node11</title>
<g id="a_node11"><a xlink:title=" ">
<polygon fill="white" stroke="#bfbfbf" points="766,-0.5 766,-19.5 828,-19.5 828,-0.5 766,-0.5"/>
<text text-anchor="middle" x="797" y="-7.5" font-family="Helvetica,sans-Serif" font-size="10.00">arpa/inet.h</text>
</a>
</g>
</g>
<!-- Node10&#45;&gt;Node11 -->
<g id="edge10" class="edge"><title>Node10&#45;&gt;Node11</title>
<path fill="none" stroke="midnightblue" d="M661.511,-56.4435C688.596,-47.3591 731.59,-32.9388 761.869,-22.7831"/>
<polygon fill="midnightblue" stroke="midnightblue" points="763.24,-26.0148 771.608,-19.5164 761.014,-19.3781 763.24,-26.0148"/>
</g>
<!-- Node12 -->
<g id="node12" class="node"><title>Node12</title>
<g id="a_node12"><a xlink:title=" ">
<polygon fill="white" stroke="#bfbfbf" points="846.5,-0.5 846.5,-19.5 893.5,-19.5 893.5,-0.5 846.5,-0.5"/>
<text text-anchor="middle" x="870" y="-7.5" font-family="Helvetica,sans-Serif" font-size="10.00">errno.h</text>
</a>
</g>
</g>
<!-- Node10&#45;&gt;Node12 -->
<g id="edge11" class="edge"><title>Node10&#45;&gt;Node12</title>
<path fill="none" stroke="midnightblue" d="M667.094,-58.5027C704.826,-50.5169 770.594,-36.2736 836.517,-20.0305"/>
<polygon fill="midnightblue" stroke="midnightblue" points="837.377,-23.4233 846.241,-17.6199 835.693,-16.6289 837.377,-23.4233"/>
</g>
<!-- Node13 -->
<g id="node13" class="node"><title>Node13</title>
<g id="a_node13"><a xlink:title=" ">
<polygon fill="white" stroke="#bfbfbf" points="307.5,-0.5 307.5,-19.5 350.5,-19.5 350.5,-0.5 307.5,-0.5"/>
<text text-anchor="middle" x="329" y="-7.5" font-family="Helvetica,sans-Serif" font-size="10.00">fcntl.h</text>
</a>
</g>
</g>
<!-- Node10&#45;&gt;Node13 -->
<g id="edge12" class="edge"><title>Node10&#45;&gt;Node13</title>
<path fill="none" stroke="midnightblue" d="M604.586,-61.254C554.715,-55.015 454.248,-41.2572 360.469,-20.1022"/>
<polygon fill="midnightblue" stroke="midnightblue" points="361.069,-16.6492 350.54,-17.8285 359.506,-23.4725 361.069,-16.6492"/>
</g>
<!-- Node14 -->
<g id="node14" class="node"><title>Node14</title>
<g id="a_node14"><a xlink:title=" ">
<polygon fill="white" stroke="#bfbfbf" points="368.5,-0.5 368.5,-19.5 417.5,-19.5 417.5,-0.5 368.5,-0.5"/>
<text text-anchor="middle" x="393" y="-7.5" font-family="Helvetica,sans-Serif" font-size="10.00">netdb.h</text>
</a>
</g>
</g>
<!-- Node10&#45;&gt;Node14 -->
<g id="edge13" class="edge"><title>Node10&#45;&gt;Node14</title>
<path fill="none" stroke="midnightblue" d="M604.922,-58.8984C565.753,-51.0867 496.14,-36.8026 427.885,-20.3687"/>
<polygon fill="midnightblue" stroke="midnightblue" points="428.372,-16.8853 417.828,-17.929 426.721,-23.688 428.372,-16.8853"/>
</g>
<!-- Node15 -->
<g id="node15" class="node"><title>Node15</title>
<g id="a_node15"><a xlink:title=" ">
<polygon fill="white" stroke="#bfbfbf" points="435.5,-0.5 435.5,-19.5 500.5,-19.5 500.5,-0.5 435.5,-0.5"/>
<text text-anchor="middle" x="468" y="-7.5" font-family="Helvetica,sans-Serif" font-size="10.00">netinet/in.h</text>
</a>
</g>
</g>
<!-- Node10&#45;&gt;Node15 -->
<g id="edge14" class="edge"><title>Node10&#45;&gt;Node15</title>
<path fill="none" stroke="midnightblue" d="M609.38,-56.4435C580.994,-47.3196 535.863,-32.8133 504.247,-22.6509"/>
<polygon fill="midnightblue" stroke="midnightblue" points="505.087,-19.2445 494.496,-19.5164 502.945,-25.9087 505.087,-19.2445"/>
</g>
<!-- Node16 -->
<g id="node16" class="node"><title>Node16</title>
<g id="a_node16"><a xlink:title=" ">
<polygon fill="white" stroke="#bfbfbf" points="518.5,-0.5 518.5,-19.5 591.5,-19.5 591.5,-0.5 518.5,-0.5"/>
<text text-anchor="middle" x="555" y="-7.5" font-family="Helvetica,sans-Serif" font-size="10.00">sys/socket.h</text>
</a>
</g>
</g>
<!-- Node10&#45;&gt;Node16 -->
<g id="edge15" class="edge"><title>Node10&#45;&gt;Node16</title>
<path fill="none" stroke="midnightblue" d="M622.986,-56.324C610.468,-47.979 591.318,-35.2122 576.529,-25.3524"/>
<polygon fill="midnightblue" stroke="midnightblue" points="578.244,-22.2894 567.982,-19.6545 574.361,-28.1137 578.244,-22.2894"/>
</g>
<!-- Node17 -->
<g id="node17" class="node"><title>Node17</title>
<g id="a_node17"><a xlink:title=" ">
<polygon fill="white" stroke="#bfbfbf" points="610,-0.5 610,-19.5 678,-19.5 678,-0.5 610,-0.5"/>
<text text-anchor="middle" x="644" y="-7.5" font-family="Helvetica,sans-Serif" font-size="10.00">sys/types.h</text>
</a>
</g>
</g>
<!-- Node10&#45;&gt;Node17 -->
<g id="edge16" class="edge"><title>Node10&#45;&gt;Node17</title>
<path fill="none" stroke="midnightblue" d="M637.321,-56.083C638.381,-48.9272 639.906,-38.6353 641.231,-29.6911"/>
<polygon fill="midnightblue" stroke="midnightblue" points="644.7,-30.1561 642.704,-19.7511 637.776,-29.1302 644.7,-30.1561"/>
</g>
<!-- Node18 -->
<g id="node18" class="node"><title>Node18</title>
<g id="a_node18"><a xlink:title=" ">
<polygon fill="white" stroke="#bfbfbf" points="696.5,-0.5 696.5,-19.5 747.5,-19.5 747.5,-0.5 696.5,-0.5"/>
<text text-anchor="middle" x="722" y="-7.5" font-family="Helvetica,sans-Serif" font-size="10.00">unistd.h</text>
</a>
</g>
</g>
<!-- Node10&#45;&gt;Node18 -->
<g id="edge17" class="edge"><title>Node10&#45;&gt;Node18</title>
<path fill="none" stroke="midnightblue" d="M649.817,-56.324C663.233,-47.9002 683.824,-34.9709 699.586,-25.0741"/>
<polygon fill="midnightblue" stroke="midnightblue" points="701.609,-27.9364 708.217,-19.6545 697.887,-22.0081 701.609,-27.9364"/>
</g>
<!-- Node19 -->
<g id="node19" class="node"><title>Node19</title>
<g id="a_node19"><a xlink:title=" ">
<polygon fill="white" stroke="#bfbfbf" points="919,-0.5 919,-19.5 967,-19.5 967,-0.5 919,-0.5"/>
<text text-anchor="middle" x="943" y="-7.5" font-family="Helvetica,sans-Serif" font-size="10.00">cstddef</text>
</a>
</g>
</g>
<!-- Node10&#45;&gt;Node19 -->
<g id="edge18" class="edge"><title>Node10&#45;&gt;Node19</title>
<path fill="none" stroke="midnightblue" d="M667.212,-60.2227C716.997,-52.4896 817.401,-36.4311 902,-20 904.209,-19.571 906.481,-19.1146 908.77,-18.6436"/>
<polygon fill="midnightblue" stroke="midnightblue" points="909.703,-22.0237 918.759,-16.5251 908.25,-15.1759 909.703,-22.0237"/>
</g>
<!-- Node20&#45;&gt;Node3 -->
<g id="edge45" class="edge"><title>Node20&#45;&gt;Node3</title>
<path fill="none" stroke="midnightblue" d="M659.113,-280.368C637.859,-261.814 587.573,-217.913 560.683,-194.438"/>
<polygon fill="midnightblue" stroke="midnightblue" points="562.676,-191.531 552.841,-187.591 558.072,-196.805 562.676,-191.531"/>
</g>
<!-- Node20&#45;&gt;Node10 -->
<g id="edge42" class="edge"><title>Node20&#45;&gt;Node10</title>
<path fill="none" stroke="midnightblue" d="M696.056,-286.395C798.041,-275.62 1148.19,-229.462 1043,-112 1018.89,-85.0784 776.3,-72.5334 677.518,-68.5115"/>
<polygon fill="midnightblue" stroke="midnightblue" points="677.442,-65.0058 667.311,-68.1055 677.164,-72.0002 677.442,-65.0058"/>
</g>
<!-- Node21 -->
<g id="node21" class="node"><title>Node21</title>
<g id="a_node21"><a xlink:title=" ">
<polygon fill="white" stroke="#bfbfbf" points="985.5,-112.5 985.5,-131.5 1034.5,-131.5 1034.5,-112.5 985.5,-112.5"/>
<text text-anchor="middle" x="1010" y="-119.5" font-family="Helvetica,sans-Serif" font-size="10.00">cassert</text>
</a>
</g>
</g>
<!-- Node20&#45;&gt;Node21 -->
<g id="edge20" class="edge"><title>Node20&#45;&gt;Node21</title>
<path fill="none" stroke="midnightblue" d="M691.895,-280.481C715.047,-271.745 751.771,-257.556 783,-244 836.25,-220.885 849.791,-215.341 901,-188 931.782,-171.565 966.195,-150.588 987.965,-136.978"/>
<polygon fill="midnightblue" stroke="midnightblue" points="989.869,-139.916 996.474,-131.632 986.144,-133.989 989.869,-139.916"/>
</g>
<!-- Node22 -->
<g id="node22" class="node"><title>Node22</title>
<g id="a_node22"><a xlink:title=" ">
<polygon fill="white" stroke="#bfbfbf" points="525,-224.5 525,-243.5 583,-243.5 583,-224.5 525,-224.5"/>
<text text-anchor="middle" x="554" y="-231.5" font-family="Helvetica,sans-Serif" font-size="10.00">functional</text>
</a>
</g>
</g>
<!-- Node20&#45;&gt;Node22 -->
<g id="edge21" class="edge"><title>Node20&#45;&gt;Node22</title>
<path fill="none" stroke="midnightblue" d="M650.778,-280.444C632.104,-271.675 602.844,-257.935 581.383,-247.858"/>
<polygon fill="midnightblue" stroke="midnightblue" points="582.676,-244.599 572.137,-243.516 579.701,-250.935 582.676,-244.599"/>
</g>
<!-- Node23 -->
<g id="node23" class="node"><title>Node23</title>
<g id="a_node23"><a xlink:href="address_8h.html" target="_top" xlink:title=" ">
<polygon fill="white" stroke="black" points="639.5,-224.5 639.5,-243.5 698.5,-243.5 698.5,-224.5 639.5,-224.5"/>
<text text-anchor="middle" x="669" y="-231.5" font-family="Helvetica,sans-Serif" font-size="10.00">address.h</text>
</a>
</g>
</g>
<!-- Node20&#45;&gt;Node23 -->
<g id="edge22" class="edge"><title>Node20&#45;&gt;Node23</title>
<path fill="none" stroke="midnightblue" d="M669,-280.083C669,-273.006 669,-262.861 669,-253.986"/>
<polygon fill="midnightblue" stroke="midnightblue" points="672.5,-253.751 669,-243.751 665.5,-253.751 672.5,-253.751"/>
</g>
<!-- Node26 -->
<g id="node26" class="node"><title>Node26</title>
<g id="a_node26"><a xlink:href="buffer_8h.html" target="_top" xlink:title=" ">
<polygon fill="white" stroke="black" points="844,-168.5 844,-187.5 892,-187.5 892,-168.5 844,-168.5"/>
<text text-anchor="middle" x="868" y="-175.5" font-family="Helvetica,sans-Serif" font-size="10.00">buffer.h</text>
</a>
</g>
</g>
<!-- Node20&#45;&gt;Node26 -->
<g id="edge41" class="edge"><title>Node20&#45;&gt;Node26</title>
<path fill="none" stroke="midnightblue" d="M684.615,-280.368C719.127,-261.292 802.109,-215.422 843.567,-192.505"/>
<polygon fill="midnightblue" stroke="midnightblue" points="845.399,-195.492 852.457,-187.591 842.012,-189.366 845.399,-195.492"/>
</g>
<!-- Node28 -->
<g id="node28" class="node"><title>Node28</title>
<g id="a_node28"><a xlink:href="exception_8h.html" target="_top" xlink:title=" ">
<polygon fill="white" stroke="black" points="704.5,-168.5 704.5,-187.5 771.5,-187.5 771.5,-168.5 704.5,-168.5"/>
<text text-anchor="middle" x="738" y="-175.5" font-family="Helvetica,sans-Serif" font-size="10.00">exception.h</text>
</a>
</g>
</g>
<!-- Node20&#45;&gt;Node28 -->
<g id="edge43" class="edge"><title>Node20&#45;&gt;Node28</title>
<path fill="none" stroke="midnightblue" d="M677.591,-280.233C685.817,-271.534 698.239,-257.574 707,-244 716.629,-229.08 725.116,-210.708 730.764,-197.306"/>
<polygon fill="midnightblue" stroke="midnightblue" points="734.112,-198.366 734.652,-187.785 727.631,-195.72 734.112,-198.366"/>
</g>
<!-- Node31 -->
<g id="node31" class="node"><title>Node31</title>
<g id="a_node31"><a xlink:href="useful__base__types_8h.html" target="_top" xlink:title=" ">
<polygon fill="white" stroke="black" points="0,-56.5 0,-75.5 106,-75.5 106,-56.5 0,-56.5"/>
<text text-anchor="middle" x="53" y="-63.5" font-family="Helvetica,sans-Serif" font-size="10.00">useful_base_types.h</text>
</a>
</g>
</g>
<!-- Node20&#45;&gt;Node31 -->
<g id="edge44" class="edge"><title>Node20&#45;&gt;Node31</title>
<path fill="none" stroke="midnightblue" d="M641.793,-287.394C539.461,-280.89 178.878,-253.644 88,-188 55.8917,-164.807 51.6975,-113.863 51.9907,-86.0459"/>
<polygon fill="midnightblue" stroke="midnightblue" points="55.5004,-85.7958 52.3228,-75.6888 48.504,-85.5714 55.5004,-85.7958"/>
</g>
<!-- Node23&#45;&gt;Node3 -->
<g id="edge40" class="edge"><title>Node23&#45;&gt;Node3</title>
<path fill="none" stroke="midnightblue" d="M649.035,-224.444C628.391,-215.596 595.937,-201.687 572.368,-191.586"/>
<polygon fill="midnightblue" stroke="midnightblue" points="573.442,-188.239 562.872,-187.516 570.684,-194.673 573.442,-188.239"/>
</g>
<!-- Node24 -->
<g id="node24" class="node"><title>Node24</title>
<g id="a_node24"><a xlink:title=" ">
<polygon fill="white" stroke="#bfbfbf" points="645.5,-168.5 645.5,-187.5 686.5,-187.5 686.5,-168.5 645.5,-168.5"/>
<text text-anchor="middle" x="666" y="-175.5" font-family="Helvetica,sans-Serif" font-size="10.00">string</text>
</a>
</g>
</g>
<!-- Node23&#45;&gt;Node24 -->
<g id="edge23" class="edge"><title>Node23&#45;&gt;Node24</title>
<path fill="none" stroke="midnightblue" d="M668.505,-224.083C668.111,-217.006 667.548,-206.861 667.055,-197.986"/>
<polygon fill="midnightblue" stroke="midnightblue" points="670.536,-197.542 666.486,-187.751 663.546,-197.93 670.536,-197.542"/>
</g>
<!-- Node25 -->
<g id="node25" class="node"><title>Node25</title>
<g id="a_node25"><a xlink:title=" ">
<polygon fill="white" stroke="#bfbfbf" points="583,-168.5 583,-187.5 627,-187.5 627,-168.5 583,-168.5"/>
<text text-anchor="middle" x="605" y="-175.5" font-family="Helvetica,sans-Serif" font-size="10.00">variant</text>
</a>
</g>
</g>
<!-- Node23&#45;&gt;Node25 -->
<g id="edge24" class="edge"><title>Node23&#45;&gt;Node25</title>
<path fill="none" stroke="midnightblue" d="M658.717,-224.324C649.164,-216.263 634.72,-204.077 623.216,-194.369"/>
<polygon fill="midnightblue" stroke="midnightblue" points="625.37,-191.608 615.47,-187.834 620.856,-196.958 625.37,-191.608"/>
</g>
<!-- Node23&#45;&gt;Node26 -->
<g id="edge25" class="edge"><title>Node23&#45;&gt;Node26</title>
<path fill="none" stroke="midnightblue" d="M698.792,-224.916C734.967,-215.099 795.845,-198.58 833.872,-188.261"/>
<polygon fill="midnightblue" stroke="midnightblue" points="835.217,-191.522 843.952,-185.526 833.384,-184.767 835.217,-191.522"/>
</g>
<!-- Node23&#45;&gt;Node28 -->
<g id="edge31" class="edge"><title>Node23&#45;&gt;Node28</title>
<path fill="none" stroke="midnightblue" d="M680.086,-224.324C690.486,-216.185 706.261,-203.839 718.722,-194.087"/>
<polygon fill="midnightblue" stroke="midnightblue" points="720.994,-196.753 726.712,-187.834 716.68,-191.241 720.994,-196.753"/>
</g>
<!-- Node29 -->
<g id="node29" class="node"><title>Node29</title>
<g id="a_node29"><a xlink:href="sys__socket__ops_8h.html" target="_top" xlink:title=" ">
<polygon fill="white" stroke="black" points="97,-168.5 97,-187.5 193,-187.5 193,-168.5 97,-168.5"/>
<text text-anchor="middle" x="145" y="-175.5" font-family="Helvetica,sans-Serif" font-size="10.00">sys_socket_ops.h</text>
</a>
</g>
</g>
<!-- Node23&#45;&gt;Node29 -->
<g id="edge34" class="edge"><title>Node23&#45;&gt;Node29</title>
<path fill="none" stroke="midnightblue" d="M639.395,-229.427C625.084,-227.729 607.655,-225.703 592,-224 452.666,-208.845 288.696,-192.793 203.328,-184.571"/>
<polygon fill="midnightblue" stroke="midnightblue" points="203.603,-181.082 193.314,-183.608 202.932,-188.049 203.603,-181.082"/>
</g>
<!-- Node26&#45;&gt;Node8 -->
<g id="edge29" class="edge"><title>Node26&#45;&gt;Node8</title>
<path fill="none" stroke="midnightblue" d="M856.432,-168.324C845.58,-160.185 829.119,-147.839 816.117,-138.087"/>
<polygon fill="midnightblue" stroke="midnightblue" points="817.879,-135.034 807.779,-131.834 813.679,-140.634 817.879,-135.034"/>
</g>
<!-- Node26&#45;&gt;Node10 -->
<g id="edge30" class="edge"><title>Node26&#45;&gt;Node10</title>
<path fill="none" stroke="midnightblue" d="M878.177,-168.232C892.362,-154.967 914.765,-129.494 900,-112 872.033,-78.8631 744.673,-70.1247 677.602,-67.8223"/>
<polygon fill="midnightblue" stroke="midnightblue" points="677.484,-64.317 667.38,-67.5053 677.266,-71.3136 677.484,-64.317"/>
</g>
<!-- Node26&#45;&gt;Node19 -->
<g id="edge27" class="edge"><title>Node26&#45;&gt;Node19</title>
<path fill="none" stroke="midnightblue" d="M881.373,-168.298C892.641,-160.245 908.28,-147.237 917,-132 935.703,-99.3191 940.983,-54.6795 942.454,-29.7687"/>
<polygon fill="midnightblue" stroke="midnightblue" points="945.961,-29.6879 942.904,-19.5436 938.967,-29.38 945.961,-29.6879"/>
</g>
<!-- Node26&#45;&gt;Node21 -->
<g id="edge26" class="edge"><title>Node26&#45;&gt;Node21</title>
<path fill="none" stroke="midnightblue" d="M890.5,-168.444C914.077,-159.478 951.322,-145.314 977.964,-135.183"/>
<polygon fill="midnightblue" stroke="midnightblue" points="979.502,-138.342 987.605,-131.516 977.014,-131.8 979.502,-138.342"/>
</g>
<!-- Node27 -->
<g id="node27" class="node"><title>Node27</title>
<g id="a_node27"><a xlink:title=" ">
<polygon fill="white" stroke="#bfbfbf" points="845,-112.5 845,-131.5 891,-131.5 891,-112.5 845,-112.5"/>
<text text-anchor="middle" x="868" y="-119.5" font-family="Helvetica,sans-Serif" font-size="10.00">cstdint</text>
</a>
</g>
</g>
<!-- Node26&#45;&gt;Node27 -->
<g id="edge28" class="edge"><title>Node26&#45;&gt;Node27</title>
<path fill="none" stroke="midnightblue" d="M868,-168.083C868,-161.006 868,-150.861 868,-141.986"/>
<polygon fill="midnightblue" stroke="midnightblue" points="871.5,-141.751 868,-131.751 864.5,-141.751 871.5,-141.751"/>
</g>
<!-- Node28&#45;&gt;Node7 -->
<g id="edge32" class="edge"><title>Node28&#45;&gt;Node7</title>
<path fill="none" stroke="midnightblue" d="M727.396,-168.324C717.544,-160.263 702.649,-148.077 690.785,-138.369"/>
<polygon fill="midnightblue" stroke="midnightblue" points="692.753,-135.457 682.797,-131.834 688.32,-140.875 692.753,-135.457"/>
</g>
<!-- Node28&#45;&gt;Node10 -->
<g id="edge33" class="edge"><title>Node28&#45;&gt;Node10</title>
<path fill="none" stroke="midnightblue" d="M737.4,-168.464C736.051,-155.053 731.723,-128.842 718,-112 706.193,-97.5087 688.425,-86.9512 672.444,-79.7197"/>
<polygon fill="midnightblue" stroke="midnightblue" points="673.367,-76.3102 662.793,-75.6414 670.642,-82.7581 673.367,-76.3102"/>
</g>
<!-- Node29&#45;&gt;Node10 -->
<g id="edge35" class="edge"><title>Node29&#45;&gt;Node10</title>
<path fill="none" stroke="midnightblue" d="M152.364,-168.423C165.363,-153.944 193.956,-124.968 225,-112 291.101,-84.3886 503.972,-72.4778 594.565,-68.5697"/>
<polygon fill="midnightblue" stroke="midnightblue" points="594.889,-72.0592 604.734,-68.1426 594.595,-65.0654 594.889,-72.0592"/>
</g>
<!-- Node30 -->
<g id="node30" class="node"><title>Node30</title>
<g id="a_node30"><a xlink:href="sys__error__code_8h.html" target="_top" xlink:title=" ">
<polygon fill="white" stroke="black" points="81,-112.5 81,-131.5 173,-131.5 173,-112.5 81,-112.5"/>
<text text-anchor="middle" x="127" y="-119.5" font-family="Helvetica,sans-Serif" font-size="10.00">sys_error_code.h</text>
</a>
</g>
</g>
<!-- Node29&#45;&gt;Node30 -->
<g id="edge36" class="edge"><title>Node29&#45;&gt;Node30</title>
<path fill="none" stroke="midnightblue" d="M142.028,-168.083C139.616,-160.849 136.136,-150.409 133.132,-141.397"/>
<polygon fill="midnightblue" stroke="midnightblue" points="136.4,-140.131 129.917,-131.751 129.759,-142.345 136.4,-140.131"/>
</g>
<!-- Node29&#45;&gt;Node31 -->
<g id="edge39" class="edge"><title>Node29&#45;&gt;Node31</title>
<path fill="none" stroke="midnightblue" d="M122.772,-168.487C106.471,-161.156 84.9981,-149.049 72,-132 61.7634,-118.573 57.0326,-99.7554 54.8517,-85.8206"/>
<polygon fill="midnightblue" stroke="midnightblue" points="58.3226,-85.3687 53.593,-75.8882 51.3781,-86.2489 58.3226,-85.3687"/>
</g>
<!-- Node30&#45;&gt;Node10 -->
<g id="edge37" class="edge"><title>Node30&#45;&gt;Node10</title>
<path fill="none" stroke="midnightblue" d="M173.156,-113.844C177.828,-113.189 182.506,-112.562 187,-112 336.909,-93.2562 515.75,-77.2164 594.871,-70.4429"/>
<polygon fill="midnightblue" stroke="midnightblue" points="595.246,-73.9237 604.913,-69.5872 594.652,-66.9489 595.246,-73.9237"/>
</g>
<!-- Node30&#45;&gt;Node31 -->
<g id="edge38" class="edge"><title>Node30&#45;&gt;Node31</title>
<path fill="none" stroke="midnightblue" d="M115.111,-112.324C103.85,-104.107 86.7134,-91.6017 73.2909,-81.8069"/>
<polygon fill="midnightblue" stroke="midnightblue" points="75.2468,-78.9014 65.1057,-75.8339 71.1205,-84.5559 75.2468,-78.9014"/>
</g>
</g>
</svg>
