<?xml version="1.0" encoding="UTF-8" standalone="no"?>
<!DOCTYPE svg PUBLIC "-//W3C//DTD SVG 1.1//EN"
 "http://www.w3.org/Graphics/SVG/1.1/DTD/svg11.dtd">
<!-- Generated by graphviz version 2.38.0 (20140413.2041)
 -->
<!-- Title: C:/projects/ndt/sources/include/ndt/udp.h Pages: 1 -->
<!--zoomable 375 -->
<svg id="main" version="1.1" xmlns="http://www.w3.org/2000/svg" xmlns:xlink="http://www.w3.org/1999/xlink" xml:space="preserve" onload="init(evt)">
<style type="text/css"><![CDATA[
.edge:hover path { stroke: red; }
.edge:hover polygon { stroke: red; fill: red; }
]]></style>
<script type="text/javascript"><![CDATA[
var edges = document.getElementsByTagName('g');
if (edges && edges.length) {
  for (var i=0;i<edges.length;i++) {
    if (edges[i].id.substr(0,4)=='edge') {
      edges[i].setAttribute('class','edge');
    }
  }
}
]]></script>
        <defs>
                <circle id="rim" cx="0" cy="0" r="7"/>
                <circle id="rim2" cx="0" cy="0" r="3.5"/>
                <g id="zoomPlus">
                        <use xlink:href="#rim" fill="#404040">
                                <set attributeName="fill" to="#808080" begin="zoomplus.mouseover" end="zoomplus.mouseout"/>
                        </use>
                        <path d="M-4,0h8M0,-4v8" fill="none" stroke="white" stroke-width="1.5" pointer-events="none"/>
                </g>
                <g id="zoomMin">
                        <use xlink:href="#rim" fill="#404040">
                                <set attributeName="fill" to="#808080" begin="zoomminus.mouseover" end="zoomminus.mouseout"/>
                        </use>
                        <path d="M-4,0h8" fill="none" stroke="white" stroke-width="1.5" pointer-events="none"/>
                </g>
                <g id="dirArrow">
                        <path fill="none" stroke="white" stroke-width="1.5" d="M0,-3.0v7 M-2.5,-0.5L0,-3.0L2.5,-0.5"/>
                </g>
               <g id="resetDef">
                       <use xlink:href="#rim2" fill="#404040">
                               <set attributeName="fill" to="#808080" begin="reset.mouseover" end="reset.mouseout"/>
                       </use>
               </g>
        </defs>

<script type="text/javascript">
var viewWidth = 1043;
var viewHeight = 375;
var sectionId = 'dynsection-0';
</script>
<script xlink:href="svgpan.js"/>
<svg id="graph" class="graph">
<g id="viewport">
<title>C:/projects/ndt/sources/include/ndt/udp.h</title>
<polygon fill="white" stroke="none" points="-4,4 -4,-371 1038.5,-371 1038.5,4 -4,4"/>
<!-- Node1 -->
<g id="node1" class="node"><title>Node1</title>
<g id="a_node1"><a xlink:title=" ">
<polygon fill="#bfbfbf" stroke="black" points="524,-336.5 524,-366.5 642,-366.5 642,-336.5 524,-336.5"/>
<text text-anchor="start" x="532" y="-354.5" font-family="Helvetica,sans-Serif" font-size="10.00">C:/projects/ndt/sources</text>
<text text-anchor="middle" x="583" y="-343.5" font-family="Helvetica,sans-Serif" font-size="10.00">/include/ndt/udp.h</text>
</a>
</g>
</g>
<!-- Node2 -->
<g id="node2" class="node"><title>Node2</title>
<g id="a_node2"><a xlink:href="utils_8h.html" target="_top" xlink:title=" ">
<polygon fill="white" stroke="black" points="551.5,-168.5 551.5,-187.5 594.5,-187.5 594.5,-168.5 551.5,-168.5"/>
<text text-anchor="middle" x="573" y="-175.5" font-family="Helvetica,sans-Serif" font-size="10.00">utils.h</text>
</a>
</g>
</g>
<!-- Node1&#45;&gt;Node2 -->
<g id="edge1" class="edge"><title>Node1&#45;&gt;Node2</title>
<path fill="none" stroke="midnightblue" d="M586.193,-336.44C588.313,-326.358 590.902,-312.419 592,-300 595.233,-263.428 585.463,-221.148 578.758,-197.495"/>
<polygon fill="midnightblue" stroke="midnightblue" points="582.068,-196.346 575.867,-187.756 575.358,-198.338 582.068,-196.346"/>
</g>
<!-- Node19 -->
<g id="node19" class="node"><title>Node19</title>
<g id="a_node19"><a xlink:href="socket_8h.html" target="_top" xlink:title=" ">
<polygon fill="white" stroke="black" points="529,-280.5 529,-299.5 583,-299.5 583,-280.5 529,-280.5"/>
<text text-anchor="middle" x="556" y="-287.5" font-family="Helvetica,sans-Serif" font-size="10.00">socket.h</text>
</a>
</g>
</g>
<!-- Node1&#45;&gt;Node19 -->
<g id="edge18" class="edge"><title>Node1&#45;&gt;Node19</title>
<path fill="none" stroke="midnightblue" d="M576.601,-336.399C572.88,-328.199 568.153,-317.781 564.165,-308.994"/>
<polygon fill="midnightblue" stroke="midnightblue" points="567.248,-307.318 559.929,-299.658 560.874,-310.21 567.248,-307.318"/>
</g>
<!-- Node3 -->
<g id="node3" class="node"><title>Node3</title>
<g id="a_node3"><a xlink:title=" ">
<polygon fill="white" stroke="#bfbfbf" points="461,-112.5 461,-131.5 521,-131.5 521,-112.5 461,-112.5"/>
<text text-anchor="middle" x="491" y="-119.5" font-family="Helvetica,sans-Serif" font-size="10.00">fmt/core.h</text>
</a>
</g>
</g>
<!-- Node2&#45;&gt;Node3 -->
<g id="edge2" class="edge"><title>Node2&#45;&gt;Node3</title>
<path fill="none" stroke="midnightblue" d="M559.825,-168.324C547.153,-159.979 527.767,-147.212 512.794,-137.352"/>
<polygon fill="midnightblue" stroke="midnightblue" points="514.419,-134.231 504.142,-131.655 510.569,-140.078 514.419,-134.231"/>
</g>
<!-- Node4 -->
<g id="node4" class="node"><title>Node4</title>
<g id="a_node4"><a xlink:title=" ">
<polygon fill="white" stroke="#bfbfbf" points="539,-112.5 539,-131.5 607,-131.5 607,-112.5 539,-112.5"/>
<text text-anchor="middle" x="573" y="-119.5" font-family="Helvetica,sans-Serif" font-size="10.00">fmt/format.h</text>
</a>
</g>
</g>
<!-- Node2&#45;&gt;Node4 -->
<g id="edge3" class="edge"><title>Node2&#45;&gt;Node4</title>
<path fill="none" stroke="midnightblue" d="M573,-168.083C573,-161.006 573,-150.861 573,-141.986"/>
<polygon fill="midnightblue" stroke="midnightblue" points="576.5,-141.751 573,-131.751 569.5,-141.751 576.5,-141.751"/>
</g>
<!-- Node5 -->
<g id="node5" class="node"><title>Node5</title>
<g id="a_node5"><a xlink:title=" ">
<polygon fill="white" stroke="#bfbfbf" points="625,-112.5 625,-131.5 671,-131.5 671,-112.5 625,-112.5"/>
<text text-anchor="middle" x="648" y="-119.5" font-family="Helvetica,sans-Serif" font-size="10.00">cstring</text>
</a>
</g>
</g>
<!-- Node2&#45;&gt;Node5 -->
<g id="edge4" class="edge"><title>Node2&#45;&gt;Node5</title>
<path fill="none" stroke="midnightblue" d="M585.05,-168.324C596.463,-160.107 613.831,-147.602 627.435,-137.807"/>
<polygon fill="midnightblue" stroke="midnightblue" points="629.66,-140.517 635.731,-131.834 625.57,-134.837 629.66,-140.517"/>
</g>
<!-- Node6 -->
<g id="node6" class="node"><title>Node6</title>
<g id="a_node6"><a xlink:title=" ">
<polygon fill="white" stroke="#bfbfbf" points="267,-112.5 267,-131.5 341,-131.5 341,-112.5 267,-112.5"/>
<text text-anchor="middle" x="304" y="-119.5" font-family="Helvetica,sans-Serif" font-size="10.00">system_error</text>
</a>
</g>
</g>
<!-- Node2&#45;&gt;Node6 -->
<g id="edge5" class="edge"><title>Node2&#45;&gt;Node6</title>
<path fill="none" stroke="midnightblue" d="M551.441,-172.672C508.278,-164.007 410.348,-144.349 351.453,-132.526"/>
<polygon fill="midnightblue" stroke="midnightblue" points="351.781,-129.022 341.287,-130.485 350.403,-135.885 351.781,-129.022"/>
</g>
<!-- Node7 -->
<g id="node7" class="node"><title>Node7</title>
<g id="a_node7"><a xlink:title=" ">
<polygon fill="white" stroke="#bfbfbf" points="727,-112.5 727,-131.5 789,-131.5 789,-112.5 727,-112.5"/>
<text text-anchor="middle" x="758" y="-119.5" font-family="Helvetica,sans-Serif" font-size="10.00">type_traits</text>
</a>
</g>
</g>
<!-- Node2&#45;&gt;Node7 -->
<g id="edge6" class="edge"><title>Node2&#45;&gt;Node7</title>
<path fill="none" stroke="midnightblue" d="M594.584,-170.7C625.032,-161.812 681.102,-145.446 718.967,-134.393"/>
<polygon fill="midnightblue" stroke="midnightblue" points="720.032,-137.729 728.651,-131.567 718.071,-131.009 720.032,-137.729"/>
</g>
<!-- Node8 -->
<g id="node8" class="node"><title>Node8</title>
<g id="a_node8"><a xlink:title=" ">
<polygon fill="white" stroke="#bfbfbf" points="359.5,-112.5 359.5,-131.5 442.5,-131.5 442.5,-112.5 359.5,-112.5"/>
<text text-anchor="middle" x="401" y="-119.5" font-family="Helvetica,sans-Serif" font-size="10.00">unordered_map</text>
</a>
</g>
</g>
<!-- Node2&#45;&gt;Node8 -->
<g id="edge7" class="edge"><title>Node2&#45;&gt;Node8</title>
<path fill="none" stroke="midnightblue" d="M551.216,-170.161C522.749,-161.224 472.473,-145.439 437.984,-134.611"/>
<polygon fill="midnightblue" stroke="midnightblue" points="438.858,-131.217 428.269,-131.561 436.761,-137.896 438.858,-131.217"/>
</g>
<!-- Node9 -->
<g id="node9" class="node"><title>Node9</title>
<g id="a_node9"><a xlink:href="common_8h.html" target="_top" xlink:title="Header with typedefs to make type designation platform independent.">
<polygon fill="white" stroke="black" points="659,-56.5 659,-75.5 721,-75.5 721,-56.5 659,-56.5"/>
<text text-anchor="middle" x="690" y="-63.5" font-family="Helvetica,sans-Serif" font-size="10.00">common.h</text>
</a>
</g>
</g>
<!-- Node2&#45;&gt;Node9 -->
<g id="edge8" class="edge"><title>Node2&#45;&gt;Node9</title>
<path fill="none" stroke="midnightblue" d="M594.854,-174.165C619.599,-169.73 659.171,-158.69 680,-132 690.198,-118.932 692.045,-99.7794 691.734,-85.6475"/>
<polygon fill="midnightblue" stroke="midnightblue" points="695.224,-85.3781 691.139,-75.6025 688.236,-85.7918 695.224,-85.3781"/>
</g>
<!-- Node10 -->
<g id="node10" class="node"><title>Node10</title>
<g id="a_node10"><a xlink:title=" ">
<polygon fill="white" stroke="#bfbfbf" points="659,-0.5 659,-19.5 721,-19.5 721,-0.5 659,-0.5"/>
<text text-anchor="middle" x="690" y="-7.5" font-family="Helvetica,sans-Serif" font-size="10.00">arpa/inet.h</text>
</a>
</g>
</g>
<!-- Node9&#45;&gt;Node10 -->
<g id="edge9" class="edge"><title>Node9&#45;&gt;Node10</title>
<path fill="none" stroke="midnightblue" d="M690,-56.083C690,-49.0059 690,-38.8611 690,-29.9865"/>
<polygon fill="midnightblue" stroke="midnightblue" points="693.5,-29.751 690,-19.7511 686.5,-29.7511 693.5,-29.751"/>
</g>
<!-- Node11 -->
<g id="node11" class="node"><title>Node11</title>
<g id="a_node11"><a xlink:title=" ">
<polygon fill="white" stroke="#bfbfbf" points="739.5,-0.5 739.5,-19.5 786.5,-19.5 786.5,-0.5 739.5,-0.5"/>
<text text-anchor="middle" x="763" y="-7.5" font-family="Helvetica,sans-Serif" font-size="10.00">errno.h</text>
</a>
</g>
</g>
<!-- Node9&#45;&gt;Node11 -->
<g id="edge10" class="edge"><title>Node9&#45;&gt;Node11</title>
<path fill="none" stroke="midnightblue" d="M701.729,-56.324C712.837,-48.1066 729.742,-35.6017 742.983,-25.8069"/>
<polygon fill="midnightblue" stroke="midnightblue" points="745.1,-28.5948 751.058,-19.8339 740.937,-22.9671 745.1,-28.5948"/>
</g>
<!-- Node12 -->
<g id="node12" class="node"><title>Node12</title>
<g id="a_node12"><a xlink:title=" ">
<polygon fill="white" stroke="#bfbfbf" points="804.5,-0.5 804.5,-19.5 847.5,-19.5 847.5,-0.5 804.5,-0.5"/>
<text text-anchor="middle" x="826" y="-7.5" font-family="Helvetica,sans-Serif" font-size="10.00">fcntl.h</text>
</a>
</g>
</g>
<!-- Node9&#45;&gt;Node12 -->
<g id="edge11" class="edge"><title>Node9&#45;&gt;Node12</title>
<path fill="none" stroke="midnightblue" d="M711.55,-56.4435C734.031,-47.5171 769.488,-33.4387 794.98,-23.3168"/>
<polygon fill="midnightblue" stroke="midnightblue" points="796.549,-26.4598 804.551,-19.5164 793.965,-19.9539 796.549,-26.4598"/>
</g>
<!-- Node13 -->
<g id="node13" class="node"><title>Node13</title>
<g id="a_node13"><a xlink:title=" ">
<polygon fill="white" stroke="#bfbfbf" points="865.5,-0.5 865.5,-19.5 914.5,-19.5 914.5,-0.5 865.5,-0.5"/>
<text text-anchor="middle" x="890" y="-7.5" font-family="Helvetica,sans-Serif" font-size="10.00">netdb.h</text>
</a>
</g>
</g>
<!-- Node9&#45;&gt;Node13 -->
<g id="edge12" class="edge"><title>Node9&#45;&gt;Node13</title>
<path fill="none" stroke="midnightblue" d="M721.25,-56.5625C757.603,-46.7473 817.449,-30.5887 855.239,-20.3854"/>
<polygon fill="midnightblue" stroke="midnightblue" points="856.534,-23.6614 865.275,-17.6756 854.709,-16.9033 856.534,-23.6614"/>
</g>
<!-- Node14 -->
<g id="node14" class="node"><title>Node14</title>
<g id="a_node14"><a xlink:title=" ">
<polygon fill="white" stroke="#bfbfbf" points="328.5,-0.5 328.5,-19.5 393.5,-19.5 393.5,-0.5 328.5,-0.5"/>
<text text-anchor="middle" x="361" y="-7.5" font-family="Helvetica,sans-Serif" font-size="10.00">netinet/in.h</text>
</a>
</g>
</g>
<!-- Node9&#45;&gt;Node14 -->
<g id="edge13" class="edge"><title>Node9&#45;&gt;Node14</title>
<path fill="none" stroke="midnightblue" d="M658.782,-60.7597C607.57,-53.6659 502.304,-38.5086 403.763,-20.2451"/>
<polygon fill="midnightblue" stroke="midnightblue" points="404.11,-16.7493 393.637,-18.3526 402.824,-23.6301 404.11,-16.7493"/>
</g>
<!-- Node15 -->
<g id="node15" class="node"><title>Node15</title>
<g id="a_node15"><a xlink:title=" ">
<polygon fill="white" stroke="#bfbfbf" points="411.5,-0.5 411.5,-19.5 484.5,-19.5 484.5,-0.5 411.5,-0.5"/>
<text text-anchor="middle" x="448" y="-7.5" font-family="Helvetica,sans-Serif" font-size="10.00">sys/socket.h</text>
</a>
</g>
</g>
<!-- Node9&#45;&gt;Node15 -->
<g id="edge14" class="edge"><title>Node9&#45;&gt;Node15</title>
<path fill="none" stroke="midnightblue" d="M658.858,-58.051C617.145,-48.7432 542.793,-32.1521 494.451,-21.3651"/>
<polygon fill="midnightblue" stroke="midnightblue" points="495.074,-17.918 484.551,-19.1561 493.549,-24.75 495.074,-17.918"/>
</g>
<!-- Node16 -->
<g id="node16" class="node"><title>Node16</title>
<g id="a_node16"><a xlink:title=" ">
<polygon fill="white" stroke="#bfbfbf" points="503,-0.5 503,-19.5 571,-19.5 571,-0.5 503,-0.5"/>
<text text-anchor="middle" x="537" y="-7.5" font-family="Helvetica,sans-Serif" font-size="10.00">sys/types.h</text>
</a>
</g>
</g>
<!-- Node9&#45;&gt;Node16 -->
<g id="edge15" class="edge"><title>Node9&#45;&gt;Node16</title>
<path fill="none" stroke="midnightblue" d="M665.757,-56.4435C640.129,-47.3986 599.515,-33.064 570.762,-22.9158"/>
<polygon fill="midnightblue" stroke="midnightblue" points="571.725,-19.5442 561.13,-19.5164 569.395,-26.1452 571.725,-19.5442"/>
</g>
<!-- Node17 -->
<g id="node17" class="node"><title>Node17</title>
<g id="a_node17"><a xlink:title=" ">
<polygon fill="white" stroke="#bfbfbf" points="589.5,-0.5 589.5,-19.5 640.5,-19.5 640.5,-0.5 589.5,-0.5"/>
<text text-anchor="middle" x="615" y="-7.5" font-family="Helvetica,sans-Serif" font-size="10.00">unistd.h</text>
</a>
</g>
</g>
<!-- Node9&#45;&gt;Node17 -->
<g id="edge16" class="edge"><title>Node9&#45;&gt;Node17</title>
<path fill="none" stroke="midnightblue" d="M677.95,-56.324C666.537,-48.1066 649.169,-35.6017 635.565,-25.8069"/>
<polygon fill="midnightblue" stroke="midnightblue" points="637.43,-22.8366 627.269,-19.8339 633.34,-28.5174 637.43,-22.8366"/>
</g>
<!-- Node18 -->
<g id="node18" class="node"><title>Node18</title>
<g id="a_node18"><a xlink:title=" ">
<polygon fill="white" stroke="#bfbfbf" points="933,-0.5 933,-19.5 981,-19.5 981,-0.5 933,-0.5"/>
<text text-anchor="middle" x="957" y="-7.5" font-family="Helvetica,sans-Serif" font-size="10.00">cstddef</text>
</a>
</g>
</g>
<!-- Node9&#45;&gt;Node18 -->
<g id="edge17" class="edge"><title>Node9&#45;&gt;Node18</title>
<path fill="none" stroke="midnightblue" d="M721.046,-59.6969C765.838,-51.8888 851.109,-36.4372 923,-20 923.1,-19.977 923.201,-19.954 923.302,-19.9308"/>
<polygon fill="midnightblue" stroke="midnightblue" points="924.015,-23.3595 932.904,-17.5948 922.36,-16.5579 924.015,-23.3595"/>
</g>
<!-- Node19&#45;&gt;Node2 -->
<g id="edge44" class="edge"><title>Node19&#45;&gt;Node2</title>
<path fill="none" stroke="midnightblue" d="M557.334,-280.368C560.077,-262.617 566.406,-221.666 570.126,-197.597"/>
<polygon fill="midnightblue" stroke="midnightblue" points="573.604,-198.009 571.672,-187.591 566.686,-196.94 573.604,-198.009"/>
</g>
<!-- Node19&#45;&gt;Node9 -->
<g id="edge41" class="edge"><title>Node19&#45;&gt;Node9</title>
<path fill="none" stroke="midnightblue" d="M583.135,-287.934C655.601,-283.372 851.449,-259.274 900,-132 903.168,-123.695 905.588,-118.913 900,-112 879.19,-86.2578 786.225,-74.5767 731.207,-69.8352"/>
<polygon fill="midnightblue" stroke="midnightblue" points="731.325,-66.3331 721.072,-69.0029 730.752,-73.3096 731.325,-66.3331"/>
</g>
<!-- Node20 -->
<g id="node20" class="node"><title>Node20</title>
<g id="a_node20"><a xlink:title=" ">
<polygon fill="white" stroke="#bfbfbf" points="985.5,-112.5 985.5,-131.5 1034.5,-131.5 1034.5,-112.5 985.5,-112.5"/>
<text text-anchor="middle" x="1010" y="-119.5" font-family="Helvetica,sans-Serif" font-size="10.00">cassert</text>
</a>
</g>
</g>
<!-- Node19&#45;&gt;Node20 -->
<g id="edge19" class="edge"><title>Node19&#45;&gt;Node20</title>
<path fill="none" stroke="midnightblue" d="M583.012,-288.724C659.286,-287.492 874.552,-280.761 933,-244 971.517,-219.775 994.281,-168.478 1004.15,-141.103"/>
<polygon fill="midnightblue" stroke="midnightblue" points="1007.49,-142.181 1007.41,-131.586 1000.86,-139.914 1007.49,-142.181"/>
</g>
<!-- Node21 -->
<g id="node21" class="node"><title>Node21</title>
<g id="a_node21"><a xlink:title=" ">
<polygon fill="white" stroke="#bfbfbf" points="487,-224.5 487,-243.5 545,-243.5 545,-224.5 487,-224.5"/>
<text text-anchor="middle" x="516" y="-231.5" font-family="Helvetica,sans-Serif" font-size="10.00">functional</text>
</a>
</g>
</g>
<!-- Node19&#45;&gt;Node21 -->
<g id="edge20" class="edge"><title>Node19&#45;&gt;Node21</title>
<path fill="none" stroke="midnightblue" d="M549.395,-280.083C543.745,-272.455 535.455,-261.264 528.549,-251.941"/>
<polygon fill="midnightblue" stroke="midnightblue" points="531.247,-249.703 522.482,-243.751 525.622,-253.87 531.247,-249.703"/>
</g>
<!-- Node22 -->
<g id="node22" class="node"><title>Node22</title>
<g id="a_node22"><a xlink:href="address_8h.html" target="_top" xlink:title=" ">
<polygon fill="white" stroke="black" points="371.5,-224.5 371.5,-243.5 430.5,-243.5 430.5,-224.5 371.5,-224.5"/>
<text text-anchor="middle" x="401" y="-231.5" font-family="Helvetica,sans-Serif" font-size="10.00">address.h</text>
</a>
</g>
</g>
<!-- Node19&#45;&gt;Node22 -->
<g id="edge21" class="edge"><title>Node19&#45;&gt;Node22</title>
<path fill="none" stroke="midnightblue" d="M531.44,-280.444C505.477,-271.399 464.332,-257.064 435.203,-246.916"/>
<polygon fill="midnightblue" stroke="midnightblue" points="436.04,-243.501 425.445,-243.516 433.737,-250.112 436.04,-243.501"/>
</g>
<!-- Node25 -->
<g id="node25" class="node"><title>Node25</title>
<g id="a_node25"><a xlink:href="buffer_8h.html" target="_top" xlink:title=" ">
<polygon fill="white" stroke="black" points="793,-168.5 793,-187.5 841,-187.5 841,-168.5 793,-168.5"/>
<text text-anchor="middle" x="817" y="-175.5" font-family="Helvetica,sans-Serif" font-size="10.00">buffer.h</text>
</a>
</g>
</g>
<!-- Node19&#45;&gt;Node25 -->
<g id="edge40" class="edge"><title>Node19&#45;&gt;Node25</title>
<path fill="none" stroke="midnightblue" d="M576.48,-280.368C622.411,-261.01 733.801,-214.065 787.323,-191.507"/>
<polygon fill="midnightblue" stroke="midnightblue" points="788.759,-194.7 796.615,-187.591 786.041,-188.25 788.759,-194.7"/>
</g>
<!-- Node27 -->
<g id="node27" class="node"><title>Node27</title>
<g id="a_node27"><a xlink:href="exception_8h.html" target="_top" xlink:title=" ">
<polygon fill="white" stroke="black" points="396.5,-168.5 396.5,-187.5 463.5,-187.5 463.5,-168.5 396.5,-168.5"/>
<text text-anchor="middle" x="430" y="-175.5" font-family="Helvetica,sans-Serif" font-size="10.00">exception.h</text>
</a>
</g>
</g>
<!-- Node19&#45;&gt;Node27 -->
<g id="edge42" class="edge"><title>Node19&#45;&gt;Node27</title>
<path fill="none" stroke="midnightblue" d="M536.285,-280.435C519.581,-272.556 495.607,-259.725 478,-244 462.528,-230.182 448.915,-210.639 440.175,-196.596"/>
<polygon fill="midnightblue" stroke="midnightblue" points="443.093,-194.657 434.94,-187.891 437.094,-198.264 443.093,-194.657"/>
</g>
<!-- Node30 -->
<g id="node30" class="node"><title>Node30</title>
<g id="a_node30"><a xlink:href="useful__base__types_8h.html" target="_top" xlink:title=" ">
<polygon fill="white" stroke="black" points="0,-56.5 0,-75.5 106,-75.5 106,-56.5 0,-56.5"/>
<text text-anchor="middle" x="53" y="-63.5" font-family="Helvetica,sans-Serif" font-size="10.00">useful_base_types.h</text>
</a>
</g>
</g>
<!-- Node19&#45;&gt;Node30 -->
<g id="edge43" class="edge"><title>Node19&#45;&gt;Node30</title>
<path fill="none" stroke="midnightblue" d="M528.837,-288.617C455.479,-286.437 249.316,-272.655 107,-188 78.5768,-171.093 70.8117,-162.489 58,-132 51.8959,-117.474 50.9522,-99.5234 51.3614,-86.1694"/>
<polygon fill="midnightblue" stroke="midnightblue" points="54.877,-86.0081 51.9737,-75.8189 47.8892,-85.5947 54.877,-86.0081"/>
</g>
<!-- Node22&#45;&gt;Node2 -->
<g id="edge39" class="edge"><title>Node22&#45;&gt;Node2</title>
<path fill="none" stroke="midnightblue" d="M428.254,-224.444C459.025,-214.783 509.016,-199.088 541.452,-188.905"/>
<polygon fill="midnightblue" stroke="midnightblue" points="542.827,-192.141 551.32,-185.807 540.73,-185.463 542.827,-192.141"/>
</g>
<!-- Node23 -->
<g id="node23" class="node"><title>Node23</title>
<g id="a_node23"><a xlink:title=" ">
<polygon fill="white" stroke="#bfbfbf" points="274.5,-168.5 274.5,-187.5 315.5,-187.5 315.5,-168.5 274.5,-168.5"/>
<text text-anchor="middle" x="295" y="-175.5" font-family="Helvetica,sans-Serif" font-size="10.00">string</text>
</a>
</g>
</g>
<!-- Node22&#45;&gt;Node23 -->
<g id="edge22" class="edge"><title>Node22&#45;&gt;Node23</title>
<path fill="none" stroke="midnightblue" d="M383.969,-224.324C366.97,-215.664 340.624,-202.242 321.007,-192.249"/>
<polygon fill="midnightblue" stroke="midnightblue" points="322.488,-189.075 311.988,-187.655 319.31,-195.312 322.488,-189.075"/>
</g>
<!-- Node24 -->
<g id="node24" class="node"><title>Node24</title>
<g id="a_node24"><a xlink:title=" ">
<polygon fill="white" stroke="#bfbfbf" points="334,-168.5 334,-187.5 378,-187.5 378,-168.5 334,-168.5"/>
<text text-anchor="middle" x="356" y="-175.5" font-family="Helvetica,sans-Serif" font-size="10.00">variant</text>
</a>
</g>
</g>
<!-- Node22&#45;&gt;Node24 -->
<g id="edge23" class="edge"><title>Node22&#45;&gt;Node24</title>
<path fill="none" stroke="midnightblue" d="M393.569,-224.083C387.147,-216.377 377.694,-205.033 369.878,-195.653"/>
<polygon fill="midnightblue" stroke="midnightblue" points="372.383,-193.193 363.293,-187.751 367.006,-197.674 372.383,-193.193"/>
</g>
<!-- Node22&#45;&gt;Node25 -->
<g id="edge24" class="edge"><title>Node22&#45;&gt;Node25</title>
<path fill="none" stroke="midnightblue" d="M430.584,-229.16C505.64,-219.417 703.149,-193.779 782.888,-183.428"/>
<polygon fill="midnightblue" stroke="midnightblue" points="783.428,-186.887 792.895,-182.129 782.527,-179.946 783.428,-186.887"/>
</g>
<!-- Node22&#45;&gt;Node27 -->
<g id="edge30" class="edge"><title>Node22&#45;&gt;Node27</title>
<path fill="none" stroke="midnightblue" d="M405.789,-224.083C409.758,-216.691 415.525,-205.953 420.435,-196.811"/>
<polygon fill="midnightblue" stroke="midnightblue" points="423.653,-198.217 425.3,-187.751 417.486,-194.905 423.653,-198.217"/>
</g>
<!-- Node28 -->
<g id="node28" class="node"><title>Node28</title>
<g id="a_node28"><a xlink:href="sys__socket__ops_8h.html" target="_top" xlink:title=" ">
<polygon fill="white" stroke="black" points="116,-168.5 116,-187.5 212,-187.5 212,-168.5 116,-168.5"/>
<text text-anchor="middle" x="164" y="-175.5" font-family="Helvetica,sans-Serif" font-size="10.00">sys_socket_ops.h</text>
</a>
</g>
</g>
<!-- Node22&#45;&gt;Node28 -->
<g id="edge33" class="edge"><title>Node22&#45;&gt;Node28</title>
<path fill="none" stroke="midnightblue" d="M371.463,-226.27C331.264,-217.111 258.879,-200.618 211.13,-189.739"/>
<polygon fill="midnightblue" stroke="midnightblue" points="211.864,-186.316 201.336,-187.507 210.308,-193.141 211.864,-186.316"/>
</g>
<!-- Node25&#45;&gt;Node7 -->
<g id="edge28" class="edge"><title>Node25&#45;&gt;Node7</title>
<path fill="none" stroke="midnightblue" d="M807.521,-168.324C798.799,-160.341 785.657,-148.313 775.102,-138.653"/>
<polygon fill="midnightblue" stroke="midnightblue" points="777.392,-136.004 767.652,-131.834 772.666,-141.167 777.392,-136.004"/>
</g>
<!-- Node25&#45;&gt;Node9 -->
<g id="edge29" class="edge"><title>Node25&#45;&gt;Node9</title>
<path fill="none" stroke="midnightblue" d="M816.761,-168.292C815.932,-154.645 812.429,-128.117 798,-112 780.651,-92.6212 753.636,-81.3699 730.966,-74.964"/>
<polygon fill="midnightblue" stroke="midnightblue" points="731.792,-71.5624 721.233,-72.4278 730.027,-78.3363 731.792,-71.5624"/>
</g>
<!-- Node25&#45;&gt;Node18 -->
<g id="edge26" class="edge"><title>Node25&#45;&gt;Node18</title>
<path fill="none" stroke="midnightblue" d="M841.074,-168.699C859.216,-161.417 883.676,-149.275 900,-132 928.342,-102.008 944.802,-55.3504 952.219,-29.6158"/>
<polygon fill="midnightblue" stroke="midnightblue" points="955.672,-30.256 954.927,-19.6874 948.919,-28.4139 955.672,-30.256"/>
</g>
<!-- Node25&#45;&gt;Node20 -->
<g id="edge25" class="edge"><title>Node25&#45;&gt;Node20</title>
<path fill="none" stroke="midnightblue" d="M841.053,-170.27C874.911,-160.797 936.807,-143.479 975.544,-132.64"/>
<polygon fill="midnightblue" stroke="midnightblue" points="976.651,-135.965 985.338,-129.9 974.765,-129.224 976.651,-135.965"/>
</g>
<!-- Node26 -->
<g id="node26" class="node"><title>Node26</title>
<g id="a_node26"><a xlink:title=" ">
<polygon fill="white" stroke="#bfbfbf" points="845,-112.5 845,-131.5 891,-131.5 891,-112.5 845,-112.5"/>
<text text-anchor="middle" x="868" y="-119.5" font-family="Helvetica,sans-Serif" font-size="10.00">cstdint</text>
</a>
</g>
</g>
<!-- Node25&#45;&gt;Node26 -->
<g id="edge27" class="edge"><title>Node25&#45;&gt;Node26</title>
<path fill="none" stroke="midnightblue" d="M825.422,-168.083C832.848,-160.22 843.852,-148.569 852.812,-139.081"/>
<polygon fill="midnightblue" stroke="midnightblue" points="855.413,-141.424 859.735,-131.751 850.324,-136.618 855.413,-141.424"/>
</g>
<!-- Node27&#45;&gt;Node6 -->
<g id="edge31" class="edge"><title>Node27&#45;&gt;Node6</title>
<path fill="none" stroke="midnightblue" d="M410.035,-168.444C389.391,-159.596 356.937,-145.687 333.368,-135.586"/>
<polygon fill="midnightblue" stroke="midnightblue" points="334.442,-132.239 323.872,-131.516 331.684,-138.673 334.442,-132.239"/>
</g>
<!-- Node27&#45;&gt;Node9 -->
<g id="edge32" class="edge"><title>Node27&#45;&gt;Node9</title>
<path fill="none" stroke="midnightblue" d="M396.269,-169.287C347.415,-157.958 262.291,-137.558 258,-132 252.568,-124.964 252.049,-118.603 258,-112 283.898,-83.2644 545.846,-71.6828 648.781,-68.218"/>
<polygon fill="midnightblue" stroke="midnightblue" points="648.928,-71.7152 658.808,-67.8894 648.699,-64.7189 648.928,-71.7152"/>
</g>
<!-- Node28&#45;&gt;Node9 -->
<g id="edge34" class="edge"><title>Node28&#45;&gt;Node9</title>
<path fill="none" stroke="midnightblue" d="M172.049,-168.403C186.224,-153.894 217.255,-124.873 250,-112 322.067,-83.6687 553.689,-72.0472 648.723,-68.3913"/>
<polygon fill="midnightblue" stroke="midnightblue" points="648.957,-71.8851 658.819,-68.0133 648.695,-64.89 648.957,-71.8851"/>
</g>
<!-- Node29 -->
<g id="node29" class="node"><title>Node29</title>
<g id="a_node29"><a xlink:href="sys__error__code_8h.html" target="_top" xlink:title=" ">
<polygon fill="white" stroke="black" points="81,-112.5 81,-131.5 173,-131.5 173,-112.5 81,-112.5"/>
<text text-anchor="middle" x="127" y="-119.5" font-family="Helvetica,sans-Serif" font-size="10.00">sys_error_code.h</text>
</a>
</g>
</g>
<!-- Node28&#45;&gt;Node29 -->
<g id="edge35" class="edge"><title>Node28&#45;&gt;Node29</title>
<path fill="none" stroke="midnightblue" d="M157.89,-168.083C152.718,-160.534 145.154,-149.495 138.806,-140.23"/>
<polygon fill="midnightblue" stroke="midnightblue" points="141.536,-138.022 132.996,-131.751 135.761,-141.979 141.536,-138.022"/>
</g>
<!-- Node28&#45;&gt;Node30 -->
<g id="edge38" class="edge"><title>Node28&#45;&gt;Node30</title>
<path fill="none" stroke="midnightblue" d="M131.692,-168.495C111.839,-161.696 87.3515,-150.221 72,-132 61.0017,-118.946 56.3673,-99.7918 54.4158,-85.6555"/>
<polygon fill="midnightblue" stroke="midnightblue" points="57.8856,-85.1843 53.3557,-75.6067 50.9243,-85.9188 57.8856,-85.1843"/>
</g>
<!-- Node29&#45;&gt;Node9 -->
<g id="edge36" class="edge"><title>Node29&#45;&gt;Node9</title>
<path fill="none" stroke="midnightblue" d="M173.15,-113.794C177.824,-113.149 182.503,-112.538 187,-112 357.898,-91.5565 562.481,-76.0047 648.59,-69.8641"/>
<polygon fill="midnightblue" stroke="midnightblue" points="649.008,-73.3434 658.735,-69.1452 648.513,-66.3609 649.008,-73.3434"/>
</g>
<!-- Node29&#45;&gt;Node30 -->
<g id="edge37" class="edge"><title>Node29&#45;&gt;Node30</title>
<path fill="none" stroke="midnightblue" d="M115.111,-112.324C103.85,-104.107 86.7134,-91.6017 73.2909,-81.8069"/>
<polygon fill="midnightblue" stroke="midnightblue" points="75.2468,-78.9014 65.1057,-75.8339 71.1205,-84.5559 75.2468,-78.9014"/>
</g>
</g>
</svg>
        <g id="navigator" transform="translate(0 0)" fill="#404254">
                <rect fill="#f2f5e9" fill-opacity="0.5" stroke="#606060" stroke-width=".5" x="0" y="0" width="60" height="60"/>
                <use id="zoomplus" xlink:href="#zoomPlus" x="17" y="9" onmousedown="handleZoom(evt,'in')"/>
                <use id="zoomminus" xlink:href="#zoomMin" x="42" y="9" onmousedown="handleZoom(evt,'out')"/>
                <use id="reset" xlink:href="#resetDef" x="30" y="36" onmousedown="handleReset()"/>
                <g id="arrowUp" xlink:href="#dirArrow" transform="translate(30 24)" onmousedown="handlePan(0,-1)">
                  <use xlink:href="#rim" fill="#404040">
                        <set attributeName="fill" to="#808080" begin="arrowUp.mouseover" end="arrowUp.mouseout"/>
                  </use>
                  <path fill="none" stroke="white" stroke-width="1.5" d="M0,-3.0v7 M-2.5,-0.5L0,-3.0L2.5,-0.5"/>
                </g>
                <g id="arrowRight" xlink:href="#dirArrow" transform="rotate(90) translate(36 -43)" onmousedown="handlePan(1,0)">
                  <use xlink:href="#rim" fill="#404040">
                        <set attributeName="fill" to="#808080" begin="arrowRight.mouseover" end="arrowRight.mouseout"/>
                  </use>
                  <path fill="none" stroke="white" stroke-width="1.5" d="M0,-3.0v7 M-2.5,-0.5L0,-3.0L2.5,-0.5"/>
                </g>
                <g id="arrowDown" xlink:href="#dirArrow" transform="rotate(180) translate(-30 -48)" onmousedown="handlePan(0,1)">
                  <use xlink:href="#rim" fill="#404040">
                        <set attributeName="fill" to="#808080" begin="arrowDown.mouseover" end="arrowDown.mouseout"/>
                  </use>
                  <path fill="none" stroke="white" stroke-width="1.5" d="M0,-3.0v7 M-2.5,-0.5L0,-3.0L2.5,-0.5"/>
                </g>
                <g id="arrowLeft" xlink:href="#dirArrow" transform="rotate(270) translate(-36 17)" onmousedown="handlePan(-1,0)">
                  <use xlink:href="#rim" fill="#404040">
                        <set attributeName="fill" to="#808080" begin="arrowLeft.mouseover" end="arrowLeft.mouseout"/>
                  </use>
                  <path fill="none" stroke="white" stroke-width="1.5" d="M0,-3.0v7 M-2.5,-0.5L0,-3.0L2.5,-0.5"/>
                </g>
        </g>
        <svg viewBox="0 0 15 15" width="100%" height="30px" preserveAspectRatio="xMaxYMin meet">
         <g id="arrow_out" transform="scale(0.3 0.3)">
          <a xlink:href="udp_8h__incl_org.svg" target="_base">
           <rect id="button" ry="5" rx="5" y="6" x="6" height="38" width="38"
                fill="#f2f5e9" fill-opacity="0.5" stroke="#606060" stroke-width="1.0"/>
           <path id="arrow"
             d="M 11.500037,31.436501 C 11.940474,20.09759 22.043105,11.32322 32.158766,21.979434 L 37.068811,17.246167 C 37.068811,17.246167 37.088388,32 37.088388,32 L 22.160133,31.978069 C 22.160133,31.978069 26.997745,27.140456 26.997745,27.140456 C 18.528582,18.264221 13.291696,25.230495 11.500037,31.436501 z"
             style="fill:#404040;"/>
          </a>
         </g>
        </svg>
</svg>
