<?xml version="1.0" encoding="UTF-8" standalone="no"?>
<!DOCTYPE svg PUBLIC "-//W3C//DTD SVG 1.1//EN"
 "http://www.w3.org/Graphics/SVG/1.1/DTD/svg11.dtd">
<!-- Generated by graphviz version 2.38.0 (20140413.2041)
 -->
<!-- Title: C:/projects/ndt/sources/include/ndt/udp.h Pages: 1 -->
<svg width="1374pt" height="375pt"
 viewBox="0.00 0.00 1373.50 375.00" xmlns="http://www.w3.org/2000/svg" xmlns:xlink="http://www.w3.org/1999/xlink">
<g id="graph0" class="graph" transform="scale(1 1) rotate(0) translate(4 371)">
<title>C:/projects/ndt/sources/include/ndt/udp.h</title>
<polygon fill="white" stroke="none" points="-4,4 -4,-371 1369.5,-371 1369.5,4 -4,4"/>
<!-- Node1 -->
<g id="node1" class="node"><title>Node1</title>
<g id="a_node1"><a xlink:title=" ">
<polygon fill="#bfbfbf" stroke="black" points="490,-336.5 490,-366.5 608,-366.5 608,-336.5 490,-336.5"/>
<text text-anchor="start" x="498" y="-354.5" font-family="Helvetica,sans-Serif" font-size="10.00">C:/projects/ndt/sources</text>
<text text-anchor="middle" x="549" y="-343.5" font-family="Helvetica,sans-Serif" font-size="10.00">/include/ndt/udp.h</text>
</a>
</g>
</g>
<!-- Node2 -->
<g id="node2" class="node"><title>Node2</title>
<g id="a_node2"><a xlink:href="utils_8h.html" target="_top" xlink:title=" ">
<polygon fill="white" stroke="black" points="387.5,-112.5 387.5,-131.5 430.5,-131.5 430.5,-112.5 387.5,-112.5"/>
<text text-anchor="middle" x="409" y="-119.5" font-family="Helvetica,sans-Serif" font-size="10.00">utils.h</text>
</a>
</g>
</g>
<!-- Node1&#45;&gt;Node2 -->
<g id="edge1" class="edge"><title>Node1&#45;&gt;Node2</title>
<path fill="none" stroke="midnightblue" d="M514.044,-336.445C478.703,-320.11 426.103,-289.448 403,-244 386.146,-210.845 395.439,-165.76 402.798,-141.046"/>
<polygon fill="midnightblue" stroke="midnightblue" points="406.133,-142.108 405.847,-131.517 399.466,-139.975 406.133,-142.108"/>
</g>
<!-- Node21 -->
<g id="node21" class="node"><title>Node21</title>
<g id="a_node21"><a xlink:href="socket_8h.html" target="_top" xlink:title=" ">
<polygon fill="white" stroke="black" points="713,-280.5 713,-299.5 767,-299.5 767,-280.5 713,-280.5"/>
<text text-anchor="middle" x="740" y="-287.5" font-family="Helvetica,sans-Serif" font-size="10.00">socket.h</text>
</a>
</g>
</g>
<!-- Node1&#45;&gt;Node21 -->
<g id="edge20" class="edge"><title>Node1&#45;&gt;Node21</title>
<path fill="none" stroke="midnightblue" d="M594.264,-336.399C627.511,-326.042 672.114,-312.148 703.184,-302.469"/>
<polygon fill="midnightblue" stroke="midnightblue" points="704.258,-305.8 712.764,-299.484 702.176,-299.117 704.258,-305.8"/>
</g>
<!-- Node3 -->
<g id="node3" class="node"><title>Node3</title>
<g id="a_node3"><a xlink:title=" ">
<polygon fill="white" stroke="#bfbfbf" points="308,-56.5 308,-75.5 368,-75.5 368,-56.5 308,-56.5"/>
<text text-anchor="middle" x="338" y="-63.5" font-family="Helvetica,sans-Serif" font-size="10.00">fmt/core.h</text>
</a>
</g>
</g>
<!-- Node2&#45;&gt;Node3 -->
<g id="edge2" class="edge"><title>Node2&#45;&gt;Node3</title>
<path fill="none" stroke="midnightblue" d="M397.593,-112.324C386.891,-104.185 370.659,-91.8395 357.837,-82.0874"/>
<polygon fill="midnightblue" stroke="midnightblue" points="359.693,-79.1018 349.615,-75.8339 355.456,-84.6734 359.693,-79.1018"/>
</g>
<!-- Node4 -->
<g id="node4" class="node"><title>Node4</title>
<g id="a_node4"><a xlink:title=" ">
<polygon fill="white" stroke="#bfbfbf" points="222,-56.5 222,-75.5 290,-75.5 290,-56.5 222,-56.5"/>
<text text-anchor="middle" x="256" y="-63.5" font-family="Helvetica,sans-Serif" font-size="10.00">fmt/format.h</text>
</a>
</g>
</g>
<!-- Node2&#45;&gt;Node4 -->
<g id="edge3" class="edge"><title>Node2&#45;&gt;Node4</title>
<path fill="none" stroke="midnightblue" d="M387.403,-113.378C362.019,-104.419 319.589,-89.4432 289.828,-78.9393"/>
<polygon fill="midnightblue" stroke="midnightblue" points="290.859,-75.5915 280.264,-75.5637 288.529,-82.1924 290.859,-75.5915"/>
</g>
<!-- Node5 -->
<g id="node5" class="node"><title>Node5</title>
<g id="a_node5"><a xlink:title=" ">
<polygon fill="white" stroke="#bfbfbf" points="0,-56.5 0,-75.5 38,-75.5 38,-56.5 0,-56.5"/>
<text text-anchor="middle" x="19" y="-63.5" font-family="Helvetica,sans-Serif" font-size="10.00">array</text>
</a>
</g>
</g>
<!-- Node2&#45;&gt;Node5 -->
<g id="edge4" class="edge"><title>Node2&#45;&gt;Node5</title>
<path fill="none" stroke="midnightblue" d="M387.133,-119.714C331.79,-116.158 181.657,-104.644 48.1405,-75.8702"/>
<polygon fill="midnightblue" stroke="midnightblue" points="48.6676,-72.4026 38.1497,-73.6774 47.1669,-79.2399 48.6676,-72.4026"/>
</g>
<!-- Node6 -->
<g id="node6" class="node"><title>Node6</title>
<g id="a_node6"><a xlink:title=" ">
<polygon fill="white" stroke="#bfbfbf" points="56,-56.5 56,-75.5 102,-75.5 102,-56.5 56,-56.5"/>
<text text-anchor="middle" x="79" y="-63.5" font-family="Helvetica,sans-Serif" font-size="10.00">chrono</text>
</a>
</g>
</g>
<!-- Node2&#45;&gt;Node6 -->
<g id="edge5" class="edge"><title>Node2&#45;&gt;Node6</title>
<path fill="none" stroke="midnightblue" d="M387.145,-118.643C339.092,-113.262 220.523,-98.8965 112.12,-76.0192"/>
<polygon fill="midnightblue" stroke="midnightblue" points="112.846,-72.5954 102.335,-73.9246 111.381,-79.4403 112.846,-72.5954"/>
</g>
<!-- Node7 -->
<g id="node7" class="node"><title>Node7</title>
<g id="a_node7"><a xlink:title=" ">
<polygon fill="white" stroke="#bfbfbf" points="386,-56.5 386,-75.5 432,-75.5 432,-56.5 386,-56.5"/>
<text text-anchor="middle" x="409" y="-63.5" font-family="Helvetica,sans-Serif" font-size="10.00">cstring</text>
</a>
</g>
</g>
<!-- Node2&#45;&gt;Node7 -->
<g id="edge6" class="edge"><title>Node2&#45;&gt;Node7</title>
<path fill="none" stroke="midnightblue" d="M409,-112.083C409,-105.006 409,-94.8611 409,-85.9865"/>
<polygon fill="midnightblue" stroke="midnightblue" points="412.5,-85.751 409,-75.7511 405.5,-85.7511 412.5,-85.751"/>
</g>
<!-- Node8 -->
<g id="node8" class="node"><title>Node8</title>
<g id="a_node8"><a xlink:title=" ">
<polygon fill="white" stroke="#bfbfbf" points="798,-56.5 798,-75.5 872,-75.5 872,-56.5 798,-56.5"/>
<text text-anchor="middle" x="835" y="-63.5" font-family="Helvetica,sans-Serif" font-size="10.00">system_error</text>
</a>
</g>
</g>
<!-- Node2&#45;&gt;Node8 -->
<g id="edge7" class="edge"><title>Node2&#45;&gt;Node8</title>
<path fill="none" stroke="midnightblue" d="M430.504,-119.027C487.179,-113.705 645.486,-98.0603 787.677,-76.1025"/>
<polygon fill="midnightblue" stroke="midnightblue" points="788.544,-79.5097 797.885,-74.5106 787.465,-72.5932 788.544,-79.5097"/>
</g>
<!-- Node9 -->
<g id="node9" class="node"><title>Node9</title>
<g id="a_node9"><a xlink:title=" ">
<polygon fill="white" stroke="#bfbfbf" points="450,-56.5 450,-75.5 512,-75.5 512,-56.5 450,-56.5"/>
<text text-anchor="middle" x="481" y="-63.5" font-family="Helvetica,sans-Serif" font-size="10.00">type_traits</text>
</a>
</g>
</g>
<!-- Node2&#45;&gt;Node9 -->
<g id="edge8" class="edge"><title>Node2&#45;&gt;Node9</title>
<path fill="none" stroke="midnightblue" d="M420.568,-112.324C431.42,-104.185 447.881,-91.8395 460.883,-82.0874"/>
<polygon fill="midnightblue" stroke="midnightblue" points="463.321,-84.6339 469.221,-75.8339 459.121,-79.0339 463.321,-84.6339"/>
</g>
<!-- Node10 -->
<g id="node10" class="node"><title>Node10</title>
<g id="a_node10"><a xlink:title=" ">
<polygon fill="white" stroke="#bfbfbf" points="120.5,-56.5 120.5,-75.5 203.5,-75.5 203.5,-56.5 120.5,-56.5"/>
<text text-anchor="middle" x="162" y="-63.5" font-family="Helvetica,sans-Serif" font-size="10.00">unordered_map</text>
</a>
</g>
</g>
<!-- Node2&#45;&gt;Node10 -->
<g id="edge9" class="edge"><title>Node2&#45;&gt;Node10</title>
<path fill="none" stroke="midnightblue" d="M387.08,-116.208C347.815,-107.624 264.596,-89.4299 211.089,-77.732"/>
<polygon fill="midnightblue" stroke="midnightblue" points="211.65,-74.2722 201.134,-75.5555 210.155,-81.1106 211.65,-74.2722"/>
</g>
<!-- Node11 -->
<g id="node11" class="node"><title>Node11</title>
<g id="a_node11"><a xlink:href="common_8h.html" target="_top" xlink:title="Header with typedefs to make type designation platform independent.">
<polygon fill="white" stroke="black" points="996,-56.5 996,-75.5 1058,-75.5 1058,-56.5 996,-56.5"/>
<text text-anchor="middle" x="1027" y="-63.5" font-family="Helvetica,sans-Serif" font-size="10.00">common.h</text>
</a>
</g>
</g>
<!-- Node2&#45;&gt;Node11 -->
<g id="edge10" class="edge"><title>Node2&#45;&gt;Node11</title>
<path fill="none" stroke="midnightblue" d="M430.719,-119.125C452.334,-117.271 486.454,-114.374 516,-112 721.565,-95.4823 777.014,-106.187 985.69,-75.8101"/>
<polygon fill="midnightblue" stroke="midnightblue" points="986.359,-79.2495 995.744,-74.3323 985.341,-72.3239 986.359,-79.2495"/>
</g>
<!-- Node12 -->
<g id="node12" class="node"><title>Node12</title>
<g id="a_node12"><a xlink:title=" ">
<polygon fill="white" stroke="#bfbfbf" points="1110,-0.5 1110,-19.5 1172,-19.5 1172,-0.5 1110,-0.5"/>
<text text-anchor="middle" x="1141" y="-7.5" font-family="Helvetica,sans-Serif" font-size="10.00">arpa/inet.h</text>
</a>
</g>
</g>
<!-- Node11&#45;&gt;Node12 -->
<g id="edge11" class="edge"><title>Node11&#45;&gt;Node12</title>
<path fill="none" stroke="midnightblue" d="M1045.06,-56.4435C1063.57,-47.6751 1092.58,-33.9355 1113.86,-23.8579"/>
<polygon fill="midnightblue" stroke="midnightblue" points="1115.48,-26.9604 1123.02,-19.5164 1112.49,-20.6343 1115.48,-26.9604"/>
</g>
<!-- Node13 -->
<g id="node13" class="node"><title>Node13</title>
<g id="a_node13"><a xlink:title=" ">
<polygon fill="white" stroke="#bfbfbf" points="1190.5,-0.5 1190.5,-19.5 1237.5,-19.5 1237.5,-0.5 1190.5,-0.5"/>
<text text-anchor="middle" x="1214" y="-7.5" font-family="Helvetica,sans-Serif" font-size="10.00">errno.h</text>
</a>
</g>
</g>
<!-- Node11&#45;&gt;Node13 -->
<g id="edge12" class="edge"><title>Node11&#45;&gt;Node13</title>
<path fill="none" stroke="midnightblue" d="M1056.63,-56.4435C1090.37,-46.6993 1145.38,-30.8158 1180.61,-20.6414"/>
<polygon fill="midnightblue" stroke="midnightblue" points="1181.79,-23.9437 1190.43,-17.8067 1179.85,-17.2185 1181.79,-23.9437"/>
</g>
<!-- Node14 -->
<g id="node14" class="node"><title>Node14</title>
<g id="a_node14"><a xlink:title=" ">
<polygon fill="white" stroke="#bfbfbf" points="1255.5,-0.5 1255.5,-19.5 1298.5,-19.5 1298.5,-0.5 1255.5,-0.5"/>
<text text-anchor="middle" x="1277" y="-7.5" font-family="Helvetica,sans-Serif" font-size="10.00">fcntl.h</text>
</a>
</g>
</g>
<!-- Node11&#45;&gt;Node14 -->
<g id="edge13" class="edge"><title>Node11&#45;&gt;Node14</title>
<path fill="none" stroke="midnightblue" d="M1058,-59.4377C1098.76,-51.9488 1172.78,-37.7469 1245.58,-19.9364"/>
<polygon fill="midnightblue" stroke="midnightblue" points="1246.51,-23.3127 1255.38,-17.5159 1244.83,-16.5171 1246.51,-23.3127"/>
</g>
<!-- Node15 -->
<g id="node15" class="node"><title>Node15</title>
<g id="a_node15"><a xlink:title=" ">
<polygon fill="white" stroke="#bfbfbf" points="1316.5,-0.5 1316.5,-19.5 1365.5,-19.5 1365.5,-0.5 1316.5,-0.5"/>
<text text-anchor="middle" x="1341" y="-7.5" font-family="Helvetica,sans-Serif" font-size="10.00">netdb.h</text>
</a>
</g>
</g>
<!-- Node11&#45;&gt;Node15 -->
<g id="edge14" class="edge"><title>Node11&#45;&gt;Node15</title>
<path fill="none" stroke="midnightblue" d="M1058.26,-61.0094C1108.47,-54.3769 1210.36,-40.0025 1306.32,-19.9584"/>
<polygon fill="midnightblue" stroke="midnightblue" points="1307.13,-23.3659 1316.19,-17.8733 1305.68,-16.5172 1307.13,-23.3659"/>
</g>
<!-- Node16 -->
<g id="node16" class="node"><title>Node16</title>
<g id="a_node16"><a xlink:title=" ">
<polygon fill="white" stroke="#bfbfbf" points="779.5,-0.5 779.5,-19.5 844.5,-19.5 844.5,-0.5 779.5,-0.5"/>
<text text-anchor="middle" x="812" y="-7.5" font-family="Helvetica,sans-Serif" font-size="10.00">netinet/in.h</text>
</a>
</g>
</g>
<!-- Node11&#45;&gt;Node16 -->
<g id="edge15" class="edge"><title>Node11&#45;&gt;Node16</title>
<path fill="none" stroke="midnightblue" d="M995.737,-57.1479C958.51,-47.7979 896.152,-32.1359 854.552,-21.6874"/>
<polygon fill="midnightblue" stroke="midnightblue" points="855.262,-18.2571 844.71,-19.2157 853.557,-25.0463 855.262,-18.2571"/>
</g>
<!-- Node17 -->
<g id="node17" class="node"><title>Node17</title>
<g id="a_node17"><a xlink:title=" ">
<polygon fill="white" stroke="#bfbfbf" points="862.5,-0.5 862.5,-19.5 935.5,-19.5 935.5,-0.5 862.5,-0.5"/>
<text text-anchor="middle" x="899" y="-7.5" font-family="Helvetica,sans-Serif" font-size="10.00">sys/socket.h</text>
</a>
</g>
</g>
<!-- Node11&#45;&gt;Node17 -->
<g id="edge16" class="edge"><title>Node11&#45;&gt;Node17</title>
<path fill="none" stroke="midnightblue" d="M1006.72,-56.4435C985.653,-47.5566 952.483,-33.5632 928.514,-23.4514"/>
<polygon fill="midnightblue" stroke="midnightblue" points="929.761,-20.1787 919.187,-19.5164 927.04,-26.6283 929.761,-20.1787"/>
</g>
<!-- Node18 -->
<g id="node18" class="node"><title>Node18</title>
<g id="a_node18"><a xlink:title=" ">
<polygon fill="white" stroke="#bfbfbf" points="954,-0.5 954,-19.5 1022,-19.5 1022,-0.5 954,-0.5"/>
<text text-anchor="middle" x="988" y="-7.5" font-family="Helvetica,sans-Serif" font-size="10.00">sys/types.h</text>
</a>
</g>
</g>
<!-- Node11&#45;&gt;Node18 -->
<g id="edge17" class="edge"><title>Node11&#45;&gt;Node18</title>
<path fill="none" stroke="midnightblue" d="M1020.56,-56.083C1015.05,-48.4554 1006.97,-37.2645 1000.24,-27.9408"/>
<polygon fill="midnightblue" stroke="midnightblue" points="1003.01,-25.8087 994.32,-19.7511 997.338,-29.9071 1003.01,-25.8087"/>
</g>
<!-- Node19 -->
<g id="node19" class="node"><title>Node19</title>
<g id="a_node19"><a xlink:title=" ">
<polygon fill="white" stroke="#bfbfbf" points="1040.5,-0.5 1040.5,-19.5 1091.5,-19.5 1091.5,-0.5 1040.5,-0.5"/>
<text text-anchor="middle" x="1066" y="-7.5" font-family="Helvetica,sans-Serif" font-size="10.00">unistd.h</text>
</a>
</g>
</g>
<!-- Node11&#45;&gt;Node19 -->
<g id="edge18" class="edge"><title>Node11&#45;&gt;Node19</title>
<path fill="none" stroke="midnightblue" d="M1033.44,-56.083C1038.95,-48.4554 1047.03,-37.2645 1053.76,-27.9408"/>
<polygon fill="midnightblue" stroke="midnightblue" points="1056.66,-29.9071 1059.68,-19.7511 1050.99,-25.8087 1056.66,-29.9071"/>
</g>
<!-- Node20 -->
<g id="node20" class="node"><title>Node20</title>
<g id="a_node20"><a xlink:title=" ">
<polygon fill="white" stroke="#bfbfbf" points="713,-0.5 713,-19.5 761,-19.5 761,-0.5 713,-0.5"/>
<text text-anchor="middle" x="737" y="-7.5" font-family="Helvetica,sans-Serif" font-size="10.00">cstddef</text>
</a>
</g>
</g>
<!-- Node11&#45;&gt;Node20 -->
<g id="edge19" class="edge"><title>Node11&#45;&gt;Node20</title>
<path fill="none" stroke="midnightblue" d="M995.695,-57.9561C992.426,-57.2721 989.148,-56.6075 986,-56 893.518,-38.1548 866.777,-40.6422 770.895,-20.0094"/>
<polygon fill="midnightblue" stroke="midnightblue" points="771.597,-16.5804 761.081,-17.8696 770.106,-23.4197 771.597,-16.5804"/>
</g>
<!-- Node21&#45;&gt;Node2 -->
<g id="edge61" class="edge"><title>Node21&#45;&gt;Node2</title>
<path fill="none" stroke="midnightblue" d="M712.622,-281.082C664.939,-266.641 564.439,-233.285 488,-188 464.277,-173.946 440.273,-153.032 425.054,-138.748"/>
<polygon fill="midnightblue" stroke="midnightblue" points="427.206,-135.963 417.56,-131.58 422.367,-141.021 427.206,-135.963"/>
</g>
<!-- Node21&#45;&gt;Node11 -->
<g id="edge58" class="edge"><title>Node21&#45;&gt;Node11</title>
<path fill="none" stroke="midnightblue" d="M767.269,-286.02C799.307,-281.422 852.914,-270.204 891,-244 953.474,-201.017 999.903,-120.326 1018.31,-84.6887"/>
<polygon fill="midnightblue" stroke="midnightblue" points="1021.55,-86.0363 1022.93,-75.5319 1015.3,-82.8824 1021.55,-86.0363"/>
</g>
<!-- Node22 -->
<g id="node22" class="node"><title>Node22</title>
<g id="a_node22"><a xlink:title=" ">
<polygon fill="white" stroke="#bfbfbf" points="928.5,-56.5 928.5,-75.5 977.5,-75.5 977.5,-56.5 928.5,-56.5"/>
<text text-anchor="middle" x="953" y="-63.5" font-family="Helvetica,sans-Serif" font-size="10.00">cassert</text>
</a>
</g>
</g>
<!-- Node21&#45;&gt;Node22 -->
<g id="edge21" class="edge"><title>Node21&#45;&gt;Node22</title>
<path fill="none" stroke="midnightblue" d="M767.193,-283.993C794.25,-277.988 835.958,-265.88 866,-244 919.928,-204.722 942.164,-122.7 949.71,-85.7529"/>
<polygon fill="midnightblue" stroke="midnightblue" points="953.167,-86.309 951.599,-75.8308 946.29,-84.9997 953.167,-86.309"/>
</g>
<!-- Node23 -->
<g id="node23" class="node"><title>Node23</title>
<g id="a_node23"><a xlink:title=" ">
<polygon fill="white" stroke="#bfbfbf" points="412,-224.5 412,-243.5 470,-243.5 470,-224.5 412,-224.5"/>
<text text-anchor="middle" x="441" y="-231.5" font-family="Helvetica,sans-Serif" font-size="10.00">functional</text>
</a>
</g>
</g>
<!-- Node21&#45;&gt;Node23 -->
<g id="edge22" class="edge"><title>Node21&#45;&gt;Node23</title>
<path fill="none" stroke="midnightblue" d="M712.668,-284.494C665.793,-276.699 567.086,-259.993 484,-244 482.736,-243.757 481.452,-243.506 480.156,-243.251"/>
<polygon fill="midnightblue" stroke="midnightblue" points="480.613,-239.773 470.119,-241.227 479.23,-246.635 480.613,-239.773"/>
</g>
<!-- Node24 -->
<g id="node24" class="node"><title>Node24</title>
<g id="a_node24"><a xlink:href="address_8h.html" target="_top" xlink:title=" ">
<polygon fill="white" stroke="black" points="710.5,-224.5 710.5,-243.5 769.5,-243.5 769.5,-224.5 710.5,-224.5"/>
<text text-anchor="middle" x="740" y="-231.5" font-family="Helvetica,sans-Serif" font-size="10.00">address.h</text>
</a>
</g>
</g>
<!-- Node21&#45;&gt;Node24 -->
<g id="edge23" class="edge"><title>Node21&#45;&gt;Node24</title>
<path fill="none" stroke="midnightblue" d="M740,-280.083C740,-273.006 740,-262.861 740,-253.986"/>
<polygon fill="midnightblue" stroke="midnightblue" points="743.5,-253.751 740,-243.751 736.5,-253.751 743.5,-253.751"/>
</g>
<!-- Node29 -->
<g id="node29" class="node"><title>Node29</title>
<g id="a_node29"><a xlink:href="buffer_8h.html" target="_top" xlink:title=" ">
<polygon fill="white" stroke="black" points="733,-112.5 733,-131.5 781,-131.5 781,-112.5 733,-112.5"/>
<text text-anchor="middle" x="757" y="-119.5" font-family="Helvetica,sans-Serif" font-size="10.00">buffer.h</text>
</a>
</g>
</g>
<!-- Node21&#45;&gt;Node29 -->
<g id="edge57" class="edge"><title>Node21&#45;&gt;Node29</title>
<path fill="none" stroke="midnightblue" d="M723.039,-280.469C687.144,-261.266 609.22,-212.817 640,-168 658.464,-141.117 695.402,-130.287 722.86,-125.928"/>
<polygon fill="midnightblue" stroke="midnightblue" points="723.43,-129.383 732.861,-124.555 722.477,-122.448 723.43,-129.383"/>
</g>
<!-- Node35 -->
<g id="node35" class="node"><title>Node35</title>
<g id="a_node35"><a xlink:href="exception_8h.html" target="_top" xlink:title=" ">
<polygon fill="white" stroke="black" points="828.5,-112.5 828.5,-131.5 895.5,-131.5 895.5,-112.5 828.5,-112.5"/>
<text text-anchor="middle" x="862" y="-119.5" font-family="Helvetica,sans-Serif" font-size="10.00">exception.h</text>
</a>
</g>
</g>
<!-- Node21&#45;&gt;Node35 -->
<g id="edge59" class="edge"><title>Node21&#45;&gt;Node35</title>
<path fill="none" stroke="midnightblue" d="M766.479,-280.479C802.671,-267.231 866.154,-237.89 893,-188 901.831,-171.589 889.867,-152.251 878.332,-138.96"/>
<polygon fill="midnightblue" stroke="midnightblue" points="880.782,-136.456 871.394,-131.545 875.671,-141.238 880.782,-136.456"/>
</g>
<!-- Node38 -->
<g id="node38" class="node"><title>Node38</title>
<g id="a_node38"><a xlink:href="useful__base__types_8h.html" target="_top" xlink:title=" ">
<polygon fill="white" stroke="black" points="1122,-56.5 1122,-75.5 1228,-75.5 1228,-56.5 1122,-56.5"/>
<text text-anchor="middle" x="1175" y="-63.5" font-family="Helvetica,sans-Serif" font-size="10.00">useful_base_types.h</text>
</a>
</g>
</g>
<!-- Node21&#45;&gt;Node38 -->
<g id="edge60" class="edge"><title>Node21&#45;&gt;Node38</title>
<path fill="none" stroke="midnightblue" d="M767.107,-288.778C836.002,-286.92 1020.79,-273.718 1140,-188 1164.02,-170.727 1167.66,-160.389 1176,-132 1180.43,-116.924 1179.74,-99.0224 1178.2,-85.8266"/>
<polygon fill="midnightblue" stroke="midnightblue" points="1181.62,-85.028 1176.73,-75.6312 1174.69,-86.0289 1181.62,-85.028"/>
</g>
<!-- Node24&#45;&gt;Node2 -->
<g id="edge56" class="edge"><title>Node24&#45;&gt;Node2</title>
<path fill="none" stroke="midnightblue" d="M710.396,-229.338C669.056,-223.629 592.124,-210.82 530,-188 510.61,-180.878 462.047,-153.625 432.677,-136.751"/>
<polygon fill="midnightblue" stroke="midnightblue" points="434.288,-133.64 423.877,-131.676 430.791,-139.704 434.288,-133.64"/>
</g>
<!-- Node25 -->
<g id="node25" class="node"><title>Node25</title>
<g id="a_node25"><a xlink:title=" ">
<polygon fill="white" stroke="#bfbfbf" points="843.5,-168.5 843.5,-187.5 884.5,-187.5 884.5,-168.5 843.5,-168.5"/>
<text text-anchor="middle" x="864" y="-175.5" font-family="Helvetica,sans-Serif" font-size="10.00">string</text>
</a>
</g>
</g>
<!-- Node24&#45;&gt;Node25 -->
<g id="edge24" class="edge"><title>Node24&#45;&gt;Node25</title>
<path fill="none" stroke="midnightblue" d="M759.648,-224.444C779.965,-215.596 811.903,-201.687 835.098,-191.586"/>
<polygon fill="midnightblue" stroke="midnightblue" points="836.673,-194.718 844.444,-187.516 833.878,-188.3 836.673,-194.718"/>
</g>
<!-- Node26 -->
<g id="node26" class="node"><title>Node26</title>
<g id="a_node26"><a xlink:title=" ">
<polygon fill="white" stroke="#bfbfbf" points="649,-168.5 649,-187.5 693,-187.5 693,-168.5 649,-168.5"/>
<text text-anchor="middle" x="671" y="-175.5" font-family="Helvetica,sans-Serif" font-size="10.00">variant</text>
</a>
</g>
</g>
<!-- Node24&#45;&gt;Node26 -->
<g id="edge25" class="edge"><title>Node24&#45;&gt;Node26</title>
<path fill="none" stroke="midnightblue" d="M728.914,-224.324C718.514,-216.185 702.739,-203.839 690.278,-194.087"/>
<polygon fill="midnightblue" stroke="midnightblue" points="692.32,-191.241 682.288,-187.834 688.006,-196.753 692.32,-191.241"/>
</g>
<!-- Node27 -->
<g id="node27" class="node"><title>Node27</title>
<g id="a_node27"><a xlink:href="bin__rw_8h.html" target="_top" xlink:title=" ">
<polygon fill="white" stroke="black" points="539.5,-168.5 539.5,-187.5 592.5,-187.5 592.5,-168.5 539.5,-168.5"/>
<text text-anchor="middle" x="566" y="-175.5" font-family="Helvetica,sans-Serif" font-size="10.00">bin_rw.h</text>
</a>
</g>
</g>
<!-- Node24&#45;&gt;Node27 -->
<g id="edge26" class="edge"><title>Node24&#45;&gt;Node27</title>
<path fill="none" stroke="midnightblue" d="M712.429,-224.444C682.642,-215.199 635.051,-200.43 602.253,-190.251"/>
<polygon fill="midnightblue" stroke="midnightblue" points="603.174,-186.872 592.586,-187.251 601.099,-193.558 603.174,-186.872"/>
</g>
<!-- Node24&#45;&gt;Node29 -->
<g id="edge45" class="edge"><title>Node24&#45;&gt;Node29</title>
<path fill="none" stroke="midnightblue" d="M740.168,-224.106C740.522,-211.527 741.618,-187.86 745,-168 746.512,-159.123 748.98,-149.452 751.285,-141.359"/>
<polygon fill="midnightblue" stroke="midnightblue" points="754.715,-142.107 754.224,-131.523 748.008,-140.103 754.715,-142.107"/>
</g>
<!-- Node24&#45;&gt;Node35 -->
<g id="edge46" class="edge"><title>Node24&#45;&gt;Node35</title>
<path fill="none" stroke="midnightblue" d="M743.216,-224.427C748.626,-210.966 760.679,-184.688 778,-168 792.541,-153.991 812.309,-143.111 829.016,-135.561"/>
<polygon fill="midnightblue" stroke="midnightblue" points="830.637,-138.674 838.436,-131.502 827.867,-132.245 830.637,-138.674"/>
</g>
<!-- Node36 -->
<g id="node36" class="node"><title>Node36</title>
<g id="a_node36"><a xlink:href="sys__socket__ops_8h.html" target="_top" xlink:title=" ">
<polygon fill="white" stroke="black" points="1035,-168.5 1035,-187.5 1131,-187.5 1131,-168.5 1035,-168.5"/>
<text text-anchor="middle" x="1083" y="-175.5" font-family="Helvetica,sans-Serif" font-size="10.00">sys_socket_ops.h</text>
</a>
</g>
</g>
<!-- Node24&#45;&gt;Node36 -->
<g id="edge49" class="edge"><title>Node24&#45;&gt;Node36</title>
<path fill="none" stroke="midnightblue" d="M769.541,-228.349C826.188,-219.431 951.01,-199.78 1024.91,-188.145"/>
<polygon fill="midnightblue" stroke="midnightblue" points="1025.65,-191.571 1034.99,-186.559 1024.57,-184.657 1025.65,-191.571"/>
</g>
<!-- Node39 -->
<g id="node39" class="node"><title>Node39</title>
<g id="a_node39"><a xlink:href="tag_8h.html" target="_top" xlink:title=" ">
<polygon fill="white" stroke="black" points="787,-168.5 787,-187.5 825,-187.5 825,-168.5 787,-168.5"/>
<text text-anchor="middle" x="806" y="-175.5" font-family="Helvetica,sans-Serif" font-size="10.00">tag.h</text>
</a>
</g>
</g>
<!-- Node24&#45;&gt;Node39 -->
<g id="edge55" class="edge"><title>Node24&#45;&gt;Node39</title>
<path fill="none" stroke="midnightblue" d="M750.604,-224.324C760.456,-216.263 775.351,-204.077 787.215,-194.369"/>
<polygon fill="midnightblue" stroke="midnightblue" points="789.68,-196.875 795.203,-187.834 785.247,-191.457 789.68,-196.875"/>
</g>
<!-- Node27&#45;&gt;Node2 -->
<g id="edge44" class="edge"><title>Node27&#45;&gt;Node2</title>
<path fill="none" stroke="midnightblue" d="M541.123,-168.444C513.897,-159.079 470.188,-144.046 440.567,-133.857"/>
<polygon fill="midnightblue" stroke="midnightblue" points="441.322,-130.416 430.727,-130.473 439.045,-137.035 441.322,-130.416"/>
</g>
<!-- Node27&#45;&gt;Node7 -->
<g id="edge28" class="edge"><title>Node27&#45;&gt;Node7</title>
<path fill="none" stroke="midnightblue" d="M553.291,-168.455C539.959,-159.463 518.423,-144.858 500,-132 475.509,-114.907 447.594,-94.8867 429.212,-81.6286"/>
<polygon fill="midnightblue" stroke="midnightblue" points="431.167,-78.7232 421.011,-75.7058 427.069,-84.398 431.167,-78.7232"/>
</g>
<!-- Node27&#45;&gt;Node9 -->
<g id="edge29" class="edge"><title>Node27&#45;&gt;Node9</title>
<path fill="none" stroke="midnightblue" d="M554.225,-168.323C543.36,-159.902 527.256,-146.326 516,-132 504.516,-117.384 494.811,-98.4664 488.554,-84.8126"/>
<polygon fill="midnightblue" stroke="midnightblue" points="491.709,-83.2921 484.47,-75.5559 485.305,-86.1178 491.709,-83.2921"/>
</g>
<!-- Node28 -->
<g id="node28" class="node"><title>Node28</title>
<g id="a_node28"><a xlink:title=" ">
<polygon fill="white" stroke="#bfbfbf" points="525,-112.5 525,-131.5 581,-131.5 581,-112.5 525,-112.5"/>
<text text-anchor="middle" x="553" y="-119.5" font-family="Helvetica,sans-Serif" font-size="10.00">algorithm</text>
</a>
</g>
</g>
<!-- Node27&#45;&gt;Node28 -->
<g id="edge27" class="edge"><title>Node27&#45;&gt;Node28</title>
<path fill="none" stroke="midnightblue" d="M563.853,-168.083C562.131,-160.927 559.653,-150.635 557.5,-141.691"/>
<polygon fill="midnightblue" stroke="midnightblue" points="560.85,-140.654 555.107,-131.751 554.045,-142.293 560.85,-140.654"/>
</g>
<!-- Node27&#45;&gt;Node29 -->
<g id="edge30" class="edge"><title>Node27&#45;&gt;Node29</title>
<path fill="none" stroke="midnightblue" d="M592.558,-169.492C626.569,-159.876 685.56,-143.198 722.87,-132.649"/>
<polygon fill="midnightblue" stroke="midnightblue" points="724.109,-135.936 732.779,-129.848 722.204,-129.2 724.109,-135.936"/>
</g>
<!-- Node31 -->
<g id="node31" class="node"><title>Node31</title>
<g id="a_node31"><a xlink:href="endian_8h.html" target="_top" xlink:title=" ">
<polygon fill="white" stroke="black" points="599.5,-112.5 599.5,-131.5 652.5,-131.5 652.5,-112.5 599.5,-112.5"/>
<text text-anchor="middle" x="626" y="-119.5" font-family="Helvetica,sans-Serif" font-size="10.00">endian.h</text>
</a>
</g>
</g>
<!-- Node27&#45;&gt;Node31 -->
<g id="edge37" class="edge"><title>Node27&#45;&gt;Node31</title>
<path fill="none" stroke="midnightblue" d="M575.64,-168.324C584.51,-160.341 597.875,-148.313 608.608,-138.653"/>
<polygon fill="midnightblue" stroke="midnightblue" points="611.093,-141.125 616.185,-131.834 606.41,-135.922 611.093,-141.125"/>
</g>
<!-- Node29&#45;&gt;Node8 -->
<g id="edge34" class="edge"><title>Node29&#45;&gt;Node8</title>
<path fill="none" stroke="midnightblue" d="M769.532,-112.324C781.586,-103.979 800.027,-91.2122 814.269,-81.3524"/>
<polygon fill="midnightblue" stroke="midnightblue" points="816.269,-84.2243 822.499,-75.6545 812.285,-78.469 816.269,-84.2243"/>
</g>
<!-- Node29&#45;&gt;Node9 -->
<g id="edge35" class="edge"><title>Node29&#45;&gt;Node9</title>
<path fill="none" stroke="midnightblue" d="M732.826,-116.662C691.665,-109.217 605.109,-93.3102 522.244,-76.2089"/>
<polygon fill="midnightblue" stroke="midnightblue" points="522.924,-72.7755 512.422,-74.1724 521.503,-79.6297 522.924,-72.7755"/>
</g>
<!-- Node29&#45;&gt;Node11 -->
<g id="edge36" class="edge"><title>Node29&#45;&gt;Node11</title>
<path fill="none" stroke="midnightblue" d="M781.103,-116.445C821.248,-108.819 904.577,-92.8248 985.786,-76.0052"/>
<polygon fill="midnightblue" stroke="midnightblue" points="986.597,-79.4116 995.676,-73.9505 985.173,-72.5579 986.597,-79.4116"/>
</g>
<!-- Node29&#45;&gt;Node20 -->
<g id="edge32" class="edge"><title>Node29&#45;&gt;Node20</title>
<path fill="none" stroke="midnightblue" d="M781.219,-117.945C824.636,-111.455 908.715,-93.6978 881,-56 877.632,-51.4186 812.554,-32.3411 771.049,-20.5457"/>
<polygon fill="midnightblue" stroke="midnightblue" points="771.886,-17.1452 761.311,-17.7887 769.98,-23.8805 771.886,-17.1452"/>
</g>
<!-- Node29&#45;&gt;Node22 -->
<g id="edge31" class="edge"><title>Node29&#45;&gt;Node22</title>
<path fill="none" stroke="midnightblue" d="M781.033,-114.379C815.545,-104.87 879.315,-87.3011 918.751,-76.4359"/>
<polygon fill="midnightblue" stroke="midnightblue" points="919.75,-79.7911 928.462,-73.7606 917.891,-73.0425 919.75,-79.7911"/>
</g>
<!-- Node30 -->
<g id="node30" class="node"><title>Node30</title>
<g id="a_node30"><a xlink:title=" ">
<polygon fill="white" stroke="#bfbfbf" points="734,-56.5 734,-75.5 780,-75.5 780,-56.5 734,-56.5"/>
<text text-anchor="middle" x="757" y="-63.5" font-family="Helvetica,sans-Serif" font-size="10.00">cstdint</text>
</a>
</g>
</g>
<!-- Node29&#45;&gt;Node30 -->
<g id="edge33" class="edge"><title>Node29&#45;&gt;Node30</title>
<path fill="none" stroke="midnightblue" d="M757,-112.083C757,-105.006 757,-94.8611 757,-85.9865"/>
<polygon fill="midnightblue" stroke="midnightblue" points="760.5,-85.751 757,-75.7511 753.5,-85.7511 760.5,-85.751"/>
</g>
<!-- Node31&#45;&gt;Node7 -->
<g id="edge40" class="edge"><title>Node31&#45;&gt;Node7</title>
<path fill="none" stroke="midnightblue" d="M599.27,-114.292C596.145,-113.516 593.003,-112.738 590,-112 526.814,-96.4687 508.534,-93.4791 441.793,-76.1365"/>
<polygon fill="midnightblue" stroke="midnightblue" points="442.604,-72.731 432.044,-73.5914 440.836,-79.504 442.604,-72.731"/>
</g>
<!-- Node31&#45;&gt;Node9 -->
<g id="edge42" class="edge"><title>Node31&#45;&gt;Node9</title>
<path fill="none" stroke="midnightblue" d="M603.024,-112.444C578.843,-103.438 540.582,-89.1891 513.354,-79.049"/>
<polygon fill="midnightblue" stroke="midnightblue" points="514.461,-75.7265 503.868,-75.5164 512.018,-82.2864 514.461,-75.7265"/>
</g>
<!-- Node31&#45;&gt;Node30 -->
<g id="edge39" class="edge"><title>Node31&#45;&gt;Node30</title>
<path fill="none" stroke="midnightblue" d="M646.757,-112.444C668.316,-103.557 702.263,-89.5632 726.794,-79.4514"/>
<polygon fill="midnightblue" stroke="midnightblue" points="728.428,-82.5634 736.34,-75.5164 725.761,-76.0917 728.428,-82.5634"/>
</g>
<!-- Node32 -->
<g id="node32" class="node"><title>Node32</title>
<g id="a_node32"><a xlink:title=" ">
<polygon fill="white" stroke="#bfbfbf" points="530.5,-56.5 530.5,-75.5 575.5,-75.5 575.5,-56.5 530.5,-56.5"/>
<text text-anchor="middle" x="553" y="-63.5" font-family="Helvetica,sans-Serif" font-size="10.00">climits</text>
</a>
</g>
</g>
<!-- Node31&#45;&gt;Node32 -->
<g id="edge38" class="edge"><title>Node31&#45;&gt;Node32</title>
<path fill="none" stroke="midnightblue" d="M614.271,-112.324C603.163,-104.107 586.258,-91.6017 573.017,-81.8069"/>
<polygon fill="midnightblue" stroke="midnightblue" points="575.063,-78.9671 564.942,-75.8339 570.9,-84.5948 575.063,-78.9671"/>
</g>
<!-- Node33 -->
<g id="node33" class="node"><title>Node33</title>
<g id="a_node33"><a xlink:title=" ">
<polygon fill="white" stroke="#bfbfbf" points="594,-56.5 594,-75.5 658,-75.5 658,-56.5 594,-56.5"/>
<text text-anchor="middle" x="626" y="-63.5" font-family="Helvetica,sans-Serif" font-size="10.00">string_view</text>
</a>
</g>
</g>
<!-- Node31&#45;&gt;Node33 -->
<g id="edge41" class="edge"><title>Node31&#45;&gt;Node33</title>
<path fill="none" stroke="midnightblue" d="M626,-112.083C626,-105.006 626,-94.8611 626,-85.9865"/>
<polygon fill="midnightblue" stroke="midnightblue" points="629.5,-85.751 626,-75.7511 622.5,-85.7511 629.5,-85.751"/>
</g>
<!-- Node34 -->
<g id="node34" class="node"><title>Node34</title>
<g id="a_node34"><a xlink:title=" ">
<polygon fill="white" stroke="#bfbfbf" points="676,-56.5 676,-75.5 716,-75.5 716,-56.5 676,-56.5"/>
<text text-anchor="middle" x="696" y="-63.5" font-family="Helvetica,sans-Serif" font-size="10.00">utility</text>
</a>
</g>
</g>
<!-- Node31&#45;&gt;Node34 -->
<g id="edge43" class="edge"><title>Node31&#45;&gt;Node34</title>
<path fill="none" stroke="midnightblue" d="M637.247,-112.324C647.797,-104.185 663.801,-91.8395 676.442,-82.0874"/>
<polygon fill="midnightblue" stroke="midnightblue" points="678.769,-84.7132 684.549,-75.8339 674.493,-79.1707 678.769,-84.7132"/>
</g>
<!-- Node35&#45;&gt;Node8 -->
<g id="edge47" class="edge"><title>Node35&#45;&gt;Node8</title>
<path fill="none" stroke="midnightblue" d="M857.541,-112.083C853.846,-104.691 848.477,-93.9533 843.906,-84.8111"/>
<polygon fill="midnightblue" stroke="midnightblue" points="846.978,-83.1301 839.376,-75.7511 840.717,-86.2606 846.978,-83.1301"/>
</g>
<!-- Node35&#45;&gt;Node11 -->
<g id="edge48" class="edge"><title>Node35&#45;&gt;Node11</title>
<path fill="none" stroke="midnightblue" d="M888.145,-112.444C916.023,-103.32 960.348,-88.8133 991.4,-78.6509"/>
<polygon fill="midnightblue" stroke="midnightblue" points="992.562,-81.9533 1000.98,-75.5164 990.385,-75.3005 992.562,-81.9533"/>
</g>
<!-- Node36&#45;&gt;Node11 -->
<g id="edge50" class="edge"><title>Node36&#45;&gt;Node11</title>
<path fill="none" stroke="midnightblue" d="M1074.17,-168.477C1065.81,-159.958 1053.47,-146.128 1046,-132 1038.27,-117.383 1033.3,-99.2113 1030.39,-85.8006"/>
<polygon fill="midnightblue" stroke="midnightblue" points="1033.79,-84.9657 1028.41,-75.838 1026.93,-86.3279 1033.79,-84.9657"/>
</g>
<!-- Node37 -->
<g id="node37" class="node"><title>Node37</title>
<g id="a_node37"><a xlink:href="sys__error__code_8h.html" target="_top" xlink:title=" ">
<polygon fill="white" stroke="black" points="1055,-112.5 1055,-131.5 1147,-131.5 1147,-112.5 1055,-112.5"/>
<text text-anchor="middle" x="1101" y="-119.5" font-family="Helvetica,sans-Serif" font-size="10.00">sys_error_code.h</text>
</a>
</g>
</g>
<!-- Node36&#45;&gt;Node37 -->
<g id="edge51" class="edge"><title>Node36&#45;&gt;Node37</title>
<path fill="none" stroke="midnightblue" d="M1085.97,-168.083C1088.38,-160.849 1091.86,-150.409 1094.87,-141.397"/>
<polygon fill="midnightblue" stroke="midnightblue" points="1098.24,-142.345 1098.08,-131.751 1091.6,-140.131 1098.24,-142.345"/>
</g>
<!-- Node36&#45;&gt;Node38 -->
<g id="edge54" class="edge"><title>Node36&#45;&gt;Node38</title>
<path fill="none" stroke="midnightblue" d="M1105.23,-168.487C1121.53,-161.156 1143,-149.049 1156,-132 1166.24,-118.573 1170.97,-99.7554 1173.15,-85.8206"/>
<polygon fill="midnightblue" stroke="midnightblue" points="1176.62,-86.2489 1174.41,-75.8882 1169.68,-85.3687 1176.62,-86.2489"/>
</g>
<!-- Node37&#45;&gt;Node11 -->
<g id="edge52" class="edge"><title>Node37&#45;&gt;Node11</title>
<path fill="none" stroke="midnightblue" d="M1089.11,-112.324C1077.85,-104.107 1060.71,-91.6017 1047.29,-81.8069"/>
<polygon fill="midnightblue" stroke="midnightblue" points="1049.25,-78.9014 1039.11,-75.8339 1045.12,-84.5559 1049.25,-78.9014"/>
</g>
<!-- Node37&#45;&gt;Node38 -->
<g id="edge53" class="edge"><title>Node37&#45;&gt;Node38</title>
<path fill="none" stroke="midnightblue" d="M1112.89,-112.324C1124.15,-104.107 1141.29,-91.6017 1154.71,-81.8069"/>
<polygon fill="midnightblue" stroke="midnightblue" points="1156.88,-84.5559 1162.89,-75.8339 1152.75,-78.9014 1156.88,-84.5559"/>
</g>
</g>
</svg>
