<?xml version="1.0" encoding="UTF-8" standalone="no"?>
<!DOCTYPE svg PUBLIC "-//W3C//DTD SVG 1.1//EN"
 "http://www.w3.org/Graphics/SVG/1.1/DTD/svg11.dtd">
<!-- Generated by graphviz version 2.38.0 (20140413.2041)
 -->
<!-- Title: C:/projects/ndt/sources/include/ndt/udp.h Pages: 1 -->
<!--zoomable 375 -->
<svg id="main" version="1.1" xmlns="http://www.w3.org/2000/svg" xmlns:xlink="http://www.w3.org/1999/xlink" xml:space="preserve" onload="init(evt)">
<style type="text/css"><![CDATA[
.edge:hover path { stroke: red; }
.edge:hover polygon { stroke: red; fill: red; }
]]></style>
<script type="text/javascript"><![CDATA[
var edges = document.getElementsByTagName('g');
if (edges && edges.length) {
  for (var i=0;i<edges.length;i++) {
    if (edges[i].id.substr(0,4)=='edge') {
      edges[i].setAttribute('class','edge');
    }
  }
}
]]></script>
        <defs>
                <circle id="rim" cx="0" cy="0" r="7"/>
                <circle id="rim2" cx="0" cy="0" r="3.5"/>
                <g id="zoomPlus">
                        <use xlink:href="#rim" fill="#404040">
                                <set attributeName="fill" to="#808080" begin="zoomplus.mouseover" end="zoomplus.mouseout"/>
                        </use>
                        <path d="M-4,0h8M0,-4v8" fill="none" stroke="white" stroke-width="1.5" pointer-events="none"/>
                </g>
                <g id="zoomMin">
                        <use xlink:href="#rim" fill="#404040">
                                <set attributeName="fill" to="#808080" begin="zoomminus.mouseover" end="zoomminus.mouseout"/>
                        </use>
                        <path d="M-4,0h8" fill="none" stroke="white" stroke-width="1.5" pointer-events="none"/>
                </g>
                <g id="dirArrow">
                        <path fill="none" stroke="white" stroke-width="1.5" d="M0,-3.0v7 M-2.5,-0.5L0,-3.0L2.5,-0.5"/>
                </g>
               <g id="resetDef">
                       <use xlink:href="#rim2" fill="#404040">
                               <set attributeName="fill" to="#808080" begin="reset.mouseover" end="reset.mouseout"/>
                       </use>
               </g>
        </defs>

<script type="text/javascript">
var viewWidth = 1184;
var viewHeight = 375;
var sectionId = 'dynsection-0';
</script>
<script xlink:href="svgpan.js"/>
<svg id="graph" class="graph">
<g id="viewport">
<title>C:/projects/ndt/sources/include/ndt/udp.h</title>
<polygon fill="white" stroke="none" points="-4,4 -4,-371 1179.5,-371 1179.5,4 -4,4"/>
<!-- Node1 -->
<g id="node1" class="node"><title>Node1</title>
<g id="a_node1"><a xlink:title=" ">
<polygon fill="#bfbfbf" stroke="black" points="440,-336.5 440,-366.5 558,-366.5 558,-336.5 440,-336.5"/>
<text text-anchor="start" x="448" y="-354.5" font-family="Helvetica,sans-Serif" font-size="10.00">C:/projects/ndt/sources</text>
<text text-anchor="middle" x="499" y="-343.5" font-family="Helvetica,sans-Serif" font-size="10.00">/include/ndt/udp.h</text>
</a>
</g>
</g>
<!-- Node2 -->
<g id="node2" class="node"><title>Node2</title>
<g id="a_node2"><a xlink:href="utils_8h.html" target="_top" xlink:title=" ">
<polygon fill="white" stroke="black" points="315.5,-112.5 315.5,-131.5 358.5,-131.5 358.5,-112.5 315.5,-112.5"/>
<text text-anchor="middle" x="337" y="-119.5" font-family="Helvetica,sans-Serif" font-size="10.00">utils.h</text>
</a>
</g>
</g>
<!-- Node1&#45;&gt;Node2 -->
<g id="edge1" class="edge"><title>Node1&#45;&gt;Node2</title>
<path fill="none" stroke="midnightblue" d="M439.856,-339.934C387.454,-327.103 313.993,-299.817 279,-244 256.543,-208.179 295.076,-162.336 319.411,-138.683"/>
<polygon fill="midnightblue" stroke="midnightblue" points="322.108,-140.951 327.01,-131.558 317.321,-135.844 322.108,-140.951"/>
</g>
<!-- Node21 -->
<g id="node21" class="node"><title>Node21</title>
<g id="a_node21"><a xlink:href="socket_8h.html" target="_top" xlink:title=" ">
<polygon fill="white" stroke="black" points="711,-280.5 711,-299.5 765,-299.5 765,-280.5 711,-280.5"/>
<text text-anchor="middle" x="738" y="-287.5" font-family="Helvetica,sans-Serif" font-size="10.00">socket.h</text>
</a>
</g>
</g>
<!-- Node1&#45;&gt;Node21 -->
<g id="edge20" class="edge"><title>Node1&#45;&gt;Node21</title>
<path fill="none" stroke="midnightblue" d="M555.337,-336.475C600.31,-325.278 662.033,-309.912 700.964,-300.22"/>
<polygon fill="midnightblue" stroke="midnightblue" points="701.969,-303.577 710.827,-297.765 700.277,-296.784 701.969,-303.577"/>
</g>
<!-- Node3 -->
<g id="node3" class="node"><title>Node3</title>
<g id="a_node3"><a xlink:title=" ">
<polygon fill="white" stroke="#bfbfbf" points="308,-56.5 308,-75.5 368,-75.5 368,-56.5 308,-56.5"/>
<text text-anchor="middle" x="338" y="-63.5" font-family="Helvetica,sans-Serif" font-size="10.00">fmt/core.h</text>
</a>
</g>
</g>
<!-- Node2&#45;&gt;Node3 -->
<g id="edge2" class="edge"><title>Node2&#45;&gt;Node3</title>
<path fill="none" stroke="midnightblue" d="M337.165,-112.083C337.296,-105.006 337.484,-94.8611 337.648,-85.9865"/>
<polygon fill="midnightblue" stroke="midnightblue" points="341.152,-85.8142 337.838,-75.7511 334.153,-85.6845 341.152,-85.8142"/>
</g>
<!-- Node4 -->
<g id="node4" class="node"><title>Node4</title>
<g id="a_node4"><a xlink:title=" ">
<polygon fill="white" stroke="#bfbfbf" points="0,-56.5 0,-75.5 68,-75.5 68,-56.5 0,-56.5"/>
<text text-anchor="middle" x="34" y="-63.5" font-family="Helvetica,sans-Serif" font-size="10.00">fmt/format.h</text>
</a>
</g>
</g>
<!-- Node2&#45;&gt;Node4 -->
<g id="edge3" class="edge"><title>Node2&#45;&gt;Node4</title>
<path fill="none" stroke="midnightblue" d="M315.382,-117.521C272.272,-110.527 172.336,-94.0351 78.214,-76.1806"/>
<polygon fill="midnightblue" stroke="midnightblue" points="78.7245,-72.715 68.2459,-74.2803 77.4135,-79.5911 78.7245,-72.715"/>
</g>
<!-- Node5 -->
<g id="node5" class="node"><title>Node5</title>
<g id="a_node5"><a xlink:title=" ">
<polygon fill="white" stroke="#bfbfbf" points="86,-56.5 86,-75.5 124,-75.5 124,-56.5 86,-56.5"/>
<text text-anchor="middle" x="105" y="-63.5" font-family="Helvetica,sans-Serif" font-size="10.00">array</text>
</a>
</g>
</g>
<!-- Node2&#45;&gt;Node5 -->
<g id="edge4" class="edge"><title>Node2&#45;&gt;Node5</title>
<path fill="none" stroke="midnightblue" d="M315.398,-116.928C279.666,-110.047 205.849,-95.2092 134.287,-76.1528"/>
<polygon fill="midnightblue" stroke="midnightblue" points="134.775,-72.6595 124.209,-73.4363 132.953,-79.4182 134.775,-72.6595"/>
</g>
<!-- Node6 -->
<g id="node6" class="node"><title>Node6</title>
<g id="a_node6"><a xlink:title=" ">
<polygon fill="white" stroke="#bfbfbf" points="244,-56.5 244,-75.5 290,-75.5 290,-56.5 244,-56.5"/>
<text text-anchor="middle" x="267" y="-63.5" font-family="Helvetica,sans-Serif" font-size="10.00">chrono</text>
</a>
</g>
</g>
<!-- Node2&#45;&gt;Node6 -->
<g id="edge5" class="edge"><title>Node2&#45;&gt;Node6</title>
<path fill="none" stroke="midnightblue" d="M325.753,-112.324C315.203,-104.185 299.199,-91.8395 286.558,-82.0874"/>
<polygon fill="midnightblue" stroke="midnightblue" points="288.507,-79.1707 278.451,-75.8339 284.231,-84.7132 288.507,-79.1707"/>
</g>
<!-- Node7 -->
<g id="node7" class="node"><title>Node7</title>
<g id="a_node7"><a xlink:title=" ">
<polygon fill="white" stroke="#bfbfbf" points="386,-56.5 386,-75.5 432,-75.5 432,-56.5 386,-56.5"/>
<text text-anchor="middle" x="409" y="-63.5" font-family="Helvetica,sans-Serif" font-size="10.00">cstring</text>
</a>
</g>
</g>
<!-- Node2&#45;&gt;Node7 -->
<g id="edge6" class="edge"><title>Node2&#45;&gt;Node7</title>
<path fill="none" stroke="midnightblue" d="M348.568,-112.324C359.42,-104.185 375.881,-91.8395 388.883,-82.0874"/>
<polygon fill="midnightblue" stroke="midnightblue" points="391.321,-84.6339 397.221,-75.8339 387.121,-79.0339 391.321,-84.6339"/>
</g>
<!-- Node8 -->
<g id="node8" class="node"><title>Node8</title>
<g id="a_node8"><a xlink:title=" ">
<polygon fill="white" stroke="#bfbfbf" points="714,-56.5 714,-75.5 788,-75.5 788,-56.5 714,-56.5"/>
<text text-anchor="middle" x="751" y="-63.5" font-family="Helvetica,sans-Serif" font-size="10.00">system_error</text>
</a>
</g>
</g>
<!-- Node2&#45;&gt;Node8 -->
<g id="edge7" class="edge"><title>Node2&#45;&gt;Node8</title>
<path fill="none" stroke="midnightblue" d="M358.567,-114.244C361.71,-113.404 364.924,-112.623 368,-112 400.217,-105.477 608.401,-82.4796 703.61,-72.1228"/>
<polygon fill="midnightblue" stroke="midnightblue" points="704.262,-75.5726 713.826,-71.0129 703.506,-68.6135 704.262,-75.5726"/>
</g>
<!-- Node9 -->
<g id="node9" class="node"><title>Node9</title>
<g id="a_node9"><a xlink:title=" ">
<polygon fill="white" stroke="#bfbfbf" points="450,-56.5 450,-75.5 512,-75.5 512,-56.5 450,-56.5"/>
<text text-anchor="middle" x="481" y="-63.5" font-family="Helvetica,sans-Serif" font-size="10.00">type_traits</text>
</a>
</g>
</g>
<!-- Node2&#45;&gt;Node9 -->
<g id="edge8" class="edge"><title>Node2&#45;&gt;Node9</title>
<path fill="none" stroke="midnightblue" d="M358.558,-112.916C382.317,-104.006 420.801,-89.5746 448.282,-79.2691"/>
<polygon fill="midnightblue" stroke="midnightblue" points="449.727,-82.4654 457.861,-75.677 447.269,-75.9111 449.727,-82.4654"/>
</g>
<!-- Node10 -->
<g id="node10" class="node"><title>Node10</title>
<g id="a_node10"><a xlink:title=" ">
<polygon fill="white" stroke="#bfbfbf" points="142.5,-56.5 142.5,-75.5 225.5,-75.5 225.5,-56.5 142.5,-56.5"/>
<text text-anchor="middle" x="184" y="-63.5" font-family="Helvetica,sans-Serif" font-size="10.00">unordered_map</text>
</a>
</g>
</g>
<!-- Node2&#45;&gt;Node10 -->
<g id="edge9" class="edge"><title>Node2&#45;&gt;Node10</title>
<path fill="none" stroke="midnightblue" d="M315.403,-113.378C290.019,-104.419 247.589,-89.4432 217.828,-78.9393"/>
<polygon fill="midnightblue" stroke="midnightblue" points="218.859,-75.5915 208.264,-75.5637 216.529,-82.1924 218.859,-75.5915"/>
</g>
<!-- Node11 -->
<g id="node11" class="node"><title>Node11</title>
<g id="a_node11"><a xlink:href="common_8h.html" target="_top" xlink:title="Header with typedefs to make type designation platform independent.">
<polygon fill="white" stroke="black" points="806,-56.5 806,-75.5 868,-75.5 868,-56.5 806,-56.5"/>
<text text-anchor="middle" x="837" y="-63.5" font-family="Helvetica,sans-Serif" font-size="10.00">common.h</text>
</a>
</g>
</g>
<!-- Node2&#45;&gt;Node11 -->
<g id="edge10" class="edge"><title>Node2&#45;&gt;Node11</title>
<path fill="none" stroke="midnightblue" d="M358.548,-114.15C361.695,-113.324 364.914,-112.572 368,-112 552.922,-77.7501 606.076,-104.133 795.623,-76.003"/>
<polygon fill="midnightblue" stroke="midnightblue" points="796.272,-79.4446 805.635,-74.4856 795.223,-72.5236 796.272,-79.4446"/>
</g>
<!-- Node12 -->
<g id="node12" class="node"><title>Node12</title>
<g id="a_node12"><a xlink:title=" ">
<polygon fill="white" stroke="#bfbfbf" points="920,-0.5 920,-19.5 982,-19.5 982,-0.5 920,-0.5"/>
<text text-anchor="middle" x="951" y="-7.5" font-family="Helvetica,sans-Serif" font-size="10.00">arpa/inet.h</text>
</a>
</g>
</g>
<!-- Node11&#45;&gt;Node12 -->
<g id="edge11" class="edge"><title>Node11&#45;&gt;Node12</title>
<path fill="none" stroke="midnightblue" d="M855.064,-56.4435C873.575,-47.6751 902.581,-33.9355 923.855,-23.8579"/>
<polygon fill="midnightblue" stroke="midnightblue" points="925.482,-26.9604 933.021,-19.5164 922.485,-20.6343 925.482,-26.9604"/>
</g>
<!-- Node13 -->
<g id="node13" class="node"><title>Node13</title>
<g id="a_node13"><a xlink:title=" ">
<polygon fill="white" stroke="#bfbfbf" points="1000.5,-0.5 1000.5,-19.5 1047.5,-19.5 1047.5,-0.5 1000.5,-0.5"/>
<text text-anchor="middle" x="1024" y="-7.5" font-family="Helvetica,sans-Serif" font-size="10.00">errno.h</text>
</a>
</g>
</g>
<!-- Node11&#45;&gt;Node13 -->
<g id="edge12" class="edge"><title>Node11&#45;&gt;Node13</title>
<path fill="none" stroke="midnightblue" d="M866.631,-56.4435C900.375,-46.6993 955.379,-30.8158 990.612,-20.6414"/>
<polygon fill="midnightblue" stroke="midnightblue" points="991.792,-23.9437 1000.43,-17.8067 989.85,-17.2185 991.792,-23.9437"/>
</g>
<!-- Node14 -->
<g id="node14" class="node"><title>Node14</title>
<g id="a_node14"><a xlink:title=" ">
<polygon fill="white" stroke="#bfbfbf" points="1065.5,-0.5 1065.5,-19.5 1108.5,-19.5 1108.5,-0.5 1065.5,-0.5"/>
<text text-anchor="middle" x="1087" y="-7.5" font-family="Helvetica,sans-Serif" font-size="10.00">fcntl.h</text>
</a>
</g>
</g>
<!-- Node11&#45;&gt;Node14 -->
<g id="edge13" class="edge"><title>Node11&#45;&gt;Node14</title>
<path fill="none" stroke="midnightblue" d="M868.003,-59.4377C908.765,-51.9488 982.784,-37.7469 1055.58,-19.9364"/>
<polygon fill="midnightblue" stroke="midnightblue" points="1056.51,-23.3127 1065.38,-17.5159 1054.83,-16.5171 1056.51,-23.3127"/>
</g>
<!-- Node15 -->
<g id="node15" class="node"><title>Node15</title>
<g id="a_node15"><a xlink:title=" ">
<polygon fill="white" stroke="#bfbfbf" points="1126.5,-0.5 1126.5,-19.5 1175.5,-19.5 1175.5,-0.5 1126.5,-0.5"/>
<text text-anchor="middle" x="1151" y="-7.5" font-family="Helvetica,sans-Serif" font-size="10.00">netdb.h</text>
</a>
</g>
</g>
<!-- Node11&#45;&gt;Node15 -->
<g id="edge14" class="edge"><title>Node11&#45;&gt;Node15</title>
<path fill="none" stroke="midnightblue" d="M868.131,-60.1761C930.66,-50.4628 1068.96,-28.8512 1116.23,-19.8697"/>
<polygon fill="midnightblue" stroke="midnightblue" points="1117.07,-23.2714 1126.19,-17.8733 1115.69,-16.4081 1117.07,-23.2714"/>
</g>
<!-- Node16 -->
<g id="node16" class="node"><title>Node16</title>
<g id="a_node16"><a xlink:title=" ">
<polygon fill="white" stroke="#bfbfbf" points="589.5,-0.5 589.5,-19.5 654.5,-19.5 654.5,-0.5 589.5,-0.5"/>
<text text-anchor="middle" x="622" y="-7.5" font-family="Helvetica,sans-Serif" font-size="10.00">netinet/in.h</text>
</a>
</g>
</g>
<!-- Node11&#45;&gt;Node16 -->
<g id="edge15" class="edge"><title>Node11&#45;&gt;Node16</title>
<path fill="none" stroke="midnightblue" d="M805.737,-57.1479C768.51,-47.7979 706.152,-32.1359 664.552,-21.6874"/>
<polygon fill="midnightblue" stroke="midnightblue" points="665.262,-18.2571 654.71,-19.2157 663.557,-25.0463 665.262,-18.2571"/>
</g>
<!-- Node17 -->
<g id="node17" class="node"><title>Node17</title>
<g id="a_node17"><a xlink:title=" ">
<polygon fill="white" stroke="#bfbfbf" points="672.5,-0.5 672.5,-19.5 745.5,-19.5 745.5,-0.5 672.5,-0.5"/>
<text text-anchor="middle" x="709" y="-7.5" font-family="Helvetica,sans-Serif" font-size="10.00">sys/socket.h</text>
</a>
</g>
</g>
<!-- Node11&#45;&gt;Node17 -->
<g id="edge16" class="edge"><title>Node11&#45;&gt;Node17</title>
<path fill="none" stroke="midnightblue" d="M816.718,-56.4435C795.653,-47.5566 762.483,-33.5632 738.514,-23.4514"/>
<polygon fill="midnightblue" stroke="midnightblue" points="739.761,-20.1787 729.187,-19.5164 737.04,-26.6283 739.761,-20.1787"/>
</g>
<!-- Node18 -->
<g id="node18" class="node"><title>Node18</title>
<g id="a_node18"><a xlink:title=" ">
<polygon fill="white" stroke="#bfbfbf" points="764,-0.5 764,-19.5 832,-19.5 832,-0.5 764,-0.5"/>
<text text-anchor="middle" x="798" y="-7.5" font-family="Helvetica,sans-Serif" font-size="10.00">sys/types.h</text>
</a>
</g>
</g>
<!-- Node11&#45;&gt;Node18 -->
<g id="edge17" class="edge"><title>Node11&#45;&gt;Node18</title>
<path fill="none" stroke="midnightblue" d="M830.56,-56.083C825.051,-48.4554 816.969,-37.2645 810.235,-27.9408"/>
<polygon fill="midnightblue" stroke="midnightblue" points="813.013,-25.8087 804.32,-19.7511 807.338,-29.9071 813.013,-25.8087"/>
</g>
<!-- Node19 -->
<g id="node19" class="node"><title>Node19</title>
<g id="a_node19"><a xlink:title=" ">
<polygon fill="white" stroke="#bfbfbf" points="850.5,-0.5 850.5,-19.5 901.5,-19.5 901.5,-0.5 850.5,-0.5"/>
<text text-anchor="middle" x="876" y="-7.5" font-family="Helvetica,sans-Serif" font-size="10.00">unistd.h</text>
</a>
</g>
</g>
<!-- Node11&#45;&gt;Node19 -->
<g id="edge18" class="edge"><title>Node11&#45;&gt;Node19</title>
<path fill="none" stroke="midnightblue" d="M843.44,-56.083C848.949,-48.4554 857.031,-37.2645 863.765,-27.9408"/>
<polygon fill="midnightblue" stroke="midnightblue" points="866.662,-29.9071 869.68,-19.7511 860.987,-25.8087 866.662,-29.9071"/>
</g>
<!-- Node20 -->
<g id="node20" class="node"><title>Node20</title>
<g id="a_node20"><a xlink:title=" ">
<polygon fill="white" stroke="#bfbfbf" points="523,-0.5 523,-19.5 571,-19.5 571,-0.5 523,-0.5"/>
<text text-anchor="middle" x="547" y="-7.5" font-family="Helvetica,sans-Serif" font-size="10.00">cstddef</text>
</a>
</g>
</g>
<!-- Node11&#45;&gt;Node20 -->
<g id="edge19" class="edge"><title>Node11&#45;&gt;Node20</title>
<path fill="none" stroke="midnightblue" d="M805.593,-57.756C802.692,-57.1406 799.794,-56.5457 797,-56 704.142,-37.8662 677.225,-40.6781 580.935,-20.0156"/>
<polygon fill="midnightblue" stroke="midnightblue" points="581.596,-16.5775 571.081,-17.8717 580.108,-23.4176 581.596,-16.5775"/>
</g>
<!-- Node21&#45;&gt;Node2 -->
<g id="edge60" class="edge"><title>Node21&#45;&gt;Node2</title>
<path fill="none" stroke="midnightblue" d="M710.813,-289.425C643.656,-289.004 467.988,-278.753 366,-188 352.465,-175.956 344.921,-156.385 340.945,-141.861"/>
<polygon fill="midnightblue" stroke="midnightblue" points="344.302,-140.85 338.561,-131.946 337.496,-142.487 344.302,-140.85"/>
</g>
<!-- Node21&#45;&gt;Node11 -->
<g id="edge57" class="edge"><title>Node21&#45;&gt;Node11</title>
<path fill="none" stroke="midnightblue" d="M744.566,-280.384C751.08,-271.573 761.065,-257.326 768,-244 796.864,-188.538 820.816,-118.158 831.304,-85.3661"/>
<polygon fill="midnightblue" stroke="midnightblue" points="834.662,-86.352 834.332,-75.7623 827.986,-84.247 834.662,-86.352"/>
</g>
<!-- Node22 -->
<g id="node22" class="node"><title>Node22</title>
<g id="a_node22"><a xlink:title=" ">
<polygon fill="white" stroke="#bfbfbf" points="1040.5,-56.5 1040.5,-75.5 1089.5,-75.5 1089.5,-56.5 1040.5,-56.5"/>
<text text-anchor="middle" x="1065" y="-63.5" font-family="Helvetica,sans-Serif" font-size="10.00">cassert</text>
</a>
</g>
</g>
<!-- Node21&#45;&gt;Node22 -->
<g id="edge21" class="edge"><title>Node21&#45;&gt;Node22</title>
<path fill="none" stroke="midnightblue" d="M765.096,-284.964C799.706,-279.125 860.883,-266.476 909,-244 947.994,-225.786 958.337,-219.182 988,-188 1018.62,-155.812 1043.96,-109.717 1056.51,-84.7345"/>
<polygon fill="midnightblue" stroke="midnightblue" points="1059.68,-86.2209 1060.95,-75.7023 1053.39,-83.134 1059.68,-86.2209"/>
</g>
<!-- Node23 -->
<g id="node23" class="node"><title>Node23</title>
<g id="a_node23"><a xlink:title=" ">
<polygon fill="white" stroke="#bfbfbf" points="288,-224.5 288,-243.5 346,-243.5 346,-224.5 288,-224.5"/>
<text text-anchor="middle" x="317" y="-231.5" font-family="Helvetica,sans-Serif" font-size="10.00">functional</text>
</a>
</g>
</g>
<!-- Node21&#45;&gt;Node23 -->
<g id="edge22" class="edge"><title>Node21&#45;&gt;Node23</title>
<path fill="none" stroke="midnightblue" d="M710.842,-286.593C648.566,-280.893 490.764,-265.426 360,-244 358.73,-243.792 357.44,-243.572 356.14,-243.343"/>
<polygon fill="midnightblue" stroke="midnightblue" points="356.555,-239.86 346.079,-241.447 355.258,-246.739 356.555,-239.86"/>
</g>
<!-- Node24 -->
<g id="node24" class="node"><title>Node24</title>
<g id="a_node24"><a xlink:href="address_8h.html" target="_top" xlink:title=" ">
<polygon fill="white" stroke="black" points="554.5,-224.5 554.5,-243.5 613.5,-243.5 613.5,-224.5 554.5,-224.5"/>
<text text-anchor="middle" x="584" y="-231.5" font-family="Helvetica,sans-Serif" font-size="10.00">address.h</text>
</a>
</g>
</g>
<!-- Node21&#45;&gt;Node24 -->
<g id="edge23" class="edge"><title>Node21&#45;&gt;Node24</title>
<path fill="none" stroke="midnightblue" d="M713.598,-280.444C687.803,-271.399 646.923,-257.064 617.982,-246.916"/>
<polygon fill="midnightblue" stroke="midnightblue" points="618.882,-243.523 608.288,-243.516 616.566,-250.128 618.882,-243.523"/>
</g>
<!-- Node29 -->
<g id="node29" class="node"><title>Node29</title>
<g id="a_node29"><a xlink:href="buffer_8h.html" target="_top" xlink:title=" ">
<polygon fill="white" stroke="black" points="651,-112.5 651,-131.5 699,-131.5 699,-112.5 651,-112.5"/>
<text text-anchor="middle" x="675" y="-119.5" font-family="Helvetica,sans-Serif" font-size="10.00">buffer.h</text>
</a>
</g>
</g>
<!-- Node21&#45;&gt;Node29 -->
<g id="edge56" class="edge"><title>Node21&#45;&gt;Node29</title>
<path fill="none" stroke="midnightblue" d="M738.271,-280.256C738.56,-259.569 737.219,-206.477 718,-168 712.307,-156.602 702.736,-146.158 694.068,-138.206"/>
<polygon fill="midnightblue" stroke="midnightblue" points="696.348,-135.551 686.498,-131.649 691.765,-140.842 696.348,-135.551"/>
</g>
<!-- Node33 -->
<g id="node33" class="node"><title>Node33</title>
<g id="a_node33"><a xlink:href="useful__base__types_8h.html" target="_top" xlink:title=" ">
<polygon fill="white" stroke="black" points="906,-56.5 906,-75.5 1012,-75.5 1012,-56.5 906,-56.5"/>
<text text-anchor="middle" x="959" y="-63.5" font-family="Helvetica,sans-Serif" font-size="10.00">useful_base_types.h</text>
</a>
</g>
</g>
<!-- Node21&#45;&gt;Node33 -->
<g id="edge59" class="edge"><title>Node21&#45;&gt;Node33</title>
<path fill="none" stroke="midnightblue" d="M765.056,-282.795C810.802,-271.129 904.275,-242.093 964,-188 991.164,-163.397 1008.36,-146.502 996,-112 992.059,-101.003 984.143,-90.7688 976.64,-82.8479"/>
<polygon fill="midnightblue" stroke="midnightblue" points="979.019,-80.2784 969.438,-75.7555 974.108,-85.2659 979.019,-80.2784"/>
</g>
<!-- Node34 -->
<g id="node34" class="node"><title>Node34</title>
<g id="a_node34"><a xlink:href="exception_8h.html" target="_top" xlink:title=" ">
<polygon fill="white" stroke="black" points="717.5,-112.5 717.5,-131.5 784.5,-131.5 784.5,-112.5 717.5,-112.5"/>
<text text-anchor="middle" x="751" y="-119.5" font-family="Helvetica,sans-Serif" font-size="10.00">exception.h</text>
</a>
</g>
</g>
<!-- Node21&#45;&gt;Node34 -->
<g id="edge58" class="edge"><title>Node21&#45;&gt;Node34</title>
<path fill="none" stroke="midnightblue" d="M741.6,-280.222C745.056,-271.285 750.033,-256.942 752,-244 757.452,-208.124 755.091,-165.574 752.979,-141.689"/>
<polygon fill="midnightblue" stroke="midnightblue" points="756.447,-141.19 751.997,-131.575 749.48,-141.866 756.447,-141.19"/>
</g>
<!-- Node24&#45;&gt;Node2 -->
<g id="edge55" class="edge"><title>Node24&#45;&gt;Node2</title>
<path fill="none" stroke="midnightblue" d="M554.381,-231.652C514.909,-228.659 444.111,-219.022 393,-188 373.572,-176.208 357.41,-155.383 347.522,-140.481"/>
<polygon fill="midnightblue" stroke="midnightblue" points="350.267,-138.273 341.959,-131.698 344.353,-142.018 350.267,-138.273"/>
</g>
<!-- Node25 -->
<g id="node25" class="node"><title>Node25</title>
<g id="a_node25"><a xlink:title=" ">
<polygon fill="white" stroke="#bfbfbf" points="668.5,-168.5 668.5,-187.5 709.5,-187.5 709.5,-168.5 668.5,-168.5"/>
<text text-anchor="middle" x="689" y="-175.5" font-family="Helvetica,sans-Serif" font-size="10.00">string</text>
</a>
</g>
</g>
<!-- Node24&#45;&gt;Node25 -->
<g id="edge24" class="edge"><title>Node24&#45;&gt;Node25</title>
<path fill="none" stroke="midnightblue" d="M600.87,-224.324C617.709,-215.664 643.807,-202.242 663.238,-192.249"/>
<polygon fill="midnightblue" stroke="midnightblue" points="664.88,-195.341 672.172,-187.655 661.678,-189.116 664.88,-195.341"/>
</g>
<!-- Node26 -->
<g id="node26" class="node"><title>Node26</title>
<g id="a_node26"><a xlink:title=" ">
<polygon fill="white" stroke="#bfbfbf" points="402,-168.5 402,-187.5 446,-187.5 446,-168.5 402,-168.5"/>
<text text-anchor="middle" x="424" y="-175.5" font-family="Helvetica,sans-Serif" font-size="10.00">variant</text>
</a>
</g>
</g>
<!-- Node24&#45;&gt;Node26 -->
<g id="edge25" class="edge"><title>Node24&#45;&gt;Node26</title>
<path fill="none" stroke="midnightblue" d="M558.648,-224.444C530.781,-215.038 485.968,-199.914 455.775,-189.724"/>
<polygon fill="midnightblue" stroke="midnightblue" points="456.736,-186.355 446.142,-186.473 454.498,-192.987 456.736,-186.355"/>
</g>
<!-- Node27 -->
<g id="node27" class="node"><title>Node27</title>
<g id="a_node27"><a xlink:href="bin__rw_8h.html" target="_top" xlink:title=" ">
<polygon fill="white" stroke="black" points="464.5,-168.5 464.5,-187.5 517.5,-187.5 517.5,-168.5 464.5,-168.5"/>
<text text-anchor="middle" x="491" y="-175.5" font-family="Helvetica,sans-Serif" font-size="10.00">bin_rw.h</text>
</a>
</g>
</g>
<!-- Node24&#45;&gt;Node27 -->
<g id="edge26" class="edge"><title>Node24&#45;&gt;Node27</title>
<path fill="none" stroke="midnightblue" d="M569.058,-224.324C554.415,-215.822 531.866,-202.729 514.762,-192.797"/>
<polygon fill="midnightblue" stroke="midnightblue" points="516.31,-189.649 505.905,-187.655 512.795,-195.703 516.31,-189.649"/>
</g>
<!-- Node24&#45;&gt;Node29 -->
<g id="edge44" class="edge"><title>Node24&#45;&gt;Node29</title>
<path fill="none" stroke="midnightblue" d="M578.268,-224.243C570.39,-210.993 558.435,-185.539 570,-168 585.571,-144.385 616.384,-133.116 640.621,-127.766"/>
<polygon fill="midnightblue" stroke="midnightblue" points="641.405,-131.179 650.542,-125.816 640.055,-124.31 641.405,-131.179"/>
</g>
<!-- Node24&#45;&gt;Node34 -->
<g id="edge45" class="edge"><title>Node24&#45;&gt;Node34</title>
<path fill="none" stroke="midnightblue" d="M584.053,-224.117C584.627,-210.23 587.786,-183.379 603,-168 610.568,-160.35 666.677,-144.639 707.577,-133.96"/>
<polygon fill="midnightblue" stroke="midnightblue" points="708.545,-137.324 717.348,-131.428 706.789,-130.548 708.545,-137.324"/>
</g>
<!-- Node35 -->
<g id="node35" class="node"><title>Node35</title>
<g id="a_node35"><a xlink:href="sys__socket__ops_8h.html" target="_top" xlink:title=" ">
<polygon fill="white" stroke="black" points="859,-168.5 859,-187.5 955,-187.5 955,-168.5 859,-168.5"/>
<text text-anchor="middle" x="907" y="-175.5" font-family="Helvetica,sans-Serif" font-size="10.00">sys_socket_ops.h</text>
</a>
</g>
</g>
<!-- Node24&#45;&gt;Node35 -->
<g id="edge48" class="edge"><title>Node24&#45;&gt;Node35</title>
<path fill="none" stroke="midnightblue" d="M613.52,-228.065C666.734,-219.168 779.633,-200.294 848.852,-188.721"/>
<polygon fill="midnightblue" stroke="midnightblue" points="849.449,-192.17 858.735,-187.069 848.295,-185.266 849.449,-192.17"/>
</g>
<!-- Node37 -->
<g id="node37" class="node"><title>Node37</title>
<g id="a_node37"><a xlink:href="tag_8h.html" target="_top" xlink:title=" ">
<polygon fill="white" stroke="black" points="612,-168.5 612,-187.5 650,-187.5 650,-168.5 612,-168.5"/>
<text text-anchor="middle" x="631" y="-175.5" font-family="Helvetica,sans-Serif" font-size="10.00">tag.h</text>
</a>
</g>
</g>
<!-- Node24&#45;&gt;Node37 -->
<g id="edge54" class="edge"><title>Node24&#45;&gt;Node37</title>
<path fill="none" stroke="midnightblue" d="M591.761,-224.083C598.537,-216.298 608.543,-204.801 616.755,-195.367"/>
<polygon fill="midnightblue" stroke="midnightblue" points="619.458,-197.592 623.383,-187.751 614.178,-192.996 619.458,-197.592"/>
</g>
<!-- Node27&#45;&gt;Node2 -->
<g id="edge43" class="edge"><title>Node27&#45;&gt;Node2</title>
<path fill="none" stroke="midnightblue" d="M466.598,-168.444C440.045,-159.133 397.506,-144.216 368.46,-134.032"/>
<polygon fill="midnightblue" stroke="midnightblue" points="369.392,-130.65 358.798,-130.643 367.076,-137.255 369.392,-130.65"/>
</g>
<!-- Node27&#45;&gt;Node7 -->
<g id="edge28" class="edge"><title>Node27&#45;&gt;Node7</title>
<path fill="none" stroke="midnightblue" d="M484.566,-168.368C470.973,-150.135 439.136,-107.426 421.431,-83.6752"/>
<polygon fill="midnightblue" stroke="midnightblue" points="424.187,-81.5171 415.405,-75.5914 418.575,-85.7007 424.187,-81.5171"/>
</g>
<!-- Node27&#45;&gt;Node9 -->
<g id="edge29" class="edge"><title>Node27&#45;&gt;Node9</title>
<path fill="none" stroke="midnightblue" d="M490.215,-168.368C488.602,-150.617 484.879,-109.666 482.691,-85.5974"/>
<polygon fill="midnightblue" stroke="midnightblue" points="486.172,-85.2334 481.781,-75.5914 479.201,-85.8673 486.172,-85.2334"/>
</g>
<!-- Node28 -->
<g id="node28" class="node"><title>Node28</title>
<g id="a_node28"><a xlink:title=" ">
<polygon fill="white" stroke="#bfbfbf" points="377,-112.5 377,-131.5 433,-131.5 433,-112.5 377,-112.5"/>
<text text-anchor="middle" x="405" y="-119.5" font-family="Helvetica,sans-Serif" font-size="10.00">algorithm</text>
</a>
</g>
</g>
<!-- Node27&#45;&gt;Node28 -->
<g id="edge27" class="edge"><title>Node27&#45;&gt;Node28</title>
<path fill="none" stroke="midnightblue" d="M477.183,-168.324C463.767,-159.9 443.176,-146.971 427.414,-137.074"/>
<polygon fill="midnightblue" stroke="midnightblue" points="429.113,-134.008 418.783,-131.655 425.391,-139.936 429.113,-134.008"/>
</g>
<!-- Node27&#45;&gt;Node29 -->
<g id="edge30" class="edge"><title>Node27&#45;&gt;Node29</title>
<path fill="none" stroke="midnightblue" d="M517.755,-169.148C550.323,-159.59 605.363,-143.437 640.93,-132.999"/>
<polygon fill="midnightblue" stroke="midnightblue" points="642.243,-136.261 650.853,-130.087 640.272,-129.544 642.243,-136.261"/>
</g>
<!-- Node31 -->
<g id="node31" class="node"><title>Node31</title>
<g id="a_node31"><a xlink:href="endian_8h.html" target="_top" xlink:title=" ">
<polygon fill="white" stroke="black" points="530.5,-112.5 530.5,-131.5 583.5,-131.5 583.5,-112.5 530.5,-112.5"/>
<text text-anchor="middle" x="557" y="-119.5" font-family="Helvetica,sans-Serif" font-size="10.00">endian.h</text>
</a>
</g>
</g>
<!-- Node27&#45;&gt;Node31 -->
<g id="edge37" class="edge"><title>Node27&#45;&gt;Node31</title>
<path fill="none" stroke="midnightblue" d="M501.604,-168.324C511.456,-160.263 526.351,-148.077 538.215,-138.369"/>
<polygon fill="midnightblue" stroke="midnightblue" points="540.68,-140.875 546.203,-131.834 536.247,-135.457 540.68,-140.875"/>
</g>
<!-- Node29&#45;&gt;Node8 -->
<g id="edge34" class="edge"><title>Node29&#45;&gt;Node8</title>
<path fill="none" stroke="midnightblue" d="M687.211,-112.324C698.776,-104.107 716.375,-91.6017 730.161,-81.8069"/>
<polygon fill="midnightblue" stroke="midnightblue" points="732.443,-84.4791 738.567,-75.8339 728.388,-78.7729 732.443,-84.4791"/>
</g>
<!-- Node29&#45;&gt;Node9 -->
<g id="edge35" class="edge"><title>Node29&#45;&gt;Node9</title>
<path fill="none" stroke="midnightblue" d="M650.822,-114.27C618.468,-105.264 560.64,-89.1679 521.558,-78.2895"/>
<polygon fill="midnightblue" stroke="midnightblue" points="522.134,-74.8167 511.562,-75.5069 520.257,-81.5603 522.134,-74.8167"/>
</g>
<!-- Node29&#45;&gt;Node11 -->
<g id="edge36" class="edge"><title>Node29&#45;&gt;Node11</title>
<path fill="none" stroke="midnightblue" d="M699.253,-112.916C726.413,-103.862 770.678,-89.1073 801.68,-78.7735"/>
<polygon fill="midnightblue" stroke="midnightblue" points="802.86,-82.0693 811.24,-75.5865 800.647,-75.4285 802.86,-82.0693"/>
</g>
<!-- Node29&#45;&gt;Node20 -->
<g id="edge32" class="edge"><title>Node29&#45;&gt;Node20</title>
<path fill="none" stroke="midnightblue" d="M676.53,-112.367C678.415,-98.8231 679.946,-72.4337 667,-56 661.401,-48.892 614.464,-32.6473 580.985,-21.7475"/>
<polygon fill="midnightblue" stroke="midnightblue" points="581.679,-18.2939 571.088,-18.5525 579.529,-24.9554 581.679,-18.2939"/>
</g>
<!-- Node29&#45;&gt;Node22 -->
<g id="edge31" class="edge"><title>Node29&#45;&gt;Node22</title>
<path fill="none" stroke="midnightblue" d="M699.052,-113.987C702.049,-113.248 705.084,-112.562 708,-112 845.498,-85.5018 882.719,-98.0515 1021,-76 1024.06,-75.5123 1027.23,-74.9593 1030.4,-74.373"/>
<polygon fill="midnightblue" stroke="midnightblue" points="1031.25,-77.7719 1040.4,-72.4259 1029.92,-70.9009 1031.25,-77.7719"/>
</g>
<!-- Node30 -->
<g id="node30" class="node"><title>Node30</title>
<g id="a_node30"><a xlink:title=" ">
<polygon fill="white" stroke="#bfbfbf" points="612,-56.5 612,-75.5 658,-75.5 658,-56.5 612,-56.5"/>
<text text-anchor="middle" x="635" y="-63.5" font-family="Helvetica,sans-Serif" font-size="10.00">cstdint</text>
</a>
</g>
</g>
<!-- Node29&#45;&gt;Node30 -->
<g id="edge33" class="edge"><title>Node29&#45;&gt;Node30</title>
<path fill="none" stroke="midnightblue" d="M668.395,-112.083C662.745,-104.455 654.455,-93.2645 647.549,-83.9408"/>
<polygon fill="midnightblue" stroke="midnightblue" points="650.247,-81.7034 641.482,-75.7511 644.622,-85.87 650.247,-81.7034"/>
</g>
<!-- Node31&#45;&gt;Node7 -->
<g id="edge39" class="edge"><title>Node31&#45;&gt;Node7</title>
<path fill="none" stroke="midnightblue" d="M533.549,-112.444C508.867,-103.438 469.815,-89.1891 442.023,-79.049"/>
<polygon fill="midnightblue" stroke="midnightblue" points="442.935,-75.6561 432.341,-75.5164 440.536,-82.2321 442.935,-75.6561"/>
</g>
<!-- Node31&#45;&gt;Node9 -->
<g id="edge41" class="edge"><title>Node31&#45;&gt;Node9</title>
<path fill="none" stroke="midnightblue" d="M544.789,-112.324C533.224,-104.107 515.625,-91.6017 501.839,-81.8069"/>
<polygon fill="midnightblue" stroke="midnightblue" points="503.612,-78.7729 493.433,-75.8339 499.557,-84.4791 503.612,-78.7729"/>
</g>
<!-- Node31&#45;&gt;Node30 -->
<g id="edge38" class="edge"><title>Node31&#45;&gt;Node30</title>
<path fill="none" stroke="midnightblue" d="M569.532,-112.324C581.586,-103.979 600.027,-91.2122 614.269,-81.3524"/>
<polygon fill="midnightblue" stroke="midnightblue" points="616.269,-84.2243 622.499,-75.6545 612.285,-78.469 616.269,-84.2243"/>
</g>
<!-- Node32 -->
<g id="node32" class="node"><title>Node32</title>
<g id="a_node32"><a xlink:title=" ">
<polygon fill="white" stroke="#bfbfbf" points="530,-56.5 530,-75.5 594,-75.5 594,-56.5 530,-56.5"/>
<text text-anchor="middle" x="562" y="-63.5" font-family="Helvetica,sans-Serif" font-size="10.00">string_view</text>
</a>
</g>
</g>
<!-- Node31&#45;&gt;Node32 -->
<g id="edge40" class="edge"><title>Node31&#45;&gt;Node32</title>
<path fill="none" stroke="midnightblue" d="M557.826,-112.083C558.481,-105.006 559.42,-94.8611 560.242,-85.9865"/>
<polygon fill="midnightblue" stroke="midnightblue" points="563.753,-86.0312 561.19,-75.7511 556.783,-85.3858 563.753,-86.0312"/>
</g>
<!-- Node31&#45;&gt;Node33 -->
<g id="edge42" class="edge"><title>Node31&#45;&gt;Node33</title>
<path fill="none" stroke="midnightblue" d="M583.688,-117.415C646.755,-108.943 806.4,-87.4985 895.829,-75.4856"/>
<polygon fill="midnightblue" stroke="midnightblue" points="896.401,-78.9403 905.846,-74.14 895.469,-72.0026 896.401,-78.9403"/>
</g>
<!-- Node34&#45;&gt;Node8 -->
<g id="edge46" class="edge"><title>Node34&#45;&gt;Node8</title>
<path fill="none" stroke="midnightblue" d="M751,-112.083C751,-105.006 751,-94.8611 751,-85.9865"/>
<polygon fill="midnightblue" stroke="midnightblue" points="754.5,-85.751 751,-75.7511 747.5,-85.7511 754.5,-85.751"/>
</g>
<!-- Node34&#45;&gt;Node11 -->
<g id="edge47" class="edge"><title>Node34&#45;&gt;Node11</title>
<path fill="none" stroke="midnightblue" d="M764.817,-112.324C778.233,-103.9 798.824,-90.9709 814.586,-81.0741"/>
<polygon fill="midnightblue" stroke="midnightblue" points="816.609,-83.9364 823.217,-75.6545 812.887,-78.0081 816.609,-83.9364"/>
</g>
<!-- Node35&#45;&gt;Node11 -->
<g id="edge49" class="edge"><title>Node35&#45;&gt;Node11</title>
<path fill="none" stroke="midnightblue" d="M899.028,-168.476C891.094,-159.737 878.855,-145.545 870,-132 860.165,-116.954 851.085,-98.5957 844.95,-85.2315"/>
<polygon fill="midnightblue" stroke="midnightblue" points="847.983,-83.4406 840.703,-75.7432 841.594,-86.3005 847.983,-83.4406"/>
</g>
<!-- Node35&#45;&gt;Node33 -->
<g id="edge53" class="edge"><title>Node35&#45;&gt;Node33</title>
<path fill="none" stroke="midnightblue" d="M933.211,-168.414C949.85,-161.445 970.057,-149.809 980,-132 988.455,-116.856 980.395,-97.8014 971.931,-84.2465"/>
<polygon fill="midnightblue" stroke="midnightblue" points="974.733,-82.1431 966.205,-75.8568 968.952,-86.0894 974.733,-82.1431"/>
</g>
<!-- Node36 -->
<g id="node36" class="node"><title>Node36</title>
<g id="a_node36"><a xlink:href="sys__error__code_8h.html" target="_top" xlink:title=" ">
<polygon fill="white" stroke="black" points="879,-112.5 879,-131.5 971,-131.5 971,-112.5 879,-112.5"/>
<text text-anchor="middle" x="925" y="-119.5" font-family="Helvetica,sans-Serif" font-size="10.00">sys_error_code.h</text>
</a>
</g>
</g>
<!-- Node35&#45;&gt;Node36 -->
<g id="edge50" class="edge"><title>Node35&#45;&gt;Node36</title>
<path fill="none" stroke="midnightblue" d="M909.972,-168.083C912.384,-160.849 915.864,-150.409 918.868,-141.397"/>
<polygon fill="midnightblue" stroke="midnightblue" points="922.241,-142.345 922.083,-131.751 915.6,-140.131 922.241,-142.345"/>
</g>
<!-- Node36&#45;&gt;Node11 -->
<g id="edge51" class="edge"><title>Node36&#45;&gt;Node11</title>
<path fill="none" stroke="midnightblue" d="M910.861,-112.324C897.134,-103.9 876.064,-90.9709 859.936,-81.0741"/>
<polygon fill="midnightblue" stroke="midnightblue" points="861.457,-77.9016 851.104,-75.6545 857.796,-83.8678 861.457,-77.9016"/>
</g>
<!-- Node36&#45;&gt;Node33 -->
<g id="edge52" class="edge"><title>Node36&#45;&gt;Node33</title>
<path fill="none" stroke="midnightblue" d="M930.614,-112.083C935.367,-104.534 942.318,-93.4948 948.152,-84.2298"/>
<polygon fill="midnightblue" stroke="midnightblue" points="951.124,-86.0783 953.49,-75.7511 945.2,-82.3486 951.124,-86.0783"/>
</g>
</g>
</svg>
        <g id="navigator" transform="translate(0 0)" fill="#404254">
                <rect fill="#f2f5e9" fill-opacity="0.5" stroke="#606060" stroke-width=".5" x="0" y="0" width="60" height="60"/>
                <use id="zoomplus" xlink:href="#zoomPlus" x="17" y="9" onmousedown="handleZoom(evt,'in')"/>
                <use id="zoomminus" xlink:href="#zoomMin" x="42" y="9" onmousedown="handleZoom(evt,'out')"/>
                <use id="reset" xlink:href="#resetDef" x="30" y="36" onmousedown="handleReset()"/>
                <g id="arrowUp" xlink:href="#dirArrow" transform="translate(30 24)" onmousedown="handlePan(0,-1)">
                  <use xlink:href="#rim" fill="#404040">
                        <set attributeName="fill" to="#808080" begin="arrowUp.mouseover" end="arrowUp.mouseout"/>
                  </use>
                  <path fill="none" stroke="white" stroke-width="1.5" d="M0,-3.0v7 M-2.5,-0.5L0,-3.0L2.5,-0.5"/>
                </g>
                <g id="arrowRight" xlink:href="#dirArrow" transform="rotate(90) translate(36 -43)" onmousedown="handlePan(1,0)">
                  <use xlink:href="#rim" fill="#404040">
                        <set attributeName="fill" to="#808080" begin="arrowRight.mouseover" end="arrowRight.mouseout"/>
                  </use>
                  <path fill="none" stroke="white" stroke-width="1.5" d="M0,-3.0v7 M-2.5,-0.5L0,-3.0L2.5,-0.5"/>
                </g>
                <g id="arrowDown" xlink:href="#dirArrow" transform="rotate(180) translate(-30 -48)" onmousedown="handlePan(0,1)">
                  <use xlink:href="#rim" fill="#404040">
                        <set attributeName="fill" to="#808080" begin="arrowDown.mouseover" end="arrowDown.mouseout"/>
                  </use>
                  <path fill="none" stroke="white" stroke-width="1.5" d="M0,-3.0v7 M-2.5,-0.5L0,-3.0L2.5,-0.5"/>
                </g>
                <g id="arrowLeft" xlink:href="#dirArrow" transform="rotate(270) translate(-36 17)" onmousedown="handlePan(-1,0)">
                  <use xlink:href="#rim" fill="#404040">
                        <set attributeName="fill" to="#808080" begin="arrowLeft.mouseover" end="arrowLeft.mouseout"/>
                  </use>
                  <path fill="none" stroke="white" stroke-width="1.5" d="M0,-3.0v7 M-2.5,-0.5L0,-3.0L2.5,-0.5"/>
                </g>
        </g>
        <svg viewBox="0 0 15 15" width="100%" height="30px" preserveAspectRatio="xMaxYMin meet">
         <g id="arrow_out" transform="scale(0.3 0.3)">
          <a xlink:href="udp_8h__incl_org.svg" target="_base">
           <rect id="button" ry="5" rx="5" y="6" x="6" height="38" width="38"
                fill="#f2f5e9" fill-opacity="0.5" stroke="#606060" stroke-width="1.0"/>
           <path id="arrow"
             d="M 11.500037,31.436501 C 11.940474,20.09759 22.043105,11.32322 32.158766,21.979434 L 37.068811,17.246167 C 37.068811,17.246167 37.088388,32 37.088388,32 L 22.160133,31.978069 C 22.160133,31.978069 26.997745,27.140456 26.997745,27.140456 C 18.528582,18.264221 13.291696,25.230495 11.500037,31.436501 z"
             style="fill:#404040;"/>
          </a>
         </g>
        </svg>
</svg>
