<?xml version="1.0" encoding="UTF-8" standalone="no"?>
<!DOCTYPE svg PUBLIC "-//W3C//DTD SVG 1.1//EN"
 "http://www.w3.org/Graphics/SVG/1.1/DTD/svg11.dtd">
<!-- Generated by graphviz version 2.38.0 (20140413.2041)
 -->
<!-- Title: C:/projects/ndt/sources/include/ndt/useful_base_types.h Pages: 1 -->
<!--zoomable 719 -->
<svg id="main" version="1.1" xmlns="http://www.w3.org/2000/svg" xmlns:xlink="http://www.w3.org/1999/xlink" xml:space="preserve" onload="init(evt)">
<style type="text/css"><![CDATA[
.edge:hover path { stroke: red; }
.edge:hover polygon { stroke: red; fill: red; }
]]></style>
<script type="text/javascript"><![CDATA[
var edges = document.getElementsByTagName('g');
if (edges && edges.length) {
  for (var i=0;i<edges.length;i++) {
    if (edges[i].id.substr(0,4)=='edge') {
      edges[i].setAttribute('class','edge');
    }
  }
}
]]></script>
        <defs>
                <circle id="rim" cx="0" cy="0" r="7"/>
                <circle id="rim2" cx="0" cy="0" r="3.5"/>
                <g id="zoomPlus">
                        <use xlink:href="#rim" fill="#404040">
                                <set attributeName="fill" to="#808080" begin="zoomplus.mouseover" end="zoomplus.mouseout"/>
                        </use>
                        <path d="M-4,0h8M0,-4v8" fill="none" stroke="white" stroke-width="1.5" pointer-events="none"/>
                </g>
                <g id="zoomMin">
                        <use xlink:href="#rim" fill="#404040">
                                <set attributeName="fill" to="#808080" begin="zoomminus.mouseover" end="zoomminus.mouseout"/>
                        </use>
                        <path d="M-4,0h8" fill="none" stroke="white" stroke-width="1.5" pointer-events="none"/>
                </g>
                <g id="dirArrow">
                        <path fill="none" stroke="white" stroke-width="1.5" d="M0,-3.0v7 M-2.5,-0.5L0,-3.0L2.5,-0.5"/>
                </g>
               <g id="resetDef">
                       <use xlink:href="#rim2" fill="#404040">
                               <set attributeName="fill" to="#808080" begin="reset.mouseover" end="reset.mouseout"/>
                       </use>
               </g>
        </defs>

<script type="text/javascript">
var viewWidth = 1797;
var viewHeight = 719;
var sectionId = 'dynsection-0';
</script>
<script xlink:href="svgpan.js"/>
<svg id="graph" class="graph">
<g id="viewport">
<title>C:/projects/ndt/sources/include/ndt/useful_base_types.h</title>
<polygon fill="white" stroke="none" points="-4,4 -4,-715 1793,-715 1793,4 -4,4"/>
<!-- Node1 -->
<g id="node1" class="node"><title>Node1</title>
<g id="a_node1"><a xlink:title=" ">
<polygon fill="#bfbfbf" stroke="black" points="1272,-669.5 1272,-710.5 1394,-710.5 1394,-669.5 1272,-669.5"/>
<text text-anchor="start" x="1280" y="-698.5" font-family="Helvetica,sans-Serif" font-size="10.00">C:/projects/ndt/sources</text>
<text text-anchor="start" x="1280" y="-687.5" font-family="Helvetica,sans-Serif" font-size="10.00">/include/ndt/useful_base</text>
<text text-anchor="middle" x="1333" y="-676.5" font-family="Helvetica,sans-Serif" font-size="10.00">_types.h</text>
</a>
</g>
</g>
<!-- Node2 -->
<g id="node2" class="node"><title>Node2</title>
<g id="a_node2"><a xlink:href="core_8h.html" target="_top" xlink:title=" ">
<polygon fill="white" stroke="black" points="576,-0.5 576,-30.5 694,-30.5 694,-0.5 576,-0.5"/>
<text text-anchor="start" x="584" y="-18.5" font-family="Helvetica,sans-Serif" font-size="10.00">C:/projects/ndt/sources</text>
<text text-anchor="middle" x="635" y="-7.5" font-family="Helvetica,sans-Serif" font-size="10.00">/include/ndt/core.h</text>
</a>
</g>
</g>
<!-- Node1&#45;&gt;Node2 -->
<g id="edge1" class="edge"><title>Node1&#45;&gt;Node2</title>
<path fill="none" stroke="midnightblue" d="M1404.3,-684.337C1495.83,-674.039 1643,-640.999 1643,-535 1643,-535 1643,-535 1643,-165 1643,-68.485 910.363,-28.6024 694.292,-18.9389"/>
<polygon fill="midnightblue" stroke="midnightblue" points="1403.82,-680.867 1394.25,-685.402 1404.56,-687.828 1403.82,-680.867"/>
</g>
<!-- Node3 -->
<g id="node3" class="node"><title>Node3</title>
<g id="a_node3"><a xlink:href="endian_8h.html" target="_top" xlink:title=" ">
<polygon fill="white" stroke="black" points="272,-229 272,-259 390,-259 390,-229 272,-229"/>
<text text-anchor="start" x="280" y="-247" font-family="Helvetica,sans-Serif" font-size="10.00">C:/projects/ndt/sources</text>
<text text-anchor="middle" x="331" y="-236" font-family="Helvetica,sans-Serif" font-size="10.00">/include/ndt/endian.h</text>
</a>
</g>
</g>
<!-- Node1&#45;&gt;Node3 -->
<g id="edge2" class="edge"><title>Node1&#45;&gt;Node3</title>
<path fill="none" stroke="midnightblue" d="M1261.65,-685.188C1037.77,-672.286 364,-625.906 364,-535 364,-535 364,-535 364,-393.5 364,-343.057 345.63,-285.221 336.302,-259.103"/>
<polygon fill="midnightblue" stroke="midnightblue" points="1261.47,-688.683 1271.65,-685.759 1261.87,-681.694 1261.47,-688.683"/>
</g>
<!-- Node9 -->
<g id="node9" class="node"><title>Node9</title>
<g id="a_node9"><a xlink:href="file_8h.html" target="_top" xlink:title=" ">
<polygon fill="white" stroke="black" points="1497,-446.5 1497,-476.5 1615,-476.5 1615,-446.5 1497,-446.5"/>
<text text-anchor="start" x="1505" y="-464.5" font-family="Helvetica,sans-Serif" font-size="10.00">C:/projects/ndt/sources</text>
<text text-anchor="middle" x="1556" y="-453.5" font-family="Helvetica,sans-Serif" font-size="10.00">/include/ndt/file.h</text>
</a>
</g>
</g>
<!-- Node1&#45;&gt;Node9 -->
<g id="edge12" class="edge"><title>Node1&#45;&gt;Node9</title>
<path fill="none" stroke="midnightblue" d="M1378.54,-663.93C1393.31,-654.963 1409.38,-644.266 1423,-633 1480.86,-585.15 1529.49,-508.001 1548,-476.538"/>
<polygon fill="midnightblue" stroke="midnightblue" points="1376.35,-661.159 1369.55,-669.28 1379.93,-667.174 1376.35,-661.159"/>
</g>
<!-- Node11 -->
<g id="node11" class="node"><title>Node11</title>
<g id="a_node11"><a xlink:href="nix_2context__base_8h.html" target="_top" xlink:title=" ">
<polygon fill="white" stroke="black" points="471,-513.5 471,-554.5 589,-554.5 589,-513.5 471,-513.5"/>
<text text-anchor="start" x="479" y="-542.5" font-family="Helvetica,sans-Serif" font-size="10.00">C:/projects/ndt/sources</text>
<text text-anchor="start" x="479" y="-531.5" font-family="Helvetica,sans-Serif" font-size="10.00">/include/ndt/platform</text>
<text text-anchor="middle" x="530" y="-520.5" font-family="Helvetica,sans-Serif" font-size="10.00">/nix/context_base.h</text>
</a>
</g>
</g>
<!-- Node1&#45;&gt;Node11 -->
<g id="edge14" class="edge"><title>Node1&#45;&gt;Node11</title>
<path fill="none" stroke="midnightblue" d="M1261.73,-680.542C1184.04,-670.884 1056.2,-653.712 947,-633 818.405,-608.609 669.53,-571.435 589.042,-550.584"/>
<polygon fill="midnightblue" stroke="midnightblue" points="1261.54,-684.045 1271.89,-681.798 1262.4,-677.097 1261.54,-684.045"/>
</g>
<!-- Node13 -->
<g id="node13" class="node"><title>Node13</title>
<g id="a_node13"><a xlink:href="win_2context__base_8h.html" target="_top" xlink:title=" ">
<polygon fill="white" stroke="black" points="1671,-591.5 1671,-632.5 1789,-632.5 1789,-591.5 1671,-591.5"/>
<text text-anchor="start" x="1679" y="-620.5" font-family="Helvetica,sans-Serif" font-size="10.00">C:/projects/ndt/sources</text>
<text text-anchor="start" x="1679" y="-609.5" font-family="Helvetica,sans-Serif" font-size="10.00">/include/ndt/platform</text>
<text text-anchor="middle" x="1730" y="-598.5" font-family="Helvetica,sans-Serif" font-size="10.00">/win/context_base.h</text>
</a>
</g>
</g>
<!-- Node1&#45;&gt;Node13 -->
<g id="edge17" class="edge"><title>Node1&#45;&gt;Node13</title>
<path fill="none" stroke="midnightblue" d="M1404.53,-678.662C1470.44,-668.657 1570.79,-652.212 1657,-633 1661.49,-632 1666.12,-630.899 1670.76,-629.744"/>
<polygon fill="midnightblue" stroke="midnightblue" points="1403.62,-675.259 1394.25,-680.212 1404.66,-682.181 1403.62,-675.259"/>
</g>
<!-- Node14 -->
<g id="node14" class="node"><title>Node14</title>
<g id="a_node14"><a xlink:href="socket_8h.html" target="_top" xlink:title=" ">
<polygon fill="white" stroke="black" points="830,-379.5 830,-409.5 948,-409.5 948,-379.5 830,-379.5"/>
<text text-anchor="start" x="838" y="-397.5" font-family="Helvetica,sans-Serif" font-size="10.00">C:/projects/ndt/sources</text>
<text text-anchor="middle" x="889" y="-386.5" font-family="Helvetica,sans-Serif" font-size="10.00">/include/ndt/socket.h</text>
</a>
</g>
</g>
<!-- Node1&#45;&gt;Node14 -->
<g id="edge18" class="edge"><title>Node1&#45;&gt;Node14</title>
<path fill="none" stroke="midnightblue" d="M1294.28,-663.885C1279.47,-654.254 1262.43,-643.144 1247,-633 1118.91,-548.814 965.778,-446.745 910.344,-409.752"/>
<polygon fill="midnightblue" stroke="midnightblue" points="1292.42,-666.852 1302.71,-669.367 1296.23,-660.982 1292.42,-666.852"/>
</g>
<!-- Node22 -->
<g id="node22" class="node"><title>Node22</title>
<g id="a_node22"><a xlink:href="sys__error__code_8h.html" target="_top" xlink:title=" ">
<polygon fill="white" stroke="black" points="1274,-591.5 1274,-632.5 1392,-632.5 1392,-591.5 1274,-591.5"/>
<text text-anchor="start" x="1282" y="-620.5" font-family="Helvetica,sans-Serif" font-size="10.00">C:/projects/ndt/sources</text>
<text text-anchor="start" x="1282" y="-609.5" font-family="Helvetica,sans-Serif" font-size="10.00">/include/ndt/sys_error</text>
<text text-anchor="middle" x="1333" y="-598.5" font-family="Helvetica,sans-Serif" font-size="10.00">_code.h</text>
</a>
</g>
</g>
<!-- Node1&#45;&gt;Node22 -->
<g id="edge33" class="edge"><title>Node1&#45;&gt;Node22</title>
<path fill="none" stroke="midnightblue" d="M1333,-659.297C1333,-650.301 1333,-640.653 1333,-632.506"/>
<polygon fill="midnightblue" stroke="midnightblue" points="1329.5,-659.428 1333,-669.428 1336.5,-659.428 1329.5,-659.428"/>
</g>
<!-- Node23 -->
<g id="node23" class="node"><title>Node23</title>
<g id="a_node23"><a xlink:href="sys__file__ops_8h.html" target="_top" xlink:title=" ">
<polygon fill="white" stroke="black" points="1354,-519 1354,-549 1486,-549 1486,-519 1354,-519"/>
<text text-anchor="start" x="1362" y="-537" font-family="Helvetica,sans-Serif" font-size="10.00">C:/projects/ndt/sources</text>
<text text-anchor="middle" x="1420" y="-526" font-family="Helvetica,sans-Serif" font-size="10.00">/include/ndt/sys_file_ops.h</text>
</a>
</g>
</g>
<!-- Node1&#45;&gt;Node23 -->
<g id="edge44" class="edge"><title>Node1&#45;&gt;Node23</title>
<path fill="none" stroke="midnightblue" d="M1373.37,-663.376C1383.83,-654.903 1394.08,-644.626 1401,-633 1416.86,-606.34 1419.83,-569.049 1420.18,-549.029"/>
<polygon fill="midnightblue" stroke="midnightblue" points="1371.19,-660.636 1365.38,-669.496 1375.45,-666.192 1371.19,-660.636"/>
</g>
<!-- Node25 -->
<g id="node25" class="node"><title>Node25</title>
<g id="a_node25"><a xlink:href="sys__socket__ops_8h.html" target="_top" xlink:title=" ">
<polygon fill="white" stroke="black" points="1171.5,-519 1171.5,-549 1320.5,-549 1320.5,-519 1171.5,-519"/>
<text text-anchor="start" x="1179.5" y="-537" font-family="Helvetica,sans-Serif" font-size="10.00">C:/projects/ndt/sources</text>
<text text-anchor="middle" x="1246" y="-526" font-family="Helvetica,sans-Serif" font-size="10.00">/include/ndt/sys_socket_ops.h</text>
</a>
</g>
</g>
<!-- Node1&#45;&gt;Node25 -->
<g id="edge45" class="edge"><title>Node1&#45;&gt;Node25</title>
<path fill="none" stroke="midnightblue" d="M1292.63,-663.376C1282.17,-654.903 1271.92,-644.626 1265,-633 1249.14,-606.34 1246.17,-569.049 1245.82,-549.029"/>
<polygon fill="midnightblue" stroke="midnightblue" points="1290.55,-666.192 1300.62,-669.496 1294.81,-660.636 1290.55,-666.192"/>
</g>
<!-- Node3&#45;&gt;Node2 -->
<g id="edge10" class="edge"><title>Node3&#45;&gt;Node2</title>
<path fill="none" stroke="midnightblue" d="M319.673,-219.513C311.337,-198.563 303.572,-167.774 317,-145 370.002,-55.1088 499.463,-28.0715 575.861,-19.9586"/>
<polygon fill="midnightblue" stroke="midnightblue" points="316.556,-221.124 323.721,-228.928 322.987,-218.359 316.556,-221.124"/>
</g>
<!-- Node4 -->
<g id="node4" class="node"><title>Node4</title>
<g id="a_node4"><a xlink:href="bin__rw_8h.html" target="_top" xlink:title=" ">
<polygon fill="white" stroke="black" points="152,-151 152,-181 270,-181 270,-151 152,-151"/>
<text text-anchor="start" x="160" y="-169" font-family="Helvetica,sans-Serif" font-size="10.00">C:/projects/ndt/sources</text>
<text text-anchor="middle" x="211" y="-158" font-family="Helvetica,sans-Serif" font-size="10.00">/include/ndt/bin_rw.h</text>
</a>
</g>
</g>
<!-- Node3&#45;&gt;Node4 -->
<g id="edge3" class="edge"><title>Node3&#45;&gt;Node4</title>
<path fill="none" stroke="midnightblue" d="M300.158,-223.467C279.209,-210.199 251.995,-192.963 233.17,-181.041"/>
<polygon fill="midnightblue" stroke="midnightblue" points="298.389,-226.489 308.71,-228.883 302.135,-220.576 298.389,-226.489"/>
</g>
<!-- Node8 -->
<g id="node8" class="node"><title>Node8</title>
<g id="a_node8"><a xlink:href="endian_8cpp.html" target="_top" xlink:title=" ">
<polygon fill="white" stroke="black" points="326,-151 326,-181 444,-181 444,-151 326,-151"/>
<text text-anchor="start" x="334" y="-169" font-family="Helvetica,sans-Serif" font-size="10.00">C:/projects/ndt/sources</text>
<text text-anchor="middle" x="385" y="-158" font-family="Helvetica,sans-Serif" font-size="10.00">/src/endian.cpp</text>
</a>
</g>
</g>
<!-- Node3&#45;&gt;Node8 -->
<g id="edge11" class="edge"><title>Node3&#45;&gt;Node8</title>
<path fill="none" stroke="midnightblue" d="M347.029,-220.441C356.057,-207.735 367.057,-192.254 374.889,-181.231"/>
<polygon fill="midnightblue" stroke="midnightblue" points="344.096,-218.526 341.157,-228.705 349.802,-222.58 344.096,-218.526"/>
</g>
<!-- Node4&#45;&gt;Node2 -->
<g id="edge4" class="edge"><title>Node4&#45;&gt;Node2</title>
<path fill="none" stroke="midnightblue" d="M243.145,-145.121C258.915,-134.92 277.928,-121.94 294,-109 315.058,-92.0462 313.839,-79.1298 338,-67 414.073,-28.8075 513.459,-18.7657 575.769,-16.5176"/>
<polygon fill="midnightblue" stroke="midnightblue" points="240.823,-142.451 234.28,-150.784 244.592,-148.349 240.823,-142.451"/>
</g>
<!-- Node5 -->
<g id="node5" class="node"><title>Node5</title>
<g id="a_node5"><a xlink:href="packet_8h.html" target="_top" xlink:title=" ">
<polygon fill="white" stroke="black" points="0,-73 0,-103 118,-103 118,-73 0,-73"/>
<text text-anchor="start" x="8" y="-91" font-family="Helvetica,sans-Serif" font-size="10.00">C:/projects/ndt/sources</text>
<text text-anchor="middle" x="59" y="-80" font-family="Helvetica,sans-Serif" font-size="10.00">/include/ndt/packet.h</text>
</a>
</g>
</g>
<!-- Node4&#45;&gt;Node5 -->
<g id="edge5" class="edge"><title>Node4&#45;&gt;Node5</title>
<path fill="none" stroke="midnightblue" d="M173.699,-146.349C146.943,-132.971 111.459,-115.229 87.0826,-103.041"/>
<polygon fill="midnightblue" stroke="midnightblue" points="172.257,-149.541 182.766,-150.883 175.387,-143.28 172.257,-149.541"/>
</g>
<!-- Node7 -->
<g id="node7" class="node"><title>Node7</title>
<g id="a_node7"><a xlink:href="packet__handlers_8h.html" target="_top" xlink:title=" ">
<polygon fill="white" stroke="black" points="136.5,-73 136.5,-103 285.5,-103 285.5,-73 136.5,-73"/>
<text text-anchor="start" x="144.5" y="-91" font-family="Helvetica,sans-Serif" font-size="10.00">C:/projects/ndt/sources</text>
<text text-anchor="middle" x="211" y="-80" font-family="Helvetica,sans-Serif" font-size="10.00">/include/ndt/packet_handlers.h</text>
</a>
</g>
</g>
<!-- Node4&#45;&gt;Node7 -->
<g id="edge8" class="edge"><title>Node4&#45;&gt;Node7</title>
<path fill="none" stroke="midnightblue" d="M211,-140.59C211,-128.257 211,-113.724 211,-103.231"/>
<polygon fill="midnightblue" stroke="midnightblue" points="207.5,-140.705 211,-150.705 214.5,-140.705 207.5,-140.705"/>
</g>
<!-- Node5&#45;&gt;Node2 -->
<g id="edge6" class="edge"><title>Node5&#45;&gt;Node2</title>
<path fill="none" stroke="midnightblue" d="M111.912,-70.4017C116.981,-69.1251 122.069,-67.9615 127,-67 287.498,-35.7054 480.515,-23.2887 575.813,-18.794"/>
<polygon fill="midnightblue" stroke="midnightblue" points="110.999,-67.0228 102.232,-72.9728 112.796,-73.7881 110.999,-67.0228"/>
</g>
<!-- Node6 -->
<g id="node6" class="node"><title>Node6</title>
<g id="a_node6"><a xlink:href="packet_8cpp.html" target="_top" xlink:title=" ">
<polygon fill="white" stroke="black" points="0,-0.5 0,-30.5 118,-30.5 118,-0.5 0,-0.5"/>
<text text-anchor="start" x="8" y="-18.5" font-family="Helvetica,sans-Serif" font-size="10.00">C:/projects/ndt/sources</text>
<text text-anchor="middle" x="59" y="-7.5" font-family="Helvetica,sans-Serif" font-size="10.00">/src/packet.cpp</text>
</a>
</g>
</g>
<!-- Node5&#45;&gt;Node6 -->
<g id="edge7" class="edge"><title>Node5&#45;&gt;Node6</title>
<path fill="none" stroke="midnightblue" d="M59,-62.7317C59,-52.0679 59,-39.9145 59,-30.7455"/>
<polygon fill="midnightblue" stroke="midnightblue" points="55.5001,-62.7332 59,-72.7333 62.5001,-62.7333 55.5001,-62.7332"/>
</g>
<!-- Node7&#45;&gt;Node2 -->
<g id="edge9" class="edge"><title>Node7&#45;&gt;Node2</title>
<path fill="none" stroke="midnightblue" d="M280.848,-70.8085C287.31,-69.4602 293.769,-68.1682 300,-67 396.108,-48.9811 508.671,-33.0679 575.784,-24.1247"/>
<polygon fill="midnightblue" stroke="midnightblue" points="279.773,-67.4587 270.721,-72.9641 281.231,-74.3053 279.773,-67.4587"/>
</g>
<!-- Node10 -->
<g id="node10" class="node"><title>Node10</title>
<g id="a_node10"><a xlink:href="file_8cpp.html" target="_top" xlink:title=" ">
<polygon fill="white" stroke="black" points="1497,-379.5 1497,-409.5 1615,-409.5 1615,-379.5 1497,-379.5"/>
<text text-anchor="start" x="1505" y="-397.5" font-family="Helvetica,sans-Serif" font-size="10.00">C:/projects/ndt/sources</text>
<text text-anchor="middle" x="1556" y="-386.5" font-family="Helvetica,sans-Serif" font-size="10.00">/src/file.cpp</text>
</a>
</g>
</g>
<!-- Node9&#45;&gt;Node10 -->
<g id="edge13" class="edge"><title>Node9&#45;&gt;Node10</title>
<path fill="none" stroke="midnightblue" d="M1556,-436.108C1556,-427.154 1556,-417.323 1556,-409.577"/>
<polygon fill="midnightblue" stroke="midnightblue" points="1552.5,-436.396 1556,-446.396 1559.5,-436.396 1552.5,-436.396"/>
</g>
<!-- Node12 -->
<g id="node12" class="node"><title>Node12</title>
<g id="a_node12"><a xlink:href="context_8h.html" target="_top" xlink:title=" ">
<polygon fill="white" stroke="black" points="576,-73 576,-103 694,-103 694,-73 576,-73"/>
<text text-anchor="start" x="584" y="-91" font-family="Helvetica,sans-Serif" font-size="10.00">C:/projects/ndt/sources</text>
<text text-anchor="middle" x="635" y="-80" font-family="Helvetica,sans-Serif" font-size="10.00">/include/ndt/context.h</text>
</a>
</g>
</g>
<!-- Node11&#45;&gt;Node12 -->
<g id="edge15" class="edge"><title>Node11&#45;&gt;Node12</title>
<path fill="none" stroke="midnightblue" d="M508.129,-504.959C489.592,-478.342 466,-436.426 466,-395.5 466,-395.5 466,-395.5 466,-321 466,-221.338 569.149,-135.796 614.277,-103.141"/>
<polygon fill="midnightblue" stroke="midnightblue" points="505.501,-507.3 514.18,-513.376 511.184,-503.214 505.501,-507.3"/>
</g>
<!-- Node12&#45;&gt;Node2 -->
<g id="edge16" class="edge"><title>Node12&#45;&gt;Node2</title>
<path fill="none" stroke="midnightblue" d="M635,-62.7317C635,-52.0679 635,-39.9145 635,-30.7455"/>
<polygon fill="midnightblue" stroke="midnightblue" points="631.5,-62.7332 635,-72.7333 638.5,-62.7333 631.5,-62.7332"/>
</g>
<!-- Node14&#45;&gt;Node2 -->
<g id="edge19" class="edge"><title>Node14&#45;&gt;Node2</title>
<path fill="none" stroke="midnightblue" d="M819.7,-392.51C734.008,-389.706 595.244,-379.482 561,-343 476.969,-253.477 488.001,-173.558 549,-67 558.548,-50.3206 575.985,-38.6112 592.674,-30.6977"/>
<polygon fill="midnightblue" stroke="midnightblue" points="819.776,-396.013 829.877,-392.816 819.987,-389.017 819.776,-396.013"/>
</g>
<!-- Node15 -->
<g id="node15" class="node"><title>Node15</title>
<g id="a_node15"><a xlink:href="executor__select__base_8h.html" target="_top" xlink:title=" ">
<polygon fill="white" stroke="black" points="830,-301.5 830,-342.5 948,-342.5 948,-301.5 830,-301.5"/>
<text text-anchor="start" x="838" y="-330.5" font-family="Helvetica,sans-Serif" font-size="10.00">C:/projects/ndt/sources</text>
<text text-anchor="start" x="838" y="-319.5" font-family="Helvetica,sans-Serif" font-size="10.00">/include/ndt/executor</text>
<text text-anchor="middle" x="889" y="-308.5" font-family="Helvetica,sans-Serif" font-size="10.00">_select_base.h</text>
</a>
</g>
</g>
<!-- Node14&#45;&gt;Node15 -->
<g id="edge20" class="edge"><title>Node14&#45;&gt;Node15</title>
<path fill="none" stroke="midnightblue" d="M889,-368.982C889,-360.347 889,-350.762 889,-342.588"/>
<polygon fill="midnightblue" stroke="midnightblue" points="885.5,-369.233 889,-379.233 892.5,-369.233 885.5,-369.233"/>
</g>
<!-- Node20 -->
<g id="node20" class="node"><title>Node20</title>
<g id="a_node20"><a xlink:href="udp_8h.html" target="_top" xlink:title=" ">
<polygon fill="white" stroke="black" points="570,-307 570,-337 688,-337 688,-307 570,-307"/>
<text text-anchor="start" x="578" y="-325" font-family="Helvetica,sans-Serif" font-size="10.00">C:/projects/ndt/sources</text>
<text text-anchor="middle" x="629" y="-314" font-family="Helvetica,sans-Serif" font-size="10.00">/include/ndt/udp.h</text>
</a>
</g>
</g>
<!-- Node14&#45;&gt;Node20 -->
<g id="edge30" class="edge"><title>Node14&#45;&gt;Node20</title>
<path fill="none" stroke="midnightblue" d="M827.476,-376.818C782.885,-364.727 723.251,-348.557 681.025,-337.107"/>
<polygon fill="midnightblue" stroke="midnightblue" points="826.754,-380.248 837.322,-379.487 828.586,-373.492 826.754,-380.248"/>
</g>
<!-- Node15&#45;&gt;Node2 -->
<g id="edge21" class="edge"><title>Node15&#45;&gt;Node2</title>
<path fill="none" stroke="midnightblue" d="M899.496,-291.827C916.054,-240.086 941.215,-131.627 888,-67 863.906,-37.7395 761.085,-25.0958 694.167,-19.8867"/>
<polygon fill="midnightblue" stroke="midnightblue" points="896.15,-290.795 896.324,-301.389 902.794,-292.999 896.15,-290.795"/>
</g>
<!-- Node16 -->
<g id="node16" class="node"><title>Node16</title>
<g id="a_node16"><a xlink:href="nix_2executor__select__impl_8h.html" target="_top" xlink:title=" ">
<polygon fill="white" stroke="black" points="706,-223.5 706,-264.5 842,-264.5 842,-223.5 706,-223.5"/>
<text text-anchor="start" x="714" y="-252.5" font-family="Helvetica,sans-Serif" font-size="10.00">C:/projects/ndt/sources</text>
<text text-anchor="start" x="714" y="-241.5" font-family="Helvetica,sans-Serif" font-size="10.00">/include/ndt/platform</text>
<text text-anchor="middle" x="774" y="-230.5" font-family="Helvetica,sans-Serif" font-size="10.00">/nix/executor_select_impl.h</text>
</a>
</g>
</g>
<!-- Node15&#45;&gt;Node16 -->
<g id="edge22" class="edge"><title>Node15&#45;&gt;Node16</title>
<path fill="none" stroke="midnightblue" d="M850.619,-295.635C835.263,-285.487 817.854,-273.982 803.515,-264.506"/>
<polygon fill="midnightblue" stroke="midnightblue" points="849.112,-298.835 859.385,-301.428 852.972,-292.995 849.112,-298.835"/>
</g>
<!-- Node19 -->
<g id="node19" class="node"><title>Node19</title>
<g id="a_node19"><a xlink:href="win_2executor__select__impl_8h.html" target="_top" xlink:title=" ">
<polygon fill="white" stroke="black" points="936.5,-223.5 936.5,-264.5 1073.5,-264.5 1073.5,-223.5 936.5,-223.5"/>
<text text-anchor="start" x="944.5" y="-252.5" font-family="Helvetica,sans-Serif" font-size="10.00">C:/projects/ndt/sources</text>
<text text-anchor="start" x="944.5" y="-241.5" font-family="Helvetica,sans-Serif" font-size="10.00">/include/ndt/platform</text>
<text text-anchor="middle" x="1005" y="-230.5" font-family="Helvetica,sans-Serif" font-size="10.00">/win/executor_select_impl.h</text>
</a>
</g>
</g>
<!-- Node15&#45;&gt;Node19 -->
<g id="edge29" class="edge"><title>Node15&#45;&gt;Node19</title>
<path fill="none" stroke="midnightblue" d="M927.281,-295.919C942.876,-285.702 960.63,-274.07 975.228,-264.506"/>
<polygon fill="midnightblue" stroke="midnightblue" points="925.319,-293.02 918.873,-301.428 929.156,-298.875 925.319,-293.02"/>
</g>
<!-- Node17 -->
<g id="node17" class="node"><title>Node17</title>
<g id="a_node17"><a xlink:href="executor__select_8h.html" target="_top" xlink:title=" ">
<polygon fill="white" stroke="black" points="689,-145.5 689,-186.5 807,-186.5 807,-145.5 689,-145.5"/>
<text text-anchor="start" x="697" y="-174.5" font-family="Helvetica,sans-Serif" font-size="10.00">C:/projects/ndt/sources</text>
<text text-anchor="start" x="697" y="-163.5" font-family="Helvetica,sans-Serif" font-size="10.00">/include/ndt/executor</text>
<text text-anchor="middle" x="748" y="-152.5" font-family="Helvetica,sans-Serif" font-size="10.00">_select.h</text>
</a>
</g>
</g>
<!-- Node16&#45;&gt;Node17 -->
<g id="edge23" class="edge"><title>Node16&#45;&gt;Node17</title>
<path fill="none" stroke="midnightblue" d="M764.039,-213.882C760.905,-204.721 757.521,-194.83 754.673,-186.506"/>
<polygon fill="midnightblue" stroke="midnightblue" points="760.756,-215.099 767.304,-223.428 767.379,-212.834 760.756,-215.099"/>
</g>
<!-- Node17&#45;&gt;Node2 -->
<g id="edge25" class="edge"><title>Node17&#45;&gt;Node2</title>
<path fill="none" stroke="midnightblue" d="M738.97,-135.826C731.576,-115.128 719.617,-87.4965 703,-67 691.054,-52.2647 673.88,-39.5567 659.781,-30.5746"/>
<polygon fill="midnightblue" stroke="midnightblue" points="735.686,-137.038 742.234,-145.368 742.309,-134.773 735.686,-137.038"/>
</g>
<!-- Node17&#45;&gt;Node12 -->
<g id="edge24" class="edge"><title>Node17&#45;&gt;Node12</title>
<path fill="none" stroke="midnightblue" d="M710.316,-139.655C692.282,-127.526 671.36,-113.455 656.151,-103.225"/>
<polygon fill="midnightblue" stroke="midnightblue" points="708.649,-142.751 718.9,-145.428 712.555,-136.943 708.649,-142.751"/>
</g>
<!-- Node18 -->
<g id="node18" class="node"><title>Node18</title>
<g id="a_node18"><a xlink:href="event__handler__select_8h.html" target="_top" xlink:title=" ">
<polygon fill="white" stroke="black" points="750.5,-67.5 750.5,-108.5 879.5,-108.5 879.5,-67.5 750.5,-67.5"/>
<text text-anchor="start" x="758.5" y="-96.5" font-family="Helvetica,sans-Serif" font-size="10.00">C:/projects/ndt/sources</text>
<text text-anchor="start" x="758.5" y="-85.5" font-family="Helvetica,sans-Serif" font-size="10.00">/include/ndt/event_handler</text>
<text text-anchor="middle" x="815" y="-74.5" font-family="Helvetica,sans-Serif" font-size="10.00">_select.h</text>
</a>
</g>
</g>
<!-- Node17&#45;&gt;Node18 -->
<g id="edge26" class="edge"><title>Node17&#45;&gt;Node18</title>
<path fill="none" stroke="midnightblue" d="M771.877,-137.916C780.44,-128.203 789.919,-117.45 797.804,-108.506"/>
<polygon fill="midnightblue" stroke="midnightblue" points="769.242,-135.612 765.254,-145.428 774.493,-140.241 769.242,-135.612"/>
</g>
<!-- Node18&#45;&gt;Node2 -->
<g id="edge27" class="edge"><title>Node18&#45;&gt;Node2</title>
<path fill="none" stroke="midnightblue" d="M755.19,-63.5743C727.275,-52.6409 694.977,-39.9911 670.897,-30.5597"/>
<polygon fill="midnightblue" stroke="midnightblue" points="754.272,-66.9738 764.86,-67.3618 756.825,-60.4559 754.272,-66.9738"/>
</g>
<!-- Node18&#45;&gt;Node15 -->
<g id="edge28" class="edge"><title>Node18&#45;&gt;Node15</title>
<path fill="none" stroke="midnightblue" d="M824.418,-118.527C839.741,-166.568 869.666,-260.385 882.691,-301.22"/>
<polygon fill="midnightblue" stroke="midnightblue" points="827.667,-117.194 821.293,-108.73 820.998,-119.321 827.667,-117.194"/>
</g>
<!-- Node20&#45;&gt;Node2 -->
<g id="edge31" class="edge"><title>Node20&#45;&gt;Node2</title>
<path fill="none" stroke="midnightblue" d="M593.971,-301.33C581.122,-292.115 568.014,-279.863 561,-265 553.033,-248.119 560.641,-241.663 561,-223 562.334,-153.628 534.638,-128.375 567,-67 575.299,-51.2608 590.944,-39.1182 605.137,-30.6884"/>
<polygon fill="midnightblue" stroke="midnightblue" points="592.061,-304.263 602.311,-306.943 595.969,-298.456 592.061,-304.263"/>
</g>
<!-- Node21 -->
<g id="node21" class="node"><title>Node21</title>
<g id="a_node21"><a xlink:href="udp_8cpp.html" target="_top" xlink:title=" ">
<polygon fill="white" stroke="black" points="570,-229 570,-259 688,-259 688,-229 570,-229"/>
<text text-anchor="start" x="578" y="-247" font-family="Helvetica,sans-Serif" font-size="10.00">C:/projects/ndt/sources</text>
<text text-anchor="middle" x="629" y="-236" font-family="Helvetica,sans-Serif" font-size="10.00">/src/udp.cpp</text>
</a>
</g>
</g>
<!-- Node20&#45;&gt;Node21 -->
<g id="edge32" class="edge"><title>Node20&#45;&gt;Node21</title>
<path fill="none" stroke="midnightblue" d="M629,-296.59C629,-284.257 629,-269.724 629,-259.231"/>
<polygon fill="midnightblue" stroke="midnightblue" points="625.5,-296.705 629,-306.705 632.5,-296.705 625.5,-296.705"/>
</g>
<!-- Node22&#45;&gt;Node23 -->
<g id="edge34" class="edge"><title>Node22&#45;&gt;Node23</title>
<path fill="none" stroke="midnightblue" d="M1363.15,-584.658C1376.77,-572.761 1392.33,-559.176 1403.72,-549.225"/>
<polygon fill="midnightblue" stroke="midnightblue" points="1360.63,-582.213 1355.4,-591.428 1365.24,-587.485 1360.63,-582.213"/>
</g>
<!-- Node22&#45;&gt;Node25 -->
<g id="edge37" class="edge"><title>Node22&#45;&gt;Node25</title>
<path fill="none" stroke="midnightblue" d="M1302.85,-584.658C1289.23,-572.761 1273.67,-559.176 1262.28,-549.225"/>
<polygon fill="midnightblue" stroke="midnightblue" points="1300.76,-587.485 1310.6,-591.428 1305.37,-582.213 1300.76,-587.485"/>
</g>
<!-- Node23&#45;&gt;Node9 -->
<g id="edge35" class="edge"><title>Node23&#45;&gt;Node9</title>
<path fill="none" stroke="midnightblue" d="M1456.24,-514.215C1479.05,-502.389 1508.02,-487.374 1528.85,-476.573"/>
<polygon fill="midnightblue" stroke="midnightblue" points="1454.46,-511.193 1447.19,-518.903 1457.68,-517.408 1454.46,-511.193"/>
</g>
<!-- Node24 -->
<g id="node24" class="node"><title>Node24</title>
<g id="a_node24"><a xlink:href="sys__file__ops_8cpp.html" target="_top" xlink:title=" ">
<polygon fill="white" stroke="black" points="1361,-446.5 1361,-476.5 1479,-476.5 1479,-446.5 1361,-446.5"/>
<text text-anchor="start" x="1369" y="-464.5" font-family="Helvetica,sans-Serif" font-size="10.00">C:/projects/ndt/sources</text>
<text text-anchor="middle" x="1420" y="-453.5" font-family="Helvetica,sans-Serif" font-size="10.00">/src/sys_file_ops.cpp</text>
</a>
</g>
</g>
<!-- Node23&#45;&gt;Node24 -->
<g id="edge36" class="edge"><title>Node23&#45;&gt;Node24</title>
<path fill="none" stroke="midnightblue" d="M1420,-508.732C1420,-498.068 1420,-485.914 1420,-476.746"/>
<polygon fill="midnightblue" stroke="midnightblue" points="1416.5,-508.733 1420,-518.733 1423.5,-508.733 1416.5,-508.733"/>
</g>
<!-- Node25&#45;&gt;Node2 -->
<g id="edge42" class="edge"><title>Node25&#45;&gt;Node2</title>
<path fill="none" stroke="midnightblue" d="M1161.36,-526.775C1127.95,-519.671 1092.67,-505.362 1072,-477 1005.47,-385.693 1127.31,-326.492 1082,-223 1041,-129.362 1004.48,-112.614 913,-67 843.091,-32.1407 752.581,-21.1092 694.153,-17.75"/>
<polygon fill="midnightblue" stroke="midnightblue" points="1160.7,-530.212 1171.18,-528.674 1162.03,-523.339 1160.7,-530.212"/>
</g>
<!-- Node26 -->
<g id="node26" class="node"><title>Node26</title>
<g id="a_node26"><a xlink:href="address_8h.html" target="_top" xlink:title=" ">
<polygon fill="white" stroke="black" points="1081,-446.5 1081,-476.5 1199,-476.5 1199,-446.5 1081,-446.5"/>
<text text-anchor="start" x="1089" y="-464.5" font-family="Helvetica,sans-Serif" font-size="10.00">C:/projects/ndt/sources</text>
<text text-anchor="middle" x="1140" y="-453.5" font-family="Helvetica,sans-Serif" font-size="10.00">/include/ndt/address.h</text>
</a>
</g>
</g>
<!-- Node25&#45;&gt;Node26 -->
<g id="edge38" class="edge"><title>Node25&#45;&gt;Node26</title>
<path fill="none" stroke="midnightblue" d="M1216.08,-513.103C1198.58,-501.459 1176.89,-487.038 1161.16,-476.573"/>
<polygon fill="midnightblue" stroke="midnightblue" points="1214.54,-516.279 1224.8,-518.903 1218.42,-510.45 1214.54,-516.279"/>
</g>
<!-- Node28 -->
<g id="node28" class="node"><title>Node28</title>
<g id="a_node28"><a xlink:href="sys__socket__ops_8cpp.html" target="_top" xlink:title=" ">
<polygon fill="white" stroke="black" points="1217,-446.5 1217,-476.5 1343,-476.5 1343,-446.5 1217,-446.5"/>
<text text-anchor="start" x="1225" y="-464.5" font-family="Helvetica,sans-Serif" font-size="10.00">C:/projects/ndt/sources</text>
<text text-anchor="middle" x="1280" y="-453.5" font-family="Helvetica,sans-Serif" font-size="10.00">/src/sys_socket_ops.cpp</text>
</a>
</g>
</g>
<!-- Node25&#45;&gt;Node28 -->
<g id="edge43" class="edge"><title>Node25&#45;&gt;Node28</title>
<path fill="none" stroke="midnightblue" d="M1257.38,-509.396C1262.6,-498.576 1268.62,-486.106 1273.13,-476.746"/>
<polygon fill="midnightblue" stroke="midnightblue" points="1254.07,-508.206 1252.88,-518.733 1260.38,-511.246 1254.07,-508.206"/>
</g>
<!-- Node26&#45;&gt;Node2 -->
<g id="edge39" class="edge"><title>Node26&#45;&gt;Node2</title>
<path fill="none" stroke="midnightblue" d="M1140,-436.215C1140,-408.74 1140,-362.654 1140,-323 1140,-323 1140,-323 1140,-165 1140,-120.157 1149.78,-96.4881 1116,-67 1084.81,-39.772 816.121,-24.5218 694.442,-18.9562"/>
<polygon fill="midnightblue" stroke="midnightblue" points="1136.5,-436.446 1140,-446.446 1143.5,-436.446 1136.5,-436.446"/>
</g>
<!-- Node26&#45;&gt;Node14 -->
<g id="edge40" class="edge"><title>Node26&#45;&gt;Node14</title>
<path fill="none" stroke="midnightblue" d="M1075.96,-443.917C1035,-433.31 982.445,-419.699 943.49,-409.611"/>
<polygon fill="midnightblue" stroke="midnightblue" points="1075.29,-447.357 1085.85,-446.476 1077.04,-440.581 1075.29,-447.357"/>
</g>
<!-- Node27 -->
<g id="node27" class="node"><title>Node27</title>
<g id="a_node27"><a xlink:href="address_8cpp.html" target="_top" xlink:title=" ">
<polygon fill="white" stroke="black" points="1168,-379.5 1168,-409.5 1286,-409.5 1286,-379.5 1168,-379.5"/>
<text text-anchor="start" x="1176" y="-397.5" font-family="Helvetica,sans-Serif" font-size="10.00">C:/projects/ndt/sources</text>
<text text-anchor="middle" x="1227" y="-386.5" font-family="Helvetica,sans-Serif" font-size="10.00">/src/address.cpp</text>
</a>
</g>
</g>
<!-- Node26&#45;&gt;Node27 -->
<g id="edge41" class="edge"><title>Node26&#45;&gt;Node27</title>
<path fill="none" stroke="midnightblue" d="M1167.21,-440.168C1180.52,-430.228 1196.2,-418.514 1208.16,-409.577"/>
<polygon fill="midnightblue" stroke="midnightblue" points="1164.79,-437.607 1158.88,-446.396 1168.98,-443.215 1164.79,-437.607"/>
</g>
</g>
</svg>
        <g id="navigator" transform="translate(0 0)" fill="#404254">
                <rect fill="#f2f5e9" fill-opacity="0.5" stroke="#606060" stroke-width=".5" x="0" y="0" width="60" height="60"/>
                <use id="zoomplus" xlink:href="#zoomPlus" x="17" y="9" onmousedown="handleZoom(evt,'in')"/>
                <use id="zoomminus" xlink:href="#zoomMin" x="42" y="9" onmousedown="handleZoom(evt,'out')"/>
                <use id="reset" xlink:href="#resetDef" x="30" y="36" onmousedown="handleReset()"/>
                <g id="arrowUp" xlink:href="#dirArrow" transform="translate(30 24)" onmousedown="handlePan(0,-1)">
                  <use xlink:href="#rim" fill="#404040">
                        <set attributeName="fill" to="#808080" begin="arrowUp.mouseover" end="arrowUp.mouseout"/>
                  </use>
                  <path fill="none" stroke="white" stroke-width="1.5" d="M0,-3.0v7 M-2.5,-0.5L0,-3.0L2.5,-0.5"/>
                </g>
                <g id="arrowRight" xlink:href="#dirArrow" transform="rotate(90) translate(36 -43)" onmousedown="handlePan(1,0)">
                  <use xlink:href="#rim" fill="#404040">
                        <set attributeName="fill" to="#808080" begin="arrowRight.mouseover" end="arrowRight.mouseout"/>
                  </use>
                  <path fill="none" stroke="white" stroke-width="1.5" d="M0,-3.0v7 M-2.5,-0.5L0,-3.0L2.5,-0.5"/>
                </g>
                <g id="arrowDown" xlink:href="#dirArrow" transform="rotate(180) translate(-30 -48)" onmousedown="handlePan(0,1)">
                  <use xlink:href="#rim" fill="#404040">
                        <set attributeName="fill" to="#808080" begin="arrowDown.mouseover" end="arrowDown.mouseout"/>
                  </use>
                  <path fill="none" stroke="white" stroke-width="1.5" d="M0,-3.0v7 M-2.5,-0.5L0,-3.0L2.5,-0.5"/>
                </g>
                <g id="arrowLeft" xlink:href="#dirArrow" transform="rotate(270) translate(-36 17)" onmousedown="handlePan(-1,0)">
                  <use xlink:href="#rim" fill="#404040">
                        <set attributeName="fill" to="#808080" begin="arrowLeft.mouseover" end="arrowLeft.mouseout"/>
                  </use>
                  <path fill="none" stroke="white" stroke-width="1.5" d="M0,-3.0v7 M-2.5,-0.5L0,-3.0L2.5,-0.5"/>
                </g>
        </g>
        <svg viewBox="0 0 15 15" width="100%" height="30px" preserveAspectRatio="xMaxYMin meet">
         <g id="arrow_out" transform="scale(0.3 0.3)">
          <a xlink:href="useful__base__types_8h__dep__incl_org.svg" target="_base">
           <rect id="button" ry="5" rx="5" y="6" x="6" height="38" width="38"
                fill="#f2f5e9" fill-opacity="0.5" stroke="#606060" stroke-width="1.0"/>
           <path id="arrow"
             d="M 11.500037,31.436501 C 11.940474,20.09759 22.043105,11.32322 32.158766,21.979434 L 37.068811,17.246167 C 37.068811,17.246167 37.088388,32 37.088388,32 L 22.160133,31.978069 C 22.160133,31.978069 26.997745,27.140456 26.997745,27.140456 C 18.528582,18.264221 13.291696,25.230495 11.500037,31.436501 z"
             style="fill:#404040;"/>
          </a>
         </g>
        </svg>
</svg>
