<?xml version="1.0" encoding="UTF-8" standalone="no"?>
<!DOCTYPE svg PUBLIC "-//W3C//DTD SVG 1.1//EN"
 "http://www.w3.org/Graphics/SVG/1.1/DTD/svg11.dtd">
<!-- Generated by graphviz version 2.38.0 (20140413.2041)
 -->
<!-- Title: C:/projects/ndt/sources/include/ndt/useful_base_types.h Pages: 1 -->
<svg width="1184pt" height="708pt"
 viewBox="0.00 0.00 1184.00 708.00" xmlns="http://www.w3.org/2000/svg" xmlns:xlink="http://www.w3.org/1999/xlink">
<g id="graph0" class="graph" transform="scale(1 1) rotate(0) translate(4 704)">
<title>C:/projects/ndt/sources/include/ndt/useful_base_types.h</title>
<polygon fill="white" stroke="none" points="-4,4 -4,-704 1180,-704 1180,4 -4,4"/>
<!-- Node1 -->
<g id="node1" class="node"><title>Node1</title>
<g id="a_node1"><a xlink:title=" ">
<polygon fill="#bfbfbf" stroke="black" points="743,-658.5 743,-699.5 865,-699.5 865,-658.5 743,-658.5"/>
<text text-anchor="start" x="751" y="-687.5" font-family="Helvetica,sans-Serif" font-size="10.00">C:/projects/ndt/sources</text>
<text text-anchor="start" x="751" y="-676.5" font-family="Helvetica,sans-Serif" font-size="10.00">/include/ndt/useful_base</text>
<text text-anchor="middle" x="804" y="-665.5" font-family="Helvetica,sans-Serif" font-size="10.00">_types.h</text>
</a>
</g>
</g>
<!-- Node2 -->
<g id="node2" class="node"><title>Node2</title>
<g id="a_node2"><a xlink:href="core_8h.html" target="_top" xlink:title=" ">
<polygon fill="white" stroke="black" points="338,-0.5 338,-30.5 456,-30.5 456,-0.5 338,-0.5"/>
<text text-anchor="start" x="346" y="-18.5" font-family="Helvetica,sans-Serif" font-size="10.00">C:/projects/ndt/sources</text>
<text text-anchor="middle" x="397" y="-7.5" font-family="Helvetica,sans-Serif" font-size="10.00">/include/ndt/core.h</text>
</a>
</g>
</g>
<!-- Node1&#45;&gt;Node2 -->
<g id="edge1" class="edge"><title>Node1&#45;&gt;Node2</title>
<path fill="none" stroke="midnightblue" d="M732.697,-675.671C629.367,-671.144 432.475,-658.17 269,-622 145.559,-594.688 0,-655.926 0,-529.5 0,-529.5 0,-529.5 0,-165 0,-106.757 35.9752,-95.0831 87,-67 129.099,-43.8297 260.169,-28.6268 337.747,-21.4033"/>
<polygon fill="midnightblue" stroke="midnightblue" points="732.564,-679.169 742.704,-676.096 732.861,-672.175 732.564,-679.169"/>
</g>
<!-- Node3 -->
<g id="node3" class="node"><title>Node3</title>
<g id="a_node3"><a xlink:href="endian_8h.html" target="_top" xlink:title=" ">
<polygon fill="white" stroke="black" points="278,-586 278,-616 396,-616 396,-586 278,-586"/>
<text text-anchor="start" x="286" y="-604" font-family="Helvetica,sans-Serif" font-size="10.00">C:/projects/ndt/sources</text>
<text text-anchor="middle" x="337" y="-593" font-family="Helvetica,sans-Serif" font-size="10.00">/include/ndt/endian.h</text>
</a>
</g>
</g>
<!-- Node1&#45;&gt;Node3 -->
<g id="edge2" class="edge"><title>Node1&#45;&gt;Node3</title>
<path fill="none" stroke="midnightblue" d="M732.883,-666.426C640.824,-651.445 482.063,-625.608 396.224,-611.638"/>
<polygon fill="midnightblue" stroke="midnightblue" points="732.516,-669.913 742.948,-668.064 733.64,-663.003 732.516,-669.913"/>
</g>
<!-- Node6 -->
<g id="node6" class="node"><title>Node6</title>
<g id="a_node6"><a xlink:href="socket_8h.html" target="_top" xlink:title=" ">
<polygon fill="white" stroke="black" points="507,-379.5 507,-409.5 625,-409.5 625,-379.5 507,-379.5"/>
<text text-anchor="start" x="515" y="-397.5" font-family="Helvetica,sans-Serif" font-size="10.00">C:/projects/ndt/sources</text>
<text text-anchor="middle" x="566" y="-386.5" font-family="Helvetica,sans-Serif" font-size="10.00">/include/ndt/socket.h</text>
</a>
</g>
</g>
<!-- Node1&#45;&gt;Node6 -->
<g id="edge36" class="edge"><title>Node1&#45;&gt;Node6</title>
<path fill="none" stroke="midnightblue" d="M807.738,-648.266C812.108,-599.371 813.066,-501.853 761,-446 742.639,-426.303 675.802,-412.029 625.457,-403.782"/>
<polygon fill="midnightblue" stroke="midnightblue" points="804.229,-648.186 806.71,-658.486 811.194,-648.887 804.229,-648.186"/>
</g>
<!-- Node20 -->
<g id="node20" class="node"><title>Node20</title>
<g id="a_node20"><a xlink:href="file_8h.html" target="_top" xlink:title=" ">
<polygon fill="white" stroke="black" points="1006,-446.5 1006,-476.5 1124,-476.5 1124,-446.5 1006,-446.5"/>
<text text-anchor="start" x="1014" y="-464.5" font-family="Helvetica,sans-Serif" font-size="10.00">C:/projects/ndt/sources</text>
<text text-anchor="middle" x="1065" y="-453.5" font-family="Helvetica,sans-Serif" font-size="10.00">/include/ndt/file.h</text>
</a>
</g>
</g>
<!-- Node1&#45;&gt;Node20 -->
<g id="edge31" class="edge"><title>Node1&#45;&gt;Node20</title>
<path fill="none" stroke="midnightblue" d="M852.951,-653.816C897.639,-630.101 963.738,-590.76 1011,-544 1031.63,-523.586 1048.8,-494.08 1057.92,-476.737"/>
<polygon fill="midnightblue" stroke="midnightblue" points="851.264,-650.749 844.033,-658.492 854.515,-656.948 851.264,-650.749"/>
</g>
<!-- Node22 -->
<g id="node22" class="node"><title>Node22</title>
<g id="a_node22"><a xlink:href="nix_2context__base_8h.html" target="_top" xlink:title=" ">
<polygon fill="white" stroke="black" points="986,-145.5 986,-186.5 1104,-186.5 1104,-145.5 986,-145.5"/>
<text text-anchor="start" x="994" y="-174.5" font-family="Helvetica,sans-Serif" font-size="10.00">C:/projects/ndt/sources</text>
<text text-anchor="start" x="994" y="-163.5" font-family="Helvetica,sans-Serif" font-size="10.00">/include/ndt/platform</text>
<text text-anchor="middle" x="1045" y="-152.5" font-family="Helvetica,sans-Serif" font-size="10.00">/nix/context_base.h</text>
</a>
</g>
</g>
<!-- Node1&#45;&gt;Node22 -->
<g id="edge33" class="edge"><title>Node1&#45;&gt;Node22</title>
<path fill="none" stroke="midnightblue" d="M815.304,-648.716C818.369,-640.179 821.521,-630.784 824,-622 845.714,-545.074 828.243,-518.912 861,-446 902.018,-354.7 942.298,-350.092 995,-265 1011.19,-238.857 1026.79,-206.835 1036.14,-186.67"/>
<polygon fill="midnightblue" stroke="midnightblue" points="811.962,-647.662 811.792,-658.256 818.532,-650.08 811.962,-647.662"/>
</g>
<!-- Node23 -->
<g id="node23" class="node"><title>Node23</title>
<g id="a_node23"><a xlink:href="win_2context__base_8h.html" target="_top" xlink:title=" ">
<polygon fill="white" stroke="black" points="1058,-580.5 1058,-621.5 1176,-621.5 1176,-580.5 1058,-580.5"/>
<text text-anchor="start" x="1066" y="-609.5" font-family="Helvetica,sans-Serif" font-size="10.00">C:/projects/ndt/sources</text>
<text text-anchor="start" x="1066" y="-598.5" font-family="Helvetica,sans-Serif" font-size="10.00">/include/ndt/platform</text>
<text text-anchor="middle" x="1117" y="-587.5" font-family="Helvetica,sans-Serif" font-size="10.00">/win/context_base.h</text>
</a>
</g>
</g>
<!-- Node1&#45;&gt;Node23 -->
<g id="edge35" class="edge"><title>Node1&#45;&gt;Node23</title>
<path fill="none" stroke="midnightblue" d="M875.263,-662.122C923.099,-651.279 987.47,-636.334 1044,-622 1048.46,-620.87 1053.06,-619.674 1057.69,-618.453"/>
<polygon fill="midnightblue" stroke="midnightblue" points="874.297,-658.752 865.315,-664.371 875.841,-665.579 874.297,-658.752"/>
</g>
<!-- Node24 -->
<g id="node24" class="node"><title>Node24</title>
<g id="a_node24"><a xlink:href="sys__error__code_8h.html" target="_top" xlink:title=" ">
<polygon fill="white" stroke="black" points="658,-580.5 658,-621.5 776,-621.5 776,-580.5 658,-580.5"/>
<text text-anchor="start" x="666" y="-609.5" font-family="Helvetica,sans-Serif" font-size="10.00">C:/projects/ndt/sources</text>
<text text-anchor="start" x="666" y="-598.5" font-family="Helvetica,sans-Serif" font-size="10.00">/include/ndt/sys_error</text>
<text text-anchor="middle" x="717" y="-587.5" font-family="Helvetica,sans-Serif" font-size="10.00">_code.h</text>
</a>
</g>
</g>
<!-- Node1&#45;&gt;Node24 -->
<g id="edge37" class="edge"><title>Node1&#45;&gt;Node24</title>
<path fill="none" stroke="midnightblue" d="M773.983,-651.779C762.61,-641.843 749.872,-630.716 739.329,-621.506"/>
<polygon fill="midnightblue" stroke="midnightblue" points="771.762,-654.485 781.595,-658.428 776.367,-649.213 771.762,-654.485"/>
</g>
<!-- Node25 -->
<g id="node25" class="node"><title>Node25</title>
<g id="a_node25"><a xlink:href="sys__file__ops_8h.html" target="_top" xlink:title=" ">
<polygon fill="white" stroke="black" points="870,-513.5 870,-543.5 1002,-543.5 1002,-513.5 870,-513.5"/>
<text text-anchor="start" x="878" y="-531.5" font-family="Helvetica,sans-Serif" font-size="10.00">C:/projects/ndt/sources</text>
<text text-anchor="middle" x="936" y="-520.5" font-family="Helvetica,sans-Serif" font-size="10.00">/include/ndt/sys_file_ops.h</text>
</a>
</g>
</g>
<!-- Node1&#45;&gt;Node25 -->
<g id="edge45" class="edge"><title>Node1&#45;&gt;Node25</title>
<path fill="none" stroke="midnightblue" d="M829.354,-651.082C837.89,-641.918 847.422,-631.571 856,-622 880.515,-594.646 908.431,-562.02 923.955,-543.739"/>
<polygon fill="midnightblue" stroke="midnightblue" points="826.731,-648.763 822.461,-658.46 831.845,-653.542 826.731,-648.763"/>
</g>
<!-- Node27 -->
<g id="node27" class="node"><title>Node27</title>
<g id="a_node27"><a xlink:href="sys__socket__ops_8h.html" target="_top" xlink:title=" ">
<polygon fill="white" stroke="black" points="555.5,-513.5 555.5,-543.5 704.5,-543.5 704.5,-513.5 555.5,-513.5"/>
<text text-anchor="start" x="563.5" y="-531.5" font-family="Helvetica,sans-Serif" font-size="10.00">C:/projects/ndt/sources</text>
<text text-anchor="middle" x="630" y="-520.5" font-family="Helvetica,sans-Serif" font-size="10.00">/include/ndt/sys_socket_ops.h</text>
</a>
</g>
</g>
<!-- Node1&#45;&gt;Node27 -->
<g id="edge46" class="edge"><title>Node1&#45;&gt;Node27</title>
<path fill="none" stroke="midnightblue" d="M732.905,-668.028C702.954,-660.274 670.195,-646.492 649,-622 629.797,-599.809 628.159,-563.427 628.911,-543.548"/>
<polygon fill="midnightblue" stroke="midnightblue" points="732.393,-671.505 742.934,-670.434 734.026,-664.698 732.393,-671.505"/>
</g>
<!-- Node3&#45;&gt;Node2 -->
<g id="edge29" class="edge"><title>Node3&#45;&gt;Node2</title>
<path fill="none" stroke="midnightblue" d="M267.697,-597.573C179.373,-590.349 38,-563.076 38,-462.5 38,-462.5 38,-462.5 38,-165 38,-100.924 235.752,-50.1609 337.718,-28.2449"/>
<polygon fill="midnightblue" stroke="midnightblue" points="267.693,-601.083 277.927,-598.341 268.217,-594.102 267.693,-601.083"/>
</g>
<!-- Node4 -->
<g id="node4" class="node"><title>Node4</title>
<g id="a_node4"><a xlink:href="bin__rw_8h.html" target="_top" xlink:title=" ">
<polygon fill="white" stroke="black" points="210,-513.5 210,-543.5 328,-543.5 328,-513.5 210,-513.5"/>
<text text-anchor="start" x="218" y="-531.5" font-family="Helvetica,sans-Serif" font-size="10.00">C:/projects/ndt/sources</text>
<text text-anchor="middle" x="269" y="-520.5" font-family="Helvetica,sans-Serif" font-size="10.00">/include/ndt/bin_rw.h</text>
</a>
</g>
</g>
<!-- Node3&#45;&gt;Node4 -->
<g id="edge3" class="edge"><title>Node3&#45;&gt;Node4</title>
<path fill="none" stroke="midnightblue" d="M316.131,-578.364C305.28,-567.114 292.321,-553.679 282.74,-543.746"/>
<polygon fill="midnightblue" stroke="midnightblue" points="313.778,-580.966 323.239,-585.733 318.816,-576.106 313.778,-580.966"/>
</g>
<!-- Node19 -->
<g id="node19" class="node"><title>Node19</title>
<g id="a_node19"><a xlink:href="endian_8cpp.html" target="_top" xlink:title=" ">
<polygon fill="white" stroke="black" points="346,-513.5 346,-543.5 464,-543.5 464,-513.5 346,-513.5"/>
<text text-anchor="start" x="354" y="-531.5" font-family="Helvetica,sans-Serif" font-size="10.00">C:/projects/ndt/sources</text>
<text text-anchor="middle" x="405" y="-520.5" font-family="Helvetica,sans-Serif" font-size="10.00">/src/endian.cpp</text>
</a>
</g>
</g>
<!-- Node3&#45;&gt;Node19 -->
<g id="edge30" class="edge"><title>Node3&#45;&gt;Node19</title>
<path fill="none" stroke="midnightblue" d="M357.869,-578.364C368.72,-567.114 381.679,-553.679 391.26,-543.746"/>
<polygon fill="midnightblue" stroke="midnightblue" points="355.184,-576.106 350.761,-585.733 360.222,-580.966 355.184,-576.106"/>
</g>
<!-- Node4&#45;&gt;Node2 -->
<g id="edge23" class="edge"><title>Node4&#45;&gt;Node2</title>
<path fill="none" stroke="midnightblue" d="M263.439,-503.493C257.831,-477.153 250,-433.553 250,-395.5 250,-395.5 250,-395.5 250,-165 250,-99.5209 323.079,-52.553 366.184,-30.5446"/>
<polygon fill="midnightblue" stroke="midnightblue" points="260.037,-504.322 265.603,-513.337 266.874,-502.819 260.037,-504.322"/>
</g>
<!-- Node5 -->
<g id="node5" class="node"><title>Node5</title>
<g id="a_node5"><a xlink:href="address_8h.html" target="_top" xlink:title=" ">
<polygon fill="white" stroke="black" points="452,-446.5 452,-476.5 570,-476.5 570,-446.5 452,-446.5"/>
<text text-anchor="start" x="460" y="-464.5" font-family="Helvetica,sans-Serif" font-size="10.00">C:/projects/ndt/sources</text>
<text text-anchor="middle" x="511" y="-453.5" font-family="Helvetica,sans-Serif" font-size="10.00">/include/ndt/address.h</text>
</a>
</g>
</g>
<!-- Node4&#45;&gt;Node5 -->
<g id="edge4" class="edge"><title>Node4&#45;&gt;Node5</title>
<path fill="none" stroke="midnightblue" d="M330.99,-510.85C370.445,-500.252 420.985,-486.677 458.464,-476.611"/>
<polygon fill="midnightblue" stroke="midnightblue" points="329.962,-507.502 321.212,-513.476 331.778,-514.262 329.962,-507.502"/>
</g>
<!-- Node15 -->
<g id="node15" class="node"><title>Node15</title>
<g id="a_node15"><a xlink:href="address_8cpp.html" target="_top" xlink:title=" ">
<polygon fill="white" stroke="black" points="278,-379.5 278,-409.5 396,-409.5 396,-379.5 278,-379.5"/>
<text text-anchor="start" x="286" y="-397.5" font-family="Helvetica,sans-Serif" font-size="10.00">C:/projects/ndt/sources</text>
<text text-anchor="middle" x="337" y="-386.5" font-family="Helvetica,sans-Serif" font-size="10.00">/src/address.cpp</text>
</a>
</g>
</g>
<!-- Node4&#45;&gt;Node15 -->
<g id="edge28" class="edge"><title>Node4&#45;&gt;Node15</title>
<path fill="none" stroke="midnightblue" d="M279.183,-504.057C286.511,-487.605 296.852,-465.203 307,-446 313.575,-433.558 321.779,-419.855 327.945,-409.866"/>
<polygon fill="midnightblue" stroke="midnightblue" points="275.874,-502.888 275.04,-513.45 282.278,-505.714 275.874,-502.888"/>
</g>
<!-- Node16 -->
<g id="node16" class="node"><title>Node16</title>
<g id="a_node16"><a xlink:href="packet__handlers_8h.html" target="_top" xlink:title=" ">
<polygon fill="white" stroke="black" points="72.5,-307 72.5,-337 221.5,-337 221.5,-307 72.5,-307"/>
<text text-anchor="start" x="80.5" y="-325" font-family="Helvetica,sans-Serif" font-size="10.00">C:/projects/ndt/sources</text>
<text text-anchor="middle" x="147" y="-314" font-family="Helvetica,sans-Serif" font-size="10.00">/include/ndt/packet_handlers.h</text>
</a>
</g>
</g>
<!-- Node4&#45;&gt;Node16 -->
<g id="edge24" class="edge"><title>Node4&#45;&gt;Node16</title>
<path fill="none" stroke="midnightblue" d="M253.933,-505.021C248.211,-496.334 241.701,-486.269 236,-477 204.777,-426.235 170.047,-364.485 154.844,-337.166"/>
<polygon fill="midnightblue" stroke="midnightblue" points="251.102,-507.083 259.545,-513.483 256.936,-503.215 251.102,-507.083"/>
</g>
<!-- Node17 -->
<g id="node17" class="node"><title>Node17</title>
<g id="a_node17"><a xlink:href="serialize_8h.html" target="_top" xlink:title=" ">
<polygon fill="white" stroke="black" points="316,-446.5 316,-476.5 434,-476.5 434,-446.5 316,-446.5"/>
<text text-anchor="start" x="324" y="-464.5" font-family="Helvetica,sans-Serif" font-size="10.00">C:/projects/ndt/sources</text>
<text text-anchor="middle" x="375" y="-453.5" font-family="Helvetica,sans-Serif" font-size="10.00">/include/ndt/serialize.h</text>
</a>
</g>
</g>
<!-- Node4&#45;&gt;Node17 -->
<g id="edge26" class="edge"><title>Node4&#45;&gt;Node17</title>
<path fill="none" stroke="midnightblue" d="M300.775,-508.015C317.271,-497.9 337.052,-485.77 352.044,-476.577"/>
<polygon fill="midnightblue" stroke="midnightblue" points="298.696,-505.185 292,-513.396 302.355,-511.152 298.696,-505.185"/>
</g>
<!-- Node18 -->
<g id="node18" class="node"><title>Node18</title>
<g id="a_node18"><a xlink:href="value_8h.html" target="_top" xlink:title=" ">
<polygon fill="white" stroke="black" points="66,-446.5 66,-476.5 184,-476.5 184,-446.5 66,-446.5"/>
<text text-anchor="start" x="74" y="-464.5" font-family="Helvetica,sans-Serif" font-size="10.00">C:/projects/ndt/sources</text>
<text text-anchor="middle" x="125" y="-453.5" font-family="Helvetica,sans-Serif" font-size="10.00">/include/ndt/value.h</text>
</a>
</g>
</g>
<!-- Node4&#45;&gt;Node18 -->
<g id="edge27" class="edge"><title>Node4&#45;&gt;Node18</title>
<path fill="none" stroke="midnightblue" d="M228.611,-509.269C205.675,-498.916 177.4,-486.153 156.185,-476.577"/>
<polygon fill="midnightblue" stroke="midnightblue" points="227.2,-512.472 237.754,-513.396 230.08,-506.092 227.2,-512.472"/>
</g>
<!-- Node5&#45;&gt;Node2 -->
<g id="edge5" class="edge"><title>Node5&#45;&gt;Node2</title>
<path fill="none" stroke="midnightblue" d="M484.76,-440.233C443.597,-408.342 368.082,-349.392 364,-343 339.865,-305.206 340,-289.843 340,-245 340,-245 340,-245 340,-165 340,-120.157 346.146,-108.135 364,-67 369.671,-53.9339 378.63,-40.4981 385.783,-30.773"/>
<polygon fill="midnightblue" stroke="midnightblue" points="482.693,-443.06 492.744,-446.414 486.978,-437.525 482.693,-443.06"/>
</g>
<!-- Node5&#45;&gt;Node6 -->
<g id="edge6" class="edge"><title>Node5&#45;&gt;Node6</title>
<path fill="none" stroke="midnightblue" d="M529.416,-438.736C537.553,-429.119 546.886,-418.089 554.089,-409.577"/>
<polygon fill="midnightblue" stroke="midnightblue" points="526.722,-436.501 522.934,-446.396 532.065,-441.023 526.722,-436.501"/>
</g>
<!-- Node5&#45;&gt;Node15 -->
<g id="edge22" class="edge"><title>Node5&#45;&gt;Node15</title>
<path fill="none" stroke="midnightblue" d="M463.668,-442.819C435.7,-432.371 400.773,-419.323 374.682,-409.577"/>
<polygon fill="midnightblue" stroke="midnightblue" points="462.652,-446.175 473.245,-446.396 465.102,-439.618 462.652,-446.175"/>
</g>
<!-- Node6&#45;&gt;Node2 -->
<g id="edge7" class="edge"><title>Node6&#45;&gt;Node2</title>
<path fill="none" stroke="midnightblue" d="M525.049,-374.765C480.636,-351.303 416,-306.58 416,-245 416,-245 416,-245 416,-165 416,-115.356 405.424,-57.127 400.053,-30.7578"/>
<polygon fill="midnightblue" stroke="midnightblue" points="523.693,-378.003 534.189,-379.447 526.885,-371.773 523.693,-378.003"/>
</g>
<!-- Node7 -->
<g id="node7" class="node"><title>Node7</title>
<g id="a_node7"><a xlink:href="executor__select__base_8h.html" target="_top" xlink:title=" ">
<polygon fill="white" stroke="black" points="666,-301.5 666,-342.5 784,-342.5 784,-301.5 666,-301.5"/>
<text text-anchor="start" x="674" y="-330.5" font-family="Helvetica,sans-Serif" font-size="10.00">C:/projects/ndt/sources</text>
<text text-anchor="start" x="674" y="-319.5" font-family="Helvetica,sans-Serif" font-size="10.00">/include/ndt/executor</text>
<text text-anchor="middle" x="725" y="-308.5" font-family="Helvetica,sans-Serif" font-size="10.00">_select_base.h</text>
</a>
</g>
</g>
<!-- Node6&#45;&gt;Node7 -->
<g id="edge8" class="edge"><title>Node6&#45;&gt;Node7</title>
<path fill="none" stroke="midnightblue" d="M607.127,-375.265C629.754,-365.232 657.838,-352.779 680.917,-342.546"/>
<polygon fill="midnightblue" stroke="midnightblue" points="605.517,-372.15 597.794,-379.403 608.354,-378.549 605.517,-372.15"/>
</g>
<!-- Node13 -->
<g id="node13" class="node"><title>Node13</title>
<g id="a_node13"><a xlink:href="udp_8h.html" target="_top" xlink:title=" ">
<polygon fill="white" stroke="black" points="507,-307 507,-337 625,-337 625,-307 507,-307"/>
<text text-anchor="start" x="515" y="-325" font-family="Helvetica,sans-Serif" font-size="10.00">C:/projects/ndt/sources</text>
<text text-anchor="middle" x="566" y="-314" font-family="Helvetica,sans-Serif" font-size="10.00">/include/ndt/udp.h</text>
</a>
</g>
</g>
<!-- Node6&#45;&gt;Node13 -->
<g id="edge19" class="edge"><title>Node6&#45;&gt;Node13</title>
<path fill="none" stroke="midnightblue" d="M566,-369.232C566,-358.568 566,-346.414 566,-337.246"/>
<polygon fill="midnightblue" stroke="midnightblue" points="562.5,-369.233 566,-379.233 569.5,-369.233 562.5,-369.233"/>
</g>
<!-- Node7&#45;&gt;Node2 -->
<g id="edge9" class="edge"><title>Node7&#45;&gt;Node2</title>
<path fill="none" stroke="midnightblue" d="M684.702,-295.578C671.991,-286.664 658.322,-276.088 647,-265 567.157,-186.803 578.736,-137.474 492,-67 473.589,-52.0411 450.065,-39.4957 431.032,-30.6507"/>
<polygon fill="midnightblue" stroke="midnightblue" points="683.08,-298.709 693.309,-301.47 687.035,-292.933 683.08,-298.709"/>
</g>
<!-- Node8 -->
<g id="node8" class="node"><title>Node8</title>
<g id="a_node8"><a xlink:href="nix_2executor__select__impl_8h.html" target="_top" xlink:title=" ">
<polygon fill="white" stroke="black" points="850,-223.5 850,-264.5 986,-264.5 986,-223.5 850,-223.5"/>
<text text-anchor="start" x="858" y="-252.5" font-family="Helvetica,sans-Serif" font-size="10.00">C:/projects/ndt/sources</text>
<text text-anchor="start" x="858" y="-241.5" font-family="Helvetica,sans-Serif" font-size="10.00">/include/ndt/platform</text>
<text text-anchor="middle" x="918" y="-230.5" font-family="Helvetica,sans-Serif" font-size="10.00">/nix/executor_select_impl.h</text>
</a>
</g>
</g>
<!-- Node7&#45;&gt;Node8 -->
<g id="edge10" class="edge"><title>Node7&#45;&gt;Node8</title>
<path fill="none" stroke="midnightblue" d="M784.048,-297.748C811.064,-287.11 842.715,-274.646 868.466,-264.506"/>
<polygon fill="midnightblue" stroke="midnightblue" points="782.724,-294.507 774.702,-301.428 785.289,-301.021 782.724,-294.507"/>
</g>
<!-- Node12 -->
<g id="node12" class="node"><title>Node12</title>
<g id="a_node12"><a xlink:href="win_2executor__select__impl_8h.html" target="_top" xlink:title=" ">
<polygon fill="white" stroke="black" points="656.5,-223.5 656.5,-264.5 793.5,-264.5 793.5,-223.5 656.5,-223.5"/>
<text text-anchor="start" x="664.5" y="-252.5" font-family="Helvetica,sans-Serif" font-size="10.00">C:/projects/ndt/sources</text>
<text text-anchor="start" x="664.5" y="-241.5" font-family="Helvetica,sans-Serif" font-size="10.00">/include/ndt/platform</text>
<text text-anchor="middle" x="725" y="-230.5" font-family="Helvetica,sans-Serif" font-size="10.00">/win/executor_select_impl.h</text>
</a>
</g>
</g>
<!-- Node7&#45;&gt;Node12 -->
<g id="edge18" class="edge"><title>Node7&#45;&gt;Node12</title>
<path fill="none" stroke="midnightblue" d="M725,-291.297C725,-282.301 725,-272.653 725,-264.506"/>
<polygon fill="midnightblue" stroke="midnightblue" points="721.5,-291.428 725,-301.428 728.5,-291.428 721.5,-291.428"/>
</g>
<!-- Node9 -->
<g id="node9" class="node"><title>Node9</title>
<g id="a_node9"><a xlink:href="executor__select_8h.html" target="_top" xlink:title=" ">
<polygon fill="white" stroke="black" points="850,-145.5 850,-186.5 968,-186.5 968,-145.5 850,-145.5"/>
<text text-anchor="start" x="858" y="-174.5" font-family="Helvetica,sans-Serif" font-size="10.00">C:/projects/ndt/sources</text>
<text text-anchor="start" x="858" y="-163.5" font-family="Helvetica,sans-Serif" font-size="10.00">/include/ndt/executor</text>
<text text-anchor="middle" x="909" y="-152.5" font-family="Helvetica,sans-Serif" font-size="10.00">_select.h</text>
</a>
</g>
</g>
<!-- Node8&#45;&gt;Node9 -->
<g id="edge11" class="edge"><title>Node8&#45;&gt;Node9</title>
<path fill="none" stroke="midnightblue" d="M914.482,-213.297C913.417,-204.301 912.275,-194.653 911.31,-186.506"/>
<polygon fill="midnightblue" stroke="midnightblue" points="911.03,-213.909 915.682,-223.428 917.982,-213.086 911.03,-213.909"/>
</g>
<!-- Node9&#45;&gt;Node2 -->
<g id="edge14" class="edge"><title>Node9&#45;&gt;Node2</title>
<path fill="none" stroke="midnightblue" d="M898.418,-135.863C888.533,-113.115 871.445,-82.8017 846,-67 782.277,-27.4269 563.172,-18.7968 456.412,-16.9628"/>
<polygon fill="midnightblue" stroke="midnightblue" points="895.297,-137.476 902.337,-145.393 901.771,-134.813 895.297,-137.476"/>
</g>
<!-- Node10 -->
<g id="node10" class="node"><title>Node10</title>
<g id="a_node10"><a xlink:href="context_8h.html" target="_top" xlink:title=" ">
<polygon fill="white" stroke="black" points="894,-73 894,-103 1012,-103 1012,-73 894,-73"/>
<text text-anchor="start" x="902" y="-91" font-family="Helvetica,sans-Serif" font-size="10.00">C:/projects/ndt/sources</text>
<text text-anchor="middle" x="953" y="-80" font-family="Helvetica,sans-Serif" font-size="10.00">/include/ndt/context.h</text>
</a>
</g>
</g>
<!-- Node9&#45;&gt;Node10 -->
<g id="edge12" class="edge"><title>Node9&#45;&gt;Node10</title>
<path fill="none" stroke="midnightblue" d="M925.418,-136.642C932.014,-125.249 939.327,-112.618 944.764,-103.225"/>
<polygon fill="midnightblue" stroke="midnightblue" points="922.313,-135.02 920.331,-145.428 928.371,-138.527 922.313,-135.02"/>
</g>
<!-- Node11 -->
<g id="node11" class="node"><title>Node11</title>
<g id="a_node11"><a xlink:href="event__handler__select_8h.html" target="_top" xlink:title=" ">
<polygon fill="white" stroke="black" points="708.5,-67.5 708.5,-108.5 837.5,-108.5 837.5,-67.5 708.5,-67.5"/>
<text text-anchor="start" x="716.5" y="-96.5" font-family="Helvetica,sans-Serif" font-size="10.00">C:/projects/ndt/sources</text>
<text text-anchor="start" x="716.5" y="-85.5" font-family="Helvetica,sans-Serif" font-size="10.00">/include/ndt/event_handler</text>
<text text-anchor="middle" x="773" y="-74.5" font-family="Helvetica,sans-Serif" font-size="10.00">_select.h</text>
</a>
</g>
</g>
<!-- Node9&#45;&gt;Node11 -->
<g id="edge15" class="edge"><title>Node9&#45;&gt;Node11</title>
<path fill="none" stroke="midnightblue" d="M865.132,-140.486C846.607,-130.134 825.337,-118.247 807.905,-108.506"/>
<polygon fill="midnightblue" stroke="midnightblue" points="863.54,-143.605 873.977,-145.428 866.955,-137.495 863.54,-143.605"/>
</g>
<!-- Node10&#45;&gt;Node2 -->
<g id="edge13" class="edge"><title>Node10&#45;&gt;Node2</title>
<path fill="none" stroke="midnightblue" d="M896.322,-70.5043C890.833,-69.1992 885.327,-68.0013 880,-67 728.78,-38.5765 547.7,-25.0139 456.185,-19.5691"/>
<polygon fill="midnightblue" stroke="midnightblue" points="895.59,-73.9291 906.14,-72.9501 897.282,-67.1367 895.59,-73.9291"/>
</g>
<!-- Node11&#45;&gt;Node2 -->
<g id="edge16" class="edge"><title>Node11&#45;&gt;Node2</title>
<path fill="none" stroke="midnightblue" d="M698.131,-72.962C627.027,-59.6301 521.55,-39.8532 456.155,-27.5915"/>
<polygon fill="midnightblue" stroke="midnightblue" points="697.89,-76.4777 708.363,-74.8806 699.18,-69.5976 697.89,-76.4777"/>
</g>
<!-- Node11&#45;&gt;Node7 -->
<g id="edge17" class="edge"><title>Node11&#45;&gt;Node7</title>
<path fill="none" stroke="midnightblue" d="M787.957,-117.716C804.626,-153.978 826.251,-217.376 802,-265 794.199,-280.319 780.029,-292.433 765.951,-301.419"/>
<polygon fill="midnightblue" stroke="midnightblue" points="791.109,-116.193 783.643,-108.675 784.791,-119.208 791.109,-116.193"/>
</g>
<!-- Node13&#45;&gt;Node2 -->
<g id="edge20" class="edge"><title>Node13&#45;&gt;Node2</title>
<path fill="none" stroke="midnightblue" d="M572.367,-296.869C576.54,-276.538 579.767,-247.01 571,-223 539.323,-136.247 453.36,-60.7274 415.419,-30.5256"/>
<polygon fill="midnightblue" stroke="midnightblue" points="568.901,-296.326 570.089,-306.854 575.726,-297.883 568.901,-296.326"/>
</g>
<!-- Node14 -->
<g id="node14" class="node"><title>Node14</title>
<g id="a_node14"><a xlink:href="udp_8cpp.html" target="_top" xlink:title=" ">
<polygon fill="white" stroke="black" points="444,-229 444,-259 562,-259 562,-229 444,-229"/>
<text text-anchor="start" x="452" y="-247" font-family="Helvetica,sans-Serif" font-size="10.00">C:/projects/ndt/sources</text>
<text text-anchor="middle" x="503" y="-236" font-family="Helvetica,sans-Serif" font-size="10.00">/src/udp.cpp</text>
</a>
</g>
</g>
<!-- Node13&#45;&gt;Node14 -->
<g id="edge21" class="edge"><title>Node13&#45;&gt;Node14</title>
<path fill="none" stroke="midnightblue" d="M547.603,-298.807C537.014,-286.033 524.022,-270.36 514.797,-259.231"/>
<polygon fill="midnightblue" stroke="midnightblue" points="545.074,-301.24 554.15,-306.705 550.463,-296.772 545.074,-301.24"/>
</g>
<!-- Node16&#45;&gt;Node2 -->
<g id="edge25" class="edge"><title>Node16&#45;&gt;Node2</title>
<path fill="none" stroke="midnightblue" d="M148.486,-296.66C152.866,-246.479 169.968,-130.883 236,-67 263.265,-40.6226 304.144,-28.0091 337.887,-21.9841"/>
<polygon fill="midnightblue" stroke="midnightblue" points="144.977,-296.632 147.694,-306.872 151.957,-297.173 144.977,-296.632"/>
</g>
<!-- Node21 -->
<g id="node21" class="node"><title>Node21</title>
<g id="a_node21"><a xlink:href="file_8cpp.html" target="_top" xlink:title=" ">
<polygon fill="white" stroke="black" points="1006,-379.5 1006,-409.5 1124,-409.5 1124,-379.5 1006,-379.5"/>
<text text-anchor="start" x="1014" y="-397.5" font-family="Helvetica,sans-Serif" font-size="10.00">C:/projects/ndt/sources</text>
<text text-anchor="middle" x="1065" y="-386.5" font-family="Helvetica,sans-Serif" font-size="10.00">/src/file.cpp</text>
</a>
</g>
</g>
<!-- Node20&#45;&gt;Node21 -->
<g id="edge32" class="edge"><title>Node20&#45;&gt;Node21</title>
<path fill="none" stroke="midnightblue" d="M1065,-436.108C1065,-427.154 1065,-417.323 1065,-409.577"/>
<polygon fill="midnightblue" stroke="midnightblue" points="1061.5,-436.396 1065,-446.396 1068.5,-436.396 1061.5,-436.396"/>
</g>
<!-- Node22&#45;&gt;Node10 -->
<g id="edge34" class="edge"><title>Node22&#45;&gt;Node10</title>
<path fill="none" stroke="midnightblue" d="M1013.52,-138.992C999.019,-127.015 982.378,-113.269 970.22,-103.225"/>
<polygon fill="midnightblue" stroke="midnightblue" points="1011.37,-141.758 1021.31,-145.428 1015.83,-136.361 1011.37,-141.758"/>
</g>
<!-- Node24&#45;&gt;Node25 -->
<g id="edge38" class="edge"><title>Node24&#45;&gt;Node25</title>
<path fill="none" stroke="midnightblue" d="M785.901,-577.82C820.715,-566.612 861.907,-553.352 892.324,-543.56"/>
<polygon fill="midnightblue" stroke="midnightblue" points="784.711,-574.526 776.265,-580.922 786.856,-581.189 784.711,-574.526"/>
</g>
<!-- Node24&#45;&gt;Node27 -->
<g id="edge41" class="edge"><title>Node24&#45;&gt;Node27</title>
<path fill="none" stroke="midnightblue" d="M684.722,-573.844C672.112,-563.625 658.151,-552.312 647.486,-543.67"/>
<polygon fill="midnightblue" stroke="midnightblue" points="682.793,-576.785 692.766,-580.362 687.2,-571.347 682.793,-576.785"/>
</g>
<!-- Node25&#45;&gt;Node20 -->
<g id="edge39" class="edge"><title>Node25&#45;&gt;Node20</title>
<path fill="none" stroke="midnightblue" d="M973.007,-508.853C993.403,-498.576 1018.31,-486.025 1037.06,-476.577"/>
<polygon fill="midnightblue" stroke="midnightblue" points="971.347,-505.77 963.991,-513.396 974.496,-512.022 971.347,-505.77"/>
</g>
<!-- Node26 -->
<g id="node26" class="node"><title>Node26</title>
<g id="a_node26"><a xlink:href="sys__file__ops_8cpp.html" target="_top" xlink:title=" ">
<polygon fill="white" stroke="black" points="870,-446.5 870,-476.5 988,-476.5 988,-446.5 870,-446.5"/>
<text text-anchor="start" x="878" y="-464.5" font-family="Helvetica,sans-Serif" font-size="10.00">C:/projects/ndt/sources</text>
<text text-anchor="middle" x="929" y="-453.5" font-family="Helvetica,sans-Serif" font-size="10.00">/src/sys_file_ops.cpp</text>
</a>
</g>
</g>
<!-- Node25&#45;&gt;Node26 -->
<g id="edge40" class="edge"><title>Node25&#45;&gt;Node26</title>
<path fill="none" stroke="midnightblue" d="M933.405,-503.403C932.432,-494.37 931.359,-484.408 930.516,-476.577"/>
<polygon fill="midnightblue" stroke="midnightblue" points="929.93,-503.828 934.481,-513.396 936.89,-503.079 929.93,-503.828"/>
</g>
<!-- Node27&#45;&gt;Node2 -->
<g id="edge43" class="edge"><title>Node27&#45;&gt;Node2</title>
<path fill="none" stroke="midnightblue" d="M620.031,-504.126C611.396,-486.227 597.398,-461.972 579,-446 549.251,-420.174 530.474,-432.303 498,-410 423.254,-358.665 378,-335.676 378,-245 378,-245 378,-245 378,-165 378,-115.356 388.576,-57.127 393.947,-30.7578"/>
<polygon fill="midnightblue" stroke="midnightblue" points="616.905,-505.707 624.27,-513.324 623.262,-502.777 616.905,-505.707"/>
</g>
<!-- Node27&#45;&gt;Node5 -->
<g id="edge42" class="edge"><title>Node27&#45;&gt;Node5</title>
<path fill="none" stroke="midnightblue" d="M595.353,-508.575C576.633,-498.35 553.913,-485.94 536.771,-476.577"/>
<polygon fill="midnightblue" stroke="midnightblue" points="593.725,-511.674 604.179,-513.396 597.08,-505.531 593.725,-511.674"/>
</g>
<!-- Node28 -->
<g id="node28" class="node"><title>Node28</title>
<g id="a_node28"><a xlink:href="sys__socket__ops_8cpp.html" target="_top" xlink:title=" ">
<polygon fill="white" stroke="black" points="626,-446.5 626,-476.5 752,-476.5 752,-446.5 626,-446.5"/>
<text text-anchor="start" x="634" y="-464.5" font-family="Helvetica,sans-Serif" font-size="10.00">C:/projects/ndt/sources</text>
<text text-anchor="middle" x="689" y="-453.5" font-family="Helvetica,sans-Serif" font-size="10.00">/src/sys_socket_ops.cpp</text>
</a>
</g>
</g>
<!-- Node27&#45;&gt;Node28 -->
<g id="edge44" class="edge"><title>Node27&#45;&gt;Node28</title>
<path fill="none" stroke="midnightblue" d="M649.755,-505.736C658.484,-496.119 668.496,-485.089 676.223,-476.577"/>
<polygon fill="midnightblue" stroke="midnightblue" points="646.932,-503.639 642.802,-513.396 652.115,-508.344 646.932,-503.639"/>
</g>
</g>
</svg>
