<?xml version="1.0" encoding="UTF-8" standalone="no"?>
<!DOCTYPE svg PUBLIC "-//W3C//DTD SVG 1.1//EN"
 "http://www.w3.org/Graphics/SVG/1.1/DTD/svg11.dtd">
<!-- Generated by graphviz version 2.38.0 (20140413.2041)
 -->
<!-- Title: C:/projects/ndt/sources/include/ndt/useful_base_types.h Pages: 1 -->
<!--zoomable 708 -->
<svg id="main" version="1.1" xmlns="http://www.w3.org/2000/svg" xmlns:xlink="http://www.w3.org/1999/xlink" xml:space="preserve" onload="init(evt)">
<style type="text/css"><![CDATA[
.edge:hover path { stroke: red; }
.edge:hover polygon { stroke: red; fill: red; }
]]></style>
<script type="text/javascript"><![CDATA[
var edges = document.getElementsByTagName('g');
if (edges && edges.length) {
  for (var i=0;i<edges.length;i++) {
    if (edges[i].id.substr(0,4)=='edge') {
      edges[i].setAttribute('class','edge');
    }
  }
}
]]></script>
        <defs>
                <circle id="rim" cx="0" cy="0" r="7"/>
                <circle id="rim2" cx="0" cy="0" r="3.5"/>
                <g id="zoomPlus">
                        <use xlink:href="#rim" fill="#404040">
                                <set attributeName="fill" to="#808080" begin="zoomplus.mouseover" end="zoomplus.mouseout"/>
                        </use>
                        <path d="M-4,0h8M0,-4v8" fill="none" stroke="white" stroke-width="1.5" pointer-events="none"/>
                </g>
                <g id="zoomMin">
                        <use xlink:href="#rim" fill="#404040">
                                <set attributeName="fill" to="#808080" begin="zoomminus.mouseover" end="zoomminus.mouseout"/>
                        </use>
                        <path d="M-4,0h8" fill="none" stroke="white" stroke-width="1.5" pointer-events="none"/>
                </g>
                <g id="dirArrow">
                        <path fill="none" stroke="white" stroke-width="1.5" d="M0,-3.0v7 M-2.5,-0.5L0,-3.0L2.5,-0.5"/>
                </g>
               <g id="resetDef">
                       <use xlink:href="#rim2" fill="#404040">
                               <set attributeName="fill" to="#808080" begin="reset.mouseover" end="reset.mouseout"/>
                       </use>
               </g>
        </defs>

<script type="text/javascript">
var viewWidth = 1100;
var viewHeight = 708;
var sectionId = 'dynsection-0';
</script>
<script xlink:href="svgpan.js"/>
<svg id="graph" class="graph">
<g id="viewport">
<title>C:/projects/ndt/sources/include/ndt/useful_base_types.h</title>
<polygon fill="white" stroke="none" points="-4,4 -4,-704 1096,-704 1096,4 -4,4"/>
<!-- Node1 -->
<g id="node1" class="node"><title>Node1</title>
<g id="a_node1"><a xlink:title=" ">
<polygon fill="#bfbfbf" stroke="black" points="598,-658.5 598,-699.5 720,-699.5 720,-658.5 598,-658.5"/>
<text text-anchor="start" x="606" y="-687.5" font-family="Helvetica,sans-Serif" font-size="10.00">C:/projects/ndt/sources</text>
<text text-anchor="start" x="606" y="-676.5" font-family="Helvetica,sans-Serif" font-size="10.00">/include/ndt/useful_base</text>
<text text-anchor="middle" x="659" y="-665.5" font-family="Helvetica,sans-Serif" font-size="10.00">_types.h</text>
</a>
</g>
</g>
<!-- Node2 -->
<g id="node2" class="node"><title>Node2</title>
<g id="a_node2"><a xlink:href="core_8h.html" target="_top" xlink:title=" ">
<polygon fill="white" stroke="black" points="365,-0.5 365,-30.5 483,-30.5 483,-0.5 365,-0.5"/>
<text text-anchor="start" x="373" y="-18.5" font-family="Helvetica,sans-Serif" font-size="10.00">C:/projects/ndt/sources</text>
<text text-anchor="middle" x="424" y="-7.5" font-family="Helvetica,sans-Serif" font-size="10.00">/include/ndt/core.h</text>
</a>
</g>
</g>
<!-- Node1&#45;&gt;Node2 -->
<g id="edge1" class="edge"><title>Node1&#45;&gt;Node2</title>
<path fill="none" stroke="midnightblue" d="M587.506,-678.413C450.106,-678.052 155.057,-671.347 68,-622 23.6107,-596.839 0,-580.525 0,-529.5 0,-529.5 0,-529.5 0,-165 0,-107.922 33.1176,-94.7421 83,-67 130.203,-40.748 280.365,-26.4101 364.832,-20.2363"/>
<polygon fill="midnightblue" stroke="midnightblue" points="587.911,-681.913 597.917,-678.429 587.922,-674.913 587.911,-681.913"/>
</g>
<!-- Node3 -->
<g id="node3" class="node"><title>Node3</title>
<g id="a_node3"><a xlink:href="file_8h.html" target="_top" xlink:title=" ">
<polygon fill="white" stroke="black" points="838,-446.5 838,-476.5 956,-476.5 956,-446.5 838,-446.5"/>
<text text-anchor="start" x="846" y="-464.5" font-family="Helvetica,sans-Serif" font-size="10.00">C:/projects/ndt/sources</text>
<text text-anchor="middle" x="897" y="-453.5" font-family="Helvetica,sans-Serif" font-size="10.00">/include/ndt/file.h</text>
</a>
</g>
</g>
<!-- Node1&#45;&gt;Node3 -->
<g id="edge2" class="edge"><title>Node1&#45;&gt;Node3</title>
<path fill="none" stroke="midnightblue" d="M726.688,-653.936C742.779,-645.745 758.797,-635.22 771,-622 806.435,-583.612 781.295,-552.916 815,-513 828.268,-497.288 847.716,-485.016 864.342,-476.506"/>
<polygon fill="midnightblue" stroke="midnightblue" points="724.724,-650.998 717.234,-658.492 727.762,-657.304 724.724,-650.998"/>
</g>
<!-- Node5 -->
<g id="node5" class="node"><title>Node5</title>
<g id="a_node5"><a xlink:href="nix_2context__base_8h.html" target="_top" xlink:title=" ">
<polygon fill="white" stroke="black" points="32,-145.5 32,-186.5 150,-186.5 150,-145.5 32,-145.5"/>
<text text-anchor="start" x="40" y="-174.5" font-family="Helvetica,sans-Serif" font-size="10.00">C:/projects/ndt/sources</text>
<text text-anchor="start" x="40" y="-163.5" font-family="Helvetica,sans-Serif" font-size="10.00">/include/ndt/platform</text>
<text text-anchor="middle" x="91" y="-152.5" font-family="Helvetica,sans-Serif" font-size="10.00">/nix/context_base.h</text>
</a>
</g>
</g>
<!-- Node1&#45;&gt;Node5 -->
<g id="edge4" class="edge"><title>Node1&#45;&gt;Node5</title>
<path fill="none" stroke="midnightblue" d="M587.324,-675.892C423.954,-669.143 38,-641.36 38,-529.5 38,-529.5 38,-529.5 38,-321 38,-276.633 41.0152,-264.387 57,-223 61.9584,-210.162 69.8253,-196.949 76.7436,-186.584"/>
<polygon fill="midnightblue" stroke="midnightblue" points="587.625,-679.407 597.757,-676.307 587.904,-672.412 587.625,-679.407"/>
</g>
<!-- Node7 -->
<g id="node7" class="node"><title>Node7</title>
<g id="a_node7"><a xlink:href="win_2context__base_8h.html" target="_top" xlink:title=" ">
<polygon fill="white" stroke="black" points="856,-580.5 856,-621.5 974,-621.5 974,-580.5 856,-580.5"/>
<text text-anchor="start" x="864" y="-609.5" font-family="Helvetica,sans-Serif" font-size="10.00">C:/projects/ndt/sources</text>
<text text-anchor="start" x="864" y="-598.5" font-family="Helvetica,sans-Serif" font-size="10.00">/include/ndt/platform</text>
<text text-anchor="middle" x="915" y="-587.5" font-family="Helvetica,sans-Serif" font-size="10.00">/win/context_base.h</text>
</a>
</g>
</g>
<!-- Node1&#45;&gt;Node7 -->
<g id="edge7" class="edge"><title>Node1&#45;&gt;Node7</title>
<path fill="none" stroke="midnightblue" d="M729.926,-656.944C769.569,-645.175 818.397,-630.679 855.944,-619.532"/>
<polygon fill="midnightblue" stroke="midnightblue" points="728.909,-653.595 720.318,-659.796 730.901,-660.305 728.909,-653.595"/>
</g>
<!-- Node8 -->
<g id="node8" class="node"><title>Node8</title>
<g id="a_node8"><a xlink:href="socket_8h.html" target="_top" xlink:title=" ">
<polygon fill="white" stroke="black" points="476,-379.5 476,-409.5 594,-409.5 594,-379.5 476,-379.5"/>
<text text-anchor="start" x="484" y="-397.5" font-family="Helvetica,sans-Serif" font-size="10.00">C:/projects/ndt/sources</text>
<text text-anchor="middle" x="535" y="-386.5" font-family="Helvetica,sans-Serif" font-size="10.00">/include/ndt/socket.h</text>
</a>
</g>
</g>
<!-- Node1&#45;&gt;Node8 -->
<g id="edge8" class="edge"><title>Node1&#45;&gt;Node8</title>
<path fill="none" stroke="midnightblue" d="M630.197,-651.177C594.204,-615.479 534.481,-548.493 511,-477 503.314,-453.597 515.869,-426.045 525.528,-409.717"/>
<polygon fill="midnightblue" stroke="midnightblue" points="627.898,-653.824 637.496,-658.31 632.791,-648.818 627.898,-653.824"/>
</g>
<!-- Node16 -->
<g id="node16" class="node"><title>Node16</title>
<g id="a_node16"><a xlink:href="sys__error__code_8h.html" target="_top" xlink:title=" ">
<polygon fill="white" stroke="black" points="644,-580.5 644,-621.5 762,-621.5 762,-580.5 644,-580.5"/>
<text text-anchor="start" x="652" y="-609.5" font-family="Helvetica,sans-Serif" font-size="10.00">C:/projects/ndt/sources</text>
<text text-anchor="start" x="652" y="-598.5" font-family="Helvetica,sans-Serif" font-size="10.00">/include/ndt/sys_error</text>
<text text-anchor="middle" x="703" y="-587.5" font-family="Helvetica,sans-Serif" font-size="10.00">_code.h</text>
</a>
</g>
</g>
<!-- Node1&#45;&gt;Node16 -->
<g id="edge23" class="edge"><title>Node1&#45;&gt;Node16</title>
<path fill="none" stroke="midnightblue" d="M675.351,-649.757C680.795,-640.354 686.734,-630.096 691.707,-621.506"/>
<polygon fill="midnightblue" stroke="midnightblue" points="672.313,-648.02 670.331,-658.428 678.371,-651.527 672.313,-648.02"/>
</g>
<!-- Node17 -->
<g id="node17" class="node"><title>Node17</title>
<g id="a_node17"><a xlink:href="sys__file__ops_8h.html" target="_top" xlink:title=" ">
<polygon fill="white" stroke="black" points="824,-513.5 824,-543.5 956,-543.5 956,-513.5 824,-513.5"/>
<text text-anchor="start" x="832" y="-531.5" font-family="Helvetica,sans-Serif" font-size="10.00">C:/projects/ndt/sources</text>
<text text-anchor="middle" x="890" y="-520.5" font-family="Helvetica,sans-Serif" font-size="10.00">/include/ndt/sys_file_ops.h</text>
</a>
</g>
</g>
<!-- Node1&#45;&gt;Node17 -->
<g id="edge34" class="edge"><title>Node1&#45;&gt;Node17</title>
<path fill="none" stroke="midnightblue" d="M729.869,-657.867C754.533,-649.032 781.61,-637.16 804,-622 820.977,-610.505 859.04,-566.447 878.325,-543.532"/>
<polygon fill="midnightblue" stroke="midnightblue" points="728.491,-654.64 720.191,-661.225 730.786,-661.253 728.491,-654.64"/>
</g>
<!-- Node19 -->
<g id="node19" class="node"><title>Node19</title>
<g id="a_node19"><a xlink:href="sys__socket__ops_8h.html" target="_top" xlink:title=" ">
<polygon fill="white" stroke="black" points="599.5,-513.5 599.5,-543.5 748.5,-543.5 748.5,-513.5 599.5,-513.5"/>
<text text-anchor="start" x="607.5" y="-531.5" font-family="Helvetica,sans-Serif" font-size="10.00">C:/projects/ndt/sources</text>
<text text-anchor="middle" x="674" y="-520.5" font-family="Helvetica,sans-Serif" font-size="10.00">/include/ndt/sys_socket_ops.h</text>
</a>
</g>
</g>
<!-- Node1&#45;&gt;Node19 -->
<g id="edge35" class="edge"><title>Node1&#45;&gt;Node19</title>
<path fill="none" stroke="midnightblue" d="M643.334,-649.098C634.723,-629.375 627.223,-602.795 635,-580 639.722,-566.161 649.943,-553.167 658.737,-543.826"/>
<polygon fill="midnightblue" stroke="midnightblue" points="640.178,-650.611 647.588,-658.183 646.517,-647.642 640.178,-650.611"/>
</g>
<!-- Node4 -->
<g id="node4" class="node"><title>Node4</title>
<g id="a_node4"><a xlink:href="file_8cpp.html" target="_top" xlink:title=" ">
<polygon fill="white" stroke="black" points="876,-379.5 876,-409.5 994,-409.5 994,-379.5 876,-379.5"/>
<text text-anchor="start" x="884" y="-397.5" font-family="Helvetica,sans-Serif" font-size="10.00">C:/projects/ndt/sources</text>
<text text-anchor="middle" x="935" y="-386.5" font-family="Helvetica,sans-Serif" font-size="10.00">/src/file.cpp</text>
</a>
</g>
</g>
<!-- Node3&#45;&gt;Node4 -->
<g id="edge3" class="edge"><title>Node3&#45;&gt;Node4</title>
<path fill="none" stroke="midnightblue" d="M910.402,-437.576C915.859,-428.241 921.993,-417.748 926.771,-409.577"/>
<polygon fill="midnightblue" stroke="midnightblue" points="907.271,-435.997 905.245,-446.396 913.314,-439.529 907.271,-435.997"/>
</g>
<!-- Node6 -->
<g id="node6" class="node"><title>Node6</title>
<g id="a_node6"><a xlink:href="context_8h.html" target="_top" xlink:title=" ">
<polygon fill="white" stroke="black" points="92,-73 92,-103 210,-103 210,-73 92,-73"/>
<text text-anchor="start" x="100" y="-91" font-family="Helvetica,sans-Serif" font-size="10.00">C:/projects/ndt/sources</text>
<text text-anchor="middle" x="151" y="-80" font-family="Helvetica,sans-Serif" font-size="10.00">/include/ndt/context.h</text>
</a>
</g>
</g>
<!-- Node5&#45;&gt;Node6 -->
<g id="edge5" class="edge"><title>Node5&#45;&gt;Node6</title>
<path fill="none" stroke="midnightblue" d="M112.855,-137.317C121.986,-125.751 132.208,-112.804 139.769,-103.225"/>
<polygon fill="midnightblue" stroke="midnightblue" points="109.901,-135.41 106.451,-145.428 115.395,-139.748 109.901,-135.41"/>
</g>
<!-- Node6&#45;&gt;Node2 -->
<g id="edge6" class="edge"><title>Node6&#45;&gt;Node2</title>
<path fill="none" stroke="midnightblue" d="M211.498,-70.3244C215.727,-69.1899 219.926,-68.0724 224,-67 272.139,-54.3294 326.965,-40.5301 367.024,-30.5633"/>
<polygon fill="midnightblue" stroke="midnightblue" points="210.366,-67.0046 201.624,-72.9892 212.19,-73.7629 210.366,-67.0046"/>
</g>
<!-- Node8&#45;&gt;Node2 -->
<g id="edge9" class="edge"><title>Node8&#45;&gt;Node2</title>
<path fill="none" stroke="midnightblue" d="M569.576,-373.882C581.548,-365.656 594.166,-355.157 603,-343 630.017,-305.821 636,-290.959 636,-245 636,-245 636,-245 636,-165 636,-89.8431 545.513,-49.5054 482.772,-30.5697"/>
<polygon fill="midnightblue" stroke="midnightblue" points="567.492,-371.063 561.035,-379.463 571.321,-376.923 567.492,-371.063"/>
</g>
<!-- Node9 -->
<g id="node9" class="node"><title>Node9</title>
<g id="a_node9"><a xlink:href="executor__select__base_8h.html" target="_top" xlink:title=" ">
<polygon fill="white" stroke="black" points="327,-301.5 327,-342.5 445,-342.5 445,-301.5 327,-301.5"/>
<text text-anchor="start" x="335" y="-330.5" font-family="Helvetica,sans-Serif" font-size="10.00">C:/projects/ndt/sources</text>
<text text-anchor="start" x="335" y="-319.5" font-family="Helvetica,sans-Serif" font-size="10.00">/include/ndt/executor</text>
<text text-anchor="middle" x="386" y="-308.5" font-family="Helvetica,sans-Serif" font-size="10.00">_select_base.h</text>
</a>
</g>
</g>
<!-- Node8&#45;&gt;Node9 -->
<g id="edge10" class="edge"><title>Node8&#45;&gt;Node9</title>
<path fill="none" stroke="midnightblue" d="M495.891,-374.995C474.786,-365.009 448.745,-352.688 427.311,-342.546"/>
<polygon fill="midnightblue" stroke="midnightblue" points="494.67,-378.289 505.206,-379.403 497.663,-371.962 494.67,-378.289"/>
</g>
<!-- Node14 -->
<g id="node14" class="node"><title>Node14</title>
<g id="a_node14"><a xlink:href="udp_8h.html" target="_top" xlink:title=" ">
<polygon fill="white" stroke="black" points="476,-307 476,-337 594,-337 594,-307 476,-307"/>
<text text-anchor="start" x="484" y="-325" font-family="Helvetica,sans-Serif" font-size="10.00">C:/projects/ndt/sources</text>
<text text-anchor="middle" x="535" y="-314" font-family="Helvetica,sans-Serif" font-size="10.00">/include/ndt/udp.h</text>
</a>
</g>
</g>
<!-- Node8&#45;&gt;Node14 -->
<g id="edge20" class="edge"><title>Node8&#45;&gt;Node14</title>
<path fill="none" stroke="midnightblue" d="M535,-369.232C535,-358.568 535,-346.414 535,-337.246"/>
<polygon fill="midnightblue" stroke="midnightblue" points="531.5,-369.233 535,-379.233 538.5,-369.233 531.5,-369.233"/>
</g>
<!-- Node9&#45;&gt;Node2 -->
<g id="edge11" class="edge"><title>Node9&#45;&gt;Node2</title>
<path fill="none" stroke="midnightblue" d="M389.715,-291.234C397.731,-227.001 416.398,-77.4188 422.228,-30.7015"/>
<polygon fill="midnightblue" stroke="midnightblue" points="386.2,-291.132 388.435,-301.489 393.146,-291.999 386.2,-291.132"/>
</g>
<!-- Node10 -->
<g id="node10" class="node"><title>Node10</title>
<g id="a_node10"><a xlink:href="nix_2executor__select__impl_8h.html" target="_top" xlink:title=" ">
<polygon fill="white" stroke="black" points="66,-223.5 66,-264.5 202,-264.5 202,-223.5 66,-223.5"/>
<text text-anchor="start" x="74" y="-252.5" font-family="Helvetica,sans-Serif" font-size="10.00">C:/projects/ndt/sources</text>
<text text-anchor="start" x="74" y="-241.5" font-family="Helvetica,sans-Serif" font-size="10.00">/include/ndt/platform</text>
<text text-anchor="middle" x="134" y="-230.5" font-family="Helvetica,sans-Serif" font-size="10.00">/nix/executor_select_impl.h</text>
</a>
</g>
</g>
<!-- Node9&#45;&gt;Node10 -->
<g id="edge12" class="edge"><title>Node9&#45;&gt;Node10</title>
<path fill="none" stroke="midnightblue" d="M317.242,-300.264C280.365,-289.142 235.18,-275.514 198.906,-264.575"/>
<polygon fill="midnightblue" stroke="midnightblue" points="316.333,-303.645 326.917,-303.181 318.354,-296.943 316.333,-303.645"/>
</g>
<!-- Node13 -->
<g id="node13" class="node"><title>Node13</title>
<g id="a_node13"><a xlink:href="win_2executor__select__impl_8h.html" target="_top" xlink:title=" ">
<polygon fill="white" stroke="black" points="220.5,-223.5 220.5,-264.5 357.5,-264.5 357.5,-223.5 220.5,-223.5"/>
<text text-anchor="start" x="228.5" y="-252.5" font-family="Helvetica,sans-Serif" font-size="10.00">C:/projects/ndt/sources</text>
<text text-anchor="start" x="228.5" y="-241.5" font-family="Helvetica,sans-Serif" font-size="10.00">/include/ndt/platform</text>
<text text-anchor="middle" x="289" y="-230.5" font-family="Helvetica,sans-Serif" font-size="10.00">/win/executor_select_impl.h</text>
</a>
</g>
</g>
<!-- Node9&#45;&gt;Node13 -->
<g id="edge19" class="edge"><title>Node9&#45;&gt;Node13</title>
<path fill="none" stroke="midnightblue" d="M352.898,-295.065C340.126,-285.057 325.764,-273.804 313.895,-264.506"/>
<polygon fill="midnightblue" stroke="midnightblue" points="350.99,-298.016 361.02,-301.428 355.307,-292.506 350.99,-298.016"/>
</g>
<!-- Node11 -->
<g id="node11" class="node"><title>Node11</title>
<g id="a_node11"><a xlink:href="executor__select_8h.html" target="_top" xlink:title=" ">
<polygon fill="white" stroke="black" points="175,-145.5 175,-186.5 293,-186.5 293,-145.5 175,-145.5"/>
<text text-anchor="start" x="183" y="-174.5" font-family="Helvetica,sans-Serif" font-size="10.00">C:/projects/ndt/sources</text>
<text text-anchor="start" x="183" y="-163.5" font-family="Helvetica,sans-Serif" font-size="10.00">/include/ndt/executor</text>
<text text-anchor="middle" x="234" y="-152.5" font-family="Helvetica,sans-Serif" font-size="10.00">_select.h</text>
</a>
</g>
</g>
<!-- Node10&#45;&gt;Node11 -->
<g id="edge13" class="edge"><title>Node10&#45;&gt;Node11</title>
<path fill="none" stroke="midnightblue" d="M167.75,-217.35C181.011,-207.272 195.983,-195.893 208.335,-186.506"/>
<polygon fill="midnightblue" stroke="midnightblue" points="165.596,-214.591 159.752,-223.428 169.832,-220.164 165.596,-214.591"/>
</g>
<!-- Node11&#45;&gt;Node2 -->
<g id="edge15" class="edge"><title>Node11&#45;&gt;Node2</title>
<path fill="none" stroke="midnightblue" d="M233.493,-135.162C234.733,-113.609 239.912,-85.2027 257,-67 284.676,-37.5188 328.902,-25.0523 364.89,-19.872"/>
<polygon fill="midnightblue" stroke="midnightblue" points="229.987,-135.31 233.164,-145.417 236.983,-135.534 229.987,-135.31"/>
</g>
<!-- Node11&#45;&gt;Node6 -->
<g id="edge14" class="edge"><title>Node11&#45;&gt;Node6</title>
<path fill="none" stroke="midnightblue" d="M205.232,-138.658C192.239,-126.761 177.402,-113.176 166.536,-103.225"/>
<polygon fill="midnightblue" stroke="midnightblue" points="202.887,-141.256 212.625,-145.428 207.614,-136.094 202.887,-141.256"/>
</g>
<!-- Node12 -->
<g id="node12" class="node"><title>Node12</title>
<g id="a_node12"><a xlink:href="event__handler__select_8h.html" target="_top" xlink:title=" ">
<polygon fill="white" stroke="black" points="266.5,-67.5 266.5,-108.5 395.5,-108.5 395.5,-67.5 266.5,-67.5"/>
<text text-anchor="start" x="274.5" y="-96.5" font-family="Helvetica,sans-Serif" font-size="10.00">C:/projects/ndt/sources</text>
<text text-anchor="start" x="274.5" y="-85.5" font-family="Helvetica,sans-Serif" font-size="10.00">/include/ndt/event_handler</text>
<text text-anchor="middle" x="331" y="-74.5" font-family="Helvetica,sans-Serif" font-size="10.00">_select.h</text>
</a>
</g>
</g>
<!-- Node11&#45;&gt;Node12 -->
<g id="edge16" class="edge"><title>Node11&#45;&gt;Node12</title>
<path fill="none" stroke="midnightblue" d="M267.102,-139.065C279.874,-129.057 294.236,-117.804 306.105,-108.506"/>
<polygon fill="midnightblue" stroke="midnightblue" points="264.693,-136.506 258.98,-145.428 269.01,-142.016 264.693,-136.506"/>
</g>
<!-- Node12&#45;&gt;Node2 -->
<g id="edge17" class="edge"><title>Node12&#45;&gt;Node2</title>
<path fill="none" stroke="midnightblue" d="M365.119,-61.1354C378.7,-50.8406 393.799,-39.394 405.308,-30.67"/>
<polygon fill="midnightblue" stroke="midnightblue" points="362.76,-58.5316 356.906,-67.3618 366.989,-64.1099 362.76,-58.5316"/>
</g>
<!-- Node12&#45;&gt;Node9 -->
<g id="edge18" class="edge"><title>Node12&#45;&gt;Node9</title>
<path fill="none" stroke="midnightblue" d="M339.207,-118.537C346.612,-145.613 357.6,-186.866 366,-223 372.291,-250.062 378.531,-281.578 382.326,-301.409"/>
<polygon fill="midnightblue" stroke="midnightblue" points="342.582,-117.61 336.557,-108.895 335.832,-119.465 342.582,-117.61"/>
</g>
<!-- Node14&#45;&gt;Node2 -->
<g id="edge21" class="edge"><title>Node14&#45;&gt;Node2</title>
<path fill="none" stroke="midnightblue" d="M509.459,-300.081C499.193,-290.41 488.124,-278.155 481,-265 458.393,-223.257 433.653,-77.004 426.226,-30.6831"/>
<polygon fill="midnightblue" stroke="midnightblue" points="507.303,-302.85 517.074,-306.945 511.989,-297.65 507.303,-302.85"/>
</g>
<!-- Node15 -->
<g id="node15" class="node"><title>Node15</title>
<g id="a_node15"><a xlink:href="udp_8cpp.html" target="_top" xlink:title=" ">
<polygon fill="white" stroke="black" points="490,-229 490,-259 608,-259 608,-229 490,-229"/>
<text text-anchor="start" x="498" y="-247" font-family="Helvetica,sans-Serif" font-size="10.00">C:/projects/ndt/sources</text>
<text text-anchor="middle" x="549" y="-236" font-family="Helvetica,sans-Serif" font-size="10.00">/src/udp.cpp</text>
</a>
</g>
</g>
<!-- Node14&#45;&gt;Node15 -->
<g id="edge22" class="edge"><title>Node14&#45;&gt;Node15</title>
<path fill="none" stroke="midnightblue" d="M539.497,-296.59C541.769,-284.257 544.446,-269.724 546.379,-259.231"/>
<polygon fill="midnightblue" stroke="midnightblue" points="536.003,-296.236 537.633,-306.705 542.887,-297.505 536.003,-296.236"/>
</g>
<!-- Node16&#45;&gt;Node17 -->
<g id="edge24" class="edge"><title>Node16&#45;&gt;Node17</title>
<path fill="none" stroke="midnightblue" d="M764.757,-576.717C793.844,-565.751 827.581,-553.032 852.707,-543.56"/>
<polygon fill="midnightblue" stroke="midnightblue" points="763.212,-573.559 755.09,-580.362 765.682,-580.109 763.212,-573.559"/>
</g>
<!-- Node16&#45;&gt;Node19 -->
<g id="edge27" class="edge"><title>Node16&#45;&gt;Node19</title>
<path fill="none" stroke="midnightblue" d="M691.057,-570.966C687.217,-561.631 683.13,-551.696 679.92,-543.892"/>
<polygon fill="midnightblue" stroke="midnightblue" points="687.881,-572.445 694.922,-580.362 694.354,-569.782 687.881,-572.445"/>
</g>
<!-- Node17&#45;&gt;Node3 -->
<g id="edge25" class="edge"><title>Node17&#45;&gt;Node3</title>
<path fill="none" stroke="midnightblue" d="M892.595,-503.403C893.568,-494.37 894.641,-484.408 895.484,-476.577"/>
<polygon fill="midnightblue" stroke="midnightblue" points="889.11,-503.079 891.519,-513.396 896.07,-503.828 889.11,-503.079"/>
</g>
<!-- Node18 -->
<g id="node18" class="node"><title>Node18</title>
<g id="a_node18"><a xlink:href="sys__file__ops_8cpp.html" target="_top" xlink:title=" ">
<polygon fill="white" stroke="black" points="974,-446.5 974,-476.5 1092,-476.5 1092,-446.5 974,-446.5"/>
<text text-anchor="start" x="982" y="-464.5" font-family="Helvetica,sans-Serif" font-size="10.00">C:/projects/ndt/sources</text>
<text text-anchor="middle" x="1033" y="-453.5" font-family="Helvetica,sans-Serif" font-size="10.00">/src/sys_file_ops.cpp</text>
</a>
</g>
</g>
<!-- Node17&#45;&gt;Node18 -->
<g id="edge26" class="edge"><title>Node17&#45;&gt;Node18</title>
<path fill="none" stroke="midnightblue" d="M930.413,-509.131C953.135,-498.802 981.057,-486.11 1002.03,-476.577"/>
<polygon fill="midnightblue" stroke="midnightblue" points="928.684,-506.072 921.029,-513.396 931.581,-512.444 928.684,-506.072"/>
</g>
<!-- Node19&#45;&gt;Node2 -->
<g id="edge32" class="edge"><title>Node19&#45;&gt;Node2</title>
<path fill="none" stroke="midnightblue" d="M674,-502.989C674,-476.487 674,-432.997 674,-395.5 674,-395.5 674,-395.5 674,-165 674,-112.488 650.647,-97.6387 608,-67 571.412,-40.7146 521.769,-28.105 483.268,-22.0591"/>
<polygon fill="midnightblue" stroke="midnightblue" points="670.5,-503.241 674,-513.241 677.5,-503.241 670.5,-503.241"/>
</g>
<!-- Node20 -->
<g id="node20" class="node"><title>Node20</title>
<g id="a_node20"><a xlink:href="address_8h.html" target="_top" xlink:title=" ">
<polygon fill="white" stroke="black" points="702,-446.5 702,-476.5 820,-476.5 820,-446.5 702,-446.5"/>
<text text-anchor="start" x="710" y="-464.5" font-family="Helvetica,sans-Serif" font-size="10.00">C:/projects/ndt/sources</text>
<text text-anchor="middle" x="761" y="-453.5" font-family="Helvetica,sans-Serif" font-size="10.00">/include/ndt/address.h</text>
</a>
</g>
</g>
<!-- Node19&#45;&gt;Node20 -->
<g id="edge28" class="edge"><title>Node19&#45;&gt;Node20</title>
<path fill="none" stroke="midnightblue" d="M701.214,-507.168C714.518,-497.228 730.196,-485.514 742.159,-476.577"/>
<polygon fill="midnightblue" stroke="midnightblue" points="698.794,-504.607 692.878,-513.396 702.984,-510.215 698.794,-504.607"/>
</g>
<!-- Node22 -->
<g id="node22" class="node"><title>Node22</title>
<g id="a_node22"><a xlink:href="sys__socket__ops_8cpp.html" target="_top" xlink:title=" ">
<polygon fill="white" stroke="black" points="520,-446.5 520,-476.5 646,-476.5 646,-446.5 520,-446.5"/>
<text text-anchor="start" x="528" y="-464.5" font-family="Helvetica,sans-Serif" font-size="10.00">C:/projects/ndt/sources</text>
<text text-anchor="middle" x="583" y="-453.5" font-family="Helvetica,sans-Serif" font-size="10.00">/src/sys_socket_ops.cpp</text>
</a>
</g>
</g>
<!-- Node19&#45;&gt;Node22 -->
<g id="edge33" class="edge"><title>Node19&#45;&gt;Node22</title>
<path fill="none" stroke="midnightblue" d="M645.932,-507.451C631.932,-497.452 615.339,-485.6 602.707,-476.577"/>
<polygon fill="midnightblue" stroke="midnightblue" points="644.083,-510.432 654.254,-513.396 648.151,-504.735 644.083,-510.432"/>
</g>
<!-- Node20&#45;&gt;Node2 -->
<g id="edge29" class="edge"><title>Node20&#45;&gt;Node2</title>
<path fill="none" stroke="midnightblue" d="M796.882,-441C808.758,-432.882 820.974,-422.425 829,-410 850.475,-376.755 848,-362.578 848,-323 848,-323 848,-323 848,-165 848,-88.6621 600.093,-42.2415 483.402,-24.6195"/>
<polygon fill="midnightblue" stroke="midnightblue" points="794.87,-438.133 788.36,-446.492 798.662,-444.017 794.87,-438.133"/>
</g>
<!-- Node20&#45;&gt;Node8 -->
<g id="edge30" class="edge"><title>Node20&#45;&gt;Node8</title>
<path fill="none" stroke="midnightblue" d="M702.17,-443.58C665.463,-433.022 618.767,-419.592 584.063,-409.611"/>
<polygon fill="midnightblue" stroke="midnightblue" points="701.662,-447.076 712.24,-446.476 703.597,-440.348 701.662,-447.076"/>
</g>
<!-- Node21 -->
<g id="node21" class="node"><title>Node21</title>
<g id="a_node21"><a xlink:href="address_8cpp.html" target="_top" xlink:title=" ">
<polygon fill="white" stroke="black" points="702,-379.5 702,-409.5 820,-409.5 820,-379.5 702,-379.5"/>
<text text-anchor="start" x="710" y="-397.5" font-family="Helvetica,sans-Serif" font-size="10.00">C:/projects/ndt/sources</text>
<text text-anchor="middle" x="761" y="-386.5" font-family="Helvetica,sans-Serif" font-size="10.00">/src/address.cpp</text>
</a>
</g>
</g>
<!-- Node20&#45;&gt;Node21 -->
<g id="edge31" class="edge"><title>Node20&#45;&gt;Node21</title>
<path fill="none" stroke="midnightblue" d="M761,-436.108C761,-427.154 761,-417.323 761,-409.577"/>
<polygon fill="midnightblue" stroke="midnightblue" points="757.5,-436.396 761,-446.396 764.5,-436.396 757.5,-436.396"/>
</g>
</g>
</svg>
        <g id="navigator" transform="translate(0 0)" fill="#404254">
                <rect fill="#f2f5e9" fill-opacity="0.5" stroke="#606060" stroke-width=".5" x="0" y="0" width="60" height="60"/>
                <use id="zoomplus" xlink:href="#zoomPlus" x="17" y="9" onmousedown="handleZoom(evt,'in')"/>
                <use id="zoomminus" xlink:href="#zoomMin" x="42" y="9" onmousedown="handleZoom(evt,'out')"/>
                <use id="reset" xlink:href="#resetDef" x="30" y="36" onmousedown="handleReset()"/>
                <g id="arrowUp" xlink:href="#dirArrow" transform="translate(30 24)" onmousedown="handlePan(0,-1)">
                  <use xlink:href="#rim" fill="#404040">
                        <set attributeName="fill" to="#808080" begin="arrowUp.mouseover" end="arrowUp.mouseout"/>
                  </use>
                  <path fill="none" stroke="white" stroke-width="1.5" d="M0,-3.0v7 M-2.5,-0.5L0,-3.0L2.5,-0.5"/>
                </g>
                <g id="arrowRight" xlink:href="#dirArrow" transform="rotate(90) translate(36 -43)" onmousedown="handlePan(1,0)">
                  <use xlink:href="#rim" fill="#404040">
                        <set attributeName="fill" to="#808080" begin="arrowRight.mouseover" end="arrowRight.mouseout"/>
                  </use>
                  <path fill="none" stroke="white" stroke-width="1.5" d="M0,-3.0v7 M-2.5,-0.5L0,-3.0L2.5,-0.5"/>
                </g>
                <g id="arrowDown" xlink:href="#dirArrow" transform="rotate(180) translate(-30 -48)" onmousedown="handlePan(0,1)">
                  <use xlink:href="#rim" fill="#404040">
                        <set attributeName="fill" to="#808080" begin="arrowDown.mouseover" end="arrowDown.mouseout"/>
                  </use>
                  <path fill="none" stroke="white" stroke-width="1.5" d="M0,-3.0v7 M-2.5,-0.5L0,-3.0L2.5,-0.5"/>
                </g>
                <g id="arrowLeft" xlink:href="#dirArrow" transform="rotate(270) translate(-36 17)" onmousedown="handlePan(-1,0)">
                  <use xlink:href="#rim" fill="#404040">
                        <set attributeName="fill" to="#808080" begin="arrowLeft.mouseover" end="arrowLeft.mouseout"/>
                  </use>
                  <path fill="none" stroke="white" stroke-width="1.5" d="M0,-3.0v7 M-2.5,-0.5L0,-3.0L2.5,-0.5"/>
                </g>
        </g>
        <svg viewBox="0 0 15 15" width="100%" height="30px" preserveAspectRatio="xMaxYMin meet">
         <g id="arrow_out" transform="scale(0.3 0.3)">
          <a xlink:href="useful__base__types_8h__dep__incl_org.svg" target="_base">
           <rect id="button" ry="5" rx="5" y="6" x="6" height="38" width="38"
                fill="#f2f5e9" fill-opacity="0.5" stroke="#606060" stroke-width="1.0"/>
           <path id="arrow"
             d="M 11.500037,31.436501 C 11.940474,20.09759 22.043105,11.32322 32.158766,21.979434 L 37.068811,17.246167 C 37.068811,17.246167 37.088388,32 37.088388,32 L 22.160133,31.978069 C 22.160133,31.978069 26.997745,27.140456 26.997745,27.140456 C 18.528582,18.264221 13.291696,25.230495 11.500037,31.436501 z"
             style="fill:#404040;"/>
          </a>
         </g>
        </svg>
</svg>
