<?xml version="1.0" encoding="UTF-8" standalone="no"?>
<!DOCTYPE svg PUBLIC "-//W3C//DTD SVG 1.1//EN"
 "http://www.w3.org/Graphics/SVG/1.1/DTD/svg11.dtd">
<!-- Generated by graphviz version 2.38.0 (20140413.2041)
 -->
<!-- Title: C:/projects/ndt/sources/include/ndt/utils.h Pages: 1 -->
<!--zoomable 630 -->
<svg id="main" version="1.1" xmlns="http://www.w3.org/2000/svg" xmlns:xlink="http://www.w3.org/1999/xlink" xml:space="preserve" onload="init(evt)">
<style type="text/css"><![CDATA[
.edge:hover path { stroke: red; }
.edge:hover polygon { stroke: red; fill: red; }
]]></style>
<script type="text/javascript"><![CDATA[
var edges = document.getElementsByTagName('g');
if (edges && edges.length) {
  for (var i=0;i<edges.length;i++) {
    if (edges[i].id.substr(0,4)=='edge') {
      edges[i].setAttribute('class','edge');
    }
  }
}
]]></script>
        <defs>
                <circle id="rim" cx="0" cy="0" r="7"/>
                <circle id="rim2" cx="0" cy="0" r="3.5"/>
                <g id="zoomPlus">
                        <use xlink:href="#rim" fill="#404040">
                                <set attributeName="fill" to="#808080" begin="zoomplus.mouseover" end="zoomplus.mouseout"/>
                        </use>
                        <path d="M-4,0h8M0,-4v8" fill="none" stroke="white" stroke-width="1.5" pointer-events="none"/>
                </g>
                <g id="zoomMin">
                        <use xlink:href="#rim" fill="#404040">
                                <set attributeName="fill" to="#808080" begin="zoomminus.mouseover" end="zoomminus.mouseout"/>
                        </use>
                        <path d="M-4,0h8" fill="none" stroke="white" stroke-width="1.5" pointer-events="none"/>
                </g>
                <g id="dirArrow">
                        <path fill="none" stroke="white" stroke-width="1.5" d="M0,-3.0v7 M-2.5,-0.5L0,-3.0L2.5,-0.5"/>
                </g>
               <g id="resetDef">
                       <use xlink:href="#rim2" fill="#404040">
                               <set attributeName="fill" to="#808080" begin="reset.mouseover" end="reset.mouseout"/>
                       </use>
               </g>
        </defs>

<script type="text/javascript">
var viewWidth = 1138;
var viewHeight = 630;
var sectionId = 'dynsection-1';
</script>
<script xlink:href="svgpan.js"/>
<svg id="graph" class="graph">
<g id="viewport">
<title>C:/projects/ndt/sources/include/ndt/utils.h</title>
<polygon fill="white" stroke="none" points="-4,4 -4,-626 1134,-626 1134,4 -4,4"/>
<!-- Node1 -->
<g id="node1" class="node"><title>Node1</title>
<g id="a_node1"><a xlink:title=" ">
<polygon fill="#bfbfbf" stroke="black" points="602,-591.5 602,-621.5 720,-621.5 720,-591.5 602,-591.5"/>
<text text-anchor="start" x="610" y="-609.5" font-family="Helvetica,sans-Serif" font-size="10.00">C:/projects/ndt/sources</text>
<text text-anchor="middle" x="661" y="-598.5" font-family="Helvetica,sans-Serif" font-size="10.00">/include/ndt/utils.h</text>
</a>
</g>
</g>
<!-- Node2 -->
<g id="node2" class="node"><title>Node2</title>
<g id="a_node2"><a xlink:href="address_8h.html" target="_top" xlink:title=" ">
<polygon fill="white" stroke="black" points="496,-446.5 496,-476.5 614,-476.5 614,-446.5 496,-446.5"/>
<text text-anchor="start" x="504" y="-464.5" font-family="Helvetica,sans-Serif" font-size="10.00">C:/projects/ndt/sources</text>
<text text-anchor="middle" x="555" y="-453.5" font-family="Helvetica,sans-Serif" font-size="10.00">/include/ndt/address.h</text>
</a>
</g>
</g>
<!-- Node1&#45;&gt;Node2 -->
<g id="edge1" class="edge"><title>Node1&#45;&gt;Node2</title>
<path fill="none" stroke="midnightblue" d="M627.128,-585.759C615.121,-577.467 602.297,-566.957 593,-555 574.137,-530.741 563.193,-495.809 558.234,-476.559"/>
<polygon fill="midnightblue" stroke="midnightblue" points="625.391,-588.807 635.665,-591.394 629.248,-582.964 625.391,-588.807"/>
</g>
<!-- Node3 -->
<g id="node3" class="node"><title>Node3</title>
<g id="a_node3"><a xlink:href="core_8h.html" target="_top" xlink:title=" ">
<polygon fill="white" stroke="black" points="454,-0.5 454,-30.5 572,-30.5 572,-0.5 454,-0.5"/>
<text text-anchor="start" x="462" y="-18.5" font-family="Helvetica,sans-Serif" font-size="10.00">C:/projects/ndt/sources</text>
<text text-anchor="middle" x="513" y="-7.5" font-family="Helvetica,sans-Serif" font-size="10.00">/include/ndt/core.h</text>
</a>
</g>
</g>
<!-- Node1&#45;&gt;Node3 -->
<g id="edge28" class="edge"><title>Node1&#45;&gt;Node3</title>
<path fill="none" stroke="midnightblue" d="M591.687,-605.046C422.094,-602.068 0,-582.595 0,-462.5 0,-462.5 0,-462.5 0,-165 0,-83.4968 78.4933,-95.098 155,-67 255.606,-30.0512 381.272,-19.9252 453.81,-17.2785"/>
<polygon fill="midnightblue" stroke="midnightblue" points="591.704,-608.546 601.759,-605.208 591.817,-601.547 591.704,-608.546"/>
</g>
<!-- Node4 -->
<g id="node4" class="node"><title>Node4</title>
<g id="a_node4"><a xlink:href="socket_8h.html" target="_top" xlink:title=" ">
<polygon fill="white" stroke="black" points="409,-379.5 409,-409.5 527,-409.5 527,-379.5 409,-379.5"/>
<text text-anchor="start" x="417" y="-397.5" font-family="Helvetica,sans-Serif" font-size="10.00">C:/projects/ndt/sources</text>
<text text-anchor="middle" x="468" y="-386.5" font-family="Helvetica,sans-Serif" font-size="10.00">/include/ndt/socket.h</text>
</a>
</g>
</g>
<!-- Node1&#45;&gt;Node4 -->
<g id="edge32" class="edge"><title>Node1&#45;&gt;Node4</title>
<path fill="none" stroke="midnightblue" d="M618.685,-587.063C577.388,-566.618 516.586,-529.456 487,-477 474.866,-455.487 470.469,-426.606 468.884,-409.63"/>
<polygon fill="midnightblue" stroke="midnightblue" points="617.171,-590.218 627.698,-591.414 620.214,-583.914 617.171,-590.218"/>
</g>
<!-- Node11 -->
<g id="node11" class="node"><title>Node11</title>
<g id="a_node11"><a xlink:href="udp_8h.html" target="_top" xlink:title=" ">
<polygon fill="white" stroke="black" points="191,-307 191,-337 309,-337 309,-307 191,-307"/>
<text text-anchor="start" x="199" y="-325" font-family="Helvetica,sans-Serif" font-size="10.00">C:/projects/ndt/sources</text>
<text text-anchor="middle" x="250" y="-314" font-family="Helvetica,sans-Serif" font-size="10.00">/include/ndt/udp.h</text>
</a>
</g>
</g>
<!-- Node1&#45;&gt;Node11 -->
<g id="edge33" class="edge"><title>Node1&#45;&gt;Node11</title>
<path fill="none" stroke="midnightblue" d="M591.774,-588.545C565.467,-580.498 535.869,-569.428 511,-555 401.4,-491.416 296.795,-377.02 262.079,-337.159"/>
<polygon fill="midnightblue" stroke="midnightblue" points="591.096,-591.994 601.678,-591.481 593.086,-585.283 591.096,-591.994"/>
</g>
<!-- Node14 -->
<g id="node14" class="node"><title>Node14</title>
<g id="a_node14"><a xlink:href="bin__rw_8h.html" target="_top" xlink:title=" ">
<polygon fill="white" stroke="black" points="602,-519 602,-549 720,-549 720,-519 602,-519"/>
<text text-anchor="start" x="610" y="-537" font-family="Helvetica,sans-Serif" font-size="10.00">C:/projects/ndt/sources</text>
<text text-anchor="middle" x="661" y="-526" font-family="Helvetica,sans-Serif" font-size="10.00">/include/ndt/bin_rw.h</text>
</a>
</g>
</g>
<!-- Node1&#45;&gt;Node14 -->
<g id="edge20" class="edge"><title>Node1&#45;&gt;Node14</title>
<path fill="none" stroke="midnightblue" d="M661,-581.232C661,-570.568 661,-558.414 661,-549.246"/>
<polygon fill="midnightblue" stroke="midnightblue" points="657.5,-581.233 661,-591.233 664.5,-581.233 657.5,-581.233"/>
</g>
<!-- Node15 -->
<g id="node15" class="node"><title>Node15</title>
<g id="a_node15"><a xlink:href="packet__handlers_8h.html" target="_top" xlink:title=" ">
<polygon fill="white" stroke="black" points="844.5,-446.5 844.5,-476.5 993.5,-476.5 993.5,-446.5 844.5,-446.5"/>
<text text-anchor="start" x="852.5" y="-464.5" font-family="Helvetica,sans-Serif" font-size="10.00">C:/projects/ndt/sources</text>
<text text-anchor="middle" x="919" y="-453.5" font-family="Helvetica,sans-Serif" font-size="10.00">/include/ndt/packet_handlers.h</text>
</a>
</g>
</g>
<!-- Node1&#45;&gt;Node15 -->
<g id="edge29" class="edge"><title>Node1&#45;&gt;Node15</title>
<path fill="none" stroke="midnightblue" d="M689.677,-585.52C702.066,-576.555 716.546,-565.622 729,-555 749.325,-537.663 749.257,-527.015 772,-513 798.649,-496.578 831.33,-484.67 859.104,-476.556"/>
<polygon fill="midnightblue" stroke="midnightblue" points="687.579,-582.717 681.484,-591.384 691.653,-588.409 687.579,-582.717"/>
</g>
<!-- Node16 -->
<g id="node16" class="node"><title>Node16</title>
<g id="a_node16"><a xlink:href="serialize_8h.html" target="_top" xlink:title=" ">
<polygon fill="white" stroke="black" points="1012,-446.5 1012,-476.5 1130,-476.5 1130,-446.5 1012,-446.5"/>
<text text-anchor="start" x="1020" y="-464.5" font-family="Helvetica,sans-Serif" font-size="10.00">C:/projects/ndt/sources</text>
<text text-anchor="middle" x="1071" y="-453.5" font-family="Helvetica,sans-Serif" font-size="10.00">/include/ndt/serialize.h</text>
</a>
</g>
</g>
<!-- Node1&#45;&gt;Node16 -->
<g id="edge31" class="edge"><title>Node1&#45;&gt;Node16</title>
<path fill="none" stroke="midnightblue" d="M707.202,-587.352C725.997,-578.904 747.391,-567.863 765,-555 785.815,-539.794 782.314,-525.241 805,-513 883.715,-470.526 915.252,-494.328 1003,-477 1005.84,-476.439 1008.75,-475.855 1011.68,-475.259"/>
<polygon fill="midnightblue" stroke="midnightblue" points="705.689,-584.194 697.929,-591.409 708.494,-590.607 705.689,-584.194"/>
</g>
<!-- Node18 -->
<g id="node18" class="node"><title>Node18</title>
<g id="a_node18"><a xlink:href="win_2context__base_8h.html" target="_top" xlink:title=" ">
<polygon fill="white" stroke="black" points="814,-513.5 814,-554.5 932,-554.5 932,-513.5 814,-513.5"/>
<text text-anchor="start" x="822" y="-542.5" font-family="Helvetica,sans-Serif" font-size="10.00">C:/projects/ndt/sources</text>
<text text-anchor="start" x="822" y="-531.5" font-family="Helvetica,sans-Serif" font-size="10.00">/include/ndt/platform</text>
<text text-anchor="middle" x="873" y="-520.5" font-family="Helvetica,sans-Serif" font-size="10.00">/win/context_base.h</text>
</a>
</g>
</g>
<!-- Node1&#45;&gt;Node18 -->
<g id="edge30" class="edge"><title>Node1&#45;&gt;Node18</title>
<path fill="none" stroke="midnightblue" d="M712.771,-588.284C743.397,-578.099 782.288,-565.166 814.085,-554.592"/>
<polygon fill="midnightblue" stroke="midnightblue" points="711.522,-585.01 703.138,-591.487 713.731,-591.653 711.522,-585.01"/>
</g>
<!-- Node19 -->
<g id="node19" class="node"><title>Node19</title>
<g id="a_node19"><a xlink:href="utils_8cpp.html" target="_top" xlink:title=" ">
<polygon fill="white" stroke="black" points="950,-519 950,-549 1068,-549 1068,-519 950,-519"/>
<text text-anchor="start" x="958" y="-537" font-family="Helvetica,sans-Serif" font-size="10.00">C:/projects/ndt/sources</text>
<text text-anchor="middle" x="1009" y="-526" font-family="Helvetica,sans-Serif" font-size="10.00">/src/utils.cpp</text>
</a>
</g>
</g>
<!-- Node1&#45;&gt;Node19 -->
<g id="edge34" class="edge"><title>Node1&#45;&gt;Node19</title>
<path fill="none" stroke="midnightblue" d="M730.073,-595.167C787.007,-586.142 869.693,-571.865 941,-555 948.425,-553.244 956.241,-551.165 963.825,-549.024"/>
<polygon fill="midnightblue" stroke="midnightblue" points="729.439,-591.723 720.105,-596.735 730.527,-598.638 729.439,-591.723"/>
</g>
<!-- Node2&#45;&gt;Node3 -->
<g id="edge2" class="edge"><title>Node2&#45;&gt;Node3</title>
<path fill="none" stroke="midnightblue" d="M559.247,-436.534C562.482,-420.101 567.489,-397.934 574,-379 595.338,-316.945 636,-310.621 636,-245 636,-245 636,-245 636,-165 636,-116.303 619.029,-103.681 587,-67 573.905,-52.0037 555.405,-39.3787 540.179,-30.5028"/>
<polygon fill="midnightblue" stroke="midnightblue" points="555.798,-435.936 557.378,-446.412 562.676,-437.237 555.798,-435.936"/>
</g>
<!-- Node2&#45;&gt;Node4 -->
<g id="edge3" class="edge"><title>Node2&#45;&gt;Node4</title>
<path fill="none" stroke="midnightblue" d="M527.786,-440.168C514.482,-430.228 498.804,-418.514 486.841,-409.577"/>
<polygon fill="midnightblue" stroke="midnightblue" points="526.016,-443.215 536.122,-446.396 530.206,-437.607 526.016,-443.215"/>
</g>
<!-- Node13 -->
<g id="node13" class="node"><title>Node13</title>
<g id="a_node13"><a xlink:href="address_8cpp.html" target="_top" xlink:title=" ">
<polygon fill="white" stroke="black" points="583,-379.5 583,-409.5 701,-409.5 701,-379.5 583,-379.5"/>
<text text-anchor="start" x="591" y="-397.5" font-family="Helvetica,sans-Serif" font-size="10.00">C:/projects/ndt/sources</text>
<text text-anchor="middle" x="642" y="-386.5" font-family="Helvetica,sans-Serif" font-size="10.00">/src/address.cpp</text>
</a>
</g>
</g>
<!-- Node2&#45;&gt;Node13 -->
<g id="edge19" class="edge"><title>Node2&#45;&gt;Node13</title>
<path fill="none" stroke="midnightblue" d="M582.214,-440.168C595.518,-430.228 611.196,-418.514 623.159,-409.577"/>
<polygon fill="midnightblue" stroke="midnightblue" points="579.794,-437.607 573.878,-446.396 583.984,-443.215 579.794,-437.607"/>
</g>
<!-- Node4&#45;&gt;Node3 -->
<g id="edge4" class="edge"><title>Node4&#45;&gt;Node3</title>
<path fill="none" stroke="midnightblue" d="M502.552,-373.951C541.065,-349.304 598,-303.05 598,-245 598,-245 598,-245 598,-165 598,-109.153 552.159,-55.2442 527.806,-30.5456"/>
<polygon fill="midnightblue" stroke="midnightblue" points="500.333,-371.209 493.684,-379.457 504.026,-377.156 500.333,-371.209"/>
</g>
<!-- Node5 -->
<g id="node5" class="node"><title>Node5</title>
<g id="a_node5"><a xlink:href="executor__select__base_8h.html" target="_top" xlink:title=" ">
<polygon fill="white" stroke="black" points="409,-301.5 409,-342.5 527,-342.5 527,-301.5 409,-301.5"/>
<text text-anchor="start" x="417" y="-330.5" font-family="Helvetica,sans-Serif" font-size="10.00">C:/projects/ndt/sources</text>
<text text-anchor="start" x="417" y="-319.5" font-family="Helvetica,sans-Serif" font-size="10.00">/include/ndt/executor</text>
<text text-anchor="middle" x="468" y="-308.5" font-family="Helvetica,sans-Serif" font-size="10.00">_select_base.h</text>
</a>
</g>
</g>
<!-- Node4&#45;&gt;Node5 -->
<g id="edge5" class="edge"><title>Node4&#45;&gt;Node5</title>
<path fill="none" stroke="midnightblue" d="M468,-368.982C468,-360.347 468,-350.762 468,-342.588"/>
<polygon fill="midnightblue" stroke="midnightblue" points="464.5,-369.233 468,-379.233 471.5,-369.233 464.5,-369.233"/>
</g>
<!-- Node4&#45;&gt;Node11 -->
<g id="edge16" class="edge"><title>Node4&#45;&gt;Node11</title>
<path fill="none" stroke="midnightblue" d="M414.995,-376.358C377.769,-364.32 328.58,-348.412 293.621,-337.107"/>
<polygon fill="midnightblue" stroke="midnightblue" points="414.078,-379.74 424.67,-379.487 416.232,-373.08 414.078,-379.74"/>
</g>
<!-- Node5&#45;&gt;Node3 -->
<g id="edge6" class="edge"><title>Node5&#45;&gt;Node3</title>
<path fill="none" stroke="midnightblue" d="M498.53,-294.087C506.416,-285.565 514.065,-275.585 519,-265 556.393,-184.795 561.507,-152.84 540,-67 536.714,-53.8845 529.299,-40.4518 523.07,-30.7405"/>
<polygon fill="midnightblue" stroke="midnightblue" points="495.788,-291.885 491.292,-301.478 500.79,-296.782 495.788,-291.885"/>
</g>
<!-- Node6 -->
<g id="node6" class="node"><title>Node6</title>
<g id="a_node6"><a xlink:href="nix_2executor__select__impl_8h.html" target="_top" xlink:title=" ">
<polygon fill="white" stroke="black" points="202,-223.5 202,-264.5 338,-264.5 338,-223.5 202,-223.5"/>
<text text-anchor="start" x="210" y="-252.5" font-family="Helvetica,sans-Serif" font-size="10.00">C:/projects/ndt/sources</text>
<text text-anchor="start" x="210" y="-241.5" font-family="Helvetica,sans-Serif" font-size="10.00">/include/ndt/platform</text>
<text text-anchor="middle" x="270" y="-230.5" font-family="Helvetica,sans-Serif" font-size="10.00">/nix/executor_select_impl.h</text>
</a>
</g>
</g>
<!-- Node5&#45;&gt;Node6 -->
<g id="edge7" class="edge"><title>Node5&#45;&gt;Node6</title>
<path fill="none" stroke="midnightblue" d="M407.423,-297.748C379.707,-287.11 347.235,-274.646 320.817,-264.506"/>
<polygon fill="midnightblue" stroke="midnightblue" points="406.42,-301.112 417.01,-301.428 408.928,-294.577 406.42,-301.112"/>
</g>
<!-- Node10 -->
<g id="node10" class="node"><title>Node10</title>
<g id="a_node10"><a xlink:href="win_2executor__select__impl_8h.html" target="_top" xlink:title=" ">
<polygon fill="white" stroke="black" points="356.5,-223.5 356.5,-264.5 493.5,-264.5 493.5,-223.5 356.5,-223.5"/>
<text text-anchor="start" x="364.5" y="-252.5" font-family="Helvetica,sans-Serif" font-size="10.00">C:/projects/ndt/sources</text>
<text text-anchor="start" x="364.5" y="-241.5" font-family="Helvetica,sans-Serif" font-size="10.00">/include/ndt/platform</text>
<text text-anchor="middle" x="425" y="-230.5" font-family="Helvetica,sans-Serif" font-size="10.00">/win/executor_select_impl.h</text>
</a>
</g>
</g>
<!-- Node5&#45;&gt;Node10 -->
<g id="edge15" class="edge"><title>Node5&#45;&gt;Node10</title>
<path fill="none" stroke="midnightblue" d="M451.856,-292.466C446.581,-283.143 440.846,-273.007 436.036,-264.506"/>
<polygon fill="midnightblue" stroke="midnightblue" points="448.956,-294.448 456.926,-301.428 455.048,-291.001 448.956,-294.448"/>
</g>
<!-- Node7 -->
<g id="node7" class="node"><title>Node7</title>
<g id="a_node7"><a xlink:href="executor__select_8h.html" target="_top" xlink:title=" ">
<polygon fill="white" stroke="black" points="238,-145.5 238,-186.5 356,-186.5 356,-145.5 238,-145.5"/>
<text text-anchor="start" x="246" y="-174.5" font-family="Helvetica,sans-Serif" font-size="10.00">C:/projects/ndt/sources</text>
<text text-anchor="start" x="246" y="-163.5" font-family="Helvetica,sans-Serif" font-size="10.00">/include/ndt/executor</text>
<text text-anchor="middle" x="297" y="-152.5" font-family="Helvetica,sans-Serif" font-size="10.00">_select.h</text>
</a>
</g>
</g>
<!-- Node6&#45;&gt;Node7 -->
<g id="edge8" class="edge"><title>Node6&#45;&gt;Node7</title>
<path fill="none" stroke="midnightblue" d="M280.344,-213.882C283.599,-204.721 287.113,-194.83 290.07,-186.506"/>
<polygon fill="midnightblue" stroke="midnightblue" points="277.003,-212.833 276.953,-223.428 283.599,-215.177 277.003,-212.833"/>
</g>
<!-- Node7&#45;&gt;Node3 -->
<g id="edge11" class="edge"><title>Node7&#45;&gt;Node3</title>
<path fill="none" stroke="midnightblue" d="M271.344,-137.219C255.114,-116.204 240.105,-87.5532 257,-67 281.415,-37.2977 386.011,-24.7818 453.718,-19.7197"/>
<polygon fill="midnightblue" stroke="midnightblue" points="268.772,-139.603 277.8,-145.147 274.2,-135.183 268.772,-139.603"/>
</g>
<!-- Node8 -->
<g id="node8" class="node"><title>Node8</title>
<g id="a_node8"><a xlink:href="context_8h.html" target="_top" xlink:title=" ">
<polygon fill="white" stroke="black" points="266,-73 266,-103 384,-103 384,-73 266,-73"/>
<text text-anchor="start" x="274" y="-91" font-family="Helvetica,sans-Serif" font-size="10.00">C:/projects/ndt/sources</text>
<text text-anchor="middle" x="325" y="-80" font-family="Helvetica,sans-Serif" font-size="10.00">/include/ndt/context.h</text>
</a>
</g>
</g>
<!-- Node7&#45;&gt;Node8 -->
<g id="edge9" class="edge"><title>Node7&#45;&gt;Node8</title>
<path fill="none" stroke="midnightblue" d="M307.698,-135.964C311.829,-124.75 316.367,-112.432 319.759,-103.225"/>
<polygon fill="midnightblue" stroke="midnightblue" points="304.384,-134.835 304.211,-145.428 310.952,-137.255 304.384,-134.835"/>
</g>
<!-- Node9 -->
<g id="node9" class="node"><title>Node9</title>
<g id="a_node9"><a xlink:href="event__handler__select_8h.html" target="_top" xlink:title=" ">
<polygon fill="white" stroke="black" points="402.5,-67.5 402.5,-108.5 531.5,-108.5 531.5,-67.5 402.5,-67.5"/>
<text text-anchor="start" x="410.5" y="-96.5" font-family="Helvetica,sans-Serif" font-size="10.00">C:/projects/ndt/sources</text>
<text text-anchor="start" x="410.5" y="-85.5" font-family="Helvetica,sans-Serif" font-size="10.00">/include/ndt/event_handler</text>
<text text-anchor="middle" x="467" y="-74.5" font-family="Helvetica,sans-Serif" font-size="10.00">_select.h</text>
</a>
</g>
</g>
<!-- Node7&#45;&gt;Node9 -->
<g id="edge12" class="edge"><title>Node7&#45;&gt;Node9</title>
<path fill="none" stroke="midnightblue" d="M349.948,-141.329C373.537,-130.783 400.984,-118.513 423.369,-108.506"/>
<polygon fill="midnightblue" stroke="midnightblue" points="348.48,-138.152 340.779,-145.428 351.337,-144.542 348.48,-138.152"/>
</g>
<!-- Node8&#45;&gt;Node3 -->
<g id="edge10" class="edge"><title>Node8&#45;&gt;Node3</title>
<path fill="none" stroke="midnightblue" d="M372.174,-69.3098C404.127,-57.3275 445.775,-41.7096 475.472,-30.5729"/>
<polygon fill="midnightblue" stroke="midnightblue" points="370.727,-66.1143 362.593,-72.9027 373.185,-72.6686 370.727,-66.1143"/>
</g>
<!-- Node9&#45;&gt;Node3 -->
<g id="edge13" class="edge"><title>Node9&#45;&gt;Node3</title>
<path fill="none" stroke="midnightblue" d="M485.368,-58.8485C491.624,-49.261 498.357,-38.9427 503.61,-30.8916"/>
<polygon fill="midnightblue" stroke="midnightblue" points="482.347,-57.0743 479.814,-67.3618 488.209,-60.8995 482.347,-57.0743"/>
</g>
<!-- Node9&#45;&gt;Node5 -->
<g id="edge14" class="edge"><title>Node9&#45;&gt;Node5</title>
<path fill="none" stroke="midnightblue" d="M480.901,-117.682C496.042,-152.782 516.31,-213.855 502,-265 498.353,-278.034 490.75,-291.051 483.657,-301.25"/>
<polygon fill="midnightblue" stroke="midnightblue" points="484.074,-116.203 476.8,-108.5 477.683,-119.058 484.074,-116.203"/>
</g>
<!-- Node11&#45;&gt;Node3 -->
<g id="edge17" class="edge"><title>Node11&#45;&gt;Node3</title>
<path fill="none" stroke="midnightblue" d="M180.714,-309.863C131.713,-300.408 72.1428,-285.161 57,-265 45.7896,-250.074 49.0427,-239.886 57,-223 103.43,-124.474 147.386,-113.243 246,-67 312.953,-35.604 398.017,-23.7225 453.912,-19.2288"/>
<polygon fill="midnightblue" stroke="midnightblue" points="180.199,-313.327 190.673,-311.734 181.491,-306.447 180.199,-313.327"/>
</g>
<!-- Node12 -->
<g id="node12" class="node"><title>Node12</title>
<g id="a_node12"><a xlink:href="udp_8cpp.html" target="_top" xlink:title=" ">
<polygon fill="white" stroke="black" points="66,-229 66,-259 184,-259 184,-229 66,-229"/>
<text text-anchor="start" x="74" y="-247" font-family="Helvetica,sans-Serif" font-size="10.00">C:/projects/ndt/sources</text>
<text text-anchor="middle" x="125" y="-236" font-family="Helvetica,sans-Serif" font-size="10.00">/src/udp.cpp</text>
</a>
</g>
</g>
<!-- Node11&#45;&gt;Node12 -->
<g id="edge18" class="edge"><title>Node11&#45;&gt;Node12</title>
<path fill="none" stroke="midnightblue" d="M218.165,-301.644C196.305,-288.353 167.79,-271.017 148.094,-259.041"/>
<polygon fill="midnightblue" stroke="midnightblue" points="216.418,-304.679 226.781,-306.883 220.055,-298.697 216.418,-304.679"/>
</g>
<!-- Node14&#45;&gt;Node2 -->
<g id="edge21" class="edge"><title>Node14&#45;&gt;Node2</title>
<path fill="none" stroke="midnightblue" d="M631.083,-513.103C613.576,-501.459 591.893,-487.038 576.159,-476.573"/>
<polygon fill="midnightblue" stroke="midnightblue" points="629.539,-516.279 639.804,-518.903 633.416,-510.45 629.539,-516.279"/>
</g>
<!-- Node14&#45;&gt;Node3 -->
<g id="edge22" class="edge"><title>Node14&#45;&gt;Node3</title>
<path fill="none" stroke="midnightblue" d="M671.615,-509.702C682.431,-485.266 699.119,-445.545 710,-410 721.585,-372.155 729,-362.578 729,-323 729,-323 729,-323 729,-165 729,-88.5476 635.977,-48.4853 572.023,-29.9765"/>
<polygon fill="midnightblue" stroke="midnightblue" points="668.398,-508.324 667.51,-518.882 674.788,-511.182 668.398,-508.324"/>
</g>
<!-- Node14&#45;&gt;Node13 -->
<g id="edge27" class="edge"><title>Node14&#45;&gt;Node13</title>
<path fill="none" stroke="midnightblue" d="M657.654,-508.787C653.691,-480.107 647.22,-433.275 643.98,-409.826"/>
<polygon fill="midnightblue" stroke="midnightblue" points="654.202,-509.376 659.038,-518.803 661.136,-508.418 654.202,-509.376"/>
</g>
<!-- Node14&#45;&gt;Node15 -->
<g id="edge23" class="edge"><title>Node14&#45;&gt;Node15</title>
<path fill="none" stroke="midnightblue" d="M722.306,-516.199C726.263,-515.116 730.188,-514.043 734,-513 779.12,-500.661 830.438,-486.655 867.56,-476.528"/>
<polygon fill="midnightblue" stroke="midnightblue" points="721.167,-512.882 712.446,-518.899 723.016,-519.634 721.167,-512.882"/>
</g>
<!-- Node14&#45;&gt;Node16 -->
<g id="edge25" class="edge"><title>Node14&#45;&gt;Node16</title>
<path fill="none" stroke="midnightblue" d="M729.991,-520.308C743.889,-517.825 758.403,-515.284 772,-513 874.47,-495.786 900.817,-495.842 1003,-477 1005.85,-476.475 1008.76,-475.92 1011.7,-475.347"/>
<polygon fill="midnightblue" stroke="midnightblue" points="729.225,-516.889 720.001,-522.101 730.462,-523.779 729.225,-516.889"/>
</g>
<!-- Node17 -->
<g id="node17" class="node"><title>Node17</title>
<g id="a_node17"><a xlink:href="value_8h.html" target="_top" xlink:title=" ">
<polygon fill="white" stroke="black" points="708,-446.5 708,-476.5 826,-476.5 826,-446.5 708,-446.5"/>
<text text-anchor="start" x="716" y="-464.5" font-family="Helvetica,sans-Serif" font-size="10.00">C:/projects/ndt/sources</text>
<text text-anchor="middle" x="767" y="-453.5" font-family="Helvetica,sans-Serif" font-size="10.00">/include/ndt/value.h</text>
</a>
</g>
</g>
<!-- Node14&#45;&gt;Node17 -->
<g id="edge26" class="edge"><title>Node14&#45;&gt;Node17</title>
<path fill="none" stroke="midnightblue" d="M690.917,-513.103C708.424,-501.459 730.107,-487.038 745.841,-476.573"/>
<polygon fill="midnightblue" stroke="midnightblue" points="688.584,-510.45 682.196,-518.903 692.461,-516.279 688.584,-510.45"/>
</g>
<!-- Node15&#45;&gt;Node3 -->
<g id="edge24" class="edge"><title>Node15&#45;&gt;Node3</title>
<path fill="none" stroke="midnightblue" d="M897.803,-438.684C875.316,-413.149 843,-368.532 843,-323 843,-323 843,-323 843,-165 843,-47.6739 667.388,-22.4992 572.379,-17.4645"/>
<polygon fill="midnightblue" stroke="midnightblue" points="895.39,-441.233 904.705,-446.281 900.571,-436.526 895.39,-441.233"/>
</g>
</g>
</svg>
        <g id="navigator" transform="translate(0 0)" fill="#404254">
                <rect fill="#f2f5e9" fill-opacity="0.5" stroke="#606060" stroke-width=".5" x="0" y="0" width="60" height="60"/>
                <use id="zoomplus" xlink:href="#zoomPlus" x="17" y="9" onmousedown="handleZoom(evt,'in')"/>
                <use id="zoomminus" xlink:href="#zoomMin" x="42" y="9" onmousedown="handleZoom(evt,'out')"/>
                <use id="reset" xlink:href="#resetDef" x="30" y="36" onmousedown="handleReset()"/>
                <g id="arrowUp" xlink:href="#dirArrow" transform="translate(30 24)" onmousedown="handlePan(0,-1)">
                  <use xlink:href="#rim" fill="#404040">
                        <set attributeName="fill" to="#808080" begin="arrowUp.mouseover" end="arrowUp.mouseout"/>
                  </use>
                  <path fill="none" stroke="white" stroke-width="1.5" d="M0,-3.0v7 M-2.5,-0.5L0,-3.0L2.5,-0.5"/>
                </g>
                <g id="arrowRight" xlink:href="#dirArrow" transform="rotate(90) translate(36 -43)" onmousedown="handlePan(1,0)">
                  <use xlink:href="#rim" fill="#404040">
                        <set attributeName="fill" to="#808080" begin="arrowRight.mouseover" end="arrowRight.mouseout"/>
                  </use>
                  <path fill="none" stroke="white" stroke-width="1.5" d="M0,-3.0v7 M-2.5,-0.5L0,-3.0L2.5,-0.5"/>
                </g>
                <g id="arrowDown" xlink:href="#dirArrow" transform="rotate(180) translate(-30 -48)" onmousedown="handlePan(0,1)">
                  <use xlink:href="#rim" fill="#404040">
                        <set attributeName="fill" to="#808080" begin="arrowDown.mouseover" end="arrowDown.mouseout"/>
                  </use>
                  <path fill="none" stroke="white" stroke-width="1.5" d="M0,-3.0v7 M-2.5,-0.5L0,-3.0L2.5,-0.5"/>
                </g>
                <g id="arrowLeft" xlink:href="#dirArrow" transform="rotate(270) translate(-36 17)" onmousedown="handlePan(-1,0)">
                  <use xlink:href="#rim" fill="#404040">
                        <set attributeName="fill" to="#808080" begin="arrowLeft.mouseover" end="arrowLeft.mouseout"/>
                  </use>
                  <path fill="none" stroke="white" stroke-width="1.5" d="M0,-3.0v7 M-2.5,-0.5L0,-3.0L2.5,-0.5"/>
                </g>
        </g>
        <svg viewBox="0 0 15 15" width="100%" height="30px" preserveAspectRatio="xMaxYMin meet">
         <g id="arrow_out" transform="scale(0.3 0.3)">
          <a xlink:href="utils_8h__dep__incl_org.svg" target="_base">
           <rect id="button" ry="5" rx="5" y="6" x="6" height="38" width="38"
                fill="#f2f5e9" fill-opacity="0.5" stroke="#606060" stroke-width="1.0"/>
           <path id="arrow"
             d="M 11.500037,31.436501 C 11.940474,20.09759 22.043105,11.32322 32.158766,21.979434 L 37.068811,17.246167 C 37.068811,17.246167 37.088388,32 37.088388,32 L 22.160133,31.978069 C 22.160133,31.978069 26.997745,27.140456 26.997745,27.140456 C 18.528582,18.264221 13.291696,25.230495 11.500037,31.436501 z"
             style="fill:#404040;"/>
          </a>
         </g>
        </svg>
</svg>
