<?xml version="1.0" encoding="UTF-8" standalone="no"?>
<!DOCTYPE svg PUBLIC "-//W3C//DTD SVG 1.1//EN"
 "http://www.w3.org/Graphics/SVG/1.1/DTD/svg11.dtd">
<!-- Generated by graphviz version 2.38.0 (20140413.2041)
 -->
<!-- Title: C:/projects/ndt/sources/include/ndt/utils.h Pages: 1 -->
<svg width="1002pt" height="563pt"
 viewBox="0.00 0.00 1002.00 563.00" xmlns="http://www.w3.org/2000/svg" xmlns:xlink="http://www.w3.org/1999/xlink">
<g id="graph0" class="graph" transform="scale(1 1) rotate(0) translate(4 559)">
<title>C:/projects/ndt/sources/include/ndt/utils.h</title>
<polygon fill="white" stroke="none" points="-4,4 -4,-559 998,-559 998,4 -4,4"/>
<!-- Node1 -->
<g id="node1" class="node"><title>Node1</title>
<g id="a_node1"><a xlink:title=" ">
<polygon fill="#bfbfbf" stroke="black" points="596,-524.5 596,-554.5 714,-554.5 714,-524.5 596,-524.5"/>
<text text-anchor="start" x="604" y="-542.5" font-family="Helvetica,sans-Serif" font-size="10.00">C:/projects/ndt/sources</text>
<text text-anchor="middle" x="655" y="-531.5" font-family="Helvetica,sans-Serif" font-size="10.00">/include/ndt/utils.h</text>
</a>
</g>
</g>
<!-- Node2 -->
<g id="node2" class="node"><title>Node2</title>
<g id="a_node2"><a xlink:href="address_8h.html" target="_top" xlink:title=" ">
<polygon fill="white" stroke="black" points="331,-452 331,-482 449,-482 449,-452 331,-452"/>
<text text-anchor="start" x="339" y="-470" font-family="Helvetica,sans-Serif" font-size="10.00">C:/projects/ndt/sources</text>
<text text-anchor="middle" x="390" y="-459" font-family="Helvetica,sans-Serif" font-size="10.00">/include/ndt/address.h</text>
</a>
</g>
</g>
<!-- Node1&#45;&gt;Node2 -->
<g id="edge1" class="edge"><title>Node1&#45;&gt;Node2</title>
<path fill="none" stroke="midnightblue" d="M592.579,-521.894C547.1,-509.794 486.154,-493.581 443.026,-482.107"/>
<polygon fill="midnightblue" stroke="midnightblue" points="591.764,-525.299 602.328,-524.487 593.564,-518.534 591.764,-525.299"/>
</g>
<!-- Node3 -->
<g id="node3" class="node"><title>Node3</title>
<g id="a_node3"><a xlink:href="core_8h.html" target="_top" xlink:title=" ">
<polygon fill="white" stroke="black" points="365,-0.5 365,-30.5 483,-30.5 483,-0.5 365,-0.5"/>
<text text-anchor="start" x="373" y="-18.5" font-family="Helvetica,sans-Serif" font-size="10.00">C:/projects/ndt/sources</text>
<text text-anchor="middle" x="424" y="-7.5" font-family="Helvetica,sans-Serif" font-size="10.00">/include/ndt/core.h</text>
</a>
</g>
</g>
<!-- Node1&#45;&gt;Node3 -->
<g id="edge27" class="edge"><title>Node1&#45;&gt;Node3</title>
<path fill="none" stroke="midnightblue" d="M649.781,-514.205C644.157,-485.858 636,-437.508 636,-395.5 636,-395.5 636,-395.5 636,-321 636,-276.633 637.155,-262.524 617,-223 573.085,-136.88 482.467,-61.0193 443.031,-30.6265"/>
<polygon fill="midnightblue" stroke="midnightblue" points="646.429,-515.28 651.863,-524.375 653.287,-513.876 646.429,-515.28"/>
</g>
<!-- Node4 -->
<g id="node4" class="node"><title>Node4</title>
<g id="a_node4"><a xlink:href="socket_8h.html" target="_top" xlink:title=" ">
<polygon fill="white" stroke="black" points="387,-379.5 387,-409.5 505,-409.5 505,-379.5 387,-379.5"/>
<text text-anchor="start" x="395" y="-397.5" font-family="Helvetica,sans-Serif" font-size="10.00">C:/projects/ndt/sources</text>
<text text-anchor="middle" x="446" y="-386.5" font-family="Helvetica,sans-Serif" font-size="10.00">/include/ndt/socket.h</text>
</a>
</g>
</g>
<!-- Node1&#45;&gt;Node4 -->
<g id="edge30" class="edge"><title>Node1&#45;&gt;Node4</title>
<path fill="none" stroke="midnightblue" d="M616.591,-519.583C599.476,-510.666 579.315,-499.476 562,-488 524.212,-462.955 483.555,-428.626 461.834,-409.616"/>
<polygon fill="midnightblue" stroke="midnightblue" points="615.255,-522.832 625.749,-524.291 618.456,-516.606 615.255,-522.832"/>
</g>
<!-- Node11 -->
<g id="node11" class="node"><title>Node11</title>
<g id="a_node11"><a xlink:href="udp_8h.html" target="_top" xlink:title=" ">
<polygon fill="white" stroke="black" points="471,-307 471,-337 589,-337 589,-307 471,-307"/>
<text text-anchor="start" x="479" y="-325" font-family="Helvetica,sans-Serif" font-size="10.00">C:/projects/ndt/sources</text>
<text text-anchor="middle" x="530" y="-314" font-family="Helvetica,sans-Serif" font-size="10.00">/include/ndt/udp.h</text>
</a>
</g>
</g>
<!-- Node1&#45;&gt;Node11 -->
<g id="edge31" class="edge"><title>Node1&#45;&gt;Node11</title>
<path fill="none" stroke="midnightblue" d="M639.612,-515.694C633.941,-507.098 627.549,-497.18 622,-488 588.914,-433.267 552.853,-366.181 537.546,-337.318"/>
<polygon fill="midnightblue" stroke="midnightblue" points="636.742,-517.7 645.195,-524.087 642.57,-513.822 636.742,-517.7"/>
</g>
<!-- Node14 -->
<g id="node14" class="node"><title>Node14</title>
<g id="a_node14"><a xlink:href="bin__rw_8h.html" target="_top" xlink:title=" ">
<polygon fill="white" stroke="black" points="710,-151 710,-181 828,-181 828,-151 710,-151"/>
<text text-anchor="start" x="718" y="-169" font-family="Helvetica,sans-Serif" font-size="10.00">C:/projects/ndt/sources</text>
<text text-anchor="middle" x="769" y="-158" font-family="Helvetica,sans-Serif" font-size="10.00">/include/ndt/bin_rw.h</text>
</a>
</g>
</g>
<!-- Node1&#45;&gt;Node14 -->
<g id="edge20" class="edge"><title>Node1&#45;&gt;Node14</title>
<path fill="none" stroke="midnightblue" d="M671.949,-516.003C677.691,-507.563 683.725,-497.668 688,-488 705.176,-449.156 712,-437.972 712,-395.5 712,-395.5 712,-395.5 712,-321 712,-266.548 743.729,-207.624 759.842,-181.212"/>
<polygon fill="midnightblue" stroke="midnightblue" points="669.069,-514.014 666.158,-524.201 674.787,-518.053 669.069,-514.014"/>
</g>
<!-- Node17 -->
<g id="node17" class="node"><title>Node17</title>
<g id="a_node17"><a xlink:href="packet__handlers_8h.html" target="_top" xlink:title=" ">
<polygon fill="white" stroke="black" points="595.5,-73 595.5,-103 744.5,-103 744.5,-73 595.5,-73"/>
<text text-anchor="start" x="603.5" y="-91" font-family="Helvetica,sans-Serif" font-size="10.00">C:/projects/ndt/sources</text>
<text text-anchor="middle" x="670" y="-80" font-family="Helvetica,sans-Serif" font-size="10.00">/include/ndt/packet_handlers.h</text>
</a>
</g>
</g>
<!-- Node1&#45;&gt;Node17 -->
<g id="edge28" class="edge"><title>Node1&#45;&gt;Node17</title>
<path fill="none" stroke="midnightblue" d="M660.219,-514.205C665.843,-485.858 674,-437.508 674,-395.5 674,-395.5 674,-395.5 674,-243 674,-191.382 671.727,-130.065 670.608,-103.011"/>
<polygon fill="midnightblue" stroke="midnightblue" points="656.713,-513.876 658.137,-524.375 663.571,-515.28 656.713,-513.876"/>
</g>
<!-- Node18 -->
<g id="node18" class="node"><title>Node18</title>
<g id="a_node18"><a xlink:href="win_2context__base_8h.html" target="_top" xlink:title=" ">
<polygon fill="white" stroke="black" points="740,-446.5 740,-487.5 858,-487.5 858,-446.5 740,-446.5"/>
<text text-anchor="start" x="748" y="-475.5" font-family="Helvetica,sans-Serif" font-size="10.00">C:/projects/ndt/sources</text>
<text text-anchor="start" x="748" y="-464.5" font-family="Helvetica,sans-Serif" font-size="10.00">/include/ndt/platform</text>
<text text-anchor="middle" x="799" y="-453.5" font-family="Helvetica,sans-Serif" font-size="10.00">/win/context_base.h</text>
</a>
</g>
</g>
<!-- Node1&#45;&gt;Node18 -->
<g id="edge29" class="edge"><title>Node1&#45;&gt;Node18</title>
<path fill="none" stroke="midnightblue" d="M692.797,-519.995C713.194,-510.009 738.361,-497.688 759.075,-487.546"/>
<polygon fill="midnightblue" stroke="midnightblue" points="691.237,-516.862 683.794,-524.403 694.315,-523.149 691.237,-516.862"/>
</g>
<!-- Node19 -->
<g id="node19" class="node"><title>Node19</title>
<g id="a_node19"><a xlink:href="utils_8cpp.html" target="_top" xlink:title=" ">
<polygon fill="white" stroke="black" points="876,-452 876,-482 994,-482 994,-452 876,-452"/>
<text text-anchor="start" x="884" y="-470" font-family="Helvetica,sans-Serif" font-size="10.00">C:/projects/ndt/sources</text>
<text text-anchor="middle" x="935" y="-459" font-family="Helvetica,sans-Serif" font-size="10.00">/src/utils.cpp</text>
</a>
</g>
</g>
<!-- Node1&#45;&gt;Node19 -->
<g id="edge32" class="edge"><title>Node1&#45;&gt;Node19</title>
<path fill="none" stroke="midnightblue" d="M723.902,-523.046C765.48,-513.482 819.44,-500.649 867,-488 873.897,-486.165 881.16,-484.136 888.268,-482.093"/>
<polygon fill="midnightblue" stroke="midnightblue" points="723.115,-519.635 714.15,-525.281 724.68,-526.458 723.115,-519.635"/>
</g>
<!-- Node2&#45;&gt;Node3 -->
<g id="edge2" class="edge"><title>Node2&#45;&gt;Node3</title>
<path fill="none" stroke="midnightblue" d="M320.897,-455.238C208.868,-435.818 0,-390.553 0,-323 0,-323 0,-323 0,-165 0,-115.693 11.5556,-95.2038 52,-67 101.317,-32.6086 272.77,-21.5588 364.695,-18.0693"/>
<polygon fill="midnightblue" stroke="midnightblue" points="320.321,-458.69 330.767,-456.925 321.5,-451.79 320.321,-458.69"/>
</g>
<!-- Node2&#45;&gt;Node4 -->
<g id="edge3" class="edge"><title>Node2&#45;&gt;Node4</title>
<path fill="none" stroke="midnightblue" d="M407.703,-443.713C416.531,-432.599 426.946,-419.488 434.684,-409.746"/>
<polygon fill="midnightblue" stroke="midnightblue" points="404.812,-441.726 401.332,-451.733 410.293,-446.08 404.812,-441.726"/>
</g>
<!-- Node13 -->
<g id="node13" class="node"><title>Node13</title>
<g id="a_node13"><a xlink:href="address_8cpp.html" target="_top" xlink:title=" ">
<polygon fill="white" stroke="black" points="251,-379.5 251,-409.5 369,-409.5 369,-379.5 251,-379.5"/>
<text text-anchor="start" x="259" y="-397.5" font-family="Helvetica,sans-Serif" font-size="10.00">C:/projects/ndt/sources</text>
<text text-anchor="middle" x="310" y="-386.5" font-family="Helvetica,sans-Serif" font-size="10.00">/src/address.cpp</text>
</a>
</g>
</g>
<!-- Node2&#45;&gt;Node13 -->
<g id="edge19" class="edge"><title>Node2&#45;&gt;Node13</title>
<path fill="none" stroke="midnightblue" d="M366.129,-444.964C353.125,-433.504 337.39,-419.637 325.892,-409.505"/>
<polygon fill="midnightblue" stroke="midnightblue" points="363.994,-447.748 373.811,-451.733 368.622,-442.496 363.994,-447.748"/>
</g>
<!-- Node4&#45;&gt;Node3 -->
<g id="edge4" class="edge"><title>Node4&#45;&gt;Node3</title>
<path fill="none" stroke="midnightblue" d="M440.146,-369.155C433.629,-339.872 424,-289.141 424,-245 424,-245 424,-245 424,-165 424,-115.758 424,-57.3308 424,-30.8354"/>
<polygon fill="midnightblue" stroke="midnightblue" points="436.819,-370.304 442.465,-379.269 443.642,-368.739 436.819,-370.304"/>
</g>
<!-- Node5 -->
<g id="node5" class="node"><title>Node5</title>
<g id="a_node5"><a xlink:href="executor__select__base_8h.html" target="_top" xlink:title=" ">
<polygon fill="white" stroke="black" points="114,-301.5 114,-342.5 232,-342.5 232,-301.5 114,-301.5"/>
<text text-anchor="start" x="122" y="-330.5" font-family="Helvetica,sans-Serif" font-size="10.00">C:/projects/ndt/sources</text>
<text text-anchor="start" x="122" y="-319.5" font-family="Helvetica,sans-Serif" font-size="10.00">/include/ndt/executor</text>
<text text-anchor="middle" x="173" y="-308.5" font-family="Helvetica,sans-Serif" font-size="10.00">_select_base.h</text>
</a>
</g>
</g>
<!-- Node4&#45;&gt;Node5 -->
<g id="edge5" class="edge"><title>Node4&#45;&gt;Node5</title>
<path fill="none" stroke="midnightblue" d="M382.032,-376.981C336.785,-365.296 276.552,-349.741 232.368,-338.331"/>
<polygon fill="midnightblue" stroke="midnightblue" points="381.18,-380.376 391.738,-379.487 382.93,-373.598 381.18,-380.376"/>
</g>
<!-- Node4&#45;&gt;Node11 -->
<g id="edge16" class="edge"><title>Node4&#45;&gt;Node11</title>
<path fill="none" stroke="midnightblue" d="M470.679,-372.788C484.406,-361.266 501.127,-347.233 513.313,-337.005"/>
<polygon fill="midnightblue" stroke="midnightblue" points="468.408,-370.124 462.999,-379.233 472.908,-375.485 468.408,-370.124"/>
</g>
<!-- Node5&#45;&gt;Node3 -->
<g id="edge6" class="edge"><title>Node5&#45;&gt;Node3</title>
<path fill="none" stroke="midnightblue" d="M113.838,-296.123C101.513,-288.068 90.1162,-277.809 83,-265 40.2634,-188.074 25.5129,-133.628 83,-67 118.724,-25.5961 277.219,-17.5708 364.996,-16.3681"/>
<polygon fill="midnightblue" stroke="midnightblue" points="112.111,-299.169 122.478,-301.352 115.735,-293.18 112.111,-299.169"/>
</g>
<!-- Node6 -->
<g id="node6" class="node"><title>Node6</title>
<g id="a_node6"><a xlink:href="nix_2executor__select__impl_8h.html" target="_top" xlink:title=" ">
<polygon fill="white" stroke="black" points="260,-223.5 260,-264.5 396,-264.5 396,-223.5 260,-223.5"/>
<text text-anchor="start" x="268" y="-252.5" font-family="Helvetica,sans-Serif" font-size="10.00">C:/projects/ndt/sources</text>
<text text-anchor="start" x="268" y="-241.5" font-family="Helvetica,sans-Serif" font-size="10.00">/include/ndt/platform</text>
<text text-anchor="middle" x="328" y="-230.5" font-family="Helvetica,sans-Serif" font-size="10.00">/nix/executor_select_impl.h</text>
</a>
</g>
</g>
<!-- Node5&#45;&gt;Node6 -->
<g id="edge7" class="edge"><title>Node5&#45;&gt;Node6</title>
<path fill="none" stroke="midnightblue" d="M222.135,-296.908C243.447,-286.458 268.08,-274.38 288.219,-264.506"/>
<polygon fill="midnightblue" stroke="midnightblue" points="220.354,-293.883 212.916,-301.428 223.436,-300.168 220.354,-293.883"/>
</g>
<!-- Node10 -->
<g id="node10" class="node"><title>Node10</title>
<g id="a_node10"><a xlink:href="win_2executor__select__impl_8h.html" target="_top" xlink:title=" ">
<polygon fill="white" stroke="black" points="104.5,-223.5 104.5,-264.5 241.5,-264.5 241.5,-223.5 104.5,-223.5"/>
<text text-anchor="start" x="112.5" y="-252.5" font-family="Helvetica,sans-Serif" font-size="10.00">C:/projects/ndt/sources</text>
<text text-anchor="start" x="112.5" y="-241.5" font-family="Helvetica,sans-Serif" font-size="10.00">/include/ndt/platform</text>
<text text-anchor="middle" x="173" y="-230.5" font-family="Helvetica,sans-Serif" font-size="10.00">/win/executor_select_impl.h</text>
</a>
</g>
</g>
<!-- Node5&#45;&gt;Node10 -->
<g id="edge15" class="edge"><title>Node5&#45;&gt;Node10</title>
<path fill="none" stroke="midnightblue" d="M173,-291.297C173,-282.301 173,-272.653 173,-264.506"/>
<polygon fill="midnightblue" stroke="midnightblue" points="169.5,-291.428 173,-301.428 176.5,-291.428 169.5,-291.428"/>
</g>
<!-- Node7 -->
<g id="node7" class="node"><title>Node7</title>
<g id="a_node7"><a xlink:href="executor__select_8h.html" target="_top" xlink:title=" ">
<polygon fill="white" stroke="black" points="230,-145.5 230,-186.5 348,-186.5 348,-145.5 230,-145.5"/>
<text text-anchor="start" x="238" y="-174.5" font-family="Helvetica,sans-Serif" font-size="10.00">C:/projects/ndt/sources</text>
<text text-anchor="start" x="238" y="-163.5" font-family="Helvetica,sans-Serif" font-size="10.00">/include/ndt/executor</text>
<text text-anchor="middle" x="289" y="-152.5" font-family="Helvetica,sans-Serif" font-size="10.00">_select.h</text>
</a>
</g>
</g>
<!-- Node6&#45;&gt;Node7 -->
<g id="edge8" class="edge"><title>Node6&#45;&gt;Node7</title>
<path fill="none" stroke="midnightblue" d="M313.358,-214.466C308.573,-205.143 303.372,-195.007 299.009,-186.506"/>
<polygon fill="midnightblue" stroke="midnightblue" points="310.277,-216.129 317.957,-223.428 316.505,-212.933 310.277,-216.129"/>
</g>
<!-- Node7&#45;&gt;Node3 -->
<g id="edge11" class="edge"><title>Node7&#45;&gt;Node3</title>
<path fill="none" stroke="midnightblue" d="M272.241,-136.358C262.372,-115.353 254.404,-87.1069 269,-67 290.78,-36.9965 330.858,-24.476 364.803,-19.4023"/>
<polygon fill="midnightblue" stroke="midnightblue" points="269.199,-138.099 276.835,-145.444 275.446,-134.94 269.199,-138.099"/>
</g>
<!-- Node8 -->
<g id="node8" class="node"><title>Node8</title>
<g id="a_node8"><a xlink:href="context_8h.html" target="_top" xlink:title=" ">
<polygon fill="white" stroke="black" points="278,-73 278,-103 396,-103 396,-73 278,-73"/>
<text text-anchor="start" x="286" y="-91" font-family="Helvetica,sans-Serif" font-size="10.00">C:/projects/ndt/sources</text>
<text text-anchor="middle" x="337" y="-80" font-family="Helvetica,sans-Serif" font-size="10.00">/include/ndt/context.h</text>
</a>
</g>
</g>
<!-- Node7&#45;&gt;Node8 -->
<g id="edge9" class="edge"><title>Node7&#45;&gt;Node8</title>
<path fill="none" stroke="midnightblue" d="M306.91,-136.642C314.106,-125.249 322.084,-112.618 328.016,-103.225"/>
<polygon fill="midnightblue" stroke="midnightblue" points="303.742,-135.104 301.361,-145.428 309.66,-138.842 303.742,-135.104"/>
</g>
<!-- Node9 -->
<g id="node9" class="node"><title>Node9</title>
<g id="a_node9"><a xlink:href="event__handler__select_8h.html" target="_top" xlink:title=" ">
<polygon fill="white" stroke="black" points="92.5,-67.5 92.5,-108.5 221.5,-108.5 221.5,-67.5 92.5,-67.5"/>
<text text-anchor="start" x="100.5" y="-96.5" font-family="Helvetica,sans-Serif" font-size="10.00">C:/projects/ndt/sources</text>
<text text-anchor="start" x="100.5" y="-85.5" font-family="Helvetica,sans-Serif" font-size="10.00">/include/ndt/event_handler</text>
<text text-anchor="middle" x="157" y="-74.5" font-family="Helvetica,sans-Serif" font-size="10.00">_select.h</text>
</a>
</g>
</g>
<!-- Node7&#45;&gt;Node9 -->
<g id="edge12" class="edge"><title>Node7&#45;&gt;Node9</title>
<path fill="none" stroke="midnightblue" d="M245.931,-140.203C228.067,-129.918 207.644,-118.159 190.878,-108.506"/>
<polygon fill="midnightblue" stroke="midnightblue" points="244.594,-143.472 255.007,-145.428 248.087,-137.405 244.594,-143.472"/>
</g>
<!-- Node8&#45;&gt;Node3 -->
<g id="edge10" class="edge"><title>Node8&#45;&gt;Node3</title>
<path fill="none" stroke="midnightblue" d="M362.56,-66.2877C376.778,-54.7662 394.096,-40.7326 406.717,-30.5049"/>
<polygon fill="midnightblue" stroke="midnightblue" points="360.172,-63.7181 354.606,-72.7333 364.579,-69.1567 360.172,-63.7181"/>
</g>
<!-- Node9&#45;&gt;Node3 -->
<g id="edge13" class="edge"><title>Node9&#45;&gt;Node3</title>
<path fill="none" stroke="midnightblue" d="M231.478,-67.3345C275.737,-55.6481 330.833,-41.1004 370.73,-30.5656"/>
<polygon fill="midnightblue" stroke="midnightblue" points="230.408,-63.9969 221.633,-69.9339 232.195,-70.7649 230.408,-63.9969"/>
</g>
<!-- Node9&#45;&gt;Node5 -->
<g id="edge14" class="edge"><title>Node9&#45;&gt;Node5</title>
<path fill="none" stroke="midnightblue" d="M133.662,-116.706C106.776,-152.202 69.3972,-215.101 95,-265 102.838,-280.277 116.996,-292.326 131.119,-301.272"/>
<polygon fill="midnightblue" stroke="midnightblue" points="136.501,-118.757 139.888,-108.718 130.98,-114.454 136.501,-118.757"/>
</g>
<!-- Node11&#45;&gt;Node3 -->
<g id="edge17" class="edge"><title>Node11&#45;&gt;Node3</title>
<path fill="none" stroke="midnightblue" d="M506.719,-299.642C497.42,-289.921 487.417,-277.747 481,-265 440.511,-184.564 459.593,-154.424 438,-67 434.946,-54.6343 431.045,-40.6905 428.137,-30.5928"/>
<polygon fill="midnightblue" stroke="midnightblue" points="504.401,-302.274 513.944,-306.877 509.354,-297.328 504.401,-302.274"/>
</g>
<!-- Node12 -->
<g id="node12" class="node"><title>Node12</title>
<g id="a_node12"><a xlink:href="udp_8cpp.html" target="_top" xlink:title=" ">
<polygon fill="white" stroke="black" points="490,-229 490,-259 608,-259 608,-229 490,-229"/>
<text text-anchor="start" x="498" y="-247" font-family="Helvetica,sans-Serif" font-size="10.00">C:/projects/ndt/sources</text>
<text text-anchor="middle" x="549" y="-236" font-family="Helvetica,sans-Serif" font-size="10.00">/src/udp.cpp</text>
</a>
</g>
</g>
<!-- Node11&#45;&gt;Node12 -->
<g id="edge18" class="edge"><title>Node11&#45;&gt;Node12</title>
<path fill="none" stroke="midnightblue" d="M536.009,-296.963C539.112,-284.551 542.793,-269.83 545.442,-259.231"/>
<polygon fill="midnightblue" stroke="midnightblue" points="532.604,-296.155 533.574,-306.705 539.395,-297.852 532.604,-296.155"/>
</g>
<!-- Node14&#45;&gt;Node3 -->
<g id="edge21" class="edge"><title>Node14&#45;&gt;Node3</title>
<path fill="none" stroke="midnightblue" d="M772.317,-140.659C773.878,-118.345 772.156,-85.9747 753,-67 715.947,-30.2986 567.587,-20.2466 483.301,-17.5097"/>
<polygon fill="midnightblue" stroke="midnightblue" points="768.825,-140.413 771.35,-150.703 775.793,-141.085 768.825,-140.413"/>
</g>
<!-- Node15 -->
<g id="node15" class="node"><title>Node15</title>
<g id="a_node15"><a xlink:href="packet_8h.html" target="_top" xlink:title=" ">
<polygon fill="white" stroke="black" points="801,-73 801,-103 919,-103 919,-73 801,-73"/>
<text text-anchor="start" x="809" y="-91" font-family="Helvetica,sans-Serif" font-size="10.00">C:/projects/ndt/sources</text>
<text text-anchor="middle" x="860" y="-80" font-family="Helvetica,sans-Serif" font-size="10.00">/include/ndt/packet.h</text>
</a>
</g>
</g>
<!-- Node14&#45;&gt;Node15 -->
<g id="edge22" class="edge"><title>Node14&#45;&gt;Node15</title>
<path fill="none" stroke="midnightblue" d="M793.841,-144.253C809.431,-131.234 829.128,-114.784 842.96,-103.231"/>
<polygon fill="midnightblue" stroke="midnightblue" points="791.548,-141.608 786.116,-150.705 796.035,-146.981 791.548,-141.608"/>
</g>
<!-- Node14&#45;&gt;Node17 -->
<g id="edge25" class="edge"><title>Node14&#45;&gt;Node17</title>
<path fill="none" stroke="midnightblue" d="M742.44,-144.611C725.409,-131.536 703.725,-114.89 688.538,-103.231"/>
<polygon fill="midnightblue" stroke="midnightblue" points="740.315,-147.392 750.379,-150.705 744.578,-141.839 740.315,-147.392"/>
</g>
<!-- Node15&#45;&gt;Node3 -->
<g id="edge23" class="edge"><title>Node15&#45;&gt;Node3</title>
<path fill="none" stroke="midnightblue" d="M802.387,-70.4763C797.204,-69.2143 792.02,-68.0323 787,-67 680.894,-45.1795 555.371,-30.047 483.185,-22.3576"/>
<polygon fill="midnightblue" stroke="midnightblue" points="801.754,-73.9264 812.307,-72.9837 803.47,-67.1399 801.754,-73.9264"/>
</g>
<!-- Node16 -->
<g id="node16" class="node"><title>Node16</title>
<g id="a_node16"><a xlink:href="packet_8cpp.html" target="_top" xlink:title=" ">
<polygon fill="white" stroke="black" points="801,-0.5 801,-30.5 919,-30.5 919,-0.5 801,-0.5"/>
<text text-anchor="start" x="809" y="-18.5" font-family="Helvetica,sans-Serif" font-size="10.00">C:/projects/ndt/sources</text>
<text text-anchor="middle" x="860" y="-7.5" font-family="Helvetica,sans-Serif" font-size="10.00">/src/packet.cpp</text>
</a>
</g>
</g>
<!-- Node15&#45;&gt;Node16 -->
<g id="edge24" class="edge"><title>Node15&#45;&gt;Node16</title>
<path fill="none" stroke="midnightblue" d="M860,-62.7317C860,-52.0679 860,-39.9145 860,-30.7455"/>
<polygon fill="midnightblue" stroke="midnightblue" points="856.5,-62.7332 860,-72.7333 863.5,-62.7333 856.5,-62.7332"/>
</g>
<!-- Node17&#45;&gt;Node3 -->
<g id="edge26" class="edge"><title>Node17&#45;&gt;Node3</title>
<path fill="none" stroke="midnightblue" d="M611.257,-70.165C569.125,-58.0907 513.008,-42.0085 473.224,-30.6069"/>
<polygon fill="midnightblue" stroke="midnightblue" points="610.527,-73.5967 621.104,-72.9872 612.455,-66.8676 610.527,-73.5967"/>
</g>
</g>
</svg>
