<?xml version="1.0" encoding="UTF-8" standalone="no"?>
<!DOCTYPE svg PUBLIC "-//W3C//DTD SVG 1.1//EN"
 "http://www.w3.org/Graphics/SVG/1.1/DTD/svg11.dtd">
<!-- Generated by graphviz version 2.38.0 (20140413.2041)
 -->
<!-- Title: C:/projects/ndt/sources/src/utils.cpp Pages: 1 -->
<svg width="943pt" height="207pt"
 viewBox="0.00 0.00 943.00 207.00" xmlns="http://www.w3.org/2000/svg" xmlns:xlink="http://www.w3.org/1999/xlink">
<g id="graph0" class="graph" transform="scale(1 1) rotate(0) translate(4 203)">
<title>C:/projects/ndt/sources/src/utils.cpp</title>
<polygon fill="white" stroke="none" points="-4,4 -4,-203 939,-203 939,4 -4,4"/>
<!-- Node1 -->
<g id="node1" class="node"><title>Node1</title>
<g id="a_node1"><a xlink:title=" ">
<polygon fill="#bfbfbf" stroke="black" points="404,-168.5 404,-198.5 522,-198.5 522,-168.5 404,-168.5"/>
<text text-anchor="start" x="412" y="-186.5" font-family="Helvetica,sans-Serif" font-size="10.00">C:/projects/ndt/sources</text>
<text text-anchor="middle" x="463" y="-175.5" font-family="Helvetica,sans-Serif" font-size="10.00">/src/utils.cpp</text>
</a>
</g>
</g>
<!-- Node2 -->
<g id="node2" class="node"><title>Node2</title>
<g id="a_node2"><a xlink:href="utils_8h.html" target="_top" xlink:title=" ">
<polygon fill="white" stroke="black" points="334.5,-112.5 334.5,-131.5 393.5,-131.5 393.5,-112.5 334.5,-112.5"/>
<text text-anchor="middle" x="364" y="-119.5" font-family="Helvetica,sans-Serif" font-size="10.00">ndt/utils.h</text>
</a>
</g>
</g>
<!-- Node1&#45;&gt;Node2 -->
<g id="edge1" class="edge"><title>Node1&#45;&gt;Node2</title>
<path fill="none" stroke="midnightblue" d="M439.538,-168.399C423.669,-158.862 402.809,-146.325 387.032,-136.842"/>
<polygon fill="midnightblue" stroke="midnightblue" points="388.779,-133.809 378.405,-131.658 385.174,-139.809 388.779,-133.809"/>
</g>
<!-- Node7 -->
<g id="node7" class="node"><title>Node7</title>
<g id="a_node7"><a xlink:title=" ">
<polygon fill="white" stroke="#bfbfbf" points="638,-56.5 638,-75.5 684,-75.5 684,-56.5 638,-56.5"/>
<text text-anchor="middle" x="661" y="-63.5" font-family="Helvetica,sans-Serif" font-size="10.00">cstring</text>
</a>
</g>
</g>
<!-- Node1&#45;&gt;Node7 -->
<g id="edge20" class="edge"><title>Node1&#45;&gt;Node7</title>
<path fill="none" stroke="midnightblue" d="M487.279,-168.337C525.643,-145.958 599.8,-102.7 637.606,-80.6467"/>
<polygon fill="midnightblue" stroke="midnightblue" points="639.516,-83.5843 646.39,-75.5223 635.989,-77.5378 639.516,-83.5843"/>
</g>
<!-- Node3 -->
<g id="node3" class="node"><title>Node3</title>
<g id="a_node3"><a xlink:title=" ">
<polygon fill="white" stroke="#bfbfbf" points="0,-56.5 0,-75.5 60,-75.5 60,-56.5 0,-56.5"/>
<text text-anchor="middle" x="30" y="-63.5" font-family="Helvetica,sans-Serif" font-size="10.00">fmt/core.h</text>
</a>
</g>
</g>
<!-- Node2&#45;&gt;Node3 -->
<g id="edge2" class="edge"><title>Node2&#45;&gt;Node3</title>
<path fill="none" stroke="midnightblue" d="M334.144,-117.204C282.409,-110.462 172.572,-95.4317 70.0796,-76.088"/>
<polygon fill="midnightblue" stroke="midnightblue" points="70.6645,-72.6366 60.186,-74.2027 69.3541,-79.5129 70.6645,-72.6366"/>
</g>
<!-- Node4 -->
<g id="node4" class="node"><title>Node4</title>
<g id="a_node4"><a xlink:title=" ">
<polygon fill="white" stroke="#bfbfbf" points="78,-56.5 78,-75.5 146,-75.5 146,-56.5 78,-56.5"/>
<text text-anchor="middle" x="112" y="-63.5" font-family="Helvetica,sans-Serif" font-size="10.00">fmt/format.h</text>
</a>
</g>
</g>
<!-- Node2&#45;&gt;Node4 -->
<g id="edge3" class="edge"><title>Node2&#45;&gt;Node4</title>
<path fill="none" stroke="midnightblue" d="M334.103,-114.593C290.071,-105.158 207.488,-87.4617 156.373,-76.5084"/>
<polygon fill="midnightblue" stroke="midnightblue" points="156.79,-73.0185 146.279,-74.3455 155.324,-79.8632 156.79,-73.0185"/>
</g>
<!-- Node5 -->
<g id="node5" class="node"><title>Node5</title>
<g id="a_node5"><a xlink:title=" ">
<polygon fill="white" stroke="#bfbfbf" points="164,-56.5 164,-75.5 202,-75.5 202,-56.5 164,-56.5"/>
<text text-anchor="middle" x="183" y="-63.5" font-family="Helvetica,sans-Serif" font-size="10.00">array</text>
</a>
</g>
</g>
<!-- Node2&#45;&gt;Node5 -->
<g id="edge4" class="edge"><title>Node2&#45;&gt;Node5</title>
<path fill="none" stroke="midnightblue" d="M334.317,-112.508C305.374,-104.174 259.877,-90.9379 211.887,-76.2221"/>
<polygon fill="midnightblue" stroke="midnightblue" points="212.847,-72.8556 202.26,-73.2603 210.788,-79.5462 212.847,-72.8556"/>
</g>
<!-- Node6 -->
<g id="node6" class="node"><title>Node6</title>
<g id="a_node6"><a xlink:title=" ">
<polygon fill="white" stroke="#bfbfbf" points="220,-56.5 220,-75.5 266,-75.5 266,-56.5 220,-56.5"/>
<text text-anchor="middle" x="243" y="-63.5" font-family="Helvetica,sans-Serif" font-size="10.00">chrono</text>
</a>
</g>
</g>
<!-- Node2&#45;&gt;Node6 -->
<g id="edge5" class="edge"><title>Node2&#45;&gt;Node6</title>
<path fill="none" stroke="midnightblue" d="M344.827,-112.444C325.091,-103.636 294.115,-89.8116 271.507,-79.722"/>
<polygon fill="midnightblue" stroke="midnightblue" points="272.641,-76.3957 262.083,-75.5164 269.789,-82.788 272.641,-76.3957"/>
</g>
<!-- Node2&#45;&gt;Node7 -->
<g id="edge6" class="edge"><title>Node2&#45;&gt;Node7</title>
<path fill="none" stroke="midnightblue" d="M393.61,-117.018C441.068,-110.41 537.243,-96.0958 627.782,-76.0845"/>
<polygon fill="midnightblue" stroke="midnightblue" points="628.66,-79.4746 637.654,-73.8744 627.131,-72.6437 628.66,-79.4746"/>
</g>
<!-- Node8 -->
<g id="node8" class="node"><title>Node8</title>
<g id="a_node8"><a xlink:title=" ">
<polygon fill="white" stroke="#bfbfbf" points="284,-56.5 284,-75.5 358,-75.5 358,-56.5 284,-56.5"/>
<text text-anchor="middle" x="321" y="-63.5" font-family="Helvetica,sans-Serif" font-size="10.00">system_error</text>
</a>
</g>
</g>
<!-- Node2&#45;&gt;Node8 -->
<g id="edge7" class="edge"><title>Node2&#45;&gt;Node8</title>
<path fill="none" stroke="midnightblue" d="M356.899,-112.083C350.763,-104.377 341.73,-93.0333 334.261,-83.6531"/>
<polygon fill="midnightblue" stroke="midnightblue" points="336.936,-81.3936 327.968,-75.7511 331.46,-85.7542 336.936,-81.3936"/>
</g>
<!-- Node9 -->
<g id="node9" class="node"><title>Node9</title>
<g id="a_node9"><a xlink:title=" ">
<polygon fill="white" stroke="#bfbfbf" points="376,-56.5 376,-75.5 438,-75.5 438,-56.5 376,-56.5"/>
<text text-anchor="middle" x="407" y="-63.5" font-family="Helvetica,sans-Serif" font-size="10.00">type_traits</text>
</a>
</g>
</g>
<!-- Node2&#45;&gt;Node9 -->
<g id="edge8" class="edge"><title>Node2&#45;&gt;Node9</title>
<path fill="none" stroke="midnightblue" d="M371.101,-112.083C377.237,-104.377 386.27,-93.0333 393.739,-83.6531"/>
<polygon fill="midnightblue" stroke="midnightblue" points="396.54,-85.7542 400.032,-75.7511 391.064,-81.3936 396.54,-85.7542"/>
</g>
<!-- Node10 -->
<g id="node10" class="node"><title>Node10</title>
<g id="a_node10"><a xlink:title=" ">
<polygon fill="white" stroke="#bfbfbf" points="456.5,-56.5 456.5,-75.5 539.5,-75.5 539.5,-56.5 456.5,-56.5"/>
<text text-anchor="middle" x="498" y="-63.5" font-family="Helvetica,sans-Serif" font-size="10.00">unordered_map</text>
</a>
</g>
</g>
<!-- Node2&#45;&gt;Node10 -->
<g id="edge9" class="edge"><title>Node2&#45;&gt;Node10</title>
<path fill="none" stroke="midnightblue" d="M385.233,-112.444C407.384,-103.517 442.319,-89.4387 467.436,-79.3168"/>
<polygon fill="midnightblue" stroke="midnightblue" points="468.9,-82.5006 476.867,-75.5164 466.283,-76.0079 468.9,-82.5006"/>
</g>
<!-- Node11 -->
<g id="node11" class="node"><title>Node11</title>
<g id="a_node11"><a xlink:href="common_8h.html" target="_top" xlink:title="Header with typedefs to make type designation platform independent.">
<polygon fill="white" stroke="black" points="558,-56.5 558,-75.5 620,-75.5 620,-56.5 558,-56.5"/>
<text text-anchor="middle" x="589" y="-63.5" font-family="Helvetica,sans-Serif" font-size="10.00">common.h</text>
</a>
</g>
</g>
<!-- Node2&#45;&gt;Node11 -->
<g id="edge10" class="edge"><title>Node2&#45;&gt;Node11</title>
<path fill="none" stroke="midnightblue" d="M393.878,-113.829C433.47,-104.327 503.488,-87.5228 548.002,-76.8396"/>
<polygon fill="midnightblue" stroke="midnightblue" points="549.006,-80.198 557.913,-74.4608 547.372,-73.3913 549.006,-80.198"/>
</g>
<!-- Node12 -->
<g id="node12" class="node"><title>Node12</title>
<g id="a_node12"><a xlink:title=" ">
<polygon fill="white" stroke="#bfbfbf" points="283,-0.5 283,-19.5 345,-19.5 345,-0.5 283,-0.5"/>
<text text-anchor="middle" x="314" y="-7.5" font-family="Helvetica,sans-Serif" font-size="10.00">arpa/inet.h</text>
</a>
</g>
</g>
<!-- Node11&#45;&gt;Node12 -->
<g id="edge11" class="edge"><title>Node11&#45;&gt;Node12</title>
<path fill="none" stroke="midnightblue" d="M557.581,-57.8129C554.683,-57.1856 551.789,-56.5723 549,-56 466.116,-38.9916 442.586,-37.4921 355.137,-19.9658"/>
<polygon fill="midnightblue" stroke="midnightblue" points="355.812,-16.5315 345.317,-17.9846 354.427,-23.3932 355.812,-16.5315"/>
</g>
<!-- Node13 -->
<g id="node13" class="node"><title>Node13</title>
<g id="a_node13"><a xlink:title=" ">
<polygon fill="white" stroke="#bfbfbf" points="363.5,-0.5 363.5,-19.5 410.5,-19.5 410.5,-0.5 363.5,-0.5"/>
<text text-anchor="middle" x="387" y="-7.5" font-family="Helvetica,sans-Serif" font-size="10.00">errno.h</text>
</a>
</g>
</g>
<!-- Node11&#45;&gt;Node13 -->
<g id="edge12" class="edge"><title>Node11&#45;&gt;Node13</title>
<path fill="none" stroke="midnightblue" d="M557.837,-56.7622C525.836,-48.2897 474.334,-34.6177 420.506,-20.1246"/>
<polygon fill="midnightblue" stroke="midnightblue" points="421.355,-16.7286 410.788,-17.5061 419.533,-23.4875 421.355,-16.7286"/>
</g>
<!-- Node14 -->
<g id="node14" class="node"><title>Node14</title>
<g id="a_node14"><a xlink:title=" ">
<polygon fill="white" stroke="#bfbfbf" points="428.5,-0.5 428.5,-19.5 471.5,-19.5 471.5,-0.5 428.5,-0.5"/>
<text text-anchor="middle" x="450" y="-7.5" font-family="Helvetica,sans-Serif" font-size="10.00">fcntl.h</text>
</a>
</g>
</g>
<!-- Node11&#45;&gt;Node14 -->
<g id="edge13" class="edge"><title>Node11&#45;&gt;Node14</title>
<path fill="none" stroke="midnightblue" d="M566.975,-56.4435C543.896,-47.4776 507.438,-33.314 481.359,-23.1827"/>
<polygon fill="midnightblue" stroke="midnightblue" points="482.511,-19.8753 471.922,-19.5164 479.976,-26.4002 482.511,-19.8753"/>
</g>
<!-- Node15 -->
<g id="node15" class="node"><title>Node15</title>
<g id="a_node15"><a xlink:title=" ">
<polygon fill="white" stroke="#bfbfbf" points="489.5,-0.5 489.5,-19.5 538.5,-19.5 538.5,-0.5 489.5,-0.5"/>
<text text-anchor="middle" x="514" y="-7.5" font-family="Helvetica,sans-Serif" font-size="10.00">netdb.h</text>
</a>
</g>
</g>
<!-- Node11&#45;&gt;Node15 -->
<g id="edge14" class="edge"><title>Node11&#45;&gt;Node15</title>
<path fill="none" stroke="midnightblue" d="M576.95,-56.324C565.537,-48.1066 548.169,-35.6017 534.565,-25.8069"/>
<polygon fill="midnightblue" stroke="midnightblue" points="536.43,-22.8366 526.269,-19.8339 532.34,-28.5174 536.43,-22.8366"/>
</g>
<!-- Node16 -->
<g id="node16" class="node"><title>Node16</title>
<g id="a_node16"><a xlink:title=" ">
<polygon fill="white" stroke="#bfbfbf" points="556.5,-0.5 556.5,-19.5 621.5,-19.5 621.5,-0.5 556.5,-0.5"/>
<text text-anchor="middle" x="589" y="-7.5" font-family="Helvetica,sans-Serif" font-size="10.00">netinet/in.h</text>
</a>
</g>
</g>
<!-- Node11&#45;&gt;Node16 -->
<g id="edge15" class="edge"><title>Node11&#45;&gt;Node16</title>
<path fill="none" stroke="midnightblue" d="M589,-56.083C589,-49.0059 589,-38.8611 589,-29.9865"/>
<polygon fill="midnightblue" stroke="midnightblue" points="592.5,-29.751 589,-19.7511 585.5,-29.7511 592.5,-29.751"/>
</g>
<!-- Node17 -->
<g id="node17" class="node"><title>Node17</title>
<g id="a_node17"><a xlink:title=" ">
<polygon fill="white" stroke="#bfbfbf" points="639.5,-0.5 639.5,-19.5 712.5,-19.5 712.5,-0.5 639.5,-0.5"/>
<text text-anchor="middle" x="676" y="-7.5" font-family="Helvetica,sans-Serif" font-size="10.00">sys/socket.h</text>
</a>
</g>
</g>
<!-- Node11&#45;&gt;Node17 -->
<g id="edge16" class="edge"><title>Node11&#45;&gt;Node17</title>
<path fill="none" stroke="midnightblue" d="M602.978,-56.324C616.55,-47.9002 637.38,-34.9709 653.325,-25.0741"/>
<polygon fill="midnightblue" stroke="midnightblue" points="655.406,-27.9019 662.057,-19.6545 651.714,-21.9544 655.406,-27.9019"/>
</g>
<!-- Node18 -->
<g id="node18" class="node"><title>Node18</title>
<g id="a_node18"><a xlink:title=" ">
<polygon fill="white" stroke="#bfbfbf" points="731,-0.5 731,-19.5 799,-19.5 799,-0.5 731,-0.5"/>
<text text-anchor="middle" x="765" y="-7.5" font-family="Helvetica,sans-Serif" font-size="10.00">sys/types.h</text>
</a>
</g>
</g>
<!-- Node11&#45;&gt;Node18 -->
<g id="edge17" class="edge"><title>Node11&#45;&gt;Node18</title>
<path fill="none" stroke="midnightblue" d="M616.888,-56.4435C646.754,-47.2801 694.315,-32.6876 727.456,-22.5192"/>
<polygon fill="midnightblue" stroke="midnightblue" points="728.709,-25.7958 737.243,-19.5164 726.656,-19.1037 728.709,-25.7958"/>
</g>
<!-- Node19 -->
<g id="node19" class="node"><title>Node19</title>
<g id="a_node19"><a xlink:title=" ">
<polygon fill="white" stroke="#bfbfbf" points="817.5,-0.5 817.5,-19.5 868.5,-19.5 868.5,-0.5 817.5,-0.5"/>
<text text-anchor="middle" x="843" y="-7.5" font-family="Helvetica,sans-Serif" font-size="10.00">unistd.h</text>
</a>
</g>
</g>
<!-- Node11&#45;&gt;Node19 -->
<g id="edge18" class="edge"><title>Node11&#45;&gt;Node19</title>
<path fill="none" stroke="midnightblue" d="M620.428,-57.8575C623.324,-57.2208 626.215,-56.5932 629,-56 705.267,-39.7528 727.205,-38.212 807.354,-20.0442"/>
<polygon fill="midnightblue" stroke="midnightblue" points="808.455,-23.383 817.424,-17.7441 806.896,-16.5587 808.455,-23.383"/>
</g>
<!-- Node20 -->
<g id="node20" class="node"><title>Node20</title>
<g id="a_node20"><a xlink:title=" ">
<polygon fill="white" stroke="#bfbfbf" points="887,-0.5 887,-19.5 935,-19.5 935,-0.5 887,-0.5"/>
<text text-anchor="middle" x="911" y="-7.5" font-family="Helvetica,sans-Serif" font-size="10.00">cstddef</text>
</a>
</g>
</g>
<!-- Node11&#45;&gt;Node20 -->
<g id="edge19" class="edge"><title>Node11&#45;&gt;Node20</title>
<path fill="none" stroke="midnightblue" d="M620.395,-57.6938C623.298,-57.0915 626.2,-56.5166 629,-56 735.847,-36.2866 766.783,-42.3764 877.082,-19.9641"/>
<polygon fill="midnightblue" stroke="midnightblue" points="877.846,-23.3802 886.932,-17.9305 876.431,-16.5247 877.846,-23.3802"/>
</g>
</g>
</svg>
