<?xml version="1.0" encoding="UTF-8" standalone="no"?>
<!DOCTYPE svg PUBLIC "-//W3C//DTD SVG 1.1//EN"
 "http://www.w3.org/Graphics/SVG/1.1/DTD/svg11.dtd">
<!-- Generated by graphviz version 2.38.0 (20140413.2041)
 -->
<!-- Title: C:/projects/ndt/sources/src/utils.cpp Pages: 1 -->
<svg width="887pt" height="207pt"
 viewBox="0.00 0.00 887.00 207.00" xmlns="http://www.w3.org/2000/svg" xmlns:xlink="http://www.w3.org/1999/xlink">
<g id="graph0" class="graph" transform="scale(1 1) rotate(0) translate(4 203)">
<title>C:/projects/ndt/sources/src/utils.cpp</title>
<polygon fill="white" stroke="none" points="-4,4 -4,-203 883,-203 883,4 -4,4"/>
<!-- Node1 -->
<g id="node1" class="node"><title>Node1</title>
<g id="a_node1"><a xlink:title=" ">
<polygon fill="#bfbfbf" stroke="black" points="108,-168.5 108,-198.5 226,-198.5 226,-168.5 108,-168.5"/>
<text text-anchor="start" x="116" y="-186.5" font-family="Helvetica,sans-Serif" font-size="10.00">C:/projects/ndt/sources</text>
<text text-anchor="middle" x="167" y="-175.5" font-family="Helvetica,sans-Serif" font-size="10.00">/src/utils.cpp</text>
</a>
</g>
</g>
<!-- Node2 -->
<g id="node2" class="node"><title>Node2</title>
<g id="a_node2"><a xlink:href="utils_8h.html" target="_top" xlink:title=" ">
<polygon fill="white" stroke="black" points="190.5,-112.5 190.5,-131.5 249.5,-131.5 249.5,-112.5 190.5,-112.5"/>
<text text-anchor="middle" x="220" y="-119.5" font-family="Helvetica,sans-Serif" font-size="10.00">ndt/utils.h</text>
</a>
</g>
</g>
<!-- Node1&#45;&gt;Node2 -->
<g id="edge1" class="edge"><title>Node1&#45;&gt;Node2</title>
<path fill="none" stroke="midnightblue" d="M179.56,-168.399C187.341,-159.664 197.364,-148.413 205.484,-139.296"/>
<polygon fill="midnightblue" stroke="midnightblue" points="208.25,-141.453 212.288,-131.658 203.023,-136.797 208.25,-141.453"/>
</g>
<!-- Node5 -->
<g id="node5" class="node"><title>Node5</title>
<g id="a_node5"><a xlink:title=" ">
<polygon fill="white" stroke="#bfbfbf" points="0,-56.5 0,-75.5 46,-75.5 46,-56.5 0,-56.5"/>
<text text-anchor="middle" x="23" y="-63.5" font-family="Helvetica,sans-Serif" font-size="10.00">cstring</text>
</a>
</g>
</g>
<!-- Node1&#45;&gt;Node5 -->
<g id="edge18" class="edge"><title>Node1&#45;&gt;Node5</title>
<path fill="none" stroke="midnightblue" d="M149.343,-168.337C121.982,-146.392 69.591,-104.37 41.6427,-81.953"/>
<polygon fill="midnightblue" stroke="midnightblue" points="43.7994,-79.1961 33.8087,-75.6695 39.4195,-84.6566 43.7994,-79.1961"/>
</g>
<!-- Node3 -->
<g id="node3" class="node"><title>Node3</title>
<g id="a_node3"><a xlink:title=" ">
<polygon fill="white" stroke="#bfbfbf" points="64,-56.5 64,-75.5 124,-75.5 124,-56.5 64,-56.5"/>
<text text-anchor="middle" x="94" y="-63.5" font-family="Helvetica,sans-Serif" font-size="10.00">fmt/core.h</text>
</a>
</g>
</g>
<!-- Node2&#45;&gt;Node3 -->
<g id="edge2" class="edge"><title>Node2&#45;&gt;Node3</title>
<path fill="none" stroke="midnightblue" d="M200.035,-112.444C179.391,-103.596 146.937,-89.6875 123.368,-79.5865"/>
<polygon fill="midnightblue" stroke="midnightblue" points="124.442,-76.2387 113.872,-75.5164 121.684,-82.6727 124.442,-76.2387"/>
</g>
<!-- Node4 -->
<g id="node4" class="node"><title>Node4</title>
<g id="a_node4"><a xlink:title=" ">
<polygon fill="white" stroke="#bfbfbf" points="142,-56.5 142,-75.5 210,-75.5 210,-56.5 142,-56.5"/>
<text text-anchor="middle" x="176" y="-63.5" font-family="Helvetica,sans-Serif" font-size="10.00">fmt/format.h</text>
</a>
</g>
</g>
<!-- Node2&#45;&gt;Node4 -->
<g id="edge3" class="edge"><title>Node2&#45;&gt;Node4</title>
<path fill="none" stroke="midnightblue" d="M212.734,-112.083C206.455,-104.377 197.212,-93.0333 189.569,-83.6531"/>
<polygon fill="midnightblue" stroke="midnightblue" points="192.161,-81.2926 183.131,-75.7511 186.734,-85.7143 192.161,-81.2926"/>
</g>
<!-- Node2&#45;&gt;Node5 -->
<g id="edge4" class="edge"><title>Node2&#45;&gt;Node5</title>
<path fill="none" stroke="midnightblue" d="M190.473,-113.023C159.379,-104.606 108.737,-90.8502 55.9443,-76.2464"/>
<polygon fill="midnightblue" stroke="midnightblue" points="56.6373,-72.8067 46.0659,-73.5108 54.7691,-79.5528 56.6373,-72.8067"/>
</g>
<!-- Node6 -->
<g id="node6" class="node"><title>Node6</title>
<g id="a_node6"><a xlink:title=" ">
<polygon fill="white" stroke="#bfbfbf" points="228,-56.5 228,-75.5 302,-75.5 302,-56.5 228,-56.5"/>
<text text-anchor="middle" x="265" y="-63.5" font-family="Helvetica,sans-Serif" font-size="10.00">system_error</text>
</a>
</g>
</g>
<!-- Node2&#45;&gt;Node6 -->
<g id="edge5" class="edge"><title>Node2&#45;&gt;Node6</title>
<path fill="none" stroke="midnightblue" d="M227.431,-112.083C233.853,-104.377 243.306,-93.0333 251.122,-83.6531"/>
<polygon fill="midnightblue" stroke="midnightblue" points="253.994,-85.674 257.707,-75.7511 248.617,-81.1927 253.994,-85.674"/>
</g>
<!-- Node7 -->
<g id="node7" class="node"><title>Node7</title>
<g id="a_node7"><a xlink:title=" ">
<polygon fill="white" stroke="#bfbfbf" points="320,-56.5 320,-75.5 382,-75.5 382,-56.5 320,-56.5"/>
<text text-anchor="middle" x="351" y="-63.5" font-family="Helvetica,sans-Serif" font-size="10.00">type_traits</text>
</a>
</g>
</g>
<!-- Node2&#45;&gt;Node7 -->
<g id="edge6" class="edge"><title>Node2&#45;&gt;Node7</title>
<path fill="none" stroke="midnightblue" d="M240.757,-112.444C262.316,-103.557 296.263,-89.5632 320.794,-79.4514"/>
<polygon fill="midnightblue" stroke="midnightblue" points="322.428,-82.5634 330.34,-75.5164 319.761,-76.0917 322.428,-82.5634"/>
</g>
<!-- Node8 -->
<g id="node8" class="node"><title>Node8</title>
<g id="a_node8"><a xlink:title=" ">
<polygon fill="white" stroke="#bfbfbf" points="400.5,-56.5 400.5,-75.5 483.5,-75.5 483.5,-56.5 400.5,-56.5"/>
<text text-anchor="middle" x="442" y="-63.5" font-family="Helvetica,sans-Serif" font-size="10.00">unordered_map</text>
</a>
</g>
</g>
<!-- Node2&#45;&gt;Node8 -->
<g id="edge7" class="edge"><title>Node2&#45;&gt;Node8</title>
<path fill="none" stroke="midnightblue" d="M249.94,-113.717C287.711,-104.53 353.016,-88.6447 396.855,-77.9812"/>
<polygon fill="midnightblue" stroke="midnightblue" points="397.796,-81.3545 406.685,-75.59 396.142,-74.5528 397.796,-81.3545"/>
</g>
<!-- Node9 -->
<g id="node9" class="node"><title>Node9</title>
<g id="a_node9"><a xlink:href="common_8h.html" target="_top" xlink:title="Header with typedefs to make type designation platform independent.">
<polygon fill="white" stroke="black" points="502,-56.5 502,-75.5 564,-75.5 564,-56.5 502,-56.5"/>
<text text-anchor="middle" x="533" y="-63.5" font-family="Helvetica,sans-Serif" font-size="10.00">common.h</text>
</a>
</g>
</g>
<!-- Node2&#45;&gt;Node9 -->
<g id="edge8" class="edge"><title>Node2&#45;&gt;Node9</title>
<path fill="none" stroke="midnightblue" d="M249.591,-116.697C298.086,-109.521 397.715,-94.2611 491.645,-76.1774"/>
<polygon fill="midnightblue" stroke="midnightblue" points="492.443,-79.5878 501.593,-74.2471 491.11,-72.716 492.443,-79.5878"/>
</g>
<!-- Node10 -->
<g id="node10" class="node"><title>Node10</title>
<g id="a_node10"><a xlink:title=" ">
<polygon fill="white" stroke="#bfbfbf" points="227,-0.5 227,-19.5 289,-19.5 289,-0.5 227,-0.5"/>
<text text-anchor="middle" x="258" y="-7.5" font-family="Helvetica,sans-Serif" font-size="10.00">arpa/inet.h</text>
</a>
</g>
</g>
<!-- Node9&#45;&gt;Node10 -->
<g id="edge9" class="edge"><title>Node9&#45;&gt;Node10</title>
<path fill="none" stroke="midnightblue" d="M501.581,-57.8129C498.683,-57.1856 495.789,-56.5723 493,-56 410.116,-38.9916 386.586,-37.4921 299.137,-19.9658"/>
<polygon fill="midnightblue" stroke="midnightblue" points="299.812,-16.5315 289.317,-17.9846 298.427,-23.3932 299.812,-16.5315"/>
</g>
<!-- Node11 -->
<g id="node11" class="node"><title>Node11</title>
<g id="a_node11"><a xlink:title=" ">
<polygon fill="white" stroke="#bfbfbf" points="307.5,-0.5 307.5,-19.5 354.5,-19.5 354.5,-0.5 307.5,-0.5"/>
<text text-anchor="middle" x="331" y="-7.5" font-family="Helvetica,sans-Serif" font-size="10.00">errno.h</text>
</a>
</g>
</g>
<!-- Node9&#45;&gt;Node11 -->
<g id="edge10" class="edge"><title>Node9&#45;&gt;Node11</title>
<path fill="none" stroke="midnightblue" d="M501.837,-56.7622C469.836,-48.2897 418.334,-34.6177 364.506,-20.1246"/>
<polygon fill="midnightblue" stroke="midnightblue" points="365.355,-16.7286 354.788,-17.5061 363.533,-23.4875 365.355,-16.7286"/>
</g>
<!-- Node12 -->
<g id="node12" class="node"><title>Node12</title>
<g id="a_node12"><a xlink:title=" ">
<polygon fill="white" stroke="#bfbfbf" points="372.5,-0.5 372.5,-19.5 415.5,-19.5 415.5,-0.5 372.5,-0.5"/>
<text text-anchor="middle" x="394" y="-7.5" font-family="Helvetica,sans-Serif" font-size="10.00">fcntl.h</text>
</a>
</g>
</g>
<!-- Node9&#45;&gt;Node12 -->
<g id="edge11" class="edge"><title>Node9&#45;&gt;Node12</title>
<path fill="none" stroke="midnightblue" d="M510.975,-56.4435C487.896,-47.4776 451.438,-33.314 425.359,-23.1827"/>
<polygon fill="midnightblue" stroke="midnightblue" points="426.511,-19.8753 415.922,-19.5164 423.976,-26.4002 426.511,-19.8753"/>
</g>
<!-- Node13 -->
<g id="node13" class="node"><title>Node13</title>
<g id="a_node13"><a xlink:title=" ">
<polygon fill="white" stroke="#bfbfbf" points="433.5,-0.5 433.5,-19.5 482.5,-19.5 482.5,-0.5 433.5,-0.5"/>
<text text-anchor="middle" x="458" y="-7.5" font-family="Helvetica,sans-Serif" font-size="10.00">netdb.h</text>
</a>
</g>
</g>
<!-- Node9&#45;&gt;Node13 -->
<g id="edge12" class="edge"><title>Node9&#45;&gt;Node13</title>
<path fill="none" stroke="midnightblue" d="M520.95,-56.324C509.537,-48.1066 492.169,-35.6017 478.565,-25.8069"/>
<polygon fill="midnightblue" stroke="midnightblue" points="480.43,-22.8366 470.269,-19.8339 476.34,-28.5174 480.43,-22.8366"/>
</g>
<!-- Node14 -->
<g id="node14" class="node"><title>Node14</title>
<g id="a_node14"><a xlink:title=" ">
<polygon fill="white" stroke="#bfbfbf" points="500.5,-0.5 500.5,-19.5 565.5,-19.5 565.5,-0.5 500.5,-0.5"/>
<text text-anchor="middle" x="533" y="-7.5" font-family="Helvetica,sans-Serif" font-size="10.00">netinet/in.h</text>
</a>
</g>
</g>
<!-- Node9&#45;&gt;Node14 -->
<g id="edge13" class="edge"><title>Node9&#45;&gt;Node14</title>
<path fill="none" stroke="midnightblue" d="M533,-56.083C533,-49.0059 533,-38.8611 533,-29.9865"/>
<polygon fill="midnightblue" stroke="midnightblue" points="536.5,-29.751 533,-19.7511 529.5,-29.7511 536.5,-29.751"/>
</g>
<!-- Node15 -->
<g id="node15" class="node"><title>Node15</title>
<g id="a_node15"><a xlink:title=" ">
<polygon fill="white" stroke="#bfbfbf" points="583.5,-0.5 583.5,-19.5 656.5,-19.5 656.5,-0.5 583.5,-0.5"/>
<text text-anchor="middle" x="620" y="-7.5" font-family="Helvetica,sans-Serif" font-size="10.00">sys/socket.h</text>
</a>
</g>
</g>
<!-- Node9&#45;&gt;Node15 -->
<g id="edge14" class="edge"><title>Node9&#45;&gt;Node15</title>
<path fill="none" stroke="midnightblue" d="M546.978,-56.324C560.55,-47.9002 581.38,-34.9709 597.325,-25.0741"/>
<polygon fill="midnightblue" stroke="midnightblue" points="599.406,-27.9019 606.057,-19.6545 595.714,-21.9544 599.406,-27.9019"/>
</g>
<!-- Node16 -->
<g id="node16" class="node"><title>Node16</title>
<g id="a_node16"><a xlink:title=" ">
<polygon fill="white" stroke="#bfbfbf" points="675,-0.5 675,-19.5 743,-19.5 743,-0.5 675,-0.5"/>
<text text-anchor="middle" x="709" y="-7.5" font-family="Helvetica,sans-Serif" font-size="10.00">sys/types.h</text>
</a>
</g>
</g>
<!-- Node9&#45;&gt;Node16 -->
<g id="edge15" class="edge"><title>Node9&#45;&gt;Node16</title>
<path fill="none" stroke="midnightblue" d="M560.888,-56.4435C590.754,-47.2801 638.315,-32.6876 671.456,-22.5192"/>
<polygon fill="midnightblue" stroke="midnightblue" points="672.709,-25.7958 681.243,-19.5164 670.656,-19.1037 672.709,-25.7958"/>
</g>
<!-- Node17 -->
<g id="node17" class="node"><title>Node17</title>
<g id="a_node17"><a xlink:title=" ">
<polygon fill="white" stroke="#bfbfbf" points="761.5,-0.5 761.5,-19.5 812.5,-19.5 812.5,-0.5 761.5,-0.5"/>
<text text-anchor="middle" x="787" y="-7.5" font-family="Helvetica,sans-Serif" font-size="10.00">unistd.h</text>
</a>
</g>
</g>
<!-- Node9&#45;&gt;Node17 -->
<g id="edge16" class="edge"><title>Node9&#45;&gt;Node17</title>
<path fill="none" stroke="midnightblue" d="M564.294,-59.0707C605.058,-51.2376 678.756,-36.7047 751.616,-19.9951"/>
<polygon fill="midnightblue" stroke="midnightblue" points="752.465,-23.3912 761.421,-17.7316 750.89,-16.5706 752.465,-23.3912"/>
</g>
<!-- Node18 -->
<g id="node18" class="node"><title>Node18</title>
<g id="a_node18"><a xlink:title=" ">
<polygon fill="white" stroke="#bfbfbf" points="831,-0.5 831,-19.5 879,-19.5 879,-0.5 831,-0.5"/>
<text text-anchor="middle" x="855" y="-7.5" font-family="Helvetica,sans-Serif" font-size="10.00">cstddef</text>
</a>
</g>
</g>
<!-- Node9&#45;&gt;Node18 -->
<g id="edge17" class="edge"><title>Node9&#45;&gt;Node18</title>
<path fill="none" stroke="midnightblue" d="M564.003,-61.3288C615.427,-54.9903 721.748,-40.8324 821.033,-20.0028"/>
<polygon fill="midnightblue" stroke="midnightblue" points="821.872,-23.4027 830.926,-17.8997 820.416,-16.5557 821.872,-23.4027"/>
</g>
</g>
</svg>
