<?xml version="1.0" encoding="UTF-8" standalone="no"?>
<!DOCTYPE svg PUBLIC "-//W3C//DTD SVG 1.1//EN"
 "http://www.w3.org/Graphics/SVG/1.1/DTD/svg11.dtd">
<!-- Generated by graphviz version 2.38.0 (20140413.2041)
 -->
<!-- Title: C:/projects/ndt/sources/include/ndt/value.h Pages: 1 -->
<!--zoomable 263 -->
<svg id="main" version="1.1" xmlns="http://www.w3.org/2000/svg" xmlns:xlink="http://www.w3.org/1999/xlink" xml:space="preserve" onload="init(evt)">
<style type="text/css"><![CDATA[
.edge:hover path { stroke: red; }
.edge:hover polygon { stroke: red; fill: red; }
]]></style>
<script type="text/javascript"><![CDATA[
var edges = document.getElementsByTagName('g');
if (edges && edges.length) {
  for (var i=0;i<edges.length;i++) {
    if (edges[i].id.substr(0,4)=='edge') {
      edges[i].setAttribute('class','edge');
    }
  }
}
]]></script>
        <defs>
                <circle id="rim" cx="0" cy="0" r="7"/>
                <circle id="rim2" cx="0" cy="0" r="3.5"/>
                <g id="zoomPlus">
                        <use xlink:href="#rim" fill="#404040">
                                <set attributeName="fill" to="#808080" begin="zoomplus.mouseover" end="zoomplus.mouseout"/>
                        </use>
                        <path d="M-4,0h8M0,-4v8" fill="none" stroke="white" stroke-width="1.5" pointer-events="none"/>
                </g>
                <g id="zoomMin">
                        <use xlink:href="#rim" fill="#404040">
                                <set attributeName="fill" to="#808080" begin="zoomminus.mouseover" end="zoomminus.mouseout"/>
                        </use>
                        <path d="M-4,0h8" fill="none" stroke="white" stroke-width="1.5" pointer-events="none"/>
                </g>
                <g id="dirArrow">
                        <path fill="none" stroke="white" stroke-width="1.5" d="M0,-3.0v7 M-2.5,-0.5L0,-3.0L2.5,-0.5"/>
                </g>
               <g id="resetDef">
                       <use xlink:href="#rim2" fill="#404040">
                               <set attributeName="fill" to="#808080" begin="reset.mouseover" end="reset.mouseout"/>
                       </use>
               </g>
        </defs>

<script type="text/javascript">
var viewWidth = 1066;
var viewHeight = 263;
var sectionId = 'dynsection-0';
</script>
<script xlink:href="svgpan.js"/>
<svg id="graph" class="graph">
<g id="viewport">
<title>C:/projects/ndt/sources/include/ndt/value.h</title>
<polygon fill="white" stroke="none" points="-4,4 -4,-259 1062,-259 1062,4 -4,4"/>
<!-- Node1 -->
<g id="node1" class="node"><title>Node1</title>
<g id="a_node1"><a xlink:title=" ">
<polygon fill="#bfbfbf" stroke="black" points="683,-224.5 683,-254.5 801,-254.5 801,-224.5 683,-224.5"/>
<text text-anchor="start" x="691" y="-242.5" font-family="Helvetica,sans-Serif" font-size="10.00">C:/projects/ndt/sources</text>
<text text-anchor="middle" x="742" y="-231.5" font-family="Helvetica,sans-Serif" font-size="10.00">/include/ndt/value.h</text>
</a>
</g>
</g>
<!-- Node2 -->
<g id="node2" class="node"><title>Node2</title>
<g id="a_node2"><a xlink:href="bin__rw_8h.html" target="_top" xlink:title=" ">
<polygon fill="white" stroke="black" points="623.5,-168.5 623.5,-187.5 676.5,-187.5 676.5,-168.5 623.5,-168.5"/>
<text text-anchor="middle" x="650" y="-175.5" font-family="Helvetica,sans-Serif" font-size="10.00">bin_rw.h</text>
</a>
</g>
</g>
<!-- Node1&#45;&gt;Node2 -->
<g id="edge1" class="edge"><title>Node1&#45;&gt;Node2</title>
<path fill="none" stroke="midnightblue" d="M720.197,-224.399C705.588,-214.951 686.427,-202.559 671.815,-193.109"/>
<polygon fill="midnightblue" stroke="midnightblue" points="673.684,-190.15 663.387,-187.658 669.883,-196.027 673.684,-190.15"/>
</g>
<!-- Node30 -->
<g id="node30" class="node"><title>Node30</title>
<g id="a_node30"><a xlink:href="interval_8h.html" target="_top" xlink:title=" ">
<polygon fill="white" stroke="black" points="714.5,-168.5 714.5,-187.5 769.5,-187.5 769.5,-168.5 714.5,-168.5"/>
<text text-anchor="middle" x="742" y="-175.5" font-family="Helvetica,sans-Serif" font-size="10.00">interval.h</text>
</a>
</g>
</g>
<!-- Node1&#45;&gt;Node30 -->
<g id="edge38" class="edge"><title>Node1&#45;&gt;Node30</title>
<path fill="none" stroke="midnightblue" d="M742,-224.399C742,-216.466 742,-206.458 742,-197.858"/>
<polygon fill="midnightblue" stroke="midnightblue" points="745.5,-197.658 742,-187.658 738.5,-197.658 745.5,-197.658"/>
</g>
<!-- Node31 -->
<g id="node31" class="node"><title>Node31</title>
<g id="a_node31"><a xlink:href="tag_8h.html" target="_top" xlink:title=" ">
<polygon fill="white" stroke="black" points="788,-168.5 788,-187.5 826,-187.5 826,-168.5 788,-168.5"/>
<text text-anchor="middle" x="807" y="-175.5" font-family="Helvetica,sans-Serif" font-size="10.00">tag.h</text>
</a>
</g>
</g>
<!-- Node1&#45;&gt;Node31 -->
<g id="edge40" class="edge"><title>Node1&#45;&gt;Node31</title>
<path fill="none" stroke="midnightblue" d="M757.404,-224.399C767.239,-215.397 779.993,-203.721 790.105,-194.465"/>
<polygon fill="midnightblue" stroke="midnightblue" points="792.529,-196.992 797.542,-187.658 787.802,-191.828 792.529,-196.992"/>
</g>
<!-- Node3 -->
<g id="node3" class="node"><title>Node3</title>
<g id="a_node3"><a xlink:title=" ">
<polygon fill="white" stroke="#bfbfbf" points="327,-112.5 327,-131.5 383,-131.5 383,-112.5 327,-112.5"/>
<text text-anchor="middle" x="355" y="-119.5" font-family="Helvetica,sans-Serif" font-size="10.00">algorithm</text>
</a>
</g>
</g>
<!-- Node2&#45;&gt;Node3 -->
<g id="edge2" class="edge"><title>Node2&#45;&gt;Node3</title>
<path fill="none" stroke="midnightblue" d="M623.147,-172.914C577.78,-165.883 482.882,-150.624 393.037,-132.108"/>
<polygon fill="midnightblue" stroke="midnightblue" points="393.741,-128.68 383.238,-130.072 392.317,-135.534 393.741,-128.68"/>
</g>
<!-- Node4 -->
<g id="node4" class="node"><title>Node4</title>
<g id="a_node4"><a xlink:title=" ">
<polygon fill="white" stroke="#bfbfbf" points="558,-56.5 558,-75.5 604,-75.5 604,-56.5 558,-56.5"/>
<text text-anchor="middle" x="581" y="-63.5" font-family="Helvetica,sans-Serif" font-size="10.00">cstring</text>
</a>
</g>
</g>
<!-- Node2&#45;&gt;Node4 -->
<g id="edge3" class="edge"><title>Node2&#45;&gt;Node4</title>
<path fill="none" stroke="midnightblue" d="M643.083,-168.27C636.157,-159.37 625.355,-145.056 617,-132 607.026,-116.415 596.927,-97.8884 589.975,-84.6095"/>
<polygon fill="midnightblue" stroke="midnightblue" points="593.026,-82.8903 585.325,-75.6136 586.807,-86.1043 593.026,-82.8903"/>
</g>
<!-- Node5 -->
<g id="node5" class="node"><title>Node5</title>
<g id="a_node5"><a xlink:title=" ">
<polygon fill="white" stroke="#bfbfbf" points="728,-56.5 728,-75.5 790,-75.5 790,-56.5 728,-56.5"/>
<text text-anchor="middle" x="759" y="-63.5" font-family="Helvetica,sans-Serif" font-size="10.00">type_traits</text>
</a>
</g>
</g>
<!-- Node2&#45;&gt;Node5 -->
<g id="edge4" class="edge"><title>Node2&#45;&gt;Node5</title>
<path fill="none" stroke="midnightblue" d="M658.553,-168.368C676.86,-149.894 720.065,-106.293 743.4,-82.7436"/>
<polygon fill="midnightblue" stroke="midnightblue" points="745.934,-85.1583 750.487,-75.5914 740.962,-80.2312 745.934,-85.1583"/>
</g>
<!-- Node6 -->
<g id="node6" class="node"><title>Node6</title>
<g id="a_node6"><a xlink:href="buffer_8h.html" target="_top" xlink:title=" ">
<polygon fill="white" stroke="black" points="626,-112.5 626,-131.5 674,-131.5 674,-112.5 626,-112.5"/>
<text text-anchor="middle" x="650" y="-119.5" font-family="Helvetica,sans-Serif" font-size="10.00">buffer.h</text>
</a>
</g>
</g>
<!-- Node2&#45;&gt;Node6 -->
<g id="edge5" class="edge"><title>Node2&#45;&gt;Node6</title>
<path fill="none" stroke="midnightblue" d="M650,-168.083C650,-161.006 650,-150.861 650,-141.986"/>
<polygon fill="midnightblue" stroke="midnightblue" points="653.5,-141.751 650,-131.751 646.5,-141.751 653.5,-141.751"/>
</g>
<!-- Node20 -->
<g id="node20" class="node"><title>Node20</title>
<g id="a_node20"><a xlink:href="endian_8h.html" target="_top" xlink:title=" ">
<polygon fill="white" stroke="black" points="804.5,-112.5 804.5,-131.5 857.5,-131.5 857.5,-112.5 804.5,-112.5"/>
<text text-anchor="middle" x="831" y="-119.5" font-family="Helvetica,sans-Serif" font-size="10.00">endian.h</text>
</a>
</g>
</g>
<!-- Node2&#45;&gt;Node20 -->
<g id="edge21" class="edge"><title>Node2&#45;&gt;Node20</title>
<path fill="none" stroke="midnightblue" d="M676.707,-169.032C707.943,-159.713 759.808,-144.24 794.683,-133.835"/>
<polygon fill="midnightblue" stroke="midnightblue" points="795.896,-137.126 804.478,-130.913 793.895,-130.418 795.896,-137.126"/>
</g>
<!-- Node24 -->
<g id="node24" class="node"><title>Node24</title>
<g id="a_node24"><a xlink:href="utils_8h.html" target="_top" xlink:title=" ">
<polygon fill="white" stroke="black" points="401.5,-112.5 401.5,-131.5 444.5,-131.5 444.5,-112.5 401.5,-112.5"/>
<text text-anchor="middle" x="423" y="-119.5" font-family="Helvetica,sans-Serif" font-size="10.00">utils.h</text>
</a>
</g>
</g>
<!-- Node2&#45;&gt;Node24 -->
<g id="edge28" class="edge"><title>Node2&#45;&gt;Node24</title>
<path fill="none" stroke="midnightblue" d="M623.069,-170.593C580.794,-160.537 499.072,-141.097 454.265,-130.438"/>
<polygon fill="midnightblue" stroke="midnightblue" points="455.041,-127.025 444.503,-128.115 453.421,-133.834 455.041,-127.025"/>
</g>
<!-- Node6&#45;&gt;Node5 -->
<g id="edge10" class="edge"><title>Node6&#45;&gt;Node5</title>
<path fill="none" stroke="midnightblue" d="M667.513,-112.324C685.072,-103.625 712.331,-90.1202 732.531,-80.113"/>
<polygon fill="midnightblue" stroke="midnightblue" points="734.124,-83.23 741.531,-75.6545 731.016,-76.9575 734.124,-83.23"/>
</g>
<!-- Node7 -->
<g id="node7" class="node"><title>Node7</title>
<g id="a_node7"><a xlink:title=" ">
<polygon fill="white" stroke="#bfbfbf" points="622.5,-56.5 622.5,-75.5 671.5,-75.5 671.5,-56.5 622.5,-56.5"/>
<text text-anchor="middle" x="647" y="-63.5" font-family="Helvetica,sans-Serif" font-size="10.00">cassert</text>
</a>
</g>
</g>
<!-- Node6&#45;&gt;Node7 -->
<g id="edge6" class="edge"><title>Node6&#45;&gt;Node7</title>
<path fill="none" stroke="midnightblue" d="M649.505,-112.083C649.111,-105.006 648.548,-94.8611 648.055,-85.9865"/>
<polygon fill="midnightblue" stroke="midnightblue" points="651.536,-85.5415 647.486,-75.7511 644.546,-85.9299 651.536,-85.5415"/>
</g>
<!-- Node8 -->
<g id="node8" class="node"><title>Node8</title>
<g id="a_node8"><a xlink:title=" ">
<polygon fill="white" stroke="#bfbfbf" points="738,-0.5 738,-19.5 786,-19.5 786,-0.5 738,-0.5"/>
<text text-anchor="middle" x="762" y="-7.5" font-family="Helvetica,sans-Serif" font-size="10.00">cstddef</text>
</a>
</g>
</g>
<!-- Node6&#45;&gt;Node8 -->
<g id="edge7" class="edge"><title>Node6&#45;&gt;Node8</title>
<path fill="none" stroke="midnightblue" d="M658.788,-112.368C677.599,-93.8941 721.993,-50.2926 745.97,-26.7436"/>
<polygon fill="midnightblue" stroke="midnightblue" points="748.57,-29.0956 753.252,-19.5914 743.665,-24.1015 748.57,-29.0956"/>
</g>
<!-- Node9 -->
<g id="node9" class="node"><title>Node9</title>
<g id="a_node9"><a xlink:title=" ">
<polygon fill="white" stroke="#bfbfbf" points="808,-56.5 808,-75.5 854,-75.5 854,-56.5 808,-56.5"/>
<text text-anchor="middle" x="831" y="-63.5" font-family="Helvetica,sans-Serif" font-size="10.00">cstdint</text>
</a>
</g>
</g>
<!-- Node6&#45;&gt;Node9 -->
<g id="edge8" class="edge"><title>Node6&#45;&gt;Node9</title>
<path fill="none" stroke="midnightblue" d="M674.035,-113.829C705.806,-104.351 761.934,-87.6054 797.755,-76.9185"/>
<polygon fill="midnightblue" stroke="midnightblue" points="799.144,-80.1565 807.726,-73.9436 797.143,-73.4487 799.144,-80.1565"/>
</g>
<!-- Node10 -->
<g id="node10" class="node"><title>Node10</title>
<g id="a_node10"><a xlink:title=" ">
<polygon fill="white" stroke="#bfbfbf" points="386,-56.5 386,-75.5 460,-75.5 460,-56.5 386,-56.5"/>
<text text-anchor="middle" x="423" y="-63.5" font-family="Helvetica,sans-Serif" font-size="10.00">system_error</text>
</a>
</g>
</g>
<!-- Node6&#45;&gt;Node10 -->
<g id="edge9" class="edge"><title>Node6&#45;&gt;Node10</title>
<path fill="none" stroke="midnightblue" d="M625.707,-115.221C588.412,-106.349 516.404,-89.2194 469.024,-77.9485"/>
<polygon fill="midnightblue" stroke="midnightblue" points="469.554,-74.477 459.016,-75.5676 467.934,-81.287 469.554,-74.477"/>
</g>
<!-- Node11 -->
<g id="node11" class="node"><title>Node11</title>
<g id="a_node11"><a xlink:href="common_8h.html" target="_top" xlink:title="Header with typedefs to make type designation platform independent.">
<polygon fill="white" stroke="black" points="478,-56.5 478,-75.5 540,-75.5 540,-56.5 478,-56.5"/>
<text text-anchor="middle" x="509" y="-63.5" font-family="Helvetica,sans-Serif" font-size="10.00">common.h</text>
</a>
</g>
</g>
<!-- Node6&#45;&gt;Node11 -->
<g id="edge11" class="edge"><title>Node6&#45;&gt;Node11</title>
<path fill="none" stroke="midnightblue" d="M627.658,-112.444C604.247,-103.478 567.264,-89.314 540.81,-79.1827"/>
<polygon fill="midnightblue" stroke="midnightblue" points="541.828,-75.8245 531.237,-75.5164 539.324,-82.3615 541.828,-75.8245"/>
</g>
<!-- Node11&#45;&gt;Node8 -->
<g id="edge20" class="edge"><title>Node11&#45;&gt;Node8</title>
<path fill="none" stroke="midnightblue" d="M540.428,-57.8575C543.324,-57.2208 546.215,-56.5932 549,-56 628.368,-39.0923 648.963,-38.391 728,-20 728.1,-19.9766 728.201,-19.9532 728.302,-19.9297"/>
<polygon fill="midnightblue" stroke="midnightblue" points="729.023,-23.3567 737.899,-17.5718 727.353,-16.5588 729.023,-23.3567"/>
</g>
<!-- Node12 -->
<g id="node12" class="node"><title>Node12</title>
<g id="a_node12"><a xlink:title=" ">
<polygon fill="white" stroke="#bfbfbf" points="592,-0.5 592,-19.5 654,-19.5 654,-0.5 592,-0.5"/>
<text text-anchor="middle" x="623" y="-7.5" font-family="Helvetica,sans-Serif" font-size="10.00">arpa/inet.h</text>
</a>
</g>
</g>
<!-- Node11&#45;&gt;Node12 -->
<g id="edge12" class="edge"><title>Node11&#45;&gt;Node12</title>
<path fill="none" stroke="midnightblue" d="M527.064,-56.4435C545.575,-47.6751 574.581,-33.9355 595.855,-23.8579"/>
<polygon fill="midnightblue" stroke="midnightblue" points="597.482,-26.9604 605.021,-19.5164 594.485,-20.6343 597.482,-26.9604"/>
</g>
<!-- Node13 -->
<g id="node13" class="node"><title>Node13</title>
<g id="a_node13"><a xlink:title=" ">
<polygon fill="white" stroke="#bfbfbf" points="672.5,-0.5 672.5,-19.5 719.5,-19.5 719.5,-0.5 672.5,-0.5"/>
<text text-anchor="middle" x="696" y="-7.5" font-family="Helvetica,sans-Serif" font-size="10.00">errno.h</text>
</a>
</g>
</g>
<!-- Node11&#45;&gt;Node13 -->
<g id="edge13" class="edge"><title>Node11&#45;&gt;Node13</title>
<path fill="none" stroke="midnightblue" d="M538.631,-56.4435C572.375,-46.6993 627.379,-30.8158 662.612,-20.6414"/>
<polygon fill="midnightblue" stroke="midnightblue" points="663.792,-23.9437 672.429,-17.8067 661.85,-17.2185 663.792,-23.9437"/>
</g>
<!-- Node14 -->
<g id="node14" class="node"><title>Node14</title>
<g id="a_node14"><a xlink:title=" ">
<polygon fill="white" stroke="#bfbfbf" points="133.5,-0.5 133.5,-19.5 176.5,-19.5 176.5,-0.5 133.5,-0.5"/>
<text text-anchor="middle" x="155" y="-7.5" font-family="Helvetica,sans-Serif" font-size="10.00">fcntl.h</text>
</a>
</g>
</g>
<!-- Node11&#45;&gt;Node14 -->
<g id="edge14" class="edge"><title>Node11&#45;&gt;Node14</title>
<path fill="none" stroke="midnightblue" d="M477.614,-57.6415C474.709,-57.0501 471.804,-56.4921 469,-56 346.864,-34.5689 311.266,-45.7646 186.459,-20.0098"/>
<polygon fill="midnightblue" stroke="midnightblue" points="187.026,-16.5525 176.52,-17.9204 185.586,-23.4028 187.026,-16.5525"/>
</g>
<!-- Node15 -->
<g id="node15" class="node"><title>Node15</title>
<g id="a_node15"><a xlink:title=" ">
<polygon fill="white" stroke="#bfbfbf" points="194.5,-0.5 194.5,-19.5 243.5,-19.5 243.5,-0.5 194.5,-0.5"/>
<text text-anchor="middle" x="219" y="-7.5" font-family="Helvetica,sans-Serif" font-size="10.00">netdb.h</text>
</a>
</g>
</g>
<!-- Node11&#45;&gt;Node15 -->
<g id="edge15" class="edge"><title>Node11&#45;&gt;Node15</title>
<path fill="none" stroke="midnightblue" d="M477.593,-57.756C474.692,-57.1406 471.794,-56.5457 469,-56 376.142,-37.8662 349.225,-40.6781 253.587,-20.1812"/>
<polygon fill="midnightblue" stroke="midnightblue" points="254.314,-16.7577 243.799,-18.0544 252.828,-23.598 254.314,-16.7577"/>
</g>
<!-- Node16 -->
<g id="node16" class="node"><title>Node16</title>
<g id="a_node16"><a xlink:title=" ">
<polygon fill="white" stroke="#bfbfbf" points="261.5,-0.5 261.5,-19.5 326.5,-19.5 326.5,-0.5 261.5,-0.5"/>
<text text-anchor="middle" x="294" y="-7.5" font-family="Helvetica,sans-Serif" font-size="10.00">netinet/in.h</text>
</a>
</g>
</g>
<!-- Node11&#45;&gt;Node16 -->
<g id="edge16" class="edge"><title>Node11&#45;&gt;Node16</title>
<path fill="none" stroke="midnightblue" d="M477.737,-57.1479C440.51,-47.7979 378.152,-32.1359 336.552,-21.6874"/>
<polygon fill="midnightblue" stroke="midnightblue" points="337.262,-18.2571 326.71,-19.2157 335.557,-25.0463 337.262,-18.2571"/>
</g>
<!-- Node17 -->
<g id="node17" class="node"><title>Node17</title>
<g id="a_node17"><a xlink:title=" ">
<polygon fill="white" stroke="#bfbfbf" points="344.5,-0.5 344.5,-19.5 417.5,-19.5 417.5,-0.5 344.5,-0.5"/>
<text text-anchor="middle" x="381" y="-7.5" font-family="Helvetica,sans-Serif" font-size="10.00">sys/socket.h</text>
</a>
</g>
</g>
<!-- Node11&#45;&gt;Node17 -->
<g id="edge17" class="edge"><title>Node11&#45;&gt;Node17</title>
<path fill="none" stroke="midnightblue" d="M488.718,-56.4435C467.653,-47.5566 434.483,-33.5632 410.514,-23.4514"/>
<polygon fill="midnightblue" stroke="midnightblue" points="411.761,-20.1787 401.187,-19.5164 409.04,-26.6283 411.761,-20.1787"/>
</g>
<!-- Node18 -->
<g id="node18" class="node"><title>Node18</title>
<g id="a_node18"><a xlink:title=" ">
<polygon fill="white" stroke="#bfbfbf" points="436,-0.5 436,-19.5 504,-19.5 504,-0.5 436,-0.5"/>
<text text-anchor="middle" x="470" y="-7.5" font-family="Helvetica,sans-Serif" font-size="10.00">sys/types.h</text>
</a>
</g>
</g>
<!-- Node11&#45;&gt;Node18 -->
<g id="edge18" class="edge"><title>Node11&#45;&gt;Node18</title>
<path fill="none" stroke="midnightblue" d="M502.56,-56.083C497.051,-48.4554 488.969,-37.2645 482.235,-27.9408"/>
<polygon fill="midnightblue" stroke="midnightblue" points="485.013,-25.8087 476.32,-19.7511 479.338,-29.9071 485.013,-25.8087"/>
</g>
<!-- Node19 -->
<g id="node19" class="node"><title>Node19</title>
<g id="a_node19"><a xlink:title=" ">
<polygon fill="white" stroke="#bfbfbf" points="522.5,-0.5 522.5,-19.5 573.5,-19.5 573.5,-0.5 522.5,-0.5"/>
<text text-anchor="middle" x="548" y="-7.5" font-family="Helvetica,sans-Serif" font-size="10.00">unistd.h</text>
</a>
</g>
</g>
<!-- Node11&#45;&gt;Node19 -->
<g id="edge19" class="edge"><title>Node11&#45;&gt;Node19</title>
<path fill="none" stroke="midnightblue" d="M515.44,-56.083C520.949,-48.4554 529.031,-37.2645 535.765,-27.9408"/>
<polygon fill="midnightblue" stroke="midnightblue" points="538.662,-29.9071 541.68,-19.7511 532.987,-25.8087 538.662,-29.9071"/>
</g>
<!-- Node20&#45;&gt;Node4 -->
<g id="edge24" class="edge"><title>Node20&#45;&gt;Node4</title>
<path fill="none" stroke="midnightblue" d="M804.354,-116.128C764.91,-108.781 688.464,-94.0266 614.031,-76.1154"/>
<polygon fill="midnightblue" stroke="midnightblue" points="614.564,-72.6434 604.021,-73.6842 612.912,-79.4456 614.564,-72.6434"/>
</g>
<!-- Node20&#45;&gt;Node5 -->
<g id="edge26" class="edge"><title>Node20&#45;&gt;Node5</title>
<path fill="none" stroke="midnightblue" d="M819.432,-112.324C808.58,-104.185 792.119,-91.8395 779.117,-82.0874"/>
<polygon fill="midnightblue" stroke="midnightblue" points="780.879,-79.0339 770.779,-75.8339 776.679,-84.6339 780.879,-79.0339"/>
</g>
<!-- Node20&#45;&gt;Node9 -->
<g id="edge23" class="edge"><title>Node20&#45;&gt;Node9</title>
<path fill="none" stroke="midnightblue" d="M831,-112.083C831,-105.006 831,-94.8611 831,-85.9865"/>
<polygon fill="midnightblue" stroke="midnightblue" points="834.5,-85.751 831,-75.7511 827.5,-85.7511 834.5,-85.751"/>
</g>
<!-- Node21 -->
<g id="node21" class="node"><title>Node21</title>
<g id="a_node21"><a xlink:title=" ">
<polygon fill="white" stroke="#bfbfbf" points="872.5,-56.5 872.5,-75.5 917.5,-75.5 917.5,-56.5 872.5,-56.5"/>
<text text-anchor="middle" x="895" y="-63.5" font-family="Helvetica,sans-Serif" font-size="10.00">climits</text>
</a>
</g>
</g>
<!-- Node20&#45;&gt;Node21 -->
<g id="edge22" class="edge"><title>Node20&#45;&gt;Node21</title>
<path fill="none" stroke="midnightblue" d="M841.283,-112.324C850.836,-104.263 865.28,-92.0765 876.784,-82.3695"/>
<polygon fill="midnightblue" stroke="midnightblue" points="879.144,-84.9577 884.53,-75.8339 874.63,-79.6076 879.144,-84.9577"/>
</g>
<!-- Node22 -->
<g id="node22" class="node"><title>Node22</title>
<g id="a_node22"><a xlink:title=" ">
<polygon fill="white" stroke="#bfbfbf" points="936,-56.5 936,-75.5 1000,-75.5 1000,-56.5 936,-56.5"/>
<text text-anchor="middle" x="968" y="-63.5" font-family="Helvetica,sans-Serif" font-size="10.00">string_view</text>
</a>
</g>
</g>
<!-- Node20&#45;&gt;Node22 -->
<g id="edge25" class="edge"><title>Node20&#45;&gt;Node22</title>
<path fill="none" stroke="midnightblue" d="M852.708,-112.444C875.355,-103.517 911.072,-89.4387 936.752,-79.3168"/>
<polygon fill="midnightblue" stroke="midnightblue" points="938.374,-82.4397 946.394,-75.5164 935.807,-75.9273 938.374,-82.4397"/>
</g>
<!-- Node23 -->
<g id="node23" class="node"><title>Node23</title>
<g id="a_node23"><a xlink:title=" ">
<polygon fill="white" stroke="#bfbfbf" points="1018,-56.5 1018,-75.5 1058,-75.5 1058,-56.5 1018,-56.5"/>
<text text-anchor="middle" x="1038" y="-63.5" font-family="Helvetica,sans-Serif" font-size="10.00">utility</text>
</a>
</g>
</g>
<!-- Node20&#45;&gt;Node23 -->
<g id="edge27" class="edge"><title>Node20&#45;&gt;Node23</title>
<path fill="none" stroke="midnightblue" d="M857.656,-114.73C890.725,-106.851 949.039,-92.6253 1007.92,-76.196"/>
<polygon fill="midnightblue" stroke="midnightblue" points="1009.08,-79.5071 1017.76,-73.4324 1007.19,-72.7681 1009.08,-79.5071"/>
</g>
<!-- Node24&#45;&gt;Node4 -->
<g id="edge33" class="edge"><title>Node24&#45;&gt;Node4</title>
<path fill="none" stroke="midnightblue" d="M444.638,-113.605C471.406,-104.456 517.238,-88.7922 548.304,-78.1745"/>
<polygon fill="midnightblue" stroke="midnightblue" points="549.498,-81.4652 557.829,-74.9192 547.235,-74.8414 549.498,-81.4652"/>
</g>
<!-- Node24&#45;&gt;Node5 -->
<g id="edge35" class="edge"><title>Node24&#45;&gt;Node5</title>
<path fill="none" stroke="midnightblue" d="M444.529,-117.54C499.543,-108.698 645.994,-85.1616 717.945,-73.5982"/>
<polygon fill="midnightblue" stroke="midnightblue" points="718.682,-77.0247 728,-71.9822 717.571,-70.1134 718.682,-77.0247"/>
</g>
<!-- Node24&#45;&gt;Node10 -->
<g id="edge34" class="edge"><title>Node24&#45;&gt;Node10</title>
<path fill="none" stroke="midnightblue" d="M423,-112.083C423,-105.006 423,-94.8611 423,-85.9865"/>
<polygon fill="midnightblue" stroke="midnightblue" points="426.5,-85.751 423,-75.7511 419.5,-85.7511 426.5,-85.751"/>
</g>
<!-- Node24&#45;&gt;Node11 -->
<g id="edge37" class="edge"><title>Node24&#45;&gt;Node11</title>
<path fill="none" stroke="midnightblue" d="M436.817,-112.324C450.233,-103.9 470.824,-90.9709 486.586,-81.0741"/>
<polygon fill="midnightblue" stroke="midnightblue" points="488.609,-83.9364 495.217,-75.6545 484.887,-78.0081 488.609,-83.9364"/>
</g>
<!-- Node25 -->
<g id="node25" class="node"><title>Node25</title>
<g id="a_node25"><a xlink:title=" ">
<polygon fill="white" stroke="#bfbfbf" points="308,-56.5 308,-75.5 368,-75.5 368,-56.5 308,-56.5"/>
<text text-anchor="middle" x="338" y="-63.5" font-family="Helvetica,sans-Serif" font-size="10.00">fmt/core.h</text>
</a>
</g>
</g>
<!-- Node24&#45;&gt;Node25 -->
<g id="edge29" class="edge"><title>Node24&#45;&gt;Node25</title>
<path fill="none" stroke="midnightblue" d="M409.343,-112.324C396.084,-103.9 375.732,-90.9709 360.154,-81.0741"/>
<polygon fill="midnightblue" stroke="midnightblue" points="361.94,-78.0626 351.623,-75.6545 358.187,-83.9711 361.94,-78.0626"/>
</g>
<!-- Node26 -->
<g id="node26" class="node"><title>Node26</title>
<g id="a_node26"><a xlink:title=" ">
<polygon fill="white" stroke="#bfbfbf" points="56,-56.5 56,-75.5 124,-75.5 124,-56.5 56,-56.5"/>
<text text-anchor="middle" x="90" y="-63.5" font-family="Helvetica,sans-Serif" font-size="10.00">fmt/format.h</text>
</a>
</g>
</g>
<!-- Node24&#45;&gt;Node26 -->
<g id="edge30" class="edge"><title>Node24&#45;&gt;Node26</title>
<path fill="none" stroke="midnightblue" d="M401.421,-114.303C398.279,-113.454 395.069,-112.655 392,-112 281.451,-88.3989 249.247,-95.4928 134.135,-76.0844"/>
<polygon fill="midnightblue" stroke="midnightblue" points="134.675,-72.6259 124.227,-74.3835 133.491,-79.525 134.675,-72.6259"/>
</g>
<!-- Node27 -->
<g id="node27" class="node"><title>Node27</title>
<g id="a_node27"><a xlink:title=" ">
<polygon fill="white" stroke="#bfbfbf" points="0,-56.5 0,-75.5 38,-75.5 38,-56.5 0,-56.5"/>
<text text-anchor="middle" x="19" y="-63.5" font-family="Helvetica,sans-Serif" font-size="10.00">array</text>
</a>
</g>
</g>
<!-- Node24&#45;&gt;Node27 -->
<g id="edge31" class="edge"><title>Node24&#45;&gt;Node27</title>
<path fill="none" stroke="midnightblue" d="M401.441,-114.207C398.296,-113.372 395.08,-112.603 392,-112 243.955,-83.0267 199.75,-106.693 48.2736,-75.8408"/>
<polygon fill="midnightblue" stroke="midnightblue" points="48.6425,-72.3425 38.1387,-73.7286 47.2142,-79.1953 48.6425,-72.3425"/>
</g>
<!-- Node28 -->
<g id="node28" class="node"><title>Node28</title>
<g id="a_node28"><a xlink:title=" ">
<polygon fill="white" stroke="#bfbfbf" points="142,-56.5 142,-75.5 188,-75.5 188,-56.5 142,-56.5"/>
<text text-anchor="middle" x="165" y="-63.5" font-family="Helvetica,sans-Serif" font-size="10.00">chrono</text>
</a>
</g>
</g>
<!-- Node24&#45;&gt;Node28 -->
<g id="edge32" class="edge"><title>Node24&#45;&gt;Node28</title>
<path fill="none" stroke="midnightblue" d="M401.393,-114.428C398.255,-113.561 395.054,-112.723 392,-112 309.34,-92.4226 284.615,-95.6755 198.014,-76.0488"/>
<polygon fill="midnightblue" stroke="midnightblue" points="198.538,-72.5778 188.007,-73.7426 196.965,-79.399 198.538,-72.5778"/>
</g>
<!-- Node29 -->
<g id="node29" class="node"><title>Node29</title>
<g id="a_node29"><a xlink:title=" ">
<polygon fill="white" stroke="#bfbfbf" points="206.5,-56.5 206.5,-75.5 289.5,-75.5 289.5,-56.5 206.5,-56.5"/>
<text text-anchor="middle" x="248" y="-63.5" font-family="Helvetica,sans-Serif" font-size="10.00">unordered_map</text>
</a>
</g>
</g>
<!-- Node24&#45;&gt;Node29 -->
<g id="edge36" class="edge"><title>Node24&#45;&gt;Node29</title>
<path fill="none" stroke="midnightblue" d="M401.19,-114.27C372.253,-105.341 320.727,-89.4414 285.49,-78.5683"/>
<polygon fill="midnightblue" stroke="midnightblue" points="286.156,-75.1111 275.569,-75.5069 284.092,-81.7999 286.156,-75.1111"/>
</g>
<!-- Node30&#45;&gt;Node5 -->
<g id="edge39" class="edge"><title>Node30&#45;&gt;Node5</title>
<path fill="none" stroke="midnightblue" d="M743.334,-168.368C746.077,-150.617 752.406,-109.666 756.126,-85.5974"/>
<polygon fill="midnightblue" stroke="midnightblue" points="759.604,-86.0087 757.672,-75.5914 752.686,-84.9395 759.604,-86.0087"/>
</g>
</g>
</svg>
        <g id="navigator" transform="translate(0 0)" fill="#404254">
                <rect fill="#f2f5e9" fill-opacity="0.5" stroke="#606060" stroke-width=".5" x="0" y="0" width="60" height="60"/>
                <use id="zoomplus" xlink:href="#zoomPlus" x="17" y="9" onmousedown="handleZoom(evt,'in')"/>
                <use id="zoomminus" xlink:href="#zoomMin" x="42" y="9" onmousedown="handleZoom(evt,'out')"/>
                <use id="reset" xlink:href="#resetDef" x="30" y="36" onmousedown="handleReset()"/>
                <g id="arrowUp" xlink:href="#dirArrow" transform="translate(30 24)" onmousedown="handlePan(0,-1)">
                  <use xlink:href="#rim" fill="#404040">
                        <set attributeName="fill" to="#808080" begin="arrowUp.mouseover" end="arrowUp.mouseout"/>
                  </use>
                  <path fill="none" stroke="white" stroke-width="1.5" d="M0,-3.0v7 M-2.5,-0.5L0,-3.0L2.5,-0.5"/>
                </g>
                <g id="arrowRight" xlink:href="#dirArrow" transform="rotate(90) translate(36 -43)" onmousedown="handlePan(1,0)">
                  <use xlink:href="#rim" fill="#404040">
                        <set attributeName="fill" to="#808080" begin="arrowRight.mouseover" end="arrowRight.mouseout"/>
                  </use>
                  <path fill="none" stroke="white" stroke-width="1.5" d="M0,-3.0v7 M-2.5,-0.5L0,-3.0L2.5,-0.5"/>
                </g>
                <g id="arrowDown" xlink:href="#dirArrow" transform="rotate(180) translate(-30 -48)" onmousedown="handlePan(0,1)">
                  <use xlink:href="#rim" fill="#404040">
                        <set attributeName="fill" to="#808080" begin="arrowDown.mouseover" end="arrowDown.mouseout"/>
                  </use>
                  <path fill="none" stroke="white" stroke-width="1.5" d="M0,-3.0v7 M-2.5,-0.5L0,-3.0L2.5,-0.5"/>
                </g>
                <g id="arrowLeft" xlink:href="#dirArrow" transform="rotate(270) translate(-36 17)" onmousedown="handlePan(-1,0)">
                  <use xlink:href="#rim" fill="#404040">
                        <set attributeName="fill" to="#808080" begin="arrowLeft.mouseover" end="arrowLeft.mouseout"/>
                  </use>
                  <path fill="none" stroke="white" stroke-width="1.5" d="M0,-3.0v7 M-2.5,-0.5L0,-3.0L2.5,-0.5"/>
                </g>
        </g>
        <svg viewBox="0 0 15 15" width="100%" height="30px" preserveAspectRatio="xMaxYMin meet">
         <g id="arrow_out" transform="scale(0.3 0.3)">
          <a xlink:href="value_8h__incl_org.svg" target="_base">
           <rect id="button" ry="5" rx="5" y="6" x="6" height="38" width="38"
                fill="#f2f5e9" fill-opacity="0.5" stroke="#606060" stroke-width="1.0"/>
           <path id="arrow"
             d="M 11.500037,31.436501 C 11.940474,20.09759 22.043105,11.32322 32.158766,21.979434 L 37.068811,17.246167 C 37.068811,17.246167 37.088388,32 37.088388,32 L 22.160133,31.978069 C 22.160133,31.978069 26.997745,27.140456 26.997745,27.140456 C 18.528582,18.264221 13.291696,25.230495 11.500037,31.436501 z"
             style="fill:#404040;"/>
          </a>
         </g>
        </svg>
</svg>
