<?xml version="1.0" encoding="UTF-8" standalone="no"?>
<!DOCTYPE svg PUBLIC "-//W3C//DTD SVG 1.1//EN"
 "http://www.w3.org/Graphics/SVG/1.1/DTD/svg11.dtd">
<!-- Generated by graphviz version 2.38.0 (20140413.2041)
 -->
<!-- Title: C:/projects/ndt/sources/include/ndt/value.h Pages: 1 -->
<!--zoomable 263 -->
<svg id="main" version="1.1" xmlns="http://www.w3.org/2000/svg" xmlns:xlink="http://www.w3.org/1999/xlink" xml:space="preserve" onload="init(evt)">
<style type="text/css"><![CDATA[
.edge:hover path { stroke: red; }
.edge:hover polygon { stroke: red; fill: red; }
]]></style>
<script type="text/javascript"><![CDATA[
var edges = document.getElementsByTagName('g');
if (edges && edges.length) {
  for (var i=0;i<edges.length;i++) {
    if (edges[i].id.substr(0,4)=='edge') {
      edges[i].setAttribute('class','edge');
    }
  }
}
]]></script>
        <defs>
                <circle id="rim" cx="0" cy="0" r="7"/>
                <circle id="rim2" cx="0" cy="0" r="3.5"/>
                <g id="zoomPlus">
                        <use xlink:href="#rim" fill="#404040">
                                <set attributeName="fill" to="#808080" begin="zoomplus.mouseover" end="zoomplus.mouseout"/>
                        </use>
                        <path d="M-4,0h8M0,-4v8" fill="none" stroke="white" stroke-width="1.5" pointer-events="none"/>
                </g>
                <g id="zoomMin">
                        <use xlink:href="#rim" fill="#404040">
                                <set attributeName="fill" to="#808080" begin="zoomminus.mouseover" end="zoomminus.mouseout"/>
                        </use>
                        <path d="M-4,0h8" fill="none" stroke="white" stroke-width="1.5" pointer-events="none"/>
                </g>
                <g id="dirArrow">
                        <path fill="none" stroke="white" stroke-width="1.5" d="M0,-3.0v7 M-2.5,-0.5L0,-3.0L2.5,-0.5"/>
                </g>
               <g id="resetDef">
                       <use xlink:href="#rim2" fill="#404040">
                               <set attributeName="fill" to="#808080" begin="reset.mouseover" end="reset.mouseout"/>
                       </use>
               </g>
        </defs>

<script type="text/javascript">
var viewWidth = 1208;
var viewHeight = 263;
var sectionId = 'dynsection-0';
</script>
<script xlink:href="svgpan.js"/>
<svg id="graph" class="graph">
<g id="viewport">
<title>C:/projects/ndt/sources/include/ndt/value.h</title>
<polygon fill="white" stroke="none" points="-4,4 -4,-259 1204,-259 1204,4 -4,4"/>
<!-- Node1 -->
<g id="node1" class="node"><title>Node1</title>
<g id="a_node1"><a xlink:title=" ">
<polygon fill="#bfbfbf" stroke="black" points="628,-224.5 628,-254.5 746,-254.5 746,-224.5 628,-224.5"/>
<text text-anchor="start" x="636" y="-242.5" font-family="Helvetica,sans-Serif" font-size="10.00">C:/projects/ndt/sources</text>
<text text-anchor="middle" x="687" y="-231.5" font-family="Helvetica,sans-Serif" font-size="10.00">/include/ndt/value.h</text>
</a>
</g>
</g>
<!-- Node2 -->
<g id="node2" class="node"><title>Node2</title>
<g id="a_node2"><a xlink:href="bin__rw_8h.html" target="_top" xlink:title=" ">
<polygon fill="white" stroke="black" points="505.5,-168.5 505.5,-187.5 558.5,-187.5 558.5,-168.5 505.5,-168.5"/>
<text text-anchor="middle" x="532" y="-175.5" font-family="Helvetica,sans-Serif" font-size="10.00">bin_rw.h</text>
</a>
</g>
</g>
<!-- Node1&#45;&gt;Node2 -->
<g id="edge1" class="edge"><title>Node1&#45;&gt;Node2</title>
<path fill="none" stroke="midnightblue" d="M650.267,-224.399C624.029,-214.327 589.075,-200.909 563.982,-191.277"/>
<polygon fill="midnightblue" stroke="midnightblue" points="565.144,-187.974 554.554,-187.658 562.635,-194.509 565.144,-187.974"/>
</g>
<!-- Node29 -->
<g id="node29" class="node"><title>Node29</title>
<g id="a_node29"><a xlink:href="interval_8h.html" target="_top" xlink:title=" ">
<polygon fill="white" stroke="black" points="659.5,-168.5 659.5,-187.5 714.5,-187.5 714.5,-168.5 659.5,-168.5"/>
<text text-anchor="middle" x="687" y="-175.5" font-family="Helvetica,sans-Serif" font-size="10.00">interval.h</text>
</a>
</g>
</g>
<!-- Node1&#45;&gt;Node29 -->
<g id="edge37" class="edge"><title>Node1&#45;&gt;Node29</title>
<path fill="none" stroke="midnightblue" d="M687,-224.399C687,-216.466 687,-206.458 687,-197.858"/>
<polygon fill="midnightblue" stroke="midnightblue" points="690.5,-197.658 687,-187.658 683.5,-197.658 690.5,-197.658"/>
</g>
<!-- Node30 -->
<g id="node30" class="node"><title>Node30</title>
<g id="a_node30"><a xlink:href="tag_8h.html" target="_top" xlink:title=" ">
<polygon fill="white" stroke="black" points="733,-168.5 733,-187.5 771,-187.5 771,-168.5 733,-168.5"/>
<text text-anchor="middle" x="752" y="-175.5" font-family="Helvetica,sans-Serif" font-size="10.00">tag.h</text>
</a>
</g>
</g>
<!-- Node1&#45;&gt;Node30 -->
<g id="edge39" class="edge"><title>Node1&#45;&gt;Node30</title>
<path fill="none" stroke="midnightblue" d="M702.404,-224.399C712.239,-215.397 724.993,-203.721 735.105,-194.465"/>
<polygon fill="midnightblue" stroke="midnightblue" points="737.529,-196.992 742.542,-187.658 732.802,-191.828 737.529,-196.992"/>
</g>
<!-- Node3 -->
<g id="node3" class="node"><title>Node3</title>
<g id="a_node3"><a xlink:title=" ">
<polygon fill="white" stroke="#bfbfbf" points="436,-112.5 436,-131.5 492,-131.5 492,-112.5 436,-112.5"/>
<text text-anchor="middle" x="464" y="-119.5" font-family="Helvetica,sans-Serif" font-size="10.00">algorithm</text>
</a>
</g>
</g>
<!-- Node2&#45;&gt;Node3 -->
<g id="edge2" class="edge"><title>Node2&#45;&gt;Node3</title>
<path fill="none" stroke="midnightblue" d="M521.075,-168.324C510.825,-160.185 495.279,-147.839 482.999,-138.087"/>
<polygon fill="midnightblue" stroke="midnightblue" points="485.132,-135.312 475.124,-131.834 480.779,-140.794 485.132,-135.312"/>
</g>
<!-- Node4 -->
<g id="node4" class="node"><title>Node4</title>
<g id="a_node4"><a xlink:title=" ">
<polygon fill="white" stroke="#bfbfbf" points="206,-56.5 206,-75.5 252,-75.5 252,-56.5 206,-56.5"/>
<text text-anchor="middle" x="229" y="-63.5" font-family="Helvetica,sans-Serif" font-size="10.00">cstring</text>
</a>
</g>
</g>
<!-- Node2&#45;&gt;Node4 -->
<g id="edge3" class="edge"><title>Node2&#45;&gt;Node4</title>
<path fill="none" stroke="midnightblue" d="M505.386,-173.874C466.389,-168.657 391.958,-156.269 333,-132 301.242,-118.927 268.217,-96.5241 248.129,-81.7376"/>
<polygon fill="midnightblue" stroke="midnightblue" points="249.962,-78.7374 239.861,-75.5407 245.764,-84.3388 249.962,-78.7374"/>
</g>
<!-- Node5 -->
<g id="node5" class="node"><title>Node5</title>
<g id="a_node5"><a xlink:title=" ">
<polygon fill="white" stroke="#bfbfbf" points="720,-56.5 720,-75.5 782,-75.5 782,-56.5 720,-56.5"/>
<text text-anchor="middle" x="751" y="-63.5" font-family="Helvetica,sans-Serif" font-size="10.00">type_traits</text>
</a>
</g>
</g>
<!-- Node2&#45;&gt;Node5 -->
<g id="edge4" class="edge"><title>Node2&#45;&gt;Node5</title>
<path fill="none" stroke="midnightblue" d="M549.185,-168.368C587.325,-149.211 679.257,-103.036 724.686,-80.2172"/>
<polygon fill="midnightblue" stroke="midnightblue" points="726.53,-83.2076 733.895,-75.5914 723.388,-76.9523 726.53,-83.2076"/>
</g>
<!-- Node6 -->
<g id="node6" class="node"><title>Node6</title>
<g id="a_node6"><a xlink:href="buffer_8h.html" target="_top" xlink:title=" ">
<polygon fill="white" stroke="black" points="813,-112.5 813,-131.5 861,-131.5 861,-112.5 813,-112.5"/>
<text text-anchor="middle" x="837" y="-119.5" font-family="Helvetica,sans-Serif" font-size="10.00">buffer.h</text>
</a>
</g>
</g>
<!-- Node2&#45;&gt;Node6 -->
<g id="edge5" class="edge"><title>Node2&#45;&gt;Node6</title>
<path fill="none" stroke="midnightblue" d="M558.533,-172.302C613.883,-162.503 741.595,-139.891 802.922,-129.033"/>
<polygon fill="midnightblue" stroke="midnightblue" points="803.635,-132.462 812.872,-127.272 802.415,-125.569 803.635,-132.462"/>
</g>
<!-- Node20 -->
<g id="node20" class="node"><title>Node20</title>
<g id="a_node20"><a xlink:href="endian_8h.html" target="_top" xlink:title=" ">
<polygon fill="white" stroke="black" points="342.5,-112.5 342.5,-131.5 395.5,-131.5 395.5,-112.5 342.5,-112.5"/>
<text text-anchor="middle" x="369" y="-119.5" font-family="Helvetica,sans-Serif" font-size="10.00">endian.h</text>
</a>
</g>
</g>
<!-- Node2&#45;&gt;Node20 -->
<g id="edge21" class="edge"><title>Node2&#45;&gt;Node20</title>
<path fill="none" stroke="midnightblue" d="M506.172,-168.444C478.751,-159.359 435.223,-144.939 404.568,-134.783"/>
<polygon fill="midnightblue" stroke="midnightblue" points="405.3,-131.339 394.707,-131.516 403.099,-137.984 405.3,-131.339"/>
</g>
<!-- Node23 -->
<g id="node23" class="node"><title>Node23</title>
<g id="a_node23"><a xlink:href="utils_8h.html" target="_top" xlink:title=" ">
<polygon fill="white" stroke="black" points="510.5,-112.5 510.5,-131.5 553.5,-131.5 553.5,-112.5 510.5,-112.5"/>
<text text-anchor="middle" x="532" y="-119.5" font-family="Helvetica,sans-Serif" font-size="10.00">utils.h</text>
</a>
</g>
</g>
<!-- Node2&#45;&gt;Node23 -->
<g id="edge27" class="edge"><title>Node2&#45;&gt;Node23</title>
<path fill="none" stroke="midnightblue" d="M532,-168.083C532,-161.006 532,-150.861 532,-141.986"/>
<polygon fill="midnightblue" stroke="midnightblue" points="535.5,-141.751 532,-131.751 528.5,-141.751 535.5,-141.751"/>
</g>
<!-- Node6&#45;&gt;Node5 -->
<g id="edge10" class="edge"><title>Node6&#45;&gt;Node5</title>
<path fill="none" stroke="midnightblue" d="M823.183,-112.324C809.767,-103.9 789.176,-90.9709 773.414,-81.0741"/>
<polygon fill="midnightblue" stroke="midnightblue" points="775.113,-78.0081 764.783,-75.6545 771.391,-83.9364 775.113,-78.0081"/>
</g>
<!-- Node7 -->
<g id="node7" class="node"><title>Node7</title>
<g id="a_node7"><a xlink:title=" ">
<polygon fill="white" stroke="#bfbfbf" points="972.5,-56.5 972.5,-75.5 1021.5,-75.5 1021.5,-56.5 972.5,-56.5"/>
<text text-anchor="middle" x="997" y="-63.5" font-family="Helvetica,sans-Serif" font-size="10.00">cassert</text>
</a>
</g>
</g>
<!-- Node6&#45;&gt;Node7 -->
<g id="edge6" class="edge"><title>Node6&#45;&gt;Node7</title>
<path fill="none" stroke="midnightblue" d="M861.301,-112.799C888.319,-103.68 932.165,-88.8819 962.678,-78.5838"/>
<polygon fill="midnightblue" stroke="midnightblue" points="964.115,-81.7927 972.471,-75.2786 961.877,-75.1602 964.115,-81.7927"/>
</g>
<!-- Node8 -->
<g id="node8" class="node"><title>Node8</title>
<g id="a_node8"><a xlink:title=" ">
<polygon fill="white" stroke="#bfbfbf" points="1152,-0.5 1152,-19.5 1200,-19.5 1200,-0.5 1152,-0.5"/>
<text text-anchor="middle" x="1176" y="-7.5" font-family="Helvetica,sans-Serif" font-size="10.00">cstddef</text>
</a>
</g>
</g>
<!-- Node6&#45;&gt;Node8 -->
<g id="edge7" class="edge"><title>Node6&#45;&gt;Node8</title>
<path fill="none" stroke="midnightblue" d="M861.004,-116.979C898.067,-110.428 971.198,-96.1285 1031,-76 1074.03,-61.5152 1121.67,-38.7867 1150.2,-24.4027"/>
<polygon fill="midnightblue" stroke="midnightblue" points="1152.14,-27.3462 1159.46,-19.6901 1148.96,-21.1082 1152.14,-27.3462"/>
</g>
<!-- Node9 -->
<g id="node9" class="node"><title>Node9</title>
<g id="a_node9"><a xlink:title=" ">
<polygon fill="white" stroke="#bfbfbf" points="554,-56.5 554,-75.5 600,-75.5 600,-56.5 554,-56.5"/>
<text text-anchor="middle" x="577" y="-63.5" font-family="Helvetica,sans-Serif" font-size="10.00">cstdint</text>
</a>
</g>
</g>
<!-- Node6&#45;&gt;Node9 -->
<g id="edge8" class="edge"><title>Node6&#45;&gt;Node9</title>
<path fill="none" stroke="midnightblue" d="M812.902,-116.892C772.868,-109.93 689.947,-94.9243 610.223,-76.1391"/>
<polygon fill="midnightblue" stroke="midnightblue" points="610.554,-72.62 600.015,-73.7084 608.932,-79.4296 610.554,-72.62"/>
</g>
<!-- Node10 -->
<g id="node10" class="node"><title>Node10</title>
<g id="a_node10"><a xlink:title=" ">
<polygon fill="white" stroke="#bfbfbf" points="800,-56.5 800,-75.5 874,-75.5 874,-56.5 800,-56.5"/>
<text text-anchor="middle" x="837" y="-63.5" font-family="Helvetica,sans-Serif" font-size="10.00">system_error</text>
</a>
</g>
</g>
<!-- Node6&#45;&gt;Node10 -->
<g id="edge9" class="edge"><title>Node6&#45;&gt;Node10</title>
<path fill="none" stroke="midnightblue" d="M837,-112.083C837,-105.006 837,-94.8611 837,-85.9865"/>
<polygon fill="midnightblue" stroke="midnightblue" points="840.5,-85.751 837,-75.7511 833.5,-85.7511 840.5,-85.751"/>
</g>
<!-- Node11 -->
<g id="node11" class="node"><title>Node11</title>
<g id="a_node11"><a xlink:href="common_8h.html" target="_top" xlink:title="Header with typedefs to make type designation platform independent.">
<polygon fill="white" stroke="black" points="892,-56.5 892,-75.5 954,-75.5 954,-56.5 892,-56.5"/>
<text text-anchor="middle" x="923" y="-63.5" font-family="Helvetica,sans-Serif" font-size="10.00">common.h</text>
</a>
</g>
</g>
<!-- Node6&#45;&gt;Node11 -->
<g id="edge11" class="edge"><title>Node6&#45;&gt;Node11</title>
<path fill="none" stroke="midnightblue" d="M850.817,-112.324C864.233,-103.9 884.824,-90.9709 900.586,-81.0741"/>
<polygon fill="midnightblue" stroke="midnightblue" points="902.609,-83.9364 909.217,-75.6545 898.887,-78.0081 902.609,-83.9364"/>
</g>
<!-- Node11&#45;&gt;Node8 -->
<g id="edge20" class="edge"><title>Node11&#45;&gt;Node8</title>
<path fill="none" stroke="midnightblue" d="M954.327,-58.0639C957.592,-57.3588 960.862,-56.6599 964,-56 1040.31,-39.9523 1062.33,-38.759 1141.9,-20.1357"/>
<polygon fill="midnightblue" stroke="midnightblue" points="1142.97,-23.4798 1151.9,-17.7759 1141.36,-16.6671 1142.97,-23.4798"/>
</g>
<!-- Node12 -->
<g id="node12" class="node"><title>Node12</title>
<g id="a_node12"><a xlink:title=" ">
<polygon fill="white" stroke="#bfbfbf" points="1006,-0.5 1006,-19.5 1068,-19.5 1068,-0.5 1006,-0.5"/>
<text text-anchor="middle" x="1037" y="-7.5" font-family="Helvetica,sans-Serif" font-size="10.00">arpa/inet.h</text>
</a>
</g>
</g>
<!-- Node11&#45;&gt;Node12 -->
<g id="edge12" class="edge"><title>Node11&#45;&gt;Node12</title>
<path fill="none" stroke="midnightblue" d="M941.064,-56.4435C959.575,-47.6751 988.581,-33.9355 1009.86,-23.8579"/>
<polygon fill="midnightblue" stroke="midnightblue" points="1011.48,-26.9604 1019.02,-19.5164 1008.49,-20.6343 1011.48,-26.9604"/>
</g>
<!-- Node13 -->
<g id="node13" class="node"><title>Node13</title>
<g id="a_node13"><a xlink:title=" ">
<polygon fill="white" stroke="#bfbfbf" points="1086.5,-0.5 1086.5,-19.5 1133.5,-19.5 1133.5,-0.5 1086.5,-0.5"/>
<text text-anchor="middle" x="1110" y="-7.5" font-family="Helvetica,sans-Serif" font-size="10.00">errno.h</text>
</a>
</g>
</g>
<!-- Node11&#45;&gt;Node13 -->
<g id="edge13" class="edge"><title>Node11&#45;&gt;Node13</title>
<path fill="none" stroke="midnightblue" d="M952.631,-56.4435C986.375,-46.6993 1041.38,-30.8158 1076.61,-20.6414"/>
<polygon fill="midnightblue" stroke="midnightblue" points="1077.79,-23.9437 1086.43,-17.8067 1075.85,-17.2185 1077.79,-23.9437"/>
</g>
<!-- Node14 -->
<g id="node14" class="node"><title>Node14</title>
<g id="a_node14"><a xlink:title=" ">
<polygon fill="white" stroke="#bfbfbf" points="547.5,-0.5 547.5,-19.5 590.5,-19.5 590.5,-0.5 547.5,-0.5"/>
<text text-anchor="middle" x="569" y="-7.5" font-family="Helvetica,sans-Serif" font-size="10.00">fcntl.h</text>
</a>
</g>
</g>
<!-- Node11&#45;&gt;Node14 -->
<g id="edge14" class="edge"><title>Node11&#45;&gt;Node14</title>
<path fill="none" stroke="midnightblue" d="M891.614,-57.6415C888.709,-57.0501 885.804,-56.4921 883,-56 760.864,-34.5689 725.266,-45.7646 600.459,-20.0098"/>
<polygon fill="midnightblue" stroke="midnightblue" points="601.026,-16.5525 590.52,-17.9204 599.586,-23.4028 601.026,-16.5525"/>
</g>
<!-- Node15 -->
<g id="node15" class="node"><title>Node15</title>
<g id="a_node15"><a xlink:title=" ">
<polygon fill="white" stroke="#bfbfbf" points="608.5,-0.5 608.5,-19.5 657.5,-19.5 657.5,-0.5 608.5,-0.5"/>
<text text-anchor="middle" x="633" y="-7.5" font-family="Helvetica,sans-Serif" font-size="10.00">netdb.h</text>
</a>
</g>
</g>
<!-- Node11&#45;&gt;Node15 -->
<g id="edge15" class="edge"><title>Node11&#45;&gt;Node15</title>
<path fill="none" stroke="midnightblue" d="M891.593,-57.756C888.692,-57.1406 885.794,-56.5457 883,-56 790.142,-37.8662 763.225,-40.6781 667.587,-20.1812"/>
<polygon fill="midnightblue" stroke="midnightblue" points="668.314,-16.7577 657.799,-18.0544 666.828,-23.598 668.314,-16.7577"/>
</g>
<!-- Node16 -->
<g id="node16" class="node"><title>Node16</title>
<g id="a_node16"><a xlink:title=" ">
<polygon fill="white" stroke="#bfbfbf" points="675.5,-0.5 675.5,-19.5 740.5,-19.5 740.5,-0.5 675.5,-0.5"/>
<text text-anchor="middle" x="708" y="-7.5" font-family="Helvetica,sans-Serif" font-size="10.00">netinet/in.h</text>
</a>
</g>
</g>
<!-- Node11&#45;&gt;Node16 -->
<g id="edge16" class="edge"><title>Node11&#45;&gt;Node16</title>
<path fill="none" stroke="midnightblue" d="M891.737,-57.1479C854.51,-47.7979 792.152,-32.1359 750.552,-21.6874"/>
<polygon fill="midnightblue" stroke="midnightblue" points="751.262,-18.2571 740.71,-19.2157 749.557,-25.0463 751.262,-18.2571"/>
</g>
<!-- Node17 -->
<g id="node17" class="node"><title>Node17</title>
<g id="a_node17"><a xlink:title=" ">
<polygon fill="white" stroke="#bfbfbf" points="758.5,-0.5 758.5,-19.5 831.5,-19.5 831.5,-0.5 758.5,-0.5"/>
<text text-anchor="middle" x="795" y="-7.5" font-family="Helvetica,sans-Serif" font-size="10.00">sys/socket.h</text>
</a>
</g>
</g>
<!-- Node11&#45;&gt;Node17 -->
<g id="edge17" class="edge"><title>Node11&#45;&gt;Node17</title>
<path fill="none" stroke="midnightblue" d="M902.718,-56.4435C881.653,-47.5566 848.483,-33.5632 824.514,-23.4514"/>
<polygon fill="midnightblue" stroke="midnightblue" points="825.761,-20.1787 815.187,-19.5164 823.04,-26.6283 825.761,-20.1787"/>
</g>
<!-- Node18 -->
<g id="node18" class="node"><title>Node18</title>
<g id="a_node18"><a xlink:title=" ">
<polygon fill="white" stroke="#bfbfbf" points="850,-0.5 850,-19.5 918,-19.5 918,-0.5 850,-0.5"/>
<text text-anchor="middle" x="884" y="-7.5" font-family="Helvetica,sans-Serif" font-size="10.00">sys/types.h</text>
</a>
</g>
</g>
<!-- Node11&#45;&gt;Node18 -->
<g id="edge18" class="edge"><title>Node11&#45;&gt;Node18</title>
<path fill="none" stroke="midnightblue" d="M916.56,-56.083C911.051,-48.4554 902.969,-37.2645 896.235,-27.9408"/>
<polygon fill="midnightblue" stroke="midnightblue" points="899.013,-25.8087 890.32,-19.7511 893.338,-29.9071 899.013,-25.8087"/>
</g>
<!-- Node19 -->
<g id="node19" class="node"><title>Node19</title>
<g id="a_node19"><a xlink:title=" ">
<polygon fill="white" stroke="#bfbfbf" points="936.5,-0.5 936.5,-19.5 987.5,-19.5 987.5,-0.5 936.5,-0.5"/>
<text text-anchor="middle" x="962" y="-7.5" font-family="Helvetica,sans-Serif" font-size="10.00">unistd.h</text>
</a>
</g>
</g>
<!-- Node11&#45;&gt;Node19 -->
<g id="edge19" class="edge"><title>Node11&#45;&gt;Node19</title>
<path fill="none" stroke="midnightblue" d="M929.44,-56.083C934.949,-48.4554 943.031,-37.2645 949.765,-27.9408"/>
<polygon fill="midnightblue" stroke="midnightblue" points="952.662,-29.9071 955.68,-19.7511 946.987,-25.8087 952.662,-29.9071"/>
</g>
<!-- Node20&#45;&gt;Node4 -->
<g id="edge23" class="edge"><title>Node20&#45;&gt;Node4</title>
<path fill="none" stroke="midnightblue" d="M346.817,-112.444C323.572,-103.478 286.851,-89.314 260.585,-79.1827"/>
<polygon fill="midnightblue" stroke="midnightblue" points="261.669,-75.8497 251.08,-75.5164 259.15,-82.3807 261.669,-75.8497"/>
</g>
<!-- Node20&#45;&gt;Node5 -->
<g id="edge25" class="edge"><title>Node20&#45;&gt;Node5</title>
<path fill="none" stroke="midnightblue" d="M395.541,-116.725C405.41,-115.177 416.708,-113.453 427,-112 549.359,-94.7274 583.353,-97.4583 709.655,-75.904"/>
<polygon fill="midnightblue" stroke="midnightblue" points="710.458,-79.3174 719.718,-74.1692 709.268,-72.4192 710.458,-79.3174"/>
</g>
<!-- Node20&#45;&gt;Node9 -->
<g id="edge22" class="edge"><title>Node20&#45;&gt;Node9</title>
<path fill="none" stroke="midnightblue" d="M395.589,-114.412C428.277,-106.266 485.683,-91.8145 544.172,-76.1766"/>
<polygon fill="midnightblue" stroke="midnightblue" points="545.194,-79.5261 553.946,-73.5547 543.381,-72.7651 545.194,-79.5261"/>
</g>
<!-- Node21 -->
<g id="node21" class="node"><title>Node21</title>
<g id="a_node21"><a xlink:title=" ">
<polygon fill="white" stroke="#bfbfbf" points="124,-56.5 124,-75.5 188,-75.5 188,-56.5 124,-56.5"/>
<text text-anchor="middle" x="156" y="-63.5" font-family="Helvetica,sans-Serif" font-size="10.00">string_view</text>
</a>
</g>
</g>
<!-- Node20&#45;&gt;Node21 -->
<g id="edge24" class="edge"><title>Node20&#45;&gt;Node21</title>
<path fill="none" stroke="midnightblue" d="M342.454,-114.27C306.216,-105.083 240.872,-88.5168 197.964,-77.6388"/>
<polygon fill="midnightblue" stroke="midnightblue" points="198.657,-74.2038 188.104,-75.1389 196.937,-80.9891 198.657,-74.2038"/>
</g>
<!-- Node22 -->
<g id="node22" class="node"><title>Node22</title>
<g id="a_node22"><a xlink:href="useful__base__types_8h.html" target="_top" xlink:title=" ">
<polygon fill="white" stroke="black" points="0,-56.5 0,-75.5 106,-75.5 106,-56.5 0,-56.5"/>
<text text-anchor="middle" x="53" y="-63.5" font-family="Helvetica,sans-Serif" font-size="10.00">useful_base_types.h</text>
</a>
</g>
</g>
<!-- Node20&#45;&gt;Node22 -->
<g id="edge26" class="edge"><title>Node20&#45;&gt;Node22</title>
<path fill="none" stroke="midnightblue" d="M342.33,-116.443C292.016,-107.845 181.963,-89.0379 113.023,-77.2571"/>
<polygon fill="midnightblue" stroke="midnightblue" points="113.191,-73.7352 102.745,-75.5007 112.012,-80.6352 113.191,-73.7352"/>
</g>
<!-- Node23&#45;&gt;Node4 -->
<g id="edge32" class="edge"><title>Node23&#45;&gt;Node4</title>
<path fill="none" stroke="midnightblue" d="M510.414,-114.334C507.273,-113.48 504.066,-112.672 501,-112 398.727,-89.5886 368.231,-98.1036 262.15,-76.0128"/>
<polygon fill="midnightblue" stroke="midnightblue" points="262.843,-72.5821 252.334,-73.9273 261.389,-79.4292 262.843,-72.5821"/>
</g>
<!-- Node23&#45;&gt;Node5 -->
<g id="edge34" class="edge"><title>Node23&#45;&gt;Node5</title>
<path fill="none" stroke="midnightblue" d="M553.799,-115.625C590.186,-106.653 663.86,-88.4867 710.134,-77.0766"/>
<polygon fill="midnightblue" stroke="midnightblue" points="710.98,-80.4728 719.852,-74.6804 709.304,-73.6763 710.98,-80.4728"/>
</g>
<!-- Node23&#45;&gt;Node10 -->
<g id="edge33" class="edge"><title>Node23&#45;&gt;Node10</title>
<path fill="none" stroke="midnightblue" d="M553.517,-117.42C596.427,-110.247 695.922,-93.4463 789.902,-76.1727"/>
<polygon fill="midnightblue" stroke="midnightblue" points="790.656,-79.5926 799.856,-74.3374 789.387,-72.7087 790.656,-79.5926"/>
</g>
<!-- Node23&#45;&gt;Node11 -->
<g id="edge36" class="edge"><title>Node23&#45;&gt;Node11</title>
<path fill="none" stroke="midnightblue" d="M553.878,-118.916C607.83,-113.625 751.711,-98.5916 881.5,-76.1252"/>
<polygon fill="midnightblue" stroke="midnightblue" points="882.367,-79.5268 891.613,-74.3543 881.159,-72.6317 882.367,-79.5268"/>
</g>
<!-- Node24 -->
<g id="node24" class="node"><title>Node24</title>
<g id="a_node24"><a xlink:title=" ">
<polygon fill="white" stroke="#bfbfbf" points="270,-56.5 270,-75.5 330,-75.5 330,-56.5 270,-56.5"/>
<text text-anchor="middle" x="300" y="-63.5" font-family="Helvetica,sans-Serif" font-size="10.00">fmt/core.h</text>
</a>
</g>
</g>
<!-- Node23&#45;&gt;Node24 -->
<g id="edge28" class="edge"><title>Node23&#45;&gt;Node24</title>
<path fill="none" stroke="midnightblue" d="M510.368,-114.529C507.234,-113.647 504.04,-112.778 501,-112 432.618,-94.4946 412.632,-92.4454 340.297,-76.2683"/>
<polygon fill="midnightblue" stroke="midnightblue" points="340.753,-72.7834 330.228,-74.0012 339.215,-79.6124 340.753,-72.7834"/>
</g>
<!-- Node25 -->
<g id="node25" class="node"><title>Node25</title>
<g id="a_node25"><a xlink:title=" ">
<polygon fill="white" stroke="#bfbfbf" points="348,-56.5 348,-75.5 416,-75.5 416,-56.5 348,-56.5"/>
<text text-anchor="middle" x="382" y="-63.5" font-family="Helvetica,sans-Serif" font-size="10.00">fmt/format.h</text>
</a>
</g>
</g>
<!-- Node23&#45;&gt;Node25 -->
<g id="edge29" class="edge"><title>Node23&#45;&gt;Node25</title>
<path fill="none" stroke="midnightblue" d="M510.189,-113.148C485.331,-104.199 444.412,-89.4683 415.501,-79.0602"/>
<polygon fill="midnightblue" stroke="midnightblue" points="416.415,-75.6697 405.821,-75.5756 414.044,-82.2559 416.415,-75.6697"/>
</g>
<!-- Node26 -->
<g id="node26" class="node"><title>Node26</title>
<g id="a_node26"><a xlink:title=" ">
<polygon fill="white" stroke="#bfbfbf" points="434,-56.5 434,-75.5 472,-75.5 472,-56.5 434,-56.5"/>
<text text-anchor="middle" x="453" y="-63.5" font-family="Helvetica,sans-Serif" font-size="10.00">array</text>
</a>
</g>
</g>
<!-- Node23&#45;&gt;Node26 -->
<g id="edge30" class="edge"><title>Node23&#45;&gt;Node26</title>
<path fill="none" stroke="midnightblue" d="M519.307,-112.324C507.099,-103.979 488.422,-91.2122 473.997,-81.3524"/>
<polygon fill="midnightblue" stroke="midnightblue" points="475.892,-78.4082 465.661,-75.6545 471.942,-84.1871 475.892,-78.4082"/>
</g>
<!-- Node27 -->
<g id="node27" class="node"><title>Node27</title>
<g id="a_node27"><a xlink:title=" ">
<polygon fill="white" stroke="#bfbfbf" points="490,-56.5 490,-75.5 536,-75.5 536,-56.5 490,-56.5"/>
<text text-anchor="middle" x="513" y="-63.5" font-family="Helvetica,sans-Serif" font-size="10.00">chrono</text>
</a>
</g>
</g>
<!-- Node23&#45;&gt;Node27 -->
<g id="edge31" class="edge"><title>Node23&#45;&gt;Node27</title>
<path fill="none" stroke="midnightblue" d="M528.863,-112.083C526.317,-104.849 522.644,-94.4087 519.473,-85.3968"/>
<polygon fill="midnightblue" stroke="midnightblue" points="522.7,-84.0225 516.079,-75.7511 516.097,-86.3459 522.7,-84.0225"/>
</g>
<!-- Node28 -->
<g id="node28" class="node"><title>Node28</title>
<g id="a_node28"><a xlink:title=" ">
<polygon fill="white" stroke="#bfbfbf" points="618.5,-56.5 618.5,-75.5 701.5,-75.5 701.5,-56.5 618.5,-56.5"/>
<text text-anchor="middle" x="660" y="-63.5" font-family="Helvetica,sans-Serif" font-size="10.00">unordered_map</text>
</a>
</g>
</g>
<!-- Node23&#45;&gt;Node28 -->
<g id="edge35" class="edge"><title>Node23&#45;&gt;Node28</title>
<path fill="none" stroke="midnightblue" d="M552.282,-112.444C573.347,-103.557 606.517,-89.5632 630.486,-79.4514"/>
<polygon fill="midnightblue" stroke="midnightblue" points="631.96,-82.6283 639.813,-75.5164 629.239,-76.1787 631.96,-82.6283"/>
</g>
<!-- Node29&#45;&gt;Node5 -->
<g id="edge38" class="edge"><title>Node29&#45;&gt;Node5</title>
<path fill="none" stroke="midnightblue" d="M692.022,-168.368C702.537,-150.296 727.043,-108.176 740.93,-84.3074"/>
<polygon fill="midnightblue" stroke="midnightblue" points="743.998,-85.9951 746.001,-75.5914 737.947,-82.4748 743.998,-85.9951"/>
</g>
</g>
</svg>
        <g id="navigator" transform="translate(0 0)" fill="#404254">
                <rect fill="#f2f5e9" fill-opacity="0.5" stroke="#606060" stroke-width=".5" x="0" y="0" width="60" height="60"/>
                <use id="zoomplus" xlink:href="#zoomPlus" x="17" y="9" onmousedown="handleZoom(evt,'in')"/>
                <use id="zoomminus" xlink:href="#zoomMin" x="42" y="9" onmousedown="handleZoom(evt,'out')"/>
                <use id="reset" xlink:href="#resetDef" x="30" y="36" onmousedown="handleReset()"/>
                <g id="arrowUp" xlink:href="#dirArrow" transform="translate(30 24)" onmousedown="handlePan(0,-1)">
                  <use xlink:href="#rim" fill="#404040">
                        <set attributeName="fill" to="#808080" begin="arrowUp.mouseover" end="arrowUp.mouseout"/>
                  </use>
                  <path fill="none" stroke="white" stroke-width="1.5" d="M0,-3.0v7 M-2.5,-0.5L0,-3.0L2.5,-0.5"/>
                </g>
                <g id="arrowRight" xlink:href="#dirArrow" transform="rotate(90) translate(36 -43)" onmousedown="handlePan(1,0)">
                  <use xlink:href="#rim" fill="#404040">
                        <set attributeName="fill" to="#808080" begin="arrowRight.mouseover" end="arrowRight.mouseout"/>
                  </use>
                  <path fill="none" stroke="white" stroke-width="1.5" d="M0,-3.0v7 M-2.5,-0.5L0,-3.0L2.5,-0.5"/>
                </g>
                <g id="arrowDown" xlink:href="#dirArrow" transform="rotate(180) translate(-30 -48)" onmousedown="handlePan(0,1)">
                  <use xlink:href="#rim" fill="#404040">
                        <set attributeName="fill" to="#808080" begin="arrowDown.mouseover" end="arrowDown.mouseout"/>
                  </use>
                  <path fill="none" stroke="white" stroke-width="1.5" d="M0,-3.0v7 M-2.5,-0.5L0,-3.0L2.5,-0.5"/>
                </g>
                <g id="arrowLeft" xlink:href="#dirArrow" transform="rotate(270) translate(-36 17)" onmousedown="handlePan(-1,0)">
                  <use xlink:href="#rim" fill="#404040">
                        <set attributeName="fill" to="#808080" begin="arrowLeft.mouseover" end="arrowLeft.mouseout"/>
                  </use>
                  <path fill="none" stroke="white" stroke-width="1.5" d="M0,-3.0v7 M-2.5,-0.5L0,-3.0L2.5,-0.5"/>
                </g>
        </g>
        <svg viewBox="0 0 15 15" width="100%" height="30px" preserveAspectRatio="xMaxYMin meet">
         <g id="arrow_out" transform="scale(0.3 0.3)">
          <a xlink:href="value_8h__incl_org.svg" target="_base">
           <rect id="button" ry="5" rx="5" y="6" x="6" height="38" width="38"
                fill="#f2f5e9" fill-opacity="0.5" stroke="#606060" stroke-width="1.0"/>
           <path id="arrow"
             d="M 11.500037,31.436501 C 11.940474,20.09759 22.043105,11.32322 32.158766,21.979434 L 37.068811,17.246167 C 37.068811,17.246167 37.088388,32 37.088388,32 L 22.160133,31.978069 C 22.160133,31.978069 26.997745,27.140456 26.997745,27.140456 C 18.528582,18.264221 13.291696,25.230495 11.500037,31.436501 z"
             style="fill:#404040;"/>
          </a>
         </g>
        </svg>
</svg>
