<?xml version="1.0" encoding="UTF-8" standalone="no"?>
<!DOCTYPE svg PUBLIC "-//W3C//DTD SVG 1.1//EN"
 "http://www.w3.org/Graphics/SVG/1.1/DTD/svg11.dtd">
<!-- Generated by graphviz version 2.38.0 (20140413.2041)
 -->
<!-- Title: C:/projects/ndt/build/deps/ndt_version/include/ndt/version.h Pages: 1 -->
<svg width="140pt" height="106pt"
 viewBox="0.00 0.00 140.00 106.00" xmlns="http://www.w3.org/2000/svg" xmlns:xlink="http://www.w3.org/1999/xlink">
<g id="graph0" class="graph" transform="scale(1 1) rotate(0) translate(4 102)">
<title>C:/projects/ndt/build/deps/ndt_version/include/ndt/version.h</title>
<polygon fill="white" stroke="none" points="-4,4 -4,-102 136,-102 136,4 -4,4"/>
<!-- Node1 -->
<g id="node1" class="node"><title>Node1</title>
<g id="a_node1"><a xlink:title=" ">
<polygon fill="#bfbfbf" stroke="black" points="0,-56.5 0,-97.5 126,-97.5 126,-56.5 0,-56.5"/>
<text text-anchor="start" x="8" y="-85.5" font-family="Helvetica,sans-Serif" font-size="10.00">C:/projects/ndt/build</text>
<text text-anchor="start" x="8" y="-74.5" font-family="Helvetica,sans-Serif" font-size="10.00">/deps/ndt_version/include</text>
<text text-anchor="middle" x="63" y="-63.5" font-family="Helvetica,sans-Serif" font-size="10.00">/ndt/version.h</text>
</a>
</g>
</g>
<!-- Node2 -->
<g id="node2" class="node"><title>Node2</title>
<g id="a_node2"><a xlink:title=" ">
<polygon fill="white" stroke="#bfbfbf" points="4,-0.5 4,-19.5 50,-19.5 50,-0.5 4,-0.5"/>
<text text-anchor="middle" x="27" y="-7.5" font-family="Helvetica,sans-Serif" font-size="10.00">cstdint</text>
</a>
</g>
</g>
<!-- Node1&#45;&gt;Node2 -->
<g id="edge1" class="edge"><title>Node1&#45;&gt;Node2</title>
<path fill="none" stroke="midnightblue" d="M52.1988,-56.4979C47.2631,-47.5862 41.4629,-37.1135 36.6721,-28.4636"/>
<polygon fill="midnightblue" stroke="midnightblue" points="39.699,-26.7046 31.7921,-19.6525 33.5754,-30.0962 39.699,-26.7046"/>
</g>
<!-- Node3 -->
<g id="node3" class="node"><title>Node3</title>
<g id="a_node3"><a xlink:title=" ">
<polygon fill="white" stroke="#bfbfbf" points="68,-0.5 68,-19.5 132,-19.5 132,-0.5 68,-0.5"/>
<text text-anchor="middle" x="100" y="-7.5" font-family="Helvetica,sans-Serif" font-size="10.00">string_view</text>
</a>
</g>
</g>
<!-- Node1&#45;&gt;Node3 -->
<g id="edge2" class="edge"><title>Node1&#45;&gt;Node3</title>
<path fill="none" stroke="midnightblue" d="M74.1012,-56.4979C79.174,-47.5862 85.1354,-37.1135 90.0592,-28.4636"/>
<polygon fill="midnightblue" stroke="midnightblue" points="93.1694,-30.0746 95.0747,-19.6525 87.086,-26.6117 93.1694,-30.0746"/>
</g>
</g>
</svg>
