<?xml version="1.0" encoding="UTF-8" standalone="no"?>
<!DOCTYPE svg PUBLIC "-//W3C//DTD SVG 1.1//EN"
 "http://www.w3.org/Graphics/SVG/1.1/DTD/svg11.dtd">
<!-- Generated by graphviz version 2.38.0 (20140413.2041)
 -->
<!-- Title: C:/projects/ndt/build/deps/ndt_version/include/ndt/version_info.h Pages: 1 -->
<svg width="233pt" height="162pt"
 viewBox="0.00 0.00 232.65 162.00" xmlns="http://www.w3.org/2000/svg" xmlns:xlink="http://www.w3.org/1999/xlink">
<g id="graph0" class="graph" transform="scale(1 1) rotate(0) translate(4 158)">
<title>C:/projects/ndt/build/deps/ndt_version/include/ndt/version_info.h</title>
<polygon fill="white" stroke="none" points="-4,4 -4,-158 228.652,-158 228.652,4 -4,4"/>
<!-- Node1 -->
<g id="node1" class="node"><title>Node1</title>
<g id="a_node1"><a xlink:title=" ">
<polygon fill="#bfbfbf" stroke="black" points="6.15214,-112.5 6.15214,-153.5 132.152,-153.5 132.152,-112.5 6.15214,-112.5"/>
<text text-anchor="start" x="14.1521" y="-141.5" font-family="Helvetica,sans-Serif" font-size="10.00">C:/projects/ndt/build</text>
<text text-anchor="start" x="14.1521" y="-130.5" font-family="Helvetica,sans-Serif" font-size="10.00">/deps/ndt_version/include</text>
<text text-anchor="middle" x="69.1521" y="-119.5" font-family="Helvetica,sans-Serif" font-size="10.00">/ndt/version_info.h</text>
</a>
</g>
</g>
<!-- Node2 -->
<g id="node2" class="node"><title>Node2</title>
<g id="a_node2"><a xlink:title=" ">
<polygon fill="white" stroke="#bfbfbf" points="64.1521,-0.5 64.1521,-19.5 110.152,-19.5 110.152,-0.5 64.1521,-0.5"/>
<text text-anchor="middle" x="87.1521" y="-7.5" font-family="Helvetica,sans-Serif" font-size="10.00">cstdint</text>
</a>
</g>
</g>
<!-- Node1&#45;&gt;Node2 -->
<g id="edge1" class="edge"><title>Node1&#45;&gt;Node2</title>
<path fill="none" stroke="midnightblue" d="M33.55,-112.193C12.3233,-97.6571 -8.28209,-76.8856 4.15214,-56 14.9767,-37.8181 35.9903,-26.5304 54.1643,-19.8072"/>
<polygon fill="midnightblue" stroke="midnightblue" points="55.5299,-23.0404 63.8861,-16.527 53.2919,-16.4078 55.5299,-23.0404"/>
</g>
<!-- Node3 -->
<g id="node3" class="node"><title>Node3</title>
<g id="a_node3"><a xlink:title=" ">
<polygon fill="white" stroke="#bfbfbf" points="13.6521,-56.5 13.6521,-75.5 54.6521,-75.5 54.6521,-56.5 13.6521,-56.5"/>
<text text-anchor="middle" x="34.1521" y="-63.5" font-family="Helvetica,sans-Serif" font-size="10.00">string</text>
</a>
</g>
</g>
<!-- Node1&#45;&gt;Node3 -->
<g id="edge2" class="edge"><title>Node1&#45;&gt;Node3</title>
<path fill="none" stroke="midnightblue" d="M58.651,-112.498C53.8524,-103.586 48.2132,-93.1135 43.5556,-84.4636"/>
<polygon fill="midnightblue" stroke="midnightblue" points="46.6339,-82.7978 38.8112,-75.6525 40.4706,-86.1166 46.6339,-82.7978"/>
</g>
<!-- Node4 -->
<g id="node4" class="node"><title>Node4</title>
<g id="a_node4"><a xlink:title=" ">
<polygon fill="white" stroke="#bfbfbf" points="73.1521,-56.5 73.1521,-75.5 137.152,-75.5 137.152,-56.5 73.1521,-56.5"/>
<text text-anchor="middle" x="105.152" y="-63.5" font-family="Helvetica,sans-Serif" font-size="10.00">string_view</text>
</a>
</g>
</g>
<!-- Node1&#45;&gt;Node4 -->
<g id="edge3" class="edge"><title>Node1&#45;&gt;Node4</title>
<path fill="none" stroke="midnightblue" d="M79.9533,-112.498C84.889,-103.586 90.6893,-93.1135 95.48,-84.4636"/>
<polygon fill="midnightblue" stroke="midnightblue" points="98.5767,-86.0962 100.36,-75.6525 92.4532,-82.7046 98.5767,-86.0962"/>
</g>
<!-- Node5 -->
<g id="node5" class="node"><title>Node5</title>
<g id="a_node5"><a xlink:href="build__type_8h.html" target="_top" xlink:title=" ">
<polygon fill="white" stroke="black" points="155.652,-56.5 155.652,-75.5 224.652,-75.5 224.652,-56.5 155.652,-56.5"/>
<text text-anchor="middle" x="190.152" y="-63.5" font-family="Helvetica,sans-Serif" font-size="10.00">build_type.h</text>
</a>
</g>
</g>
<!-- Node1&#45;&gt;Node5 -->
<g id="edge4" class="edge"><title>Node1&#45;&gt;Node5</title>
<path fill="none" stroke="midnightblue" d="M105.456,-112.498C124.721,-102.149 147.905,-89.6946 165.143,-80.4346"/>
<polygon fill="midnightblue" stroke="midnightblue" points="166.892,-83.4681 174.045,-75.6525 163.579,-77.3016 166.892,-83.4681"/>
</g>
<!-- Node5&#45;&gt;Node2 -->
<g id="edge5" class="edge"><title>Node5&#45;&gt;Node2</title>
<path fill="none" stroke="midnightblue" d="M173.603,-56.324C157.161,-47.7034 131.717,-34.3643 112.684,-24.3855"/>
<polygon fill="midnightblue" stroke="midnightblue" points="114.142,-21.198 103.66,-19.6545 110.891,-27.3977 114.142,-21.198"/>
</g>
</g>
</svg>
