<?xml version="1.0" encoding="UTF-8" standalone="no"?>
<!DOCTYPE svg PUBLIC "-//W3C//DTD SVG 1.1//EN"
 "http://www.w3.org/Graphics/SVG/1.1/DTD/svg11.dtd">
<!-- Generated by graphviz version 2.38.0 (20140413.2041)
 -->
<!-- Title: C:/projects/ndt/build/deps/ndt_version/src/ndt/version_info.cpp Pages: 1 -->
<svg width="426pt" height="218pt"
 viewBox="0.00 0.00 425.50 218.00" xmlns="http://www.w3.org/2000/svg" xmlns:xlink="http://www.w3.org/1999/xlink">
<g id="graph0" class="graph" transform="scale(1 1) rotate(0) translate(4 214)">
<title>C:/projects/ndt/build/deps/ndt_version/src/ndt/version_info.cpp</title>
<polygon fill="white" stroke="none" points="-4,4 -4,-214 421.5,-214 421.5,4 -4,4"/>
<!-- Node1 -->
<g id="node1" class="node"><title>Node1</title>
<g id="a_node1"><a xlink:title=" ">
<polygon fill="#bfbfbf" stroke="black" points="160,-168.5 160,-209.5 269,-209.5 269,-168.5 160,-168.5"/>
<text text-anchor="start" x="168" y="-197.5" font-family="Helvetica,sans-Serif" font-size="10.00">C:/projects/ndt/build</text>
<text text-anchor="start" x="168" y="-186.5" font-family="Helvetica,sans-Serif" font-size="10.00">/deps/ndt_version/src</text>
<text text-anchor="middle" x="214.5" y="-175.5" font-family="Helvetica,sans-Serif" font-size="10.00">/ndt/version_info.cpp</text>
</a>
</g>
</g>
<!-- Node2 -->
<g id="node2" class="node"><title>Node2</title>
<g id="a_node2"><a xlink:href="build__type_8h.html" target="_top" xlink:title=" ">
<polygon fill="white" stroke="black" points="221.5,-56.5 221.5,-75.5 307.5,-75.5 307.5,-56.5 221.5,-56.5"/>
<text text-anchor="middle" x="264.5" y="-63.5" font-family="Helvetica,sans-Serif" font-size="10.00">ndt/build_type.h</text>
</a>
</g>
</g>
<!-- Node1&#45;&gt;Node2 -->
<g id="edge1" class="edge"><title>Node1&#45;&gt;Node2</title>
<path fill="none" stroke="midnightblue" d="M246.166,-168.461C258.347,-159.089 270.906,-146.685 277.5,-132 284.262,-116.942 279.365,-98.3517 273.752,-84.9151"/>
<polygon fill="midnightblue" stroke="midnightblue" points="276.896,-83.3754 269.501,-75.7884 270.55,-86.3311 276.896,-83.3754"/>
</g>
<!-- Node4 -->
<g id="node4" class="node"><title>Node4</title>
<g id="a_node4"><a xlink:href="build__type__defs_8h.html" target="_top" xlink:title=" ">
<polygon fill="white" stroke="black" points="160,-112.5 160,-131.5 269,-131.5 269,-112.5 160,-112.5"/>
<text text-anchor="middle" x="214.5" y="-119.5" font-family="Helvetica,sans-Serif" font-size="10.00">ndt/build_type_defs.h</text>
</a>
</g>
</g>
<!-- Node1&#45;&gt;Node4 -->
<g id="edge3" class="edge"><title>Node1&#45;&gt;Node4</title>
<path fill="none" stroke="midnightblue" d="M214.5,-168.498C214.5,-160.065 214.5,-150.235 214.5,-141.874"/>
<polygon fill="midnightblue" stroke="midnightblue" points="218,-141.652 214.5,-131.652 211,-141.653 218,-141.652"/>
</g>
<!-- Node6 -->
<g id="node6" class="node"><title>Node6</title>
<g id="a_node6"><a xlink:href="git_8h.html" target="_top" xlink:title=" ">
<polygon fill="white" stroke="black" points="89.5,-112.5 89.5,-131.5 141.5,-131.5 141.5,-112.5 89.5,-112.5"/>
<text text-anchor="middle" x="115.5" y="-119.5" font-family="Helvetica,sans-Serif" font-size="10.00">ndt/git.h</text>
</a>
</g>
</g>
<!-- Node1&#45;&gt;Node6 -->
<g id="edge6" class="edge"><title>Node1&#45;&gt;Node6</title>
<path fill="none" stroke="midnightblue" d="M184.797,-168.498C169.472,-158.436 151.117,-146.385 137.148,-137.214"/>
<polygon fill="midnightblue" stroke="midnightblue" points="138.959,-134.215 128.678,-131.652 135.117,-140.067 138.959,-134.215"/>
</g>
<!-- Node7 -->
<g id="node7" class="node"><title>Node7</title>
<g id="a_node7"><a xlink:href="version_8h.html" target="_top" xlink:title=" ">
<polygon fill="white" stroke="black" points="0,-112.5 0,-131.5 71,-131.5 71,-112.5 0,-112.5"/>
<text text-anchor="middle" x="35.5" y="-119.5" font-family="Helvetica,sans-Serif" font-size="10.00">ndt/version.h</text>
</a>
</g>
</g>
<!-- Node1&#45;&gt;Node7 -->
<g id="edge8" class="edge"><title>Node1&#45;&gt;Node7</title>
<path fill="none" stroke="midnightblue" d="M160.794,-168.498C130.975,-157.67 94.8093,-144.537 69.0132,-135.17"/>
<polygon fill="midnightblue" stroke="midnightblue" points="69.9217,-131.776 59.3276,-131.652 67.5325,-138.356 69.9217,-131.776"/>
</g>
<!-- Node8 -->
<g id="node8" class="node"><title>Node8</title>
<g id="a_node8"><a xlink:href="version__info_8h.html" target="_top" xlink:title=" ">
<polygon fill="white" stroke="black" points="325.5,-112.5 325.5,-131.5 417.5,-131.5 417.5,-112.5 325.5,-112.5"/>
<text text-anchor="middle" x="371.5" y="-119.5" font-family="Helvetica,sans-Serif" font-size="10.00">ndt/version_info.h</text>
</a>
</g>
</g>
<!-- Node1&#45;&gt;Node8 -->
<g id="edge11" class="edge"><title>Node1&#45;&gt;Node8</title>
<path fill="none" stroke="midnightblue" d="M261.605,-168.498C287.412,-157.813 318.639,-144.885 341.2,-135.545"/>
<polygon fill="midnightblue" stroke="midnightblue" points="342.7,-138.712 350.601,-131.652 340.023,-132.244 342.7,-138.712"/>
</g>
<!-- Node3 -->
<g id="node3" class="node"><title>Node3</title>
<g id="a_node3"><a xlink:title=" ">
<polygon fill="white" stroke="#bfbfbf" points="241.5,-0.5 241.5,-19.5 287.5,-19.5 287.5,-0.5 241.5,-0.5"/>
<text text-anchor="middle" x="264.5" y="-7.5" font-family="Helvetica,sans-Serif" font-size="10.00">cstdint</text>
</a>
</g>
</g>
<!-- Node2&#45;&gt;Node3 -->
<g id="edge2" class="edge"><title>Node2&#45;&gt;Node3</title>
<path fill="none" stroke="midnightblue" d="M264.5,-56.083C264.5,-49.0059 264.5,-38.8611 264.5,-29.9865"/>
<polygon fill="midnightblue" stroke="midnightblue" points="268,-29.751 264.5,-19.7511 261,-29.7511 268,-29.751"/>
</g>
<!-- Node4&#45;&gt;Node2 -->
<g id="edge5" class="edge"><title>Node4&#45;&gt;Node2</title>
<path fill="none" stroke="midnightblue" d="M222.756,-112.083C229.965,-104.298 240.61,-92.8015 249.346,-83.3665"/>
<polygon fill="midnightblue" stroke="midnightblue" points="252.171,-85.4666 256.397,-75.7511 247.035,-80.7108 252.171,-85.4666"/>
</g>
<!-- Node5 -->
<g id="node5" class="node"><title>Node5</title>
<g id="a_node5"><a xlink:title=" ">
<polygon fill="white" stroke="#bfbfbf" points="126.5,-56.5 126.5,-75.5 190.5,-75.5 190.5,-56.5 126.5,-56.5"/>
<text text-anchor="middle" x="158.5" y="-63.5" font-family="Helvetica,sans-Serif" font-size="10.00">string_view</text>
</a>
</g>
</g>
<!-- Node4&#45;&gt;Node5 -->
<g id="edge4" class="edge"><title>Node4&#45;&gt;Node5</title>
<path fill="none" stroke="midnightblue" d="M205.503,-112.324C197.306,-104.42 184.994,-92.5482 175.028,-82.9377"/>
<polygon fill="midnightblue" stroke="midnightblue" points="177.289,-80.2558 167.661,-75.8339 172.43,-85.2947 177.289,-80.2558"/>
</g>
<!-- Node6&#45;&gt;Node5 -->
<g id="edge7" class="edge"><title>Node6&#45;&gt;Node5</title>
<path fill="none" stroke="midnightblue" d="M122.601,-112.083C128.737,-104.377 137.77,-93.0333 145.239,-83.6531"/>
<polygon fill="midnightblue" stroke="midnightblue" points="148.04,-85.7542 151.532,-75.7511 142.564,-81.3936 148.04,-85.7542"/>
</g>
<!-- Node7&#45;&gt;Node3 -->
<g id="edge9" class="edge"><title>Node7&#45;&gt;Node3</title>
<path fill="none" stroke="midnightblue" d="M44.2881,-112.156C58.4933,-98.3225 87.9082,-71.5439 117.5,-56 154.172,-36.7373 200.408,-24.2913 231.133,-17.4766"/>
<polygon fill="midnightblue" stroke="midnightblue" points="232.266,-20.8134 241.312,-15.299 230.802,-13.9683 232.266,-20.8134"/>
</g>
<!-- Node7&#45;&gt;Node5 -->
<g id="edge10" class="edge"><title>Node7&#45;&gt;Node5</title>
<path fill="none" stroke="midnightblue" d="M54.9897,-112.444C75.1422,-103.596 106.823,-89.6875 129.831,-79.5865"/>
<polygon fill="midnightblue" stroke="midnightblue" points="131.352,-82.7411 139.101,-75.5164 128.538,-76.3316 131.352,-82.7411"/>
</g>
<!-- Node8&#45;&gt;Node2 -->
<g id="edge15" class="edge"><title>Node8&#45;&gt;Node2</title>
<path fill="none" stroke="midnightblue" d="M354.309,-112.324C337.149,-103.664 310.554,-90.2424 290.753,-80.249"/>
<polygon fill="midnightblue" stroke="midnightblue" points="292.153,-77.0354 281.649,-75.6545 288.999,-83.2847 292.153,-77.0354"/>
</g>
<!-- Node8&#45;&gt;Node3 -->
<g id="edge12" class="edge"><title>Node8&#45;&gt;Node3</title>
<path fill="none" stroke="midnightblue" d="M375.191,-112.124C380.125,-98.7193 386.996,-73.066 375.5,-56 358.346,-30.5351 324.053,-19.4751 298.099,-14.6746"/>
<polygon fill="midnightblue" stroke="midnightblue" points="298.343,-11.1687 287.912,-13.0256 297.224,-18.0788 298.343,-11.1687"/>
</g>
<!-- Node8&#45;&gt;Node5 -->
<g id="edge14" class="edge"><title>Node8&#45;&gt;Node5</title>
<path fill="none" stroke="midnightblue" d="M337.75,-112.444C300.549,-103.012 240.665,-87.8305 200.468,-77.6397"/>
<polygon fill="midnightblue" stroke="midnightblue" points="201.252,-74.2278 190.698,-75.1629 199.531,-81.0132 201.252,-74.2278"/>
</g>
<!-- Node9 -->
<g id="node9" class="node"><title>Node9</title>
<g id="a_node9"><a xlink:title=" ">
<polygon fill="white" stroke="#bfbfbf" points="326,-56.5 326,-75.5 367,-75.5 367,-56.5 326,-56.5"/>
<text text-anchor="middle" x="346.5" y="-63.5" font-family="Helvetica,sans-Serif" font-size="10.00">string</text>
</a>
</g>
</g>
<!-- Node8&#45;&gt;Node9 -->
<g id="edge13" class="edge"><title>Node8&#45;&gt;Node9</title>
<path fill="none" stroke="midnightblue" d="M367.372,-112.083C363.986,-104.77 359.084,-94.1814 354.881,-85.1034"/>
<polygon fill="midnightblue" stroke="midnightblue" points="357.929,-83.3553 350.551,-75.7511 351.577,-86.2962 357.929,-83.3553"/>
</g>
</g>
</svg>
