<?xml version="1.0" encoding="UTF-8" standalone="no"?>
<!DOCTYPE svg PUBLIC "-//W3C//DTD SVG 1.1//EN"
 "http://www.w3.org/Graphics/SVG/1.1/DTD/svg11.dtd">
<!-- Generated by graphviz version 2.38.0 (20140413.2041)
 -->
<!-- Title: C:/projects/ndt/build/deps/ndt_version/include/ndt/version_info.h Pages: 1 -->
<svg width="254pt" height="128pt"
 viewBox="0.00 0.00 253.50 128.00" xmlns="http://www.w3.org/2000/svg" xmlns:xlink="http://www.w3.org/1999/xlink">
<g id="graph0" class="graph" transform="scale(1 1) rotate(0) translate(4 124)">
<title>C:/projects/ndt/build/deps/ndt_version/include/ndt/version_info.h</title>
<polygon fill="white" stroke="none" points="-4,4 -4,-124 249.5,-124 249.5,4 -4,4"/>
<!-- Node1 -->
<g id="node1" class="node"><title>Node1</title>
<g id="a_node1"><a xlink:title=" ">
<polygon fill="#bfbfbf" stroke="black" points="57.5,-78.5 57.5,-119.5 183.5,-119.5 183.5,-78.5 57.5,-78.5"/>
<text text-anchor="start" x="65.5" y="-107.5" font-family="Helvetica,sans-Serif" font-size="10.00">C:/projects/ndt/build</text>
<text text-anchor="start" x="65.5" y="-96.5" font-family="Helvetica,sans-Serif" font-size="10.00">/deps/ndt_version/include</text>
<text text-anchor="middle" x="120.5" y="-85.5" font-family="Helvetica,sans-Serif" font-size="10.00">/ndt/version_info.h</text>
</a>
</g>
</g>
<!-- Node2 -->
<g id="node2" class="node"><title>Node2</title>
<g id="a_node2"><a xlink:href="version__info_8cpp.html" target="_top" xlink:title=" ">
<polygon fill="white" stroke="black" points="0,-0.5 0,-41.5 109,-41.5 109,-0.5 0,-0.5"/>
<text text-anchor="start" x="8" y="-29.5" font-family="Helvetica,sans-Serif" font-size="10.00">C:/projects/ndt/build</text>
<text text-anchor="start" x="8" y="-18.5" font-family="Helvetica,sans-Serif" font-size="10.00">/deps/ndt_version/src</text>
<text text-anchor="middle" x="54.5" y="-7.5" font-family="Helvetica,sans-Serif" font-size="10.00">/ndt/version_info.cpp</text>
</a>
</g>
</g>
<!-- Node1&#45;&gt;Node2 -->
<g id="edge1" class="edge"><title>Node1&#45;&gt;Node2</title>
<path fill="none" stroke="midnightblue" d="M96.7287,-70.627C88.3598,-60.9901 79.1299,-50.3617 71.439,-41.5056"/>
<polygon fill="midnightblue" stroke="midnightblue" points="94.3038,-73.1727 103.503,-78.4281 99.5891,-68.5828 94.3038,-73.1727"/>
</g>
<!-- Node3 -->
<g id="node3" class="node"><title>Node3</title>
<g id="a_node3"><a xlink:href="core_8h.html" target="_top" xlink:title=" ">
<polygon fill="white" stroke="black" points="127.5,-6 127.5,-36 245.5,-36 245.5,-6 127.5,-6"/>
<text text-anchor="start" x="135.5" y="-24" font-family="Helvetica,sans-Serif" font-size="10.00">C:/projects/ndt/sources</text>
<text text-anchor="middle" x="186.5" y="-13" font-family="Helvetica,sans-Serif" font-size="10.00">/include/ndt/core.h</text>
</a>
</g>
</g>
<!-- Node1&#45;&gt;Node3 -->
<g id="edge2" class="edge"><title>Node1&#45;&gt;Node3</title>
<path fill="none" stroke="midnightblue" d="M144.248,-70.6539C154.366,-59.0022 165.748,-45.8967 174.146,-36.2254"/>
<polygon fill="midnightblue" stroke="midnightblue" points="141.411,-68.5828 137.497,-78.4281 146.696,-73.1727 141.411,-68.5828"/>
</g>
</g>
</svg>
