<?xml version="1.0" encoding="UTF-8" standalone="no"?>
<!DOCTYPE svg PUBLIC "-//W3C//DTD SVG 1.1//EN"
 "http://www.w3.org/Graphics/SVG/1.1/DTD/svg11.dtd">
<!-- Generated by graphviz version 2.38.0 (20140413.2041)
 -->
<!-- Title: C:/projects/ndt/sources/include/ndt/platform/win/executor_select_impl.h Pages: 1 -->
<!--zoomable 464 -->
<svg id="main" version="1.1" xmlns="http://www.w3.org/2000/svg" xmlns:xlink="http://www.w3.org/1999/xlink" xml:space="preserve" onload="init(evt)">
<style type="text/css"><![CDATA[
.edge:hover path { stroke: red; }
.edge:hover polygon { stroke: red; fill: red; }
]]></style>
<script type="text/javascript"><![CDATA[
var edges = document.getElementsByTagName('g');
if (edges && edges.length) {
  for (var i=0;i<edges.length;i++) {
    if (edges[i].id.substr(0,4)=='edge') {
      edges[i].setAttribute('class','edge');
    }
  }
}
]]></script>
        <defs>
                <circle id="rim" cx="0" cy="0" r="7"/>
                <circle id="rim2" cx="0" cy="0" r="3.5"/>
                <g id="zoomPlus">
                        <use xlink:href="#rim" fill="#404040">
                                <set attributeName="fill" to="#808080" begin="zoomplus.mouseover" end="zoomplus.mouseout"/>
                        </use>
                        <path d="M-4,0h8M0,-4v8" fill="none" stroke="white" stroke-width="1.5" pointer-events="none"/>
                </g>
                <g id="zoomMin">
                        <use xlink:href="#rim" fill="#404040">
                                <set attributeName="fill" to="#808080" begin="zoomminus.mouseover" end="zoomminus.mouseout"/>
                        </use>
                        <path d="M-4,0h8" fill="none" stroke="white" stroke-width="1.5" pointer-events="none"/>
                </g>
                <g id="dirArrow">
                        <path fill="none" stroke="white" stroke-width="1.5" d="M0,-3.0v7 M-2.5,-0.5L0,-3.0L2.5,-0.5"/>
                </g>
               <g id="resetDef">
                       <use xlink:href="#rim2" fill="#404040">
                               <set attributeName="fill" to="#808080" begin="reset.mouseover" end="reset.mouseout"/>
                       </use>
               </g>
        </defs>

<script type="text/javascript">
var viewWidth = 1245;
var viewHeight = 464;
var sectionId = 'dynsection-0';
</script>
<script xlink:href="svgpan.js"/>
<svg id="graph" class="graph">
<g id="viewport">
<title>C:/projects/ndt/sources/include/ndt/platform/win/executor_select_impl.h</title>
<polygon fill="white" stroke="none" points="-4,4 -4,-460 1240.5,-460 1240.5,4 -4,4"/>
<!-- Node1 -->
<g id="node1" class="node"><title>Node1</title>
<g id="a_node1"><a xlink:title=" ">
<polygon fill="#bfbfbf" stroke="black" points="752,-414.5 752,-455.5 889,-455.5 889,-414.5 752,-414.5"/>
<text text-anchor="start" x="760" y="-443.5" font-family="Helvetica,sans-Serif" font-size="10.00">C:/projects/ndt/sources</text>
<text text-anchor="start" x="760" y="-432.5" font-family="Helvetica,sans-Serif" font-size="10.00">/include/ndt/platform</text>
<text text-anchor="middle" x="820.5" y="-421.5" font-family="Helvetica,sans-Serif" font-size="10.00">/win/executor_select_impl.h</text>
</a>
</g>
</g>
<!-- Node2 -->
<g id="node2" class="node"><title>Node2</title>
<g id="a_node2"><a xlink:href="common_8h.html" target="_top" xlink:title="Header with typedefs to make type designation platform independent.">
<polygon fill="white" stroke="black" points="862.5,-56.5 862.5,-75.5 942.5,-75.5 942.5,-56.5 862.5,-56.5"/>
<text text-anchor="middle" x="902.5" y="-63.5" font-family="Helvetica,sans-Serif" font-size="10.00">../../common.h</text>
</a>
</g>
</g>
<!-- Node1&#45;&gt;Node2 -->
<g id="edge1" class="edge"><title>Node1&#45;&gt;Node2</title>
<path fill="none" stroke="midnightblue" d="M886.408,-414.423C936.732,-394.936 997.5,-359.5 997.5,-302 997.5,-302 997.5,-302 997.5,-188 997.5,-141.247 953.079,-101.855 924.987,-81.6189"/>
<polygon fill="midnightblue" stroke="midnightblue" points="926.728,-78.5662 916.518,-75.7367 922.735,-84.3157 926.728,-78.5662"/>
</g>
<!-- Node12 -->
<g id="node12" class="node"><title>Node12</title>
<g id="a_node12"><a xlink:href="executor__select__base_8h.html" target="_top" xlink:title=" ">
<polygon fill="white" stroke="black" points="572.5,-347.5 572.5,-377.5 676.5,-377.5 676.5,-347.5 572.5,-347.5"/>
<text text-anchor="start" x="580.5" y="-365.5" font-family="Helvetica,sans-Serif" font-size="10.00">../../executor_select</text>
<text text-anchor="middle" x="624.5" y="-354.5" font-family="Helvetica,sans-Serif" font-size="10.00">_base.h</text>
</a>
</g>
</g>
<!-- Node1&#45;&gt;Node12 -->
<g id="edge11" class="edge"><title>Node1&#45;&gt;Node12</title>
<path fill="none" stroke="midnightblue" d="M766.163,-414.455C737.078,-403.994 701.543,-391.212 673.339,-381.067"/>
<polygon fill="midnightblue" stroke="midnightblue" points="674.286,-377.688 663.691,-377.597 671.916,-384.275 674.286,-377.688"/>
</g>
<!-- Node3 -->
<g id="node3" class="node"><title>Node3</title>
<g id="a_node3"><a xlink:title=" ">
<polygon fill="white" stroke="#bfbfbf" points="1157.5,-0.5 1157.5,-19.5 1219.5,-19.5 1219.5,-0.5 1157.5,-0.5"/>
<text text-anchor="middle" x="1188.5" y="-7.5" font-family="Helvetica,sans-Serif" font-size="10.00">arpa/inet.h</text>
</a>
</g>
</g>
<!-- Node2&#45;&gt;Node3 -->
<g id="edge2" class="edge"><title>Node2&#45;&gt;Node3</title>
<path fill="none" stroke="midnightblue" d="M942.648,-58.1687C989.428,-50.0959 1069.29,-35.9645 1147.11,-20.223"/>
<polygon fill="midnightblue" stroke="midnightblue" points="1147.98,-23.6178 1157.08,-18.1947 1146.59,-16.7582 1147.98,-23.6178"/>
</g>
<!-- Node4 -->
<g id="node4" class="node"><title>Node4</title>
<g id="a_node4"><a xlink:title=" ">
<polygon fill="white" stroke="#bfbfbf" points="634,-0.5 634,-19.5 681,-19.5 681,-0.5 634,-0.5"/>
<text text-anchor="middle" x="657.5" y="-7.5" font-family="Helvetica,sans-Serif" font-size="10.00">errno.h</text>
</a>
</g>
</g>
<!-- Node2&#45;&gt;Node4 -->
<g id="edge3" class="edge"><title>Node2&#45;&gt;Node4</title>
<path fill="none" stroke="midnightblue" d="M862.278,-57.3245C821.416,-49.3445 756.094,-36.0898 691.206,-20.309"/>
<polygon fill="midnightblue" stroke="midnightblue" points="691.765,-16.8425 681.22,-17.859 690.098,-23.6409 691.765,-16.8425"/>
</g>
<!-- Node5 -->
<g id="node5" class="node"><title>Node5</title>
<g id="a_node5"><a xlink:title=" ">
<polygon fill="white" stroke="#bfbfbf" points="699,-0.5 699,-19.5 742,-19.5 742,-0.5 699,-0.5"/>
<text text-anchor="middle" x="720.5" y="-7.5" font-family="Helvetica,sans-Serif" font-size="10.00">fcntl.h</text>
</a>
</g>
</g>
<!-- Node2&#45;&gt;Node5 -->
<g id="edge4" class="edge"><title>Node2&#45;&gt;Node5</title>
<path fill="none" stroke="midnightblue" d="M873.634,-56.488C844.963,-48.0262 799.496,-34.587 751.711,-20.3543"/>
<polygon fill="midnightblue" stroke="midnightblue" points="752.71,-17.0001 742.127,-17.4984 750.711,-23.7085 752.71,-17.0001"/>
</g>
<!-- Node6 -->
<g id="node6" class="node"><title>Node6</title>
<g id="a_node6"><a xlink:title=" ">
<polygon fill="white" stroke="#bfbfbf" points="760,-0.5 760,-19.5 809,-19.5 809,-0.5 760,-0.5"/>
<text text-anchor="middle" x="784.5" y="-7.5" font-family="Helvetica,sans-Serif" font-size="10.00">netdb.h</text>
</a>
</g>
</g>
<!-- Node2&#45;&gt;Node6 -->
<g id="edge5" class="edge"><title>Node2&#45;&gt;Node6</title>
<path fill="none" stroke="midnightblue" d="M883.803,-56.4435C864.556,-47.6356 834.348,-33.8116 812.3,-23.722"/>
<polygon fill="midnightblue" stroke="midnightblue" points="813.66,-20.4951 803.11,-19.5164 810.747,-26.8603 813.66,-20.4951"/>
</g>
<!-- Node7 -->
<g id="node7" class="node"><title>Node7</title>
<g id="a_node7"><a xlink:title=" ">
<polygon fill="white" stroke="#bfbfbf" points="827,-0.5 827,-19.5 892,-19.5 892,-0.5 827,-0.5"/>
<text text-anchor="middle" x="859.5" y="-7.5" font-family="Helvetica,sans-Serif" font-size="10.00">netinet/in.h</text>
</a>
</g>
</g>
<!-- Node2&#45;&gt;Node7 -->
<g id="edge6" class="edge"><title>Node2&#45;&gt;Node7</title>
<path fill="none" stroke="midnightblue" d="M895.399,-56.083C889.263,-48.3768 880.23,-37.0333 872.761,-27.6531"/>
<polygon fill="midnightblue" stroke="midnightblue" points="875.436,-25.3936 866.468,-19.7511 869.96,-29.7542 875.436,-25.3936"/>
</g>
<!-- Node8 -->
<g id="node8" class="node"><title>Node8</title>
<g id="a_node8"><a xlink:title=" ">
<polygon fill="white" stroke="#bfbfbf" points="910,-0.5 910,-19.5 983,-19.5 983,-0.5 910,-0.5"/>
<text text-anchor="middle" x="946.5" y="-7.5" font-family="Helvetica,sans-Serif" font-size="10.00">sys/socket.h</text>
</a>
</g>
</g>
<!-- Node2&#45;&gt;Node8 -->
<g id="edge7" class="edge"><title>Node2&#45;&gt;Node8</title>
<path fill="none" stroke="midnightblue" d="M909.766,-56.083C916.045,-48.3768 925.288,-37.0333 932.931,-27.6531"/>
<polygon fill="midnightblue" stroke="midnightblue" points="935.766,-29.7143 939.369,-19.7511 930.339,-25.2926 935.766,-29.7143"/>
</g>
<!-- Node9 -->
<g id="node9" class="node"><title>Node9</title>
<g id="a_node9"><a xlink:title=" ">
<polygon fill="white" stroke="#bfbfbf" points="1001.5,-0.5 1001.5,-19.5 1069.5,-19.5 1069.5,-0.5 1001.5,-0.5"/>
<text text-anchor="middle" x="1035.5" y="-7.5" font-family="Helvetica,sans-Serif" font-size="10.00">sys/types.h</text>
</a>
</g>
</g>
<!-- Node2&#45;&gt;Node9 -->
<g id="edge8" class="edge"><title>Node2&#45;&gt;Node9</title>
<path fill="none" stroke="midnightblue" d="M923.574,-56.4435C945.56,-47.5171 980.234,-33.4387 1005.16,-23.3168"/>
<polygon fill="midnightblue" stroke="midnightblue" points="1006.58,-26.5213 1014.52,-19.5164 1003.94,-20.0355 1006.58,-26.5213"/>
</g>
<!-- Node10 -->
<g id="node10" class="node"><title>Node10</title>
<g id="a_node10"><a xlink:title=" ">
<polygon fill="white" stroke="#bfbfbf" points="1088,-0.5 1088,-19.5 1139,-19.5 1139,-0.5 1088,-0.5"/>
<text text-anchor="middle" x="1113.5" y="-7.5" font-family="Helvetica,sans-Serif" font-size="10.00">unistd.h</text>
</a>
</g>
</g>
<!-- Node2&#45;&gt;Node10 -->
<g id="edge9" class="edge"><title>Node2&#45;&gt;Node10</title>
<path fill="none" stroke="midnightblue" d="M935.916,-56.4705C969.316,-47.9422 1022.41,-34.3765 1077.87,-20.1578"/>
<polygon fill="midnightblue" stroke="midnightblue" points="1079.07,-23.4647 1087.89,-17.5906 1077.33,-16.684 1079.07,-23.4647"/>
</g>
<!-- Node11 -->
<g id="node11" class="node"><title>Node11</title>
<g id="a_node11"><a xlink:title=" ">
<polygon fill="white" stroke="#bfbfbf" points="359.5,-0.5 359.5,-19.5 407.5,-19.5 407.5,-0.5 359.5,-0.5"/>
<text text-anchor="middle" x="383.5" y="-7.5" font-family="Helvetica,sans-Serif" font-size="10.00">cstddef</text>
</a>
</g>
</g>
<!-- Node2&#45;&gt;Node11 -->
<g id="edge10" class="edge"><title>Node2&#45;&gt;Node11</title>
<path fill="none" stroke="midnightblue" d="M862.207,-60.8076C763.352,-50.5222 510.172,-24.1797 417.849,-14.5739"/>
<polygon fill="midnightblue" stroke="midnightblue" points="417.967,-11.0674 407.659,-13.5136 417.243,-18.0298 417.967,-11.0674"/>
</g>
<!-- Node12&#45;&gt;Node2 -->
<g id="edge15" class="edge"><title>Node12&#45;&gt;Node2</title>
<path fill="none" stroke="midnightblue" d="M676.844,-354.527C771.063,-340.498 959.5,-305.059 959.5,-246 959.5,-246 959.5,-246 959.5,-188 959.5,-147.59 933.16,-106.206 916.291,-83.8451"/>
<polygon fill="midnightblue" stroke="midnightblue" points="918.869,-81.4597 909.952,-75.7384 913.355,-85.7719 918.869,-81.4597"/>
</g>
<!-- Node13 -->
<g id="node13" class="node"><title>Node13</title>
<g id="a_node13"><a xlink:title=" ">
<polygon fill="white" stroke="#bfbfbf" points="501.5,-291.5 501.5,-310.5 539.5,-310.5 539.5,-291.5 501.5,-291.5"/>
<text text-anchor="middle" x="520.5" y="-298.5" font-family="Helvetica,sans-Serif" font-size="10.00">array</text>
</a>
</g>
</g>
<!-- Node12&#45;&gt;Node13 -->
<g id="edge12" class="edge"><title>Node12&#45;&gt;Node13</title>
<path fill="none" stroke="midnightblue" d="M599.853,-347.399C583.183,-337.862 561.269,-325.325 544.695,-315.842"/>
<polygon fill="midnightblue" stroke="midnightblue" points="546.051,-312.586 535.633,-310.658 542.575,-318.662 546.051,-312.586"/>
</g>
<!-- Node14 -->
<g id="node14" class="node"><title>Node14</title>
<g id="a_node14"><a xlink:title=" ">
<polygon fill="white" stroke="#bfbfbf" points="519.5,-235.5 519.5,-254.5 577.5,-254.5 577.5,-235.5 519.5,-235.5"/>
<text text-anchor="middle" x="548.5" y="-242.5" font-family="Helvetica,sans-Serif" font-size="10.00">functional</text>
</a>
</g>
</g>
<!-- Node12&#45;&gt;Node14 -->
<g id="edge13" class="edge"><title>Node12&#45;&gt;Node14</title>
<path fill="none" stroke="midnightblue" d="M616.28,-347.233C607.872,-332.832 594.266,-310.058 581.5,-291 575.165,-281.542 567.693,-271.287 561.463,-262.958"/>
<polygon fill="midnightblue" stroke="midnightblue" points="564.123,-260.673 555.302,-254.805 558.539,-264.894 564.123,-260.673"/>
</g>
<!-- Node15 -->
<g id="node15" class="node"><title>Node15</title>
<g id="a_node15"><a xlink:title=" ">
<polygon fill="white" stroke="#bfbfbf" points="781.5,-118 781.5,-137 855.5,-137 855.5,-118 781.5,-118"/>
<text text-anchor="middle" x="818.5" y="-125" font-family="Helvetica,sans-Serif" font-size="10.00">system_error</text>
</a>
</g>
</g>
<!-- Node12&#45;&gt;Node15 -->
<g id="edge14" class="edge"><title>Node12&#45;&gt;Node15</title>
<path fill="none" stroke="midnightblue" d="M625.258,-347.061C627.799,-313.16 638.754,-227.669 685.5,-179 692.537,-171.673 745.466,-152.904 782.391,-140.428"/>
<polygon fill="midnightblue" stroke="midnightblue" points="783.964,-143.592 792.33,-137.09 781.736,-136.956 783.964,-143.592"/>
</g>
<!-- Node16 -->
<g id="node16" class="node"><title>Node16</title>
<g id="a_node16"><a xlink:href="event__handler__select_8h.html" target="_top" xlink:title=" ">
<polygon fill="white" stroke="black" points="167.5,-235.5 167.5,-254.5 283.5,-254.5 283.5,-235.5 167.5,-235.5"/>
<text text-anchor="middle" x="225.5" y="-242.5" font-family="Helvetica,sans-Serif" font-size="10.00">event_handler_select.h</text>
</a>
</g>
</g>
<!-- Node12&#45;&gt;Node16 -->
<g id="edge16" class="edge"><title>Node12&#45;&gt;Node16</title>
<path fill="none" stroke="midnightblue" d="M613.89,-347.419C600.585,-330.903 576.14,-304.119 548.5,-291 504.722,-270.221 375.071,-257.111 293.963,-250.704"/>
<polygon fill="midnightblue" stroke="midnightblue" points="294.073,-247.202 283.832,-249.918 293.532,-254.181 294.073,-247.202"/>
</g>
<!-- Node21 -->
<g id="node21" class="node"><title>Node21</title>
<g id="a_node21"><a xlink:href="socket_8h.html" target="_top" xlink:title=" ">
<polygon fill="white" stroke="black" points="692.5,-291.5 692.5,-310.5 746.5,-310.5 746.5,-291.5 692.5,-291.5"/>
<text text-anchor="middle" x="719.5" y="-298.5" font-family="Helvetica,sans-Serif" font-size="10.00">socket.h</text>
</a>
</g>
</g>
<!-- Node12&#45;&gt;Node21 -->
<g id="edge23" class="edge"><title>Node12&#45;&gt;Node21</title>
<path fill="none" stroke="midnightblue" d="M647.014,-347.399C662.099,-337.951 681.885,-325.559 696.973,-316.109"/>
<polygon fill="midnightblue" stroke="midnightblue" points="699.059,-318.932 705.677,-310.658 695.344,-313 699.059,-318.932"/>
</g>
<!-- Node17 -->
<g id="node17" class="node"><title>Node17</title>
<g id="a_node17"><a xlink:title=" ">
<polygon fill="white" stroke="#bfbfbf" points="125.5,-118 125.5,-137 171.5,-137 171.5,-118 125.5,-118"/>
<text text-anchor="middle" x="148.5" y="-125" font-family="Helvetica,sans-Serif" font-size="10.00">cstdint</text>
</a>
</g>
</g>
<!-- Node16&#45;&gt;Node17 -->
<g id="edge17" class="edge"><title>Node16&#45;&gt;Node17</title>
<path fill="none" stroke="midnightblue" d="M220.728,-235.41C213.638,-222.801 199.733,-198.647 186.5,-179 178.71,-167.434 169.289,-154.905 161.776,-145.22"/>
<polygon fill="midnightblue" stroke="midnightblue" points="164.439,-142.945 155.515,-137.235 158.931,-147.264 164.439,-142.945"/>
</g>
<!-- Node18 -->
<g id="node18" class="node"><title>Node18</title>
<g id="a_node18"><a xlink:title=" ">
<polygon fill="white" stroke="#bfbfbf" points="265.5,-118 265.5,-137 327.5,-137 327.5,-118 265.5,-118"/>
<text text-anchor="middle" x="296.5" y="-125" font-family="Helvetica,sans-Serif" font-size="10.00">type_traits</text>
</a>
</g>
</g>
<!-- Node16&#45;&gt;Node18 -->
<g id="edge18" class="edge"><title>Node16&#45;&gt;Node18</title>
<path fill="none" stroke="midnightblue" d="M230.525,-235.086C237.67,-222.483 251.261,-198.788 263.5,-179 270.43,-167.795 278.518,-155.408 284.952,-145.706"/>
<polygon fill="midnightblue" stroke="midnightblue" points="287.886,-147.615 290.523,-137.354 282.062,-143.731 287.886,-147.615"/>
</g>
<!-- Node19 -->
<g id="node19" class="node"><title>Node19</title>
<g id="a_node19"><a xlink:href="executor__select_8h.html" target="_top" xlink:title=" ">
<polygon fill="white" stroke="black" points="83.5,-179.5 83.5,-198.5 177.5,-198.5 177.5,-179.5 83.5,-179.5"/>
<text text-anchor="middle" x="130.5" y="-186.5" font-family="Helvetica,sans-Serif" font-size="10.00">executor_select.h</text>
</a>
</g>
</g>
<!-- Node16&#45;&gt;Node19 -->
<g id="edge19" class="edge"><title>Node16&#45;&gt;Node19</title>
<path fill="none" stroke="midnightblue" d="M210.237,-235.324C195.279,-226.822 172.245,-213.729 154.773,-203.797"/>
<polygon fill="midnightblue" stroke="midnightblue" points="156.149,-200.553 145.726,-198.655 152.69,-206.639 156.149,-200.553"/>
</g>
<!-- Node20 -->
<g id="node20" class="node"><title>Node20</title>
<g id="a_node20"><a xlink:href="nix_2executor__select__impl_8h.html" target="_top" xlink:title=" ">
<polygon fill="white" stroke="black" points="0,-112.5 0,-142.5 107,-142.5 107,-112.5 0,-112.5"/>
<text text-anchor="start" x="8" y="-130.5" font-family="Helvetica,sans-Serif" font-size="10.00">platform/nix/executor</text>
<text text-anchor="middle" x="53.5" y="-119.5" font-family="Helvetica,sans-Serif" font-size="10.00">_select_impl.h</text>
</a>
</g>
</g>
<!-- Node19&#45;&gt;Node20 -->
<g id="edge20" class="edge"><title>Node19&#45;&gt;Node20</title>
<path fill="none" stroke="midnightblue" d="M119.468,-179.475C109.137,-171.492 93.2995,-159.254 79.7321,-148.77"/>
<polygon fill="midnightblue" stroke="midnightblue" points="81.7003,-145.868 71.6474,-142.523 77.4202,-151.407 81.7003,-145.868"/>
</g>
<!-- Node20&#45;&gt;Node2 -->
<g id="edge21" class="edge"><title>Node20&#45;&gt;Node2</title>
<path fill="none" stroke="midnightblue" d="M107.001,-113.539C110.205,-112.964 113.389,-112.444 116.5,-112 392.227,-72.6647 727.006,-67.4383 852.132,-66.9431"/>
<polygon fill="midnightblue" stroke="midnightblue" points="852.192,-70.443 862.181,-66.9119 852.17,-63.443 852.192,-70.443"/>
</g>
<!-- Node20&#45;&gt;Node12 -->
<g id="edge22" class="edge"><title>Node20&#45;&gt;Node12</title>
<path fill="none" stroke="midnightblue" d="M54.866,-142.743C56.9381,-157.958 62.0568,-182.152 74.5,-199 101.157,-235.092 117.284,-237.265 158.5,-255 295.901,-314.122 470.827,-342.786 562.325,-354.573"/>
<polygon fill="midnightblue" stroke="midnightblue" points="561.897,-358.047 572.257,-355.828 562.774,-351.102 561.897,-358.047"/>
</g>
<!-- Node21&#45;&gt;Node2 -->
<g id="edge53" class="edge"><title>Node21&#45;&gt;Node2</title>
<path fill="none" stroke="midnightblue" d="M746.765,-294.215C788.281,-283.681 865.289,-256.886 891.5,-199 908.439,-161.591 907.098,-112.143 904.738,-85.6538"/>
<polygon fill="midnightblue" stroke="midnightblue" points="908.199,-85.0983 903.679,-75.516 901.237,-85.8255 908.199,-85.0983"/>
</g>
<!-- Node21&#45;&gt;Node14 -->
<g id="edge25" class="edge"><title>Node21&#45;&gt;Node14</title>
<path fill="none" stroke="midnightblue" d="M692.405,-291.444C663.512,-282.32 617.575,-267.813 585.395,-257.651"/>
<polygon fill="midnightblue" stroke="midnightblue" points="586.059,-254.19 575.469,-254.516 583.951,-260.865 586.059,-254.19"/>
</g>
<!-- Node22 -->
<g id="node22" class="node"><title>Node22</title>
<g id="a_node22"><a xlink:title=" ">
<polygon fill="white" stroke="#bfbfbf" points="346,-118 346,-137 395,-137 395,-118 346,-118"/>
<text text-anchor="middle" x="370.5" y="-125" font-family="Helvetica,sans-Serif" font-size="10.00">cassert</text>
</a>
</g>
</g>
<!-- Node21&#45;&gt;Node22 -->
<g id="edge24" class="edge"><title>Node21&#45;&gt;Node22</title>
<path fill="none" stroke="midnightblue" d="M708.703,-291.402C691.709,-278.138 657.369,-252.399 625.5,-235 532.117,-184.018 502.545,-184.313 404.5,-143 403.096,-142.408 401.659,-141.801 400.208,-141.187"/>
<polygon fill="midnightblue" stroke="midnightblue" points="401.196,-137.804 390.624,-137.116 398.459,-144.247 401.196,-137.804"/>
</g>
<!-- Node23 -->
<g id="node23" class="node"><title>Node23</title>
<g id="a_node23"><a xlink:href="address_8h.html" target="_top" xlink:title=" ">
<polygon fill="white" stroke="black" points="748,-235.5 748,-254.5 807,-254.5 807,-235.5 748,-235.5"/>
<text text-anchor="middle" x="777.5" y="-242.5" font-family="Helvetica,sans-Serif" font-size="10.00">address.h</text>
</a>
</g>
</g>
<!-- Node21&#45;&gt;Node23 -->
<g id="edge26" class="edge"><title>Node21&#45;&gt;Node23</title>
<path fill="none" stroke="midnightblue" d="M728.819,-291.324C737.393,-283.341 750.312,-271.313 760.688,-261.653"/>
<polygon fill="midnightblue" stroke="midnightblue" points="763.078,-264.21 768.012,-254.834 758.308,-259.086 763.078,-264.21"/>
</g>
<!-- Node26 -->
<g id="node26" class="node"><title>Node26</title>
<g id="a_node26"><a xlink:href="buffer_8h.html" target="_top" xlink:title=" ">
<polygon fill="white" stroke="black" points="272.5,-179.5 272.5,-198.5 320.5,-198.5 320.5,-179.5 272.5,-179.5"/>
<text text-anchor="middle" x="296.5" y="-186.5" font-family="Helvetica,sans-Serif" font-size="10.00">buffer.h</text>
</a>
</g>
</g>
<!-- Node21&#45;&gt;Node26 -->
<g id="edge52" class="edge"><title>Node21&#45;&gt;Node26</title>
<path fill="none" stroke="midnightblue" d="M705.336,-291.29C681.651,-277.145 632.107,-249.321 586.5,-235 496.952,-206.881 386.111,-195.929 330.993,-191.997"/>
<polygon fill="midnightblue" stroke="midnightblue" points="330.95,-188.487 320.736,-191.302 330.476,-195.471 330.95,-188.487"/>
</g>
<!-- Node27 -->
<g id="node27" class="node"><title>Node27</title>
<g id="a_node27"><a xlink:href="exception_8h.html" target="_top" xlink:title=" ">
<polygon fill="white" stroke="black" points="816,-179.5 816,-198.5 883,-198.5 883,-179.5 816,-179.5"/>
<text text-anchor="middle" x="849.5" y="-186.5" font-family="Helvetica,sans-Serif" font-size="10.00">exception.h</text>
</a>
</g>
</g>
<!-- Node21&#45;&gt;Node27 -->
<g id="edge54" class="edge"><title>Node21&#45;&gt;Node27</title>
<path fill="none" stroke="midnightblue" d="M746.689,-292.508C767.593,-285.607 796.087,-273.584 815.5,-255 828.989,-242.087 838.179,-222.643 843.571,-208.385"/>
<polygon fill="midnightblue" stroke="midnightblue" points="846.965,-209.282 846.961,-198.687 840.357,-206.972 846.965,-209.282"/>
</g>
<!-- Node30 -->
<g id="node30" class="node"><title>Node30</title>
<g id="a_node30"><a xlink:href="useful__base__types_8h.html" target="_top" xlink:title=" ">
<polygon fill="white" stroke="black" points="1130.5,-56.5 1130.5,-75.5 1236.5,-75.5 1236.5,-56.5 1130.5,-56.5"/>
<text text-anchor="middle" x="1183.5" y="-63.5" font-family="Helvetica,sans-Serif" font-size="10.00">useful_base_types.h</text>
</a>
</g>
</g>
<!-- Node21&#45;&gt;Node30 -->
<g id="edge55" class="edge"><title>Node21&#45;&gt;Node30</title>
<path fill="none" stroke="midnightblue" d="M746.681,-300.363C818.983,-300.012 1019.32,-290.316 1148.5,-199 1172.66,-181.921 1176.16,-171.389 1184.5,-143 1188.38,-129.781 1184.65,-125.777 1184.5,-112 1184.4,-103.396 1184.21,-93.8686 1184.01,-85.8037"/>
<polygon fill="midnightblue" stroke="midnightblue" points="1187.51,-85.5323 1183.75,-75.6259 1180.51,-85.7128 1187.51,-85.5323"/>
</g>
<!-- Node31 -->
<g id="node31" class="node"><title>Node31</title>
<g id="a_node31"><a xlink:href="utils_8h.html" target="_top" xlink:title=" ">
<polygon fill="white" stroke="black" points="595,-179.5 595,-198.5 638,-198.5 638,-179.5 595,-179.5"/>
<text text-anchor="middle" x="616.5" y="-186.5" font-family="Helvetica,sans-Serif" font-size="10.00">utils.h</text>
</a>
</g>
</g>
<!-- Node21&#45;&gt;Node31 -->
<g id="edge56" class="edge"><title>Node21&#45;&gt;Node31</title>
<path fill="none" stroke="midnightblue" d="M718.27,-291.473C715.951,-278.075 709.816,-251.881 695.5,-235 682.818,-220.046 663.844,-209.009 647.668,-201.609"/>
<polygon fill="midnightblue" stroke="midnightblue" points="648.61,-198.204 638.04,-197.469 645.844,-204.634 648.61,-198.204"/>
</g>
<!-- Node24 -->
<g id="node24" class="node"><title>Node24</title>
<g id="a_node24"><a xlink:title=" ">
<polygon fill="white" stroke="#bfbfbf" points="757,-179.5 757,-198.5 798,-198.5 798,-179.5 757,-179.5"/>
<text text-anchor="middle" x="777.5" y="-186.5" font-family="Helvetica,sans-Serif" font-size="10.00">string</text>
</a>
</g>
</g>
<!-- Node23&#45;&gt;Node24 -->
<g id="edge27" class="edge"><title>Node23&#45;&gt;Node24</title>
<path fill="none" stroke="midnightblue" d="M777.5,-235.083C777.5,-228.006 777.5,-217.861 777.5,-208.986"/>
<polygon fill="midnightblue" stroke="midnightblue" points="781,-208.751 777.5,-198.751 774,-208.751 781,-208.751"/>
</g>
<!-- Node25 -->
<g id="node25" class="node"><title>Node25</title>
<g id="a_node25"><a xlink:title=" ">
<polygon fill="white" stroke="#bfbfbf" points="694.5,-179.5 694.5,-198.5 738.5,-198.5 738.5,-179.5 694.5,-179.5"/>
<text text-anchor="middle" x="716.5" y="-186.5" font-family="Helvetica,sans-Serif" font-size="10.00">variant</text>
</a>
</g>
</g>
<!-- Node23&#45;&gt;Node25 -->
<g id="edge28" class="edge"><title>Node23&#45;&gt;Node25</title>
<path fill="none" stroke="midnightblue" d="M767.699,-235.324C758.682,-227.341 745.094,-215.313 734.182,-205.653"/>
<polygon fill="midnightblue" stroke="midnightblue" points="736.287,-202.842 726.479,-198.834 731.647,-208.083 736.287,-202.842"/>
</g>
<!-- Node23&#45;&gt;Node26 -->
<g id="edge29" class="edge"><title>Node23&#45;&gt;Node26</title>
<path fill="none" stroke="midnightblue" d="M747.774,-240.663C663.055,-231.152 420.701,-203.944 330.696,-193.839"/>
<polygon fill="midnightblue" stroke="midnightblue" points="331.069,-190.359 320.741,-192.721 330.288,-197.315 331.069,-190.359"/>
</g>
<!-- Node23&#45;&gt;Node27 -->
<g id="edge35" class="edge"><title>Node23&#45;&gt;Node27</title>
<path fill="none" stroke="midnightblue" d="M789.068,-235.324C799.92,-227.185 816.381,-214.839 829.383,-205.087"/>
<polygon fill="midnightblue" stroke="midnightblue" points="831.821,-207.634 837.721,-198.834 827.621,-202.034 831.821,-207.634"/>
</g>
<!-- Node28 -->
<g id="node28" class="node"><title>Node28</title>
<g id="a_node28"><a xlink:href="sys__socket__ops_8h.html" target="_top" xlink:title=" ">
<polygon fill="white" stroke="black" points="1043.5,-179.5 1043.5,-198.5 1139.5,-198.5 1139.5,-179.5 1043.5,-179.5"/>
<text text-anchor="middle" x="1091.5" y="-186.5" font-family="Helvetica,sans-Serif" font-size="10.00">sys_socket_ops.h</text>
</a>
</g>
</g>
<!-- Node23&#45;&gt;Node28 -->
<g id="edge38" class="edge"><title>Node23&#45;&gt;Node28</title>
<path fill="none" stroke="midnightblue" d="M807.04,-238.92C858.664,-230.042 966.173,-211.553 1033.23,-200.02"/>
<polygon fill="midnightblue" stroke="midnightblue" points="1033.97,-203.446 1043.23,-198.302 1032.78,-196.547 1033.97,-203.446"/>
</g>
<!-- Node23&#45;&gt;Node31 -->
<g id="edge44" class="edge"><title>Node23&#45;&gt;Node31</title>
<path fill="none" stroke="midnightblue" d="M751.989,-235.444C723.789,-225.985 678.342,-210.742 647.958,-200.551"/>
<polygon fill="midnightblue" stroke="midnightblue" points="648.871,-197.166 638.277,-197.304 646.645,-203.803 648.871,-197.166"/>
</g>
<!-- Node26&#45;&gt;Node2 -->
<g id="edge34" class="edge"><title>Node26&#45;&gt;Node2</title>
<path fill="none" stroke="midnightblue" d="M285.765,-179.342C268.241,-164.211 237.278,-132.607 256.5,-112 296.805,-68.7897 706.6,-66.2019 851.818,-66.6575"/>
<polygon fill="midnightblue" stroke="midnightblue" points="852.2,-70.1589 862.213,-66.6968 852.226,-63.1589 852.2,-70.1589"/>
</g>
<!-- Node26&#45;&gt;Node11 -->
<g id="edge31" class="edge"><title>Node26&#45;&gt;Node11</title>
<path fill="none" stroke="midnightblue" d="M281.548,-179.474C269.568,-171.702 253.627,-159.002 246.5,-143 240.895,-130.414 240.288,-124.298 246.5,-112 268.51,-68.4296 319.16,-39.0341 352.324,-23.6623"/>
<polygon fill="midnightblue" stroke="midnightblue" points="353.889,-26.7966 361.589,-19.5199 351.032,-20.4062 353.889,-26.7966"/>
</g>
<!-- Node26&#45;&gt;Node17 -->
<g id="edge32" class="edge"><title>Node26&#45;&gt;Node17</title>
<path fill="none" stroke="midnightblue" d="M275.295,-179.475C250.128,-169.357 207.96,-152.405 179.221,-140.851"/>
<polygon fill="midnightblue" stroke="midnightblue" points="180.249,-137.492 169.665,-137.009 177.638,-143.987 180.249,-137.492"/>
</g>
<!-- Node26&#45;&gt;Node18 -->
<g id="edge33" class="edge"><title>Node26&#45;&gt;Node18</title>
<path fill="none" stroke="midnightblue" d="M296.5,-179.475C296.5,-171.08 296.5,-157.981 296.5,-147.163"/>
<polygon fill="midnightblue" stroke="midnightblue" points="300,-147.009 296.5,-137.009 293,-147.009 300,-147.009"/>
</g>
<!-- Node26&#45;&gt;Node22 -->
<g id="edge30" class="edge"><title>Node26&#45;&gt;Node22</title>
<path fill="none" stroke="midnightblue" d="M307.102,-179.475C318.752,-170.108 337.686,-154.884 351.835,-143.508"/>
<polygon fill="midnightblue" stroke="midnightblue" points="354.317,-146.003 359.917,-137.009 349.931,-140.548 354.317,-146.003"/>
</g>
<!-- Node27&#45;&gt;Node2 -->
<g id="edge37" class="edge"><title>Node27&#45;&gt;Node2</title>
<path fill="none" stroke="midnightblue" d="M853.312,-179.298C861.945,-159.589 883.135,-111.211 894.685,-84.842"/>
<polygon fill="midnightblue" stroke="midnightblue" points="897.917,-86.1873 898.723,-75.6232 891.505,-83.3787 897.917,-86.1873"/>
</g>
<!-- Node27&#45;&gt;Node15 -->
<g id="edge36" class="edge"><title>Node27&#45;&gt;Node15</title>
<path fill="none" stroke="midnightblue" d="M845.058,-179.475C840.547,-170.815 833.426,-157.149 827.693,-146.145"/>
<polygon fill="midnightblue" stroke="midnightblue" points="830.658,-144.26 822.933,-137.009 824.45,-147.495 830.658,-144.26"/>
</g>
<!-- Node28&#45;&gt;Node2 -->
<g id="edge39" class="edge"><title>Node28&#45;&gt;Node2</title>
<path fill="none" stroke="midnightblue" d="M1084.38,-179.401C1071.31,-164.081 1042.03,-131.815 1011.5,-112 989.608,-97.7928 962.491,-86.5765 940.781,-78.8953"/>
<polygon fill="midnightblue" stroke="midnightblue" points="941.819,-75.5513 931.224,-75.6168 939.547,-82.1725 941.819,-75.5513"/>
</g>
<!-- Node29 -->
<g id="node29" class="node"><title>Node29</title>
<g id="a_node29"><a xlink:href="sys__error__code_8h.html" target="_top" xlink:title=" ">
<polygon fill="white" stroke="black" points="1063.5,-118 1063.5,-137 1155.5,-137 1155.5,-118 1063.5,-118"/>
<text text-anchor="middle" x="1109.5" y="-125" font-family="Helvetica,sans-Serif" font-size="10.00">sys_error_code.h</text>
</a>
</g>
</g>
<!-- Node28&#45;&gt;Node29 -->
<g id="edge40" class="edge"><title>Node28&#45;&gt;Node29</title>
<path fill="none" stroke="midnightblue" d="M1094.08,-179.475C1096.65,-170.992 1100.67,-157.704 1103.96,-146.822"/>
<polygon fill="midnightblue" stroke="midnightblue" points="1107.38,-147.594 1106.93,-137.009 1100.68,-145.567 1107.38,-147.594"/>
</g>
<!-- Node28&#45;&gt;Node30 -->
<g id="edge43" class="edge"><title>Node28&#45;&gt;Node30</title>
<path fill="none" stroke="midnightblue" d="M1114.26,-179.48C1130.62,-172.21 1151.93,-160.182 1164.5,-143 1176.77,-126.234 1181.16,-102.418 1182.71,-85.934"/>
<polygon fill="midnightblue" stroke="midnightblue" points="1186.21,-86.0832 1183.39,-75.8704 1179.22,-85.6121 1186.21,-86.0832"/>
</g>
<!-- Node29&#45;&gt;Node2 -->
<g id="edge41" class="edge"><title>Node29&#45;&gt;Node2</title>
<path fill="none" stroke="midnightblue" d="M1079.84,-117.975C1043.57,-107.548 982.036,-89.8618 941.836,-78.3066"/>
<polygon fill="midnightblue" stroke="midnightblue" points="942.681,-74.9079 932.103,-75.5091 940.747,-81.6355 942.681,-74.9079"/>
</g>
<!-- Node29&#45;&gt;Node30 -->
<g id="edge42" class="edge"><title>Node29&#45;&gt;Node30</title>
<path fill="none" stroke="midnightblue" d="M1120.1,-117.975C1131.75,-108.608 1150.69,-93.3839 1164.83,-82.0081"/>
<polygon fill="midnightblue" stroke="midnightblue" points="1167.32,-84.503 1172.92,-75.5091 1162.93,-79.0477 1167.32,-84.503"/>
</g>
<!-- Node31&#45;&gt;Node2 -->
<g id="edge51" class="edge"><title>Node31&#45;&gt;Node2</title>
<path fill="none" stroke="midnightblue" d="M638.316,-181.981C662.731,-174.732 702.993,-161.22 734.5,-143 753.368,-132.089 753.465,-122.617 772.5,-112 799.2,-97.108 831.703,-85.8575 857.529,-78.3303"/>
<polygon fill="midnightblue" stroke="midnightblue" points="858.761,-81.6191 867.431,-75.5297 856.856,-74.8833 858.761,-81.6191"/>
</g>
<!-- Node31&#45;&gt;Node15 -->
<g id="edge48" class="edge"><title>Node31&#45;&gt;Node15</title>
<path fill="none" stroke="midnightblue" d="M638.118,-181.632C671.944,-171.669 737.863,-152.252 779.956,-139.853"/>
<polygon fill="midnightblue" stroke="midnightblue" points="780.988,-143.198 789.592,-137.015 779.01,-136.483 780.988,-143.198"/>
</g>
<!-- Node31&#45;&gt;Node18 -->
<g id="edge49" class="edge"><title>Node31&#45;&gt;Node18</title>
<path fill="none" stroke="midnightblue" d="M594.787,-185.92C547.344,-181.068 431.106,-167.516 336.5,-143 333.521,-142.228 330.453,-141.324 327.403,-140.35"/>
<polygon fill="midnightblue" stroke="midnightblue" points="328.45,-137.009 317.855,-137.082 326.183,-143.632 328.45,-137.009"/>
</g>
<!-- Node32 -->
<g id="node32" class="node"><title>Node32</title>
<g id="a_node32"><a xlink:title=" ">
<polygon fill="white" stroke="#bfbfbf" points="665.5,-118 665.5,-137 725.5,-137 725.5,-118 665.5,-118"/>
<text text-anchor="middle" x="695.5" y="-125" font-family="Helvetica,sans-Serif" font-size="10.00">fmt/core.h</text>
</a>
</g>
</g>
<!-- Node31&#45;&gt;Node32 -->
<g id="edge45" class="edge"><title>Node31&#45;&gt;Node32</title>
<path fill="none" stroke="midnightblue" d="M627.819,-179.475C640.373,-170.02 660.851,-154.596 675.999,-143.187"/>
<polygon fill="midnightblue" stroke="midnightblue" points="678.32,-145.821 684.202,-137.009 674.109,-140.23 678.32,-145.821"/>
</g>
<!-- Node33 -->
<g id="node33" class="node"><title>Node33</title>
<g id="a_node33"><a xlink:title=" ">
<polygon fill="white" stroke="#bfbfbf" points="413.5,-118 413.5,-137 481.5,-137 481.5,-118 413.5,-118"/>
<text text-anchor="middle" x="447.5" y="-125" font-family="Helvetica,sans-Serif" font-size="10.00">fmt/format.h</text>
</a>
</g>
</g>
<!-- Node31&#45;&gt;Node33 -->
<g id="edge46" class="edge"><title>Node31&#45;&gt;Node33</title>
<path fill="none" stroke="midnightblue" d="M594.752,-180.343C566.029,-170.231 515.144,-152.315 481.364,-140.422"/>
<polygon fill="midnightblue" stroke="midnightblue" points="482.493,-137.109 471.898,-137.09 480.168,-143.712 482.493,-137.109"/>
</g>
<!-- Node34 -->
<g id="node34" class="node"><title>Node34</title>
<g id="a_node34"><a xlink:title=" ">
<polygon fill="white" stroke="#bfbfbf" points="499.5,-118 499.5,-137 545.5,-137 545.5,-118 499.5,-118"/>
<text text-anchor="middle" x="522.5" y="-125" font-family="Helvetica,sans-Serif" font-size="10.00">cstring</text>
</a>
</g>
</g>
<!-- Node31&#45;&gt;Node34 -->
<g id="edge47" class="edge"><title>Node31&#45;&gt;Node34</title>
<path fill="none" stroke="midnightblue" d="M603.032,-179.475C587.815,-169.843 562.813,-154.017 544.699,-142.552"/>
<polygon fill="midnightblue" stroke="midnightblue" points="546.264,-139.4 535.943,-137.009 542.521,-145.315 546.264,-139.4"/>
</g>
<!-- Node35 -->
<g id="node35" class="node"><title>Node35</title>
<g id="a_node35"><a xlink:title=" ">
<polygon fill="white" stroke="#bfbfbf" points="564,-118 564,-137 647,-137 647,-118 564,-118"/>
<text text-anchor="middle" x="605.5" y="-125" font-family="Helvetica,sans-Serif" font-size="10.00">unordered_map</text>
</a>
</g>
</g>
<!-- Node31&#45;&gt;Node35 -->
<g id="edge50" class="edge"><title>Node31&#45;&gt;Node35</title>
<path fill="none" stroke="midnightblue" d="M614.924,-179.475C613.372,-171.08 610.95,-157.981 608.95,-147.163"/>
<polygon fill="midnightblue" stroke="midnightblue" points="612.333,-146.206 607.073,-137.009 605.449,-147.479 612.333,-146.206"/>
</g>
</g>
</svg>
        <g id="navigator" transform="translate(0 0)" fill="#404254">
                <rect fill="#f2f5e9" fill-opacity="0.5" stroke="#606060" stroke-width=".5" x="0" y="0" width="60" height="60"/>
                <use id="zoomplus" xlink:href="#zoomPlus" x="17" y="9" onmousedown="handleZoom(evt,'in')"/>
                <use id="zoomminus" xlink:href="#zoomMin" x="42" y="9" onmousedown="handleZoom(evt,'out')"/>
                <use id="reset" xlink:href="#resetDef" x="30" y="36" onmousedown="handleReset()"/>
                <g id="arrowUp" xlink:href="#dirArrow" transform="translate(30 24)" onmousedown="handlePan(0,-1)">
                  <use xlink:href="#rim" fill="#404040">
                        <set attributeName="fill" to="#808080" begin="arrowUp.mouseover" end="arrowUp.mouseout"/>
                  </use>
                  <path fill="none" stroke="white" stroke-width="1.5" d="M0,-3.0v7 M-2.5,-0.5L0,-3.0L2.5,-0.5"/>
                </g>
                <g id="arrowRight" xlink:href="#dirArrow" transform="rotate(90) translate(36 -43)" onmousedown="handlePan(1,0)">
                  <use xlink:href="#rim" fill="#404040">
                        <set attributeName="fill" to="#808080" begin="arrowRight.mouseover" end="arrowRight.mouseout"/>
                  </use>
                  <path fill="none" stroke="white" stroke-width="1.5" d="M0,-3.0v7 M-2.5,-0.5L0,-3.0L2.5,-0.5"/>
                </g>
                <g id="arrowDown" xlink:href="#dirArrow" transform="rotate(180) translate(-30 -48)" onmousedown="handlePan(0,1)">
                  <use xlink:href="#rim" fill="#404040">
                        <set attributeName="fill" to="#808080" begin="arrowDown.mouseover" end="arrowDown.mouseout"/>
                  </use>
                  <path fill="none" stroke="white" stroke-width="1.5" d="M0,-3.0v7 M-2.5,-0.5L0,-3.0L2.5,-0.5"/>
                </g>
                <g id="arrowLeft" xlink:href="#dirArrow" transform="rotate(270) translate(-36 17)" onmousedown="handlePan(-1,0)">
                  <use xlink:href="#rim" fill="#404040">
                        <set attributeName="fill" to="#808080" begin="arrowLeft.mouseover" end="arrowLeft.mouseout"/>
                  </use>
                  <path fill="none" stroke="white" stroke-width="1.5" d="M0,-3.0v7 M-2.5,-0.5L0,-3.0L2.5,-0.5"/>
                </g>
        </g>
        <svg viewBox="0 0 15 15" width="100%" height="30px" preserveAspectRatio="xMaxYMin meet">
         <g id="arrow_out" transform="scale(0.3 0.3)">
          <a xlink:href="win_2executor__select__impl_8h__incl_org.svg" target="_base">
           <rect id="button" ry="5" rx="5" y="6" x="6" height="38" width="38"
                fill="#f2f5e9" fill-opacity="0.5" stroke="#606060" stroke-width="1.0"/>
           <path id="arrow"
             d="M 11.500037,31.436501 C 11.940474,20.09759 22.043105,11.32322 32.158766,21.979434 L 37.068811,17.246167 C 37.068811,17.246167 37.088388,32 37.088388,32 L 22.160133,31.978069 C 22.160133,31.978069 26.997745,27.140456 26.997745,27.140456 C 18.528582,18.264221 13.291696,25.230495 11.500037,31.436501 z"
             style="fill:#404040;"/>
          </a>
         </g>
        </svg>
</svg>
