<?xml version="1.0" encoding="UTF-8" standalone="no"?>
<!DOCTYPE svg PUBLIC "-//W3C//DTD SVG 1.1//EN"
 "http://www.w3.org/Graphics/SVG/1.1/DTD/svg11.dtd">
<!-- Generated by graphviz version 2.38.0 (20140413.2041)
 -->
<!-- Title: C:/projects/ndt/sources/include/ndt/platform/win/executor_select_impl.h Pages: 1 -->
<svg width="1494pt" height="464pt"
 viewBox="0.00 0.00 1493.50 464.00" xmlns="http://www.w3.org/2000/svg" xmlns:xlink="http://www.w3.org/1999/xlink">
<g id="graph0" class="graph" transform="scale(1 1) rotate(0) translate(4 460)">
<title>C:/projects/ndt/sources/include/ndt/platform/win/executor_select_impl.h</title>
<polygon fill="white" stroke="none" points="-4,4 -4,-460 1489.5,-460 1489.5,4 -4,4"/>
<!-- Node1 -->
<g id="node1" class="node"><title>Node1</title>
<g id="a_node1"><a xlink:title=" ">
<polygon fill="#bfbfbf" stroke="black" points="92,-414.5 92,-455.5 229,-455.5 229,-414.5 92,-414.5"/>
<text text-anchor="start" x="100" y="-443.5" font-family="Helvetica,sans-Serif" font-size="10.00">C:/projects/ndt/sources</text>
<text text-anchor="start" x="100" y="-432.5" font-family="Helvetica,sans-Serif" font-size="10.00">/include/ndt/platform</text>
<text text-anchor="middle" x="160.5" y="-421.5" font-family="Helvetica,sans-Serif" font-size="10.00">/win/executor_select_impl.h</text>
</a>
</g>
</g>
<!-- Node2 -->
<g id="node2" class="node"><title>Node2</title>
<g id="a_node2"><a xlink:href="common_8h.html" target="_top" xlink:title="Header with typedefs to make type designation platform independent.">
<polygon fill="white" stroke="black" points="302.5,-56.5 302.5,-75.5 382.5,-75.5 382.5,-56.5 302.5,-56.5"/>
<text text-anchor="middle" x="342.5" y="-63.5" font-family="Helvetica,sans-Serif" font-size="10.00">../../common.h</text>
</a>
</g>
</g>
<!-- Node1&#45;&gt;Node2 -->
<g id="edge1" class="edge"><title>Node1&#45;&gt;Node2</title>
<path fill="none" stroke="midnightblue" d="M125.416,-414.438C90.6324,-392.162 42.5,-352.257 42.5,-302 42.5,-302 42.5,-302 42.5,-188 42.5,-148.049 57.3501,-134.296 90.5,-112 122.725,-90.3257 228.401,-77.272 292.219,-71.1702"/>
<polygon fill="midnightblue" stroke="midnightblue" points="292.836,-74.628 302.469,-70.2155 292.187,-67.6581 292.836,-74.628"/>
</g>
<!-- Node12 -->
<g id="node12" class="node"><title>Node12</title>
<g id="a_node12"><a xlink:href="executor__select__base_8h.html" target="_top" xlink:title=" ">
<polygon fill="white" stroke="black" points="260.5,-347.5 260.5,-377.5 364.5,-377.5 364.5,-347.5 260.5,-347.5"/>
<text text-anchor="start" x="268.5" y="-365.5" font-family="Helvetica,sans-Serif" font-size="10.00">../../executor_select</text>
<text text-anchor="middle" x="312.5" y="-354.5" font-family="Helvetica,sans-Serif" font-size="10.00">_base.h</text>
</a>
</g>
</g>
<!-- Node1&#45;&gt;Node12 -->
<g id="edge11" class="edge"><title>Node1&#45;&gt;Node12</title>
<path fill="none" stroke="midnightblue" d="M202.84,-414.362C224.725,-404.211 251.276,-391.897 272.77,-381.927"/>
<polygon fill="midnightblue" stroke="midnightblue" points="274.35,-385.053 281.949,-377.67 271.405,-378.703 274.35,-385.053"/>
</g>
<!-- Node3 -->
<g id="node3" class="node"><title>Node3</title>
<g id="a_node3"><a xlink:title=" ">
<polygon fill="white" stroke="#bfbfbf" points="458.5,-0.5 458.5,-19.5 520.5,-19.5 520.5,-0.5 458.5,-0.5"/>
<text text-anchor="middle" x="489.5" y="-7.5" font-family="Helvetica,sans-Serif" font-size="10.00">arpa/inet.h</text>
</a>
</g>
</g>
<!-- Node2&#45;&gt;Node3 -->
<g id="edge2" class="edge"><title>Node2&#45;&gt;Node3</title>
<path fill="none" stroke="midnightblue" d="M365.793,-56.4435C390.307,-47.4381 429.096,-33.1891 456.7,-23.049"/>
<polygon fill="midnightblue" stroke="midnightblue" points="458.137,-26.25 466.316,-19.5164 455.723,-19.6793 458.137,-26.25"/>
</g>
<!-- Node4 -->
<g id="node4" class="node"><title>Node4</title>
<g id="a_node4"><a xlink:title=" ">
<polygon fill="white" stroke="#bfbfbf" points="539,-0.5 539,-19.5 586,-19.5 586,-0.5 539,-0.5"/>
<text text-anchor="middle" x="562.5" y="-7.5" font-family="Helvetica,sans-Serif" font-size="10.00">errno.h</text>
</a>
</g>
</g>
<!-- Node2&#45;&gt;Node4 -->
<g id="edge3" class="edge"><title>Node2&#45;&gt;Node4</title>
<path fill="none" stroke="midnightblue" d="M379.482,-56.4469C415.198,-48.1098 471.057,-34.8701 528.709,-20.1445"/>
<polygon fill="midnightblue" stroke="midnightblue" points="529.913,-23.4493 538.73,-17.5746 528.174,-16.6687 529.913,-23.4493"/>
</g>
<!-- Node5 -->
<g id="node5" class="node"><title>Node5</title>
<g id="a_node5"><a xlink:title=" ">
<polygon fill="white" stroke="#bfbfbf" points="0,-0.5 0,-19.5 43,-19.5 43,-0.5 0,-0.5"/>
<text text-anchor="middle" x="21.5" y="-7.5" font-family="Helvetica,sans-Serif" font-size="10.00">fcntl.h</text>
</a>
</g>
</g>
<!-- Node2&#45;&gt;Node5 -->
<g id="edge4" class="edge"><title>Node2&#45;&gt;Node5</title>
<path fill="none" stroke="midnightblue" d="M302.16,-60.548C247.606,-54.1373 147.171,-40.9595 53.0069,-20.0928"/>
<polygon fill="midnightblue" stroke="midnightblue" points="53.5601,-16.6298 43.0356,-17.8485 52.0229,-23.459 53.5601,-16.6298"/>
</g>
<!-- Node6 -->
<g id="node6" class="node"><title>Node6</title>
<g id="a_node6"><a xlink:title=" ">
<polygon fill="white" stroke="#bfbfbf" points="61,-0.5 61,-19.5 110,-19.5 110,-0.5 61,-0.5"/>
<text text-anchor="middle" x="85.5" y="-7.5" font-family="Helvetica,sans-Serif" font-size="10.00">netdb.h</text>
</a>
</g>
</g>
<!-- Node2&#45;&gt;Node6 -->
<g id="edge5" class="edge"><title>Node2&#45;&gt;Node6</title>
<path fill="none" stroke="midnightblue" d="M302.262,-57.7698C259.395,-49.8787 189.341,-36.4448 120.469,-20.3561"/>
<polygon fill="midnightblue" stroke="midnightblue" points="120.856,-16.8514 110.32,-17.9634 119.25,-23.6646 120.856,-16.8514"/>
</g>
<!-- Node7 -->
<g id="node7" class="node"><title>Node7</title>
<g id="a_node7"><a xlink:title=" ">
<polygon fill="white" stroke="#bfbfbf" points="128,-0.5 128,-19.5 193,-19.5 193,-0.5 128,-0.5"/>
<text text-anchor="middle" x="160.5" y="-7.5" font-family="Helvetica,sans-Serif" font-size="10.00">netinet/in.h</text>
</a>
</g>
</g>
<!-- Node2&#45;&gt;Node7 -->
<g id="edge6" class="edge"><title>Node2&#45;&gt;Node7</title>
<path fill="none" stroke="midnightblue" d="M313.662,-56.4435C282.644,-47.2406 233.171,-32.5617 198.882,-22.3879"/>
<polygon fill="midnightblue" stroke="midnightblue" points="199.786,-19.0055 189.204,-19.5164 197.795,-25.7164 199.786,-19.0055"/>
</g>
<!-- Node8 -->
<g id="node8" class="node"><title>Node8</title>
<g id="a_node8"><a xlink:title=" ">
<polygon fill="white" stroke="#bfbfbf" points="211,-0.5 211,-19.5 284,-19.5 284,-0.5 211,-0.5"/>
<text text-anchor="middle" x="247.5" y="-7.5" font-family="Helvetica,sans-Serif" font-size="10.00">sys/socket.h</text>
</a>
</g>
</g>
<!-- Node2&#45;&gt;Node8 -->
<g id="edge7" class="edge"><title>Node2&#45;&gt;Node8</title>
<path fill="none" stroke="midnightblue" d="M327.237,-56.324C312.279,-47.8215 289.245,-34.7288 271.773,-24.7975"/>
<polygon fill="midnightblue" stroke="midnightblue" points="273.149,-21.5534 262.726,-19.6545 269.69,-27.639 273.149,-21.5534"/>
</g>
<!-- Node9 -->
<g id="node9" class="node"><title>Node9</title>
<g id="a_node9"><a xlink:title=" ">
<polygon fill="white" stroke="#bfbfbf" points="302.5,-0.5 302.5,-19.5 370.5,-19.5 370.5,-0.5 302.5,-0.5"/>
<text text-anchor="middle" x="336.5" y="-7.5" font-family="Helvetica,sans-Serif" font-size="10.00">sys/types.h</text>
</a>
</g>
</g>
<!-- Node2&#45;&gt;Node9 -->
<g id="edge8" class="edge"><title>Node2&#45;&gt;Node9</title>
<path fill="none" stroke="midnightblue" d="M341.509,-56.083C340.714,-48.9272 339.571,-38.6353 338.577,-29.6911"/>
<polygon fill="midnightblue" stroke="midnightblue" points="342.055,-29.3034 337.472,-19.7511 335.098,-30.0765 342.055,-29.3034"/>
</g>
<!-- Node10 -->
<g id="node10" class="node"><title>Node10</title>
<g id="a_node10"><a xlink:title=" ">
<polygon fill="white" stroke="#bfbfbf" points="389,-0.5 389,-19.5 440,-19.5 440,-0.5 389,-0.5"/>
<text text-anchor="middle" x="414.5" y="-7.5" font-family="Helvetica,sans-Serif" font-size="10.00">unistd.h</text>
</a>
</g>
</g>
<!-- Node2&#45;&gt;Node10 -->
<g id="edge9" class="edge"><title>Node2&#45;&gt;Node10</title>
<path fill="none" stroke="midnightblue" d="M354.068,-56.324C364.92,-48.1849 381.381,-35.8395 394.383,-26.0874"/>
<polygon fill="midnightblue" stroke="midnightblue" points="396.821,-28.6339 402.721,-19.8339 392.621,-23.0339 396.821,-28.6339"/>
</g>
<!-- Node11 -->
<g id="node11" class="node"><title>Node11</title>
<g id="a_node11"><a xlink:title=" ">
<polygon fill="white" stroke="#bfbfbf" points="604.5,-0.5 604.5,-19.5 652.5,-19.5 652.5,-0.5 604.5,-0.5"/>
<text text-anchor="middle" x="628.5" y="-7.5" font-family="Helvetica,sans-Serif" font-size="10.00">cstddef</text>
</a>
</g>
</g>
<!-- Node2&#45;&gt;Node11 -->
<g id="edge10" class="edge"><title>Node2&#45;&gt;Node11</title>
<path fill="none" stroke="midnightblue" d="M382.855,-58.841C432.788,-50.9801 520.298,-36.4169 594.5,-20 594.601,-19.9777 594.701,-19.9554 594.802,-19.9329"/>
<polygon fill="midnightblue" stroke="midnightblue" points="595.5,-23.3647 604.414,-17.6371 593.874,-16.5562 595.5,-23.3647"/>
</g>
<!-- Node12&#45;&gt;Node2 -->
<g id="edge15" class="edge"><title>Node12&#45;&gt;Node2</title>
<path fill="none" stroke="midnightblue" d="M260.435,-358.108C192.033,-350.505 80.5,-325.863 80.5,-246 80.5,-246 80.5,-246 80.5,-188 80.5,-95.7653 215.984,-73.613 292.097,-68.4455"/>
<polygon fill="midnightblue" stroke="midnightblue" points="292.651,-71.9185 302.423,-67.8235 292.23,-64.9312 292.651,-71.9185"/>
</g>
<!-- Node13 -->
<g id="node13" class="node"><title>Node13</title>
<g id="a_node13"><a xlink:title=" ">
<polygon fill="white" stroke="#bfbfbf" points="1447.5,-56.5 1447.5,-75.5 1485.5,-75.5 1485.5,-56.5 1447.5,-56.5"/>
<text text-anchor="middle" x="1466.5" y="-63.5" font-family="Helvetica,sans-Serif" font-size="10.00">array</text>
</a>
</g>
</g>
<!-- Node12&#45;&gt;Node13 -->
<g id="edge12" class="edge"><title>Node12&#45;&gt;Node13</title>
<path fill="none" stroke="midnightblue" d="M364.727,-361.079C571.751,-358.732 1323.5,-343.496 1323.5,-246 1323.5,-246 1323.5,-246 1323.5,-188 1323.5,-128.688 1396.08,-92.4735 1437.82,-76.5497"/>
<polygon fill="midnightblue" stroke="midnightblue" points="1439.03,-79.8355 1447.21,-73.1097 1436.62,-73.2625 1439.03,-79.8355"/>
</g>
<!-- Node14 -->
<g id="node14" class="node"><title>Node14</title>
<g id="a_node14"><a xlink:title=" ">
<polygon fill="white" stroke="#bfbfbf" points="184.5,-235.5 184.5,-254.5 242.5,-254.5 242.5,-235.5 184.5,-235.5"/>
<text text-anchor="middle" x="213.5" y="-242.5" font-family="Helvetica,sans-Serif" font-size="10.00">functional</text>
</a>
</g>
</g>
<!-- Node12&#45;&gt;Node14 -->
<g id="edge13" class="edge"><title>Node12&#45;&gt;Node14</title>
<path fill="none" stroke="midnightblue" d="M300.361,-347.337C281.956,-325.865 247.076,-285.172 227.582,-262.429"/>
<polygon fill="midnightblue" stroke="midnightblue" points="230.096,-259.984 220.931,-254.669 224.782,-264.54 230.096,-259.984"/>
</g>
<!-- Node15 -->
<g id="node15" class="node"><title>Node15</title>
<g id="a_node15"><a xlink:title=" ">
<polygon fill="white" stroke="#bfbfbf" points="613.5,-56.5 613.5,-75.5 687.5,-75.5 687.5,-56.5 613.5,-56.5"/>
<text text-anchor="middle" x="650.5" y="-63.5" font-family="Helvetica,sans-Serif" font-size="10.00">system_error</text>
</a>
</g>
</g>
<!-- Node12&#45;&gt;Node15 -->
<g id="edge14" class="edge"><title>Node12&#45;&gt;Node15</title>
<path fill="none" stroke="midnightblue" d="M364.53,-352.476C478.628,-331.406 744.064,-274.941 786.5,-199 816.219,-145.817 731.805,-100.514 682.808,-79.5128"/>
<polygon fill="midnightblue" stroke="midnightblue" points="684.103,-76.2604 673.526,-75.6415 681.408,-82.7211 684.103,-76.2604"/>
</g>
<!-- Node16 -->
<g id="node16" class="node"><title>Node16</title>
<g id="a_node16"><a xlink:href="event__handler__select_8h.html" target="_top" xlink:title=" ">
<polygon fill="white" stroke="black" points="854.5,-235.5 854.5,-254.5 970.5,-254.5 970.5,-235.5 854.5,-235.5"/>
<text text-anchor="middle" x="912.5" y="-242.5" font-family="Helvetica,sans-Serif" font-size="10.00">event_handler_select.h</text>
</a>
</g>
</g>
<!-- Node12&#45;&gt;Node16 -->
<g id="edge16" class="edge"><title>Node12&#45;&gt;Node16</title>
<path fill="none" stroke="midnightblue" d="M364.71,-360.645C480.677,-358.085 756.121,-348.162 840.5,-311 864.947,-300.233 886.742,-277.853 899.785,-262.385"/>
<polygon fill="midnightblue" stroke="midnightblue" points="902.503,-264.59 906.092,-254.621 897.07,-260.176 902.503,-264.59"/>
</g>
<!-- Node21 -->
<g id="node21" class="node"><title>Node21</title>
<g id="a_node21"><a xlink:href="socket_8h.html" target="_top" xlink:title=" ">
<polygon fill="white" stroke="black" points="319.5,-291.5 319.5,-310.5 373.5,-310.5 373.5,-291.5 319.5,-291.5"/>
<text text-anchor="middle" x="346.5" y="-298.5" font-family="Helvetica,sans-Serif" font-size="10.00">socket.h</text>
</a>
</g>
</g>
<!-- Node12&#45;&gt;Node21 -->
<g id="edge23" class="edge"><title>Node12&#45;&gt;Node21</title>
<path fill="none" stroke="midnightblue" d="M320.558,-347.399C325.345,-339.021 331.456,-328.327 336.544,-319.423"/>
<polygon fill="midnightblue" stroke="midnightblue" points="339.63,-321.077 341.553,-310.658 333.552,-317.604 339.63,-321.077"/>
</g>
<!-- Node17 -->
<g id="node17" class="node"><title>Node17</title>
<g id="a_node17"><a xlink:title=" ">
<polygon fill="white" stroke="#bfbfbf" points="705.5,-56.5 705.5,-75.5 751.5,-75.5 751.5,-56.5 705.5,-56.5"/>
<text text-anchor="middle" x="728.5" y="-63.5" font-family="Helvetica,sans-Serif" font-size="10.00">cstdint</text>
</a>
</g>
</g>
<!-- Node16&#45;&gt;Node17 -->
<g id="edge17" class="edge"><title>Node16&#45;&gt;Node17</title>
<path fill="none" stroke="midnightblue" d="M906.135,-235.265C889.665,-213.024 843.634,-153.108 796.5,-112 782.977,-100.206 766.176,-89.0595 752.657,-80.8105"/>
<polygon fill="midnightblue" stroke="midnightblue" points="754.284,-77.706 743.903,-75.5902 750.699,-83.7182 754.284,-77.706"/>
</g>
<!-- Node18 -->
<g id="node18" class="node"><title>Node18</title>
<g id="a_node18"><a xlink:title=" ">
<polygon fill="white" stroke="#bfbfbf" points="973.5,-56.5 973.5,-75.5 1035.5,-75.5 1035.5,-56.5 973.5,-56.5"/>
<text text-anchor="middle" x="1004.5" y="-63.5" font-family="Helvetica,sans-Serif" font-size="10.00">type_traits</text>
</a>
</g>
</g>
<!-- Node16&#45;&gt;Node18 -->
<g id="edge18" class="edge"><title>Node16&#45;&gt;Node18</title>
<path fill="none" stroke="midnightblue" d="M933.813,-235.348C949.781,-227.877 971.1,-215.652 984.5,-199 1010.94,-166.147 1009.9,-113.322 1007.09,-85.5044"/>
<polygon fill="midnightblue" stroke="midnightblue" points="1010.56,-85.0591 1005.89,-75.5484 1003.61,-85.8947 1010.56,-85.0591"/>
</g>
<!-- Node19 -->
<g id="node19" class="node"><title>Node19</title>
<g id="a_node19"><a xlink:href="executor__select_8h.html" target="_top" xlink:title=" ">
<polygon fill="white" stroke="black" points="666.5,-179.5 666.5,-198.5 760.5,-198.5 760.5,-179.5 666.5,-179.5"/>
<text text-anchor="middle" x="713.5" y="-186.5" font-family="Helvetica,sans-Serif" font-size="10.00">executor_select.h</text>
</a>
</g>
</g>
<!-- Node16&#45;&gt;Node19 -->
<g id="edge19" class="edge"><title>Node16&#45;&gt;Node19</title>
<path fill="none" stroke="midnightblue" d="M880.968,-235.444C846.908,-226.201 792.494,-211.436 754.985,-201.257"/>
<polygon fill="midnightblue" stroke="midnightblue" points="755.452,-197.758 744.885,-198.516 753.619,-204.513 755.452,-197.758"/>
</g>
<!-- Node20 -->
<g id="node20" class="node"><title>Node20</title>
<g id="a_node20"><a xlink:href="nix_2executor__select__impl_8h.html" target="_top" xlink:title=" ">
<polygon fill="white" stroke="black" points="335,-112.5 335,-142.5 442,-142.5 442,-112.5 335,-112.5"/>
<text text-anchor="start" x="343" y="-130.5" font-family="Helvetica,sans-Serif" font-size="10.00">platform/nix/executor</text>
<text text-anchor="middle" x="388.5" y="-119.5" font-family="Helvetica,sans-Serif" font-size="10.00">_select_impl.h</text>
</a>
</g>
</g>
<!-- Node19&#45;&gt;Node20 -->
<g id="edge20" class="edge"><title>Node19&#45;&gt;Node20</title>
<path fill="none" stroke="midnightblue" d="M666.935,-179.475C610.456,-169.135 514.989,-151.657 451.85,-140.098"/>
<polygon fill="midnightblue" stroke="midnightblue" points="452.472,-136.654 442.005,-138.296 451.211,-143.539 452.472,-136.654"/>
</g>
<!-- Node20&#45;&gt;Node2 -->
<g id="edge21" class="edge"><title>Node20&#45;&gt;Node2</title>
<path fill="none" stroke="midnightblue" d="M377.599,-112.399C370.914,-103.753 362.324,-92.642 355.315,-83.576"/>
<polygon fill="midnightblue" stroke="midnightblue" points="358.079,-81.4284 349.193,-75.6578 352.541,-85.7099 358.079,-81.4284"/>
</g>
<!-- Node20&#45;&gt;Node12 -->
<g id="edge22" class="edge"><title>Node20&#45;&gt;Node12</title>
<path fill="none" stroke="midnightblue" d="M372.019,-142.721C353.169,-158.372 320.849,-183.377 289.5,-199 241.946,-222.7 206.908,-192.144 175.5,-235 142.892,-279.493 214.387,-320.799 265.848,-343.45"/>
<polygon fill="midnightblue" stroke="midnightblue" points="264.625,-346.733 275.195,-347.459 267.384,-340.3 264.625,-346.733"/>
</g>
<!-- Node21&#45;&gt;Node2 -->
<g id="edge70" class="edge"><title>Node21&#45;&gt;Node2</title>
<path fill="none" stroke="midnightblue" d="M346.963,-291.471C348.577,-269.857 355.698,-212.294 386.5,-179 408.663,-155.044 434.024,-171.171 450.5,-143 457.456,-131.107 458.143,-123.464 450.5,-112 437.456,-92.4338 414.123,-81.3614 392.474,-75.102"/>
<polygon fill="midnightblue" stroke="midnightblue" points="393.248,-71.687 382.689,-72.5516 391.483,-78.4607 393.248,-71.687"/>
</g>
<!-- Node21&#45;&gt;Node14 -->
<g id="edge25" class="edge"><title>Node21&#45;&gt;Node14</title>
<path fill="none" stroke="midnightblue" d="M325.426,-291.444C303.44,-282.517 268.766,-268.439 243.836,-258.317"/>
<polygon fill="midnightblue" stroke="midnightblue" points="245.058,-255.035 234.476,-254.516 242.424,-261.521 245.058,-255.035"/>
</g>
<!-- Node22 -->
<g id="node22" class="node"><title>Node22</title>
<g id="a_node22"><a xlink:title=" ">
<polygon fill="white" stroke="#bfbfbf" points="437,-56.5 437,-75.5 486,-75.5 486,-56.5 437,-56.5"/>
<text text-anchor="middle" x="461.5" y="-63.5" font-family="Helvetica,sans-Serif" font-size="10.00">cassert</text>
</a>
</g>
</g>
<!-- Node21&#45;&gt;Node22 -->
<g id="edge24" class="edge"><title>Node21&#45;&gt;Node22</title>
<path fill="none" stroke="midnightblue" d="M340.301,-291.108C330.17,-277.208 308.751,-250.34 284.5,-235 241.383,-207.727 205.388,-240.347 175.5,-199 164.329,-183.546 142.993,-151.206 177.5,-112 181.615,-107.325 351.979,-82.5813 426.832,-71.9076"/>
<polygon fill="midnightblue" stroke="midnightblue" points="427.326,-75.3727 436.733,-70.4985 426.339,-68.4426 427.326,-75.3727"/>
</g>
<!-- Node23 -->
<g id="node23" class="node"><title>Node23</title>
<g id="a_node23"><a xlink:href="address_8h.html" target="_top" xlink:title=" ">
<polygon fill="white" stroke="black" points="509,-235.5 509,-254.5 568,-254.5 568,-235.5 509,-235.5"/>
<text text-anchor="middle" x="538.5" y="-242.5" font-family="Helvetica,sans-Serif" font-size="10.00">address.h</text>
</a>
</g>
</g>
<!-- Node21&#45;&gt;Node23 -->
<g id="edge26" class="edge"><title>Node21&#45;&gt;Node23</title>
<path fill="none" stroke="midnightblue" d="M373.602,-292.378C406.199,-283.21 461.197,-267.741 498.636,-257.212"/>
<polygon fill="midnightblue" stroke="midnightblue" points="500.018,-260.459 508.697,-254.382 498.123,-253.72 500.018,-260.459"/>
</g>
<!-- Node29 -->
<g id="node29" class="node"><title>Node29</title>
<g id="a_node29"><a xlink:href="buffer_8h.html" target="_top" xlink:title=" ">
<polygon fill="white" stroke="black" points="626.5,-118 626.5,-137 674.5,-137 674.5,-118 626.5,-118"/>
<text text-anchor="middle" x="650.5" y="-125" font-family="Helvetica,sans-Serif" font-size="10.00">buffer.h</text>
</a>
</g>
</g>
<!-- Node21&#45;&gt;Node29 -->
<g id="edge69" class="edge"><title>Node21&#45;&gt;Node29</title>
<path fill="none" stroke="midnightblue" d="M373.602,-297.902C459.219,-290.646 721.096,-263.445 769.5,-199 795.067,-164.96 728.151,-144.256 684.584,-134.742"/>
<polygon fill="midnightblue" stroke="midnightblue" points="685.119,-131.279 674.615,-132.669 683.693,-138.132 685.119,-131.279"/>
</g>
<!-- Node34 -->
<g id="node34" class="node"><title>Node34</title>
<g id="a_node34"><a xlink:href="utils_8h.html" target="_top" xlink:title=" ">
<polygon fill="white" stroke="black" points="1109,-118 1109,-137 1152,-137 1152,-118 1109,-118"/>
<text text-anchor="middle" x="1130.5" y="-125" font-family="Helvetica,sans-Serif" font-size="10.00">utils.h</text>
</a>
</g>
</g>
<!-- Node21&#45;&gt;Node34 -->
<g id="edge73" class="edge"><title>Node21&#45;&gt;Node34</title>
<path fill="none" stroke="midnightblue" d="M373.505,-300.273C479.534,-301.009 867.015,-300.471 979.5,-255 1039.55,-230.724 1093.4,-173.123 1117.35,-144.799"/>
<polygon fill="midnightblue" stroke="midnightblue" points="1120.12,-146.951 1123.8,-137.017 1114.73,-142.485 1120.12,-146.951"/>
</g>
<!-- Node39 -->
<g id="node39" class="node"><title>Node39</title>
<g id="a_node39"><a xlink:href="exception_8h.html" target="_top" xlink:title=" ">
<polygon fill="white" stroke="black" points="502,-118 502,-137 569,-137 569,-118 502,-118"/>
<text text-anchor="middle" x="535.5" y="-125" font-family="Helvetica,sans-Serif" font-size="10.00">exception.h</text>
</a>
</g>
</g>
<!-- Node21&#45;&gt;Node39 -->
<g id="edge71" class="edge"><title>Node21&#45;&gt;Node39</title>
<path fill="none" stroke="midnightblue" d="M349.628,-291.29C358.721,-266.382 385.626,-195.584 403.5,-179 417.374,-166.127 462.463,-150.43 496.107,-139.987"/>
<polygon fill="midnightblue" stroke="midnightblue" points="497.154,-143.327 505.694,-137.056 495.108,-136.633 497.154,-143.327"/>
</g>
<!-- Node42 -->
<g id="node42" class="node"><title>Node42</title>
<g id="a_node42"><a xlink:href="useful__base__types_8h.html" target="_top" xlink:title=" ">
<polygon fill="white" stroke="black" points="105.5,-56.5 105.5,-75.5 211.5,-75.5 211.5,-56.5 105.5,-56.5"/>
<text text-anchor="middle" x="158.5" y="-63.5" font-family="Helvetica,sans-Serif" font-size="10.00">useful_base_types.h</text>
</a>
</g>
</g>
<!-- Node21&#45;&gt;Node42 -->
<g id="edge72" class="edge"><title>Node21&#45;&gt;Node42</title>
<path fill="none" stroke="midnightblue" d="M334.496,-291.288C312.941,-275.73 268.354,-243.955 251.5,-235 213.09,-214.593 186.219,-234.075 160.5,-199 135.962,-165.536 145.133,-113.381 152.605,-85.7112"/>
<polygon fill="midnightblue" stroke="midnightblue" points="156.061,-86.3621 155.504,-75.7819 149.341,-84.4001 156.061,-86.3621"/>
</g>
<!-- Node24 -->
<g id="node24" class="node"><title>Node24</title>
<g id="a_node24"><a xlink:title=" ">
<polygon fill="white" stroke="#bfbfbf" points="469,-179.5 469,-198.5 510,-198.5 510,-179.5 469,-179.5"/>
<text text-anchor="middle" x="489.5" y="-186.5" font-family="Helvetica,sans-Serif" font-size="10.00">string</text>
</a>
</g>
</g>
<!-- Node23&#45;&gt;Node24 -->
<g id="edge27" class="edge"><title>Node23&#45;&gt;Node24</title>
<path fill="none" stroke="midnightblue" d="M530.409,-235.083C523.345,-227.298 512.912,-215.801 504.351,-206.367"/>
<polygon fill="midnightblue" stroke="midnightblue" points="506.753,-203.805 497.441,-198.751 501.569,-208.509 506.753,-203.805"/>
</g>
<!-- Node25 -->
<g id="node25" class="node"><title>Node25</title>
<g id="a_node25"><a xlink:title=" ">
<polygon fill="white" stroke="#bfbfbf" points="566.5,-179.5 566.5,-198.5 610.5,-198.5 610.5,-179.5 566.5,-179.5"/>
<text text-anchor="middle" x="588.5" y="-186.5" font-family="Helvetica,sans-Serif" font-size="10.00">variant</text>
</a>
</g>
</g>
<!-- Node23&#45;&gt;Node25 -->
<g id="edge28" class="edge"><title>Node23&#45;&gt;Node25</title>
<path fill="none" stroke="midnightblue" d="M546.756,-235.083C553.965,-227.298 564.61,-215.801 573.346,-206.367"/>
<polygon fill="midnightblue" stroke="midnightblue" points="576.171,-208.467 580.397,-198.751 571.035,-203.711 576.171,-208.467"/>
</g>
<!-- Node26 -->
<g id="node26" class="node"><title>Node26</title>
<g id="a_node26"><a xlink:href="bin__rw_8h.html" target="_top" xlink:title=" ">
<polygon fill="white" stroke="black" points="923,-179.5 923,-198.5 976,-198.5 976,-179.5 923,-179.5"/>
<text text-anchor="middle" x="949.5" y="-186.5" font-family="Helvetica,sans-Serif" font-size="10.00">bin_rw.h</text>
</a>
</g>
</g>
<!-- Node23&#45;&gt;Node26 -->
<g id="edge29" class="edge"><title>Node23&#45;&gt;Node26</title>
<path fill="none" stroke="midnightblue" d="M568.058,-240.116C641.513,-230.465 832.204,-205.411 912.743,-194.829"/>
<polygon fill="midnightblue" stroke="midnightblue" points="913.445,-198.267 922.904,-193.494 912.533,-191.327 913.445,-198.267"/>
</g>
<!-- Node23&#45;&gt;Node29 -->
<g id="edge57" class="edge"><title>Node23&#45;&gt;Node29</title>
<path fill="none" stroke="midnightblue" d="M562.857,-235.376C580.547,-228.052 604.006,-216.004 619.5,-199 632.979,-184.208 641.293,-162.614 645.875,-147.228"/>
<polygon fill="midnightblue" stroke="midnightblue" points="649.326,-147.876 648.571,-137.308 642.571,-146.039 649.326,-147.876"/>
</g>
<!-- Node23&#45;&gt;Node34 -->
<g id="edge68" class="edge"><title>Node23&#45;&gt;Node34</title>
<path fill="none" stroke="midnightblue" d="M568.116,-244.531C640.631,-245.08 832.276,-241.984 984.5,-199 1030.78,-185.931 1080.32,-158.904 1108.15,-142.372"/>
<polygon fill="midnightblue" stroke="midnightblue" points="1110.3,-145.165 1117.05,-137.001 1106.68,-139.172 1110.3,-145.165"/>
</g>
<!-- Node23&#45;&gt;Node39 -->
<g id="edge58" class="edge"><title>Node23&#45;&gt;Node39</title>
<path fill="none" stroke="midnightblue" d="M538.275,-235.319C537.792,-216.757 536.652,-172.839 535.993,-147.473"/>
<polygon fill="midnightblue" stroke="midnightblue" points="539.487,-147.188 535.728,-137.282 532.489,-147.37 539.487,-147.188"/>
</g>
<!-- Node40 -->
<g id="node40" class="node"><title>Node40</title>
<g id="a_node40"><a xlink:href="sys__socket__ops_8h.html" target="_top" xlink:title=" ">
<polygon fill="white" stroke="black" points="184.5,-179.5 184.5,-198.5 280.5,-198.5 280.5,-179.5 184.5,-179.5"/>
<text text-anchor="middle" x="232.5" y="-186.5" font-family="Helvetica,sans-Serif" font-size="10.00">sys_socket_ops.h</text>
</a>
</g>
</g>
<!-- Node23&#45;&gt;Node40 -->
<g id="edge61" class="edge"><title>Node23&#45;&gt;Node40</title>
<path fill="none" stroke="midnightblue" d="M508.881,-238.773C458.624,-229.904 355.775,-211.754 290.696,-200.27"/>
<polygon fill="midnightblue" stroke="midnightblue" points="291.045,-196.778 280.589,-198.486 289.829,-203.671 291.045,-196.778"/>
</g>
<!-- Node43 -->
<g id="node43" class="node"><title>Node43</title>
<g id="a_node43"><a xlink:href="tag_8h.html" target="_top" xlink:title=" ">
<polygon fill="white" stroke="black" points="412.5,-179.5 412.5,-198.5 450.5,-198.5 450.5,-179.5 412.5,-179.5"/>
<text text-anchor="middle" x="431.5" y="-186.5" font-family="Helvetica,sans-Serif" font-size="10.00">tag.h</text>
</a>
</g>
</g>
<!-- Node23&#45;&gt;Node43 -->
<g id="edge67" class="edge"><title>Node23&#45;&gt;Node43</title>
<path fill="none" stroke="midnightblue" d="M521.309,-235.324C504.149,-226.664 477.554,-213.242 457.753,-203.249"/>
<polygon fill="midnightblue" stroke="midnightblue" points="459.153,-200.035 448.649,-198.655 455.999,-206.285 459.153,-200.035"/>
</g>
<!-- Node26&#45;&gt;Node18 -->
<g id="edge32" class="edge"><title>Node26&#45;&gt;Node18</title>
<path fill="none" stroke="midnightblue" d="M957.913,-179.428C965.861,-170.874 977.569,-157.018 984.5,-143 993.551,-124.695 998.855,-101.815 1001.7,-85.9678"/>
<polygon fill="midnightblue" stroke="midnightblue" points="1005.2,-86.2705 1003.35,-75.837 998.288,-85.1418 1005.2,-86.2705"/>
</g>
<!-- Node27 -->
<g id="node27" class="node"><title>Node27</title>
<g id="a_node27"><a xlink:title=" ">
<polygon fill="white" stroke="#bfbfbf" points="848.5,-118 848.5,-137 904.5,-137 904.5,-118 848.5,-118"/>
<text text-anchor="middle" x="876.5" y="-125" font-family="Helvetica,sans-Serif" font-size="10.00">algorithm</text>
</a>
</g>
</g>
<!-- Node26&#45;&gt;Node27 -->
<g id="edge30" class="edge"><title>Node26&#45;&gt;Node27</title>
<path fill="none" stroke="midnightblue" d="M939.041,-179.475C927.549,-170.108 908.87,-154.884 894.913,-143.508"/>
<polygon fill="midnightblue" stroke="midnightblue" points="896.902,-140.614 886.94,-137.009 892.48,-146.04 896.902,-140.614"/>
</g>
<!-- Node28 -->
<g id="node28" class="node"><title>Node28</title>
<g id="a_node28"><a xlink:title=" ">
<polygon fill="white" stroke="#bfbfbf" points="1053.5,-56.5 1053.5,-75.5 1099.5,-75.5 1099.5,-56.5 1053.5,-56.5"/>
<text text-anchor="middle" x="1076.5" y="-63.5" font-family="Helvetica,sans-Serif" font-size="10.00">cstring</text>
</a>
</g>
</g>
<!-- Node26&#45;&gt;Node28 -->
<g id="edge31" class="edge"><title>Node26&#45;&gt;Node28</title>
<path fill="none" stroke="midnightblue" d="M960.804,-179.433C972.174,-170.66 990.044,-156.442 1004.5,-143 1025.39,-123.576 1047.72,-99.4056 1061.88,-83.6078"/>
<polygon fill="midnightblue" stroke="midnightblue" points="1064.82,-85.5748 1068.85,-75.7759 1059.59,-80.9235 1064.82,-85.5748"/>
</g>
<!-- Node26&#45;&gt;Node29 -->
<g id="edge33" class="edge"><title>Node26&#45;&gt;Node29</title>
<path fill="none" stroke="midnightblue" d="M922.966,-182.72C868.765,-171.934 745.377,-147.38 685.029,-135.371"/>
<polygon fill="midnightblue" stroke="midnightblue" points="685.36,-131.869 674.869,-133.349 683.994,-138.734 685.36,-131.869"/>
</g>
<!-- Node30 -->
<g id="node30" class="node"><title>Node30</title>
<g id="a_node30"><a xlink:href="endian_8h.html" target="_top" xlink:title=" ">
<polygon fill="white" stroke="black" points="923,-118 923,-137 976,-137 976,-118 923,-118"/>
<text text-anchor="middle" x="949.5" y="-125" font-family="Helvetica,sans-Serif" font-size="10.00">endian.h</text>
</a>
</g>
</g>
<!-- Node26&#45;&gt;Node30 -->
<g id="edge40" class="edge"><title>Node26&#45;&gt;Node30</title>
<path fill="none" stroke="midnightblue" d="M949.5,-179.475C949.5,-171.08 949.5,-157.981 949.5,-147.163"/>
<polygon fill="midnightblue" stroke="midnightblue" points="953,-147.009 949.5,-137.009 946,-147.009 953,-147.009"/>
</g>
<!-- Node26&#45;&gt;Node34 -->
<g id="edge47" class="edge"><title>Node26&#45;&gt;Node34</title>
<path fill="none" stroke="midnightblue" d="M975.433,-179.475C1008.08,-168.742 1064.13,-150.317 1099.15,-138.805"/>
<polygon fill="midnightblue" stroke="midnightblue" points="1100.46,-142.06 1108.87,-135.612 1098.27,-135.41 1100.46,-142.06"/>
</g>
<!-- Node29&#45;&gt;Node2 -->
<g id="edge39" class="edge"><title>Node29&#45;&gt;Node2</title>
<path fill="none" stroke="midnightblue" d="M626.175,-121.625C611.983,-118.791 593.733,-115.166 577.5,-112 513.876,-99.5897 440.498,-85.5884 392.899,-76.5471"/>
<polygon fill="midnightblue" stroke="midnightblue" points="393.329,-73.0663 382.852,-74.6396 392.024,-79.9435 393.329,-73.0663"/>
</g>
<!-- Node29&#45;&gt;Node11 -->
<g id="edge35" class="edge"><title>Node29&#45;&gt;Node11</title>
<path fill="none" stroke="midnightblue" d="M638.836,-117.987C627.607,-108.998 611.351,-93.695 604.5,-76 598.279,-59.9321 606.533,-41.4962 615.011,-28.3722"/>
<polygon fill="midnightblue" stroke="midnightblue" points="618.11,-30.0516 621.021,-19.8645 612.392,-26.013 618.11,-30.0516"/>
</g>
<!-- Node29&#45;&gt;Node15 -->
<g id="edge37" class="edge"><title>Node29&#45;&gt;Node15</title>
<path fill="none" stroke="midnightblue" d="M650.5,-117.975C650.5,-109.58 650.5,-96.4806 650.5,-85.6631"/>
<polygon fill="midnightblue" stroke="midnightblue" points="654,-85.5091 650.5,-75.5091 647,-85.5091 654,-85.5091"/>
</g>
<!-- Node29&#45;&gt;Node17 -->
<g id="edge36" class="edge"><title>Node29&#45;&gt;Node17</title>
<path fill="none" stroke="midnightblue" d="M661.675,-117.975C674.071,-108.52 694.29,-93.0961 709.246,-81.6871"/>
<polygon fill="midnightblue" stroke="midnightblue" points="711.517,-84.357 717.345,-75.5091 707.272,-78.7914 711.517,-84.357"/>
</g>
<!-- Node29&#45;&gt;Node18 -->
<g id="edge38" class="edge"><title>Node29&#45;&gt;Node18</title>
<path fill="none" stroke="midnightblue" d="M674.619,-123.14C725.875,-115.891 849.606,-97.8043 963.192,-76.1601"/>
<polygon fill="midnightblue" stroke="midnightblue" points="963.935,-79.5815 973.096,-74.2587 962.615,-72.707 963.935,-79.5815"/>
</g>
<!-- Node29&#45;&gt;Node22 -->
<g id="edge34" class="edge"><title>Node29&#45;&gt;Node22</title>
<path fill="none" stroke="midnightblue" d="M626.178,-118.843C593.098,-108.429 533.732,-89.7398 496.043,-77.8747"/>
<polygon fill="midnightblue" stroke="midnightblue" points="496.617,-74.3861 486.028,-74.7216 494.515,-81.063 496.617,-74.3861"/>
</g>
<!-- Node30&#45;&gt;Node17 -->
<g id="edge42" class="edge"><title>Node30&#45;&gt;Node17</title>
<path fill="none" stroke="midnightblue" d="M929.891,-117.975C924.626,-115.859 918.895,-113.71 913.5,-112 849.9,-91.8379 829.922,-93.2776 761.522,-76.1518"/>
<polygon fill="midnightblue" stroke="midnightblue" points="762.095,-72.6858 751.54,-73.6079 760.366,-79.469 762.095,-72.6858"/>
</g>
<!-- Node30&#45;&gt;Node18 -->
<g id="edge45" class="edge"><title>Node30&#45;&gt;Node18</title>
<path fill="none" stroke="midnightblue" d="M957.38,-117.975C965.794,-108.873 979.319,-94.241 989.726,-82.983"/>
<polygon fill="midnightblue" stroke="midnightblue" points="992.417,-85.2282 996.634,-75.5091 987.276,-80.4766 992.417,-85.2282"/>
</g>
<!-- Node30&#45;&gt;Node28 -->
<g id="edge43" class="edge"><title>Node30&#45;&gt;Node28</title>
<path fill="none" stroke="midnightblue" d="M967.696,-117.975C989.009,-107.99 1024.53,-91.3476 1049.16,-79.8075"/>
<polygon fill="midnightblue" stroke="midnightblue" points="1050.77,-82.9211 1058.34,-75.5091 1047.8,-76.5822 1050.77,-82.9211"/>
</g>
<!-- Node31 -->
<g id="node31" class="node"><title>Node31</title>
<g id="a_node31"><a xlink:title=" ">
<polygon fill="white" stroke="#bfbfbf" points="828,-56.5 828,-75.5 873,-75.5 873,-56.5 828,-56.5"/>
<text text-anchor="middle" x="850.5" y="-63.5" font-family="Helvetica,sans-Serif" font-size="10.00">climits</text>
</a>
</g>
</g>
<!-- Node30&#45;&gt;Node31 -->
<g id="edge41" class="edge"><title>Node30&#45;&gt;Node31</title>
<path fill="none" stroke="midnightblue" d="M935.316,-117.975C919.142,-108.255 892.474,-92.2266 873.357,-80.7372"/>
<polygon fill="midnightblue" stroke="midnightblue" points="875.032,-77.6606 864.658,-75.5091 871.426,-83.6603 875.032,-77.6606"/>
</g>
<!-- Node32 -->
<g id="node32" class="node"><title>Node32</title>
<g id="a_node32"><a xlink:title=" ">
<polygon fill="white" stroke="#bfbfbf" points="891.5,-56.5 891.5,-75.5 955.5,-75.5 955.5,-56.5 891.5,-56.5"/>
<text text-anchor="middle" x="923.5" y="-63.5" font-family="Helvetica,sans-Serif" font-size="10.00">string_view</text>
</a>
</g>
</g>
<!-- Node30&#45;&gt;Node32 -->
<g id="edge44" class="edge"><title>Node30&#45;&gt;Node32</title>
<path fill="none" stroke="midnightblue" d="M945.775,-117.975C942.029,-109.404 936.14,-95.9269 931.358,-84.983"/>
<polygon fill="midnightblue" stroke="midnightblue" points="934.43,-83.271 927.218,-75.5091 928.015,-86.0739 934.43,-83.271"/>
</g>
<!-- Node33 -->
<g id="node33" class="node"><title>Node33</title>
<g id="a_node33"><a xlink:title=" ">
<polygon fill="white" stroke="#bfbfbf" points="769.5,-56.5 769.5,-75.5 809.5,-75.5 809.5,-56.5 769.5,-56.5"/>
<text text-anchor="middle" x="789.5" y="-63.5" font-family="Helvetica,sans-Serif" font-size="10.00">utility</text>
</a>
</g>
</g>
<!-- Node30&#45;&gt;Node33 -->
<g id="edge46" class="edge"><title>Node30&#45;&gt;Node33</title>
<path fill="none" stroke="midnightblue" d="M928.609,-117.943C923.668,-115.958 918.408,-113.878 913.5,-112 881.542,-99.7695 844.649,-86.4866 819.467,-77.546"/>
<polygon fill="midnightblue" stroke="midnightblue" points="820.364,-74.1507 809.769,-74.1119 818.027,-80.7492 820.364,-74.1507"/>
</g>
<!-- Node34&#45;&gt;Node2 -->
<g id="edge56" class="edge"><title>Node34&#45;&gt;Node2</title>
<path fill="none" stroke="midnightblue" d="M1108.75,-124.104C1080.25,-121.018 1028.67,-115.62 984.5,-112 737.257,-91.7387 674.676,-97.0646 427.5,-76 416.293,-75.0449 404.271,-73.8664 392.899,-72.6805"/>
<polygon fill="midnightblue" stroke="midnightblue" points="392.993,-69.171 382.68,-71.5956 392.254,-76.1319 392.993,-69.171"/>
</g>
<!-- Node34&#45;&gt;Node13 -->
<g id="edge50" class="edge"><title>Node34&#45;&gt;Node13</title>
<path fill="none" stroke="midnightblue" d="M1152,-124.09C1201.06,-118.358 1325.07,-102.54 1437.53,-75.931"/>
<polygon fill="midnightblue" stroke="midnightblue" points="1438.42,-79.3155 1447.33,-73.5768 1436.79,-72.5091 1438.42,-79.3155"/>
</g>
<!-- Node34&#45;&gt;Node15 -->
<g id="edge53" class="edge"><title>Node34&#45;&gt;Node15</title>
<path fill="none" stroke="midnightblue" d="M1108.75,-124.195C1035.21,-116.367 795.424,-90.5575 697.714,-76.0559"/>
<polygon fill="midnightblue" stroke="midnightblue" points="698.027,-72.5633 687.614,-74.5172 696.972,-79.4834 698.027,-72.5633"/>
</g>
<!-- Node34&#45;&gt;Node18 -->
<g id="edge54" class="edge"><title>Node34&#45;&gt;Node18</title>
<path fill="none" stroke="midnightblue" d="M1112.45,-117.975C1091.3,-107.99 1056.06,-91.3476 1031.62,-79.8075"/>
<polygon fill="midnightblue" stroke="midnightblue" points="1033.06,-76.6143 1022.52,-75.5091 1030.07,-82.9441 1033.06,-76.6143"/>
</g>
<!-- Node34&#45;&gt;Node28 -->
<g id="edge52" class="edge"><title>Node34&#45;&gt;Node28</title>
<path fill="none" stroke="midnightblue" d="M1122.76,-117.975C1114.5,-108.873 1101.22,-94.241 1091.01,-82.983"/>
<polygon fill="midnightblue" stroke="midnightblue" points="1093.53,-80.5619 1084.22,-75.5091 1088.35,-85.2663 1093.53,-80.5619"/>
</g>
<!-- Node35 -->
<g id="node35" class="node"><title>Node35</title>
<g id="a_node35"><a xlink:title=" ">
<polygon fill="white" stroke="#bfbfbf" points="1219.5,-56.5 1219.5,-75.5 1279.5,-75.5 1279.5,-56.5 1219.5,-56.5"/>
<text text-anchor="middle" x="1249.5" y="-63.5" font-family="Helvetica,sans-Serif" font-size="10.00">fmt/core.h</text>
</a>
</g>
</g>
<!-- Node34&#45;&gt;Node35 -->
<g id="edge48" class="edge"><title>Node34&#45;&gt;Node35</title>
<path fill="none" stroke="midnightblue" d="M1147.55,-117.975C1167.34,-108.078 1200.22,-91.6416 1223.27,-80.1151"/>
<polygon fill="midnightblue" stroke="midnightblue" points="1225.1,-83.1118 1232.48,-75.5091 1221.97,-76.8508 1225.1,-83.1118"/>
</g>
<!-- Node36 -->
<g id="node36" class="node"><title>Node36</title>
<g id="a_node36"><a xlink:title=" ">
<polygon fill="white" stroke="#bfbfbf" points="1297.5,-56.5 1297.5,-75.5 1365.5,-75.5 1365.5,-56.5 1297.5,-56.5"/>
<text text-anchor="middle" x="1331.5" y="-63.5" font-family="Helvetica,sans-Serif" font-size="10.00">fmt/format.h</text>
</a>
</g>
</g>
<!-- Node34&#45;&gt;Node36 -->
<g id="edge49" class="edge"><title>Node34&#45;&gt;Node36</title>
<path fill="none" stroke="midnightblue" d="M1152.01,-120.132C1185.6,-110.19 1250.99,-90.8339 1292.88,-78.4318"/>
<polygon fill="midnightblue" stroke="midnightblue" points="1294.14,-81.7096 1302.73,-75.515 1292.15,-74.9975 1294.14,-81.7096"/>
</g>
<!-- Node37 -->
<g id="node37" class="node"><title>Node37</title>
<g id="a_node37"><a xlink:title=" ">
<polygon fill="white" stroke="#bfbfbf" points="1383.5,-56.5 1383.5,-75.5 1429.5,-75.5 1429.5,-56.5 1383.5,-56.5"/>
<text text-anchor="middle" x="1406.5" y="-63.5" font-family="Helvetica,sans-Serif" font-size="10.00">chrono</text>
</a>
</g>
</g>
<!-- Node34&#45;&gt;Node37 -->
<g id="edge51" class="edge"><title>Node34&#45;&gt;Node37</title>
<path fill="none" stroke="midnightblue" d="M1152.16,-122.546C1193.34,-114.915 1285.95,-97.2183 1373.64,-76.0748"/>
<polygon fill="midnightblue" stroke="midnightblue" points="1374.59,-79.4463 1383.48,-73.6828 1372.93,-72.6445 1374.59,-79.4463"/>
</g>
<!-- Node38 -->
<g id="node38" class="node"><title>Node38</title>
<g id="a_node38"><a xlink:title=" ">
<polygon fill="white" stroke="#bfbfbf" points="1118,-56.5 1118,-75.5 1201,-75.5 1201,-56.5 1118,-56.5"/>
<text text-anchor="middle" x="1159.5" y="-63.5" font-family="Helvetica,sans-Serif" font-size="10.00">unordered_map</text>
</a>
</g>
</g>
<!-- Node34&#45;&gt;Node38 -->
<g id="edge55" class="edge"><title>Node34&#45;&gt;Node38</title>
<path fill="none" stroke="midnightblue" d="M1134.65,-117.975C1138.88,-109.315 1145.54,-95.6486 1150.9,-84.6453"/>
<polygon fill="midnightblue" stroke="midnightblue" points="1154.12,-86.0317 1155.35,-75.5091 1147.83,-82.9648 1154.12,-86.0317"/>
</g>
<!-- Node39&#45;&gt;Node2 -->
<g id="edge60" class="edge"><title>Node39&#45;&gt;Node2</title>
<path fill="none" stroke="midnightblue" d="M507.848,-117.975C474.312,-107.636 417.627,-90.1611 380.132,-78.6017"/>
<polygon fill="midnightblue" stroke="midnightblue" points="380.688,-75.1106 370.101,-75.5091 378.626,-81.7999 380.688,-75.1106"/>
</g>
<!-- Node39&#45;&gt;Node15 -->
<g id="edge59" class="edge"><title>Node39&#45;&gt;Node15</title>
<path fill="none" stroke="midnightblue" d="M551.977,-117.975C571.105,-108.078 602.873,-91.6416 625.152,-80.1151"/>
<polygon fill="midnightblue" stroke="midnightblue" points="626.781,-83.213 634.054,-75.5091 623.564,-76.9958 626.781,-83.213"/>
</g>
<!-- Node40&#45;&gt;Node2 -->
<g id="edge62" class="edge"><title>Node40&#45;&gt;Node2</title>
<path fill="none" stroke="midnightblue" d="M245.078,-179.177C256.764,-170.653 274.3,-157.007 287.5,-143 304.891,-124.546 321.471,-100.429 331.794,-84.3624"/>
<polygon fill="midnightblue" stroke="midnightblue" points="334.995,-85.8479 337.365,-75.5214 329.073,-82.1162 334.995,-85.8479"/>
</g>
<!-- Node41 -->
<g id="node41" class="node"><title>Node41</title>
<g id="a_node41"><a xlink:href="sys__error__code_8h.html" target="_top" xlink:title=" ">
<polygon fill="white" stroke="black" points="186.5,-118 186.5,-137 278.5,-137 278.5,-118 186.5,-118"/>
<text text-anchor="middle" x="232.5" y="-125" font-family="Helvetica,sans-Serif" font-size="10.00">sys_error_code.h</text>
</a>
</g>
</g>
<!-- Node40&#45;&gt;Node41 -->
<g id="edge63" class="edge"><title>Node40&#45;&gt;Node41</title>
<path fill="none" stroke="midnightblue" d="M232.5,-179.475C232.5,-171.08 232.5,-157.981 232.5,-147.163"/>
<polygon fill="midnightblue" stroke="midnightblue" points="236,-147.009 232.5,-137.009 229,-147.009 236,-147.009"/>
</g>
<!-- Node40&#45;&gt;Node42 -->
<g id="edge66" class="edge"><title>Node40&#45;&gt;Node42</title>
<path fill="none" stroke="midnightblue" d="M217.366,-179.44C204.818,-171.563 187.475,-158.734 177.5,-143 166.483,-125.623 161.852,-102.243 159.907,-86.0238"/>
<polygon fill="midnightblue" stroke="midnightblue" points="163.352,-85.2867 158.912,-75.6672 156.384,-85.9561 163.352,-85.2867"/>
</g>
<!-- Node41&#45;&gt;Node2 -->
<g id="edge64" class="edge"><title>Node41&#45;&gt;Node2</title>
<path fill="none" stroke="midnightblue" d="M248.26,-117.975C266.476,-108.122 296.673,-91.7883 317.968,-80.2697"/>
<polygon fill="midnightblue" stroke="midnightblue" points="319.638,-83.3453 326.769,-75.5091 316.308,-77.1883 319.638,-83.3453"/>
</g>
<!-- Node41&#45;&gt;Node42 -->
<g id="edge65" class="edge"><title>Node41&#45;&gt;Node42</title>
<path fill="none" stroke="midnightblue" d="M221.898,-117.975C210.248,-108.608 191.314,-93.3839 177.165,-82.0081"/>
<polygon fill="midnightblue" stroke="midnightblue" points="179.069,-79.0477 169.083,-75.5091 174.683,-84.503 179.069,-79.0477"/>
</g>
</g>
</svg>
