<?xml version="1.0" encoding="UTF-8" standalone="no"?>
<!DOCTYPE svg PUBLIC "-//W3C//DTD SVG 1.1//EN"
 "http://www.w3.org/Graphics/SVG/1.1/DTD/svg11.dtd">
<!-- Generated by graphviz version 2.38.0 (20140413.2041)
 -->
<!-- Title: C:/projects/ndt/sources/include/ndt/platform/win/executor_select_impl.h Pages: 1 -->
<svg width="1337pt" height="464pt"
 viewBox="0.00 0.00 1337.00 464.00" xmlns="http://www.w3.org/2000/svg" xmlns:xlink="http://www.w3.org/1999/xlink">
<g id="graph0" class="graph" transform="scale(1 1) rotate(0) translate(4 460)">
<title>C:/projects/ndt/sources/include/ndt/platform/win/executor_select_impl.h</title>
<polygon fill="white" stroke="none" points="-4,4 -4,-460 1333,-460 1333,4 -4,4"/>
<!-- Node1 -->
<g id="node1" class="node"><title>Node1</title>
<g id="a_node1"><a xlink:title=" ">
<polygon fill="#bfbfbf" stroke="black" points="191,-414.5 191,-455.5 328,-455.5 328,-414.5 191,-414.5"/>
<text text-anchor="start" x="199" y="-443.5" font-family="Helvetica,sans-Serif" font-size="10.00">C:/projects/ndt/sources</text>
<text text-anchor="start" x="199" y="-432.5" font-family="Helvetica,sans-Serif" font-size="10.00">/include/ndt/platform</text>
<text text-anchor="middle" x="259.5" y="-421.5" font-family="Helvetica,sans-Serif" font-size="10.00">/win/executor_select_impl.h</text>
</a>
</g>
</g>
<!-- Node2 -->
<g id="node2" class="node"><title>Node2</title>
<g id="a_node2"><a xlink:href="common_8h.html" target="_top" xlink:title="Header with typedefs to make type designation platform independent.">
<polygon fill="white" stroke="black" points="251.5,-56.5 251.5,-75.5 331.5,-75.5 331.5,-56.5 251.5,-56.5"/>
<text text-anchor="middle" x="291.5" y="-63.5" font-family="Helvetica,sans-Serif" font-size="10.00">../../common.h</text>
</a>
</g>
</g>
<!-- Node1&#45;&gt;Node2 -->
<g id="edge1" class="edge"><title>Node1&#45;&gt;Node2</title>
<path fill="none" stroke="midnightblue" d="M213.397,-414.359C171.934,-393.238 117.5,-355.35 117.5,-302 117.5,-302 117.5,-302 117.5,-188 117.5,-126.471 191.744,-93.6961 243.237,-78.3636"/>
<polygon fill="midnightblue" stroke="midnightblue" points="244.227,-81.7211 252.884,-75.6135 242.307,-74.9893 244.227,-81.7211"/>
</g>
<!-- Node12 -->
<g id="node12" class="node"><title>Node12</title>
<g id="a_node12"><a xlink:href="executor__select__base_8h.html" target="_top" xlink:title=" ">
<polygon fill="white" stroke="black" points="384.5,-347.5 384.5,-377.5 488.5,-377.5 488.5,-347.5 384.5,-347.5"/>
<text text-anchor="start" x="392.5" y="-365.5" font-family="Helvetica,sans-Serif" font-size="10.00">../../executor_select</text>
<text text-anchor="middle" x="436.5" y="-354.5" font-family="Helvetica,sans-Serif" font-size="10.00">_base.h</text>
</a>
</g>
</g>
<!-- Node1&#45;&gt;Node12 -->
<g id="edge11" class="edge"><title>Node1&#45;&gt;Node12</title>
<path fill="none" stroke="midnightblue" d="M308.804,-414.362C334.836,-403.993 366.538,-391.366 391.842,-381.288"/>
<polygon fill="midnightblue" stroke="midnightblue" points="393.206,-384.512 401.201,-377.56 390.616,-378.008 393.206,-384.512"/>
</g>
<!-- Node3 -->
<g id="node3" class="node"><title>Node3</title>
<g id="a_node3"><a xlink:title=" ">
<polygon fill="white" stroke="#bfbfbf" points="458.5,-0.5 458.5,-19.5 520.5,-19.5 520.5,-0.5 458.5,-0.5"/>
<text text-anchor="middle" x="489.5" y="-7.5" font-family="Helvetica,sans-Serif" font-size="10.00">arpa/inet.h</text>
</a>
</g>
</g>
<!-- Node2&#45;&gt;Node3 -->
<g id="edge2" class="edge"><title>Node2&#45;&gt;Node3</title>
<path fill="none" stroke="midnightblue" d="M322.874,-56.4435C356.763,-47.2011 410.903,-32.4356 448.224,-22.2572"/>
<polygon fill="midnightblue" stroke="midnightblue" points="449.546,-25.5243 458.273,-19.5164 447.705,-18.771 449.546,-25.5243"/>
</g>
<!-- Node4 -->
<g id="node4" class="node"><title>Node4</title>
<g id="a_node4"><a xlink:title=" ">
<polygon fill="white" stroke="#bfbfbf" points="539,-0.5 539,-19.5 586,-19.5 586,-0.5 539,-0.5"/>
<text text-anchor="middle" x="562.5" y="-7.5" font-family="Helvetica,sans-Serif" font-size="10.00">errno.h</text>
</a>
</g>
</g>
<!-- Node2&#45;&gt;Node4 -->
<g id="edge3" class="edge"><title>Node2&#45;&gt;Node4</title>
<path fill="none" stroke="midnightblue" d="M331.638,-57.591C388.501,-47.0704 489.216,-28.3382 528.62,-19.9619"/>
<polygon fill="midnightblue" stroke="midnightblue" points="529.757,-23.2949 538.764,-17.7154 528.244,-16.4605 529.757,-23.2949"/>
</g>
<!-- Node5 -->
<g id="node5" class="node"><title>Node5</title>
<g id="a_node5"><a xlink:title=" ">
<polygon fill="white" stroke="#bfbfbf" points="0,-0.5 0,-19.5 43,-19.5 43,-0.5 0,-0.5"/>
<text text-anchor="middle" x="21.5" y="-7.5" font-family="Helvetica,sans-Serif" font-size="10.00">fcntl.h</text>
</a>
</g>
</g>
<!-- Node2&#45;&gt;Node5 -->
<g id="edge4" class="edge"><title>Node2&#45;&gt;Node5</title>
<path fill="none" stroke="midnightblue" d="M251.306,-58.8028C205.47,-51.4412 128.126,-38.1263 53.1383,-20.2062"/>
<polygon fill="midnightblue" stroke="midnightblue" points="53.598,-16.7165 43.0552,-17.7648 51.9507,-23.5199 53.598,-16.7165"/>
</g>
<!-- Node6 -->
<g id="node6" class="node"><title>Node6</title>
<g id="a_node6"><a xlink:title=" ">
<polygon fill="white" stroke="#bfbfbf" points="61,-0.5 61,-19.5 110,-19.5 110,-0.5 61,-0.5"/>
<text text-anchor="middle" x="85.5" y="-7.5" font-family="Helvetica,sans-Serif" font-size="10.00">netdb.h</text>
</a>
</g>
</g>
<!-- Node2&#45;&gt;Node6 -->
<g id="edge5" class="edge"><title>Node2&#45;&gt;Node6</title>
<path fill="none" stroke="midnightblue" d="M258.304,-56.489C225.497,-48.0502 173.613,-34.6321 120.321,-20.4659"/>
<polygon fill="midnightblue" stroke="midnightblue" points="120.922,-17.004 110.358,-17.813 119.121,-23.7683 120.922,-17.004"/>
</g>
<!-- Node7 -->
<g id="node7" class="node"><title>Node7</title>
<g id="a_node7"><a xlink:title=" ">
<polygon fill="white" stroke="#bfbfbf" points="128,-0.5 128,-19.5 193,-19.5 193,-0.5 128,-0.5"/>
<text text-anchor="middle" x="160.5" y="-7.5" font-family="Helvetica,sans-Serif" font-size="10.00">netinet/in.h</text>
</a>
</g>
</g>
<!-- Node2&#45;&gt;Node7 -->
<g id="edge6" class="edge"><title>Node2&#45;&gt;Node7</title>
<path fill="none" stroke="midnightblue" d="M270.743,-56.4435C249.184,-47.5566 215.237,-33.5632 190.706,-23.4514"/>
<polygon fill="midnightblue" stroke="midnightblue" points="191.739,-20.0917 181.16,-19.5164 189.072,-26.5634 191.739,-20.0917"/>
</g>
<!-- Node8 -->
<g id="node8" class="node"><title>Node8</title>
<g id="a_node8"><a xlink:title=" ">
<polygon fill="white" stroke="#bfbfbf" points="211,-0.5 211,-19.5 284,-19.5 284,-0.5 211,-0.5"/>
<text text-anchor="middle" x="247.5" y="-7.5" font-family="Helvetica,sans-Serif" font-size="10.00">sys/socket.h</text>
</a>
</g>
</g>
<!-- Node2&#45;&gt;Node8 -->
<g id="edge7" class="edge"><title>Node2&#45;&gt;Node8</title>
<path fill="none" stroke="midnightblue" d="M284.234,-56.083C277.955,-48.3768 268.712,-37.0333 261.069,-27.6531"/>
<polygon fill="midnightblue" stroke="midnightblue" points="263.661,-25.2926 254.631,-19.7511 258.234,-29.7143 263.661,-25.2926"/>
</g>
<!-- Node9 -->
<g id="node9" class="node"><title>Node9</title>
<g id="a_node9"><a xlink:title=" ">
<polygon fill="white" stroke="#bfbfbf" points="302.5,-0.5 302.5,-19.5 370.5,-19.5 370.5,-0.5 302.5,-0.5"/>
<text text-anchor="middle" x="336.5" y="-7.5" font-family="Helvetica,sans-Serif" font-size="10.00">sys/types.h</text>
</a>
</g>
</g>
<!-- Node2&#45;&gt;Node9 -->
<g id="edge8" class="edge"><title>Node2&#45;&gt;Node9</title>
<path fill="none" stroke="midnightblue" d="M298.931,-56.083C305.353,-48.3768 314.806,-37.0333 322.622,-27.6531"/>
<polygon fill="midnightblue" stroke="midnightblue" points="325.494,-29.674 329.207,-19.7511 320.117,-25.1927 325.494,-29.674"/>
</g>
<!-- Node10 -->
<g id="node10" class="node"><title>Node10</title>
<g id="a_node10"><a xlink:title=" ">
<polygon fill="white" stroke="#bfbfbf" points="389,-0.5 389,-19.5 440,-19.5 440,-0.5 389,-0.5"/>
<text text-anchor="middle" x="414.5" y="-7.5" font-family="Helvetica,sans-Serif" font-size="10.00">unistd.h</text>
</a>
</g>
</g>
<!-- Node2&#45;&gt;Node10 -->
<g id="edge9" class="edge"><title>Node2&#45;&gt;Node10</title>
<path fill="none" stroke="midnightblue" d="M310.99,-56.4435C331.142,-47.5961 362.823,-33.6875 385.831,-23.5865"/>
<polygon fill="midnightblue" stroke="midnightblue" points="387.352,-26.7411 395.101,-19.5164 384.538,-20.3316 387.352,-26.7411"/>
</g>
<!-- Node11 -->
<g id="node11" class="node"><title>Node11</title>
<g id="a_node11"><a xlink:title=" ">
<polygon fill="white" stroke="#bfbfbf" points="861.5,-0.5 861.5,-19.5 909.5,-19.5 909.5,-0.5 861.5,-0.5"/>
<text text-anchor="middle" x="885.5" y="-7.5" font-family="Helvetica,sans-Serif" font-size="10.00">cstddef</text>
</a>
</g>
</g>
<!-- Node2&#45;&gt;Node11 -->
<g id="edge10" class="edge"><title>Node2&#45;&gt;Node11</title>
<path fill="none" stroke="midnightblue" d="M331.56,-57.3074C334.58,-56.8301 337.585,-56.3871 340.5,-56 532.71,-30.4768 765.104,-17.037 851.234,-12.6451"/>
<polygon fill="midnightblue" stroke="midnightblue" points="851.422,-16.1402 861.234,-12.1426 851.071,-9.14901 851.422,-16.1402"/>
</g>
<!-- Node12&#45;&gt;Node2 -->
<g id="edge15" class="edge"><title>Node12&#45;&gt;Node2</title>
<path fill="none" stroke="midnightblue" d="M384.305,-362.307C303.042,-360.534 155.5,-343.842 155.5,-246 155.5,-246 155.5,-246 155.5,-188 155.5,-133.111 218.098,-97.0062 258.356,-79.4617"/>
<polygon fill="midnightblue" stroke="midnightblue" points="259.94,-82.5928 267.811,-75.5003 257.235,-76.1365 259.94,-82.5928"/>
</g>
<!-- Node13 -->
<g id="node13" class="node"><title>Node13</title>
<g id="a_node13"><a xlink:title=" ">
<polygon fill="white" stroke="#bfbfbf" points="803.5,-56.5 803.5,-75.5 841.5,-75.5 841.5,-56.5 803.5,-56.5"/>
<text text-anchor="middle" x="822.5" y="-63.5" font-family="Helvetica,sans-Serif" font-size="10.00">array</text>
</a>
</g>
</g>
<!-- Node12&#45;&gt;Node13 -->
<g id="edge12" class="edge"><title>Node12&#45;&gt;Node13</title>
<path fill="none" stroke="midnightblue" d="M488.796,-355.99C589.721,-343.898 801.5,-310.803 801.5,-246 801.5,-246 801.5,-246 801.5,-188 801.5,-151.188 811.052,-108.992 817.272,-85.4188"/>
<polygon fill="midnightblue" stroke="midnightblue" points="820.664,-86.2846 819.925,-75.7155 813.911,-84.4383 820.664,-86.2846"/>
</g>
<!-- Node14 -->
<g id="node14" class="node"><title>Node14</title>
<g id="a_node14"><a xlink:title=" ">
<polygon fill="white" stroke="#bfbfbf" points="303.5,-235.5 303.5,-254.5 361.5,-254.5 361.5,-235.5 303.5,-235.5"/>
<text text-anchor="middle" x="332.5" y="-242.5" font-family="Helvetica,sans-Serif" font-size="10.00">functional</text>
</a>
</g>
</g>
<!-- Node12&#45;&gt;Node14 -->
<g id="edge13" class="edge"><title>Node12&#45;&gt;Node14</title>
<path fill="none" stroke="midnightblue" d="M423.748,-347.337C404.328,-325.77 367.448,-284.813 347.024,-262.13"/>
<polygon fill="midnightblue" stroke="midnightblue" points="349.599,-259.759 340.306,-254.669 344.397,-264.443 349.599,-259.759"/>
</g>
<!-- Node15 -->
<g id="node15" class="node"><title>Node15</title>
<g id="a_node15"><a xlink:title=" ">
<polygon fill="white" stroke="#bfbfbf" points="1005.5,-56.5 1005.5,-75.5 1079.5,-75.5 1079.5,-56.5 1005.5,-56.5"/>
<text text-anchor="middle" x="1042.5" y="-63.5" font-family="Helvetica,sans-Serif" font-size="10.00">system_error</text>
</a>
</g>
</g>
<!-- Node12&#45;&gt;Node15 -->
<g id="edge14" class="edge"><title>Node12&#45;&gt;Node15</title>
<path fill="none" stroke="midnightblue" d="M488.768,-357.417C552.384,-351.485 662.572,-338.093 753.5,-311 870.182,-276.233 923.361,-290.659 1003.5,-199 1031.99,-166.416 1039.69,-113.863 1041.75,-85.9083"/>
<polygon fill="midnightblue" stroke="midnightblue" points="1045.27,-85.7456 1042.34,-75.5639 1038.28,-85.3503 1045.27,-85.7456"/>
</g>
<!-- Node16 -->
<g id="node16" class="node"><title>Node16</title>
<g id="a_node16"><a xlink:href="event__handler__select_8h.html" target="_top" xlink:title=" ">
<polygon fill="white" stroke="black" points="1127.5,-235.5 1127.5,-254.5 1243.5,-254.5 1243.5,-235.5 1127.5,-235.5"/>
<text text-anchor="middle" x="1185.5" y="-242.5" font-family="Helvetica,sans-Serif" font-size="10.00">event_handler_select.h</text>
</a>
</g>
</g>
<!-- Node12&#45;&gt;Node16 -->
<g id="edge16" class="edge"><title>Node12&#45;&gt;Node16</title>
<path fill="none" stroke="midnightblue" d="M488.586,-361.932C627.028,-362.4 1001.22,-359.056 1113.5,-311 1138.06,-300.489 1159.83,-278.048 1172.83,-262.497"/>
<polygon fill="midnightblue" stroke="midnightblue" points="1175.58,-264.67 1179.12,-254.685 1170.12,-260.281 1175.58,-264.67"/>
</g>
<!-- Node21 -->
<g id="node21" class="node"><title>Node21</title>
<g id="a_node21"><a xlink:href="socket_8h.html" target="_top" xlink:title=" ">
<polygon fill="white" stroke="black" points="444.5,-291.5 444.5,-310.5 498.5,-310.5 498.5,-291.5 444.5,-291.5"/>
<text text-anchor="middle" x="471.5" y="-298.5" font-family="Helvetica,sans-Serif" font-size="10.00">socket.h</text>
</a>
</g>
</g>
<!-- Node12&#45;&gt;Node21 -->
<g id="edge23" class="edge"><title>Node12&#45;&gt;Node21</title>
<path fill="none" stroke="midnightblue" d="M444.795,-347.399C449.723,-339.021 456.014,-328.327 461.251,-319.423"/>
<polygon fill="midnightblue" stroke="midnightblue" points="464.354,-321.052 466.407,-310.658 458.32,-317.503 464.354,-321.052"/>
</g>
<!-- Node17 -->
<g id="node17" class="node"><title>Node17</title>
<g id="a_node17"><a xlink:title=" ">
<polygon fill="white" stroke="#bfbfbf" points="1215.5,-56.5 1215.5,-75.5 1261.5,-75.5 1261.5,-56.5 1215.5,-56.5"/>
<text text-anchor="middle" x="1238.5" y="-63.5" font-family="Helvetica,sans-Serif" font-size="10.00">cstdint</text>
</a>
</g>
</g>
<!-- Node16&#45;&gt;Node17 -->
<g id="edge17" class="edge"><title>Node16&#45;&gt;Node17</title>
<path fill="none" stroke="midnightblue" d="M1188.22,-235.384C1191.07,-226.335 1195.65,-211.684 1199.5,-199 1211.76,-158.563 1225.69,-111.008 1233.14,-85.4621"/>
<polygon fill="midnightblue" stroke="midnightblue" points="1236.55,-86.2412 1235.99,-75.6616 1229.83,-84.2855 1236.55,-86.2412"/>
</g>
<!-- Node18 -->
<g id="node18" class="node"><title>Node18</title>
<g id="a_node18"><a xlink:title=" ">
<polygon fill="white" stroke="#bfbfbf" points="1097.5,-56.5 1097.5,-75.5 1159.5,-75.5 1159.5,-56.5 1097.5,-56.5"/>
<text text-anchor="middle" x="1128.5" y="-63.5" font-family="Helvetica,sans-Serif" font-size="10.00">type_traits</text>
</a>
</g>
</g>
<!-- Node16&#45;&gt;Node18 -->
<g id="edge18" class="edge"><title>Node16&#45;&gt;Node18</title>
<path fill="none" stroke="midnightblue" d="M1185.86,-235.207C1186.43,-213.325 1185.85,-155.086 1166.5,-112 1161.6,-101.086 1153.24,-90.749 1145.61,-82.7408"/>
<polygon fill="midnightblue" stroke="midnightblue" points="1147.94,-80.1251 1138.37,-75.5738 1143.01,-85.0981 1147.94,-80.1251"/>
</g>
<!-- Node19 -->
<g id="node19" class="node"><title>Node19</title>
<g id="a_node19"><a xlink:href="executor__select_8h.html" target="_top" xlink:title=" ">
<polygon fill="white" stroke="black" points="829.5,-179.5 829.5,-198.5 923.5,-198.5 923.5,-179.5 829.5,-179.5"/>
<text text-anchor="middle" x="876.5" y="-186.5" font-family="Helvetica,sans-Serif" font-size="10.00">executor_select.h</text>
</a>
</g>
</g>
<!-- Node16&#45;&gt;Node19 -->
<g id="edge19" class="edge"><title>Node16&#45;&gt;Node19</title>
<path fill="none" stroke="midnightblue" d="M1136.54,-235.444C1081.47,-225.821 992.151,-210.211 933.862,-200.024"/>
<polygon fill="midnightblue" stroke="midnightblue" points="934.166,-196.525 923.713,-198.251 932.961,-203.42 934.166,-196.525"/>
</g>
<!-- Node20 -->
<g id="node20" class="node"><title>Node20</title>
<g id="a_node20"><a xlink:href="nix_2executor__select__impl_8h.html" target="_top" xlink:title=" ">
<polygon fill="white" stroke="black" points="222,-112.5 222,-142.5 329,-142.5 329,-112.5 222,-112.5"/>
<text text-anchor="start" x="230" y="-130.5" font-family="Helvetica,sans-Serif" font-size="10.00">platform/nix/executor</text>
<text text-anchor="middle" x="275.5" y="-119.5" font-family="Helvetica,sans-Serif" font-size="10.00">_select_impl.h</text>
</a>
</g>
</g>
<!-- Node19&#45;&gt;Node20 -->
<g id="edge20" class="edge"><title>Node19&#45;&gt;Node20</title>
<path fill="none" stroke="midnightblue" d="M829.193,-184.58C740.34,-177.97 542.496,-162.372 376.5,-143 364.472,-141.596 351.666,-139.908 339.355,-138.188"/>
<polygon fill="midnightblue" stroke="midnightblue" points="339.551,-134.681 329.158,-136.741 338.567,-141.611 339.551,-134.681"/>
</g>
<!-- Node20&#45;&gt;Node2 -->
<g id="edge21" class="edge"><title>Node20&#45;&gt;Node2</title>
<path fill="none" stroke="midnightblue" d="M279.292,-112.399C281.449,-104.377 284.177,-94.2328 286.507,-85.569"/>
<polygon fill="midnightblue" stroke="midnightblue" points="289.955,-86.2236 289.172,-75.6578 283.195,-84.4058 289.955,-86.2236"/>
</g>
<!-- Node20&#45;&gt;Node12 -->
<g id="edge22" class="edge"><title>Node20&#45;&gt;Node12</title>
<path fill="none" stroke="midnightblue" d="M274.302,-142.553C272.882,-167.185 272.985,-218.96 294.5,-255 318.395,-295.028 363.636,-324.938 396.65,-342.71"/>
<polygon fill="midnightblue" stroke="midnightblue" points="395.127,-345.863 405.61,-347.399 398.373,-339.661 395.127,-345.863"/>
</g>
<!-- Node21&#45;&gt;Node2 -->
<g id="edge69" class="edge"><title>Node21&#45;&gt;Node2</title>
<path fill="none" stroke="midnightblue" d="M458.99,-291.39C440.143,-278.547 403.189,-253.865 370.5,-235 300.12,-194.383 251.603,-214.232 212.5,-143 205.87,-130.922 205.576,-123.912 212.5,-112 221.236,-96.9696 237.078,-86.5428 252.295,-79.5405"/>
<polygon fill="midnightblue" stroke="midnightblue" points="253.762,-82.7202 261.619,-75.6125 251.045,-76.2692 253.762,-82.7202"/>
</g>
<!-- Node21&#45;&gt;Node14 -->
<g id="edge25" class="edge"><title>Node21&#45;&gt;Node14</title>
<path fill="none" stroke="midnightblue" d="M449.475,-291.444C426.396,-282.478 389.938,-268.314 363.859,-258.183"/>
<polygon fill="midnightblue" stroke="midnightblue" points="365.011,-254.875 354.422,-254.516 362.476,-261.4 365.011,-254.875"/>
</g>
<!-- Node22 -->
<g id="node22" class="node"><title>Node22</title>
<g id="a_node22"><a xlink:title=" ">
<polygon fill="white" stroke="#bfbfbf" points="1280,-56.5 1280,-75.5 1329,-75.5 1329,-56.5 1280,-56.5"/>
<text text-anchor="middle" x="1304.5" y="-63.5" font-family="Helvetica,sans-Serif" font-size="10.00">cassert</text>
</a>
</g>
</g>
<!-- Node21&#45;&gt;Node22 -->
<g id="edge24" class="edge"><title>Node21&#45;&gt;Node22</title>
<path fill="none" stroke="midnightblue" d="M498.703,-300.277C629.828,-301.369 1192.8,-303.206 1252.5,-255 1304.31,-213.163 1307.21,-124.662 1305.77,-85.8792"/>
<polygon fill="midnightblue" stroke="midnightblue" points="1309.24,-85.3506 1305.23,-75.546 1302.25,-85.7144 1309.24,-85.3506"/>
</g>
<!-- Node23 -->
<g id="node23" class="node"><title>Node23</title>
<g id="a_node23"><a xlink:href="address_8h.html" target="_top" xlink:title=" ">
<polygon fill="white" stroke="black" points="585,-235.5 585,-254.5 644,-254.5 644,-235.5 585,-235.5"/>
<text text-anchor="middle" x="614.5" y="-242.5" font-family="Helvetica,sans-Serif" font-size="10.00">address.h</text>
</a>
</g>
</g>
<!-- Node21&#45;&gt;Node23 -->
<g id="edge26" class="edge"><title>Node21&#45;&gt;Node23</title>
<path fill="none" stroke="midnightblue" d="M494.159,-291.444C517.902,-282.478 555.409,-268.314 582.238,-258.183"/>
<polygon fill="midnightblue" stroke="midnightblue" points="583.829,-261.324 591.947,-254.516 581.356,-254.775 583.829,-261.324"/>
</g>
<!-- Node29 -->
<g id="node29" class="node"><title>Node29</title>
<g id="a_node29"><a xlink:href="buffer_8h.html" target="_top" xlink:title=" ">
<polygon fill="white" stroke="black" points="1109.5,-118 1109.5,-137 1157.5,-137 1157.5,-118 1109.5,-118"/>
<text text-anchor="middle" x="1133.5" y="-125" font-family="Helvetica,sans-Serif" font-size="10.00">buffer.h</text>
</a>
</g>
</g>
<!-- Node21&#45;&gt;Node29 -->
<g id="edge68" class="edge"><title>Node21&#45;&gt;Node29</title>
<path fill="none" stroke="midnightblue" d="M498.743,-299.517C582.753,-297.133 843.873,-282.98 1038.5,-199 1069.29,-185.714 1099.45,-160.696 1117.26,-144.316"/>
<polygon fill="midnightblue" stroke="midnightblue" points="1120.08,-146.465 1124.96,-137.059 1115.28,-141.372 1120.08,-146.465"/>
</g>
<!-- Node32 -->
<g id="node32" class="node"><title>Node32</title>
<g id="a_node32"><a xlink:href="useful__base__types_8h.html" target="_top" xlink:title=" ">
<polygon fill="white" stroke="black" points="349.5,-56.5 349.5,-75.5 455.5,-75.5 455.5,-56.5 349.5,-56.5"/>
<text text-anchor="middle" x="402.5" y="-63.5" font-family="Helvetica,sans-Serif" font-size="10.00">useful_base_types.h</text>
</a>
</g>
</g>
<!-- Node21&#45;&gt;Node32 -->
<g id="edge71" class="edge"><title>Node21&#45;&gt;Node32</title>
<path fill="none" stroke="midnightblue" d="M471.393,-291.09C471.389,-278.494 471.928,-254.805 475.5,-235 480.476,-207.413 518.765,-135.512 503.5,-112 493.093,-95.9696 475.504,-85.6017 457.893,-78.9164"/>
<polygon fill="midnightblue" stroke="midnightblue" points="458.748,-75.5092 448.153,-75.5687 456.472,-82.1291 458.748,-75.5092"/>
</g>
<!-- Node33 -->
<g id="node33" class="node"><title>Node33</title>
<g id="a_node33"><a xlink:href="utils_8h.html" target="_top" xlink:title=" ">
<polygon fill="white" stroke="black" points="730,-118 730,-137 773,-137 773,-118 730,-118"/>
<text text-anchor="middle" x="751.5" y="-125" font-family="Helvetica,sans-Serif" font-size="10.00">utils.h</text>
</a>
</g>
</g>
<!-- Node21&#45;&gt;Node33 -->
<g id="edge72" class="edge"><title>Node21&#45;&gt;Node33</title>
<path fill="none" stroke="midnightblue" d="M472.153,-291.327C474.338,-268.858 483.452,-208.461 519.5,-179 589.772,-121.569 633.999,-170.458 720.5,-143 722.174,-142.469 723.875,-141.867 725.574,-141.217"/>
<polygon fill="midnightblue" stroke="midnightblue" points="727.272,-144.298 735.088,-137.145 724.517,-137.862 727.272,-144.298"/>
</g>
<!-- Node38 -->
<g id="node38" class="node"><title>Node38</title>
<g id="a_node38"><a xlink:href="exception_8h.html" target="_top" xlink:title=" ">
<polygon fill="white" stroke="black" points="645,-118 645,-137 712,-137 712,-118 645,-118"/>
<text text-anchor="middle" x="678.5" y="-125" font-family="Helvetica,sans-Serif" font-size="10.00">exception.h</text>
</a>
</g>
</g>
<!-- Node21&#45;&gt;Node38 -->
<g id="edge70" class="edge"><title>Node21&#45;&gt;Node38</title>
<path fill="none" stroke="midnightblue" d="M498.601,-299.71C554.951,-297.395 682.886,-282.761 723.5,-199 733.265,-178.862 714.959,-157.417 698.844,-143.539"/>
<polygon fill="midnightblue" stroke="midnightblue" points="700.754,-140.583 690.777,-137.018 696.354,-146.027 700.754,-140.583"/>
</g>
<!-- Node24 -->
<g id="node24" class="node"><title>Node24</title>
<g id="a_node24"><a xlink:title=" ">
<polygon fill="white" stroke="#bfbfbf" points="594,-179.5 594,-198.5 635,-198.5 635,-179.5 594,-179.5"/>
<text text-anchor="middle" x="614.5" y="-186.5" font-family="Helvetica,sans-Serif" font-size="10.00">string</text>
</a>
</g>
</g>
<!-- Node23&#45;&gt;Node24 -->
<g id="edge27" class="edge"><title>Node23&#45;&gt;Node24</title>
<path fill="none" stroke="midnightblue" d="M614.5,-235.083C614.5,-228.006 614.5,-217.861 614.5,-208.986"/>
<polygon fill="midnightblue" stroke="midnightblue" points="618,-208.751 614.5,-198.751 611,-208.751 618,-208.751"/>
</g>
<!-- Node25 -->
<g id="node25" class="node"><title>Node25</title>
<g id="a_node25"><a xlink:title=" ">
<polygon fill="white" stroke="#bfbfbf" points="653.5,-179.5 653.5,-198.5 697.5,-198.5 697.5,-179.5 653.5,-179.5"/>
<text text-anchor="middle" x="675.5" y="-186.5" font-family="Helvetica,sans-Serif" font-size="10.00">variant</text>
</a>
</g>
</g>
<!-- Node23&#45;&gt;Node25 -->
<g id="edge28" class="edge"><title>Node23&#45;&gt;Node25</title>
<path fill="none" stroke="midnightblue" d="M624.301,-235.324C633.318,-227.341 646.906,-215.313 657.818,-205.653"/>
<polygon fill="midnightblue" stroke="midnightblue" points="660.353,-208.083 665.521,-198.834 655.713,-202.842 660.353,-208.083"/>
</g>
<!-- Node26 -->
<g id="node26" class="node"><title>Node26</title>
<g id="a_node26"><a xlink:href="bin__rw_8h.html" target="_top" xlink:title=" ">
<polygon fill="white" stroke="black" points="942,-179.5 942,-198.5 995,-198.5 995,-179.5 942,-179.5"/>
<text text-anchor="middle" x="968.5" y="-186.5" font-family="Helvetica,sans-Serif" font-size="10.00">bin_rw.h</text>
</a>
</g>
</g>
<!-- Node23&#45;&gt;Node26 -->
<g id="edge29" class="edge"><title>Node23&#45;&gt;Node26</title>
<path fill="none" stroke="midnightblue" d="M644.046,-240.863C698.778,-234.828 819.789,-220.44 931.725,-198.96"/>
<polygon fill="midnightblue" stroke="midnightblue" points="932.684,-202.339 941.833,-196.996 931.349,-195.468 932.684,-202.339"/>
</g>
<!-- Node23&#45;&gt;Node29 -->
<g id="edge56" class="edge"><title>Node23&#45;&gt;Node29</title>
<path fill="none" stroke="midnightblue" d="M644.082,-244.363C710.173,-244.366 874.172,-239.864 1003.5,-199 1025.24,-192.13 1079.4,-160.853 1110.52,-142.346"/>
<polygon fill="midnightblue" stroke="midnightblue" points="1112.59,-145.187 1119.38,-137.053 1109,-139.178 1112.59,-145.187"/>
</g>
<!-- Node23&#45;&gt;Node33 -->
<g id="edge67" class="edge"><title>Node23&#45;&gt;Node33</title>
<path fill="none" stroke="midnightblue" d="M585.593,-235.406C553.299,-224.356 508.062,-203.627 528.5,-179 583.947,-112.191 637.856,-169.603 720.5,-143 722.172,-142.462 723.871,-141.855 725.569,-141.201"/>
<polygon fill="midnightblue" stroke="midnightblue" points="727.271,-144.28 735.08,-137.119 724.51,-137.847 727.271,-144.28"/>
</g>
<!-- Node23&#45;&gt;Node38 -->
<g id="edge57" class="edge"><title>Node23&#45;&gt;Node38</title>
<path fill="none" stroke="midnightblue" d="M644.136,-238.169C665.529,-232.244 692.944,-220.721 706.5,-199 717.225,-181.815 704.954,-159.831 693.449,-145.017"/>
<polygon fill="midnightblue" stroke="midnightblue" points="696.035,-142.654 686.943,-137.215 690.659,-147.137 696.035,-142.654"/>
</g>
<!-- Node39 -->
<g id="node39" class="node"><title>Node39</title>
<g id="a_node39"><a xlink:href="sys__socket__ops_8h.html" target="_top" xlink:title=" ">
<polygon fill="white" stroke="black" points="309.5,-179.5 309.5,-198.5 405.5,-198.5 405.5,-179.5 309.5,-179.5"/>
<text text-anchor="middle" x="357.5" y="-186.5" font-family="Helvetica,sans-Serif" font-size="10.00">sys_socket_ops.h</text>
</a>
</g>
</g>
<!-- Node23&#45;&gt;Node39 -->
<g id="edge60" class="edge"><title>Node23&#45;&gt;Node39</title>
<path fill="none" stroke="midnightblue" d="M584.768,-237.753C541.571,-228.676 460.876,-211.721 408.184,-200.649"/>
<polygon fill="midnightblue" stroke="midnightblue" points="408.868,-197.217 398.362,-198.586 407.429,-204.067 408.868,-197.217"/>
</g>
<!-- Node41 -->
<g id="node41" class="node"><title>Node41</title>
<g id="a_node41"><a xlink:href="tag_8h.html" target="_top" xlink:title=" ">
<polygon fill="white" stroke="black" points="537.5,-179.5 537.5,-198.5 575.5,-198.5 575.5,-179.5 537.5,-179.5"/>
<text text-anchor="middle" x="556.5" y="-186.5" font-family="Helvetica,sans-Serif" font-size="10.00">tag.h</text>
</a>
</g>
</g>
<!-- Node23&#45;&gt;Node41 -->
<g id="edge66" class="edge"><title>Node23&#45;&gt;Node41</title>
<path fill="none" stroke="midnightblue" d="M605.181,-235.324C596.607,-227.341 583.688,-215.313 573.312,-205.653"/>
<polygon fill="midnightblue" stroke="midnightblue" points="575.692,-203.086 565.988,-198.834 570.922,-208.21 575.692,-203.086"/>
</g>
<!-- Node26&#45;&gt;Node18 -->
<g id="edge32" class="edge"><title>Node26&#45;&gt;Node18</title>
<path fill="none" stroke="midnightblue" d="M979.751,-179.492C1006.65,-159.147 1074.98,-107.478 1108.85,-81.8629"/>
<polygon fill="midnightblue" stroke="midnightblue" points="1111.18,-84.4845 1117.05,-75.661 1106.96,-78.9013 1111.18,-84.4845"/>
</g>
<!-- Node27 -->
<g id="node27" class="node"><title>Node27</title>
<g id="a_node27"><a xlink:title=" ">
<polygon fill="white" stroke="#bfbfbf" points="829.5,-118 829.5,-137 885.5,-137 885.5,-118 829.5,-118"/>
<text text-anchor="middle" x="857.5" y="-125" font-family="Helvetica,sans-Serif" font-size="10.00">algorithm</text>
</a>
</g>
</g>
<!-- Node26&#45;&gt;Node27 -->
<g id="edge30" class="edge"><title>Node26&#45;&gt;Node27</title>
<path fill="none" stroke="midnightblue" d="M952.596,-179.475C934.215,-169.622 903.744,-153.288 882.255,-141.77"/>
<polygon fill="midnightblue" stroke="midnightblue" points="883.841,-138.649 873.374,-137.009 880.534,-144.818 883.841,-138.649"/>
</g>
<!-- Node28 -->
<g id="node28" class="node"><title>Node28</title>
<g id="a_node28"><a xlink:title=" ">
<polygon fill="white" stroke="#bfbfbf" points="859.5,-56.5 859.5,-75.5 905.5,-75.5 905.5,-56.5 859.5,-56.5"/>
<text text-anchor="middle" x="882.5" y="-63.5" font-family="Helvetica,sans-Serif" font-size="10.00">cstring</text>
</a>
</g>
</g>
<!-- Node26&#45;&gt;Node28 -->
<g id="edge31" class="edge"><title>Node26&#45;&gt;Node28</title>
<path fill="none" stroke="midnightblue" d="M961.079,-179.225C953.619,-170.291 941.909,-155.951 932.5,-143 918.201,-123.319 903.007,-99.8075 893.173,-84.2002"/>
<polygon fill="midnightblue" stroke="midnightblue" points="896.069,-82.2299 887.798,-75.6087 890.134,-85.9427 896.069,-82.2299"/>
</g>
<!-- Node26&#45;&gt;Node29 -->
<g id="edge33" class="edge"><title>Node26&#45;&gt;Node29</title>
<path fill="none" stroke="midnightblue" d="M993.385,-179.38C1019.04,-170.449 1060.16,-156.003 1095.5,-143 1097.6,-142.227 1099.76,-141.424 1101.94,-140.609"/>
<polygon fill="midnightblue" stroke="midnightblue" points="1103.31,-143.832 1111.43,-137.024 1100.84,-137.283 1103.31,-143.832"/>
</g>
<!-- Node30 -->
<g id="node30" class="node"><title>Node30</title>
<g id="a_node30"><a xlink:href="endian_8h.html" target="_top" xlink:title=" ">
<polygon fill="white" stroke="black" points="942,-118 942,-137 995,-137 995,-118 942,-118"/>
<text text-anchor="middle" x="968.5" y="-125" font-family="Helvetica,sans-Serif" font-size="10.00">endian.h</text>
</a>
</g>
</g>
<!-- Node26&#45;&gt;Node30 -->
<g id="edge40" class="edge"><title>Node26&#45;&gt;Node30</title>
<path fill="none" stroke="midnightblue" d="M968.5,-179.475C968.5,-171.08 968.5,-157.981 968.5,-147.163"/>
<polygon fill="midnightblue" stroke="midnightblue" points="972,-147.009 968.5,-137.009 965,-147.009 972,-147.009"/>
</g>
<!-- Node26&#45;&gt;Node33 -->
<g id="edge46" class="edge"><title>Node26&#45;&gt;Node33</title>
<path fill="none" stroke="midnightblue" d="M941.892,-180.704C901.743,-169.696 825.829,-148.88 782.985,-137.133"/>
<polygon fill="midnightblue" stroke="midnightblue" points="783.67,-133.692 773.1,-134.423 781.819,-140.442 783.67,-133.692"/>
</g>
<!-- Node29&#45;&gt;Node2 -->
<g id="edge39" class="edge"><title>Node29&#45;&gt;Node2</title>
<path fill="none" stroke="midnightblue" d="M1109.1,-123.36C1083.01,-120.099 1040.39,-115.056 1003.5,-112 712.71,-87.9077 635.282,-110.213 341.638,-75.9739"/>
<polygon fill="midnightblue" stroke="midnightblue" points="341.889,-72.4793 331.548,-74.7852 341.07,-79.4313 341.889,-72.4793"/>
</g>
<!-- Node29&#45;&gt;Node11 -->
<g id="edge35" class="edge"><title>Node29&#45;&gt;Node11</title>
<path fill="none" stroke="midnightblue" d="M1143.62,-117.905C1159.05,-103.789 1185,-75.3321 1168.5,-56 1136.92,-19.0045 988.474,-12.2709 920.116,-11.1538"/>
<polygon fill="midnightblue" stroke="midnightblue" points="919.908,-7.65089 909.863,-11.019 919.816,-14.6503 919.908,-7.65089"/>
</g>
<!-- Node29&#45;&gt;Node15 -->
<g id="edge37" class="edge"><title>Node29&#45;&gt;Node15</title>
<path fill="none" stroke="midnightblue" d="M1120.46,-117.975C1105.73,-108.343 1081.53,-92.5175 1063.99,-81.0517"/>
<polygon fill="midnightblue" stroke="midnightblue" points="1065.8,-78.0522 1055.51,-75.5091 1061.97,-83.911 1065.8,-78.0522"/>
</g>
<!-- Node29&#45;&gt;Node17 -->
<g id="edge36" class="edge"><title>Node29&#45;&gt;Node17</title>
<path fill="none" stroke="midnightblue" d="M1148.54,-117.975C1165.78,-108.211 1194.24,-92.0807 1214.53,-80.5808"/>
<polygon fill="midnightblue" stroke="midnightblue" points="1216.51,-83.4843 1223.48,-75.5091 1213.06,-77.3942 1216.51,-83.4843"/>
</g>
<!-- Node29&#45;&gt;Node18 -->
<g id="edge38" class="edge"><title>Node29&#45;&gt;Node18</title>
<path fill="none" stroke="midnightblue" d="M1132.78,-117.975C1132.08,-109.58 1130.98,-96.4806 1130.07,-85.6631"/>
<polygon fill="midnightblue" stroke="midnightblue" points="1133.54,-85.1808 1129.22,-75.5091 1126.56,-85.7671 1133.54,-85.1808"/>
</g>
<!-- Node29&#45;&gt;Node22 -->
<g id="edge34" class="edge"><title>Node29&#45;&gt;Node22</title>
<path fill="none" stroke="midnightblue" d="M1157.64,-118.101C1187.01,-107.883 1236.79,-90.5605 1270.15,-78.9532"/>
<polygon fill="midnightblue" stroke="midnightblue" points="1271.64,-82.1406 1279.93,-75.5486 1269.34,-75.5294 1271.64,-82.1406"/>
</g>
<!-- Node30&#45;&gt;Node17 -->
<g id="edge41" class="edge"><title>Node30&#45;&gt;Node17</title>
<path fill="none" stroke="midnightblue" d="M995.376,-120.577C1045.12,-109.614 1151.4,-86.1935 1205.46,-74.2817"/>
<polygon fill="midnightblue" stroke="midnightblue" points="1206.22,-77.6986 1215.23,-72.1285 1204.71,-70.8626 1206.22,-77.6986"/>
</g>
<!-- Node30&#45;&gt;Node18 -->
<g id="edge44" class="edge"><title>Node30&#45;&gt;Node18</title>
<path fill="none" stroke="midnightblue" d="M991.424,-117.975C1018.87,-107.769 1065.02,-90.608 1096.1,-79.0492"/>
<polygon fill="midnightblue" stroke="midnightblue" points="1097.47,-82.2752 1105.62,-75.5091 1095.03,-75.7142 1097.47,-82.2752"/>
</g>
<!-- Node30&#45;&gt;Node28 -->
<g id="edge42" class="edge"><title>Node30&#45;&gt;Node28</title>
<path fill="none" stroke="midnightblue" d="M956.178,-117.975C942.384,-108.431 919.801,-92.8073 903.268,-81.3683"/>
<polygon fill="midnightblue" stroke="midnightblue" points="905.014,-78.3205 894.799,-75.5091 901.031,-84.077 905.014,-78.3205"/>
</g>
<!-- Node31 -->
<g id="node31" class="node"><title>Node31</title>
<g id="a_node31"><a xlink:title=" ">
<polygon fill="white" stroke="#bfbfbf" points="923.5,-56.5 923.5,-75.5 987.5,-75.5 987.5,-56.5 923.5,-56.5"/>
<text text-anchor="middle" x="955.5" y="-63.5" font-family="Helvetica,sans-Serif" font-size="10.00">string_view</text>
</a>
</g>
</g>
<!-- Node30&#45;&gt;Node31 -->
<g id="edge43" class="edge"><title>Node30&#45;&gt;Node31</title>
<path fill="none" stroke="midnightblue" d="M966.637,-117.975C964.784,-109.492 961.881,-96.2043 959.503,-85.3222"/>
<polygon fill="midnightblue" stroke="midnightblue" points="962.913,-84.5315 957.359,-75.5091 956.074,-86.0257 962.913,-84.5315"/>
</g>
<!-- Node30&#45;&gt;Node32 -->
<g id="edge45" class="edge"><title>Node30&#45;&gt;Node32</title>
<path fill="none" stroke="midnightblue" d="M941.903,-120.553C927.866,-117.602 910.319,-114.205 894.5,-112 707.803,-85.9739 656.772,-97.3773 465.669,-76.0618"/>
<polygon fill="midnightblue" stroke="midnightblue" points="465.902,-72.566 455.572,-74.92 465.116,-79.5217 465.902,-72.566"/>
</g>
<!-- Node33&#45;&gt;Node2 -->
<g id="edge55" class="edge"><title>Node33&#45;&gt;Node2</title>
<path fill="none" stroke="midnightblue" d="M735.809,-117.889C731.023,-115.615 725.659,-113.406 720.5,-112 559.937,-68.2567 510.412,-98.1569 341.537,-76.0029"/>
<polygon fill="midnightblue" stroke="midnightblue" points="341.944,-72.5262 331.565,-74.6529 341.005,-79.4629 341.944,-72.5262"/>
</g>
<!-- Node33&#45;&gt;Node13 -->
<g id="edge49" class="edge"><title>Node33&#45;&gt;Node13</title>
<path fill="none" stroke="midnightblue" d="M761.673,-117.975C772.85,-108.608 791.017,-93.3839 804.591,-82.0081"/>
<polygon fill="midnightblue" stroke="midnightblue" points="806.93,-84.6148 812.346,-75.5091 802.434,-79.2496 806.93,-84.6148"/>
</g>
<!-- Node33&#45;&gt;Node15 -->
<g id="edge52" class="edge"><title>Node33&#45;&gt;Node15</title>
<path fill="none" stroke="midnightblue" d="M773.245,-121.889C786.825,-119.019 804.676,-115.266 820.5,-112 880.706,-99.5723 950.163,-85.5427 995.123,-76.5016"/>
<polygon fill="midnightblue" stroke="midnightblue" points="996.054,-79.8847 1005.17,-74.4828 994.674,-73.0219 996.054,-79.8847"/>
</g>
<!-- Node33&#45;&gt;Node18 -->
<g id="edge53" class="edge"><title>Node33&#45;&gt;Node18</title>
<path fill="none" stroke="midnightblue" d="M773.175,-121.518C786.729,-118.508 804.576,-114.739 820.5,-112 935.703,-92.1855 968.431,-96.9251 1086.91,-76.15"/>
<polygon fill="midnightblue" stroke="midnightblue" points="1087.88,-79.5331 1097.11,-74.3362 1086.65,-72.6412 1087.88,-79.5331"/>
</g>
<!-- Node33&#45;&gt;Node28 -->
<g id="edge51" class="edge"><title>Node33&#45;&gt;Node28</title>
<path fill="none" stroke="midnightblue" d="M770.269,-117.975C792.351,-107.945 829.219,-91.2002 854.639,-79.6546"/>
<polygon fill="midnightblue" stroke="midnightblue" points="856.108,-82.8313 863.766,-75.5091 853.213,-76.4579 856.108,-82.8313"/>
</g>
<!-- Node34 -->
<g id="node34" class="node"><title>Node34</title>
<g id="a_node34"><a xlink:title=" ">
<polygon fill="white" stroke="#bfbfbf" points="639.5,-56.5 639.5,-75.5 699.5,-75.5 699.5,-56.5 639.5,-56.5"/>
<text text-anchor="middle" x="669.5" y="-63.5" font-family="Helvetica,sans-Serif" font-size="10.00">fmt/core.h</text>
</a>
</g>
</g>
<!-- Node33&#45;&gt;Node34 -->
<g id="edge47" class="edge"><title>Node33&#45;&gt;Node34</title>
<path fill="none" stroke="midnightblue" d="M739.751,-117.975C726.721,-108.52 705.464,-93.0961 689.741,-81.6871"/>
<polygon fill="midnightblue" stroke="midnightblue" points="691.376,-78.5492 681.227,-75.5091 687.265,-84.2149 691.376,-78.5492"/>
</g>
<!-- Node35 -->
<g id="node35" class="node"><title>Node35</title>
<g id="a_node35"><a xlink:title=" ">
<polygon fill="white" stroke="#bfbfbf" points="717.5,-56.5 717.5,-75.5 785.5,-75.5 785.5,-56.5 717.5,-56.5"/>
<text text-anchor="middle" x="751.5" y="-63.5" font-family="Helvetica,sans-Serif" font-size="10.00">fmt/format.h</text>
</a>
</g>
</g>
<!-- Node33&#45;&gt;Node35 -->
<g id="edge48" class="edge"><title>Node33&#45;&gt;Node35</title>
<path fill="none" stroke="midnightblue" d="M751.5,-117.975C751.5,-109.58 751.5,-96.4806 751.5,-85.6631"/>
<polygon fill="midnightblue" stroke="midnightblue" points="755,-85.5091 751.5,-75.5091 748,-85.5091 755,-85.5091"/>
</g>
<!-- Node36 -->
<g id="node36" class="node"><title>Node36</title>
<g id="a_node36"><a xlink:title=" ">
<polygon fill="white" stroke="#bfbfbf" points="473.5,-56.5 473.5,-75.5 519.5,-75.5 519.5,-56.5 473.5,-56.5"/>
<text text-anchor="middle" x="496.5" y="-63.5" font-family="Helvetica,sans-Serif" font-size="10.00">chrono</text>
</a>
</g>
</g>
<!-- Node33&#45;&gt;Node36 -->
<g id="edge50" class="edge"><title>Node33&#45;&gt;Node36</title>
<path fill="none" stroke="midnightblue" d="M735.08,-117.881C730.458,-115.716 725.364,-113.566 720.5,-112 640.842,-86.3578 614.908,-95.0711 529.384,-76"/>
<polygon fill="midnightblue" stroke="midnightblue" points="530.038,-72.5592 519.509,-73.7349 528.473,-79.382 530.038,-72.5592"/>
</g>
<!-- Node37 -->
<g id="node37" class="node"><title>Node37</title>
<g id="a_node37"><a xlink:title=" ">
<polygon fill="white" stroke="#bfbfbf" points="538,-56.5 538,-75.5 621,-75.5 621,-56.5 538,-56.5"/>
<text text-anchor="middle" x="579.5" y="-63.5" font-family="Helvetica,sans-Serif" font-size="10.00">unordered_map</text>
</a>
</g>
</g>
<!-- Node33&#45;&gt;Node37 -->
<g id="edge54" class="edge"><title>Node33&#45;&gt;Node37</title>
<path fill="none" stroke="midnightblue" d="M734.292,-117.972C729.848,-115.903 725.037,-113.776 720.5,-112 687.111,-98.9258 648.226,-86.734 619.759,-78.3474"/>
<polygon fill="midnightblue" stroke="midnightblue" points="620.73,-74.9849 610.15,-75.5444 618.77,-81.7048 620.73,-74.9849"/>
</g>
<!-- Node38&#45;&gt;Node2 -->
<g id="edge59" class="edge"><title>Node38&#45;&gt;Node2</title>
<path fill="none" stroke="midnightblue" d="M644.86,-121.853C585.686,-113.596 458.883,-95.5371 341.471,-76.1172"/>
<polygon fill="midnightblue" stroke="midnightblue" points="342.031,-72.6623 331.592,-74.4763 340.884,-79.5677 342.031,-72.6623"/>
</g>
<!-- Node38&#45;&gt;Node15 -->
<g id="edge58" class="edge"><title>Node38&#45;&gt;Node15</title>
<path fill="none" stroke="midnightblue" d="M700.486,-117.971C706.864,-115.754 713.892,-113.555 720.5,-112 837.743,-84.4167 872.577,-95.2704 995.219,-76.0978"/>
<polygon fill="midnightblue" stroke="midnightblue" points="996.058,-79.5082 1005.38,-74.4727 994.952,-72.5961 996.058,-79.5082"/>
</g>
<!-- Node39&#45;&gt;Node2 -->
<g id="edge61" class="edge"><title>Node39&#45;&gt;Node2</title>
<path fill="none" stroke="midnightblue" d="M356.746,-179.455C355.138,-164.766 350.397,-134.172 337.5,-112 330.877,-100.614 320.597,-90.1703 311.433,-82.2164"/>
<polygon fill="midnightblue" stroke="midnightblue" points="313.412,-79.3123 303.469,-75.656 308.962,-84.7154 313.412,-79.3123"/>
</g>
<!-- Node39&#45;&gt;Node32 -->
<g id="edge65" class="edge"><title>Node39&#45;&gt;Node32</title>
<path fill="none" stroke="midnightblue" d="M397.252,-179.433C431.101,-171.236 475.89,-157.939 486.5,-143 494.478,-131.767 493.578,-123.821 486.5,-112 477.351,-96.7189 461.041,-86.332 445.212,-79.4255"/>
<polygon fill="midnightblue" stroke="midnightblue" points="446.072,-76.0012 435.486,-75.5623 443.488,-82.5068 446.072,-76.0012"/>
</g>
<!-- Node40 -->
<g id="node40" class="node"><title>Node40</title>
<g id="a_node40"><a xlink:href="sys__error__code_8h.html" target="_top" xlink:title=" ">
<polygon fill="white" stroke="black" points="385.5,-118 385.5,-137 477.5,-137 477.5,-118 385.5,-118"/>
<text text-anchor="middle" x="431.5" y="-125" font-family="Helvetica,sans-Serif" font-size="10.00">sys_error_code.h</text>
</a>
</g>
</g>
<!-- Node39&#45;&gt;Node40 -->
<g id="edge62" class="edge"><title>Node39&#45;&gt;Node40</title>
<path fill="none" stroke="midnightblue" d="M368.102,-179.475C379.752,-170.108 398.686,-154.884 412.835,-143.508"/>
<polygon fill="midnightblue" stroke="midnightblue" points="415.317,-146.003 420.917,-137.009 410.931,-140.548 415.317,-146.003"/>
</g>
<!-- Node40&#45;&gt;Node2 -->
<g id="edge63" class="edge"><title>Node40&#45;&gt;Node2</title>
<path fill="none" stroke="midnightblue" d="M411.441,-117.975C387.738,-107.901 348.094,-91.0525 320.917,-79.5023"/>
<polygon fill="midnightblue" stroke="midnightblue" points="322.094,-76.1994 311.521,-75.5091 319.356,-82.6417 322.094,-76.1994"/>
</g>
<!-- Node40&#45;&gt;Node32 -->
<g id="edge64" class="edge"><title>Node40&#45;&gt;Node32</title>
<path fill="none" stroke="midnightblue" d="M427.345,-117.975C423.124,-109.315 416.463,-95.6486 411.1,-84.6453"/>
<polygon fill="midnightblue" stroke="midnightblue" points="414.175,-82.9648 406.647,-75.5091 407.882,-86.0317 414.175,-82.9648"/>
</g>
</g>
</svg>
